  0
SECTION
  2
HEADER
  9
$ACADVER
  1
AC1012
  9
$DWGCODEPAGE
  3
ansi_1252
  9
$INSBASE
 10
0.0
 20
0.0
 30
0.0
  9
$EXTMIN
 10
1.000000000000000E+20
 20
1.000000000000000E+20
 30
1.000000000000000E+20
  9
$EXTMAX
 10
-1.000000000000000E+20
 20
-1.000000000000000E+20
 30
-1.000000000000000E+20
  9
$LIMMIN
 10
0.0
 20
0.0
  9
$LIMMAX
 10
12.0
 20
9.0
  9
$ORTHOMODE
 70
     0
  9
$REGENMODE
 70
     1
  9
$FILLMODE
 70
     1
  9
$QTEXTMODE
 70
     0
  9
$MIRRTEXT
 70
     1
  9
$DRAGMODE
 70
     2
  9
$LTSCALE
 40
1.0
  9
$OSMODE
 70
    37
  9
$ATTMODE
 70
     1
  9
$TEXTSIZE
 40
0.2
  9
$TRACEWID
 40
0.05
  9
$TEXTSTYLE
  7
STANDARD
  9
$CLAYER
  8
0
  9
$CELTYPE
  6
BYLAYER
  9
$CECOLOR
 62
   256
  9
$CELTSCALE
 40
1.0
  9
$DELOBJ
 70
     1
  9
$DISPSILH
 70
     0
  9
$DIMSCALE
 40
1.0
  9
$DIMASZ
 40
0.18
  9
$DIMEXO
 40
0.0625
  9
$DIMDLI
 40
0.38
  9
$DIMRND
 40
0.0
  9
$DIMDLE
 40
0.0
  9
$DIMEXE
 40
0.18
  9
$DIMTP
 40
0.0
  9
$DIMTM
 40
0.0
  9
$DIMTXT
 40
0.18
  9
$DIMCEN
 40
0.09
  9
$DIMTSZ
 40
0.0
  9
$DIMTOL
 70
     0
  9
$DIMLIM
 70
     0
  9
$DIMTIH
 70
     1
  9
$DIMTOH
 70
     1
  9
$DIMSE1
 70
     0
  9
$DIMSE2
 70
     0
  9
$DIMTAD
 70
     0
  9
$DIMZIN
 70
     0
  9
$DIMBLK
  1

  9
$DIMASO
 70
     1
  9
$DIMSHO
 70
     1
  9
$DIMPOST
  1

  9
$DIMAPOST
  1

  9
$DIMALT
 70
     0
  9
$DIMALTD
 70
     2
  9
$DIMALTF
 40
25.4
  9
$DIMLFAC
 40
1.0
  9
$DIMTOFL
 70
     0
  9
$DIMTVP
 40
0.0
  9
$DIMTIX
 70
     0
  9
$DIMSOXD
 70
     0
  9
$DIMSAH
 70
     0
  9
$DIMBLK1
  1

  9
$DIMBLK2
  1

  9
$DIMSTYLE
  2
STANDARD
  9
$DIMCLRD
 70
     0
  9
$DIMCLRE
 70
     0
  9
$DIMCLRT
 70
     0
  9
$DIMTFAC
 40
1.0
  9
$DIMGAP
 40
0.09
  9
$DIMJUST
 70
     0
  9
$DIMSD1
 70
     0
  9
$DIMSD2
 70
     0
  9
$DIMTOLJ
 70
     1
  9
$DIMTZIN
 70
     0
  9
$DIMALTZ
 70
     0
  9
$DIMALTTZ
 70
     0
  9
$DIMFIT
 70
     3
  9
$DIMUPT
 70
     0
  9
$DIMUNIT
 70
     2
  9
$DIMDEC
 70
     4
  9
$DIMTDEC
 70
     4
  9
$DIMALTU
 70
     2
  9
$DIMALTTD
 70
     2
  9
$DIMTXSTY
  7
STANDARD
  9
$DIMAUNIT
 70
     0
  9
$LUNITS
 70
     2
  9
$LUPREC
 70
     4
  9
$SKETCHINC
 40
0.1
  9
$FILLETRAD
 40
0.5
  9
$AUNITS
 70
     0
  9
$AUPREC
 70
     0
  9
$MENU
  1
.
  9
$ELEVATION
 40
0.0
  9
$PELEVATION
 40
0.0
  9
$THICKNESS
 40
0.0
  9
$LIMCHECK
 70
     0
  9
$CHAMFERA
 40
0.5
  9
$CHAMFERB
 40
0.5
  9
$CHAMFERC
 40
1.0
  9
$CHAMFERD
 40
0.0
  9
$SKPOLY
 70
     0
  9
$TDCREATE
 40
2456381.42534941
  9
$TDUPDATE
 40
2456381.425349421
  9
$TDINDWG
 40
0.0000000116
  9
$TDUSRTIMER
 40
0.0000000116
  9
$USRTIMER
 70
     1
  9
$ANGBASE
 50
0.0
  9
$ANGDIR
 70
     0
  9
$PDMODE
 70
     0
  9
$PDSIZE
 40
0.0
  9
$PLINEWID
 40
0.0
  9
$COORDS
 70
     1
  9
$SPLFRAME
 70
     0
  9
$SPLINETYPE
 70
     6
  9
$SPLINESEGS
 70
     8
  9
$ATTDIA
 70
     0
  9
$ATTREQ
 70
     1
  9
$HANDLING
 70
     1
  9
$HANDSEED
  5
EA
  9
$SURFTAB1
 70
     6
  9
$SURFTAB2
 70
     6
  9
$SURFTYPE
 70
     6
  9
$SURFU
 70
     6
  9
$SURFV
 70
     6
  9
$UCSNAME
  2

  9
$UCSORG
 10
0.0
 20
0.0
 30
0.0
  9
$UCSXDIR
 10
1.0
 20
0.0
 30
0.0
  9
$UCSYDIR
 10
0.0
 20
1.0
 30
0.0
  9
$PUCSNAME
  2

  9
$PUCSORG
 10
0.0
 20
0.0
 30
0.0
  9
$PUCSXDIR
 10
1.0
 20
0.0
 30
0.0
  9
$PUCSYDIR
 10
0.0
 20
1.0
 30
0.0
  9
$USERI1
 70
     0
  9
$USERI2
 70
     0
  9
$USERI3
 70
     0
  9
$USERI4
 70
     0
  9
$USERI5
 70
     0
  9
$USERR1
 40
0.0
  9
$USERR2
 40
0.0
  9
$USERR3
 40
0.0
  9
$USERR4
 40
0.0
  9
$USERR5
 40
0.0
  9
$WORLDVIEW
 70
     1
  9
$SHADEDGE
 70
     3
  9
$SHADEDIF
 70
    70
  9
$TILEMODE
 70
     1
  9
$MAXACTVP
 70
    64
  9
$PINSBASE
 10
0.0
 20
0.0
 30
0.0
  9
$PLIMCHECK
 70
     0
  9
$PEXTMIN
 10
1.000000000000000E+20
 20
1.000000000000000E+20
 30
1.000000000000000E+20
  9
$PEXTMAX
 10
-1.000000000000000E+20
 20
-1.000000000000000E+20
 30
-1.000000000000000E+20
  9
$PLIMMIN
 10
0.0
 20
0.0
  9
$PLIMMAX
 10
12.0
 20
9.0
  9
$UNITMODE
 70
     0
  9
$VISRETAIN
 70
     1
  9
$PLINEGEN
 70
     0
  9
$PSLTSCALE
 70
     1
  9
$TREEDEPTH
 70
  3020
  9
$PICKSTYLE
 70
     1
  9
$CMLSTYLE
  2
STANDARD
  9
$CMLJUST
 70
     0
  9
$CMLSCALE
 40
1.0
  9
$SAVEIMAGES
 70
     1
  0
ENDSEC
  0
SECTION
  2
CLASSES
  0
CLASS
  1
ACDBDICTIONARYWDFLT
  2
AcDbDictionaryWithDefault
  3
ObjectDBX Classes
 90
    32768
280
     0
281
     0
  0
CLASS
  1
VISUALSTYLE
  2
AcDbVisualStyle
  3
ObjectDBX Classes
 90
     4095
280
     0
281
     0
  0
CLASS
  1
XRECORD
  2
AcDbXrecord
  3
AutoCAD 2000
 90
    32768
280
     0
281
     0
  0
CLASS
  1
LWPOLYLINE
  2
AcDbPolyline
  3
AutoCAD 2000
 90
    32768
280
     0
281
     1
  0
CLASS
  1
HATCH
  2
AcDbHatch
  3
AutoCAD 2000
 90
    32768
280
     0
281
     1
  0
CLASS
  1
ACDBPLACEHOLDER
  2
AcDbPlaceHolder
  3
ObjectDBX Classes
 90
        0
280
     0
281
     0
  0
CLASS
  1
LAYOUT
  2
AcDbLayout
  3
ObjectDBX Classes
 90
        0
280
     0
281
     0
  0
ENDSEC
  0
SECTION
  2
TABLES
  0
TABLE
  2
VPORT
  5
8
330
0
100
AcDbSymbolTable
 70
     1
  0
VPORT
  5
29
330
8
100
AcDbSymbolTableRecord
100
AcDbViewportTableRecord
  2
*ACTIVE
 70
     0
 10
0.0
 20
0.0
 11
1.0
 21
1.0
 12
0.0
 22
0.0
 13
0.0
 23
0.0
 14
0.5
 24
0.5
 15
0.5
 25
0.5
 16
0.0
 26
0.0
 36
1.0
 17
104.951388862651
 27
148.5194444073146
 37
0.0
 40
297.0388888146292
 41
0.7066508313539193
 42
50.0
 43
0.0
 44
0.0
 50
0.0
 51
0.0
 71
     0
 72
   100
 73
     1
 74
     3
 75
     0
 76
     0
 77
     0
 78
     0
  0
ENDTAB
  0
TABLE
  2
LTYPE
  5
5
330
0
100
AcDbSymbolTable
 70
     1
  0
LTYPE
  5
14
330
5
100
AcDbSymbolTableRecord
100
AcDbLinetypeTableRecord
  2
BYBLOCK
 70
     0
  3

 72
    65
 73
     0
 40
0.0
  0
LTYPE
  5
15
330
5
100
AcDbSymbolTableRecord
100
AcDbLinetypeTableRecord
  2
BYLAYER
 70
     0
  3

 72
    65
 73
     0
 40
0.0
  0
LTYPE
  5
16
330
5
100
AcDbSymbolTableRecord
100
AcDbLinetypeTableRecord
  2
CONTINUOUS
 70
     0
  3
Solid line
 72
    65
 73
     0
 40
0.0
  0
ENDTAB
  0
TABLE
  2
LAYER
  5
2
330
0
100
AcDbSymbolTable
 70
     2
  0
LAYER
  5
10
330
2
100
AcDbSymbolTableRecord
100
AcDbLayerTableRecord
  2
0
 70
     0
 62
     7
  6
CONTINUOUS
  0
LAYER
  5
3B
330
2
100
AcDbSymbolTableRecord
100
AcDbLayerTableRecord
  2
LAYER_1
 70
     0
 62
     7
  6
CONTINUOUS
  0
ENDTAB
  0
TABLE
  2
STYLE
  5
3
330
0
100
AcDbSymbolTable
 70
     1
  0
STYLE
  5
11
330
3
100
AcDbSymbolTableRecord
100
AcDbTextStyleTableRecord
  2
STANDARD
 70
     0
 40
0.0
 41
1.0
 50
0.0
 71
     0
 42
0.2
  3
txt
  4

  0
ENDTAB
  0
TABLE
  2
VIEW
  5
6
330
0
100
AcDbSymbolTable
 70
     0
  0
ENDTAB
  0
TABLE
  2
UCS
  5
7
330
0
100
AcDbSymbolTable
 70
     0
  0
ENDTAB
  0
TABLE
  2
APPID
  5
9
330
0
100
AcDbSymbolTable
 70
     1
  0
APPID
  5
12
330
9
100
AcDbSymbolTableRecord
100
AcDbRegAppTableRecord
  2
ACAD
 70
     0
  0
ENDTAB
  0
TABLE
  2
DIMSTYLE
  5
A
330
0
100
AcDbSymbolTable
 70
     1
  0
DIMSTYLE
105
27
330
A
100
AcDbSymbolTableRecord
100
AcDbDimStyleTableRecord
  2
STANDARD
 70
     0
  3

  4

  5

  6

  7

 40
1.0
 41
0.18
 42
0.0625
 43
0.38
 44
0.18
 45
0.0
 46
0.0
 47
0.0
 48
0.0
140
0.18
141
0.09
142
0.0
143
25.4
144
1.0
145
0.0
146
1.0
147
0.09
 71
     0
 72
     0
 73
     1
 74
     1
 75
     0
 76
     0
 77
     0
 78
     0
170
     0
171
     2
172
     0
173
     0
174
     0
175
     0
176
     0
177
     0
178
     0
270
     2
271
     4
272
     4
273
     2
274
     2
340
11
275
     0
280
     0
281
     0
282
     0
283
     1
284
     0
285
     0
286
     0
287
     3
288
     0
  0
ENDTAB
  0
TABLE
  2
BLOCK_RECORD
  5
1
330
0
100
AcDbSymbolTable
 70
     6
  0
BLOCK_RECORD
  5
1F
330
1
100
AcDbSymbolTableRecord
100
AcDbBlockTableRecord
  2
*MODEL_SPACE
  0
BLOCK_RECORD
  5
1B
330
1
100
AcDbSymbolTableRecord
100
AcDbBlockTableRecord
  2
*PAPER_SPACE
  0
BLOCK_RECORD
  5
3C
330
1
100
AcDbSymbolTableRecord
100
AcDbBlockTableRecord
  2
BLOCK_2
  0
BLOCK_RECORD
  5
48
330
1
100
AcDbSymbolTableRecord
100
AcDbBlockTableRecord
  2
BLOCK_3
  0
BLOCK_RECORD
  5
55
330
1
100
AcDbSymbolTableRecord
100
AcDbBlockTableRecord
  2
BLOCK_4
  0
BLOCK_RECORD
  5
61
330
1
100
AcDbSymbolTableRecord
100
AcDbBlockTableRecord
  2
BLOCK_5
  0
BLOCK_RECORD
  5
82
330
1
100
AcDbSymbolTableRecord
100
AcDbBlockTableRecord
  2
BLOCK_6
  0
ENDTAB
  0
ENDSEC
  0
SECTION
  2
BLOCKS
  0
BLOCK
  5
20
330
1F
100
AcDbEntity
  8
0
100
AcDbBlockBegin
  2
*MODEL_SPACE
 70
     0
 71
     0
 10
0.0
 20
0.0
 30
0.0
  3
*MODEL_SPACE
  1

  0
ENDBLK
  5
21
330
1F
100
AcDbEntity
  8
0
100
AcDbBlockEnd
  0
BLOCK
  5
1C
330
1B
100
AcDbEntity
 67
     1
  8
0
100
AcDbBlockBegin
  2
*PAPER_SPACE
 70
     0
 71
     0
 10
0.0
 20
0.0
 30
0.0
  3
*PAPER_SPACE
  1

  0
ENDBLK
  5
1D
330
1B
100
AcDbEntity
 67
     1
  8
0
100
AcDbBlockEnd
  0
BLOCK
  5
3E
330
3C
100
AcDbEntity
  8
0
100
AcDbBlockBegin
  2
BLOCK_2
 70
     0
 71
     0
 10
0.0
 20
0.0
 30
0.0
  3
BLOCK_2
  1

  0
POLYLINE
  5
40
330
3C
100
AcDbEntity
  8
LAYER_1
 62
     7
100
AcDb2dPolyline
 66
     1
 10
0.0
 20
0.0
 30
0.0
  0
VERTEX
  5
41
330
40
100
AcDbEntity
  8
LAYER_1
 62
     7
100
AcDbVertex
100
AcDb2dVertex
 10
0.0
 20
1.439360893737382
 30
0.0
  0
VERTEX
  5
42
330
40
100
AcDbEntity
  8
LAYER_1
 62
     7
100
AcDbVertex
100
AcDb2dVertex
 10
0.0
 20
0.0
 30
0.0
  0
SEQEND
  5
43
330
40
100
AcDbEntity
  8
LAYER_1
  0
POLYLINE
  5
44
330
3C
100
AcDbEntity
  8
LAYER_1
 62
     7
100
AcDb2dPolyline
 66
     1
 10
0.0
 20
0.0
 30
0.0
  0
VERTEX
  5
45
330
44
100
AcDbEntity
  8
LAYER_1
 62
     7
100
AcDbVertex
100
AcDb2dVertex
 10
0.8044297958058371
 20
0.0
 30
0.0
  0
VERTEX
  5
46
330
44
100
AcDbEntity
  8
LAYER_1
 62
     7
100
AcDbVertex
100
AcDb2dVertex
 10
0.0
 20
0.0
 30
0.0
  0
SEQEND
  5
47
330
44
100
AcDbEntity
  8
LAYER_1
  0
INSERT
  5
49
330
3C
100
AcDbEntity
  8
LAYER_1
100
AcDbBlockReference
  2
BLOCK_3
 10
0.0
 20
0.0
 30
0.0
  0
INSERT
  5
56
330
3C
100
AcDbEntity
  8
LAYER_1
100
AcDbBlockReference
  2
BLOCK_4
 10
0.0
 20
0.0
 30
0.0
  0
INSERT
  5
62
330
3C
100
AcDbEntity
  8
LAYER_1
100
AcDbBlockReference
  2
BLOCK_5
 10
0.0
 20
0.0
 30
0.0
  0
INSERT
  5
83
330
3C
100
AcDbEntity
  8
LAYER_1
100
AcDbBlockReference
  2
BLOCK_6
 10
0.0
 20
0.0
 30
0.0
  0
POLYLINE
  5
DB
330
3C
100
AcDbEntity
  8
LAYER_1
 62
     7
100
AcDb2dPolyline
 66
     1
 10
0.0
 20
0.0
 30
0.0
  0
VERTEX
  5
DC
330
DB
100
AcDbEntity
  8
LAYER_1
 62
     7
100
AcDbVertex
100
AcDb2dVertex
 10
29.21027560033632
 20
0.0
 30
0.0
  0
VERTEX
  5
DD
330
DB
100
AcDbEntity
  8
LAYER_1
 62
     7
100
AcDbVertex
100
AcDb2dVertex
 10
113.6230387085734
 20
0.0
 30
0.0
  0
VERTEX
  5
DE
330
DB
100
AcDbEntity
  8
LAYER_1
 62
     7
100
AcDbVertex
100
AcDb2dVertex
 10
113.6230387085734
 20
77.59698620021881
 30
0.0
  0
VERTEX
  5
DF
330
DB
100
AcDbEntity
  8
LAYER_1
 62
     7
100
AcDbVertex
100
AcDb2dVertex
 10
29.21027560033632
 20
77.59698620021881
 30
0.0
  0
VERTEX
  5
E0
330
DB
100
AcDbEntity
  8
LAYER_1
 62
     7
100
AcDbVertex
100
AcDb2dVertex
 10
29.21027560033632
 20
0.0
 30
0.0
  0
SEQEND
  5
E1
330
DB
100
AcDbEntity
  8
LAYER_1
  0
POLYLINE
  5
E2
330
3C
100
AcDbEntity
  8
LAYER_1
 62
     7
100
AcDb2dPolyline
 66
     1
 10
0.0
 20
0.0
 30
0.0
  0
VERTEX
  5
E3
330
E2
100
AcDbEntity
  8
LAYER_1
 62
     7
100
AcDbVertex
100
AcDb2dVertex
 10
0.0
 20
9.52499999761875
 30
0.0
  0
VERTEX
  5
E4
330
E2
100
AcDbEntity
  8
LAYER_1
 62
     7
100
AcDbVertex
100
AcDb2dVertex
 10
23.15655381365531
 20
9.52499999761875
 30
0.0
  0
VERTEX
  5
E5
330
E2
100
AcDbEntity
  8
LAYER_1
 62
     7
100
AcDbVertex
100
AcDb2dVertex
 10
23.15655381365531
 20
69.34219290801168
 30
0.0
  0
VERTEX
  5
E6
330
E2
100
AcDbEntity
  8
LAYER_1
 62
     7
100
AcDbVertex
100
AcDb2dVertex
 10
0.0
 20
69.34219290801168
 30
0.0
  0
VERTEX
  5
E7
330
E2
100
AcDbEntity
  8
LAYER_1
 62
     7
100
AcDbVertex
100
AcDb2dVertex
 10
0.0
 20
9.52499999761875
 30
0.0
  0
SEQEND
  5
E8
330
E2
100
AcDbEntity
  8
LAYER_1
  0
ENDBLK
  5
3F
330
3C
100
AcDbEntity
  8
0
100
AcDbBlockEnd
  0
BLOCK
  5
4A
330
48
100
AcDbEntity
  8
0
100
AcDbBlockBegin
  2
BLOCK_3
 70
     0
 71
     0
 10
0.0
 20
0.0
 30
0.0
  3
BLOCK_3
  1

  0
SPLINE
  5
4C
330
48
100
AcDbEntity
  8
LAYER_1
 62
     7
100
AcDbSpline
210
0.0
220
0.0
230
1.0
 70
    11
 71
     3
 72
    17
 73
    13
 74
     0
 42
0.0000000001
 43
0.0000000001
 40
0.0
 40
0.0
 40
0.0
 40
0.0
 40
1.0
 40
1.0
 40
1.0
 40
2.0
 40
2.0
 40
2.0
 40
3.0
 40
3.0
 40
3.0
 40
4.0
 40
4.0
 40
4.0
 40
4.0
 10
95.25034448573604
 20
5.122167967469458
 30
0.0
 10
95.50390351345041
 20
5.122167967469458
 30
0.0
 10
95.71577688579329
 20
4.910639104675118
 30
0.0
 10
95.71577688579329
 20
4.656735567412206
 30
0.0
 10
95.71577688579329
 20
4.402832030149292
 30
0.0
 10
95.50390351345041
 20
4.148583983337854
 30
0.0
 10
95.25034448573604
 20
4.148583983337854
 30
0.0
 10
94.9960964389246
 20
4.148583983337854
 30
0.0
 10
94.74219290166168
 20
4.402832030149292
 30
0.0
 10
94.74219290166168
 20
4.656735567412206
 30
0.0
 10
94.74219290166168
 20
4.910639104675118
 30
0.0
 10
94.9960964389246
 20
5.122167967469458
 30
0.0
 10
95.25034448573604
 20
5.122167967469458
 30
0.0
  0
SPLINE
  5
4D
330
48
100
AcDbEntity
  8
LAYER_1
 62
     7
100
AcDbSpline
210
0.0
220
0.0
230
1.0
 70
    11
 71
     3
 72
    17
 73
    13
 74
     0
 42
0.0000000001
 43
0.0000000001
 40
0.0
 40
0.0
 40
0.0
 40
0.0
 40
1.0
 40
1.0
 40
1.0
 40
2.0
 40
2.0
 40
2.0
 40
3.0
 40
3.0
 40
3.0
 40
4.0
 40
4.0
 40
4.0
 40
4.0
 10
92.7099310749128
 20
5.122167967469458
 30
0.0
 10
92.96417912172424
 20
5.122167967469458
 30
0.0
 10
93.17570798451858
 20
4.910639104675118
 30
0.0
 10
93.17570798451858
 20
4.656735567412206
 30
0.0
 10
93.17570798451858
 20
4.402832030149292
 30
0.0
 10
92.96417912172424
 20
4.148583983337854
 30
0.0
 10
92.7099310749128
 20
4.148583983337854
 30
0.0
 10
92.45637204719841
 20
4.148583983337854
 30
0.0
 10
92.20212400038697
 20
4.402832030149292
 30
0.0
 10
92.20212400038697
 20
4.656735567412206
 30
0.0
 10
92.20212400038697
 20
4.910639104675118
 30
0.0
 10
92.45637204719841
 20
5.122167967469458
 30
0.0
 10
92.7099310749128
 20
5.122167967469458
 30
0.0
  0
SPLINE
  5
4E
330
48
100
AcDbEntity
  8
LAYER_1
 62
     7
100
AcDbSpline
210
0.0
220
0.0
230
1.0
 70
    11
 71
     3
 72
    17
 73
    13
 74
     0
 42
0.0000000001
 43
0.0000000001
 40
0.0
 40
0.0
 40
0.0
 40
0.0
 40
1.0
 40
1.0
 40
1.0
 40
2.0
 40
2.0
 40
2.0
 40
3.0
 40
3.0
 40
3.0
 40
4.0
 40
4.0
 40
4.0
 40
4.0
 10
90.17020668318662
 20
5.122167967469458
 30
0.0
 10
90.42411022044953
 20
5.122167967469458
 30
0.0
 10
90.6359835927924
 20
4.910639104675118
 30
0.0
 10
90.6359835927924
 20
4.656735567412206
 30
0.0
 10
90.6359835927924
 20
4.402832030149292
 30
0.0
 10
90.42411022044953
 20
4.148583983337854
 30
0.0
 10
90.17020668318662
 20
4.148583983337854
 30
0.0
 10
89.91595863637518
 20
4.148583983337854
 30
0.0
 10
89.66239960866079
 20
4.402832030149292
 30
0.0
 10
89.66239960866079
 20
4.656735567412206
 30
0.0
 10
89.66239960866079
 20
4.910639104675118
 30
0.0
 10
89.91595863637518
 20
5.122167967469458
 30
0.0
 10
90.17020668318662
 20
5.122167967469458
 30
0.0
  0
SPLINE
  5
4F
330
48
100
AcDbEntity
  8
LAYER_1
 62
     7
100
AcDbSpline
210
0.0
220
0.0
230
1.0
 70
    11
 71
     3
 72
    17
 73
    13
 74
     0
 42
0.0000000001
 43
0.0000000001
 40
0.0
 40
0.0
 40
0.0
 40
0.0
 40
1.0
 40
1.0
 40
1.0
 40
2.0
 40
2.0
 40
2.0
 40
3.0
 40
3.0
 40
3.0
 40
4.0
 40
4.0
 40
4.0
 40
4.0
 10
87.63013778191191
 20
5.122167967469458
 30
0.0
 10
87.88404131917483
 20
5.122167967469458
 30
0.0
 10
88.09557018196917
 20
4.910639104675118
 30
0.0
 10
88.09557018196917
 20
4.656735567412206
 30
0.0
 10
88.09557018196917
 20
4.402832030149292
 30
0.0
 10
87.88404131917483
 20
4.148583983337854
 30
0.0
 10
87.63013778191191
 20
4.148583983337854
 30
0.0
 10
87.376234244649
 20
4.148583983337854
 30
0.0
 10
87.12198619783756
 20
4.402832030149292
 30
0.0
 10
87.12198619783756
 20
4.656735567412206
 30
0.0
 10
87.12198619783756
 20
4.910639104675118
 30
0.0
 10
87.376234244649
 20
5.122167967469458
 30
0.0
 10
87.63013778191191
 20
5.122167967469458
 30
0.0
  0
SPLINE
  5
50
330
48
100
AcDbEntity
  8
LAYER_1
 62
     7
100
AcDbSpline
210
0.0
220
0.0
230
1.0
 70
    11
 71
     3
 72
    17
 73
    13
 74
     0
 42
0.0000000001
 43
0.0000000001
 40
0.0
 40
0.0
 40
0.0
 40
0.0
 40
1.0
 40
1.0
 40
1.0
 40
2.0
 40
2.0
 40
2.0
 40
3.0
 40
3.0
 40
3.0
 40
4.0
 40
4.0
 40
4.0
 40
4.0
 10
85.0900688806372
 20
5.122167967469458
 30
0.0
 10
85.34431692744865
 20
5.122167967469458
 30
0.0
 10
85.55584579024298
 20
4.910639104675118
 30
0.0
 10
85.55584579024298
 20
4.656735567412206
 30
0.0
 10
85.55584579024298
 20
4.402832030149292
 30
0.0
 10
85.34431692744865
 20
4.148583983337854
 30
0.0
 10
85.0900688806372
 20
4.148583983337854
 30
0.0
 10
84.83616534337429
 20
4.148583983337854
 30
0.0
 10
84.58226180611138
 20
4.402832030149292
 30
0.0
 10
84.58226180611138
 20
4.656735567412206
 30
0.0
 10
84.58226180611138
 20
4.910639104675118
 30
0.0
 10
84.83616534337429
 20
5.122167967469458
 30
0.0
 10
85.0900688806372
 20
5.122167967469458
 30
0.0
  0
SPLINE
  5
51
330
48
100
AcDbEntity
  8
LAYER_1
 62
     7
100
AcDbSpline
210
0.0
220
0.0
230
1.0
 70
    11
 71
     3
 72
    17
 73
    13
 74
     0
 42
0.0000000001
 43
0.0000000001
 40
0.0
 40
0.0
 40
0.0
 40
0.0
 40
1.0
 40
1.0
 40
1.0
 40
2.0
 40
2.0
 40
2.0
 40
3.0
 40
3.0
 40
3.0
 40
4.0
 40
4.0
 40
4.0
 40
4.0
 10
82.55034448891102
 20
5.122167967469458
 30
0.0
 10
82.80390351662541
 20
5.122167967469458
 30
0.0
 10
83.01577688896828
 20
4.910639104675118
 30
0.0
 10
83.01577688896828
 20
4.656735567412206
 30
0.0
 10
83.01577688896828
 20
4.402832030149292
 30
0.0
 10
82.80390351662541
 20
4.148583983337854
 30
0.0
 10
82.55034448891102
 20
4.148583983337854
 30
0.0
 10
82.2960964420996
 20
4.148583983337854
 30
0.0
 10
82.04219290483668
 20
4.402832030149292
 30
0.0
 10
82.04219290483668
 20
4.656735567412206
 30
0.0
 10
82.04219290483668
 20
4.910639104675118
 30
0.0
 10
82.2960964420996
 20
5.122167967469458
 30
0.0
 10
82.55034448891102
 20
5.122167967469458
 30
0.0
  0
SPLINE
  5
52
330
48
100
AcDbEntity
  8
LAYER_1
 62
     7
100
AcDbSpline
210
0.0
220
0.0
230
1.0
 70
    11
 71
     3
 72
    17
 73
    13
 74
     0
 42
0.0000000001
 43
0.0000000001
 40
0.0
 40
0.0
 40
0.0
 40
0.0
 40
1.0
 40
1.0
 40
1.0
 40
2.0
 40
2.0
 40
2.0
 40
3.0
 40
3.0
 40
3.0
 40
4.0
 40
4.0
 40
4.0
 40
4.0
 10
80.0099310780878
 20
5.122167967469458
 30
0.0
 10
80.26417912489924
 20
5.122167967469458
 30
0.0
 10
80.47570798769358
 20
4.910639104675118
 30
0.0
 10
80.47570798769358
 20
4.656735567412206
 30
0.0
 10
80.47570798769358
 20
4.402832030149292
 30
0.0
 10
80.26417912489924
 20
4.148583983337854
 30
0.0
 10
80.0099310780878
 20
4.148583983337854
 30
0.0
 10
79.75637205037341
 20
4.148583983337854
 30
0.0
 10
79.50212400356197
 20
4.402832030149292
 30
0.0
 10
79.50212400356197
 20
4.656735567412206
 30
0.0
 10
79.50212400356197
 20
4.910639104675118
 30
0.0
 10
79.75637205037341
 20
5.122167967469458
 30
0.0
 10
80.0099310780878
 20
5.122167967469458
 30
0.0
  0
SPLINE
  5
53
330
48
100
AcDbEntity
  8
LAYER_1
 62
     7
100
AcDbSpline
210
0.0
220
0.0
230
1.0
 70
    11
 71
     3
 72
    17
 73
    13
 74
     0
 42
0.0000000001
 43
0.0000000001
 40
0.0
 40
0.0
 40
0.0
 40
0.0
 40
1.0
 40
1.0
 40
1.0
 40
2.0
 40
2.0
 40
2.0
 40
3.0
 40
3.0
 40
3.0
 40
4.0
 40
4.0
 40
4.0
 40
4.0
 10
77.47020668636162
 20
5.122167967469458
 30
0.0
 10
77.72411022362454
 20
5.122167967469458
 30
0.0
 10
77.9359835959674
 20
4.910639104675118
 30
0.0
 10
77.9359835959674
 20
4.656735567412206
 30
0.0
 10
77.9359835959674
 20
4.402832030149292
 30
0.0
 10
77.72411022362454
 20
4.148583983337854
 30
0.0
 10
77.47020668636162
 20
4.148583983337854
 30
0.0
 10
77.21595863955018
 20
4.148583983337854
 30
0.0
 10
76.96239961183579
 20
4.402832030149292
 30
0.0
 10
76.96239961183579
 20
4.656735567412206
 30
0.0
 10
76.96239961183579
 20
4.910639104675118
 30
0.0
 10
77.21595863955018
 20
5.122167967469458
 30
0.0
 10
77.47020668636162
 20
5.122167967469458
 30
0.0
  0
SPLINE
  5
54
330
48
100
AcDbEntity
  8
LAYER_1
 62
     7
100
AcDbSpline
210
0.0
220
0.0
230
1.0
 70
    11
 71
     3
 72
    17
 73
    13
 74
     0
 42
0.0000000001
 43
0.0000000001
 40
0.0
 40
0.0
 40
0.0
 40
0.0
 40
1.0
 40
1.0
 40
1.0
 40
2.0
 40
2.0
 40
2.0
 40
3.0
 40
3.0
 40
3.0
 40
4.0
 40
4.0
 40
4.0
 40
4.0
 10
74.93013778508691
 20
5.122167967469458
 30
0.0
 10
75.18404132234983
 20
5.122167967469458
 30
0.0
 10
75.39557018514417
 20
4.910639104675118
 30
0.0
 10
75.39557018514417
 20
4.656735567412206
 30
0.0
 10
75.39557018514417
 20
4.402832030149292
 30
0.0
 10
75.18404132234983
 20
4.148583983337854
 30
0.0
 10
74.93013778508691
 20
4.148583983337854
 30
0.0
 10
74.676234247824
 20
4.148583983337854
 30
0.0
 10
74.42198620101256
 20
4.402832030149292
 30
0.0
 10
74.42198620101256
 20
4.656735567412206
 30
0.0
 10
74.42198620101256
 20
4.910639104675118
 30
0.0
 10
74.676234247824
 20
5.122167967469458
 30
0.0
 10
74.93013778508691
 20
5.122167967469458
 30
0.0
  0
ENDBLK
  5
4B
330
48
100
AcDbEntity
  8
0
100
AcDbBlockEnd
  0
BLOCK
  5
57
330
55
100
AcDbEntity
  8
0
100
AcDbBlockBegin
  2
BLOCK_4
 70
     0
 71
     0
 10
0.0
 20
0.0
 30
0.0
  3
BLOCK_4
  1

  0
SPLINE
  5
59
330
55
100
AcDbEntity
  8
LAYER_1
 62
     7
100
AcDbSpline
210
0.0
220
0.0
230
1.0
 70
    11
 71
     3
 72
    17
 73
    13
 74
     0
 42
0.0000000001
 43
0.0000000001
 40
0.0
 40
0.0
 40
0.0
 40
0.0
 40
1.0
 40
1.0
 40
1.0
 40
2.0
 40
2.0
 40
2.0
 40
3.0
 40
3.0
 40
3.0
 40
4.0
 40
4.0
 40
4.0
 40
4.0
 10
110.3205701764129
 20
73.27890351900666
 30
0.0
 10
109.5164848901556
 20
73.27890351900666
 30
0.0
 10
108.8391791177555
 20
73.9565538009553
 30
0.0
 10
108.8391791177555
 20
74.76063908721262
 30
0.0
 10
108.8391791177555
 20
75.60744355748703
 30
0.0
 10
109.5164848901556
 20
76.24237465541857
 30
0.0
 10
110.3205701764129
 20
76.24237465541857
 30
0.0
 10
111.1673746466873
 20
76.24237465541857
 30
0.0
 10
111.8026502541674
 20
75.60744355748703
 30
0.0
 10
111.8026502541674
 20
74.76063908721262
 30
0.0
 10
111.8026502541674
 20
73.9565538009553
 30
0.0
 10
111.1673746466873
 20
73.27890351900666
 30
0.0
 10
110.3205701764129
 20
73.27890351900666
 30
0.0
  0
SPLINE
  5
5A
330
55
100
AcDbEntity
  8
LAYER_1
 62
     7
100
AcDbSpline
210
0.0
220
0.0
230
1.0
 70
    11
 71
     3
 72
    17
 73
    13
 74
     0
 42
0.0000000001
 43
0.0000000001
 40
0.0
 40
0.0
 40
0.0
 40
0.0
 40
1.0
 40
1.0
 40
1.0
 40
2.0
 40
2.0
 40
2.0
 40
3.0
 40
3.0
 40
3.0
 40
4.0
 40
4.0
 40
4.0
 40
4.0
 10
32.72392848574263
 20
73.27890351900666
 30
0.0
 10
31.91949868993679
 20
73.27890351900666
 30
0.0
 10
31.24219291753668
 20
73.9565538009553
 30
0.0
 10
31.24219291753668
 20
74.76063908721262
 30
0.0
 10
31.24219291753668
 20
75.60744355748703
 30
0.0
 10
31.91949868993679
 20
76.24237465541857
 30
0.0
 10
32.72392848574263
 20
76.24237465541857
 30
0.0
 10
33.57038844646851
 20
76.24237465541857
 30
0.0
 10
34.20531954440006
 20
75.60744355748703
 30
0.0
 10
34.20531954440006
 20
74.76063908721262
 30
0.0
 10
34.20531954440006
 20
73.9565538009553
 30
0.0
 10
33.57038844646851
 20
73.27890351900666
 30
0.0
 10
32.72392848574263
 20
73.27890351900666
 30
0.0
  0
SPLINE
  5
5B
330
55
100
AcDbEntity
  8
LAYER_1
 62
     7
100
AcDbSpline
210
0.0
220
0.0
230
1.0
 70
    11
 71
     3
 72
    17
 73
    13
 74
     0
 42
0.0000000001
 43
0.0000000001
 40
0.0
 40
0.0
 40
0.0
 40
0.0
 40
1.0
 40
1.0
 40
1.0
 40
2.0
 40
2.0
 40
2.0
 40
3.0
 40
3.0
 40
3.0
 40
4.0
 40
4.0
 40
4.0
 40
4.0
 10
110.3205701764129
 20
4.825889755737972
 30
0.0
 10
111.1673746466873
 20
4.825889755737972
 30
0.0
 10
111.8026502541674
 20
4.190958657806427
 30
0.0
 10
111.8026502541674
 20
3.344498697080542
 30
0.0
 10
111.8026502541674
 20
2.540068901274705
 30
0.0
 10
111.1673746466873
 20
1.862763128874587
 30
0.0
 10
110.3205701764129
 20
1.862763128874587
 30
0.0
 10
109.5164848901556
 20
1.862763128874587
 30
0.0
 10
108.8391791177555
 20
2.540068901274705
 30
0.0
 10
108.8391791177555
 20
3.344498697080542
 30
0.0
 10
108.8391791177555
 20
4.190958657806427
 30
0.0
 10
109.5164848901556
 20
4.825889755737972
 30
0.0
 10
110.3205701764129
 20
4.825889755737972
 30
0.0
  0
SPLINE
  5
5C
330
55
100
AcDbEntity
  8
LAYER_1
 62
     7
100
AcDbSpline
210
0.0
220
0.0
230
1.0
 70
    11
 71
     3
 72
    17
 73
    13
 74
     0
 42
0.0000000001
 43
0.0000000001
 40
0.0
 40
0.0
 40
0.0
 40
0.0
 40
1.0
 40
1.0
 40
1.0
 40
2.0
 40
2.0
 40
2.0
 40
3.0
 40
3.0
 40
3.0
 40
4.0
 40
4.0
 40
4.0
 40
4.0
 10
107.950344482561
 20
70.31577689214328
 30
0.0
 10
108.5849310709441
 20
70.31577689214328
 30
0.0
 10
109.0507079805498
 20
69.8499999825375
 30
0.0
 10
109.0507079805498
 20
69.21506888460596
 30
0.0
 10
109.0507079805498
 20
68.58013778667441
 30
0.0
 10
108.5849310709441
 20
68.07198620260006
 30
0.0
 10
107.950344482561
 20
68.07198620260006
 30
0.0
 10
107.315068875081
 20
68.07198620260006
 30
0.0
 10
106.8072618005551
 20
68.58013778667441
 30
0.0
 10
106.8072618005551
 20
69.21506888460596
 30
0.0
 10
106.8072618005551
 20
69.8499999825375
 30
0.0
 10
107.315068875081
 20
70.31577689214328
 30
0.0
 10
107.950344482561
 20
70.31577689214328
 30
0.0
  0
SPLINE
  5
5D
330
55
100
AcDbEntity
  8
LAYER_1
 62
     7
100
AcDbSpline
210
0.0
220
0.0
230
1.0
 70
    11
 71
     3
 72
    17
 73
    13
 74
     0
 42
0.0000000001
 43
0.0000000001
 40
0.0
 40
0.0
 40
0.0
 40
0.0
 40
1.0
 40
1.0
 40
1.0
 40
2.0
 40
2.0
 40
2.0
 40
3.0
 40
3.0
 40
3.0
 40
4.0
 40
4.0
 40
4.0
 40
4.0
 10
61.93385957653042
 20
70.31577689214328
 30
0.0
 10
62.56879067446197
 20
70.31577689214328
 30
0.0
 10
63.03456758406775
 20
69.8499999825375
 30
0.0
 10
63.03456758406775
 20
69.21506888460596
 30
0.0
 10
63.03456758406775
 20
68.58013778667441
 30
0.0
 10
62.56879067446197
 20
68.07198620260006
 30
0.0
 10
61.93385957653042
 20
68.07198620260006
 30
0.0
 10
61.29892847859888
 20
68.07198620260006
 30
0.0
 10
60.79077689452453
 20
68.58013778667441
 30
0.0
 10
60.79077689452453
 20
69.21506888460596
 30
0.0
 10
60.79077689452453
 20
69.8499999825375
 30
0.0
 10
61.29892847859888
 20
70.31577689214328
 30
0.0
 10
61.93385957653042
 20
70.31577689214328
 30
0.0
  0
SPLINE
  5
5E
330
55
100
AcDbEntity
  8
LAYER_1
 62
     7
100
AcDbSpline
210
0.0
220
0.0
230
1.0
 70
    11
 71
     3
 72
    17
 73
    13
 74
     0
 42
0.0000000001
 43
0.0000000001
 40
0.0
 40
0.0
 40
0.0
 40
0.0
 40
1.0
 40
1.0
 40
1.0
 40
2.0
 40
2.0
 40
2.0
 40
3.0
 40
3.0
 40
3.0
 40
4.0
 40
4.0
 40
4.0
 40
4.0
 10
61.93385957653042
 20
11.30301377755619
 30
0.0
 10
62.56879067446197
 20
11.30301377755619
 30
0.0
 10
63.03456758406775
 20
10.79486219348184
 30
0.0
 10
63.03456758406775
 20
10.1599310955503
 30
0.0
 10
63.03456758406775
 20
9.567374672087324
 30
0.0
 10
62.56879067446197
 20
9.017192923092924
 30
0.0
 10
61.93385957653042
 20
9.017192923092924
 30
0.0
 10
61.29892847859888
 20
9.017192923092924
 30
0.0
 10
60.79077689452453
 20
9.567374672087324
 30
0.0
 10
60.79077689452453
 20
10.1599310955503
 30
0.0
 10
60.79077689452453
 20
10.79486219348184
 30
0.0
 10
61.29892847859888
 20
11.30301377755619
 30
0.0
 10
61.93385957653042
 20
11.30301377755619
 30
0.0
  0
SPLINE
  5
5F
330
55
100
AcDbEntity
  8
LAYER_1
 62
     7
100
AcDbSpline
210
0.0
220
0.0
230
1.0
 70
    11
 71
     3
 72
    17
 73
    13
 74
     0
 42
0.0000000001
 43
0.0000000001
 40
0.0
 40
0.0
 40
0.0
 40
0.0
 40
1.0
 40
1.0
 40
1.0
 40
2.0
 40
2.0
 40
2.0
 40
3.0
 40
3.0
 40
3.0
 40
4.0
 40
4.0
 40
4.0
 40
4.0
 10
32.72392848574263
 20
4.825889755737972
 30
0.0
 10
33.57038844646851
 20
4.825889755737972
 30
0.0
 10
34.20531954440006
 20
4.190958657806427
 30
0.0
 10
34.20531954440006
 20
3.344498697080542
 30
0.0
 10
34.20531954440006
 20
2.540068901274705
 30
0.0
 10
33.57038844646851
 20
1.862763128874587
 30
0.0
 10
32.72392848574263
 20
1.862763128874587
 30
0.0
 10
31.91949868993679
 20
1.862763128874587
 30
0.0
 10
31.24219291753668
 20
2.540068901274705
 30
0.0
 10
31.24219291753668
 20
3.344498697080542
 30
0.0
 10
31.24219291753668
 20
4.190958657806427
 30
0.0
 10
31.91949868993679
 20
4.825889755737972
 30
0.0
 10
32.72392848574263
 20
4.825889755737972
 30
0.0
  0
SPLINE
  5
60
330
55
100
AcDbEntity
  8
LAYER_1
 62
     7
100
AcDbSpline
210
0.0
220
0.0
230
1.0
 70
    11
 71
     3
 72
    17
 73
    13
 74
     0
 42
0.0000000001
 43
0.0000000001
 40
0.0
 40
0.0
 40
0.0
 40
0.0
 40
1.0
 40
1.0
 40
1.0
 40
2.0
 40
2.0
 40
2.0
 40
3.0
 40
3.0
 40
3.0
 40
4.0
 40
4.0
 40
4.0
 40
4.0
 10
107.950344482561
 20
11.30301377755619
 30
0.0
 10
108.5849310709441
 20
11.30301377755619
 30
0.0
 10
109.0507079805498
 20
10.79486219348184
 30
0.0
 10
109.0507079805498
 20
10.1599310955503
 30
0.0
 10
109.0507079805498
 20
9.567374672087324
 30
0.0
 10
108.5849310709441
 20
9.017192923092924
 30
0.0
 10
107.950344482561
 20
9.017192923092924
 30
0.0
 10
107.315068875081
 20
9.017192923092924
 30
0.0
 10
106.8072618005551
 20
9.567374672087324
 30
0.0
 10
106.8072618005551
 20
10.1599310955503
 30
0.0
 10
106.8072618005551
 20
10.79486219348184
 30
0.0
 10
107.315068875081
 20
11.30301377755619
 30
0.0
 10
107.950344482561
 20
11.30301377755619
 30
0.0
  0
ENDBLK
  5
58
330
55
100
AcDbEntity
  8
0
100
AcDbBlockEnd
  0
BLOCK
  5
63
330
61
100
AcDbEntity
  8
0
100
AcDbBlockBegin
  2
BLOCK_5
 70
     0
 71
     0
 10
0.0
 20
0.0
 30
0.0
  3
BLOCK_5
  1

  0
SPLINE
  5
65
330
61
100
AcDbEntity
  8
LAYER_1
 62
     7
100
AcDbSpline
210
0.0
220
0.0
230
1.0
 70
    11
 71
     3
 72
    17
 73
    13
 74
     0
 42
0.0000000001
 43
0.0000000001
 40
0.0
 40
0.0
 40
0.0
 40
0.0
 40
1.0
 40
1.0
 40
1.0
 40
2.0
 40
2.0
 40
2.0
 40
3.0
 40
3.0
 40
3.0
 40
4.0
 40
4.0
 40
4.0
 40
4.0
 10
42.37570799721858
 20
30.81844617285094
 30
0.0
 10
42.9262342557615
 20
30.81844617285094
 30
0.0
 10
43.3496364908987
 20
30.39538844726227
 30
0.0
 10
43.3496364908987
 20
29.84486218871934
 30
0.0
 10
43.3496364908987
 20
29.33705511419351
 30
0.0
 10
42.9262342557615
 20
28.87127820458774
 30
0.0
 10
42.37570799721858
 20
28.87127820458774
 30
0.0
 10
41.86790092269275
 20
28.87127820458774
 30
0.0
 10
41.40212401308697
 20
29.33705511419351
 30
0.0
 10
41.40212401308697
 20
29.84486218871934
 30
0.0
 10
41.40212401308697
 20
30.39538844726227
 30
0.0
 10
41.86790092269275
 20
30.81844617285094
 30
0.0
 10
42.37570799721858
 20
30.81844617285094
 30
0.0
  0
SPLINE
  5
66
330
61
100
AcDbEntity
  8
LAYER_1
 62
     7
100
AcDbSpline
210
0.0
220
0.0
230
1.0
 70
    11
 71
     3
 72
    17
 73
    13
 74
     0
 42
0.0000000001
 43
0.0000000001
 40
0.0
 40
0.0
 40
0.0
 40
0.0
 40
1.0
 40
1.0
 40
1.0
 40
2.0
 40
2.0
 40
2.0
 40
3.0
 40
3.0
 40
3.0
 40
4.0
 40
4.0
 40
4.0
 40
4.0
 10
42.37570799721858
 20
28.27872178112477
 30
0.0
 10
42.9262342557615
 20
28.27872178112477
 30
0.0
 10
43.3496364908987
 20
27.85531954598756
 30
0.0
 10
43.3496364908987
 20
27.30513779699316
 30
0.0
 10
43.3496364908987
 20
26.79698621291881
 30
0.0
 10
42.9262342557615
 20
26.33155381286156
 30
0.0
 10
42.37570799721858
 20
26.33155381286156
 30
0.0
 10
41.86790092269275
 20
26.33155381286156
 30
0.0
 10
41.40212401308697
 20
26.79698621291881
 30
0.0
 10
41.40212401308697
 20
27.30513779699316
 30
0.0
 10
41.40212401308697
 20
27.85531954598756
 30
0.0
 10
41.86790092269275
 20
28.27872178112477
 30
0.0
 10
42.37570799721858
 20
28.27872178112477
 30
0.0
  0
SPLINE
  5
67
330
61
100
AcDbEntity
  8
LAYER_1
 62
     7
100
AcDbSpline
210
0.0
220
0.0
230
1.0
 70
    11
 71
     3
 72
    17
 73
    13
 74
     0
 42
0.0000000001
 43
0.0000000001
 40
0.0
 40
0.0
 40
0.0
 40
0.0
 40
1.0
 40
1.0
 40
1.0
 40
2.0
 40
2.0
 40
2.0
 40
3.0
 40
3.0
 40
3.0
 40
4.0
 40
4.0
 40
4.0
 40
4.0
 10
51.13865287350006
 20
62.73794486278774
 30
0.0
 10
51.68917913204299
 20
62.73794486278774
 30
0.0
 10
52.11258136718019
 20
62.31488713719906
 30
0.0
 10
52.11258136718019
 20
61.76436087865613
 30
0.0
 10
52.11258136718019
 20
61.25655380413031
 30
0.0
 10
51.68917913204299
 20
60.79077689452453
 30
0.0
 10
51.13865287350006
 20
60.79077689452453
 30
0.0
 10
50.58847112450566
 20
60.79077689452453
 30
0.0
 10
50.12269421489989
 20
61.25655380413031
 30
0.0
 10
50.12269421489989
 20
61.76436087865613
 30
0.0
 10
50.12269421489989
 20
62.31488713719906
 30
0.0
 10
50.58847112450566
 20
62.73794486278774
 30
0.0
 10
51.13865287350006
 20
62.73794486278774
 30
0.0
  0
SPLINE
  5
68
330
61
100
AcDbEntity
  8
LAYER_1
 62
     7
100
AcDbSpline
210
0.0
220
0.0
230
1.0
 70
    11
 71
     3
 72
    17
 73
    13
 74
     0
 42
0.0000000001
 43
0.0000000001
 40
0.0
 40
0.0
 40
0.0
 40
0.0
 40
1.0
 40
1.0
 40
1.0
 40
2.0
 40
2.0
 40
2.0
 40
3.0
 40
3.0
 40
3.0
 40
4.0
 40
4.0
 40
4.0
 40
4.0
 10
48.59892848177388
 20
58.25070799324983
 30
0.0
 10
48.04840222323096
 20
58.25070799324983
 30
0.0
 10
47.58296982317371
 20
58.71614039330708
 30
0.0
 10
47.58296982317371
 20
59.22429197738143
 30
0.0
 10
47.58296982317371
 20
59.77447372637583
 30
0.0
 10
48.04840222323096
 20
60.19822047106156
 30
0.0
 10
48.59892848177388
 20
60.19822047106156
 30
0.0
 10
49.14911023076828
 20
60.19822047106156
 30
0.0
 10
49.57251246590548
 20
59.77447372637583
 30
0.0
 10
49.57251246590548
 20
59.22429197738143
 30
0.0
 10
49.57251246590548
 20
58.71614039330708
 30
0.0
 10
49.14911023076828
 20
58.25070799324983
 30
0.0
 10
48.59892848177388
 20
58.25070799324983
 30
0.0
  0
SPLINE
  5
69
330
61
100
AcDbEntity
  8
LAYER_1
 62
     7
100
AcDbSpline
210
0.0
220
0.0
230
1.0
 70
    11
 71
     3
 72
    17
 73
    13
 74
     0
 42
0.0000000001
 43
0.0000000001
 40
0.0
 40
0.0
 40
0.0
 40
0.0
 40
1.0
 40
1.0
 40
1.0
 40
2.0
 40
2.0
 40
2.0
 40
3.0
 40
3.0
 40
3.0
 40
4.0
 40
4.0
 40
4.0
 40
4.0
 10
48.59892848177388
 20
60.79077689452453
 30
0.0
 10
48.04840222323096
 20
60.79077689452453
 30
0.0
 10
47.58296982317371
 20
61.25655380413031
 30
0.0
 10
47.58296982317371
 20
61.76436087865613
 30
0.0
 10
47.58296982317371
 20
62.31488713719906
 30
0.0
 10
48.04840222323096
 20
62.73794486278774
 30
0.0
 10
48.59892848177388
 20
62.73794486278774
 30
0.0
 10
49.14911023076828
 20
62.73794486278774
 30
0.0
 10
49.57251246590548
 20
62.31488713719906
 30
0.0
 10
49.57251246590548
 20
61.76436087865613
 30
0.0
 10
49.57251246590548
 20
61.25655380413031
 30
0.0
 10
49.14911023076828
 20
60.79077689452453
 30
0.0
 10
48.59892848177388
 20
60.79077689452453
 30
0.0
  0
SPLINE
  5
6A
330
61
100
AcDbEntity
  8
LAYER_1
 62
     7
100
AcDbSpline
210
0.0
220
0.0
230
1.0
 70
    11
 71
     3
 72
    17
 73
    13
 74
     0
 42
0.0000000001
 43
0.0000000001
 40
0.0
 40
0.0
 40
0.0
 40
0.0
 40
1.0
 40
1.0
 40
1.0
 40
2.0
 40
2.0
 40
2.0
 40
3.0
 40
3.0
 40
3.0
 40
4.0
 40
4.0
 40
4.0
 40
4.0
 10
46.05885958049917
 20
58.25070799324983
 30
0.0
 10
45.50833332195625
 20
58.25070799324983
 30
0.0
 10
45.042900921899
 20
58.71614039330708
 30
0.0
 10
45.042900921899
 20
59.22429197738143
 30
0.0
 10
45.042900921899
 20
59.77447372637583
 30
0.0
 10
45.50833332195625
 20
60.19822047106156
 30
0.0
 10
46.05885958049917
 20
60.19822047106156
 30
0.0
 10
46.60904132949358
 20
60.19822047106156
 30
0.0
 10
47.03244356463078
 20
59.77447372637583
 30
0.0
 10
47.03244356463078
 20
59.22429197738143
 30
0.0
 10
47.03244356463078
 20
58.71614039330708
 30
0.0
 10
46.60904132949358
 20
58.25070799324983
 30
0.0
 10
46.05885958049917
 20
58.25070799324983
 30
0.0
  0
SPLINE
  5
6B
330
61
100
AcDbEntity
  8
LAYER_1
 62
     7
100
AcDbSpline
210
0.0
220
0.0
230
1.0
 70
    11
 71
     3
 72
    17
 73
    13
 74
     0
 42
0.0000000001
 43
0.0000000001
 40
0.0
 40
0.0
 40
0.0
 40
0.0
 40
1.0
 40
1.0
 40
1.0
 40
2.0
 40
2.0
 40
2.0
 40
3.0
 40
3.0
 40
3.0
 40
4.0
 40
4.0
 40
4.0
 40
4.0
 10
46.05885958049917
 20
60.79077689452453
 30
0.0
 10
45.50833332195625
 20
60.79077689452453
 30
0.0
 10
45.042900921899
 20
61.25655380413031
 30
0.0
 10
45.042900921899
 20
61.76436087865613
 30
0.0
 10
45.042900921899
 20
62.31488713719906
 30
0.0
 10
45.50833332195625
 20
62.73794486278774
 30
0.0
 10
46.05885958049917
 20
62.73794486278774
 30
0.0
 10
46.60904132949358
 20
62.73794486278774
 30
0.0
 10
47.03244356463078
 20
62.31488713719906
 30
0.0
 10
47.03244356463078
 20
61.76436087865613
 30
0.0
 10
47.03244356463078
 20
61.25655380413031
 30
0.0
 10
46.60904132949358
 20
60.79077689452453
 30
0.0
 10
46.05885958049917
 20
60.79077689452453
 30
0.0
  0
SPLINE
  5
6C
330
61
100
AcDbEntity
  8
LAYER_1
 62
     7
100
AcDbSpline
210
0.0
220
0.0
230
1.0
 70
    11
 71
     3
 72
    17
 73
    13
 74
     0
 42
0.0000000001
 43
0.0000000001
 40
0.0
 40
0.0
 40
0.0
 40
0.0
 40
1.0
 40
1.0
 40
1.0
 40
2.0
 40
2.0
 40
2.0
 40
3.0
 40
3.0
 40
3.0
 40
4.0
 40
4.0
 40
4.0
 40
4.0
 10
42.5028320206243
 20
59.22429197738143
 30
0.0
 10
42.5028320206243
 20
59.77447372637583
 30
0.0
 10
42.96860893023007
 20
60.19822047106156
 30
0.0
 10
43.51879067922447
 20
60.19822047106156
 30
0.0
 10
44.0693169377674
 20
60.19822047106156
 30
0.0
 10
44.49237466335607
 20
59.77447372637583
 30
0.0
 10
44.49237466335607
 20
59.22429197738143
 30
0.0
 10
44.49237466335607
 20
58.71614039330708
 30
0.0
 10
44.0693169377674
 20
58.25070799324983
 30
0.0
 10
43.51879067922447
 20
58.25070799324983
 30
0.0
 10
42.96860893023007
 20
58.25070799324983
 30
0.0
 10
42.5028320206243
 20
58.71614039330708
 30
0.0
 10
42.5028320206243
 20
59.22429197738143
 30
0.0
  0
SPLINE
  5
6D
330
61
100
AcDbEntity
  8
LAYER_1
 62
     7
100
AcDbSpline
210
0.0
220
0.0
230
1.0
 70
    11
 71
     3
 72
    17
 73
    13
 74
     0
 42
0.0000000001
 43
0.0000000001
 40
0.0
 40
0.0
 40
0.0
 40
0.0
 40
1.0
 40
1.0
 40
1.0
 40
2.0
 40
2.0
 40
2.0
 40
3.0
 40
3.0
 40
3.0
 40
4.0
 40
4.0
 40
4.0
 40
4.0
 10
43.51879067922447
 20
60.79077689452453
 30
0.0
 10
42.96860893023007
 20
60.79077689452453
 30
0.0
 10
42.5028320206243
 20
61.25655380413031
 30
0.0
 10
42.5028320206243
 20
61.76436087865613
 30
0.0
 10
42.5028320206243
 20
62.31488713719906
 30
0.0
 10
42.96860893023007
 20
62.73794486278774
 30
0.0
 10
43.51879067922447
 20
62.73794486278774
 30
0.0
 10
44.0693169377674
 20
62.73794486278774
 30
0.0
 10
44.49237466335607
 20
62.31488713719906
 30
0.0
 10
44.49237466335607
 20
61.76436087865613
 30
0.0
 10
44.49237466335607
 20
61.25655380413031
 30
0.0
 10
44.0693169377674
 20
60.79077689452453
 30
0.0
 10
43.51879067922447
 20
60.79077689452453
 30
0.0
  0
SPLINE
  5
6E
330
61
100
AcDbEntity
  8
LAYER_1
 62
     7
100
AcDbSpline
210
0.0
220
0.0
230
1.0
 70
    11
 71
     3
 72
    17
 73
    13
 74
     0
 42
0.0000000001
 43
0.0000000001
 40
0.0
 40
0.0
 40
0.0
 40
0.0
 40
1.0
 40
1.0
 40
1.0
 40
2.0
 40
2.0
 40
2.0
 40
3.0
 40
3.0
 40
3.0
 40
4.0
 40
4.0
 40
4.0
 40
4.0
 10
39.96276311934959
 20
59.22429197738143
 30
0.0
 10
39.96276311934959
 20
59.77447372637583
 30
0.0
 10
40.42854002895537
 20
60.19822047106156
 30
0.0
 10
40.97872177794977
 20
60.19822047106156
 30
0.0
 10
41.52924803649269
 20
60.19822047106156
 30
0.0
 10
41.95265027162989
 20
59.77447372637583
 30
0.0
 10
41.95265027162989
 20
59.22429197738143
 30
0.0
 10
41.95265027162989
 20
58.71614039330708
 30
0.0
 10
41.52924803649269
 20
58.25070799324983
 30
0.0
 10
40.97872177794977
 20
58.25070799324983
 30
0.0
 10
40.42854002895537
 20
58.25070799324983
 30
0.0
 10
39.96276311934959
 20
58.71614039330708
 30
0.0
 10
39.96276311934959
 20
59.22429197738143
 30
0.0
  0
SPLINE
  5
6F
330
61
100
AcDbEntity
  8
LAYER_1
 62
     7
100
AcDbSpline
210
0.0
220
0.0
230
1.0
 70
    11
 71
     3
 72
    17
 73
    13
 74
     0
 42
0.0000000001
 43
0.0000000001
 40
0.0
 40
0.0
 40
0.0
 40
0.0
 40
1.0
 40
1.0
 40
1.0
 40
2.0
 40
2.0
 40
2.0
 40
3.0
 40
3.0
 40
3.0
 40
4.0
 40
4.0
 40
4.0
 40
4.0
 10
40.97872177794977
 20
60.79077689452453
 30
0.0
 10
40.42854002895537
 20
60.79077689452453
 30
0.0
 10
39.96276311934959
 20
61.25655380413031
 30
0.0
 10
39.96276311934959
 20
61.76436087865613
 30
0.0
 10
39.96276311934959
 20
62.31488713719906
 30
0.0
 10
40.42854002895537
 20
62.73794486278774
 30
0.0
 10
40.97872177794977
 20
62.73794486278774
 30
0.0
 10
41.52924803649269
 20
62.73794486278774
 30
0.0
 10
41.95265027162989
 20
62.31488713719906
 30
0.0
 10
41.95265027162989
 20
61.76436087865613
 30
0.0
 10
41.95265027162989
 20
61.25655380413031
 30
0.0
 10
41.52924803649269
 20
60.79077689452453
 30
0.0
 10
40.97872177794977
 20
60.79077689452453
 30
0.0
  0
SPLINE
  5
70
330
61
100
AcDbEntity
  8
LAYER_1
 62
     7
100
AcDbSpline
210
0.0
220
0.0
230
1.0
 70
    11
 71
     3
 72
    17
 73
    13
 74
     0
 42
0.0000000001
 43
0.0000000001
 40
0.0
 40
0.0
 40
0.0
 40
0.0
 40
1.0
 40
1.0
 40
1.0
 40
2.0
 40
2.0
 40
2.0
 40
3.0
 40
3.0
 40
3.0
 40
4.0
 40
4.0
 40
4.0
 40
4.0
 10
38.43865287667506
 20
58.25070799324983
 30
0.0
 10
37.93084580214924
 20
58.25070799324983
 30
0.0
 10
37.46506889254346
 20
58.71614039330708
 30
0.0
 10
37.46506889254346
 20
59.22429197738143
 30
0.0
 10
37.46506889254346
 20
59.77447372637583
 30
0.0
 10
37.93084580214924
 20
60.19822047106156
 30
0.0
 10
38.43865287667506
 20
60.19822047106156
 30
0.0
 10
38.98917913521799
 20
60.19822047106156
 30
0.0
 10
39.41258137035519
 20
59.77447372637583
 30
0.0
 10
39.41258137035519
 20
59.22429197738143
 30
0.0
 10
39.41258137035519
 20
58.71614039330708
 30
0.0
 10
38.98917913521799
 20
58.25070799324983
 30
0.0
 10
38.43865287667506
 20
58.25070799324983
 30
0.0
  0
SPLINE
  5
71
330
61
100
AcDbEntity
  8
LAYER_1
 62
     7
100
AcDbSpline
210
0.0
220
0.0
230
1.0
 70
    11
 71
     3
 72
    17
 73
    13
 74
     0
 42
0.0000000001
 43
0.0000000001
 40
0.0
 40
0.0
 40
0.0
 40
0.0
 40
1.0
 40
1.0
 40
1.0
 40
2.0
 40
2.0
 40
2.0
 40
3.0
 40
3.0
 40
3.0
 40
4.0
 40
4.0
 40
4.0
 40
4.0
 10
38.43865287667506
 20
60.79077689452453
 30
0.0
 10
37.93084580214924
 20
60.79077689452453
 30
0.0
 10
37.46506889254346
 20
61.25655380413031
 30
0.0
 10
37.46506889254346
 20
61.76436087865613
 30
0.0
 10
37.46506889254346
 20
62.31488713719906
 30
0.0
 10
37.93084580214924
 20
62.73794486278774
 30
0.0
 10
38.43865287667506
 20
62.73794486278774
 30
0.0
 10
38.98917913521799
 20
62.73794486278774
 30
0.0
 10
39.41258137035519
 20
62.31488713719906
 30
0.0
 10
39.41258137035519
 20
61.76436087865613
 30
0.0
 10
39.41258137035519
 20
61.25655380413031
 30
0.0
 10
38.98917913521799
 20
60.79077689452453
 30
0.0
 10
38.43865287667506
 20
60.79077689452453
 30
0.0
  0
SPLINE
  5
72
330
61
100
AcDbEntity
  8
LAYER_1
 62
     7
100
AcDbSpline
210
0.0
220
0.0
230
1.0
 70
    11
 71
     3
 72
    17
 73
    13
 74
     0
 42
0.0000000001
 43
0.0000000001
 40
0.0
 40
0.0
 40
0.0
 40
0.0
 40
1.0
 40
1.0
 40
1.0
 40
2.0
 40
2.0
 40
2.0
 40
3.0
 40
3.0
 40
3.0
 40
4.0
 40
4.0
 40
4.0
 40
4.0
 10
35.89892848494888
 20
58.25070799324983
 30
0.0
 10
35.39077690087453
 20
58.25070799324983
 30
0.0
 10
34.92499999126875
 20
58.71614039330708
 30
0.0
 10
34.92499999126875
 20
59.22429197738143
 30
0.0
 10
34.92499999126875
 20
59.77447372637583
 30
0.0
 10
35.39077690087453
 20
60.19822047106156
 30
0.0
 10
35.89892848494888
 20
60.19822047106156
 30
0.0
 10
36.44911023394328
 20
60.19822047106156
 30
0.0
 10
36.87251246908048
 20
59.77447372637583
 30
0.0
 10
36.87251246908048
 20
59.22429197738143
 30
0.0
 10
36.87251246908048
 20
58.71614039330708
 30
0.0
 10
36.44911023394328
 20
58.25070799324983
 30
0.0
 10
35.89892848494888
 20
58.25070799324983
 30
0.0
  0
SPLINE
  5
73
330
61
100
AcDbEntity
  8
LAYER_1
 62
     7
100
AcDbSpline
210
0.0
220
0.0
230
1.0
 70
    11
 71
     3
 72
    17
 73
    13
 74
     0
 42
0.0000000001
 43
0.0000000001
 40
0.0
 40
0.0
 40
0.0
 40
0.0
 40
1.0
 40
1.0
 40
1.0
 40
2.0
 40
2.0
 40
2.0
 40
3.0
 40
3.0
 40
3.0
 40
4.0
 40
4.0
 40
4.0
 40
4.0
 10
35.89892848494888
 20
60.79077689452453
 30
0.0
 10
35.39077690087453
 20
60.79077689452453
 30
0.0
 10
34.92499999126875
 20
61.25655380413031
 30
0.0
 10
34.92499999126875
 20
61.76436087865613
 30
0.0
 10
34.92499999126875
 20
62.31488713719906
 30
0.0
 10
35.39077690087453
 20
62.73794486278774
 30
0.0
 10
35.89892848494888
 20
62.73794486278774
 30
0.0
 10
36.44911023394328
 20
62.73794486278774
 30
0.0
 10
36.87251246908048
 20
62.31488713719906
 30
0.0
 10
36.87251246908048
 20
61.76436087865613
 30
0.0
 10
36.87251246908048
 20
61.25655380413031
 30
0.0
 10
36.44911023394328
 20
60.79077689452453
 30
0.0
 10
35.89892848494888
 20
60.79077689452453
 30
0.0
  0
SPLINE
  5
74
330
61
100
AcDbEntity
  8
LAYER_1
 62
     7
100
AcDbSpline
210
0.0
220
0.0
230
1.0
 70
    11
 71
     3
 72
    17
 73
    13
 74
     0
 42
0.0000000001
 43
0.0000000001
 40
0.0
 40
0.0
 40
0.0
 40
0.0
 40
1.0
 40
1.0
 40
1.0
 40
2.0
 40
2.0
 40
2.0
 40
3.0
 40
3.0
 40
3.0
 40
4.0
 40
4.0
 40
4.0
 40
4.0
 10
33.35885958367417
 20
60.19822047106156
 30
0.0
 10
33.90904133266857
 20
60.19822047106156
 30
0.0
 10
34.33244356780578
 20
59.77447372637583
 30
0.0
 10
34.33244356780578
 20
59.22429197738143
 30
0.0
 10
34.33244356780578
 20
58.71614039330708
 30
0.0
 10
33.90904133266857
 20
58.25070799324983
 30
0.0
 10
33.35885958367417
 20
58.25070799324983
 30
0.0
 10
32.85070799959983
 20
58.25070799324983
 30
0.0
 10
32.38527559954257
 20
58.71614039330708
 30
0.0
 10
32.38527559954257
 20
59.22429197738143
 30
0.0
 10
32.38527559954257
 20
59.77447372637583
 30
0.0
 10
32.85070799959983
 20
60.19822047106156
 30
0.0
 10
33.35885958367417
 20
60.19822047106156
 30
0.0
  0
SPLINE
  5
75
330
61
100
AcDbEntity
  8
LAYER_1
 62
     7
100
AcDbSpline
210
0.0
220
0.0
230
1.0
 70
    11
 71
     3
 72
    17
 73
    13
 74
     0
 42
0.0000000001
 43
0.0000000001
 40
0.0
 40
0.0
 40
0.0
 40
0.0
 40
1.0
 40
1.0
 40
1.0
 40
2.0
 40
2.0
 40
2.0
 40
3.0
 40
3.0
 40
3.0
 40
4.0
 40
4.0
 40
4.0
 40
4.0
 10
33.35885958367417
 20
60.79077689452453
 30
0.0
 10
32.85070799959983
 20
60.79077689452453
 30
0.0
 10
32.38527559954257
 20
61.25655380413031
 30
0.0
 10
32.38527559954257
 20
61.76436087865613
 30
0.0
 10
32.38527559954257
 20
62.31488713719906
 30
0.0
 10
32.85070799959983
 20
62.73794486278774
 30
0.0
 10
33.35885958367417
 20
62.73794486278774
 30
0.0
 10
33.90904133266857
 20
62.73794486278774
 30
0.0
 10
34.33244356780578
 20
62.31488713719906
 30
0.0
 10
34.33244356780578
 20
61.76436087865613
 30
0.0
 10
34.33244356780578
 20
61.25655380413031
 30
0.0
 10
33.90904133266857
 20
60.79077689452453
 30
0.0
 10
33.35885958367417
 20
60.79077689452453
 30
0.0
  0
SPLINE
  5
76
330
61
100
AcDbEntity
  8
LAYER_1
 62
     7
100
AcDbSpline
210
0.0
220
0.0
230
1.0
 70
    11
 71
     3
 72
    17
 73
    13
 74
     0
 42
0.0000000001
 43
0.0000000001
 40
0.0
 40
0.0
 40
0.0
 40
0.0
 40
1.0
 40
1.0
 40
1.0
 40
2.0
 40
2.0
 40
2.0
 40
3.0
 40
3.0
 40
3.0
 40
4.0
 40
4.0
 40
4.0
 40
4.0
 10
51.13865287350006
 20
59.64769421251864
 30
0.0
 10
51.3929009203115
 20
59.64769421251864
 30
0.0
 10
51.56205510863727
 20
59.47819551464434
 30
0.0
 10
51.56205510863727
 20
59.22429197738143
 30
0.0
 10
51.56205510863727
 20
59.01241860503856
 30
0.0
 10
51.3929009203115
 20
58.80088974224422
 30
0.0
 10
51.13865287350006
 20
58.80088974224422
 30
0.0
 10
50.88474933623715
 20
58.80088974224422
 30
0.0
 10
50.67322047344281
 20
59.01241860503856
 30
0.0
 10
50.67322047344281
 20
59.22429197738143
 30
0.0
 10
50.67322047344281
 20
59.47819551464434
 30
0.0
 10
50.88474933623715
 20
59.64769421251864
 30
0.0
 10
51.13865287350006
 20
59.64769421251864
 30
0.0
  0
SPLINE
  5
77
330
61
100
AcDbEntity
  8
LAYER_1
 62
     7
100
AcDbSpline
210
0.0
220
0.0
230
1.0
 70
    11
 71
     3
 72
    17
 73
    13
 74
     0
 42
0.0000000001
 43
0.0000000001
 40
0.0
 40
0.0
 40
0.0
 40
0.0
 40
1.0
 40
1.0
 40
1.0
 40
2.0
 40
2.0
 40
2.0
 40
3.0
 40
3.0
 40
3.0
 40
4.0
 40
4.0
 40
4.0
 40
4.0
 10
40.809567589624
 20
50.16506888936846
 30
0.0
 10
40.809567589624
 20
49.65691730529411
 30
0.0
 10
40.38616535448679
 20
49.19114039568833
 30
0.0
 10
39.83598360549239
 20
49.19114039568833
 30
0.0
 10
39.32783202141805
 20
49.19114039568833
 30
0.0
 10
38.86205511181227
 20
49.65691730529411
 30
0.0
 10
38.86205511181227
 20
50.16506888936846
 30
0.0
 10
38.86205511181227
 20
50.71525063836285
 30
0.0
 10
39.32783202141805
 20
51.13865287350006
 30
0.0
 10
39.83598360549239
 20
51.13865287350006
 30
0.0
 10
40.38616535448679
 20
51.13865287350006
 30
0.0
 10
40.809567589624
 20
50.71525063836285
 30
0.0
 10
40.809567589624
 20
50.16506888936846
 30
0.0
  0
SPLINE
  5
78
330
61
100
AcDbEntity
  8
LAYER_1
 62
     7
100
AcDbSpline
210
0.0
220
0.0
230
1.0
 70
    11
 71
     3
 72
    17
 73
    13
 74
     0
 42
0.0000000001
 43
0.0000000001
 40
0.0
 40
0.0
 40
0.0
 40
0.0
 40
1.0
 40
1.0
 40
1.0
 40
2.0
 40
2.0
 40
2.0
 40
3.0
 40
3.0
 40
3.0
 40
4.0
 40
4.0
 40
4.0
 40
4.0
 10
45.80495604323626
 20
50.16506888936846
 30
0.0
 10
45.80495604323626
 20
49.65691730529411
 30
0.0
 10
45.38155380809906
 20
49.19114039568833
 30
0.0
 10
44.83102754955613
 20
49.19114039568833
 30
0.0
 10
44.32322047503031
 20
49.19114039568833
 30
0.0
 10
43.85744356542453
 20
49.65691730529411
 30
0.0
 10
43.85744356542453
 20
50.16506888936846
 30
0.0
 10
43.85744356542453
 20
50.71525063836285
 30
0.0
 10
44.32322047503031
 20
51.13865287350006
 30
0.0
 10
44.83102754955613
 20
51.13865287350006
 30
0.0
 10
45.38155380809906
 20
51.13865287350006
 30
0.0
 10
45.80495604323626
 20
50.71525063836285
 30
0.0
 10
45.80495604323626
 20
50.16506888936846
 30
0.0
  0
SPLINE
  5
79
330
61
100
AcDbEntity
  8
LAYER_1
 62
     7
100
AcDbSpline
210
0.0
220
0.0
230
1.0
 70
    11
 71
     3
 72
    17
 73
    13
 74
     0
 42
0.0000000001
 43
0.0000000001
 40
0.0
 40
0.0
 40
0.0
 40
0.0
 40
1.0
 40
1.0
 40
1.0
 40
2.0
 40
2.0
 40
2.0
 40
3.0
 40
3.0
 40
3.0
 40
4.0
 40
4.0
 40
4.0
 40
4.0
 10
39.83598360549239
 20
34.71347112847441
 30
0.0
 10
39.32783202141805
 20
34.71347112847441
 30
0.0
 10
38.86205511181227
 20
35.17890352853166
 30
0.0
 10
38.86205511181227
 20
35.68705511260602
 30
0.0
 10
38.86205511181227
 20
36.23723686160042
 30
0.0
 10
39.32783202141805
 20
36.66063909673762
 30
0.0
 10
39.83598360549239
 20
36.66063909673762
 30
0.0
 10
40.38616535448679
 20
36.66063909673762
 30
0.0
 10
40.809567589624
 20
36.23723686160042
 30
0.0
 10
40.809567589624
 20
35.68705511260602
 30
0.0
 10
40.809567589624
 20
35.17890352853166
 30
0.0
 10
40.38616535448679
 20
34.71347112847441
 30
0.0
 10
39.83598360549239
 20
34.71347112847441
 30
0.0
  0
SPLINE
  5
7A
330
61
100
AcDbEntity
  8
LAYER_1
 62
     7
100
AcDbSpline
210
0.0
220
0.0
230
1.0
 70
    11
 71
     3
 72
    17
 73
    13
 74
     0
 42
0.0000000001
 43
0.0000000001
 40
0.0
 40
0.0
 40
0.0
 40
0.0
 40
1.0
 40
1.0
 40
1.0
 40
2.0
 40
2.0
 40
2.0
 40
3.0
 40
3.0
 40
3.0
 40
4.0
 40
4.0
 40
4.0
 40
4.0
 10
44.83102754955613
 20
34.71347112847441
 30
0.0
 10
44.32322047503031
 20
34.71347112847441
 30
0.0
 10
43.85744356542453
 20
35.17890352853166
 30
0.0
 10
43.85744356542453
 20
35.68705511260602
 30
0.0
 10
43.85744356542453
 20
36.23723686160042
 30
0.0
 10
44.32322047503031
 20
36.66063909673762
 30
0.0
 10
44.83102754955613
 20
36.66063909673762
 30
0.0
 10
45.38155380809906
 20
36.66063909673762
 30
0.0
 10
45.80495604323626
 20
36.23723686160042
 30
0.0
 10
45.80495604323626
 20
35.68705511260602
 30
0.0
 10
45.80495604323626
 20
35.17890352853166
 30
0.0
 10
45.38155380809906
 20
34.71347112847441
 30
0.0
 10
44.83102754955613
 20
34.71347112847441
 30
0.0
  0
SPLINE
  5
7B
330
61
100
AcDbEntity
  8
LAYER_1
 62
     7
100
AcDbSpline
210
0.0
220
0.0
230
1.0
 70
    11
 71
     3
 72
    17
 73
    13
 74
     0
 42
0.0000000001
 43
0.0000000001
 40
0.0
 40
0.0
 40
0.0
 40
0.0
 40
1.0
 40
1.0
 40
1.0
 40
2.0
 40
2.0
 40
2.0
 40
3.0
 40
3.0
 40
3.0
 40
4.0
 40
4.0
 40
4.0
 40
4.0
 10
42.33333332275
 20
36.66063909673762
 30
0.0
 10
42.88385958129292
 20
36.66063909673762
 30
0.0
 10
43.30726181643013
 20
36.23723686160042
 30
0.0
 10
43.30726181643013
 20
35.68705511260602
 30
0.0
 10
43.30726181643013
 20
35.17890352853166
 30
0.0
 10
42.88385958129292
 20
34.71347112847441
 30
0.0
 10
42.33333332275
 20
34.71347112847441
 30
0.0
 10
41.82552624822418
 20
34.71347112847441
 30
0.0
 10
41.3597493386184
 20
35.17890352853166
 30
0.0
 10
41.3597493386184
 20
35.68705511260602
 30
0.0
 10
41.3597493386184
 20
36.23723686160042
 30
0.0
 10
41.82552624822418
 20
36.66063909673762
 30
0.0
 10
42.33333332275
 20
36.66063909673762
 30
0.0
  0
SPLINE
  5
7C
330
61
100
AcDbEntity
  8
LAYER_1
 62
     7
100
AcDbSpline
210
0.0
220
0.0
230
1.0
 70
    11
 71
     3
 72
    17
 73
    13
 74
     0
 42
0.0000000001
 43
0.0000000001
 40
0.0
 40
0.0
 40
0.0
 40
0.0
 40
1.0
 40
1.0
 40
1.0
 40
2.0
 40
2.0
 40
2.0
 40
3.0
 40
3.0
 40
3.0
 40
4.0
 40
4.0
 40
4.0
 40
4.0
 10
36.87251246908048
 20
45.16968043575619
 30
0.0
 10
37.9732204766178
 20
45.16968043575619
 30
0.0
 10
38.81968043734369
 20
44.28050129101321
 30
0.0
 10
38.81968043734369
 20
43.18013779302441
 30
0.0
 10
38.81968043734369
 20
42.12180445995566
 30
0.0
 10
37.9732204766178
 20
41.1902506407441
 30
0.0
 10
36.87251246908048
 20
41.1902506407441
 30
0.0
 10
35.77180446154316
 20
41.1902506407441
 30
0.0
 10
34.88296982634871
 20
42.12180445995566
 30
0.0
 10
34.88296982634871
 20
43.18013779302441
 30
0.0
 10
34.88296982634871
 20
44.28050129101321
 30
0.0
 10
35.77180446154316
 20
45.16968043575619
 30
0.0
 10
36.87251246908048
 20
45.16968043575619
 30
0.0
  0
SPLINE
  5
7D
330
61
100
AcDbEntity
  8
LAYER_1
 62
     7
100
AcDbSpline
210
0.0
220
0.0
230
1.0
 70
    11
 71
     3
 72
    17
 73
    13
 74
     0
 42
0.0000000001
 43
0.0000000001
 40
0.0
 40
0.0
 40
0.0
 40
0.0
 40
1.0
 40
1.0
 40
1.0
 40
2.0
 40
2.0
 40
2.0
 40
3.0
 40
3.0
 40
3.0
 40
4.0
 40
4.0
 40
4.0
 40
4.0
 10
47.83687336043662
 20
45.16968043575619
 30
0.0
 10
48.93758136797394
 20
45.16968043575619
 30
0.0
 10
49.8264160031684
 20
44.28050129101321
 30
0.0
 10
49.8264160031684
 20
43.18013779302441
 30
0.0
 10
49.8264160031684
 20
42.12180445995566
 30
0.0
 10
48.93758136797394
 20
41.1902506407441
 30
0.0
 10
47.83687336043662
 20
41.1902506407441
 30
0.0
 10
46.73616535289929
 20
41.1902506407441
 30
0.0
 10
45.84698620815631
 20
42.12180445995566
 30
0.0
 10
45.84698620815631
 20
43.18013779302441
 30
0.0
 10
45.84698620815631
 20
44.28050129101321
 30
0.0
 10
46.73616535289929
 20
45.16968043575619
 30
0.0
 10
47.83687336043662
 20
45.16968043575619
 30
0.0
  0
SPLINE
  5
7E
330
61
100
AcDbEntity
  8
LAYER_1
 62
     7
100
AcDbSpline
210
0.0
220
0.0
230
1.0
 70
    11
 71
     3
 72
    17
 73
    13
 74
     0
 42
0.0000000001
 43
0.0000000001
 40
0.0
 40
0.0
 40
0.0
 40
0.0
 40
1.0
 40
1.0
 40
1.0
 40
2.0
 40
2.0
 40
2.0
 40
3.0
 40
3.0
 40
3.0
 40
4.0
 40
4.0
 40
4.0
 40
4.0
 10
44.78865287508756
 20
13.20780707135083
 30
0.0
 10
45.33917913363049
 20
13.20780707135083
 30
0.0
 10
45.76258136876769
 20
12.78474934576215
 30
0.0
 10
45.76258136876769
 20
12.23422308721922
 30
0.0
 10
45.76258136876769
 20
11.7264160126934
 30
0.0
 10
45.33917913363049
 20
11.26063910308762
 30
0.0
 10
44.78865287508756
 20
11.26063910308762
 30
0.0
 10
44.23847112609316
 20
11.26063910308762
 30
0.0
 10
43.77269421648738
 20
11.7264160126934
 30
0.0
 10
43.77269421648738
 20
12.23422308721922
 30
0.0
 10
43.77269421648738
 20
12.78474934576215
 30
0.0
 10
44.23847112609316
 20
13.20780707135083
 30
0.0
 10
44.78865287508756
 20
13.20780707135083
 30
0.0
  0
SPLINE
  5
7F
330
61
100
AcDbEntity
  8
LAYER_1
 62
     7
100
AcDbSpline
210
0.0
220
0.0
230
1.0
 70
    11
 71
     3
 72
    17
 73
    13
 74
     0
 42
0.0000000001
 43
0.0000000001
 40
0.0
 40
0.0
 40
0.0
 40
0.0
 40
1.0
 40
1.0
 40
1.0
 40
2.0
 40
2.0
 40
2.0
 40
3.0
 40
3.0
 40
3.0
 40
4.0
 40
4.0
 40
4.0
 40
4.0
 10
44.78865287508756
 20
18.20319552496309
 30
0.0
 10
45.33917913363049
 20
18.20319552496309
 30
0.0
 10
45.76258136876769
 20
17.78013779937441
 30
0.0
 10
45.76258136876769
 20
17.22961154083149
 30
0.0
 10
45.76258136876769
 20
16.72180446630566
 30
0.0
 10
45.33917913363049
 20
16.25602755669988
 30
0.0
 10
44.78865287508756
 20
16.25602755669988
 30
0.0
 10
44.23847112609316
 20
16.25602755669988
 30
0.0
 10
43.77269421648738
 20
16.72180446630566
 30
0.0
 10
43.77269421648738
 20
17.22961154083149
 30
0.0
 10
43.77269421648738
 20
17.78013779937441
 30
0.0
 10
44.23847112609316
 20
18.20319552496309
 30
0.0
 10
44.78865287508756
 20
18.20319552496309
 30
0.0
  0
SPLINE
  5
80
330
61
100
AcDbEntity
  8
LAYER_1
 62
     7
100
AcDbSpline
210
0.0
220
0.0
230
1.0
 70
    11
 71
     3
 72
    17
 73
    13
 74
     0
 42
0.0000000001
 43
0.0000000001
 40
0.0
 40
0.0
 40
0.0
 40
0.0
 40
1.0
 40
1.0
 40
1.0
 40
2.0
 40
2.0
 40
2.0
 40
3.0
 40
3.0
 40
3.0
 40
4.0
 40
4.0
 40
4.0
 40
4.0
 10
39.79360893102382
 20
18.20319552496309
 30
0.0
 10
40.34379068001822
 20
18.20319552496309
 30
0.0
 10
40.76719291515543
 20
17.78013779937441
 30
0.0
 10
40.76719291515543
 20
17.22961154083149
 30
0.0
 10
40.76719291515543
 20
16.72180446630566
 30
0.0
 10
40.34379068001822
 20
16.25602755669988
 30
0.0
 10
39.79360893102382
 20
16.25602755669988
 30
0.0
 10
39.2430826724809
 20
16.25602755669988
 30
0.0
 10
38.77765027242364
 20
16.72180446630566
 30
0.0
 10
38.77765027242364
 20
17.22961154083149
 30
0.0
 10
38.77765027242364
 20
17.78013779937441
 30
0.0
 10
39.2430826724809
 20
18.20319552496309
 30
0.0
 10
39.79360893102382
 20
18.20319552496309
 30
0.0
  0
SPLINE
  5
81
330
61
100
AcDbEntity
  8
LAYER_1
 62
     7
100
AcDbSpline
210
0.0
220
0.0
230
1.0
 70
    11
 71
     3
 72
    17
 73
    13
 74
     0
 42
0.0000000001
 43
0.0000000001
 40
0.0
 40
0.0
 40
0.0
 40
0.0
 40
1.0
 40
1.0
 40
1.0
 40
2.0
 40
2.0
 40
2.0
 40
3.0
 40
3.0
 40
3.0
 40
4.0
 40
4.0
 40
4.0
 40
4.0
 10
39.79360893102382
 20
13.20780707135083
 30
0.0
 10
40.34379068001822
 20
13.20780707135083
 30
0.0
 10
40.76719291515543
 20
12.78474934576215
 30
0.0
 10
40.76719291515543
 20
12.23422308721922
 30
0.0
 10
40.76719291515543
 20
11.7264160126934
 30
0.0
 10
40.34379068001822
 20
11.26063910308762
 30
0.0
 10
39.79360893102382
 20
11.26063910308762
 30
0.0
 10
39.2430826724809
 20
11.26063910308762
 30
0.0
 10
38.77765027242364
 20
11.7264160126934
 30
0.0
 10
38.77765027242364
 20
12.23422308721922
 30
0.0
 10
38.77765027242364
 20
12.78474934576215
 30
0.0
 10
39.2430826724809
 20
13.20780707135083
 30
0.0
 10
39.79360893102382
 20
13.20780707135083
 30
0.0
  0
ENDBLK
  5
64
330
61
100
AcDbEntity
  8
0
100
AcDbBlockEnd
  0
BLOCK
  5
84
330
82
100
AcDbEntity
  8
0
100
AcDbBlockBegin
  2
BLOCK_6
 70
     0
 71
     0
 10
0.0
 20
0.0
 30
0.0
  3
BLOCK_6
  1

  0
POLYLINE
  5
86
330
82
100
AcDbEntity
  8
LAYER_1
 62
     7
100
AcDb2dPolyline
 66
     1
 10
0.0
 20
0.0
 30
0.0
  0
VERTEX
  5
87
330
86
100
AcDbEntity
  8
LAYER_1
 62
     7
100
AcDbVertex
100
AcDb2dVertex
 10
21.42091470818644
 20
65.53191730132535
 30
0.0
  0
VERTEX
  5
88
330
86
100
AcDbEntity
  8
LAYER_1
 62
     7
100
AcDbVertex
100
AcDb2dVertex
 10
19.51577690484328
 20
65.53191730132535
 30
0.0
  0
VERTEX
  5
89
330
86
100
AcDbEntity
  8
LAYER_1
 62
     7
100
AcDbVertex
100
AcDb2dVertex
 10
19.51577690484328
 20
67.43705510466852
 30
0.0
  0
VERTEX
  5
8A
330
86
100
AcDbEntity
  8
LAYER_1
 62
     7
100
AcDbVertex
100
AcDb2dVertex
 10
21.42091470818644
 20
67.43705510466852
 30
0.0
  0
VERTEX
  5
8B
330
86
100
AcDbEntity
  8
LAYER_1
 62
     7
100
AcDbVertex
100
AcDb2dVertex
 10
21.42091470818644
 20
65.53191730132535
 30
0.0
  0
SEQEND
  5
8C
330
86
100
AcDbEntity
  8
LAYER_1
  0
POLYLINE
  5
8D
330
82
100
AcDbEntity
  8
LAYER_1
 62
     7
100
AcDb2dPolyline
 66
     1
 10
0.0
 20
0.0
 30
0.0
  0
VERTEX
  5
8E
330
8D
100
AcDbEntity
  8
LAYER_1
 62
     7
100
AcDbVertex
100
AcDb2dVertex
 10
3.683151583280601
 20
10.79486219348184
 30
0.0
  0
VERTEX
  5
8F
330
8D
100
AcDbEntity
  8
LAYER_1
 62
     7
100
AcDbVertex
100
AcDb2dVertex
 10
3.640776908812028
 20
10.79486219348184
 30
0.0
  0
VERTEX
  5
90
330
8D
100
AcDbEntity
  8
LAYER_1
 62
     7
100
AcDbVertex
100
AcDb2dVertex
 10
1.735983615017393
 20
10.79486219348184
 30
0.0
  0
VERTEX
  5
91
330
8D
100
AcDbEntity
  8
LAYER_1
 62
     7
100
AcDbVertex
100
AcDb2dVertex
 10
1.735983615017393
 20
12.699999996825
 30
0.0
  0
VERTEX
  5
92
330
8D
100
AcDbEntity
  8
LAYER_1
 62
     7
100
AcDbVertex
100
AcDb2dVertex
 10
1.735983615017393
 20
12.74237467129357
 30
0.0
  0
VERTEX
  5
93
330
8D
100
AcDbEntity
  8
LAYER_1
 62
     7
100
AcDbVertex
100
AcDb2dVertex
 10
3.683151583280601
 20
12.74237467129357
 30
0.0
  0
VERTEX
  5
94
330
8D
100
AcDbEntity
  8
LAYER_1
 62
     7
100
AcDbVertex
100
AcDb2dVertex
 10
3.683151583280601
 20
10.79486219348184
 30
0.0
  0
SEQEND
  5
95
330
8D
100
AcDbEntity
  8
LAYER_1
  0
SPLINE
  5
96
330
82
100
AcDbEntity
  8
LAYER_1
 62
     7
100
AcDbSpline
210
0.0
220
0.0
230
1.0
 70
    11
 71
     3
 72
    17
 73
    13
 74
     0
 42
0.0000000001
 43
0.0000000001
 40
0.0
 40
0.0
 40
0.0
 40
0.0
 40
1.0
 40
1.0
 40
1.0
 40
2.0
 40
2.0
 40
2.0
 40
3.0
 40
3.0
 40
3.0
 40
4.0
 40
4.0
 40
4.0
 40
4.0
 10
5.249636500423702
 20
12.74237467129357
 30
0.0
 10
5.799818249418101
 20
12.74237467129357
 30
0.0
 10
6.223220484555307
 20
12.31897243615637
 30
0.0
 10
6.223220484555307
 20
11.76844617761344
 30
0.0
 10
6.223220484555307
 20
11.26063910308762
 30
0.0
 10
5.799818249418101
 20
10.79486219348184
 30
0.0
 10
5.249636500423702
 20
10.79486219348184
 30
0.0
 10
4.741484916349351
 20
10.79486219348184
 30
0.0
 10
4.275708006743574
 20
11.26063910308762
 30
0.0
 10
4.275708006743574
 20
11.76844617761344
 30
0.0
 10
4.275708006743574
 20
12.31897243615637
 30
0.0
 10
4.741484916349351
 20
12.74237467129357
 30
0.0
 10
5.249636500423702
 20
12.74237467129357
 30
0.0
  0
SPLINE
  5
97
330
82
100
AcDbEntity
  8
LAYER_1
 62
     7
100
AcDbSpline
210
0.0
220
0.0
230
1.0
 70
    11
 71
     3
 72
    17
 73
    13
 74
     0
 42
0.0000000001
 43
0.0000000001
 40
0.0
 40
0.0
 40
0.0
 40
0.0
 40
1.0
 40
1.0
 40
1.0
 40
2.0
 40
2.0
 40
2.0
 40
3.0
 40
3.0
 40
3.0
 40
4.0
 40
4.0
 40
4.0
 40
4.0
 10
7.789360892149882
 20
12.74237467129357
 30
0.0
 10
8.339887150692807
 20
12.74237467129357
 30
0.0
 10
8.763289385830012
 20
12.31897243615637
 30
0.0
 10
8.763289385830012
 20
11.76844617761344
 30
0.0
 10
8.763289385830012
 20
11.26063910308762
 30
0.0
 10
8.339887150692807
 20
10.79486219348184
 30
0.0
 10
7.789360892149882
 20
10.79486219348184
 30
0.0
 10
7.281553817624056
 20
10.79486219348184
 30
0.0
 10
6.815776908018278
 20
11.26063910308762
 30
0.0
 10
6.815776908018278
 20
11.76844617761344
 30
0.0
 10
6.815776908018278
 20
12.31897243615637
 30
0.0
 10
7.281553817624056
 20
12.74237467129357
 30
0.0
 10
7.789360892149882
 20
12.74237467129357
 30
0.0
  0
SPLINE
  5
98
330
82
100
AcDbEntity
  8
LAYER_1
 62
     7
100
AcDbSpline
210
0.0
220
0.0
230
1.0
 70
    11
 71
     3
 72
    17
 73
    13
 74
     0
 42
0.0000000001
 43
0.0000000001
 40
0.0
 40
0.0
 40
0.0
 40
0.0
 40
1.0
 40
1.0
 40
1.0
 40
2.0
 40
2.0
 40
2.0
 40
3.0
 40
3.0
 40
3.0
 40
4.0
 40
4.0
 40
4.0
 40
4.0
 10
10.32942979342459
 20
12.74237467129357
 30
0.0
 10
10.87995605196751
 20
12.74237467129357
 30
0.0
 10
11.30301377755619
 20
12.31897243615637
 30
0.0
 10
11.30301377755619
 20
11.76844617761344
 30
0.0
 10
11.30301377755619
 20
11.26063910308762
 30
0.0
 10
10.87995605196751
 20
10.79486219348184
 30
0.0
 10
10.32942979342459
 20
10.79486219348184
 30
0.0
 10
9.82162271889876
 20
10.79486219348184
 30
0.0
 10
9.355845809292983
 20
11.26063910308762
 30
0.0
 10
9.355845809292983
 20
11.76844617761344
 30
0.0
 10
9.355845809292983
 20
12.31897243615637
 30
0.0
 10
9.82162271889876
 20
12.74237467129357
 30
0.0
 10
10.32942979342459
 20
12.74237467129357
 30
0.0
  0
SPLINE
  5
99
330
82
100
AcDbEntity
  8
LAYER_1
 62
     7
100
AcDbSpline
210
0.0
220
0.0
230
1.0
 70
    11
 71
     3
 72
    17
 73
    13
 74
     0
 42
0.0000000001
 43
0.0000000001
 40
0.0
 40
0.0
 40
0.0
 40
0.0
 40
1.0
 40
1.0
 40
1.0
 40
2.0
 40
2.0
 40
2.0
 40
3.0
 40
3.0
 40
3.0
 40
4.0
 40
4.0
 40
4.0
 40
4.0
 10
12.86949869469929
 20
12.74237467129357
 30
0.0
 10
13.41968044369369
 20
12.74237467129357
 30
0.0
 10
13.8430826788309
 20
12.31897243615637
 30
0.0
 10
13.8430826788309
 20
11.76844617761344
 30
0.0
 10
13.8430826788309
 20
11.26063910308762
 30
0.0
 10
13.41968044369369
 20
10.79486219348184
 30
0.0
 10
12.86949869469929
 20
10.79486219348184
 30
0.0
 10
12.36134711062494
 20
10.79486219348184
 30
0.0
 10
11.89591471056769
 20
11.26063910308762
 30
0.0
 10
11.89591471056769
 20
11.76844617761344
 30
0.0
 10
11.89591471056769
 20
12.31897243615637
 30
0.0
 10
12.36134711062494
 20
12.74237467129357
 30
0.0
 10
12.86949869469929
 20
12.74237467129357
 30
0.0
  0
SPLINE
  5
9A
330
82
100
AcDbEntity
  8
LAYER_1
 62
     7
100
AcDbSpline
210
0.0
220
0.0
230
1.0
 70
    11
 71
     3
 72
    17
 73
    13
 74
     0
 42
0.0000000001
 43
0.0000000001
 40
0.0
 40
0.0
 40
0.0
 40
0.0
 40
1.0
 40
1.0
 40
1.0
 40
2.0
 40
2.0
 40
2.0
 40
3.0
 40
3.0
 40
3.0
 40
4.0
 40
4.0
 40
4.0
 40
4.0
 10
15.409567595974
 20
12.74237467129357
 30
0.0
 10
15.9597493449684
 20
12.74237467129357
 30
0.0
 10
16.3831515801056
 20
12.31897243615637
 30
0.0
 10
16.3831515801056
 20
11.76844617761344
 30
0.0
 10
16.3831515801056
 20
11.26063910308762
 30
0.0
 10
15.9597493449684
 20
10.79486219348184
 30
0.0
 10
15.409567595974
 20
10.79486219348184
 30
0.0
 10
14.90141601189965
 20
10.79486219348184
 30
0.0
 10
14.43598361184239
 20
11.26063910308762
 30
0.0
 10
14.43598361184239
 20
11.76844617761344
 30
0.0
 10
14.43598361184239
 20
12.31897243615637
 30
0.0
 10
14.90141601189965
 20
12.74237467129357
 30
0.0
 10
15.409567595974
 20
12.74237467129357
 30
0.0
  0
SPLINE
  5
9B
330
82
100
AcDbEntity
  8
LAYER_1
 62
     7
100
AcDbSpline
210
0.0
220
0.0
230
1.0
 70
    11
 71
     3
 72
    17
 73
    13
 74
     0
 42
0.0000000001
 43
0.0000000001
 40
0.0
 40
0.0
 40
0.0
 40
0.0
 40
1.0
 40
1.0
 40
1.0
 40
2.0
 40
2.0
 40
2.0
 40
3.0
 40
3.0
 40
3.0
 40
4.0
 40
4.0
 40
4.0
 40
4.0
 10
17.9496364972487
 20
12.74237467129357
 30
0.0
 10
18.4998182462431
 20
12.74237467129357
 30
0.0
 10
18.92322048138031
 20
12.31897243615637
 30
0.0
 10
18.92322048138031
 20
11.76844617761344
 30
0.0
 10
18.92322048138031
 20
11.26063910308762
 30
0.0
 10
18.4998182462431
 20
10.79486219348184
 30
0.0
 10
17.9496364972487
 20
10.79486219348184
 30
0.0
 10
17.44148491317435
 20
10.79486219348184
 30
0.0
 10
16.97570800356857
 20
11.26063910308762
 30
0.0
 10
16.97570800356857
 20
11.76844617761344
 30
0.0
 10
16.97570800356857
 20
12.31897243615637
 30
0.0
 10
17.44148491317435
 20
12.74237467129357
 30
0.0
 10
17.9496364972487
 20
12.74237467129357
 30
0.0
  0
SPLINE
  5
9C
330
82
100
AcDbEntity
  8
LAYER_1
 62
     7
100
AcDbSpline
210
0.0
220
0.0
230
1.0
 70
    11
 71
     3
 72
    17
 73
    13
 74
     0
 42
0.0000000001
 43
0.0000000001
 40
0.0
 40
0.0
 40
0.0
 40
0.0
 40
1.0
 40
1.0
 40
1.0
 40
2.0
 40
2.0
 40
2.0
 40
3.0
 40
3.0
 40
3.0
 40
4.0
 40
4.0
 40
4.0
 40
4.0
 10
20.48936088897488
 20
12.74237467129357
 30
0.0
 10
21.03988714751781
 20
12.74237467129357
 30
0.0
 10
21.46328938265501
 20
12.31897243615637
 30
0.0
 10
21.46328938265501
 20
11.76844617761344
 30
0.0
 10
21.46328938265501
 20
11.26063910308762
 30
0.0
 10
21.03988714751781
 20
10.79486219348184
 30
0.0
 10
20.48936088897488
 20
10.79486219348184
 30
0.0
 10
19.98155381444906
 20
10.79486219348184
 30
0.0
 10
19.51577690484328
 20
11.26063910308762
 30
0.0
 10
19.51577690484328
 20
11.76844617761344
 30
0.0
 10
19.51577690484328
 20
12.31897243615637
 30
0.0
 10
19.98155381444906
 20
12.74237467129357
 30
0.0
 10
20.48936088897488
 20
12.74237467129357
 30
0.0
  0
SPLINE
  5
9D
330
82
100
AcDbEntity
  8
LAYER_1
 62
     7
100
AcDbSpline
210
0.0
220
0.0
230
1.0
 70
    11
 71
     3
 72
    17
 73
    13
 74
     0
 42
0.0000000001
 43
0.0000000001
 40
0.0
 40
0.0
 40
0.0
 40
0.0
 40
1.0
 40
1.0
 40
1.0
 40
2.0
 40
2.0
 40
2.0
 40
3.0
 40
3.0
 40
3.0
 40
4.0
 40
4.0
 40
4.0
 40
4.0
 10
17.9496364972487
 20
65.53191730132535
 30
0.0
 10
17.44148491317435
 20
65.53191730132535
 30
0.0
 10
16.97570800356857
 20
65.99769421093113
 30
0.0
 10
16.97570800356857
 20
66.50550128545696
 30
0.0
 10
16.97570800356857
 20
67.05602754399989
 30
0.0
 10
17.44148491317435
 20
67.47908526958857
 30
0.0
 10
17.9496364972487
 20
67.47908526958857
 30
0.0
 10
18.4998182462431
 20
67.47908526958857
 30
0.0
 10
18.92322048138031
 20
67.05602754399989
 30
0.0
 10
18.92322048138031
 20
66.50550128545696
 30
0.0
 10
18.92322048138031
 20
65.99769421093113
 30
0.0
 10
18.4998182462431
 20
65.53191730132535
 30
0.0
 10
17.9496364972487
 20
65.53191730132535
 30
0.0
  0
SPLINE
  5
9E
330
82
100
AcDbEntity
  8
LAYER_1
 62
     7
100
AcDbSpline
210
0.0
220
0.0
230
1.0
 70
    11
 71
     3
 72
    17
 73
    13
 74
     0
 42
0.0000000001
 43
0.0000000001
 40
0.0
 40
0.0
 40
0.0
 40
0.0
 40
1.0
 40
1.0
 40
1.0
 40
2.0
 40
2.0
 40
2.0
 40
3.0
 40
3.0
 40
3.0
 40
4.0
 40
4.0
 40
4.0
 40
4.0
 10
15.409567595974
 20
65.53191730132535
 30
0.0
 10
14.90141601189965
 20
65.53191730132535
 30
0.0
 10
14.43598361184239
 20
65.99769421093113
 30
0.0
 10
14.43598361184239
 20
66.50550128545696
 30
0.0
 10
14.43598361184239
 20
67.05602754399989
 30
0.0
 10
14.90141601189965
 20
67.47908526958857
 30
0.0
 10
15.409567595974
 20
67.47908526958857
 30
0.0
 10
15.9597493449684
 20
67.47908526958857
 30
0.0
 10
16.3831515801056
 20
67.05602754399989
 30
0.0
 10
16.3831515801056
 20
66.50550128545696
 30
0.0
 10
16.3831515801056
 20
65.99769421093113
 30
0.0
 10
15.9597493449684
 20
65.53191730132535
 30
0.0
 10
15.409567595974
 20
65.53191730132535
 30
0.0
  0
SPLINE
  5
9F
330
82
100
AcDbEntity
  8
LAYER_1
 62
     7
100
AcDbSpline
210
0.0
220
0.0
230
1.0
 70
    11
 71
     3
 72
    17
 73
    13
 74
     0
 42
0.0000000001
 43
0.0000000001
 40
0.0
 40
0.0
 40
0.0
 40
0.0
 40
1.0
 40
1.0
 40
1.0
 40
2.0
 40
2.0
 40
2.0
 40
3.0
 40
3.0
 40
3.0
 40
4.0
 40
4.0
 40
4.0
 40
4.0
 10
12.86949869469929
 20
65.53191730132535
 30
0.0
 10
12.36134711062494
 20
65.53191730132535
 30
0.0
 10
11.89591471056769
 20
65.99769421093113
 30
0.0
 10
11.89591471056769
 20
66.50550128545696
 30
0.0
 10
11.89591471056769
 20
67.05602754399989
 30
0.0
 10
12.36134711062494
 20
67.47908526958857
 30
0.0
 10
12.86949869469929
 20
67.47908526958857
 30
0.0
 10
13.41968044369369
 20
67.47908526958857
 30
0.0
 10
13.8430826788309
 20
67.05602754399989
 30
0.0
 10
13.8430826788309
 20
66.50550128545696
 30
0.0
 10
13.8430826788309
 20
65.99769421093113
 30
0.0
 10
13.41968044369369
 20
65.53191730132535
 30
0.0
 10
12.86949869469929
 20
65.53191730132535
 30
0.0
  0
SPLINE
  5
A0
330
82
100
AcDbEntity
  8
LAYER_1
 62
     7
100
AcDbSpline
210
0.0
220
0.0
230
1.0
 70
    11
 71
     3
 72
    17
 73
    13
 74
     0
 42
0.0000000001
 43
0.0000000001
 40
0.0
 40
0.0
 40
0.0
 40
0.0
 40
1.0
 40
1.0
 40
1.0
 40
2.0
 40
2.0
 40
2.0
 40
3.0
 40
3.0
 40
3.0
 40
4.0
 40
4.0
 40
4.0
 40
4.0
 10
10.32942979342459
 20
65.53191730132535
 30
0.0
 10
9.82162271889876
 20
65.53191730132535
 30
0.0
 10
9.355845809292983
 20
65.99769421093113
 30
0.0
 10
9.355845809292983
 20
66.50550128545696
 30
0.0
 10
9.355845809292983
 20
67.05602754399989
 30
0.0
 10
9.82162271889876
 20
67.47908526958857
 30
0.0
 10
10.32942979342459
 20
67.47908526958857
 30
0.0
 10
10.87995605196751
 20
67.47908526958857
 30
0.0
 10
11.30301377755619
 20
67.05602754399989
 30
0.0
 10
11.30301377755619
 20
66.50550128545696
 30
0.0
 10
11.30301377755619
 20
65.99769421093113
 30
0.0
 10
10.87995605196751
 20
65.53191730132535
 30
0.0
 10
10.32942979342459
 20
65.53191730132535
 30
0.0
  0
SPLINE
  5
A1
330
82
100
AcDbEntity
  8
LAYER_1
 62
     7
100
AcDbSpline
210
0.0
220
0.0
230
1.0
 70
    11
 71
     3
 72
    17
 73
    13
 74
     0
 42
0.0000000001
 43
0.0000000001
 40
0.0
 40
0.0
 40
0.0
 40
0.0
 40
1.0
 40
1.0
 40
1.0
 40
2.0
 40
2.0
 40
2.0
 40
3.0
 40
3.0
 40
3.0
 40
4.0
 40
4.0
 40
4.0
 40
4.0
 10
7.789360892149882
 20
65.53191730132535
 30
0.0
 10
7.281553817624056
 20
65.53191730132535
 30
0.0
 10
6.815776908018278
 20
65.99769421093113
 30
0.0
 10
6.815776908018278
 20
66.50550128545696
 30
0.0
 10
6.815776908018278
 20
67.05602754399989
 30
0.0
 10
7.281553817624056
 20
67.47908526958857
 30
0.0
 10
7.789360892149882
 20
67.47908526958857
 30
0.0
 10
8.339887150692807
 20
67.47908526958857
 30
0.0
 10
8.763289385830012
 20
67.05602754399989
 30
0.0
 10
8.763289385830012
 20
66.50550128545696
 30
0.0
 10
8.763289385830012
 20
65.99769421093113
 30
0.0
 10
8.339887150692807
 20
65.53191730132535
 30
0.0
 10
7.789360892149882
 20
65.53191730132535
 30
0.0
  0
SPLINE
  5
A2
330
82
100
AcDbEntity
  8
LAYER_1
 62
     7
100
AcDbSpline
210
0.0
220
0.0
230
1.0
 70
    11
 71
     3
 72
    17
 73
    13
 74
     0
 42
0.0000000001
 43
0.0000000001
 40
0.0
 40
0.0
 40
0.0
 40
0.0
 40
1.0
 40
1.0
 40
1.0
 40
2.0
 40
2.0
 40
2.0
 40
3.0
 40
3.0
 40
3.0
 40
4.0
 40
4.0
 40
4.0
 40
4.0
 10
20.32020670064912
 20
30.98794487072524
 30
0.0
 10
20.32020670064912
 20
31.53847112926816
 30
0.0
 10
20.7859836102549
 20
31.96152885485684
 30
0.0
 10
21.29379068478072
 20
31.96152885485684
 30
0.0
 10
21.84431694332364
 20
31.96152885485684
 30
0.0
 10
22.26737466891232
 20
31.53847112926816
 30
0.0
 10
22.26737466891232
 20
30.98794487072524
 30
0.0
 10
22.26737466891232
 20
30.43741861218231
 30
0.0
 10
21.84431694332364
 20
29.97198621212506
 30
0.0
 10
21.29379068478072
 20
29.97198621212506
 30
0.0
 10
20.7859836102549
 20
29.97198621212506
 30
0.0
 10
20.32020670064912
 20
30.43741861218231
 30
0.0
 10
20.32020670064912
 20
30.98794487072524
 30
0.0
  0
SPLINE
  5
A3
330
82
100
AcDbEntity
  8
LAYER_1
 62
     7
100
AcDbSpline
210
0.0
220
0.0
230
1.0
 70
    11
 71
     3
 72
    17
 73
    13
 74
     0
 42
0.0000000001
 43
0.0000000001
 40
0.0
 40
0.0
 40
0.0
 40
0.0
 40
1.0
 40
1.0
 40
1.0
 40
2.0
 40
2.0
 40
2.0
 40
3.0
 40
3.0
 40
3.0
 40
4.0
 40
4.0
 40
4.0
 40
4.0
 10
21.29379068478072
 20
32.51205511339977
 30
0.0
 10
20.7859836102549
 20
32.51205511339977
 30
0.0
 10
20.32020670064912
 20
32.97783202300554
 30
0.0
 10
20.32020670064912
 20
33.52801377199994
 30
0.0
 10
20.32020670064912
 20
34.07819552099434
 30
0.0
 10
20.7859836102549
 20
34.50159775613155
 30
0.0
 10
21.29379068478072
 20
34.50159775613155
 30
0.0
 10
21.84431694332364
 20
34.50159775613155
 30
0.0
 10
22.26737466891232
 20
34.07819552099434
 30
0.0
 10
22.26737466891232
 20
33.52801377199994
 30
0.0
 10
22.26737466891232
 20
32.97783202300554
 30
0.0
 10
21.84431694332364
 20
32.51205511339977
 30
0.0
 10
21.29379068478072
 20
32.51205511339977
 30
0.0
  0
SPLINE
  5
A4
330
82
100
AcDbEntity
  8
LAYER_1
 62
     7
100
AcDbSpline
210
0.0
220
0.0
230
1.0
 70
    11
 71
     3
 72
    17
 73
    13
 74
     0
 42
0.0000000001
 43
0.0000000001
 40
0.0
 40
0.0
 40
0.0
 40
0.0
 40
1.0
 40
1.0
 40
1.0
 40
2.0
 40
2.0
 40
2.0
 40
3.0
 40
3.0
 40
3.0
 40
4.0
 40
4.0
 40
4.0
 40
4.0
 10
21.29379068478072
 20
35.05177950512594
 30
0.0
 10
20.7859836102549
 20
35.05177950512594
 30
0.0
 10
20.32020670064912
 20
35.51755641473172
 30
0.0
 10
20.32020670064912
 20
36.06808267327465
 30
0.0
 10
20.32020670064912
 20
36.61826442226905
 30
0.0
 10
20.7859836102549
 20
37.04166665740625
 30
0.0
 10
21.29379068478072
 20
37.04166665740625
 30
0.0
 10
21.84431694332364
 20
37.04166665740625
 30
0.0
 10
22.26737466891232
 20
36.61826442226905
 30
0.0
 10
22.26737466891232
 20
36.06808267327465
 30
0.0
 10
22.26737466891232
 20
35.51755641473172
 30
0.0
 10
21.84431694332364
 20
35.05177950512594
 30
0.0
 10
21.29379068478072
 20
35.05177950512594
 30
0.0
  0
SPLINE
  5
A5
330
82
100
AcDbEntity
  8
LAYER_1
 62
     7
100
AcDbSpline
210
0.0
220
0.0
230
1.0
 70
    11
 71
     3
 72
    17
 73
    13
 74
     0
 42
0.0000000001
 43
0.0000000001
 40
0.0
 40
0.0
 40
0.0
 40
0.0
 40
1.0
 40
1.0
 40
1.0
 40
2.0
 40
2.0
 40
2.0
 40
3.0
 40
3.0
 40
3.0
 40
4.0
 40
4.0
 40
4.0
 40
4.0
 10
21.29379068478072
 20
37.59219291594918
 30
0.0
 10
20.7859836102549
 20
37.59219291594918
 30
0.0
 10
20.32020670064912
 20
38.05762531600643
 30
0.0
 10
20.32020670064912
 20
38.60780706500083
 30
0.0
 10
20.32020670064912
 20
39.15833332354375
 30
0.0
 10
20.7859836102549
 20
39.58173555868095
 30
0.0
 10
21.29379068478072
 20
39.58173555868095
 30
0.0
 10
21.84431694332364
 20
39.58173555868095
 30
0.0
 10
22.26737466891232
 20
39.15833332354375
 30
0.0
 10
22.26737466891232
 20
38.60780706500083
 30
0.0
 10
22.26737466891232
 20
38.05762531600643
 30
0.0
 10
21.84431694332364
 20
37.59219291594918
 30
0.0
 10
21.29379068478072
 20
37.59219291594918
 30
0.0
  0
SPLINE
  5
A6
330
82
100
AcDbEntity
  8
LAYER_1
 62
     7
100
AcDbSpline
210
0.0
220
0.0
230
1.0
 70
    11
 71
     3
 72
    17
 73
    13
 74
     0
 42
0.0000000001
 43
0.0000000001
 40
0.0
 40
0.0
 40
0.0
 40
0.0
 40
1.0
 40
1.0
 40
1.0
 40
2.0
 40
2.0
 40
2.0
 40
3.0
 40
3.0
 40
3.0
 40
4.0
 40
4.0
 40
4.0
 40
4.0
 10
21.29379068478072
 20
40.13191730767536
 30
0.0
 10
20.7859836102549
 20
40.13191730767536
 30
0.0
 10
20.32020670064912
 20
40.59769421728113
 30
0.0
 10
20.32020670064912
 20
41.10550129180696
 30
0.0
 10
20.32020670064912
 20
41.65602755034988
 30
0.0
 10
20.7859836102549
 20
42.07908527593857
 30
0.0
 10
21.29379068478072
 20
42.07908527593857
 30
0.0
 10
21.84431694332364
 20
42.07908527593857
 30
0.0
 10
22.26737466891232
 20
41.65602755034988
 30
0.0
 10
22.26737466891232
 20
41.10550129180696
 30
0.0
 10
22.26737466891232
 20
40.59769421728113
 30
0.0
 10
21.84431694332364
 20
40.13191730767536
 30
0.0
 10
21.29379068478072
 20
40.13191730767536
 30
0.0
  0
SPLINE
  5
A7
330
82
100
AcDbEntity
  8
LAYER_1
 62
     7
100
AcDbSpline
210
0.0
220
0.0
230
1.0
 70
    11
 71
     3
 72
    17
 73
    13
 74
     0
 42
0.0000000001
 43
0.0000000001
 40
0.0
 40
0.0
 40
0.0
 40
0.0
 40
1.0
 40
1.0
 40
1.0
 40
2.0
 40
2.0
 40
2.0
 40
3.0
 40
3.0
 40
3.0
 40
4.0
 40
4.0
 40
4.0
 40
4.0
 10
21.29379068478072
 20
42.67198620895006
 30
0.0
 10
20.7859836102549
 20
42.67198620895006
 30
0.0
 10
20.32020670064912
 20
43.13741860900731
 30
0.0
 10
20.32020670064912
 20
43.64557019308167
 30
0.0
 10
20.32020670064912
 20
44.19575194207606
 30
0.0
 10
20.7859836102549
 20
44.61949868676179
 30
0.0
 10
21.29379068478072
 20
44.61949868676179
 30
0.0
 10
21.84431694332364
 20
44.61949868676179
 30
0.0
 10
22.26737466891232
 20
44.19575194207606
 30
0.0
 10
22.26737466891232
 20
43.64557019308167
 30
0.0
 10
22.26737466891232
 20
43.13741860900731
 30
0.0
 10
21.84431694332364
 20
42.67198620895006
 30
0.0
 10
21.29379068478072
 20
42.67198620895006
 30
0.0
  0
SPLINE
  5
A8
330
82
100
AcDbEntity
  8
LAYER_1
 62
     7
100
AcDbSpline
210
0.0
220
0.0
230
1.0
 70
    11
 71
     3
 72
    17
 73
    13
 74
     0
 42
0.0000000001
 43
0.0000000001
 40
0.0
 40
0.0
 40
0.0
 40
0.0
 40
1.0
 40
1.0
 40
1.0
 40
2.0
 40
2.0
 40
2.0
 40
3.0
 40
3.0
 40
3.0
 40
4.0
 40
4.0
 40
4.0
 40
4.0
 10
21.29379068478072
 20
45.21205511022477
 30
0.0
 10
20.7859836102549
 20
45.21205511022477
 30
0.0
 10
20.32020670064912
 20
45.67783201983055
 30
0.0
 10
20.32020670064912
 20
46.18563909435637
 30
0.0
 10
20.32020670064912
 20
46.73616535289929
 30
0.0
 10
20.7859836102549
 20
47.15922307848798
 30
0.0
 10
21.29379068478072
 20
47.15922307848798
 30
0.0
 10
21.84431694332364
 20
47.15922307848798
 30
0.0
 10
22.26737466891232
 20
46.73616535289929
 30
0.0
 10
22.26737466891232
 20
46.18563909435637
 30
0.0
 10
22.26737466891232
 20
45.67783201983055
 30
0.0
 10
21.84431694332364
 20
45.21205511022477
 30
0.0
 10
21.29379068478072
 20
45.21205511022477
 30
0.0
  0
SPLINE
  5
A9
330
82
100
AcDbEntity
  8
LAYER_1
 62
     7
100
AcDbSpline
210
0.0
220
0.0
230
1.0
 70
    11
 71
     3
 72
    17
 73
    13
 74
     0
 42
0.0000000001
 43
0.0000000001
 40
0.0
 40
0.0
 40
0.0
 40
0.0
 40
1.0
 40
1.0
 40
1.0
 40
2.0
 40
2.0
 40
2.0
 40
3.0
 40
3.0
 40
3.0
 40
4.0
 40
4.0
 40
4.0
 40
4.0
 10
2.709567599148997
 20
51.60408527355732
 30
0.0
 10
3.259749348143396
 20
51.60408527355732
 30
0.0
 10
3.683151583280601
 20
51.18102754796863
 30
0.0
 10
3.683151583280601
 20
50.63050128942571
 30
0.0
 10
3.683151583280601
 20
50.12269421489989
 30
0.0
 10
3.259749348143396
 20
49.65691730529411
 30
0.0
 10
2.709567599148997
 20
49.65691730529411
 30
0.0
 10
2.201416015074646
 20
49.65691730529411
 30
0.0
 10
1.735983615017393
 20
50.12269421489989
 30
0.0
 10
1.735983615017393
 20
50.63050128942571
 30
0.0
 10
1.735983615017393
 20
51.18102754796863
 30
0.0
 10
2.201416015074646
 20
51.60408527355732
 30
0.0
 10
2.709567599148997
 20
51.60408527355732
 30
0.0
  0
SPLINE
  5
AA
330
82
100
AcDbEntity
  8
LAYER_1
 62
     7
100
AcDbSpline
210
0.0
220
0.0
230
1.0
 70
    11
 71
     3
 72
    17
 73
    13
 74
     0
 42
0.0000000001
 43
0.0000000001
 40
0.0
 40
0.0
 40
0.0
 40
0.0
 40
1.0
 40
1.0
 40
1.0
 40
2.0
 40
2.0
 40
2.0
 40
3.0
 40
3.0
 40
3.0
 40
4.0
 40
4.0
 40
4.0
 40
4.0
 10
5.249636500423702
 20
49.65691730529411
 30
0.0
 10
4.741484916349351
 20
49.65691730529411
 30
0.0
 10
4.275708006743574
 20
50.12269421489989
 30
0.0
 10
4.275708006743574
 20
50.63050128942571
 30
0.0
 10
4.275708006743574
 20
51.18102754796863
 30
0.0
 10
4.741484916349351
 20
51.60408527355732
 30
0.0
 10
5.249636500423702
 20
51.60408527355732
 30
0.0
 10
5.799818249418101
 20
51.60408527355732
 30
0.0
 10
6.223220484555307
 20
51.18102754796863
 30
0.0
 10
6.223220484555307
 20
50.63050128942571
 30
0.0
 10
6.223220484555307
 20
50.12269421489989
 30
0.0
 10
5.799818249418101
 20
49.65691730529411
 30
0.0
 10
5.249636500423702
 20
49.65691730529411
 30
0.0
  0
SPLINE
  5
AB
330
82
100
AcDbEntity
  8
LAYER_1
 62
     7
100
AcDbSpline
210
0.0
220
0.0
230
1.0
 70
    11
 71
     3
 72
    17
 73
    13
 74
     0
 42
0.0000000001
 43
0.0000000001
 40
0.0
 40
0.0
 40
0.0
 40
0.0
 40
1.0
 40
1.0
 40
1.0
 40
2.0
 40
2.0
 40
2.0
 40
3.0
 40
3.0
 40
3.0
 40
4.0
 40
4.0
 40
4.0
 40
4.0
 10
7.789360892149882
 20
49.65691730529411
 30
0.0
 10
7.281553817624056
 20
49.65691730529411
 30
0.0
 10
6.815776908018278
 20
50.12269421489989
 30
0.0
 10
6.815776908018278
 20
50.63050128942571
 30
0.0
 10
6.815776908018278
 20
51.18102754796863
 30
0.0
 10
7.281553817624056
 20
51.60408527355732
 30
0.0
 10
7.789360892149882
 20
51.60408527355732
 30
0.0
 10
8.339887150692807
 20
51.60408527355732
 30
0.0
 10
8.763289385830012
 20
51.18102754796863
 30
0.0
 10
8.763289385830012
 20
50.63050128942571
 30
0.0
 10
8.763289385830012
 20
50.12269421489989
 30
0.0
 10
8.339887150692807
 20
49.65691730529411
 30
0.0
 10
7.789360892149882
 20
49.65691730529411
 30
0.0
  0
SPLINE
  5
AC
330
82
100
AcDbEntity
  8
LAYER_1
 62
     7
100
AcDbSpline
210
0.0
220
0.0
230
1.0
 70
    11
 71
     3
 72
    17
 73
    13
 74
     0
 42
0.0000000001
 43
0.0000000001
 40
0.0
 40
0.0
 40
0.0
 40
0.0
 40
1.0
 40
1.0
 40
1.0
 40
2.0
 40
2.0
 40
2.0
 40
3.0
 40
3.0
 40
3.0
 40
4.0
 40
4.0
 40
4.0
 40
4.0
 10
10.32942979342459
 20
49.65691730529411
 30
0.0
 10
9.82162271889876
 20
49.65691730529411
 30
0.0
 10
9.355845809292983
 20
50.12269421489989
 30
0.0
 10
9.355845809292983
 20
50.63050128942571
 30
0.0
 10
9.355845809292983
 20
51.18102754796863
 30
0.0
 10
9.82162271889876
 20
51.60408527355732
 30
0.0
 10
10.32942979342459
 20
51.60408527355732
 30
0.0
 10
10.87995605196751
 20
51.60408527355732
 30
0.0
 10
11.30301377755619
 20
51.18102754796863
 30
0.0
 10
11.30301377755619
 20
50.63050128942571
 30
0.0
 10
11.30301377755619
 20
50.12269421489989
 30
0.0
 10
10.87995605196751
 20
49.65691730529411
 30
0.0
 10
10.32942979342459
 20
49.65691730529411
 30
0.0
  0
SPLINE
  5
AD
330
82
100
AcDbEntity
  8
LAYER_1
 62
     7
100
AcDbSpline
210
0.0
220
0.0
230
1.0
 70
    11
 71
     3
 72
    17
 73
    13
 74
     0
 42
0.0000000001
 43
0.0000000001
 40
0.0
 40
0.0
 40
0.0
 40
0.0
 40
1.0
 40
1.0
 40
1.0
 40
2.0
 40
2.0
 40
2.0
 40
3.0
 40
3.0
 40
3.0
 40
4.0
 40
4.0
 40
4.0
 40
4.0
 10
12.86949869469929
 20
49.65691730529411
 30
0.0
 10
12.36134711062494
 20
49.65691730529411
 30
0.0
 10
11.89591471056769
 20
50.12269421489989
 30
0.0
 10
11.89591471056769
 20
50.63050128942571
 30
0.0
 10
11.89591471056769
 20
51.18102754796863
 30
0.0
 10
12.36134711062494
 20
51.60408527355732
 30
0.0
 10
12.86949869469929
 20
51.60408527355732
 30
0.0
 10
13.41968044369369
 20
51.60408527355732
 30
0.0
 10
13.8430826788309
 20
51.18102754796863
 30
0.0
 10
13.8430826788309
 20
50.63050128942571
 30
0.0
 10
13.8430826788309
 20
50.12269421489989
 30
0.0
 10
13.41968044369369
 20
49.65691730529411
 30
0.0
 10
12.86949869469929
 20
49.65691730529411
 30
0.0
  0
SPLINE
  5
AE
330
82
100
AcDbEntity
  8
LAYER_1
 62
     7
100
AcDbSpline
210
0.0
220
0.0
230
1.0
 70
    11
 71
     3
 72
    17
 73
    13
 74
     0
 42
0.0000000001
 43
0.0000000001
 40
0.0
 40
0.0
 40
0.0
 40
0.0
 40
1.0
 40
1.0
 40
1.0
 40
2.0
 40
2.0
 40
2.0
 40
3.0
 40
3.0
 40
3.0
 40
4.0
 40
4.0
 40
4.0
 40
4.0
 10
15.409567595974
 20
49.65691730529411
 30
0.0
 10
14.90141601189965
 20
49.65691730529411
 30
0.0
 10
14.43598361184239
 20
50.12269421489989
 30
0.0
 10
14.43598361184239
 20
50.63050128942571
 30
0.0
 10
14.43598361184239
 20
51.18102754796863
 30
0.0
 10
14.90141601189965
 20
51.60408527355732
 30
0.0
 10
15.409567595974
 20
51.60408527355732
 30
0.0
 10
15.9597493449684
 20
51.60408527355732
 30
0.0
 10
16.3831515801056
 20
51.18102754796863
 30
0.0
 10
16.3831515801056
 20
50.63050128942571
 30
0.0
 10
16.3831515801056
 20
50.12269421489989
 30
0.0
 10
15.9597493449684
 20
49.65691730529411
 30
0.0
 10
15.409567595974
 20
49.65691730529411
 30
0.0
  0
SPLINE
  5
AF
330
82
100
AcDbEntity
  8
LAYER_1
 62
     7
100
AcDbSpline
210
0.0
220
0.0
230
1.0
 70
    11
 71
     3
 72
    17
 73
    13
 74
     0
 42
0.0000000001
 43
0.0000000001
 40
0.0
 40
0.0
 40
0.0
 40
0.0
 40
1.0
 40
1.0
 40
1.0
 40
2.0
 40
2.0
 40
2.0
 40
3.0
 40
3.0
 40
3.0
 40
4.0
 40
4.0
 40
4.0
 40
4.0
 10
17.9496364972487
 20
49.65691730529411
 30
0.0
 10
17.44148491317435
 20
49.65691730529411
 30
0.0
 10
16.97570800356857
 20
50.12269421489989
 30
0.0
 10
16.97570800356857
 20
50.63050128942571
 30
0.0
 10
16.97570800356857
 20
51.18102754796863
 30
0.0
 10
17.44148491317435
 20
51.60408527355732
 30
0.0
 10
17.9496364972487
 20
51.60408527355732
 30
0.0
 10
18.4998182462431
 20
51.60408527355732
 30
0.0
 10
18.92322048138031
 20
51.18102754796863
 30
0.0
 10
18.92322048138031
 20
50.63050128942571
 30
0.0
 10
18.92322048138031
 20
50.12269421489989
 30
0.0
 10
18.4998182462431
 20
49.65691730529411
 30
0.0
 10
17.9496364972487
 20
49.65691730529411
 30
0.0
  0
SPLINE
  5
B0
330
82
100
AcDbEntity
  8
LAYER_1
 62
     7
100
AcDbSpline
210
0.0
220
0.0
230
1.0
 70
    11
 71
     3
 72
    17
 73
    13
 74
     0
 42
0.0000000001
 43
0.0000000001
 40
0.0
 40
0.0
 40
0.0
 40
0.0
 40
1.0
 40
1.0
 40
1.0
 40
2.0
 40
2.0
 40
2.0
 40
3.0
 40
3.0
 40
3.0
 40
4.0
 40
4.0
 40
4.0
 40
4.0
 10
20.48936088897488
 20
51.60408527355732
 30
0.0
 10
21.03988714751781
 20
51.60408527355732
 30
0.0
 10
21.46328938265501
 20
51.18102754796863
 30
0.0
 10
21.46328938265501
 20
50.63050128942571
 30
0.0
 10
21.46328938265501
 20
50.12269421489989
 30
0.0
 10
21.03988714751781
 20
49.65691730529411
 30
0.0
 10
20.48936088897488
 20
49.65691730529411
 30
0.0
 10
19.98155381444906
 20
49.65691730529411
 30
0.0
 10
19.51577690484328
 20
50.12269421489989
 30
0.0
 10
19.51577690484328
 20
50.63050128942571
 30
0.0
 10
19.51577690484328
 20
51.18102754796863
 30
0.0
 10
19.98155381444906
 20
51.60408527355732
 30
0.0
 10
20.48936088897488
 20
51.60408527355732
 30
0.0
  0
SPLINE
  5
B1
330
82
100
AcDbEntity
  8
LAYER_1
 62
     7
100
AcDbSpline
210
0.0
220
0.0
230
1.0
 70
    11
 71
     3
 72
    17
 73
    13
 74
     0
 42
0.0000000001
 43
0.0000000001
 40
0.0
 40
0.0
 40
0.0
 40
0.0
 40
1.0
 40
1.0
 40
1.0
 40
2.0
 40
2.0
 40
2.0
 40
3.0
 40
3.0
 40
3.0
 40
4.0
 40
4.0
 40
4.0
 40
4.0
 10
2.709567599148997
 20
62.35691730211911
 30
0.0
 10
2.201416015074646
 20
62.35691730211911
 30
0.0
 10
1.735983615017393
 20
62.82269421172489
 30
0.0
 10
1.735983615017393
 20
63.33050128625071
 30
0.0
 10
1.735983615017393
 20
63.88102754479363
 30
0.0
 10
2.201416015074646
 20
64.30408527038232
 30
0.0
 10
2.709567599148997
 20
64.30408527038232
 30
0.0
 10
3.259749348143396
 20
64.30408527038232
 30
0.0
 10
3.683151583280601
 20
63.88102754479363
 30
0.0
 10
3.683151583280601
 20
63.33050128625071
 30
0.0
 10
3.683151583280601
 20
62.82269421172489
 30
0.0
 10
3.259749348143396
 20
62.35691730211911
 30
0.0
 10
2.709567599148997
 20
62.35691730211911
 30
0.0
  0
SPLINE
  5
B2
330
82
100
AcDbEntity
  8
LAYER_1
 62
     7
100
AcDbSpline
210
0.0
220
0.0
230
1.0
 70
    11
 71
     3
 72
    17
 73
    13
 74
     0
 42
0.0000000001
 43
0.0000000001
 40
0.0
 40
0.0
 40
0.0
 40
0.0
 40
1.0
 40
1.0
 40
1.0
 40
2.0
 40
2.0
 40
2.0
 40
3.0
 40
3.0
 40
3.0
 40
4.0
 40
4.0
 40
4.0
 40
4.0
 10
5.249636500423702
 20
62.35691730211911
 30
0.0
 10
4.741484916349351
 20
62.35691730211911
 30
0.0
 10
4.275708006743574
 20
62.82269421172489
 30
0.0
 10
4.275708006743574
 20
63.33050128625071
 30
0.0
 10
4.275708006743574
 20
63.88102754479363
 30
0.0
 10
4.741484916349351
 20
64.30408527038232
 30
0.0
 10
5.249636500423702
 20
64.30408527038232
 30
0.0
 10
5.799818249418101
 20
64.30408527038232
 30
0.0
 10
6.223220484555307
 20
63.88102754479363
 30
0.0
 10
6.223220484555307
 20
63.33050128625071
 30
0.0
 10
6.223220484555307
 20
62.82269421172489
 30
0.0
 10
5.799818249418101
 20
62.35691730211911
 30
0.0
 10
5.249636500423702
 20
62.35691730211911
 30
0.0
  0
SPLINE
  5
B3
330
82
100
AcDbEntity
  8
LAYER_1
 62
     7
100
AcDbSpline
210
0.0
220
0.0
230
1.0
 70
    11
 71
     3
 72
    17
 73
    13
 74
     0
 42
0.0000000001
 43
0.0000000001
 40
0.0
 40
0.0
 40
0.0
 40
0.0
 40
1.0
 40
1.0
 40
1.0
 40
2.0
 40
2.0
 40
2.0
 40
3.0
 40
3.0
 40
3.0
 40
4.0
 40
4.0
 40
4.0
 40
4.0
 10
7.789360892149882
 20
62.35691730211911
 30
0.0
 10
7.281553817624056
 20
62.35691730211911
 30
0.0
 10
6.815776908018278
 20
62.82269421172489
 30
0.0
 10
6.815776908018278
 20
63.33050128625071
 30
0.0
 10
6.815776908018278
 20
63.88102754479363
 30
0.0
 10
7.281553817624056
 20
64.30408527038232
 30
0.0
 10
7.789360892149882
 20
64.30408527038232
 30
0.0
 10
8.339887150692807
 20
64.30408527038232
 30
0.0
 10
8.763289385830012
 20
63.88102754479363
 30
0.0
 10
8.763289385830012
 20
63.33050128625071
 30
0.0
 10
8.763289385830012
 20
62.82269421172489
 30
0.0
 10
8.339887150692807
 20
62.35691730211911
 30
0.0
 10
7.789360892149882
 20
62.35691730211911
 30
0.0
  0
SPLINE
  5
B4
330
82
100
AcDbEntity
  8
LAYER_1
 62
     7
100
AcDbSpline
210
0.0
220
0.0
230
1.0
 70
    11
 71
     3
 72
    17
 73
    13
 74
     0
 42
0.0000000001
 43
0.0000000001
 40
0.0
 40
0.0
 40
0.0
 40
0.0
 40
1.0
 40
1.0
 40
1.0
 40
2.0
 40
2.0
 40
2.0
 40
3.0
 40
3.0
 40
3.0
 40
4.0
 40
4.0
 40
4.0
 40
4.0
 10
10.32942979342459
 20
62.35691730211911
 30
0.0
 10
9.82162271889876
 20
62.35691730211911
 30
0.0
 10
9.355845809292983
 20
62.82269421172489
 30
0.0
 10
9.355845809292983
 20
63.33050128625071
 30
0.0
 10
9.355845809292983
 20
63.88102754479363
 30
0.0
 10
9.82162271889876
 20
64.30408527038232
 30
0.0
 10
10.32942979342459
 20
64.30408527038232
 30
0.0
 10
10.87995605196751
 20
64.30408527038232
 30
0.0
 10
11.30301377755619
 20
63.88102754479363
 30
0.0
 10
11.30301377755619
 20
63.33050128625071
 30
0.0
 10
11.30301377755619
 20
62.82269421172489
 30
0.0
 10
10.87995605196751
 20
62.35691730211911
 30
0.0
 10
10.32942979342459
 20
62.35691730211911
 30
0.0
  0
SPLINE
  5
B5
330
82
100
AcDbEntity
  8
LAYER_1
 62
     7
100
AcDbSpline
210
0.0
220
0.0
230
1.0
 70
    11
 71
     3
 72
    17
 73
    13
 74
     0
 42
0.0000000001
 43
0.0000000001
 40
0.0
 40
0.0
 40
0.0
 40
0.0
 40
1.0
 40
1.0
 40
1.0
 40
2.0
 40
2.0
 40
2.0
 40
3.0
 40
3.0
 40
3.0
 40
4.0
 40
4.0
 40
4.0
 40
4.0
 10
12.86949869469929
 20
62.35691730211911
 30
0.0
 10
12.36134711062494
 20
62.35691730211911
 30
0.0
 10
11.89591471056769
 20
62.82269421172489
 30
0.0
 10
11.89591471056769
 20
63.33050128625071
 30
0.0
 10
11.89591471056769
 20
63.88102754479363
 30
0.0
 10
12.36134711062494
 20
64.30408527038232
 30
0.0
 10
12.86949869469929
 20
64.30408527038232
 30
0.0
 10
13.41968044369369
 20
64.30408527038232
 30
0.0
 10
13.8430826788309
 20
63.88102754479363
 30
0.0
 10
13.8430826788309
 20
63.33050128625071
 30
0.0
 10
13.8430826788309
 20
62.82269421172489
 30
0.0
 10
13.41968044369369
 20
62.35691730211911
 30
0.0
 10
12.86949869469929
 20
62.35691730211911
 30
0.0
  0
SPLINE
  5
B6
330
82
100
AcDbEntity
  8
LAYER_1
 62
     7
100
AcDbSpline
210
0.0
220
0.0
230
1.0
 70
    11
 71
     3
 72
    17
 73
    13
 74
     0
 42
0.0000000001
 43
0.0000000001
 40
0.0
 40
0.0
 40
0.0
 40
0.0
 40
1.0
 40
1.0
 40
1.0
 40
2.0
 40
2.0
 40
2.0
 40
3.0
 40
3.0
 40
3.0
 40
4.0
 40
4.0
 40
4.0
 40
4.0
 10
15.409567595974
 20
62.35691730211911
 30
0.0
 10
14.90141601189965
 20
62.35691730211911
 30
0.0
 10
14.43598361184239
 20
62.82269421172489
 30
0.0
 10
14.43598361184239
 20
63.33050128625071
 30
0.0
 10
14.43598361184239
 20
63.88102754479363
 30
0.0
 10
14.90141601189965
 20
64.30408527038232
 30
0.0
 10
15.409567595974
 20
64.30408527038232
 30
0.0
 10
15.9597493449684
 20
64.30408527038232
 30
0.0
 10
16.3831515801056
 20
63.88102754479363
 30
0.0
 10
16.3831515801056
 20
63.33050128625071
 30
0.0
 10
16.3831515801056
 20
62.82269421172489
 30
0.0
 10
15.9597493449684
 20
62.35691730211911
 30
0.0
 10
15.409567595974
 20
62.35691730211911
 30
0.0
  0
SPLINE
  5
B7
330
82
100
AcDbEntity
  8
LAYER_1
 62
     7
100
AcDbSpline
210
0.0
220
0.0
230
1.0
 70
    11
 71
     3
 72
    17
 73
    13
 74
     0
 42
0.0000000001
 43
0.0000000001
 40
0.0
 40
0.0
 40
0.0
 40
0.0
 40
1.0
 40
1.0
 40
1.0
 40
2.0
 40
2.0
 40
2.0
 40
3.0
 40
3.0
 40
3.0
 40
4.0
 40
4.0
 40
4.0
 40
4.0
 10
17.9496364972487
 20
62.35691730211911
 30
0.0
 10
17.44148491317435
 20
62.35691730211911
 30
0.0
 10
16.97570800356857
 20
62.82269421172489
 30
0.0
 10
16.97570800356857
 20
63.33050128625071
 30
0.0
 10
16.97570800356857
 20
63.88102754479363
 30
0.0
 10
17.44148491317435
 20
64.30408527038232
 30
0.0
 10
17.9496364972487
 20
64.30408527038232
 30
0.0
 10
18.4998182462431
 20
64.30408527038232
 30
0.0
 10
18.92322048138031
 20
63.88102754479363
 30
0.0
 10
18.92322048138031
 20
63.33050128625071
 30
0.0
 10
18.92322048138031
 20
62.82269421172489
 30
0.0
 10
18.4998182462431
 20
62.35691730211911
 30
0.0
 10
17.9496364972487
 20
62.35691730211911
 30
0.0
  0
SPLINE
  5
B8
330
82
100
AcDbEntity
  8
LAYER_1
 62
     7
100
AcDbSpline
210
0.0
220
0.0
230
1.0
 70
    11
 71
     3
 72
    17
 73
    13
 74
     0
 42
0.0000000001
 43
0.0000000001
 40
0.0
 40
0.0
 40
0.0
 40
0.0
 40
1.0
 40
1.0
 40
1.0
 40
2.0
 40
2.0
 40
2.0
 40
3.0
 40
3.0
 40
3.0
 40
4.0
 40
4.0
 40
4.0
 40
4.0
 10
20.48936088897488
 20
64.30408527038232
 30
0.0
 10
21.03988714751781
 20
64.30408527038232
 30
0.0
 10
21.46328938265501
 20
63.88102754479363
 30
0.0
 10
21.46328938265501
 20
63.33050128625071
 30
0.0
 10
21.46328938265501
 20
62.82269421172489
 30
0.0
 10
21.03988714751781
 20
62.35691730211911
 30
0.0
 10
20.48936088897488
 20
62.35691730211911
 30
0.0
 10
19.98155381444906
 20
62.35691730211911
 30
0.0
 10
19.51577690484328
 20
62.82269421172489
 30
0.0
 10
19.51577690484328
 20
63.33050128625071
 30
0.0
 10
19.51577690484328
 20
63.88102754479363
 30
0.0
 10
19.98155381444906
 20
64.30408527038232
 30
0.0
 10
20.48936088897488
 20
64.30408527038232
 30
0.0
  0
SPLINE
  5
B9
330
82
100
AcDbEntity
  8
LAYER_1
 62
     7
100
AcDbSpline
210
0.0
220
0.0
230
1.0
 70
    11
 71
     3
 72
    17
 73
    13
 74
     0
 42
0.0000000001
 43
0.0000000001
 40
0.0
 40
0.0
 40
0.0
 40
0.0
 40
1.0
 40
1.0
 40
1.0
 40
2.0
 40
2.0
 40
2.0
 40
3.0
 40
3.0
 40
3.0
 40
4.0
 40
4.0
 40
4.0
 40
4.0
 10
2.709567599148997
 20
45.33883462408196
 30
0.0
 10
2.243790689543219
 20
45.33883462408196
 30
0.0
 10
1.820388454406014
 20
45.76223685921916
 30
0.0
 10
1.820388454406014
 20
46.22801376882494
 30
0.0
 10
1.820388454406014
 20
46.6934461688822
 30
0.0
 10
2.243790689543219
 20
47.07447372955083
 30
0.0
 10
2.709567599148997
 20
47.07447372955083
 30
0.0
 10
3.217374673674823
 20
47.07447372955083
 30
0.0
 10
3.598402234343455
 20
46.6934461688822
 30
0.0
 10
3.598402234343455
 20
46.22801376882494
 30
0.0
 10
3.598402234343455
 20
45.76223685921916
 30
0.0
 10
3.217374673674823
 20
45.33883462408196
 30
0.0
 10
2.709567599148997
 20
45.33883462408196
 30
0.0
  0
SPLINE
  5
BA
330
82
100
AcDbEntity
  8
LAYER_1
 62
     7
100
AcDbSpline
210
0.0
220
0.0
230
1.0
 70
    11
 71
     3
 72
    17
 73
    13
 74
     0
 42
0.0000000001
 43
0.0000000001
 40
0.0
 40
0.0
 40
0.0
 40
0.0
 40
1.0
 40
1.0
 40
1.0
 40
2.0
 40
2.0
 40
2.0
 40
3.0
 40
3.0
 40
3.0
 40
4.0
 40
4.0
 40
4.0
 40
4.0
 10
2.709567599148997
 20
42.79911023235578
 30
0.0
 10
2.243790689543219
 20
42.79911023235578
 30
0.0
 10
1.820388454406014
 20
43.22216795794446
 30
0.0
 10
1.820388454406014
 20
43.68794486755024
 30
0.0
 10
1.820388454406014
 20
44.15372177715602
 30
0.0
 10
2.243790689543219
 20
44.53474933782465
 30
0.0
 10
2.709567599148997
 20
44.53474933782465
 30
0.0
 10
3.217374673674823
 20
44.53474933782465
 30
0.0
 10
3.598402234343455
 20
44.15372177715602
 30
0.0
 10
3.598402234343455
 20
43.68794486755024
 30
0.0
 10
3.598402234343455
 20
43.22216795794446
 30
0.0
 10
3.217374673674823
 20
42.79911023235578
 30
0.0
 10
2.709567599148997
 20
42.79911023235578
 30
0.0
  0
SPLINE
  5
BB
330
82
100
AcDbEntity
  8
LAYER_1
 62
     7
100
AcDbSpline
210
0.0
220
0.0
230
1.0
 70
    11
 71
     3
 72
    17
 73
    13
 74
     0
 42
0.0000000001
 43
0.0000000001
 40
0.0
 40
0.0
 40
0.0
 40
0.0
 40
1.0
 40
1.0
 40
1.0
 40
2.0
 40
2.0
 40
2.0
 40
3.0
 40
3.0
 40
3.0
 40
4.0
 40
4.0
 40
4.0
 40
4.0
 10
2.709567599148997
 20
40.25904133108107
 30
0.0
 10
2.243790689543219
 20
40.25904133108107
 30
0.0
 10
1.820388454406014
 20
40.68244356621828
 30
0.0
 10
1.820388454406014
 20
41.14822047582406
 30
0.0
 10
1.820388454406014
 20
41.61365287588131
 30
0.0
 10
2.243790689543219
 20
41.99468043654994
 30
0.0
 10
2.709567599148997
 20
41.99468043654994
 30
0.0
 10
3.217374673674823
 20
41.99468043654994
 30
0.0
 10
3.598402234343455
 20
41.61365287588131
 30
0.0
 10
3.598402234343455
 20
41.14822047582406
 30
0.0
 10
3.598402234343455
 20
40.68244356621828
 30
0.0
 10
3.217374673674823
 20
40.25904133108107
 30
0.0
 10
2.709567599148997
 20
40.25904133108107
 30
0.0
  0
SPLINE
  5
BC
330
82
100
AcDbEntity
  8
LAYER_1
 62
     7
100
AcDbSpline
210
0.0
220
0.0
230
1.0
 70
    11
 71
     3
 72
    17
 73
    13
 74
     0
 42
0.0000000001
 43
0.0000000001
 40
0.0
 40
0.0
 40
0.0
 40
0.0
 40
1.0
 40
1.0
 40
1.0
 40
2.0
 40
2.0
 40
2.0
 40
3.0
 40
3.0
 40
3.0
 40
4.0
 40
4.0
 40
4.0
 40
4.0
 10
2.709567599148997
 20
37.71897242980637
 30
0.0
 10
2.243790689543219
 20
37.71897242980637
 30
0.0
 10
1.820388454406014
 20
38.14237466494357
 30
0.0
 10
1.820388454406014
 20
38.60780706500083
 30
0.0
 10
1.820388454406014
 20
39.07358397460661
 30
0.0
 10
2.243790689543219
 20
39.45461153527524
 30
0.0
 10
2.709567599148997
 20
39.45461153527524
 30
0.0
 10
3.217374673674823
 20
39.45461153527524
 30
0.0
 10
3.598402234343455
 20
39.07358397460661
 30
0.0
 10
3.598402234343455
 20
38.60780706500083
 30
0.0
 10
3.598402234343455
 20
38.14237466494357
 30
0.0
 10
3.217374673674823
 20
37.71897242980637
 30
0.0
 10
2.709567599148997
 20
37.71897242980637
 30
0.0
  0
SPLINE
  5
BD
330
82
100
AcDbEntity
  8
LAYER_1
 62
     7
100
AcDbSpline
210
0.0
220
0.0
230
1.0
 70
    11
 71
     3
 72
    17
 73
    13
 74
     0
 42
0.0000000001
 43
0.0000000001
 40
0.0
 40
0.0
 40
0.0
 40
0.0
 40
1.0
 40
1.0
 40
1.0
 40
2.0
 40
2.0
 40
2.0
 40
3.0
 40
3.0
 40
3.0
 40
4.0
 40
4.0
 40
4.0
 40
4.0
 10
2.709567599148997
 20
35.17890352853166
 30
0.0
 10
2.243790689543219
 20
35.17890352853166
 30
0.0
 10
1.820388454406014
 20
35.60230576366887
 30
0.0
 10
1.820388454406014
 20
36.06808267327465
 30
0.0
 10
1.820388454406014
 20
36.53385958288042
 30
0.0
 10
2.243790689543219
 20
36.91488714354906
 30
0.0
 10
2.709567599148997
 20
36.91488714354906
 30
0.0
 10
3.217374673674823
 20
36.91488714354906
 30
0.0
 10
3.598402234343455
 20
36.53385958288042
 30
0.0
 10
3.598402234343455
 20
36.06808267327465
 30
0.0
 10
3.598402234343455
 20
35.60230576366887
 30
0.0
 10
3.217374673674823
 20
35.17890352853166
 30
0.0
 10
2.709567599148997
 20
35.17890352853166
 30
0.0
  0
SPLINE
  5
BE
330
82
100
AcDbEntity
  8
LAYER_1
 62
     7
100
AcDbSpline
210
0.0
220
0.0
230
1.0
 70
    11
 71
     3
 72
    17
 73
    13
 74
     0
 42
0.0000000001
 43
0.0000000001
 40
0.0
 40
0.0
 40
0.0
 40
0.0
 40
1.0
 40
1.0
 40
1.0
 40
2.0
 40
2.0
 40
2.0
 40
3.0
 40
3.0
 40
3.0
 40
4.0
 40
4.0
 40
4.0
 40
4.0
 10
2.709567599148997
 20
32.63883462725696
 30
0.0
 10
2.243790689543219
 20
32.63883462725696
 30
0.0
 10
1.820388454406014
 20
33.06223686239417
 30
0.0
 10
1.820388454406014
 20
33.52801377199994
 30
0.0
 10
1.820388454406014
 20
33.9934461720572
 30
0.0
 10
2.243790689543219
 20
34.37447373272582
 30
0.0
 10
2.709567599148997
 20
34.37447373272582
 30
0.0
 10
3.217374673674823
 20
34.37447373272582
 30
0.0
 10
3.598402234343455
 20
33.9934461720572
 30
0.0
 10
3.598402234343455
 20
33.52801377199994
 30
0.0
 10
3.598402234343455
 20
33.06223686239417
 30
0.0
 10
3.217374673674823
 20
32.63883462725696
 30
0.0
 10
2.709567599148997
 20
32.63883462725696
 30
0.0
  0
SPLINE
  5
BF
330
82
100
AcDbEntity
  8
LAYER_1
 62
     7
100
AcDbSpline
210
0.0
220
0.0
230
1.0
 70
    11
 71
     3
 72
    17
 73
    13
 74
     0
 42
0.0000000001
 43
0.0000000001
 40
0.0
 40
0.0
 40
0.0
 40
0.0
 40
1.0
 40
1.0
 40
1.0
 40
2.0
 40
2.0
 40
2.0
 40
3.0
 40
3.0
 40
3.0
 40
4.0
 40
4.0
 40
4.0
 40
4.0
 10
2.709567599148997
 20
30.09911023553078
 30
0.0
 10
2.243790689543219
 20
30.09911023553078
 30
0.0
 10
1.820388454406014
 20
30.52216796111946
 30
0.0
 10
1.820388454406014
 20
30.98794487072524
 30
0.0
 10
1.820388454406014
 20
31.45372178033102
 30
0.0
 10
2.243790689543219
 20
31.83474934099965
 30
0.0
 10
2.709567599148997
 20
31.83474934099965
 30
0.0
 10
3.217374673674823
 20
31.83474934099965
 30
0.0
 10
3.598402234343455
 20
31.45372178033102
 30
0.0
 10
3.598402234343455
 20
30.98794487072524
 30
0.0
 10
3.598402234343455
 20
30.52216796111946
 30
0.0
 10
3.217374673674823
 20
30.09911023553078
 30
0.0
 10
2.709567599148997
 20
30.09911023553078
 30
0.0
  0
SPLINE
  5
C0
330
82
100
AcDbEntity
  8
LAYER_1
 62
     7
100
AcDbSpline
210
0.0
220
0.0
230
1.0
 70
    11
 71
     3
 72
    17
 73
    13
 74
     0
 42
0.0000000001
 43
0.0000000001
 40
0.0
 40
0.0
 40
0.0
 40
0.0
 40
1.0
 40
1.0
 40
1.0
 40
2.0
 40
2.0
 40
2.0
 40
3.0
 40
3.0
 40
3.0
 40
4.0
 40
4.0
 40
4.0
 40
4.0
 10
2.709567599148997
 20
27.55904133425608
 30
0.0
 10
2.243790689543219
 20
27.55904133425608
 30
0.0
 10
1.820388454406014
 20
27.98244356939328
 30
0.0
 10
1.820388454406014
 20
28.44822047899906
 30
0.0
 10
1.820388454406014
 20
28.91365287905631
 30
0.0
 10
2.243790689543219
 20
29.29468043972494
 30
0.0
 10
2.709567599148997
 20
29.29468043972494
 30
0.0
 10
3.217374673674823
 20
29.29468043972494
 30
0.0
 10
3.598402234343455
 20
28.91365287905631
 30
0.0
 10
3.598402234343455
 20
28.44822047899906
 30
0.0
 10
3.598402234343455
 20
27.98244356939328
 30
0.0
 10
3.217374673674823
 20
27.55904133425608
 30
0.0
 10
2.709567599148997
 20
27.55904133425608
 30
0.0
  0
SPLINE
  5
C1
330
82
100
AcDbEntity
  8
LAYER_1
 62
     7
100
AcDbSpline
210
0.0
220
0.0
230
1.0
 70
    11
 71
     3
 72
    17
 73
    13
 74
     0
 42
0.0000000001
 43
0.0000000001
 40
0.0
 40
0.0
 40
0.0
 40
0.0
 40
1.0
 40
1.0
 40
1.0
 40
2.0
 40
2.0
 40
2.0
 40
3.0
 40
3.0
 40
3.0
 40
4.0
 40
4.0
 40
4.0
 40
4.0
 10
2.709567599148997
 20
25.01897243298137
 30
0.0
 10
2.243790689543219
 20
25.01897243298137
 30
0.0
 10
1.820388454406014
 20
25.44237466811857
 30
0.0
 10
1.820388454406014
 20
25.90780706817583
 30
0.0
 10
1.820388454406014
 20
26.37358397778161
 30
0.0
 10
2.243790689543219
 20
26.75461153845024
 30
0.0
 10
2.709567599148997
 20
26.75461153845024
 30
0.0
 10
3.217374673674823
 20
26.75461153845024
 30
0.0
 10
3.598402234343455
 20
26.37358397778161
 30
0.0
 10
3.598402234343455
 20
25.90780706817583
 30
0.0
 10
3.598402234343455
 20
25.44237466811857
 30
0.0
 10
3.217374673674823
 20
25.01897243298137
 30
0.0
 10
2.709567599148997
 20
25.01897243298137
 30
0.0
  0
SPLINE
  5
C2
330
82
100
AcDbEntity
  8
LAYER_1
 62
     7
100
AcDbSpline
210
0.0
220
0.0
230
1.0
 70
    11
 71
     3
 72
    17
 73
    13
 74
     0
 42
0.0000000001
 43
0.0000000001
 40
0.0
 40
0.0
 40
0.0
 40
0.0
 40
1.0
 40
1.0
 40
1.0
 40
2.0
 40
2.0
 40
2.0
 40
3.0
 40
3.0
 40
3.0
 40
4.0
 40
4.0
 40
4.0
 40
4.0
 10
2.709567599148997
 20
22.47924804125519
 30
0.0
 10
2.243790689543219
 20
22.47924804125519
 30
0.0
 10
1.820388454406014
 20
22.90230576684387
 30
0.0
 10
1.820388454406014
 20
23.36808267644965
 30
0.0
 10
1.820388454406014
 20
23.83385958605542
 30
0.0
 10
2.243790689543219
 20
24.21488714672406
 30
0.0
 10
2.709567599148997
 20
24.21488714672406
 30
0.0
 10
3.217374673674823
 20
24.21488714672406
 30
0.0
 10
3.598402234343455
 20
23.83385958605542
 30
0.0
 10
3.598402234343455
 20
23.36808267644965
 30
0.0
 10
3.598402234343455
 20
22.90230576684387
 30
0.0
 10
3.217374673674823
 20
22.47924804125519
 30
0.0
 10
2.709567599148997
 20
22.47924804125519
 30
0.0
  0
SPLINE
  5
C3
330
82
100
AcDbEntity
  8
LAYER_1
 62
     7
100
AcDbSpline
210
0.0
220
0.0
230
1.0
 70
    11
 71
     3
 72
    17
 73
    13
 74
     0
 42
0.0000000001
 43
0.0000000001
 40
0.0
 40
0.0
 40
0.0
 40
0.0
 40
1.0
 40
1.0
 40
1.0
 40
2.0
 40
2.0
 40
2.0
 40
3.0
 40
3.0
 40
3.0
 40
4.0
 40
4.0
 40
4.0
 40
4.0
 10
2.709567599148997
 20
19.93883463043196
 30
0.0
 10
2.243790689543219
 20
19.93883463043196
 30
0.0
 10
1.820388454406014
 20
20.36258137511769
 30
0.0
 10
1.820388454406014
 20
20.82801377517494
 30
0.0
 10
1.820388454406014
 20
21.29344617523219
 30
0.0
 10
2.243790689543219
 20
21.67447373590083
 30
0.0
 10
2.709567599148997
 20
21.67447373590083
 30
0.0
 10
3.217374673674823
 20
21.67447373590083
 30
0.0
 10
3.598402234343455
 20
21.29344617523219
 30
0.0
 10
3.598402234343455
 20
20.82801377517494
 30
0.0
 10
3.598402234343455
 20
20.36258137511769
 30
0.0
 10
3.217374673674823
 20
19.93883463043196
 30
0.0
 10
2.709567599148997
 20
19.93883463043196
 30
0.0
  0
SPLINE
  5
C4
330
82
100
AcDbEntity
  8
LAYER_1
 62
     7
100
AcDbSpline
210
0.0
220
0.0
230
1.0
 70
    11
 71
     3
 72
    17
 73
    13
 74
     0
 42
0.0000000001
 43
0.0000000001
 40
0.0
 40
0.0
 40
0.0
 40
0.0
 40
1.0
 40
1.0
 40
1.0
 40
2.0
 40
2.0
 40
2.0
 40
3.0
 40
3.0
 40
3.0
 40
4.0
 40
4.0
 40
4.0
 40
4.0
 10
2.709567599148997
 20
17.39911023870578
 30
0.0
 10
2.243790689543219
 20
17.39911023870578
 30
0.0
 10
1.820388454406014
 20
17.82216796429446
 30
0.0
 10
1.820388454406014
 20
18.28794487390024
 30
0.0
 10
1.820388454406014
 20
18.75372178350602
 30
0.0
 10
2.243790689543219
 20
19.13474934417465
 30
0.0
 10
2.709567599148997
 20
19.13474934417465
 30
0.0
 10
3.217374673674823
 20
19.13474934417465
 30
0.0
 10
3.598402234343455
 20
18.75372178350602
 30
0.0
 10
3.598402234343455
 20
18.28794487390024
 30
0.0
 10
3.598402234343455
 20
17.82216796429446
 30
0.0
 10
3.217374673674823
 20
17.39911023870578
 30
0.0
 10
2.709567599148997
 20
17.39911023870578
 30
0.0
  0
SPLINE
  5
C5
330
82
100
AcDbEntity
  8
LAYER_1
 62
     7
100
AcDbSpline
210
0.0
220
0.0
230
1.0
 70
    11
 71
     3
 72
    17
 73
    13
 74
     0
 42
0.0000000001
 43
0.0000000001
 40
0.0
 40
0.0
 40
0.0
 40
0.0
 40
1.0
 40
1.0
 40
1.0
 40
2.0
 40
2.0
 40
2.0
 40
3.0
 40
3.0
 40
3.0
 40
4.0
 40
4.0
 40
4.0
 40
4.0
 10
17.9496364972487
 20
47.07447372955083
 30
0.0
 10
18.45744357177453
 20
47.07447372955083
 30
0.0
 10
18.83847113244316
 20
46.6934461688822
 30
0.0
 10
18.83847113244316
 20
46.22801376882494
 30
0.0
 10
18.83847113244316
 20
45.76223685921916
 30
0.0
 10
18.45744357177453
 20
45.33883462408196
 30
0.0
 10
17.9496364972487
 20
45.33883462408196
 30
0.0
 10
17.48385958764293
 20
45.33883462408196
 30
0.0
 10
17.06045735250572
 20
45.76223685921916
 30
0.0
 10
17.06045735250572
 20
46.22801376882494
 30
0.0
 10
17.06045735250572
 20
46.6934461688822
 30
0.0
 10
17.48385958764293
 20
47.07447372955083
 30
0.0
 10
17.9496364972487
 20
47.07447372955083
 30
0.0
  0
SPLINE
  5
C6
330
82
100
AcDbEntity
  8
LAYER_1
 62
     7
100
AcDbSpline
210
0.0
220
0.0
230
1.0
 70
    11
 71
     3
 72
    17
 73
    13
 74
     0
 42
0.0000000001
 43
0.0000000001
 40
0.0
 40
0.0
 40
0.0
 40
0.0
 40
1.0
 40
1.0
 40
1.0
 40
2.0
 40
2.0
 40
2.0
 40
3.0
 40
3.0
 40
3.0
 40
4.0
 40
4.0
 40
4.0
 40
4.0
 10
17.9496364972487
 20
44.53474933782465
 30
0.0
 10
18.45744357177453
 20
44.53474933782465
 30
0.0
 10
18.83847113244316
 20
44.15372177715602
 30
0.0
 10
18.83847113244316
 20
43.68794486755024
 30
0.0
 10
18.83847113244316
 20
43.22216795794446
 30
0.0
 10
18.45744357177453
 20
42.79911023235578
 30
0.0
 10
17.9496364972487
 20
42.79911023235578
 30
0.0
 10
17.48385958764293
 20
42.79911023235578
 30
0.0
 10
17.06045735250572
 20
43.22216795794446
 30
0.0
 10
17.06045735250572
 20
43.68794486755024
 30
0.0
 10
17.06045735250572
 20
44.15372177715602
 30
0.0
 10
17.48385958764293
 20
44.53474933782465
 30
0.0
 10
17.9496364972487
 20
44.53474933782465
 30
0.0
  0
SPLINE
  5
C7
330
82
100
AcDbEntity
  8
LAYER_1
 62
     7
100
AcDbSpline
210
0.0
220
0.0
230
1.0
 70
    11
 71
     3
 72
    17
 73
    13
 74
     0
 42
0.0000000001
 43
0.0000000001
 40
0.0
 40
0.0
 40
0.0
 40
0.0
 40
1.0
 40
1.0
 40
1.0
 40
2.0
 40
2.0
 40
2.0
 40
3.0
 40
3.0
 40
3.0
 40
4.0
 40
4.0
 40
4.0
 40
4.0
 10
17.9496364972487
 20
41.99468043654994
 30
0.0
 10
18.45744357177453
 20
41.99468043654994
 30
0.0
 10
18.83847113244316
 20
41.61365287588131
 30
0.0
 10
18.83847113244316
 20
41.14822047582406
 30
0.0
 10
18.83847113244316
 20
40.68244356621828
 30
0.0
 10
18.45744357177453
 20
40.25904133108107
 30
0.0
 10
17.9496364972487
 20
40.25904133108107
 30
0.0
 10
17.48385958764293
 20
40.25904133108107
 30
0.0
 10
17.06045735250572
 20
40.68244356621828
 30
0.0
 10
17.06045735250572
 20
41.14822047582406
 30
0.0
 10
17.06045735250572
 20
41.61365287588131
 30
0.0
 10
17.48385958764293
 20
41.99468043654994
 30
0.0
 10
17.9496364972487
 20
41.99468043654994
 30
0.0
  0
SPLINE
  5
C8
330
82
100
AcDbEntity
  8
LAYER_1
 62
     7
100
AcDbSpline
210
0.0
220
0.0
230
1.0
 70
    11
 71
     3
 72
    17
 73
    13
 74
     0
 42
0.0000000001
 43
0.0000000001
 40
0.0
 40
0.0
 40
0.0
 40
0.0
 40
1.0
 40
1.0
 40
1.0
 40
2.0
 40
2.0
 40
2.0
 40
3.0
 40
3.0
 40
3.0
 40
4.0
 40
4.0
 40
4.0
 40
4.0
 10
17.9496364972487
 20
39.45461153527524
 30
0.0
 10
18.45744357177453
 20
39.45461153527524
 30
0.0
 10
18.83847113244316
 20
39.07358397460661
 30
0.0
 10
18.83847113244316
 20
38.60780706500083
 30
0.0
 10
18.83847113244316
 20
38.14237466494357
 30
0.0
 10
18.45744357177453
 20
37.71897242980637
 30
0.0
 10
17.9496364972487
 20
37.71897242980637
 30
0.0
 10
17.48385958764293
 20
37.71897242980637
 30
0.0
 10
17.06045735250572
 20
38.14237466494357
 30
0.0
 10
17.06045735250572
 20
38.60780706500083
 30
0.0
 10
17.06045735250572
 20
39.07358397460661
 30
0.0
 10
17.48385958764293
 20
39.45461153527524
 30
0.0
 10
17.9496364972487
 20
39.45461153527524
 30
0.0
  0
SPLINE
  5
C9
330
82
100
AcDbEntity
  8
LAYER_1
 62
     7
100
AcDbSpline
210
0.0
220
0.0
230
1.0
 70
    11
 71
     3
 72
    17
 73
    13
 74
     0
 42
0.0000000001
 43
0.0000000001
 40
0.0
 40
0.0
 40
0.0
 40
0.0
 40
1.0
 40
1.0
 40
1.0
 40
2.0
 40
2.0
 40
2.0
 40
3.0
 40
3.0
 40
3.0
 40
4.0
 40
4.0
 40
4.0
 40
4.0
 10
17.9496364972487
 20
36.91488714354906
 30
0.0
 10
18.45744357177453
 20
36.91488714354906
 30
0.0
 10
18.83847113244316
 20
36.53385958288042
 30
0.0
 10
18.83847113244316
 20
36.06808267327465
 30
0.0
 10
18.83847113244316
 20
35.60230576366887
 30
0.0
 10
18.45744357177453
 20
35.17890352853166
 30
0.0
 10
17.9496364972487
 20
35.17890352853166
 30
0.0
 10
17.48385958764293
 20
35.17890352853166
 30
0.0
 10
17.06045735250572
 20
35.60230576366887
 30
0.0
 10
17.06045735250572
 20
36.06808267327465
 30
0.0
 10
17.06045735250572
 20
36.53385958288042
 30
0.0
 10
17.48385958764293
 20
36.91488714354906
 30
0.0
 10
17.9496364972487
 20
36.91488714354906
 30
0.0
  0
SPLINE
  5
CA
330
82
100
AcDbEntity
  8
LAYER_1
 62
     7
100
AcDbSpline
210
0.0
220
0.0
230
1.0
 70
    11
 71
     3
 72
    17
 73
    13
 74
     0
 42
0.0000000001
 43
0.0000000001
 40
0.0
 40
0.0
 40
0.0
 40
0.0
 40
1.0
 40
1.0
 40
1.0
 40
2.0
 40
2.0
 40
2.0
 40
3.0
 40
3.0
 40
3.0
 40
4.0
 40
4.0
 40
4.0
 40
4.0
 10
17.9496364972487
 20
32.51205511339977
 30
0.0
 10
17.44148491317435
 20
32.51205511339977
 30
0.0
 10
16.97570800356857
 20
32.97783202300554
 30
0.0
 10
16.97570800356857
 20
33.52801377199994
 30
0.0
 10
16.97570800356857
 20
34.07819552099434
 30
0.0
 10
17.44148491317435
 20
34.50159775613155
 30
0.0
 10
17.9496364972487
 20
34.50159775613155
 30
0.0
 10
18.4998182462431
 20
34.50159775613155
 30
0.0
 10
18.92322048138031
 20
34.07819552099434
 30
0.0
 10
18.92322048138031
 20
33.52801377199994
 30
0.0
 10
18.92322048138031
 20
32.97783202300554
 30
0.0
 10
18.4998182462431
 20
32.51205511339977
 30
0.0
 10
17.9496364972487
 20
32.51205511339977
 30
0.0
  0
SPLINE
  5
CB
330
82
100
AcDbEntity
  8
LAYER_1
 62
     7
100
AcDbSpline
210
0.0
220
0.0
230
1.0
 70
    11
 71
     3
 72
    17
 73
    13
 74
     0
 42
0.0000000001
 43
0.0000000001
 40
0.0
 40
0.0
 40
0.0
 40
0.0
 40
1.0
 40
1.0
 40
1.0
 40
2.0
 40
2.0
 40
2.0
 40
3.0
 40
3.0
 40
3.0
 40
4.0
 40
4.0
 40
4.0
 40
4.0
 10
17.9496364972487
 20
30.31063909832512
 30
0.0
 10
17.44148491317435
 20
30.31063909832512
 30
0.0
 10
16.97570800356857
 20
30.64929198452518
 30
0.0
 10
16.97570800356857
 20
30.98794487072524
 30
0.0
 10
16.97570800356857
 20
31.36897243139387
 30
0.0
 10
17.44148491317435
 20
31.66525064312535
 30
0.0
 10
17.9496364972487
 20
31.66525064312535
 30
0.0
 10
18.4998182462431
 20
31.66525064312535
 30
0.0
 10
18.92322048138031
 20
31.36897243139387
 30
0.0
 10
18.92322048138031
 20
30.98794487072524
 30
0.0
 10
18.92322048138031
 20
30.64929198452518
 30
0.0
 10
18.4998182462431
 20
30.31063909832512
 30
0.0
 10
17.9496364972487
 20
30.31063909832512
 30
0.0
  0
SPLINE
  5
CC
330
82
100
AcDbEntity
  8
LAYER_1
 62
     7
100
AcDbSpline
210
0.0
220
0.0
230
1.0
 70
    11
 71
     3
 72
    17
 73
    13
 74
     0
 42
0.0000000001
 43
0.0000000001
 40
0.0
 40
0.0
 40
0.0
 40
0.0
 40
1.0
 40
1.0
 40
1.0
 40
2.0
 40
2.0
 40
2.0
 40
3.0
 40
3.0
 40
3.0
 40
4.0
 40
4.0
 40
4.0
 40
4.0
 10
17.9496364972487
 20
27.68616535766179
 30
0.0
 10
17.44148491317435
 20
27.68616535766179
 30
0.0
 10
16.97570800356857
 20
28.02447373431333
 30
0.0
 10
16.97570800356857
 20
28.44822047899906
 30
0.0
 10
16.97570800356857
 20
28.87127820458774
 30
0.0
 10
17.44148491317435
 20
29.16755641631922
 30
0.0
 10
17.9496364972487
 20
29.16755641631922
 30
0.0
 10
18.4998182462431
 20
29.16755641631922
 30
0.0
 10
18.92322048138031
 20
28.87127820458774
 30
0.0
 10
18.92322048138031
 20
28.44822047899906
 30
0.0
 10
18.92322048138031
 20
28.02447373431333
 30
0.0
 10
18.4998182462431
 20
27.68616535766179
 30
0.0
 10
17.9496364972487
 20
27.68616535766179
 30
0.0
  0
SPLINE
  5
CD
330
82
100
AcDbEntity
  8
LAYER_1
 62
     7
100
AcDbSpline
210
0.0
220
0.0
230
1.0
 70
    11
 71
     3
 72
    17
 73
    13
 74
     0
 42
0.0000000001
 43
0.0000000001
 40
0.0
 40
0.0
 40
0.0
 40
0.0
 40
1.0
 40
1.0
 40
1.0
 40
2.0
 40
2.0
 40
2.0
 40
3.0
 40
3.0
 40
3.0
 40
4.0
 40
4.0
 40
4.0
 40
4.0
 10
17.9496364972487
 20
25.10372178191852
 30
0.0
 10
17.44148491317435
 20
25.10372178191852
 30
0.0
 10
16.97570800356857
 20
25.48474934258715
 30
0.0
 10
16.97570800356857
 20
25.90780706817583
 30
0.0
 10
16.97570800356857
 20
26.33155381286156
 30
0.0
 10
17.44148491317435
 20
26.66986218951309
 30
0.0
 10
17.9496364972487
 20
26.66986218951309
 30
0.0
 10
18.4998182462431
 20
26.66986218951309
 30
0.0
 10
18.92322048138031
 20
26.33155381286156
 30
0.0
 10
18.92322048138031
 20
25.90780706817583
 30
0.0
 10
18.92322048138031
 20
25.48474934258715
 30
0.0
 10
18.4998182462431
 20
25.10372178191852
 30
0.0
 10
17.9496364972487
 20
25.10372178191852
 30
0.0
  0
SPLINE
  5
CE
330
82
100
AcDbEntity
  8
LAYER_1
 62
     7
100
AcDbSpline
210
0.0
220
0.0
230
1.0
 70
    11
 71
     3
 72
    17
 73
    13
 74
     0
 42
0.0000000001
 43
0.0000000001
 40
0.0
 40
0.0
 40
0.0
 40
0.0
 40
1.0
 40
1.0
 40
1.0
 40
2.0
 40
2.0
 40
2.0
 40
3.0
 40
3.0
 40
3.0
 40
4.0
 40
4.0
 40
4.0
 40
4.0
 10
17.9496364972487
 20
24.21488714672406
 30
0.0
 10
18.45744357177453
 20
24.21488714672406
 30
0.0
 10
18.83847113244316
 20
23.83385958605542
 30
0.0
 10
18.83847113244316
 20
23.36808267644965
 30
0.0
 10
18.83847113244316
 20
22.90230576684387
 30
0.0
 10
18.45744357177453
 20
22.47924804125519
 30
0.0
 10
17.9496364972487
 20
22.47924804125519
 30
0.0
 10
17.48385958764293
 20
22.47924804125519
 30
0.0
 10
17.06045735250572
 20
22.90230576684387
 30
0.0
 10
17.06045735250572
 20
23.36808267644965
 30
0.0
 10
17.06045735250572
 20
23.83385958605542
 30
0.0
 10
17.48385958764293
 20
24.21488714672406
 30
0.0
 10
17.9496364972487
 20
24.21488714672406
 30
0.0
  0
SPLINE
  5
CF
330
82
100
AcDbEntity
  8
LAYER_1
 62
     7
100
AcDbSpline
210
0.0
220
0.0
230
1.0
 70
    11
 71
     3
 72
    17
 73
    13
 74
     0
 42
0.0000000001
 43
0.0000000001
 40
0.0
 40
0.0
 40
0.0
 40
0.0
 40
1.0
 40
1.0
 40
1.0
 40
2.0
 40
2.0
 40
2.0
 40
3.0
 40
3.0
 40
3.0
 40
4.0
 40
4.0
 40
4.0
 40
4.0
 10
17.9496364972487
 20
21.67447373590083
 30
0.0
 10
18.45744357177453
 20
21.67447373590083
 30
0.0
 10
18.83847113244316
 20
21.29344617523219
 30
0.0
 10
18.83847113244316
 20
20.82801377517494
 30
0.0
 10
18.83847113244316
 20
20.36258137511769
 30
0.0
 10
18.45744357177453
 20
19.93883463043196
 30
0.0
 10
17.9496364972487
 20
19.93883463043196
 30
0.0
 10
17.48385958764293
 20
19.93883463043196
 30
0.0
 10
17.06045735250572
 20
20.36258137511769
 30
0.0
 10
17.06045735250572
 20
20.82801377517494
 30
0.0
 10
17.06045735250572
 20
21.29344617523219
 30
0.0
 10
17.48385958764293
 20
21.67447373590083
 30
0.0
 10
17.9496364972487
 20
21.67447373590083
 30
0.0
  0
SPLINE
  5
D0
330
82
100
AcDbEntity
  8
LAYER_1
 62
     7
100
AcDbSpline
210
0.0
220
0.0
230
1.0
 70
    11
 71
     3
 72
    17
 73
    13
 74
     0
 42
0.0000000001
 43
0.0000000001
 40
0.0
 40
0.0
 40
0.0
 40
0.0
 40
1.0
 40
1.0
 40
1.0
 40
2.0
 40
2.0
 40
2.0
 40
3.0
 40
3.0
 40
3.0
 40
4.0
 40
4.0
 40
4.0
 40
4.0
 10
17.9496364972487
 20
19.13474934417465
 30
0.0
 10
18.45744357177453
 20
19.13474934417465
 30
0.0
 10
18.83847113244316
 20
18.75372178350602
 30
0.0
 10
18.83847113244316
 20
18.28794487390024
 30
0.0
 10
18.83847113244316
 20
17.82216796429446
 30
0.0
 10
18.45744357177453
 20
17.39911023870578
 30
0.0
 10
17.9496364972487
 20
17.39911023870578
 30
0.0
 10
17.48385958764293
 20
17.39911023870578
 30
0.0
 10
17.06045735250572
 20
17.82216796429446
 30
0.0
 10
17.06045735250572
 20
18.28794487390024
 30
0.0
 10
17.06045735250572
 20
18.75372178350602
 30
0.0
 10
17.48385958764293
 20
19.13474934417465
 30
0.0
 10
17.9496364972487
 20
19.13474934417465
 30
0.0
  0
SPLINE
  5
D1
330
82
100
AcDbEntity
  8
LAYER_1
 62
     7
100
AcDbSpline
210
0.0
220
0.0
230
1.0
 70
    11
 71
     3
 72
    17
 73
    13
 74
     0
 42
0.0000000001
 43
0.0000000001
 40
0.0
 40
0.0
 40
0.0
 40
0.0
 40
1.0
 40
1.0
 40
1.0
 40
2.0
 40
2.0
 40
2.0
 40
3.0
 40
3.0
 40
3.0
 40
4.0
 40
4.0
 40
4.0
 40
4.0
 10
3.090595159817629
 20
15.74822048217406
 30
0.0
 10
3.090595159817629
 20
16.21365288223131
 30
0.0
 10
3.513652885406309
 20
16.59468044289994
 30
0.0
 10
3.979429795012087
 20
16.59468044289994
 30
0.0
 10
4.487581379086438
 20
16.59468044289994
 30
0.0
 10
4.86860893975507
 20
16.21365288223131
 30
0.0
 10
4.86860893975507
 20
15.74822048217406
 30
0.0
 10
4.86860893975507
 20
15.28244357256828
 30
0.0
 10
4.487581379086438
 20
14.85904133743107
 30
0.0
 10
3.979429795012087
 20
14.85904133743107
 30
0.0
 10
3.513652885406309
 20
14.85904133743107
 30
0.0
 10
3.090595159817629
 20
15.28244357256828
 30
0.0
 10
3.090595159817629
 20
15.74822048217406
 30
0.0
  0
SPLINE
  5
D2
330
82
100
AcDbEntity
  8
LAYER_1
 62
     7
100
AcDbSpline
210
0.0
220
0.0
230
1.0
 70
    11
 71
     3
 72
    17
 73
    13
 74
     0
 42
0.0000000001
 43
0.0000000001
 40
0.0
 40
0.0
 40
0.0
 40
0.0
 40
1.0
 40
1.0
 40
1.0
 40
2.0
 40
2.0
 40
2.0
 40
3.0
 40
3.0
 40
3.0
 40
4.0
 40
4.0
 40
4.0
 40
4.0
 10
5.630319551543809
 20
15.74822048217406
 30
0.0
 10
5.630319551543809
 20
16.21365288223131
 30
0.0
 10
6.053721786681014
 20
16.59468044289994
 30
0.0
 10
6.519498696286792
 20
16.59468044289994
 30
0.0
 10
7.027650280361144
 20
16.59468044289994
 30
0.0
 10
7.40833333148125
 20
16.21365288223131
 30
0.0
 10
7.40833333148125
 20
15.74822048217406
 30
0.0
 10
7.40833333148125
 20
15.28244357256828
 30
0.0
 10
7.027650280361144
 20
14.85904133743107
 30
0.0
 10
6.519498696286792
 20
14.85904133743107
 30
0.0
 10
6.053721786681014
 20
14.85904133743107
 30
0.0
 10
5.630319551543809
 20
15.28244357256828
 30
0.0
 10
5.630319551543809
 20
15.74822048217406
 30
0.0
  0
SPLINE
  5
D3
330
82
100
AcDbEntity
  8
LAYER_1
 62
     7
100
AcDbSpline
210
0.0
220
0.0
230
1.0
 70
    11
 71
     3
 72
    17
 73
    13
 74
     0
 42
0.0000000001
 43
0.0000000001
 40
0.0
 40
0.0
 40
0.0
 40
0.0
 40
1.0
 40
1.0
 40
1.0
 40
2.0
 40
2.0
 40
2.0
 40
3.0
 40
3.0
 40
3.0
 40
4.0
 40
4.0
 40
4.0
 40
4.0
 10
8.170388452818514
 20
15.74822048217406
 30
0.0
 10
8.170388452818514
 20
16.21365288223131
 30
0.0
 10
8.59379068795572
 20
16.59468044289994
 30
0.0
 10
9.059567597561497
 20
16.59468044289994
 30
0.0
 10
9.567374672087324
 20
16.59468044289994
 30
0.0
 10
9.948402232755955
 20
16.21365288223131
 30
0.0
 10
9.948402232755955
 20
15.74822048217406
 30
0.0
 10
9.948402232755955
 20
15.28244357256828
 30
0.0
 10
9.567374672087324
 20
14.85904133743107
 30
0.0
 10
9.059567597561497
 20
14.85904133743107
 30
0.0
 10
8.59379068795572
 20
14.85904133743107
 30
0.0
 10
8.170388452818514
 20
15.28244357256828
 30
0.0
 10
8.170388452818514
 20
15.74822048217406
 30
0.0
  0
SPLINE
  5
D4
330
82
100
AcDbEntity
  8
LAYER_1
 62
     7
100
AcDbSpline
210
0.0
220
0.0
230
1.0
 70
    11
 71
     3
 72
    17
 73
    13
 74
     0
 42
0.0000000001
 43
0.0000000001
 40
0.0
 40
0.0
 40
0.0
 40
0.0
 40
1.0
 40
1.0
 40
1.0
 40
2.0
 40
2.0
 40
2.0
 40
3.0
 40
3.0
 40
3.0
 40
4.0
 40
4.0
 40
4.0
 40
4.0
 10
10.71045735409322
 20
15.74822048217406
 30
0.0
 10
10.71045735409322
 20
16.21365288223131
 30
0.0
 10
11.13385958923042
 20
16.59468044289994
 30
0.0
 10
11.5996364988362
 20
16.59468044289994
 30
0.0
 10
12.10744357336203
 20
16.59468044289994
 30
0.0
 10
12.48847113403066
 20
16.21365288223131
 30
0.0
 10
12.48847113403066
 20
15.74822048217406
 30
0.0
 10
12.48847113403066
 20
15.28244357256828
 30
0.0
 10
12.10744357336203
 20
14.85904133743107
 30
0.0
 10
11.5996364988362
 20
14.85904133743107
 30
0.0
 10
11.13385958923042
 20
14.85904133743107
 30
0.0
 10
10.71045735409322
 20
15.28244357256828
 30
0.0
 10
10.71045735409322
 20
15.74822048217406
 30
0.0
  0
SPLINE
  5
D5
330
82
100
AcDbEntity
  8
LAYER_1
 62
     7
100
AcDbSpline
210
0.0
220
0.0
230
1.0
 70
    11
 71
     3
 72
    17
 73
    13
 74
     0
 42
0.0000000001
 43
0.0000000001
 40
0.0
 40
0.0
 40
0.0
 40
0.0
 40
1.0
 40
1.0
 40
1.0
 40
2.0
 40
2.0
 40
2.0
 40
3.0
 40
3.0
 40
3.0
 40
4.0
 40
4.0
 40
4.0
 40
4.0
 10
13.25052625536792
 20
15.74822048217406
 30
0.0
 10
13.25052625536792
 20
16.21365288223131
 30
0.0
 10
13.67392849050513
 20
16.59468044289994
 30
0.0
 10
14.13936089056238
 20
16.59468044289994
 30
0.0
 10
14.64751247463673
 20
16.59468044289994
 30
0.0
 10
15.02854003530537
 20
16.21365288223131
 30
0.0
 10
15.02854003530537
 20
15.74822048217406
 30
0.0
 10
15.02854003530537
 20
15.28244357256828
 30
0.0
 10
14.64751247463673
 20
14.85904133743107
 30
0.0
 10
14.13936089056238
 20
14.85904133743107
 30
0.0
 10
13.67392849050513
 20
14.85904133743107
 30
0.0
 10
13.25052625536792
 20
15.28244357256828
 30
0.0
 10
13.25052625536792
 20
15.74822048217406
 30
0.0
  0
SPLINE
  5
D6
330
82
100
AcDbEntity
  8
LAYER_1
 62
     7
100
AcDbSpline
210
0.0
220
0.0
230
1.0
 70
    11
 71
     3
 72
    17
 73
    13
 74
     0
 42
0.0000000001
 43
0.0000000001
 40
0.0
 40
0.0
 40
0.0
 40
0.0
 40
1.0
 40
1.0
 40
1.0
 40
2.0
 40
2.0
 40
2.0
 40
3.0
 40
3.0
 40
3.0
 40
4.0
 40
4.0
 40
4.0
 40
4.0
 10
15.79059515664263
 20
15.74822048217406
 30
0.0
 10
15.79059515664263
 20
16.21365288223131
 30
0.0
 10
16.21365288223131
 20
16.59468044289994
 30
0.0
 10
16.67942979183709
 20
16.59468044289994
 30
0.0
 10
17.18758137591144
 20
16.59468044289994
 30
0.0
 10
17.56860893658007
 20
16.21365288223131
 30
0.0
 10
17.56860893658007
 20
15.74822048217406
 30
0.0
 10
17.56860893658007
 20
15.28244357256828
 30
0.0
 10
17.18758137591144
 20
14.85904133743107
 30
0.0
 10
16.67942979183709
 20
14.85904133743107
 30
0.0
 10
16.21365288223131
 20
14.85904133743107
 30
0.0
 10
15.79059515664263
 20
15.28244357256828
 30
0.0
 10
15.79059515664263
 20
15.74822048217406
 30
0.0
  0
SPLINE
  5
D7
330
82
100
AcDbEntity
  8
LAYER_1
 62
     7
100
AcDbSpline
210
0.0
220
0.0
230
1.0
 70
    11
 71
     3
 72
    17
 73
    13
 74
     0
 42
0.0000000001
 43
0.0000000001
 40
0.0
 40
0.0
 40
0.0
 40
0.0
 40
1.0
 40
1.0
 40
1.0
 40
2.0
 40
2.0
 40
2.0
 40
3.0
 40
3.0
 40
3.0
 40
4.0
 40
4.0
 40
4.0
 40
4.0
 10
15.409567595974
 20
40.72447373113832
 30
0.0
 10
15.91737467049982
 20
40.72447373113832
 30
0.0
 10
16.29840223116846
 20
40.3434461704697
 30
0.0
 10
16.29840223116846
 20
39.87801377041244
 30
0.0
 10
16.29840223116846
 20
39.41223686080667
 30
0.0
 10
15.91737467049982
 20
38.98883462566946
 30
0.0
 10
15.409567595974
 20
38.98883462566946
 30
0.0
 10
14.94379068636822
 20
38.98883462566946
 30
0.0
 10
14.52038845123101
 20
39.41223686080667
 30
0.0
 10
14.52038845123101
 20
39.87801377041244
 30
0.0
 10
14.52038845123101
 20
40.3434461704697
 30
0.0
 10
14.94379068636822
 20
40.72447373113832
 30
0.0
 10
15.409567595974
 20
40.72447373113832
 30
0.0
  0
SPLINE
  5
D8
330
82
100
AcDbEntity
  8
LAYER_1
 62
     7
100
AcDbSpline
210
0.0
220
0.0
230
1.0
 70
    11
 71
     3
 72
    17
 73
    13
 74
     0
 42
0.0000000001
 43
0.0000000001
 40
0.0
 40
0.0
 40
0.0
 40
0.0
 40
1.0
 40
1.0
 40
1.0
 40
2.0
 40
2.0
 40
2.0
 40
3.0
 40
3.0
 40
3.0
 40
4.0
 40
4.0
 40
4.0
 40
4.0
 10
15.409567595974
 20
38.18474933941215
 30
0.0
 10
15.91737467049982
 20
38.18474933941215
 30
0.0
 10
16.29840223116846
 20
37.80372177874352
 30
0.0
 10
16.29840223116846
 20
37.33794486913774
 30
0.0
 10
16.29840223116846
 20
36.87216795953196
 30
0.0
 10
15.91737467049982
 20
36.44911023394328
 30
0.0
 10
15.409567595974
 20
36.44911023394328
 30
0.0
 10
14.94379068636822
 20
36.44911023394328
 30
0.0
 10
14.52038845123101
 20
36.87216795953196
 30
0.0
 10
14.52038845123101
 20
37.33794486913774
 30
0.0
 10
14.52038845123101
 20
37.80372177874352
 30
0.0
 10
14.94379068636822
 20
38.18474933941215
 30
0.0
 10
15.409567595974
 20
38.18474933941215
 30
0.0
  0
SPLINE
  5
D9
330
82
100
AcDbEntity
  8
LAYER_1
 62
     7
100
AcDbSpline
210
0.0
220
0.0
230
1.0
 70
    11
 71
     3
 72
    17
 73
    13
 74
     0
 42
0.0000000001
 43
0.0000000001
 40
0.0
 40
0.0
 40
0.0
 40
0.0
 40
1.0
 40
1.0
 40
1.0
 40
2.0
 40
2.0
 40
2.0
 40
3.0
 40
3.0
 40
3.0
 40
4.0
 40
4.0
 40
4.0
 40
4.0
 10
15.409567595974
 20
30.56488714513656
 30
0.0
 10
15.91737467049982
 20
30.56488714513656
 30
0.0
 10
16.29840223116846
 20
30.18385958446792
 30
0.0
 10
16.29840223116846
 20
29.71808267486215
 30
0.0
 10
16.29840223116846
 20
29.25230576525637
 30
0.0
 10
15.91737467049982
 20
28.82890353011916
 30
0.0
 10
15.409567595974
 20
28.82890353011916
 30
0.0
 10
14.94379068636822
 20
28.82890353011916
 30
0.0
 10
14.52038845123101
 20
29.25230576525637
 30
0.0
 10
14.52038845123101
 20
29.71808267486215
 30
0.0
 10
14.52038845123101
 20
30.18385958446792
 30
0.0
 10
14.94379068636822
 20
30.56488714513656
 30
0.0
 10
15.409567595974
 20
30.56488714513656
 30
0.0
  0
SPLINE
  5
DA
330
82
100
AcDbEntity
  8
LAYER_1
 62
     7
100
AcDbSpline
210
0.0
220
0.0
230
1.0
 70
    11
 71
     3
 72
    17
 73
    13
 74
     0
 42
0.0000000001
 43
0.0000000001
 40
0.0
 40
0.0
 40
0.0
 40
0.0
 40
1.0
 40
1.0
 40
1.0
 40
2.0
 40
2.0
 40
2.0
 40
3.0
 40
3.0
 40
3.0
 40
4.0
 40
4.0
 40
4.0
 40
4.0
 10
15.409567595974
 20
28.02447373431333
 30
0.0
 10
15.91737467049982
 20
28.02447373431333
 30
0.0
 10
16.29840223116846
 20
27.64344617364469
 30
0.0
 10
16.29840223116846
 20
27.17801377358744
 30
0.0
 10
16.29840223116846
 20
26.71258137353019
 30
0.0
 10
15.91737467049982
 20
26.28883462884446
 30
0.0
 10
15.409567595974
 20
26.28883462884446
 30
0.0
 10
14.94379068636822
 20
26.28883462884446
 30
0.0
 10
14.52038845123101
 20
26.71258137353019
 30
0.0
 10
14.52038845123101
 20
27.17801377358744
 30
0.0
 10
14.52038845123101
 20
27.64344617364469
 30
0.0
 10
14.94379068636822
 20
28.02447373431333
 30
0.0
 10
15.409567595974
 20
28.02447373431333
 30
0.0
  0
ENDBLK
  5
85
330
82
100
AcDbEntity
  8
0
100
AcDbBlockEnd
  0
ENDSEC
  0
SECTION
  2
ENTITIES
  0
INSERT
  5
3D
330
1F
100
AcDbEntity
  8
LAYER_1
100
AcDbBlockReference
  2
BLOCK_2
 10
0.0
 20
0.0
 30
0.0
  0
ENDSEC
  0
SECTION
  2
OBJECTS
  0
DICTIONARY
  5
C
330
0
100
AcDbDictionary
  3
ACAD_GROUP
350
D
  3
ACAD_LAYOUT
350
1A
  3
ACAD_MLINESTYLE
350
17
  3
ACAD_PLOTSETTINGS
350
19
  3
ACAD_TABLESTYLE
350
E9
  3
ACAD_VISUALSTYLE
350
2A
1001
ACAD
1000
TREAT_AS_HARD
1070
     0
  0
DICTIONARY
  5
D
102
{ACAD_REACTORS
330
C
102
}
330
C
100
AcDbDictionary
1001
ACAD
1000
TREAT_AS_HARD
1070
     0
  0
DICTIONARY
  5
1A
102
{ACAD_REACTORS
330
C
102
}
330
C
100
AcDbDictionary
1001
ACAD
1000
TREAT_AS_HARD
1070
     0
  0
DICTIONARY
  5
17
102
{ACAD_REACTORS
330
C
102
}
330
C
100
AcDbDictionary
  3
STANDARD
350
18
1001
ACAD
1000
TREAT_AS_HARD
1070
     0
  0
DICTIONARY
  5
19
102
{ACAD_REACTORS
330
C
102
}
330
C
100
AcDbDictionary
1001
ACAD
1000
TREAT_AS_HARD
1070
     0
  0
DICTIONARY
  5
E9
102
{ACAD_REACTORS
330
C
102
}
330
C
100
AcDbDictionary
1001
ACAD
1000
TREAT_AS_HARD
1070
     0
  0
DICTIONARY
  5
2A
102
{ACAD_REACTORS
330
C
102
}
330
C
100
AcDbDictionary
  3
2DWIREFRAME
350
2F
  3
3D_HIDDEN
350
31
  3
3DWIREFRAME
350
30
  3
BASIC
350
32
  3
BRIGHTEN
350
36
  3
COLORCHANGE
350
3A
  3
CONCEPTUAL
350
34
  3
DIM
350
35
  3
FACEPATTERN
350
39
  3
FLAT
350
2B
  3
FLATWITHEDGES
350
2C
  3
GOURAUD
350
2D
  3
GOURAUDWITHEDGES
350
2E
  3
LINEPATTERN
350
38
  3
REALISTIC
350
33
  3
THICKEN
350
37
1001
ACAD
1000
TREAT_AS_HARD
1070
     0
  0
MLINESTYLE
  5
18
102
{ACAD_REACTORS
330
17
102
}
330
17
100
AcDbMlineStyle
  2
Standard
 70
     0
  3

 62
   256
 51
90.0
 52
90.0
 71
     2
 49
0.5
 62
   256
  6
BYLAYER
 49
-0.5
 62
   256
  6
BYLAYER
  0
VISUALSTYLE
  5
2F
102
{ACAD_REACTORS
330
2A
102
}
330
2A
100
AcDbVisualStyle
  2
2dWireframe
 70
     4
 71
     0
 72
     2
 73
     0
 90
        0
 40
-0.6
 41
-30.0
 62
     5
 63
     7
 74
     1
 91
        4
 64
     7
 65
   257
 75
     1
175
     1
 42
1.0
 92
        0
 66
   257
 43
1.0
 76
     1
 77
     6
 78
     2
 67
     7
 79
     5
170
     0
171
     0
290
     0
174
     0
 93
        1
 44
0.0
173
     0
291
     0
 45
0.0
1001
ACAD
1000
AcDbSavedByObjectVersion
1070
     0
  0
VISUALSTYLE
  5
31
102
{ACAD_REACTORS
330
2A
102
}
330
2A
100
AcDbVisualStyle
  2
3D Hidden
 70
     6
 71
     1
 72
     2
 73
     2
 90
        0
 40
-0.6
 41
-30.0
 62
     5
 63
     7
 74
     2
 91
        2
 64
     7
 65
   257
 75
     2
175
     1
 42
40.0
 92
        0
 66
   257
 43
1.0
 76
     1
 77
     6
 78
     2
 67
     7
 79
     3
170
     0
171
     0
290
     0
174
     0
 93
        1
 44
0.0
173
     0
291
     0
 45
0.0
1001
ACAD
1000
AcDbSavedByObjectVersion
1070
     0
  0
VISUALSTYLE
  5
30
102
{ACAD_REACTORS
330
2A
102
}
330
2A
100
AcDbVisualStyle
  2
3dWireframe
 70
     5
 71
     0
 72
     2
 73
     0
 90
        0
 40
-0.6
 41
-30.0
 62
     5
 63
     7
 74
     1
 91
        4
 64
     7
 65
   257
 75
     1
175
     1
 42
1.0
 92
        0
 66
   257
 43
1.0
 76
     1
 77
     6
 78
     2
 67
     7
 79
     5
170
     0
171
     0
290
     0
174
     0
 93
        1
 44
0.0
173
     0
291
     0
 45
0.0
1001
ACAD
1000
AcDbSavedByObjectVersion
1070
     0
  0
VISUALSTYLE
  5
32
102
{ACAD_REACTORS
330
2A
102
}
330
2A
100
AcDbVisualStyle
  2
Basic
 70
     7
 71
     1
 72
     0
 73
     1
 90
        0
 40
-0.6
 41
-30.0
 62
     5
 63
     7
 74
     0
 91
        4
 64
     7
 65
   257
 75
     1
175
     1
 42
1.0
 92
        8
 66
     7
 43
1.0
 76
     1
 77
     6
 78
     2
 67
     7
 79
     5
170
     0
171
     0
290
     0
174
     0
 93
        1
 44
0.0
173
     0
291
     1
 45
0.0
1001
ACAD
1000
AcDbSavedByObjectVersion
1070
     0
  0
VISUALSTYLE
  5
36
102
{ACAD_REACTORS
330
2A
102
}
330
2A
100
AcDbVisualStyle
  2
Brighten
 70
    12
 71
     2
 72
     2
 73
     0
 90
        0
 40
-0.6
 41
-30.0
 62
     5
 63
     7
 74
     1
 91
        4
 64
     7
 65
   257
 75
     1
175
     1
 42
1.0
 92
        8
 66
     7
 43
1.0
 76
     1
 77
     6
 78
     2
 67
     7
 79
     5
170
     0
171
     0
290
     0
174
     0
 93
        1
 44
50.0
173
     0
291
     1
 45
0.0
1001
ACAD
1000
AcDbSavedByObjectVersion
1070
     0
  0
VISUALSTYLE
  5
3A
102
{ACAD_REACTORS
330
2A
102
}
330
2A
100
AcDbVisualStyle
  2
ColorChange
 70
    16
 71
     2
 72
     2
 73
     3
 90
        0
 40
-0.6
 41
-30.0
 62
     5
 63
     8
 74
     1
 91
        4
 64
     7
 65
   257
 75
     1
175
     1
 42
1.0
 92
        8
 66
     8
 43
1.0
 76
     1
 77
     6
 78
     2
 67
     7
 79
     5
170
     0
171
     0
290
     0
174
     0
 93
        1
 44
0.0
173
     0
291
     1
 45
0.0
1001
ACAD
1000
AcDbSavedByObjectVersion
1070
     0
  0
VISUALSTYLE
  5
34
102
{ACAD_REACTORS
330
2A
102
}
330
2A
100
AcDbVisualStyle
  2
Conceptual
 70
     9
 71
     3
 72
     2
 73
     0
 90
        0
 40
-0.6
 41
-30.0
 62
     5
 63
     7
 74
     2
 91
        2
 64
     7
 65
   257
 75
     1
175
     1
 42
40.0
 92
        8
 66
     7
 43
1.0
 76
     1
 77
     6
 78
     2
 67
     7
 79
     3
170
     0
171
     0
290
     0
174
     0
 93
        1
 44
0.0
173
     0
291
     0
 45
0.0
1001
ACAD
1000
AcDbSavedByObjectVersion
1070
     0
  0
VISUALSTYLE
  5
35
102
{ACAD_REACTORS
330
2A
102
}
330
2A
100
AcDbVisualStyle
  2
Dim
 70
    11
 71
     2
 72
     2
 73
     0
 90
        0
 40
-0.6
 41
-30.0
 62
     5
 63
     7
 74
     1
 91
        4
 64
     7
 65
   257
 75
     1
175
     1
 42
1.0
 92
        8
 66
     7
 43
1.0
 76
     1
 77
     6
 78
     2
 67
     7
 79
     5
170
     0
171
     0
290
     0
174
     0
 93
        1
 44
-50.0
173
     0
291
     1
 45
0.0
1001
ACAD
1000
AcDbSavedByObjectVersion
1070
     0
  0
VISUALSTYLE
  5
39
102
{ACAD_REACTORS
330
2A
102
}
330
2A
100
AcDbVisualStyle
  2
Facepattern
 70
    15
 71
     2
 72
     2
 73
     0
 90
        0
 40
-0.6
 41
-30.0
 62
     5
 63
     7
 74
     1
 91
        4
 64
     7
 65
   257
 75
     1
175
     1
 42
1.0
 92
        8
 66
     7
 43
1.0
 76
     1
 77
     6
 78
     2
 67
     7
 79
     5
170
     0
171
     0
290
     0
174
     0
 93
        1
 44
0.0
173
     0
291
     1
 45
0.0
1001
ACAD
1000
AcDbSavedByObjectVersion
1070
     0
  0
VISUALSTYLE
  5
2B
102
{ACAD_REACTORS
330
2A
102
}
330
2A
100
AcDbVisualStyle
  2
Flat
 70
     0
 71
     2
 72
     1
 73
     1
 90
        2
 40
-0.6
 41
30.0
 62
     5
 63
     7
 74
     0
 91
        4
 64
     7
 65
   257
 75
     1
175
     1
 42
1.0
 92
        8
 66
     7
 43
1.0
 76
     1
 77
     6
 78
     2
 67
     7
 79
     5
170
     0
171
     0
290
     0
174
     0
 93
       13
 44
0.0
173
     0
291
     1
 45
0.0
1001
ACAD
1000
AcDbSavedByObjectVersion
1070
     0
  0
VISUALSTYLE
  5
2C
102
{ACAD_REACTORS
330
2A
102
}
330
2A
100
AcDbVisualStyle
  2
FlatWithEdges
 70
     1
 71
     2
 72
     1
 73
     1
 90
        2
 40
-0.6
 41
30.0
 62
     5
 63
     7
 74
     1
 91
        4
 64
     7
 65
   257
 75
     1
175
     1
 42
1.0
 92
        0
 66
   257
 43
1.0
 76
     1
 77
     6
 78
     2
 67
     7
 79
     5
170
     0
171
     0
290
     0
174
     0
 93
       13
 44
0.0
173
     0
291
     1
 45
0.0
1001
ACAD
1000
AcDbSavedByObjectVersion
1070
     0
  0
VISUALSTYLE
  5
2D
102
{ACAD_REACTORS
330
2A
102
}
330
2A
100
AcDbVisualStyle
  2
Gouraud
 70
     2
 71
     2
 72
     2
 73
     1
 90
        2
 40
-0.6
 41
30.0
 62
     5
 63
     7
 74
     0
 91
        4
 64
     7
 65
   257
 75
     1
175
     1
 42
1.0
 92
        0
 66
     7
 43
1.0
 76
     1
 77
     6
 78
     2
 67
     7
 79
     5
170
     0
171
     0
290
     0
174
     0
 93
       13
 44
0.0
173
     0
291
     1
 45
0.0
1001
ACAD
1000
AcDbSavedByObjectVersion
1070
     0
  0
VISUALSTYLE
  5
2E
102
{ACAD_REACTORS
330
2A
102
}
330
2A
100
AcDbVisualStyle
  2
GouraudWithEdges
 70
     3
 71
     2
 72
     2
 73
     1
 90
        2
 40
-0.6
 41
30.0
 62
     5
 63
     7
 74
     1
 91
        4
 64
     7
 65
   257
 75
     1
175
     1
 42
1.0
 92
        0
 66
   257
 43
1.0
 76
     1
 77
     6
 78
     2
 67
     7
 79
     5
170
     0
171
     0
290
     0
174
     0
 93
       13
 44
0.0
173
     0
291
     1
 45
0.0
1001
ACAD
1000
AcDbSavedByObjectVersion
1070
     0
  0
VISUALSTYLE
  5
38
102
{ACAD_REACTORS
330
2A
102
}
330
2A
100
AcDbVisualStyle
  2
Linepattern
 70
    14
 71
     2
 72
     2
 73
     0
 90
        0
 40
-0.6
 41
-30.0
 62
     5
 63
     7
 74
     1
 91
        4
 64
     7
 65
   257
 75
     7
175
     7
 42
1.0
 92
        8
 66
     7
 43
1.0
 76
     1
 77
     6
 78
     2
 67
     7
 79
     5
170
     0
171
     0
290
     0
174
     0
 93
        1
 44
0.0
173
     0
291
     1
 45
0.0
1001
ACAD
1000
AcDbSavedByObjectVersion
1070
     0
  0
VISUALSTYLE
  5
33
102
{ACAD_REACTORS
330
2A
102
}
330
2A
100
AcDbVisualStyle
  2
Realistic
 70
     8
 71
     2
 72
     2
 73
     0
 90
        0
 40
-0.6
 41
-30.0
 62
     5
 63
     7
 74
     1
 91
        0
 64
     7
 65
   257
 75
     1
175
     1
 42
1.0
 92
        8
 66
     8
 43
1.0
 76
     1
 77
     6
 78
     2
 67
     7
 79
     5
170
     0
171
     0
290
     0
174
     0
 93
       13
 44
0.0
173
     0
291
     0
 45
0.0
1001
ACAD
1000
AcDbSavedByObjectVersion
1070
     0
  0
VISUALSTYLE
  5
37
102
{ACAD_REACTORS
330
2A
102
}
330
2A
100
AcDbVisualStyle
  2
Thicken
 70
    13
 71
     2
 72
     2
 73
     0
 90
        0
 40
-0.6
 41
-30.0
 62
     5
 63
     7
 74
     1
 91
        4
 64
     7
 65
   257
 75
     1
175
     1
 42
1.0
 92
       12
 66
     7
 43
1.0
 76
     1
 77
     6
 78
     2
 67
     7
 79
     5
170
     0
171
     0
290
     0
174
     0
 93
        1
 44
0.0
173
     0
291
     1
 45
0.0
1001
ACAD
1000
AcDbSavedByObjectVersion
1070
     0
  0
ENDSEC
  0
EOF
