  0
SECTION
  2
HEADER
  9
$ACADVER
  1
AC1012
  9
$DWGCODEPAGE
  3
ansi_1252
  9
$INSBASE
 10
0.0
 20
0.0
 30
0.0
  9
$EXTMIN
 10
1.000000000000000E+20
 20
1.000000000000000E+20
 30
1.000000000000000E+20
  9
$EXTMAX
 10
-1.000000000000000E+20
 20
-1.000000000000000E+20
 30
-1.000000000000000E+20
  9
$LIMMIN
 10
0.0
 20
0.0
  9
$LIMMAX
 10
12.0
 20
9.0
  9
$ORTHOMODE
 70
     0
  9
$REGENMODE
 70
     1
  9
$FILLMODE
 70
     1
  9
$QTEXTMODE
 70
     0
  9
$MIRRTEXT
 70
     1
  9
$DRAGMODE
 70
     2
  9
$LTSCALE
 40
1.0
  9
$OSMODE
 70
    37
  9
$ATTMODE
 70
     1
  9
$TEXTSIZE
 40
0.2
  9
$TRACEWID
 40
0.05
  9
$TEXTSTYLE
  7
STANDARD
  9
$CLAYER
  8
0
  9
$CELTYPE
  6
BYLAYER
  9
$CECOLOR
 62
   256
  9
$CELTSCALE
 40
1.0
  9
$DELOBJ
 70
     1
  9
$DISPSILH
 70
     0
  9
$DIMSCALE
 40
1.0
  9
$DIMASZ
 40
0.18
  9
$DIMEXO
 40
0.0625
  9
$DIMDLI
 40
0.38
  9
$DIMRND
 40
0.0
  9
$DIMDLE
 40
0.0
  9
$DIMEXE
 40
0.18
  9
$DIMTP
 40
0.0
  9
$DIMTM
 40
0.0
  9
$DIMTXT
 40
0.18
  9
$DIMCEN
 40
0.09
  9
$DIMTSZ
 40
0.0
  9
$DIMTOL
 70
     0
  9
$DIMLIM
 70
     0
  9
$DIMTIH
 70
     1
  9
$DIMTOH
 70
     1
  9
$DIMSE1
 70
     0
  9
$DIMSE2
 70
     0
  9
$DIMTAD
 70
     0
  9
$DIMZIN
 70
     0
  9
$DIMBLK
  1

  9
$DIMASO
 70
     1
  9
$DIMSHO
 70
     1
  9
$DIMPOST
  1

  9
$DIMAPOST
  1

  9
$DIMALT
 70
     0
  9
$DIMALTD
 70
     2
  9
$DIMALTF
 40
25.4
  9
$DIMLFAC
 40
1.0
  9
$DIMTOFL
 70
     0
  9
$DIMTVP
 40
0.0
  9
$DIMTIX
 70
     0
  9
$DIMSOXD
 70
     0
  9
$DIMSAH
 70
     0
  9
$DIMBLK1
  1

  9
$DIMBLK2
  1

  9
$DIMSTYLE
  2
STANDARD
  9
$DIMCLRD
 70
     0
  9
$DIMCLRE
 70
     0
  9
$DIMCLRT
 70
     0
  9
$DIMTFAC
 40
1.0
  9
$DIMGAP
 40
0.09
  9
$DIMJUST
 70
     0
  9
$DIMSD1
 70
     0
  9
$DIMSD2
 70
     0
  9
$DIMTOLJ
 70
     1
  9
$DIMTZIN
 70
     0
  9
$DIMALTZ
 70
     0
  9
$DIMALTTZ
 70
     0
  9
$DIMFIT
 70
     3
  9
$DIMUPT
 70
     0
  9
$DIMUNIT
 70
     2
  9
$DIMDEC
 70
     4
  9
$DIMTDEC
 70
     4
  9
$DIMALTU
 70
     2
  9
$DIMALTTD
 70
     2
  9
$DIMTXSTY
  7
STANDARD
  9
$DIMAUNIT
 70
     0
  9
$LUNITS
 70
     2
  9
$LUPREC
 70
     4
  9
$SKETCHINC
 40
0.1
  9
$FILLETRAD
 40
0.5
  9
$AUNITS
 70
     0
  9
$AUPREC
 70
     0
  9
$MENU
  1
.
  9
$ELEVATION
 40
0.0
  9
$PELEVATION
 40
0.0
  9
$THICKNESS
 40
0.0
  9
$LIMCHECK
 70
     0
  9
$CHAMFERA
 40
0.5
  9
$CHAMFERB
 40
0.5
  9
$CHAMFERC
 40
1.0
  9
$CHAMFERD
 40
0.0
  9
$SKPOLY
 70
     0
  9
$TDCREATE
 40
2456382.742687512
  9
$TDUPDATE
 40
2456382.742687523
  9
$TDINDWG
 40
0.0000000116
  9
$TDUSRTIMER
 40
0.0000000116
  9
$USRTIMER
 70
     1
  9
$ANGBASE
 50
0.0
  9
$ANGDIR
 70
     0
  9
$PDMODE
 70
     0
  9
$PDSIZE
 40
0.0
  9
$PLINEWID
 40
0.0
  9
$COORDS
 70
     1
  9
$SPLFRAME
 70
     0
  9
$SPLINETYPE
 70
     6
  9
$SPLINESEGS
 70
     8
  9
$ATTDIA
 70
     0
  9
$ATTREQ
 70
     1
  9
$HANDLING
 70
     1
  9
$HANDSEED
  5
8F
  9
$SURFTAB1
 70
     6
  9
$SURFTAB2
 70
     6
  9
$SURFTYPE
 70
     6
  9
$SURFU
 70
     6
  9
$SURFV
 70
     6
  9
$UCSNAME
  2

  9
$UCSORG
 10
0.0
 20
0.0
 30
0.0
  9
$UCSXDIR
 10
1.0
 20
0.0
 30
0.0
  9
$UCSYDIR
 10
0.0
 20
1.0
 30
0.0
  9
$PUCSNAME
  2

  9
$PUCSORG
 10
0.0
 20
0.0
 30
0.0
  9
$PUCSXDIR
 10
1.0
 20
0.0
 30
0.0
  9
$PUCSYDIR
 10
0.0
 20
1.0
 30
0.0
  9
$USERI1
 70
     0
  9
$USERI2
 70
     0
  9
$USERI3
 70
     0
  9
$USERI4
 70
     0
  9
$USERI5
 70
     0
  9
$USERR1
 40
0.0
  9
$USERR2
 40
0.0
  9
$USERR3
 40
0.0
  9
$USERR4
 40
0.0
  9
$USERR5
 40
0.0
  9
$WORLDVIEW
 70
     1
  9
$SHADEDGE
 70
     3
  9
$SHADEDIF
 70
    70
  9
$TILEMODE
 70
     1
  9
$MAXACTVP
 70
    64
  9
$PINSBASE
 10
0.0
 20
0.0
 30
0.0
  9
$PLIMCHECK
 70
     0
  9
$PEXTMIN
 10
1.000000000000000E+20
 20
1.000000000000000E+20
 30
1.000000000000000E+20
  9
$PEXTMAX
 10
-1.000000000000000E+20
 20
-1.000000000000000E+20
 30
-1.000000000000000E+20
  9
$PLIMMIN
 10
0.0
 20
0.0
  9
$PLIMMAX
 10
12.0
 20
9.0
  9
$UNITMODE
 70
     0
  9
$VISRETAIN
 70
     1
  9
$PLINEGEN
 70
     0
  9
$PSLTSCALE
 70
     1
  9
$TREEDEPTH
 70
  3020
  9
$PICKSTYLE
 70
     1
  9
$CMLSTYLE
  2
STANDARD
  9
$CMLJUST
 70
     0
  9
$CMLSCALE
 40
1.0
  9
$SAVEIMAGES
 70
     1
  0
ENDSEC
  0
SECTION
  2
CLASSES
  0
CLASS
  1
ACDBDICTIONARYWDFLT
  2
AcDbDictionaryWithDefault
  3
ObjectDBX Classes
 90
    32768
280
     0
281
     0
  0
CLASS
  1
VISUALSTYLE
  2
AcDbVisualStyle
  3
ObjectDBX Classes
 90
     4095
280
     0
281
     0
  0
CLASS
  1
XRECORD
  2
AcDbXrecord
  3
AutoCAD 2000
 90
    32768
280
     0
281
     0
  0
CLASS
  1
LWPOLYLINE
  2
AcDbPolyline
  3
AutoCAD 2000
 90
    32768
280
     0
281
     1
  0
CLASS
  1
HATCH
  2
AcDbHatch
  3
AutoCAD 2000
 90
    32768
280
     0
281
     1
  0
CLASS
  1
ACDBPLACEHOLDER
  2
AcDbPlaceHolder
  3
ObjectDBX Classes
 90
        0
280
     0
281
     0
  0
CLASS
  1
LAYOUT
  2
AcDbLayout
  3
ObjectDBX Classes
 90
        0
280
     0
281
     0
  0
ENDSEC
  0
SECTION
  2
TABLES
  0
TABLE
  2
VPORT
  5
8
330
0
100
AcDbSymbolTable
 70
     1
  0
VPORT
  5
29
330
8
100
AcDbSymbolTableRecord
100
AcDbViewportTableRecord
  2
*ACTIVE
 70
     0
 10
0.0
 20
0.0
 11
1.0
 21
1.0
 12
0.0
 22
0.0
 13
0.0
 23
0.0
 14
0.5
 24
0.5
 15
0.5
 25
0.5
 16
0.0
 26
0.0
 36
1.0
 17
104.951388862651
 27
148.5194444073146
 37
0.0
 40
297.0388888146292
 41
0.7066508313539193
 42
50.0
 43
0.0
 44
0.0
 50
0.0
 51
0.0
 71
     0
 72
   100
 73
     1
 74
     3
 75
     0
 76
     0
 77
     0
 78
     0
  0
ENDTAB
  0
TABLE
  2
LTYPE
  5
5
330
0
100
AcDbSymbolTable
 70
     1
  0
LTYPE
  5
14
330
5
100
AcDbSymbolTableRecord
100
AcDbLinetypeTableRecord
  2
BYBLOCK
 70
     0
  3

 72
    65
 73
     0
 40
0.0
  0
LTYPE
  5
15
330
5
100
AcDbSymbolTableRecord
100
AcDbLinetypeTableRecord
  2
BYLAYER
 70
     0
  3

 72
    65
 73
     0
 40
0.0
  0
LTYPE
  5
16
330
5
100
AcDbSymbolTableRecord
100
AcDbLinetypeTableRecord
  2
CONTINUOUS
 70
     0
  3
Solid line
 72
    65
 73
     0
 40
0.0
  0
ENDTAB
  0
TABLE
  2
LAYER
  5
2
330
0
100
AcDbSymbolTable
 70
     2
  0
LAYER
  5
10
330
2
100
AcDbSymbolTableRecord
100
AcDbLayerTableRecord
  2
0
 70
     0
 62
     7
  6
CONTINUOUS
  0
LAYER
  5
3B
330
2
100
AcDbSymbolTableRecord
100
AcDbLayerTableRecord
  2
LAYER_1
 70
     0
 62
     7
  6
CONTINUOUS
  0
ENDTAB
  0
TABLE
  2
STYLE
  5
3
330
0
100
AcDbSymbolTable
 70
     1
  0
STYLE
  5
11
330
3
100
AcDbSymbolTableRecord
100
AcDbTextStyleTableRecord
  2
STANDARD
 70
     0
 40
0.0
 41
1.0
 50
0.0
 71
     0
 42
0.2
  3
txt
  4

  0
ENDTAB
  0
TABLE
  2
VIEW
  5
6
330
0
100
AcDbSymbolTable
 70
     0
  0
ENDTAB
  0
TABLE
  2
UCS
  5
7
330
0
100
AcDbSymbolTable
 70
     0
  0
ENDTAB
  0
TABLE
  2
APPID
  5
9
330
0
100
AcDbSymbolTable
 70
     1
  0
APPID
  5
12
330
9
100
AcDbSymbolTableRecord
100
AcDbRegAppTableRecord
  2
ACAD
 70
     0
  0
ENDTAB
  0
TABLE
  2
DIMSTYLE
  5
A
330
0
100
AcDbSymbolTable
 70
     1
  0
DIMSTYLE
105
27
330
A
100
AcDbSymbolTableRecord
100
AcDbDimStyleTableRecord
  2
STANDARD
 70
     0
  3

  4

  5

  6

  7

 40
1.0
 41
0.18
 42
0.0625
 43
0.38
 44
0.18
 45
0.0
 46
0.0
 47
0.0
 48
0.0
140
0.18
141
0.09
142
0.0
143
25.4
144
1.0
145
0.0
146
1.0
147
0.09
 71
     0
 72
     0
 73
     1
 74
     1
 75
     0
 76
     0
 77
     0
 78
     0
170
     0
171
     2
172
     0
173
     0
174
     0
175
     0
176
     0
177
     0
178
     0
270
     2
271
     4
272
     4
273
     2
274
     2
340
11
275
     0
280
     0
281
     0
282
     0
283
     1
284
     0
285
     0
286
     0
287
     3
288
     0
  0
ENDTAB
  0
TABLE
  2
BLOCK_RECORD
  5
1
330
0
100
AcDbSymbolTable
 70
     2
  0
BLOCK_RECORD
  5
1F
330
1
100
AcDbSymbolTableRecord
100
AcDbBlockTableRecord
  2
*MODEL_SPACE
  0
BLOCK_RECORD
  5
1B
330
1
100
AcDbSymbolTableRecord
100
AcDbBlockTableRecord
  2
*PAPER_SPACE
  0
BLOCK_RECORD
  5
3C
330
1
100
AcDbSymbolTableRecord
100
AcDbBlockTableRecord
  2
BLOCK_2
  0
ENDTAB
  0
ENDSEC
  0
SECTION
  2
BLOCKS
  0
BLOCK
  5
20
330
1F
100
AcDbEntity
  8
0
100
AcDbBlockBegin
  2
*MODEL_SPACE
 70
     0
 71
     0
 10
0.0
 20
0.0
 30
0.0
  3
*MODEL_SPACE
  1

  0
ENDBLK
  5
21
330
1F
100
AcDbEntity
  8
0
100
AcDbBlockEnd
  0
BLOCK
  5
1C
330
1B
100
AcDbEntity
 67
     1
  8
0
100
AcDbBlockBegin
  2
*PAPER_SPACE
 70
     0
 71
     0
 10
0.0
 20
0.0
 30
0.0
  3
*PAPER_SPACE
  1

  0
ENDBLK
  5
1D
330
1B
100
AcDbEntity
 67
     1
  8
0
100
AcDbBlockEnd
  0
BLOCK
  5
3E
330
3C
100
AcDbEntity
  8
0
100
AcDbBlockBegin
  2
BLOCK_2
 70
     0
 71
     0
 10
0.0
 20
0.0
 30
0.0
  3
BLOCK_2
  1

  0
SPLINE
  5
40
330
3C
100
AcDbEntity
  8
LAYER_1
 62
     7
100
AcDbSpline
210
0.0
220
0.0
230
1.0
 70
    11
 71
     3
 72
    17
 73
    13
 74
     0
 42
0.0000000001
 43
0.0000000001
 40
0.0
 40
0.0
 40
0.0
 40
0.0
 40
1.0
 40
1.0
 40
1.0
 40
2.0
 40
2.0
 40
2.0
 40
3.0
 40
3.0
 40
3.0
 40
4.0
 40
4.0
 40
4.0
 40
4.0
 10
100.2877631042683
 20
18.6265977601003
 30
0.0
 10
100.2877631042683
 20
19.17677950909469
 30
0.0
 10
99.82198619466256
 20
19.60052625378043
 30
0.0
 10
99.31417912013674
 20
19.60052625378043
 30
0.0
 10
98.76365286159381
 20
19.60052625378043
 30
0.0
 10
98.34025062645661
 20
19.17677950909469
 30
0.0
 10
98.34025062645661
 20
18.6265977601003
 30
0.0
 10
98.34025062645661
 20
18.0764160111059
 30
0.0
 10
98.76365286159381
 20
17.61063910150012
 30
0.0
 10
99.31417912013674
 20
17.61063910150012
 30
0.0
 10
99.82198619466256
 20
17.61063910150012
 30
0.0
 10
100.2877631042683
 20
18.0764160111059
 30
0.0
 10
100.2877631042683
 20
18.6265977601003
 30
0.0
  0
POLYLINE
  5
41
330
3C
100
AcDbEntity
  8
LAYER_1
 62
     7
100
AcDb2dPolyline
 66
     1
 10
0.0
 20
0.0
 30
0.0
  0
VERTEX
  5
42
330
41
100
AcDbEntity
  8
LAYER_1
 62
     7
100
AcDbVertex
100
AcDb2dVertex
 10
100.2877631042683
 20
17.01808267803715
 30
0.0
  0
VERTEX
  5
43
330
41
100
AcDbEntity
  8
LAYER_1
 62
     7
100
AcDbVertex
100
AcDb2dVertex
 10
100.2877631042683
 20
17.0601128429572
 30
0.0
  0
VERTEX
  5
44
330
41
100
AcDbEntity
  8
LAYER_1
 62
     7
100
AcDbVertex
100
AcDb2dVertex
 10
98.34025062645661
 20
17.0601128429572
 30
0.0
  0
VERTEX
  5
45
330
41
100
AcDbEntity
  8
LAYER_1
 62
     7
100
AcDbVertex
100
AcDb2dVertex
 10
98.34025062645661
 20
15.07057020022541
 30
0.0
  0
VERTEX
  5
46
330
41
100
AcDbEntity
  8
LAYER_1
 62
     7
100
AcDbVertex
100
AcDb2dVertex
 10
98.38262530092518
 20
15.07057020022541
 30
0.0
  0
VERTEX
  5
47
330
41
100
AcDbEntity
  8
LAYER_1
 62
     7
100
AcDbVertex
100
AcDb2dVertex
 10
100.2877631042683
 20
15.07057020022541
 30
0.0
  0
VERTEX
  5
48
330
41
100
AcDbEntity
  8
LAYER_1
 62
     7
100
AcDbVertex
100
AcDb2dVertex
 10
100.2877631042683
 20
17.01808267803715
 30
0.0
  0
SEQEND
  5
49
330
41
100
AcDbEntity
  8
LAYER_1
  0
POLYLINE
  5
4A
330
3C
100
AcDbEntity
  8
LAYER_1
 62
     7
100
AcDb2dPolyline
 66
     1
 10
0.0
 20
0.0
 30
0.0
  0
VERTEX
  5
4B
330
4A
100
AcDbEntity
  8
LAYER_1
 62
     7
100
AcDbVertex
100
AcDb2dVertex
 10
50.88474933623715
 20
12.99627820855649
 30
0.0
  0
VERTEX
  5
4C
330
4A
100
AcDbEntity
  8
LAYER_1
 62
     7
100
AcDbVertex
100
AcDb2dVertex
 10
50.92712401070572
 20
12.99627820855649
 30
0.0
  0
VERTEX
  5
4D
330
4A
100
AcDbEntity
  8
LAYER_1
 62
     7
100
AcDbVertex
100
AcDb2dVertex
 10
53.84822047264906
 20
12.99627820855649
 30
0.0
  0
VERTEX
  5
4E
330
4A
100
AcDbEntity
  8
LAYER_1
 62
     7
100
AcDbVertex
100
AcDb2dVertex
 10
53.84822047264906
 20
15.91737467049982
 30
0.0
  0
VERTEX
  5
4F
330
4A
100
AcDbEntity
  8
LAYER_1
 62
     7
100
AcDbVertex
100
AcDb2dVertex
 10
53.84822047264906
 20
15.9597493449684
 30
0.0
  0
VERTEX
  5
50
330
4A
100
AcDbEntity
  8
LAYER_1
 62
     7
100
AcDbVertex
100
AcDb2dVertex
 10
50.88474933623715
 20
15.9597493449684
 30
0.0
  0
VERTEX
  5
51
330
4A
100
AcDbEntity
  8
LAYER_1
 62
     7
100
AcDbVertex
100
AcDb2dVertex
 10
50.88474933623715
 20
12.99627820855649
 30
0.0
  0
SEQEND
  5
52
330
4A
100
AcDbEntity
  8
LAYER_1
  0
SPLINE
  5
53
330
3C
100
AcDbEntity
  8
LAYER_1
 62
     7
100
AcDbSpline
210
0.0
220
0.0
230
1.0
 70
    11
 71
     3
 72
    17
 73
    13
 74
     0
 42
0.0000000001
 43
0.0000000001
 40
0.0
 40
0.0
 40
0.0
 40
0.0
 40
1.0
 40
1.0
 40
1.0
 40
2.0
 40
2.0
 40
2.0
 40
3.0
 40
3.0
 40
3.0
 40
4.0
 40
4.0
 40
4.0
 40
4.0
 10
52.36648490444311
 20
20.95513779858066
 30
0.0
 10
51.51968043416869
 20
20.95513779858066
 30
0.0
 10
50.88474933623715
 20
20.31986219110059
 30
0.0
 10
50.88474933623715
 20
19.47340223037471
 30
0.0
 10
50.88474933623715
 20
18.66897243456887
 30
0.0
 10
51.51968043416869
 20
17.99166666216875
 30
0.0
 10
52.36648490444311
 20
17.99166666216875
 30
0.0
 10
53.17074244547468
 20
17.99166666216875
 30
0.0
 10
53.84822047264906
 20
18.66897243456887
 30
0.0
 10
53.84822047264906
 20
19.47340223037471
 30
0.0
 10
53.84822047264906
 20
20.31986219110059
 30
0.0
 10
53.17074244547468
 20
20.95513779858066
 30
0.0
 10
52.36648490444311
 20
20.95513779858066
 30
0.0
  0
POLYLINE
  5
54
330
3C
100
AcDbEntity
  8
LAYER_1
 62
     7
100
AcDb2dPolyline
 66
     1
 10
0.0
 20
0.0
 30
0.0
  0
VERTEX
  5
55
330
54
100
AcDbEntity
  8
LAYER_1
 62
     7
100
AcDbVertex
100
AcDb2dVertex
 10
24.21471489194979
 20
21.88634710824369
 30
0.0
  0
VERTEX
  5
56
330
54
100
AcDbEntity
  8
LAYER_1
 62
     7
100
AcDbVertex
100
AcDb2dVertex
 10
24.25708956641837
 20
21.88634710824369
 30
0.0
  0
VERTEX
  5
57
330
54
100
AcDbEntity
  8
LAYER_1
 62
     7
100
AcDbVertex
100
AcDb2dVertex
 10
27.17801377358744
 20
21.88634710824369
 30
0.0
  0
VERTEX
  5
58
330
54
100
AcDbEntity
  8
LAYER_1
 62
     7
100
AcDbVertex
100
AcDb2dVertex
 10
27.17801377358744
 20
24.80744357018703
 30
0.0
  0
VERTEX
  5
59
330
54
100
AcDbEntity
  8
LAYER_1
 62
     7
100
AcDbVertex
100
AcDb2dVertex
 10
27.17801377358744
 20
24.84947373510708
 30
0.0
  0
VERTEX
  5
5A
330
54
100
AcDbEntity
  8
LAYER_1
 62
     7
100
AcDbVertex
100
AcDb2dVertex
 10
24.21471489194979
 20
24.84947373510708
 30
0.0
  0
VERTEX
  5
5B
330
54
100
AcDbEntity
  8
LAYER_1
 62
     7
100
AcDbVertex
100
AcDb2dVertex
 10
24.21471489194979
 20
21.88634710824369
 30
0.0
  0
SEQEND
  5
5C
330
54
100
AcDbEntity
  8
LAYER_1
  0
SPLINE
  5
5D
330
3C
100
AcDbEntity
  8
LAYER_1
 62
     7
100
AcDbSpline
210
0.0
220
0.0
230
1.0
 70
    11
 71
     3
 72
    17
 73
    13
 74
     0
 42
0.0000000001
 43
0.0000000001
 40
0.0
 40
0.0
 40
0.0
 40
0.0
 40
1.0
 40
1.0
 40
1.0
 40
2.0
 40
2.0
 40
2.0
 40
3.0
 40
3.0
 40
3.0
 40
4.0
 40
4.0
 40
4.0
 40
4.0
 10
20.70106200654348
 20
24.84947373510708
 30
0.0
 10
19.85442979104334
 20
24.84947373510708
 30
0.0
 10
19.21932643833753
 20
24.21488714672406
 30
0.0
 10
19.21932643833753
 20
23.36808267644965
 30
0.0
 10
19.21932643833753
 20
22.56365288064381
 30
0.0
 10
19.85442979104334
 20
21.88634710824369
 30
0.0
 10
20.70106200654348
 20
21.88634710824369
 30
0.0
 10
21.50531954757506
 20
21.88634710824369
 30
0.0
 10
22.18279757474944
 20
22.56365288064381
 30
0.0
 10
22.18279757474944
 20
23.36808267644965
 30
0.0
 10
22.18279757474944
 20
24.21488714672406
 30
0.0
 10
21.50531954757506
 20
24.84947373510708
 30
0.0
 10
20.70106200654348
 20
24.84947373510708
 30
0.0
  0
POLYLINE
  5
5E
330
3C
100
AcDbEntity
  8
LAYER_1
 62
     7
100
AcDb2dPolyline
 66
     1
 10
0.0
 20
0.0
 30
0.0
  0
VERTEX
  5
5F
330
5E
100
AcDbEntity
  8
LAYER_1
 62
     7
100
AcDbVertex
100
AcDb2dVertex
 10
24.21471489194979
 20
11.43013780096191
 30
0.0
  0
VERTEX
  5
60
330
5E
100
AcDbEntity
  8
LAYER_1
 62
     7
100
AcDbVertex
100
AcDb2dVertex
 10
24.25708956641837
 20
11.43013780096191
 30
0.0
  0
VERTEX
  5
61
330
5E
100
AcDbEntity
  8
LAYER_1
 62
     7
100
AcDbVertex
100
AcDb2dVertex
 10
27.17801377358744
 20
11.43013780096191
 30
0.0
  0
VERTEX
  5
62
330
5E
100
AcDbEntity
  8
LAYER_1
 62
     7
100
AcDbVertex
100
AcDb2dVertex
 10
27.17801377358744
 20
14.30885958843668
 30
0.0
  0
VERTEX
  5
63
330
5E
100
AcDbEntity
  8
LAYER_1
 62
     7
100
AcDbVertex
100
AcDb2dVertex
 10
27.17801377358744
 20
14.35088975335672
 30
0.0
  0
VERTEX
  5
64
330
5E
100
AcDbEntity
  8
LAYER_1
 62
     7
100
AcDbVertex
100
AcDb2dVertex
 10
24.21471489194979
 20
14.35088975335672
 30
0.0
  0
VERTEX
  5
65
330
5E
100
AcDbEntity
  8
LAYER_1
 62
     7
100
AcDbVertex
100
AcDb2dVertex
 10
24.21471489194979
 20
11.43013780096191
 30
0.0
  0
SEQEND
  5
66
330
5E
100
AcDbEntity
  8
LAYER_1
  0
SPLINE
  5
67
330
3C
100
AcDbEntity
  8
LAYER_1
 62
     7
100
AcDbSpline
210
0.0
220
0.0
230
1.0
 70
    11
 71
     3
 72
    17
 73
    13
 74
     0
 42
0.0000000001
 43
0.0000000001
 40
0.0
 40
0.0
 40
0.0
 40
0.0
 40
1.0
 40
1.0
 40
1.0
 40
2.0
 40
2.0
 40
2.0
 40
3.0
 40
3.0
 40
3.0
 40
4.0
 40
4.0
 40
4.0
 40
4.0
 10
20.70106200654348
 20
14.35088975335672
 30
0.0
 10
19.85442979104334
 20
14.35088975335672
 30
0.0
 10
19.21932643833753
 20
13.71595865542518
 30
0.0
 10
19.21932643833753
 20
12.91152885961934
 30
0.0
 10
19.21932643833753
 20
12.10744357336203
 30
0.0
 10
19.85442979104334
 20
11.43013780096191
 30
0.0
 10
20.70106200654348
 20
11.43013780096191
 30
0.0
 10
21.50531954757506
 20
11.43013780096191
 30
0.0
 10
22.18279757474944
 20
12.10744357336203
 30
0.0
 10
22.18279757474944
 20
12.91152885961934
 30
0.0
 10
22.18279757474944
 20
13.71595865542518
 30
0.0
 10
21.50531954757506
 20
14.35088975335672
 30
0.0
 10
20.70106200654348
 20
14.35088975335672
 30
0.0
  0
SPLINE
  5
68
330
3C
100
AcDbEntity
  8
LAYER_1
 62
     7
100
AcDbSpline
210
0.0
220
0.0
230
1.0
 70
    11
 71
     3
 72
    17
 73
    13
 74
     0
 42
0.0000000001
 43
0.0000000001
 40
0.0
 40
0.0
 40
0.0
 40
0.0
 40
1.0
 40
1.0
 40
1.0
 40
2.0
 40
2.0
 40
2.0
 40
3.0
 40
3.0
 40
3.0
 40
4.0
 40
4.0
 40
4.0
 40
4.0
 10
105.9604573302807
 20
32.85070799959983
 30
0.0
 10
106.7648871260866
 20
32.85070799959983
 30
0.0
 10
107.4421928984867
 20
33.52801377199994
 30
0.0
 10
107.4421928984867
 20
34.33244356780578
 30
0.0
 10
107.4421928984867
 20
35.13652885406309
 30
0.0
 10
106.7648871260866
 20
35.77180446154316
 30
0.0
 10
105.9604573302807
 20
35.77180446154316
 30
0.0
 10
105.1560275344749
 20
35.77180446154316
 30
0.0
 10
104.5210964365433
 20
35.13652885406309
 30
0.0
 10
104.5210964365433
 20
34.33244356780578
 30
0.0
 10
104.5210964365433
 20
33.52801377199994
 30
0.0
 10
105.1560275344749
 20
32.85070799959983
 30
0.0
 10
105.9604573302807
 20
32.85070799959983
 30
0.0
  0
SPLINE
  5
69
330
3C
100
AcDbEntity
  8
LAYER_1
 62
     7
100
AcDbSpline
210
0.0
220
0.0
230
1.0
 70
    11
 71
     3
 72
    17
 73
    13
 74
     0
 42
0.0000000001
 43
0.0000000001
 40
0.0
 40
0.0
 40
0.0
 40
0.0
 40
1.0
 40
1.0
 40
1.0
 40
2.0
 40
2.0
 40
2.0
 40
3.0
 40
3.0
 40
3.0
 40
4.0
 40
4.0
 40
4.0
 40
4.0
 10
105.9604573302807
 20
5.334041339812323
 30
0.0
 10
105.1560275344749
 20
5.334041339812323
 30
0.0
 10
104.5210964365433
 20
4.699110241880779
 30
0.0
 10
104.5210964365433
 20
3.852305771606368
 30
0.0
 10
104.5210964365433
 20
3.048220485349056
 30
0.0
 10
105.1560275344749
 20
2.370570203400413
 30
0.0
 10
105.9604573302807
 20
2.370570203400413
 30
0.0
 10
106.7648871260866
 20
2.370570203400413
 30
0.0
 10
107.4421928984867
 20
3.048220485349056
 30
0.0
 10
107.4421928984867
 20
3.852305771606368
 30
0.0
 10
107.4421928984867
 20
4.699110241880779
 30
0.0
 10
106.7648871260866
 20
5.334041339812323
 30
0.0
 10
105.9604573302807
 20
5.334041339812323
 30
0.0
  0
SPLINE
  5
6A
330
3C
100
AcDbEntity
  8
LAYER_1
 62
     7
100
AcDbSpline
210
0.0
220
0.0
230
1.0
 70
    11
 71
     3
 72
    17
 73
    13
 74
     0
 42
0.0000000001
 43
0.0000000001
 40
0.0
 40
0.0
 40
0.0
 40
0.0
 40
1.0
 40
1.0
 40
1.0
 40
2.0
 40
2.0
 40
2.0
 40
3.0
 40
3.0
 40
3.0
 40
4.0
 40
4.0
 40
4.0
 40
4.0
 10
4.445034449843603
 20
35.77180446154316
 30
0.0
 10
3.598402234343455
 20
35.77180446154316
 30
0.0
 10
2.96347113641191
 20
35.13652885406309
 30
0.0
 10
2.96347113641191
 20
34.33244356780578
 30
0.0
 10
2.96347113641191
 20
33.52801377199994
 30
0.0
 10
3.598402234343455
 20
32.85070799959983
 30
0.0
 10
4.445034449843603
 20
32.85070799959983
 30
0.0
 10
5.24946424564944
 20
32.85070799959983
 30
0.0
 10
5.926770018049558
 20
33.52801377199994
 30
0.0
 10
5.926770018049558
 20
34.33244356780578
 30
0.0
 10
5.926770018049558
 20
35.13652885406309
 30
0.0
 10
5.24946424564944
 20
35.77180446154316
 30
0.0
 10
4.445034449843603
 20
35.77180446154316
 30
0.0
  0
SPLINE
  5
6B
330
3C
100
AcDbEntity
  8
LAYER_1
 62
     7
100
AcDbSpline
210
0.0
220
0.0
230
1.0
 70
    11
 71
     3
 72
    17
 73
    13
 74
     0
 42
0.0000000001
 43
0.0000000001
 40
0.0
 40
0.0
 40
0.0
 40
0.0
 40
1.0
 40
1.0
 40
1.0
 40
2.0
 40
2.0
 40
2.0
 40
3.0
 40
3.0
 40
3.0
 40
4.0
 40
4.0
 40
4.0
 40
4.0
 10
4.445034449843603
 20
5.334041339812323
 30
0.0
 10
3.598402234343455
 20
5.334041339812323
 30
0.0
 10
2.96347113641191
 20
4.699110241880779
 30
0.0
 10
2.96347113641191
 20
3.852305771606368
 30
0.0
 10
2.96347113641191
 20
3.048220485349056
 30
0.0
 10
3.598402234343455
 20
2.370570203400413
 30
0.0
 10
4.445034449843603
 20
2.370570203400413
 30
0.0
 10
5.24946424564944
 20
2.370570203400413
 30
0.0
 10
5.926770018049558
 20
3.048220485349056
 30
0.0
 10
5.926770018049558
 20
3.852305771606368
 30
0.0
 10
5.926770018049558
 20
4.699110241880779
 30
0.0
 10
5.24946424564944
 20
5.334041339812323
 30
0.0
 10
4.445034449843603
 20
5.334041339812323
 30
0.0
  0
SPLINE
  5
6C
330
3C
100
AcDbEntity
  8
LAYER_1
 62
     7
100
AcDbSpline
210
0.0
220
0.0
230
1.0
 70
    11
 71
     3
 72
    17
 73
    13
 74
     0
 42
0.0000000001
 43
0.0000000001
 40
0.0
 40
0.0
 40
0.0
 40
0.0
 40
1.0
 40
1.0
 40
1.0
 40
2.0
 40
2.0
 40
2.0
 40
3.0
 40
3.0
 40
3.0
 40
4.0
 40
4.0
 40
4.0
 40
4.0
 10
100.8803195277313
 20
27.43191731085036
 30
0.0
 10
99.52570798293108
 20
27.43191731085036
 30
0.0
 10
98.42499997539376
 20
26.33155381286156
 30
0.0
 10
98.42499997539376
 20
24.9765977585128
 30
0.0
 10
98.42499997539376
 20
23.62198621371256
 30
0.0
 10
99.52570798293108
 20
22.47890353170666
 30
0.0
 10
100.8803195277313
 20
22.47890353170666
 30
0.0
 10
102.2349310725316
 20
22.47890353170666
 30
0.0
 10
103.3780137545374
 20
23.62198621371256
 30
0.0
 10
103.3780137545374
 20
24.9765977585128
 30
0.0
 10
103.3780137545374
 20
26.33155381286156
 30
0.0
 10
102.2349310725316
 20
27.43191731085036
 30
0.0
 10
100.8803195277313
 20
27.43191731085036
 30
0.0
  0
SPLINE
  5
6D
330
3C
100
AcDbEntity
  8
LAYER_1
 62
     7
100
AcDbSpline
210
0.0
220
0.0
230
1.0
 70
    11
 71
     3
 72
    17
 73
    13
 74
     0
 42
0.0000000001
 43
0.0000000001
 40
0.0
 40
0.0
 40
0.0
 40
0.0
 40
1.0
 40
1.0
 40
1.0
 40
2.0
 40
2.0
 40
2.0
 40
3.0
 40
3.0
 40
3.0
 40
4.0
 40
4.0
 40
4.0
 40
4.0
 10
100.8803195277313
 20
12.19219292229917
 30
0.0
 10
99.52570798293108
 20
12.19219292229917
 30
0.0
 10
98.42499997539376
 20
11.09114040521333
 30
0.0
 10
98.42499997539376
 20
9.73652886041309
 30
0.0
 10
98.42499997539376
 20
8.381917315612855
 30
0.0
 10
99.52570798293108
 20
7.238834633606959
 30
0.0
 10
100.8803195277313
 20
7.238834633606959
 30
0.0
 10
102.2349310725316
 20
7.238834633606959
 30
0.0
 10
103.3780137545374
 20
8.381917315612855
 30
0.0
 10
103.3780137545374
 20
9.73652886041309
 30
0.0
 10
103.3780137545374
 20
11.09114040521333
 30
0.0
 10
102.2349310725316
 20
12.19219292229917
 30
0.0
 10
100.8803195277313
 20
12.19219292229917
 30
0.0
  0
SPLINE
  5
6E
330
3C
100
AcDbEntity
  8
LAYER_1
 62
     7
100
AcDbSpline
210
0.0
220
0.0
230
1.0
 70
    11
 71
     3
 72
    17
 73
    13
 74
     0
 42
0.0000000001
 43
0.0000000001
 40
0.0
 40
0.0
 40
0.0
 40
0.0
 40
1.0
 40
1.0
 40
1.0
 40
2.0
 40
2.0
 40
2.0
 40
3.0
 40
3.0
 40
3.0
 40
4.0
 40
4.0
 40
4.0
 40
4.0
 10
10.28705511895602
 20
28.36347113006191
 30
0.0
 10
8.932443574155778
 20
28.36347113006191
 30
0.0
 10
7.831735566618455
 20
27.26241861297606
 30
0.0
 10
7.831735566618455
 20
25.90780706817583
 30
0.0
 10
7.831735566618455
 20
24.55319552337559
 30
0.0
 10
8.932443574155778
 20
23.4101128413697
 30
0.0
 10
10.28705511895602
 20
23.4101128413697
 30
0.0
 10
11.64166666375625
 20
23.4101128413697
 30
0.0
 10
12.78474934576215
 20
24.55319552337559
 30
0.0
 10
12.78474934576215
 20
25.90780706817583
 30
0.0
 10
12.78474934576215
 20
27.26241861297606
 30
0.0
 10
11.64166666375625
 20
28.36347113006191
 30
0.0
 10
10.28705511895602
 20
28.36347113006191
 30
0.0
  0
SPLINE
  5
6F
330
3C
100
AcDbEntity
  8
LAYER_1
 62
     7
100
AcDbSpline
210
0.0
220
0.0
230
1.0
 70
    11
 71
     3
 72
    17
 73
    13
 74
     0
 42
0.0000000001
 43
0.0000000001
 40
0.0
 40
0.0
 40
0.0
 40
0.0
 40
1.0
 40
1.0
 40
1.0
 40
2.0
 40
2.0
 40
2.0
 40
3.0
 40
3.0
 40
3.0
 40
4.0
 40
4.0
 40
4.0
 40
4.0
 10
10.28705511895602
 20
20.78563910070637
 30
0.0
 10
8.932443574155778
 20
20.78563910070637
 30
0.0
 10
7.831735566618455
 20
19.68493109316904
 30
0.0
 10
7.831735566618455
 20
18.28794487390024
 30
0.0
 10
7.831735566618455
 20
16.9333333291
 30
0.0
 10
8.932443574155778
 20
15.7902506470941
 30
0.0
 10
10.28705511895602
 20
15.7902506470941
 30
0.0
 10
11.64166666375625
 20
15.7902506470941
 30
0.0
 10
12.78474934576215
 20
16.9333333291
 30
0.0
 10
12.78474934576215
 20
18.28794487390024
 30
0.0
 10
12.78474934576215
 20
19.68493109316904
 30
0.0
 10
11.64166666375625
 20
20.78563910070637
 30
0.0
 10
10.28705511895602
 20
20.78563910070637
 30
0.0
  0
SPLINE
  5
70
330
3C
100
AcDbEntity
  8
LAYER_1
 62
     7
100
AcDbSpline
210
0.0
220
0.0
230
1.0
 70
    11
 71
     3
 72
    17
 73
    13
 74
     0
 42
0.0000000001
 43
0.0000000001
 40
0.0
 40
0.0
 40
0.0
 40
0.0
 40
1.0
 40
1.0
 40
1.0
 40
2.0
 40
2.0
 40
2.0
 40
3.0
 40
3.0
 40
3.0
 40
4.0
 40
4.0
 40
4.0
 40
4.0
 10
10.28705511895602
 20
13.16577690643078
 30
0.0
 10
8.932443574155778
 20
13.16577690643078
 30
0.0
 10
7.831735566618455
 20
12.06506889889346
 30
0.0
 10
7.831735566618455
 20
10.71011284454469
 30
0.0
 10
7.831735566618455
 20
9.355501299744459
 30
0.0
 10
8.932443574155778
 20
8.212418617738562
 30
0.0
 10
10.28705511895602
 20
8.212418617738562
 30
0.0
 10
11.64166666375625
 20
8.212418617738562
 30
0.0
 10
12.78474934576215
 20
9.355501299744459
 30
0.0
 10
12.78474934576215
 20
10.71011284454469
 30
0.0
 10
12.78474934576215
 20
12.06506889889346
 30
0.0
 10
11.64166666375625
 20
13.16577690643078
 30
0.0
 10
10.28705511895602
 20
13.16577690643078
 30
0.0
  0
SPLINE
  5
71
330
3C
100
AcDbEntity
  8
LAYER_1
 62
     7
100
AcDbSpline
210
0.0
220
0.0
230
1.0
 70
    11
 71
     3
 72
    17
 73
    13
 74
     0
 42
0.0000000001
 43
0.0000000001
 40
0.0
 40
0.0
 40
0.0
 40
0.0
 40
1.0
 40
1.0
 40
1.0
 40
2.0
 40
2.0
 40
2.0
 40
3.0
 40
3.0
 40
3.0
 40
4.0
 40
4.0
 40
4.0
 40
4.0
 10
48.04840222323096
 20
24.68031954678131
 30
0.0
 10
47.4980482194623
 20
24.68031954678131
 30
0.0
 10
47.07481823909935
 20
24.25691731164411
 30
0.0
 10
47.07481823909935
 20
23.7067355626497
 30
0.0
 10
47.07481823909935
 20
23.15655381365531
 30
0.0
 10
47.4980482194623
 20
22.69077690404953
 30
0.0
 10
48.04840222323096
 20
22.69077690404953
 30
0.0
 10
48.59875622699962
 20
22.69077690404953
 30
0.0
 10
49.06436088183113
 20
23.15655381365531
 30
0.0
 10
49.06436088183113
 20
23.7067355626497
 30
0.0
 10
49.06436088183113
 20
24.25691731164411
 30
0.0
 10
48.59875622699962
 20
24.68031954678131
 30
0.0
 10
48.04840222323096
 20
24.68031954678131
 30
0.0
  0
SPLINE
  5
72
330
3C
100
AcDbEntity
  8
LAYER_1
 62
     7
100
AcDbSpline
210
0.0
220
0.0
230
1.0
 70
    11
 71
     3
 72
    17
 73
    13
 74
     0
 42
0.0000000001
 43
0.0000000001
 40
0.0
 40
0.0
 40
0.0
 40
0.0
 40
1.0
 40
1.0
 40
1.0
 40
2.0
 40
2.0
 40
2.0
 40
3.0
 40
3.0
 40
3.0
 40
4.0
 40
4.0
 40
4.0
 40
4.0
 10
56.00691730370661
 20
24.51116535845554
 30
0.0
 10
55.45673555471221
 20
24.51116535845554
 30
0.0
 10
55.033333319575
 20
24.08741861376981
 30
0.0
 10
55.033333319575
 20
23.53723686477542
 30
0.0
 10
55.033333319575
 20
23.02908528070106
 30
0.0
 10
55.45673555471221
 20
22.56365288064381
 30
0.0
 10
56.00691730370661
 20
22.56365288064381
 30
0.0
 10
56.51506888778096
 20
22.56365288064381
 30
0.0
 10
56.98084579738673
 20
23.02908528070106
 30
0.0
 10
56.98084579738673
 20
23.53723686477542
 30
0.0
 10
56.98084579738673
 20
24.08741861376981
 30
0.0
 10
56.51506888778096
 20
24.51116535845554
 30
0.0
 10
56.00691730370661
 20
24.51116535845554
 30
0.0
  0
SPLINE
  5
73
330
3C
100
AcDbEntity
  8
LAYER_1
 62
     7
100
AcDbSpline
210
0.0
220
0.0
230
1.0
 70
    11
 71
     3
 72
    17
 73
    13
 74
     0
 42
0.0000000001
 43
0.0000000001
 40
0.0
 40
0.0
 40
0.0
 40
0.0
 40
1.0
 40
1.0
 40
1.0
 40
2.0
 40
2.0
 40
2.0
 40
3.0
 40
3.0
 40
3.0
 40
4.0
 40
4.0
 40
4.0
 40
4.0
 10
30.64946423929944
 20
31.15744356859953
 30
0.0
 10
30.64946423929944
 20
31.70762531759393
 30
0.0
 10
30.18368732969366
 20
32.13102755273113
 30
0.0
 10
29.67570800039357
 20
32.13102755273113
 30
0.0
 10
29.12535399662491
 20
32.13102755273113
 30
0.0
 10
28.70212401626197
 20
31.70762531759393
 30
0.0
 10
28.70212401626197
 20
31.15744356859953
 30
0.0
 10
28.70212401626197
 20
30.60691731005661
 30
0.0
 10
29.12535399662491
 20
30.14114040045083
 30
0.0
 10
29.67570800039357
 20
30.14114040045083
 30
0.0
 10
30.18368732969366
 20
30.14114040045083
 30
0.0
 10
30.64946423929944
 20
30.60691731005661
 30
0.0
 10
30.64946423929944
 20
31.15744356859953
 30
0.0
  0
SPLINE
  5
74
330
3C
100
AcDbEntity
  8
LAYER_1
 62
     7
100
AcDbSpline
210
0.0
220
0.0
230
1.0
 70
    11
 71
     3
 72
    17
 73
    13
 74
     0
 42
0.0000000001
 43
0.0000000001
 40
0.0
 40
0.0
 40
0.0
 40
0.0
 40
1.0
 40
1.0
 40
1.0
 40
2.0
 40
2.0
 40
2.0
 40
3.0
 40
3.0
 40
3.0
 40
4.0
 40
4.0
 40
4.0
 40
4.0
 10
40.80939533484974
 20
31.15744356859953
 30
0.0
 10
40.80939533484974
 20
31.70762531759393
 30
0.0
 10
40.34379068001822
 20
32.13102755273113
 30
0.0
 10
39.83563909594387
 20
32.13102755273113
 30
0.0
 10
39.28545734694947
 20
32.13102755273113
 30
0.0
 10
38.86205511181227
 20
31.70762531759393
 30
0.0
 10
38.86205511181227
 20
31.15744356859953
 30
0.0
 10
38.86205511181227
 20
30.60691731005661
 30
0.0
 10
39.28545734694947
 20
30.14114040045083
 30
0.0
 10
39.83563909594387
 20
30.14114040045083
 30
0.0
 10
40.34379068001822
 20
30.14114040045083
 30
0.0
 10
40.80939533484974
 20
30.60691731005661
 30
0.0
 10
40.80939533484974
 20
31.15744356859953
 30
0.0
  0
SPLINE
  5
75
330
3C
100
AcDbEntity
  8
LAYER_1
 62
     7
100
AcDbSpline
210
0.0
220
0.0
230
1.0
 70
    11
 71
     3
 72
    17
 73
    13
 74
     0
 42
0.0000000001
 43
0.0000000001
 40
0.0
 40
0.0
 40
0.0
 40
0.0
 40
1.0
 40
1.0
 40
1.0
 40
2.0
 40
2.0
 40
2.0
 40
3.0
 40
3.0
 40
3.0
 40
4.0
 40
4.0
 40
4.0
 40
4.0
 10
95.03847111339316
 20
8.890068899687206
 30
0.0
 10
94.31879066652448
 20
8.890068899687206
 30
0.0
 10
93.81063908245012
 20
8.339887150692807
 30
0.0
 10
93.81063908245012
 20
7.662236868744164
 30
0.0
 10
93.81063908245012
 20
6.984931096344045
 30
0.0
 10
94.31879066652448
 20
6.434749347349646
 30
0.0
 10
95.03847111339316
 20
6.434749347349646
 30
0.0
 10
95.71577688579329
 20
6.434749347349646
 30
0.0
 10
96.26595863478768
 20
6.984931096344045
 30
0.0
 10
96.26595863478768
 20
7.662236868744164
 30
0.0
 10
96.26595863478768
 20
8.339887150692807
 30
0.0
 10
95.71577688579329
 20
8.890068899687206
 30
0.0
 10
95.03847111339316
 20
8.890068899687206
 30
0.0
  0
SPLINE
  5
76
330
3C
100
AcDbEntity
  8
LAYER_1
 62
     7
100
AcDbSpline
210
0.0
220
0.0
230
1.0
 70
    11
 71
     3
 72
    17
 73
    13
 74
     0
 42
0.0000000001
 43
0.0000000001
 40
0.0
 40
0.0
 40
0.0
 40
0.0
 40
1.0
 40
1.0
 40
1.0
 40
2.0
 40
2.0
 40
2.0
 40
3.0
 40
3.0
 40
3.0
 40
4.0
 40
4.0
 40
4.0
 40
4.0
 10
82.33847111656816
 20
8.890068899687206
 30
0.0
 10
81.61879066969948
 20
8.890068899687206
 30
0.0
 10
81.11063908562512
 20
8.339887150692807
 30
0.0
 10
81.11063908562512
 20
7.662236868744164
 30
0.0
 10
81.11063908562512
 20
6.984931096344045
 30
0.0
 10
81.61879066969948
 20
6.434749347349646
 30
0.0
 10
82.33847111656816
 20
6.434749347349646
 30
0.0
 10
83.01577688896828
 20
6.434749347349646
 30
0.0
 10
83.56595863796268
 20
6.984931096344045
 30
0.0
 10
83.56595863796268
 20
7.662236868744164
 30
0.0
 10
83.56595863796268
 20
8.339887150692807
 30
0.0
 10
83.01577688896828
 20
8.890068899687206
 30
0.0
 10
82.33847111656816
 20
8.890068899687206
 30
0.0
  0
SPLINE
  5
77
330
3C
100
AcDbEntity
  8
LAYER_1
 62
     7
100
AcDbSpline
210
0.0
220
0.0
230
1.0
 70
    11
 71
     3
 72
    17
 73
    13
 74
     0
 42
0.0000000001
 43
0.0000000001
 40
0.0
 40
0.0
 40
0.0
 40
0.0
 40
1.0
 40
1.0
 40
1.0
 40
2.0
 40
2.0
 40
2.0
 40
3.0
 40
3.0
 40
3.0
 40
4.0
 40
4.0
 40
4.0
 40
4.0
 10
79.16347111736191
 20
8.890068899687206
 30
0.0
 10
78.44379067049323
 20
8.890068899687206
 30
0.0
 10
77.93563908641887
 20
8.339887150692807
 30
0.0
 10
77.93563908641887
 20
7.662236868744164
 30
0.0
 10
77.93563908641887
 20
6.984931096344045
 30
0.0
 10
78.44379067049323
 20
6.434749347349646
 30
0.0
 10
79.16347111736191
 20
6.434749347349646
 30
0.0
 10
79.84077688976203
 20
6.434749347349646
 30
0.0
 10
80.39095863875643
 20
6.984931096344045
 30
0.0
 10
80.39095863875643
 20
7.662236868744164
 30
0.0
 10
80.39095863875643
 20
8.339887150692807
 30
0.0
 10
79.84077688976203
 20
8.890068899687206
 30
0.0
 10
79.16347111736191
 20
8.890068899687206
 30
0.0
  0
SPLINE
  5
78
330
3C
100
AcDbEntity
  8
LAYER_1
 62
     7
100
AcDbSpline
210
0.0
220
0.0
230
1.0
 70
    11
 71
     3
 72
    17
 73
    13
 74
     0
 42
0.0000000001
 43
0.0000000001
 40
0.0
 40
0.0
 40
0.0
 40
0.0
 40
1.0
 40
1.0
 40
1.0
 40
2.0
 40
2.0
 40
2.0
 40
3.0
 40
3.0
 40
3.0
 40
4.0
 40
4.0
 40
4.0
 40
4.0
 10
75.98847111815566
 20
8.890068899687206
 30
0.0
 10
75.26879067128698
 20
8.890068899687206
 30
0.0
 10
74.76063908721262
 20
8.339887150692807
 30
0.0
 10
74.76063908721262
 20
7.662236868744164
 30
0.0
 10
74.76063908721262
 20
6.984931096344045
 30
0.0
 10
75.26879067128698
 20
6.434749347349646
 30
0.0
 10
75.98847111815566
 20
6.434749347349646
 30
0.0
 10
76.66577689055578
 20
6.434749347349646
 30
0.0
 10
77.21595863955018
 20
6.984931096344045
 30
0.0
 10
77.21595863955018
 20
7.662236868744164
 30
0.0
 10
77.21595863955018
 20
8.339887150692807
 30
0.0
 10
76.66577689055578
 20
8.890068899687206
 30
0.0
 10
75.98847111815566
 20
8.890068899687206
 30
0.0
  0
SPLINE
  5
79
330
3C
100
AcDbEntity
  8
LAYER_1
 62
     7
100
AcDbSpline
210
0.0
220
0.0
230
1.0
 70
    11
 71
     3
 72
    17
 73
    13
 74
     0
 42
0.0000000001
 43
0.0000000001
 40
0.0
 40
0.0
 40
0.0
 40
0.0
 40
1.0
 40
1.0
 40
1.0
 40
2.0
 40
2.0
 40
2.0
 40
3.0
 40
3.0
 40
3.0
 40
4.0
 40
4.0
 40
4.0
 40
4.0
 10
60.11347112212442
 20
8.890068899687206
 30
0.0
 10
59.39379067525572
 20
8.890068899687206
 30
0.0
 10
58.88563909118137
 20
8.339887150692807
 30
0.0
 10
58.88563909118137
 20
7.662236868744164
 30
0.0
 10
58.88563909118137
 20
6.984931096344045
 30
0.0
 10
59.39379067525572
 20
6.434749347349646
 30
0.0
 10
60.11347112212442
 20
6.434749347349646
 30
0.0
 10
60.79077689452453
 20
6.434749347349646
 30
0.0
 10
61.34095864351893
 20
6.984931096344045
 30
0.0
 10
61.34095864351893
 20
7.662236868744164
 30
0.0
 10
61.34095864351893
 20
8.339887150692807
 30
0.0
 10
60.79077689452453
 20
8.890068899687206
 30
0.0
 10
60.11347112212442
 20
8.890068899687206
 30
0.0
  0
SPLINE
  5
7A
330
3C
100
AcDbEntity
  8
LAYER_1
 62
     7
100
AcDbSpline
210
0.0
220
0.0
230
1.0
 70
    11
 71
     3
 72
    17
 73
    13
 74
     0
 42
0.0000000001
 43
0.0000000001
 40
0.0
 40
0.0
 40
0.0
 40
0.0
 40
1.0
 40
1.0
 40
1.0
 40
2.0
 40
2.0
 40
2.0
 40
3.0
 40
3.0
 40
3.0
 40
4.0
 40
4.0
 40
4.0
 40
4.0
 10
95.03847111339316
 20
27.94006889492471
 30
0.0
 10
94.31879066652448
 20
27.94006889492471
 30
0.0
 10
93.81063908245012
 20
27.38988714593031
 30
0.0
 10
93.81063908245012
 20
26.71223686398167
 30
0.0
 10
93.81063908245012
 20
26.03493109158155
 30
0.0
 10
94.31879066652448
 20
25.48474934258715
 30
0.0
 10
95.03847111339316
 20
25.48474934258715
 30
0.0
 10
95.71577688579329
 20
25.48474934258715
 30
0.0
 10
96.26595863478768
 20
26.03493109158155
 30
0.0
 10
96.26595863478768
 20
26.71223686398167
 30
0.0
 10
96.26595863478768
 20
27.38988714593031
 30
0.0
 10
95.71577688579329
 20
27.94006889492471
 30
0.0
 10
95.03847111339316
 20
27.94006889492471
 30
0.0
  0
SPLINE
  5
7B
330
3C
100
AcDbEntity
  8
LAYER_1
 62
     7
100
AcDbSpline
210
0.0
220
0.0
230
1.0
 70
    11
 71
     3
 72
    17
 73
    13
 74
     0
 42
0.0000000001
 43
0.0000000001
 40
0.0
 40
0.0
 40
0.0
 40
0.0
 40
1.0
 40
1.0
 40
1.0
 40
2.0
 40
2.0
 40
2.0
 40
3.0
 40
3.0
 40
3.0
 40
4.0
 40
4.0
 40
4.0
 40
4.0
 10
60.11347112212442
 20
27.94006889492471
 30
0.0
 10
59.39379067525572
 20
27.94006889492471
 30
0.0
 10
58.88563909118137
 20
27.38988714593031
 30
0.0
 10
58.88563909118137
 20
26.71223686398167
 30
0.0
 10
58.88563909118137
 20
26.03493109158155
 30
0.0
 10
59.39379067525572
 20
25.48474934258715
 30
0.0
 10
60.11347112212442
 20
25.48474934258715
 30
0.0
 10
60.79077689452453
 20
25.48474934258715
 30
0.0
 10
61.34095864351893
 20
26.03493109158155
 30
0.0
 10
61.34095864351893
 20
26.71223686398167
 30
0.0
 10
61.34095864351893
 20
27.38988714593031
 30
0.0
 10
60.79077689452453
 20
27.94006889492471
 30
0.0
 10
60.11347112212442
 20
27.94006889492471
 30
0.0
  0
SPLINE
  5
7C
330
3C
100
AcDbEntity
  8
LAYER_1
 62
     7
100
AcDbSpline
210
0.0
220
0.0
230
1.0
 70
    11
 71
     3
 72
    17
 73
    13
 74
     0
 42
0.0000000001
 43
0.0000000001
 40
0.0
 40
0.0
 40
0.0
 40
0.0
 40
1.0
 40
1.0
 40
1.0
 40
2.0
 40
2.0
 40
2.0
 40
3.0
 40
3.0
 40
3.0
 40
4.0
 40
4.0
 40
4.0
 40
4.0
 10
31.41134710586244
 20
9.355501299744459
 30
0.0
 10
30.69166665899375
 20
9.355501299744459
 30
0.0
 10
30.18368732969366
 20
8.80531955075006
 30
0.0
 10
30.18368732969366
 20
8.128013778349942
 30
0.0
 10
30.18368732969366
 20
7.450708005949823
 30
0.0
 10
30.69166665899375
 20
6.900526256955424
 30
0.0
 10
31.41134710586244
 20
6.900526256955424
 30
0.0
 10
32.08865287826256
 20
6.900526256955424
 30
0.0
 10
32.63900688203123
 20
7.450708005949823
 30
0.0
 10
32.63900688203123
 20
8.128013778349942
 30
0.0
 10
32.63900688203123
 20
8.80531955075006
 30
0.0
 10
32.08865287826256
 20
9.355501299744459
 30
0.0
 10
31.41134710586244
 20
9.355501299744459
 30
0.0
  0
SPLINE
  5
7D
330
3C
100
AcDbEntity
  8
LAYER_1
 62
     7
100
AcDbSpline
210
0.0
220
0.0
230
1.0
 70
    11
 71
     3
 72
    17
 73
    13
 74
     0
 42
0.0000000001
 43
0.0000000001
 40
0.0
 40
0.0
 40
0.0
 40
0.0
 40
1.0
 40
1.0
 40
1.0
 40
2.0
 40
2.0
 40
2.0
 40
3.0
 40
3.0
 40
3.0
 40
4.0
 40
4.0
 40
4.0
 40
4.0
 10
31.41134710586244
 20
12.53050129895071
 30
0.0
 10
30.69166665899375
 20
12.53050129895071
 30
0.0
 10
30.18368732969366
 20
11.98031954995631
 30
0.0
 10
30.18368732969366
 20
11.30301377755619
 30
0.0
 10
30.18368732969366
 20
10.62570800515607
 30
0.0
 10
30.69166665899375
 20
10.07552625616167
 30
0.0
 10
31.41134710586244
 20
10.07552625616167
 30
0.0
 10
32.08865287826256
 20
10.07552625616167
 30
0.0
 10
32.63900688203123
 20
10.62570800515607
 30
0.0
 10
32.63900688203123
 20
11.30301377755619
 30
0.0
 10
32.63900688203123
 20
11.98031954995631
 30
0.0
 10
32.08865287826256
 20
12.53050129895071
 30
0.0
 10
31.41134710586244
 20
12.53050129895071
 30
0.0
  0
SPLINE
  5
7E
330
3C
100
AcDbEntity
  8
LAYER_1
 62
     7
100
AcDbSpline
210
0.0
220
0.0
230
1.0
 70
    11
 71
     3
 72
    17
 73
    13
 74
     0
 42
0.0000000001
 43
0.0000000001
 40
0.0
 40
0.0
 40
0.0
 40
0.0
 40
1.0
 40
1.0
 40
1.0
 40
2.0
 40
2.0
 40
2.0
 40
3.0
 40
3.0
 40
3.0
 40
4.0
 40
4.0
 40
4.0
 40
4.0
 10
44.06897242821887
 20
9.355501299744459
 30
0.0
 10
43.34946423612444
 20
9.355501299744459
 30
0.0
 10
42.84148490682436
 20
8.80531955075006
 30
0.0
 10
42.84148490682436
 20
8.128013778349942
 30
0.0
 10
42.84148490682436
 20
7.450708005949823
 30
0.0
 10
43.34946423612444
 20
6.900526256955424
 30
0.0
 10
44.06897242821887
 20
6.900526256955424
 30
0.0
 10
44.74645045539325
 20
6.900526256955424
 30
0.0
 10
45.29680445916191
 20
7.450708005949823
 30
0.0
 10
45.29680445916191
 20
8.128013778349942
 30
0.0
 10
45.29680445916191
 20
8.80531955075006
 30
0.0
 10
44.74645045539325
 20
9.355501299744459
 30
0.0
 10
44.06897242821887
 20
9.355501299744459
 30
0.0
  0
SPLINE
  5
7F
330
3C
100
AcDbEntity
  8
LAYER_1
 62
     7
100
AcDbSpline
210
0.0
220
0.0
230
1.0
 70
    11
 71
     3
 72
    17
 73
    13
 74
     0
 42
0.0000000001
 43
0.0000000001
 40
0.0
 40
0.0
 40
0.0
 40
0.0
 40
1.0
 40
1.0
 40
1.0
 40
2.0
 40
2.0
 40
2.0
 40
3.0
 40
3.0
 40
3.0
 40
4.0
 40
4.0
 40
4.0
 40
4.0
 10
40.89397242901262
 20
9.355501299744459
 30
0.0
 10
40.2166666566125
 20
9.355501299744459
 30
0.0
 10
39.66648490761811
 20
8.80531955075006
 30
0.0
 10
39.66648490761811
 20
8.128013778349942
 30
0.0
 10
39.66648490761811
 20
7.450708005949823
 30
0.0
 10
40.2166666566125
 20
6.900526256955424
 30
0.0
 10
40.89397242901262
 20
6.900526256955424
 30
0.0
 10
41.571450456187
 20
6.900526256955424
 30
0.0
 10
42.16400687964997
 20
7.450708005949823
 30
0.0
 10
42.16400687964997
 20
8.128013778349942
 30
0.0
 10
42.16400687964997
 20
8.80531955075006
 30
0.0
 10
41.571450456187
 20
9.355501299744459
 30
0.0
 10
40.89397242901262
 20
9.355501299744459
 30
0.0
  0
SPLINE
  5
80
330
3C
100
AcDbEntity
  8
LAYER_1
 62
     7
100
AcDbSpline
210
0.0
220
0.0
230
1.0
 70
    11
 71
     3
 72
    17
 73
    13
 74
     0
 42
0.0000000001
 43
0.0000000001
 40
0.0
 40
0.0
 40
0.0
 40
0.0
 40
1.0
 40
1.0
 40
1.0
 40
2.0
 40
2.0
 40
2.0
 40
3.0
 40
3.0
 40
3.0
 40
4.0
 40
4.0
 40
4.0
 40
4.0
 10
31.41134710586244
 20
22.05550129656946
 30
0.0
 10
30.69166665899375
 20
22.05550129656946
 30
0.0
 10
30.18368732969366
 20
21.50531954757506
 30
0.0
 10
30.18368732969366
 20
20.82801377517494
 30
0.0
 10
30.18368732969366
 20
20.15070800277482
 30
0.0
 10
30.69166665899375
 20
19.60052625378043
 30
0.0
 10
31.41134710586244
 20
19.60052625378043
 30
0.0
 10
32.08865287826256
 20
19.60052625378043
 30
0.0
 10
32.63900688203123
 20
20.15070800277482
 30
0.0
 10
32.63900688203123
 20
20.82801377517494
 30
0.0
 10
32.63900688203123
 20
21.50531954757506
 30
0.0
 10
32.08865287826256
 20
22.05550129656946
 30
0.0
 10
31.41134710586244
 20
22.05550129656946
 30
0.0
  0
SPLINE
  5
81
330
3C
100
AcDbEntity
  8
LAYER_1
 62
     7
100
AcDbSpline
210
0.0
220
0.0
230
1.0
 70
    11
 71
     3
 72
    17
 73
    13
 74
     0
 42
0.0000000001
 43
0.0000000001
 40
0.0
 40
0.0
 40
0.0
 40
0.0
 40
1.0
 40
1.0
 40
1.0
 40
2.0
 40
2.0
 40
2.0
 40
3.0
 40
3.0
 40
3.0
 40
4.0
 40
4.0
 40
4.0
 40
4.0
 10
31.41134710586244
 20
28.40550129498196
 30
0.0
 10
30.69166665899375
 20
28.40550129498196
 30
0.0
 10
30.18368732969366
 20
27.85531954598756
 30
0.0
 10
30.18368732969366
 20
27.17801377358744
 30
0.0
 10
30.18368732969366
 20
26.50070800118732
 30
0.0
 10
30.69166665899375
 20
25.95052625219293
 30
0.0
 10
31.41134710586244
 20
25.95052625219293
 30
0.0
 10
32.08865287826256
 20
25.95052625219293
 30
0.0
 10
32.63900688203123
 20
26.50070800118732
 30
0.0
 10
32.63900688203123
 20
27.17801377358744
 30
0.0
 10
32.63900688203123
 20
27.85531954598756
 30
0.0
 10
32.08865287826256
 20
28.40550129498196
 30
0.0
 10
31.41134710586244
 20
28.40550129498196
 30
0.0
  0
SPLINE
  5
82
330
3C
100
AcDbEntity
  8
LAYER_1
 62
     7
100
AcDbSpline
210
0.0
220
0.0
230
1.0
 70
    11
 71
     3
 72
    17
 73
    13
 74
     0
 42
0.0000000001
 43
0.0000000001
 40
0.0
 40
0.0
 40
0.0
 40
0.0
 40
1.0
 40
1.0
 40
1.0
 40
2.0
 40
2.0
 40
2.0
 40
3.0
 40
3.0
 40
3.0
 40
4.0
 40
4.0
 40
4.0
 40
4.0
 10
34.58634710506869
 20
28.40550129498196
 30
0.0
 10
33.8666666582
 20
28.40550129498196
 30
0.0
 10
33.35868732889991
 20
27.85531954598756
 30
0.0
 10
33.35868732889991
 20
27.17801377358744
 30
0.0
 10
33.35868732889991
 20
26.50070800118732
 30
0.0
 10
33.8666666582
 20
25.95052625219293
 30
0.0
 10
34.58634710506869
 20
25.95052625219293
 30
0.0
 10
35.26365287746881
 20
25.95052625219293
 30
0.0
 10
35.81400688123747
 20
26.50070800118732
 30
0.0
 10
35.81400688123747
 20
27.17801377358744
 30
0.0
 10
35.81400688123747
 20
27.85531954598756
 30
0.0
 10
35.26365287746881
 20
28.40550129498196
 30
0.0
 10
34.58634710506869
 20
28.40550129498196
 30
0.0
  0
SPLINE
  5
83
330
3C
100
AcDbEntity
  8
LAYER_1
 62
     7
100
AcDbSpline
210
0.0
220
0.0
230
1.0
 70
    11
 71
     3
 72
    17
 73
    13
 74
     0
 42
0.0000000001
 43
0.0000000001
 40
0.0
 40
0.0
 40
0.0
 40
0.0
 40
1.0
 40
1.0
 40
1.0
 40
2.0
 40
2.0
 40
2.0
 40
3.0
 40
3.0
 40
3.0
 40
4.0
 40
4.0
 40
4.0
 40
4.0
 10
37.76134710427494
 20
28.40550129498196
 30
0.0
 10
37.04166665740625
 20
28.40550129498196
 30
0.0
 10
36.53368732810616
 20
27.85531954598756
 30
0.0
 10
36.53368732810616
 20
27.17801377358744
 30
0.0
 10
36.53368732810616
 20
26.50070800118732
 30
0.0
 10
37.04166665740625
 20
25.95052625219293
 30
0.0
 10
37.76134710427494
 20
25.95052625219293
 30
0.0
 10
38.43865287667506
 20
25.95052625219293
 30
0.0
 10
38.98900688044372
 20
26.50070800118732
 30
0.0
 10
38.98900688044372
 20
27.17801377358744
 30
0.0
 10
38.98900688044372
 20
27.85531954598756
 30
0.0
 10
38.43865287667506
 20
28.40550129498196
 30
0.0
 10
37.76134710427494
 20
28.40550129498196
 30
0.0
  0
SPLINE
  5
84
330
3C
100
AcDbEntity
  8
LAYER_1
 62
     7
100
AcDbSpline
210
0.0
220
0.0
230
1.0
 70
    11
 71
     3
 72
    17
 73
    13
 74
     0
 42
0.0000000001
 43
0.0000000001
 40
0.0
 40
0.0
 40
0.0
 40
0.0
 40
1.0
 40
1.0
 40
1.0
 40
2.0
 40
2.0
 40
2.0
 40
3.0
 40
3.0
 40
3.0
 40
4.0
 40
4.0
 40
4.0
 40
4.0
 10
40.89397242901262
 20
28.40550129498196
 30
0.0
 10
40.2166666566125
 20
28.40550129498196
 30
0.0
 10
39.66648490761811
 20
27.85531954598756
 30
0.0
 10
39.66648490761811
 20
27.17801377358744
 30
0.0
 10
39.66648490761811
 20
26.50070800118732
 30
0.0
 10
40.2166666566125
 20
25.95052625219293
 30
0.0
 10
40.89397242901262
 20
25.95052625219293
 30
0.0
 10
41.571450456187
 20
25.95052625219293
 30
0.0
 10
42.16400687964997
 20
26.50070800118732
 30
0.0
 10
42.16400687964997
 20
27.17801377358744
 30
0.0
 10
42.16400687964997
 20
27.85531954598756
 30
0.0
 10
41.571450456187
 20
28.40550129498196
 30
0.0
 10
40.89397242901262
 20
28.40550129498196
 30
0.0
  0
SPLINE
  5
85
330
3C
100
AcDbEntity
  8
LAYER_1
 62
     7
100
AcDbSpline
210
0.0
220
0.0
230
1.0
 70
    11
 71
     3
 72
    17
 73
    13
 74
     0
 42
0.0000000001
 43
0.0000000001
 40
0.0
 40
0.0
 40
0.0
 40
0.0
 40
1.0
 40
1.0
 40
1.0
 40
2.0
 40
2.0
 40
2.0
 40
3.0
 40
3.0
 40
3.0
 40
4.0
 40
4.0
 40
4.0
 40
4.0
 10
44.06897242821887
 20
28.40550129498196
 30
0.0
 10
43.34946423612444
 20
28.40550129498196
 30
0.0
 10
42.84148490682436
 20
27.85531954598756
 30
0.0
 10
42.84148490682436
 20
27.17801377358744
 30
0.0
 10
42.84148490682436
 20
26.50070800118732
 30
0.0
 10
43.34946423612444
 20
25.95052625219293
 30
0.0
 10
44.06897242821887
 20
25.95052625219293
 30
0.0
 10
44.74645045539325
 20
25.95052625219293
 30
0.0
 10
45.29680445916191
 20
26.50070800118732
 30
0.0
 10
45.29680445916191
 20
27.17801377358744
 30
0.0
 10
45.29680445916191
 20
27.85531954598756
 30
0.0
 10
44.74645045539325
 20
28.40550129498196
 30
0.0
 10
44.06897242821887
 20
28.40550129498196
 30
0.0
  0
SPLINE
  5
86
330
3C
100
AcDbEntity
  8
LAYER_1
 62
     7
100
AcDbSpline
210
0.0
220
0.0
230
1.0
 70
    11
 71
     3
 72
    17
 73
    13
 74
     0
 42
0.0000000001
 43
0.0000000001
 40
0.0
 40
0.0
 40
0.0
 40
0.0
 40
1.0
 40
1.0
 40
1.0
 40
2.0
 40
2.0
 40
2.0
 40
3.0
 40
3.0
 40
3.0
 40
4.0
 40
4.0
 40
4.0
 40
4.0
 10
44.06897242821887
 20
12.53050129895071
 30
0.0
 10
43.34946423612444
 20
12.53050129895071
 30
0.0
 10
42.84148490682436
 20
11.98031954995631
 30
0.0
 10
42.84148490682436
 20
11.30301377755619
 30
0.0
 10
42.84148490682436
 20
10.62570800515607
 30
0.0
 10
43.34946423612444
 20
10.07552625616167
 30
0.0
 10
44.06897242821887
 20
10.07552625616167
 30
0.0
 10
44.74645045539325
 20
10.07552625616167
 30
0.0
 10
45.29680445916191
 20
10.62570800515607
 30
0.0
 10
45.29680445916191
 20
11.30301377755619
 30
0.0
 10
45.29680445916191
 20
11.98031954995631
 30
0.0
 10
44.74645045539325
 20
12.53050129895071
 30
0.0
 10
44.06897242821887
 20
12.53050129895071
 30
0.0
  0
ENDBLK
  5
3F
330
3C
100
AcDbEntity
  8
0
100
AcDbBlockEnd
  0
ENDSEC
  0
SECTION
  2
ENTITIES
  0
INSERT
  5
3D
330
1F
100
AcDbEntity
  8
LAYER_1
100
AcDbBlockReference
  2
BLOCK_2
 10
0.0
 20
0.0
 30
0.0
  0
POLYLINE
  5
87
330
1F
100
AcDbEntity
  8
LAYER_1
 62
     7
100
AcDb2dPolyline
 66
     1
 10
0.0
 20
0.0
 30
0.0
  0
VERTEX
  5
88
330
87
100
AcDbEntity
  8
LAYER_1
 62
     7
100
AcDbVertex
100
AcDb2dVertex
 10
109.8127631018871
 20
0.0
 30
0.0
  0
VERTEX
  5
89
330
87
100
AcDbEntity
  8
LAYER_1
 62
     7
100
AcDbVertex
100
AcDb2dVertex
 10
0.0
 20
0.0
 30
0.0
  0
VERTEX
  5
8A
330
87
100
AcDbEntity
  8
LAYER_1
 62
     7
100
AcDbVertex
100
AcDb2dVertex
 10
0.0
 20
38.26949868834929
 30
0.0
  0
VERTEX
  5
8B
330
87
100
AcDbEntity
  8
LAYER_1
 62
     7
100
AcDbVertex
100
AcDb2dVertex
 10
109.8127631018871
 20
38.26949868834929
 30
0.0
  0
VERTEX
  5
8C
330
87
100
AcDbEntity
  8
LAYER_1
 62
     7
100
AcDbVertex
100
AcDb2dVertex
 10
109.8127631018871
 20
0.0
 30
0.0
  0
SEQEND
  5
8D
330
87
100
AcDbEntity
  8
LAYER_1
  0
ENDSEC
  0
SECTION
  2
OBJECTS
  0
DICTIONARY
  5
C
330
0
100
AcDbDictionary
  3
ACAD_GROUP
350
D
  3
ACAD_LAYOUT
350
1A
  3
ACAD_MLINESTYLE
350
17
  3
ACAD_PLOTSETTINGS
350
19
  3
ACAD_TABLESTYLE
350
8E
  3
ACAD_VISUALSTYLE
350
2A
1001
ACAD
1000
TREAT_AS_HARD
1070
     0
  0
DICTIONARY
  5
D
102
{ACAD_REACTORS
330
C
102
}
330
C
100
AcDbDictionary
1001
ACAD
1000
TREAT_AS_HARD
1070
     0
  0
DICTIONARY
  5
1A
102
{ACAD_REACTORS
330
C
102
}
330
C
100
AcDbDictionary
1001
ACAD
1000
TREAT_AS_HARD
1070
     0
  0
DICTIONARY
  5
17
102
{ACAD_REACTORS
330
C
102
}
330
C
100
AcDbDictionary
  3
STANDARD
350
18
1001
ACAD
1000
TREAT_AS_HARD
1070
     0
  0
DICTIONARY
  5
19
102
{ACAD_REACTORS
330
C
102
}
330
C
100
AcDbDictionary
1001
ACAD
1000
TREAT_AS_HARD
1070
     0
  0
DICTIONARY
  5
8E
102
{ACAD_REACTORS
330
C
102
}
330
C
100
AcDbDictionary
1001
ACAD
1000
TREAT_AS_HARD
1070
     0
  0
DICTIONARY
  5
2A
102
{ACAD_REACTORS
330
C
102
}
330
C
100
AcDbDictionary
  3
2DWIREFRAME
350
2F
  3
3D_HIDDEN
350
31
  3
3DWIREFRAME
350
30
  3
BASIC
350
32
  3
BRIGHTEN
350
36
  3
COLORCHANGE
350
3A
  3
CONCEPTUAL
350
34
  3
DIM
350
35
  3
FACEPATTERN
350
39
  3
FLAT
350
2B
  3
FLATWITHEDGES
350
2C
  3
GOURAUD
350
2D
  3
GOURAUDWITHEDGES
350
2E
  3
LINEPATTERN
350
38
  3
REALISTIC
350
33
  3
THICKEN
350
37
1001
ACAD
1000
TREAT_AS_HARD
1070
     0
  0
MLINESTYLE
  5
18
102
{ACAD_REACTORS
330
17
102
}
330
17
100
AcDbMlineStyle
  2
Standard
 70
     0
  3

 62
   256
 51
90.0
 52
90.0
 71
     2
 49
0.5
 62
   256
  6
BYLAYER
 49
-0.5
 62
   256
  6
BYLAYER
  0
VISUALSTYLE
  5
2F
102
{ACAD_REACTORS
330
2A
102
}
330
2A
100
AcDbVisualStyle
  2
2dWireframe
 70
     4
 71
     0
 72
     2
 73
     0
 90
        0
 40
-0.6
 41
-30.0
 62
     5
 63
     7
 74
     1
 91
        4
 64
     7
 65
   257
 75
     1
175
     1
 42
1.0
 92
        0
 66
   257
 43
1.0
 76
     1
 77
     6
 78
     2
 67
     7
 79
     5
170
     0
171
     0
290
     0
174
     0
 93
        1
 44
0.0
173
     0
291
     0
 45
0.0
1001
ACAD
1000
AcDbSavedByObjectVersion
1070
     0
  0
VISUALSTYLE
  5
31
102
{ACAD_REACTORS
330
2A
102
}
330
2A
100
AcDbVisualStyle
  2
3D Hidden
 70
     6
 71
     1
 72
     2
 73
     2
 90
        0
 40
-0.6
 41
-30.0
 62
     5
 63
     7
 74
     2
 91
        2
 64
     7
 65
   257
 75
     2
175
     1
 42
40.0
 92
        0
 66
   257
 43
1.0
 76
     1
 77
     6
 78
     2
 67
     7
 79
     3
170
     0
171
     0
290
     0
174
     0
 93
        1
 44
0.0
173
     0
291
     0
 45
0.0
1001
ACAD
1000
AcDbSavedByObjectVersion
1070
     0
  0
VISUALSTYLE
  5
30
102
{ACAD_REACTORS
330
2A
102
}
330
2A
100
AcDbVisualStyle
  2
3dWireframe
 70
     5
 71
     0
 72
     2
 73
     0
 90
        0
 40
-0.6
 41
-30.0
 62
     5
 63
     7
 74
     1
 91
        4
 64
     7
 65
   257
 75
     1
175
     1
 42
1.0
 92
        0
 66
   257
 43
1.0
 76
     1
 77
     6
 78
     2
 67
     7
 79
     5
170
     0
171
     0
290
     0
174
     0
 93
        1
 44
0.0
173
     0
291
     0
 45
0.0
1001
ACAD
1000
AcDbSavedByObjectVersion
1070
     0
  0
VISUALSTYLE
  5
32
102
{ACAD_REACTORS
330
2A
102
}
330
2A
100
AcDbVisualStyle
  2
Basic
 70
     7
 71
     1
 72
     0
 73
     1
 90
        0
 40
-0.6
 41
-30.0
 62
     5
 63
     7
 74
     0
 91
        4
 64
     7
 65
   257
 75
     1
175
     1
 42
1.0
 92
        8
 66
     7
 43
1.0
 76
     1
 77
     6
 78
     2
 67
     7
 79
     5
170
     0
171
     0
290
     0
174
     0
 93
        1
 44
0.0
173
     0
291
     1
 45
0.0
1001
ACAD
1000
AcDbSavedByObjectVersion
1070
     0
  0
VISUALSTYLE
  5
36
102
{ACAD_REACTORS
330
2A
102
}
330
2A
100
AcDbVisualStyle
  2
Brighten
 70
    12
 71
     2
 72
     2
 73
     0
 90
        0
 40
-0.6
 41
-30.0
 62
     5
 63
     7
 74
     1
 91
        4
 64
     7
 65
   257
 75
     1
175
     1
 42
1.0
 92
        8
 66
     7
 43
1.0
 76
     1
 77
     6
 78
     2
 67
     7
 79
     5
170
     0
171
     0
290
     0
174
     0
 93
        1
 44
50.0
173
     0
291
     1
 45
0.0
1001
ACAD
1000
AcDbSavedByObjectVersion
1070
     0
  0
VISUALSTYLE
  5
3A
102
{ACAD_REACTORS
330
2A
102
}
330
2A
100
AcDbVisualStyle
  2
ColorChange
 70
    16
 71
     2
 72
     2
 73
     3
 90
        0
 40
-0.6
 41
-30.0
 62
     5
 63
     8
 74
     1
 91
        4
 64
     7
 65
   257
 75
     1
175
     1
 42
1.0
 92
        8
 66
     8
 43
1.0
 76
     1
 77
     6
 78
     2
 67
     7
 79
     5
170
     0
171
     0
290
     0
174
     0
 93
        1
 44
0.0
173
     0
291
     1
 45
0.0
1001
ACAD
1000
AcDbSavedByObjectVersion
1070
     0
  0
VISUALSTYLE
  5
34
102
{ACAD_REACTORS
330
2A
102
}
330
2A
100
AcDbVisualStyle
  2
Conceptual
 70
     9
 71
     3
 72
     2
 73
     0
 90
        0
 40
-0.6
 41
-30.0
 62
     5
 63
     7
 74
     2
 91
        2
 64
     7
 65
   257
 75
     1
175
     1
 42
40.0
 92
        8
 66
     7
 43
1.0
 76
     1
 77
     6
 78
     2
 67
     7
 79
     3
170
     0
171
     0
290
     0
174
     0
 93
        1
 44
0.0
173
     0
291
     0
 45
0.0
1001
ACAD
1000
AcDbSavedByObjectVersion
1070
     0
  0
VISUALSTYLE
  5
35
102
{ACAD_REACTORS
330
2A
102
}
330
2A
100
AcDbVisualStyle
  2
Dim
 70
    11
 71
     2
 72
     2
 73
     0
 90
        0
 40
-0.6
 41
-30.0
 62
     5
 63
     7
 74
     1
 91
        4
 64
     7
 65
   257
 75
     1
175
     1
 42
1.0
 92
        8
 66
     7
 43
1.0
 76
     1
 77
     6
 78
     2
 67
     7
 79
     5
170
     0
171
     0
290
     0
174
     0
 93
        1
 44
-50.0
173
     0
291
     1
 45
0.0
1001
ACAD
1000
AcDbSavedByObjectVersion
1070
     0
  0
VISUALSTYLE
  5
39
102
{ACAD_REACTORS
330
2A
102
}
330
2A
100
AcDbVisualStyle
  2
Facepattern
 70
    15
 71
     2
 72
     2
 73
     0
 90
        0
 40
-0.6
 41
-30.0
 62
     5
 63
     7
 74
     1
 91
        4
 64
     7
 65
   257
 75
     1
175
     1
 42
1.0
 92
        8
 66
     7
 43
1.0
 76
     1
 77
     6
 78
     2
 67
     7
 79
     5
170
     0
171
     0
290
     0
174
     0
 93
        1
 44
0.0
173
     0
291
     1
 45
0.0
1001
ACAD
1000
AcDbSavedByObjectVersion
1070
     0
  0
VISUALSTYLE
  5
2B
102
{ACAD_REACTORS
330
2A
102
}
330
2A
100
AcDbVisualStyle
  2
Flat
 70
     0
 71
     2
 72
     1
 73
     1
 90
        2
 40
-0.6
 41
30.0
 62
     5
 63
     7
 74
     0
 91
        4
 64
     7
 65
   257
 75
     1
175
     1
 42
1.0
 92
        8
 66
     7
 43
1.0
 76
     1
 77
     6
 78
     2
 67
     7
 79
     5
170
     0
171
     0
290
     0
174
     0
 93
       13
 44
0.0
173
     0
291
     1
 45
0.0
1001
ACAD
1000
AcDbSavedByObjectVersion
1070
     0
  0
VISUALSTYLE
  5
2C
102
{ACAD_REACTORS
330
2A
102
}
330
2A
100
AcDbVisualStyle
  2
FlatWithEdges
 70
     1
 71
     2
 72
     1
 73
     1
 90
        2
 40
-0.6
 41
30.0
 62
     5
 63
     7
 74
     1
 91
        4
 64
     7
 65
   257
 75
     1
175
     1
 42
1.0
 92
        0
 66
   257
 43
1.0
 76
     1
 77
     6
 78
     2
 67
     7
 79
     5
170
     0
171
     0
290
     0
174
     0
 93
       13
 44
0.0
173
     0
291
     1
 45
0.0
1001
ACAD
1000
AcDbSavedByObjectVersion
1070
     0
  0
VISUALSTYLE
  5
2D
102
{ACAD_REACTORS
330
2A
102
}
330
2A
100
AcDbVisualStyle
  2
Gouraud
 70
     2
 71
     2
 72
     2
 73
     1
 90
        2
 40
-0.6
 41
30.0
 62
     5
 63
     7
 74
     0
 91
        4
 64
     7
 65
   257
 75
     1
175
     1
 42
1.0
 92
        0
 66
     7
 43
1.0
 76
     1
 77
     6
 78
     2
 67
     7
 79
     5
170
     0
171
     0
290
     0
174
     0
 93
       13
 44
0.0
173
     0
291
     1
 45
0.0
1001
ACAD
1000
AcDbSavedByObjectVersion
1070
     0
  0
VISUALSTYLE
  5
2E
102
{ACAD_REACTORS
330
2A
102
}
330
2A
100
AcDbVisualStyle
  2
GouraudWithEdges
 70
     3
 71
     2
 72
     2
 73
     1
 90
        2
 40
-0.6
 41
30.0
 62
     5
 63
     7
 74
     1
 91
        4
 64
     7
 65
   257
 75
     1
175
     1
 42
1.0
 92
        0
 66
   257
 43
1.0
 76
     1
 77
     6
 78
     2
 67
     7
 79
     5
170
     0
171
     0
290
     0
174
     0
 93
       13
 44
0.0
173
     0
291
     1
 45
0.0
1001
ACAD
1000
AcDbSavedByObjectVersion
1070
     0
  0
VISUALSTYLE
  5
38
102
{ACAD_REACTORS
330
2A
102
}
330
2A
100
AcDbVisualStyle
  2
Linepattern
 70
    14
 71
     2
 72
     2
 73
     0
 90
        0
 40
-0.6
 41
-30.0
 62
     5
 63
     7
 74
     1
 91
        4
 64
     7
 65
   257
 75
     7
175
     7
 42
1.0
 92
        8
 66
     7
 43
1.0
 76
     1
 77
     6
 78
     2
 67
     7
 79
     5
170
     0
171
     0
290
     0
174
     0
 93
        1
 44
0.0
173
     0
291
     1
 45
0.0
1001
ACAD
1000
AcDbSavedByObjectVersion
1070
     0
  0
VISUALSTYLE
  5
33
102
{ACAD_REACTORS
330
2A
102
}
330
2A
100
AcDbVisualStyle
  2
Realistic
 70
     8
 71
     2
 72
     2
 73
     0
 90
        0
 40
-0.6
 41
-30.0
 62
     5
 63
     7
 74
     1
 91
        0
 64
     7
 65
   257
 75
     1
175
     1
 42
1.0
 92
        8
 66
     8
 43
1.0
 76
     1
 77
     6
 78
     2
 67
     7
 79
     5
170
     0
171
     0
290
     0
174
     0
 93
       13
 44
0.0
173
     0
291
     0
 45
0.0
1001
ACAD
1000
AcDbSavedByObjectVersion
1070
     0
  0
VISUALSTYLE
  5
37
102
{ACAD_REACTORS
330
2A
102
}
330
2A
100
AcDbVisualStyle
  2
Thicken
 70
    13
 71
     2
 72
     2
 73
     0
 90
        0
 40
-0.6
 41
-30.0
 62
     5
 63
     7
 74
     1
 91
        4
 64
     7
 65
   257
 75
     1
175
     1
 42
1.0
 92
       12
 66
     7
 43
1.0
 76
     1
 77
     6
 78
     2
 67
     7
 79
     5
170
     0
171
     0
290
     0
174
     0
 93
        1
 44
0.0
173
     0
291
     1
 45
0.0
1001
ACAD
1000
AcDbSavedByObjectVersion
1070
     0
  0
ENDSEC
  0
EOF
