  0
SECTION
  2
HEADER
  9
$ACADVER
  1
AC1012
  9
$DWGCODEPAGE
  3
ansi_1252
  9
$INSBASE
 10
0.0
 20
0.0
 30
0.0
  9
$EXTMIN
 10
1.000000000000000E+20
 20
1.000000000000000E+20
 30
1.000000000000000E+20
  9
$EXTMAX
 10
-1.000000000000000E+20
 20
-1.000000000000000E+20
 30
-1.000000000000000E+20
  9
$LIMMIN
 10
0.0
 20
0.0
  9
$LIMMAX
 10
12.0
 20
9.0
  9
$ORTHOMODE
 70
     0
  9
$REGENMODE
 70
     1
  9
$FILLMODE
 70
     1
  9
$QTEXTMODE
 70
     0
  9
$MIRRTEXT
 70
     1
  9
$DRAGMODE
 70
     2
  9
$LTSCALE
 40
1.0
  9
$OSMODE
 70
    37
  9
$ATTMODE
 70
     1
  9
$TEXTSIZE
 40
0.2
  9
$TRACEWID
 40
0.05
  9
$TEXTSTYLE
  7
STANDARD
  9
$CLAYER
  8
0
  9
$CELTYPE
  6
BYLAYER
  9
$CECOLOR
 62
   256
  9
$CELTSCALE
 40
1.0
  9
$DELOBJ
 70
     1
  9
$DISPSILH
 70
     0
  9
$DIMSCALE
 40
1.0
  9
$DIMASZ
 40
0.18
  9
$DIMEXO
 40
0.0625
  9
$DIMDLI
 40
0.38
  9
$DIMRND
 40
0.0
  9
$DIMDLE
 40
0.0
  9
$DIMEXE
 40
0.18
  9
$DIMTP
 40
0.0
  9
$DIMTM
 40
0.0
  9
$DIMTXT
 40
0.18
  9
$DIMCEN
 40
0.09
  9
$DIMTSZ
 40
0.0
  9
$DIMTOL
 70
     0
  9
$DIMLIM
 70
     0
  9
$DIMTIH
 70
     1
  9
$DIMTOH
 70
     1
  9
$DIMSE1
 70
     0
  9
$DIMSE2
 70
     0
  9
$DIMTAD
 70
     0
  9
$DIMZIN
 70
     0
  9
$DIMBLK
  1

  9
$DIMASO
 70
     1
  9
$DIMSHO
 70
     1
  9
$DIMPOST
  1

  9
$DIMAPOST
  1

  9
$DIMALT
 70
     0
  9
$DIMALTD
 70
     2
  9
$DIMALTF
 40
25.4
  9
$DIMLFAC
 40
1.0
  9
$DIMTOFL
 70
     0
  9
$DIMTVP
 40
0.0
  9
$DIMTIX
 70
     0
  9
$DIMSOXD
 70
     0
  9
$DIMSAH
 70
     0
  9
$DIMBLK1
  1

  9
$DIMBLK2
  1

  9
$DIMSTYLE
  2
STANDARD
  9
$DIMCLRD
 70
     0
  9
$DIMCLRE
 70
     0
  9
$DIMCLRT
 70
     0
  9
$DIMTFAC
 40
1.0
  9
$DIMGAP
 40
0.09
  9
$DIMJUST
 70
     0
  9
$DIMSD1
 70
     0
  9
$DIMSD2
 70
     0
  9
$DIMTOLJ
 70
     1
  9
$DIMTZIN
 70
     0
  9
$DIMALTZ
 70
     0
  9
$DIMALTTZ
 70
     0
  9
$DIMFIT
 70
     3
  9
$DIMUPT
 70
     0
  9
$DIMUNIT
 70
     2
  9
$DIMDEC
 70
     4
  9
$DIMTDEC
 70
     4
  9
$DIMALTU
 70
     2
  9
$DIMALTTD
 70
     2
  9
$DIMTXSTY
  7
STANDARD
  9
$DIMAUNIT
 70
     0
  9
$LUNITS
 70
     2
  9
$LUPREC
 70
     4
  9
$SKETCHINC
 40
0.1
  9
$FILLETRAD
 40
0.5
  9
$AUNITS
 70
     0
  9
$AUPREC
 70
     0
  9
$MENU
  1
.
  9
$ELEVATION
 40
0.0
  9
$PELEVATION
 40
0.0
  9
$THICKNESS
 40
0.0
  9
$LIMCHECK
 70
     0
  9
$CHAMFERA
 40
0.5
  9
$CHAMFERB
 40
0.5
  9
$CHAMFERC
 40
1.0
  9
$CHAMFERD
 40
0.0
  9
$SKPOLY
 70
     0
  9
$TDCREATE
 40
2456540.451274919
  9
$TDUPDATE
 40
2456540.45127493
  9
$TDINDWG
 40
0.0000000116
  9
$TDUSRTIMER
 40
0.0000000116
  9
$USRTIMER
 70
     1
  9
$ANGBASE
 50
0.0
  9
$ANGDIR
 70
     0
  9
$PDMODE
 70
     0
  9
$PDSIZE
 40
0.0
  9
$PLINEWID
 40
0.0
  9
$COORDS
 70
     1
  9
$SPLFRAME
 70
     0
  9
$SPLINETYPE
 70
     6
  9
$SPLINESEGS
 70
     8
  9
$ATTDIA
 70
     0
  9
$ATTREQ
 70
     1
  9
$HANDLING
 70
     1
  9
$HANDSEED
  5
61
  9
$SURFTAB1
 70
     6
  9
$SURFTAB2
 70
     6
  9
$SURFTYPE
 70
     6
  9
$SURFU
 70
     6
  9
$SURFV
 70
     6
  9
$UCSNAME
  2

  9
$UCSORG
 10
0.0
 20
0.0
 30
0.0
  9
$UCSXDIR
 10
1.0
 20
0.0
 30
0.0
  9
$UCSYDIR
 10
0.0
 20
1.0
 30
0.0
  9
$PUCSNAME
  2

  9
$PUCSORG
 10
0.0
 20
0.0
 30
0.0
  9
$PUCSXDIR
 10
1.0
 20
0.0
 30
0.0
  9
$PUCSYDIR
 10
0.0
 20
1.0
 30
0.0
  9
$USERI1
 70
     0
  9
$USERI2
 70
     0
  9
$USERI3
 70
     0
  9
$USERI4
 70
     0
  9
$USERI5
 70
     0
  9
$USERR1
 40
0.0
  9
$USERR2
 40
0.0
  9
$USERR3
 40
0.0
  9
$USERR4
 40
0.0
  9
$USERR5
 40
0.0
  9
$WORLDVIEW
 70
     1
  9
$SHADEDGE
 70
     3
  9
$SHADEDIF
 70
    70
  9
$TILEMODE
 70
     1
  9
$MAXACTVP
 70
    64
  9
$PINSBASE
 10
0.0
 20
0.0
 30
0.0
  9
$PLIMCHECK
 70
     0
  9
$PEXTMIN
 10
1.000000000000000E+20
 20
1.000000000000000E+20
 30
1.000000000000000E+20
  9
$PEXTMAX
 10
-1.000000000000000E+20
 20
-1.000000000000000E+20
 30
-1.000000000000000E+20
  9
$PLIMMIN
 10
0.0
 20
0.0
  9
$PLIMMAX
 10
12.0
 20
9.0
  9
$UNITMODE
 70
     0
  9
$VISRETAIN
 70
     1
  9
$PLINEGEN
 70
     0
  9
$PSLTSCALE
 70
     1
  9
$TREEDEPTH
 70
  3020
  9
$PICKSTYLE
 70
     1
  9
$CMLSTYLE
  2
STANDARD
  9
$CMLJUST
 70
     0
  9
$CMLSCALE
 40
1.0
  9
$SAVEIMAGES
 70
     1
  0
ENDSEC
  0
SECTION
  2
CLASSES
  0
CLASS
  1
ACDBDICTIONARYWDFLT
  2
AcDbDictionaryWithDefault
  3
ObjectDBX Classes
 90
    32768
280
     0
281
     0
  0
CLASS
  1
VISUALSTYLE
  2
AcDbVisualStyle
  3
ObjectDBX Classes
 90
     4095
280
     0
281
     0
  0
CLASS
  1
XRECORD
  2
AcDbXrecord
  3
AutoCAD 2000
 90
    32768
280
     0
281
     0
  0
CLASS
  1
LWPOLYLINE
  2
AcDbPolyline
  3
AutoCAD 2000
 90
    32768
280
     0
281
     1
  0
CLASS
  1
HATCH
  2
AcDbHatch
  3
AutoCAD 2000
 90
    32768
280
     0
281
     1
  0
CLASS
  1
ACDBPLACEHOLDER
  2
AcDbPlaceHolder
  3
ObjectDBX Classes
 90
        0
280
     0
281
     0
  0
CLASS
  1
LAYOUT
  2
AcDbLayout
  3
ObjectDBX Classes
 90
        0
280
     0
281
     0
  0
ENDSEC
  0
SECTION
  2
TABLES
  0
TABLE
  2
VPORT
  5
8
330
0
100
AcDbSymbolTable
 70
     1
  0
VPORT
  5
29
330
8
100
AcDbSymbolTableRecord
100
AcDbViewportTableRecord
  2
*ACTIVE
 70
     0
 10
0.0
 20
0.0
 11
1.0
 21
1.0
 12
0.0
 22
0.0
 13
0.0
 23
0.0
 14
0.5
 24
0.5
 15
0.5
 25
0.5
 16
0.0
 26
0.0
 36
1.0
 17
148.4999796178229
 27
-105.0008259828644
 37
0.0
 40
210.0016519657288
 41
1.414274394775308
 42
50.0
 43
0.0
 44
0.0
 50
0.0
 51
0.0
 71
     0
 72
   100
 73
     1
 74
     3
 75
     0
 76
     0
 77
     0
 78
     0
  0
ENDTAB
  0
TABLE
  2
LTYPE
  5
5
330
0
100
AcDbSymbolTable
 70
     1
  0
LTYPE
  5
14
330
5
100
AcDbSymbolTableRecord
100
AcDbLinetypeTableRecord
  2
BYBLOCK
 70
     0
  3

 72
    65
 73
     0
 40
0.0
  0
LTYPE
  5
15
330
5
100
AcDbSymbolTableRecord
100
AcDbLinetypeTableRecord
  2
BYLAYER
 70
     0
  3

 72
    65
 73
     0
 40
0.0
  0
LTYPE
  5
16
330
5
100
AcDbSymbolTableRecord
100
AcDbLinetypeTableRecord
  2
CONTINUOUS
 70
     0
  3
Solid line
 72
    65
 73
     0
 40
0.0
  0
ENDTAB
  0
TABLE
  2
LAYER
  5
2
330
0
100
AcDbSymbolTable
 70
     2
  0
LAYER
  5
10
330
2
100
AcDbSymbolTableRecord
100
AcDbLayerTableRecord
  2
0
 70
     0
 62
     7
  6
CONTINUOUS
  0
LAYER
  5
3B
330
2
100
AcDbSymbolTableRecord
100
AcDbLayerTableRecord
  2
LAYER_1
 70
     0
 62
     7
  6
CONTINUOUS
  0
ENDTAB
  0
TABLE
  2
STYLE
  5
3
330
0
100
AcDbSymbolTable
 70
     1
  0
STYLE
  5
11
330
3
100
AcDbSymbolTableRecord
100
AcDbTextStyleTableRecord
  2
STANDARD
 70
     0
 40
0.0
 41
1.0
 50
0.0
 71
     0
 42
0.2
  3
txt
  4

  0
ENDTAB
  0
TABLE
  2
VIEW
  5
6
330
0
100
AcDbSymbolTable
 70
     0
  0
ENDTAB
  0
TABLE
  2
UCS
  5
7
330
0
100
AcDbSymbolTable
 70
     0
  0
ENDTAB
  0
TABLE
  2
APPID
  5
9
330
0
100
AcDbSymbolTable
 70
     1
  0
APPID
  5
12
330
9
100
AcDbSymbolTableRecord
100
AcDbRegAppTableRecord
  2
ACAD
 70
     0
  0
ENDTAB
  0
TABLE
  2
DIMSTYLE
  5
A
330
0
100
AcDbSymbolTable
 70
     1
  0
DIMSTYLE
105
27
330
A
100
AcDbSymbolTableRecord
100
AcDbDimStyleTableRecord
  2
STANDARD
 70
     0
  3

  4

  5

  6

  7

 40
1.0
 41
0.18
 42
0.0625
 43
0.38
 44
0.18
 45
0.0
 46
0.0
 47
0.0
 48
0.0
140
0.18
141
0.09
142
0.0
143
25.4
144
1.0
145
0.0
146
1.0
147
0.09
 71
     0
 72
     0
 73
     1
 74
     1
 75
     0
 76
     0
 77
     0
 78
     0
170
     0
171
     2
172
     0
173
     0
174
     0
175
     0
176
     0
177
     0
178
     0
270
     2
271
     4
272
     4
273
     2
274
     2
340
11
275
     0
280
     0
281
     0
282
     0
283
     1
284
     0
285
     0
286
     0
287
     3
288
     0
  0
ENDTAB
  0
TABLE
  2
BLOCK_RECORD
  5
1
330
0
100
AcDbSymbolTable
 70
     2
  0
BLOCK_RECORD
  5
1F
330
1
100
AcDbSymbolTableRecord
100
AcDbBlockTableRecord
  2
*MODEL_SPACE
  0
BLOCK_RECORD
  5
1B
330
1
100
AcDbSymbolTableRecord
100
AcDbBlockTableRecord
  2
*PAPER_SPACE
  0
BLOCK_RECORD
  5
5A
330
1
100
AcDbSymbolTableRecord
100
AcDbBlockTableRecord
  2
BLOCK_2
  0
ENDTAB
  0
ENDSEC
  0
SECTION
  2
BLOCKS
  0
BLOCK
  5
20
330
1F
100
AcDbEntity
  8
0
100
AcDbBlockBegin
  2
*MODEL_SPACE
 70
     0
 71
     0
 10
0.0
 20
0.0
 30
0.0
  3
*MODEL_SPACE
  1

  0
ENDBLK
  5
21
330
1F
100
AcDbEntity
  8
0
100
AcDbBlockEnd
  0
BLOCK
  5
1C
330
1B
100
AcDbEntity
 67
     1
  8
0
100
AcDbBlockBegin
  2
*PAPER_SPACE
 70
     0
 71
     0
 10
0.0
 20
0.0
 30
0.0
  3
*PAPER_SPACE
  1

  0
ENDBLK
  5
1D
330
1B
100
AcDbEntity
 67
     1
  8
0
100
AcDbBlockEnd
  0
BLOCK
  5
5C
330
5A
100
AcDbEntity
  8
0
100
AcDbBlockBegin
  2
BLOCK_2
 70
     0
 71
     0
 10
0.0
 20
0.0
 30
0.0
  3
BLOCK_2
  1

  0
SPLINE
  5
5E
330
5A
100
AcDbEntity
  8
LAYER_1
 62
     7
100
AcDbSpline
210
0.0
220
0.0
230
1.0
 70
    11
 71
     3
 72
    65
 73
    61
 74
     0
 42
0.0000000001
 43
0.0000000001
 40
0.0
 40
0.0
 40
0.0
 40
0.0
 40
1.0
 40
1.0
 40
1.0
 40
2.0
 40
2.0
 40
2.0
 40
3.0
 40
3.0
 40
3.0
 40
4.0
 40
4.0
 40
4.0
 40
5.0
 40
5.0
 40
5.0
 40
6.0
 40
6.0
 40
6.0
 40
7.0
 40
7.0
 40
7.0
 40
8.0
 40
8.0
 40
8.0
 40
9.0
 40
9.0
 40
9.0
 40
10.0
 40
10.0
 40
10.0
 40
11.0
 40
11.0
 40
11.0
 40
12.0
 40
12.0
 40
12.0
 40
13.0
 40
13.0
 40
13.0
 40
14.0
 40
14.0
 40
14.0
 40
15.0
 40
15.0
 40
15.0
 40
16.0
 40
16.0
 40
16.0
 40
17.0
 40
17.0
 40
17.0
 40
18.0
 40
18.0
 40
18.0
 40
19.0
 40
19.0
 40
19.0
 40
20.0
 40
20.0
 40
20.0
 40
20.0
 10
33.52060681670665
 20
8.89316948562393
 30
0.0
 10
33.52060681670665
 20
8.89316948562393
 30
0.0
 10
31.5190063397765
 20
8.89316948562393
 30
0.0
 10
31.5190063397765
 20
8.89316948562393
 30
0.0
 10
31.5190063397765
 20
8.89316948562393
 30
0.0
 10
31.5190063397765
 20
8.900404186142955
 30
0.0
 10
31.5190063397765
 20
8.900404186142955
 30
0.0
 10
31.5190063397765
 20
8.900404186142955
 30
0.0
 10
28.00190835888494
 20
8.900404186142955
 30
0.0
 10
28.00190835888494
 20
8.900404186142955
 30
0.0
 10
28.00190835888494
 20
8.900404186142955
 30
0.0
 10
28.00190835888494
 20
8.901782224337055
 30
0.0
 10
28.00190835888494
 20
8.901782224337055
 30
0.0
 10
28.00190835888494
 20
8.901782224337055
 30
0.0
 10
24.00215250050988
 20
8.901782224337055
 30
0.0
 10
24.00215250050988
 20
8.901782224337055
 30
0.0
 10
24.00215250050988
 20
8.901782224337055
 30
0.0
 10
24.00215250050988
 20
8.89385850472098
 30
0.0
 10
24.00215250050988
 20
8.89385850472098
 30
0.0
 10
24.00215250050988
 20
8.89385850472098
 30
0.0
 10
22.00124104267677
 20
8.89385850472098
 30
0.0
 10
22.00124104267677
 20
8.89385850472098
 30
0.0
 10
20.39996066113265
 20
8.89385850472098
 30
0.0
 10
19.10184868229051
 20
7.596091035427366
 30
0.0
 10
19.10184868229051
 20
5.994466144334717
 30
0.0
 10
19.10184868229051
 20
5.994466144334717
 30
0.0
 10
19.10184868229051
 20
4.000100367923586
 30
0.0
 10
19.10184868229051
 20
4.000100367923586
 30
0.0
 10
19.10184868229051
 20
4.000100367923586
 30
0.0
 10
19.10184868229051
 20
3.095073783948454
 30
0.0
 10
19.10184868229051
 20
3.095073783948454
 30
0.0
 10
19.10184868229051
 20
3.095073783948454
 30
0.0
 10
19.10184868229051
 20
0.0
 30
0.0
 10
19.10184868229051
 20
0.0
 30
0.0
 10
19.10184868229051
 20
0.0
 30
0.0
 10
24.00215250050988
 20
0.0
 30
0.0
 10
24.00215250050988
 20
0.0
 30
0.0
 10
24.00215250050988
 20
0.0
 30
0.0
 10
25.36124266944094
 20
0.0
 30
0.0
 10
25.36124266944094
 20
0.0
 30
0.0
 10
25.36124266944094
 20
0.0
 30
0.0
 10
27.51856146230439
 20
0.0
 30
0.0
 10
27.51856146230439
 20
0.0
 30
0.0
 10
27.51856146230439
 20
0.0
 30
0.0
 10
28.00190835888494
 20
0.0
 30
0.0
 10
28.00190835888494
 20
0.0
 30
0.0
 10
28.00190835888494
 20
0.0
 30
0.0
 10
36.42103270573849
 20
0.0
 30
0.0
 10
36.42103270573849
 20
0.0
 30
0.0
 10
36.42103270573849
 20
0.0
 30
0.0
 10
36.42103270573849
 20
3.094384764851404
 30
0.0
 10
36.42103270573849
 20
3.094384764851404
 30
0.0
 10
36.42103270573849
 20
3.094384764851404
 30
0.0
 10
36.42103270573849
 20
4.000100367923586
 30
0.0
 10
36.42103270573849
 20
4.000100367923586
 30
0.0
 10
36.42103270573849
 20
4.000100367923586
 30
0.0
 10
36.42103270573849
 20
5.993777125237667
 30
0.0
 10
36.42103270573849
 20
5.993777125237667
 30
0.0
 10
36.42103270573849
 20
7.595402016330317
 30
0.0
 10
35.12257621734783
 20
8.89316948562393
 30
0.0
 10
33.52060681670665
 20
8.89316948562393
 30
0.0
  0
SPLINE
  5
5F
330
5A
100
AcDbEntity
  8
LAYER_1
 62
     7
100
AcDbSpline
210
0.0
220
0.0
230
1.0
 70
    11
 71
     3
 72
    68
 73
    64
 74
     0
 42
0.0000000001
 43
0.0000000001
 40
0.0
 40
0.0
 40
0.0
 40
0.0
 40
1.0
 40
1.0
 40
1.0
 40
2.0
 40
2.0
 40
2.0
 40
3.0
 40
3.0
 40
3.0
 40
4.0
 40
4.0
 40
4.0
 40
5.0
 40
5.0
 40
5.0
 40
6.0
 40
6.0
 40
6.0
 40
7.0
 40
7.0
 40
7.0
 40
8.0
 40
8.0
 40
8.0
 40
9.0
 40
9.0
 40
9.0
 40
10.0
 40
10.0
 40
10.0
 40
11.0
 40
11.0
 40
11.0
 40
12.0
 40
12.0
 40
12.0
 40
13.0
 40
13.0
 40
13.0
 40
14.0
 40
14.0
 40
14.0
 40
15.0
 40
15.0
 40
15.0
 40
16.0
 40
16.0
 40
16.0
 40
17.0
 40
17.0
 40
17.0
 40
18.0
 40
18.0
 40
18.0
 40
19.0
 40
19.0
 40
19.0
 40
20.0
 40
20.0
 40
20.0
 40
21.0
 40
21.0
 40
21.0
 40
21.0
 10
36.42034368664144
 20
25.71557074009889
 30
0.0
 10
36.42034368664144
 20
25.71557074009889
 30
0.0
 10
36.42034368664144
 20
27.99587944178575
 30
0.0
 10
36.42034368664144
 20
27.99587944178575
 30
0.0
 10
36.42034368664144
 20
27.99587944178575
 30
0.0
 10
31.51969535887355
 20
27.99587944178575
 30
0.0
 10
31.51969535887355
 20
27.99587944178575
 30
0.0
 10
31.51969535887355
 20
27.99587944178575
 30
0.0
 10
30.16026068039396
 20
27.99587944178575
 30
0.0
 10
30.16026068039396
 20
27.99587944178575
 30
0.0
 10
30.16026068039396
 20
27.99587944178575
 30
0.0
 10
28.00328639707904
 20
27.99587944178575
 30
0.0
 10
28.00328639707904
 20
27.99587944178575
 30
0.0
 10
28.00328639707904
 20
27.99587944178575
 30
0.0
 10
27.51925048140144
 20
27.99587944178575
 30
0.0
 10
27.51925048140144
 20
27.99587944178575
 30
0.0
 10
27.51925048140144
 20
27.99587944178575
 30
0.0
 10
19.10184868229051
 20
27.99587944178575
 30
0.0
 10
19.10184868229051
 20
27.99587944178575
 30
0.0
 10
19.10184868229051
 20
27.99587944178575
 30
0.0
 10
19.10184868229051
 20
25.61841904741484
 30
0.0
 10
19.10184868229051
 20
25.61841904741484
 30
0.0
 10
19.10184868229051
 20
25.61841904741484
 30
0.0
 10
19.10184868229051
 20
23.99577907386217
 30
0.0
 10
19.10184868229051
 20
23.99577907386217
 30
0.0
 10
19.10184868229051
 20
23.99577907386217
 30
0.0
 10
19.10184868229051
 20
21.99486761602906
 30
0.0
 10
19.10184868229051
 20
21.99486761602906
 30
0.0
 10
19.10184868229051
 20
20.39324272493641
 30
0.0
 10
20.39996066113265
 20
19.0954752556428
 30
0.0
 10
22.00124104267677
 20
19.0954752556428
 30
0.0
 10
22.00124104267677
 20
19.0954752556428
 30
0.0
 10
24.00353053870398
 20
19.0954752556428
 30
0.0
 10
24.00353053870398
 20
19.0954752556428
 30
0.0
 10
24.00353053870398
 20
19.0954752556428
 30
0.0
 10
25.5965426910835
 20
19.0954752556428
 30
0.0
 10
25.5965426910835
 20
19.0954752556428
 30
0.0
 10
25.5965426910835
 20
19.0954752556428
 30
0.0
 10
27.51925048140144
 20
19.0954752556428
 30
0.0
 10
27.51925048140144
 20
19.0954752556428
 30
0.0
 10
27.51925048140144
 20
19.0954752556428
 30
0.0
 10
27.51925048140144
 20
19.0940972174487
 30
0.0
 10
27.51925048140144
 20
19.0940972174487
 30
0.0
 10
27.51925048140144
 20
19.0940972174487
 30
0.0
 10
29.65555419180486
 20
19.0940972174487
 30
0.0
 10
29.65555419180486
 20
19.0940972174487
 30
0.0
 10
29.65555419180486
 20
19.0940972174487
 30
0.0
 10
31.51969535887355
 20
19.0940972174487
 30
0.0
 10
31.51969535887355
 20
19.0940972174487
 30
0.0
 10
31.51969535887355
 20
19.0940972174487
 30
0.0
 10
33.52060681670665
 20
19.0940972174487
 30
0.0
 10
33.52060681670665
 20
19.0940972174487
 30
0.0
 10
35.12257621734783
 20
19.0940972174487
 30
0.0
 10
36.42103270573849
 20
20.39152017719379
 30
0.0
 10
36.42103270573849
 20
21.99314506828644
 30
0.0
 10
36.42103270573849
 20
21.99314506828644
 30
0.0
 10
36.42103270573849
 20
21.99348957783496
 30
0.0
 10
36.42103270573849
 20
21.99348957783496
 30
0.0
 10
36.42103270573849
 20
21.99348957783496
 30
0.0
 10
36.42103270573849
 20
25.71557074009889
 30
0.0
 10
36.42103270573849
 20
25.71557074009889
 30
0.0
 10
36.42103270573849
 20
25.71557074009889
 30
0.0
 10
36.42034368664144
 20
25.71557074009889
 30
0.0
 10
36.42034368664144
 20
25.71557074009889
 30
0.0
  0
ENDBLK
  5
5D
330
5A
100
AcDbEntity
  8
0
100
AcDbBlockEnd
  0
ENDSEC
  0
SECTION
  2
ENTITIES
  0
POLYLINE
  5
3C
330
1F
100
AcDbEntity
  8
LAYER_1
 62
   250
100
AcDb2dPolyline
 66
     1
 10
0.0
 20
0.0
 30
0.0
  0
VERTEX
  5
3D
330
3C
100
AcDbEntity
  8
LAYER_1
 62
   250
100
AcDbVertex
100
AcDb2dVertex
 10
24.00215250050988
 20
3.994588215147187
 30
0.0
  0
VERTEX
  5
3E
330
3C
100
AcDbEntity
  8
LAYER_1
 62
   250
100
AcDbVertex
100
AcDb2dVertex
 10
4.001995170440473
 20
3.994588215147187
 30
0.0
  0
VERTEX
  5
3F
330
3C
100
AcDbEntity
  8
LAYER_1
 62
   250
100
AcDbVertex
100
AcDb2dVertex
 10
4.001995170440473
 20
23.99474554521659
 30
0.0
  0
VERTEX
  5
40
330
3C
100
AcDbEntity
  8
LAYER_1
 62
   250
100
AcDbVertex
100
AcDb2dVertex
 10
24.00215250050988
 20
23.99474554521659
 30
0.0
  0
VERTEX
  5
41
330
3C
100
AcDbEntity
  8
LAYER_1
 62
   250
100
AcDbVertex
100
AcDb2dVertex
 10
24.00215250050988
 20
3.994588215147187
 30
0.0
  0
SEQEND
  5
42
330
3C
100
AcDbEntity
  8
LAYER_1
  0
SPLINE
  5
43
330
1F
100
AcDbEntity
  8
LAYER_1
 62
     7
100
AcDbSpline
210
0.0
220
0.0
230
1.0
 70
    11
 71
     3
 72
    17
 73
    13
 74
     0
 42
0.0000000001
 43
0.0000000001
 40
0.0
 40
0.0
 40
0.0
 40
0.0
 40
1.0
 40
1.0
 40
1.0
 40
2.0
 40
2.0
 40
2.0
 40
3.0
 40
3.0
 40
3.0
 40
4.0
 40
4.0
 40
4.0
 40
4.0
 10
7.001984318996032
 20
21.89599337560239
 30
0.0
 10
7.001984318996032
 20
21.34374456931684
 30
0.0
 10
6.554294160687816
 20
20.89622666578289
 30
0.0
 10
6.001873099628004
 20
20.89622666578289
 30
0.0
 10
5.449624293342455
 20
20.89622666578289
 30
0.0
 10
5.001934135034239
 20
21.34374456931684
 30
0.0
 10
5.001934135034239
 20
21.89599337560239
 30
0.0
 10
5.001934135034239
 20
22.44824218188794
 30
0.0
 10
5.449624293342455
 20
22.89576008542189
 30
0.0
 10
6.001873099628004
 20
22.89576008542189
 30
0.0
 10
6.554294160687816
 20
22.89576008542189
 30
0.0
 10
7.001984318996032
 20
22.44824218188794
 30
0.0
 10
7.001984318996032
 20
21.89599337560239
 30
0.0
  0
SPLINE
  5
44
330
1F
100
AcDbEntity
  8
LAYER_1
 62
     7
100
AcDbSpline
210
0.0
220
0.0
230
1.0
 70
    11
 71
     3
 72
    17
 73
    13
 74
     0
 42
0.0000000001
 43
0.0000000001
 40
0.0
 40
0.0
 40
0.0
 40
0.0
 40
1.0
 40
1.0
 40
1.0
 40
2.0
 40
2.0
 40
2.0
 40
3.0
 40
3.0
 40
3.0
 40
4.0
 40
4.0
 40
4.0
 40
4.0
 10
23.00169677159333
 20
21.99486761602906
 30
0.0
 10
23.00169677159333
 20
21.44261880974351
 30
0.0
 10
22.55417886805937
 20
20.99510090620956
 30
0.0
 10
22.00193006177382
 20
20.99510090620956
 30
0.0
 10
21.44933674593975
 20
20.99510090620956
 30
0.0
 10
21.0018188424058
 20
21.44261880974351
 30
0.0
 10
21.0018188424058
 20
21.99486761602906
 30
0.0
 10
21.0018188424058
 20
22.54711642231461
 30
0.0
 10
21.44933674593975
 20
22.99463432584857
 30
0.0
 10
22.00193006177382
 20
22.99463432584857
 30
0.0
 10
22.55417886805937
 20
22.99463432584857
 30
0.0
 10
23.00169677159333
 20
22.54711642231461
 30
0.0
 10
23.00169677159333
 20
21.99486761602906
 30
0.0
  0
SPLINE
  5
45
330
1F
100
AcDbEntity
  8
LAYER_1
 62
     7
100
AcDbSpline
210
0.0
220
0.0
230
1.0
 70
    11
 71
     3
 72
    17
 73
    13
 74
     0
 42
0.0000000001
 43
0.0000000001
 40
0.0
 40
0.0
 40
0.0
 40
0.0
 40
1.0
 40
1.0
 40
1.0
 40
2.0
 40
2.0
 40
2.0
 40
3.0
 40
3.0
 40
3.0
 40
4.0
 40
4.0
 40
4.0
 40
4.0
 10
7.001984318996032
 20
5.994466144334717
 30
0.0
 10
7.001984318996032
 20
5.442217338049169
 30
0.0
 10
6.554294160687816
 20
4.994699434515215
 30
0.0
 10
6.001873099628004
 20
4.994699434515215
 30
0.0
 10
5.449624293342455
 20
4.994699434515215
 30
0.0
 10
5.001934135034239
 20
5.442217338049169
 30
0.0
 10
5.001934135034239
 20
5.994466144334717
 30
0.0
 10
5.001934135034239
 20
6.546714950620266
 30
0.0
 10
5.449624293342455
 20
6.99423285415422
 30
0.0
 10
6.001873099628004
 20
6.99423285415422
 30
0.0
 10
6.554294160687816
 20
6.99423285415422
 30
0.0
 10
7.001984318996032
 20
6.546714950620266
 30
0.0
 10
7.001984318996032
 20
5.994466144334717
 30
0.0
  0
SPLINE
  5
46
330
1F
100
AcDbEntity
  8
LAYER_1
 62
     7
100
AcDbSpline
210
0.0
220
0.0
230
1.0
 70
    11
 71
     3
 72
    17
 73
    13
 74
     0
 42
0.0000000001
 43
0.0000000001
 40
0.0
 40
0.0
 40
0.0
 40
0.0
 40
1.0
 40
1.0
 40
1.0
 40
2.0
 40
2.0
 40
2.0
 40
3.0
 40
3.0
 40
3.0
 40
4.0
 40
4.0
 40
4.0
 40
4.0
 10
23.00169677159333
 20
5.994466144334717
 30
0.0
 10
23.00169677159333
 20
5.442217338049169
 30
0.0
 10
22.55417886805937
 20
4.994699434515215
 30
0.0
 10
22.00193006177382
 20
4.994699434515215
 30
0.0
 10
21.44933674593975
 20
4.994699434515215
 30
0.0
 10
21.0018188424058
 20
5.442217338049169
 30
0.0
 10
21.0018188424058
 20
5.994466144334717
 30
0.0
 10
21.0018188424058
 20
6.546714950620266
 30
0.0
 10
21.44933674593975
 20
6.99423285415422
 30
0.0
 10
22.00193006177382
 20
6.99423285415422
 30
0.0
 10
22.55417886805937
 20
6.99423285415422
 30
0.0
 10
23.00169677159333
 20
6.546714950620266
 30
0.0
 10
23.00169677159333
 20
5.994466144334717
 30
0.0
  0
SPLINE
  5
47
330
1F
100
AcDbEntity
  8
LAYER_1
 62
     7
100
AcDbSpline
210
0.0
220
0.0
230
1.0
 70
    11
 71
     3
 72
    17
 73
    13
 74
     0
 42
0.0000000001
 43
0.0000000001
 40
0.0
 40
0.0
 40
0.0
 40
0.0
 40
1.0
 40
1.0
 40
1.0
 40
2.0
 40
2.0
 40
2.0
 40
3.0
 40
3.0
 40
3.0
 40
4.0
 40
4.0
 40
4.0
 40
4.0
 10
17.07268744147836
 20
8.549004446647471
 30
0.0
 10
17.07268744147836
 20
6.892258027790825
 30
0.0
 10
15.72944471177945
 20
5.549015298091913
 30
0.0
 10
14.07252603814854
 20
5.549015298091913
 30
0.0
 10
12.41560736451763
 20
5.549015298091913
 30
0.0
 10
11.07253688959298
 20
6.892258027790825
 30
0.0
 10
11.07253688959298
 20
8.549004446647471
 30
0.0
 10
11.07253688959298
 20
10.20575086550412
 30
0.0
 10
12.41560736451763
 20
11.54899359520303
 30
0.0
 10
14.07252603814854
 20
11.54899359520303
 30
0.0
 10
15.72944471177945
 20
11.54899359520303
 30
0.0
 10
17.07268744147836
 20
10.20575086550412
 30
0.0
 10
17.07268744147836
 20
8.549004446647471
 30
0.0
  0
SPLINE
  5
48
330
1F
100
AcDbEntity
  8
LAYER_1
 62
     7
100
AcDbSpline
210
0.0
220
0.0
230
1.0
 70
    11
 71
     3
 72
    17
 73
    13
 74
     0
 42
0.0000000001
 43
0.0000000001
 40
0.0
 40
0.0
 40
0.0
 40
0.0
 40
1.0
 40
1.0
 40
1.0
 40
2.0
 40
2.0
 40
2.0
 40
3.0
 40
3.0
 40
3.0
 40
4.0
 40
4.0
 40
4.0
 40
4.0
 10
20.00170762303777
 20
13.99466688018189
 30
0.0
 10
20.00170762303777
 20
10.68082953292007
 30
0.0
 10
17.31556667318847
 20
7.993655054425198
 30
0.0
 10
14.00190158070091
 20
7.993655054425198
 30
0.0
 10
10.68823648821336
 20
7.993655054425198
 30
0.0
 10
8.001923283589797
 20
10.68082953292007
 30
0.0
 10
8.001923283589797
 20
13.99466688018189
 30
0.0
 10
8.001923283589797
 20
17.30678167970108
 30
0.0
 10
10.68823648821336
 20
19.99533419639006
 30
0.0
 10
14.00190158070091
 20
19.99533419639006
 30
0.0
 10
17.31556667318847
 20
19.99533419639006
 30
0.0
 10
20.00170762303777
 20
17.30678167970108
 30
0.0
 10
20.00170762303777
 20
13.99466688018189
 30
0.0
  0
SPLINE
  5
49
330
1F
100
AcDbEntity
  8
LAYER_1
 62
     7
100
AcDbSpline
210
0.0
220
0.0
230
1.0
 70
    11
 71
     3
 72
    38
 73
    34
 74
     0
 42
0.0000000001
 43
0.0000000001
 40
0.0
 40
0.0
 40
0.0
 40
0.0
 40
1.0
 40
1.0
 40
1.0
 40
2.0
 40
2.0
 40
2.0
 40
3.0
 40
3.0
 40
3.0
 40
4.0
 40
4.0
 40
4.0
 40
5.0
 40
5.0
 40
5.0
 40
6.0
 40
6.0
 40
6.0
 40
7.0
 40
7.0
 40
7.0
 40
8.0
 40
8.0
 40
8.0
 40
9.0
 40
9.0
 40
9.0
 40
10.0
 40
10.0
 40
10.0
 40
11.0
 40
11.0
 40
11.0
 40
11.0
 10
6.001528590079479
 20
8.89316948562393
 30
0.0
 10
6.001528590079479
 20
8.89316948562393
 30
0.0
 10
4.000100367923586
 20
8.89316948562393
 30
0.0
 10
4.000100367923586
 20
8.89316948562393
 30
0.0
 10
4.000100367923586
 20
8.89316948562393
 30
0.0
 10
4.000100367923586
 20
8.900404186142955
 30
0.0
 10
4.000100367923586
 20
8.900404186142955
 30
0.0
 10
4.000100367923586
 20
8.900404186142955
 30
0.0
 10
0.0
 20
8.900404186142955
 30
0.0
 10
0.0
 20
8.900404186142955
 30
0.0
 10
0.0
 20
8.900404186142955
 30
0.0
 10
0.0
 20
4.000100367923586
 30
0.0
 10
0.0
 20
4.000100367923586
 30
0.0
 10
0.0
 20
4.000100367923586
 30
0.0
 10
0.0
 20
2.641010198992525
 30
0.0
 10
0.0
 20
2.641010198992525
 30
0.0
 10
0.0
 20
2.641010198992525
 30
0.0
 10
0.0
 20
0.0
 30
0.0
 10
0.0
 20
0.0
 30
0.0
 10
0.0
 20
0.0
 30
0.0
 10
8.901782224337055
 20
0.0
 30
0.0
 10
8.901782224337055
 20
0.0
 30
0.0
 10
8.901782224337055
 20
0.0
 30
0.0
 10
8.901782224337055
 20
3.094384764851404
 30
0.0
 10
8.901782224337055
 20
3.094384764851404
 30
0.0
 10
8.901782224337055
 20
3.094384764851404
 30
0.0
 10
8.901782224337055
 20
4.000100367923586
 30
0.0
 10
8.901782224337055
 20
4.000100367923586
 30
0.0
 10
8.901782224337055
 20
4.000100367923586
 30
0.0
 10
8.901782224337055
 20
5.993777125237667
 30
0.0
 10
8.901782224337055
 20
5.993777125237667
 30
0.0
 10
8.901782224337055
 20
7.595402016330317
 30
0.0
 10
7.603497990720654
 20
8.89316948562393
 30
0.0
 10
6.001528590079479
 20
8.89316948562393
 30
0.0
  0
SPLINE
  5
4A
330
1F
100
AcDbEntity
  8
LAYER_1
 62
     7
100
AcDbSpline
210
0.0
220
0.0
230
1.0
 70
    11
 71
     3
 72
    41
 73
    37
 74
     0
 42
0.0000000001
 43
0.0000000001
 40
0.0
 40
0.0
 40
0.0
 40
0.0
 40
1.0
 40
1.0
 40
1.0
 40
2.0
 40
2.0
 40
2.0
 40
3.0
 40
3.0
 40
3.0
 40
4.0
 40
4.0
 40
4.0
 40
5.0
 40
5.0
 40
5.0
 40
6.0
 40
6.0
 40
6.0
 40
7.0
 40
7.0
 40
7.0
 40
8.0
 40
8.0
 40
8.0
 40
9.0
 40
9.0
 40
9.0
 40
10.0
 40
10.0
 40
10.0
 40
11.0
 40
11.0
 40
11.0
 40
12.0
 40
12.0
 40
12.0
 40
12.0
 10
8.901093205240004
 20
27.99587944178575
 30
0.0
 10
8.901093205240004
 20
27.99587944178575
 30
0.0
 10
4.000789387020636
 20
27.99587944178575
 30
0.0
 10
4.000789387020636
 20
27.99587944178575
 30
0.0
 10
4.000789387020636
 20
27.99587944178575
 30
0.0
 10
2.641526963315313
 20
27.99587944178575
 30
0.0
 10
2.641526963315313
 20
27.99587944178575
 30
0.0
 10
2.641526963315313
 20
27.99587944178575
 30
0.0
 10
0.00068901909705
 20
27.99587944178575
 30
0.0
 10
0.00068901909705
 20
27.99587944178575
 30
0.0
 10
0.00068901909705
 20
27.99587944178575
 30
0.0
 10
0.00068901909705
 20
19.0940972174487
 30
0.0
 10
0.00068901909705
 20
19.0940972174487
 30
0.0
 10
0.00068901909705
 20
19.0940972174487
 30
0.0
 10
2.136648219951949
 20
19.0940972174487
 30
0.0
 10
2.136648219951949
 20
19.0940972174487
 30
0.0
 10
2.136648219951949
 20
19.0940972174487
 30
0.0
 10
4.000789387020636
 20
19.0940972174487
 30
0.0
 10
4.000789387020636
 20
19.0940972174487
 30
0.0
 10
4.000789387020636
 20
19.0940972174487
 30
0.0
 10
6.001528590079479
 20
19.0940972174487
 30
0.0
 10
6.001528590079479
 20
19.0940972174487
 30
0.0
 10
7.603497990720654
 20
19.0940972174487
 30
0.0
 10
8.901782224337055
 20
20.39152017719379
 30
0.0
 10
8.901782224337055
 20
21.99314506828644
 30
0.0
 10
8.901782224337055
 20
21.99314506828644
 30
0.0
 10
8.901782224337055
 20
21.99348957783496
 30
0.0
 10
8.901782224337055
 20
21.99348957783496
 30
0.0
 10
8.901782224337055
 20
21.99348957783496
 30
0.0
 10
8.901782224337055
 20
25.71557074009889
 30
0.0
 10
8.901782224337055
 20
25.71557074009889
 30
0.0
 10
8.901782224337055
 20
25.71557074009889
 30
0.0
 10
8.901093205240004
 20
25.71557074009889
 30
0.0
 10
8.901093205240004
 20
25.71557074009889
 30
0.0
 10
8.901093205240004
 20
25.71557074009889
 30
0.0
 10
8.901093205240004
 20
27.99587944178575
 30
0.0
 10
8.901093205240004
 20
27.99587944178575
 30
0.0
  0
POLYLINE
  5
4B
330
1F
100
AcDbEntity
  8
LAYER_1
 62
   250
100
AcDb2dPolyline
 66
     1
 10
0.0
 20
0.0
 30
0.0
  0
VERTEX
  5
4C
330
4B
100
AcDbEntity
  8
LAYER_1
 62
   250
100
AcDbVertex
100
AcDb2dVertex
 10
51.52157523668558
 20
3.994588215147187
 30
0.0
  0
VERTEX
  5
4D
330
4B
100
AcDbEntity
  8
LAYER_1
 62
   250
100
AcDbVertex
100
AcDb2dVertex
 10
31.52107339706765
 20
3.994588215147187
 30
0.0
  0
VERTEX
  5
4E
330
4B
100
AcDbEntity
  8
LAYER_1
 62
   250
100
AcDbVertex
100
AcDb2dVertex
 10
31.52107339706765
 20
23.99474554521659
 30
0.0
  0
VERTEX
  5
4F
330
4B
100
AcDbEntity
  8
LAYER_1
 62
   250
100
AcDbVertex
100
AcDb2dVertex
 10
51.52157523668558
 20
23.99474554521659
 30
0.0
  0
VERTEX
  5
50
330
4B
100
AcDbEntity
  8
LAYER_1
 62
   250
100
AcDbVertex
100
AcDb2dVertex
 10
51.52157523668558
 20
3.994588215147187
 30
0.0
  0
SEQEND
  5
51
330
4B
100
AcDbEntity
  8
LAYER_1
  0
SPLINE
  5
52
330
1F
100
AcDbEntity
  8
LAYER_1
 62
     7
100
AcDbSpline
210
0.0
220
0.0
230
1.0
 70
    11
 71
     3
 72
    17
 73
    13
 74
     0
 42
0.0000000001
 43
0.0000000001
 40
0.0
 40
0.0
 40
0.0
 40
0.0
 40
1.0
 40
1.0
 40
1.0
 40
2.0
 40
2.0
 40
2.0
 40
3.0
 40
3.0
 40
3.0
 40
4.0
 40
4.0
 40
4.0
 40
4.0
 10
34.52106254562321
 20
21.89599337560239
 30
0.0
 10
34.52106254562321
 20
21.34374456931684
 30
0.0
 10
34.07320013254073
 20
20.89622666578289
 30
0.0
 10
33.52095132625518
 20
20.89622666578289
 30
0.0
 10
32.96870251996963
 20
20.89622666578289
 30
0.0
 10
32.52084010688715
 20
21.34374456931684
 30
0.0
 10
32.52084010688715
 20
21.89599337560239
 30
0.0
 10
32.52084010688715
 20
22.44824218188794
 30
0.0
 10
32.96870251996963
 20
22.89576008542189
 30
0.0
 10
33.52095132625518
 20
22.89576008542189
 30
0.0
 10
34.07320013254073
 20
22.89576008542189
 30
0.0
 10
34.52106254562321
 20
22.44824218188794
 30
0.0
 10
34.52106254562321
 20
21.89599337560239
 30
0.0
  0
SPLINE
  5
53
330
1F
100
AcDbEntity
  8
LAYER_1
 62
     7
100
AcDbSpline
210
0.0
220
0.0
230
1.0
 70
    11
 71
     3
 72
    17
 73
    13
 74
     0
 42
0.0000000001
 43
0.0000000001
 40
0.0
 40
0.0
 40
0.0
 40
0.0
 40
1.0
 40
1.0
 40
1.0
 40
2.0
 40
2.0
 40
2.0
 40
3.0
 40
3.0
 40
3.0
 40
4.0
 40
4.0
 40
4.0
 40
4.0
 10
50.52111950776903
 20
21.99486761602906
 30
0.0
 10
50.52111950776903
 20
21.44261880974351
 30
0.0
 10
50.07360160423507
 20
20.99510090620956
 30
0.0
 10
49.52135279794953
 20
20.99510090620956
 30
0.0
 10
48.96875948211545
 20
20.99510090620956
 30
0.0
 10
48.5212415785815
 20
21.44261880974351
 30
0.0
 10
48.5212415785815
 20
21.99486761602906
 30
0.0
 10
48.5212415785815
 20
22.54711642231461
 30
0.0
 10
48.96875948211545
 20
22.99463432584857
 30
0.0
 10
49.52135279794953
 20
22.99463432584857
 30
0.0
 10
50.07360160423507
 20
22.99463432584857
 30
0.0
 10
50.52111950776903
 20
22.54711642231461
 30
0.0
 10
50.52111950776903
 20
21.99486761602906
 30
0.0
  0
SPLINE
  5
54
330
1F
100
AcDbEntity
  8
LAYER_1
 62
     7
100
AcDbSpline
210
0.0
220
0.0
230
1.0
 70
    11
 71
     3
 72
    17
 73
    13
 74
     0
 42
0.0000000001
 43
0.0000000001
 40
0.0
 40
0.0
 40
0.0
 40
0.0
 40
1.0
 40
1.0
 40
1.0
 40
2.0
 40
2.0
 40
2.0
 40
3.0
 40
3.0
 40
3.0
 40
4.0
 40
4.0
 40
4.0
 40
4.0
 10
34.52106254562321
 20
5.994466144334717
 30
0.0
 10
34.52106254562321
 20
5.442217338049169
 30
0.0
 10
34.07320013254073
 20
4.994699434515215
 30
0.0
 10
33.52095132625518
 20
4.994699434515215
 30
0.0
 10
32.96870251996963
 20
4.994699434515215
 30
0.0
 10
32.52084010688715
 20
5.442217338049169
 30
0.0
 10
32.52084010688715
 20
5.994466144334717
 30
0.0
 10
32.52084010688715
 20
6.546714950620266
 30
0.0
 10
32.96870251996963
 20
6.99423285415422
 30
0.0
 10
33.52095132625518
 20
6.99423285415422
 30
0.0
 10
34.07320013254073
 20
6.99423285415422
 30
0.0
 10
34.52106254562321
 20
6.546714950620266
 30
0.0
 10
34.52106254562321
 20
5.994466144334717
 30
0.0
  0
SPLINE
  5
55
330
1F
100
AcDbEntity
  8
LAYER_1
 62
     7
100
AcDbSpline
210
0.0
220
0.0
230
1.0
 70
    11
 71
     3
 72
    17
 73
    13
 74
     0
 42
0.0000000001
 43
0.0000000001
 40
0.0
 40
0.0
 40
0.0
 40
0.0
 40
1.0
 40
1.0
 40
1.0
 40
2.0
 40
2.0
 40
2.0
 40
3.0
 40
3.0
 40
3.0
 40
4.0
 40
4.0
 40
4.0
 40
4.0
 10
50.52111950776903
 20
5.994466144334717
 30
0.0
 10
50.52111950776903
 20
5.442217338049169
 30
0.0
 10
50.07360160423507
 20
4.994699434515215
 30
0.0
 10
49.52135279794953
 20
4.994699434515215
 30
0.0
 10
48.96875948211545
 20
4.994699434515215
 30
0.0
 10
48.5212415785815
 20
5.442217338049169
 30
0.0
 10
48.5212415785815
 20
5.994466144334717
 30
0.0
 10
48.5212415785815
 20
6.546714950620266
 30
0.0
 10
48.96875948211545
 20
6.99423285415422
 30
0.0
 10
49.52135279794953
 20
6.99423285415422
 30
0.0
 10
50.07360160423507
 20
6.99423285415422
 30
0.0
 10
50.52111950776903
 20
6.546714950620266
 30
0.0
 10
50.52111950776903
 20
5.994466144334717
 30
0.0
  0
SPLINE
  5
56
330
1F
100
AcDbEntity
  8
LAYER_1
 62
     7
100
AcDbSpline
210
0.0
220
0.0
230
1.0
 70
    11
 71
     3
 72
    17
 73
    13
 74
     0
 42
0.0000000001
 43
0.0000000001
 40
0.0
 40
0.0
 40
0.0
 40
0.0
 40
1.0
 40
1.0
 40
1.0
 40
2.0
 40
2.0
 40
2.0
 40
3.0
 40
3.0
 40
3.0
 40
4.0
 40
4.0
 40
4.0
 40
4.0
 10
44.59211017765406
 20
8.549004446647471
 30
0.0
 10
44.59211017765406
 20
6.892258027790825
 30
0.0
 10
43.24886744795515
 20
5.549015298091913
 30
0.0
 10
41.59177651954997
 20
5.549015298091913
 30
0.0
 10
39.93503010069333
 20
5.549015298091913
 30
0.0
 10
38.59178737099442
 20
6.892258027790825
 30
0.0
 10
38.59178737099442
 20
8.549004446647471
 30
0.0
 10
38.59178737099442
 20
10.20575086550412
 30
0.0
 10
39.93503010069333
 20
11.54899359520303
 30
0.0
 10
41.59177651954997
 20
11.54899359520303
 30
0.0
 10
43.24886744795515
 20
11.54899359520303
 30
0.0
 10
44.59211017765406
 20
10.20575086550412
 30
0.0
 10
44.59211017765406
 20
8.549004446647471
 30
0.0
  0
SPLINE
  5
57
330
1F
100
AcDbEntity
  8
LAYER_1
 62
     7
100
AcDbSpline
210
0.0
220
0.0
230
1.0
 70
    11
 71
     3
 72
    17
 73
    13
 74
     0
 42
0.0000000001
 43
0.0000000001
 40
0.0
 40
0.0
 40
0.0
 40
0.0
 40
1.0
 40
1.0
 40
1.0
 40
2.0
 40
2.0
 40
2.0
 40
3.0
 40
3.0
 40
3.0
 40
4.0
 40
4.0
 40
4.0
 40
4.0
 10
47.52113035921347
 20
13.99466688018189
 30
0.0
 10
47.52113035921347
 20
10.68082953292007
 30
0.0
 10
44.83498940936417
 20
7.993655054425198
 30
0.0
 10
41.52115206210235
 20
7.993655054425198
 30
0.0
 10
38.20731471484054
 20
7.993655054425198
 30
0.0
 10
35.52117376499124
 20
10.68082953292007
 30
0.0
 10
35.52117376499124
 20
13.99466688018189
 30
0.0
 10
35.52117376499124
 20
17.30678167970108
 30
0.0
 10
38.20731471484054
 20
19.99533419639006
 30
0.0
 10
41.52115206210235
 20
19.99533419639006
 30
0.0
 10
44.83498940936417
 20
19.99533419639006
 30
0.0
 10
47.52113035921347
 20
17.30678167970108
 30
0.0
 10
47.52113035921347
 20
13.99466688018189
 30
0.0
  0
SPLINE
  5
58
330
1F
100
AcDbEntity
  8
LAYER_1
 62
     7
100
AcDbSpline
210
0.0
220
0.0
230
1.0
 70
    11
 71
     3
 72
    38
 73
    34
 74
     0
 42
0.0000000001
 43
0.0000000001
 40
0.0
 40
0.0
 40
0.0
 40
0.0
 40
1.0
 40
1.0
 40
1.0
 40
2.0
 40
2.0
 40
2.0
 40
3.0
 40
3.0
 40
3.0
 40
4.0
 40
4.0
 40
4.0
 40
5.0
 40
5.0
 40
5.0
 40
6.0
 40
6.0
 40
6.0
 40
7.0
 40
7.0
 40
7.0
 40
8.0
 40
8.0
 40
8.0
 40
9.0
 40
9.0
 40
9.0
 40
10.0
 40
10.0
 40
10.0
 40
11.0
 40
11.0
 40
11.0
 40
11.0
 10
51.52157523668558
 20
8.89385850472098
 30
0.0
 10
51.52157523668558
 20
8.89385850472098
 30
0.0
 10
49.52066377885247
 20
8.89385850472098
 30
0.0
 10
49.52066377885247
 20
8.89385850472098
 30
0.0
 10
47.91938339730835
 20
8.89385850472098
 30
0.0
 10
46.62127141846621
 20
7.596091035427366
 30
0.0
 10
46.62127141846621
 20
5.994466144334717
 30
0.0
 10
46.62127141846621
 20
5.994466144334717
 30
0.0
 10
46.62127141846621
 20
4.000100367923586
 30
0.0
 10
46.62127141846621
 20
4.000100367923586
 30
0.0
 10
46.62127141846621
 20
4.000100367923586
 30
0.0
 10
46.62127141846621
 20
3.095073783948454
 30
0.0
 10
46.62127141846621
 20
3.095073783948454
 30
0.0
 10
46.62127141846621
 20
3.095073783948454
 30
0.0
 10
46.62127141846621
 20
0.0
 30
0.0
 10
46.62127141846621
 20
0.0
 30
0.0
 10
46.62127141846621
 20
0.0
 30
0.0
 10
51.52157523668558
 20
0.0
 30
0.0
 10
51.52157523668558
 20
0.0
 30
0.0
 10
51.52157523668558
 20
0.0
 30
0.0
 10
52.88066540561664
 20
0.0
 30
0.0
 10
52.88066540561664
 20
0.0
 30
0.0
 10
52.88066540561664
 20
0.0
 30
0.0
 10
55.52133109506064
 20
0.0
 30
0.0
 10
55.52133109506064
 20
0.0
 30
0.0
 10
55.52133109506064
 20
0.0
 30
0.0
 10
55.52133109506064
 20
8.901782224337055
 30
0.0
 10
55.52133109506064
 20
8.901782224337055
 30
0.0
 10
55.52133109506064
 20
8.901782224337055
 30
0.0
 10
51.52157523668558
 20
8.901782224337055
 30
0.0
 10
51.52157523668558
 20
8.901782224337055
 30
0.0
 10
51.52157523668558
 20
8.901782224337055
 30
0.0
 10
51.52157523668558
 20
8.89385850472098
 30
0.0
 10
51.52157523668558
 20
8.89385850472098
 30
0.0
  0
SPLINE
  5
59
330
1F
100
AcDbEntity
  8
LAYER_1
 62
     7
100
AcDbSpline
210
0.0
220
0.0
230
1.0
 70
    11
 71
     3
 72
    38
 73
    34
 74
     0
 42
0.0000000001
 43
0.0000000001
 40
0.0
 40
0.0
 40
0.0
 40
0.0
 40
1.0
 40
1.0
 40
1.0
 40
2.0
 40
2.0
 40
2.0
 40
3.0
 40
3.0
 40
3.0
 40
4.0
 40
4.0
 40
4.0
 40
5.0
 40
5.0
 40
5.0
 40
6.0
 40
6.0
 40
6.0
 40
7.0
 40
7.0
 40
7.0
 40
8.0
 40
8.0
 40
8.0
 40
9.0
 40
9.0
 40
9.0
 40
10.0
 40
10.0
 40
10.0
 40
11.0
 40
11.0
 40
11.0
 40
11.0
 10
46.62127141846621
 20
27.99587944178575
 30
0.0
 10
46.62127141846621
 20
27.99587944178575
 30
0.0
 10
46.62127141846621
 20
25.61841904741484
 30
0.0
 10
46.62127141846621
 20
25.61841904741484
 30
0.0
 10
46.62127141846621
 20
25.61841904741484
 30
0.0
 10
46.62127141846621
 20
23.99577907386217
 30
0.0
 10
46.62127141846621
 20
23.99577907386217
 30
0.0
 10
46.62127141846621
 20
23.99577907386217
 30
0.0
 10
46.62127141846621
 20
21.99486761602906
 30
0.0
 10
46.62127141846621
 20
21.99486761602906
 30
0.0
 10
46.62127141846621
 20
20.39324272493641
 30
0.0
 10
47.91938339730835
 20
19.0954752556428
 30
0.0
 10
49.52066377885247
 20
19.0954752556428
 30
0.0
 10
49.52066377885247
 20
19.0954752556428
 30
0.0
 10
51.52295327487968
 20
19.0954752556428
 30
0.0
 10
51.52295327487968
 20
19.0954752556428
 30
0.0
 10
51.52295327487968
 20
19.0954752556428
 30
0.0
 10
53.11596542725921
 20
19.0954752556428
 30
0.0
 10
53.11596542725921
 20
19.0954752556428
 30
0.0
 10
53.11596542725921
 20
19.0954752556428
 30
0.0
 10
55.52270913325474
 20
19.0954752556428
 30
0.0
 10
55.52270913325474
 20
19.0954752556428
 30
0.0
 10
55.52270913325474
 20
19.0954752556428
 30
0.0
 10
55.52270913325474
 20
23.99577907386217
 30
0.0
 10
55.52270913325474
 20
23.99577907386217
 30
0.0
 10
55.52270913325474
 20
23.99577907386217
 30
0.0
 10
55.52270913325474
 20
25.35521375234175
 30
0.0
 10
55.52270913325474
 20
25.35521375234175
 30
0.0
 10
55.52270913325474
 20
25.35521375234175
 30
0.0
 10
55.52270913325474
 20
27.99587944178575
 30
0.0
 10
55.52270913325474
 20
27.99587944178575
 30
0.0
 10
55.52270913325474
 20
27.99587944178575
 30
0.0
 10
46.62127141846621
 20
27.99587944178575
 30
0.0
 10
46.62127141846621
 20
27.99587944178575
 30
0.0
  0
INSERT
  5
5B
330
1F
100
AcDbEntity
  8
LAYER_1
100
AcDbBlockReference
  2
BLOCK_2
 10
0.0
 20
0.0
 30
0.0
  0
ENDSEC
  0
SECTION
  2
OBJECTS
  0
DICTIONARY
  5
C
330
0
100
AcDbDictionary
  3
ACAD_GROUP
350
D
  3
ACAD_LAYOUT
350
1A
  3
ACAD_MLINESTYLE
350
17
  3
ACAD_PLOTSETTINGS
350
19
  3
ACAD_TABLESTYLE
350
60
  3
ACAD_VISUALSTYLE
350
2A
1001
ACAD
1000
TREAT_AS_HARD
1070
     0
  0
DICTIONARY
  5
D
102
{ACAD_REACTORS
330
C
102
}
330
C
100
AcDbDictionary
1001
ACAD
1000
TREAT_AS_HARD
1070
     0
  0
DICTIONARY
  5
1A
102
{ACAD_REACTORS
330
C
102
}
330
C
100
AcDbDictionary
1001
ACAD
1000
TREAT_AS_HARD
1070
     0
  0
DICTIONARY
  5
17
102
{ACAD_REACTORS
330
C
102
}
330
C
100
AcDbDictionary
  3
STANDARD
350
18
1001
ACAD
1000
TREAT_AS_HARD
1070
     0
  0
DICTIONARY
  5
19
102
{ACAD_REACTORS
330
C
102
}
330
C
100
AcDbDictionary
1001
ACAD
1000
TREAT_AS_HARD
1070
     0
  0
DICTIONARY
  5
60
102
{ACAD_REACTORS
330
C
102
}
330
C
100
AcDbDictionary
1001
ACAD
1000
TREAT_AS_HARD
1070
     0
  0
DICTIONARY
  5
2A
102
{ACAD_REACTORS
330
C
102
}
330
C
100
AcDbDictionary
  3
2DWIREFRAME
350
2F
  3
3D_HIDDEN
350
31
  3
3DWIREFRAME
350
30
  3
BASIC
350
32
  3
BRIGHTEN
350
36
  3
COLORCHANGE
350
3A
  3
CONCEPTUAL
350
34
  3
DIM
350
35
  3
FACEPATTERN
350
39
  3
FLAT
350
2B
  3
FLATWITHEDGES
350
2C
  3
GOURAUD
350
2D
  3
GOURAUDWITHEDGES
350
2E
  3
LINEPATTERN
350
38
  3
REALISTIC
350
33
  3
THICKEN
350
37
1001
ACAD
1000
TREAT_AS_HARD
1070
     0
  0
MLINESTYLE
  5
18
102
{ACAD_REACTORS
330
17
102
}
330
17
100
AcDbMlineStyle
  2
Standard
 70
     0
  3

 62
   256
 51
90.0
 52
90.0
 71
     2
 49
0.5
 62
   256
  6
BYLAYER
 49
-0.5
 62
   256
  6
BYLAYER
  0
VISUALSTYLE
  5
2F
102
{ACAD_REACTORS
330
2A
102
}
330
2A
100
AcDbVisualStyle
  2
2dWireframe
 70
     4
 71
     0
 72
     2
 73
     0
 90
        0
 40
-0.6
 41
-30.0
 62
     5
 63
     7
 74
     1
 91
        4
 64
     7
 65
   257
 75
     1
175
     1
 42
1.0
 92
        0
 66
   257
 43
1.0
 76
     1
 77
     6
 78
     2
 67
     7
 79
     5
170
     0
171
     0
290
     0
174
     0
 93
        1
 44
0.0
173
     0
291
     0
 45
0.0
1001
ACAD
1000
AcDbSavedByObjectVersion
1070
     0
  0
VISUALSTYLE
  5
31
102
{ACAD_REACTORS
330
2A
102
}
330
2A
100
AcDbVisualStyle
  2
3D Hidden
 70
     6
 71
     1
 72
     2
 73
     2
 90
        0
 40
-0.6
 41
-30.0
 62
     5
 63
     7
 74
     2
 91
        2
 64
     7
 65
   257
 75
     2
175
     1
 42
40.0
 92
        0
 66
   257
 43
1.0
 76
     1
 77
     6
 78
     2
 67
     7
 79
     3
170
     0
171
     0
290
     0
174
     0
 93
        1
 44
0.0
173
     0
291
     0
 45
0.0
1001
ACAD
1000
AcDbSavedByObjectVersion
1070
     0
  0
VISUALSTYLE
  5
30
102
{ACAD_REACTORS
330
2A
102
}
330
2A
100
AcDbVisualStyle
  2
3dWireframe
 70
     5
 71
     0
 72
     2
 73
     0
 90
        0
 40
-0.6
 41
-30.0
 62
     5
 63
     7
 74
     1
 91
        4
 64
     7
 65
   257
 75
     1
175
     1
 42
1.0
 92
        0
 66
   257
 43
1.0
 76
     1
 77
     6
 78
     2
 67
     7
 79
     5
170
     0
171
     0
290
     0
174
     0
 93
        1
 44
0.0
173
     0
291
     0
 45
0.0
1001
ACAD
1000
AcDbSavedByObjectVersion
1070
     0
  0
VISUALSTYLE
  5
32
102
{ACAD_REACTORS
330
2A
102
}
330
2A
100
AcDbVisualStyle
  2
Basic
 70
     7
 71
     1
 72
     0
 73
     1
 90
        0
 40
-0.6
 41
-30.0
 62
     5
 63
     7
 74
     0
 91
        4
 64
     7
 65
   257
 75
     1
175
     1
 42
1.0
 92
        8
 66
     7
 43
1.0
 76
     1
 77
     6
 78
     2
 67
     7
 79
     5
170
     0
171
     0
290
     0
174
     0
 93
        1
 44
0.0
173
     0
291
     1
 45
0.0
1001
ACAD
1000
AcDbSavedByObjectVersion
1070
     0
  0
VISUALSTYLE
  5
36
102
{ACAD_REACTORS
330
2A
102
}
330
2A
100
AcDbVisualStyle
  2
Brighten
 70
    12
 71
     2
 72
     2
 73
     0
 90
        0
 40
-0.6
 41
-30.0
 62
     5
 63
     7
 74
     1
 91
        4
 64
     7
 65
   257
 75
     1
175
     1
 42
1.0
 92
        8
 66
     7
 43
1.0
 76
     1
 77
     6
 78
     2
 67
     7
 79
     5
170
     0
171
     0
290
     0
174
     0
 93
        1
 44
50.0
173
     0
291
     1
 45
0.0
1001
ACAD
1000
AcDbSavedByObjectVersion
1070
     0
  0
VISUALSTYLE
  5
3A
102
{ACAD_REACTORS
330
2A
102
}
330
2A
100
AcDbVisualStyle
  2
ColorChange
 70
    16
 71
     2
 72
     2
 73
     3
 90
        0
 40
-0.6
 41
-30.0
 62
     5
 63
     8
 74
     1
 91
        4
 64
     7
 65
   257
 75
     1
175
     1
 42
1.0
 92
        8
 66
     8
 43
1.0
 76
     1
 77
     6
 78
     2
 67
     7
 79
     5
170
     0
171
     0
290
     0
174
     0
 93
        1
 44
0.0
173
     0
291
     1
 45
0.0
1001
ACAD
1000
AcDbSavedByObjectVersion
1070
     0
  0
VISUALSTYLE
  5
34
102
{ACAD_REACTORS
330
2A
102
}
330
2A
100
AcDbVisualStyle
  2
Conceptual
 70
     9
 71
     3
 72
     2
 73
     0
 90
        0
 40
-0.6
 41
-30.0
 62
     5
 63
     7
 74
     2
 91
        2
 64
     7
 65
   257
 75
     1
175
     1
 42
40.0
 92
        8
 66
     7
 43
1.0
 76
     1
 77
     6
 78
     2
 67
     7
 79
     3
170
     0
171
     0
290
     0
174
     0
 93
        1
 44
0.0
173
     0
291
     0
 45
0.0
1001
ACAD
1000
AcDbSavedByObjectVersion
1070
     0
  0
VISUALSTYLE
  5
35
102
{ACAD_REACTORS
330
2A
102
}
330
2A
100
AcDbVisualStyle
  2
Dim
 70
    11
 71
     2
 72
     2
 73
     0
 90
        0
 40
-0.6
 41
-30.0
 62
     5
 63
     7
 74
     1
 91
        4
 64
     7
 65
   257
 75
     1
175
     1
 42
1.0
 92
        8
 66
     7
 43
1.0
 76
     1
 77
     6
 78
     2
 67
     7
 79
     5
170
     0
171
     0
290
     0
174
     0
 93
        1
 44
-50.0
173
     0
291
     1
 45
0.0
1001
ACAD
1000
AcDbSavedByObjectVersion
1070
     0
  0
VISUALSTYLE
  5
39
102
{ACAD_REACTORS
330
2A
102
}
330
2A
100
AcDbVisualStyle
  2
Facepattern
 70
    15
 71
     2
 72
     2
 73
     0
 90
        0
 40
-0.6
 41
-30.0
 62
     5
 63
     7
 74
     1
 91
        4
 64
     7
 65
   257
 75
     1
175
     1
 42
1.0
 92
        8
 66
     7
 43
1.0
 76
     1
 77
     6
 78
     2
 67
     7
 79
     5
170
     0
171
     0
290
     0
174
     0
 93
        1
 44
0.0
173
     0
291
     1
 45
0.0
1001
ACAD
1000
AcDbSavedByObjectVersion
1070
     0
  0
VISUALSTYLE
  5
2B
102
{ACAD_REACTORS
330
2A
102
}
330
2A
100
AcDbVisualStyle
  2
Flat
 70
     0
 71
     2
 72
     1
 73
     1
 90
        2
 40
-0.6
 41
30.0
 62
     5
 63
     7
 74
     0
 91
        4
 64
     7
 65
   257
 75
     1
175
     1
 42
1.0
 92
        8
 66
     7
 43
1.0
 76
     1
 77
     6
 78
     2
 67
     7
 79
     5
170
     0
171
     0
290
     0
174
     0
 93
       13
 44
0.0
173
     0
291
     1
 45
0.0
1001
ACAD
1000
AcDbSavedByObjectVersion
1070
     0
  0
VISUALSTYLE
  5
2C
102
{ACAD_REACTORS
330
2A
102
}
330
2A
100
AcDbVisualStyle
  2
FlatWithEdges
 70
     1
 71
     2
 72
     1
 73
     1
 90
        2
 40
-0.6
 41
30.0
 62
     5
 63
     7
 74
     1
 91
        4
 64
     7
 65
   257
 75
     1
175
     1
 42
1.0
 92
        0
 66
   257
 43
1.0
 76
     1
 77
     6
 78
     2
 67
     7
 79
     5
170
     0
171
     0
290
     0
174
     0
 93
       13
 44
0.0
173
     0
291
     1
 45
0.0
1001
ACAD
1000
AcDbSavedByObjectVersion
1070
     0
  0
VISUALSTYLE
  5
2D
102
{ACAD_REACTORS
330
2A
102
}
330
2A
100
AcDbVisualStyle
  2
Gouraud
 70
     2
 71
     2
 72
     2
 73
     1
 90
        2
 40
-0.6
 41
30.0
 62
     5
 63
     7
 74
     0
 91
        4
 64
     7
 65
   257
 75
     1
175
     1
 42
1.0
 92
        0
 66
     7
 43
1.0
 76
     1
 77
     6
 78
     2
 67
     7
 79
     5
170
     0
171
     0
290
     0
174
     0
 93
       13
 44
0.0
173
     0
291
     1
 45
0.0
1001
ACAD
1000
AcDbSavedByObjectVersion
1070
     0
  0
VISUALSTYLE
  5
2E
102
{ACAD_REACTORS
330
2A
102
}
330
2A
100
AcDbVisualStyle
  2
GouraudWithEdges
 70
     3
 71
     2
 72
     2
 73
     1
 90
        2
 40
-0.6
 41
30.0
 62
     5
 63
     7
 74
     1
 91
        4
 64
     7
 65
   257
 75
     1
175
     1
 42
1.0
 92
        0
 66
   257
 43
1.0
 76
     1
 77
     6
 78
     2
 67
     7
 79
     5
170
     0
171
     0
290
     0
174
     0
 93
       13
 44
0.0
173
     0
291
     1
 45
0.0
1001
ACAD
1000
AcDbSavedByObjectVersion
1070
     0
  0
VISUALSTYLE
  5
38
102
{ACAD_REACTORS
330
2A
102
}
330
2A
100
AcDbVisualStyle
  2
Linepattern
 70
    14
 71
     2
 72
     2
 73
     0
 90
        0
 40
-0.6
 41
-30.0
 62
     5
 63
     7
 74
     1
 91
        4
 64
     7
 65
   257
 75
     7
175
     7
 42
1.0
 92
        8
 66
     7
 43
1.0
 76
     1
 77
     6
 78
     2
 67
     7
 79
     5
170
     0
171
     0
290
     0
174
     0
 93
        1
 44
0.0
173
     0
291
     1
 45
0.0
1001
ACAD
1000
AcDbSavedByObjectVersion
1070
     0
  0
VISUALSTYLE
  5
33
102
{ACAD_REACTORS
330
2A
102
}
330
2A
100
AcDbVisualStyle
  2
Realistic
 70
     8
 71
     2
 72
     2
 73
     0
 90
        0
 40
-0.6
 41
-30.0
 62
     5
 63
     7
 74
     1
 91
        0
 64
     7
 65
   257
 75
     1
175
     1
 42
1.0
 92
        8
 66
     8
 43
1.0
 76
     1
 77
     6
 78
     2
 67
     7
 79
     5
170
     0
171
     0
290
     0
174
     0
 93
       13
 44
0.0
173
     0
291
     0
 45
0.0
1001
ACAD
1000
AcDbSavedByObjectVersion
1070
     0
  0
VISUALSTYLE
  5
37
102
{ACAD_REACTORS
330
2A
102
}
330
2A
100
AcDbVisualStyle
  2
Thicken
 70
    13
 71
     2
 72
     2
 73
     0
 90
        0
 40
-0.6
 41
-30.0
 62
     5
 63
     7
 74
     1
 91
        4
 64
     7
 65
   257
 75
     1
175
     1
 42
1.0
 92
       12
 66
     7
 43
1.0
 76
     1
 77
     6
 78
     2
 67
     7
 79
     5
170
     0
171
     0
290
     0
174
     0
 93
        1
 44
0.0
173
     0
291
     1
 45
0.0
1001
ACAD
1000
AcDbSavedByObjectVersion
1070
     0
  0
ENDSEC
  0
EOF
