  0
SECTION
  2
HEADER
  9
$ACADVER
  1
AC1012
  9
$DWGCODEPAGE
  3
ansi_1252
  9
$INSBASE
 10
0.0
 20
0.0
 30
0.0
  9
$EXTMIN
 10
1.000000000000000E+20
 20
1.000000000000000E+20
 30
1.000000000000000E+20
  9
$EXTMAX
 10
-1.000000000000000E+20
 20
-1.000000000000000E+20
 30
-1.000000000000000E+20
  9
$LIMMIN
 10
0.0
 20
0.0
  9
$LIMMAX
 10
12.0
 20
9.0
  9
$ORTHOMODE
 70
     0
  9
$REGENMODE
 70
     1
  9
$FILLMODE
 70
     1
  9
$QTEXTMODE
 70
     0
  9
$MIRRTEXT
 70
     1
  9
$DRAGMODE
 70
     2
  9
$LTSCALE
 40
1.0
  9
$OSMODE
 70
    37
  9
$ATTMODE
 70
     1
  9
$TEXTSIZE
 40
0.2
  9
$TRACEWID
 40
0.05
  9
$TEXTSTYLE
  7
STANDARD
  9
$CLAYER
  8
0
  9
$CELTYPE
  6
BYLAYER
  9
$CECOLOR
 62
   256
  9
$CELTSCALE
 40
1.0
  9
$DELOBJ
 70
     1
  9
$DISPSILH
 70
     0
  9
$DIMSCALE
 40
1.0
  9
$DIMASZ
 40
0.18
  9
$DIMEXO
 40
0.0625
  9
$DIMDLI
 40
0.38
  9
$DIMRND
 40
0.0
  9
$DIMDLE
 40
0.0
  9
$DIMEXE
 40
0.18
  9
$DIMTP
 40
0.0
  9
$DIMTM
 40
0.0
  9
$DIMTXT
 40
0.18
  9
$DIMCEN
 40
0.09
  9
$DIMTSZ
 40
0.0
  9
$DIMTOL
 70
     0
  9
$DIMLIM
 70
     0
  9
$DIMTIH
 70
     1
  9
$DIMTOH
 70
     1
  9
$DIMSE1
 70
     0
  9
$DIMSE2
 70
     0
  9
$DIMTAD
 70
     0
  9
$DIMZIN
 70
     0
  9
$DIMBLK
  1

  9
$DIMASO
 70
     1
  9
$DIMSHO
 70
     1
  9
$DIMPOST
  1

  9
$DIMAPOST
  1

  9
$DIMALT
 70
     0
  9
$DIMALTD
 70
     2
  9
$DIMALTF
 40
25.4
  9
$DIMLFAC
 40
1.0
  9
$DIMTOFL
 70
     0
  9
$DIMTVP
 40
0.0
  9
$DIMTIX
 70
     0
  9
$DIMSOXD
 70
     0
  9
$DIMSAH
 70
     0
  9
$DIMBLK1
  1

  9
$DIMBLK2
  1

  9
$DIMSTYLE
  2
STANDARD
  9
$DIMCLRD
 70
     0
  9
$DIMCLRE
 70
     0
  9
$DIMCLRT
 70
     0
  9
$DIMTFAC
 40
1.0
  9
$DIMGAP
 40
0.09
  9
$DIMJUST
 70
     0
  9
$DIMSD1
 70
     0
  9
$DIMSD2
 70
     0
  9
$DIMTOLJ
 70
     1
  9
$DIMTZIN
 70
     0
  9
$DIMALTZ
 70
     0
  9
$DIMALTTZ
 70
     0
  9
$DIMFIT
 70
     3
  9
$DIMUPT
 70
     0
  9
$DIMUNIT
 70
     2
  9
$DIMDEC
 70
     4
  9
$DIMTDEC
 70
     4
  9
$DIMALTU
 70
     2
  9
$DIMALTTD
 70
     2
  9
$DIMTXSTY
  7
STANDARD
  9
$DIMAUNIT
 70
     0
  9
$LUNITS
 70
     2
  9
$LUPREC
 70
     4
  9
$SKETCHINC
 40
0.1
  9
$FILLETRAD
 40
0.5
  9
$AUNITS
 70
     0
  9
$AUPREC
 70
     0
  9
$MENU
  1
.
  9
$ELEVATION
 40
0.0
  9
$PELEVATION
 40
0.0
  9
$THICKNESS
 40
0.0
  9
$LIMCHECK
 70
     0
  9
$CHAMFERA
 40
0.5
  9
$CHAMFERB
 40
0.5
  9
$CHAMFERC
 40
1.0
  9
$CHAMFERD
 40
0.0
  9
$SKPOLY
 70
     0
  9
$TDCREATE
 40
2456540.450790012
  9
$TDUPDATE
 40
2456540.450790023
  9
$TDINDWG
 40
0.0000000116
  9
$TDUSRTIMER
 40
0.0000000116
  9
$USRTIMER
 70
     1
  9
$ANGBASE
 50
0.0
  9
$ANGDIR
 70
     0
  9
$PDMODE
 70
     0
  9
$PDSIZE
 40
0.0
  9
$PLINEWID
 40
0.0
  9
$COORDS
 70
     1
  9
$SPLFRAME
 70
     0
  9
$SPLINETYPE
 70
     6
  9
$SPLINESEGS
 70
     8
  9
$ATTDIA
 70
     0
  9
$ATTREQ
 70
     1
  9
$HANDLING
 70
     1
  9
$HANDSEED
  5
5D
  9
$SURFTAB1
 70
     6
  9
$SURFTAB2
 70
     6
  9
$SURFTYPE
 70
     6
  9
$SURFU
 70
     6
  9
$SURFV
 70
     6
  9
$UCSNAME
  2

  9
$UCSORG
 10
0.0
 20
0.0
 30
0.0
  9
$UCSXDIR
 10
1.0
 20
0.0
 30
0.0
  9
$UCSYDIR
 10
0.0
 20
1.0
 30
0.0
  9
$PUCSNAME
  2

  9
$PUCSORG
 10
0.0
 20
0.0
 30
0.0
  9
$PUCSXDIR
 10
1.0
 20
0.0
 30
0.0
  9
$PUCSYDIR
 10
0.0
 20
1.0
 30
0.0
  9
$USERI1
 70
     0
  9
$USERI2
 70
     0
  9
$USERI3
 70
     0
  9
$USERI4
 70
     0
  9
$USERI5
 70
     0
  9
$USERR1
 40
0.0
  9
$USERR2
 40
0.0
  9
$USERR3
 40
0.0
  9
$USERR4
 40
0.0
  9
$USERR5
 40
0.0
  9
$WORLDVIEW
 70
     1
  9
$SHADEDGE
 70
     3
  9
$SHADEDIF
 70
    70
  9
$TILEMODE
 70
     1
  9
$MAXACTVP
 70
    64
  9
$PINSBASE
 10
0.0
 20
0.0
 30
0.0
  9
$PLIMCHECK
 70
     0
  9
$PEXTMIN
 10
1.000000000000000E+20
 20
1.000000000000000E+20
 30
1.000000000000000E+20
  9
$PEXTMAX
 10
-1.000000000000000E+20
 20
-1.000000000000000E+20
 30
-1.000000000000000E+20
  9
$PLIMMIN
 10
0.0
 20
0.0
  9
$PLIMMAX
 10
12.0
 20
9.0
  9
$UNITMODE
 70
     0
  9
$VISRETAIN
 70
     1
  9
$PLINEGEN
 70
     0
  9
$PSLTSCALE
 70
     1
  9
$TREEDEPTH
 70
  3020
  9
$PICKSTYLE
 70
     1
  9
$CMLSTYLE
  2
STANDARD
  9
$CMLJUST
 70
     0
  9
$CMLSCALE
 40
1.0
  9
$SAVEIMAGES
 70
     1
  0
ENDSEC
  0
SECTION
  2
CLASSES
  0
CLASS
  1
ACDBDICTIONARYWDFLT
  2
AcDbDictionaryWithDefault
  3
ObjectDBX Classes
 90
    32768
280
     0
281
     0
  0
CLASS
  1
VISUALSTYLE
  2
AcDbVisualStyle
  3
ObjectDBX Classes
 90
     4095
280
     0
281
     0
  0
CLASS
  1
XRECORD
  2
AcDbXrecord
  3
AutoCAD 2000
 90
    32768
280
     0
281
     0
  0
CLASS
  1
LWPOLYLINE
  2
AcDbPolyline
  3
AutoCAD 2000
 90
    32768
280
     0
281
     1
  0
CLASS
  1
HATCH
  2
AcDbHatch
  3
AutoCAD 2000
 90
    32768
280
     0
281
     1
  0
CLASS
  1
ACDBPLACEHOLDER
  2
AcDbPlaceHolder
  3
ObjectDBX Classes
 90
        0
280
     0
281
     0
  0
CLASS
  1
LAYOUT
  2
AcDbLayout
  3
ObjectDBX Classes
 90
        0
280
     0
281
     0
  0
ENDSEC
  0
SECTION
  2
TABLES
  0
TABLE
  2
VPORT
  5
8
330
0
100
AcDbSymbolTable
 70
     1
  0
VPORT
  5
29
330
8
100
AcDbSymbolTableRecord
100
AcDbViewportTableRecord
  2
*ACTIVE
 70
     0
 10
0.0
 20
0.0
 11
1.0
 21
1.0
 12
0.0
 22
0.0
 13
0.0
 23
0.0
 14
0.5
 24
0.5
 15
0.5
 25
0.5
 16
0.0
 26
0.0
 36
1.0
 17
148.4999796178229
 27
-105.0008259828644
 37
0.0
 40
210.0016519657288
 41
1.414274394775308
 42
50.0
 43
0.0
 44
0.0
 50
0.0
 51
0.0
 71
     0
 72
   100
 73
     1
 74
     3
 75
     0
 76
     0
 77
     0
 78
     0
  0
ENDTAB
  0
TABLE
  2
LTYPE
  5
5
330
0
100
AcDbSymbolTable
 70
     1
  0
LTYPE
  5
14
330
5
100
AcDbSymbolTableRecord
100
AcDbLinetypeTableRecord
  2
BYBLOCK
 70
     0
  3

 72
    65
 73
     0
 40
0.0
  0
LTYPE
  5
15
330
5
100
AcDbSymbolTableRecord
100
AcDbLinetypeTableRecord
  2
BYLAYER
 70
     0
  3

 72
    65
 73
     0
 40
0.0
  0
LTYPE
  5
16
330
5
100
AcDbSymbolTableRecord
100
AcDbLinetypeTableRecord
  2
CONTINUOUS
 70
     0
  3
Solid line
 72
    65
 73
     0
 40
0.0
  0
ENDTAB
  0
TABLE
  2
LAYER
  5
2
330
0
100
AcDbSymbolTable
 70
     2
  0
LAYER
  5
10
330
2
100
AcDbSymbolTableRecord
100
AcDbLayerTableRecord
  2
0
 70
     0
 62
     7
  6
CONTINUOUS
  0
LAYER
  5
3B
330
2
100
AcDbSymbolTableRecord
100
AcDbLayerTableRecord
  2
LAYER_1
 70
     0
 62
     7
  6
CONTINUOUS
  0
ENDTAB
  0
TABLE
  2
STYLE
  5
3
330
0
100
AcDbSymbolTable
 70
     1
  0
STYLE
  5
11
330
3
100
AcDbSymbolTableRecord
100
AcDbTextStyleTableRecord
  2
STANDARD
 70
     0
 40
0.0
 41
1.0
 50
0.0
 71
     0
 42
0.2
  3
txt
  4

  0
ENDTAB
  0
TABLE
  2
VIEW
  5
6
330
0
100
AcDbSymbolTable
 70
     0
  0
ENDTAB
  0
TABLE
  2
UCS
  5
7
330
0
100
AcDbSymbolTable
 70
     0
  0
ENDTAB
  0
TABLE
  2
APPID
  5
9
330
0
100
AcDbSymbolTable
 70
     1
  0
APPID
  5
12
330
9
100
AcDbSymbolTableRecord
100
AcDbRegAppTableRecord
  2
ACAD
 70
     0
  0
ENDTAB
  0
TABLE
  2
DIMSTYLE
  5
A
330
0
100
AcDbSymbolTable
 70
     1
  0
DIMSTYLE
105
27
330
A
100
AcDbSymbolTableRecord
100
AcDbDimStyleTableRecord
  2
STANDARD
 70
     0
  3

  4

  5

  6

  7

 40
1.0
 41
0.18
 42
0.0625
 43
0.38
 44
0.18
 45
0.0
 46
0.0
 47
0.0
 48
0.0
140
0.18
141
0.09
142
0.0
143
25.4
144
1.0
145
0.0
146
1.0
147
0.09
 71
     0
 72
     0
 73
     1
 74
     1
 75
     0
 76
     0
 77
     0
 78
     0
170
     0
171
     2
172
     0
173
     0
174
     0
175
     0
176
     0
177
     0
178
     0
270
     2
271
     4
272
     4
273
     2
274
     2
340
11
275
     0
280
     0
281
     0
282
     0
283
     1
284
     0
285
     0
286
     0
287
     3
288
     0
  0
ENDTAB
  0
TABLE
  2
BLOCK_RECORD
  5
1
330
0
100
AcDbSymbolTable
 70
     3
  0
BLOCK_RECORD
  5
1F
330
1
100
AcDbSymbolTableRecord
100
AcDbBlockTableRecord
  2
*MODEL_SPACE
  0
BLOCK_RECORD
  5
1B
330
1
100
AcDbSymbolTableRecord
100
AcDbBlockTableRecord
  2
*PAPER_SPACE
  0
BLOCK_RECORD
  5
3C
330
1
100
AcDbSymbolTableRecord
100
AcDbBlockTableRecord
  2
BLOCK_2
  0
BLOCK_RECORD
  5
4C
330
1
100
AcDbSymbolTableRecord
100
AcDbBlockTableRecord
  2
BLOCK_3
  0
ENDTAB
  0
ENDSEC
  0
SECTION
  2
BLOCKS
  0
BLOCK
  5
20
330
1F
100
AcDbEntity
  8
0
100
AcDbBlockBegin
  2
*MODEL_SPACE
 70
     0
 71
     0
 10
0.0
 20
0.0
 30
0.0
  3
*MODEL_SPACE
  1

  0
ENDBLK
  5
21
330
1F
100
AcDbEntity
  8
0
100
AcDbBlockEnd
  0
BLOCK
  5
1C
330
1B
100
AcDbEntity
 67
     1
  8
0
100
AcDbBlockBegin
  2
*PAPER_SPACE
 70
     0
 71
     0
 10
0.0
 20
0.0
 30
0.0
  3
*PAPER_SPACE
  1

  0
ENDBLK
  5
1D
330
1B
100
AcDbEntity
 67
     1
  8
0
100
AcDbBlockEnd
  0
BLOCK
  5
3E
330
3C
100
AcDbEntity
  8
0
100
AcDbBlockBegin
  2
BLOCK_2
 70
     0
 71
     0
 10
0.0
 20
0.0
 30
0.0
  3
BLOCK_2
  1

  0
SPLINE
  5
40
330
3C
100
AcDbEntity
  8
LAYER_1
 62
   250
100
AcDbSpline
210
0.0
220
0.0
230
1.0
 70
    11
 71
     3
 72
    17
 73
    13
 74
     0
 42
0.0000000001
 43
0.0000000001
 40
0.0
 40
0.0
 40
0.0
 40
0.0
 40
1.0
 40
1.0
 40
1.0
 40
2.0
 40
2.0
 40
2.0
 40
3.0
 40
3.0
 40
3.0
 40
4.0
 40
4.0
 40
4.0
 40
4.0
 10
11.25030381663187
 20
70.00037840046866
 30
0.0
 10
11.25030381663187
 20
69.3099812652246
 30
0.0
 10
10.69082030982729
 20
68.75032550364575
 30
0.0
 10
10.00042317458323
 20
68.75032550364575
 30
0.0
 10
9.31002603933916
 20
68.75032550364575
 30
0.0
 10
8.750370277760325
 20
69.3099812652246
 30
0.0
 10
8.750370277760325
 20
70.00037840046866
 30
0.0
 10
8.750370277760325
 20
70.69060328093846
 30
0.0
 10
9.31002603933916
 20
71.2502590425173
 30
0.0
 10
10.00042317458323
 20
71.2502590425173
 30
0.0
 10
10.69082030982729
 20
71.2502590425173
 30
0.0
 10
11.25030381663187
 20
70.69060328093846
 30
0.0
 10
11.25030381663187
 20
70.00037840046866
 30
0.0
  0
SPLINE
  5
41
330
3C
100
AcDbEntity
  8
LAYER_1
 62
   250
100
AcDbSpline
210
0.0
220
0.0
230
1.0
 70
    11
 71
     3
 72
    17
 73
    13
 74
     0
 42
0.0000000001
 43
0.0000000001
 40
0.0
 40
0.0
 40
0.0
 40
0.0
 40
1.0
 40
1.0
 40
1.0
 40
2.0
 40
2.0
 40
2.0
 40
3.0
 40
3.0
 40
3.0
 40
4.0
 40
4.0
 40
4.0
 40
4.0
 10
11.25030381663187
 20
10.00042317458323
 30
0.0
 10
11.25030381663187
 20
9.31002603933916
 30
0.0
 10
10.69082030982729
 20
8.750198022986062
 30
0.0
 10
10.00042317458323
 20
8.750198022986062
 30
0.0
 10
9.31002603933916
 20
8.750198022986062
 30
0.0
 10
8.750370277760325
 20
9.31002603933916
 30
0.0
 10
8.750370277760325
 20
10.00042317458323
 30
0.0
 10
8.750370277760325
 20
10.69047580027877
 30
0.0
 10
9.31002603933916
 20
11.25030381663187
 30
0.0
 10
10.00042317458323
 20
11.25030381663187
 30
0.0
 10
10.69082030982729
 20
11.25030381663187
 30
0.0
 10
11.25030381663187
 20
10.69047580027877
 30
0.0
 10
11.25030381663187
 20
10.00042317458323
 30
0.0
  0
SPLINE
  5
42
330
3C
100
AcDbEntity
  8
LAYER_1
 62
     7
100
AcDbSpline
210
0.0
220
0.0
230
1.0
 70
    11
 71
     3
 72
    62
 73
    58
 74
     0
 42
0.0000000001
 43
0.0000000001
 40
0.0
 40
0.0
 40
0.0
 40
0.0
 40
1.0
 40
1.0
 40
1.0
 40
2.0
 40
2.0
 40
2.0
 40
3.0
 40
3.0
 40
3.0
 40
4.0
 40
4.0
 40
4.0
 40
5.0
 40
5.0
 40
5.0
 40
6.0
 40
6.0
 40
6.0
 40
7.0
 40
7.0
 40
7.0
 40
8.0
 40
8.0
 40
8.0
 40
9.0
 40
9.0
 40
9.0
 40
10.0
 40
10.0
 40
10.0
 40
11.0
 40
11.0
 40
11.0
 40
12.0
 40
12.0
 40
12.0
 40
13.0
 40
13.0
 40
13.0
 40
14.0
 40
14.0
 40
14.0
 40
15.0
 40
15.0
 40
15.0
 40
16.0
 40
16.0
 40
16.0
 40
17.0
 40
17.0
 40
17.0
 40
18.0
 40
18.0
 40
18.0
 40
19.0
 40
19.0
 40
19.0
 40
19.0
 10
20.00050183961793
 20
50.00022107039926
 30
0.0
 10
20.00050183961793
 20
50.00022107039926
 30
0.0
 10
20.00050183961793
 20
60.00029973543396
 30
0.0
 10
20.00050183961793
 20
60.00029973543396
 30
0.0
 10
20.00050183961793
 20
60.00029973543396
 30
0.0
 10
15.00029025232632
 20
60.00029973543396
 30
0.0
 10
15.00029025232632
 20
60.00029973543396
 30
0.0
 10
15.00029025232632
 20
60.00029973543396
 30
0.0
 10
15.00029025232632
 20
70.00020614569439
 30
0.0
 10
15.00029025232632
 20
70.00020614569439
 30
0.0
 10
15.00029025232632
 20
70.00020614569439
 30
0.0
 10
15.00786946239387
 20
74.70827363583682
 30
0.0
 10
10.00042317458323
 20
74.70827363583682
 30
0.0
 10
4.953702798240741
 20
74.70827363583682
 30
0.0
 10
5.000383842065877
 20
70.00020614569439
 30
0.0
 10
5.000383842065877
 20
70.00020614569439
 30
0.0
 10
5.000383842065877
 20
70.00020614569439
 30
0.0
 10
5.000383842065877
 20
60.00029973543396
 30
0.0
 10
5.000383842065877
 20
60.00029973543396
 30
0.0
 10
5.000383842065877
 20
60.00029973543396
 30
0.0
 10
0.000344509548525
 20
60.00029973543396
 30
0.0
 10
0.000344509548525
 20
60.00029973543396
 30
0.0
 10
0.000344509548525
 20
60.00029973543396
 30
0.0
 10
0.000344509548525
 20
50.00022107039926
 30
0.0
 10
0.000344509548525
 20
50.00022107039926
 30
0.0
 10
0.000344509548525
 20
50.00022107039926
 30
0.0
 10
5.000383842065877
 20
50.00022107039926
 30
0.0
 10
5.000383842065877
 20
50.00022107039926
 30
0.0
 10
5.000383842065877
 20
50.00022107039926
 30
0.0
 10
5.000383842065877
 20
5.999978297111117
 30
0.0
 10
5.000383842065877
 20
5.999978297111117
 30
0.0
 10
5.000383842065877
 20
5.999978297111117
 30
0.0
 10
0.000344509548525
 20
5.999978297111117
 30
0.0
 10
0.000344509548525
 20
5.999978297111117
 30
0.0
 10
0.000344509548525
 20
5.999978297111117
 30
0.0
 10
0.000344509548525
 20
0.0
 30
0.0
 10
0.000344509548525
 20
0.0
 30
0.0
 10
0.000344509548525
 20
0.0
 30
0.0
 10
5.000383842065877
 20
0.0
 30
0.0
 10
5.000383842065877
 20
0.0
 30
0.0
 10
5.000383842065877
 20
0.0
 30
0.0
 10
15.00029025232632
 20
0.0
 30
0.0
 10
15.00029025232632
 20
0.0
 30
0.0
 10
15.00029025232632
 20
0.0
 30
0.0
 10
20.00050183961793
 20
0.0
 30
0.0
 10
20.00050183961793
 20
0.0
 30
0.0
 10
20.00050183961793
 20
0.0
 30
0.0
 10
20.00050183961793
 20
5.999978297111117
 30
0.0
 10
20.00050183961793
 20
5.999978297111117
 30
0.0
 10
20.00050183961793
 20
5.999978297111117
 30
0.0
 10
15.00029025232632
 20
5.999978297111117
 30
0.0
 10
15.00029025232632
 20
5.999978297111117
 30
0.0
 10
15.00029025232632
 20
5.999978297111117
 30
0.0
 10
15.00029025232632
 20
50.00022107039926
 30
0.0
 10
15.00029025232632
 20
50.00022107039926
 30
0.0
 10
15.00029025232632
 20
50.00022107039926
 30
0.0
 10
20.00050183961793
 20
50.00022107039926
 30
0.0
 10
20.00050183961793
 20
50.00022107039926
 30
0.0
  0
SPLINE
  5
43
330
3C
100
AcDbEntity
  8
LAYER_1
 62
   250
100
AcDbSpline
210
0.0
220
0.0
230
1.0
 70
    11
 71
     3
 72
    17
 73
    13
 74
     0
 42
0.0000000001
 43
0.0000000001
 40
0.0
 40
0.0
 40
0.0
 40
0.0
 40
1.0
 40
1.0
 40
1.0
 40
2.0
 40
2.0
 40
2.0
 40
3.0
 40
3.0
 40
3.0
 40
4.0
 40
4.0
 40
4.0
 40
4.0
 10
4.500500487156125
 20
57.00771754217168
 30
0.0
 10
4.500500487156125
 20
56.17986109706615
 30
0.0
 10
3.828879122306669
 20
55.50806747744243
 30
0.0
 10
3.000505912878346
 20
55.50806747744243
 30
0.0
 10
2.172132703450023
 20
55.50806747744243
 30
0.0
 10
1.500511338600567
 20
56.17986109706615
 30
0.0
 10
1.500511338600567
 20
57.00771754217168
 30
0.0
 10
1.500511338600567
 20
57.83626300637427
 30
0.0
 10
2.172132703450023
 20
58.5075398616752
 30
0.0
 10
3.000505912878346
 20
58.5075398616752
 30
0.0
 10
3.828879122306669
 20
58.5075398616752
 30
0.0
 10
4.500500487156125
 20
57.83626300637427
 30
0.0
 10
4.500500487156125
 20
57.00771754217168
 30
0.0
  0
SPLINE
  5
44
330
3C
100
AcDbEntity
  8
LAYER_1
 62
   250
100
AcDbSpline
210
0.0
220
0.0
230
1.0
 70
    11
 71
     3
 72
    17
 73
    13
 74
     0
 42
0.0000000001
 43
0.0000000001
 40
0.0
 40
0.0
 40
0.0
 40
0.0
 40
1.0
 40
1.0
 40
1.0
 40
2.0
 40
2.0
 40
2.0
 40
3.0
 40
3.0
 40
3.0
 40
4.0
 40
4.0
 40
4.0
 40
4.0
 10
5.900415037587397
 20
57.00892332559152
 30
0.0
 10
5.900415037587397
 20
55.40833196314445
 30
0.0
 10
4.601958549196733
 20
54.10953096520526
 30
0.0
 10
3.000505912878346
 20
54.10953096520526
 30
0.0
 10
1.399053276559959
 20
54.10953096520526
 30
0.0
 10
0.1004245333950328
 20
55.40833196314445
 30
0.0
 10
0.1004245333950328
 20
57.00892332559152
 30
0.0
 10
0.1004245333950328
 20
58.61072047145844
 30
0.0
 10
1.399053276559959
 20
59.90848794075205
 30
0.0
 10
3.000505912878346
 20
59.90848794075205
 30
0.0
 10
4.601958549196733
 20
59.90848794075205
 30
0.0
 10
5.900415037587397
 20
58.61072047145844
 30
0.0
 10
5.900415037587397
 20
57.00892332559152
 30
0.0
  0
SPLINE
  5
45
330
3C
100
AcDbEntity
  8
LAYER_1
 62
   250
100
AcDbSpline
210
0.0
220
0.0
230
1.0
 70
    11
 71
     3
 72
    17
 73
    13
 74
     0
 42
0.0000000001
 43
0.0000000001
 40
0.0
 40
0.0
 40
0.0
 40
0.0
 40
1.0
 40
1.0
 40
1.0
 40
2.0
 40
2.0
 40
2.0
 40
3.0
 40
3.0
 40
3.0
 40
4.0
 40
4.0
 40
4.0
 40
4.0
 10
18.50050726534015
 20
57.00771754217168
 30
0.0
 10
18.50050726534015
 20
56.17986109706615
 30
0.0
 10
17.82871364571643
 20
55.50806747744243
 30
0.0
 10
17.00051269106237
 20
55.50806747744243
 30
0.0
 10
16.17196722685979
 20
55.50806747744243
 30
0.0
 10
15.50051811678459
 20
56.17986109706615
 30
0.0
 10
15.50051811678459
 20
57.00771754217168
 30
0.0
 10
15.50051811678459
 20
57.83626300637427
 30
0.0
 10
16.17196722685979
 20
58.5075398616752
 30
0.0
 10
17.00051269106237
 20
58.5075398616752
 30
0.0
 10
17.82871364571643
 20
58.5075398616752
 30
0.0
 10
18.50050726534015
 20
57.83626300637427
 30
0.0
 10
18.50050726534015
 20
57.00771754217168
 30
0.0
  0
SPLINE
  5
46
330
3C
100
AcDbEntity
  8
LAYER_1
 62
   250
100
AcDbSpline
210
0.0
220
0.0
230
1.0
 70
    11
 71
     3
 72
    17
 73
    13
 74
     0
 42
0.0000000001
 43
0.0000000001
 40
0.0
 40
0.0
 40
0.0
 40
0.0
 40
1.0
 40
1.0
 40
1.0
 40
2.0
 40
2.0
 40
2.0
 40
3.0
 40
3.0
 40
3.0
 40
4.0
 40
4.0
 40
4.0
 40
4.0
 10
19.90059407054569
 20
57.00892332559152
 30
0.0
 10
19.90059407054569
 20
55.40833196314445
 30
0.0
 10
18.6017930726065
 20
54.10953096520526
 30
0.0
 10
17.00051269106237
 20
54.10953096520526
 30
0.0
 10
15.39888779996972
 20
54.10953096520526
 30
0.0
 10
14.10043131157906
 20
55.40833196314445
 30
0.0
 10
14.10043131157906
 20
57.00892332559152
 30
0.0
 10
14.10043131157906
 20
58.61072047145844
 30
0.0
 10
15.39888779996972
 20
59.90848794075205
 30
0.0
 10
17.00051269106237
 20
59.90848794075205
 30
0.0
 10
18.6017930726065
 20
59.90848794075205
 30
0.0
 10
19.90059407054569
 20
58.61072047145844
 30
0.0
 10
19.90059407054569
 20
57.00892332559152
 30
0.0
  0
SPLINE
  5
47
330
3C
100
AcDbEntity
  8
LAYER_1
 62
   250
100
AcDbSpline
210
0.0
220
0.0
230
1.0
 70
    11
 71
     3
 72
    17
 73
    13
 74
     0
 42
0.0000000001
 43
0.0000000001
 40
0.0
 40
0.0
 40
0.0
 40
0.0
 40
1.0
 40
1.0
 40
1.0
 40
2.0
 40
2.0
 40
2.0
 40
3.0
 40
3.0
 40
3.0
 40
4.0
 40
4.0
 40
4.0
 40
4.0
 10
4.500500487156125
 20
3.027894421986082
 30
0.0
 10
4.500500487156125
 20
2.199693467332021
 30
0.0
 10
3.828879122306669
 20
1.527899847708303
 30
0.0
 10
3.000505912878346
 20
1.527899847708303
 30
0.0
 10
2.172132703450023
 20
1.527899847708303
 30
0.0
 10
1.500511338600567
 20
2.199693467332021
 30
0.0
 10
1.500511338600567
 20
3.027894421986082
 30
0.0
 10
1.500511338600567
 20
3.856439886188668
 30
0.0
 10
2.172132703450023
 20
4.527544486715336
 30
0.0
 10
3.000505912878346
 20
4.527544486715336
 30
0.0
 10
3.828879122306669
 20
4.527544486715336
 30
0.0
 10
4.500500487156125
 20
3.856439886188668
 30
0.0
 10
4.500500487156125
 20
3.027894421986082
 30
0.0
  0
SPLINE
  5
48
330
3C
100
AcDbEntity
  8
LAYER_1
 62
   250
100
AcDbSpline
210
0.0
220
0.0
230
1.0
 70
    11
 71
     3
 72
    17
 73
    13
 74
     0
 42
0.0000000001
 43
0.0000000001
 40
0.0
 40
0.0
 40
0.0
 40
0.0
 40
1.0
 40
1.0
 40
1.0
 40
2.0
 40
2.0
 40
2.0
 40
3.0
 40
3.0
 40
3.0
 40
4.0
 40
4.0
 40
4.0
 40
4.0
 10
5.900415037587397
 20
3.028927950631657
 30
0.0
 10
5.900415037587397
 20
1.428336588184583
 30
0.0
 10
4.601958549196733
 20
0.1295355902453939
 30
0.0
 10
3.000505912878346
 20
0.1295355902453939
 30
0.0
 10
1.399053276559959
 20
0.1295355902453939
 30
0.0
 10
0.1004245333950328
 20
1.428336588184583
 30
0.0
 10
0.1004245333950328
 20
3.028927950631657
 30
0.0
 10
0.1004245333950328
 20
4.630897351272831
 30
0.0
 10
1.399053276559959
 20
5.928664820566445
 30
0.0
 10
3.000505912878346
 20
5.928664820566445
 30
0.0
 10
4.601958549196733
 20
5.928664820566445
 30
0.0
 10
5.900415037587397
 20
4.630897351272831
 30
0.0
 10
5.900415037587397
 20
3.028927950631657
 30
0.0
  0
SPLINE
  5
49
330
3C
100
AcDbEntity
  8
LAYER_1
 62
   250
100
AcDbSpline
210
0.0
220
0.0
230
1.0
 70
    11
 71
     3
 72
    17
 73
    13
 74
     0
 42
0.0000000001
 43
0.0000000001
 40
0.0
 40
0.0
 40
0.0
 40
0.0
 40
1.0
 40
1.0
 40
1.0
 40
2.0
 40
2.0
 40
2.0
 40
3.0
 40
3.0
 40
3.0
 40
4.0
 40
4.0
 40
4.0
 40
4.0
 10
18.50050726534015
 20
3.027894421986082
 30
0.0
 10
18.50050726534015
 20
2.199693467332021
 30
0.0
 10
17.82871364571643
 20
1.527899847708303
 30
0.0
 10
17.00051269106237
 20
1.527899847708303
 30
0.0
 10
16.17196722685979
 20
1.527899847708303
 30
0.0
 10
15.50051811678459
 20
2.199693467332021
 30
0.0
 10
15.50051811678459
 20
3.027894421986082
 30
0.0
 10
15.50051811678459
 20
3.856439886188668
 30
0.0
 10
16.17196722685979
 20
4.527544486715336
 30
0.0
 10
17.00051269106237
 20
4.527544486715336
 30
0.0
 10
17.82871364571643
 20
4.527544486715336
 30
0.0
 10
18.50050726534015
 20
3.856439886188668
 30
0.0
 10
18.50050726534015
 20
3.027894421986082
 30
0.0
  0
SPLINE
  5
4A
330
3C
100
AcDbEntity
  8
LAYER_1
 62
   250
100
AcDbSpline
210
0.0
220
0.0
230
1.0
 70
    11
 71
     3
 72
    17
 73
    13
 74
     0
 42
0.0000000001
 43
0.0000000001
 40
0.0
 40
0.0
 40
0.0
 40
0.0
 40
1.0
 40
1.0
 40
1.0
 40
2.0
 40
2.0
 40
2.0
 40
3.0
 40
3.0
 40
3.0
 40
4.0
 40
4.0
 40
4.0
 40
4.0
 10
19.90059407054569
 20
3.028927950631657
 30
0.0
 10
19.90059407054569
 20
1.428336588184583
 30
0.0
 10
18.6017930726065
 20
0.1295355902453939
 30
0.0
 10
17.00051269106237
 20
0.1295355902453939
 30
0.0
 10
15.39888779996972
 20
0.1295355902453939
 30
0.0
 10
14.10043131157906
 20
1.428336588184583
 30
0.0
 10
14.10043131157906
 20
3.028927950631657
 30
0.0
 10
14.10043131157906
 20
4.630897351272831
 30
0.0
 10
15.39888779996972
 20
5.928664820566445
 30
0.0
 10
17.00051269106237
 20
5.928664820566445
 30
0.0
 10
18.6017930726065
 20
5.928664820566445
 30
0.0
 10
19.90059407054569
 20
4.630897351272831
 30
0.0
 10
19.90059407054569
 20
3.028927950631657
 30
0.0
  0
SPLINE
  5
4B
330
3C
100
AcDbEntity
  8
LAYER_1
 62
   250
100
AcDbSpline
210
0.0
220
0.0
230
1.0
 70
    11
 71
     3
 72
    29
 73
    25
 74
     0
 42
0.0000000001
 43
0.0000000001
 40
0.0
 40
0.0
 40
0.0
 40
0.0
 40
1.0
 40
1.0
 40
1.0
 40
2.0
 40
2.0
 40
2.0
 40
3.0
 40
3.0
 40
3.0
 40
4.0
 40
4.0
 40
4.0
 40
5.0
 40
5.0
 40
5.0
 40
6.0
 40
6.0
 40
6.0
 40
7.0
 40
7.0
 40
7.0
 40
8.0
 40
8.0
 40
8.0
 40
8.0
 10
13.00041232313879
 20
17.06562499573359
 30
0.0
 10
13.00041232313879
 20
15.56907551694107
 30
0.0
 10
11.78739420278232
 20
14.3560573965846
 30
0.0
 10
10.29084472398979
 20
14.3560573965846
 30
0.0
 10
10.29084472398979
 20
14.3560573965846
 30
0.0
 10
9.71017387995093
 20
14.3560573965846
 30
0.0
 10
9.71017387995093
 20
14.3560573965846
 30
0.0
 10
8.213452146384137
 20
14.3560573965846
 30
0.0
 10
7.000434026027669
 20
15.56907551694107
 30
0.0
 10
7.000434026027669
 20
17.06562499573359
 30
0.0
 10
7.000434026027669
 20
17.06562499573359
 30
0.0
 10
7.000434026027669
 20
51.32365450105798
 30
0.0
 10
7.000434026027669
 20
51.32365450105798
 30
0.0
 10
7.000434026027669
 20
52.8202039798505
 30
0.0
 10
8.213452146384137
 20
54.03339435498124
 30
0.0
 10
9.71017387995093
 20
54.03339435498124
 30
0.0
 10
9.71017387995093
 20
54.03339435498124
 30
0.0
 10
10.29084472398979
 20
54.03339435498124
 30
0.0
 10
10.29084472398979
 20
54.03339435498124
 30
0.0
 10
11.78739420278232
 20
54.03339435498124
 30
0.0
 10
13.00041232313879
 20
52.8202039798505
 30
0.0
 10
13.00041232313879
 20
51.32365450105798
 30
0.0
 10
13.00041232313879
 20
51.32365450105798
 30
0.0
 10
13.00041232313879
 20
17.06562499573359
 30
0.0
 10
13.00041232313879
 20
17.06562499573359
 30
0.0
  0
ENDBLK
  5
3F
330
3C
100
AcDbEntity
  8
0
100
AcDbBlockEnd
  0
BLOCK
  5
4E
330
4C
100
AcDbEntity
  8
0
100
AcDbBlockBegin
  2
BLOCK_3
 70
     0
 71
     0
 10
0.0
 20
0.0
 30
0.0
  3
BLOCK_3
  1

  0
SPLINE
  5
50
330
4C
100
AcDbEntity
  8
LAYER_1
 62
   250
100
AcDbSpline
210
0.0
220
0.0
230
1.0
 70
    11
 71
     3
 72
    17
 73
    13
 74
     0
 42
0.0000000001
 43
0.0000000001
 40
0.0
 40
0.0
 40
0.0
 40
0.0
 40
1.0
 40
1.0
 40
1.0
 40
2.0
 40
2.0
 40
2.0
 40
3.0
 40
3.0
 40
3.0
 40
4.0
 40
4.0
 40
4.0
 40
4.0
 10
39.12250433049715
 20
70.00037840046866
 30
0.0
 10
39.12250433049715
 20
69.3099812652246
 30
0.0
 10
38.56302082369258
 20
68.75032550364575
 30
0.0
 10
37.87262368844851
 20
68.75032550364575
 30
0.0
 10
37.18222655320444
 20
68.75032550364575
 30
0.0
 10
36.62239853685135
 20
69.3099812652246
 30
0.0
 10
36.62239853685135
 20
70.00037840046866
 30
0.0
 10
36.62239853685135
 20
70.69060328093846
 30
0.0
 10
37.18222655320444
 20
71.2502590425173
 30
0.0
 10
37.87262368844851
 20
71.2502590425173
 30
0.0
 10
38.56302082369258
 20
71.2502590425173
 30
0.0
 10
39.12250433049715
 20
70.69060328093846
 30
0.0
 10
39.12250433049715
 20
70.00037840046866
 30
0.0
  0
SPLINE
  5
51
330
4C
100
AcDbEntity
  8
LAYER_1
 62
   250
100
AcDbSpline
210
0.0
220
0.0
230
1.0
 70
    11
 71
     3
 72
    17
 73
    13
 74
     0
 42
0.0000000001
 43
0.0000000001
 40
0.0
 40
0.0
 40
0.0
 40
0.0
 40
1.0
 40
1.0
 40
1.0
 40
2.0
 40
2.0
 40
2.0
 40
3.0
 40
3.0
 40
3.0
 40
4.0
 40
4.0
 40
4.0
 40
4.0
 10
39.12250433049715
 20
10.00042317458323
 30
0.0
 10
39.12250433049715
 20
9.31002603933916
 30
0.0
 10
38.56302082369258
 20
8.750198022986062
 30
0.0
 10
37.87262368844851
 20
8.750198022986062
 30
0.0
 10
37.18222655320444
 20
8.750198022986062
 30
0.0
 10
36.62239853685135
 20
9.31002603933916
 30
0.0
 10
36.62239853685135
 20
10.00042317458323
 30
0.0
 10
36.62239853685135
 20
10.69047580027877
 30
0.0
 10
37.18222655320444
 20
11.25030381663187
 30
0.0
 10
37.87262368844851
 20
11.25030381663187
 30
0.0
 10
38.56302082369258
 20
11.25030381663187
 30
0.0
 10
39.12250433049715
 20
10.69047580027877
 30
0.0
 10
39.12250433049715
 20
10.00042317458323
 30
0.0
  0
SPLINE
  5
52
330
4C
100
AcDbEntity
  8
LAYER_1
 62
     7
100
AcDbSpline
210
0.0
220
0.0
230
1.0
 70
    11
 71
     3
 72
    62
 73
    58
 74
     0
 42
0.0000000001
 43
0.0000000001
 40
0.0
 40
0.0
 40
0.0
 40
0.0
 40
1.0
 40
1.0
 40
1.0
 40
2.0
 40
2.0
 40
2.0
 40
3.0
 40
3.0
 40
3.0
 40
4.0
 40
4.0
 40
4.0
 40
5.0
 40
5.0
 40
5.0
 40
6.0
 40
6.0
 40
6.0
 40
7.0
 40
7.0
 40
7.0
 40
8.0
 40
8.0
 40
8.0
 40
9.0
 40
9.0
 40
9.0
 40
10.0
 40
10.0
 40
10.0
 40
11.0
 40
11.0
 40
11.0
 40
12.0
 40
12.0
 40
12.0
 40
13.0
 40
13.0
 40
13.0
 40
14.0
 40
14.0
 40
14.0
 40
15.0
 40
15.0
 40
15.0
 40
16.0
 40
16.0
 40
16.0
 40
17.0
 40
17.0
 40
17.0
 40
18.0
 40
18.0
 40
18.0
 40
19.0
 40
19.0
 40
19.0
 40
19.0
 10
47.87270235348321
 20
50.00022107039926
 30
0.0
 10
47.87270235348321
 20
50.00022107039926
 30
0.0
 10
47.87270235348321
 20
60.00029973543396
 30
0.0
 10
47.87270235348321
 20
60.00029973543396
 30
0.0
 10
47.87270235348321
 20
60.00029973543396
 30
0.0
 10
42.8724907661916
 20
60.00029973543396
 30
0.0
 10
42.8724907661916
 20
60.00029973543396
 30
0.0
 10
42.8724907661916
 20
60.00029973543396
 30
0.0
 10
42.8724907661916
 20
70.00020614569439
 30
0.0
 10
42.8724907661916
 20
70.00020614569439
 30
0.0
 10
42.8724907661916
 20
70.00020614569439
 30
0.0
 10
42.88006997625915
 20
74.70827363583682
 30
0.0
 10
37.87262368844851
 20
74.70827363583682
 30
0.0
 10
32.8255588025575
 20
74.70827363583682
 30
0.0
 10
32.8724121011569
 20
70.00020614569439
 30
0.0
 10
32.8724121011569
 20
70.00020614569439
 30
0.0
 10
32.8724121011569
 20
70.00020614569439
 30
0.0
 10
32.8724121011569
 20
60.00029973543396
 30
0.0
 10
32.8724121011569
 20
60.00029973543396
 30
0.0
 10
32.8724121011569
 20
60.00029973543396
 30
0.0
 10
27.87220051386528
 20
60.00029973543396
 30
0.0
 10
27.87220051386528
 20
60.00029973543396
 30
0.0
 10
27.87220051386528
 20
60.00029973543396
 30
0.0
 10
27.87220051386528
 20
50.00022107039926
 30
0.0
 10
27.87220051386528
 20
50.00022107039926
 30
0.0
 10
27.87220051386528
 20
50.00022107039926
 30
0.0
 10
32.8724121011569
 20
50.00022107039926
 30
0.0
 10
32.8724121011569
 20
50.00022107039926
 30
0.0
 10
32.8724121011569
 20
50.00022107039926
 30
0.0
 10
32.8724121011569
 20
5.999978297111117
 30
0.0
 10
32.8724121011569
 20
5.999978297111117
 30
0.0
 10
32.8724121011569
 20
5.999978297111117
 30
0.0
 10
27.87220051386528
 20
5.999978297111117
 30
0.0
 10
27.87220051386528
 20
5.999978297111117
 30
0.0
 10
27.87220051386528
 20
5.999978297111117
 30
0.0
 10
27.87220051386528
 20
0.0
 30
0.0
 10
27.87220051386528
 20
0.0
 30
0.0
 10
27.87220051386528
 20
0.0
 30
0.0
 10
32.8724121011569
 20
0.0
 30
0.0
 10
32.8724121011569
 20
0.0
 30
0.0
 10
32.8724121011569
 20
0.0
 30
0.0
 10
42.8724907661916
 20
0.0
 30
0.0
 10
42.8724907661916
 20
0.0
 30
0.0
 10
42.8724907661916
 20
0.0
 30
0.0
 10
47.87270235348321
 20
0.0
 30
0.0
 10
47.87270235348321
 20
0.0
 30
0.0
 10
47.87270235348321
 20
0.0
 30
0.0
 10
47.87270235348321
 20
5.999978297111117
 30
0.0
 10
47.87270235348321
 20
5.999978297111117
 30
0.0
 10
47.87270235348321
 20
5.999978297111117
 30
0.0
 10
42.8724907661916
 20
5.999978297111117
 30
0.0
 10
42.8724907661916
 20
5.999978297111117
 30
0.0
 10
42.8724907661916
 20
5.999978297111117
 30
0.0
 10
42.8724907661916
 20
50.00022107039926
 30
0.0
 10
42.8724907661916
 20
50.00022107039926
 30
0.0
 10
42.8724907661916
 20
50.00022107039926
 30
0.0
 10
47.87270235348321
 20
50.00022107039926
 30
0.0
 10
47.87270235348321
 20
50.00022107039926
 30
0.0
  0
SPLINE
  5
53
330
4C
100
AcDbEntity
  8
LAYER_1
 62
   250
100
AcDbSpline
210
0.0
220
0.0
230
1.0
 70
    11
 71
     3
 72
    17
 73
    13
 74
     0
 42
0.0000000001
 43
0.0000000001
 40
0.0
 40
0.0
 40
0.0
 40
0.0
 40
1.0
 40
1.0
 40
1.0
 40
2.0
 40
2.0
 40
2.0
 40
3.0
 40
3.0
 40
3.0
 40
4.0
 40
4.0
 40
4.0
 40
4.0
 10
32.37252874624715
 20
57.00771754217168
 30
0.0
 10
32.37252874624715
 20
56.17986109706615
 30
0.0
 10
31.70073512662343
 20
55.50806747744243
 30
0.0
 10
30.87218966242084
 20
55.50806747744243
 30
0.0
 10
30.04398870776678
 20
55.50806747744243
 30
0.0
 10
29.37219508814306
 20
56.17986109706615
 30
0.0
 10
29.37219508814306
 20
57.00771754217168
 30
0.0
 10
29.37219508814306
 20
57.83626300637427
 30
0.0
 10
30.04398870776678
 20
58.5075398616752
 30
0.0
 10
30.87218966242084
 20
58.5075398616752
 30
0.0
 10
31.70073512662343
 20
58.5075398616752
 30
0.0
 10
32.37252874624715
 20
57.83626300637427
 30
0.0
 10
32.37252874624715
 20
57.00771754217168
 30
0.0
  0
SPLINE
  5
54
330
4C
100
AcDbEntity
  8
LAYER_1
 62
   250
100
AcDbSpline
210
0.0
220
0.0
230
1.0
 70
    11
 71
     3
 72
    17
 73
    13
 74
     0
 42
0.0000000001
 43
0.0000000001
 40
0.0
 40
0.0
 40
0.0
 40
0.0
 40
1.0
 40
1.0
 40
1.0
 40
2.0
 40
2.0
 40
2.0
 40
3.0
 40
3.0
 40
3.0
 40
4.0
 40
4.0
 40
4.0
 40
4.0
 10
33.77227104190415
 20
57.00892332559152
 30
0.0
 10
33.77227104190415
 20
55.40833196314445
 30
0.0
 10
32.47381455351349
 20
54.10953096520526
 30
0.0
 10
30.87218966242084
 20
54.10953096520526
 30
0.0
 10
29.27090928087672
 20
54.10953096520526
 30
0.0
 10
27.97210828293753
 20
55.40833196314445
 30
0.0
 10
27.97210828293753
 20
57.00892332559152
 30
0.0
 10
27.97210828293753
 20
58.61072047145844
 30
0.0
 10
29.27090928087672
 20
59.90848794075205
 30
0.0
 10
30.87218966242084
 20
59.90848794075205
 30
0.0
 10
32.47381455351349
 20
59.90848794075205
 30
0.0
 10
33.77227104190415
 20
58.61072047145844
 30
0.0
 10
33.77227104190415
 20
57.00892332559152
 30
0.0
  0
SPLINE
  5
55
330
4C
100
AcDbEntity
  8
LAYER_1
 62
   250
100
AcDbSpline
210
0.0
220
0.0
230
1.0
 70
    11
 71
     3
 72
    17
 73
    13
 74
     0
 42
0.0000000001
 43
0.0000000001
 40
0.0
 40
0.0
 40
0.0
 40
0.0
 40
1.0
 40
1.0
 40
1.0
 40
2.0
 40
2.0
 40
2.0
 40
3.0
 40
3.0
 40
3.0
 40
4.0
 40
4.0
 40
4.0
 40
4.0
 10
46.37270777920543
 20
57.00771754217168
 30
0.0
 10
46.37270777920543
 20
56.17986109706615
 30
0.0
 10
45.70091415958172
 20
55.50806747744243
 30
0.0
 10
44.87271320492766
 20
55.50806747744243
 30
0.0
 10
44.04416774072507
 20
55.50806747744243
 30
0.0
 10
43.37271863064988
 20
56.17986109706615
 30
0.0
 10
43.37271863064988
 20
57.00771754217168
 30
0.0
 10
43.37271863064988
 20
57.83626300637427
 30
0.0
 10
44.04416774072507
 20
58.5075398616752
 30
0.0
 10
44.87271320492766
 20
58.5075398616752
 30
0.0
 10
45.70091415958172
 20
58.5075398616752
 30
0.0
 10
46.37270777920543
 20
57.83626300637427
 30
0.0
 10
46.37270777920543
 20
57.00771754217168
 30
0.0
  0
SPLINE
  5
56
330
4C
100
AcDbEntity
  8
LAYER_1
 62
   250
100
AcDbSpline
210
0.0
220
0.0
230
1.0
 70
    11
 71
     3
 72
    17
 73
    13
 74
     0
 42
0.0000000001
 43
0.0000000001
 40
0.0
 40
0.0
 40
0.0
 40
0.0
 40
1.0
 40
1.0
 40
1.0
 40
2.0
 40
2.0
 40
2.0
 40
3.0
 40
3.0
 40
3.0
 40
4.0
 40
4.0
 40
4.0
 40
4.0
 10
47.77279458441097
 20
57.00892332559152
 30
0.0
 10
47.77279458441097
 20
55.40833196314445
 30
0.0
 10
46.47399358647179
 20
54.10953096520526
 30
0.0
 10
44.87271320492766
 20
54.10953096520526
 30
0.0
 10
43.27108831383501
 20
54.10953096520526
 30
0.0
 10
41.97263182544435
 20
55.40833196314445
 30
0.0
 10
41.97263182544435
 20
57.00892332559152
 30
0.0
 10
41.97263182544435
 20
58.61072047145844
 30
0.0
 10
43.27108831383501
 20
59.90848794075205
 30
0.0
 10
44.87271320492766
 20
59.90848794075205
 30
0.0
 10
46.47399358647179
 20
59.90848794075205
 30
0.0
 10
47.77279458441097
 20
58.61072047145844
 30
0.0
 10
47.77279458441097
 20
57.00892332559152
 30
0.0
  0
SPLINE
  5
57
330
4C
100
AcDbEntity
  8
LAYER_1
 62
   250
100
AcDbSpline
210
0.0
220
0.0
230
1.0
 70
    11
 71
     3
 72
    17
 73
    13
 74
     0
 42
0.0000000001
 43
0.0000000001
 40
0.0
 40
0.0
 40
0.0
 40
0.0
 40
1.0
 40
1.0
 40
1.0
 40
2.0
 40
2.0
 40
2.0
 40
3.0
 40
3.0
 40
3.0
 40
4.0
 40
4.0
 40
4.0
 40
4.0
 10
32.37252874624715
 20
3.027894421986082
 30
0.0
 10
32.37252874624715
 20
2.199693467332021
 30
0.0
 10
31.70073512662343
 20
1.527899847708303
 30
0.0
 10
30.87218966242084
 20
1.527899847708303
 30
0.0
 10
30.04398870776678
 20
1.527899847708303
 30
0.0
 10
29.37219508814306
 20
2.199693467332021
 30
0.0
 10
29.37219508814306
 20
3.027894421986082
 30
0.0
 10
29.37219508814306
 20
3.856439886188668
 30
0.0
 10
30.04398870776678
 20
4.527544486715336
 30
0.0
 10
30.87218966242084
 20
4.527544486715336
 30
0.0
 10
31.70073512662343
 20
4.527544486715336
 30
0.0
 10
32.37252874624715
 20
3.856439886188668
 30
0.0
 10
32.37252874624715
 20
3.027894421986082
 30
0.0
  0
SPLINE
  5
58
330
4C
100
AcDbEntity
  8
LAYER_1
 62
   250
100
AcDbSpline
210
0.0
220
0.0
230
1.0
 70
    11
 71
     3
 72
    17
 73
    13
 74
     0
 42
0.0000000001
 43
0.0000000001
 40
0.0
 40
0.0
 40
0.0
 40
0.0
 40
1.0
 40
1.0
 40
1.0
 40
2.0
 40
2.0
 40
2.0
 40
3.0
 40
3.0
 40
3.0
 40
4.0
 40
4.0
 40
4.0
 40
4.0
 10
33.77227104190415
 20
3.028927950631657
 30
0.0
 10
33.77227104190415
 20
1.428336588184583
 30
0.0
 10
32.47381455351349
 20
0.1295355902453939
 30
0.0
 10
30.87218966242084
 20
0.1295355902453939
 30
0.0
 10
29.27090928087672
 20
0.1295355902453939
 30
0.0
 10
27.97210828293753
 20
1.428336588184583
 30
0.0
 10
27.97210828293753
 20
3.028927950631657
 30
0.0
 10
27.97210828293753
 20
4.630897351272831
 30
0.0
 10
29.27090928087672
 20
5.928664820566445
 30
0.0
 10
30.87218966242084
 20
5.928664820566445
 30
0.0
 10
32.47381455351349
 20
5.928664820566445
 30
0.0
 10
33.77227104190415
 20
4.630897351272831
 30
0.0
 10
33.77227104190415
 20
3.028927950631657
 30
0.0
  0
SPLINE
  5
59
330
4C
100
AcDbEntity
  8
LAYER_1
 62
   250
100
AcDbSpline
210
0.0
220
0.0
230
1.0
 70
    11
 71
     3
 72
    17
 73
    13
 74
     0
 42
0.0000000001
 43
0.0000000001
 40
0.0
 40
0.0
 40
0.0
 40
0.0
 40
1.0
 40
1.0
 40
1.0
 40
2.0
 40
2.0
 40
2.0
 40
3.0
 40
3.0
 40
3.0
 40
4.0
 40
4.0
 40
4.0
 40
4.0
 10
46.37270777920543
 20
3.027894421986082
 30
0.0
 10
46.37270777920543
 20
2.199693467332021
 30
0.0
 10
45.70091415958172
 20
1.527899847708303
 30
0.0
 10
44.87271320492766
 20
1.527899847708303
 30
0.0
 10
44.04416774072507
 20
1.527899847708303
 30
0.0
 10
43.37271863064988
 20
2.199693467332021
 30
0.0
 10
43.37271863064988
 20
3.027894421986082
 30
0.0
 10
43.37271863064988
 20
3.856439886188668
 30
0.0
 10
44.04416774072507
 20
4.527544486715336
 30
0.0
 10
44.87271320492766
 20
4.527544486715336
 30
0.0
 10
45.70091415958172
 20
4.527544486715336
 30
0.0
 10
46.37270777920543
 20
3.856439886188668
 30
0.0
 10
46.37270777920543
 20
3.027894421986082
 30
0.0
  0
SPLINE
  5
5A
330
4C
100
AcDbEntity
  8
LAYER_1
 62
   250
100
AcDbSpline
210
0.0
220
0.0
230
1.0
 70
    11
 71
     3
 72
    17
 73
    13
 74
     0
 42
0.0000000001
 43
0.0000000001
 40
0.0
 40
0.0
 40
0.0
 40
0.0
 40
1.0
 40
1.0
 40
1.0
 40
2.0
 40
2.0
 40
2.0
 40
3.0
 40
3.0
 40
3.0
 40
4.0
 40
4.0
 40
4.0
 40
4.0
 10
47.77279458441097
 20
3.028927950631657
 30
0.0
 10
47.77279458441097
 20
1.428336588184583
 30
0.0
 10
46.47399358647179
 20
0.1295355902453939
 30
0.0
 10
44.87271320492766
 20
0.1295355902453939
 30
0.0
 10
43.27108831383501
 20
0.1295355902453939
 30
0.0
 10
41.97263182544435
 20
1.428336588184583
 30
0.0
 10
41.97263182544435
 20
3.028927950631657
 30
0.0
 10
41.97263182544435
 20
4.630897351272831
 30
0.0
 10
43.27108831383501
 20
5.928664820566445
 30
0.0
 10
44.87271320492766
 20
5.928664820566445
 30
0.0
 10
46.47399358647179
 20
5.928664820566445
 30
0.0
 10
47.77279458441097
 20
4.630897351272831
 30
0.0
 10
47.77279458441097
 20
3.028927950631657
 30
0.0
  0
SPLINE
  5
5B
330
4C
100
AcDbEntity
  8
LAYER_1
 62
   250
100
AcDbSpline
210
0.0
220
0.0
230
1.0
 70
    11
 71
     3
 72
    29
 73
    25
 74
     0
 42
0.0000000001
 43
0.0000000001
 40
0.0
 40
0.0
 40
0.0
 40
0.0
 40
1.0
 40
1.0
 40
1.0
 40
2.0
 40
2.0
 40
2.0
 40
3.0
 40
3.0
 40
3.0
 40
4.0
 40
4.0
 40
4.0
 40
5.0
 40
5.0
 40
5.0
 40
6.0
 40
6.0
 40
6.0
 40
7.0
 40
7.0
 40
7.0
 40
8.0
 40
8.0
 40
8.0
 40
8.0
 10
40.87261283700407
 20
17.06562499573359
 30
0.0
 10
40.87261283700407
 20
15.56907551694107
 30
0.0
 10
39.6595947166476
 20
14.3560573965846
 30
0.0
 10
38.16304523785507
 20
14.3560573965846
 30
0.0
 10
38.16304523785507
 20
14.3560573965846
 30
0.0
 10
37.58220213904195
 20
14.3560573965846
 30
0.0
 10
37.58220213904195
 20
14.3560573965846
 30
0.0
 10
36.08565266024942
 20
14.3560573965846
 30
0.0
 10
34.87263453989296
 20
15.56907551694107
 30
0.0
 10
34.87263453989296
 20
17.06562499573359
 30
0.0
 10
34.87263453989296
 20
17.06562499573359
 30
0.0
 10
34.87263453989296
 20
51.32365450105798
 30
0.0
 10
34.87263453989296
 20
51.32365450105798
 30
0.0
 10
34.87263453989296
 20
52.8202039798505
 30
0.0
 10
36.08565266024942
 20
54.03339435498124
 30
0.0
 10
37.58220213904195
 20
54.03339435498124
 30
0.0
 10
37.58220213904195
 20
54.03339435498124
 30
0.0
 10
38.16304523785507
 20
54.03339435498124
 30
0.0
 10
38.16304523785507
 20
54.03339435498124
 30
0.0
 10
39.6595947166476
 20
54.03339435498124
 30
0.0
 10
40.87261283700407
 20
52.8202039798505
 30
0.0
 10
40.87261283700407
 20
51.32365450105798
 30
0.0
 10
40.87261283700407
 20
51.32365450105798
 30
0.0
 10
40.87261283700407
 20
17.06562499573359
 30
0.0
 10
40.87261283700407
 20
17.06562499573359
 30
0.0
  0
ENDBLK
  5
4F
330
4C
100
AcDbEntity
  8
0
100
AcDbBlockEnd
  0
ENDSEC
  0
SECTION
  2
ENTITIES
  0
INSERT
  5
3D
330
1F
100
AcDbEntity
  8
LAYER_1
100
AcDbBlockReference
  2
BLOCK_2
 10
0.0
 20
0.0
 30
0.0
  0
INSERT
  5
4D
330
1F
100
AcDbEntity
  8
LAYER_1
100
AcDbBlockReference
  2
BLOCK_3
 10
0.0
 20
0.0
 30
0.0
  0
ENDSEC
  0
SECTION
  2
OBJECTS
  0
DICTIONARY
  5
C
330
0
100
AcDbDictionary
  3
ACAD_GROUP
350
D
  3
ACAD_LAYOUT
350
1A
  3
ACAD_MLINESTYLE
350
17
  3
ACAD_PLOTSETTINGS
350
19
  3
ACAD_TABLESTYLE
350
5C
  3
ACAD_VISUALSTYLE
350
2A
1001
ACAD
1000
TREAT_AS_HARD
1070
     0
  0
DICTIONARY
  5
D
102
{ACAD_REACTORS
330
C
102
}
330
C
100
AcDbDictionary
1001
ACAD
1000
TREAT_AS_HARD
1070
     0
  0
DICTIONARY
  5
1A
102
{ACAD_REACTORS
330
C
102
}
330
C
100
AcDbDictionary
1001
ACAD
1000
TREAT_AS_HARD
1070
     0
  0
DICTIONARY
  5
17
102
{ACAD_REACTORS
330
C
102
}
330
C
100
AcDbDictionary
  3
STANDARD
350
18
1001
ACAD
1000
TREAT_AS_HARD
1070
     0
  0
DICTIONARY
  5
19
102
{ACAD_REACTORS
330
C
102
}
330
C
100
AcDbDictionary
1001
ACAD
1000
TREAT_AS_HARD
1070
     0
  0
DICTIONARY
  5
5C
102
{ACAD_REACTORS
330
C
102
}
330
C
100
AcDbDictionary
1001
ACAD
1000
TREAT_AS_HARD
1070
     0
  0
DICTIONARY
  5
2A
102
{ACAD_REACTORS
330
C
102
}
330
C
100
AcDbDictionary
  3
2DWIREFRAME
350
2F
  3
3D_HIDDEN
350
31
  3
3DWIREFRAME
350
30
  3
BASIC
350
32
  3
BRIGHTEN
350
36
  3
COLORCHANGE
350
3A
  3
CONCEPTUAL
350
34
  3
DIM
350
35
  3
FACEPATTERN
350
39
  3
FLAT
350
2B
  3
FLATWITHEDGES
350
2C
  3
GOURAUD
350
2D
  3
GOURAUDWITHEDGES
350
2E
  3
LINEPATTERN
350
38
  3
REALISTIC
350
33
  3
THICKEN
350
37
1001
ACAD
1000
TREAT_AS_HARD
1070
     0
  0
MLINESTYLE
  5
18
102
{ACAD_REACTORS
330
17
102
}
330
17
100
AcDbMlineStyle
  2
Standard
 70
     0
  3

 62
   256
 51
90.0
 52
90.0
 71
     2
 49
0.5
 62
   256
  6
BYLAYER
 49
-0.5
 62
   256
  6
BYLAYER
  0
VISUALSTYLE
  5
2F
102
{ACAD_REACTORS
330
2A
102
}
330
2A
100
AcDbVisualStyle
  2
2dWireframe
 70
     4
 71
     0
 72
     2
 73
     0
 90
        0
 40
-0.6
 41
-30.0
 62
     5
 63
     7
 74
     1
 91
        4
 64
     7
 65
   257
 75
     1
175
     1
 42
1.0
 92
        0
 66
   257
 43
1.0
 76
     1
 77
     6
 78
     2
 67
     7
 79
     5
170
     0
171
     0
290
     0
174
     0
 93
        1
 44
0.0
173
     0
291
     0
 45
0.0
1001
ACAD
1000
AcDbSavedByObjectVersion
1070
     0
  0
VISUALSTYLE
  5
31
102
{ACAD_REACTORS
330
2A
102
}
330
2A
100
AcDbVisualStyle
  2
3D Hidden
 70
     6
 71
     1
 72
     2
 73
     2
 90
        0
 40
-0.6
 41
-30.0
 62
     5
 63
     7
 74
     2
 91
        2
 64
     7
 65
   257
 75
     2
175
     1
 42
40.0
 92
        0
 66
   257
 43
1.0
 76
     1
 77
     6
 78
     2
 67
     7
 79
     3
170
     0
171
     0
290
     0
174
     0
 93
        1
 44
0.0
173
     0
291
     0
 45
0.0
1001
ACAD
1000
AcDbSavedByObjectVersion
1070
     0
  0
VISUALSTYLE
  5
30
102
{ACAD_REACTORS
330
2A
102
}
330
2A
100
AcDbVisualStyle
  2
3dWireframe
 70
     5
 71
     0
 72
     2
 73
     0
 90
        0
 40
-0.6
 41
-30.0
 62
     5
 63
     7
 74
     1
 91
        4
 64
     7
 65
   257
 75
     1
175
     1
 42
1.0
 92
        0
 66
   257
 43
1.0
 76
     1
 77
     6
 78
     2
 67
     7
 79
     5
170
     0
171
     0
290
     0
174
     0
 93
        1
 44
0.0
173
     0
291
     0
 45
0.0
1001
ACAD
1000
AcDbSavedByObjectVersion
1070
     0
  0
VISUALSTYLE
  5
32
102
{ACAD_REACTORS
330
2A
102
}
330
2A
100
AcDbVisualStyle
  2
Basic
 70
     7
 71
     1
 72
     0
 73
     1
 90
        0
 40
-0.6
 41
-30.0
 62
     5
 63
     7
 74
     0
 91
        4
 64
     7
 65
   257
 75
     1
175
     1
 42
1.0
 92
        8
 66
     7
 43
1.0
 76
     1
 77
     6
 78
     2
 67
     7
 79
     5
170
     0
171
     0
290
     0
174
     0
 93
        1
 44
0.0
173
     0
291
     1
 45
0.0
1001
ACAD
1000
AcDbSavedByObjectVersion
1070
     0
  0
VISUALSTYLE
  5
36
102
{ACAD_REACTORS
330
2A
102
}
330
2A
100
AcDbVisualStyle
  2
Brighten
 70
    12
 71
     2
 72
     2
 73
     0
 90
        0
 40
-0.6
 41
-30.0
 62
     5
 63
     7
 74
     1
 91
        4
 64
     7
 65
   257
 75
     1
175
     1
 42
1.0
 92
        8
 66
     7
 43
1.0
 76
     1
 77
     6
 78
     2
 67
     7
 79
     5
170
     0
171
     0
290
     0
174
     0
 93
        1
 44
50.0
173
     0
291
     1
 45
0.0
1001
ACAD
1000
AcDbSavedByObjectVersion
1070
     0
  0
VISUALSTYLE
  5
3A
102
{ACAD_REACTORS
330
2A
102
}
330
2A
100
AcDbVisualStyle
  2
ColorChange
 70
    16
 71
     2
 72
     2
 73
     3
 90
        0
 40
-0.6
 41
-30.0
 62
     5
 63
     8
 74
     1
 91
        4
 64
     7
 65
   257
 75
     1
175
     1
 42
1.0
 92
        8
 66
     8
 43
1.0
 76
     1
 77
     6
 78
     2
 67
     7
 79
     5
170
     0
171
     0
290
     0
174
     0
 93
        1
 44
0.0
173
     0
291
     1
 45
0.0
1001
ACAD
1000
AcDbSavedByObjectVersion
1070
     0
  0
VISUALSTYLE
  5
34
102
{ACAD_REACTORS
330
2A
102
}
330
2A
100
AcDbVisualStyle
  2
Conceptual
 70
     9
 71
     3
 72
     2
 73
     0
 90
        0
 40
-0.6
 41
-30.0
 62
     5
 63
     7
 74
     2
 91
        2
 64
     7
 65
   257
 75
     1
175
     1
 42
40.0
 92
        8
 66
     7
 43
1.0
 76
     1
 77
     6
 78
     2
 67
     7
 79
     3
170
     0
171
     0
290
     0
174
     0
 93
        1
 44
0.0
173
     0
291
     0
 45
0.0
1001
ACAD
1000
AcDbSavedByObjectVersion
1070
     0
  0
VISUALSTYLE
  5
35
102
{ACAD_REACTORS
330
2A
102
}
330
2A
100
AcDbVisualStyle
  2
Dim
 70
    11
 71
     2
 72
     2
 73
     0
 90
        0
 40
-0.6
 41
-30.0
 62
     5
 63
     7
 74
     1
 91
        4
 64
     7
 65
   257
 75
     1
175
     1
 42
1.0
 92
        8
 66
     7
 43
1.0
 76
     1
 77
     6
 78
     2
 67
     7
 79
     5
170
     0
171
     0
290
     0
174
     0
 93
        1
 44
-50.0
173
     0
291
     1
 45
0.0
1001
ACAD
1000
AcDbSavedByObjectVersion
1070
     0
  0
VISUALSTYLE
  5
39
102
{ACAD_REACTORS
330
2A
102
}
330
2A
100
AcDbVisualStyle
  2
Facepattern
 70
    15
 71
     2
 72
     2
 73
     0
 90
        0
 40
-0.6
 41
-30.0
 62
     5
 63
     7
 74
     1
 91
        4
 64
     7
 65
   257
 75
     1
175
     1
 42
1.0
 92
        8
 66
     7
 43
1.0
 76
     1
 77
     6
 78
     2
 67
     7
 79
     5
170
     0
171
     0
290
     0
174
     0
 93
        1
 44
0.0
173
     0
291
     1
 45
0.0
1001
ACAD
1000
AcDbSavedByObjectVersion
1070
     0
  0
VISUALSTYLE
  5
2B
102
{ACAD_REACTORS
330
2A
102
}
330
2A
100
AcDbVisualStyle
  2
Flat
 70
     0
 71
     2
 72
     1
 73
     1
 90
        2
 40
-0.6
 41
30.0
 62
     5
 63
     7
 74
     0
 91
        4
 64
     7
 65
   257
 75
     1
175
     1
 42
1.0
 92
        8
 66
     7
 43
1.0
 76
     1
 77
     6
 78
     2
 67
     7
 79
     5
170
     0
171
     0
290
     0
174
     0
 93
       13
 44
0.0
173
     0
291
     1
 45
0.0
1001
ACAD
1000
AcDbSavedByObjectVersion
1070
     0
  0
VISUALSTYLE
  5
2C
102
{ACAD_REACTORS
330
2A
102
}
330
2A
100
AcDbVisualStyle
  2
FlatWithEdges
 70
     1
 71
     2
 72
     1
 73
     1
 90
        2
 40
-0.6
 41
30.0
 62
     5
 63
     7
 74
     1
 91
        4
 64
     7
 65
   257
 75
     1
175
     1
 42
1.0
 92
        0
 66
   257
 43
1.0
 76
     1
 77
     6
 78
     2
 67
     7
 79
     5
170
     0
171
     0
290
     0
174
     0
 93
       13
 44
0.0
173
     0
291
     1
 45
0.0
1001
ACAD
1000
AcDbSavedByObjectVersion
1070
     0
  0
VISUALSTYLE
  5
2D
102
{ACAD_REACTORS
330
2A
102
}
330
2A
100
AcDbVisualStyle
  2
Gouraud
 70
     2
 71
     2
 72
     2
 73
     1
 90
        2
 40
-0.6
 41
30.0
 62
     5
 63
     7
 74
     0
 91
        4
 64
     7
 65
   257
 75
     1
175
     1
 42
1.0
 92
        0
 66
     7
 43
1.0
 76
     1
 77
     6
 78
     2
 67
     7
 79
     5
170
     0
171
     0
290
     0
174
     0
 93
       13
 44
0.0
173
     0
291
     1
 45
0.0
1001
ACAD
1000
AcDbSavedByObjectVersion
1070
     0
  0
VISUALSTYLE
  5
2E
102
{ACAD_REACTORS
330
2A
102
}
330
2A
100
AcDbVisualStyle
  2
GouraudWithEdges
 70
     3
 71
     2
 72
     2
 73
     1
 90
        2
 40
-0.6
 41
30.0
 62
     5
 63
     7
 74
     1
 91
        4
 64
     7
 65
   257
 75
     1
175
     1
 42
1.0
 92
        0
 66
   257
 43
1.0
 76
     1
 77
     6
 78
     2
 67
     7
 79
     5
170
     0
171
     0
290
     0
174
     0
 93
       13
 44
0.0
173
     0
291
     1
 45
0.0
1001
ACAD
1000
AcDbSavedByObjectVersion
1070
     0
  0
VISUALSTYLE
  5
38
102
{ACAD_REACTORS
330
2A
102
}
330
2A
100
AcDbVisualStyle
  2
Linepattern
 70
    14
 71
     2
 72
     2
 73
     0
 90
        0
 40
-0.6
 41
-30.0
 62
     5
 63
     7
 74
     1
 91
        4
 64
     7
 65
   257
 75
     7
175
     7
 42
1.0
 92
        8
 66
     7
 43
1.0
 76
     1
 77
     6
 78
     2
 67
     7
 79
     5
170
     0
171
     0
290
     0
174
     0
 93
        1
 44
0.0
173
     0
291
     1
 45
0.0
1001
ACAD
1000
AcDbSavedByObjectVersion
1070
     0
  0
VISUALSTYLE
  5
33
102
{ACAD_REACTORS
330
2A
102
}
330
2A
100
AcDbVisualStyle
  2
Realistic
 70
     8
 71
     2
 72
     2
 73
     0
 90
        0
 40
-0.6
 41
-30.0
 62
     5
 63
     7
 74
     1
 91
        0
 64
     7
 65
   257
 75
     1
175
     1
 42
1.0
 92
        8
 66
     8
 43
1.0
 76
     1
 77
     6
 78
     2
 67
     7
 79
     5
170
     0
171
     0
290
     0
174
     0
 93
       13
 44
0.0
173
     0
291
     0
 45
0.0
1001
ACAD
1000
AcDbSavedByObjectVersion
1070
     0
  0
VISUALSTYLE
  5
37
102
{ACAD_REACTORS
330
2A
102
}
330
2A
100
AcDbVisualStyle
  2
Thicken
 70
    13
 71
     2
 72
     2
 73
     0
 90
        0
 40
-0.6
 41
-30.0
 62
     5
 63
     7
 74
     1
 91
        4
 64
     7
 65
   257
 75
     1
175
     1
 42
1.0
 92
       12
 66
     7
 43
1.0
 76
     1
 77
     6
 78
     2
 67
     7
 79
     5
170
     0
171
     0
290
     0
174
     0
 93
        1
 44
0.0
173
     0
291
     1
 45
0.0
1001
ACAD
1000
AcDbSavedByObjectVersion
1070
     0
  0
ENDSEC
  0
EOF
