  0
SECTION
  2
HEADER
  9
$ACADVER
  1
AC1012
  9
$DWGCODEPAGE
  3
ansi_1252
  9
$INSBASE
 10
0.0
 20
0.0
 30
0.0
  9
$EXTMIN
 10
1.000000000000000E+20
 20
1.000000000000000E+20
 30
1.000000000000000E+20
  9
$EXTMAX
 10
-1.000000000000000E+20
 20
-1.000000000000000E+20
 30
-1.000000000000000E+20
  9
$LIMMIN
 10
0.0
 20
0.0
  9
$LIMMAX
 10
12.0
 20
9.0
  9
$ORTHOMODE
 70
     0
  9
$REGENMODE
 70
     1
  9
$FILLMODE
 70
     1
  9
$QTEXTMODE
 70
     0
  9
$MIRRTEXT
 70
     1
  9
$DRAGMODE
 70
     2
  9
$LTSCALE
 40
1.0
  9
$OSMODE
 70
    37
  9
$ATTMODE
 70
     1
  9
$TEXTSIZE
 40
0.2
  9
$TRACEWID
 40
0.05
  9
$TEXTSTYLE
  7
STANDARD
  9
$CLAYER
  8
0
  9
$CELTYPE
  6
BYLAYER
  9
$CECOLOR
 62
   256
  9
$CELTSCALE
 40
1.0
  9
$DELOBJ
 70
     1
  9
$DISPSILH
 70
     0
  9
$DIMSCALE
 40
1.0
  9
$DIMASZ
 40
0.18
  9
$DIMEXO
 40
0.0625
  9
$DIMDLI
 40
0.38
  9
$DIMRND
 40
0.0
  9
$DIMDLE
 40
0.0
  9
$DIMEXE
 40
0.18
  9
$DIMTP
 40
0.0
  9
$DIMTM
 40
0.0
  9
$DIMTXT
 40
0.18
  9
$DIMCEN
 40
0.09
  9
$DIMTSZ
 40
0.0
  9
$DIMTOL
 70
     0
  9
$DIMLIM
 70
     0
  9
$DIMTIH
 70
     1
  9
$DIMTOH
 70
     1
  9
$DIMSE1
 70
     0
  9
$DIMSE2
 70
     0
  9
$DIMTAD
 70
     0
  9
$DIMZIN
 70
     0
  9
$DIMBLK
  1

  9
$DIMASO
 70
     1
  9
$DIMSHO
 70
     1
  9
$DIMPOST
  1

  9
$DIMAPOST
  1

  9
$DIMALT
 70
     0
  9
$DIMALTD
 70
     2
  9
$DIMALTF
 40
25.4
  9
$DIMLFAC
 40
1.0
  9
$DIMTOFL
 70
     0
  9
$DIMTVP
 40
0.0
  9
$DIMTIX
 70
     0
  9
$DIMSOXD
 70
     0
  9
$DIMSAH
 70
     0
  9
$DIMBLK1
  1

  9
$DIMBLK2
  1

  9
$DIMSTYLE
  2
STANDARD
  9
$DIMCLRD
 70
     0
  9
$DIMCLRE
 70
     0
  9
$DIMCLRT
 70
     0
  9
$DIMTFAC
 40
1.0
  9
$DIMGAP
 40
0.09
  9
$DIMJUST
 70
     0
  9
$DIMSD1
 70
     0
  9
$DIMSD2
 70
     0
  9
$DIMTOLJ
 70
     1
  9
$DIMTZIN
 70
     0
  9
$DIMALTZ
 70
     0
  9
$DIMALTTZ
 70
     0
  9
$DIMFIT
 70
     3
  9
$DIMUPT
 70
     0
  9
$DIMUNIT
 70
     2
  9
$DIMDEC
 70
     4
  9
$DIMTDEC
 70
     4
  9
$DIMALTU
 70
     2
  9
$DIMALTTD
 70
     2
  9
$DIMTXSTY
  7
STANDARD
  9
$DIMAUNIT
 70
     0
  9
$LUNITS
 70
     2
  9
$LUPREC
 70
     4
  9
$SKETCHINC
 40
0.1
  9
$FILLETRAD
 40
0.5
  9
$AUNITS
 70
     0
  9
$AUPREC
 70
     0
  9
$MENU
  1
.
  9
$ELEVATION
 40
0.0
  9
$PELEVATION
 40
0.0
  9
$THICKNESS
 40
0.0
  9
$LIMCHECK
 70
     0
  9
$CHAMFERA
 40
0.5
  9
$CHAMFERB
 40
0.5
  9
$CHAMFERC
 40
1.0
  9
$CHAMFERD
 40
0.0
  9
$SKPOLY
 70
     0
  9
$TDCREATE
 40
2456540.450982523
  9
$TDUPDATE
 40
2456540.450982535
  9
$TDINDWG
 40
0.0000000116
  9
$TDUSRTIMER
 40
0.0000000116
  9
$USRTIMER
 70
     1
  9
$ANGBASE
 50
0.0
  9
$ANGDIR
 70
     0
  9
$PDMODE
 70
     0
  9
$PDSIZE
 40
0.0
  9
$PLINEWID
 40
0.0
  9
$COORDS
 70
     1
  9
$SPLFRAME
 70
     0
  9
$SPLINETYPE
 70
     6
  9
$SPLINESEGS
 70
     8
  9
$ATTDIA
 70
     0
  9
$ATTREQ
 70
     1
  9
$HANDLING
 70
     1
  9
$HANDSEED
  5
6D
  9
$SURFTAB1
 70
     6
  9
$SURFTAB2
 70
     6
  9
$SURFTYPE
 70
     6
  9
$SURFU
 70
     6
  9
$SURFV
 70
     6
  9
$UCSNAME
  2

  9
$UCSORG
 10
0.0
 20
0.0
 30
0.0
  9
$UCSXDIR
 10
1.0
 20
0.0
 30
0.0
  9
$UCSYDIR
 10
0.0
 20
1.0
 30
0.0
  9
$PUCSNAME
  2

  9
$PUCSORG
 10
0.0
 20
0.0
 30
0.0
  9
$PUCSXDIR
 10
1.0
 20
0.0
 30
0.0
  9
$PUCSYDIR
 10
0.0
 20
1.0
 30
0.0
  9
$USERI1
 70
     0
  9
$USERI2
 70
     0
  9
$USERI3
 70
     0
  9
$USERI4
 70
     0
  9
$USERI5
 70
     0
  9
$USERR1
 40
0.0
  9
$USERR2
 40
0.0
  9
$USERR3
 40
0.0
  9
$USERR4
 40
0.0
  9
$USERR5
 40
0.0
  9
$WORLDVIEW
 70
     1
  9
$SHADEDGE
 70
     3
  9
$SHADEDIF
 70
    70
  9
$TILEMODE
 70
     1
  9
$MAXACTVP
 70
    64
  9
$PINSBASE
 10
0.0
 20
0.0
 30
0.0
  9
$PLIMCHECK
 70
     0
  9
$PEXTMIN
 10
1.000000000000000E+20
 20
1.000000000000000E+20
 30
1.000000000000000E+20
  9
$PEXTMAX
 10
-1.000000000000000E+20
 20
-1.000000000000000E+20
 30
-1.000000000000000E+20
  9
$PLIMMIN
 10
0.0
 20
0.0
  9
$PLIMMAX
 10
12.0
 20
9.0
  9
$UNITMODE
 70
     0
  9
$VISRETAIN
 70
     1
  9
$PLINEGEN
 70
     0
  9
$PSLTSCALE
 70
     1
  9
$TREEDEPTH
 70
  3020
  9
$PICKSTYLE
 70
     1
  9
$CMLSTYLE
  2
STANDARD
  9
$CMLJUST
 70
     0
  9
$CMLSCALE
 40
1.0
  9
$SAVEIMAGES
 70
     1
  0
ENDSEC
  0
SECTION
  2
CLASSES
  0
CLASS
  1
ACDBDICTIONARYWDFLT
  2
AcDbDictionaryWithDefault
  3
ObjectDBX Classes
 90
    32768
280
     0
281
     0
  0
CLASS
  1
VISUALSTYLE
  2
AcDbVisualStyle
  3
ObjectDBX Classes
 90
     4095
280
     0
281
     0
  0
CLASS
  1
XRECORD
  2
AcDbXrecord
  3
AutoCAD 2000
 90
    32768
280
     0
281
     0
  0
CLASS
  1
LWPOLYLINE
  2
AcDbPolyline
  3
AutoCAD 2000
 90
    32768
280
     0
281
     1
  0
CLASS
  1
HATCH
  2
AcDbHatch
  3
AutoCAD 2000
 90
    32768
280
     0
281
     1
  0
CLASS
  1
ACDBPLACEHOLDER
  2
AcDbPlaceHolder
  3
ObjectDBX Classes
 90
        0
280
     0
281
     0
  0
CLASS
  1
LAYOUT
  2
AcDbLayout
  3
ObjectDBX Classes
 90
        0
280
     0
281
     0
  0
ENDSEC
  0
SECTION
  2
TABLES
  0
TABLE
  2
VPORT
  5
8
330
0
100
AcDbSymbolTable
 70
     1
  0
VPORT
  5
29
330
8
100
AcDbSymbolTableRecord
100
AcDbViewportTableRecord
  2
*ACTIVE
 70
     0
 10
0.0
 20
0.0
 11
1.0
 21
1.0
 12
0.0
 22
0.0
 13
0.0
 23
0.0
 14
0.5
 24
0.5
 15
0.5
 25
0.5
 16
0.0
 26
0.0
 36
1.0
 17
148.4999796178229
 27
-105.0008259828644
 37
0.0
 40
210.0016519657288
 41
1.414274394775308
 42
50.0
 43
0.0
 44
0.0
 50
0.0
 51
0.0
 71
     0
 72
   100
 73
     1
 74
     3
 75
     0
 76
     0
 77
     0
 78
     0
  0
ENDTAB
  0
TABLE
  2
LTYPE
  5
5
330
0
100
AcDbSymbolTable
 70
     1
  0
LTYPE
  5
14
330
5
100
AcDbSymbolTableRecord
100
AcDbLinetypeTableRecord
  2
BYBLOCK
 70
     0
  3

 72
    65
 73
     0
 40
0.0
  0
LTYPE
  5
15
330
5
100
AcDbSymbolTableRecord
100
AcDbLinetypeTableRecord
  2
BYLAYER
 70
     0
  3

 72
    65
 73
     0
 40
0.0
  0
LTYPE
  5
16
330
5
100
AcDbSymbolTableRecord
100
AcDbLinetypeTableRecord
  2
CONTINUOUS
 70
     0
  3
Solid line
 72
    65
 73
     0
 40
0.0
  0
ENDTAB
  0
TABLE
  2
LAYER
  5
2
330
0
100
AcDbSymbolTable
 70
     2
  0
LAYER
  5
10
330
2
100
AcDbSymbolTableRecord
100
AcDbLayerTableRecord
  2
0
 70
     0
 62
     7
  6
CONTINUOUS
  0
LAYER
  5
3B
330
2
100
AcDbSymbolTableRecord
100
AcDbLayerTableRecord
  2
LAYER_1
 70
     0
 62
     7
  6
CONTINUOUS
  0
ENDTAB
  0
TABLE
  2
STYLE
  5
3
330
0
100
AcDbSymbolTable
 70
     1
  0
STYLE
  5
11
330
3
100
AcDbSymbolTableRecord
100
AcDbTextStyleTableRecord
  2
STANDARD
 70
     0
 40
0.0
 41
1.0
 50
0.0
 71
     0
 42
0.2
  3
txt
  4

  0
ENDTAB
  0
TABLE
  2
VIEW
  5
6
330
0
100
AcDbSymbolTable
 70
     0
  0
ENDTAB
  0
TABLE
  2
UCS
  5
7
330
0
100
AcDbSymbolTable
 70
     0
  0
ENDTAB
  0
TABLE
  2
APPID
  5
9
330
0
100
AcDbSymbolTable
 70
     1
  0
APPID
  5
12
330
9
100
AcDbSymbolTableRecord
100
AcDbRegAppTableRecord
  2
ACAD
 70
     0
  0
ENDTAB
  0
TABLE
  2
DIMSTYLE
  5
A
330
0
100
AcDbSymbolTable
 70
     1
  0
DIMSTYLE
105
27
330
A
100
AcDbSymbolTableRecord
100
AcDbDimStyleTableRecord
  2
STANDARD
 70
     0
  3

  4

  5

  6

  7

 40
1.0
 41
0.18
 42
0.0625
 43
0.38
 44
0.18
 45
0.0
 46
0.0
 47
0.0
 48
0.0
140
0.18
141
0.09
142
0.0
143
25.4
144
1.0
145
0.0
146
1.0
147
0.09
 71
     0
 72
     0
 73
     1
 74
     1
 75
     0
 76
     0
 77
     0
 78
     0
170
     0
171
     2
172
     0
173
     0
174
     0
175
     0
176
     0
177
     0
178
     0
270
     2
271
     4
272
     4
273
     2
274
     2
340
11
275
     0
280
     0
281
     0
282
     0
283
     1
284
     0
285
     0
286
     0
287
     3
288
     0
  0
ENDTAB
  0
TABLE
  2
BLOCK_RECORD
  5
1
330
0
100
AcDbSymbolTable
 70
     1
  0
BLOCK_RECORD
  5
1F
330
1
100
AcDbSymbolTableRecord
100
AcDbBlockTableRecord
  2
*MODEL_SPACE
  0
BLOCK_RECORD
  5
1B
330
1
100
AcDbSymbolTableRecord
100
AcDbBlockTableRecord
  2
*PAPER_SPACE
  0
ENDTAB
  0
ENDSEC
  0
SECTION
  2
BLOCKS
  0
BLOCK
  5
20
330
1F
100
AcDbEntity
  8
0
100
AcDbBlockBegin
  2
*MODEL_SPACE
 70
     0
 71
     0
 10
0.0
 20
0.0
 30
0.0
  3
*MODEL_SPACE
  1

  0
ENDBLK
  5
21
330
1F
100
AcDbEntity
  8
0
100
AcDbBlockEnd
  0
BLOCK
  5
1C
330
1B
100
AcDbEntity
 67
     1
  8
0
100
AcDbBlockBegin
  2
*PAPER_SPACE
 70
     0
 71
     0
 10
0.0
 20
0.0
 30
0.0
  3
*PAPER_SPACE
  1

  0
ENDBLK
  5
1D
330
1B
100
AcDbEntity
 67
     1
  8
0
100
AcDbBlockEnd
  0
ENDSEC
  0
SECTION
  2
ENTITIES
  0
POLYLINE
  5
3C
330
1F
100
AcDbEntity
  8
LAYER_1
 62
   250
100
AcDb2dPolyline
 66
     1
 10
0.0
 20
0.0
 30
0.0
  0
VERTEX
  5
3D
330
3C
100
AcDbEntity
  8
LAYER_1
 62
   250
100
AcDbVertex
100
AcDb2dVertex
 10
23.27661539131626
 20
1.130335828710472
 30
0.0
  0
VERTEX
  5
3E
330
3C
100
AcDbEntity
  8
LAYER_1
 62
   250
100
AcDbVertex
100
AcDb2dVertex
 10
3.276802570795383
 20
1.130335828710472
 30
0.0
  0
VERTEX
  5
3F
330
3C
100
AcDbEntity
  8
LAYER_1
 62
   250
100
AcDbVertex
100
AcDb2dVertex
 10
3.276802570795383
 20
33.33095431024365
 30
0.0
  0
VERTEX
  5
40
330
3C
100
AcDbEntity
  8
LAYER_1
 62
   250
100
AcDbVertex
100
AcDb2dVertex
 10
23.27661539131626
 20
33.33095431024365
 30
0.0
  0
VERTEX
  5
41
330
3C
100
AcDbEntity
  8
LAYER_1
 62
   250
100
AcDbVertex
100
AcDb2dVertex
 10
23.27661539131626
 20
1.130335828710472
 30
0.0
  0
SEQEND
  5
42
330
3C
100
AcDbEntity
  8
LAYER_1
  0
SPLINE
  5
43
330
1F
100
AcDbEntity
  8
LAYER_1
 62
   250
100
AcDbSpline
210
0.0
220
0.0
230
1.0
 70
    11
 71
     3
 72
    17
 73
    13
 74
     0
 42
0.0000000001
 43
0.0000000001
 40
0.0
 40
0.0
 40
0.0
 40
0.0
 40
1.0
 40
1.0
 40
1.0
 40
2.0
 40
2.0
 40
2.0
 40
3.0
 40
3.0
 40
3.0
 40
4.0
 40
4.0
 40
4.0
 40
4.0
 10
18.37700059219394
 20
27.23072373451177
 30
0.0
 10
18.37700059219394
 20
24.41435817532002
 30
0.0
 10
16.09359130457035
 20
22.13025986859938
 30
0.0
 10
13.27653672628156
 20
22.13025986859938
 30
0.0
 10
10.45999891231556
 20
22.13025986859938
 30
0.0
 10
8.176761879466227
 20
24.41435817532002
 30
0.0
 10
8.176761879466227
 20
27.23072373451177
 30
0.0
 10
8.176761879466227
 20
30.04743380325203
 30
0.0
 10
10.45999891231556
 20
32.3304985813271
 30
0.0
 10
13.27653672628156
 20
32.3304985813271
 30
0.0
 10
16.09359130457035
 20
32.3304985813271
 30
0.0
 10
18.37700059219394
 20
30.04743380325203
 30
0.0
 10
18.37700059219394
 20
27.23072373451177
 30
0.0
  0
SPLINE
  5
44
330
1F
100
AcDbEntity
  8
LAYER_1
 62
   250
100
AcDbSpline
210
0.0
220
0.0
230
1.0
 70
    11
 71
     3
 72
    17
 73
    13
 74
     0
 42
0.0000000001
 43
0.0000000001
 40
0.0
 40
0.0
 40
0.0
 40
0.0
 40
1.0
 40
1.0
 40
1.0
 40
2.0
 40
2.0
 40
2.0
 40
3.0
 40
3.0
 40
3.0
 40
4.0
 40
4.0
 40
4.0
 40
4.0
 10
6.907071938377399
 20
27.23037922496324
 30
0.0
 10
6.907071938377399
 20
26.5403265992677
 30
0.0
 10
6.347416176798563
 20
25.9804985829146
 30
0.0
 10
5.657019041554496
 20
25.9804985829146
 30
0.0
 10
4.966621906310428
 20
25.9804985829146
 30
0.0
 10
4.406966144731592
 20
26.5403265992677
 30
0.0
 10
4.406966144731592
 20
27.23037922496324
 30
0.0
 10
4.406966144731592
 20
27.92077636020731
 30
0.0
 10
4.966621906310428
 20
28.48025986701188
 30
0.0
 10
5.657019041554496
 20
28.48025986701188
 30
0.0
 10
6.347416176798563
 20
28.48025986701188
 30
0.0
 10
6.907071938377399
 20
27.92077636020731
 30
0.0
 10
6.907071938377399
 20
27.23037922496324
 30
0.0
  0
SPLINE
  5
45
330
1F
100
AcDbEntity
  8
LAYER_1
 62
   250
100
AcDbSpline
210
0.0
220
0.0
230
1.0
 70
    11
 71
     3
 72
    17
 73
    13
 74
     0
 42
0.0000000001
 43
0.0000000001
 40
0.0
 40
0.0
 40
0.0
 40
0.0
 40
1.0
 40
1.0
 40
1.0
 40
2.0
 40
2.0
 40
2.0
 40
3.0
 40
3.0
 40
3.0
 40
4.0
 40
4.0
 40
4.0
 40
4.0
 10
22.14731309125137
 20
27.23003471541471
 30
0.0
 10
22.14731309125137
 20
26.53998208971917
 30
0.0
 10
21.58748507489827
 20
25.98015407336607
 30
0.0
 10
20.8970879396542
 20
25.98015407336607
 30
0.0
 10
20.20669080441013
 20
25.98015407336607
 30
0.0
 10
19.64686278805704
 20
26.53998208971917
 30
0.0
 10
19.64686278805704
 20
27.23003471541471
 30
0.0
 10
19.64686278805704
 20
27.92043185065878
 30
0.0
 10
20.20669080441013
 20
28.47991535746336
 30
0.0
 10
20.8970879396542
 20
28.47991535746336
 30
0.0
 10
21.58748507489827
 20
28.47991535746336
 30
0.0
 10
22.14731309125137
 20
27.92043185065878
 30
0.0
 10
22.14731309125137
 20
27.23003471541471
 30
0.0
  0
SPLINE
  5
46
330
1F
100
AcDbEntity
  8
LAYER_1
 62
   250
100
AcDbSpline
210
0.0
220
0.0
230
1.0
 70
    11
 71
     3
 72
    17
 73
    13
 74
     0
 42
0.0000000001
 43
0.0000000001
 40
0.0
 40
0.0
 40
0.0
 40
0.0
 40
1.0
 40
1.0
 40
1.0
 40
2.0
 40
2.0
 40
2.0
 40
3.0
 40
3.0
 40
3.0
 40
4.0
 40
4.0
 40
4.0
 40
4.0
 10
20.87676187629123
 20
11.13041449374517
 30
0.0
 10
20.87676187629123
 20
6.933254664065298
 30
0.0
 10
17.47438557505849
 20
3.530533853284033
 30
0.0
 10
13.27688123583009
 20
3.530533853284033
 30
0.0
 10
9.079376896601683
 20
3.530533853284033
 30
0.0
 10
5.676828340594682
 20
6.933254664065298
 30
0.0
 10
5.676828340594682
 20
11.13041449374517
 30
0.0
 10
5.676828340594682
 20
15.32757432342505
 30
0.0
 10
9.079376896601683
 20
18.73029513420632
 30
0.0
 10
13.27688123583009
 20
18.73029513420632
 30
0.0
 10
17.47438557505849
 20
18.73029513420632
 30
0.0
 10
20.87676187629123
 20
15.32757432342505
 30
0.0
 10
20.87676187629123
 20
11.13041449374517
 30
0.0
  0
SPLINE
  5
47
330
1F
100
AcDbEntity
  8
LAYER_1
 62
   250
100
AcDbSpline
210
0.0
220
0.0
230
1.0
 70
    11
 71
     3
 72
    17
 73
    13
 74
     0
 42
0.0000000001
 43
0.0000000001
 40
0.0
 40
0.0
 40
0.0
 40
0.0
 40
1.0
 40
1.0
 40
1.0
 40
2.0
 40
2.0
 40
2.0
 40
3.0
 40
3.0
 40
3.0
 40
4.0
 40
4.0
 40
4.0
 40
4.0
 10
20.87676187629123
 20
11.13041449374517
 30
0.0
 10
20.87676187629123
 20
6.933254664065298
 30
0.0
 10
17.47438557505849
 20
3.530533853284033
 30
0.0
 10
13.27688123583009
 20
3.530533853284033
 30
0.0
 10
9.079376896601683
 20
3.530533853284033
 30
0.0
 10
5.676828340594682
 20
6.933254664065298
 30
0.0
 10
5.676828340594682
 20
11.13041449374517
 30
0.0
 10
5.676828340594682
 20
15.32757432342505
 30
0.0
 10
9.079376896601683
 20
18.73029513420632
 30
0.0
 10
13.27688123583009
 20
18.73029513420632
 30
0.0
 10
17.47438557505849
 20
18.73029513420632
 30
0.0
 10
20.87676187629123
 20
15.32757432342505
 30
0.0
 10
20.87676187629123
 20
11.13041449374517
 30
0.0
  0
SPLINE
  5
48
330
1F
100
AcDbEntity
  8
LAYER_1
 62
     7
100
AcDbSpline
210
0.0
220
0.0
230
1.0
 70
    11
 71
     3
 72
    23
 73
    19
 74
     0
 42
0.0000000001
 43
0.0000000001
 40
0.0
 40
0.0
 40
0.0
 40
0.0
 40
1.0
 40
1.0
 40
1.0
 40
2.0
 40
2.0
 40
2.0
 40
3.0
 40
3.0
 40
3.0
 40
4.0
 40
4.0
 40
4.0
 40
5.0
 40
5.0
 40
5.0
 40
6.0
 40
6.0
 40
6.0
 40
6.0
 10
19.2768595329412
 20
11.13041449374517
 30
0.0
 10
19.2768595329412
 20
14.44425184100699
 30
0.0
 10
16.59037407354338
 20
17.13039279085629
 30
0.0
 10
13.27688123583009
 20
17.13039279085629
 30
0.0
 10
9.963043888568267
 20
17.13039279085629
 30
0.0
 10
7.276730683944707
 20
14.44425184100699
 30
0.0
 10
7.276730683944707
 20
11.13041449374517
 30
0.0
 10
7.276730683944707
 20
8.698521590707314
 30
0.0
 10
8.726254609363576
 20
6.609415688451813
 30
0.0
 10
10.8060587538089
 20
5.667182073235982
 30
0.0
 10
10.98244764265369
 20
4.45933159610739
 30
0.0
 10
12.01976589326242
 20
3.530533853284033
 30
0.0
 10
13.27670898105582
 20
3.530533853284033
 30
0.0
 10
14.53365206884923
 20
3.530533853284033
 30
0.0
 10
15.57062580990943
 20
4.458987086558865
 30
0.0
 10
15.74735920830274
 20
5.666837563687458
 30
0.0
 10
17.82716335274807
 20
6.609071178903288
 30
0.0
 10
19.2768595329412
 20
8.69817708115879
 30
0.0
 10
19.2768595329412
 20
11.13041449374517
 30
0.0
  0
SPLINE
  5
49
330
1F
100
AcDbEntity
  8
LAYER_1
 62
     7
100
AcDbSpline
210
0.0
220
0.0
230
1.0
 70
    11
 71
     3
 72
    17
 73
    13
 74
     0
 42
0.0000000001
 43
0.0000000001
 40
0.0
 40
0.0
 40
0.0
 40
0.0
 40
1.0
 40
1.0
 40
1.0
 40
2.0
 40
2.0
 40
2.0
 40
3.0
 40
3.0
 40
3.0
 40
4.0
 40
4.0
 40
4.0
 40
4.0
 10
6.276791719350941
 20
19.03174098916568
 30
0.0
 10
6.276791719350941
 20
18.47949218288013
 30
0.0
 10
5.829101561042725
 20
18.03197427934617
 30
0.0
 10
5.276680499982914
 20
18.03197427934617
 30
0.0
 10
4.724431693697364
 20
18.03197427934617
 30
0.0
 10
4.276741535389148
 20
18.47949218288013
 30
0.0
 10
4.276741535389148
 20
19.03174098916568
 30
0.0
 10
4.276741535389148
 20
19.58398979545123
 30
0.0
 10
4.724431693697364
 20
20.03150769898518
 30
0.0
 10
5.276680499982914
 20
20.03150769898518
 30
0.0
 10
5.829101561042725
 20
20.03150769898518
 30
0.0
 10
6.276791719350941
 20
19.58398979545123
 30
0.0
 10
6.276791719350941
 20
19.03174098916568
 30
0.0
  0
SPLINE
  5
4A
330
1F
100
AcDbEntity
  8
LAYER_1
 62
     7
100
AcDbSpline
210
0.0
220
0.0
230
1.0
 70
    11
 71
     3
 72
    17
 73
    13
 74
     0
 42
0.0000000001
 43
0.0000000001
 40
0.0
 40
0.0
 40
0.0
 40
0.0
 40
1.0
 40
1.0
 40
1.0
 40
2.0
 40
2.0
 40
2.0
 40
3.0
 40
3.0
 40
3.0
 40
4.0
 40
4.0
 40
4.0
 40
4.0
 10
22.27684868149676
 20
19.13061522959235
 30
0.0
 10
22.27684868149676
 20
18.5783664233068
 30
0.0
 10
21.82898626841428
 20
18.13084851977284
 30
0.0
 10
21.27639295258021
 20
18.13084851977284
 30
0.0
 10
20.72448865584319
 20
18.13084851977284
 30
0.0
 10
20.27662624276071
 20
18.5783664233068
 30
0.0
 10
20.27662624276071
 20
19.13061522959235
 30
0.0
 10
20.27662624276071
 20
19.68286403587789
 30
0.0
 10
20.72448865584319
 20
20.13038193941185
 30
0.0
 10
21.27639295258021
 20
20.13038193941185
 30
0.0
 10
21.82898626841428
 20
20.13038193941185
 30
0.0
 10
22.27684868149676
 20
19.68286403587789
 30
0.0
 10
22.27684868149676
 20
19.13061522959235
 30
0.0
  0
SPLINE
  5
4B
330
1F
100
AcDbEntity
  8
LAYER_1
 62
     7
100
AcDbSpline
210
0.0
220
0.0
230
1.0
 70
    11
 71
     3
 72
    17
 73
    13
 74
     0
 42
0.0000000001
 43
0.0000000001
 40
0.0
 40
0.0
 40
0.0
 40
0.0
 40
1.0
 40
1.0
 40
1.0
 40
2.0
 40
2.0
 40
2.0
 40
3.0
 40
3.0
 40
3.0
 40
4.0
 40
4.0
 40
4.0
 40
4.0
 10
6.276791719350941
 20
3.130213757898002
 30
0.0
 10
6.276791719350941
 20
2.577964951612453
 30
0.0
 10
5.829101561042725
 20
2.1304470480785
 30
0.0
 10
5.276680499982914
 20
2.1304470480785
 30
0.0
 10
4.724431693697364
 20
2.1304470480785
 30
0.0
 10
4.276741535389148
 20
2.577964951612453
 30
0.0
 10
4.276741535389148
 20
3.130213757898002
 30
0.0
 10
4.276741535389148
 20
3.682462564183551
 30
0.0
 10
4.724431693697364
 20
4.129980467717505
 30
0.0
 10
5.276680499982914
 20
4.129980467717505
 30
0.0
 10
5.829101561042725
 20
4.129980467717505
 30
0.0
 10
6.276791719350941
 20
3.682462564183551
 30
0.0
 10
6.276791719350941
 20
3.130213757898002
 30
0.0
  0
SPLINE
  5
4C
330
1F
100
AcDbEntity
  8
LAYER_1
 62
     7
100
AcDbSpline
210
0.0
220
0.0
230
1.0
 70
    11
 71
     3
 72
    17
 73
    13
 74
     0
 42
0.0000000001
 43
0.0000000001
 40
0.0
 40
0.0
 40
0.0
 40
0.0
 40
1.0
 40
1.0
 40
1.0
 40
2.0
 40
2.0
 40
2.0
 40
3.0
 40
3.0
 40
3.0
 40
4.0
 40
4.0
 40
4.0
 40
4.0
 10
22.27684868149676
 20
3.130213757898002
 30
0.0
 10
22.27684868149676
 20
2.577964951612453
 30
0.0
 10
21.82898626841428
 20
2.1304470480785
 30
0.0
 10
21.27639295258021
 20
2.1304470480785
 30
0.0
 10
20.72448865584319
 20
2.1304470480785
 30
0.0
 10
20.27662624276071
 20
2.577964951612453
 30
0.0
 10
20.27662624276071
 20
3.130213757898002
 30
0.0
 10
20.27662624276071
 20
3.682462564183551
 30
0.0
 10
20.72448865584319
 20
4.129980467717505
 30
0.0
 10
21.27639295258021
 20
4.129980467717505
 30
0.0
 10
21.82898626841428
 20
4.129980467717505
 30
0.0
 10
22.27684868149676
 20
3.682462564183551
 30
0.0
 10
22.27684868149676
 20
3.130213757898002
 30
0.0
  0
POLYLINE
  5
4D
330
1F
100
AcDbEntity
  8
LAYER_1
 62
   250
100
AcDb2dPolyline
 66
     1
 10
0.0
 20
0.0
 30
0.0
  0
VERTEX
  5
4E
330
4D
100
AcDbEntity
  8
LAYER_1
 62
   250
100
AcDbVertex
100
AcDb2dVertex
 10
26.98836126712444
 20
0.0
 30
0.0
  0
VERTEX
  5
4F
330
4D
100
AcDbEntity
  8
LAYER_1
 62
   250
100
AcDbVertex
100
AcDb2dVertex
 10
0.00068901909705
 20
0.0
 30
0.0
  0
VERTEX
  5
50
330
4D
100
AcDbEntity
  8
LAYER_1
 62
   250
100
AcDbVertex
100
AcDb2dVertex
 10
0.00068901909705
 20
21.13049315877988
 30
0.0
  0
VERTEX
  5
51
330
4D
100
AcDbEntity
  8
LAYER_1
 62
   250
100
AcDbVertex
100
AcDb2dVertex
 10
26.98836126712444
 20
21.13049315877988
 30
0.0
  0
VERTEX
  5
52
330
4D
100
AcDbEntity
  8
LAYER_1
 62
   250
100
AcDbVertex
100
AcDb2dVertex
 10
26.98836126712444
 20
0.0
 30
0.0
  0
SEQEND
  5
53
330
4D
100
AcDbEntity
  8
LAYER_1
  0
POLYLINE
  5
54
330
1F
100
AcDbEntity
  8
LAYER_1
 62
   250
100
AcDb2dPolyline
 66
     1
 10
0.0
 20
0.0
 30
0.0
  0
VERTEX
  5
55
330
54
100
AcDbEntity
  8
LAYER_1
 62
   250
100
AcDbVertex
100
AcDb2dVertex
 10
49.73736028487469
 20
1.130335828710472
 30
0.0
  0
VERTEX
  5
56
330
54
100
AcDbEntity
  8
LAYER_1
 62
   250
100
AcDbVertex
100
AcDb2dVertex
 10
29.73685844525676
 20
1.130335828710472
 30
0.0
  0
VERTEX
  5
57
330
54
100
AcDbEntity
  8
LAYER_1
 62
   250
100
AcDbVertex
100
AcDb2dVertex
 10
29.73685844525676
 20
33.33095431024365
 30
0.0
  0
VERTEX
  5
58
330
54
100
AcDbEntity
  8
LAYER_1
 62
   250
100
AcDbVertex
100
AcDb2dVertex
 10
49.73736028487469
 20
33.33095431024365
 30
0.0
  0
VERTEX
  5
59
330
54
100
AcDbEntity
  8
LAYER_1
 62
   250
100
AcDbVertex
100
AcDb2dVertex
 10
49.73736028487469
 20
1.130335828710472
 30
0.0
  0
SEQEND
  5
5A
330
54
100
AcDbEntity
  8
LAYER_1
  0
SPLINE
  5
5B
330
1F
100
AcDbEntity
  8
LAYER_1
 62
   250
100
AcDbSpline
210
0.0
220
0.0
230
1.0
 70
    11
 71
     3
 72
    17
 73
    13
 74
     0
 42
0.0000000001
 43
0.0000000001
 40
0.0
 40
0.0
 40
0.0
 40
0.0
 40
1.0
 40
1.0
 40
1.0
 40
2.0
 40
2.0
 40
2.0
 40
3.0
 40
3.0
 40
3.0
 40
4.0
 40
4.0
 40
4.0
 40
4.0
 10
44.83774548575237
 20
27.23072373451177
 30
0.0
 10
44.83774548575237
 20
24.41435817532002
 30
0.0
 10
42.55433619812878
 20
22.13025986859938
 30
0.0
 10
39.73728161983999
 20
22.13025986859938
 30
0.0
 10
36.92057155109972
 20
22.13025986859938
 30
0.0
 10
34.63716226347613
 20
24.41435817532002
 30
0.0
 10
34.63716226347613
 20
27.23072373451177
 30
0.0
 10
34.63716226347613
 20
30.04743380325203
 30
0.0
 10
36.92057155109972
 20
32.3304985813271
 30
0.0
 10
39.73728161983999
 20
32.3304985813271
 30
0.0
 10
42.55433619812878
 20
32.3304985813271
 30
0.0
 10
44.83774548575237
 20
30.04743380325203
 30
0.0
 10
44.83774548575237
 20
27.23072373451177
 30
0.0
  0
SPLINE
  5
5C
330
1F
100
AcDbEntity
  8
LAYER_1
 62
   250
100
AcDbSpline
210
0.0
220
0.0
230
1.0
 70
    11
 71
     3
 72
    17
 73
    13
 74
     0
 42
0.0000000001
 43
0.0000000001
 40
0.0
 40
0.0
 40
0.0
 40
0.0
 40
1.0
 40
1.0
 40
1.0
 40
2.0
 40
2.0
 40
2.0
 40
3.0
 40
3.0
 40
3.0
 40
4.0
 40
4.0
 40
4.0
 40
4.0
 10
33.36730006761304
 20
27.23037922496324
 30
0.0
 10
33.36730006761304
 20
26.5403265992677
 30
0.0
 10
32.80781656080846
 20
25.9804985829146
 30
0.0
 10
32.1174194255644
 20
25.9804985829146
 30
0.0
 10
31.42702229032033
 20
25.9804985829146
 30
0.0
 10
30.86719427396723
 20
26.5403265992677
 30
0.0
 10
30.86719427396723
 20
27.23037922496324
 30
0.0
 10
30.86719427396723
 20
27.92077636020731
 30
0.0
 10
31.42702229032033
 20
28.48025986701188
 30
0.0
 10
32.1174194255644
 20
28.48025986701188
 30
0.0
 10
32.80781656080846
 20
28.48025986701188
 30
0.0
 10
33.36730006761304
 20
27.92077636020731
 30
0.0
 10
33.36730006761304
 20
27.23037922496324
 30
0.0
  0
SPLINE
  5
5D
330
1F
100
AcDbEntity
  8
LAYER_1
 62
   250
100
AcDbSpline
210
0.0
220
0.0
230
1.0
 70
    11
 71
     3
 72
    17
 73
    13
 74
     0
 42
0.0000000001
 43
0.0000000001
 40
0.0
 40
0.0
 40
0.0
 40
0.0
 40
1.0
 40
1.0
 40
1.0
 40
2.0
 40
2.0
 40
2.0
 40
3.0
 40
3.0
 40
3.0
 40
4.0
 40
4.0
 40
4.0
 40
4.0
 10
48.60805798480979
 20
27.23003471541471
 30
0.0
 10
48.60805798480979
 20
26.53998208971917
 30
0.0
 10
48.0482299684567
 20
25.98015407336607
 30
0.0
 10
47.35783283321263
 20
25.98015407336607
 30
0.0
 10
46.66743569796856
 20
25.98015407336607
 30
0.0
 10
46.10760768161546
 20
26.53998208971917
 30
0.0
 10
46.10760768161546
 20
27.23003471541471
 30
0.0
 10
46.10760768161546
 20
27.92043185065878
 30
0.0
 10
46.66743569796856
 20
28.47991535746336
 30
0.0
 10
47.35783283321263
 20
28.47991535746336
 30
0.0
 10
48.0482299684567
 20
28.47991535746336
 30
0.0
 10
48.60805798480979
 20
27.92043185065878
 30
0.0
 10
48.60805798480979
 20
27.23003471541471
 30
0.0
  0
SPLINE
  5
5E
330
1F
100
AcDbEntity
  8
LAYER_1
 62
   250
100
AcDbSpline
210
0.0
220
0.0
230
1.0
 70
    11
 71
     3
 72
    17
 73
    13
 74
     0
 42
0.0000000001
 43
0.0000000001
 40
0.0
 40
0.0
 40
0.0
 40
0.0
 40
1.0
 40
1.0
 40
1.0
 40
2.0
 40
2.0
 40
2.0
 40
3.0
 40
3.0
 40
3.0
 40
4.0
 40
4.0
 40
4.0
 40
4.0
 10
47.33750676984965
 20
11.13041449374517
 30
0.0
 10
47.33750676984965
 20
6.933254664065298
 30
0.0
 10
43.93513046861691
 20
3.530533853284033
 30
0.0
 10
39.73762612938851
 20
3.530533853284033
 30
0.0
 10
35.53977728061159
 20
3.530533853284033
 30
0.0
 10
32.13705646983032
 20
6.933254664065298
 30
0.0
 10
32.13705646983032
 20
11.13041449374517
 30
0.0
 10
32.13705646983032
 20
15.32757432342505
 30
0.0
 10
35.53977728061159
 20
18.73029513420632
 30
0.0
 10
39.73762612938851
 20
18.73029513420632
 30
0.0
 10
43.93513046861691
 20
18.73029513420632
 30
0.0
 10
47.33750676984965
 20
15.32757432342505
 30
0.0
 10
47.33750676984965
 20
11.13041449374517
 30
0.0
  0
SPLINE
  5
5F
330
1F
100
AcDbEntity
  8
LAYER_1
 62
   250
100
AcDbSpline
210
0.0
220
0.0
230
1.0
 70
    11
 71
     3
 72
    17
 73
    13
 74
     0
 42
0.0000000001
 43
0.0000000001
 40
0.0
 40
0.0
 40
0.0
 40
0.0
 40
1.0
 40
1.0
 40
1.0
 40
2.0
 40
2.0
 40
2.0
 40
3.0
 40
3.0
 40
3.0
 40
4.0
 40
4.0
 40
4.0
 40
4.0
 10
47.33750676984965
 20
11.13041449374517
 30
0.0
 10
47.33750676984965
 20
6.933254664065298
 30
0.0
 10
43.93513046861691
 20
3.530533853284033
 30
0.0
 10
39.73762612938851
 20
3.530533853284033
 30
0.0
 10
35.53977728061159
 20
3.530533853284033
 30
0.0
 10
32.13705646983032
 20
6.933254664065298
 30
0.0
 10
32.13705646983032
 20
11.13041449374517
 30
0.0
 10
32.13705646983032
 20
15.32757432342505
 30
0.0
 10
35.53977728061159
 20
18.73029513420632
 30
0.0
 10
39.73762612938851
 20
18.73029513420632
 30
0.0
 10
43.93513046861691
 20
18.73029513420632
 30
0.0
 10
47.33750676984965
 20
15.32757432342505
 30
0.0
 10
47.33750676984965
 20
11.13041449374517
 30
0.0
  0
SPLINE
  5
60
330
1F
100
AcDbEntity
  8
LAYER_1
 62
     7
100
AcDbSpline
210
0.0
220
0.0
230
1.0
 70
    11
 71
     3
 72
    23
 73
    19
 74
     0
 42
0.0000000001
 43
0.0000000001
 40
0.0
 40
0.0
 40
0.0
 40
0.0
 40
1.0
 40
1.0
 40
1.0
 40
2.0
 40
2.0
 40
2.0
 40
3.0
 40
3.0
 40
3.0
 40
4.0
 40
4.0
 40
4.0
 40
5.0
 40
5.0
 40
5.0
 40
6.0
 40
6.0
 40
6.0
 40
6.0
 10
45.73760442649963
 20
11.13041449374517
 30
0.0
 10
45.73760442649963
 20
14.44425184100699
 30
0.0
 10
43.05111896710181
 20
17.13039279085629
 30
0.0
 10
39.73762612938851
 20
17.13039279085629
 30
0.0
 10
36.42344427257817
 20
17.13039279085629
 30
0.0
 10
33.73730332272887
 20
14.44425184100699
 30
0.0
 10
33.73730332272887
 20
11.13041449374517
 30
0.0
 10
33.73730332272887
 20
8.698521590707314
 30
0.0
 10
35.18665499337348
 20
6.609415688451813
 30
0.0
 10
37.26680364736733
 20
5.667182073235982
 30
0.0
 10
37.44319253621212
 20
4.45933159610739
 30
0.0
 10
38.48051078682084
 20
3.530533853284033
 30
0.0
 10
39.73728161983999
 20
3.530533853284033
 30
0.0
 10
40.99439696240766
 20
3.530533853284033
 30
0.0
 10
42.03137070346786
 20
4.458987086558865
 30
0.0
 10
42.20810410186117
 20
5.666837563687458
 30
0.0
 10
44.2879082463065
 20
6.609071178903288
 30
0.0
 10
45.73760442649963
 20
8.69817708115879
 30
0.0
 10
45.73760442649963
 20
11.13041449374517
 30
0.0
  0
SPLINE
  5
61
330
1F
100
AcDbEntity
  8
LAYER_1
 62
     7
100
AcDbSpline
210
0.0
220
0.0
230
1.0
 70
    11
 71
     3
 72
    17
 73
    13
 74
     0
 42
0.0000000001
 43
0.0000000001
 40
0.0
 40
0.0
 40
0.0
 40
0.0
 40
1.0
 40
1.0
 40
1.0
 40
2.0
 40
2.0
 40
2.0
 40
3.0
 40
3.0
 40
3.0
 40
4.0
 40
4.0
 40
4.0
 40
4.0
 10
32.73719210336084
 20
19.03174098916568
 30
0.0
 10
32.73719210336084
 20
18.47949218288013
 30
0.0
 10
32.28932969027836
 20
18.03197427934617
 30
0.0
 10
31.73708088399281
 20
18.03197427934617
 30
0.0
 10
31.18483207770727
 20
18.03197427934617
 30
0.0
 10
30.73696966462479
 20
18.47949218288013
 30
0.0
 10
30.73696966462479
 20
19.03174098916568
 30
0.0
 10
30.73696966462479
 20
19.58398979545123
 30
0.0
 10
31.18483207770727
 20
20.03150769898518
 30
0.0
 10
31.73708088399281
 20
20.03150769898518
 30
0.0
 10
32.28932969027836
 20
20.03150769898518
 30
0.0
 10
32.73719210336084
 20
19.58398979545123
 30
0.0
 10
32.73719210336084
 20
19.03174098916568
 30
0.0
  0
SPLINE
  5
62
330
1F
100
AcDbEntity
  8
LAYER_1
 62
     7
100
AcDbSpline
210
0.0
220
0.0
230
1.0
 70
    11
 71
     3
 72
    17
 73
    13
 74
     0
 42
0.0000000001
 43
0.0000000001
 40
0.0
 40
0.0
 40
0.0
 40
0.0
 40
1.0
 40
1.0
 40
1.0
 40
2.0
 40
2.0
 40
2.0
 40
3.0
 40
3.0
 40
3.0
 40
4.0
 40
4.0
 40
4.0
 40
4.0
 10
48.73759357505519
 20
19.13061522959235
 30
0.0
 10
48.73759357505519
 20
18.5783664233068
 30
0.0
 10
48.28973116197271
 20
18.13084851977284
 30
0.0
 10
47.73713784613864
 20
18.13084851977284
 30
0.0
 10
47.18523354940161
 20
18.13084851977284
 30
0.0
 10
46.73737113631913
 20
18.5783664233068
 30
0.0
 10
46.73737113631913
 20
19.13061522959235
 30
0.0
 10
46.73737113631913
 20
19.68286403587789
 30
0.0
 10
47.18523354940161
 20
20.13038193941185
 30
0.0
 10
47.73713784613864
 20
20.13038193941185
 30
0.0
 10
48.28973116197271
 20
20.13038193941185
 30
0.0
 10
48.73759357505519
 20
19.68286403587789
 30
0.0
 10
48.73759357505519
 20
19.13061522959235
 30
0.0
  0
SPLINE
  5
63
330
1F
100
AcDbEntity
  8
LAYER_1
 62
     7
100
AcDbSpline
210
0.0
220
0.0
230
1.0
 70
    11
 71
     3
 72
    17
 73
    13
 74
     0
 42
0.0000000001
 43
0.0000000001
 40
0.0
 40
0.0
 40
0.0
 40
0.0
 40
1.0
 40
1.0
 40
1.0
 40
2.0
 40
2.0
 40
2.0
 40
3.0
 40
3.0
 40
3.0
 40
4.0
 40
4.0
 40
4.0
 40
4.0
 10
32.73719210336084
 20
3.130213757898002
 30
0.0
 10
32.73719210336084
 20
2.577964951612453
 30
0.0
 10
32.28932969027836
 20
2.1304470480785
 30
0.0
 10
31.73708088399281
 20
2.1304470480785
 30
0.0
 10
31.18483207770727
 20
2.1304470480785
 30
0.0
 10
30.73696966462479
 20
2.577964951612453
 30
0.0
 10
30.73696966462479
 20
3.130213757898002
 30
0.0
 10
30.73696966462479
 20
3.682462564183551
 30
0.0
 10
31.18483207770727
 20
4.129980467717505
 30
0.0
 10
31.73708088399281
 20
4.129980467717505
 30
0.0
 10
32.28932969027836
 20
4.129980467717505
 30
0.0
 10
32.73719210336084
 20
3.682462564183551
 30
0.0
 10
32.73719210336084
 20
3.130213757898002
 30
0.0
  0
SPLINE
  5
64
330
1F
100
AcDbEntity
  8
LAYER_1
 62
     7
100
AcDbSpline
210
0.0
220
0.0
230
1.0
 70
    11
 71
     3
 72
    17
 73
    13
 74
     0
 42
0.0000000001
 43
0.0000000001
 40
0.0
 40
0.0
 40
0.0
 40
0.0
 40
1.0
 40
1.0
 40
1.0
 40
2.0
 40
2.0
 40
2.0
 40
3.0
 40
3.0
 40
3.0
 40
4.0
 40
4.0
 40
4.0
 40
4.0
 10
48.73759357505519
 20
3.130213757898002
 30
0.0
 10
48.73759357505519
 20
2.577964951612453
 30
0.0
 10
48.28973116197271
 20
2.1304470480785
 30
0.0
 10
47.73713784613864
 20
2.1304470480785
 30
0.0
 10
47.18523354940161
 20
2.1304470480785
 30
0.0
 10
46.73737113631913
 20
2.577964951612453
 30
0.0
 10
46.73737113631913
 20
3.130213757898002
 30
0.0
 10
46.73737113631913
 20
3.682462564183551
 30
0.0
 10
47.18523354940161
 20
4.129980467717505
 30
0.0
 10
47.73713784613864
 20
4.129980467717505
 30
0.0
 10
48.28973116197271
 20
4.129980467717505
 30
0.0
 10
48.73759357505519
 20
3.682462564183551
 30
0.0
 10
48.73759357505519
 20
3.130213757898002
 30
0.0
  0
POLYLINE
  5
65
330
1F
100
AcDbEntity
  8
LAYER_1
 62
   250
100
AcDb2dPolyline
 66
     1
 10
0.0
 20
0.0
 30
0.0
  0
VERTEX
  5
66
330
65
100
AcDbEntity
  8
LAYER_1
 62
   250
100
AcDbVertex
100
AcDb2dVertex
 10
53.44910616068287
 20
0.0
 30
0.0
  0
VERTEX
  5
67
330
65
100
AcDbEntity
  8
LAYER_1
 62
   250
100
AcDbVertex
100
AcDb2dVertex
 10
26.46091714833269
 20
0.0
 30
0.0
  0
VERTEX
  5
68
330
65
100
AcDbEntity
  8
LAYER_1
 62
   250
100
AcDbVertex
100
AcDb2dVertex
 10
26.46091714833269
 20
21.13049315877988
 30
0.0
  0
VERTEX
  5
69
330
65
100
AcDbEntity
  8
LAYER_1
 62
   250
100
AcDbVertex
100
AcDb2dVertex
 10
53.44910616068287
 20
21.13049315877988
 30
0.0
  0
VERTEX
  5
6A
330
65
100
AcDbEntity
  8
LAYER_1
 62
   250
100
AcDbVertex
100
AcDb2dVertex
 10
53.44910616068287
 20
0.0
 30
0.0
  0
SEQEND
  5
6B
330
65
100
AcDbEntity
  8
LAYER_1
  0
ENDSEC
  0
SECTION
  2
OBJECTS
  0
DICTIONARY
  5
C
330
0
100
AcDbDictionary
  3
ACAD_GROUP
350
D
  3
ACAD_LAYOUT
350
1A
  3
ACAD_MLINESTYLE
350
17
  3
ACAD_PLOTSETTINGS
350
19
  3
ACAD_TABLESTYLE
350
6C
  3
ACAD_VISUALSTYLE
350
2A
1001
ACAD
1000
TREAT_AS_HARD
1070
     0
  0
DICTIONARY
  5
D
102
{ACAD_REACTORS
330
C
102
}
330
C
100
AcDbDictionary
1001
ACAD
1000
TREAT_AS_HARD
1070
     0
  0
DICTIONARY
  5
1A
102
{ACAD_REACTORS
330
C
102
}
330
C
100
AcDbDictionary
1001
ACAD
1000
TREAT_AS_HARD
1070
     0
  0
DICTIONARY
  5
17
102
{ACAD_REACTORS
330
C
102
}
330
C
100
AcDbDictionary
  3
STANDARD
350
18
1001
ACAD
1000
TREAT_AS_HARD
1070
     0
  0
DICTIONARY
  5
19
102
{ACAD_REACTORS
330
C
102
}
330
C
100
AcDbDictionary
1001
ACAD
1000
TREAT_AS_HARD
1070
     0
  0
DICTIONARY
  5
6C
102
{ACAD_REACTORS
330
C
102
}
330
C
100
AcDbDictionary
1001
ACAD
1000
TREAT_AS_HARD
1070
     0
  0
DICTIONARY
  5
2A
102
{ACAD_REACTORS
330
C
102
}
330
C
100
AcDbDictionary
  3
2DWIREFRAME
350
2F
  3
3D_HIDDEN
350
31
  3
3DWIREFRAME
350
30
  3
BASIC
350
32
  3
BRIGHTEN
350
36
  3
COLORCHANGE
350
3A
  3
CONCEPTUAL
350
34
  3
DIM
350
35
  3
FACEPATTERN
350
39
  3
FLAT
350
2B
  3
FLATWITHEDGES
350
2C
  3
GOURAUD
350
2D
  3
GOURAUDWITHEDGES
350
2E
  3
LINEPATTERN
350
38
  3
REALISTIC
350
33
  3
THICKEN
350
37
1001
ACAD
1000
TREAT_AS_HARD
1070
     0
  0
MLINESTYLE
  5
18
102
{ACAD_REACTORS
330
17
102
}
330
17
100
AcDbMlineStyle
  2
Standard
 70
     0
  3

 62
   256
 51
90.0
 52
90.0
 71
     2
 49
0.5
 62
   256
  6
BYLAYER
 49
-0.5
 62
   256
  6
BYLAYER
  0
VISUALSTYLE
  5
2F
102
{ACAD_REACTORS
330
2A
102
}
330
2A
100
AcDbVisualStyle
  2
2dWireframe
 70
     4
 71
     0
 72
     2
 73
     0
 90
        0
 40
-0.6
 41
-30.0
 62
     5
 63
     7
 74
     1
 91
        4
 64
     7
 65
   257
 75
     1
175
     1
 42
1.0
 92
        0
 66
   257
 43
1.0
 76
     1
 77
     6
 78
     2
 67
     7
 79
     5
170
     0
171
     0
290
     0
174
     0
 93
        1
 44
0.0
173
     0
291
     0
 45
0.0
1001
ACAD
1000
AcDbSavedByObjectVersion
1070
     0
  0
VISUALSTYLE
  5
31
102
{ACAD_REACTORS
330
2A
102
}
330
2A
100
AcDbVisualStyle
  2
3D Hidden
 70
     6
 71
     1
 72
     2
 73
     2
 90
        0
 40
-0.6
 41
-30.0
 62
     5
 63
     7
 74
     2
 91
        2
 64
     7
 65
   257
 75
     2
175
     1
 42
40.0
 92
        0
 66
   257
 43
1.0
 76
     1
 77
     6
 78
     2
 67
     7
 79
     3
170
     0
171
     0
290
     0
174
     0
 93
        1
 44
0.0
173
     0
291
     0
 45
0.0
1001
ACAD
1000
AcDbSavedByObjectVersion
1070
     0
  0
VISUALSTYLE
  5
30
102
{ACAD_REACTORS
330
2A
102
}
330
2A
100
AcDbVisualStyle
  2
3dWireframe
 70
     5
 71
     0
 72
     2
 73
     0
 90
        0
 40
-0.6
 41
-30.0
 62
     5
 63
     7
 74
     1
 91
        4
 64
     7
 65
   257
 75
     1
175
     1
 42
1.0
 92
        0
 66
   257
 43
1.0
 76
     1
 77
     6
 78
     2
 67
     7
 79
     5
170
     0
171
     0
290
     0
174
     0
 93
        1
 44
0.0
173
     0
291
     0
 45
0.0
1001
ACAD
1000
AcDbSavedByObjectVersion
1070
     0
  0
VISUALSTYLE
  5
32
102
{ACAD_REACTORS
330
2A
102
}
330
2A
100
AcDbVisualStyle
  2
Basic
 70
     7
 71
     1
 72
     0
 73
     1
 90
        0
 40
-0.6
 41
-30.0
 62
     5
 63
     7
 74
     0
 91
        4
 64
     7
 65
   257
 75
     1
175
     1
 42
1.0
 92
        8
 66
     7
 43
1.0
 76
     1
 77
     6
 78
     2
 67
     7
 79
     5
170
     0
171
     0
290
     0
174
     0
 93
        1
 44
0.0
173
     0
291
     1
 45
0.0
1001
ACAD
1000
AcDbSavedByObjectVersion
1070
     0
  0
VISUALSTYLE
  5
36
102
{ACAD_REACTORS
330
2A
102
}
330
2A
100
AcDbVisualStyle
  2
Brighten
 70
    12
 71
     2
 72
     2
 73
     0
 90
        0
 40
-0.6
 41
-30.0
 62
     5
 63
     7
 74
     1
 91
        4
 64
     7
 65
   257
 75
     1
175
     1
 42
1.0
 92
        8
 66
     7
 43
1.0
 76
     1
 77
     6
 78
     2
 67
     7
 79
     5
170
     0
171
     0
290
     0
174
     0
 93
        1
 44
50.0
173
     0
291
     1
 45
0.0
1001
ACAD
1000
AcDbSavedByObjectVersion
1070
     0
  0
VISUALSTYLE
  5
3A
102
{ACAD_REACTORS
330
2A
102
}
330
2A
100
AcDbVisualStyle
  2
ColorChange
 70
    16
 71
     2
 72
     2
 73
     3
 90
        0
 40
-0.6
 41
-30.0
 62
     5
 63
     8
 74
     1
 91
        4
 64
     7
 65
   257
 75
     1
175
     1
 42
1.0
 92
        8
 66
     8
 43
1.0
 76
     1
 77
     6
 78
     2
 67
     7
 79
     5
170
     0
171
     0
290
     0
174
     0
 93
        1
 44
0.0
173
     0
291
     1
 45
0.0
1001
ACAD
1000
AcDbSavedByObjectVersion
1070
     0
  0
VISUALSTYLE
  5
34
102
{ACAD_REACTORS
330
2A
102
}
330
2A
100
AcDbVisualStyle
  2
Conceptual
 70
     9
 71
     3
 72
     2
 73
     0
 90
        0
 40
-0.6
 41
-30.0
 62
     5
 63
     7
 74
     2
 91
        2
 64
     7
 65
   257
 75
     1
175
     1
 42
40.0
 92
        8
 66
     7
 43
1.0
 76
     1
 77
     6
 78
     2
 67
     7
 79
     3
170
     0
171
     0
290
     0
174
     0
 93
        1
 44
0.0
173
     0
291
     0
 45
0.0
1001
ACAD
1000
AcDbSavedByObjectVersion
1070
     0
  0
VISUALSTYLE
  5
35
102
{ACAD_REACTORS
330
2A
102
}
330
2A
100
AcDbVisualStyle
  2
Dim
 70
    11
 71
     2
 72
     2
 73
     0
 90
        0
 40
-0.6
 41
-30.0
 62
     5
 63
     7
 74
     1
 91
        4
 64
     7
 65
   257
 75
     1
175
     1
 42
1.0
 92
        8
 66
     7
 43
1.0
 76
     1
 77
     6
 78
     2
 67
     7
 79
     5
170
     0
171
     0
290
     0
174
     0
 93
        1
 44
-50.0
173
     0
291
     1
 45
0.0
1001
ACAD
1000
AcDbSavedByObjectVersion
1070
     0
  0
VISUALSTYLE
  5
39
102
{ACAD_REACTORS
330
2A
102
}
330
2A
100
AcDbVisualStyle
  2
Facepattern
 70
    15
 71
     2
 72
     2
 73
     0
 90
        0
 40
-0.6
 41
-30.0
 62
     5
 63
     7
 74
     1
 91
        4
 64
     7
 65
   257
 75
     1
175
     1
 42
1.0
 92
        8
 66
     7
 43
1.0
 76
     1
 77
     6
 78
     2
 67
     7
 79
     5
170
     0
171
     0
290
     0
174
     0
 93
        1
 44
0.0
173
     0
291
     1
 45
0.0
1001
ACAD
1000
AcDbSavedByObjectVersion
1070
     0
  0
VISUALSTYLE
  5
2B
102
{ACAD_REACTORS
330
2A
102
}
330
2A
100
AcDbVisualStyle
  2
Flat
 70
     0
 71
     2
 72
     1
 73
     1
 90
        2
 40
-0.6
 41
30.0
 62
     5
 63
     7
 74
     0
 91
        4
 64
     7
 65
   257
 75
     1
175
     1
 42
1.0
 92
        8
 66
     7
 43
1.0
 76
     1
 77
     6
 78
     2
 67
     7
 79
     5
170
     0
171
     0
290
     0
174
     0
 93
       13
 44
0.0
173
     0
291
     1
 45
0.0
1001
ACAD
1000
AcDbSavedByObjectVersion
1070
     0
  0
VISUALSTYLE
  5
2C
102
{ACAD_REACTORS
330
2A
102
}
330
2A
100
AcDbVisualStyle
  2
FlatWithEdges
 70
     1
 71
     2
 72
     1
 73
     1
 90
        2
 40
-0.6
 41
30.0
 62
     5
 63
     7
 74
     1
 91
        4
 64
     7
 65
   257
 75
     1
175
     1
 42
1.0
 92
        0
 66
   257
 43
1.0
 76
     1
 77
     6
 78
     2
 67
     7
 79
     5
170
     0
171
     0
290
     0
174
     0
 93
       13
 44
0.0
173
     0
291
     1
 45
0.0
1001
ACAD
1000
AcDbSavedByObjectVersion
1070
     0
  0
VISUALSTYLE
  5
2D
102
{ACAD_REACTORS
330
2A
102
}
330
2A
100
AcDbVisualStyle
  2
Gouraud
 70
     2
 71
     2
 72
     2
 73
     1
 90
        2
 40
-0.6
 41
30.0
 62
     5
 63
     7
 74
     0
 91
        4
 64
     7
 65
   257
 75
     1
175
     1
 42
1.0
 92
        0
 66
     7
 43
1.0
 76
     1
 77
     6
 78
     2
 67
     7
 79
     5
170
     0
171
     0
290
     0
174
     0
 93
       13
 44
0.0
173
     0
291
     1
 45
0.0
1001
ACAD
1000
AcDbSavedByObjectVersion
1070
     0
  0
VISUALSTYLE
  5
2E
102
{ACAD_REACTORS
330
2A
102
}
330
2A
100
AcDbVisualStyle
  2
GouraudWithEdges
 70
     3
 71
     2
 72
     2
 73
     1
 90
        2
 40
-0.6
 41
30.0
 62
     5
 63
     7
 74
     1
 91
        4
 64
     7
 65
   257
 75
     1
175
     1
 42
1.0
 92
        0
 66
   257
 43
1.0
 76
     1
 77
     6
 78
     2
 67
     7
 79
     5
170
     0
171
     0
290
     0
174
     0
 93
       13
 44
0.0
173
     0
291
     1
 45
0.0
1001
ACAD
1000
AcDbSavedByObjectVersion
1070
     0
  0
VISUALSTYLE
  5
38
102
{ACAD_REACTORS
330
2A
102
}
330
2A
100
AcDbVisualStyle
  2
Linepattern
 70
    14
 71
     2
 72
     2
 73
     0
 90
        0
 40
-0.6
 41
-30.0
 62
     5
 63
     7
 74
     1
 91
        4
 64
     7
 65
   257
 75
     7
175
     7
 42
1.0
 92
        8
 66
     7
 43
1.0
 76
     1
 77
     6
 78
     2
 67
     7
 79
     5
170
     0
171
     0
290
     0
174
     0
 93
        1
 44
0.0
173
     0
291
     1
 45
0.0
1001
ACAD
1000
AcDbSavedByObjectVersion
1070
     0
  0
VISUALSTYLE
  5
33
102
{ACAD_REACTORS
330
2A
102
}
330
2A
100
AcDbVisualStyle
  2
Realistic
 70
     8
 71
     2
 72
     2
 73
     0
 90
        0
 40
-0.6
 41
-30.0
 62
     5
 63
     7
 74
     1
 91
        0
 64
     7
 65
   257
 75
     1
175
     1
 42
1.0
 92
        8
 66
     8
 43
1.0
 76
     1
 77
     6
 78
     2
 67
     7
 79
     5
170
     0
171
     0
290
     0
174
     0
 93
       13
 44
0.0
173
     0
291
     0
 45
0.0
1001
ACAD
1000
AcDbSavedByObjectVersion
1070
     0
  0
VISUALSTYLE
  5
37
102
{ACAD_REACTORS
330
2A
102
}
330
2A
100
AcDbVisualStyle
  2
Thicken
 70
    13
 71
     2
 72
     2
 73
     0
 90
        0
 40
-0.6
 41
-30.0
 62
     5
 63
     7
 74
     1
 91
        4
 64
     7
 65
   257
 75
     1
175
     1
 42
1.0
 92
       12
 66
     7
 43
1.0
 76
     1
 77
     6
 78
     2
 67
     7
 79
     5
170
     0
171
     0
290
     0
174
     0
 93
        1
 44
0.0
173
     0
291
     1
 45
0.0
1001
ACAD
1000
AcDbSavedByObjectVersion
1070
     0
  0
ENDSEC
  0
EOF
