  0
SECTION
  2
HEADER
  9
$ACADVER
  1
AC1012
  9
$DWGCODEPAGE
  3
ansi_1252
  9
$INSBASE
 10
0.0
 20
0.0
 30
0.0
  9
$EXTMIN
 10
1.000000000000000E+20
 20
1.000000000000000E+20
 30
1.000000000000000E+20
  9
$EXTMAX
 10
-1.000000000000000E+20
 20
-1.000000000000000E+20
 30
-1.000000000000000E+20
  9
$LIMMIN
 10
0.0
 20
0.0
  9
$LIMMAX
 10
12.0
 20
9.0
  9
$ORTHOMODE
 70
     0
  9
$REGENMODE
 70
     1
  9
$FILLMODE
 70
     1
  9
$QTEXTMODE
 70
     0
  9
$MIRRTEXT
 70
     1
  9
$DRAGMODE
 70
     2
  9
$LTSCALE
 40
1.0
  9
$OSMODE
 70
    37
  9
$ATTMODE
 70
     1
  9
$TEXTSIZE
 40
0.2
  9
$TRACEWID
 40
0.05
  9
$TEXTSTYLE
  7
STANDARD
  9
$CLAYER
  8
0
  9
$CELTYPE
  6
BYLAYER
  9
$CECOLOR
 62
   256
  9
$CELTSCALE
 40
1.0
  9
$DELOBJ
 70
     1
  9
$DISPSILH
 70
     0
  9
$DIMSCALE
 40
1.0
  9
$DIMASZ
 40
0.18
  9
$DIMEXO
 40
0.0625
  9
$DIMDLI
 40
0.38
  9
$DIMRND
 40
0.0
  9
$DIMDLE
 40
0.0
  9
$DIMEXE
 40
0.18
  9
$DIMTP
 40
0.0
  9
$DIMTM
 40
0.0
  9
$DIMTXT
 40
0.18
  9
$DIMCEN
 40
0.09
  9
$DIMTSZ
 40
0.0
  9
$DIMTOL
 70
     0
  9
$DIMLIM
 70
     0
  9
$DIMTIH
 70
     1
  9
$DIMTOH
 70
     1
  9
$DIMSE1
 70
     0
  9
$DIMSE2
 70
     0
  9
$DIMTAD
 70
     0
  9
$DIMZIN
 70
     0
  9
$DIMBLK
  1

  9
$DIMASO
 70
     1
  9
$DIMSHO
 70
     1
  9
$DIMPOST
  1

  9
$DIMAPOST
  1

  9
$DIMALT
 70
     0
  9
$DIMALTD
 70
     2
  9
$DIMALTF
 40
25.4
  9
$DIMLFAC
 40
1.0
  9
$DIMTOFL
 70
     0
  9
$DIMTVP
 40
0.0
  9
$DIMTIX
 70
     0
  9
$DIMSOXD
 70
     0
  9
$DIMSAH
 70
     0
  9
$DIMBLK1
  1

  9
$DIMBLK2
  1

  9
$DIMSTYLE
  2
STANDARD
  9
$DIMCLRD
 70
     0
  9
$DIMCLRE
 70
     0
  9
$DIMCLRT
 70
     0
  9
$DIMTFAC
 40
1.0
  9
$DIMGAP
 40
0.09
  9
$DIMJUST
 70
     0
  9
$DIMSD1
 70
     0
  9
$DIMSD2
 70
     0
  9
$DIMTOLJ
 70
     1
  9
$DIMTZIN
 70
     0
  9
$DIMALTZ
 70
     0
  9
$DIMALTTZ
 70
     0
  9
$DIMFIT
 70
     3
  9
$DIMUPT
 70
     0
  9
$DIMUNIT
 70
     2
  9
$DIMDEC
 70
     4
  9
$DIMTDEC
 70
     4
  9
$DIMALTU
 70
     2
  9
$DIMALTTD
 70
     2
  9
$DIMTXSTY
  7
STANDARD
  9
$DIMAUNIT
 70
     0
  9
$LUNITS
 70
     2
  9
$LUPREC
 70
     4
  9
$SKETCHINC
 40
0.1
  9
$FILLETRAD
 40
0.5
  9
$AUNITS
 70
     0
  9
$AUPREC
 70
     0
  9
$MENU
  1
.
  9
$ELEVATION
 40
0.0
  9
$PELEVATION
 40
0.0
  9
$THICKNESS
 40
0.0
  9
$LIMCHECK
 70
     0
  9
$CHAMFERA
 40
0.5
  9
$CHAMFERB
 40
0.5
  9
$CHAMFERC
 40
1.0
  9
$CHAMFERD
 40
0.0
  9
$SKPOLY
 70
     0
  9
$TDCREATE
 40
2456286.566515162
  9
$TDUPDATE
 40
2456286.566515174
  9
$TDINDWG
 40
0.0000000116
  9
$TDUSRTIMER
 40
0.0000000116
  9
$USRTIMER
 70
     1
  9
$ANGBASE
 50
0.0
  9
$ANGDIR
 70
     0
  9
$PDMODE
 70
     0
  9
$PDSIZE
 40
0.0
  9
$PLINEWID
 40
0.0
  9
$COORDS
 70
     1
  9
$SPLFRAME
 70
     0
  9
$SPLINETYPE
 70
     6
  9
$SPLINESEGS
 70
     8
  9
$ATTDIA
 70
     0
  9
$ATTREQ
 70
     1
  9
$HANDLING
 70
     1
  9
$HANDSEED
  5
4F
  9
$SURFTAB1
 70
     6
  9
$SURFTAB2
 70
     6
  9
$SURFTYPE
 70
     6
  9
$SURFU
 70
     6
  9
$SURFV
 70
     6
  9
$UCSNAME
  2

  9
$UCSORG
 10
0.0
 20
0.0
 30
0.0
  9
$UCSXDIR
 10
1.0
 20
0.0
 30
0.0
  9
$UCSYDIR
 10
0.0
 20
1.0
 30
0.0
  9
$PUCSNAME
  2

  9
$PUCSORG
 10
0.0
 20
0.0
 30
0.0
  9
$PUCSXDIR
 10
1.0
 20
0.0
 30
0.0
  9
$PUCSYDIR
 10
0.0
 20
1.0
 30
0.0
  9
$USERI1
 70
     0
  9
$USERI2
 70
     0
  9
$USERI3
 70
     0
  9
$USERI4
 70
     0
  9
$USERI5
 70
     0
  9
$USERR1
 40
0.0
  9
$USERR2
 40
0.0
  9
$USERR3
 40
0.0
  9
$USERR4
 40
0.0
  9
$USERR5
 40
0.0
  9
$WORLDVIEW
 70
     1
  9
$SHADEDGE
 70
     3
  9
$SHADEDIF
 70
    70
  9
$TILEMODE
 70
     1
  9
$MAXACTVP
 70
    64
  9
$PINSBASE
 10
0.0
 20
0.0
 30
0.0
  9
$PLIMCHECK
 70
     0
  9
$PEXTMIN
 10
1.000000000000000E+20
 20
1.000000000000000E+20
 30
1.000000000000000E+20
  9
$PEXTMAX
 10
-1.000000000000000E+20
 20
-1.000000000000000E+20
 30
-1.000000000000000E+20
  9
$PLIMMIN
 10
0.0
 20
0.0
  9
$PLIMMAX
 10
12.0
 20
9.0
  9
$UNITMODE
 70
     0
  9
$VISRETAIN
 70
     1
  9
$PLINEGEN
 70
     0
  9
$PSLTSCALE
 70
     1
  9
$TREEDEPTH
 70
  3020
  9
$PICKSTYLE
 70
     1
  9
$CMLSTYLE
  2
STANDARD
  9
$CMLJUST
 70
     0
  9
$CMLSCALE
 40
1.0
  9
$SAVEIMAGES
 70
     1
  0
ENDSEC
  0
SECTION
  2
CLASSES
  0
CLASS
  1
ACDBDICTIONARYWDFLT
  2
AcDbDictionaryWithDefault
  3
ObjectDBX Classes
 90
    32768
280
     0
281
     0
  0
CLASS
  1
VISUALSTYLE
  2
AcDbVisualStyle
  3
ObjectDBX Classes
 90
     4095
280
     0
281
     0
  0
CLASS
  1
XRECORD
  2
AcDbXrecord
  3
AutoCAD 2000
 90
    32768
280
     0
281
     0
  0
CLASS
  1
LWPOLYLINE
  2
AcDbPolyline
  3
AutoCAD 2000
 90
    32768
280
     0
281
     1
  0
CLASS
  1
HATCH
  2
AcDbHatch
  3
AutoCAD 2000
 90
    32768
280
     0
281
     1
  0
CLASS
  1
ACDBPLACEHOLDER
  2
AcDbPlaceHolder
  3
ObjectDBX Classes
 90
        0
280
     0
281
     0
  0
CLASS
  1
LAYOUT
  2
AcDbLayout
  3
ObjectDBX Classes
 90
        0
280
     0
281
     0
  0
ENDSEC
  0
SECTION
  2
TABLES
  0
TABLE
  2
VPORT
  5
8
330
0
100
AcDbSymbolTable
 70
     1
  0
VPORT
  5
29
330
8
100
AcDbSymbolTableRecord
100
AcDbViewportTableRecord
  2
*ACTIVE
 70
     0
 10
0.0
 20
0.0
 11
1.0
 21
1.0
 12
0.0
 22
0.0
 13
0.0
 23
0.0
 14
0.5
 24
0.5
 15
0.5
 25
0.5
 16
0.0
 26
0.0
 36
1.0
 17
148.4999796178229
 27
-105.0008259828644
 37
0.0
 40
210.0016519657288
 41
1.414274394775308
 42
50.0
 43
0.0
 44
0.0
 50
0.0
 51
0.0
 71
     0
 72
   100
 73
     1
 74
     3
 75
     0
 76
     0
 77
     0
 78
     0
  0
ENDTAB
  0
TABLE
  2
LTYPE
  5
5
330
0
100
AcDbSymbolTable
 70
     1
  0
LTYPE
  5
14
330
5
100
AcDbSymbolTableRecord
100
AcDbLinetypeTableRecord
  2
BYBLOCK
 70
     0
  3

 72
    65
 73
     0
 40
0.0
  0
LTYPE
  5
15
330
5
100
AcDbSymbolTableRecord
100
AcDbLinetypeTableRecord
  2
BYLAYER
 70
     0
  3

 72
    65
 73
     0
 40
0.0
  0
LTYPE
  5
16
330
5
100
AcDbSymbolTableRecord
100
AcDbLinetypeTableRecord
  2
CONTINUOUS
 70
     0
  3
Solid line
 72
    65
 73
     0
 40
0.0
  0
ENDTAB
  0
TABLE
  2
LAYER
  5
2
330
0
100
AcDbSymbolTable
 70
     2
  0
LAYER
  5
10
330
2
100
AcDbSymbolTableRecord
100
AcDbLayerTableRecord
  2
0
 70
     0
 62
     7
  6
CONTINUOUS
  0
LAYER
  5
3B
330
2
100
AcDbSymbolTableRecord
100
AcDbLayerTableRecord
  2
LAYER_1
 70
     0
 62
     7
  6
CONTINUOUS
  0
ENDTAB
  0
TABLE
  2
STYLE
  5
3
330
0
100
AcDbSymbolTable
 70
     1
  0
STYLE
  5
11
330
3
100
AcDbSymbolTableRecord
100
AcDbTextStyleTableRecord
  2
STANDARD
 70
     0
 40
0.0
 41
1.0
 50
0.0
 71
     0
 42
0.2
  3
txt
  4

  0
ENDTAB
  0
TABLE
  2
VIEW
  5
6
330
0
100
AcDbSymbolTable
 70
     0
  0
ENDTAB
  0
TABLE
  2
UCS
  5
7
330
0
100
AcDbSymbolTable
 70
     0
  0
ENDTAB
  0
TABLE
  2
APPID
  5
9
330
0
100
AcDbSymbolTable
 70
     1
  0
APPID
  5
12
330
9
100
AcDbSymbolTableRecord
100
AcDbRegAppTableRecord
  2
ACAD
 70
     0
  0
ENDTAB
  0
TABLE
  2
DIMSTYLE
  5
A
330
0
100
AcDbSymbolTable
 70
     1
  0
DIMSTYLE
105
27
330
A
100
AcDbSymbolTableRecord
100
AcDbDimStyleTableRecord
  2
STANDARD
 70
     0
  3

  4

  5

  6

  7

 40
1.0
 41
0.18
 42
0.0625
 43
0.38
 44
0.18
 45
0.0
 46
0.0
 47
0.0
 48
0.0
140
0.18
141
0.09
142
0.0
143
25.4
144
1.0
145
0.0
146
1.0
147
0.09
 71
     0
 72
     0
 73
     1
 74
     1
 75
     0
 76
     0
 77
     0
 78
     0
170
     0
171
     2
172
     0
173
     0
174
     0
175
     0
176
     0
177
     0
178
     0
270
     2
271
     4
272
     4
273
     2
274
     2
340
11
275
     0
280
     0
281
     0
282
     0
283
     1
284
     0
285
     0
286
     0
287
     3
288
     0
  0
ENDTAB
  0
TABLE
  2
BLOCK_RECORD
  5
1
330
0
100
AcDbSymbolTable
 70
     3
  0
BLOCK_RECORD
  5
1F
330
1
100
AcDbSymbolTableRecord
100
AcDbBlockTableRecord
  2
*MODEL_SPACE
  0
BLOCK_RECORD
  5
1B
330
1
100
AcDbSymbolTableRecord
100
AcDbBlockTableRecord
  2
*PAPER_SPACE
  0
BLOCK_RECORD
  5
3C
330
1
100
AcDbSymbolTableRecord
100
AcDbBlockTableRecord
  2
BLOCK_2
  0
BLOCK_RECORD
  5
49
330
1
100
AcDbSymbolTableRecord
100
AcDbBlockTableRecord
  2
BLOCK_3
  0
ENDTAB
  0
ENDSEC
  0
SECTION
  2
BLOCKS
  0
BLOCK
  5
20
330
1F
100
AcDbEntity
  8
0
100
AcDbBlockBegin
  2
*MODEL_SPACE
 70
     0
 71
     0
 10
0.0
 20
0.0
 30
0.0
  3
*MODEL_SPACE
  1

  0
ENDBLK
  5
21
330
1F
100
AcDbEntity
  8
0
100
AcDbBlockEnd
  0
BLOCK
  5
1C
330
1B
100
AcDbEntity
 67
     1
  8
0
100
AcDbBlockBegin
  2
*PAPER_SPACE
 70
     0
 71
     0
 10
0.0
 20
0.0
 30
0.0
  3
*PAPER_SPACE
  1

  0
ENDBLK
  5
1D
330
1B
100
AcDbEntity
 67
     1
  8
0
100
AcDbBlockEnd
  0
BLOCK
  5
3E
330
3C
100
AcDbEntity
  8
0
100
AcDbBlockBegin
  2
BLOCK_2
 70
     0
 71
     0
 10
0.0
 20
0.0
 30
0.0
  3
BLOCK_2
  1

  0
SPLINE
  5
40
330
3C
100
AcDbEntity
  8
LAYER_1
 62
   250
100
AcDbSpline
210
0.0
220
0.0
230
1.0
 70
    11
 71
     3
 72
    29
 73
    25
 74
     0
 42
0.0000000001
 43
0.0000000001
 40
0.0
 40
0.0
 40
0.0
 40
0.0
 40
1.0
 40
1.0
 40
1.0
 40
2.0
 40
2.0
 40
2.0
 40
3.0
 40
3.0
 40
3.0
 40
4.0
 40
4.0
 40
4.0
 40
5.0
 40
5.0
 40
5.0
 40
6.0
 40
6.0
 40
6.0
 40
7.0
 40
7.0
 40
7.0
 40
8.0
 40
8.0
 40
8.0
 40
8.0
 10
29.7270399231238
 20
33.20589734412908
 30
0.0
 10
29.7270399231238
 20
30.7447211294666
 30
0.0
 10
31.70796982714245
 20
28.74932182440989
 30
0.0
 10
34.15157605483017
 20
28.74932182440989
 30
0.0
 10
34.15157605483017
 20
28.74932182440989
 30
0.0
 10
69.30188529083425
 20
28.74932182440989
 30
0.0
 10
69.30188529083425
 20
28.74932182440989
 30
0.0
 10
71.74583602807049
 20
28.74932182440989
 30
0.0
 10
73.72711044163768
 20
30.7447211294666
 30
0.0
 10
73.72711044163768
 20
33.20589734412908
 30
0.0
 10
73.72711044163768
 20
33.20589734412908
 30
0.0
 10
73.72711044163768
 20
68.5792765128031
 30
0.0
 10
73.72711044163768
 20
68.5792765128031
 30
0.0
 10
73.72711044163768
 20
71.04062498223985
 30
0.0
 10
71.74583602807049
 20
73.03567977774803
 30
0.0
 10
69.30188529083425
 20
73.03567977774803
 30
0.0
 10
69.30188529083425
 20
73.03567977774803
 30
0.0
 10
34.15157605483017
 20
73.03567977774803
 30
0.0
 10
34.15157605483017
 20
73.03567977774803
 30
0.0
 10
31.70796982714245
 20
73.03567977774803
 30
0.0
 10
29.7270399231238
 20
71.04062498223985
 30
0.0
 10
29.7270399231238
 20
68.5792765128031
 30
0.0
 10
29.7270399231238
 20
68.5792765128031
 30
0.0
 10
29.7270399231238
 20
33.20589734412908
 30
0.0
 10
29.7270399231238
 20
33.20589734412908
 30
0.0
  0
SPLINE
  5
41
330
3C
100
AcDbEntity
  8
LAYER_1
 62
   250
100
AcDbSpline
210
0.0
220
0.0
230
1.0
 70
    11
 71
     3
 72
    17
 73
    13
 74
     0
 42
0.0000000001
 43
0.0000000001
 40
0.0
 40
0.0
 40
0.0
 40
0.0
 40
1.0
 40
1.0
 40
1.0
 40
2.0
 40
2.0
 40
2.0
 40
3.0
 40
3.0
 40
3.0
 40
4.0
 40
4.0
 40
4.0
 40
4.0
 10
65.57704805218214
 20
66.39267440831503
 30
0.0
 10
65.57704805218214
 20
65.56430119888671
 30
0.0
 10
66.24849716225732
 20
64.89267983403725
 30
0.0
 10
67.07704262645991
 20
64.89267983403725
 30
0.0
 10
67.90558809066249
 20
64.89267983403725
 30
0.0
 10
68.57703720073769
 20
65.56430119888671
 30
0.0
 10
68.57703720073769
 20
66.39267440831503
 30
0.0
 10
68.57703720073769
 20
67.22121987251761
 30
0.0
 10
67.90558809066249
 20
67.89266898259281
 30
0.0
 10
67.07704262645991
 20
67.89266898259281
 30
0.0
 10
66.24849716225732
 20
67.89266898259281
 30
0.0
 10
65.57704805218214
 20
67.22121987251761
 30
0.0
 10
65.57704805218214
 20
66.39267440831503
 30
0.0
  0
SPLINE
  5
42
330
3C
100
AcDbEntity
  8
LAYER_1
 62
   250
100
AcDbSpline
210
0.0
220
0.0
230
1.0
 70
    11
 71
     3
 72
    17
 73
    13
 74
     0
 42
0.0000000001
 43
0.0000000001
 40
0.0
 40
0.0
 40
0.0
 40
0.0
 40
1.0
 40
1.0
 40
1.0
 40
2.0
 40
2.0
 40
2.0
 40
3.0
 40
3.0
 40
3.0
 40
4.0
 40
4.0
 40
4.0
 40
4.0
 10
34.57704534725852
 20
66.39267440831503
 30
0.0
 10
34.57704534725852
 20
65.56430119888671
 30
0.0
 10
35.24883896688224
 20
64.89267983403725
 30
0.0
 10
36.0770399215363
 20
64.89267983403725
 30
0.0
 10
36.90558538573888
 20
64.89267983403725
 30
0.0
 10
37.57703449581408
 20
65.56430119888671
 30
0.0
 10
37.57703449581408
 20
66.39267440831503
 30
0.0
 10
37.57703449581408
 20
67.22121987251761
 30
0.0
 10
36.90558538573888
 20
67.89266898259281
 30
0.0
 10
36.0770399215363
 20
67.89266898259281
 30
0.0
 10
35.24883896688224
 20
67.89266898259281
 30
0.0
 10
34.57704534725852
 20
67.22121987251761
 30
0.0
 10
34.57704534725852
 20
66.39267440831503
 30
0.0
  0
SPLINE
  5
43
330
3C
100
AcDbEntity
  8
LAYER_1
 62
   250
100
AcDbSpline
210
0.0
220
0.0
230
1.0
 70
    11
 71
     3
 72
    17
 73
    13
 74
     0
 42
0.0000000001
 43
0.0000000001
 40
0.0
 40
0.0
 40
0.0
 40
0.0
 40
1.0
 40
1.0
 40
1.0
 40
2.0
 40
2.0
 40
2.0
 40
3.0
 40
3.0
 40
3.0
 40
4.0
 40
4.0
 40
4.0
 40
4.0
 10
65.57704805218214
 20
35.39284395816568
 30
0.0
 10
65.57704805218214
 20
34.56429849396309
 30
0.0
 10
66.24884167180585
 20
33.8928493838879
 30
0.0
 10
67.07704262645991
 20
33.8928493838879
 30
0.0
 10
67.90558809066249
 20
33.8928493838879
 30
0.0
 10
68.57703720073769
 20
34.56429849396309
 30
0.0
 10
68.57703720073769
 20
35.39284395816568
 30
0.0
 10
68.57703720073769
 20
36.22104491281974
 30
0.0
 10
67.90558809066249
 20
36.89283853244346
 30
0.0
 10
67.07704262645991
 20
36.89283853244346
 30
0.0
 10
66.24884167180585
 20
36.89283853244346
 30
0.0
 10
65.57704805218214
 20
36.22104491281974
 30
0.0
 10
65.57704805218214
 20
35.39284395816568
 30
0.0
  0
SPLINE
  5
44
330
3C
100
AcDbEntity
  8
LAYER_1
 62
   250
100
AcDbSpline
210
0.0
220
0.0
230
1.0
 70
    11
 71
     3
 72
    17
 73
    13
 74
     0
 42
0.0000000001
 43
0.0000000001
 40
0.0
 40
0.0
 40
0.0
 40
0.0
 40
1.0
 40
1.0
 40
1.0
 40
2.0
 40
2.0
 40
2.0
 40
3.0
 40
3.0
 40
3.0
 40
4.0
 40
4.0
 40
4.0
 40
4.0
 10
34.57704534725852
 20
35.39284395816568
 30
0.0
 10
34.57704534725852
 20
34.56429849396309
 30
0.0
 10
35.24883896688224
 20
33.8928493838879
 30
0.0
 10
36.0770399215363
 20
33.8928493838879
 30
0.0
 10
36.90558538573888
 20
33.8928493838879
 30
0.0
 10
37.57703449581408
 20
34.56429849396309
 30
0.0
 10
37.57703449581408
 20
35.39284395816568
 30
0.0
 10
37.57703449581408
 20
36.22104491281974
 30
0.0
 10
36.90558538573888
 20
36.89283853244346
 30
0.0
 10
36.0770399215363
 20
36.89283853244346
 30
0.0
 10
35.24883896688224
 20
36.89283853244346
 30
0.0
 10
34.57704534725852
 20
36.22104491281974
 30
0.0
 10
34.57704534725852
 20
35.39284395816568
 30
0.0
  0
SPLINE
  5
45
330
3C
100
AcDbEntity
  8
LAYER_1
 62
   250
100
AcDbSpline
210
0.0
220
0.0
230
1.0
 70
    11
 71
     3
 72
    17
 73
    13
 74
     0
 42
0.0000000001
 43
0.0000000001
 40
0.0
 40
0.0
 40
0.0
 40
0.0
 40
1.0
 40
1.0
 40
1.0
 40
2.0
 40
2.0
 40
2.0
 40
3.0
 40
3.0
 40
3.0
 40
4.0
 40
4.0
 40
4.0
 40
4.0
 10
39.57725693455014
 20
50.89267305585322
 30
0.0
 10
39.57725693455014
 20
44.26534287087811
 30
0.0
 10
44.94953883424873
 20
38.89271646163099
 30
0.0
 10
51.57721352877237
 20
38.89271646163099
 30
0.0
 10
58.20419920419895
 20
38.89271646163099
 30
0.0
 10
63.5771701229946
 20
44.26534287087811
 30
0.0
 10
63.5771701229946
 20
50.89267305585322
 30
0.0
 10
63.5771701229946
 20
57.52000324082834
 30
0.0
 10
58.20419920419895
 20
62.89262965007546
 30
0.0
 10
51.57721352877237
 20
62.89262965007546
 30
0.0
 10
44.94953883424873
 20
62.89262965007546
 30
0.0
 10
39.57725693455014
 20
57.52000324082834
 30
0.0
 10
39.57725693455014
 20
50.89267305585322
 30
0.0
  0
SPLINE
  5
46
330
3C
100
AcDbEntity
  8
LAYER_1
 62
   250
100
AcDbSpline
210
0.0
220
0.0
230
1.0
 70
    11
 71
     3
 72
    17
 73
    13
 74
     0
 42
0.0000000001
 43
0.0000000001
 40
0.0
 40
0.0
 40
0.0
 40
0.0
 40
1.0
 40
1.0
 40
1.0
 40
2.0
 40
2.0
 40
2.0
 40
3.0
 40
3.0
 40
3.0
 40
4.0
 40
4.0
 40
4.0
 40
4.0
 10
45.57723523166125
 20
50.89267305585322
 30
0.0
 10
45.57723523166125
 20
47.57883570859141
 30
0.0
 10
48.26337618151054
 20
44.89269475874211
 30
0.0
 10
51.57721352877237
 20
44.89269475874211
 30
0.0
 10
54.89070636648566
 20
44.89269475874211
 30
0.0
 10
57.57719182588348
 20
47.57883570859141
 30
0.0
 10
57.57719182588348
 20
50.89267305585322
 30
0.0
 10
57.57719182588348
 20
54.20633814834078
 30
0.0
 10
54.89070636648566
 20
56.89265135296434
 30
0.0
 10
51.57721352877237
 20
56.89265135296434
 30
0.0
 10
48.26337618151054
 20
56.89265135296434
 30
0.0
 10
45.57723523166125
 20
54.20633814834078
 30
0.0
 10
45.57723523166125
 20
50.89267305585322
 30
0.0
  0
ENDBLK
  5
3F
330
3C
100
AcDbEntity
  8
0
100
AcDbBlockEnd
  0
BLOCK
  5
4B
330
49
100
AcDbEntity
  8
0
100
AcDbBlockBegin
  2
BLOCK_3
 70
     0
 71
     0
 10
0.0
 20
0.0
 30
0.0
  3
BLOCK_3
  1

  0
SPLINE
  5
4D
330
49
100
AcDbEntity
  8
LAYER_1
 62
   250
100
AcDbSpline
210
0.0
220
0.0
230
1.0
 70
    11
 71
     3
 72
    47
 73
    43
 74
     0
 42
0.0000000001
 43
0.0000000001
 40
0.0
 40
0.0
 40
0.0
 40
0.0
 40
1.0
 40
1.0
 40
1.0
 40
2.0
 40
2.0
 40
2.0
 40
3.0
 40
3.0
 40
3.0
 40
4.0
 40
4.0
 40
4.0
 40
5.0
 40
5.0
 40
5.0
 40
6.0
 40
6.0
 40
6.0
 40
7.0
 40
7.0
 40
7.0
 40
8.0
 40
8.0
 40
8.0
 40
9.0
 40
9.0
 40
9.0
 40
10.0
 40
10.0
 40
10.0
 40
11.0
 40
11.0
 40
11.0
 40
12.0
 40
12.0
 40
12.0
 40
13.0
 40
13.0
 40
13.0
 40
14.0
 40
14.0
 40
14.0
 40
14.0
 10
28.13402777074427
 20
70.78896075704235
 30
0.0
 10
28.13402777074427
 20
72.98882647914863
 30
0.0
 10
29.93409016178731
 20
74.78888887019167
 30
0.0
 10
32.13412813866786
 20
74.78888887019167
 30
0.0
 10
32.13412813866786
 20
74.78888887019167
 30
0.0
 10
71.84712183533684
 20
74.78888887019167
 30
0.0
 10
71.84712183533684
 20
74.78888887019167
 30
0.0
 10
74.04715981221737
 20
74.78888887019167
 30
0.0
 10
75.84722220326042
 20
72.98882647914863
 30
0.0
 10
75.84722220326042
 20
70.78896075704235
 30
0.0
 10
75.84722220326042
 20
70.78896075704235
 30
0.0
 10
75.84722220326042
 20
17.58204480897254
 30
0.0
 10
75.84722220326042
 20
17.58204480897254
 30
0.0
 10
75.84722220326042
 20
15.382006832092
 30
0.0
 10
74.57460393100914
 20
12.30932616879767
 30
0.0
 10
73.0187988098703
 20
10.75352104765884
 30
0.0
 10
73.0187988098703
 20
10.75352104765884
 30
0.0
 10
65.09370115560158
 20
2.828423393390116
 30
0.0
 10
65.09370115560158
 20
2.828423393390116
 30
0.0
 10
63.53789603446275
 20
1.27261827225129
 30
0.0
 10
60.46521537116842
 20
0.0
 30
0.0
 10
58.26517739428787
 20
0.0
 30
0.0
 10
58.26517739428787
 20
0.0
 30
0.0
 10
3.999928113149324
 20
0.0
 30
0.0
 10
3.999928113149324
 20
0.0
 30
0.0
 10
1.80006239104304
 20
0.0
 30
0.0
 10
0.0
 20
1.80006239104304
 30
0.0
 10
0.0
 20
4.000100367923586
 30
0.0
 10
0.0
 20
4.000100367923586
 30
0.0
 10
0.0
 20
36.39295517753371
 30
0.0
 10
0.0
 20
36.39295517753371
 30
0.0
 10
0.0
 20
38.59299315441425
 30
0.0
 10
1.80006239104304
 20
40.39305554545729
 30
0.0
 10
3.999928113149324
 20
40.39305554545729
 30
0.0
 10
3.999928113149324
 20
40.39305554545729
 30
0.0
 10
24.13409965759495
 20
40.39305554545729
 30
0.0
 10
24.13409965759495
 20
40.39305554545729
 30
0.0
 10
26.33396537970123
 20
40.39305554545729
 30
0.0
 10
28.13402777074427
 20
42.19311793650034
 30
0.0
 10
28.13402777074427
 20
44.39315591338088
 30
0.0
 10
28.13402777074427
 20
44.39315591338088
 30
0.0
 10
28.13402777074427
 20
70.78896075704235
 30
0.0
 10
28.13402777074427
 20
70.78896075704235
 30
0.0
  0
ENDBLK
  5
4C
330
49
100
AcDbEntity
  8
0
100
AcDbBlockEnd
  0
ENDSEC
  0
SECTION
  2
ENTITIES
  0
INSERT
  5
3D
330
1F
100
AcDbEntity
  8
LAYER_1
100
AcDbBlockReference
  2
BLOCK_2
 10
0.0
 20
0.0
 30
0.0
  0
SPLINE
  5
47
330
1F
100
AcDbEntity
  8
LAYER_1
 62
     7
100
AcDbSpline
210
0.0
220
0.0
230
1.0
 70
    11
 71
     3
 72
    83
 73
    79
 74
     0
 42
0.0000000001
 43
0.0000000001
 40
0.0
 40
0.0
 40
0.0
 40
0.0
 40
1.0
 40
1.0
 40
1.0
 40
2.0
 40
2.0
 40
2.0
 40
3.0
 40
3.0
 40
3.0
 40
4.0
 40
4.0
 40
4.0
 40
5.0
 40
5.0
 40
5.0
 40
6.0
 40
6.0
 40
6.0
 40
7.0
 40
7.0
 40
7.0
 40
8.0
 40
8.0
 40
8.0
 40
9.0
 40
9.0
 40
9.0
 40
10.0
 40
10.0
 40
10.0
 40
11.0
 40
11.0
 40
11.0
 40
12.0
 40
12.0
 40
12.0
 40
13.0
 40
13.0
 40
13.0
 40
14.0
 40
14.0
 40
14.0
 40
15.0
 40
15.0
 40
15.0
 40
16.0
 40
16.0
 40
16.0
 40
17.0
 40
17.0
 40
17.0
 40
18.0
 40
18.0
 40
18.0
 40
19.0
 40
19.0
 40
19.0
 40
20.0
 40
20.0
 40
20.0
 40
21.0
 40
21.0
 40
21.0
 40
22.0
 40
22.0
 40
22.0
 40
23.0
 40
23.0
 40
23.0
 40
24.0
 40
24.0
 40
24.0
 40
25.0
 40
25.0
 40
25.0
 40
26.0
 40
26.0
 40
26.0
 40
26.0
 10
2.706467013212272
 20
5.988953991558318
 30
0.0
 10
2.706467013212272
 20
5.988953991558318
 30
0.0
 10
2.706467013212272
 20
24.70753580111478
 30
0.0
 10
2.706467013212272
 20
24.70753580111478
 30
0.0
 10
1.979896375373082
 20
25.14506292774151
 30
0.0
 10
1.492759873758755
 20
25.93881292754308
 30
0.0
 10
1.492759873758755
 20
26.84866264519756
 30
0.0
 10
1.492759873758755
 20
28.22980142523422
 30
0.0
 10
2.611726887367902
 20
29.34876843884336
 30
0.0
 10
3.992865667404562
 20
29.34876843884336
 30
0.0
 10
4.940955944945316
 20
29.34876843884336
 30
0.0
 10
5.765367294565602
 20
28.82132432005162
 30
0.0
 10
6.189458548799858
 20
28.04376626903073
 30
0.0
 10
6.189458548799858
 20
28.04376626903073
 30
0.0
 10
7.9564480231845
 20
28.04376626903073
 30
0.0
 10
7.9564480231845
 20
28.04376626903073
 30
0.0
 10
7.9564480231845
 20
28.04376626903073
 30
0.0
 10
7.9564480231845
 20
34.78616264321318
 30
0.0
 10
7.9564480231845
 20
34.78616264321318
 30
0.0
 10
7.319449867961804
 20
35.23919269952354
 30
0.0
 10
6.902937823795099
 20
35.98161077659488
 30
0.0
 10
6.902937823795099
 20
36.82290309409289
 30
0.0
 10
6.902937823795099
 20
38.20404187412954
 30
0.0
 10
8.021904837404247
 20
39.32300888773869
 30
0.0
 10
9.403043617440906
 20
39.32300888773869
 30
0.0
 10
10.34045409897739
 20
39.32300888773869
 30
0.0
 10
11.15590820033602
 20
38.80693358404827
 30
0.0
 10
11.58378905960405
 20
38.04384493406543
 30
0.0
 10
11.58378905960405
 20
38.04384493406543
 30
0.0
 10
19.45100910972058
 20
38.04384493406543
 30
0.0
 10
19.45100910972058
 20
38.04384493406543
 30
0.0
 10
19.87888996898861
 20
38.80693358404827
 30
0.0
 10
20.69434407034725
 20
39.32300888773869
 30
0.0
 10
21.63175455188373
 20
39.32300888773869
 30
0.0
 10
23.01289333192039
 20
39.32300888773869
 30
0.0
 10
24.13186034552954
 20
38.20404187412954
 30
0.0
 10
24.13186034552954
 20
36.82290309409289
 30
0.0
 10
24.13186034552954
 20
35.92890081567055
 30
0.0
 10
23.66160481179293
 20
35.14720865006736
 30
0.0
 10
22.95639376596229
 20
34.70520289930981
 30
0.0
 10
22.95639376596229
 20
34.70520289930981
 30
0.0
 10
22.95639376596229
 20
28.04376626903073
 30
0.0
 10
22.95639376596229
 20
28.04376626903073
 30
0.0
 10
22.95639376596229
 20
28.04376626903073
 30
0.0
 10
24.45742186888565
 20
28.04376626903073
 30
0.0
 10
24.45742186888565
 20
28.04376626903073
 30
0.0
 10
24.8815131231199
 20
28.82132432005162
 30
0.0
 10
25.70592447274019
 20
29.34876843884336
 30
0.0
 10
26.65401475028094
 20
29.34876843884336
 30
0.0
 10
28.0351535303176
 20
29.34876843884336
 30
0.0
 10
29.15412054392675
 20
28.22980142523422
 30
0.0
 10
29.15412054392675
 20
26.84866264519756
 30
0.0
 10
29.15412054392675
 20
26.05456813584747
 30
0.0
 10
28.78308376016534
 20
25.34866807091978
 30
0.0
 10
28.20637477593452
 20
24.89081488093008
 30
0.0
 10
28.20637477593452
 20
24.89081488093008
 30
0.0
 10
28.20637477593452
 20
5.805674911743026
 30
0.0
 10
28.20637477593452
 20
5.805674911743026
 30
0.0
 10
28.78308376016534
 20
5.347821721753323
 30
0.0
 10
29.15412054392675
 20
4.641921656825631
 30
0.0
 10
29.15412054392675
 20
3.847827147475543
 30
0.0
 10
29.15412054392675
 20
2.466688367438884
 30
0.0
 10
28.0351535303176
 20
1.347721353829736
 30
0.0
 10
26.65401475028094
 20
1.347721353829736
 30
0.0
 10
25.75139973314548
 20
1.347721353829736
 30
0.0
 10
24.96316188612032
 20
1.827278645376514
 30
0.0
 10
24.52356770220244
 20
2.54385850630848
 30
0.0
 10
24.52356770220244
 20
2.54385850630848
 30
0.0
 10
6.123312715483061
 20
2.54385850630848
 30
0.0
 10
6.123312715483061
 20
2.54385850630848
 30
0.0
 10
5.683718531565182
 20
1.827278645376514
 30
0.0
 10
4.895480684540019
 20
1.347721353829736
 30
0.0
 10
3.992865667404562
 20
1.347721353829736
 30
0.0
 10
2.611726887367902
 20
1.347721353829736
 30
0.0
 10
1.492759873758755
 20
2.466688367438884
 30
0.0
 10
1.492759873758755
 20
3.847827147475543
 30
0.0
 10
1.492759873758755
 20
4.757676865130025
 30
0.0
 10
1.979896375373082
 20
5.551426864931588
 30
0.0
 10
2.706467013212272
 20
5.988953991558318
 30
0.0
  0
SPLINE
  5
48
330
1F
100
AcDbEntity
  8
LAYER_1
 62
   250
100
AcDbSpline
210
0.0
220
0.0
230
1.0
 70
    11
 71
     3
 72
    17
 73
    13
 74
     0
 42
0.0000000001
 43
0.0000000001
 40
0.0
 40
0.0
 40
0.0
 40
0.0
 40
1.0
 40
1.0
 40
1.0
 40
2.0
 40
2.0
 40
2.0
 40
3.0
 40
3.0
 40
3.0
 40
4.0
 40
4.0
 40
4.0
 40
4.0
 10
12.32345106028719
 20
15.08124999622969
 30
0.0
 10
12.32345106028719
 20
13.42450357737304
 30
0.0
 10
13.66669378998611
 20
12.08126084767413
 30
0.0
 10
15.32344020884275
 20
12.08126084767413
 30
0.0
 10
16.9801866276994
 20
12.08126084767413
 30
0.0
 10
18.32342935739831
 20
13.42450357737304
 30
0.0
 10
18.32342935739831
 20
15.08124999622969
 30
0.0
 10
18.32342935739831
 20
16.73799641508634
 30
0.0
 10
16.9801866276994
 20
18.08123914478525
 30
0.0
 10
15.32344020884275
 20
18.08123914478525
 30
0.0
 10
13.66669378998611
 20
18.08123914478525
 30
0.0
 10
12.32345106028719
 20
16.73799641508634
 30
0.0
 10
12.32345106028719
 20
15.08124999622969
 30
0.0
  0
INSERT
  5
4A
330
1F
100
AcDbEntity
  8
LAYER_1
100
AcDbBlockReference
  2
BLOCK_3
 10
0.0
 20
0.0
 30
0.0
  0
ENDSEC
  0
SECTION
  2
OBJECTS
  0
DICTIONARY
  5
C
330
0
100
AcDbDictionary
  3
ACAD_GROUP
350
D
  3
ACAD_LAYOUT
350
1A
  3
ACAD_MLINESTYLE
350
17
  3
ACAD_PLOTSETTINGS
350
19
  3
ACAD_TABLESTYLE
350
4E
  3
ACAD_VISUALSTYLE
350
2A
1001
ACAD
1000
TREAT_AS_HARD
1070
     0
  0
DICTIONARY
  5
D
102
{ACAD_REACTORS
330
C
102
}
330
C
100
AcDbDictionary
1001
ACAD
1000
TREAT_AS_HARD
1070
     0
  0
DICTIONARY
  5
1A
102
{ACAD_REACTORS
330
C
102
}
330
C
100
AcDbDictionary
1001
ACAD
1000
TREAT_AS_HARD
1070
     0
  0
DICTIONARY
  5
17
102
{ACAD_REACTORS
330
C
102
}
330
C
100
AcDbDictionary
  3
STANDARD
350
18
1001
ACAD
1000
TREAT_AS_HARD
1070
     0
  0
DICTIONARY
  5
19
102
{ACAD_REACTORS
330
C
102
}
330
C
100
AcDbDictionary
1001
ACAD
1000
TREAT_AS_HARD
1070
     0
  0
DICTIONARY
  5
4E
102
{ACAD_REACTORS
330
C
102
}
330
C
100
AcDbDictionary
1001
ACAD
1000
TREAT_AS_HARD
1070
     0
  0
DICTIONARY
  5
2A
102
{ACAD_REACTORS
330
C
102
}
330
C
100
AcDbDictionary
  3
2DWIREFRAME
350
2F
  3
3D_HIDDEN
350
31
  3
3DWIREFRAME
350
30
  3
BASIC
350
32
  3
BRIGHTEN
350
36
  3
COLORCHANGE
350
3A
  3
CONCEPTUAL
350
34
  3
DIM
350
35
  3
FACEPATTERN
350
39
  3
FLAT
350
2B
  3
FLATWITHEDGES
350
2C
  3
GOURAUD
350
2D
  3
GOURAUDWITHEDGES
350
2E
  3
LINEPATTERN
350
38
  3
REALISTIC
350
33
  3
THICKEN
350
37
1001
ACAD
1000
TREAT_AS_HARD
1070
     0
  0
MLINESTYLE
  5
18
102
{ACAD_REACTORS
330
17
102
}
330
17
100
AcDbMlineStyle
  2
Standard
 70
     0
  3

 62
   256
 51
90.0
 52
90.0
 71
     2
 49
0.5
 62
   256
  6
BYLAYER
 49
-0.5
 62
   256
  6
BYLAYER
  0
VISUALSTYLE
  5
2F
102
{ACAD_REACTORS
330
2A
102
}
330
2A
100
AcDbVisualStyle
  2
2dWireframe
 70
     4
 71
     0
 72
     2
 73
     0
 90
        0
 40
-0.6
 41
-30.0
 62
     5
 63
     7
 74
     1
 91
        4
 64
     7
 65
   257
 75
     1
175
     1
 42
1.0
 92
        0
 66
   257
 43
1.0
 76
     1
 77
     6
 78
     2
 67
     7
 79
     5
170
     0
171
     0
290
     0
174
     0
 93
        1
 44
0.0
173
     0
291
     0
 45
0.0
1001
ACAD
1000
AcDbSavedByObjectVersion
1070
     0
  0
VISUALSTYLE
  5
31
102
{ACAD_REACTORS
330
2A
102
}
330
2A
100
AcDbVisualStyle
  2
3D Hidden
 70
     6
 71
     1
 72
     2
 73
     2
 90
        0
 40
-0.6
 41
-30.0
 62
     5
 63
     7
 74
     2
 91
        2
 64
     7
 65
   257
 75
     2
175
     1
 42
40.0
 92
        0
 66
   257
 43
1.0
 76
     1
 77
     6
 78
     2
 67
     7
 79
     3
170
     0
171
     0
290
     0
174
     0
 93
        1
 44
0.0
173
     0
291
     0
 45
0.0
1001
ACAD
1000
AcDbSavedByObjectVersion
1070
     0
  0
VISUALSTYLE
  5
30
102
{ACAD_REACTORS
330
2A
102
}
330
2A
100
AcDbVisualStyle
  2
3dWireframe
 70
     5
 71
     0
 72
     2
 73
     0
 90
        0
 40
-0.6
 41
-30.0
 62
     5
 63
     7
 74
     1
 91
        4
 64
     7
 65
   257
 75
     1
175
     1
 42
1.0
 92
        0
 66
   257
 43
1.0
 76
     1
 77
     6
 78
     2
 67
     7
 79
     5
170
     0
171
     0
290
     0
174
     0
 93
        1
 44
0.0
173
     0
291
     0
 45
0.0
1001
ACAD
1000
AcDbSavedByObjectVersion
1070
     0
  0
VISUALSTYLE
  5
32
102
{ACAD_REACTORS
330
2A
102
}
330
2A
100
AcDbVisualStyle
  2
Basic
 70
     7
 71
     1
 72
     0
 73
     1
 90
        0
 40
-0.6
 41
-30.0
 62
     5
 63
     7
 74
     0
 91
        4
 64
     7
 65
   257
 75
     1
175
     1
 42
1.0
 92
        8
 66
     7
 43
1.0
 76
     1
 77
     6
 78
     2
 67
     7
 79
     5
170
     0
171
     0
290
     0
174
     0
 93
        1
 44
0.0
173
     0
291
     1
 45
0.0
1001
ACAD
1000
AcDbSavedByObjectVersion
1070
     0
  0
VISUALSTYLE
  5
36
102
{ACAD_REACTORS
330
2A
102
}
330
2A
100
AcDbVisualStyle
  2
Brighten
 70
    12
 71
     2
 72
     2
 73
     0
 90
        0
 40
-0.6
 41
-30.0
 62
     5
 63
     7
 74
     1
 91
        4
 64
     7
 65
   257
 75
     1
175
     1
 42
1.0
 92
        8
 66
     7
 43
1.0
 76
     1
 77
     6
 78
     2
 67
     7
 79
     5
170
     0
171
     0
290
     0
174
     0
 93
        1
 44
50.0
173
     0
291
     1
 45
0.0
1001
ACAD
1000
AcDbSavedByObjectVersion
1070
     0
  0
VISUALSTYLE
  5
3A
102
{ACAD_REACTORS
330
2A
102
}
330
2A
100
AcDbVisualStyle
  2
ColorChange
 70
    16
 71
     2
 72
     2
 73
     3
 90
        0
 40
-0.6
 41
-30.0
 62
     5
 63
     8
 74
     1
 91
        4
 64
     7
 65
   257
 75
     1
175
     1
 42
1.0
 92
        8
 66
     8
 43
1.0
 76
     1
 77
     6
 78
     2
 67
     7
 79
     5
170
     0
171
     0
290
     0
174
     0
 93
        1
 44
0.0
173
     0
291
     1
 45
0.0
1001
ACAD
1000
AcDbSavedByObjectVersion
1070
     0
  0
VISUALSTYLE
  5
34
102
{ACAD_REACTORS
330
2A
102
}
330
2A
100
AcDbVisualStyle
  2
Conceptual
 70
     9
 71
     3
 72
     2
 73
     0
 90
        0
 40
-0.6
 41
-30.0
 62
     5
 63
     7
 74
     2
 91
        2
 64
     7
 65
   257
 75
     1
175
     1
 42
40.0
 92
        8
 66
     7
 43
1.0
 76
     1
 77
     6
 78
     2
 67
     7
 79
     3
170
     0
171
     0
290
     0
174
     0
 93
        1
 44
0.0
173
     0
291
     0
 45
0.0
1001
ACAD
1000
AcDbSavedByObjectVersion
1070
     0
  0
VISUALSTYLE
  5
35
102
{ACAD_REACTORS
330
2A
102
}
330
2A
100
AcDbVisualStyle
  2
Dim
 70
    11
 71
     2
 72
     2
 73
     0
 90
        0
 40
-0.6
 41
-30.0
 62
     5
 63
     7
 74
     1
 91
        4
 64
     7
 65
   257
 75
     1
175
     1
 42
1.0
 92
        8
 66
     7
 43
1.0
 76
     1
 77
     6
 78
     2
 67
     7
 79
     5
170
     0
171
     0
290
     0
174
     0
 93
        1
 44
-50.0
173
     0
291
     1
 45
0.0
1001
ACAD
1000
AcDbSavedByObjectVersion
1070
     0
  0
VISUALSTYLE
  5
39
102
{ACAD_REACTORS
330
2A
102
}
330
2A
100
AcDbVisualStyle
  2
Facepattern
 70
    15
 71
     2
 72
     2
 73
     0
 90
        0
 40
-0.6
 41
-30.0
 62
     5
 63
     7
 74
     1
 91
        4
 64
     7
 65
   257
 75
     1
175
     1
 42
1.0
 92
        8
 66
     7
 43
1.0
 76
     1
 77
     6
 78
     2
 67
     7
 79
     5
170
     0
171
     0
290
     0
174
     0
 93
        1
 44
0.0
173
     0
291
     1
 45
0.0
1001
ACAD
1000
AcDbSavedByObjectVersion
1070
     0
  0
VISUALSTYLE
  5
2B
102
{ACAD_REACTORS
330
2A
102
}
330
2A
100
AcDbVisualStyle
  2
Flat
 70
     0
 71
     2
 72
     1
 73
     1
 90
        2
 40
-0.6
 41
30.0
 62
     5
 63
     7
 74
     0
 91
        4
 64
     7
 65
   257
 75
     1
175
     1
 42
1.0
 92
        8
 66
     7
 43
1.0
 76
     1
 77
     6
 78
     2
 67
     7
 79
     5
170
     0
171
     0
290
     0
174
     0
 93
       13
 44
0.0
173
     0
291
     1
 45
0.0
1001
ACAD
1000
AcDbSavedByObjectVersion
1070
     0
  0
VISUALSTYLE
  5
2C
102
{ACAD_REACTORS
330
2A
102
}
330
2A
100
AcDbVisualStyle
  2
FlatWithEdges
 70
     1
 71
     2
 72
     1
 73
     1
 90
        2
 40
-0.6
 41
30.0
 62
     5
 63
     7
 74
     1
 91
        4
 64
     7
 65
   257
 75
     1
175
     1
 42
1.0
 92
        0
 66
   257
 43
1.0
 76
     1
 77
     6
 78
     2
 67
     7
 79
     5
170
     0
171
     0
290
     0
174
     0
 93
       13
 44
0.0
173
     0
291
     1
 45
0.0
1001
ACAD
1000
AcDbSavedByObjectVersion
1070
     0
  0
VISUALSTYLE
  5
2D
102
{ACAD_REACTORS
330
2A
102
}
330
2A
100
AcDbVisualStyle
  2
Gouraud
 70
     2
 71
     2
 72
     2
 73
     1
 90
        2
 40
-0.6
 41
30.0
 62
     5
 63
     7
 74
     0
 91
        4
 64
     7
 65
   257
 75
     1
175
     1
 42
1.0
 92
        0
 66
     7
 43
1.0
 76
     1
 77
     6
 78
     2
 67
     7
 79
     5
170
     0
171
     0
290
     0
174
     0
 93
       13
 44
0.0
173
     0
291
     1
 45
0.0
1001
ACAD
1000
AcDbSavedByObjectVersion
1070
     0
  0
VISUALSTYLE
  5
2E
102
{ACAD_REACTORS
330
2A
102
}
330
2A
100
AcDbVisualStyle
  2
GouraudWithEdges
 70
     3
 71
     2
 72
     2
 73
     1
 90
        2
 40
-0.6
 41
30.0
 62
     5
 63
     7
 74
     1
 91
        4
 64
     7
 65
   257
 75
     1
175
     1
 42
1.0
 92
        0
 66
   257
 43
1.0
 76
     1
 77
     6
 78
     2
 67
     7
 79
     5
170
     0
171
     0
290
     0
174
     0
 93
       13
 44
0.0
173
     0
291
     1
 45
0.0
1001
ACAD
1000
AcDbSavedByObjectVersion
1070
     0
  0
VISUALSTYLE
  5
38
102
{ACAD_REACTORS
330
2A
102
}
330
2A
100
AcDbVisualStyle
  2
Linepattern
 70
    14
 71
     2
 72
     2
 73
     0
 90
        0
 40
-0.6
 41
-30.0
 62
     5
 63
     7
 74
     1
 91
        4
 64
     7
 65
   257
 75
     7
175
     7
 42
1.0
 92
        8
 66
     7
 43
1.0
 76
     1
 77
     6
 78
     2
 67
     7
 79
     5
170
     0
171
     0
290
     0
174
     0
 93
        1
 44
0.0
173
     0
291
     1
 45
0.0
1001
ACAD
1000
AcDbSavedByObjectVersion
1070
     0
  0
VISUALSTYLE
  5
33
102
{ACAD_REACTORS
330
2A
102
}
330
2A
100
AcDbVisualStyle
  2
Realistic
 70
     8
 71
     2
 72
     2
 73
     0
 90
        0
 40
-0.6
 41
-30.0
 62
     5
 63
     7
 74
     1
 91
        0
 64
     7
 65
   257
 75
     1
175
     1
 42
1.0
 92
        8
 66
     8
 43
1.0
 76
     1
 77
     6
 78
     2
 67
     7
 79
     5
170
     0
171
     0
290
     0
174
     0
 93
       13
 44
0.0
173
     0
291
     0
 45
0.0
1001
ACAD
1000
AcDbSavedByObjectVersion
1070
     0
  0
VISUALSTYLE
  5
37
102
{ACAD_REACTORS
330
2A
102
}
330
2A
100
AcDbVisualStyle
  2
Thicken
 70
    13
 71
     2
 72
     2
 73
     0
 90
        0
 40
-0.6
 41
-30.0
 62
     5
 63
     7
 74
     1
 91
        4
 64
     7
 65
   257
 75
     1
175
     1
 42
1.0
 92
       12
 66
     7
 43
1.0
 76
     1
 77
     6
 78
     2
 67
     7
 79
     5
170
     0
171
     0
290
     0
174
     0
 93
        1
 44
0.0
173
     0
291
     1
 45
0.0
1001
ACAD
1000
AcDbSavedByObjectVersion
1070
     0
  0
ENDSEC
  0
EOF
