  0
SECTION
  2
HEADER
  9
$ACADVER
  1
AC1012
  9
$DWGCODEPAGE
  3
ansi_1252
  9
$INSBASE
 10
0.0
 20
0.0
 30
0.0
  9
$EXTMIN
 10
1.000000000000000E+20
 20
1.000000000000000E+20
 30
1.000000000000000E+20
  9
$EXTMAX
 10
-1.000000000000000E+20
 20
-1.000000000000000E+20
 30
-1.000000000000000E+20
  9
$LIMMIN
 10
0.0
 20
0.0
  9
$LIMMAX
 10
12.0
 20
9.0
  9
$ORTHOMODE
 70
     0
  9
$REGENMODE
 70
     1
  9
$FILLMODE
 70
     1
  9
$QTEXTMODE
 70
     0
  9
$MIRRTEXT
 70
     1
  9
$DRAGMODE
 70
     2
  9
$LTSCALE
 40
1.0
  9
$OSMODE
 70
    37
  9
$ATTMODE
 70
     1
  9
$TEXTSIZE
 40
0.2
  9
$TRACEWID
 40
0.05
  9
$TEXTSTYLE
  7
STANDARD
  9
$CLAYER
  8
0
  9
$CELTYPE
  6
BYLAYER
  9
$CECOLOR
 62
   256
  9
$CELTSCALE
 40
1.0
  9
$DELOBJ
 70
     1
  9
$DISPSILH
 70
     0
  9
$DIMSCALE
 40
1.0
  9
$DIMASZ
 40
0.18
  9
$DIMEXO
 40
0.0625
  9
$DIMDLI
 40
0.38
  9
$DIMRND
 40
0.0
  9
$DIMDLE
 40
0.0
  9
$DIMEXE
 40
0.18
  9
$DIMTP
 40
0.0
  9
$DIMTM
 40
0.0
  9
$DIMTXT
 40
0.18
  9
$DIMCEN
 40
0.09
  9
$DIMTSZ
 40
0.0
  9
$DIMTOL
 70
     0
  9
$DIMLIM
 70
     0
  9
$DIMTIH
 70
     1
  9
$DIMTOH
 70
     1
  9
$DIMSE1
 70
     0
  9
$DIMSE2
 70
     0
  9
$DIMTAD
 70
     0
  9
$DIMZIN
 70
     0
  9
$DIMBLK
  1

  9
$DIMASO
 70
     1
  9
$DIMSHO
 70
     1
  9
$DIMPOST
  1

  9
$DIMAPOST
  1

  9
$DIMALT
 70
     0
  9
$DIMALTD
 70
     2
  9
$DIMALTF
 40
25.4
  9
$DIMLFAC
 40
1.0
  9
$DIMTOFL
 70
     0
  9
$DIMTVP
 40
0.0
  9
$DIMTIX
 70
     0
  9
$DIMSOXD
 70
     0
  9
$DIMSAH
 70
     0
  9
$DIMBLK1
  1

  9
$DIMBLK2
  1

  9
$DIMSTYLE
  2
STANDARD
  9
$DIMCLRD
 70
     0
  9
$DIMCLRE
 70
     0
  9
$DIMCLRT
 70
     0
  9
$DIMTFAC
 40
1.0
  9
$DIMGAP
 40
0.09
  9
$DIMJUST
 70
     0
  9
$DIMSD1
 70
     0
  9
$DIMSD2
 70
     0
  9
$DIMTOLJ
 70
     1
  9
$DIMTZIN
 70
     0
  9
$DIMALTZ
 70
     0
  9
$DIMALTTZ
 70
     0
  9
$DIMFIT
 70
     3
  9
$DIMUPT
 70
     0
  9
$DIMUNIT
 70
     2
  9
$DIMDEC
 70
     4
  9
$DIMTDEC
 70
     4
  9
$DIMALTU
 70
     2
  9
$DIMALTTD
 70
     2
  9
$DIMTXSTY
  7
STANDARD
  9
$DIMAUNIT
 70
     0
  9
$LUNITS
 70
     2
  9
$LUPREC
 70
     4
  9
$SKETCHINC
 40
0.1
  9
$FILLETRAD
 40
0.5
  9
$AUNITS
 70
     0
  9
$AUPREC
 70
     0
  9
$MENU
  1
.
  9
$ELEVATION
 40
0.0
  9
$PELEVATION
 40
0.0
  9
$THICKNESS
 40
0.0
  9
$LIMCHECK
 70
     0
  9
$CHAMFERA
 40
0.5
  9
$CHAMFERB
 40
0.5
  9
$CHAMFERC
 40
1.0
  9
$CHAMFERD
 40
0.0
  9
$SKPOLY
 70
     0
  9
$TDCREATE
 40
2456589.522537859
  9
$TDUPDATE
 40
2456589.52253787
  9
$TDINDWG
 40
0.0000000116
  9
$TDUSRTIMER
 40
0.0000000116
  9
$USRTIMER
 70
     1
  9
$ANGBASE
 50
0.0
  9
$ANGDIR
 70
     0
  9
$PDMODE
 70
     0
  9
$PDSIZE
 40
0.0
  9
$PLINEWID
 40
0.0
  9
$COORDS
 70
     1
  9
$SPLFRAME
 70
     0
  9
$SPLINETYPE
 70
     6
  9
$SPLINESEGS
 70
     8
  9
$ATTDIA
 70
     0
  9
$ATTREQ
 70
     1
  9
$HANDLING
 70
     1
  9
$HANDSEED
  5
5F
  9
$SURFTAB1
 70
     6
  9
$SURFTAB2
 70
     6
  9
$SURFTYPE
 70
     6
  9
$SURFU
 70
     6
  9
$SURFV
 70
     6
  9
$UCSNAME
  2

  9
$UCSORG
 10
0.0
 20
0.0
 30
0.0
  9
$UCSXDIR
 10
1.0
 20
0.0
 30
0.0
  9
$UCSYDIR
 10
0.0
 20
1.0
 30
0.0
  9
$PUCSNAME
  2

  9
$PUCSORG
 10
0.0
 20
0.0
 30
0.0
  9
$PUCSXDIR
 10
1.0
 20
0.0
 30
0.0
  9
$PUCSYDIR
 10
0.0
 20
1.0
 30
0.0
  9
$USERI1
 70
     0
  9
$USERI2
 70
     0
  9
$USERI3
 70
     0
  9
$USERI4
 70
     0
  9
$USERI5
 70
     0
  9
$USERR1
 40
0.0
  9
$USERR2
 40
0.0
  9
$USERR3
 40
0.0
  9
$USERR4
 40
0.0
  9
$USERR5
 40
0.0
  9
$WORLDVIEW
 70
     1
  9
$SHADEDGE
 70
     3
  9
$SHADEDIF
 70
    70
  9
$TILEMODE
 70
     1
  9
$MAXACTVP
 70
    64
  9
$PINSBASE
 10
0.0
 20
0.0
 30
0.0
  9
$PLIMCHECK
 70
     0
  9
$PEXTMIN
 10
1.000000000000000E+20
 20
1.000000000000000E+20
 30
1.000000000000000E+20
  9
$PEXTMAX
 10
-1.000000000000000E+20
 20
-1.000000000000000E+20
 30
-1.000000000000000E+20
  9
$PLIMMIN
 10
0.0
 20
0.0
  9
$PLIMMAX
 10
12.0
 20
9.0
  9
$UNITMODE
 70
     0
  9
$VISRETAIN
 70
     1
  9
$PLINEGEN
 70
     0
  9
$PSLTSCALE
 70
     1
  9
$TREEDEPTH
 70
  3020
  9
$PICKSTYLE
 70
     1
  9
$CMLSTYLE
  2
STANDARD
  9
$CMLJUST
 70
     0
  9
$CMLSCALE
 40
1.0
  9
$SAVEIMAGES
 70
     1
  0
ENDSEC
  0
SECTION
  2
CLASSES
  0
CLASS
  1
ACDBDICTIONARYWDFLT
  2
AcDbDictionaryWithDefault
  3
ObjectDBX Classes
 90
    32768
280
     0
281
     0
  0
CLASS
  1
VISUALSTYLE
  2
AcDbVisualStyle
  3
ObjectDBX Classes
 90
     4095
280
     0
281
     0
  0
CLASS
  1
XRECORD
  2
AcDbXrecord
  3
AutoCAD 2000
 90
    32768
280
     0
281
     0
  0
CLASS
  1
LWPOLYLINE
  2
AcDbPolyline
  3
AutoCAD 2000
 90
    32768
280
     0
281
     1
  0
CLASS
  1
HATCH
  2
AcDbHatch
  3
AutoCAD 2000
 90
    32768
280
     0
281
     1
  0
CLASS
  1
ACDBPLACEHOLDER
  2
AcDbPlaceHolder
  3
ObjectDBX Classes
 90
        0
280
     0
281
     0
  0
CLASS
  1
LAYOUT
  2
AcDbLayout
  3
ObjectDBX Classes
 90
        0
280
     0
281
     0
  0
ENDSEC
  0
SECTION
  2
TABLES
  0
TABLE
  2
VPORT
  5
8
330
0
100
AcDbSymbolTable
 70
     1
  0
VPORT
  5
29
330
8
100
AcDbSymbolTableRecord
100
AcDbViewportTableRecord
  2
*ACTIVE
 70
     0
 10
0.0
 20
0.0
 11
1.0
 21
1.0
 12
0.0
 22
0.0
 13
0.0
 23
0.0
 14
0.5
 24
0.5
 15
0.5
 25
0.5
 16
0.0
 26
0.0
 36
1.0
 17
148.4999796178229
 27
-105.0008259828644
 37
0.0
 40
210.0016519657288
 41
1.414274394775308
 42
50.0
 43
0.0
 44
0.0
 50
0.0
 51
0.0
 71
     0
 72
   100
 73
     1
 74
     3
 75
     0
 76
     0
 77
     0
 78
     0
  0
ENDTAB
  0
TABLE
  2
LTYPE
  5
5
330
0
100
AcDbSymbolTable
 70
     1
  0
LTYPE
  5
14
330
5
100
AcDbSymbolTableRecord
100
AcDbLinetypeTableRecord
  2
BYBLOCK
 70
     0
  3

 72
    65
 73
     0
 40
0.0
  0
LTYPE
  5
15
330
5
100
AcDbSymbolTableRecord
100
AcDbLinetypeTableRecord
  2
BYLAYER
 70
     0
  3

 72
    65
 73
     0
 40
0.0
  0
LTYPE
  5
16
330
5
100
AcDbSymbolTableRecord
100
AcDbLinetypeTableRecord
  2
CONTINUOUS
 70
     0
  3
Solid line
 72
    65
 73
     0
 40
0.0
  0
ENDTAB
  0
TABLE
  2
LAYER
  5
2
330
0
100
AcDbSymbolTable
 70
     2
  0
LAYER
  5
10
330
2
100
AcDbSymbolTableRecord
100
AcDbLayerTableRecord
  2
0
 70
     0
 62
     7
  6
CONTINUOUS
  0
LAYER
  5
3B
330
2
100
AcDbSymbolTableRecord
100
AcDbLayerTableRecord
  2
LAYER_1
 70
     0
 62
     7
  6
CONTINUOUS
  0
ENDTAB
  0
TABLE
  2
STYLE
  5
3
330
0
100
AcDbSymbolTable
 70
     1
  0
STYLE
  5
11
330
3
100
AcDbSymbolTableRecord
100
AcDbTextStyleTableRecord
  2
STANDARD
 70
     0
 40
0.0
 41
1.0
 50
0.0
 71
     0
 42
0.2
  3
txt
  4

  0
ENDTAB
  0
TABLE
  2
VIEW
  5
6
330
0
100
AcDbSymbolTable
 70
     0
  0
ENDTAB
  0
TABLE
  2
UCS
  5
7
330
0
100
AcDbSymbolTable
 70
     0
  0
ENDTAB
  0
TABLE
  2
APPID
  5
9
330
0
100
AcDbSymbolTable
 70
     1
  0
APPID
  5
12
330
9
100
AcDbSymbolTableRecord
100
AcDbRegAppTableRecord
  2
ACAD
 70
     0
  0
ENDTAB
  0
TABLE
  2
DIMSTYLE
  5
A
330
0
100
AcDbSymbolTable
 70
     1
  0
DIMSTYLE
105
27
330
A
100
AcDbSymbolTableRecord
100
AcDbDimStyleTableRecord
  2
STANDARD
 70
     0
  3

  4

  5

  6

  7

 40
1.0
 41
0.18
 42
0.0625
 43
0.38
 44
0.18
 45
0.0
 46
0.0
 47
0.0
 48
0.0
140
0.18
141
0.09
142
0.0
143
25.4
144
1.0
145
0.0
146
1.0
147
0.09
 71
     0
 72
     0
 73
     1
 74
     1
 75
     0
 76
     0
 77
     0
 78
     0
170
     0
171
     2
172
     0
173
     0
174
     0
175
     0
176
     0
177
     0
178
     0
270
     2
271
     4
272
     4
273
     2
274
     2
340
11
275
     0
280
     0
281
     0
282
     0
283
     1
284
     0
285
     0
286
     0
287
     3
288
     0
  0
ENDTAB
  0
TABLE
  2
BLOCK_RECORD
  5
1
330
0
100
AcDbSymbolTable
 70
     5
  0
BLOCK_RECORD
  5
1F
330
1
100
AcDbSymbolTableRecord
100
AcDbBlockTableRecord
  2
*MODEL_SPACE
  0
BLOCK_RECORD
  5
1B
330
1
100
AcDbSymbolTableRecord
100
AcDbBlockTableRecord
  2
*PAPER_SPACE
  0
BLOCK_RECORD
  5
3C
330
1
100
AcDbSymbolTableRecord
100
AcDbBlockTableRecord
  2
BLOCK_2
  0
BLOCK_RECORD
  5
40
330
1
100
AcDbSymbolTableRecord
100
AcDbBlockTableRecord
  2
BLOCK_3
  0
BLOCK_RECORD
  5
4D
330
1
100
AcDbSymbolTableRecord
100
AcDbBlockTableRecord
  2
BLOCK_4
  0
BLOCK_RECORD
  5
51
330
1
100
AcDbSymbolTableRecord
100
AcDbBlockTableRecord
  2
BLOCK_5
  0
ENDTAB
  0
ENDSEC
  0
SECTION
  2
BLOCKS
  0
BLOCK
  5
20
330
1F
100
AcDbEntity
  8
0
100
AcDbBlockBegin
  2
*MODEL_SPACE
 70
     0
 71
     0
 10
0.0
 20
0.0
 30
0.0
  3
*MODEL_SPACE
  1

  0
ENDBLK
  5
21
330
1F
100
AcDbEntity
  8
0
100
AcDbBlockEnd
  0
BLOCK
  5
1C
330
1B
100
AcDbEntity
 67
     1
  8
0
100
AcDbBlockBegin
  2
*PAPER_SPACE
 70
     0
 71
     0
 10
0.0
 20
0.0
 30
0.0
  3
*PAPER_SPACE
  1

  0
ENDBLK
  5
1D
330
1B
100
AcDbEntity
 67
     1
  8
0
100
AcDbBlockEnd
  0
BLOCK
  5
3E
330
3C
100
AcDbEntity
  8
0
100
AcDbBlockBegin
  2
BLOCK_2
 70
     0
 71
     0
 10
0.0
 20
0.0
 30
0.0
  3
BLOCK_2
  1

  0
INSERT
  5
41
330
3C
100
AcDbEntity
  8
LAYER_1
100
AcDbBlockReference
  2
BLOCK_3
 10
0.0
 20
0.0
 30
0.0
  0
SPLINE
  5
46
330
3C
100
AcDbEntity
  8
LAYER_1
 62
   250
100
AcDbSpline
210
0.0
220
0.0
230
1.0
 70
    11
 71
     3
 72
    17
 73
    13
 74
     0
 42
0.0000000001
 43
0.0000000001
 40
0.0
 40
0.0
 40
0.0
 40
0.0
 40
1.0
 40
1.0
 40
1.0
 40
2.0
 40
2.0
 40
2.0
 40
3.0
 40
3.0
 40
3.0
 40
4.0
 40
4.0
 40
4.0
 40
4.0
 10
4.5001559776076
 20
50.78398029329359
 30
0.0
 10
4.5001559776076
 20
49.95612384818806
 30
0.0
 10
3.828534612758144
 20
49.28433022856434
 30
0.0
 10
3.000161403329821
 20
49.28433022856434
 30
0.0
 10
2.171788193901497
 20
49.28433022856434
 30
0.0
 10
1.500166829052042
 20
49.95612384818806
 30
0.0
 10
1.500166829052042
 20
50.78398029329359
 30
0.0
 10
1.500166829052042
 20
51.61252575749618
 30
0.0
 10
2.171788193901497
 20
52.28380261279711
 30
0.0
 10
3.000161403329821
 20
52.28380261279711
 30
0.0
 10
3.828534612758144
 20
52.28380261279711
 30
0.0
 10
4.5001559776076
 20
51.61252575749618
 30
0.0
 10
4.5001559776076
 20
50.78398029329359
 30
0.0
  0
SPLINE
  5
47
330
3C
100
AcDbEntity
  8
LAYER_1
 62
   250
100
AcDbSpline
210
0.0
220
0.0
230
1.0
 70
    11
 71
     3
 72
    17
 73
    13
 74
     0
 42
0.0000000001
 43
0.0000000001
 40
0.0
 40
0.0
 40
0.0
 40
0.0
 40
1.0
 40
1.0
 40
1.0
 40
2.0
 40
2.0
 40
2.0
 40
3.0
 40
3.0
 40
3.0
 40
4.0
 40
4.0
 40
4.0
 40
4.0
 10
18.50016275579163
 20
50.78398029329359
 30
0.0
 10
18.50016275579163
 20
49.95612384818806
 30
0.0
 10
17.82836913616791
 20
49.28433022856434
 30
0.0
 10
17.00016818151385
 20
49.28433022856434
 30
0.0
 10
16.17162271731126
 20
49.28433022856434
 30
0.0
 10
15.50017360723607
 20
49.95612384818806
 30
0.0
 10
15.50017360723607
 20
50.78398029329359
 30
0.0
 10
15.50017360723607
 20
51.61252575749618
 30
0.0
 10
16.17162271731126
 20
52.28380261279711
 30
0.0
 10
17.00016818151385
 20
52.28380261279711
 30
0.0
 10
17.82836913616791
 20
52.28380261279711
 30
0.0
 10
18.50016275579163
 20
51.61252575749618
 30
0.0
 10
18.50016275579163
 20
50.78398029329359
 30
0.0
  0
SPLINE
  5
48
330
3C
100
AcDbEntity
  8
LAYER_1
 62
   250
100
AcDbSpline
210
0.0
220
0.0
230
1.0
 70
    11
 71
     3
 72
    17
 73
    13
 74
     0
 42
0.0000000001
 43
0.0000000001
 40
0.0
 40
0.0
 40
0.0
 40
0.0
 40
1.0
 40
1.0
 40
1.0
 40
2.0
 40
2.0
 40
2.0
 40
3.0
 40
3.0
 40
3.0
 40
4.0
 40
4.0
 40
4.0
 40
4.0
 10
4.5001559776076
 20
17.77910427072884
 30
0.0
 10
4.5001559776076
 20
16.9512478256233
 30
0.0
 10
3.828534612758144
 20
16.27945420599958
 30
0.0
 10
3.000161403329821
 20
16.27945420599958
 30
0.0
 10
2.171788193901497
 20
16.27945420599958
 30
0.0
 10
1.500166829052042
 20
16.9512478256233
 30
0.0
 10
1.500166829052042
 20
17.77910427072884
 30
0.0
 10
1.500166829052042
 20
18.60764973493142
 30
0.0
 10
2.171788193901497
 20
19.27875433545809
 30
0.0
 10
3.000161403329821
 20
19.27875433545809
 30
0.0
 10
3.828534612758144
 20
19.27875433545809
 30
0.0
 10
4.5001559776076
 20
18.60764973493142
 30
0.0
 10
4.5001559776076
 20
17.77910427072884
 30
0.0
  0
SPLINE
  5
49
330
3C
100
AcDbEntity
  8
LAYER_1
 62
   250
100
AcDbSpline
210
0.0
220
0.0
230
1.0
 70
    11
 71
     3
 72
    17
 73
    13
 74
     0
 42
0.0000000001
 43
0.0000000001
 40
0.0
 40
0.0
 40
0.0
 40
0.0
 40
1.0
 40
1.0
 40
1.0
 40
2.0
 40
2.0
 40
2.0
 40
3.0
 40
3.0
 40
3.0
 40
4.0
 40
4.0
 40
4.0
 40
4.0
 10
18.50016275579163
 20
17.77910427072884
 30
0.0
 10
18.50016275579163
 20
16.9512478256233
 30
0.0
 10
17.82836913616791
 20
16.27945420599958
 30
0.0
 10
17.00016818151385
 20
16.27945420599958
 30
0.0
 10
16.17162271731126
 20
16.27945420599958
 30
0.0
 10
15.50017360723607
 20
16.9512478256233
 30
0.0
 10
15.50017360723607
 20
17.77910427072884
 30
0.0
 10
15.50017360723607
 20
18.60764973493142
 30
0.0
 10
16.17162271731126
 20
19.27875433545809
 30
0.0
 10
17.00016818151385
 20
19.27875433545809
 30
0.0
 10
17.82836913616791
 20
19.27875433545809
 30
0.0
 10
18.50016275579163
 20
18.60764973493142
 30
0.0
 10
18.50016275579163
 20
17.77910427072884
 30
0.0
  0
SPLINE
  5
4A
330
3C
100
AcDbEntity
  8
LAYER_1
 62
     7
100
AcDbSpline
210
0.0
220
0.0
230
1.0
 70
    11
 71
     3
 72
    59
 73
    55
 74
     0
 42
0.0000000001
 43
0.0000000001
 40
0.0
 40
0.0
 40
0.0
 40
0.0
 40
1.0
 40
1.0
 40
1.0
 40
2.0
 40
2.0
 40
2.0
 40
3.0
 40
3.0
 40
3.0
 40
4.0
 40
4.0
 40
4.0
 40
5.0
 40
5.0
 40
5.0
 40
6.0
 40
6.0
 40
6.0
 40
7.0
 40
7.0
 40
7.0
 40
8.0
 40
8.0
 40
8.0
 40
9.0
 40
9.0
 40
9.0
 40
10.0
 40
10.0
 40
10.0
 40
11.0
 40
11.0
 40
11.0
 40
12.0
 40
12.0
 40
12.0
 40
13.0
 40
13.0
 40
13.0
 40
14.0
 40
14.0
 40
14.0
 40
15.0
 40
15.0
 40
15.0
 40
16.0
 40
16.0
 40
16.0
 40
17.0
 40
17.0
 40
17.0
 40
18.0
 40
18.0
 40
18.0
 40
18.0
 10
19.99998507529514
 20
58.36629094677996
 30
0.0
 10
19.99998507529514
 20
60.01631942944037
 30
0.0
 10
18.87498914458681
 20
61.36628009533552
 30
0.0
 10
17.5000515364236
 20
61.36628009533552
 30
0.0
 10
16.12494167348613
 20
61.36628009533552
 30
0.0
 10
14.99994574277779
 20
62.71624076123067
 30
0.0
 10
14.99994574277779
 20
64.36626924389107
 30
0.0
 10
14.99994574277779
 20
64.36626924389107
 30
0.0
 10
14.99994574277779
 20
67.82755667792159
 30
0.0
 10
14.99994574277779
 20
67.82755667792159
 30
0.0
 10
14.99994574277779
 20
69.477585160582
 30
0.0
 10
13.64998507688264
 20
70.82754582647715
 30
0.0
 10
11.99995659422223
 20
70.82754582647715
 30
0.0
 10
11.99995659422223
 20
70.82754582647715
 30
0.0
 10
8.00002848107291
 20
70.82754582647715
 30
0.0
 10
8.00002848107291
 20
70.82754582647715
 30
0.0
 10
6.349999998412501
 20
70.82754582647715
 30
0.0
 10
5.000039332517352
 20
69.477585160582
 30
0.0
 10
5.000039332517352
 20
67.82755667792159
 30
0.0
 10
5.000039332517352
 20
67.82755667792159
 30
0.0
 10
5.000039332517352
 20
64.36626924389107
 30
0.0
 10
5.000039332517352
 20
64.36626924389107
 30
0.0
 10
5.000039332517352
 20
62.71624076123067
 30
0.0
 10
3.875043401809017
 20
61.36628009533552
 30
0.0
 10
2.500105793645807
 20
61.36628009533552
 30
0.0
 10
1.124995930708334
 20
61.36628009533552
 30
0.0
 10
0.0
 20
60.01631942944037
 30
0.0
 10
0.0
 20
58.36629094677996
 30
0.0
 10
0.0
 20
58.36629094677996
 30
0.0
 10
0.0
 20
8.766389971766737
 30
0.0
 10
0.0
 20
8.766389971766737
 30
0.0
 10
0.0
 20
7.116189234332064
 30
0.0
 10
1.124995930708334
 20
5.766400823211177
 30
0.0
 10
2.500105793645807
 20
5.766400823211177
 30
0.0
 10
3.875043401809017
 20
5.766400823211177
 30
0.0
 10
5.000039332517352
 20
4.468977863466089
 30
0.0
 10
5.000039332517352
 20
2.882855902057064
 30
0.0
 10
5.000039332517352
 20
1.297422959745089
 30
0.0
 10
6.349999998412501
 20
0.0
 30
0.0
 10
8.00002848107291
 20
0.0
 30
0.0
 10
8.00002848107291
 20
0.0
 30
0.0
 10
11.99995659422223
 20
0.0
 30
0.0
 10
11.99995659422223
 20
0.0
 30
0.0
 10
13.64998507688264
 20
0.0
 30
0.0
 10
14.99994574277779
 20
1.297422959745089
 30
0.0
 10
14.99994574277779
 20
2.882855902057064
 30
0.0
 10
14.99994574277779
 20
4.468977863466089
 30
0.0
 10
16.12494167348613
 20
5.766400823211177
 30
0.0
 10
17.5000515364236
 20
5.766400823211177
 30
0.0
 10
18.87498914458681
 20
5.766400823211177
 30
0.0
 10
19.99998507529514
 20
7.116189234332064
 30
0.0
 10
19.99998507529514
 20
8.766389971766737
 30
0.0
 10
19.99998507529514
 20
8.766389971766737
 30
0.0
 10
19.99998507529514
 20
58.36629094677996
 30
0.0
 10
19.99998507529514
 20
58.36629094677996
 30
0.0
  0
SPLINE
  5
4B
330
3C
100
AcDbEntity
  8
LAYER_1
 62
     7
100
AcDbSpline
210
0.0
220
0.0
230
1.0
 70
    11
 71
     3
 72
    77
 73
    73
 74
     0
 42
0.0000000001
 43
0.0000000001
 40
0.0
 40
0.0
 40
0.0
 40
0.0
 40
1.0
 40
1.0
 40
1.0
 40
2.0
 40
2.0
 40
2.0
 40
3.0
 40
3.0
 40
3.0
 40
4.0
 40
4.0
 40
4.0
 40
5.0
 40
5.0
 40
5.0
 40
6.0
 40
6.0
 40
6.0
 40
7.0
 40
7.0
 40
7.0
 40
8.0
 40
8.0
 40
8.0
 40
9.0
 40
9.0
 40
9.0
 40
10.0
 40
10.0
 40
10.0
 40
11.0
 40
11.0
 40
11.0
 40
12.0
 40
12.0
 40
12.0
 40
13.0
 40
13.0
 40
13.0
 40
14.0
 40
14.0
 40
14.0
 40
15.0
 40
15.0
 40
15.0
 40
16.0
 40
16.0
 40
16.0
 40
17.0
 40
17.0
 40
17.0
 40
18.0
 40
18.0
 40
18.0
 40
19.0
 40
19.0
 40
19.0
 40
20.0
 40
20.0
 40
20.0
 40
21.0
 40
21.0
 40
21.0
 40
22.0
 40
22.0
 40
22.0
 40
23.0
 40
23.0
 40
23.0
 40
24.0
 40
24.0
 40
24.0
 40
24.0
 10
17.00016818151385
 20
42.43289658227372
 30
0.0
 10
17.00016818151385
 20
43.532915570714
 30
0.0
 10
16.10013698599233
 20
44.43294676623552
 30
0.0
 10
15.00011799755205
 20
44.43294676623552
 30
0.0
 10
15.00011799755205
 20
44.43294676623552
 30
0.0
 10
14.5002346426423
 20
44.43294676623552
 30
0.0
 10
14.5002346426423
 20
44.43294676623552
 30
0.0
 10
13.40021565420203
 20
44.43294676623552
 30
0.0
 10
12.50018445868051
 20
45.33297796175704
 30
0.0
 10
12.50018445868051
 20
46.43299695019731
 30
0.0
 10
12.50018445868051
 20
46.43299695019731
 30
0.0
 10
12.50018445868051
 20
57.50794540662996
 30
0.0
 10
12.50018445868051
 20
57.50794540662996
 30
0.0
 10
12.50018445868051
 20
58.60796439507023
 30
0.0
 10
11.60015326315899
 20
59.50799559059175
 30
0.0
 10
10.50013427471872
 20
59.50799559059175
 30
0.0
 10
10.50013427471872
 20
59.50799559059175
 30
0.0
 10
9.500195310124951
 20
59.50799559059175
 30
0.0
 10
9.500195310124951
 20
59.50799559059175
 30
0.0
 10
8.400176321684679
 20
59.50799559059175
 30
0.0
 10
7.500145126163159
 20
58.60796439507023
 30
0.0
 10
7.500145126163159
 20
57.50794540662996
 30
0.0
 10
7.500145126163159
 20
57.50794540662996
 30
0.0
 10
7.500145126163159
 20
46.43299695019731
 30
0.0
 10
7.500145126163159
 20
46.43299695019731
 30
0.0
 10
7.500145126163159
 20
45.33297796175704
 30
0.0
 10
6.600113930641639
 20
44.43294676623552
 30
0.0
 10
5.500094942201366
 20
44.43294676623552
 30
0.0
 10
5.500094942201366
 20
44.43294676623552
 30
0.0
 10
5.000211587291614
 20
44.43294676623552
 30
0.0
 10
5.000211587291614
 20
44.43294676623552
 30
0.0
 10
3.900192598851341
 20
44.43294676623552
 30
0.0
 10
3.000161403329821
 20
43.532915570714
 30
0.0
 10
3.000161403329821
 20
42.43289658227372
 30
0.0
 10
3.000161403329821
 20
42.43289658227372
 30
0.0
 10
3.000161403329821
 20
31.43994139839002
 30
0.0
 10
3.000161403329821
 20
31.43994139839002
 30
0.0
 10
3.000161403329821
 20
30.33992240994974
 30
0.0
 10
3.540352375416995
 20
28.72003851278527
 30
0.0
 10
4.200432670390864
 20
27.84016112585246
 30
0.0
 10
4.200432670390864
 20
27.84016112585246
 30
0.0
 10
6.299873859102116
 20
25.04239908228107
 30
0.0
 10
6.299873859102116
 20
25.04239908228107
 30
0.0
 10
6.959954154075984
 20
24.16252169534826
 30
0.0
 10
7.500145126163159
 20
22.54263779818379
 30
0.0
 10
7.500145126163159
 20
21.44261880974351
 30
0.0
 10
7.500145126163159
 20
21.44261880974351
 30
0.0
 10
7.500145126163159
 20
15.38855251351397
 30
0.0
 10
7.500145126163159
 20
15.38855251351397
 30
0.0
 10
7.500145126163159
 20
14.2885335250737
 30
0.0
 10
8.400176321684679
 20
13.38833007477792
 30
0.0
 10
9.500195310124951
 20
13.38833007477792
 30
0.0
 10
9.500195310124951
 20
13.38833007477792
 30
0.0
 10
10.50013427471872
 20
13.38833007477792
 30
0.0
 10
10.50013427471872
 20
13.38833007477792
 30
0.0
 10
11.60015326315899
 20
13.38833007477792
 30
0.0
 10
12.50018445868051
 20
14.2885335250737
 30
0.0
 10
12.50018445868051
 20
15.38855251351397
 30
0.0
 10
12.50018445868051
 20
15.38855251351397
 30
0.0
 10
12.50018445868051
 20
21.44261880974351
 30
0.0
 10
12.50018445868051
 20
21.44261880974351
 30
0.0
 10
12.50018445868051
 20
22.54263779818379
 30
0.0
 10
13.04037543076768
 20
24.16252169534826
 30
0.0
 10
13.70045572574155
 20
25.04239908228107
 30
0.0
 10
13.70045572574155
 20
25.04239908228107
 30
0.0
 10
15.7998969144528
 20
27.84016112585246
 30
0.0
 10
15.7998969144528
 20
27.84016112585246
 30
0.0
 10
16.45997720942667
 20
28.72003851278527
 30
0.0
 10
17.00016818151385
 20
30.33992240994974
 30
0.0
 10
17.00016818151385
 20
31.43994139839002
 30
0.0
 10
17.00016818151385
 20
31.43994139839002
 30
0.0
 10
17.00016818151385
 20
42.43289658227372
 30
0.0
 10
17.00016818151385
 20
42.43289658227372
 30
0.0
  0
SPLINE
  5
4C
330
3C
100
AcDbEntity
  8
LAYER_1
 62
     7
100
AcDbSpline
210
0.0
220
0.0
230
1.0
 70
    11
 71
     3
 72
   128
 73
   124
 74
     0
 42
0.0000000001
 43
0.0000000001
 40
0.0
 40
0.0
 40
0.0
 40
0.0
 40
1.0
 40
1.0
 40
1.0
 40
2.0
 40
2.0
 40
2.0
 40
3.0
 40
3.0
 40
3.0
 40
4.0
 40
4.0
 40
4.0
 40
5.0
 40
5.0
 40
5.0
 40
6.0
 40
6.0
 40
6.0
 40
7.0
 40
7.0
 40
7.0
 40
8.0
 40
8.0
 40
8.0
 40
9.0
 40
9.0
 40
9.0
 40
10.0
 40
10.0
 40
10.0
 40
11.0
 40
11.0
 40
11.0
 40
12.0
 40
12.0
 40
12.0
 40
13.0
 40
13.0
 40
13.0
 40
14.0
 40
14.0
 40
14.0
 40
15.0
 40
15.0
 40
15.0
 40
16.0
 40
16.0
 40
16.0
 40
17.0
 40
17.0
 40
17.0
 40
18.0
 40
18.0
 40
18.0
 40
19.0
 40
19.0
 40
19.0
 40
20.0
 40
20.0
 40
20.0
 40
21.0
 40
21.0
 40
21.0
 40
22.0
 40
22.0
 40
22.0
 40
23.0
 40
23.0
 40
23.0
 40
24.0
 40
24.0
 40
24.0
 40
25.0
 40
25.0
 40
25.0
 40
26.0
 40
26.0
 40
26.0
 40
27.0
 40
27.0
 40
27.0
 40
28.0
 40
28.0
 40
28.0
 40
29.0
 40
29.0
 40
29.0
 40
30.0
 40
30.0
 40
30.0
 40
31.0
 40
31.0
 40
31.0
 40
32.0
 40
32.0
 40
32.0
 40
33.0
 40
33.0
 40
33.0
 40
34.0
 40
34.0
 40
34.0
 40
35.0
 40
35.0
 40
35.0
 40
36.0
 40
36.0
 40
36.0
 40
37.0
 40
37.0
 40
37.0
 40
38.0
 40
38.0
 40
38.0
 40
39.0
 40
39.0
 40
39.0
 40
40.0
 40
40.0
 40
40.0
 40
41.0
 40
41.0
 40
41.0
 40
41.0
 10
17.00016818151385
 20
47.88579371632716
 30
0.0
 10
15.3985432904212
 20
47.88579371632716
 30
0.0
 10
14.10008680203053
 20
49.18459471426635
 30
0.0
 10
14.10008680203053
 20
50.78518607671343
 30
0.0
 10
14.10008680203053
 20
52.38698322258034
 30
0.0
 10
15.3985432904212
 20
53.68475069187395
 30
0.0
 10
17.00016818151385
 20
53.68475069187395
 30
0.0
 10
17.00016818151385
 20
53.68475069187395
 30
0.0
 10
19.99998507529514
 20
53.68475069187395
 30
0.0
 10
19.99998507529514
 20
53.68475069187395
 30
0.0
 10
19.99998507529514
 20
53.68475069187395
 30
0.0
 10
19.99998507529514
 20
58.36629094677996
 30
0.0
 10
19.99998507529514
 20
58.36629094677996
 30
0.0
 10
19.99998507529514
 20
60.01631942944037
 30
0.0
 10
18.87498914458681
 20
61.36628009533552
 30
0.0
 10
17.5000515364236
 20
61.36628009533552
 30
0.0
 10
16.12494167348613
 20
61.36628009533552
 30
0.0
 10
14.99994574277779
 20
62.71624076123067
 30
0.0
 10
14.99994574277779
 20
64.36626924389107
 30
0.0
 10
14.99994574277779
 20
64.36626924389107
 30
0.0
 10
14.99994574277779
 20
67.82755667792159
 30
0.0
 10
14.99994574277779
 20
67.82755667792159
 30
0.0
 10
14.99994574277779
 20
69.477585160582
 30
0.0
 10
13.64998507688264
 20
70.82754582647715
 30
0.0
 10
11.99995659422223
 20
70.82754582647715
 30
0.0
 10
11.99995659422223
 20
70.82754582647715
 30
0.0
 10
8.00002848107291
 20
70.82754582647715
 30
0.0
 10
8.00002848107291
 20
70.82754582647715
 30
0.0
 10
6.349999998412501
 20
70.82754582647715
 30
0.0
 10
5.000039332517352
 20
69.477585160582
 30
0.0
 10
5.000039332517352
 20
67.82755667792159
 30
0.0
 10
5.000039332517352
 20
67.82755667792159
 30
0.0
 10
5.000039332517352
 20
64.36626924389107
 30
0.0
 10
5.000039332517352
 20
64.36626924389107
 30
0.0
 10
5.000039332517352
 20
62.71624076123067
 30
0.0
 10
3.875043401809017
 20
61.36628009533552
 30
0.0
 10
2.500105793645807
 20
61.36628009533552
 30
0.0
 10
1.124995930708334
 20
61.36628009533552
 30
0.0
 10
0.0
 20
60.01631942944037
 30
0.0
 10
0.0
 20
58.36629094677996
 30
0.0
 10
0.0
 20
58.36629094677996
 30
0.0
 10
0.0
 20
53.68492294664821
 30
0.0
 10
0.0
 20
53.68492294664821
 30
0.0
 10
0.0
 20
53.68492294664821
 30
0.0
 10
3.000161403329821
 20
53.68492294664821
 30
0.0
 10
3.000161403329821
 20
53.68492294664821
 30
0.0
 10
3.000161403329821
 20
53.68492294664821
 30
0.0
 10
3.000161403329821
 20
53.68475069187395
 30
0.0
 10
3.000161403329821
 20
53.68475069187395
 30
0.0
 10
4.601614039648208
 20
53.68475069187395
 30
0.0
 10
5.900070528038872
 20
52.38698322258034
 30
0.0
 10
5.900070528038872
 20
50.78518607671343
 30
0.0
 10
5.900070528038872
 20
49.18459471426635
 30
0.0
 10
4.601614039648208
 20
47.88579371632716
 30
0.0
 10
3.000161403329821
 20
47.88579371632716
 30
0.0
 10
3.000161403329821
 20
47.88579371632716
 30
0.0
 10
0.0
 20
47.88579371632716
 30
0.0
 10
0.0
 20
47.88579371632716
 30
0.0
 10
0.0
 20
47.88579371632716
 30
0.0
 10
0.0
 20
20.6798746693092
 30
0.0
 10
0.0
 20
20.6798746693092
 30
0.0
 10
0.0
 20
20.6798746693092
 30
0.0
 10
3.000161403329821
 20
20.6798746693092
 30
0.0
 10
3.000161403329821
 20
20.6798746693092
 30
0.0
 10
4.601614039648208
 20
20.6798746693092
 30
0.0
 10
5.900070528038872
 20
19.38210720001559
 30
0.0
 10
5.900070528038872
 20
17.78013779937441
 30
0.0
 10
5.900070528038872
 20
16.17954643692734
 30
0.0
 10
4.601614039648208
 20
14.88074543898815
 30
0.0
 10
3.000161403329821
 20
14.88074543898815
 30
0.0
 10
3.000161403329821
 20
14.88074543898815
 30
0.0
 10
0.0
 20
14.88074543898815
 30
0.0
 10
0.0
 20
14.88074543898815
 30
0.0
 10
0.0
 20
14.88074543898815
 30
0.0
 10
0.0
 20
8.766389971766737
 30
0.0
 10
0.0
 20
8.766389971766737
 30
0.0
 10
0.0
 20
7.116189234332064
 30
0.0
 10
1.124995930708334
 20
5.766400823211177
 30
0.0
 10
2.500105793645807
 20
5.766400823211177
 30
0.0
 10
3.875043401809017
 20
5.766400823211177
 30
0.0
 10
5.000039332517352
 20
4.468977863466089
 30
0.0
 10
5.000039332517352
 20
2.882855902057064
 30
0.0
 10
5.000039332517352
 20
1.297422959745089
 30
0.0
 10
6.349999998412501
 20
0.0
 30
0.0
 10
8.00002848107291
 20
0.0
 30
0.0
 10
8.00002848107291
 20
0.0
 30
0.0
 10
11.99995659422223
 20
0.0
 30
0.0
 10
11.99995659422223
 20
0.0
 30
0.0
 10
13.64998507688264
 20
0.0
 30
0.0
 10
14.99994574277779
 20
1.297422959745089
 30
0.0
 10
14.99994574277779
 20
2.882855902057064
 30
0.0
 10
14.99994574277779
 20
4.468977863466089
 30
0.0
 10
16.12494167348613
 20
5.766400823211177
 30
0.0
 10
17.5000515364236
 20
5.766400823211177
 30
0.0
 10
18.87498914458681
 20
5.766400823211177
 30
0.0
 10
19.99998507529514
 20
7.116189234332064
 30
0.0
 10
19.99998507529514
 20
8.766389971766737
 30
0.0
 10
19.99998507529514
 20
8.766389971766737
 30
0.0
 10
19.99998507529514
 20
14.87971191034257
 30
0.0
 10
19.99998507529514
 20
14.87971191034257
 30
0.0
 10
19.99998507529514
 20
14.87971191034257
 30
0.0
 10
17.00016818151385
 20
14.87971191034257
 30
0.0
 10
17.00016818151385
 20
14.87971191034257
 30
0.0
 10
17.00016818151385
 20
14.87971191034257
 30
0.0
 10
17.00016818151385
 20
14.88074543898815
 30
0.0
 10
17.00016818151385
 20
14.88074543898815
 30
0.0
 10
15.3985432904212
 20
14.88074543898815
 30
0.0
 10
14.10008680203053
 20
16.17954643692734
 30
0.0
 10
14.10008680203053
 20
17.78013779937441
 30
0.0
 10
14.10008680203053
 20
19.38210720001559
 30
0.0
 10
15.3985432904212
 20
20.6798746693092
 30
0.0
 10
17.00016818151385
 20
20.6798746693092
 30
0.0
 10
17.00705837248435
 20
20.6798746693092
 30
0.0
 10
17.01377630868058
 20
20.67884114066362
 30
0.0
 10
17.02066649965109
 20
20.67884114066362
 30
0.0
 10
17.02066649965109
 20
20.67884114066362
 30
0.0
 10
19.99998507529514
 20
20.67884114066362
 30
0.0
 10
19.99998507529514
 20
20.67884114066362
 30
0.0
 10
19.99998507529514
 20
20.67884114066362
 30
0.0
 10
19.99998507529514
 20
47.88579371632716
 30
0.0
 10
19.99998507529514
 20
47.88579371632716
 30
0.0
 10
19.99998507529514
 20
47.88579371632716
 30
0.0
 10
17.00016818151385
 20
47.88579371632716
 30
0.0
 10
17.00016818151385
 20
47.88579371632716
 30
0.0
  0
ENDBLK
  5
3F
330
3C
100
AcDbEntity
  8
0
100
AcDbBlockEnd
  0
BLOCK
  5
42
330
40
100
AcDbEntity
  8
0
100
AcDbBlockBegin
  2
BLOCK_3
 70
     0
 71
     0
 10
0.0
 20
0.0
 30
0.0
  3
BLOCK_3
  1

  0
SPLINE
  5
44
330
40
100
AcDbEntity
  8
LAYER_1
 62
   250
100
AcDbSpline
210
0.0
220
0.0
230
1.0
 70
    11
 71
     3
 72
    17
 73
    13
 74
     0
 42
0.0000000001
 43
0.0000000001
 40
0.0
 40
0.0
 40
0.0
 40
0.0
 40
1.0
 40
1.0
 40
1.0
 40
2.0
 40
2.0
 40
2.0
 40
3.0
 40
3.0
 40
3.0
 40
4.0
 40
4.0
 40
4.0
 40
4.0
 10
11.24995930708334
 20
65.76652830387087
 30
0.0
 10
11.24995930708334
 20
65.0761311686268
 30
0.0
 10
10.69047580027877
 20
64.51647540704796
 30
0.0
 10
10.0000786650347
 20
64.51647540704796
 30
0.0
 10
9.309681529790636
 20
64.51647540704796
 30
0.0
 10
8.750025768211799
 20
65.0761311686268
 30
0.0
 10
8.750025768211799
 20
65.76652830387087
 30
0.0
 10
8.750025768211799
 20
66.45675318434067
 30
0.0
 10
9.309681529790636
 20
67.01640894591951
 30
0.0
 10
10.0000786650347
 20
67.01640894591951
 30
0.0
 10
10.69047580027877
 20
67.01640894591951
 30
0.0
 10
11.24995930708334
 20
66.45675318434067
 30
0.0
 10
11.24995930708334
 20
65.76652830387087
 30
0.0
  0
SPLINE
  5
45
330
40
100
AcDbEntity
  8
LAYER_1
 62
   250
100
AcDbSpline
210
0.0
220
0.0
230
1.0
 70
    11
 71
     3
 72
    17
 73
    13
 74
     0
 42
0.0000000001
 43
0.0000000001
 40
0.0
 40
0.0
 40
0.0
 40
0.0
 40
1.0
 40
1.0
 40
1.0
 40
2.0
 40
2.0
 40
2.0
 40
3.0
 40
3.0
 40
3.0
 40
4.0
 40
4.0
 40
4.0
 40
4.0
 10
11.24995930708334
 20
5.766400823211177
 30
0.0
 10
11.24995930708334
 20
5.07600368796711
 30
0.0
 10
10.69047580027877
 20
4.516520181162536
 30
0.0
 10
10.0000786650347
 20
4.516520181162536
 30
0.0
 10
9.309681529790636
 20
4.516520181162536
 30
0.0
 10
8.750025768211799
 20
5.07600368796711
 30
0.0
 10
8.750025768211799
 20
5.766400823211177
 30
0.0
 10
8.750025768211799
 20
6.456797958455245
 30
0.0
 10
9.309681529790636
 20
7.016281465259818
 30
0.0
 10
10.0000786650347
 20
7.016281465259818
 30
0.0
 10
10.69047580027877
 20
7.016281465259818
 30
0.0
 10
11.24995930708334
 20
6.456797958455245
 30
0.0
 10
11.24995930708334
 20
5.766400823211177
 30
0.0
  0
ENDBLK
  5
43
330
40
100
AcDbEntity
  8
0
100
AcDbBlockEnd
  0
BLOCK
  5
4F
330
4D
100
AcDbEntity
  8
0
100
AcDbBlockBegin
  2
BLOCK_4
 70
     0
 71
     0
 10
0.0
 20
0.0
 30
0.0
  3
BLOCK_4
  1

  0
INSERT
  5
52
330
4D
100
AcDbEntity
  8
LAYER_1
100
AcDbBlockReference
  2
BLOCK_5
 10
0.0
 20
0.0
 30
0.0
  0
SPLINE
  5
57
330
4D
100
AcDbEntity
  8
LAYER_1
 62
   250
100
AcDbSpline
210
0.0
220
0.0
230
1.0
 70
    11
 71
     3
 72
    17
 73
    13
 74
     0
 42
0.0000000001
 43
0.0000000001
 40
0.0
 40
0.0
 40
0.0
 40
0.0
 40
1.0
 40
1.0
 40
1.0
 40
2.0
 40
2.0
 40
2.0
 40
3.0
 40
3.0
 40
3.0
 40
4.0
 40
4.0
 40
4.0
 40
4.0
 10
29.50000813064583
 20
50.78380803851933
 30
0.0
 10
29.50000813064583
 20
49.95595159341379
 30
0.0
 10
28.82855902057064
 20
49.28415797379007
 30
0.0
 10
28.00001355636805
 20
49.28415797379007
 30
0.0
 10
27.17181260171399
 20
49.28415797379007
 30
0.0
 10
26.50001898209027
 20
49.95595159341379
 30
0.0
 10
26.50001898209027
 20
50.78380803851933
 30
0.0
 10
26.50001898209027
 20
51.61235350272192
 30
0.0
 10
27.17181260171399
 20
52.28363035802285
 30
0.0
 10
28.00001355636805
 20
52.28363035802285
 30
0.0
 10
28.82855902057064
 20
52.28363035802285
 30
0.0
 10
29.50000813064583
 20
51.61235350272192
 30
0.0
 10
29.50000813064583
 20
50.78380803851933
 30
0.0
  0
SPLINE
  5
58
330
4D
100
AcDbEntity
  8
LAYER_1
 62
   250
100
AcDbSpline
210
0.0
220
0.0
230
1.0
 70
    11
 71
     3
 72
    17
 73
    13
 74
     0
 42
0.0000000001
 43
0.0000000001
 40
0.0
 40
0.0
 40
0.0
 40
0.0
 40
1.0
 40
1.0
 40
1.0
 40
2.0
 40
2.0
 40
2.0
 40
3.0
 40
3.0
 40
3.0
 40
4.0
 40
4.0
 40
4.0
 40
4.0
 10
43.50018716360412
 20
50.78380803851933
 30
0.0
 10
43.50018716360412
 20
49.95595159341379
 30
0.0
 10
42.8283935439804
 20
49.28415797379007
 30
0.0
 10
42.00019258932635
 20
49.28415797379007
 30
0.0
 10
41.17164712512376
 20
49.28415797379007
 30
0.0
 10
40.50019801504856
 20
49.95595159341379
 30
0.0
 10
40.50019801504856
 20
50.78380803851933
 30
0.0
 10
40.50019801504856
 20
51.61235350272192
 30
0.0
 10
41.17164712512376
 20
52.28363035802285
 30
0.0
 10
42.00019258932635
 20
52.28363035802285
 30
0.0
 10
42.8283935439804
 20
52.28363035802285
 30
0.0
 10
43.50018716360412
 20
51.61235350272192
 30
0.0
 10
43.50018716360412
 20
50.78380803851933
 30
0.0
  0
SPLINE
  5
59
330
4D
100
AcDbEntity
  8
LAYER_1
 62
   250
100
AcDbSpline
210
0.0
220
0.0
230
1.0
 70
    11
 71
     3
 72
    17
 73
    13
 74
     0
 42
0.0000000001
 43
0.0000000001
 40
0.0
 40
0.0
 40
0.0
 40
0.0
 40
1.0
 40
1.0
 40
1.0
 40
2.0
 40
2.0
 40
2.0
 40
3.0
 40
3.0
 40
3.0
 40
4.0
 40
4.0
 40
4.0
 40
4.0
 10
29.50000813064583
 20
17.77875976118031
 30
0.0
 10
29.50000813064583
 20
16.9512478256233
 30
0.0
 10
28.82855902057064
 20
16.27945420599958
 30
0.0
 10
28.00001355636805
 20
16.27945420599958
 30
0.0
 10
27.17181260171399
 20
16.27945420599958
 30
0.0
 10
26.50001898209027
 20
16.9512478256233
 30
0.0
 10
26.50001898209027
 20
17.77875976118031
 30
0.0
 10
26.50001898209027
 20
18.60764973493142
 30
0.0
 10
27.17181260171399
 20
19.27875433545809
 30
0.0
 10
28.00001355636805
 20
19.27875433545809
 30
0.0
 10
28.82855902057064
 20
19.27875433545809
 30
0.0
 10
29.50000813064583
 20
18.60764973493142
 30
0.0
 10
29.50000813064583
 20
17.77875976118031
 30
0.0
  0
SPLINE
  5
5A
330
4D
100
AcDbEntity
  8
LAYER_1
 62
   250
100
AcDbSpline
210
0.0
220
0.0
230
1.0
 70
    11
 71
     3
 72
    17
 73
    13
 74
     0
 42
0.0000000001
 43
0.0000000001
 40
0.0
 40
0.0
 40
0.0
 40
0.0
 40
1.0
 40
1.0
 40
1.0
 40
2.0
 40
2.0
 40
2.0
 40
3.0
 40
3.0
 40
3.0
 40
4.0
 40
4.0
 40
4.0
 40
4.0
 10
43.50018716360412
 20
17.77875976118031
 30
0.0
 10
43.50018716360412
 20
16.9512478256233
 30
0.0
 10
42.8283935439804
 20
16.27945420599958
 30
0.0
 10
42.00019258932635
 20
16.27945420599958
 30
0.0
 10
41.17164712512376
 20
16.27945420599958
 30
0.0
 10
40.50019801504856
 20
16.9512478256233
 30
0.0
 10
40.50019801504856
 20
17.77875976118031
 30
0.0
 10
40.50019801504856
 20
18.60764973493142
 30
0.0
 10
41.17164712512376
 20
19.27875433545809
 30
0.0
 10
42.00019258932635
 20
19.27875433545809
 30
0.0
 10
42.8283935439804
 20
19.27875433545809
 30
0.0
 10
43.50018716360412
 20
18.60764973493142
 30
0.0
 10
43.50018716360412
 20
17.77875976118031
 30
0.0
  0
SPLINE
  5
5B
330
4D
100
AcDbEntity
  8
LAYER_1
 62
     7
100
AcDbSpline
210
0.0
220
0.0
230
1.0
 70
    11
 71
     3
 72
    59
 73
    55
 74
     0
 42
0.0000000001
 43
0.0000000001
 40
0.0
 40
0.0
 40
0.0
 40
0.0
 40
1.0
 40
1.0
 40
1.0
 40
2.0
 40
2.0
 40
2.0
 40
3.0
 40
3.0
 40
3.0
 40
4.0
 40
4.0
 40
4.0
 40
5.0
 40
5.0
 40
5.0
 40
6.0
 40
6.0
 40
6.0
 40
7.0
 40
7.0
 40
7.0
 40
8.0
 40
8.0
 40
8.0
 40
9.0
 40
9.0
 40
9.0
 40
10.0
 40
10.0
 40
10.0
 40
11.0
 40
11.0
 40
11.0
 40
12.0
 40
12.0
 40
12.0
 40
13.0
 40
13.0
 40
13.0
 40
14.0
 40
14.0
 40
14.0
 40
15.0
 40
15.0
 40
15.0
 40
16.0
 40
16.0
 40
16.0
 40
17.0
 40
17.0
 40
17.0
 40
18.0
 40
18.0
 40
18.0
 40
18.0
 10
45.0001817378819
 20
58.36611869200569
 30
0.0
 10
45.0001817378819
 20
60.0161471746661
 30
0.0
 10
43.8750135523993
 20
61.36610784056126
 30
0.0
 10
42.50007594423609
 20
61.36610784056126
 30
0.0
 10
41.12513833607289
 20
61.36610784056126
 30
0.0
 10
39.99997015059029
 20
62.7160685064564
 30
0.0
 10
39.99997015059029
 20
64.36609698911681
 30
0.0
 10
39.99997015059029
 20
64.36609698911681
 30
0.0
 10
39.99997015059029
 20
67.82738442314732
 30
0.0
 10
39.99997015059029
 20
67.82738442314732
 30
0.0
 10
39.99997015059029
 20
69.47741290580774
 30
0.0
 10
38.6501817394694
 20
70.82737357170288
 30
0.0
 10
36.99998100203473
 20
70.82737357170288
 30
0.0
 10
36.99998100203473
 20
70.82737357170288
 30
0.0
 10
33.00022514365967
 20
70.82737357170288
 30
0.0
 10
33.00022514365967
 20
70.82737357170288
 30
0.0
 10
31.350024406225
 20
70.82737357170288
 30
0.0
 10
30.00023599510411
 20
69.47741290580774
 30
0.0
 10
30.00023599510411
 20
67.82738442314732
 30
0.0
 10
30.00023599510411
 20
67.82738442314732
 30
0.0
 10
30.00023599510411
 20
64.36609698911681
 30
0.0
 10
30.00023599510411
 20
64.36609698911681
 30
0.0
 10
30.00023599510411
 20
62.7160685064564
 30
0.0
 10
28.87506780962151
 20
61.36610784056126
 30
0.0
 10
27.5001302014583
 20
61.36610784056126
 30
0.0
 10
26.12519259329509
 20
61.36610784056126
 30
0.0
 10
25.0000244078125
 20
60.0161471746661
 30
0.0
 10
25.0000244078125
 20
58.36611869200569
 30
0.0
 10
25.0000244078125
 20
58.36611869200569
 30
0.0
 10
25.0000244078125
 20
8.766389971766737
 30
0.0
 10
25.0000244078125
 20
8.766389971766737
 30
0.0
 10
25.0000244078125
 20
7.116189234332064
 30
0.0
 10
26.12519259329509
 20
5.766400823211177
 30
0.0
 10
27.5001302014583
 20
5.766400823211177
 30
0.0
 10
28.87506780962151
 20
5.766400823211177
 30
0.0
 10
30.00023599510411
 20
4.468977863466089
 30
0.0
 10
30.00023599510411
 20
2.882855902057064
 30
0.0
 10
30.00023599510411
 20
1.297422959745089
 30
0.0
 10
31.350024406225
 20
0.0
 30
0.0
 10
33.00022514365967
 20
0.0
 30
0.0
 10
33.00022514365967
 20
0.0
 30
0.0
 10
36.99998100203473
 20
0.0
 30
0.0
 10
36.99998100203473
 20
0.0
 30
0.0
 10
38.6501817394694
 20
0.0
 30
0.0
 10
39.99997015059029
 20
1.297422959745089
 30
0.0
 10
39.99997015059029
 20
2.882855902057064
 30
0.0
 10
39.99997015059029
 20
4.468977863466089
 30
0.0
 10
41.12513833607289
 20
5.766400823211177
 30
0.0
 10
42.50007594423609
 20
5.766400823211177
 30
0.0
 10
43.8750135523993
 20
5.766400823211177
 30
0.0
 10
45.0001817378819
 20
7.116189234332064
 30
0.0
 10
45.0001817378819
 20
8.766389971766737
 30
0.0
 10
45.0001817378819
 20
8.766389971766737
 30
0.0
 10
45.0001817378819
 20
58.36611869200569
 30
0.0
 10
45.0001817378819
 20
58.36611869200569
 30
0.0
  0
SPLINE
  5
5C
330
4D
100
AcDbEntity
  8
LAYER_1
 62
     7
100
AcDbSpline
210
0.0
220
0.0
230
1.0
 70
    11
 71
     3
 72
    77
 73
    73
 74
     0
 42
0.0000000001
 43
0.0000000001
 40
0.0
 40
0.0
 40
0.0
 40
0.0
 40
1.0
 40
1.0
 40
1.0
 40
2.0
 40
2.0
 40
2.0
 40
3.0
 40
3.0
 40
3.0
 40
4.0
 40
4.0
 40
4.0
 40
5.0
 40
5.0
 40
5.0
 40
6.0
 40
6.0
 40
6.0
 40
7.0
 40
7.0
 40
7.0
 40
8.0
 40
8.0
 40
8.0
 40
9.0
 40
9.0
 40
9.0
 40
10.0
 40
10.0
 40
10.0
 40
11.0
 40
11.0
 40
11.0
 40
12.0
 40
12.0
 40
12.0
 40
13.0
 40
13.0
 40
13.0
 40
14.0
 40
14.0
 40
14.0
 40
15.0
 40
15.0
 40
15.0
 40
16.0
 40
16.0
 40
16.0
 40
17.0
 40
17.0
 40
17.0
 40
18.0
 40
18.0
 40
18.0
 40
19.0
 40
19.0
 40
19.0
 40
20.0
 40
20.0
 40
20.0
 40
21.0
 40
21.0
 40
21.0
 40
22.0
 40
22.0
 40
22.0
 40
23.0
 40
23.0
 40
23.0
 40
24.0
 40
24.0
 40
24.0
 40
24.0
 10
42.00019258932635
 20
42.43272432749946
 30
0.0
 10
42.00019258932635
 20
43.53274331593973
 30
0.0
 10
41.10033364857909
 20
44.43277451146125
 30
0.0
 10
39.99997015059029
 20
44.43277451146125
 30
0.0
 10
39.99997015059029
 20
44.43277451146125
 30
0.0
 10
39.50043130522906
 20
44.43277451146125
 30
0.0
 10
39.50043130522906
 20
44.43277451146125
 30
0.0
 10
38.40006780724026
 20
44.43277451146125
 30
0.0
 10
37.500208866493
 20
45.33280570698278
 30
0.0
 10
37.500208866493
 20
46.43282469542304
 30
0.0
 10
37.500208866493
 20
46.43282469542304
 30
0.0
 10
37.500208866493
 20
57.5077731518557
 30
0.0
 10
37.500208866493
 20
57.5077731518557
 30
0.0
 10
37.500208866493
 20
58.60779214029597
 30
0.0
 10
36.60034992574575
 20
59.50782333581749
 30
0.0
 10
35.49998642775695
 20
59.50782333581749
 30
0.0
 10
35.49998642775695
 20
59.50782333581749
 30
0.0
 10
34.50021971793745
 20
59.50782333581749
 30
0.0
 10
34.50021971793745
 20
59.50782333581749
 30
0.0
 10
33.40020072949717
 20
59.50782333581749
 30
0.0
 10
32.49999727920139
 20
58.60779214029597
 30
0.0
 10
32.49999727920139
 20
57.5077731518557
 30
0.0
 10
32.49999727920139
 20
57.5077731518557
 30
0.0
 10
32.49999727920139
 20
46.43282469542304
 30
0.0
 10
32.49999727920139
 20
46.43282469542304
 30
0.0
 10
32.49999727920139
 20
45.33280570698278
 30
0.0
 10
31.60013833845413
 20
44.43277451146125
 30
0.0
 10
30.50011935001386
 20
44.43277451146125
 30
0.0
 10
30.50011935001386
 20
44.43277451146125
 30
0.0
 10
30.00023599510411
 20
44.43277451146125
 30
0.0
 10
30.00023599510411
 20
44.43277451146125
 30
0.0
 10
28.90021700666384
 20
44.43277451146125
 30
0.0
 10
28.00001355636805
 20
43.53274331593973
 30
0.0
 10
28.00001355636805
 20
42.43272432749946
 30
0.0
 10
28.00001355636805
 20
42.43272432749946
 30
0.0
 10
28.00001355636805
 20
31.43994139839002
 30
0.0
 10
28.00001355636805
 20
31.43994139839002
 30
0.0
 10
28.00001355636805
 20
30.33957790040122
 30
0.0
 10
28.54020452845523
 20
28.71969400323674
 30
0.0
 10
29.2002848234291
 20
27.83981661630393
 30
0.0
 10
29.2002848234291
 20
27.83981661630393
 30
0.0
 10
31.29972601214035
 20
25.04239908228107
 30
0.0
 10
31.29972601214035
 20
25.04239908228107
 30
0.0
 10
31.95980630711422
 20
24.16252169534826
 30
0.0
 10
32.49999727920139
 20
22.54263779818379
 30
0.0
 10
32.49999727920139
 20
21.44227430019499
 30
0.0
 10
32.49999727920139
 20
21.44227430019499
 30
0.0
 10
32.49999727920139
 20
15.38855251351397
 30
0.0
 10
32.49999727920139
 20
15.38855251351397
 30
0.0
 10
32.49999727920139
 20
14.28818901552517
 30
0.0
 10
33.40020072949717
 20
13.38833007477792
 30
0.0
 10
34.50021971793745
 20
13.38833007477792
 30
0.0
 10
34.50021971793745
 20
13.38833007477792
 30
0.0
 10
35.49998642775695
 20
13.38833007477792
 30
0.0
 10
35.49998642775695
 20
13.38833007477792
 30
0.0
 10
36.60034992574575
 20
13.38833007477792
 30
0.0
 10
37.500208866493
 20
14.28818901552517
 30
0.0
 10
37.500208866493
 20
15.38855251351397
 30
0.0
 10
37.500208866493
 20
15.38855251351397
 30
0.0
 10
37.500208866493
 20
21.44227430019499
 30
0.0
 10
37.500208866493
 20
21.44227430019499
 30
0.0
 10
37.500208866493
 20
22.54263779818379
 30
0.0
 10
38.04039983858018
 20
24.16252169534826
 30
0.0
 10
38.70048013355404
 20
25.04239908228107
 30
0.0
 10
38.70048013355404
 20
25.04239908228107
 30
0.0
 10
40.7999213222653
 20
27.83981661630393
 30
0.0
 10
40.7999213222653
 20
27.83981661630393
 30
0.0
 10
41.46000161723916
 20
28.71969400323674
 30
0.0
 10
42.00019258932635
 20
30.33957790040122
 30
0.0
 10
42.00019258932635
 20
31.43994139839002
 30
0.0
 10
42.00019258932635
 20
31.43994139839002
 30
0.0
 10
42.00019258932635
 20
42.43272432749946
 30
0.0
 10
42.00019258932635
 20
42.43272432749946
 30
0.0
  0
SPLINE
  5
5D
330
4D
100
AcDbEntity
  8
LAYER_1
 62
     7
100
AcDbSpline
210
0.0
220
0.0
230
1.0
 70
    11
 71
     3
 72
   128
 73
   124
 74
     0
 42
0.0000000001
 43
0.0000000001
 40
0.0
 40
0.0
 40
0.0
 40
0.0
 40
1.0
 40
1.0
 40
1.0
 40
2.0
 40
2.0
 40
2.0
 40
3.0
 40
3.0
 40
3.0
 40
4.0
 40
4.0
 40
4.0
 40
5.0
 40
5.0
 40
5.0
 40
6.0
 40
6.0
 40
6.0
 40
7.0
 40
7.0
 40
7.0
 40
8.0
 40
8.0
 40
8.0
 40
9.0
 40
9.0
 40
9.0
 40
10.0
 40
10.0
 40
10.0
 40
11.0
 40
11.0
 40
11.0
 40
12.0
 40
12.0
 40
12.0
 40
13.0
 40
13.0
 40
13.0
 40
14.0
 40
14.0
 40
14.0
 40
15.0
 40
15.0
 40
15.0
 40
16.0
 40
16.0
 40
16.0
 40
17.0
 40
17.0
 40
17.0
 40
18.0
 40
18.0
 40
18.0
 40
19.0
 40
19.0
 40
19.0
 40
20.0
 40
20.0
 40
20.0
 40
21.0
 40
21.0
 40
21.0
 40
22.0
 40
22.0
 40
22.0
 40
23.0
 40
23.0
 40
23.0
 40
24.0
 40
24.0
 40
24.0
 40
25.0
 40
25.0
 40
25.0
 40
26.0
 40
26.0
 40
26.0
 40
27.0
 40
27.0
 40
27.0
 40
28.0
 40
28.0
 40
28.0
 40
29.0
 40
29.0
 40
29.0
 40
30.0
 40
30.0
 40
30.0
 40
31.0
 40
31.0
 40
31.0
 40
32.0
 40
32.0
 40
32.0
 40
33.0
 40
33.0
 40
33.0
 40
34.0
 40
34.0
 40
34.0
 40
35.0
 40
35.0
 40
35.0
 40
36.0
 40
36.0
 40
36.0
 40
37.0
 40
37.0
 40
37.0
 40
38.0
 40
38.0
 40
38.0
 40
39.0
 40
39.0
 40
39.0
 40
40.0
 40
40.0
 40
40.0
 40
41.0
 40
41.0
 40
41.0
 40
41.0
 10
42.00019258932635
 20
47.8856214615529
 30
0.0
 10
40.39856769823369
 20
47.8856214615529
 30
0.0
 10
39.10011120984303
 20
49.18442245949209
 30
0.0
 10
39.10011120984303
 20
50.78501382193917
 30
0.0
 10
39.10011120984303
 20
52.38681096780608
 30
0.0
 10
40.39856769823369
 20
53.68457843709969
 30
0.0
 10
42.00019258932635
 20
53.68457843709969
 30
0.0
 10
42.00019258932635
 20
53.68457843709969
 30
0.0
 10
45.0001817378819
 20
53.68457843709969
 30
0.0
 10
45.0001817378819
 20
53.68457843709969
 30
0.0
 10
45.0001817378819
 20
53.68457843709969
 30
0.0
 10
45.0001817378819
 20
58.36611869200569
 30
0.0
 10
45.0001817378819
 20
58.36611869200569
 30
0.0
 10
45.0001817378819
 20
60.0161471746661
 30
0.0
 10
43.8750135523993
 20
61.36610784056126
 30
0.0
 10
42.50007594423609
 20
61.36610784056126
 30
0.0
 10
41.12513833607289
 20
61.36610784056126
 30
0.0
 10
39.99997015059029
 20
62.7160685064564
 30
0.0
 10
39.99997015059029
 20
64.36609698911681
 30
0.0
 10
39.99997015059029
 20
64.36609698911681
 30
0.0
 10
39.99997015059029
 20
67.82738442314732
 30
0.0
 10
39.99997015059029
 20
67.82738442314732
 30
0.0
 10
39.99997015059029
 20
69.47741290580774
 30
0.0
 10
38.6501817394694
 20
70.82737357170288
 30
0.0
 10
36.99998100203473
 20
70.82737357170288
 30
0.0
 10
36.99998100203473
 20
70.82737357170288
 30
0.0
 10
33.00022514365967
 20
70.82737357170288
 30
0.0
 10
33.00022514365967
 20
70.82737357170288
 30
0.0
 10
31.350024406225
 20
70.82737357170288
 30
0.0
 10
30.00023599510411
 20
69.47741290580774
 30
0.0
 10
30.00023599510411
 20
67.82738442314732
 30
0.0
 10
30.00023599510411
 20
67.82738442314732
 30
0.0
 10
30.00023599510411
 20
64.36609698911681
 30
0.0
 10
30.00023599510411
 20
64.36609698911681
 30
0.0
 10
30.00023599510411
 20
62.7160685064564
 30
0.0
 10
28.87506780962151
 20
61.36610784056126
 30
0.0
 10
27.5001302014583
 20
61.36610784056126
 30
0.0
 10
26.12519259329509
 20
61.36610784056126
 30
0.0
 10
25.0000244078125
 20
60.0161471746661
 30
0.0
 10
25.0000244078125
 20
58.36611869200569
 30
0.0
 10
25.0000244078125
 20
58.36611869200569
 30
0.0
 10
25.0000244078125
 20
53.68475069187395
 30
0.0
 10
25.0000244078125
 20
53.68475069187395
 30
0.0
 10
25.0000244078125
 20
53.68475069187395
 30
0.0
 10
28.00001355636805
 20
53.68475069187395
 30
0.0
 10
28.00001355636805
 20
53.68475069187395
 30
0.0
 10
28.00001355636805
 20
53.68475069187395
 30
0.0
 10
28.00001355636805
 20
53.68457843709969
 30
0.0
 10
28.00001355636805
 20
53.68457843709969
 30
0.0
 10
29.6016384474607
 20
53.68457843709969
 30
0.0
 10
30.90009493585137
 20
52.38681096780608
 30
0.0
 10
30.90009493585137
 20
50.78501382193917
 30
0.0
 10
30.90009493585137
 20
49.18442245949209
 30
0.0
 10
29.6016384474607
 20
47.8856214615529
 30
0.0
 10
28.00001355636805
 20
47.8856214615529
 30
0.0
 10
28.00001355636805
 20
47.8856214615529
 30
0.0
 10
25.0000244078125
 20
47.8856214615529
 30
0.0
 10
25.0000244078125
 20
47.8856214615529
 30
0.0
 10
25.0000244078125
 20
47.8856214615529
 30
0.0
 10
25.0000244078125
 20
20.67953015976067
 30
0.0
 10
25.0000244078125
 20
20.67953015976067
 30
0.0
 10
25.0000244078125
 20
20.67953015976067
 30
0.0
 10
28.00001355636805
 20
20.67953015976067
 30
0.0
 10
28.00001355636805
 20
20.67953015976067
 30
0.0
 10
29.6016384474607
 20
20.67953015976067
 30
0.0
 10
30.90009493585137
 20
19.38210720001559
 30
0.0
 10
30.90009493585137
 20
17.78013779937441
 30
0.0
 10
30.90009493585137
 20
16.17954643692734
 30
0.0
 10
29.6016384474607
 20
14.88074543898815
 30
0.0
 10
28.00001355636805
 20
14.88074543898815
 30
0.0
 10
28.00001355636805
 20
14.88074543898815
 30
0.0
 10
25.0000244078125
 20
14.88074543898815
 30
0.0
 10
25.0000244078125
 20
14.88074543898815
 30
0.0
 10
25.0000244078125
 20
14.88074543898815
 30
0.0
 10
25.0000244078125
 20
8.766389971766737
 30
0.0
 10
25.0000244078125
 20
8.766389971766737
 30
0.0
 10
25.0000244078125
 20
7.116189234332064
 30
0.0
 10
26.12519259329509
 20
5.766400823211177
 30
0.0
 10
27.5001302014583
 20
5.766400823211177
 30
0.0
 10
28.87506780962151
 20
5.766400823211177
 30
0.0
 10
30.00023599510411
 20
4.468977863466089
 30
0.0
 10
30.00023599510411
 20
2.882855902057064
 30
0.0
 10
30.00023599510411
 20
1.297422959745089
 30
0.0
 10
31.350024406225
 20
0.0
 30
0.0
 10
33.00022514365967
 20
0.0
 30
0.0
 10
33.00022514365967
 20
0.0
 30
0.0
 10
36.99998100203473
 20
0.0
 30
0.0
 10
36.99998100203473
 20
0.0
 30
0.0
 10
38.6501817394694
 20
0.0
 30
0.0
 10
39.99997015059029
 20
1.297422959745089
 30
0.0
 10
39.99997015059029
 20
2.882855902057064
 30
0.0
 10
39.99997015059029
 20
4.468977863466089
 30
0.0
 10
41.12513833607289
 20
5.766400823211177
 30
0.0
 10
42.50007594423609
 20
5.766400823211177
 30
0.0
 10
43.8750135523993
 20
5.766400823211177
 30
0.0
 10
45.0001817378819
 20
7.116189234332064
 30
0.0
 10
45.0001817378819
 20
8.766389971766737
 30
0.0
 10
45.0001817378819
 20
8.766389971766737
 30
0.0
 10
45.0001817378819
 20
14.87936740079405
 30
0.0
 10
45.0001817378819
 20
14.87936740079405
 30
0.0
 10
45.0001817378819
 20
14.87936740079405
 30
0.0
 10
42.00019258932635
 20
14.87936740079405
 30
0.0
 10
42.00019258932635
 20
14.87936740079405
 30
0.0
 10
42.00019258932635
 20
14.87936740079405
 30
0.0
 10
42.00019258932635
 20
14.88074543898815
 30
0.0
 10
42.00019258932635
 20
14.88074543898815
 30
0.0
 10
40.39856769823369
 20
14.88074543898815
 30
0.0
 10
39.10011120984303
 20
16.17954643692734
 30
0.0
 10
39.10011120984303
 20
17.78013779937441
 30
0.0
 10
39.10011120984303
 20
19.38210720001559
 30
0.0
 10
40.39856769823369
 20
20.67953015976067
 30
0.0
 10
42.00019258932635
 20
20.67953015976067
 30
0.0
 10
42.00708278029684
 20
20.67953015976067
 30
0.0
 10
42.01397297126734
 20
20.67884114066362
 30
0.0
 10
42.02086316223784
 20
20.67884114066362
 30
0.0
 10
42.02086316223784
 20
20.67884114066362
 30
0.0
 10
45.0001817378819
 20
20.67884114066362
 30
0.0
 10
45.0001817378819
 20
20.67884114066362
 30
0.0
 10
45.0001817378819
 20
20.67884114066362
 30
0.0
 10
45.0001817378819
 20
47.8856214615529
 30
0.0
 10
45.0001817378819
 20
47.8856214615529
 30
0.0
 10
45.0001817378819
 20
47.8856214615529
 30
0.0
 10
42.00019258932635
 20
47.8856214615529
 30
0.0
 10
42.00019258932635
 20
47.8856214615529
 30
0.0
  0
ENDBLK
  5
50
330
4D
100
AcDbEntity
  8
0
100
AcDbBlockEnd
  0
BLOCK
  5
53
330
51
100
AcDbEntity
  8
0
100
AcDbBlockBegin
  2
BLOCK_5
 70
     0
 71
     0
 10
0.0
 20
0.0
 30
0.0
  3
BLOCK_5
  1

  0
SPLINE
  5
55
330
51
100
AcDbEntity
  8
LAYER_1
 62
   250
100
AcDbSpline
210
0.0
220
0.0
230
1.0
 70
    11
 71
     3
 72
    17
 73
    13
 74
     0
 42
0.0000000001
 43
0.0000000001
 40
0.0
 40
0.0
 40
0.0
 40
0.0
 40
1.0
 40
1.0
 40
1.0
 40
2.0
 40
2.0
 40
2.0
 40
3.0
 40
3.0
 40
3.0
 40
4.0
 40
4.0
 40
4.0
 40
4.0
 10
36.24998371489584
 20
65.76635604909661
 30
0.0
 10
36.24998371489584
 20
65.07595891385255
 30
0.0
 10
35.69050020809127
 20
64.51630315227371
 30
0.0
 10
35.0001030728472
 20
64.51630315227371
 30
0.0
 10
34.30970593760313
 20
64.51630315227371
 30
0.0
 10
33.74987792125003
 20
65.07595891385255
 30
0.0
 10
33.74987792125003
 20
65.76635604909661
 30
0.0
 10
33.74987792125003
 20
66.45658092956641
 30
0.0
 10
34.30970593760313
 20
67.01623669114525
 30
0.0
 10
35.0001030728472
 20
67.01623669114525
 30
0.0
 10
35.69050020809127
 20
67.01623669114525
 30
0.0
 10
36.24998371489584
 20
66.45658092956641
 30
0.0
 10
36.24998371489584
 20
65.76635604909661
 30
0.0
  0
SPLINE
  5
56
330
51
100
AcDbEntity
  8
LAYER_1
 62
   250
100
AcDbSpline
210
0.0
220
0.0
230
1.0
 70
    11
 71
     3
 72
    17
 73
    13
 74
     0
 42
0.0000000001
 43
0.0000000001
 40
0.0
 40
0.0
 40
0.0
 40
0.0
 40
1.0
 40
1.0
 40
1.0
 40
2.0
 40
2.0
 40
2.0
 40
3.0
 40
3.0
 40
3.0
 40
4.0
 40
4.0
 40
4.0
 40
4.0
 10
36.24998371489584
 20
5.766400823211177
 30
0.0
 10
36.24998371489584
 20
5.07600368796711
 30
0.0
 10
35.69050020809127
 20
4.516520181162536
 30
0.0
 10
35.0001030728472
 20
4.516520181162536
 30
0.0
 10
34.30970593760313
 20
4.516520181162536
 30
0.0
 10
33.74987792125003
 20
5.07600368796711
 30
0.0
 10
33.74987792125003
 20
5.766400823211177
 30
0.0
 10
33.74987792125003
 20
6.456797958455245
 30
0.0
 10
34.30970593760313
 20
7.016281465259818
 30
0.0
 10
35.0001030728472
 20
7.016281465259818
 30
0.0
 10
35.69050020809127
 20
7.016281465259818
 30
0.0
 10
36.24998371489584
 20
6.456797958455245
 30
0.0
 10
36.24998371489584
 20
5.766400823211177
 30
0.0
  0
ENDBLK
  5
54
330
51
100
AcDbEntity
  8
0
100
AcDbBlockEnd
  0
ENDSEC
  0
SECTION
  2
ENTITIES
  0
INSERT
  5
3D
330
1F
100
AcDbEntity
  8
LAYER_1
100
AcDbBlockReference
  2
BLOCK_2
 10
0.0
 20
0.0
 30
0.0
  0
INSERT
  5
4E
330
1F
100
AcDbEntity
  8
LAYER_1
100
AcDbBlockReference
  2
BLOCK_4
 10
0.0
 20
0.0
 30
0.0
  0
ENDSEC
  0
SECTION
  2
OBJECTS
  0
DICTIONARY
  5
C
330
0
100
AcDbDictionary
  3
ACAD_GROUP
350
D
  3
ACAD_LAYOUT
350
1A
  3
ACAD_MLINESTYLE
350
17
  3
ACAD_PLOTSETTINGS
350
19
  3
ACAD_TABLESTYLE
350
5E
  3
ACAD_VISUALSTYLE
350
2A
1001
ACAD
1000
TREAT_AS_HARD
1070
     0
  0
DICTIONARY
  5
D
102
{ACAD_REACTORS
330
C
102
}
330
C
100
AcDbDictionary
1001
ACAD
1000
TREAT_AS_HARD
1070
     0
  0
DICTIONARY
  5
1A
102
{ACAD_REACTORS
330
C
102
}
330
C
100
AcDbDictionary
1001
ACAD
1000
TREAT_AS_HARD
1070
     0
  0
DICTIONARY
  5
17
102
{ACAD_REACTORS
330
C
102
}
330
C
100
AcDbDictionary
  3
STANDARD
350
18
1001
ACAD
1000
TREAT_AS_HARD
1070
     0
  0
DICTIONARY
  5
19
102
{ACAD_REACTORS
330
C
102
}
330
C
100
AcDbDictionary
1001
ACAD
1000
TREAT_AS_HARD
1070
     0
  0
DICTIONARY
  5
5E
102
{ACAD_REACTORS
330
C
102
}
330
C
100
AcDbDictionary
1001
ACAD
1000
TREAT_AS_HARD
1070
     0
  0
DICTIONARY
  5
2A
102
{ACAD_REACTORS
330
C
102
}
330
C
100
AcDbDictionary
  3
2DWIREFRAME
350
2F
  3
3D_HIDDEN
350
31
  3
3DWIREFRAME
350
30
  3
BASIC
350
32
  3
BRIGHTEN
350
36
  3
COLORCHANGE
350
3A
  3
CONCEPTUAL
350
34
  3
DIM
350
35
  3
FACEPATTERN
350
39
  3
FLAT
350
2B
  3
FLATWITHEDGES
350
2C
  3
GOURAUD
350
2D
  3
GOURAUDWITHEDGES
350
2E
  3
LINEPATTERN
350
38
  3
REALISTIC
350
33
  3
THICKEN
350
37
1001
ACAD
1000
TREAT_AS_HARD
1070
     0
  0
MLINESTYLE
  5
18
102
{ACAD_REACTORS
330
17
102
}
330
17
100
AcDbMlineStyle
  2
Standard
 70
     0
  3

 62
   256
 51
90.0
 52
90.0
 71
     2
 49
0.5
 62
   256
  6
BYLAYER
 49
-0.5
 62
   256
  6
BYLAYER
  0
VISUALSTYLE
  5
2F
102
{ACAD_REACTORS
330
2A
102
}
330
2A
100
AcDbVisualStyle
  2
2dWireframe
 70
     4
 71
     0
 72
     2
 73
     0
 90
        0
 40
-0.6
 41
-30.0
 62
     5
 63
     7
 74
     1
 91
        4
 64
     7
 65
   257
 75
     1
175
     1
 42
1.0
 92
        0
 66
   257
 43
1.0
 76
     1
 77
     6
 78
     2
 67
     7
 79
     5
170
     0
171
     0
290
     0
174
     0
 93
        1
 44
0.0
173
     0
291
     0
 45
0.0
1001
ACAD
1000
AcDbSavedByObjectVersion
1070
     0
  0
VISUALSTYLE
  5
31
102
{ACAD_REACTORS
330
2A
102
}
330
2A
100
AcDbVisualStyle
  2
3D Hidden
 70
     6
 71
     1
 72
     2
 73
     2
 90
        0
 40
-0.6
 41
-30.0
 62
     5
 63
     7
 74
     2
 91
        2
 64
     7
 65
   257
 75
     2
175
     1
 42
40.0
 92
        0
 66
   257
 43
1.0
 76
     1
 77
     6
 78
     2
 67
     7
 79
     3
170
     0
171
     0
290
     0
174
     0
 93
        1
 44
0.0
173
     0
291
     0
 45
0.0
1001
ACAD
1000
AcDbSavedByObjectVersion
1070
     0
  0
VISUALSTYLE
  5
30
102
{ACAD_REACTORS
330
2A
102
}
330
2A
100
AcDbVisualStyle
  2
3dWireframe
 70
     5
 71
     0
 72
     2
 73
     0
 90
        0
 40
-0.6
 41
-30.0
 62
     5
 63
     7
 74
     1
 91
        4
 64
     7
 65
   257
 75
     1
175
     1
 42
1.0
 92
        0
 66
   257
 43
1.0
 76
     1
 77
     6
 78
     2
 67
     7
 79
     5
170
     0
171
     0
290
     0
174
     0
 93
        1
 44
0.0
173
     0
291
     0
 45
0.0
1001
ACAD
1000
AcDbSavedByObjectVersion
1070
     0
  0
VISUALSTYLE
  5
32
102
{ACAD_REACTORS
330
2A
102
}
330
2A
100
AcDbVisualStyle
  2
Basic
 70
     7
 71
     1
 72
     0
 73
     1
 90
        0
 40
-0.6
 41
-30.0
 62
     5
 63
     7
 74
     0
 91
        4
 64
     7
 65
   257
 75
     1
175
     1
 42
1.0
 92
        8
 66
     7
 43
1.0
 76
     1
 77
     6
 78
     2
 67
     7
 79
     5
170
     0
171
     0
290
     0
174
     0
 93
        1
 44
0.0
173
     0
291
     1
 45
0.0
1001
ACAD
1000
AcDbSavedByObjectVersion
1070
     0
  0
VISUALSTYLE
  5
36
102
{ACAD_REACTORS
330
2A
102
}
330
2A
100
AcDbVisualStyle
  2
Brighten
 70
    12
 71
     2
 72
     2
 73
     0
 90
        0
 40
-0.6
 41
-30.0
 62
     5
 63
     7
 74
     1
 91
        4
 64
     7
 65
   257
 75
     1
175
     1
 42
1.0
 92
        8
 66
     7
 43
1.0
 76
     1
 77
     6
 78
     2
 67
     7
 79
     5
170
     0
171
     0
290
     0
174
     0
 93
        1
 44
50.0
173
     0
291
     1
 45
0.0
1001
ACAD
1000
AcDbSavedByObjectVersion
1070
     0
  0
VISUALSTYLE
  5
3A
102
{ACAD_REACTORS
330
2A
102
}
330
2A
100
AcDbVisualStyle
  2
ColorChange
 70
    16
 71
     2
 72
     2
 73
     3
 90
        0
 40
-0.6
 41
-30.0
 62
     5
 63
     8
 74
     1
 91
        4
 64
     7
 65
   257
 75
     1
175
     1
 42
1.0
 92
        8
 66
     8
 43
1.0
 76
     1
 77
     6
 78
     2
 67
     7
 79
     5
170
     0
171
     0
290
     0
174
     0
 93
        1
 44
0.0
173
     0
291
     1
 45
0.0
1001
ACAD
1000
AcDbSavedByObjectVersion
1070
     0
  0
VISUALSTYLE
  5
34
102
{ACAD_REACTORS
330
2A
102
}
330
2A
100
AcDbVisualStyle
  2
Conceptual
 70
     9
 71
     3
 72
     2
 73
     0
 90
        0
 40
-0.6
 41
-30.0
 62
     5
 63
     7
 74
     2
 91
        2
 64
     7
 65
   257
 75
     1
175
     1
 42
40.0
 92
        8
 66
     7
 43
1.0
 76
     1
 77
     6
 78
     2
 67
     7
 79
     3
170
     0
171
     0
290
     0
174
     0
 93
        1
 44
0.0
173
     0
291
     0
 45
0.0
1001
ACAD
1000
AcDbSavedByObjectVersion
1070
     0
  0
VISUALSTYLE
  5
35
102
{ACAD_REACTORS
330
2A
102
}
330
2A
100
AcDbVisualStyle
  2
Dim
 70
    11
 71
     2
 72
     2
 73
     0
 90
        0
 40
-0.6
 41
-30.0
 62
     5
 63
     7
 74
     1
 91
        4
 64
     7
 65
   257
 75
     1
175
     1
 42
1.0
 92
        8
 66
     7
 43
1.0
 76
     1
 77
     6
 78
     2
 67
     7
 79
     5
170
     0
171
     0
290
     0
174
     0
 93
        1
 44
-50.0
173
     0
291
     1
 45
0.0
1001
ACAD
1000
AcDbSavedByObjectVersion
1070
     0
  0
VISUALSTYLE
  5
39
102
{ACAD_REACTORS
330
2A
102
}
330
2A
100
AcDbVisualStyle
  2
Facepattern
 70
    15
 71
     2
 72
     2
 73
     0
 90
        0
 40
-0.6
 41
-30.0
 62
     5
 63
     7
 74
     1
 91
        4
 64
     7
 65
   257
 75
     1
175
     1
 42
1.0
 92
        8
 66
     7
 43
1.0
 76
     1
 77
     6
 78
     2
 67
     7
 79
     5
170
     0
171
     0
290
     0
174
     0
 93
        1
 44
0.0
173
     0
291
     1
 45
0.0
1001
ACAD
1000
AcDbSavedByObjectVersion
1070
     0
  0
VISUALSTYLE
  5
2B
102
{ACAD_REACTORS
330
2A
102
}
330
2A
100
AcDbVisualStyle
  2
Flat
 70
     0
 71
     2
 72
     1
 73
     1
 90
        2
 40
-0.6
 41
30.0
 62
     5
 63
     7
 74
     0
 91
        4
 64
     7
 65
   257
 75
     1
175
     1
 42
1.0
 92
        8
 66
     7
 43
1.0
 76
     1
 77
     6
 78
     2
 67
     7
 79
     5
170
     0
171
     0
290
     0
174
     0
 93
       13
 44
0.0
173
     0
291
     1
 45
0.0
1001
ACAD
1000
AcDbSavedByObjectVersion
1070
     0
  0
VISUALSTYLE
  5
2C
102
{ACAD_REACTORS
330
2A
102
}
330
2A
100
AcDbVisualStyle
  2
FlatWithEdges
 70
     1
 71
     2
 72
     1
 73
     1
 90
        2
 40
-0.6
 41
30.0
 62
     5
 63
     7
 74
     1
 91
        4
 64
     7
 65
   257
 75
     1
175
     1
 42
1.0
 92
        0
 66
   257
 43
1.0
 76
     1
 77
     6
 78
     2
 67
     7
 79
     5
170
     0
171
     0
290
     0
174
     0
 93
       13
 44
0.0
173
     0
291
     1
 45
0.0
1001
ACAD
1000
AcDbSavedByObjectVersion
1070
     0
  0
VISUALSTYLE
  5
2D
102
{ACAD_REACTORS
330
2A
102
}
330
2A
100
AcDbVisualStyle
  2
Gouraud
 70
     2
 71
     2
 72
     2
 73
     1
 90
        2
 40
-0.6
 41
30.0
 62
     5
 63
     7
 74
     0
 91
        4
 64
     7
 65
   257
 75
     1
175
     1
 42
1.0
 92
        0
 66
     7
 43
1.0
 76
     1
 77
     6
 78
     2
 67
     7
 79
     5
170
     0
171
     0
290
     0
174
     0
 93
       13
 44
0.0
173
     0
291
     1
 45
0.0
1001
ACAD
1000
AcDbSavedByObjectVersion
1070
     0
  0
VISUALSTYLE
  5
2E
102
{ACAD_REACTORS
330
2A
102
}
330
2A
100
AcDbVisualStyle
  2
GouraudWithEdges
 70
     3
 71
     2
 72
     2
 73
     1
 90
        2
 40
-0.6
 41
30.0
 62
     5
 63
     7
 74
     1
 91
        4
 64
     7
 65
   257
 75
     1
175
     1
 42
1.0
 92
        0
 66
   257
 43
1.0
 76
     1
 77
     6
 78
     2
 67
     7
 79
     5
170
     0
171
     0
290
     0
174
     0
 93
       13
 44
0.0
173
     0
291
     1
 45
0.0
1001
ACAD
1000
AcDbSavedByObjectVersion
1070
     0
  0
VISUALSTYLE
  5
38
102
{ACAD_REACTORS
330
2A
102
}
330
2A
100
AcDbVisualStyle
  2
Linepattern
 70
    14
 71
     2
 72
     2
 73
     0
 90
        0
 40
-0.6
 41
-30.0
 62
     5
 63
     7
 74
     1
 91
        4
 64
     7
 65
   257
 75
     7
175
     7
 42
1.0
 92
        8
 66
     7
 43
1.0
 76
     1
 77
     6
 78
     2
 67
     7
 79
     5
170
     0
171
     0
290
     0
174
     0
 93
        1
 44
0.0
173
     0
291
     1
 45
0.0
1001
ACAD
1000
AcDbSavedByObjectVersion
1070
     0
  0
VISUALSTYLE
  5
33
102
{ACAD_REACTORS
330
2A
102
}
330
2A
100
AcDbVisualStyle
  2
Realistic
 70
     8
 71
     2
 72
     2
 73
     0
 90
        0
 40
-0.6
 41
-30.0
 62
     5
 63
     7
 74
     1
 91
        0
 64
     7
 65
   257
 75
     1
175
     1
 42
1.0
 92
        8
 66
     8
 43
1.0
 76
     1
 77
     6
 78
     2
 67
     7
 79
     5
170
     0
171
     0
290
     0
174
     0
 93
       13
 44
0.0
173
     0
291
     0
 45
0.0
1001
ACAD
1000
AcDbSavedByObjectVersion
1070
     0
  0
VISUALSTYLE
  5
37
102
{ACAD_REACTORS
330
2A
102
}
330
2A
100
AcDbVisualStyle
  2
Thicken
 70
    13
 71
     2
 72
     2
 73
     0
 90
        0
 40
-0.6
 41
-30.0
 62
     5
 63
     7
 74
     1
 91
        4
 64
     7
 65
   257
 75
     1
175
     1
 42
1.0
 92
       12
 66
     7
 43
1.0
 76
     1
 77
     6
 78
     2
 67
     7
 79
     5
170
     0
171
     0
290
     0
174
     0
 93
        1
 44
0.0
173
     0
291
     1
 45
0.0
1001
ACAD
1000
AcDbSavedByObjectVersion
1070
     0
  0
ENDSEC
  0
EOF
