  0
SECTION
  2
HEADER
  9
$ACADVER
  1
AC1012
  9
$DWGCODEPAGE
  3
ansi_1252
  9
$INSBASE
 10
0.0
 20
0.0
 30
0.0
  9
$EXTMIN
 10
1.000000000000000E+20
 20
1.000000000000000E+20
 30
1.000000000000000E+20
  9
$EXTMAX
 10
-1.000000000000000E+20
 20
-1.000000000000000E+20
 30
-1.000000000000000E+20
  9
$LIMMIN
 10
0.0
 20
0.0
  9
$LIMMAX
 10
12.0
 20
9.0
  9
$ORTHOMODE
 70
     0
  9
$REGENMODE
 70
     1
  9
$FILLMODE
 70
     1
  9
$QTEXTMODE
 70
     0
  9
$MIRRTEXT
 70
     1
  9
$DRAGMODE
 70
     2
  9
$LTSCALE
 40
1.0
  9
$OSMODE
 70
    37
  9
$ATTMODE
 70
     1
  9
$TEXTSIZE
 40
0.2
  9
$TRACEWID
 40
0.05
  9
$TEXTSTYLE
  7
STANDARD
  9
$CLAYER
  8
0
  9
$CELTYPE
  6
BYLAYER
  9
$CECOLOR
 62
   256
  9
$CELTSCALE
 40
1.0
  9
$DELOBJ
 70
     1
  9
$DISPSILH
 70
     0
  9
$DIMSCALE
 40
1.0
  9
$DIMASZ
 40
0.18
  9
$DIMEXO
 40
0.0625
  9
$DIMDLI
 40
0.38
  9
$DIMRND
 40
0.0
  9
$DIMDLE
 40
0.0
  9
$DIMEXE
 40
0.18
  9
$DIMTP
 40
0.0
  9
$DIMTM
 40
0.0
  9
$DIMTXT
 40
0.18
  9
$DIMCEN
 40
0.09
  9
$DIMTSZ
 40
0.0
  9
$DIMTOL
 70
     0
  9
$DIMLIM
 70
     0
  9
$DIMTIH
 70
     1
  9
$DIMTOH
 70
     1
  9
$DIMSE1
 70
     0
  9
$DIMSE2
 70
     0
  9
$DIMTAD
 70
     0
  9
$DIMZIN
 70
     0
  9
$DIMBLK
  1

  9
$DIMASO
 70
     1
  9
$DIMSHO
 70
     1
  9
$DIMPOST
  1

  9
$DIMAPOST
  1

  9
$DIMALT
 70
     0
  9
$DIMALTD
 70
     2
  9
$DIMALTF
 40
25.4
  9
$DIMLFAC
 40
1.0
  9
$DIMTOFL
 70
     0
  9
$DIMTVP
 40
0.0
  9
$DIMTIX
 70
     0
  9
$DIMSOXD
 70
     0
  9
$DIMSAH
 70
     0
  9
$DIMBLK1
  1

  9
$DIMBLK2
  1

  9
$DIMSTYLE
  2
STANDARD
  9
$DIMCLRD
 70
     0
  9
$DIMCLRE
 70
     0
  9
$DIMCLRT
 70
     0
  9
$DIMTFAC
 40
1.0
  9
$DIMGAP
 40
0.09
  9
$DIMJUST
 70
     0
  9
$DIMSD1
 70
     0
  9
$DIMSD2
 70
     0
  9
$DIMTOLJ
 70
     1
  9
$DIMTZIN
 70
     0
  9
$DIMALTZ
 70
     0
  9
$DIMALTTZ
 70
     0
  9
$DIMFIT
 70
     3
  9
$DIMUPT
 70
     0
  9
$DIMUNIT
 70
     2
  9
$DIMDEC
 70
     4
  9
$DIMTDEC
 70
     4
  9
$DIMALTU
 70
     2
  9
$DIMALTTD
 70
     2
  9
$DIMTXSTY
  7
STANDARD
  9
$DIMAUNIT
 70
     0
  9
$LUNITS
 70
     2
  9
$LUPREC
 70
     4
  9
$SKETCHINC
 40
0.1
  9
$FILLETRAD
 40
0.5
  9
$AUNITS
 70
     0
  9
$AUPREC
 70
     0
  9
$MENU
  1
.
  9
$ELEVATION
 40
0.0
  9
$PELEVATION
 40
0.0
  9
$THICKNESS
 40
0.0
  9
$LIMCHECK
 70
     0
  9
$CHAMFERA
 40
0.5
  9
$CHAMFERB
 40
0.5
  9
$CHAMFERC
 40
1.0
  9
$CHAMFERD
 40
0.0
  9
$SKPOLY
 70
     0
  9
$TDCREATE
 40
2456289.498491285
  9
$TDUPDATE
 40
2456289.498491296
  9
$TDINDWG
 40
0.0000000116
  9
$TDUSRTIMER
 40
0.0000000116
  9
$USRTIMER
 70
     1
  9
$ANGBASE
 50
0.0
  9
$ANGDIR
 70
     0
  9
$PDMODE
 70
     0
  9
$PDSIZE
 40
0.0
  9
$PLINEWID
 40
0.0
  9
$COORDS
 70
     1
  9
$SPLFRAME
 70
     0
  9
$SPLINETYPE
 70
     6
  9
$SPLINESEGS
 70
     8
  9
$ATTDIA
 70
     0
  9
$ATTREQ
 70
     1
  9
$HANDLING
 70
     1
  9
$HANDSEED
  5
C5
  9
$SURFTAB1
 70
     6
  9
$SURFTAB2
 70
     6
  9
$SURFTYPE
 70
     6
  9
$SURFU
 70
     6
  9
$SURFV
 70
     6
  9
$UCSNAME
  2

  9
$UCSORG
 10
0.0
 20
0.0
 30
0.0
  9
$UCSXDIR
 10
1.0
 20
0.0
 30
0.0
  9
$UCSYDIR
 10
0.0
 20
1.0
 30
0.0
  9
$PUCSNAME
  2

  9
$PUCSORG
 10
0.0
 20
0.0
 30
0.0
  9
$PUCSXDIR
 10
1.0
 20
0.0
 30
0.0
  9
$PUCSYDIR
 10
0.0
 20
1.0
 30
0.0
  9
$USERI1
 70
     0
  9
$USERI2
 70
     0
  9
$USERI3
 70
     0
  9
$USERI4
 70
     0
  9
$USERI5
 70
     0
  9
$USERR1
 40
0.0
  9
$USERR2
 40
0.0
  9
$USERR3
 40
0.0
  9
$USERR4
 40
0.0
  9
$USERR5
 40
0.0
  9
$WORLDVIEW
 70
     1
  9
$SHADEDGE
 70
     3
  9
$SHADEDIF
 70
    70
  9
$TILEMODE
 70
     1
  9
$MAXACTVP
 70
    64
  9
$PINSBASE
 10
0.0
 20
0.0
 30
0.0
  9
$PLIMCHECK
 70
     0
  9
$PEXTMIN
 10
1.000000000000000E+20
 20
1.000000000000000E+20
 30
1.000000000000000E+20
  9
$PEXTMAX
 10
-1.000000000000000E+20
 20
-1.000000000000000E+20
 30
-1.000000000000000E+20
  9
$PLIMMIN
 10
0.0
 20
0.0
  9
$PLIMMAX
 10
12.0
 20
9.0
  9
$UNITMODE
 70
     0
  9
$VISRETAIN
 70
     1
  9
$PLINEGEN
 70
     0
  9
$PSLTSCALE
 70
     1
  9
$TREEDEPTH
 70
  3020
  9
$PICKSTYLE
 70
     1
  9
$CMLSTYLE
  2
STANDARD
  9
$CMLJUST
 70
     0
  9
$CMLSCALE
 40
1.0
  9
$SAVEIMAGES
 70
     1
  0
ENDSEC
  0
SECTION
  2
CLASSES
  0
CLASS
  1
ACDBDICTIONARYWDFLT
  2
AcDbDictionaryWithDefault
  3
ObjectDBX Classes
 90
    32768
280
     0
281
     0
  0
CLASS
  1
VISUALSTYLE
  2
AcDbVisualStyle
  3
ObjectDBX Classes
 90
     4095
280
     0
281
     0
  0
CLASS
  1
XRECORD
  2
AcDbXrecord
  3
AutoCAD 2000
 90
    32768
280
     0
281
     0
  0
CLASS
  1
LWPOLYLINE
  2
AcDbPolyline
  3
AutoCAD 2000
 90
    32768
280
     0
281
     1
  0
CLASS
  1
HATCH
  2
AcDbHatch
  3
AutoCAD 2000
 90
    32768
280
     0
281
     1
  0
CLASS
  1
ACDBPLACEHOLDER
  2
AcDbPlaceHolder
  3
ObjectDBX Classes
 90
        0
280
     0
281
     0
  0
CLASS
  1
LAYOUT
  2
AcDbLayout
  3
ObjectDBX Classes
 90
        0
280
     0
281
     0
  0
ENDSEC
  0
SECTION
  2
TABLES
  0
TABLE
  2
VPORT
  5
8
330
0
100
AcDbSymbolTable
 70
     1
  0
VPORT
  5
29
330
8
100
AcDbSymbolTableRecord
100
AcDbViewportTableRecord
  2
*ACTIVE
 70
     0
 10
0.0
 20
0.0
 11
1.0
 21
1.0
 12
0.0
 22
0.0
 13
0.0
 23
0.0
 14
0.5
 24
0.5
 15
0.5
 25
0.5
 16
0.0
 26
0.0
 36
1.0
 17
148.4999796178229
 27
-105.0008259828644
 37
0.0
 40
210.0016519657288
 41
1.414274394775308
 42
50.0
 43
0.0
 44
0.0
 50
0.0
 51
0.0
 71
     0
 72
   100
 73
     1
 74
     3
 75
     0
 76
     0
 77
     0
 78
     0
  0
ENDTAB
  0
TABLE
  2
LTYPE
  5
5
330
0
100
AcDbSymbolTable
 70
     1
  0
LTYPE
  5
14
330
5
100
AcDbSymbolTableRecord
100
AcDbLinetypeTableRecord
  2
BYBLOCK
 70
     0
  3

 72
    65
 73
     0
 40
0.0
  0
LTYPE
  5
15
330
5
100
AcDbSymbolTableRecord
100
AcDbLinetypeTableRecord
  2
BYLAYER
 70
     0
  3

 72
    65
 73
     0
 40
0.0
  0
LTYPE
  5
16
330
5
100
AcDbSymbolTableRecord
100
AcDbLinetypeTableRecord
  2
CONTINUOUS
 70
     0
  3
Solid line
 72
    65
 73
     0
 40
0.0
  0
ENDTAB
  0
TABLE
  2
LAYER
  5
2
330
0
100
AcDbSymbolTable
 70
     2
  0
LAYER
  5
10
330
2
100
AcDbSymbolTableRecord
100
AcDbLayerTableRecord
  2
0
 70
     0
 62
     7
  6
CONTINUOUS
  0
LAYER
  5
3B
330
2
100
AcDbSymbolTableRecord
100
AcDbLayerTableRecord
  2
LAYER_1
 70
     0
 62
     7
  6
CONTINUOUS
  0
ENDTAB
  0
TABLE
  2
STYLE
  5
3
330
0
100
AcDbSymbolTable
 70
     1
  0
STYLE
  5
11
330
3
100
AcDbSymbolTableRecord
100
AcDbTextStyleTableRecord
  2
STANDARD
 70
     0
 40
0.0
 41
1.0
 50
0.0
 71
     0
 42
0.2
  3
txt
  4

  0
ENDTAB
  0
TABLE
  2
VIEW
  5
6
330
0
100
AcDbSymbolTable
 70
     0
  0
ENDTAB
  0
TABLE
  2
UCS
  5
7
330
0
100
AcDbSymbolTable
 70
     0
  0
ENDTAB
  0
TABLE
  2
APPID
  5
9
330
0
100
AcDbSymbolTable
 70
     1
  0
APPID
  5
12
330
9
100
AcDbSymbolTableRecord
100
AcDbRegAppTableRecord
  2
ACAD
 70
     0
  0
ENDTAB
  0
TABLE
  2
DIMSTYLE
  5
A
330
0
100
AcDbSymbolTable
 70
     1
  0
DIMSTYLE
105
27
330
A
100
AcDbSymbolTableRecord
100
AcDbDimStyleTableRecord
  2
STANDARD
 70
     0
  3

  4

  5

  6

  7

 40
1.0
 41
0.18
 42
0.0625
 43
0.38
 44
0.18
 45
0.0
 46
0.0
 47
0.0
 48
0.0
140
0.18
141
0.09
142
0.0
143
25.4
144
1.0
145
0.0
146
1.0
147
0.09
 71
     0
 72
     0
 73
     1
 74
     1
 75
     0
 76
     0
 77
     0
 78
     0
170
     0
171
     2
172
     0
173
     0
174
     0
175
     0
176
     0
177
     0
178
     0
270
     2
271
     4
272
     4
273
     2
274
     2
340
11
275
     0
280
     0
281
     0
282
     0
283
     1
284
     0
285
     0
286
     0
287
     3
288
     0
  0
ENDTAB
  0
TABLE
  2
BLOCK_RECORD
  5
1
330
0
100
AcDbSymbolTable
 70
     5
  0
BLOCK_RECORD
  5
1F
330
1
100
AcDbSymbolTableRecord
100
AcDbBlockTableRecord
  2
*MODEL_SPACE
  0
BLOCK_RECORD
  5
1B
330
1
100
AcDbSymbolTableRecord
100
AcDbBlockTableRecord
  2
*PAPER_SPACE
  0
BLOCK_RECORD
  5
4E
330
1
100
AcDbSymbolTableRecord
100
AcDbBlockTableRecord
  2
BLOCK_2
  0
BLOCK_RECORD
  5
56
330
1
100
AcDbSymbolTableRecord
100
AcDbBlockTableRecord
  2
BLOCK_3
  0
BLOCK_RECORD
  5
65
330
1
100
AcDbSymbolTableRecord
100
AcDbBlockTableRecord
  2
BLOCK_4
  0
BLOCK_RECORD
  5
74
330
1
100
AcDbSymbolTableRecord
100
AcDbBlockTableRecord
  2
BLOCK_5
  0
ENDTAB
  0
ENDSEC
  0
SECTION
  2
BLOCKS
  0
BLOCK
  5
20
330
1F
100
AcDbEntity
  8
0
100
AcDbBlockBegin
  2
*MODEL_SPACE
 70
     0
 71
     0
 10
0.0
 20
0.0
 30
0.0
  3
*MODEL_SPACE
  1

  0
ENDBLK
  5
21
330
1F
100
AcDbEntity
  8
0
100
AcDbBlockEnd
  0
BLOCK
  5
1C
330
1B
100
AcDbEntity
 67
     1
  8
0
100
AcDbBlockBegin
  2
*PAPER_SPACE
 70
     0
 71
     0
 10
0.0
 20
0.0
 30
0.0
  3
*PAPER_SPACE
  1

  0
ENDBLK
  5
1D
330
1B
100
AcDbEntity
 67
     1
  8
0
100
AcDbBlockEnd
  0
BLOCK
  5
50
330
4E
100
AcDbEntity
  8
0
100
AcDbBlockBegin
  2
BLOCK_2
 70
     0
 71
     0
 10
0.0
 20
0.0
 30
0.0
  3
BLOCK_2
  1

  0
SPLINE
  5
52
330
4E
100
AcDbEntity
  8
LAYER_1
 62
   250
100
AcDbSpline
210
0.0
220
0.0
230
1.0
 70
    11
 71
     3
 72
    17
 73
    13
 74
     0
 42
0.0000000001
 43
0.0000000001
 40
0.0
 40
0.0
 40
0.0
 40
0.0
 40
1.0
 40
1.0
 40
1.0
 40
2.0
 40
2.0
 40
2.0
 40
3.0
 40
3.0
 40
3.0
 40
4.0
 40
4.0
 40
4.0
 40
4.0
 10
27.32770317242155
 20
27.29704182260283
 30
0.0
 10
27.32770317242155
 20
26.46884086794876
 30
0.0
 10
26.65625406234635
 20
25.79704724832504
 30
0.0
 10
25.82770859814377
 20
25.79704724832504
 30
0.0
 10
24.99916313394118
 20
25.79704724832504
 30
0.0
 10
24.32771402386599
 20
26.46884086794876
 30
0.0
 10
24.32771402386599
 20
27.29704182260283
 30
0.0
 10
24.32771402386599
 20
28.12489826770836
 30
0.0
 10
24.99916313394118
 20
28.7970363968806
 30
0.0
 10
25.82770859814377
 20
28.7970363968806
 30
0.0
 10
26.65625406234635
 20
28.7970363968806
 30
0.0
 10
27.32770317242155
 20
28.12489826770836
 30
0.0
 10
27.32770317242155
 20
27.29704182260283
 30
0.0
  0
SPLINE
  5
53
330
4E
100
AcDbEntity
  8
LAYER_1
 62
   250
100
AcDbSpline
210
0.0
220
0.0
230
1.0
 70
    11
 71
     3
 72
    17
 73
    13
 74
     0
 42
0.0000000001
 43
0.0000000001
 40
0.0
 40
0.0
 40
0.0
 40
0.0
 40
1.0
 40
1.0
 40
1.0
 40
2.0
 40
2.0
 40
2.0
 40
3.0
 40
3.0
 40
3.0
 40
4.0
 40
4.0
 40
4.0
 40
4.0
 10
38.67188584102647
 20
27.29704182260283
 30
0.0
 10
38.67188584102647
 20
26.46884086794876
 30
0.0
 10
38.00043673095128
 20
25.79704724832504
 30
0.0
 10
37.17189126674869
 20
25.79704724832504
 30
0.0
 10
36.34334580254611
 20
25.79704724832504
 30
0.0
 10
35.67189669247092
 20
26.46884086794876
 30
0.0
 10
35.67189669247092
 20
27.29704182260283
 30
0.0
 10
35.67189669247092
 20
28.12489826770836
 30
0.0
 10
36.34334580254611
 20
28.7970363968806
 30
0.0
 10
37.17189126674869
 20
28.7970363968806
 30
0.0
 10
38.00043673095128
 20
28.7970363968806
 30
0.0
 10
38.67188584102647
 20
28.12489826770836
 30
0.0
 10
38.67188584102647
 20
27.29704182260283
 30
0.0
  0
SPLINE
  5
54
330
4E
100
AcDbEntity
  8
LAYER_1
 62
   250
100
AcDbSpline
210
0.0
220
0.0
230
1.0
 70
    11
 71
     3
 72
    17
 73
    13
 74
     0
 42
0.0000000001
 43
0.0000000001
 40
0.0
 40
0.0
 40
0.0
 40
0.0
 40
1.0
 40
1.0
 40
1.0
 40
2.0
 40
2.0
 40
2.0
 40
3.0
 40
3.0
 40
3.0
 40
4.0
 40
4.0
 40
4.0
 40
4.0
 10
27.32770317242155
 20
40.37755261577367
 30
0.0
 10
27.32770317242155
 20
39.54935166111961
 30
0.0
 10
26.65625406234635
 20
38.87755804149589
 30
0.0
 10
25.82770859814377
 20
38.87755804149589
 30
0.0
 10
24.99916313394118
 20
38.87755804149589
 30
0.0
 10
24.32771402386599
 20
39.54935166111961
 30
0.0
 10
24.32771402386599
 20
40.37755261577367
 30
0.0
 10
24.32771402386599
 20
41.20558131565347
 30
0.0
 10
24.99916313394118
 20
41.87754719005145
 30
0.0
 10
25.82770859814377
 20
41.87754719005145
 30
0.0
 10
26.65625406234635
 20
41.87754719005145
 30
0.0
 10
27.32770317242155
 20
41.20558131565347
 30
0.0
 10
27.32770317242155
 20
40.37755261577367
 30
0.0
  0
SPLINE
  5
55
330
4E
100
AcDbEntity
  8
LAYER_1
 62
   250
100
AcDbSpline
210
0.0
220
0.0
230
1.0
 70
    11
 71
     3
 72
    17
 73
    13
 74
     0
 42
0.0000000001
 43
0.0000000001
 40
0.0
 40
0.0
 40
0.0
 40
0.0
 40
1.0
 40
1.0
 40
1.0
 40
2.0
 40
2.0
 40
2.0
 40
3.0
 40
3.0
 40
3.0
 40
4.0
 40
4.0
 40
4.0
 40
4.0
 10
38.67188584102647
 20
40.37755261577367
 30
0.0
 10
38.67188584102647
 20
39.54935166111961
 30
0.0
 10
38.00043673095128
 20
38.87755804149589
 30
0.0
 10
37.17189126674869
 20
38.87755804149589
 30
0.0
 10
36.34334580254611
 20
38.87755804149589
 30
0.0
 10
35.67189669247092
 20
39.54935166111961
 30
0.0
 10
35.67189669247092
 20
40.37755261577367
 30
0.0
 10
35.67189669247092
 20
41.20558131565347
 30
0.0
 10
36.34334580254611
 20
41.87754719005145
 30
0.0
 10
37.17189126674869
 20
41.87754719005145
 30
0.0
 10
38.00043673095128
 20
41.87754719005145
 30
0.0
 10
38.67188584102647
 20
41.20558131565347
 30
0.0
 10
38.67188584102647
 20
40.37755261577367
 30
0.0
  0
ENDBLK
  5
51
330
4E
100
AcDbEntity
  8
0
100
AcDbBlockEnd
  0
BLOCK
  5
58
330
56
100
AcDbEntity
  8
0
100
AcDbBlockBegin
  2
BLOCK_3
 70
     0
 71
     0
 10
0.0
 20
0.0
 30
0.0
  3
BLOCK_3
  1

  0
SPLINE
  5
5A
330
56
100
AcDbEntity
  8
LAYER_1
 62
   250
100
AcDbSpline
210
0.0
220
0.0
230
1.0
 70
    11
 71
     3
 72
    17
 73
    13
 74
     0
 42
0.0000000001
 43
0.0000000001
 40
0.0
 40
0.0
 40
0.0
 40
0.0
 40
1.0
 40
1.0
 40
1.0
 40
2.0
 40
2.0
 40
2.0
 40
3.0
 40
3.0
 40
3.0
 40
4.0
 40
4.0
 40
4.0
 40
4.0
 10
6.327779132532639
 20
27.29686956782856
 30
0.0
 10
6.327779132532639
 20
26.4686686131745
 30
0.0
 10
5.656330022457445
 20
25.79687499355078
 30
0.0
 10
4.82778455825486
 20
25.79687499355078
 30
0.0
 10
3.999239094052274
 20
25.79687499355078
 30
0.0
 10
3.32778998397708
 20
26.4686686131745
 30
0.0
 10
3.32778998397708
 20
27.29686956782856
 30
0.0
 10
3.32778998397708
 20
28.12507052248262
 30
0.0
 10
3.999239094052274
 20
28.79686414210634
 30
0.0
 10
4.82778455825486
 20
28.79686414210634
 30
0.0
 10
5.656330022457445
 20
28.79686414210634
 30
0.0
 10
6.327779132532639
 20
28.12507052248262
 30
0.0
 10
6.327779132532639
 20
27.29686956782856
 30
0.0
  0
SPLINE
  5
5B
330
56
100
AcDbEntity
  8
LAYER_1
 62
   250
100
AcDbSpline
210
0.0
220
0.0
230
1.0
 70
    11
 71
     3
 72
    17
 73
    13
 74
     0
 42
0.0000000001
 43
0.0000000001
 40
0.0
 40
0.0
 40
0.0
 40
0.0
 40
1.0
 40
1.0
 40
1.0
 40
2.0
 40
2.0
 40
2.0
 40
3.0
 40
3.0
 40
3.0
 40
4.0
 40
4.0
 40
4.0
 40
4.0
 10
17.67196180113757
 20
27.29686956782856
 30
0.0
 10
17.67196180113757
 20
26.4686686131745
 30
0.0
 10
17.00051269106237
 20
25.79687499355078
 30
0.0
 10
16.17196722685979
 20
25.79687499355078
 30
0.0
 10
15.3434217626572
 20
25.79687499355078
 30
0.0
 10
14.67197265258201
 20
26.4686686131745
 30
0.0
 10
14.67197265258201
 20
27.29686956782856
 30
0.0
 10
14.67197265258201
 20
28.12507052248262
 30
0.0
 10
15.3434217626572
 20
28.79686414210634
 30
0.0
 10
16.17196722685979
 20
28.79686414210634
 30
0.0
 10
17.00051269106237
 20
28.79686414210634
 30
0.0
 10
17.67196180113757
 20
28.12507052248262
 30
0.0
 10
17.67196180113757
 20
27.29686956782856
 30
0.0
  0
SPLINE
  5
5C
330
56
100
AcDbEntity
  8
LAYER_1
 62
   250
100
AcDbSpline
210
0.0
220
0.0
230
1.0
 70
    11
 71
     3
 72
    17
 73
    13
 74
     0
 42
0.0000000001
 43
0.0000000001
 40
0.0
 40
0.0
 40
0.0
 40
0.0
 40
1.0
 40
1.0
 40
1.0
 40
2.0
 40
2.0
 40
2.0
 40
3.0
 40
3.0
 40
3.0
 40
4.0
 40
4.0
 40
4.0
 40
4.0
 10
6.327779132532639
 20
40.37755261577367
 30
0.0
 10
6.327779132532639
 20
39.54935166111961
 30
0.0
 10
5.656330022457445
 20
38.87755804149589
 30
0.0
 10
4.82778455825486
 20
38.87755804149589
 30
0.0
 10
3.999239094052274
 20
38.87755804149589
 30
0.0
 10
3.32778998397708
 20
39.54935166111961
 30
0.0
 10
3.32778998397708
 20
40.37755261577367
 30
0.0
 10
3.32778998397708
 20
41.20558131565347
 30
0.0
 10
3.999239094052274
 20
41.87754719005145
 30
0.0
 10
4.82778455825486
 20
41.87754719005145
 30
0.0
 10
5.656330022457445
 20
41.87754719005145
 30
0.0
 10
6.327779132532639
 20
41.20558131565347
 30
0.0
 10
6.327779132532639
 20
40.37755261577367
 30
0.0
  0
SPLINE
  5
5D
330
56
100
AcDbEntity
  8
LAYER_1
 62
   250
100
AcDbSpline
210
0.0
220
0.0
230
1.0
 70
    11
 71
     3
 72
    17
 73
    13
 74
     0
 42
0.0000000001
 43
0.0000000001
 40
0.0
 40
0.0
 40
0.0
 40
0.0
 40
1.0
 40
1.0
 40
1.0
 40
2.0
 40
2.0
 40
2.0
 40
3.0
 40
3.0
 40
3.0
 40
4.0
 40
4.0
 40
4.0
 40
4.0
 10
17.67196180113757
 20
40.37755261577367
 30
0.0
 10
17.67196180113757
 20
39.54935166111961
 30
0.0
 10
17.00051269106237
 20
38.87755804149589
 30
0.0
 10
16.17196722685979
 20
38.87755804149589
 30
0.0
 10
15.3434217626572
 20
38.87755804149589
 30
0.0
 10
14.67197265258201
 20
39.54935166111961
 30
0.0
 10
14.67197265258201
 20
40.37755261577367
 30
0.0
 10
14.67197265258201
 20
41.20558131565347
 30
0.0
 10
15.3434217626572
 20
41.87754719005145
 30
0.0
 10
16.17196722685979
 20
41.87754719005145
 30
0.0
 10
17.00051269106237
 20
41.87754719005145
 30
0.0
 10
17.67196180113757
 20
41.20558131565347
 30
0.0
 10
17.67196180113757
 20
40.37755261577367
 30
0.0
  0
ENDBLK
  5
59
330
56
100
AcDbEntity
  8
0
100
AcDbBlockEnd
  0
BLOCK
  5
67
330
65
100
AcDbEntity
  8
0
100
AcDbBlockBegin
  2
BLOCK_4
 70
     0
 71
     0
 10
0.0
 20
0.0
 30
0.0
  3
BLOCK_4
  1

  0
SPLINE
  5
69
330
65
100
AcDbEntity
  8
LAYER_1
 62
   250
100
AcDbSpline
210
0.0
220
0.0
230
1.0
 70
    11
 71
     3
 72
    17
 73
    13
 74
     0
 42
0.0000000001
 43
0.0000000001
 40
0.0
 40
0.0
 40
0.0
 40
0.0
 40
1.0
 40
1.0
 40
1.0
 40
2.0
 40
2.0
 40
2.0
 40
3.0
 40
3.0
 40
3.0
 40
4.0
 40
4.0
 40
4.0
 40
4.0
 10
53.8838772109214
 20
27.2567342054254
 30
0.0
 10
53.8838772109214
 20
26.42853325077134
 30
0.0
 10
53.2124281008462
 20
25.75673963114762
 30
0.0
 10
52.38388263664361
 20
25.75673963114762
 30
0.0
 10
51.55533717244103
 20
25.75673963114762
 30
0.0
 10
50.88388806236583
 20
26.42853325077134
 30
0.0
 10
50.88388806236583
 20
27.2567342054254
 30
0.0
 10
50.88388806236583
 20
28.08493516007946
 30
0.0
 10
51.55533717244103
 20
28.75672877970318
 30
0.0
 10
52.38388263664361
 20
28.75672877970318
 30
0.0
 10
53.2124281008462
 20
28.75672877970318
 30
0.0
 10
53.8838772109214
 20
28.08493516007946
 30
0.0
 10
53.8838772109214
 20
27.2567342054254
 30
0.0
  0
SPLINE
  5
6A
330
65
100
AcDbEntity
  8
LAYER_1
 62
   250
100
AcDbSpline
210
0.0
220
0.0
230
1.0
 70
    11
 71
     3
 72
    17
 73
    13
 74
     0
 42
0.0000000001
 43
0.0000000001
 40
0.0
 40
0.0
 40
0.0
 40
0.0
 40
1.0
 40
1.0
 40
1.0
 40
2.0
 40
2.0
 40
2.0
 40
3.0
 40
3.0
 40
3.0
 40
4.0
 40
4.0
 40
4.0
 40
4.0
 10
65.22788762475206
 20
27.2567342054254
 30
0.0
 10
65.22788762475206
 20
26.42853325077134
 30
0.0
 10
64.5567830242254
 20
25.75673963114762
 30
0.0
 10
63.72789305047428
 20
25.75673963114762
 30
0.0
 10
62.89969209582022
 20
25.75673963114762
 30
0.0
 10
62.2278984761965
 20
26.42853325077134
 30
0.0
 10
62.2278984761965
 20
27.2567342054254
 30
0.0
 10
62.2278984761965
 20
28.08493516007946
 30
0.0
 10
62.89969209582022
 20
28.75672877970318
 30
0.0
 10
63.72789305047428
 20
28.75672877970318
 30
0.0
 10
64.5567830242254
 20
28.75672877970318
 30
0.0
 10
65.22788762475206
 20
28.08493516007946
 30
0.0
 10
65.22788762475206
 20
27.2567342054254
 30
0.0
  0
SPLINE
  5
6B
330
65
100
AcDbEntity
  8
LAYER_1
 62
   250
100
AcDbSpline
210
0.0
220
0.0
230
1.0
 70
    11
 71
     3
 72
    17
 73
    13
 74
     0
 42
0.0000000001
 43
0.0000000001
 40
0.0
 40
0.0
 40
0.0
 40
0.0
 40
1.0
 40
1.0
 40
1.0
 40
2.0
 40
2.0
 40
2.0
 40
3.0
 40
3.0
 40
3.0
 40
4.0
 40
4.0
 40
4.0
 40
4.0
 10
53.8838772109214
 20
40.33741725337051
 30
0.0
 10
53.8838772109214
 20
39.50921629871645
 30
0.0
 10
53.2124281008462
 20
38.83742267909273
 30
0.0
 10
52.38388263664361
 20
38.83742267909273
 30
0.0
 10
51.55533717244103
 20
38.83742267909273
 30
0.0
 10
50.88388806236583
 20
39.50921629871645
 30
0.0
 10
50.88388806236583
 20
40.33741725337051
 30
0.0
 10
50.88388806236583
 20
41.16544595325031
 30
0.0
 10
51.55533717244103
 20
41.83741182764829
 30
0.0
 10
52.38388263664361
 20
41.83741182764829
 30
0.0
 10
53.2124281008462
 20
41.83741182764829
 30
0.0
 10
53.8838772109214
 20
41.16544595325031
 30
0.0
 10
53.8838772109214
 20
40.33741725337051
 30
0.0
  0
SPLINE
  5
6C
330
65
100
AcDbEntity
  8
LAYER_1
 62
   250
100
AcDbSpline
210
0.0
220
0.0
230
1.0
 70
    11
 71
     3
 72
    17
 73
    13
 74
     0
 42
0.0000000001
 43
0.0000000001
 40
0.0
 40
0.0
 40
0.0
 40
0.0
 40
1.0
 40
1.0
 40
1.0
 40
2.0
 40
2.0
 40
2.0
 40
3.0
 40
3.0
 40
3.0
 40
4.0
 40
4.0
 40
4.0
 40
4.0
 10
65.22788762475206
 20
40.33741725337051
 30
0.0
 10
65.22788762475206
 20
39.50921629871645
 30
0.0
 10
64.5567830242254
 20
38.83742267909273
 30
0.0
 10
63.72789305047428
 20
38.83742267909273
 30
0.0
 10
62.89969209582022
 20
38.83742267909273
 30
0.0
 10
62.2278984761965
 20
39.50921629871645
 30
0.0
 10
62.2278984761965
 20
40.33741725337051
 30
0.0
 10
62.2278984761965
 20
41.16544595325031
 30
0.0
 10
62.89969209582022
 20
41.83741182764829
 30
0.0
 10
63.72789305047428
 20
41.83741182764829
 30
0.0
 10
64.5567830242254
 20
41.83741182764829
 30
0.0
 10
65.22788762475206
 20
41.16544595325031
 30
0.0
 10
65.22788762475206
 20
40.33741725337051
 30
0.0
  0
ENDBLK
  5
68
330
65
100
AcDbEntity
  8
0
100
AcDbBlockEnd
  0
BLOCK
  5
76
330
74
100
AcDbEntity
  8
0
100
AcDbBlockBegin
  2
BLOCK_5
 70
     0
 71
     0
 10
0.0
 20
0.0
 30
0.0
  3
BLOCK_5
  1

  0
SPLINE
  5
78
330
74
100
AcDbEntity
  8
LAYER_1
 62
   250
100
AcDbSpline
210
0.0
220
0.0
230
1.0
 70
    11
 71
     3
 72
    17
 73
    13
 74
     0
 42
0.0000000001
 43
0.0000000001
 40
0.0
 40
0.0
 40
0.0
 40
0.0
 40
1.0
 40
1.0
 40
1.0
 40
2.0
 40
2.0
 40
2.0
 40
3.0
 40
3.0
 40
3.0
 40
4.0
 40
4.0
 40
4.0
 40
4.0
 10
53.8838772109214
 20
3.053732638125456
 30
0.0
 10
53.8838772109214
 20
2.225531683471395
 30
0.0
 10
53.2124281008462
 20
1.553738063847677
 30
0.0
 10
52.38388263664361
 20
1.553738063847677
 30
0.0
 10
51.55533717244103
 20
1.553738063847677
 30
0.0
 10
50.88388806236583
 20
2.225531683471395
 30
0.0
 10
50.88388806236583
 20
3.053732638125456
 30
0.0
 10
50.88388806236583
 20
3.881933592779517
 30
0.0
 10
51.55533717244103
 20
4.553727212403235
 30
0.0
 10
52.38388263664361
 20
4.553727212403235
 30
0.0
 10
53.2124281008462
 20
4.553727212403235
 30
0.0
 10
53.8838772109214
 20
3.881933592779517
 30
0.0
 10
53.8838772109214
 20
3.053732638125456
 30
0.0
  0
SPLINE
  5
79
330
74
100
AcDbEntity
  8
LAYER_1
 62
   250
100
AcDbSpline
210
0.0
220
0.0
230
1.0
 70
    11
 71
     3
 72
    17
 73
    13
 74
     0
 42
0.0000000001
 43
0.0000000001
 40
0.0
 40
0.0
 40
0.0
 40
0.0
 40
1.0
 40
1.0
 40
1.0
 40
2.0
 40
2.0
 40
2.0
 40
3.0
 40
3.0
 40
3.0
 40
4.0
 40
4.0
 40
4.0
 40
4.0
 10
65.22788762475206
 20
3.053732638125456
 30
0.0
 10
65.22788762475206
 20
2.225531683471395
 30
0.0
 10
64.5567830242254
 20
1.553738063847677
 30
0.0
 10
63.72789305047428
 20
1.553738063847677
 30
0.0
 10
62.89969209582022
 20
1.553738063847677
 30
0.0
 10
62.2278984761965
 20
2.225531683471395
 30
0.0
 10
62.2278984761965
 20
3.053732638125456
 30
0.0
 10
62.2278984761965
 20
3.881933592779517
 30
0.0
 10
62.89969209582022
 20
4.553727212403235
 30
0.0
 10
63.72789305047428
 20
4.553727212403235
 30
0.0
 10
64.5567830242254
 20
4.553727212403235
 30
0.0
 10
65.22788762475206
 20
3.881933592779517
 30
0.0
 10
65.22788762475206
 20
3.053732638125456
 30
0.0
  0
SPLINE
  5
7A
330
74
100
AcDbEntity
  8
LAYER_1
 62
   250
100
AcDbSpline
210
0.0
220
0.0
230
1.0
 70
    11
 71
     3
 72
    17
 73
    13
 74
     0
 42
0.0000000001
 43
0.0000000001
 40
0.0
 40
0.0
 40
0.0
 40
0.0
 40
1.0
 40
1.0
 40
1.0
 40
2.0
 40
2.0
 40
2.0
 40
3.0
 40
3.0
 40
3.0
 40
4.0
 40
4.0
 40
4.0
 40
4.0
 10
53.8838772109214
 20
16.13407117652204
 30
0.0
 10
53.8838772109214
 20
15.30587022186798
 30
0.0
 10
53.2124281008462
 20
14.63407660224426
 30
0.0
 10
52.38388263664361
 20
14.63407660224426
 30
0.0
 10
51.55533717244103
 20
14.63407660224426
 30
0.0
 10
50.88388806236583
 20
15.30587022186798
 30
0.0
 10
50.88388806236583
 20
16.13407117652204
 30
0.0
 10
50.88388806236583
 20
16.9622721311761
 30
0.0
 10
51.55533717244103
 20
17.63406575079982
 30
0.0
 10
52.38388263664361
 20
17.63406575079982
 30
0.0
 10
53.2124281008462
 20
17.63406575079982
 30
0.0
 10
53.8838772109214
 20
16.9622721311761
 30
0.0
 10
53.8838772109214
 20
16.13407117652204
 30
0.0
  0
SPLINE
  5
7B
330
74
100
AcDbEntity
  8
LAYER_1
 62
   250
100
AcDbSpline
210
0.0
220
0.0
230
1.0
 70
    11
 71
     3
 72
    17
 73
    13
 74
     0
 42
0.0000000001
 43
0.0000000001
 40
0.0
 40
0.0
 40
0.0
 40
0.0
 40
1.0
 40
1.0
 40
1.0
 40
2.0
 40
2.0
 40
2.0
 40
3.0
 40
3.0
 40
3.0
 40
4.0
 40
4.0
 40
4.0
 40
4.0
 10
65.22788762475206
 20
16.13407117652204
 30
0.0
 10
65.22788762475206
 20
15.30587022186798
 30
0.0
 10
64.5567830242254
 20
14.63407660224426
 30
0.0
 10
63.72789305047428
 20
14.63407660224426
 30
0.0
 10
62.89969209582022
 20
14.63407660224426
 30
0.0
 10
62.2278984761965
 20
15.30587022186798
 30
0.0
 10
62.2278984761965
 20
16.13407117652204
 30
0.0
 10
62.2278984761965
 20
16.9622721311761
 30
0.0
 10
62.89969209582022
 20
17.63406575079982
 30
0.0
 10
63.72789305047428
 20
17.63406575079982
 30
0.0
 10
64.5567830242254
 20
17.63406575079982
 30
0.0
 10
65.22788762475206
 20
16.9622721311761
 30
0.0
 10
65.22788762475206
 20
16.13407117652204
 30
0.0
  0
ENDBLK
  5
77
330
74
100
AcDbEntity
  8
0
100
AcDbBlockEnd
  0
ENDSEC
  0
SECTION
  2
ENTITIES
  0
POLYLINE
  5
3C
330
1F
100
AcDbEntity
  8
LAYER_1
 62
   250
100
AcDb2dPolyline
 66
     1
 10
0.0
 20
0.0
 30
0.0
  0
VERTEX
  5
3D
330
3C
100
AcDbEntity
  8
LAYER_1
 62
   250
100
AcDbVertex
100
AcDb2dVertex
 10
41.99984807977782
 20
6.797173392397929
 30
0.0
  0
VERTEX
  5
3E
330
3C
100
AcDbEntity
  8
LAYER_1
 62
   250
100
AcDbVertex
100
AcDb2dVertex
 10
-0.0001722547742625
 20
6.797173392397929
 30
0.0
  0
VERTEX
  5
3F
330
3C
100
AcDbEntity
  8
LAYER_1
 62
   250
100
AcDbVertex
100
AcDb2dVertex
 10
-0.0001722547742625
 20
43.79715439443266
 30
0.0
  0
VERTEX
  5
40
330
3C
100
AcDbEntity
  8
LAYER_1
 62
   250
100
AcDbVertex
100
AcDb2dVertex
 10
41.99984807977782
 20
43.79715439443266
 30
0.0
  0
VERTEX
  5
41
330
3C
100
AcDbEntity
  8
LAYER_1
 62
   250
100
AcDbVertex
100
AcDb2dVertex
 10
41.99984807977782
 20
6.797173392397929
 30
0.0
  0
SEQEND
  5
42
330
3C
100
AcDbEntity
  8
LAYER_1
  0
POLYLINE
  5
43
330
1F
100
AcDbEntity
  8
LAYER_1
 62
   250
100
AcDb2dPolyline
 66
     1
 10
0.0
 20
0.0
 30
0.0
  0
VERTEX
  5
44
330
43
100
AcDbEntity
  8
LAYER_1
 62
   250
100
AcDbVertex
100
AcDb2dVertex
 10
46.99971515752091
 20
30.7970865808424
 30
0.0
  0
VERTEX
  5
45
330
43
100
AcDbEntity
  8
LAYER_1
 62
   250
100
AcDbVertex
100
AcDb2dVertex
 10
-5.000039332517352
 20
30.7970865808424
 30
0.0
  0
VERTEX
  5
46
330
43
100
AcDbEntity
  8
LAYER_1
 62
   250
100
AcDbVertex
100
AcDb2dVertex
 10
-5.000039332517352
 20
36.79706487795352
 30
0.0
  0
VERTEX
  5
47
330
43
100
AcDbEntity
  8
LAYER_1
 62
   250
100
AcDbVertex
100
AcDb2dVertex
 10
46.99971515752091
 20
36.79706487795352
 30
0.0
  0
VERTEX
  5
48
330
43
100
AcDbEntity
  8
LAYER_1
 62
   250
100
AcDbVertex
100
AcDb2dVertex
 10
46.99971515752091
 20
30.7970865808424
 30
0.0
  0
SEQEND
  5
49
330
43
100
AcDbEntity
  8
LAYER_1
  0
SPLINE
  5
4A
330
1F
100
AcDbEntity
  8
LAYER_1
 62
   250
100
AcDbSpline
210
0.0
220
0.0
230
1.0
 70
    11
 71
     3
 72
    17
 73
    13
 74
     0
 42
0.0000000001
 43
0.0000000001
 40
0.0
 40
0.0
 40
0.0
 40
0.0
 40
1.0
 40
1.0
 40
1.0
 40
2.0
 40
2.0
 40
2.0
 40
3.0
 40
3.0
 40
3.0
 40
4.0
 40
4.0
 40
4.0
 40
4.0
 10
9.999734155486179
 20
9.796818031404962
 30
0.0
 10
9.999734155486179
 20
8.692320418833864
 30
0.0
 10
9.104353838869745
 20
7.796940102217432
 30
0.0
 10
7.999683971524385
 20
7.796940102217432
 30
0.0
 10
6.895014104179024
 20
7.796940102217432
 30
0.0
 10
5.999633787562592
 20
8.692320418833864
 30
0.0
 10
5.999633787562592
 20
9.796818031404962
 30
0.0
 10
5.999633787562592
 20
10.90097113442754
 30
0.0
 10
6.895014104179024
 20
11.79704047014102
 30
0.0
 10
7.999683971524385
 20
11.79704047014102
 30
0.0
 10
9.104353838869745
 20
11.79704047014102
 30
0.0
 10
9.999734155486179
 20
10.90097113442754
 30
0.0
 10
9.999734155486179
 20
9.796818031404962
 30
0.0
  0
SPLINE
  5
4B
330
1F
100
AcDbEntity
  8
LAYER_1
 62
   250
100
AcDbSpline
210
0.0
220
0.0
230
1.0
 70
    11
 71
     3
 72
    17
 73
    13
 74
     0
 42
0.0000000001
 43
0.0000000001
 40
0.0
 40
0.0
 40
0.0
 40
0.0
 40
1.0
 40
1.0
 40
1.0
 40
2.0
 40
2.0
 40
2.0
 40
3.0
 40
3.0
 40
3.0
 40
4.0
 40
4.0
 40
4.0
 40
4.0
 10
35.9998697826667
 20
9.796818031404962
 30
0.0
 10
35.9998697826667
 20
8.692320418833864
 30
0.0
 10
35.10448946605027
 20
7.796940102217432
 30
0.0
 10
33.99981959870491
 20
7.796940102217432
 30
0.0
 10
32.89514973135955
 20
7.796940102217432
 30
0.0
 10
31.99976941474311
 20
8.692320418833864
 30
0.0
 10
31.99976941474311
 20
9.796818031404962
 30
0.0
 10
31.99976941474311
 20
10.90097113442754
 30
0.0
 10
32.89514973135955
 20
11.79704047014102
 30
0.0
 10
33.99981959870491
 20
11.79704047014102
 30
0.0
 10
35.10448946605027
 20
11.79704047014102
 30
0.0
 10
35.9998697826667
 20
10.90097113442754
 30
0.0
 10
35.9998697826667
 20
9.796818031404962
 30
0.0
  0
SPLINE
  5
4C
330
1F
100
AcDbEntity
  8
LAYER_1
 62
   250
100
AcDbSpline
210
0.0
220
0.0
230
1.0
 70
    11
 71
     3
 72
    17
 73
    13
 74
     0
 42
0.0000000001
 43
0.0000000001
 40
0.0
 40
0.0
 40
0.0
 40
0.0
 40
1.0
 40
1.0
 40
1.0
 40
2.0
 40
2.0
 40
2.0
 40
3.0
 40
3.0
 40
3.0
 40
4.0
 40
4.0
 40
4.0
 40
4.0
 10
9.499678545802164
 20
18.79712998662016
 30
0.0
 10
9.499678545802164
 20
17.9689290319661
 30
0.0
 10
8.828229435726971
 20
17.29713541234239
 30
0.0
 10
7.999683971524385
 20
17.29713541234239
 30
0.0
 10
7.171138507321799
 20
17.29713541234239
 30
0.0
 10
6.499689397246605
 20
17.9689290319661
 30
0.0
 10
6.499689397246605
 20
18.79712998662016
 30
0.0
 10
6.499689397246605
 20
19.62515868649996
 30
0.0
 10
7.171138507321799
 20
20.29712456089794
 30
0.0
 10
7.999683971524385
 20
20.29712456089794
 30
0.0
 10
8.828229435726971
 20
20.29712456089794
 30
0.0
 10
9.499678545802164
 20
19.62515868649996
 30
0.0
 10
9.499678545802164
 20
18.79712998662016
 30
0.0
  0
SPLINE
  5
4D
330
1F
100
AcDbEntity
  8
LAYER_1
 62
   250
100
AcDbSpline
210
0.0
220
0.0
230
1.0
 70
    11
 71
     3
 72
    17
 73
    13
 74
     0
 42
0.0000000001
 43
0.0000000001
 40
0.0
 40
0.0
 40
0.0
 40
0.0
 40
1.0
 40
1.0
 40
1.0
 40
2.0
 40
2.0
 40
2.0
 40
3.0
 40
3.0
 40
3.0
 40
4.0
 40
4.0
 40
4.0
 40
4.0
 10
35.49981417298269
 20
18.79712998662016
 30
0.0
 10
35.49981417298269
 20
17.9689290319661
 30
0.0
 10
34.82836506290749
 20
17.29713541234239
 30
0.0
 10
33.99981959870491
 20
17.29713541234239
 30
0.0
 10
33.17127413450232
 20
17.29713541234239
 30
0.0
 10
32.49982502442713
 20
17.9689290319661
 30
0.0
 10
32.49982502442713
 20
18.79712998662016
 30
0.0
 10
32.49982502442713
 20
19.62515868649996
 30
0.0
 10
33.17127413450232
 20
20.29712456089794
 30
0.0
 10
33.99981959870491
 20
20.29712456089794
 30
0.0
 10
34.82836506290749
 20
20.29712456089794
 30
0.0
 10
35.49981417298269
 20
19.62515868649996
 30
0.0
 10
35.49981417298269
 20
18.79712998662016
 30
0.0
  0
INSERT
  5
4F
330
1F
100
AcDbEntity
  8
LAYER_1
100
AcDbBlockReference
  2
BLOCK_2
 10
0.0
 20
0.0
 30
0.0
  0
INSERT
  5
57
330
1F
100
AcDbEntity
  8
LAYER_1
100
AcDbBlockReference
  2
BLOCK_3
 10
0.0
 20
0.0
 30
0.0
  0
POLYLINE
  5
5E
330
1F
100
AcDbEntity
  8
LAYER_1
 62
   250
100
AcDb2dPolyline
 66
     1
 10
0.0
 20
0.0
 30
0.0
  0
VERTEX
  5
5F
330
5E
100
AcDbEntity
  8
LAYER_1
 62
   250
100
AcDbVertex
100
AcDb2dVertex
 10
68.5558498635034
 20
24.20300156729995
 30
0.0
  0
VERTEX
  5
60
330
5E
100
AcDbEntity
  8
LAYER_1
 62
   250
100
AcDbVertex
100
AcDb2dVertex
 10
47.55592582361449
 20
24.20300156729995
 30
0.0
  0
VERTEX
  5
61
330
5E
100
AcDbEntity
  8
LAYER_1
 62
   250
100
AcDbVertex
100
AcDb2dVertex
 10
47.55592582361449
 20
43.79715439443266
 30
0.0
  0
VERTEX
  5
62
330
5E
100
AcDbEntity
  8
LAYER_1
 62
   250
100
AcDbVertex
100
AcDb2dVertex
 10
68.5558498635034
 20
43.79715439443266
 30
0.0
  0
VERTEX
  5
63
330
5E
100
AcDbEntity
  8
LAYER_1
 62
   250
100
AcDbVertex
100
AcDb2dVertex
 10
68.5558498635034
 20
24.20300156729995
 30
0.0
  0
SEQEND
  5
64
330
5E
100
AcDbEntity
  8
LAYER_1
  0
INSERT
  5
66
330
1F
100
AcDbEntity
  8
LAYER_1
100
AcDbBlockReference
  2
BLOCK_4
 10
0.0
 20
0.0
 30
0.0
  0
POLYLINE
  5
6D
330
1F
100
AcDbEntity
  8
LAYER_1
 62
   250
100
AcDb2dPolyline
 66
     1
 10
0.0
 20
0.0
 30
0.0
  0
VERTEX
  5
6E
330
6D
100
AcDbEntity
  8
LAYER_1
 62
   250
100
AcDbVertex
100
AcDb2dVertex
 10
68.5558498635034
 20
0.0
 30
0.0
  0
VERTEX
  5
6F
330
6D
100
AcDbEntity
  8
LAYER_1
 62
   250
100
AcDbVertex
100
AcDb2dVertex
 10
47.55592582361449
 20
0.0
 30
0.0
  0
VERTEX
  5
70
330
6D
100
AcDbEntity
  8
LAYER_1
 62
   250
100
AcDbVertex
100
AcDb2dVertex
 10
47.55592582361449
 20
19.59398057235845
 30
0.0
  0
VERTEX
  5
71
330
6D
100
AcDbEntity
  8
LAYER_1
 62
   250
100
AcDbVertex
100
AcDb2dVertex
 10
68.5558498635034
 20
19.59398057235845
 30
0.0
  0
VERTEX
  5
72
330
6D
100
AcDbEntity
  8
LAYER_1
 62
   250
100
AcDbVertex
100
AcDb2dVertex
 10
68.5558498635034
 20
0.0
 30
0.0
  0
SEQEND
  5
73
330
6D
100
AcDbEntity
  8
LAYER_1
  0
INSERT
  5
75
330
1F
100
AcDbEntity
  8
LAYER_1
100
AcDbBlockReference
  2
BLOCK_5
 10
0.0
 20
0.0
 30
0.0
  0
POLYLINE
  5
7C
330
1F
100
AcDbEntity
  8
LAYER_1
 62
   250
100
AcDb2dPolyline
 66
     1
 10
0.0
 20
0.0
 30
0.0
  0
VERTEX
  5
7D
330
7C
100
AcDbEntity
  8
LAYER_1
 62
   250
100
AcDbVertex
100
AcDb2dVertex
 10
48.05563692374998
 20
38.26605359286405
 30
0.0
  0
VERTEX
  5
7E
330
7C
100
AcDbEntity
  8
LAYER_1
 62
   250
100
AcDbVertex
100
AcDb2dVertex
 10
48.05563692374998
 20
29.71119248389165
 30
0.0
  0
SEQEND
  5
7F
330
7C
100
AcDbEntity
  8
LAYER_1
  0
POLYLINE
  5
80
330
1F
100
AcDbEntity
  8
LAYER_1
 62
   250
100
AcDb2dPolyline
 66
     1
 10
0.0
 20
0.0
 30
0.0
  0
VERTEX
  5
81
330
80
100
AcDbEntity
  8
LAYER_1
 62
   250
100
AcDbVertex
100
AcDb2dVertex
 10
50.55557046262152
 20
38.26605359286405
 30
0.0
  0
VERTEX
  5
82
330
80
100
AcDbEntity
  8
LAYER_1
 62
   250
100
AcDbVertex
100
AcDb2dVertex
 10
50.55557046262152
 20
29.71119248389165
 30
0.0
  0
SEQEND
  5
83
330
80
100
AcDbEntity
  8
LAYER_1
  0
POLYLINE
  5
84
330
1F
100
AcDbEntity
  8
LAYER_1
 62
   250
100
AcDb2dPolyline
 66
     1
 10
0.0
 20
0.0
 30
0.0
  0
VERTEX
  5
85
330
84
100
AcDbEntity
  8
LAYER_1
 62
   250
100
AcDbVertex
100
AcDb2dVertex
 10
53.05567625626733
 20
38.26605359286405
 30
0.0
  0
VERTEX
  5
86
330
84
100
AcDbEntity
  8
LAYER_1
 62
   250
100
AcDbVertex
100
AcDb2dVertex
 10
53.05567625626733
 20
29.71119248389165
 30
0.0
  0
SEQEND
  5
87
330
84
100
AcDbEntity
  8
LAYER_1
  0
POLYLINE
  5
88
330
1F
100
AcDbEntity
  8
LAYER_1
 62
   250
100
AcDb2dPolyline
 66
     1
 10
0.0
 20
0.0
 30
0.0
  0
VERTEX
  5
89
330
88
100
AcDbEntity
  8
LAYER_1
 62
   250
100
AcDbVertex
100
AcDb2dVertex
 10
55.55560979513888
 20
38.26605359286405
 30
0.0
  0
VERTEX
  5
8A
330
88
100
AcDbEntity
  8
LAYER_1
 62
   250
100
AcDbVertex
100
AcDb2dVertex
 10
55.55560979513888
 20
29.71119248389165
 30
0.0
  0
SEQEND
  5
8B
330
88
100
AcDbEntity
  8
LAYER_1
  0
POLYLINE
  5
8C
330
1F
100
AcDbEntity
  8
LAYER_1
 62
   250
100
AcDb2dPolyline
 66
     1
 10
0.0
 20
0.0
 30
0.0
  0
VERTEX
  5
8D
330
8C
100
AcDbEntity
  8
LAYER_1
 62
   250
100
AcDbVertex
100
AcDb2dVertex
 10
58.05571558878469
 20
38.26605359286405
 30
0.0
  0
VERTEX
  5
8E
330
8C
100
AcDbEntity
  8
LAYER_1
 62
   250
100
AcDbVertex
100
AcDb2dVertex
 10
58.05571558878469
 20
29.71119248389165
 30
0.0
  0
SEQEND
  5
8F
330
8C
100
AcDbEntity
  8
LAYER_1
  0
POLYLINE
  5
90
330
1F
100
AcDbEntity
  8
LAYER_1
 62
   250
100
AcDb2dPolyline
 66
     1
 10
0.0
 20
0.0
 30
0.0
  0
VERTEX
  5
91
330
90
100
AcDbEntity
  8
LAYER_1
 62
   250
100
AcDbVertex
100
AcDb2dVertex
 10
60.55564912765623
 20
38.26605359286405
 30
0.0
  0
VERTEX
  5
92
330
90
100
AcDbEntity
  8
LAYER_1
 62
   250
100
AcDbVertex
100
AcDb2dVertex
 10
60.55564912765623
 20
29.71119248389165
 30
0.0
  0
SEQEND
  5
93
330
90
100
AcDbEntity
  8
LAYER_1
  0
POLYLINE
  5
94
330
1F
100
AcDbEntity
  8
LAYER_1
 62
   250
100
AcDb2dPolyline
 66
     1
 10
0.0
 20
0.0
 30
0.0
  0
VERTEX
  5
95
330
94
100
AcDbEntity
  8
LAYER_1
 62
   250
100
AcDbVertex
100
AcDb2dVertex
 10
63.05575492130204
 20
38.26605359286405
 30
0.0
  0
VERTEX
  5
96
330
94
100
AcDbEntity
  8
LAYER_1
 62
   250
100
AcDbVertex
100
AcDb2dVertex
 10
63.05575492130204
 20
29.71119248389165
 30
0.0
  0
SEQEND
  5
97
330
94
100
AcDbEntity
  8
LAYER_1
  0
POLYLINE
  5
98
330
1F
100
AcDbEntity
  8
LAYER_1
 62
   250
100
AcDb2dPolyline
 66
     1
 10
0.0
 20
0.0
 30
0.0
  0
VERTEX
  5
99
330
98
100
AcDbEntity
  8
LAYER_1
 62
   250
100
AcDbVertex
100
AcDb2dVertex
 10
65.55551620539931
 20
38.26605359286405
 30
0.0
  0
VERTEX
  5
9A
330
98
100
AcDbEntity
  8
LAYER_1
 62
   250
100
AcDbVertex
100
AcDb2dVertex
 10
65.55551620539931
 20
29.71119248389165
 30
0.0
  0
SEQEND
  5
9B
330
98
100
AcDbEntity
  8
LAYER_1
  0
POLYLINE
  5
9C
330
1F
100
AcDbEntity
  8
LAYER_1
 62
   250
100
AcDb2dPolyline
 66
     1
 10
0.0
 20
0.0
 30
0.0
  0
VERTEX
  5
9D
330
9C
100
AcDbEntity
  8
LAYER_1
 62
   250
100
AcDbVertex
100
AcDb2dVertex
 10
68.05562199904513
 20
38.26605359286405
 30
0.0
  0
VERTEX
  5
9E
330
9C
100
AcDbEntity
  8
LAYER_1
 62
   250
100
AcDbVertex
100
AcDb2dVertex
 10
68.05562199904513
 20
29.71119248389165
 30
0.0
  0
SEQEND
  5
9F
330
9C
100
AcDbEntity
  8
LAYER_1
  0
POLYLINE
  5
A0
330
1F
100
AcDbEntity
  8
LAYER_1
 62
   250
100
AcDb2dPolyline
 66
     1
 10
0.0
 20
0.0
 30
0.0
  0
VERTEX
  5
A1
330
A0
100
AcDbEntity
  8
LAYER_1
 62
   250
100
AcDbVertex
100
AcDb2dVertex
 10
48.05563692374998
 20
13.92438693228279
 30
0.0
  0
VERTEX
  5
A2
330
A0
100
AcDbEntity
  8
LAYER_1
 62
   250
100
AcDbVertex
100
AcDb2dVertex
 10
48.05563692374998
 20
5.369525823310396
 30
0.0
  0
SEQEND
  5
A3
330
A0
100
AcDbEntity
  8
LAYER_1
  0
POLYLINE
  5
A4
330
1F
100
AcDbEntity
  8
LAYER_1
 62
   250
100
AcDb2dPolyline
 66
     1
 10
0.0
 20
0.0
 30
0.0
  0
VERTEX
  5
A5
330
A4
100
AcDbEntity
  8
LAYER_1
 62
   250
100
AcDbVertex
100
AcDb2dVertex
 10
50.55557046262152
 20
13.92438693228279
 30
0.0
  0
VERTEX
  5
A6
330
A4
100
AcDbEntity
  8
LAYER_1
 62
   250
100
AcDbVertex
100
AcDb2dVertex
 10
50.55557046262152
 20
5.369525823310396
 30
0.0
  0
SEQEND
  5
A7
330
A4
100
AcDbEntity
  8
LAYER_1
  0
POLYLINE
  5
A8
330
1F
100
AcDbEntity
  8
LAYER_1
 62
   250
100
AcDb2dPolyline
 66
     1
 10
0.0
 20
0.0
 30
0.0
  0
VERTEX
  5
A9
330
A8
100
AcDbEntity
  8
LAYER_1
 62
   250
100
AcDbVertex
100
AcDb2dVertex
 10
53.05567625626733
 20
13.92438693228279
 30
0.0
  0
VERTEX
  5
AA
330
A8
100
AcDbEntity
  8
LAYER_1
 62
   250
100
AcDbVertex
100
AcDb2dVertex
 10
53.05567625626733
 20
5.369525823310396
 30
0.0
  0
SEQEND
  5
AB
330
A8
100
AcDbEntity
  8
LAYER_1
  0
POLYLINE
  5
AC
330
1F
100
AcDbEntity
  8
LAYER_1
 62
   250
100
AcDb2dPolyline
 66
     1
 10
0.0
 20
0.0
 30
0.0
  0
VERTEX
  5
AD
330
AC
100
AcDbEntity
  8
LAYER_1
 62
   250
100
AcDbVertex
100
AcDb2dVertex
 10
55.55560979513888
 20
13.92438693228279
 30
0.0
  0
VERTEX
  5
AE
330
AC
100
AcDbEntity
  8
LAYER_1
 62
   250
100
AcDbVertex
100
AcDb2dVertex
 10
55.55560979513888
 20
5.369525823310396
 30
0.0
  0
SEQEND
  5
AF
330
AC
100
AcDbEntity
  8
LAYER_1
  0
POLYLINE
  5
B0
330
1F
100
AcDbEntity
  8
LAYER_1
 62
   250
100
AcDb2dPolyline
 66
     1
 10
0.0
 20
0.0
 30
0.0
  0
VERTEX
  5
B1
330
B0
100
AcDbEntity
  8
LAYER_1
 62
   250
100
AcDbVertex
100
AcDb2dVertex
 10
58.05571558878469
 20
13.92438693228279
 30
0.0
  0
VERTEX
  5
B2
330
B0
100
AcDbEntity
  8
LAYER_1
 62
   250
100
AcDbVertex
100
AcDb2dVertex
 10
58.05571558878469
 20
5.369525823310396
 30
0.0
  0
SEQEND
  5
B3
330
B0
100
AcDbEntity
  8
LAYER_1
  0
POLYLINE
  5
B4
330
1F
100
AcDbEntity
  8
LAYER_1
 62
   250
100
AcDb2dPolyline
 66
     1
 10
0.0
 20
0.0
 30
0.0
  0
VERTEX
  5
B5
330
B4
100
AcDbEntity
  8
LAYER_1
 62
   250
100
AcDbVertex
100
AcDb2dVertex
 10
60.55564912765623
 20
13.92438693228279
 30
0.0
  0
VERTEX
  5
B6
330
B4
100
AcDbEntity
  8
LAYER_1
 62
   250
100
AcDbVertex
100
AcDb2dVertex
 10
60.55564912765623
 20
5.369525823310396
 30
0.0
  0
SEQEND
  5
B7
330
B4
100
AcDbEntity
  8
LAYER_1
  0
POLYLINE
  5
B8
330
1F
100
AcDbEntity
  8
LAYER_1
 62
   250
100
AcDb2dPolyline
 66
     1
 10
0.0
 20
0.0
 30
0.0
  0
VERTEX
  5
B9
330
B8
100
AcDbEntity
  8
LAYER_1
 62
   250
100
AcDbVertex
100
AcDb2dVertex
 10
63.05575492130204
 20
13.92438693228279
 30
0.0
  0
VERTEX
  5
BA
330
B8
100
AcDbEntity
  8
LAYER_1
 62
   250
100
AcDbVertex
100
AcDb2dVertex
 10
63.05575492130204
 20
5.369525823310396
 30
0.0
  0
SEQEND
  5
BB
330
B8
100
AcDbEntity
  8
LAYER_1
  0
POLYLINE
  5
BC
330
1F
100
AcDbEntity
  8
LAYER_1
 62
   250
100
AcDb2dPolyline
 66
     1
 10
0.0
 20
0.0
 30
0.0
  0
VERTEX
  5
BD
330
BC
100
AcDbEntity
  8
LAYER_1
 62
   250
100
AcDbVertex
100
AcDb2dVertex
 10
65.55551620539931
 20
13.92438693228279
 30
0.0
  0
VERTEX
  5
BE
330
BC
100
AcDbEntity
  8
LAYER_1
 62
   250
100
AcDbVertex
100
AcDb2dVertex
 10
65.55551620539931
 20
5.369525823310396
 30
0.0
  0
SEQEND
  5
BF
330
BC
100
AcDbEntity
  8
LAYER_1
  0
POLYLINE
  5
C0
330
1F
100
AcDbEntity
  8
LAYER_1
 62
   250
100
AcDb2dPolyline
 66
     1
 10
0.0
 20
0.0
 30
0.0
  0
VERTEX
  5
C1
330
C0
100
AcDbEntity
  8
LAYER_1
 62
   250
100
AcDbVertex
100
AcDb2dVertex
 10
68.05562199904513
 20
13.92438693228279
 30
0.0
  0
VERTEX
  5
C2
330
C0
100
AcDbEntity
  8
LAYER_1
 62
   250
100
AcDbVertex
100
AcDb2dVertex
 10
68.05562199904513
 20
5.369525823310396
 30
0.0
  0
SEQEND
  5
C3
330
C0
100
AcDbEntity
  8
LAYER_1
  0
ENDSEC
  0
SECTION
  2
OBJECTS
  0
DICTIONARY
  5
C
330
0
100
AcDbDictionary
  3
ACAD_GROUP
350
D
  3
ACAD_LAYOUT
350
1A
  3
ACAD_MLINESTYLE
350
17
  3
ACAD_PLOTSETTINGS
350
19
  3
ACAD_TABLESTYLE
350
C4
  3
ACAD_VISUALSTYLE
350
2A
1001
ACAD
1000
TREAT_AS_HARD
1070
     0
  0
DICTIONARY
  5
D
102
{ACAD_REACTORS
330
C
102
}
330
C
100
AcDbDictionary
1001
ACAD
1000
TREAT_AS_HARD
1070
     0
  0
DICTIONARY
  5
1A
102
{ACAD_REACTORS
330
C
102
}
330
C
100
AcDbDictionary
1001
ACAD
1000
TREAT_AS_HARD
1070
     0
  0
DICTIONARY
  5
17
102
{ACAD_REACTORS
330
C
102
}
330
C
100
AcDbDictionary
  3
STANDARD
350
18
1001
ACAD
1000
TREAT_AS_HARD
1070
     0
  0
DICTIONARY
  5
19
102
{ACAD_REACTORS
330
C
102
}
330
C
100
AcDbDictionary
1001
ACAD
1000
TREAT_AS_HARD
1070
     0
  0
DICTIONARY
  5
C4
102
{ACAD_REACTORS
330
C
102
}
330
C
100
AcDbDictionary
1001
ACAD
1000
TREAT_AS_HARD
1070
     0
  0
DICTIONARY
  5
2A
102
{ACAD_REACTORS
330
C
102
}
330
C
100
AcDbDictionary
  3
2DWIREFRAME
350
2F
  3
3D_HIDDEN
350
31
  3
3DWIREFRAME
350
30
  3
BASIC
350
32
  3
BRIGHTEN
350
36
  3
COLORCHANGE
350
3A
  3
CONCEPTUAL
350
34
  3
DIM
350
35
  3
FACEPATTERN
350
39
  3
FLAT
350
2B
  3
FLATWITHEDGES
350
2C
  3
GOURAUD
350
2D
  3
GOURAUDWITHEDGES
350
2E
  3
LINEPATTERN
350
38
  3
REALISTIC
350
33
  3
THICKEN
350
37
1001
ACAD
1000
TREAT_AS_HARD
1070
     0
  0
MLINESTYLE
  5
18
102
{ACAD_REACTORS
330
17
102
}
330
17
100
AcDbMlineStyle
  2
Standard
 70
     0
  3

 62
   256
 51
90.0
 52
90.0
 71
     2
 49
0.5
 62
   256
  6
BYLAYER
 49
-0.5
 62
   256
  6
BYLAYER
  0
VISUALSTYLE
  5
2F
102
{ACAD_REACTORS
330
2A
102
}
330
2A
100
AcDbVisualStyle
  2
2dWireframe
 70
     4
 71
     0
 72
     2
 73
     0
 90
        0
 40
-0.6
 41
-30.0
 62
     5
 63
     7
 74
     1
 91
        4
 64
     7
 65
   257
 75
     1
175
     1
 42
1.0
 92
        0
 66
   257
 43
1.0
 76
     1
 77
     6
 78
     2
 67
     7
 79
     5
170
     0
171
     0
290
     0
174
     0
 93
        1
 44
0.0
173
     0
291
     0
 45
0.0
1001
ACAD
1000
AcDbSavedByObjectVersion
1070
     0
  0
VISUALSTYLE
  5
31
102
{ACAD_REACTORS
330
2A
102
}
330
2A
100
AcDbVisualStyle
  2
3D Hidden
 70
     6
 71
     1
 72
     2
 73
     2
 90
        0
 40
-0.6
 41
-30.0
 62
     5
 63
     7
 74
     2
 91
        2
 64
     7
 65
   257
 75
     2
175
     1
 42
40.0
 92
        0
 66
   257
 43
1.0
 76
     1
 77
     6
 78
     2
 67
     7
 79
     3
170
     0
171
     0
290
     0
174
     0
 93
        1
 44
0.0
173
     0
291
     0
 45
0.0
1001
ACAD
1000
AcDbSavedByObjectVersion
1070
     0
  0
VISUALSTYLE
  5
30
102
{ACAD_REACTORS
330
2A
102
}
330
2A
100
AcDbVisualStyle
  2
3dWireframe
 70
     5
 71
     0
 72
     2
 73
     0
 90
        0
 40
-0.6
 41
-30.0
 62
     5
 63
     7
 74
     1
 91
        4
 64
     7
 65
   257
 75
     1
175
     1
 42
1.0
 92
        0
 66
   257
 43
1.0
 76
     1
 77
     6
 78
     2
 67
     7
 79
     5
170
     0
171
     0
290
     0
174
     0
 93
        1
 44
0.0
173
     0
291
     0
 45
0.0
1001
ACAD
1000
AcDbSavedByObjectVersion
1070
     0
  0
VISUALSTYLE
  5
32
102
{ACAD_REACTORS
330
2A
102
}
330
2A
100
AcDbVisualStyle
  2
Basic
 70
     7
 71
     1
 72
     0
 73
     1
 90
        0
 40
-0.6
 41
-30.0
 62
     5
 63
     7
 74
     0
 91
        4
 64
     7
 65
   257
 75
     1
175
     1
 42
1.0
 92
        8
 66
     7
 43
1.0
 76
     1
 77
     6
 78
     2
 67
     7
 79
     5
170
     0
171
     0
290
     0
174
     0
 93
        1
 44
0.0
173
     0
291
     1
 45
0.0
1001
ACAD
1000
AcDbSavedByObjectVersion
1070
     0
  0
VISUALSTYLE
  5
36
102
{ACAD_REACTORS
330
2A
102
}
330
2A
100
AcDbVisualStyle
  2
Brighten
 70
    12
 71
     2
 72
     2
 73
     0
 90
        0
 40
-0.6
 41
-30.0
 62
     5
 63
     7
 74
     1
 91
        4
 64
     7
 65
   257
 75
     1
175
     1
 42
1.0
 92
        8
 66
     7
 43
1.0
 76
     1
 77
     6
 78
     2
 67
     7
 79
     5
170
     0
171
     0
290
     0
174
     0
 93
        1
 44
50.0
173
     0
291
     1
 45
0.0
1001
ACAD
1000
AcDbSavedByObjectVersion
1070
     0
  0
VISUALSTYLE
  5
3A
102
{ACAD_REACTORS
330
2A
102
}
330
2A
100
AcDbVisualStyle
  2
ColorChange
 70
    16
 71
     2
 72
     2
 73
     3
 90
        0
 40
-0.6
 41
-30.0
 62
     5
 63
     8
 74
     1
 91
        4
 64
     7
 65
   257
 75
     1
175
     1
 42
1.0
 92
        8
 66
     8
 43
1.0
 76
     1
 77
     6
 78
     2
 67
     7
 79
     5
170
     0
171
     0
290
     0
174
     0
 93
        1
 44
0.0
173
     0
291
     1
 45
0.0
1001
ACAD
1000
AcDbSavedByObjectVersion
1070
     0
  0
VISUALSTYLE
  5
34
102
{ACAD_REACTORS
330
2A
102
}
330
2A
100
AcDbVisualStyle
  2
Conceptual
 70
     9
 71
     3
 72
     2
 73
     0
 90
        0
 40
-0.6
 41
-30.0
 62
     5
 63
     7
 74
     2
 91
        2
 64
     7
 65
   257
 75
     1
175
     1
 42
40.0
 92
        8
 66
     7
 43
1.0
 76
     1
 77
     6
 78
     2
 67
     7
 79
     3
170
     0
171
     0
290
     0
174
     0
 93
        1
 44
0.0
173
     0
291
     0
 45
0.0
1001
ACAD
1000
AcDbSavedByObjectVersion
1070
     0
  0
VISUALSTYLE
  5
35
102
{ACAD_REACTORS
330
2A
102
}
330
2A
100
AcDbVisualStyle
  2
Dim
 70
    11
 71
     2
 72
     2
 73
     0
 90
        0
 40
-0.6
 41
-30.0
 62
     5
 63
     7
 74
     1
 91
        4
 64
     7
 65
   257
 75
     1
175
     1
 42
1.0
 92
        8
 66
     7
 43
1.0
 76
     1
 77
     6
 78
     2
 67
     7
 79
     5
170
     0
171
     0
290
     0
174
     0
 93
        1
 44
-50.0
173
     0
291
     1
 45
0.0
1001
ACAD
1000
AcDbSavedByObjectVersion
1070
     0
  0
VISUALSTYLE
  5
39
102
{ACAD_REACTORS
330
2A
102
}
330
2A
100
AcDbVisualStyle
  2
Facepattern
 70
    15
 71
     2
 72
     2
 73
     0
 90
        0
 40
-0.6
 41
-30.0
 62
     5
 63
     7
 74
     1
 91
        4
 64
     7
 65
   257
 75
     1
175
     1
 42
1.0
 92
        8
 66
     7
 43
1.0
 76
     1
 77
     6
 78
     2
 67
     7
 79
     5
170
     0
171
     0
290
     0
174
     0
 93
        1
 44
0.0
173
     0
291
     1
 45
0.0
1001
ACAD
1000
AcDbSavedByObjectVersion
1070
     0
  0
VISUALSTYLE
  5
2B
102
{ACAD_REACTORS
330
2A
102
}
330
2A
100
AcDbVisualStyle
  2
Flat
 70
     0
 71
     2
 72
     1
 73
     1
 90
        2
 40
-0.6
 41
30.0
 62
     5
 63
     7
 74
     0
 91
        4
 64
     7
 65
   257
 75
     1
175
     1
 42
1.0
 92
        8
 66
     7
 43
1.0
 76
     1
 77
     6
 78
     2
 67
     7
 79
     5
170
     0
171
     0
290
     0
174
     0
 93
       13
 44
0.0
173
     0
291
     1
 45
0.0
1001
ACAD
1000
AcDbSavedByObjectVersion
1070
     0
  0
VISUALSTYLE
  5
2C
102
{ACAD_REACTORS
330
2A
102
}
330
2A
100
AcDbVisualStyle
  2
FlatWithEdges
 70
     1
 71
     2
 72
     1
 73
     1
 90
        2
 40
-0.6
 41
30.0
 62
     5
 63
     7
 74
     1
 91
        4
 64
     7
 65
   257
 75
     1
175
     1
 42
1.0
 92
        0
 66
   257
 43
1.0
 76
     1
 77
     6
 78
     2
 67
     7
 79
     5
170
     0
171
     0
290
     0
174
     0
 93
       13
 44
0.0
173
     0
291
     1
 45
0.0
1001
ACAD
1000
AcDbSavedByObjectVersion
1070
     0
  0
VISUALSTYLE
  5
2D
102
{ACAD_REACTORS
330
2A
102
}
330
2A
100
AcDbVisualStyle
  2
Gouraud
 70
     2
 71
     2
 72
     2
 73
     1
 90
        2
 40
-0.6
 41
30.0
 62
     5
 63
     7
 74
     0
 91
        4
 64
     7
 65
   257
 75
     1
175
     1
 42
1.0
 92
        0
 66
     7
 43
1.0
 76
     1
 77
     6
 78
     2
 67
     7
 79
     5
170
     0
171
     0
290
     0
174
     0
 93
       13
 44
0.0
173
     0
291
     1
 45
0.0
1001
ACAD
1000
AcDbSavedByObjectVersion
1070
     0
  0
VISUALSTYLE
  5
2E
102
{ACAD_REACTORS
330
2A
102
}
330
2A
100
AcDbVisualStyle
  2
GouraudWithEdges
 70
     3
 71
     2
 72
     2
 73
     1
 90
        2
 40
-0.6
 41
30.0
 62
     5
 63
     7
 74
     1
 91
        4
 64
     7
 65
   257
 75
     1
175
     1
 42
1.0
 92
        0
 66
   257
 43
1.0
 76
     1
 77
     6
 78
     2
 67
     7
 79
     5
170
     0
171
     0
290
     0
174
     0
 93
       13
 44
0.0
173
     0
291
     1
 45
0.0
1001
ACAD
1000
AcDbSavedByObjectVersion
1070
     0
  0
VISUALSTYLE
  5
38
102
{ACAD_REACTORS
330
2A
102
}
330
2A
100
AcDbVisualStyle
  2
Linepattern
 70
    14
 71
     2
 72
     2
 73
     0
 90
        0
 40
-0.6
 41
-30.0
 62
     5
 63
     7
 74
     1
 91
        4
 64
     7
 65
   257
 75
     7
175
     7
 42
1.0
 92
        8
 66
     7
 43
1.0
 76
     1
 77
     6
 78
     2
 67
     7
 79
     5
170
     0
171
     0
290
     0
174
     0
 93
        1
 44
0.0
173
     0
291
     1
 45
0.0
1001
ACAD
1000
AcDbSavedByObjectVersion
1070
     0
  0
VISUALSTYLE
  5
33
102
{ACAD_REACTORS
330
2A
102
}
330
2A
100
AcDbVisualStyle
  2
Realistic
 70
     8
 71
     2
 72
     2
 73
     0
 90
        0
 40
-0.6
 41
-30.0
 62
     5
 63
     7
 74
     1
 91
        0
 64
     7
 65
   257
 75
     1
175
     1
 42
1.0
 92
        8
 66
     8
 43
1.0
 76
     1
 77
     6
 78
     2
 67
     7
 79
     5
170
     0
171
     0
290
     0
174
     0
 93
       13
 44
0.0
173
     0
291
     0
 45
0.0
1001
ACAD
1000
AcDbSavedByObjectVersion
1070
     0
  0
VISUALSTYLE
  5
37
102
{ACAD_REACTORS
330
2A
102
}
330
2A
100
AcDbVisualStyle
  2
Thicken
 70
    13
 71
     2
 72
     2
 73
     0
 90
        0
 40
-0.6
 41
-30.0
 62
     5
 63
     7
 74
     1
 91
        4
 64
     7
 65
   257
 75
     1
175
     1
 42
1.0
 92
       12
 66
     7
 43
1.0
 76
     1
 77
     6
 78
     2
 67
     7
 79
     5
170
     0
171
     0
290
     0
174
     0
 93
        1
 44
0.0
173
     0
291
     1
 45
0.0
1001
ACAD
1000
AcDbSavedByObjectVersion
1070
     0
  0
ENDSEC
  0
EOF
