  0
SECTION
  2
HEADER
  9
$ACADVER
  1
AC1012
  9
$DWGCODEPAGE
  3
ansi_1252
  9
$INSBASE
 10
0.0
 20
0.0
 30
0.0
  9
$EXTMIN
 10
1.000000000000000E+20
 20
1.000000000000000E+20
 30
1.000000000000000E+20
  9
$EXTMAX
 10
-1.000000000000000E+20
 20
-1.000000000000000E+20
 30
-1.000000000000000E+20
  9
$LIMMIN
 10
0.0
 20
0.0
  9
$LIMMAX
 10
12.0
 20
9.0
  9
$ORTHOMODE
 70
     0
  9
$REGENMODE
 70
     1
  9
$FILLMODE
 70
     1
  9
$QTEXTMODE
 70
     0
  9
$MIRRTEXT
 70
     1
  9
$DRAGMODE
 70
     2
  9
$LTSCALE
 40
1.0
  9
$OSMODE
 70
    37
  9
$ATTMODE
 70
     1
  9
$TEXTSIZE
 40
0.2
  9
$TRACEWID
 40
0.05
  9
$TEXTSTYLE
  7
STANDARD
  9
$CLAYER
  8
0
  9
$CELTYPE
  6
BYLAYER
  9
$CECOLOR
 62
   256
  9
$CELTSCALE
 40
1.0
  9
$DELOBJ
 70
     1
  9
$DISPSILH
 70
     0
  9
$DIMSCALE
 40
1.0
  9
$DIMASZ
 40
0.18
  9
$DIMEXO
 40
0.0625
  9
$DIMDLI
 40
0.38
  9
$DIMRND
 40
0.0
  9
$DIMDLE
 40
0.0
  9
$DIMEXE
 40
0.18
  9
$DIMTP
 40
0.0
  9
$DIMTM
 40
0.0
  9
$DIMTXT
 40
0.18
  9
$DIMCEN
 40
0.09
  9
$DIMTSZ
 40
0.0
  9
$DIMTOL
 70
     0
  9
$DIMLIM
 70
     0
  9
$DIMTIH
 70
     1
  9
$DIMTOH
 70
     1
  9
$DIMSE1
 70
     0
  9
$DIMSE2
 70
     0
  9
$DIMTAD
 70
     0
  9
$DIMZIN
 70
     0
  9
$DIMBLK
  1

  9
$DIMASO
 70
     1
  9
$DIMSHO
 70
     1
  9
$DIMPOST
  1

  9
$DIMAPOST
  1

  9
$DIMALT
 70
     0
  9
$DIMALTD
 70
     2
  9
$DIMALTF
 40
25.4
  9
$DIMLFAC
 40
1.0
  9
$DIMTOFL
 70
     0
  9
$DIMTVP
 40
0.0
  9
$DIMTIX
 70
     0
  9
$DIMSOXD
 70
     0
  9
$DIMSAH
 70
     0
  9
$DIMBLK1
  1

  9
$DIMBLK2
  1

  9
$DIMSTYLE
  2
STANDARD
  9
$DIMCLRD
 70
     0
  9
$DIMCLRE
 70
     0
  9
$DIMCLRT
 70
     0
  9
$DIMTFAC
 40
1.0
  9
$DIMGAP
 40
0.09
  9
$DIMJUST
 70
     0
  9
$DIMSD1
 70
     0
  9
$DIMSD2
 70
     0
  9
$DIMTOLJ
 70
     1
  9
$DIMTZIN
 70
     0
  9
$DIMALTZ
 70
     0
  9
$DIMALTTZ
 70
     0
  9
$DIMFIT
 70
     3
  9
$DIMUPT
 70
     0
  9
$DIMUNIT
 70
     2
  9
$DIMDEC
 70
     4
  9
$DIMTDEC
 70
     4
  9
$DIMALTU
 70
     2
  9
$DIMALTTD
 70
     2
  9
$DIMTXSTY
  7
STANDARD
  9
$DIMAUNIT
 70
     0
  9
$LUNITS
 70
     2
  9
$LUPREC
 70
     4
  9
$SKETCHINC
 40
0.1
  9
$FILLETRAD
 40
0.5
  9
$AUNITS
 70
     0
  9
$AUPREC
 70
     0
  9
$MENU
  1
.
  9
$ELEVATION
 40
0.0
  9
$PELEVATION
 40
0.0
  9
$THICKNESS
 40
0.0
  9
$LIMCHECK
 70
     0
  9
$CHAMFERA
 40
0.5
  9
$CHAMFERB
 40
0.5
  9
$CHAMFERC
 40
1.0
  9
$CHAMFERD
 40
0.0
  9
$SKPOLY
 70
     0
  9
$TDCREATE
 40
2456197.743220775
  9
$TDUPDATE
 40
2456197.743220787
  9
$TDINDWG
 40
0.0000000116
  9
$TDUSRTIMER
 40
0.0000000116
  9
$USRTIMER
 70
     1
  9
$ANGBASE
 50
0.0
  9
$ANGDIR
 70
     0
  9
$PDMODE
 70
     0
  9
$PDSIZE
 40
0.0
  9
$PLINEWID
 40
0.0
  9
$COORDS
 70
     1
  9
$SPLFRAME
 70
     0
  9
$SPLINETYPE
 70
     6
  9
$SPLINESEGS
 70
     8
  9
$ATTDIA
 70
     0
  9
$ATTREQ
 70
     1
  9
$HANDLING
 70
     1
  9
$HANDSEED
  5
97
  9
$SURFTAB1
 70
     6
  9
$SURFTAB2
 70
     6
  9
$SURFTYPE
 70
     6
  9
$SURFU
 70
     6
  9
$SURFV
 70
     6
  9
$UCSNAME
  2

  9
$UCSORG
 10
0.0
 20
0.0
 30
0.0
  9
$UCSXDIR
 10
1.0
 20
0.0
 30
0.0
  9
$UCSYDIR
 10
0.0
 20
1.0
 30
0.0
  9
$PUCSNAME
  2

  9
$PUCSORG
 10
0.0
 20
0.0
 30
0.0
  9
$PUCSXDIR
 10
1.0
 20
0.0
 30
0.0
  9
$PUCSYDIR
 10
0.0
 20
1.0
 30
0.0
  9
$USERI1
 70
     0
  9
$USERI2
 70
     0
  9
$USERI3
 70
     0
  9
$USERI4
 70
     0
  9
$USERI5
 70
     0
  9
$USERR1
 40
0.0
  9
$USERR2
 40
0.0
  9
$USERR3
 40
0.0
  9
$USERR4
 40
0.0
  9
$USERR5
 40
0.0
  9
$WORLDVIEW
 70
     1
  9
$SHADEDGE
 70
     3
  9
$SHADEDIF
 70
    70
  9
$TILEMODE
 70
     1
  9
$MAXACTVP
 70
    64
  9
$PINSBASE
 10
0.0
 20
0.0
 30
0.0
  9
$PLIMCHECK
 70
     0
  9
$PEXTMIN
 10
1.000000000000000E+20
 20
1.000000000000000E+20
 30
1.000000000000000E+20
  9
$PEXTMAX
 10
-1.000000000000000E+20
 20
-1.000000000000000E+20
 30
-1.000000000000000E+20
  9
$PLIMMIN
 10
0.0
 20
0.0
  9
$PLIMMAX
 10
12.0
 20
9.0
  9
$UNITMODE
 70
     0
  9
$VISRETAIN
 70
     1
  9
$PLINEGEN
 70
     0
  9
$PSLTSCALE
 70
     1
  9
$TREEDEPTH
 70
  3020
  9
$PICKSTYLE
 70
     1
  9
$CMLSTYLE
  2
STANDARD
  9
$CMLJUST
 70
     0
  9
$CMLSCALE
 40
1.0
  9
$SAVEIMAGES
 70
     1
  0
ENDSEC
  0
SECTION
  2
CLASSES
  0
CLASS
  1
ACDBDICTIONARYWDFLT
  2
AcDbDictionaryWithDefault
  3
ObjectDBX Classes
 90
    32768
280
     0
281
     0
  0
CLASS
  1
VISUALSTYLE
  2
AcDbVisualStyle
  3
ObjectDBX Classes
 90
     4095
280
     0
281
     0
  0
CLASS
  1
XRECORD
  2
AcDbXrecord
  3
AutoCAD 2000
 90
    32768
280
     0
281
     0
  0
CLASS
  1
LWPOLYLINE
  2
AcDbPolyline
  3
AutoCAD 2000
 90
    32768
280
     0
281
     1
  0
CLASS
  1
HATCH
  2
AcDbHatch
  3
AutoCAD 2000
 90
    32768
280
     0
281
     1
  0
CLASS
  1
ACDBPLACEHOLDER
  2
AcDbPlaceHolder
  3
ObjectDBX Classes
 90
        0
280
     0
281
     0
  0
CLASS
  1
LAYOUT
  2
AcDbLayout
  3
ObjectDBX Classes
 90
        0
280
     0
281
     0
  0
ENDSEC
  0
SECTION
  2
TABLES
  0
TABLE
  2
VPORT
  5
8
330
0
100
AcDbSymbolTable
 70
     1
  0
VPORT
  5
29
330
8
100
AcDbSymbolTableRecord
100
AcDbViewportTableRecord
  2
*ACTIVE
 70
     0
 10
0.0
 20
0.0
 11
1.0
 21
1.0
 12
0.0
 22
0.0
 13
0.0
 23
0.0
 14
0.5
 24
0.5
 15
0.5
 25
0.5
 16
0.0
 26
0.0
 36
1.0
 17
148.4999796178229
 27
98.42499997539376
 37
0.0
 40
196.8499999507875
 41
1.508762810819892
 42
50.0
 43
0.0
 44
0.0
 50
0.0
 51
0.0
 71
     0
 72
   100
 73
     1
 74
     3
 75
     0
 76
     0
 77
     0
 78
     0
  0
ENDTAB
  0
TABLE
  2
LTYPE
  5
5
330
0
100
AcDbSymbolTable
 70
     1
  0
LTYPE
  5
14
330
5
100
AcDbSymbolTableRecord
100
AcDbLinetypeTableRecord
  2
BYBLOCK
 70
     0
  3

 72
    65
 73
     0
 40
0.0
  0
LTYPE
  5
15
330
5
100
AcDbSymbolTableRecord
100
AcDbLinetypeTableRecord
  2
BYLAYER
 70
     0
  3

 72
    65
 73
     0
 40
0.0
  0
LTYPE
  5
16
330
5
100
AcDbSymbolTableRecord
100
AcDbLinetypeTableRecord
  2
CONTINUOUS
 70
     0
  3
Solid line
 72
    65
 73
     0
 40
0.0
  0
ENDTAB
  0
TABLE
  2
LAYER
  5
2
330
0
100
AcDbSymbolTable
 70
     2
  0
LAYER
  5
10
330
2
100
AcDbSymbolTableRecord
100
AcDbLayerTableRecord
  2
0
 70
     0
 62
     7
  6
CONTINUOUS
  0
LAYER
  5
3B
330
2
100
AcDbSymbolTableRecord
100
AcDbLayerTableRecord
  2
LAYER_1
 70
     0
 62
     7
  6
CONTINUOUS
  0
ENDTAB
  0
TABLE
  2
STYLE
  5
3
330
0
100
AcDbSymbolTable
 70
     1
  0
STYLE
  5
11
330
3
100
AcDbSymbolTableRecord
100
AcDbTextStyleTableRecord
  2
STANDARD
 70
     0
 40
0.0
 41
1.0
 50
0.0
 71
     0
 42
0.2
  3
txt
  4

  0
ENDTAB
  0
TABLE
  2
VIEW
  5
6
330
0
100
AcDbSymbolTable
 70
     0
  0
ENDTAB
  0
TABLE
  2
UCS
  5
7
330
0
100
AcDbSymbolTable
 70
     0
  0
ENDTAB
  0
TABLE
  2
APPID
  5
9
330
0
100
AcDbSymbolTable
 70
     1
  0
APPID
  5
12
330
9
100
AcDbSymbolTableRecord
100
AcDbRegAppTableRecord
  2
ACAD
 70
     0
  0
ENDTAB
  0
TABLE
  2
DIMSTYLE
  5
A
330
0
100
AcDbSymbolTable
 70
     1
  0
DIMSTYLE
105
27
330
A
100
AcDbSymbolTableRecord
100
AcDbDimStyleTableRecord
  2
STANDARD
 70
     0
  3

  4

  5

  6

  7

 40
1.0
 41
0.18
 42
0.0625
 43
0.38
 44
0.18
 45
0.0
 46
0.0
 47
0.0
 48
0.0
140
0.18
141
0.09
142
0.0
143
25.4
144
1.0
145
0.0
146
1.0
147
0.09
 71
     0
 72
     0
 73
     1
 74
     1
 75
     0
 76
     0
 77
     0
 78
     0
170
     0
171
     2
172
     0
173
     0
174
     0
175
     0
176
     0
177
     0
178
     0
270
     2
271
     4
272
     4
273
     2
274
     2
340
11
275
     0
280
     0
281
     0
282
     0
283
     1
284
     0
285
     0
286
     0
287
     3
288
     0
  0
ENDTAB
  0
TABLE
  2
BLOCK_RECORD
  5
1
330
0
100
AcDbSymbolTable
 70
     7
  0
BLOCK_RECORD
  5
1F
330
1
100
AcDbSymbolTableRecord
100
AcDbBlockTableRecord
  2
*MODEL_SPACE
  0
BLOCK_RECORD
  5
1B
330
1
100
AcDbSymbolTableRecord
100
AcDbBlockTableRecord
  2
*PAPER_SPACE
  0
BLOCK_RECORD
  5
3C
330
1
100
AcDbSymbolTableRecord
100
AcDbBlockTableRecord
  2
BLOCK_2
  0
BLOCK_RECORD
  5
48
330
1
100
AcDbSymbolTableRecord
100
AcDbBlockTableRecord
  2
BLOCK_3
  0
BLOCK_RECORD
  5
54
330
1
100
AcDbSymbolTableRecord
100
AcDbBlockTableRecord
  2
BLOCK_4
  0
BLOCK_RECORD
  5
60
330
1
100
AcDbSymbolTableRecord
100
AcDbBlockTableRecord
  2
BLOCK_5
  0
BLOCK_RECORD
  5
6C
330
1
100
AcDbSymbolTableRecord
100
AcDbBlockTableRecord
  2
BLOCK_6
  0
BLOCK_RECORD
  5
78
330
1
100
AcDbSymbolTableRecord
100
AcDbBlockTableRecord
  2
BLOCK_7
  0
ENDTAB
  0
ENDSEC
  0
SECTION
  2
BLOCKS
  0
BLOCK
  5
20
330
1F
100
AcDbEntity
  8
0
100
AcDbBlockBegin
  2
*MODEL_SPACE
 70
     0
 71
     0
 10
0.0
 20
0.0
 30
0.0
  3
*MODEL_SPACE
  1

  0
ENDBLK
  5
21
330
1F
100
AcDbEntity
  8
0
100
AcDbBlockEnd
  0
BLOCK
  5
1C
330
1B
100
AcDbEntity
 67
     1
  8
0
100
AcDbBlockBegin
  2
*PAPER_SPACE
 70
     0
 71
     0
 10
0.0
 20
0.0
 30
0.0
  3
*PAPER_SPACE
  1

  0
ENDBLK
  5
1D
330
1B
100
AcDbEntity
 67
     1
  8
0
100
AcDbBlockEnd
  0
BLOCK
  5
3E
330
3C
100
AcDbEntity
  8
0
100
AcDbBlockBegin
  2
BLOCK_2
 70
     0
 71
     0
 10
0.0
 20
0.0
 30
0.0
  3
BLOCK_2
  1

  0
SPLINE
  5
40
330
3C
100
AcDbEntity
  8
LAYER_1
 62
   250
100
AcDbSpline
210
0.0
220
0.0
230
1.0
 70
    11
 71
     3
 72
    17
 73
    13
 74
     0
 42
0.0000000001
 43
0.0000000001
 40
0.0
 40
0.0
 40
0.0
 40
0.0
 40
1.0
 40
1.0
 40
1.0
 40
2.0
 40
2.0
 40
2.0
 40
3.0
 40
3.0
 40
3.0
 40
4.0
 40
4.0
 40
4.0
 40
4.0
 10
9.60027533397146
 20
29.52274576084848
 30
0.0
 10
5.181940374138543
 20
29.52274576084848
 30
0.0
 10
1.600419107672812
 20
33.10461153686273
 30
0.0
 10
1.600419107672812
 20
37.52260198714713
 30
0.0
 10
1.600419107672812
 20
41.94128145652857
 30
0.0
 10
5.181940374138543
 20
45.5228027229943
 30
0.0
 10
9.60027533397146
 20
45.5228027229943
 30
0.0
 10
14.01861029380438
 20
45.5228027229943
 30
0.0
 10
17.60013156027011
 20
41.94128145652857
 30
0.0
 10
17.60013156027011
 20
37.52260198714713
 30
0.0
 10
17.60013156027011
 20
33.10461153686273
 30
0.0
 10
14.01861029380438
 20
29.52274576084848
 30
0.0
 10
9.60027533397146
 20
29.52274576084848
 30
0.0
  0
SPLINE
  5
41
330
3C
100
AcDbEntity
  8
LAYER_1
 62
   250
100
AcDbSpline
210
0.0
220
0.0
230
1.0
 70
    11
 71
     3
 72
    17
 73
    13
 74
     0
 42
0.0000000001
 43
0.0000000001
 40
0.0
 40
0.0
 40
0.0
 40
0.0
 40
1.0
 40
1.0
 40
1.0
 40
2.0
 40
2.0
 40
2.0
 40
3.0
 40
3.0
 40
3.0
 40
4.0
 40
4.0
 40
4.0
 40
4.0
 10
9.60027533397146
 20
31.52262369003601
 30
0.0
 10
6.28643798670964
 20
31.52262369003601
 30
0.0
 10
3.600297036860343
 20
34.20910914943384
 30
0.0
 10
3.600297036860343
 20
37.52260198714713
 30
0.0
 10
3.600297036860343
 20
40.83678384395747
 30
0.0
 10
6.28643798670964
 20
43.52258028425825
 30
0.0
 10
9.60027533397146
 20
43.52258028425825
 30
0.0
 10
12.91411268123328
 20
43.52258028425825
 30
0.0
 10
15.60025363108258
 20
40.83678384395747
 30
0.0
 10
15.60025363108258
 20
37.52260198714713
 30
0.0
 10
15.60025363108258
 20
34.20910914943384
 30
0.0
 10
12.91411268123328
 20
31.52262369003601
 30
0.0
 10
9.60027533397146
 20
31.52262369003601
 30
0.0
  0
SPLINE
  5
42
330
3C
100
AcDbEntity
  8
LAYER_1
 62
   250
100
AcDbSpline
210
0.0
220
0.0
230
1.0
 70
    11
 71
     3
 72
    17
 73
    13
 74
     0
 42
0.0000000001
 43
0.0000000001
 40
0.0
 40
0.0
 40
0.0
 40
0.0
 40
1.0
 40
1.0
 40
1.0
 40
2.0
 40
2.0
 40
2.0
 40
3.0
 40
3.0
 40
3.0
 40
4.0
 40
4.0
 40
4.0
 40
4.0
 10
9.60027533397146
 20
37.42252196330062
 30
0.0
 10
9.5449815514332
 20
37.42252196330062
 30
0.0
 10
9.500195310124951
 20
37.46730820460887
 30
0.0
 10
9.500195310124951
 20
37.52260198714713
 30
0.0
 10
9.500195310124951
 20
37.57789576968539
 30
0.0
 10
9.5449815514332
 20
37.62268201099364
 30
0.0
 10
9.60027533397146
 20
37.62268201099364
 30
0.0
 10
9.655569116509719
 20
37.62268201099364
 30
0.0
 10
9.700355357817967
 20
37.57789576968539
 30
0.0
 10
9.700355357817967
 20
37.52260198714713
 30
0.0
 10
9.700355357817967
 20
37.46730820460887
 30
0.0
 10
9.655569116509719
 20
37.42252196330062
 30
0.0
 10
9.60027533397146
 20
37.42252196330062
 30
0.0
  0
SPLINE
  5
43
330
3C
100
AcDbEntity
  8
LAYER_1
 62
     7
100
AcDbSpline
210
0.0
220
0.0
230
1.0
 70
    11
 71
     3
 72
    26
 73
    22
 74
     0
 42
0.0000000001
 43
0.0000000001
 40
0.0
 40
0.0
 40
0.0
 40
0.0
 40
1.0
 40
1.0
 40
1.0
 40
2.0
 40
2.0
 40
2.0
 40
3.0
 40
3.0
 40
3.0
 40
4.0
 40
4.0
 40
4.0
 40
5.0
 40
5.0
 40
5.0
 40
6.0
 40
6.0
 40
6.0
 40
7.0
 40
7.0
 40
7.0
 40
7.0
 10
19.10012613454789
 20
37.52260198714713
 30
0.0
 10
19.10012613454789
 20
42.76948241118263
 30
0.0
 10
14.84681124845844
 20
47.02279729727208
 30
0.0
 10
9.60027533397146
 20
47.02279729727208
 30
0.0
 10
4.353739419484482
 20
47.02279729727208
 30
0.0
 10
0.1004245333950328
 20
42.76948241118263
 30
0.0
 10
0.1004245333950328
 20
37.52260198714713
 30
0.0
 10
0.1004245333950328
 20
34.11126843765274
 30
0.0
 10
1.899797905341023
 20
31.12092555645588
 30
0.0
 10
4.600408256228371
 20
29.44557562197889
 30
0.0
 10
4.600408256228371
 20
29.44557562197889
 30
0.0
 10
4.600408256228371
 20
11.99444444144583
 30
0.0
 10
4.600408256228371
 20
11.99444444144583
 30
0.0
 10
4.600408256228371
 20
11.99444444144583
 30
0.0
 10
14.60048692126307
 20
11.99444444144583
 30
0.0
 10
14.60048692126307
 20
11.99444444144583
 30
0.0
 10
14.60048692126307
 20
11.99444444144583
 30
0.0
 10
14.60048692126307
 20
29.44557562197889
 30
0.0
 10
14.60048692126307
 20
29.44557562197889
 30
0.0
 10
17.3007527626019
 20
31.12092555645588
 30
0.0
 10
19.10012613454789
 20
34.11126843765274
 30
0.0
 10
19.10012613454789
 20
37.52260198714713
 30
0.0
  0
SPLINE
  5
44
330
3C
100
AcDbEntity
  8
LAYER_1
 62
   250
100
AcDbSpline
210
0.0
220
0.0
230
1.0
 70
    11
 71
     3
 72
    17
 73
    13
 74
     0
 42
0.0000000001
 43
0.0000000001
 40
0.0
 40
0.0
 40
0.0
 40
0.0
 40
1.0
 40
1.0
 40
1.0
 40
2.0
 40
2.0
 40
2.0
 40
3.0
 40
3.0
 40
3.0
 40
4.0
 40
4.0
 40
4.0
 40
4.0
 10
9.600619843519985
 20
13.34767794805197
 30
0.0
 10
8.772074379317399
 20
13.34767794805197
 30
0.0
 10
8.100625269242204
 20
14.01878254857864
 30
0.0
 10
8.100625269242204
 20
14.84767252232975
 30
0.0
 10
8.100625269242204
 20
15.67587347698381
 30
0.0
 10
8.772074379317399
 20
16.34766709660753
 30
0.0
 10
9.600619843519985
 20
16.34766709660753
 30
0.0
 10
10.42916530772257
 20
16.34766709660753
 30
0.0
 10
11.10061441779776
 20
15.67587347698381
 30
0.0
 10
11.10061441779776
 20
14.84767252232975
 30
0.0
 10
11.10061441779776
 20
14.01878254857864
 30
0.0
 10
10.42916530772257
 20
13.34767794805197
 30
0.0
 10
9.600619843519985
 20
13.34767794805197
 30
0.0
  0
SPLINE
  5
45
330
3C
100
AcDbEntity
  8
LAYER_1
 62
   250
100
AcDbSpline
210
0.0
220
0.0
230
1.0
 70
    11
 71
     3
 72
    17
 73
    13
 74
     0
 42
0.0000000001
 43
0.0000000001
 40
0.0
 40
0.0
 40
0.0
 40
0.0
 40
1.0
 40
1.0
 40
1.0
 40
2.0
 40
2.0
 40
2.0
 40
3.0
 40
3.0
 40
3.0
 40
4.0
 40
4.0
 40
4.0
 40
4.0
 10
9.600619843519985
 20
14.74759249848324
 30
0.0
 10
9.545326060981724
 20
14.74759249848324
 30
0.0
 10
9.500539819673477
 20
14.79237873979149
 30
0.0
 10
9.500539819673477
 20
14.84767252232975
 30
0.0
 10
9.500539819673477
 20
14.90296630486801
 30
0.0
 10
9.545326060981724
 20
14.94775254617626
 30
0.0
 10
9.600619843519985
 20
14.94775254617626
 30
0.0
 10
9.655913626058243
 20
14.94775254617626
 30
0.0
 10
9.700699867366492
 20
14.90296630486801
 30
0.0
 10
9.700699867366492
 20
14.84767252232975
 30
0.0
 10
9.700699867366492
 20
14.79237873979149
 30
0.0
 10
9.655913626058243
 20
14.74759249848324
 30
0.0
 10
9.600619843519985
 20
14.74759249848324
 30
0.0
  0
SPLINE
  5
46
330
3C
100
AcDbEntity
  8
LAYER_1
 62
   250
100
AcDbSpline
210
0.0
220
0.0
230
1.0
 70
    11
 71
     3
 72
    17
 73
    13
 74
     0
 42
0.0000000001
 43
0.0000000001
 40
0.0
 40
0.0
 40
0.0
 40
0.0
 40
1.0
 40
1.0
 40
1.0
 40
2.0
 40
2.0
 40
2.0
 40
3.0
 40
3.0
 40
3.0
 40
4.0
 40
4.0
 40
4.0
 40
4.0
 10
9.60027533397146
 20
24.60900607023664
 30
0.0
 10
8.771729869768874
 20
24.60900607023664
 30
0.0
 10
8.10028075969368
 20
25.28011067076331
 30
0.0
 10
8.10028075969368
 20
26.10900064451442
 30
0.0
 10
8.10028075969368
 20
26.93720159916848
 30
0.0
 10
8.771729869768874
 20
27.6089952187922
 30
0.0
 10
9.60027533397146
 20
27.6089952187922
 30
0.0
 10
10.42882079817405
 20
27.6089952187922
 30
0.0
 10
11.10026990824924
 20
26.93720159916848
 30
0.0
 10
11.10026990824924
 20
26.10900064451442
 30
0.0
 10
11.10026990824924
 20
25.28011067076331
 30
0.0
 10
10.42882079817405
 20
24.60900607023664
 30
0.0
 10
9.60027533397146
 20
24.60900607023664
 30
0.0
  0
SPLINE
  5
47
330
3C
100
AcDbEntity
  8
LAYER_1
 62
   250
100
AcDbSpline
210
0.0
220
0.0
230
1.0
 70
    11
 71
     3
 72
    17
 73
    13
 74
     0
 42
0.0000000001
 43
0.0000000001
 40
0.0
 40
0.0
 40
0.0
 40
0.0
 40
1.0
 40
1.0
 40
1.0
 40
2.0
 40
2.0
 40
2.0
 40
3.0
 40
3.0
 40
3.0
 40
4.0
 40
4.0
 40
4.0
 40
4.0
 10
9.60027533397146
 20
26.00892062066791
 30
0.0
 10
9.5449815514332
 20
26.00892062066791
 30
0.0
 10
9.500195310124951
 20
26.05370686197616
 30
0.0
 10
9.500195310124951
 20
26.10900064451442
 30
0.0
 10
9.500195310124951
 20
26.16429442705268
 30
0.0
 10
9.5449815514332
 20
26.20908066836093
 30
0.0
 10
9.60027533397146
 20
26.20908066836093
 30
0.0
 10
9.655569116509719
 20
26.20908066836093
 30
0.0
 10
9.700355357817967
 20
26.16429442705268
 30
0.0
 10
9.700355357817967
 20
26.10900064451442
 30
0.0
 10
9.700355357817967
 20
26.05370686197616
 30
0.0
 10
9.655569116509719
 20
26.00892062066791
 30
0.0
 10
9.60027533397146
 20
26.00892062066791
 30
0.0
  0
ENDBLK
  5
3F
330
3C
100
AcDbEntity
  8
0
100
AcDbBlockEnd
  0
BLOCK
  5
4A
330
48
100
AcDbEntity
  8
0
100
AcDbBlockBegin
  2
BLOCK_3
 70
     0
 71
     0
 10
0.0
 20
0.0
 30
0.0
  3
BLOCK_3
  1

  0
SPLINE
  5
4C
330
48
100
AcDbEntity
  8
LAYER_1
 62
   250
100
AcDbSpline
210
0.0
220
0.0
230
1.0
 70
    11
 71
     3
 72
    17
 73
    13
 74
     0
 42
0.0000000001
 43
0.0000000001
 40
0.0
 40
0.0
 40
0.0
 40
0.0
 40
1.0
 40
1.0
 40
1.0
 40
2.0
 40
2.0
 40
2.0
 40
3.0
 40
3.0
 40
3.0
 40
4.0
 40
4.0
 40
4.0
 40
4.0
 10
31.15985513543921
 20
29.50862086935896
 30
0.0
 10
35.57819009527212
 20
29.50862086935896
 30
0.0
 10
39.15971136173785
 20
25.9267550933447
 30
0.0
 10
39.15971136173785
 20
21.50876464306031
 30
0.0
 10
39.15971136173785
 20
17.09008517367887
 30
0.0
 10
35.57819009527212
 20
13.50856390721314
 30
0.0
 10
31.15985513543921
 20
13.50856390721314
 30
0.0
 10
26.74152017560629
 20
13.50856390721314
 30
0.0
 10
23.15999890914056
 20
17.09008517367887
 30
0.0
 10
23.15999890914056
 20
21.50876464306031
 30
0.0
 10
23.15999890914056
 20
25.9267550933447
 30
0.0
 10
26.74152017560629
 20
29.50862086935896
 30
0.0
 10
31.15985513543921
 20
29.50862086935896
 30
0.0
  0
SPLINE
  5
4D
330
48
100
AcDbEntity
  8
LAYER_1
 62
   250
100
AcDbSpline
210
0.0
220
0.0
230
1.0
 70
    11
 71
     3
 72
    17
 73
    13
 74
     0
 42
0.0000000001
 43
0.0000000001
 40
0.0
 40
0.0
 40
0.0
 40
0.0
 40
1.0
 40
1.0
 40
1.0
 40
2.0
 40
2.0
 40
2.0
 40
3.0
 40
3.0
 40
3.0
 40
4.0
 40
4.0
 40
4.0
 40
4.0
 10
31.15985513543921
 20
27.50874294017143
 30
0.0
 10
34.47369248270103
 20
27.50874294017143
 30
0.0
 10
37.15983343255032
 20
24.8222574807736
 30
0.0
 10
37.15983343255032
 20
21.50876464306031
 30
0.0
 10
37.15983343255032
 20
18.19458278624997
 30
0.0
 10
34.47369248270103
 20
15.50878634594919
 30
0.0
 10
31.15985513543921
 20
15.50878634594919
 30
0.0
 10
27.84601778817738
 20
15.50878634594919
 30
0.0
 10
25.15987683832809
 20
18.19458278624997
 30
0.0
 10
25.15987683832809
 20
21.50876464306031
 30
0.0
 10
25.15987683832809
 20
24.8222574807736
 30
0.0
 10
27.84601778817738
 20
27.50874294017143
 30
0.0
 10
31.15985513543921
 20
27.50874294017143
 30
0.0
  0
SPLINE
  5
4E
330
48
100
AcDbEntity
  8
LAYER_1
 62
   250
100
AcDbSpline
210
0.0
220
0.0
230
1.0
 70
    11
 71
     3
 72
    17
 73
    13
 74
     0
 42
0.0000000001
 43
0.0000000001
 40
0.0
 40
0.0
 40
0.0
 40
0.0
 40
1.0
 40
1.0
 40
1.0
 40
2.0
 40
2.0
 40
2.0
 40
3.0
 40
3.0
 40
3.0
 40
4.0
 40
4.0
 40
4.0
 40
4.0
 10
31.15985513543921
 20
21.60884466690682
 30
0.0
 10
31.21514891797747
 20
21.60884466690682
 30
0.0
 10
31.25993515928571
 20
21.56405842559857
 30
0.0
 10
31.25993515928571
 20
21.50876464306031
 30
0.0
 10
31.25993515928571
 20
21.45347086052205
 30
0.0
 10
31.21514891797747
 20
21.4086846192138
 30
0.0
 10
31.15985513543921
 20
21.4086846192138
 30
0.0
 10
31.10456135290094
 20
21.4086846192138
 30
0.0
 10
31.0597751115927
 20
21.45347086052205
 30
0.0
 10
31.0597751115927
 20
21.50876464306031
 30
0.0
 10
31.0597751115927
 20
21.56405842559857
 30
0.0
 10
31.10456135290094
 20
21.60884466690682
 30
0.0
 10
31.15985513543921
 20
21.60884466690682
 30
0.0
  0
SPLINE
  5
4F
330
48
100
AcDbEntity
  8
LAYER_1
 62
     7
100
AcDbSpline
210
0.0
220
0.0
230
1.0
 70
    11
 71
     3
 72
    26
 73
    22
 74
     0
 42
0.0000000001
 43
0.0000000001
 40
0.0
 40
0.0
 40
0.0
 40
0.0
 40
1.0
 40
1.0
 40
1.0
 40
2.0
 40
2.0
 40
2.0
 40
3.0
 40
3.0
 40
3.0
 40
4.0
 40
4.0
 40
4.0
 40
5.0
 40
5.0
 40
5.0
 40
6.0
 40
6.0
 40
6.0
 40
7.0
 40
7.0
 40
7.0
 40
7.0
 10
21.66000433486278
 20
21.50876464306031
 30
0.0
 10
21.66000433486278
 20
16.26188421902481
 30
0.0
 10
25.91331922095223
 20
12.00856933293536
 30
0.0
 10
31.15985513543921
 20
12.00856933293536
 30
0.0
 10
36.40639104992619
 20
12.00856933293536
 30
0.0
 10
40.65970593601563
 20
16.26188421902481
 30
0.0
 10
40.65970593601563
 20
21.50876464306031
 30
0.0
 10
40.65970593601563
 20
24.9200981925547
 30
0.0
 10
38.86033256406964
 20
27.91044107375156
 30
0.0
 10
36.15972221318229
 20
29.58579100822855
 30
0.0
 10
36.15972221318229
 20
29.58579100822855
 30
0.0
 10
36.15972221318229
 20
47.03692218876161
 30
0.0
 10
36.15972221318229
 20
47.03692218876161
 30
0.0
 10
36.15972221318229
 20
47.03692218876161
 30
0.0
 10
26.15964354814759
 20
47.03692218876161
 30
0.0
 10
26.15964354814759
 20
47.03692218876161
 30
0.0
 10
26.15964354814759
 20
47.03692218876161
 30
0.0
 10
26.15964354814759
 20
29.58579100822855
 30
0.0
 10
26.15964354814759
 20
29.58579100822855
 30
0.0
 10
23.45937770680877
 20
27.91044107375156
 30
0.0
 10
21.66000433486278
 20
24.9200981925547
 30
0.0
 10
21.66000433486278
 20
21.50876464306031
 30
0.0
  0
SPLINE
  5
50
330
48
100
AcDbEntity
  8
LAYER_1
 62
   250
100
AcDbSpline
210
0.0
220
0.0
230
1.0
 70
    11
 71
     3
 72
    17
 73
    13
 74
     0
 42
0.0000000001
 43
0.0000000001
 40
0.0
 40
0.0
 40
0.0
 40
0.0
 40
1.0
 40
1.0
 40
1.0
 40
2.0
 40
2.0
 40
2.0
 40
3.0
 40
3.0
 40
3.0
 40
4.0
 40
4.0
 40
4.0
 40
4.0
 10
31.15951062589068
 20
45.68368868215547
 30
0.0
 10
31.98805609009327
 20
45.68368868215547
 30
0.0
 10
32.65950520016846
 20
45.0125840816288
 30
0.0
 10
32.65950520016846
 20
44.18369410787769
 30
0.0
 10
32.65950520016846
 20
43.35549315322363
 30
0.0
 10
31.98805609009327
 20
42.68369953359991
 30
0.0
 10
31.15951062589068
 20
42.68369953359991
 30
0.0
 10
30.33096516168809
 20
42.68369953359991
 30
0.0
 10
29.6595160516129
 20
43.35549315322363
 30
0.0
 10
29.6595160516129
 20
44.18369410787769
 30
0.0
 10
29.6595160516129
 20
45.0125840816288
 30
0.0
 10
30.33096516168809
 20
45.68368868215547
 30
0.0
 10
31.15951062589068
 20
45.68368868215547
 30
0.0
  0
SPLINE
  5
51
330
48
100
AcDbEntity
  8
LAYER_1
 62
   250
100
AcDbSpline
210
0.0
220
0.0
230
1.0
 70
    11
 71
     3
 72
    17
 73
    13
 74
     0
 42
0.0000000001
 43
0.0000000001
 40
0.0
 40
0.0
 40
0.0
 40
0.0
 40
1.0
 40
1.0
 40
1.0
 40
2.0
 40
2.0
 40
2.0
 40
3.0
 40
3.0
 40
3.0
 40
4.0
 40
4.0
 40
4.0
 40
4.0
 10
31.15951062589068
 20
44.2837741317242
 30
0.0
 10
31.21480440842894
 20
44.2837741317242
 30
0.0
 10
31.25959064973719
 20
44.23898789041595
 30
0.0
 10
31.25959064973719
 20
44.18369410787769
 30
0.0
 10
31.25959064973719
 20
44.12840032533943
 30
0.0
 10
31.21480440842894
 20
44.08361408403118
 30
0.0
 10
31.15951062589068
 20
44.08361408403118
 30
0.0
 10
31.10421684335242
 20
44.08361408403118
 30
0.0
 10
31.05943060204417
 20
44.12840032533943
 30
0.0
 10
31.05943060204417
 20
44.18369410787769
 30
0.0
 10
31.05943060204417
 20
44.23898789041595
 30
0.0
 10
31.10421684335242
 20
44.2837741317242
 30
0.0
 10
31.15951062589068
 20
44.2837741317242
 30
0.0
  0
SPLINE
  5
52
330
48
100
AcDbEntity
  8
LAYER_1
 62
   250
100
AcDbSpline
210
0.0
220
0.0
230
1.0
 70
    11
 71
     3
 72
    17
 73
    13
 74
     0
 42
0.0000000001
 43
0.0000000001
 40
0.0
 40
0.0
 40
0.0
 40
0.0
 40
1.0
 40
1.0
 40
1.0
 40
2.0
 40
2.0
 40
2.0
 40
3.0
 40
3.0
 40
3.0
 40
4.0
 40
4.0
 40
4.0
 40
4.0
 10
31.15985513543921
 20
34.4223605599708
 30
0.0
 10
31.98840059964179
 20
34.4223605599708
 30
0.0
 10
32.65984970971699
 20
33.75125595944413
 30
0.0
 10
32.65984970971699
 20
32.92236598569302
 30
0.0
 10
32.65984970971699
 20
32.09416503103896
 30
0.0
 10
31.98840059964179
 20
31.42237141141524
 30
0.0
 10
31.15985513543921
 20
31.42237141141524
 30
0.0
 10
30.33130967123662
 20
31.42237141141524
 30
0.0
 10
29.65986056116143
 20
32.09416503103896
 30
0.0
 10
29.65986056116143
 20
32.92236598569302
 30
0.0
 10
29.65986056116143
 20
33.75125595944413
 30
0.0
 10
30.33130967123662
 20
34.4223605599708
 30
0.0
 10
31.15985513543921
 20
34.4223605599708
 30
0.0
  0
SPLINE
  5
53
330
48
100
AcDbEntity
  8
LAYER_1
 62
   250
100
AcDbSpline
210
0.0
220
0.0
230
1.0
 70
    11
 71
     3
 72
    17
 73
    13
 74
     0
 42
0.0000000001
 43
0.0000000001
 40
0.0
 40
0.0
 40
0.0
 40
0.0
 40
1.0
 40
1.0
 40
1.0
 40
2.0
 40
2.0
 40
2.0
 40
3.0
 40
3.0
 40
3.0
 40
4.0
 40
4.0
 40
4.0
 40
4.0
 10
31.15985513543921
 20
33.02244600953953
 30
0.0
 10
31.21514891797747
 20
33.02244600953953
 30
0.0
 10
31.25993515928571
 20
32.97765976823128
 30
0.0
 10
31.25993515928571
 20
32.92236598569302
 30
0.0
 10
31.25993515928571
 20
32.86707220315476
 30
0.0
 10
31.21514891797747
 20
32.82228596184651
 30
0.0
 10
31.15985513543921
 20
32.82228596184651
 30
0.0
 10
31.10456135290094
 20
32.82228596184651
 30
0.0
 10
31.0597751115927
 20
32.86707220315476
 30
0.0
 10
31.0597751115927
 20
32.92236598569302
 30
0.0
 10
31.0597751115927
 20
32.97765976823128
 30
0.0
 10
31.10456135290094
 20
33.02244600953953
 30
0.0
 10
31.15985513543921
 20
33.02244600953953
 30
0.0
  0
ENDBLK
  5
4B
330
48
100
AcDbEntity
  8
0
100
AcDbBlockEnd
  0
BLOCK
  5
56
330
54
100
AcDbEntity
  8
0
100
AcDbBlockBegin
  2
BLOCK_4
 70
     0
 71
     0
 10
0.0
 20
0.0
 30
0.0
  3
BLOCK_4
  1

  0
SPLINE
  5
58
330
54
100
AcDbEntity
  8
LAYER_1
 62
   250
100
AcDbSpline
210
0.0
220
0.0
230
1.0
 70
    11
 71
     3
 72
    17
 73
    13
 74
     0
 42
0.0000000001
 43
0.0000000001
 40
0.0
 40
0.0
 40
0.0
 40
0.0
 40
1.0
 40
1.0
 40
1.0
 40
2.0
 40
2.0
 40
2.0
 40
3.0
 40
3.0
 40
3.0
 40
4.0
 40
4.0
 40
4.0
 40
4.0
 10
52.79781085919638
 20
29.52980820659324
 30
0.0
 10
48.37947589936346
 20
29.52980820659324
 30
0.0
 10
44.79795463289773
 20
33.1116739826075
 30
0.0
 10
44.79795463289773
 20
37.52966443289189
 30
0.0
 10
44.79795463289773
 20
41.94834390227333
 30
0.0
 10
48.37947589936346
 20
45.52986516873906
 30
0.0
 10
52.79781085919638
 20
45.52986516873906
 30
0.0
 10
57.2161458190293
 20
45.52986516873906
 30
0.0
 10
60.79766708549503
 20
41.94834390227333
 30
0.0
 10
60.79766708549503
 20
37.52966443289189
 30
0.0
 10
60.79766708549503
 20
33.1116739826075
 30
0.0
 10
57.2161458190293
 20
29.52980820659324
 30
0.0
 10
52.79781085919638
 20
29.52980820659324
 30
0.0
  0
SPLINE
  5
59
330
54
100
AcDbEntity
  8
LAYER_1
 62
   250
100
AcDbSpline
210
0.0
220
0.0
230
1.0
 70
    11
 71
     3
 72
    17
 73
    13
 74
     0
 42
0.0000000001
 43
0.0000000001
 40
0.0
 40
0.0
 40
0.0
 40
0.0
 40
1.0
 40
1.0
 40
1.0
 40
2.0
 40
2.0
 40
2.0
 40
3.0
 40
3.0
 40
3.0
 40
4.0
 40
4.0
 40
4.0
 40
4.0
 10
52.79781085919638
 20
31.52968613578077
 30
0.0
 10
49.48397351193456
 20
31.52968613578077
 30
0.0
 10
46.79783256208527
 20
34.2161715951786
 30
0.0
 10
46.79783256208527
 20
37.52966443289189
 30
0.0
 10
46.79783256208527
 20
40.84384628970223
 30
0.0
 10
49.48397351193456
 20
43.529642730003
 30
0.0
 10
52.79781085919638
 20
43.529642730003
 30
0.0
 10
56.1116482064582
 20
43.529642730003
 30
0.0
 10
58.7977891563075
 20
40.84384628970223
 30
0.0
 10
58.7977891563075
 20
37.52966443289189
 30
0.0
 10
58.7977891563075
 20
34.2161715951786
 30
0.0
 10
56.1116482064582
 20
31.52968613578077
 30
0.0
 10
52.79781085919638
 20
31.52968613578077
 30
0.0
  0
SPLINE
  5
5A
330
54
100
AcDbEntity
  8
LAYER_1
 62
   250
100
AcDbSpline
210
0.0
220
0.0
230
1.0
 70
    11
 71
     3
 72
    17
 73
    13
 74
     0
 42
0.0000000001
 43
0.0000000001
 40
0.0
 40
0.0
 40
0.0
 40
0.0
 40
1.0
 40
1.0
 40
1.0
 40
2.0
 40
2.0
 40
2.0
 40
3.0
 40
3.0
 40
3.0
 40
4.0
 40
4.0
 40
4.0
 40
4.0
 10
52.79781085919638
 20
37.42958440904538
 30
0.0
 10
52.74251707665812
 20
37.42958440904538
 30
0.0
 10
52.69773083534987
 20
37.47437065035363
 30
0.0
 10
52.69773083534987
 20
37.52966443289189
 30
0.0
 10
52.69773083534987
 20
37.58495821543015
 30
0.0
 10
52.74251707665812
 20
37.6297444567384
 30
0.0
 10
52.79781085919638
 20
37.6297444567384
 30
0.0
 10
52.85310464173465
 20
37.6297444567384
 30
0.0
 10
52.89789088304289
 20
37.58495821543015
 30
0.0
 10
52.89789088304289
 20
37.52966443289189
 30
0.0
 10
52.89789088304289
 20
37.47437065035363
 30
0.0
 10
52.85310464173465
 20
37.42958440904538
 30
0.0
 10
52.79781085919638
 20
37.42958440904538
 30
0.0
  0
SPLINE
  5
5B
330
54
100
AcDbEntity
  8
LAYER_1
 62
     7
100
AcDbSpline
210
0.0
220
0.0
230
1.0
 70
    11
 71
     3
 72
    26
 73
    22
 74
     0
 42
0.0000000001
 43
0.0000000001
 40
0.0
 40
0.0
 40
0.0
 40
0.0
 40
1.0
 40
1.0
 40
1.0
 40
2.0
 40
2.0
 40
2.0
 40
3.0
 40
3.0
 40
3.0
 40
4.0
 40
4.0
 40
4.0
 40
5.0
 40
5.0
 40
5.0
 40
6.0
 40
6.0
 40
6.0
 40
7.0
 40
7.0
 40
7.0
 40
7.0
 10
62.29766165977281
 20
37.52966443289189
 30
0.0
 10
62.29766165977281
 20
42.77654485692739
 30
0.0
 10
58.04434677368336
 20
47.02985974301684
 30
0.0
 10
52.79781085919638
 20
47.02985974301684
 30
0.0
 10
47.55127494470941
 20
47.02985974301684
 30
0.0
 10
43.29796005861996
 20
42.77654485692739
 30
0.0
 10
43.29796005861996
 20
37.52966443289189
 30
0.0
 10
43.29796005861996
 20
34.1183308833975
 30
0.0
 10
45.09733343056595
 20
31.12798800220064
 30
0.0
 10
47.79794378145329
 20
29.45263806772365
 30
0.0
 10
47.79794378145329
 20
29.45263806772365
 30
0.0
 10
47.79794378145329
 20
12.0015068871906
 30
0.0
 10
47.79794378145329
 20
12.0015068871906
 30
0.0
 10
47.79794378145329
 20
12.0015068871906
 30
0.0
 10
57.798022446488
 20
12.0015068871906
 30
0.0
 10
57.798022446488
 20
12.0015068871906
 30
0.0
 10
57.798022446488
 20
12.0015068871906
 30
0.0
 10
57.798022446488
 20
29.45263806772365
 30
0.0
 10
57.798022446488
 20
29.45263806772365
 30
0.0
 10
60.49828828782682
 20
31.12798800220064
 30
0.0
 10
62.29766165977281
 20
34.1183308833975
 30
0.0
 10
62.29766165977281
 20
37.52966443289189
 30
0.0
  0
SPLINE
  5
5C
330
54
100
AcDbEntity
  8
LAYER_1
 62
   250
100
AcDbSpline
210
0.0
220
0.0
230
1.0
 70
    11
 71
     3
 72
    17
 73
    13
 74
     0
 42
0.0000000001
 43
0.0000000001
 40
0.0
 40
0.0
 40
0.0
 40
0.0
 40
1.0
 40
1.0
 40
1.0
 40
2.0
 40
2.0
 40
2.0
 40
3.0
 40
3.0
 40
3.0
 40
4.0
 40
4.0
 40
4.0
 40
4.0
 10
52.79815536874491
 20
13.35474039379673
 30
0.0
 10
51.96960990454232
 20
13.35474039379673
 30
0.0
 10
51.29816079446713
 20
14.0258449943234
 30
0.0
 10
51.29816079446713
 20
14.85473496807451
 30
0.0
 10
51.29816079446713
 20
15.68293592272857
 30
0.0
 10
51.96960990454232
 20
16.35472954235229
 30
0.0
 10
52.79815536874491
 20
16.35472954235229
 30
0.0
 10
53.62670083294749
 20
16.35472954235229
 30
0.0
 10
54.29814994302269
 20
15.68293592272857
 30
0.0
 10
54.29814994302269
 20
14.85473496807451
 30
0.0
 10
54.29814994302269
 20
14.0258449943234
 30
0.0
 10
53.62670083294749
 20
13.35474039379673
 30
0.0
 10
52.79815536874491
 20
13.35474039379673
 30
0.0
  0
SPLINE
  5
5D
330
54
100
AcDbEntity
  8
LAYER_1
 62
   250
100
AcDbSpline
210
0.0
220
0.0
230
1.0
 70
    11
 71
     3
 72
    17
 73
    13
 74
     0
 42
0.0000000001
 43
0.0000000001
 40
0.0
 40
0.0
 40
0.0
 40
0.0
 40
1.0
 40
1.0
 40
1.0
 40
2.0
 40
2.0
 40
2.0
 40
3.0
 40
3.0
 40
3.0
 40
4.0
 40
4.0
 40
4.0
 40
4.0
 10
52.79815536874491
 20
14.754654944228
 30
0.0
 10
52.74286158620665
 20
14.754654944228
 30
0.0
 10
52.6980753448984
 20
14.79944118553625
 30
0.0
 10
52.6980753448984
 20
14.85473496807451
 30
0.0
 10
52.6980753448984
 20
14.91002875061277
 30
0.0
 10
52.74286158620665
 20
14.95481499192102
 30
0.0
 10
52.79815536874491
 20
14.95481499192102
 30
0.0
 10
52.85344915128317
 20
14.95481499192102
 30
0.0
 10
52.89823539259142
 20
14.91002875061277
 30
0.0
 10
52.89823539259142
 20
14.85473496807451
 30
0.0
 10
52.89823539259142
 20
14.79944118553625
 30
0.0
 10
52.85344915128317
 20
14.754654944228
 30
0.0
 10
52.79815536874491
 20
14.754654944228
 30
0.0
  0
SPLINE
  5
5E
330
54
100
AcDbEntity
  8
LAYER_1
 62
   250
100
AcDbSpline
210
0.0
220
0.0
230
1.0
 70
    11
 71
     3
 72
    17
 73
    13
 74
     0
 42
0.0000000001
 43
0.0000000001
 40
0.0
 40
0.0
 40
0.0
 40
0.0
 40
1.0
 40
1.0
 40
1.0
 40
2.0
 40
2.0
 40
2.0
 40
3.0
 40
3.0
 40
3.0
 40
4.0
 40
4.0
 40
4.0
 40
4.0
 10
52.79781085919638
 20
24.6160685159814
 30
0.0
 10
51.9692653949938
 20
24.6160685159814
 30
0.0
 10
51.2978162849186
 20
25.28717311650807
 30
0.0
 10
51.2978162849186
 20
26.11606309025918
 30
0.0
 10
51.2978162849186
 20
26.94426404491324
 30
0.0
 10
51.9692653949938
 20
27.61605766453696
 30
0.0
 10
52.79781085919638
 20
27.61605766453696
 30
0.0
 10
53.62635632339897
 20
27.61605766453696
 30
0.0
 10
54.29780543347416
 20
26.94426404491324
 30
0.0
 10
54.29780543347416
 20
26.11606309025918
 30
0.0
 10
54.29780543347416
 20
25.28717311650807
 30
0.0
 10
53.62635632339897
 20
24.6160685159814
 30
0.0
 10
52.79781085919638
 20
24.6160685159814
 30
0.0
  0
SPLINE
  5
5F
330
54
100
AcDbEntity
  8
LAYER_1
 62
   250
100
AcDbSpline
210
0.0
220
0.0
230
1.0
 70
    11
 71
     3
 72
    17
 73
    13
 74
     0
 42
0.0000000001
 43
0.0000000001
 40
0.0
 40
0.0
 40
0.0
 40
0.0
 40
1.0
 40
1.0
 40
1.0
 40
2.0
 40
2.0
 40
2.0
 40
3.0
 40
3.0
 40
3.0
 40
4.0
 40
4.0
 40
4.0
 40
4.0
 10
52.79781085919638
 20
26.01598306641267
 30
0.0
 10
52.74251707665812
 20
26.01598306641267
 30
0.0
 10
52.69773083534987
 20
26.06076930772092
 30
0.0
 10
52.69773083534987
 20
26.11606309025918
 30
0.0
 10
52.69773083534987
 20
26.17135687279744
 30
0.0
 10
52.74251707665812
 20
26.21614311410569
 30
0.0
 10
52.79781085919638
 20
26.21614311410569
 30
0.0
 10
52.85310464173465
 20
26.21614311410569
 30
0.0
 10
52.89789088304289
 20
26.17135687279744
 30
0.0
 10
52.89789088304289
 20
26.11606309025918
 30
0.0
 10
52.89789088304289
 20
26.06076930772092
 30
0.0
 10
52.85310464173465
 20
26.01598306641267
 30
0.0
 10
52.79781085919638
 20
26.01598306641267
 30
0.0
  0
ENDBLK
  5
57
330
54
100
AcDbEntity
  8
0
100
AcDbBlockEnd
  0
BLOCK
  5
62
330
60
100
AcDbEntity
  8
0
100
AcDbBlockBegin
  2
BLOCK_5
 70
     0
 71
     0
 10
0.0
 20
0.0
 30
0.0
  3
BLOCK_5
  1

  0
SPLINE
  5
64
330
60
100
AcDbEntity
  8
LAYER_1
 62
   250
100
AcDbSpline
210
0.0
220
0.0
230
1.0
 70
    11
 71
     3
 72
    17
 73
    13
 74
     0
 42
0.0000000001
 43
0.0000000001
 40
0.0
 40
0.0
 40
0.0
 40
0.0
 40
1.0
 40
1.0
 40
1.0
 40
2.0
 40
2.0
 40
2.0
 40
3.0
 40
3.0
 40
3.0
 40
4.0
 40
4.0
 40
4.0
 40
4.0
 10
74.35739066066412
 20
29.51568331510372
 30
0.0
 10
78.77572562049704
 20
29.51568331510372
 30
0.0
 10
82.35724688696277
 20
25.93381753908946
 30
0.0
 10
82.35724688696277
 20
21.51582708880507
 30
0.0
 10
82.35724688696277
 20
17.09714761942363
 30
0.0
 10
78.77572562049704
 20
13.5156263529579
 30
0.0
 10
74.35739066066412
 20
13.5156263529579
 30
0.0
 10
69.93905570083122
 20
13.5156263529579
 30
0.0
 10
66.35753443436548
 20
17.09714761942363
 30
0.0
 10
66.35753443436548
 20
21.51582708880507
 30
0.0
 10
66.35753443436548
 20
25.93381753908946
 30
0.0
 10
69.93905570083122
 20
29.51568331510372
 30
0.0
 10
74.35739066066412
 20
29.51568331510372
 30
0.0
  0
SPLINE
  5
65
330
60
100
AcDbEntity
  8
LAYER_1
 62
   250
100
AcDbSpline
210
0.0
220
0.0
230
1.0
 70
    11
 71
     3
 72
    17
 73
    13
 74
     0
 42
0.0000000001
 43
0.0000000001
 40
0.0
 40
0.0
 40
0.0
 40
0.0
 40
1.0
 40
1.0
 40
1.0
 40
2.0
 40
2.0
 40
2.0
 40
3.0
 40
3.0
 40
3.0
 40
4.0
 40
4.0
 40
4.0
 40
4.0
 10
74.35739066066412
 20
27.51580538591619
 30
0.0
 10
77.67122800792595
 20
27.51580538591619
 30
0.0
 10
80.35736895777525
 20
24.82931992651837
 30
0.0
 10
80.35736895777525
 20
21.51582708880507
 30
0.0
 10
80.35736895777525
 20
18.20164523199473
 30
0.0
 10
77.67122800792595
 20
15.51584879169395
 30
0.0
 10
74.35739066066412
 20
15.51584879169395
 30
0.0
 10
71.04355331340231
 20
15.51584879169395
 30
0.0
 10
68.35741236355301
 20
18.20164523199473
 30
0.0
 10
68.35741236355301
 20
21.51582708880507
 30
0.0
 10
68.35741236355301
 20
24.82931992651837
 30
0.0
 10
71.04355331340231
 20
27.51580538591619
 30
0.0
 10
74.35739066066412
 20
27.51580538591619
 30
0.0
  0
SPLINE
  5
66
330
60
100
AcDbEntity
  8
LAYER_1
 62
   250
100
AcDbSpline
210
0.0
220
0.0
230
1.0
 70
    11
 71
     3
 72
    17
 73
    13
 74
     0
 42
0.0000000001
 43
0.0000000001
 40
0.0
 40
0.0
 40
0.0
 40
0.0
 40
1.0
 40
1.0
 40
1.0
 40
2.0
 40
2.0
 40
2.0
 40
3.0
 40
3.0
 40
3.0
 40
4.0
 40
4.0
 40
4.0
 40
4.0
 10
74.35739066066412
 20
21.61590711265158
 30
0.0
 10
74.4126844432024
 20
21.61590711265158
 30
0.0
 10
74.45747068451064
 20
21.57112087134333
 30
0.0
 10
74.45747068451064
 20
21.51582708880507
 30
0.0
 10
74.45747068451064
 20
21.46053330626681
 30
0.0
 10
74.4126844432024
 20
21.41574706495856
 30
0.0
 10
74.35739066066412
 20
21.41574706495856
 30
0.0
 10
74.30209687812587
 20
21.41574706495856
 30
0.0
 10
74.25731063681762
 20
21.46053330626681
 30
0.0
 10
74.25731063681762
 20
21.51582708880507
 30
0.0
 10
74.25731063681762
 20
21.57112087134333
 30
0.0
 10
74.30209687812587
 20
21.61590711265158
 30
0.0
 10
74.35739066066412
 20
21.61590711265158
 30
0.0
  0
SPLINE
  5
67
330
60
100
AcDbEntity
  8
LAYER_1
 62
     7
100
AcDbSpline
210
0.0
220
0.0
230
1.0
 70
    11
 71
     3
 72
    26
 73
    22
 74
     0
 42
0.0000000001
 43
0.0000000001
 40
0.0
 40
0.0
 40
0.0
 40
0.0
 40
1.0
 40
1.0
 40
1.0
 40
2.0
 40
2.0
 40
2.0
 40
3.0
 40
3.0
 40
3.0
 40
4.0
 40
4.0
 40
4.0
 40
5.0
 40
5.0
 40
5.0
 40
6.0
 40
6.0
 40
6.0
 40
7.0
 40
7.0
 40
7.0
 40
7.0
 10
64.8575398600877
 20
21.51582708880507
 30
0.0
 10
64.8575398600877
 20
16.26894666476957
 30
0.0
 10
69.11085474617715
 20
12.01563177868012
 30
0.0
 10
74.35739066066412
 20
12.01563177868012
 30
0.0
 10
79.6039265751511
 20
12.01563177868012
 30
0.0
 10
83.85724146124055
 20
16.26894666476957
 30
0.0
 10
83.85724146124055
 20
21.51582708880507
 30
0.0
 10
83.85724146124055
 20
24.92716063829946
 30
0.0
 10
82.05786808929456
 20
27.91750351949632
 30
0.0
 10
79.35725773840721
 20
29.59285345397332
 30
0.0
 10
79.35725773840721
 20
29.59285345397332
 30
0.0
 10
79.35725773840721
 20
47.04398463450637
 30
0.0
 10
79.35725773840721
 20
47.04398463450637
 30
0.0
 10
79.35725773840721
 20
47.04398463450637
 30
0.0
 10
69.35717907337252
 20
47.04398463450637
 30
0.0
 10
69.35717907337252
 20
47.04398463450637
 30
0.0
 10
69.35717907337252
 20
47.04398463450637
 30
0.0
 10
69.35717907337252
 20
29.59285345397332
 30
0.0
 10
69.35717907337252
 20
29.59285345397332
 30
0.0
 10
66.65691323203369
 20
27.91750351949632
 30
0.0
 10
64.8575398600877
 20
24.92716063829946
 30
0.0
 10
64.8575398600877
 20
21.51582708880507
 30
0.0
  0
SPLINE
  5
68
330
60
100
AcDbEntity
  8
LAYER_1
 62
   250
100
AcDbSpline
210
0.0
220
0.0
230
1.0
 70
    11
 71
     3
 72
    17
 73
    13
 74
     0
 42
0.0000000001
 43
0.0000000001
 40
0.0
 40
0.0
 40
0.0
 40
0.0
 40
1.0
 40
1.0
 40
1.0
 40
2.0
 40
2.0
 40
2.0
 40
3.0
 40
3.0
 40
3.0
 40
4.0
 40
4.0
 40
4.0
 40
4.0
 10
74.3570461511156
 20
45.69075112790023
 30
0.0
 10
75.18559161531819
 20
45.69075112790023
 30
0.0
 10
75.85704072539338
 20
45.01964652737356
 30
0.0
 10
75.85704072539338
 20
44.19075655362245
 30
0.0
 10
75.85704072539338
 20
43.36255559896839
 30
0.0
 10
75.18559161531819
 20
42.69076197934467
 30
0.0
 10
74.3570461511156
 20
42.69076197934467
 30
0.0
 10
73.52850068691302
 20
42.69076197934467
 30
0.0
 10
72.85705157683782
 20
43.36255559896839
 30
0.0
 10
72.85705157683782
 20
44.19075655362245
 30
0.0
 10
72.85705157683782
 20
45.01964652737356
 30
0.0
 10
73.52850068691302
 20
45.69075112790023
 30
0.0
 10
74.3570461511156
 20
45.69075112790023
 30
0.0
  0
SPLINE
  5
69
330
60
100
AcDbEntity
  8
LAYER_1
 62
   250
100
AcDbSpline
210
0.0
220
0.0
230
1.0
 70
    11
 71
     3
 72
    17
 73
    13
 74
     0
 42
0.0000000001
 43
0.0000000001
 40
0.0
 40
0.0
 40
0.0
 40
0.0
 40
1.0
 40
1.0
 40
1.0
 40
2.0
 40
2.0
 40
2.0
 40
3.0
 40
3.0
 40
3.0
 40
4.0
 40
4.0
 40
4.0
 40
4.0
 10
74.3570461511156
 20
44.29083657746896
 30
0.0
 10
74.41233993365387
 20
44.29083657746896
 30
0.0
 10
74.45712617496211
 20
44.24605033616071
 30
0.0
 10
74.45712617496211
 20
44.19075655362245
 30
0.0
 10
74.45712617496211
 20
44.13546277108419
 30
0.0
 10
74.41233993365387
 20
44.09067652977594
 30
0.0
 10
74.3570461511156
 20
44.09067652977594
 30
0.0
 10
74.30175236857734
 20
44.09067652977594
 30
0.0
 10
74.2569661272691
 20
44.13546277108419
 30
0.0
 10
74.2569661272691
 20
44.19075655362245
 30
0.0
 10
74.2569661272691
 20
44.24605033616071
 30
0.0
 10
74.30175236857734
 20
44.29083657746896
 30
0.0
 10
74.3570461511156
 20
44.29083657746896
 30
0.0
  0
SPLINE
  5
6A
330
60
100
AcDbEntity
  8
LAYER_1
 62
   250
100
AcDbSpline
210
0.0
220
0.0
230
1.0
 70
    11
 71
     3
 72
    17
 73
    13
 74
     0
 42
0.0000000001
 43
0.0000000001
 40
0.0
 40
0.0
 40
0.0
 40
0.0
 40
1.0
 40
1.0
 40
1.0
 40
2.0
 40
2.0
 40
2.0
 40
3.0
 40
3.0
 40
3.0
 40
4.0
 40
4.0
 40
4.0
 40
4.0
 10
74.35739066066412
 20
34.42942300571556
 30
0.0
 10
75.18593612486671
 20
34.42942300571556
 30
0.0
 10
75.8573852349419
 20
33.75831840518889
 30
0.0
 10
75.8573852349419
 20
32.92942843143778
 30
0.0
 10
75.8573852349419
 20
32.10122747678372
 30
0.0
 10
75.18593612486671
 20
31.42943385716
 30
0.0
 10
74.35739066066412
 20
31.42943385716
 30
0.0
 10
73.52884519646155
 20
31.42943385716
 30
0.0
 10
72.85739608638634
 20
32.10122747678372
 30
0.0
 10
72.85739608638634
 20
32.92942843143778
 30
0.0
 10
72.85739608638634
 20
33.75831840518889
 30
0.0
 10
73.52884519646155
 20
34.42942300571556
 30
0.0
 10
74.35739066066412
 20
34.42942300571556
 30
0.0
  0
SPLINE
  5
6B
330
60
100
AcDbEntity
  8
LAYER_1
 62
   250
100
AcDbSpline
210
0.0
220
0.0
230
1.0
 70
    11
 71
     3
 72
    17
 73
    13
 74
     0
 42
0.0000000001
 43
0.0000000001
 40
0.0
 40
0.0
 40
0.0
 40
0.0
 40
1.0
 40
1.0
 40
1.0
 40
2.0
 40
2.0
 40
2.0
 40
3.0
 40
3.0
 40
3.0
 40
4.0
 40
4.0
 40
4.0
 40
4.0
 10
74.35739066066412
 20
33.02950845528429
 30
0.0
 10
74.4126844432024
 20
33.02950845528429
 30
0.0
 10
74.45747068451064
 20
32.98472221397604
 30
0.0
 10
74.45747068451064
 20
32.92942843143778
 30
0.0
 10
74.45747068451064
 20
32.87413464889952
 30
0.0
 10
74.4126844432024
 20
32.82934840759128
 30
0.0
 10
74.35739066066412
 20
32.82934840759128
 30
0.0
 10
74.30209687812587
 20
32.82934840759128
 30
0.0
 10
74.25731063681762
 20
32.87413464889952
 30
0.0
 10
74.25731063681762
 20
32.92942843143778
 30
0.0
 10
74.25731063681762
 20
32.98472221397604
 30
0.0
 10
74.30209687812587
 20
33.02950845528429
 30
0.0
 10
74.35739066066412
 20
33.02950845528429
 30
0.0
  0
ENDBLK
  5
63
330
60
100
AcDbEntity
  8
0
100
AcDbBlockEnd
  0
BLOCK
  5
6E
330
6C
100
AcDbEntity
  8
0
100
AcDbBlockBegin
  2
BLOCK_6
 70
     0
 71
     0
 10
0.0
 20
0.0
 30
0.0
  3
BLOCK_6
  1

  0
SPLINE
  5
70
330
6C
100
AcDbEntity
  8
LAYER_1
 62
   250
100
AcDbSpline
210
0.0
220
0.0
230
1.0
 70
    11
 71
     3
 72
    17
 73
    13
 74
     0
 42
0.0000000001
 43
0.0000000001
 40
0.0
 40
0.0
 40
0.0
 40
0.0
 40
1.0
 40
1.0
 40
1.0
 40
2.0
 40
2.0
 40
2.0
 40
3.0
 40
3.0
 40
3.0
 40
4.0
 40
4.0
 40
4.0
 40
4.0
 10
96.10490042085225
 20
29.53687065233801
 30
0.0
 10
91.68656546101934
 20
29.53687065233801
 30
0.0
 10
88.1050441945536
 20
33.11873642835226
 30
0.0
 10
88.1050441945536
 20
37.53672687863666
 30
0.0
 10
88.1050441945536
 20
41.95540634801809
 30
0.0
 10
91.68656546101934
 20
45.53692761448382
 30
0.0
 10
96.10490042085225
 20
45.53692761448382
 30
0.0
 10
100.5232353806852
 20
45.53692761448382
 30
0.0
 10
104.1047566471509
 20
41.95540634801809
 30
0.0
 10
104.1047566471509
 20
37.53672687863666
 30
0.0
 10
104.1047566471509
 20
33.11873642835226
 30
0.0
 10
100.5232353806852
 20
29.53687065233801
 30
0.0
 10
96.10490042085225
 20
29.53687065233801
 30
0.0
  0
SPLINE
  5
71
330
6C
100
AcDbEntity
  8
LAYER_1
 62
   250
100
AcDbSpline
210
0.0
220
0.0
230
1.0
 70
    11
 71
     3
 72
    17
 73
    13
 74
     0
 42
0.0000000001
 43
0.0000000001
 40
0.0
 40
0.0
 40
0.0
 40
0.0
 40
1.0
 40
1.0
 40
1.0
 40
2.0
 40
2.0
 40
2.0
 40
3.0
 40
3.0
 40
3.0
 40
4.0
 40
4.0
 40
4.0
 40
4.0
 10
96.10490042085225
 20
31.53674858152554
 30
0.0
 10
92.79106307359044
 20
31.53674858152554
 30
0.0
 10
90.10492212374113
 20
34.22323404092336
 30
0.0
 10
90.10492212374113
 20
37.53672687863666
 30
0.0
 10
90.10492212374113
 20
40.850908735447
 30
0.0
 10
92.79106307359044
 20
43.53670517574777
 30
0.0
 10
96.10490042085225
 20
43.53670517574777
 30
0.0
 10
99.41873776811407
 20
43.53670517574777
 30
0.0
 10
102.1048787179634
 20
40.850908735447
 30
0.0
 10
102.1048787179634
 20
37.53672687863666
 30
0.0
 10
102.1048787179634
 20
34.22323404092336
 30
0.0
 10
99.41873776811407
 20
31.53674858152554
 30
0.0
 10
96.10490042085225
 20
31.53674858152554
 30
0.0
  0
SPLINE
  5
72
330
6C
100
AcDbEntity
  8
LAYER_1
 62
   250
100
AcDbSpline
210
0.0
220
0.0
230
1.0
 70
    11
 71
     3
 72
    17
 73
    13
 74
     0
 42
0.0000000001
 43
0.0000000001
 40
0.0
 40
0.0
 40
0.0
 40
0.0
 40
1.0
 40
1.0
 40
1.0
 40
2.0
 40
2.0
 40
2.0
 40
3.0
 40
3.0
 40
3.0
 40
4.0
 40
4.0
 40
4.0
 40
4.0
 10
96.10490042085225
 20
37.43664685479015
 30
0.0
 10
96.04960663831399
 20
37.43664685479015
 30
0.0
 10
96.00482039700574
 20
37.48143309609839
 30
0.0
 10
96.00482039700574
 20
37.53672687863666
 30
0.0
 10
96.00482039700574
 20
37.59202066117491
 30
0.0
 10
96.04960663831399
 20
37.63680690248316
 30
0.0
 10
96.10490042085225
 20
37.63680690248316
 30
0.0
 10
96.16019420339052
 20
37.63680690248316
 30
0.0
 10
96.20498044469876
 20
37.59202066117491
 30
0.0
 10
96.20498044469876
 20
37.53672687863666
 30
0.0
 10
96.20498044469876
 20
37.48143309609839
 30
0.0
 10
96.16019420339052
 20
37.43664685479015
 30
0.0
 10
96.10490042085225
 20
37.43664685479015
 30
0.0
  0
SPLINE
  5
73
330
6C
100
AcDbEntity
  8
LAYER_1
 62
     7
100
AcDbSpline
210
0.0
220
0.0
230
1.0
 70
    11
 71
     3
 72
    26
 73
    22
 74
     0
 42
0.0000000001
 43
0.0000000001
 40
0.0
 40
0.0
 40
0.0
 40
0.0
 40
1.0
 40
1.0
 40
1.0
 40
2.0
 40
2.0
 40
2.0
 40
3.0
 40
3.0
 40
3.0
 40
4.0
 40
4.0
 40
4.0
 40
5.0
 40
5.0
 40
5.0
 40
6.0
 40
6.0
 40
6.0
 40
7.0
 40
7.0
 40
7.0
 40
7.0
 10
105.6047512214287
 20
37.53672687863666
 30
0.0
 10
105.6047512214287
 20
42.78360730267215
 30
0.0
 10
101.3514363353392
 20
47.03692218876161
 30
0.0
 10
96.10490042085225
 20
47.03692218876161
 30
0.0
 10
90.85836450636528
 20
47.03692218876161
 30
0.0
 10
86.60504962027582
 20
42.78360730267215
 30
0.0
 10
86.60504962027582
 20
37.53672687863666
 30
0.0
 10
86.60504962027582
 20
34.12539332914226
 30
0.0
 10
88.40442299222181
 20
31.13505044794541
 30
0.0
 10
91.10503334310916
 20
29.45970051346841
 30
0.0
 10
91.10503334310916
 20
29.45970051346841
 30
0.0
 10
91.10503334310916
 20
12.00856933293536
 30
0.0
 10
91.10503334310916
 20
12.00856933293536
 30
0.0
 10
91.10503334310916
 20
12.00856933293536
 30
0.0
 10
101.1051120081439
 20
12.00856933293536
 30
0.0
 10
101.1051120081439
 20
12.00856933293536
 30
0.0
 10
101.1051120081439
 20
12.00856933293536
 30
0.0
 10
101.1051120081439
 20
29.45970051346841
 30
0.0
 10
101.1051120081439
 20
29.45970051346841
 30
0.0
 10
103.8053778494827
 20
31.13505044794541
 30
0.0
 10
105.6047512214287
 20
34.12539332914226
 30
0.0
 10
105.6047512214287
 20
37.53672687863666
 30
0.0
  0
SPLINE
  5
74
330
6C
100
AcDbEntity
  8
LAYER_1
 62
   250
100
AcDbSpline
210
0.0
220
0.0
230
1.0
 70
    11
 71
     3
 72
    17
 73
    13
 74
     0
 42
0.0000000001
 43
0.0000000001
 40
0.0
 40
0.0
 40
0.0
 40
0.0
 40
1.0
 40
1.0
 40
1.0
 40
2.0
 40
2.0
 40
2.0
 40
3.0
 40
3.0
 40
3.0
 40
4.0
 40
4.0
 40
4.0
 40
4.0
 10
96.10524493040077
 20
13.36180283954149
 30
0.0
 10
95.2766994661982
 20
13.36180283954149
 30
0.0
 10
94.605250356123
 20
14.03290744006816
 30
0.0
 10
94.605250356123
 20
14.86179741381927
 30
0.0
 10
94.605250356123
 20
15.68999836847333
 30
0.0
 10
95.2766994661982
 20
16.36179198809705
 30
0.0
 10
96.10524493040077
 20
16.36179198809705
 30
0.0
 10
96.93379039460336
 20
16.36179198809705
 30
0.0
 10
97.60523950467855
 20
15.68999836847333
 30
0.0
 10
97.60523950467855
 20
14.86179741381927
 30
0.0
 10
97.60523950467855
 20
14.03290744006816
 30
0.0
 10
96.93379039460336
 20
13.36180283954149
 30
0.0
 10
96.10524493040077
 20
13.36180283954149
 30
0.0
  0
SPLINE
  5
75
330
6C
100
AcDbEntity
  8
LAYER_1
 62
   250
100
AcDbSpline
210
0.0
220
0.0
230
1.0
 70
    11
 71
     3
 72
    17
 73
    13
 74
     0
 42
0.0000000001
 43
0.0000000001
 40
0.0
 40
0.0
 40
0.0
 40
0.0
 40
1.0
 40
1.0
 40
1.0
 40
2.0
 40
2.0
 40
2.0
 40
3.0
 40
3.0
 40
3.0
 40
4.0
 40
4.0
 40
4.0
 40
4.0
 10
96.10524493040077
 20
14.76171738997277
 30
0.0
 10
96.04995114786252
 20
14.76171738997277
 30
0.0
 10
96.00516490655427
 20
14.80650363128101
 30
0.0
 10
96.00516490655427
 20
14.86179741381927
 30
0.0
 10
96.00516490655427
 20
14.91709119635753
 30
0.0
 10
96.04995114786252
 20
14.96187743766578
 30
0.0
 10
96.10524493040077
 20
14.96187743766578
 30
0.0
 10
96.16053871293903
 20
14.96187743766578
 30
0.0
 10
96.20532495424729
 20
14.91709119635753
 30
0.0
 10
96.20532495424729
 20
14.86179741381927
 30
0.0
 10
96.20532495424729
 20
14.80650363128101
 30
0.0
 10
96.16053871293903
 20
14.76171738997277
 30
0.0
 10
96.10524493040077
 20
14.76171738997277
 30
0.0
  0
SPLINE
  5
76
330
6C
100
AcDbEntity
  8
LAYER_1
 62
   250
100
AcDbSpline
210
0.0
220
0.0
230
1.0
 70
    11
 71
     3
 72
    17
 73
    13
 74
     0
 42
0.0000000001
 43
0.0000000001
 40
0.0
 40
0.0
 40
0.0
 40
0.0
 40
1.0
 40
1.0
 40
1.0
 40
2.0
 40
2.0
 40
2.0
 40
3.0
 40
3.0
 40
3.0
 40
4.0
 40
4.0
 40
4.0
 40
4.0
 10
96.10490042085225
 20
24.62313096172616
 30
0.0
 10
95.27635495664967
 20
24.62313096172616
 30
0.0
 10
94.60490584657447
 20
25.29423556225283
 30
0.0
 10
94.60490584657447
 20
26.12312553600394
 30
0.0
 10
94.60490584657447
 20
26.951326490658
 30
0.0
 10
95.27635495664967
 20
27.62312011028172
 30
0.0
 10
96.10490042085225
 20
27.62312011028172
 30
0.0
 10
96.93344588505484
 20
27.62312011028172
 30
0.0
 10
97.60489499513002
 20
26.951326490658
 30
0.0
 10
97.60489499513002
 20
26.12312553600394
 30
0.0
 10
97.60489499513002
 20
25.29423556225283
 30
0.0
 10
96.93344588505484
 20
24.62313096172616
 30
0.0
 10
96.10490042085225
 20
24.62313096172616
 30
0.0
  0
SPLINE
  5
77
330
6C
100
AcDbEntity
  8
LAYER_1
 62
   250
100
AcDbSpline
210
0.0
220
0.0
230
1.0
 70
    11
 71
     3
 72
    17
 73
    13
 74
     0
 42
0.0000000001
 43
0.0000000001
 40
0.0
 40
0.0
 40
0.0
 40
0.0
 40
1.0
 40
1.0
 40
1.0
 40
2.0
 40
2.0
 40
2.0
 40
3.0
 40
3.0
 40
3.0
 40
4.0
 40
4.0
 40
4.0
 40
4.0
 10
96.10490042085225
 20
26.02304551215743
 30
0.0
 10
96.04960663831399
 20
26.02304551215743
 30
0.0
 10
96.00482039700574
 20
26.06783175346568
 30
0.0
 10
96.00482039700574
 20
26.12312553600394
 30
0.0
 10
96.00482039700574
 20
26.1784193185422
 30
0.0
 10
96.04960663831399
 20
26.22320555985045
 30
0.0
 10
96.10490042085225
 20
26.22320555985045
 30
0.0
 10
96.16019420339052
 20
26.22320555985045
 30
0.0
 10
96.20498044469876
 20
26.1784193185422
 30
0.0
 10
96.20498044469876
 20
26.12312553600394
 30
0.0
 10
96.20498044469876
 20
26.06783175346568
 30
0.0
 10
96.16019420339052
 20
26.02304551215743
 30
0.0
 10
96.10490042085225
 20
26.02304551215743
 30
0.0
  0
ENDBLK
  5
6F
330
6C
100
AcDbEntity
  8
0
100
AcDbBlockEnd
  0
BLOCK
  5
7A
330
78
100
AcDbEntity
  8
0
100
AcDbBlockBegin
  2
BLOCK_7
 70
     0
 71
     0
 10
0.0
 20
0.0
 30
0.0
  3
BLOCK_7
  1

  0
SPLINE
  5
7C
330
78
100
AcDbEntity
  8
LAYER_1
 62
   250
100
AcDbSpline
210
0.0
220
0.0
230
1.0
 70
    11
 71
     3
 72
    17
 73
    13
 74
     0
 42
0.0000000001
 43
0.0000000001
 40
0.0
 40
0.0
 40
0.0
 40
0.0
 40
1.0
 40
1.0
 40
1.0
 40
2.0
 40
2.0
 40
2.0
 40
3.0
 40
3.0
 40
3.0
 40
4.0
 40
4.0
 40
4.0
 40
4.0
 10
117.66448022232
 20
29.52274576084848
 30
0.0
 10
122.0828151821529
 20
29.52274576084848
 30
0.0
 10
125.6643364486186
 20
25.94087998483423
 30
0.0
 10
125.6643364486186
 20
21.52288953454983
 30
0.0
 10
125.6643364486186
 20
17.10421006516839
 30
0.0
 10
122.0828151821529
 20
13.52268879870266
 30
0.0
 10
117.66448022232
 20
13.52268879870266
 30
0.0
 10
113.2461452624871
 20
13.52268879870266
 30
0.0
 10
109.6646239960213
 20
17.10421006516839
 30
0.0
 10
109.6646239960213
 20
21.52288953454983
 30
0.0
 10
109.6646239960213
 20
25.94087998483423
 30
0.0
 10
113.2461452624871
 20
29.52274576084848
 30
0.0
 10
117.66448022232
 20
29.52274576084848
 30
0.0
  0
SPLINE
  5
7D
330
78
100
AcDbEntity
  8
LAYER_1
 62
   250
100
AcDbSpline
210
0.0
220
0.0
230
1.0
 70
    11
 71
     3
 72
    17
 73
    13
 74
     0
 42
0.0000000001
 43
0.0000000001
 40
0.0
 40
0.0
 40
0.0
 40
0.0
 40
1.0
 40
1.0
 40
1.0
 40
2.0
 40
2.0
 40
2.0
 40
3.0
 40
3.0
 40
3.0
 40
4.0
 40
4.0
 40
4.0
 40
4.0
 10
117.66448022232
 20
27.52286783166095
 30
0.0
 10
120.9783175695818
 20
27.52286783166095
 30
0.0
 10
123.6644585194311
 20
24.83638237226313
 30
0.0
 10
123.6644585194311
 20
21.52288953454983
 30
0.0
 10
123.6644585194311
 20
18.20870767773949
 30
0.0
 10
120.9783175695818
 20
15.52291123743872
 30
0.0
 10
117.66448022232
 20
15.52291123743872
 30
0.0
 10
114.3506428750582
 20
15.52291123743872
 30
0.0
 10
111.6645019252089
 20
18.20870767773949
 30
0.0
 10
111.6645019252089
 20
21.52288953454983
 30
0.0
 10
111.6645019252089
 20
24.83638237226313
 30
0.0
 10
114.3506428750582
 20
27.52286783166095
 30
0.0
 10
117.66448022232
 20
27.52286783166095
 30
0.0
  0
SPLINE
  5
7E
330
78
100
AcDbEntity
  8
LAYER_1
 62
   250
100
AcDbSpline
210
0.0
220
0.0
230
1.0
 70
    11
 71
     3
 72
    17
 73
    13
 74
     0
 42
0.0000000001
 43
0.0000000001
 40
0.0
 40
0.0
 40
0.0
 40
0.0
 40
1.0
 40
1.0
 40
1.0
 40
2.0
 40
2.0
 40
2.0
 40
3.0
 40
3.0
 40
3.0
 40
4.0
 40
4.0
 40
4.0
 40
4.0
 10
117.66448022232
 20
21.62296955839634
 30
0.0
 10
117.7197740048583
 20
21.62296955839634
 30
0.0
 10
117.7645602461665
 20
21.57818331708809
 30
0.0
 10
117.7645602461665
 20
21.52288953454983
 30
0.0
 10
117.7645602461665
 20
21.46759575201158
 30
0.0
 10
117.7197740048583
 20
21.42280951070333
 30
0.0
 10
117.66448022232
 20
21.42280951070333
 30
0.0
 10
117.6091864397817
 20
21.42280951070333
 30
0.0
 10
117.5644001984735
 20
21.46759575201158
 30
0.0
 10
117.5644001984735
 20
21.52288953454983
 30
0.0
 10
117.5644001984735
 20
21.57818331708809
 30
0.0
 10
117.6091864397817
 20
21.62296955839634
 30
0.0
 10
117.66448022232
 20
21.62296955839634
 30
0.0
  0
SPLINE
  5
7F
330
78
100
AcDbEntity
  8
LAYER_1
 62
     7
100
AcDbSpline
210
0.0
220
0.0
230
1.0
 70
    11
 71
     3
 72
    26
 73
    22
 74
     0
 42
0.0000000001
 43
0.0000000001
 40
0.0
 40
0.0
 40
0.0
 40
0.0
 40
1.0
 40
1.0
 40
1.0
 40
2.0
 40
2.0
 40
2.0
 40
3.0
 40
3.0
 40
3.0
 40
4.0
 40
4.0
 40
4.0
 40
5.0
 40
5.0
 40
5.0
 40
6.0
 40
6.0
 40
6.0
 40
7.0
 40
7.0
 40
7.0
 40
7.0
 10
108.1646294217436
 20
21.52288953454983
 30
0.0
 10
108.1646294217436
 20
16.27600911051433
 30
0.0
 10
112.417944307833
 20
12.02269422442488
 30
0.0
 10
117.66448022232
 20
12.02269422442488
 30
0.0
 10
122.911016136807
 20
12.02269422442488
 30
0.0
 10
127.1643310228964
 20
16.27600911051433
 30
0.0
 10
127.1643310228964
 20
21.52288953454983
 30
0.0
 10
127.1643310228964
 20
24.93422308404422
 30
0.0
 10
125.3649576509504
 20
27.92456596524108
 30
0.0
 10
122.6643473000631
 20
29.59991589971808
 30
0.0
 10
122.6643473000631
 20
29.59991589971808
 30
0.0
 10
122.6643473000631
 20
47.05104708025113
 30
0.0
 10
122.6643473000631
 20
47.05104708025113
 30
0.0
 10
122.6643473000631
 20
47.05104708025113
 30
0.0
 10
112.6642686350284
 20
47.05104708025113
 30
0.0
 10
112.6642686350284
 20
47.05104708025113
 30
0.0
 10
112.6642686350284
 20
47.05104708025113
 30
0.0
 10
112.6642686350284
 20
29.59991589971808
 30
0.0
 10
112.6642686350284
 20
29.59991589971808
 30
0.0
 10
109.9640027936896
 20
27.92456596524108
 30
0.0
 10
108.1646294217436
 20
24.93422308404422
 30
0.0
 10
108.1646294217436
 20
21.52288953454983
 30
0.0
  0
SPLINE
  5
80
330
78
100
AcDbEntity
  8
LAYER_1
 62
   250
100
AcDbSpline
210
0.0
220
0.0
230
1.0
 70
    11
 71
     3
 72
    17
 73
    13
 74
     0
 42
0.0000000001
 43
0.0000000001
 40
0.0
 40
0.0
 40
0.0
 40
0.0
 40
1.0
 40
1.0
 40
1.0
 40
2.0
 40
2.0
 40
2.0
 40
3.0
 40
3.0
 40
3.0
 40
4.0
 40
4.0
 40
4.0
 40
4.0
 10
117.6641357127715
 20
45.69781357364499
 30
0.0
 10
118.4926811769741
 20
45.69781357364499
 30
0.0
 10
119.1641302870492
 20
45.02670897311832
 30
0.0
 10
119.1641302870492
 20
44.19781899936721
 30
0.0
 10
119.1641302870492
 20
43.36961804471315
 30
0.0
 10
118.4926811769741
 20
42.69782442508944
 30
0.0
 10
117.6641357127715
 20
42.69782442508944
 30
0.0
 10
116.8355902485689
 20
42.69782442508944
 30
0.0
 10
116.1641411384937
 20
43.36961804471315
 30
0.0
 10
116.1641411384937
 20
44.19781899936721
 30
0.0
 10
116.1641411384937
 20
45.02670897311832
 30
0.0
 10
116.8355902485689
 20
45.69781357364499
 30
0.0
 10
117.6641357127715
 20
45.69781357364499
 30
0.0
  0
SPLINE
  5
81
330
78
100
AcDbEntity
  8
LAYER_1
 62
   250
100
AcDbSpline
210
0.0
220
0.0
230
1.0
 70
    11
 71
     3
 72
    17
 73
    13
 74
     0
 42
0.0000000001
 43
0.0000000001
 40
0.0
 40
0.0
 40
0.0
 40
0.0
 40
1.0
 40
1.0
 40
1.0
 40
2.0
 40
2.0
 40
2.0
 40
3.0
 40
3.0
 40
3.0
 40
4.0
 40
4.0
 40
4.0
 40
4.0
 10
117.6641357127715
 20
44.29789902321372
 30
0.0
 10
117.7194294953097
 20
44.29789902321372
 30
0.0
 10
117.764215736618
 20
44.25311278190547
 30
0.0
 10
117.764215736618
 20
44.19781899936721
 30
0.0
 10
117.764215736618
 20
44.14252521682896
 30
0.0
 10
117.7194294953097
 20
44.09773897552071
 30
0.0
 10
117.6641357127715
 20
44.09773897552071
 30
0.0
 10
117.6088419302332
 20
44.09773897552071
 30
0.0
 10
117.564055688925
 20
44.14252521682896
 30
0.0
 10
117.564055688925
 20
44.19781899936721
 30
0.0
 10
117.564055688925
 20
44.25311278190547
 30
0.0
 10
117.6088419302332
 20
44.29789902321372
 30
0.0
 10
117.6641357127715
 20
44.29789902321372
 30
0.0
  0
SPLINE
  5
82
330
78
100
AcDbEntity
  8
LAYER_1
 62
   250
100
AcDbSpline
210
0.0
220
0.0
230
1.0
 70
    11
 71
     3
 72
    17
 73
    13
 74
     0
 42
0.0000000001
 43
0.0000000001
 40
0.0
 40
0.0
 40
0.0
 40
0.0
 40
1.0
 40
1.0
 40
1.0
 40
2.0
 40
2.0
 40
2.0
 40
3.0
 40
3.0
 40
3.0
 40
4.0
 40
4.0
 40
4.0
 40
4.0
 10
117.66448022232
 20
34.43648545146033
 30
0.0
 10
118.4930256865226
 20
34.43648545146033
 30
0.0
 10
119.1644747965978
 20
33.76538085093365
 30
0.0
 10
119.1644747965978
 20
32.93649087718254
 30
0.0
 10
119.1644747965978
 20
32.10828992252848
 30
0.0
 10
118.4930256865226
 20
31.43649630290477
 30
0.0
 10
117.66448022232
 20
31.43649630290477
 30
0.0
 10
116.8359347581174
 20
31.43649630290477
 30
0.0
 10
116.1644856480422
 20
32.10828992252848
 30
0.0
 10
116.1644856480422
 20
32.93649087718254
 30
0.0
 10
116.1644856480422
 20
33.76538085093365
 30
0.0
 10
116.8359347581174
 20
34.43648545146033
 30
0.0
 10
117.66448022232
 20
34.43648545146033
 30
0.0
  0
SPLINE
  5
83
330
78
100
AcDbEntity
  8
LAYER_1
 62
   250
100
AcDbSpline
210
0.0
220
0.0
230
1.0
 70
    11
 71
     3
 72
    17
 73
    13
 74
     0
 42
0.0000000001
 43
0.0000000001
 40
0.0
 40
0.0
 40
0.0
 40
0.0
 40
1.0
 40
1.0
 40
1.0
 40
2.0
 40
2.0
 40
2.0
 40
3.0
 40
3.0
 40
3.0
 40
4.0
 40
4.0
 40
4.0
 40
4.0
 10
117.66448022232
 20
33.03657090102905
 30
0.0
 10
117.7197740048583
 20
33.03657090102905
 30
0.0
 10
117.7645602461665
 20
32.99178465972081
 30
0.0
 10
117.7645602461665
 20
32.93649087718254
 30
0.0
 10
117.7645602461665
 20
32.88119709464429
 30
0.0
 10
117.7197740048583
 20
32.83641085333604
 30
0.0
 10
117.66448022232
 20
32.83641085333604
 30
0.0
 10
117.6091864397817
 20
32.83641085333604
 30
0.0
 10
117.5644001984735
 20
32.88119709464429
 30
0.0
 10
117.5644001984735
 20
32.93649087718254
 30
0.0
 10
117.5644001984735
 20
32.99178465972081
 30
0.0
 10
117.6091864397817
 20
33.03657090102905
 30
0.0
 10
117.66448022232
 20
33.03657090102905
 30
0.0
  0
ENDBLK
  5
7B
330
78
100
AcDbEntity
  8
0
100
AcDbBlockEnd
  0
ENDSEC
  0
SECTION
  2
ENTITIES
  0
INSERT
  5
3D
330
1F
100
AcDbEntity
  8
LAYER_1
100
AcDbBlockReference
  2
BLOCK_2
 10
0.0
 20
0.0
 30
0.0
  0
INSERT
  5
49
330
1F
100
AcDbEntity
  8
LAYER_1
100
AcDbBlockReference
  2
BLOCK_3
 10
0.0
 20
0.0
 30
0.0
  0
INSERT
  5
55
330
1F
100
AcDbEntity
  8
LAYER_1
100
AcDbBlockReference
  2
BLOCK_4
 10
0.0
 20
0.0
 30
0.0
  0
INSERT
  5
61
330
1F
100
AcDbEntity
  8
LAYER_1
100
AcDbBlockReference
  2
BLOCK_5
 10
0.0
 20
0.0
 30
0.0
  0
INSERT
  5
6D
330
1F
100
AcDbEntity
  8
LAYER_1
100
AcDbBlockReference
  2
BLOCK_6
 10
0.0
 20
0.0
 30
0.0
  0
INSERT
  5
79
330
1F
100
AcDbEntity
  8
LAYER_1
100
AcDbBlockReference
  2
BLOCK_7
 10
0.0
 20
0.0
 30
0.0
  0
POLYLINE
  5
84
330
1F
100
AcDbEntity
  8
LAYER_1
 62
     7
100
AcDb2dPolyline
 66
     1
 10
0.0
 20
0.0
 30
0.0
  0
VERTEX
  5
85
330
84
100
AcDbEntity
  8
LAYER_1
 62
     7
100
AcDbVertex
100
AcDb2dVertex
 10
149.8792235953427
 20
43.02269692934849
 30
0.0
  0
VERTEX
  5
86
330
84
100
AcDbEntity
  8
LAYER_1
 62
     7
100
AcDbVertex
100
AcDb2dVertex
 10
159.9547498515044
 20
43.02269692934849
 30
0.0
  0
VERTEX
  5
87
330
84
100
AcDbEntity
  8
LAYER_1
 62
     7
100
AcDbVertex
100
AcDb2dVertex
 10
159.9547498515044
 20
47.02279729727208
 30
0.0
  0
VERTEX
  5
88
330
84
100
AcDbEntity
  8
LAYER_1
 62
     7
100
AcDbVertex
100
AcDb2dVertex
 10
129.8794107748218
 20
47.02279729727208
 30
0.0
  0
VERTEX
  5
89
330
84
100
AcDbEntity
  8
LAYER_1
 62
     7
100
AcDbVertex
100
AcDb2dVertex
 10
129.8794107748218
 20
43.02269692934849
 30
0.0
  0
VERTEX
  5
8A
330
84
100
AcDbEntity
  8
LAYER_1
 62
     7
100
AcDbVertex
100
AcDb2dVertex
 10
139.879144930308
 20
43.02269692934849
 30
0.0
  0
VERTEX
  5
8B
330
84
100
AcDbEntity
  8
LAYER_1
 62
     7
100
AcDbVertex
100
AcDb2dVertex
 10
139.879144930308
 20
26.02252874783465
 30
0.0
  0
VERTEX
  5
8C
330
84
100
AcDbEntity
  8
LAYER_1
 62
     7
100
AcDbVertex
100
AcDb2dVertex
 10
149.8792235953427
 20
26.02252874783465
 30
0.0
  0
VERTEX
  5
8D
330
84
100
AcDbEntity
  8
LAYER_1
 62
     7
100
AcDbVertex
100
AcDb2dVertex
 10
149.8792235953427
 20
43.02269692934849
 30
0.0
  0
SEQEND
  5
8E
330
84
100
AcDbEntity
  8
LAYER_1
  0
POLYLINE
  5
8F
330
1F
100
AcDbEntity
  8
LAYER_1
 62
     7
100
AcDb2dPolyline
 66
     1
 10
0.0
 20
0.0
 30
0.0
  0
VERTEX
  5
90
330
8F
100
AcDbEntity
  8
LAYER_1
 62
     7
100
AcDbVertex
100
AcDb2dVertex
 10
157.2162434502793
 20
11.99444444144583
 30
0.0
  0
VERTEX
  5
91
330
8F
100
AcDbEntity
  8
LAYER_1
 62
     7
100
AcDbVertex
100
AcDb2dVertex
 10
157.2162434502793
 20
31.99442951674098
 30
0.0
  0
VERTEX
  5
92
330
8F
100
AcDbEntity
  8
LAYER_1
 62
     7
100
AcDbVertex
100
AcDb2dVertex
 10
167.2166666248625
 20
31.99442951674098
 30
0.0
  0
VERTEX
  5
93
330
8F
100
AcDbEntity
  8
LAYER_1
 62
     7
100
AcDbVertex
100
AcDb2dVertex
 10
167.2166666248625
 20
11.99444444144583
 30
0.0
  0
VERTEX
  5
94
330
8F
100
AcDbEntity
  8
LAYER_1
 62
     7
100
AcDbVertex
100
AcDb2dVertex
 10
157.2162434502793
 20
11.99444444144583
 30
0.0
  0
SEQEND
  5
95
330
8F
100
AcDbEntity
  8
LAYER_1
  0
ENDSEC
  0
SECTION
  2
OBJECTS
  0
DICTIONARY
  5
C
330
0
100
AcDbDictionary
  3
ACAD_GROUP
350
D
  3
ACAD_LAYOUT
350
1A
  3
ACAD_MLINESTYLE
350
17
  3
ACAD_PLOTSETTINGS
350
19
  3
ACAD_TABLESTYLE
350
96
  3
ACAD_VISUALSTYLE
350
2A
1001
ACAD
1000
TREAT_AS_HARD
1070
     0
  0
DICTIONARY
  5
D
102
{ACAD_REACTORS
330
C
102
}
330
C
100
AcDbDictionary
1001
ACAD
1000
TREAT_AS_HARD
1070
     0
  0
DICTIONARY
  5
1A
102
{ACAD_REACTORS
330
C
102
}
330
C
100
AcDbDictionary
1001
ACAD
1000
TREAT_AS_HARD
1070
     0
  0
DICTIONARY
  5
17
102
{ACAD_REACTORS
330
C
102
}
330
C
100
AcDbDictionary
  3
STANDARD
350
18
1001
ACAD
1000
TREAT_AS_HARD
1070
     0
  0
DICTIONARY
  5
19
102
{ACAD_REACTORS
330
C
102
}
330
C
100
AcDbDictionary
1001
ACAD
1000
TREAT_AS_HARD
1070
     0
  0
DICTIONARY
  5
96
102
{ACAD_REACTORS
330
C
102
}
330
C
100
AcDbDictionary
1001
ACAD
1000
TREAT_AS_HARD
1070
     0
  0
DICTIONARY
  5
2A
102
{ACAD_REACTORS
330
C
102
}
330
C
100
AcDbDictionary
  3
2DWIREFRAME
350
2F
  3
3D_HIDDEN
350
31
  3
3DWIREFRAME
350
30
  3
BASIC
350
32
  3
BRIGHTEN
350
36
  3
COLORCHANGE
350
3A
  3
CONCEPTUAL
350
34
  3
DIM
350
35
  3
FACEPATTERN
350
39
  3
FLAT
350
2B
  3
FLATWITHEDGES
350
2C
  3
GOURAUD
350
2D
  3
GOURAUDWITHEDGES
350
2E
  3
LINEPATTERN
350
38
  3
REALISTIC
350
33
  3
THICKEN
350
37
1001
ACAD
1000
TREAT_AS_HARD
1070
     0
  0
MLINESTYLE
  5
18
102
{ACAD_REACTORS
330
17
102
}
330
17
100
AcDbMlineStyle
  2
Standard
 70
     0
  3

 62
   256
 51
90.0
 52
90.0
 71
     2
 49
0.5
 62
   256
  6
BYLAYER
 49
-0.5
 62
   256
  6
BYLAYER
  0
VISUALSTYLE
  5
2F
102
{ACAD_REACTORS
330
2A
102
}
330
2A
100
AcDbVisualStyle
  2
2dWireframe
 70
     4
 71
     0
 72
     2
 73
     0
 90
        0
 40
-0.6
 41
-30.0
 62
     5
 63
     7
 74
     1
 91
        4
 64
     7
 65
   257
 75
     1
175
     1
 42
1.0
 92
        0
 66
   257
 43
1.0
 76
     1
 77
     6
 78
     2
 67
     7
 79
     5
170
     0
171
     0
290
     0
174
     0
 93
        1
 44
0.0
173
     0
291
     0
 45
0.0
1001
ACAD
1000
AcDbSavedByObjectVersion
1070
     0
  0
VISUALSTYLE
  5
31
102
{ACAD_REACTORS
330
2A
102
}
330
2A
100
AcDbVisualStyle
  2
3D Hidden
 70
     6
 71
     1
 72
     2
 73
     2
 90
        0
 40
-0.6
 41
-30.0
 62
     5
 63
     7
 74
     2
 91
        2
 64
     7
 65
   257
 75
     2
175
     1
 42
40.0
 92
        0
 66
   257
 43
1.0
 76
     1
 77
     6
 78
     2
 67
     7
 79
     3
170
     0
171
     0
290
     0
174
     0
 93
        1
 44
0.0
173
     0
291
     0
 45
0.0
1001
ACAD
1000
AcDbSavedByObjectVersion
1070
     0
  0
VISUALSTYLE
  5
30
102
{ACAD_REACTORS
330
2A
102
}
330
2A
100
AcDbVisualStyle
  2
3dWireframe
 70
     5
 71
     0
 72
     2
 73
     0
 90
        0
 40
-0.6
 41
-30.0
 62
     5
 63
     7
 74
     1
 91
        4
 64
     7
 65
   257
 75
     1
175
     1
 42
1.0
 92
        0
 66
   257
 43
1.0
 76
     1
 77
     6
 78
     2
 67
     7
 79
     5
170
     0
171
     0
290
     0
174
     0
 93
        1
 44
0.0
173
     0
291
     0
 45
0.0
1001
ACAD
1000
AcDbSavedByObjectVersion
1070
     0
  0
VISUALSTYLE
  5
32
102
{ACAD_REACTORS
330
2A
102
}
330
2A
100
AcDbVisualStyle
  2
Basic
 70
     7
 71
     1
 72
     0
 73
     1
 90
        0
 40
-0.6
 41
-30.0
 62
     5
 63
     7
 74
     0
 91
        4
 64
     7
 65
   257
 75
     1
175
     1
 42
1.0
 92
        8
 66
     7
 43
1.0
 76
     1
 77
     6
 78
     2
 67
     7
 79
     5
170
     0
171
     0
290
     0
174
     0
 93
        1
 44
0.0
173
     0
291
     1
 45
0.0
1001
ACAD
1000
AcDbSavedByObjectVersion
1070
     0
  0
VISUALSTYLE
  5
36
102
{ACAD_REACTORS
330
2A
102
}
330
2A
100
AcDbVisualStyle
  2
Brighten
 70
    12
 71
     2
 72
     2
 73
     0
 90
        0
 40
-0.6
 41
-30.0
 62
     5
 63
     7
 74
     1
 91
        4
 64
     7
 65
   257
 75
     1
175
     1
 42
1.0
 92
        8
 66
     7
 43
1.0
 76
     1
 77
     6
 78
     2
 67
     7
 79
     5
170
     0
171
     0
290
     0
174
     0
 93
        1
 44
50.0
173
     0
291
     1
 45
0.0
1001
ACAD
1000
AcDbSavedByObjectVersion
1070
     0
  0
VISUALSTYLE
  5
3A
102
{ACAD_REACTORS
330
2A
102
}
330
2A
100
AcDbVisualStyle
  2
ColorChange
 70
    16
 71
     2
 72
     2
 73
     3
 90
        0
 40
-0.6
 41
-30.0
 62
     5
 63
     8
 74
     1
 91
        4
 64
     7
 65
   257
 75
     1
175
     1
 42
1.0
 92
        8
 66
     8
 43
1.0
 76
     1
 77
     6
 78
     2
 67
     7
 79
     5
170
     0
171
     0
290
     0
174
     0
 93
        1
 44
0.0
173
     0
291
     1
 45
0.0
1001
ACAD
1000
AcDbSavedByObjectVersion
1070
     0
  0
VISUALSTYLE
  5
34
102
{ACAD_REACTORS
330
2A
102
}
330
2A
100
AcDbVisualStyle
  2
Conceptual
 70
     9
 71
     3
 72
     2
 73
     0
 90
        0
 40
-0.6
 41
-30.0
 62
     5
 63
     7
 74
     2
 91
        2
 64
     7
 65
   257
 75
     1
175
     1
 42
40.0
 92
        8
 66
     7
 43
1.0
 76
     1
 77
     6
 78
     2
 67
     7
 79
     3
170
     0
171
     0
290
     0
174
     0
 93
        1
 44
0.0
173
     0
291
     0
 45
0.0
1001
ACAD
1000
AcDbSavedByObjectVersion
1070
     0
  0
VISUALSTYLE
  5
35
102
{ACAD_REACTORS
330
2A
102
}
330
2A
100
AcDbVisualStyle
  2
Dim
 70
    11
 71
     2
 72
     2
 73
     0
 90
        0
 40
-0.6
 41
-30.0
 62
     5
 63
     7
 74
     1
 91
        4
 64
     7
 65
   257
 75
     1
175
     1
 42
1.0
 92
        8
 66
     7
 43
1.0
 76
     1
 77
     6
 78
     2
 67
     7
 79
     5
170
     0
171
     0
290
     0
174
     0
 93
        1
 44
-50.0
173
     0
291
     1
 45
0.0
1001
ACAD
1000
AcDbSavedByObjectVersion
1070
     0
  0
VISUALSTYLE
  5
39
102
{ACAD_REACTORS
330
2A
102
}
330
2A
100
AcDbVisualStyle
  2
Facepattern
 70
    15
 71
     2
 72
     2
 73
     0
 90
        0
 40
-0.6
 41
-30.0
 62
     5
 63
     7
 74
     1
 91
        4
 64
     7
 65
   257
 75
     1
175
     1
 42
1.0
 92
        8
 66
     7
 43
1.0
 76
     1
 77
     6
 78
     2
 67
     7
 79
     5
170
     0
171
     0
290
     0
174
     0
 93
        1
 44
0.0
173
     0
291
     1
 45
0.0
1001
ACAD
1000
AcDbSavedByObjectVersion
1070
     0
  0
VISUALSTYLE
  5
2B
102
{ACAD_REACTORS
330
2A
102
}
330
2A
100
AcDbVisualStyle
  2
Flat
 70
     0
 71
     2
 72
     1
 73
     1
 90
        2
 40
-0.6
 41
30.0
 62
     5
 63
     7
 74
     0
 91
        4
 64
     7
 65
   257
 75
     1
175
     1
 42
1.0
 92
        8
 66
     7
 43
1.0
 76
     1
 77
     6
 78
     2
 67
     7
 79
     5
170
     0
171
     0
290
     0
174
     0
 93
       13
 44
0.0
173
     0
291
     1
 45
0.0
1001
ACAD
1000
AcDbSavedByObjectVersion
1070
     0
  0
VISUALSTYLE
  5
2C
102
{ACAD_REACTORS
330
2A
102
}
330
2A
100
AcDbVisualStyle
  2
FlatWithEdges
 70
     1
 71
     2
 72
     1
 73
     1
 90
        2
 40
-0.6
 41
30.0
 62
     5
 63
     7
 74
     1
 91
        4
 64
     7
 65
   257
 75
     1
175
     1
 42
1.0
 92
        0
 66
   257
 43
1.0
 76
     1
 77
     6
 78
     2
 67
     7
 79
     5
170
     0
171
     0
290
     0
174
     0
 93
       13
 44
0.0
173
     0
291
     1
 45
0.0
1001
ACAD
1000
AcDbSavedByObjectVersion
1070
     0
  0
VISUALSTYLE
  5
2D
102
{ACAD_REACTORS
330
2A
102
}
330
2A
100
AcDbVisualStyle
  2
Gouraud
 70
     2
 71
     2
 72
     2
 73
     1
 90
        2
 40
-0.6
 41
30.0
 62
     5
 63
     7
 74
     0
 91
        4
 64
     7
 65
   257
 75
     1
175
     1
 42
1.0
 92
        0
 66
     7
 43
1.0
 76
     1
 77
     6
 78
     2
 67
     7
 79
     5
170
     0
171
     0
290
     0
174
     0
 93
       13
 44
0.0
173
     0
291
     1
 45
0.0
1001
ACAD
1000
AcDbSavedByObjectVersion
1070
     0
  0
VISUALSTYLE
  5
2E
102
{ACAD_REACTORS
330
2A
102
}
330
2A
100
AcDbVisualStyle
  2
GouraudWithEdges
 70
     3
 71
     2
 72
     2
 73
     1
 90
        2
 40
-0.6
 41
30.0
 62
     5
 63
     7
 74
     1
 91
        4
 64
     7
 65
   257
 75
     1
175
     1
 42
1.0
 92
        0
 66
   257
 43
1.0
 76
     1
 77
     6
 78
     2
 67
     7
 79
     5
170
     0
171
     0
290
     0
174
     0
 93
       13
 44
0.0
173
     0
291
     1
 45
0.0
1001
ACAD
1000
AcDbSavedByObjectVersion
1070
     0
  0
VISUALSTYLE
  5
38
102
{ACAD_REACTORS
330
2A
102
}
330
2A
100
AcDbVisualStyle
  2
Linepattern
 70
    14
 71
     2
 72
     2
 73
     0
 90
        0
 40
-0.6
 41
-30.0
 62
     5
 63
     7
 74
     1
 91
        4
 64
     7
 65
   257
 75
     7
175
     7
 42
1.0
 92
        8
 66
     7
 43
1.0
 76
     1
 77
     6
 78
     2
 67
     7
 79
     5
170
     0
171
     0
290
     0
174
     0
 93
        1
 44
0.0
173
     0
291
     1
 45
0.0
1001
ACAD
1000
AcDbSavedByObjectVersion
1070
     0
  0
VISUALSTYLE
  5
33
102
{ACAD_REACTORS
330
2A
102
}
330
2A
100
AcDbVisualStyle
  2
Realistic
 70
     8
 71
     2
 72
     2
 73
     0
 90
        0
 40
-0.6
 41
-30.0
 62
     5
 63
     7
 74
     1
 91
        0
 64
     7
 65
   257
 75
     1
175
     1
 42
1.0
 92
        8
 66
     8
 43
1.0
 76
     1
 77
     6
 78
     2
 67
     7
 79
     5
170
     0
171
     0
290
     0
174
     0
 93
       13
 44
0.0
173
     0
291
     0
 45
0.0
1001
ACAD
1000
AcDbSavedByObjectVersion
1070
     0
  0
VISUALSTYLE
  5
37
102
{ACAD_REACTORS
330
2A
102
}
330
2A
100
AcDbVisualStyle
  2
Thicken
 70
    13
 71
     2
 72
     2
 73
     0
 90
        0
 40
-0.6
 41
-30.0
 62
     5
 63
     7
 74
     1
 91
        4
 64
     7
 65
   257
 75
     1
175
     1
 42
1.0
 92
       12
 66
     7
 43
1.0
 76
     1
 77
     6
 78
     2
 67
     7
 79
     5
170
     0
171
     0
290
     0
174
     0
 93
        1
 44
0.0
173
     0
291
     1
 45
0.0
1001
ACAD
1000
AcDbSavedByObjectVersion
1070
     0
  0
ENDSEC
  0
EOF
