  0
SECTION
  2
HEADER
  9
$ACADVER
  1
AC1012
  9
$DWGCODEPAGE
  3
ansi_1252
  9
$INSBASE
 10
0.0
 20
0.0
 30
0.0
  9
$EXTMIN
 10
1.000000000000000E+20
 20
1.000000000000000E+20
 30
1.000000000000000E+20
  9
$EXTMAX
 10
-1.000000000000000E+20
 20
-1.000000000000000E+20
 30
-1.000000000000000E+20
  9
$LIMMIN
 10
0.0
 20
0.0
  9
$LIMMAX
 10
12.0
 20
9.0
  9
$ORTHOMODE
 70
     0
  9
$REGENMODE
 70
     1
  9
$FILLMODE
 70
     1
  9
$QTEXTMODE
 70
     0
  9
$MIRRTEXT
 70
     1
  9
$DRAGMODE
 70
     2
  9
$LTSCALE
 40
1.0
  9
$OSMODE
 70
    37
  9
$ATTMODE
 70
     1
  9
$TEXTSIZE
 40
0.2
  9
$TRACEWID
 40
0.05
  9
$TEXTSTYLE
  7
STANDARD
  9
$CLAYER
  8
0
  9
$CELTYPE
  6
BYLAYER
  9
$CECOLOR
 62
   256
  9
$CELTSCALE
 40
1.0
  9
$DELOBJ
 70
     1
  9
$DISPSILH
 70
     0
  9
$DIMSCALE
 40
1.0
  9
$DIMASZ
 40
0.18
  9
$DIMEXO
 40
0.0625
  9
$DIMDLI
 40
0.38
  9
$DIMRND
 40
0.0
  9
$DIMDLE
 40
0.0
  9
$DIMEXE
 40
0.18
  9
$DIMTP
 40
0.0
  9
$DIMTM
 40
0.0
  9
$DIMTXT
 40
0.18
  9
$DIMCEN
 40
0.09
  9
$DIMTSZ
 40
0.0
  9
$DIMTOL
 70
     0
  9
$DIMLIM
 70
     0
  9
$DIMTIH
 70
     1
  9
$DIMTOH
 70
     1
  9
$DIMSE1
 70
     0
  9
$DIMSE2
 70
     0
  9
$DIMTAD
 70
     0
  9
$DIMZIN
 70
     0
  9
$DIMBLK
  1

  9
$DIMASO
 70
     1
  9
$DIMSHO
 70
     1
  9
$DIMPOST
  1

  9
$DIMAPOST
  1

  9
$DIMALT
 70
     0
  9
$DIMALTD
 70
     2
  9
$DIMALTF
 40
25.4
  9
$DIMLFAC
 40
1.0
  9
$DIMTOFL
 70
     0
  9
$DIMTVP
 40
0.0
  9
$DIMTIX
 70
     0
  9
$DIMSOXD
 70
     0
  9
$DIMSAH
 70
     0
  9
$DIMBLK1
  1

  9
$DIMBLK2
  1

  9
$DIMSTYLE
  2
STANDARD
  9
$DIMCLRD
 70
     0
  9
$DIMCLRE
 70
     0
  9
$DIMCLRT
 70
     0
  9
$DIMTFAC
 40
1.0
  9
$DIMGAP
 40
0.09
  9
$DIMJUST
 70
     0
  9
$DIMSD1
 70
     0
  9
$DIMSD2
 70
     0
  9
$DIMTOLJ
 70
     1
  9
$DIMTZIN
 70
     0
  9
$DIMALTZ
 70
     0
  9
$DIMALTTZ
 70
     0
  9
$DIMFIT
 70
     3
  9
$DIMUPT
 70
     0
  9
$DIMUNIT
 70
     2
  9
$DIMDEC
 70
     4
  9
$DIMTDEC
 70
     4
  9
$DIMALTU
 70
     2
  9
$DIMALTTD
 70
     2
  9
$DIMTXSTY
  7
STANDARD
  9
$DIMAUNIT
 70
     0
  9
$LUNITS
 70
     2
  9
$LUPREC
 70
     4
  9
$SKETCHINC
 40
0.1
  9
$FILLETRAD
 40
0.5
  9
$AUNITS
 70
     0
  9
$AUPREC
 70
     0
  9
$MENU
  1
.
  9
$ELEVATION
 40
0.0
  9
$PELEVATION
 40
0.0
  9
$THICKNESS
 40
0.0
  9
$LIMCHECK
 70
     0
  9
$CHAMFERA
 40
0.5
  9
$CHAMFERB
 40
0.5
  9
$CHAMFERC
 40
1.0
  9
$CHAMFERD
 40
0.0
  9
$SKPOLY
 70
     0
  9
$TDCREATE
 40
2456197.542372766
  9
$TDUPDATE
 40
2456197.542372778
  9
$TDINDWG
 40
0.0000000116
  9
$TDUSRTIMER
 40
0.0000000116
  9
$USRTIMER
 70
     1
  9
$ANGBASE
 50
0.0
  9
$ANGDIR
 70
     0
  9
$PDMODE
 70
     0
  9
$PDSIZE
 40
0.0
  9
$PLINEWID
 40
0.0
  9
$COORDS
 70
     1
  9
$SPLFRAME
 70
     0
  9
$SPLINETYPE
 70
     6
  9
$SPLINESEGS
 70
     8
  9
$ATTDIA
 70
     0
  9
$ATTREQ
 70
     1
  9
$HANDLING
 70
     1
  9
$HANDSEED
  5
73
  9
$SURFTAB1
 70
     6
  9
$SURFTAB2
 70
     6
  9
$SURFTYPE
 70
     6
  9
$SURFU
 70
     6
  9
$SURFV
 70
     6
  9
$UCSNAME
  2

  9
$UCSORG
 10
0.0
 20
0.0
 30
0.0
  9
$UCSXDIR
 10
1.0
 20
0.0
 30
0.0
  9
$UCSYDIR
 10
0.0
 20
1.0
 30
0.0
  9
$PUCSNAME
  2

  9
$PUCSORG
 10
0.0
 20
0.0
 30
0.0
  9
$PUCSXDIR
 10
1.0
 20
0.0
 30
0.0
  9
$PUCSYDIR
 10
0.0
 20
1.0
 30
0.0
  9
$USERI1
 70
     0
  9
$USERI2
 70
     0
  9
$USERI3
 70
     0
  9
$USERI4
 70
     0
  9
$USERI5
 70
     0
  9
$USERR1
 40
0.0
  9
$USERR2
 40
0.0
  9
$USERR3
 40
0.0
  9
$USERR4
 40
0.0
  9
$USERR5
 40
0.0
  9
$WORLDVIEW
 70
     1
  9
$SHADEDGE
 70
     3
  9
$SHADEDIF
 70
    70
  9
$TILEMODE
 70
     1
  9
$MAXACTVP
 70
    64
  9
$PINSBASE
 10
0.0
 20
0.0
 30
0.0
  9
$PLIMCHECK
 70
     0
  9
$PEXTMIN
 10
1.000000000000000E+20
 20
1.000000000000000E+20
 30
1.000000000000000E+20
  9
$PEXTMAX
 10
-1.000000000000000E+20
 20
-1.000000000000000E+20
 30
-1.000000000000000E+20
  9
$PLIMMIN
 10
0.0
 20
0.0
  9
$PLIMMAX
 10
12.0
 20
9.0
  9
$UNITMODE
 70
     0
  9
$VISRETAIN
 70
     1
  9
$PLINEGEN
 70
     0
  9
$PSLTSCALE
 70
     1
  9
$TREEDEPTH
 70
  3020
  9
$PICKSTYLE
 70
     1
  9
$CMLSTYLE
  2
STANDARD
  9
$CMLJUST
 70
     0
  9
$CMLSCALE
 40
1.0
  9
$SAVEIMAGES
 70
     1
  0
ENDSEC
  0
SECTION
  2
CLASSES
  0
CLASS
  1
ACDBDICTIONARYWDFLT
  2
AcDbDictionaryWithDefault
  3
ObjectDBX Classes
 90
    32768
280
     0
281
     0
  0
CLASS
  1
VISUALSTYLE
  2
AcDbVisualStyle
  3
ObjectDBX Classes
 90
     4095
280
     0
281
     0
  0
CLASS
  1
XRECORD
  2
AcDbXrecord
  3
AutoCAD 2000
 90
    32768
280
     0
281
     0
  0
CLASS
  1
LWPOLYLINE
  2
AcDbPolyline
  3
AutoCAD 2000
 90
    32768
280
     0
281
     1
  0
CLASS
  1
HATCH
  2
AcDbHatch
  3
AutoCAD 2000
 90
    32768
280
     0
281
     1
  0
CLASS
  1
ACDBPLACEHOLDER
  2
AcDbPlaceHolder
  3
ObjectDBX Classes
 90
        0
280
     0
281
     0
  0
CLASS
  1
LAYOUT
  2
AcDbLayout
  3
ObjectDBX Classes
 90
        0
280
     0
281
     0
  0
ENDSEC
  0
SECTION
  2
TABLES
  0
TABLE
  2
VPORT
  5
8
330
0
100
AcDbSymbolTable
 70
     1
  0
VPORT
  5
29
330
8
100
AcDbSymbolTableRecord
100
AcDbViewportTableRecord
  2
*ACTIVE
 70
     0
 10
0.0
 20
0.0
 11
1.0
 21
1.0
 12
0.0
 22
0.0
 13
0.0
 23
0.0
 14
0.5
 24
0.5
 15
0.5
 25
0.5
 16
0.0
 26
0.0
 36
1.0
 17
148.4999796178229
 27
98.42499997539376
 37
0.0
 40
196.8499999507875
 41
1.508762810819892
 42
50.0
 43
0.0
 44
0.0
 50
0.0
 51
0.0
 71
     0
 72
   100
 73
     1
 74
     3
 75
     0
 76
     0
 77
     0
 78
     0
  0
ENDTAB
  0
TABLE
  2
LTYPE
  5
5
330
0
100
AcDbSymbolTable
 70
     1
  0
LTYPE
  5
14
330
5
100
AcDbSymbolTableRecord
100
AcDbLinetypeTableRecord
  2
BYBLOCK
 70
     0
  3

 72
    65
 73
     0
 40
0.0
  0
LTYPE
  5
15
330
5
100
AcDbSymbolTableRecord
100
AcDbLinetypeTableRecord
  2
BYLAYER
 70
     0
  3

 72
    65
 73
     0
 40
0.0
  0
LTYPE
  5
16
330
5
100
AcDbSymbolTableRecord
100
AcDbLinetypeTableRecord
  2
CONTINUOUS
 70
     0
  3
Solid line
 72
    65
 73
     0
 40
0.0
  0
ENDTAB
  0
TABLE
  2
LAYER
  5
2
330
0
100
AcDbSymbolTable
 70
     2
  0
LAYER
  5
10
330
2
100
AcDbSymbolTableRecord
100
AcDbLayerTableRecord
  2
0
 70
     0
 62
     7
  6
CONTINUOUS
  0
LAYER
  5
3B
330
2
100
AcDbSymbolTableRecord
100
AcDbLayerTableRecord
  2
LAYER_1
 70
     0
 62
     7
  6
CONTINUOUS
  0
ENDTAB
  0
TABLE
  2
STYLE
  5
3
330
0
100
AcDbSymbolTable
 70
     1
  0
STYLE
  5
11
330
3
100
AcDbSymbolTableRecord
100
AcDbTextStyleTableRecord
  2
STANDARD
 70
     0
 40
0.0
 41
1.0
 50
0.0
 71
     0
 42
0.2
  3
txt
  4

  0
ENDTAB
  0
TABLE
  2
VIEW
  5
6
330
0
100
AcDbSymbolTable
 70
     0
  0
ENDTAB
  0
TABLE
  2
UCS
  5
7
330
0
100
AcDbSymbolTable
 70
     0
  0
ENDTAB
  0
TABLE
  2
APPID
  5
9
330
0
100
AcDbSymbolTable
 70
     1
  0
APPID
  5
12
330
9
100
AcDbSymbolTableRecord
100
AcDbRegAppTableRecord
  2
ACAD
 70
     0
  0
ENDTAB
  0
TABLE
  2
DIMSTYLE
  5
A
330
0
100
AcDbSymbolTable
 70
     1
  0
DIMSTYLE
105
27
330
A
100
AcDbSymbolTableRecord
100
AcDbDimStyleTableRecord
  2
STANDARD
 70
     0
  3

  4

  5

  6

  7

 40
1.0
 41
0.18
 42
0.0625
 43
0.38
 44
0.18
 45
0.0
 46
0.0
 47
0.0
 48
0.0
140
0.18
141
0.09
142
0.0
143
25.4
144
1.0
145
0.0
146
1.0
147
0.09
 71
     0
 72
     0
 73
     1
 74
     1
 75
     0
 76
     0
 77
     0
 78
     0
170
     0
171
     2
172
     0
173
     0
174
     0
175
     0
176
     0
177
     0
178
     0
270
     2
271
     4
272
     4
273
     2
274
     2
340
11
275
     0
280
     0
281
     0
282
     0
283
     1
284
     0
285
     0
286
     0
287
     3
288
     0
  0
ENDTAB
  0
TABLE
  2
BLOCK_RECORD
  5
1
330
0
100
AcDbSymbolTable
 70
     1
  0
BLOCK_RECORD
  5
1F
330
1
100
AcDbSymbolTableRecord
100
AcDbBlockTableRecord
  2
*MODEL_SPACE
  0
BLOCK_RECORD
  5
1B
330
1
100
AcDbSymbolTableRecord
100
AcDbBlockTableRecord
  2
*PAPER_SPACE
  0
ENDTAB
  0
ENDSEC
  0
SECTION
  2
BLOCKS
  0
BLOCK
  5
20
330
1F
100
AcDbEntity
  8
0
100
AcDbBlockBegin
  2
*MODEL_SPACE
 70
     0
 71
     0
 10
0.0
 20
0.0
 30
0.0
  3
*MODEL_SPACE
  1

  0
ENDBLK
  5
21
330
1F
100
AcDbEntity
  8
0
100
AcDbBlockEnd
  0
BLOCK
  5
1C
330
1B
100
AcDbEntity
 67
     1
  8
0
100
AcDbBlockBegin
  2
*PAPER_SPACE
 70
     0
 71
     0
 10
0.0
 20
0.0
 30
0.0
  3
*PAPER_SPACE
  1

  0
ENDBLK
  5
1D
330
1B
100
AcDbEntity
 67
     1
  8
0
100
AcDbBlockEnd
  0
ENDSEC
  0
SECTION
  2
ENTITIES
  0
SPLINE
  5
3C
330
1F
100
AcDbEntity
  8
LAYER_1
 62
   250
100
AcDbSpline
210
0.0
220
0.0
230
1.0
 70
    11
 71
     3
 72
    17
 73
    13
 74
     0
 42
0.0000000001
 43
0.0000000001
 40
0.0
 40
0.0
 40
0.0
 40
0.0
 40
1.0
 40
1.0
 40
1.0
 40
2.0
 40
2.0
 40
2.0
 40
3.0
 40
3.0
 40
3.0
 40
4.0
 40
4.0
 40
4.0
 40
4.0
 10
63.8247002336098
 20
71.98837075023208
 30
0.0
 10
60.78715954426502
 20
71.98837075023208
 30
0.0
 10
58.32460529140843
 20
74.45092500308866
 30
0.0
 10
58.32460529140843
 20
77.48846569243344
 30
0.0
 10
58.32460529140843
 20
80.52600638177823
 30
0.0
 10
60.78715954426502
 20
82.98856063463481
 30
0.0
 10
63.8247002336098
 20
82.98856063463481
 30
0.0
 10
66.86224092295458
 20
82.98856063463481
 30
0.0
 10
69.32479517581116
 20
80.52600638177823
 30
0.0
 10
69.32479517581116
 20
77.48846569243344
 30
0.0
 10
69.32479517581116
 20
74.45092500308866
 30
0.0
 10
66.86224092295458
 20
71.98837075023208
 30
0.0
 10
63.8247002336098
 20
71.98837075023208
 30
0.0
  0
SPLINE
  5
3D
330
1F
100
AcDbEntity
  8
LAYER_1
 62
   250
100
AcDbSpline
210
0.0
220
0.0
230
1.0
 70
    11
 71
     3
 72
    17
 73
    13
 74
     0
 42
0.0000000001
 43
0.0000000001
 40
0.0
 40
0.0
 40
0.0
 40
0.0
 40
1.0
 40
1.0
 40
1.0
 40
2.0
 40
2.0
 40
2.0
 40
3.0
 40
3.0
 40
3.0
 40
4.0
 40
4.0
 40
4.0
 40
4.0
 10
63.8247002336098
 20
73.48836532450986
 30
0.0
 10
61.61570500846761
 20
73.48836532450986
 30
0.0
 10
59.82459986568622
 20
75.27912595774272
 30
0.0
 10
59.82459986568622
 20
77.48846569243344
 30
0.0
 10
59.82459986568622
 20
79.69780542712417
 30
0.0
 10
61.61570500846761
 20
81.48856606035703
 30
0.0
 10
63.8247002336098
 20
81.48856606035703
 30
0.0
 10
66.03369545875199
 20
81.48856606035703
 30
0.0
 10
67.82480060153338
 20
79.69780542712417
 30
0.0
 10
67.82480060153338
 20
77.48846569243344
 30
0.0
 10
67.82480060153338
 20
75.27912595774272
 30
0.0
 10
66.03369545875199
 20
73.48836532450986
 30
0.0
 10
63.8247002336098
 20
73.48836532450986
 30
0.0
  0
SPLINE
  5
3E
330
1F
100
AcDbEntity
  8
LAYER_1
 62
   250
100
AcDbSpline
210
0.0
220
0.0
230
1.0
 70
    11
 71
     3
 72
    17
 73
    13
 74
     0
 42
0.0000000001
 43
0.0000000001
 40
0.0
 40
0.0
 40
0.0
 40
0.0
 40
1.0
 40
1.0
 40
1.0
 40
2.0
 40
2.0
 40
2.0
 40
3.0
 40
3.0
 40
3.0
 40
4.0
 40
4.0
 40
4.0
 40
4.0
 10
63.8247002336098
 20
77.38855792336119
 30
0.0
 10
63.76940645107154
 20
77.38855792336119
 30
0.0
 10
63.72462020976329
 20
77.43299965512092
 30
0.0
 10
63.72462020976329
 20
77.48846569243344
 30
0.0
 10
63.72462020976329
 20
77.54393172974596
 30
0.0
 10
63.76940645107154
 20
77.58837346150568
 30
0.0
 10
63.8247002336098
 20
77.58837346150568
 30
0.0
 10
63.87999401614806
 20
77.58837346150568
 30
0.0
 10
63.92478025745631
 20
77.54393172974596
 30
0.0
 10
63.92478025745631
 20
77.48846569243344
 30
0.0
 10
63.92478025745631
 20
77.43299965512092
 30
0.0
 10
63.87999401614806
 20
77.38855792336119
 30
0.0
 10
63.8247002336098
 20
77.38855792336119
 30
0.0
  0
SPLINE
  5
3F
330
1F
100
AcDbEntity
  8
LAYER_1
 62
   250
100
AcDbSpline
210
0.0
220
0.0
230
1.0
 70
    11
 71
     3
 72
    17
 73
    13
 74
     0
 42
0.0000000001
 43
0.0000000001
 40
0.0
 40
0.0
 40
0.0
 40
0.0
 40
1.0
 40
1.0
 40
1.0
 40
2.0
 40
2.0
 40
2.0
 40
3.0
 40
3.0
 40
3.0
 40
4.0
 40
4.0
 40
4.0
 40
4.0
 10
63.82504474315832
 20
6.988376191829295
 30
0.0
 10
60.78750405381354
 20
6.988376191829295
 30
0.0
 10
58.32494980095696
 20
9.450930444685879
 30
0.0
 10
58.32494980095696
 20
12.48847113403066
 30
0.0
 10
58.32494980095696
 20
15.52601182337544
 30
0.0
 10
60.78750405381354
 20
17.9882215666835
 30
0.0
 10
63.82504474315832
 20
17.9882215666835
 30
0.0
 10
66.86258543250311
 20
17.9882215666835
 30
0.0
 10
69.32513968535969
 20
15.52601182337544
 30
0.0
 10
69.32513968535969
 20
12.48847113403066
 30
0.0
 10
69.32513968535969
 20
9.450930444685879
 30
0.0
 10
66.86258543250311
 20
6.988376191829295
 30
0.0
 10
63.82504474315832
 20
6.988376191829295
 30
0.0
  0
SPLINE
  5
40
330
1F
100
AcDbEntity
  8
LAYER_1
 62
   250
100
AcDbSpline
210
0.0
220
0.0
230
1.0
 70
    11
 71
     3
 72
    17
 73
    13
 74
     0
 42
0.0000000001
 43
0.0000000001
 40
0.0
 40
0.0
 40
0.0
 40
0.0
 40
1.0
 40
1.0
 40
1.0
 40
2.0
 40
2.0
 40
2.0
 40
3.0
 40
3.0
 40
3.0
 40
4.0
 40
4.0
 40
4.0
 40
4.0
 10
63.82504474315832
 20
8.488370766107074
 30
0.0
 10
61.61639402756465
 20
8.488370766107074
 30
0.0
 10
59.82528888478326
 20
10.27982041843699
 30
0.0
 10
59.82528888478326
 20
12.48847113403066
 30
0.0
 10
59.82528888478326
 20
14.69712184962433
 30
0.0
 10
61.61639402756465
 20
16.48822699240572
 30
0.0
 10
63.82504474315832
 20
16.48822699240572
 30
0.0
 10
66.03369545875199
 20
16.48822699240572
 30
0.0
 10
67.82480060153338
 20
14.69712184962433
 30
0.0
 10
67.82480060153338
 20
12.48847113403066
 30
0.0
 10
67.82480060153338
 20
10.27982041843699
 30
0.0
 10
66.03369545875199
 20
8.488370766107074
 30
0.0
 10
63.82504474315832
 20
8.488370766107074
 30
0.0
  0
SPLINE
  5
41
330
1F
100
AcDbEntity
  8
LAYER_1
 62
   250
100
AcDbSpline
210
0.0
220
0.0
230
1.0
 70
    11
 71
     3
 72
    17
 73
    13
 74
     0
 42
0.0000000001
 43
0.0000000001
 40
0.0
 40
0.0
 40
0.0
 40
0.0
 40
1.0
 40
1.0
 40
1.0
 40
2.0
 40
2.0
 40
2.0
 40
3.0
 40
3.0
 40
3.0
 40
4.0
 40
4.0
 40
4.0
 40
4.0
 10
63.82504474315832
 20
12.38821885540989
 30
0.0
 10
63.76975096062007
 20
12.38821885540989
 30
0.0
 10
63.72513697408608
 20
12.43300509671814
 30
0.0
 10
63.72513697408608
 20
12.48847113403066
 30
0.0
 10
63.72513697408608
 20
12.54359266179466
 30
0.0
 10
63.76975096062007
 20
12.5883789031029
 30
0.0
 10
63.82504474315832
 20
12.5883789031029
 30
0.0
 10
63.88033852569659
 20
12.5883789031029
 30
0.0
 10
63.92512476700483
 20
12.54359266179466
 30
0.0
 10
63.92512476700483
 20
12.48847113403066
 30
0.0
 10
63.92512476700483
 20
12.43300509671814
 30
0.0
 10
63.88033852569659
 20
12.38821885540989
 30
0.0
 10
63.82504474315832
 20
12.38821885540989
 30
0.0
  0
SPLINE
  5
42
330
1F
100
AcDbEntity
  8
LAYER_1
 62
     7
100
AcDbSpline
210
0.0
220
0.0
230
1.0
 70
    11
 71
     3
 72
    29
 73
    25
 74
     0
 42
0.0000000001
 43
0.0000000001
 40
0.0
 40
0.0
 40
0.0
 40
0.0
 40
1.0
 40
1.0
 40
1.0
 40
2.0
 40
2.0
 40
2.0
 40
3.0
 40
3.0
 40
3.0
 40
4.0
 40
4.0
 40
4.0
 40
5.0
 40
5.0
 40
5.0
 40
6.0
 40
6.0
 40
6.0
 40
7.0
 40
7.0
 40
7.0
 40
8.0
 40
8.0
 40
8.0
 40
8.0
 10
70.32525090472772
 20
12.48847113403066
 30
0.0
 10
70.32525090472772
 20
12.49088270087034
 30
0.0
 10
70.3249063951792
 20
12.49294975816149
 30
0.0
 10
70.3249063951792
 20
12.49536132500116
 30
0.0
 10
70.3249063951792
 20
12.49536132500116
 30
0.0
 10
70.3249063951792
 20
77.48846569243344
 30
0.0
 10
70.3249063951792
 20
77.48846569243344
 30
0.0
 10
70.3249063951792
 20
81.07825518806378
 30
0.0
 10
67.41448972924013
 20
83.9883273444543
 30
0.0
 10
63.8247002336098
 20
83.9883273444543
 30
0.0
 10
60.23491073797947
 20
83.9883273444543
 30
0.0
 10
57.32449407204041
 20
81.07825518806378
 30
0.0
 10
57.32449407204041
 20
77.48846569243344
 30
0.0
 10
57.32449407204041
 20
77.48605412559377
 30
0.0
 10
57.32483858158893
 20
77.48398706830262
 30
0.0
 10
57.32483858158893
 20
77.48157550146294
 30
0.0
 10
57.32483858158893
 20
77.48157550146294
 30
0.0
 10
57.32483858158893
 20
12.48847113403066
 30
0.0
 10
57.32483858158893
 20
12.48847113403066
 30
0.0
 10
57.32483858158893
 20
8.89868163840033
 30
0.0
 10
60.23525524752799
 20
5.988264972461267
 30
0.0
 10
63.82504474315832
 20
5.988264972461267
 30
0.0
 10
67.41483423878866
 20
5.988264972461267
 30
0.0
 10
70.32525090472772
 20
8.89868163840033
 30
0.0
 10
70.32525090472772
 20
12.48847113403066
 30
0.0
  0
SPLINE
  5
43
330
1F
100
AcDbEntity
  8
LAYER_1
 62
   250
100
AcDbSpline
210
0.0
220
0.0
230
1.0
 70
    11
 71
     3
 72
    29
 73
    25
 74
     0
 42
0.0000000001
 43
0.0000000001
 40
0.0
 40
0.0
 40
0.0
 40
0.0
 40
1.0
 40
1.0
 40
1.0
 40
2.0
 40
2.0
 40
2.0
 40
3.0
 40
3.0
 40
3.0
 40
4.0
 40
4.0
 40
4.0
 40
5.0
 40
5.0
 40
5.0
 40
6.0
 40
6.0
 40
6.0
 40
7.0
 40
7.0
 40
7.0
 40
8.0
 40
8.0
 40
8.0
 40
8.0
 10
63.82504474315832
 20
21.48809407014881
 30
0.0
 10
61.89269068548169
 20
21.48809407014881
 30
0.0
 10
60.32517223969302
 20
22.95225965137999
 30
0.0
 10
60.32517223969302
 20
24.75817870474796
 30
0.0
 10
60.32517223969302
 20
24.75817870474796
 30
0.0
 10
60.32517223969302
 20
65.2180691026191
 30
0.0
 10
60.32517223969302
 20
65.2180691026191
 30
0.0
 10
60.32517223969302
 20
67.02398815598706
 30
0.0
 10
61.89269068548169
 20
68.48815373721824
 30
0.0
 10
63.82504474315832
 20
68.48815373721824
 30
0.0
 10
63.82504474315832
 20
68.48815373721824
 30
0.0
 10
63.82504474315832
 20
68.48815373721824
 30
0.0
 10
63.82504474315832
 20
68.48815373721824
 30
0.0
 10
65.75774331038349
 20
68.48815373721824
 30
0.0
 10
67.32526175617215
 20
67.02398815598706
 30
0.0
 10
67.32526175617215
 20
65.2180691026191
 30
0.0
 10
67.32526175617215
 20
65.2180691026191
 30
0.0
 10
67.32526175617215
 20
24.75817870474796
 30
0.0
 10
67.32526175617215
 20
24.75817870474796
 30
0.0
 10
67.32526175617215
 20
22.95225965137999
 30
0.0
 10
65.75774331038349
 20
21.48809407014881
 30
0.0
 10
63.82504474315832
 20
21.48809407014881
 30
0.0
 10
63.82504474315832
 20
21.48809407014881
 30
0.0
 10
63.82504474315832
 20
21.48809407014881
 30
0.0
 10
63.82504474315832
 20
21.48809407014881
 30
0.0
  0
SPLINE
  5
44
330
1F
100
AcDbEntity
  8
LAYER_1
 62
   250
100
AcDbSpline
210
0.0
220
0.0
230
1.0
 70
    11
 71
     3
 72
    17
 73
    13
 74
     0
 42
0.0000000001
 43
0.0000000001
 40
0.0
 40
0.0
 40
0.0
 40
0.0
 40
1.0
 40
1.0
 40
1.0
 40
2.0
 40
2.0
 40
2.0
 40
3.0
 40
3.0
 40
3.0
 40
4.0
 40
4.0
 40
4.0
 40
4.0
 10
44.85669351092125
 20
71.98837075023208
 30
0.0
 10
41.81915282157647
 20
71.98837075023208
 30
0.0
 10
39.35659856871988
 20
74.45092500308866
 30
0.0
 10
39.35659856871988
 20
77.48846569243344
 30
0.0
 10
39.35659856871988
 20
80.52600638177823
 30
0.0
 10
41.81915282157647
 20
82.98856063463481
 30
0.0
 10
44.85669351092125
 20
82.98856063463481
 30
0.0
 10
47.89423420026603
 20
82.98856063463481
 30
0.0
 10
50.35678845312261
 20
80.52600638177823
 30
0.0
 10
50.35678845312261
 20
77.48846569243344
 30
0.0
 10
50.35678845312261
 20
74.45092500308866
 30
0.0
 10
47.89423420026603
 20
71.98837075023208
 30
0.0
 10
44.85669351092125
 20
71.98837075023208
 30
0.0
  0
SPLINE
  5
45
330
1F
100
AcDbEntity
  8
LAYER_1
 62
   250
100
AcDbSpline
210
0.0
220
0.0
230
1.0
 70
    11
 71
     3
 72
    17
 73
    13
 74
     0
 42
0.0000000001
 43
0.0000000001
 40
0.0
 40
0.0
 40
0.0
 40
0.0
 40
1.0
 40
1.0
 40
1.0
 40
2.0
 40
2.0
 40
2.0
 40
3.0
 40
3.0
 40
3.0
 40
4.0
 40
4.0
 40
4.0
 40
4.0
 10
44.85669351092125
 20
73.48836532450986
 30
0.0
 10
42.64769828577905
 20
73.48836532450986
 30
0.0
 10
40.85659314299766
 20
75.27912595774272
 30
0.0
 10
40.85659314299766
 20
77.48846569243344
 30
0.0
 10
40.85659314299766
 20
79.69780542712417
 30
0.0
 10
42.64769828577905
 20
81.48856606035703
 30
0.0
 10
44.85669351092125
 20
81.48856606035703
 30
0.0
 10
47.06568873606344
 20
81.48856606035703
 30
0.0
 10
48.85679387884483
 20
79.69780542712417
 30
0.0
 10
48.85679387884483
 20
77.48846569243344
 30
0.0
 10
48.85679387884483
 20
75.27912595774272
 30
0.0
 10
47.06568873606344
 20
73.48836532450986
 30
0.0
 10
44.85669351092125
 20
73.48836532450986
 30
0.0
  0
SPLINE
  5
46
330
1F
100
AcDbEntity
  8
LAYER_1
 62
   250
100
AcDbSpline
210
0.0
220
0.0
230
1.0
 70
    11
 71
     3
 72
    17
 73
    13
 74
     0
 42
0.0000000001
 43
0.0000000001
 40
0.0
 40
0.0
 40
0.0
 40
0.0
 40
1.0
 40
1.0
 40
1.0
 40
2.0
 40
2.0
 40
2.0
 40
3.0
 40
3.0
 40
3.0
 40
4.0
 40
4.0
 40
4.0
 40
4.0
 10
44.85669351092125
 20
77.38855792336119
 30
0.0
 10
44.80139972838298
 20
77.38855792336119
 30
0.0
 10
44.75661348707474
 20
77.43299965512092
 30
0.0
 10
44.75661348707474
 20
77.48846569243344
 30
0.0
 10
44.75661348707474
 20
77.54393172974596
 30
0.0
 10
44.80139972838298
 20
77.58837346150568
 30
0.0
 10
44.85669351092125
 20
77.58837346150568
 30
0.0
 10
44.9119872934595
 20
77.58837346150568
 30
0.0
 10
44.95677353476776
 20
77.54393172974596
 30
0.0
 10
44.95677353476776
 20
77.48846569243344
 30
0.0
 10
44.95677353476776
 20
77.43299965512092
 30
0.0
 10
44.9119872934595
 20
77.38855792336119
 30
0.0
 10
44.85669351092125
 20
77.38855792336119
 30
0.0
  0
SPLINE
  5
47
330
1F
100
AcDbEntity
  8
LAYER_1
 62
   250
100
AcDbSpline
210
0.0
220
0.0
230
1.0
 70
    11
 71
     3
 72
    17
 73
    13
 74
     0
 42
0.0000000001
 43
0.0000000001
 40
0.0
 40
0.0
 40
0.0
 40
0.0
 40
1.0
 40
1.0
 40
1.0
 40
2.0
 40
2.0
 40
2.0
 40
3.0
 40
3.0
 40
3.0
 40
4.0
 40
4.0
 40
4.0
 40
4.0
 10
44.85703802046977
 20
6.988376191829295
 30
0.0
 10
41.81949733112499
 20
6.988376191829295
 30
0.0
 10
39.35694307826841
 20
9.450930444685879
 30
0.0
 10
39.35694307826841
 20
12.48847113403066
 30
0.0
 10
39.35694307826841
 20
15.52601182337544
 30
0.0
 10
41.81949733112499
 20
17.9882215666835
 30
0.0
 10
44.85703802046977
 20
17.9882215666835
 30
0.0
 10
47.89457870981455
 20
17.9882215666835
 30
0.0
 10
50.35713296267114
 20
15.52601182337544
 30
0.0
 10
50.35713296267114
 20
12.48847113403066
 30
0.0
 10
50.35713296267114
 20
9.450930444685879
 30
0.0
 10
47.89457870981455
 20
6.988376191829295
 30
0.0
 10
44.85703802046977
 20
6.988376191829295
 30
0.0
  0
SPLINE
  5
48
330
1F
100
AcDbEntity
  8
LAYER_1
 62
   250
100
AcDbSpline
210
0.0
220
0.0
230
1.0
 70
    11
 71
     3
 72
    17
 73
    13
 74
     0
 42
0.0000000001
 43
0.0000000001
 40
0.0
 40
0.0
 40
0.0
 40
0.0
 40
1.0
 40
1.0
 40
1.0
 40
2.0
 40
2.0
 40
2.0
 40
3.0
 40
3.0
 40
3.0
 40
4.0
 40
4.0
 40
4.0
 40
4.0
 10
44.85703802046977
 20
8.488370766107074
 30
0.0
 10
42.6483873048761
 20
8.488370766107074
 30
0.0
 10
40.85728216209471
 20
10.27982041843699
 30
0.0
 10
40.85728216209471
 20
12.48847113403066
 30
0.0
 10
40.85728216209471
 20
14.69712184962433
 30
0.0
 10
42.6483873048761
 20
16.48822699240572
 30
0.0
 10
44.85703802046977
 20
16.48822699240572
 30
0.0
 10
47.06568873606344
 20
16.48822699240572
 30
0.0
 10
48.85679387884483
 20
14.69712184962433
 30
0.0
 10
48.85679387884483
 20
12.48847113403066
 30
0.0
 10
48.85679387884483
 20
10.27982041843699
 30
0.0
 10
47.06568873606344
 20
8.488370766107074
 30
0.0
 10
44.85703802046977
 20
8.488370766107074
 30
0.0
  0
SPLINE
  5
49
330
1F
100
AcDbEntity
  8
LAYER_1
 62
   250
100
AcDbSpline
210
0.0
220
0.0
230
1.0
 70
    11
 71
     3
 72
    17
 73
    13
 74
     0
 42
0.0000000001
 43
0.0000000001
 40
0.0
 40
0.0
 40
0.0
 40
0.0
 40
1.0
 40
1.0
 40
1.0
 40
2.0
 40
2.0
 40
2.0
 40
3.0
 40
3.0
 40
3.0
 40
4.0
 40
4.0
 40
4.0
 40
4.0
 10
44.85703802046977
 20
12.38821885540989
 30
0.0
 10
44.80174423793151
 20
12.38821885540989
 30
0.0
 10
44.75713025139753
 20
12.43300509671814
 30
0.0
 10
44.75713025139753
 20
12.48847113403066
 30
0.0
 10
44.75713025139753
 20
12.54359266179466
 30
0.0
 10
44.80174423793151
 20
12.5883789031029
 30
0.0
 10
44.85703802046977
 20
12.5883789031029
 30
0.0
 10
44.91233180300803
 20
12.5883789031029
 30
0.0
 10
44.95711804431627
 20
12.54359266179466
 30
0.0
 10
44.95711804431627
 20
12.48847113403066
 30
0.0
 10
44.95711804431627
 20
12.43300509671814
 30
0.0
 10
44.91233180300803
 20
12.38821885540989
 30
0.0
 10
44.85703802046977
 20
12.38821885540989
 30
0.0
  0
SPLINE
  5
4A
330
1F
100
AcDbEntity
  8
LAYER_1
 62
     7
100
AcDbSpline
210
0.0
220
0.0
230
1.0
 70
    11
 71
     3
 72
    29
 73
    25
 74
     0
 42
0.0000000001
 43
0.0000000001
 40
0.0
 40
0.0
 40
0.0
 40
0.0
 40
1.0
 40
1.0
 40
1.0
 40
2.0
 40
2.0
 40
2.0
 40
3.0
 40
3.0
 40
3.0
 40
4.0
 40
4.0
 40
4.0
 40
5.0
 40
5.0
 40
5.0
 40
6.0
 40
6.0
 40
6.0
 40
7.0
 40
7.0
 40
7.0
 40
8.0
 40
8.0
 40
8.0
 40
8.0
 10
51.35724418203916
 20
12.48847113403066
 30
0.0
 10
51.35724418203916
 20
12.49088270087034
 30
0.0
 10
51.35689967249064
 20
12.49294975816149
 30
0.0
 10
51.35689967249064
 20
12.49536132500116
 30
0.0
 10
51.35689967249064
 20
12.49536132500116
 30
0.0
 10
51.35689967249064
 20
77.48846569243344
 30
0.0
 10
51.35689967249064
 20
77.48846569243344
 30
0.0
 10
51.35689967249064
 20
81.07825518806378
 30
0.0
 10
48.44648300655157
 20
83.9883273444543
 30
0.0
 10
44.85669351092125
 20
83.9883273444543
 30
0.0
 10
41.26690401529091
 20
83.9883273444543
 30
0.0
 10
38.35648734935185
 20
81.07825518806378
 30
0.0
 10
38.35648734935185
 20
77.48846569243344
 30
0.0
 10
38.35648734935185
 20
77.48605412559377
 30
0.0
 10
38.35683185890038
 20
77.48398706830262
 30
0.0
 10
38.35683185890038
 20
77.48157550146294
 30
0.0
 10
38.35683185890038
 20
77.48157550146294
 30
0.0
 10
38.35683185890038
 20
12.48847113403066
 30
0.0
 10
38.35683185890038
 20
12.48847113403066
 30
0.0
 10
38.35683185890038
 20
8.89868163840033
 30
0.0
 10
41.26724852483944
 20
5.988264972461267
 30
0.0
 10
44.85703802046977
 20
5.988264972461267
 30
0.0
 10
48.4468275161001
 20
5.988264972461267
 30
0.0
 10
51.35724418203916
 20
8.89868163840033
 30
0.0
 10
51.35724418203916
 20
12.48847113403066
 30
0.0
  0
SPLINE
  5
4B
330
1F
100
AcDbEntity
  8
LAYER_1
 62
   250
100
AcDbSpline
210
0.0
220
0.0
230
1.0
 70
    11
 71
     3
 72
    29
 73
    25
 74
     0
 42
0.0000000001
 43
0.0000000001
 40
0.0
 40
0.0
 40
0.0
 40
0.0
 40
1.0
 40
1.0
 40
1.0
 40
2.0
 40
2.0
 40
2.0
 40
3.0
 40
3.0
 40
3.0
 40
4.0
 40
4.0
 40
4.0
 40
5.0
 40
5.0
 40
5.0
 40
6.0
 40
6.0
 40
6.0
 40
7.0
 40
7.0
 40
7.0
 40
8.0
 40
8.0
 40
8.0
 40
8.0
 10
44.85703802046977
 20
21.48809407014881
 30
0.0
 10
42.92468396279314
 20
21.48809407014881
 30
0.0
 10
41.35716551700446
 20
22.95225965137999
 30
0.0
 10
41.35716551700446
 20
24.75817870474796
 30
0.0
 10
41.35716551700446
 20
24.75817870474796
 30
0.0
 10
41.35716551700446
 20
65.2180691026191
 30
0.0
 10
41.35716551700446
 20
65.2180691026191
 30
0.0
 10
41.35716551700446
 20
67.02398815598706
 30
0.0
 10
42.92468396279314
 20
68.48815373721824
 30
0.0
 10
44.85703802046977
 20
68.48815373721824
 30
0.0
 10
44.85703802046977
 20
68.48815373721824
 30
0.0
 10
44.85703802046977
 20
68.48815373721824
 30
0.0
 10
44.85703802046977
 20
68.48815373721824
 30
0.0
 10
46.78973658769493
 20
68.48815373721824
 30
0.0
 10
48.3572550334836
 20
67.02398815598706
 30
0.0
 10
48.3572550334836
 20
65.2180691026191
 30
0.0
 10
48.3572550334836
 20
65.2180691026191
 30
0.0
 10
48.3572550334836
 20
24.75817870474796
 30
0.0
 10
48.3572550334836
 20
24.75817870474796
 30
0.0
 10
48.3572550334836
 20
22.95225965137999
 30
0.0
 10
46.78973658769493
 20
21.48809407014881
 30
0.0
 10
44.85703802046977
 20
21.48809407014881
 30
0.0
 10
44.85703802046977
 20
21.48809407014881
 30
0.0
 10
44.85703802046977
 20
21.48809407014881
 30
0.0
 10
44.85703802046977
 20
21.48809407014881
 30
0.0
  0
SPLINE
  5
4C
330
1F
100
AcDbEntity
  8
LAYER_1
 62
   250
100
AcDbSpline
210
0.0
220
0.0
230
1.0
 70
    11
 71
     3
 72
    17
 73
    13
 74
     0
 42
0.0000000001
 43
0.0000000001
 40
0.0
 40
0.0
 40
0.0
 40
0.0
 40
1.0
 40
1.0
 40
1.0
 40
2.0
 40
2.0
 40
2.0
 40
3.0
 40
3.0
 40
3.0
 40
4.0
 40
4.0
 40
4.0
 40
4.0
 10
25.85613063589708
 20
71.98837075023208
 30
0.0
 10
22.8185899465523
 20
71.98837075023208
 30
0.0
 10
20.35603569369571
 20
74.45092500308866
 30
0.0
 10
20.35603569369571
 20
77.48846569243344
 30
0.0
 10
20.35603569369571
 20
80.52600638177823
 30
0.0
 10
22.8185899465523
 20
82.98856063463481
 30
0.0
 10
25.85613063589708
 20
82.98856063463481
 30
0.0
 10
28.89367132524186
 20
82.98856063463481
 30
0.0
 10
31.35622557809845
 20
80.52600638177823
 30
0.0
 10
31.35622557809845
 20
77.48846569243344
 30
0.0
 10
31.35622557809845
 20
74.45092500308866
 30
0.0
 10
28.89367132524186
 20
71.98837075023208
 30
0.0
 10
25.85613063589708
 20
71.98837075023208
 30
0.0
  0
SPLINE
  5
4D
330
1F
100
AcDbEntity
  8
LAYER_1
 62
   250
100
AcDbSpline
210
0.0
220
0.0
230
1.0
 70
    11
 71
     3
 72
    17
 73
    13
 74
     0
 42
0.0000000001
 43
0.0000000001
 40
0.0
 40
0.0
 40
0.0
 40
0.0
 40
1.0
 40
1.0
 40
1.0
 40
2.0
 40
2.0
 40
2.0
 40
3.0
 40
3.0
 40
3.0
 40
4.0
 40
4.0
 40
4.0
 40
4.0
 10
25.85613063589708
 20
73.48836532450986
 30
0.0
 10
23.64713541075488
 20
73.48836532450986
 30
0.0
 10
21.85603026797349
 20
75.27912595774272
 30
0.0
 10
21.85603026797349
 20
77.48846569243344
 30
0.0
 10
21.85603026797349
 20
79.69780542712417
 30
0.0
 10
23.64713541075488
 20
81.48856606035703
 30
0.0
 10
25.85613063589708
 20
81.48856606035703
 30
0.0
 10
28.06512586103927
 20
81.48856606035703
 30
0.0
 10
29.85623100382067
 20
79.69780542712417
 30
0.0
 10
29.85623100382067
 20
77.48846569243344
 30
0.0
 10
29.85623100382067
 20
75.27912595774272
 30
0.0
 10
28.06512586103927
 20
73.48836532450986
 30
0.0
 10
25.85613063589708
 20
73.48836532450986
 30
0.0
  0
SPLINE
  5
4E
330
1F
100
AcDbEntity
  8
LAYER_1
 62
   250
100
AcDbSpline
210
0.0
220
0.0
230
1.0
 70
    11
 71
     3
 72
    17
 73
    13
 74
     0
 42
0.0000000001
 43
0.0000000001
 40
0.0
 40
0.0
 40
0.0
 40
0.0
 40
1.0
 40
1.0
 40
1.0
 40
2.0
 40
2.0
 40
2.0
 40
3.0
 40
3.0
 40
3.0
 40
4.0
 40
4.0
 40
4.0
 40
4.0
 10
25.85613063589708
 20
77.38855792336119
 30
0.0
 10
25.80083685335882
 20
77.38855792336119
 30
0.0
 10
25.75605061205057
 20
77.43299965512092
 30
0.0
 10
25.75605061205057
 20
77.48846569243344
 30
0.0
 10
25.75605061205057
 20
77.54393172974596
 30
0.0
 10
25.80083685335882
 20
77.58837346150568
 30
0.0
 10
25.85613063589708
 20
77.58837346150568
 30
0.0
 10
25.91142441843534
 20
77.58837346150568
 30
0.0
 10
25.95621065974359
 20
77.54393172974596
 30
0.0
 10
25.95621065974359
 20
77.48846569243344
 30
0.0
 10
25.95621065974359
 20
77.43299965512092
 30
0.0
 10
25.91142441843534
 20
77.38855792336119
 30
0.0
 10
25.85613063589708
 20
77.38855792336119
 30
0.0
  0
SPLINE
  5
4F
330
1F
100
AcDbEntity
  8
LAYER_1
 62
   250
100
AcDbSpline
210
0.0
220
0.0
230
1.0
 70
    11
 71
     3
 72
    17
 73
    13
 74
     0
 42
0.0000000001
 43
0.0000000001
 40
0.0
 40
0.0
 40
0.0
 40
0.0
 40
1.0
 40
1.0
 40
1.0
 40
2.0
 40
2.0
 40
2.0
 40
3.0
 40
3.0
 40
3.0
 40
4.0
 40
4.0
 40
4.0
 40
4.0
 10
25.8564751454456
 20
6.988376191829295
 30
0.0
 10
22.81893445610082
 20
6.988376191829295
 30
0.0
 10
20.35638020324424
 20
9.450930444685879
 30
0.0
 10
20.35638020324424
 20
12.48847113403066
 30
0.0
 10
20.35638020324424
 20
15.52601182337544
 30
0.0
 10
22.81893445610082
 20
17.9882215666835
 30
0.0
 10
25.8564751454456
 20
17.9882215666835
 30
0.0
 10
28.89401583479039
 20
17.9882215666835
 30
0.0
 10
31.35657008764697
 20
15.52601182337544
 30
0.0
 10
31.35657008764697
 20
12.48847113403066
 30
0.0
 10
31.35657008764697
 20
9.450930444685879
 30
0.0
 10
28.89401583479039
 20
6.988376191829295
 30
0.0
 10
25.8564751454456
 20
6.988376191829295
 30
0.0
  0
SPLINE
  5
50
330
1F
100
AcDbEntity
  8
LAYER_1
 62
   250
100
AcDbSpline
210
0.0
220
0.0
230
1.0
 70
    11
 71
     3
 72
    17
 73
    13
 74
     0
 42
0.0000000001
 43
0.0000000001
 40
0.0
 40
0.0
 40
0.0
 40
0.0
 40
1.0
 40
1.0
 40
1.0
 40
2.0
 40
2.0
 40
2.0
 40
3.0
 40
3.0
 40
3.0
 40
4.0
 40
4.0
 40
4.0
 40
4.0
 10
25.8564751454456
 20
8.488370766107074
 30
0.0
 10
23.64782442985193
 20
8.488370766107074
 30
0.0
 10
21.85671928707054
 20
10.27982041843699
 30
0.0
 10
21.85671928707054
 20
12.48847113403066
 30
0.0
 10
21.85671928707054
 20
14.69712184962433
 30
0.0
 10
23.64782442985193
 20
16.48822699240572
 30
0.0
 10
25.8564751454456
 20
16.48822699240572
 30
0.0
 10
28.06512586103927
 20
16.48822699240572
 30
0.0
 10
29.85623100382067
 20
14.69712184962433
 30
0.0
 10
29.85623100382067
 20
12.48847113403066
 30
0.0
 10
29.85623100382067
 20
10.27982041843699
 30
0.0
 10
28.06512586103927
 20
8.488370766107074
 30
0.0
 10
25.8564751454456
 20
8.488370766107074
 30
0.0
  0
SPLINE
  5
51
330
1F
100
AcDbEntity
  8
LAYER_1
 62
   250
100
AcDbSpline
210
0.0
220
0.0
230
1.0
 70
    11
 71
     3
 72
    17
 73
    13
 74
     0
 42
0.0000000001
 43
0.0000000001
 40
0.0
 40
0.0
 40
0.0
 40
0.0
 40
1.0
 40
1.0
 40
1.0
 40
2.0
 40
2.0
 40
2.0
 40
3.0
 40
3.0
 40
3.0
 40
4.0
 40
4.0
 40
4.0
 40
4.0
 10
25.8564751454456
 20
12.38821885540989
 30
0.0
 10
25.80118136290734
 20
12.38821885540989
 30
0.0
 10
25.75656737637336
 20
12.43300509671814
 30
0.0
 10
25.75656737637336
 20
12.48847113403066
 30
0.0
 10
25.75656737637336
 20
12.54359266179466
 30
0.0
 10
25.80118136290734
 20
12.5883789031029
 30
0.0
 10
25.8564751454456
 20
12.5883789031029
 30
0.0
 10
25.91176892798386
 20
12.5883789031029
 30
0.0
 10
25.95655516929211
 20
12.54359266179466
 30
0.0
 10
25.95655516929211
 20
12.48847113403066
 30
0.0
 10
25.95655516929211
 20
12.43300509671814
 30
0.0
 10
25.91176892798386
 20
12.38821885540989
 30
0.0
 10
25.8564751454456
 20
12.38821885540989
 30
0.0
  0
SPLINE
  5
52
330
1F
100
AcDbEntity
  8
LAYER_1
 62
     7
100
AcDbSpline
210
0.0
220
0.0
230
1.0
 70
    11
 71
     3
 72
    29
 73
    25
 74
     0
 42
0.0000000001
 43
0.0000000001
 40
0.0
 40
0.0
 40
0.0
 40
0.0
 40
1.0
 40
1.0
 40
1.0
 40
2.0
 40
2.0
 40
2.0
 40
3.0
 40
3.0
 40
3.0
 40
4.0
 40
4.0
 40
4.0
 40
5.0
 40
5.0
 40
5.0
 40
6.0
 40
6.0
 40
6.0
 40
7.0
 40
7.0
 40
7.0
 40
8.0
 40
8.0
 40
8.0
 40
8.0
 10
32.35668130701499
 20
12.48847113403066
 30
0.0
 10
32.35668130701499
 20
12.49088270087034
 30
0.0
 10
32.35633679746648
 20
12.49294975816149
 30
0.0
 10
32.35633679746648
 20
12.49536132500116
 30
0.0
 10
32.35633679746648
 20
12.49536132500116
 30
0.0
 10
32.35633679746648
 20
77.48846569243344
 30
0.0
 10
32.35633679746648
 20
77.48846569243344
 30
0.0
 10
32.35633679746648
 20
81.07825518806378
 30
0.0
 10
29.44592013152741
 20
83.9883273444543
 30
0.0
 10
25.85613063589708
 20
83.9883273444543
 30
0.0
 10
22.26634114026675
 20
83.9883273444543
 30
0.0
 10
19.35592447432769
 20
81.07825518806378
 30
0.0
 10
19.35592447432769
 20
77.48846569243344
 30
0.0
 10
19.35592447432769
 20
77.48605412559377
 30
0.0
 10
19.35626898387621
 20
77.48398706830262
 30
0.0
 10
19.35626898387621
 20
77.48157550146294
 30
0.0
 10
19.35626898387621
 20
77.48157550146294
 30
0.0
 10
19.35626898387621
 20
12.48847113403066
 30
0.0
 10
19.35626898387621
 20
12.48847113403066
 30
0.0
 10
19.35626898387621
 20
8.89868163840033
 30
0.0
 10
22.26668564981527
 20
5.988264972461267
 30
0.0
 10
25.8564751454456
 20
5.988264972461267
 30
0.0
 10
29.44626464107593
 20
5.988264972461267
 30
0.0
 10
32.35668130701499
 20
8.89868163840033
 30
0.0
 10
32.35668130701499
 20
12.48847113403066
 30
0.0
  0
SPLINE
  5
53
330
1F
100
AcDbEntity
  8
LAYER_1
 62
   250
100
AcDbSpline
210
0.0
220
0.0
230
1.0
 70
    11
 71
     3
 72
    29
 73
    25
 74
     0
 42
0.0000000001
 43
0.0000000001
 40
0.0
 40
0.0
 40
0.0
 40
0.0
 40
1.0
 40
1.0
 40
1.0
 40
2.0
 40
2.0
 40
2.0
 40
3.0
 40
3.0
 40
3.0
 40
4.0
 40
4.0
 40
4.0
 40
5.0
 40
5.0
 40
5.0
 40
6.0
 40
6.0
 40
6.0
 40
7.0
 40
7.0
 40
7.0
 40
8.0
 40
8.0
 40
8.0
 40
8.0
 10
25.8564751454456
 20
21.48809407014881
 30
0.0
 10
23.92412108776897
 20
21.48809407014881
 30
0.0
 10
22.3566026419803
 20
22.95225965137999
 30
0.0
 10
22.3566026419803
 20
24.75817870474796
 30
0.0
 10
22.3566026419803
 20
24.75817870474796
 30
0.0
 10
22.3566026419803
 20
65.2180691026191
 30
0.0
 10
22.3566026419803
 20
65.2180691026191
 30
0.0
 10
22.3566026419803
 20
67.02398815598706
 30
0.0
 10
23.92412108776897
 20
68.48815373721824
 30
0.0
 10
25.8564751454456
 20
68.48815373721824
 30
0.0
 10
25.8564751454456
 20
68.48815373721824
 30
0.0
 10
25.8564751454456
 20
68.48815373721824
 30
0.0
 10
25.8564751454456
 20
68.48815373721824
 30
0.0
 10
27.78917371267076
 20
68.48815373721824
 30
0.0
 10
29.35669215845944
 20
67.02398815598706
 30
0.0
 10
29.35669215845944
 20
65.2180691026191
 30
0.0
 10
29.35669215845944
 20
65.2180691026191
 30
0.0
 10
29.35669215845944
 20
24.75817870474796
 30
0.0
 10
29.35669215845944
 20
24.75817870474796
 30
0.0
 10
29.35669215845944
 20
22.95225965137999
 30
0.0
 10
27.78917371267076
 20
21.48809407014881
 30
0.0
 10
25.8564751454456
 20
21.48809407014881
 30
0.0
 10
25.8564751454456
 20
21.48809407014881
 30
0.0
 10
25.8564751454456
 20
21.48809407014881
 30
0.0
 10
25.8564751454456
 20
21.48809407014881
 30
0.0
  0
SPLINE
  5
54
330
1F
100
AcDbEntity
  8
LAYER_1
 62
   250
100
AcDbSpline
210
0.0
220
0.0
230
1.0
 70
    11
 71
     3
 72
    17
 73
    13
 74
     0
 42
0.0000000001
 43
0.0000000001
 40
0.0
 40
0.0
 40
0.0
 40
0.0
 40
1.0
 40
1.0
 40
1.0
 40
2.0
 40
2.0
 40
2.0
 40
3.0
 40
3.0
 40
3.0
 40
4.0
 40
4.0
 40
4.0
 40
4.0
 10
6.707084145458646
 20
71.98837075023208
 30
0.0
 10
3.669543456113864
 20
71.98837075023208
 30
0.0
 10
1.20698920325728
 20
74.45092500308866
 30
0.0
 10
1.20698920325728
 20
77.48846569243344
 30
0.0
 10
1.20698920325728
 20
80.52600638177823
 30
0.0
 10
3.669543456113864
 20
82.98856063463481
 30
0.0
 10
6.707084145458646
 20
82.98856063463481
 30
0.0
 10
9.744624834803428
 20
82.98856063463481
 30
0.0
 10
12.20717908766001
 20
80.52600638177823
 30
0.0
 10
12.20717908766001
 20
77.48846569243344
 30
0.0
 10
12.20717908766001
 20
74.45092500308866
 30
0.0
 10
9.744624834803428
 20
71.98837075023208
 30
0.0
 10
6.707084145458646
 20
71.98837075023208
 30
0.0
  0
SPLINE
  5
55
330
1F
100
AcDbEntity
  8
LAYER_1
 62
   250
100
AcDbSpline
210
0.0
220
0.0
230
1.0
 70
    11
 71
     3
 72
    17
 73
    13
 74
     0
 42
0.0000000001
 43
0.0000000001
 40
0.0
 40
0.0
 40
0.0
 40
0.0
 40
1.0
 40
1.0
 40
1.0
 40
2.0
 40
2.0
 40
2.0
 40
3.0
 40
3.0
 40
3.0
 40
4.0
 40
4.0
 40
4.0
 40
4.0
 10
6.707084145458646
 20
73.48836532450986
 30
0.0
 10
4.49808892031645
 20
73.48836532450986
 30
0.0
 10
2.70698377753506
 20
75.27912595774272
 30
0.0
 10
2.70698377753506
 20
77.48846569243344
 30
0.0
 10
2.70698377753506
 20
79.69780542712417
 30
0.0
 10
4.49808892031645
 20
81.48856606035703
 30
0.0
 10
6.707084145458646
 20
81.48856606035703
 30
0.0
 10
8.916079370600842
 20
81.48856606035703
 30
0.0
 10
10.70718451338223
 20
79.69780542712417
 30
0.0
 10
10.70718451338223
 20
77.48846569243344
 30
0.0
 10
10.70718451338223
 20
75.27912595774272
 30
0.0
 10
8.916079370600842
 20
73.48836532450986
 30
0.0
 10
6.707084145458646
 20
73.48836532450986
 30
0.0
  0
SPLINE
  5
56
330
1F
100
AcDbEntity
  8
LAYER_1
 62
   250
100
AcDbSpline
210
0.0
220
0.0
230
1.0
 70
    11
 71
     3
 72
    17
 73
    13
 74
     0
 42
0.0000000001
 43
0.0000000001
 40
0.0
 40
0.0
 40
0.0
 40
0.0
 40
1.0
 40
1.0
 40
1.0
 40
2.0
 40
2.0
 40
2.0
 40
3.0
 40
3.0
 40
3.0
 40
4.0
 40
4.0
 40
4.0
 40
4.0
 10
6.707084145458646
 20
77.38855792336119
 30
0.0
 10
6.651790362920386
 20
77.38855792336119
 30
0.0
 10
6.607004121612138
 20
77.43299965512092
 30
0.0
 10
6.607004121612138
 20
77.48846569243344
 30
0.0
 10
6.607004121612138
 20
77.54393172974596
 30
0.0
 10
6.651790362920386
 20
77.58837346150568
 30
0.0
 10
6.707084145458646
 20
77.58837346150568
 30
0.0
 10
6.762377927996906
 20
77.58837346150568
 30
0.0
 10
6.807164169305154
 20
77.54393172974596
 30
0.0
 10
6.807164169305154
 20
77.48846569243344
 30
0.0
 10
6.807164169305154
 20
77.43299965512092
 30
0.0
 10
6.762377927996906
 20
77.38855792336119
 30
0.0
 10
6.707084145458646
 20
77.38855792336119
 30
0.0
  0
SPLINE
  5
57
330
1F
100
AcDbEntity
  8
LAYER_1
 62
   250
100
AcDbSpline
210
0.0
220
0.0
230
1.0
 70
    11
 71
     3
 72
    17
 73
    13
 74
     0
 42
0.0000000001
 43
0.0000000001
 40
0.0
 40
0.0
 40
0.0
 40
0.0
 40
1.0
 40
1.0
 40
1.0
 40
2.0
 40
2.0
 40
2.0
 40
3.0
 40
3.0
 40
3.0
 40
4.0
 40
4.0
 40
4.0
 40
4.0
 10
6.707428655007171
 20
6.988376191829295
 30
0.0
 10
3.669887965662389
 20
6.988376191829295
 30
0.0
 10
1.207333712805805
 20
9.450930444685879
 30
0.0
 10
1.207333712805805
 20
12.48847113403066
 30
0.0
 10
1.207333712805805
 20
15.52601182337544
 30
0.0
 10
3.669887965662389
 20
17.9882215666835
 30
0.0
 10
6.707428655007171
 20
17.9882215666835
 30
0.0
 10
9.744969344351953
 20
17.9882215666835
 30
0.0
 10
12.20752359720854
 20
15.52601182337544
 30
0.0
 10
12.20752359720854
 20
12.48847113403066
 30
0.0
 10
12.20752359720854
 20
9.450930444685879
 30
0.0
 10
9.744969344351953
 20
6.988376191829295
 30
0.0
 10
6.707428655007171
 20
6.988376191829295
 30
0.0
  0
SPLINE
  5
58
330
1F
100
AcDbEntity
  8
LAYER_1
 62
   250
100
AcDbSpline
210
0.0
220
0.0
230
1.0
 70
    11
 71
     3
 72
    17
 73
    13
 74
     0
 42
0.0000000001
 43
0.0000000001
 40
0.0
 40
0.0
 40
0.0
 40
0.0
 40
1.0
 40
1.0
 40
1.0
 40
2.0
 40
2.0
 40
2.0
 40
3.0
 40
3.0
 40
3.0
 40
4.0
 40
4.0
 40
4.0
 40
4.0
 10
6.707428655007171
 20
8.488370766107074
 30
0.0
 10
4.4987779394135
 20
8.488370766107074
 30
0.0
 10
2.70767279663211
 20
10.27982041843699
 30
0.0
 10
2.70767279663211
 20
12.48847113403066
 30
0.0
 10
2.70767279663211
 20
14.69712184962433
 30
0.0
 10
4.4987779394135
 20
16.48822699240572
 30
0.0
 10
6.707428655007171
 20
16.48822699240572
 30
0.0
 10
8.916079370600842
 20
16.48822699240572
 30
0.0
 10
10.70718451338223
 20
14.69712184962433
 30
0.0
 10
10.70718451338223
 20
12.48847113403066
 30
0.0
 10
10.70718451338223
 20
10.27982041843699
 30
0.0
 10
8.916079370600842
 20
8.488370766107074
 30
0.0
 10
6.707428655007171
 20
8.488370766107074
 30
0.0
  0
SPLINE
  5
59
330
1F
100
AcDbEntity
  8
LAYER_1
 62
   250
100
AcDbSpline
210
0.0
220
0.0
230
1.0
 70
    11
 71
     3
 72
    17
 73
    13
 74
     0
 42
0.0000000001
 43
0.0000000001
 40
0.0
 40
0.0
 40
0.0
 40
0.0
 40
1.0
 40
1.0
 40
1.0
 40
2.0
 40
2.0
 40
2.0
 40
3.0
 40
3.0
 40
3.0
 40
4.0
 40
4.0
 40
4.0
 40
4.0
 10
6.707428655007171
 20
12.38821885540989
 30
0.0
 10
6.652134872468911
 20
12.38821885540989
 30
0.0
 10
6.607520885934925
 20
12.43300509671814
 30
0.0
 10
6.607520885934925
 20
12.48847113403066
 30
0.0
 10
6.607520885934925
 20
12.54359266179466
 30
0.0
 10
6.652134872468911
 20
12.5883789031029
 30
0.0
 10
6.707428655007171
 20
12.5883789031029
 30
0.0
 10
6.762722437545431
 20
12.5883789031029
 30
0.0
 10
6.807508678853678
 20
12.54359266179466
 30
0.0
 10
6.807508678853678
 20
12.48847113403066
 30
0.0
 10
6.807508678853678
 20
12.43300509671814
 30
0.0
 10
6.762722437545431
 20
12.38821885540989
 30
0.0
 10
6.707428655007171
 20
12.38821885540989
 30
0.0
  0
SPLINE
  5
5A
330
1F
100
AcDbEntity
  8
LAYER_1
 62
     7
100
AcDbSpline
210
0.0
220
0.0
230
1.0
 70
    11
 71
     3
 72
    29
 73
    25
 74
     0
 42
0.0000000001
 43
0.0000000001
 40
0.0
 40
0.0
 40
0.0
 40
0.0
 40
1.0
 40
1.0
 40
1.0
 40
2.0
 40
2.0
 40
2.0
 40
3.0
 40
3.0
 40
3.0
 40
4.0
 40
4.0
 40
4.0
 40
5.0
 40
5.0
 40
5.0
 40
6.0
 40
6.0
 40
6.0
 40
7.0
 40
7.0
 40
7.0
 40
8.0
 40
8.0
 40
8.0
 40
8.0
 10
13.20763481657656
 20
12.48847113403066
 30
0.0
 10
13.20763481657656
 20
12.49088270087034
 30
0.0
 10
13.20729030702804
 20
12.49294975816149
 30
0.0
 10
13.20729030702804
 20
12.49536132500116
 30
0.0
 10
13.20729030702804
 20
12.49536132500116
 30
0.0
 10
13.20729030702804
 20
77.48846569243344
 30
0.0
 10
13.20729030702804
 20
77.48846569243344
 30
0.0
 10
13.20729030702804
 20
81.07825518806378
 30
0.0
 10
10.29687364108898
 20
83.9883273444543
 30
0.0
 10
6.707084145458646
 20
83.9883273444543
 30
0.0
 10
3.117294649828315
 20
83.9883273444543
 30
0.0
 10
0.2068779838892527
 20
81.07825518806378
 30
0.0
 10
0.2068779838892527
 20
77.48846569243344
 30
0.0
 10
0.2068779838892527
 20
77.48605412559377
 30
0.0
 10
0.2072224934377777
 20
77.48398706830262
 30
0.0
 10
0.2072224934377777
 20
77.48157550146294
 30
0.0
 10
0.2072224934377777
 20
77.48157550146294
 30
0.0
 10
0.2072224934377777
 20
12.48847113403066
 30
0.0
 10
0.2072224934377777
 20
12.48847113403066
 30
0.0
 10
0.2072224934377777
 20
8.89868163840033
 30
0.0
 10
3.11763915937684
 20
5.988264972461267
 30
0.0
 10
6.707428655007171
 20
5.988264972461267
 30
0.0
 10
10.2972181506375
 20
5.988264972461267
 30
0.0
 10
13.20763481657656
 20
8.89868163840033
 30
0.0
 10
13.20763481657656
 20
12.48847113403066
 30
0.0
  0
SPLINE
  5
5B
330
1F
100
AcDbEntity
  8
LAYER_1
 62
   250
100
AcDbSpline
210
0.0
220
0.0
230
1.0
 70
    11
 71
     3
 72
    29
 73
    25
 74
     0
 42
0.0000000001
 43
0.0000000001
 40
0.0
 40
0.0
 40
0.0
 40
0.0
 40
1.0
 40
1.0
 40
1.0
 40
2.0
 40
2.0
 40
2.0
 40
3.0
 40
3.0
 40
3.0
 40
4.0
 40
4.0
 40
4.0
 40
5.0
 40
5.0
 40
5.0
 40
6.0
 40
6.0
 40
6.0
 40
7.0
 40
7.0
 40
7.0
 40
8.0
 40
8.0
 40
8.0
 40
8.0
 10
6.707428655007171
 20
21.48809407014881
 30
0.0
 10
4.775074597330537
 20
21.48809407014881
 30
0.0
 10
3.207556151541861
 20
22.95225965137999
 30
0.0
 10
3.207556151541861
 20
24.75817870474796
 30
0.0
 10
3.207556151541861
 20
24.75817870474796
 30
0.0
 10
3.207556151541861
 20
65.2180691026191
 30
0.0
 10
3.207556151541861
 20
65.2180691026191
 30
0.0
 10
3.207556151541861
 20
67.02398815598706
 30
0.0
 10
4.775074597330537
 20
68.48815373721824
 30
0.0
 10
6.707428655007171
 20
68.48815373721824
 30
0.0
 10
6.707428655007171
 20
68.48815373721824
 30
0.0
 10
6.707428655007171
 20
68.48815373721824
 30
0.0
 10
6.707428655007171
 20
68.48815373721824
 30
0.0
 10
8.64012722223233
 20
68.48815373721824
 30
0.0
 10
10.20764566802101
 20
67.02398815598706
 30
0.0
 10
10.20764566802101
 20
65.2180691026191
 30
0.0
 10
10.20764566802101
 20
65.2180691026191
 30
0.0
 10
10.20764566802101
 20
24.75817870474796
 30
0.0
 10
10.20764566802101
 20
24.75817870474796
 30
0.0
 10
10.20764566802101
 20
22.95225965137999
 30
0.0
 10
8.64012722223233
 20
21.48809407014881
 30
0.0
 10
6.707428655007171
 20
21.48809407014881
 30
0.0
 10
6.707428655007171
 20
21.48809407014881
 30
0.0
 10
6.707428655007171
 20
21.48809407014881
 30
0.0
 10
6.707428655007171
 20
21.48809407014881
 30
0.0
  0
SPLINE
  5
5C
330
1F
100
AcDbEntity
  8
LAYER_1
 62
   250
100
AcDbSpline
210
0.0
220
0.0
230
1.0
 70
    11
 71
     3
 72
    29
 73
    25
 74
     0
 42
0.0000000001
 43
0.0000000001
 40
0.0
 40
0.0
 40
0.0
 40
0.0
 40
1.0
 40
1.0
 40
1.0
 40
2.0
 40
2.0
 40
2.0
 40
3.0
 40
3.0
 40
3.0
 40
4.0
 40
4.0
 40
4.0
 40
5.0
 40
5.0
 40
5.0
 40
6.0
 40
6.0
 40
6.0
 40
7.0
 40
7.0
 40
7.0
 40
8.0
 40
8.0
 40
8.0
 40
8.0
 10
88.82524140574509
 20
-0.0117133246498494
 30
0.0
 10
81.9217868176272
 20
-0.0117133246498494
 30
0.0
 10
76.3254014566131
 20
5.997911239819967
 30
0.0
 10
76.3254014566131
 20
13.41106770498057
 30
0.0
 10
76.3254014566131
 20
13.41106770498057
 30
0.0
 10
76.3254014566131
 20
76.56552461193502
 30
0.0
 10
76.3254014566131
 20
76.56552461193502
 30
0.0
 10
76.3254014566131
 20
83.97868107709562
 30
0.0
 10
81.9217868176272
 20
89.98830564156543
 30
0.0
 10
88.82524140574509
 20
89.98830564156543
 30
0.0
 10
88.82524140574509
 20
89.98830564156543
 30
0.0
 10
88.82524140574509
 20
89.98830564156543
 30
0.0
 10
88.82524140574509
 20
89.98830564156543
 30
0.0
 10
95.72869599386297
 20
89.98830564156543
 30
0.0
 10
101.3254258644256
 20
83.97868107709562
 30
0.0
 10
101.3254258644256
 20
76.56552461193502
 30
0.0
 10
101.3254258644256
 20
76.56552461193502
 30
0.0
 10
101.3254258644256
 20
13.41106770498057
 30
0.0
 10
101.3254258644256
 20
13.41106770498057
 30
0.0
 10
101.3254258644256
 20
5.997911239819967
 30
0.0
 10
95.72869599386297
 20
-0.0117133246498494
 30
0.0
 10
88.82524140574509
 20
-0.0117133246498494
 30
0.0
 10
88.82524140574509
 20
-0.0117133246498494
 30
0.0
 10
88.82524140574509
 20
-0.0117133246498494
 30
0.0
 10
88.82524140574509
 20
-0.0117133246498494
 30
0.0
  0
SPLINE
  5
5D
330
1F
100
AcDbEntity
  8
LAYER_1
 62
   250
100
AcDbSpline
210
0.0
220
0.0
230
1.0
 70
    11
 71
     3
 72
    17
 73
    13
 74
     0
 42
0.0000000001
 43
0.0000000001
 40
0.0
 40
0.0
 40
0.0
 40
0.0
 40
1.0
 40
1.0
 40
1.0
 40
2.0
 40
2.0
 40
2.0
 40
3.0
 40
3.0
 40
3.0
 40
4.0
 40
4.0
 40
4.0
 40
4.0
 10
88.82524140574509
 20
69.48826495658626
 30
0.0
 10
84.40707870068643
 20
69.48826495658626
 30
0.0
 10
80.82538517944643
 20
73.07013073260053
 30
0.0
 10
80.82538517944643
 20
77.48846569243344
 30
0.0
 10
80.82538517944643
 20
81.90645614271783
 30
0.0
 10
84.40707870068643
 20
85.48832191873208
 30
0.0
 10
88.82524140574509
 20
85.48832191873208
 30
0.0
 10
93.243576365578
 20
85.48832191873208
 30
0.0
 10
96.82544214159225
 20
81.90645614271783
 30
0.0
 10
96.82544214159225
 20
77.48846569243344
 30
0.0
 10
96.82544214159225
 20
73.07013073260053
 30
0.0
 10
93.243576365578
 20
69.48826495658626
 30
0.0
 10
88.82524140574509
 20
69.48826495658626
 30
0.0
  0
SPLINE
  5
5E
330
1F
100
AcDbEntity
  8
LAYER_1
 62
   250
100
AcDbSpline
210
0.0
220
0.0
230
1.0
 70
    11
 71
     3
 72
    17
 73
    13
 74
     0
 42
0.0000000001
 43
0.0000000001
 40
0.0
 40
0.0
 40
0.0
 40
0.0
 40
1.0
 40
1.0
 40
1.0
 40
2.0
 40
2.0
 40
2.0
 40
3.0
 40
3.0
 40
3.0
 40
4.0
 40
4.0
 40
4.0
 40
4.0
 10
88.82524140574509
 20
70.98825953086406
 30
0.0
 10
85.23545191011475
 20
70.98825953086406
 30
0.0
 10
82.32537975372422
 20
73.89867619680311
 30
0.0
 10
82.32537975372422
 20
77.48846569243344
 30
0.0
 10
82.32537975372422
 20
81.07825518806378
 30
0.0
 10
85.23545191011475
 20
83.9883273444543
 30
0.0
 10
88.82524140574509
 20
83.9883273444543
 30
0.0
 10
92.41520315614967
 20
83.9883273444543
 30
0.0
 10
95.32544756731447
 20
81.07825518806378
 30
0.0
 10
95.32544756731447
 20
77.48846569243344
 30
0.0
 10
95.32544756731447
 20
73.89867619680311
 30
0.0
 10
92.41520315614967
 20
70.98825953086406
 30
0.0
 10
88.82524140574509
 20
70.98825953086406
 30
0.0
  0
SPLINE
  5
5F
330
1F
100
AcDbEntity
  8
LAYER_1
 62
   250
100
AcDbSpline
210
0.0
220
0.0
230
1.0
 70
    11
 71
     3
 72
    17
 73
    13
 74
     0
 42
0.0000000001
 43
0.0000000001
 40
0.0
 40
0.0
 40
0.0
 40
0.0
 40
1.0
 40
1.0
 40
1.0
 40
2.0
 40
2.0
 40
2.0
 40
3.0
 40
3.0
 40
3.0
 40
4.0
 40
4.0
 40
4.0
 40
4.0
 10
88.82541366051935
 20
77.38821341381268
 30
0.0
 10
88.77011987798109
 20
77.38821341381268
 30
0.0
 10
88.7255058914471
 20
77.43299965512092
 30
0.0
 10
88.7255058914471
 20
77.48846569243344
 30
0.0
 10
88.7255058914471
 20
77.54358722019744
 30
0.0
 10
88.77011987798109
 20
77.58837346150568
 30
0.0
 10
88.82541366051935
 20
77.58837346150568
 30
0.0
 10
88.8807074430576
 20
77.58837346150568
 30
0.0
 10
88.92549368436585
 20
77.54358722019744
 30
0.0
 10
88.92549368436585
 20
77.48846569243344
 30
0.0
 10
88.92549368436585
 20
77.43299965512092
 30
0.0
 10
88.8807074430576
 20
77.38821341381268
 30
0.0
 10
88.82541366051935
 20
77.38821341381268
 30
0.0
  0
SPLINE
  5
60
330
1F
100
AcDbEntity
  8
LAYER_1
 62
   250
100
AcDbSpline
210
0.0
220
0.0
230
1.0
 70
    11
 71
     3
 72
    17
 73
    13
 74
     0
 42
0.0000000001
 43
0.0000000001
 40
0.0
 40
0.0
 40
0.0
 40
0.0
 40
1.0
 40
1.0
 40
1.0
 40
2.0
 40
2.0
 40
2.0
 40
3.0
 40
3.0
 40
3.0
 40
4.0
 40
4.0
 40
4.0
 40
4.0
 10
88.82524140574509
 20
7.477235241186247
 30
0.0
 10
86.06399737431734
 20
7.477235241186247
 30
0.0
 10
83.825374328002
 20
9.715513777953067
 30
0.0
 10
83.825374328002
 20
12.47710231892934
 30
0.0
 10
83.825374328002
 20
15.23869085990561
 30
0.0
 10
86.06399737431734
 20
17.47696939667243
 30
0.0
 10
88.82524140574509
 20
17.47696939667243
 30
0.0
 10
91.58682994672135
 20
17.47696939667243
 30
0.0
 10
93.82545299303669
 20
15.23869085990561
 30
0.0
 10
93.82545299303669
 20
12.47710231892934
 30
0.0
 10
93.82545299303669
 20
9.715513777953067
 30
0.0
 10
91.58682994672135
 20
7.477235241186247
 30
0.0
 10
88.82524140574509
 20
7.477235241186247
 30
0.0
  0
SPLINE
  5
61
330
1F
100
AcDbEntity
  8
LAYER_1
 62
   250
100
AcDbSpline
210
0.0
220
0.0
230
1.0
 70
    11
 71
     3
 72
    17
 73
    13
 74
     0
 42
0.0000000001
 43
0.0000000001
 40
0.0
 40
0.0
 40
0.0
 40
0.0
 40
1.0
 40
1.0
 40
1.0
 40
2.0
 40
2.0
 40
2.0
 40
3.0
 40
3.0
 40
3.0
 40
4.0
 40
4.0
 40
4.0
 40
4.0
 10
88.82541366051935
 20
12.37719454985709
 30
0.0
 10
88.77011987798109
 20
12.37719454985709
 30
0.0
 10
88.72533363667284
 20
12.42198079116534
 30
0.0
 10
88.72533363667284
 20
12.47710231892934
 30
0.0
 10
88.72533363667284
 20
12.53256835624186
 30
0.0
 10
88.77011987798109
 20
12.57735459755011
 30
0.0
 10
88.82541366051935
 20
12.57735459755011
 30
0.0
 10
88.8807074430576
 20
12.57735459755011
 30
0.0
 10
88.92549368436585
 20
12.53256835624186
 30
0.0
 10
88.92549368436585
 20
12.47710231892934
 30
0.0
 10
88.92549368436585
 20
12.42198079116534
 30
0.0
 10
88.8807074430576
 20
12.37719454985709
 30
0.0
 10
88.82541366051935
 20
12.37719454985709
 30
0.0
  0
SPLINE
  5
62
330
1F
100
AcDbEntity
  8
LAYER_1
 62
   250
100
AcDbSpline
210
0.0
220
0.0
230
1.0
 70
    11
 71
     3
 72
    17
 73
    13
 74
     0
 42
0.0000000001
 43
0.0000000001
 40
0.0
 40
0.0
 40
0.0
 40
0.0
 40
1.0
 40
1.0
 40
1.0
 40
2.0
 40
2.0
 40
2.0
 40
3.0
 40
3.0
 40
3.0
 40
4.0
 40
4.0
 40
4.0
 40
4.0
 10
88.82541366051935
 20
38.14306368404063
 30
0.0
 10
87.99704045109102
 20
38.14306368404063
 30
0.0
 10
87.32541908624157
 20
38.81451279411582
 30
0.0
 10
87.32541908624157
 20
39.6430582583184
 30
0.0
 10
87.32541908624157
 20
40.47160372252099
 30
0.0
 10
87.99704045109102
 20
41.14305283259618
 30
0.0
 10
88.82541366051935
 20
41.14305283259618
 30
0.0
 10
89.65378686994767
 20
41.14305283259618
 30
0.0
 10
90.32540823479712
 20
40.47160372252099
 30
0.0
 10
90.32540823479712
 20
39.6430582583184
 30
0.0
 10
90.32540823479712
 20
38.81451279411582
 30
0.0
 10
89.65378686994767
 20
38.14306368404063
 30
0.0
 10
88.82541366051935
 20
38.14306368404063
 30
0.0
  0
SPLINE
  5
63
330
1F
100
AcDbEntity
  8
LAYER_1
 62
   250
100
AcDbSpline
210
0.0
220
0.0
230
1.0
 70
    11
 71
     3
 72
    17
 73
    13
 74
     0
 42
0.0000000001
 43
0.0000000001
 40
0.0
 40
0.0
 40
0.0
 40
0.0
 40
1.0
 40
1.0
 40
1.0
 40
2.0
 40
2.0
 40
2.0
 40
3.0
 40
3.0
 40
3.0
 40
4.0
 40
4.0
 40
4.0
 40
4.0
 10
88.82541366051935
 20
39.54315048924616
 30
0.0
 10
88.77011987798109
 20
39.54315048924616
 30
0.0
 10
88.7255058914471
 20
39.5879367305544
 30
0.0
 10
88.7255058914471
 20
39.6430582583184
 30
0.0
 10
88.7255058914471
 20
39.6981797860824
 30
0.0
 10
88.77011987798109
 20
39.74296602739065
 30
0.0
 10
88.82541366051935
 20
39.74296602739065
 30
0.0
 10
88.8807074430576
 20
39.74296602739065
 30
0.0
 10
88.92549368436585
 20
39.6981797860824
 30
0.0
 10
88.92549368436585
 20
39.6430582583184
 30
0.0
 10
88.92549368436585
 20
39.5879367305544
 30
0.0
 10
88.8807074430576
 20
39.54315048924616
 30
0.0
 10
88.82541366051935
 20
39.54315048924616
 30
0.0
  0
SPLINE
  5
64
330
1F
100
AcDbEntity
  8
LAYER_1
 62
   250
100
AcDbSpline
210
0.0
220
0.0
230
1.0
 70
    11
 71
     3
 72
    17
 73
    13
 74
     0
 42
0.0000000001
 43
0.0000000001
 40
0.0
 40
0.0
 40
0.0
 40
0.0
 40
1.0
 40
1.0
 40
1.0
 40
2.0
 40
2.0
 40
2.0
 40
3.0
 40
3.0
 40
3.0
 40
4.0
 40
4.0
 40
4.0
 40
4.0
 10
88.82541366051935
 20
50.84306368086563
 30
0.0
 10
87.99704045109102
 20
50.84306368086563
 30
0.0
 10
87.32541908624157
 20
51.51451279094082
 30
0.0
 10
87.32541908624157
 20
52.3430582551434
 30
0.0
 10
87.32541908624157
 20
53.17160371934599
 30
0.0
 10
87.99704045109102
 20
53.84305282942118
 30
0.0
 10
88.82541366051935
 20
53.84305282942118
 30
0.0
 10
89.65378686994767
 20
53.84305282942118
 30
0.0
 10
90.32540823479712
 20
53.17160371934599
 30
0.0
 10
90.32540823479712
 20
52.3430582551434
 30
0.0
 10
90.32540823479712
 20
51.51451279094082
 30
0.0
 10
89.65378686994767
 20
50.84306368086563
 30
0.0
 10
88.82541366051935
 20
50.84306368086563
 30
0.0
  0
SPLINE
  5
65
330
1F
100
AcDbEntity
  8
LAYER_1
 62
   250
100
AcDbSpline
210
0.0
220
0.0
230
1.0
 70
    11
 71
     3
 72
    17
 73
    13
 74
     0
 42
0.0000000001
 43
0.0000000001
 40
0.0
 40
0.0
 40
0.0
 40
0.0
 40
1.0
 40
1.0
 40
1.0
 40
2.0
 40
2.0
 40
2.0
 40
3.0
 40
3.0
 40
3.0
 40
4.0
 40
4.0
 40
4.0
 40
4.0
 10
88.82541366051935
 20
52.24383950516821
 30
0.0
 10
88.77011987798109
 20
52.24383950516821
 30
0.0
 10
88.7255058914471
 20
52.28862574647646
 30
0.0
 10
88.7255058914471
 20
52.34374727424046
 30
0.0
 10
88.7255058914471
 20
52.39886880200445
 30
0.0
 10
88.77011987798109
 20
52.4436550433127
 30
0.0
 10
88.82541366051935
 20
52.4436550433127
 30
0.0
 10
88.8807074430576
 20
52.4436550433127
 30
0.0
 10
88.92549368436585
 20
52.39886880200445
 30
0.0
 10
88.92549368436585
 20
52.34374727424046
 30
0.0
 10
88.92549368436585
 20
52.28862574647646
 30
0.0
 10
88.8807074430576
 20
52.24383950516821
 30
0.0
 10
88.82541366051935
 20
52.24383950516821
 30
0.0
  0
SPLINE
  5
66
330
1F
100
AcDbEntity
  8
LAYER_1
 62
   250
100
AcDbSpline
210
0.0
220
0.0
230
1.0
 70
    11
 71
     3
 72
    17
 73
    13
 74
     0
 42
0.0000000001
 43
0.0000000001
 40
0.0
 40
0.0
 40
0.0
 40
0.0
 40
1.0
 40
1.0
 40
1.0
 40
2.0
 40
2.0
 40
2.0
 40
3.0
 40
3.0
 40
3.0
 40
4.0
 40
4.0
 40
4.0
 40
4.0
 10
88.82524140574509
 20
5.977240666908468
 30
0.0
 10
85.23545191011475
 20
5.977240666908468
 30
0.0
 10
82.32537975372422
 20
8.887312823299006
 30
0.0
 10
82.32537975372422
 20
12.47710231892934
 30
0.0
 10
82.32537975372422
 20
16.06689181455967
 30
0.0
 10
85.23545191011475
 20
18.97696397095021
 30
0.0
 10
88.82524140574509
 20
18.97696397095021
 30
0.0
 10
92.41520315614967
 20
18.97696397095021
 30
0.0
 10
95.32544756731447
 20
16.06689181455967
 30
0.0
 10
95.32544756731447
 20
12.47710231892934
 30
0.0
 10
95.32544756731447
 20
8.887312823299006
 30
0.0
 10
92.41520315614967
 20
5.977240666908468
 30
0.0
 10
88.82524140574509
 20
5.977240666908468
 30
0.0
  0
SPLINE
  5
67
330
1F
100
AcDbEntity
  8
LAYER_1
 62
   250
100
AcDbSpline
210
0.0
220
0.0
230
1.0
 70
    11
 71
     3
 72
    29
 73
    25
 74
     0
 42
0.0000000001
 43
0.0000000001
 40
0.0
 40
0.0
 40
0.0
 40
0.0
 40
1.0
 40
1.0
 40
1.0
 40
2.0
 40
2.0
 40
2.0
 40
3.0
 40
3.0
 40
3.0
 40
4.0
 40
4.0
 40
4.0
 40
5.0
 40
5.0
 40
5.0
 40
6.0
 40
6.0
 40
6.0
 40
7.0
 40
7.0
 40
7.0
 40
8.0
 40
8.0
 40
8.0
 40
8.0
 10
119.825416365443
 20
-0.0117133246498494
 30
0.0
 10
112.9219617773251
 20
-0.0117133246498494
 30
0.0
 10
107.325576416311
 20
5.997911239819967
 30
0.0
 10
107.325576416311
 20
13.41106770498057
 30
0.0
 10
107.325576416311
 20
13.41106770498057
 30
0.0
 10
107.325576416311
 20
76.56552461193502
 30
0.0
 10
107.325576416311
 20
76.56552461193502
 30
0.0
 10
107.325576416311
 20
83.97868107709562
 30
0.0
 10
112.9219617773251
 20
89.98830564156543
 30
0.0
 10
119.825416365443
 20
89.98830564156543
 30
0.0
 10
119.825416365443
 20
89.98830564156543
 30
0.0
 10
119.825416365443
 20
89.98830564156543
 30
0.0
 10
119.825416365443
 20
89.98830564156543
 30
0.0
 10
126.7288709535608
 20
89.98830564156543
 30
0.0
 10
132.3256008241235
 20
83.97868107709562
 30
0.0
 10
132.3256008241235
 20
76.56552461193502
 30
0.0
 10
132.3256008241235
 20
76.56552461193502
 30
0.0
 10
132.3256008241235
 20
13.41106770498057
 30
0.0
 10
132.3256008241235
 20
13.41106770498057
 30
0.0
 10
132.3256008241235
 20
5.997911239819967
 30
0.0
 10
126.7288709535608
 20
-0.0117133246498494
 30
0.0
 10
119.825416365443
 20
-0.0117133246498494
 30
0.0
 10
119.825416365443
 20
-0.0117133246498494
 30
0.0
 10
119.825416365443
 20
-0.0117133246498494
 30
0.0
 10
119.825416365443
 20
-0.0117133246498494
 30
0.0
  0
SPLINE
  5
68
330
1F
100
AcDbEntity
  8
LAYER_1
 62
   250
100
AcDbSpline
210
0.0
220
0.0
230
1.0
 70
    11
 71
     3
 72
    17
 73
    13
 74
     0
 42
0.0000000001
 43
0.0000000001
 40
0.0
 40
0.0
 40
0.0
 40
0.0
 40
1.0
 40
1.0
 40
1.0
 40
2.0
 40
2.0
 40
2.0
 40
3.0
 40
3.0
 40
3.0
 40
4.0
 40
4.0
 40
4.0
 40
4.0
 10
119.825416365443
 20
69.48826495658626
 30
0.0
 10
115.4072536603843
 20
69.48826495658626
 30
0.0
 10
111.8255601391443
 20
73.07013073260053
 30
0.0
 10
111.8255601391443
 20
77.48846569243344
 30
0.0
 10
111.8255601391443
 20
81.90645614271783
 30
0.0
 10
115.4072536603843
 20
85.48832191873208
 30
0.0
 10
119.825416365443
 20
85.48832191873208
 30
0.0
 10
124.2437513252759
 20
85.48832191873208
 30
0.0
 10
127.8256171012901
 20
81.90645614271783
 30
0.0
 10
127.8256171012901
 20
77.48846569243344
 30
0.0
 10
127.8256171012901
 20
73.07013073260053
 30
0.0
 10
124.2437513252759
 20
69.48826495658626
 30
0.0
 10
119.825416365443
 20
69.48826495658626
 30
0.0
  0
SPLINE
  5
69
330
1F
100
AcDbEntity
  8
LAYER_1
 62
   250
100
AcDbSpline
210
0.0
220
0.0
230
1.0
 70
    11
 71
     3
 72
    17
 73
    13
 74
     0
 42
0.0000000001
 43
0.0000000001
 40
0.0
 40
0.0
 40
0.0
 40
0.0
 40
1.0
 40
1.0
 40
1.0
 40
2.0
 40
2.0
 40
2.0
 40
3.0
 40
3.0
 40
3.0
 40
4.0
 40
4.0
 40
4.0
 40
4.0
 10
119.825416365443
 20
70.98825953086406
 30
0.0
 10
116.2356268698126
 20
70.98825953086406
 30
0.0
 10
113.3255547134221
 20
73.89867619680311
 30
0.0
 10
113.3255547134221
 20
77.48846569243344
 30
0.0
 10
113.3255547134221
 20
81.07825518806378
 30
0.0
 10
116.2356268698126
 20
83.9883273444543
 30
0.0
 10
119.825416365443
 20
83.9883273444543
 30
0.0
 10
123.4153781158475
 20
83.9883273444543
 30
0.0
 10
126.3256225270124
 20
81.07825518806378
 30
0.0
 10
126.3256225270124
 20
77.48846569243344
 30
0.0
 10
126.3256225270124
 20
73.89867619680311
 30
0.0
 10
123.4153781158475
 20
70.98825953086406
 30
0.0
 10
119.825416365443
 20
70.98825953086406
 30
0.0
  0
SPLINE
  5
6A
330
1F
100
AcDbEntity
  8
LAYER_1
 62
   250
100
AcDbSpline
210
0.0
220
0.0
230
1.0
 70
    11
 71
     3
 72
    17
 73
    13
 74
     0
 42
0.0000000001
 43
0.0000000001
 40
0.0
 40
0.0
 40
0.0
 40
0.0
 40
1.0
 40
1.0
 40
1.0
 40
2.0
 40
2.0
 40
2.0
 40
3.0
 40
3.0
 40
3.0
 40
4.0
 40
4.0
 40
4.0
 40
4.0
 10
119.82610538454
 20
77.38821341381268
 30
0.0
 10
119.7708116020017
 20
77.38821341381268
 30
0.0
 10
119.7260253606935
 20
77.43299965512092
 30
0.0
 10
119.7260253606935
 20
77.48846569243344
 30
0.0
 10
119.7260253606935
 20
77.54358722019744
 30
0.0
 10
119.7708116020017
 20
77.58837346150568
 30
0.0
 10
119.82610538454
 20
77.58837346150568
 30
0.0
 10
119.881226912304
 20
77.58837346150568
 30
0.0
 10
119.9260131536122
 20
77.54358722019744
 30
0.0
 10
119.9260131536122
 20
77.48846569243344
 30
0.0
 10
119.9260131536122
 20
77.43299965512092
 30
0.0
 10
119.881226912304
 20
77.38821341381268
 30
0.0
 10
119.82610538454
 20
77.38821341381268
 30
0.0
  0
SPLINE
  5
6B
330
1F
100
AcDbEntity
  8
LAYER_1
 62
   250
100
AcDbSpline
210
0.0
220
0.0
230
1.0
 70
    11
 71
     3
 72
    17
 73
    13
 74
     0
 42
0.0000000001
 43
0.0000000001
 40
0.0
 40
0.0
 40
0.0
 40
0.0
 40
1.0
 40
1.0
 40
1.0
 40
2.0
 40
2.0
 40
2.0
 40
3.0
 40
3.0
 40
3.0
 40
4.0
 40
4.0
 40
4.0
 40
4.0
 10
119.825416365443
 20
7.477235241186247
 30
0.0
 10
117.0641723340152
 20
7.477235241186247
 30
0.0
 10
114.8255492876999
 20
9.715513777953067
 30
0.0
 10
114.8255492876999
 20
12.47710231892934
 30
0.0
 10
114.8255492876999
 20
15.23869085990561
 30
0.0
 10
117.0641723340152
 20
17.47696939667243
 30
0.0
 10
119.825416365443
 20
17.47696939667243
 30
0.0
 10
122.5870049064192
 20
17.47696939667243
 30
0.0
 10
124.8256279527346
 20
15.23869085990561
 30
0.0
 10
124.8256279527346
 20
12.47710231892934
 30
0.0
 10
124.8256279527346
 20
9.715513777953067
 30
0.0
 10
122.5870049064192
 20
7.477235241186247
 30
0.0
 10
119.825416365443
 20
7.477235241186247
 30
0.0
  0
SPLINE
  5
6C
330
1F
100
AcDbEntity
  8
LAYER_1
 62
   250
100
AcDbSpline
210
0.0
220
0.0
230
1.0
 70
    11
 71
     3
 72
    17
 73
    13
 74
     0
 42
0.0000000001
 43
0.0000000001
 40
0.0
 40
0.0
 40
0.0
 40
0.0
 40
1.0
 40
1.0
 40
1.0
 40
2.0
 40
2.0
 40
2.0
 40
3.0
 40
3.0
 40
3.0
 40
4.0
 40
4.0
 40
4.0
 40
4.0
 10
119.82610538454
 20
12.37719454985709
 30
0.0
 10
119.7708116020017
 20
12.37719454985709
 30
0.0
 10
119.7260253606935
 20
12.42198079116534
 30
0.0
 10
119.7260253606935
 20
12.47710231892934
 30
0.0
 10
119.7260253606935
 20
12.53256835624186
 30
0.0
 10
119.7708116020017
 20
12.57735459755011
 30
0.0
 10
119.82610538454
 20
12.57735459755011
 30
0.0
 10
119.881226912304
 20
12.57735459755011
 30
0.0
 10
119.9260131536122
 20
12.53256835624186
 30
0.0
 10
119.9260131536122
 20
12.47710231892934
 30
0.0
 10
119.9260131536122
 20
12.42198079116534
 30
0.0
 10
119.881226912304
 20
12.37719454985709
 30
0.0
 10
119.82610538454
 20
12.37719454985709
 30
0.0
  0
SPLINE
  5
6D
330
1F
100
AcDbEntity
  8
LAYER_1
 62
   250
100
AcDbSpline
210
0.0
220
0.0
230
1.0
 70
    11
 71
     3
 72
    17
 73
    13
 74
     0
 42
0.0000000001
 43
0.0000000001
 40
0.0
 40
0.0
 40
0.0
 40
0.0
 40
1.0
 40
1.0
 40
1.0
 40
2.0
 40
2.0
 40
2.0
 40
3.0
 40
3.0
 40
3.0
 40
4.0
 40
4.0
 40
4.0
 40
4.0
 10
119.8255886202172
 20
38.14306368404063
 30
0.0
 10
118.9972154107889
 20
38.14306368404063
 30
0.0
 10
118.3255940459394
 20
38.81451279411582
 30
0.0
 10
118.3255940459394
 20
39.6430582583184
 30
0.0
 10
118.3255940459394
 20
40.47160372252099
 30
0.0
 10
118.9972154107889
 20
41.14305283259618
 30
0.0
 10
119.8255886202172
 20
41.14305283259618
 30
0.0
 10
120.6539618296455
 20
41.14305283259618
 30
0.0
 10
121.325583194495
 20
40.47160372252099
 30
0.0
 10
121.325583194495
 20
39.6430582583184
 30
0.0
 10
121.325583194495
 20
38.81451279411582
 30
0.0
 10
120.6539618296455
 20
38.14306368404063
 30
0.0
 10
119.8255886202172
 20
38.14306368404063
 30
0.0
  0
SPLINE
  5
6E
330
1F
100
AcDbEntity
  8
LAYER_1
 62
   250
100
AcDbSpline
210
0.0
220
0.0
230
1.0
 70
    11
 71
     3
 72
    17
 73
    13
 74
     0
 42
0.0000000001
 43
0.0000000001
 40
0.0
 40
0.0
 40
0.0
 40
0.0
 40
1.0
 40
1.0
 40
1.0
 40
2.0
 40
2.0
 40
2.0
 40
3.0
 40
3.0
 40
3.0
 40
4.0
 40
4.0
 40
4.0
 40
4.0
 10
119.8259331297657
 20
39.54315048924616
 30
0.0
 10
119.7708116020017
 20
39.54315048924616
 30
0.0
 10
119.7260253606935
 20
39.5879367305544
 30
0.0
 10
119.7260253606935
 20
39.6430582583184
 30
0.0
 10
119.7260253606935
 20
39.6981797860824
 30
0.0
 10
119.7708116020017
 20
39.74296602739065
 30
0.0
 10
119.8259331297657
 20
39.74296602739065
 30
0.0
 10
119.881226912304
 20
39.74296602739065
 30
0.0
 10
119.9260131536122
 20
39.6981797860824
 30
0.0
 10
119.9260131536122
 20
39.6430582583184
 30
0.0
 10
119.9260131536122
 20
39.5879367305544
 30
0.0
 10
119.881226912304
 20
39.54315048924616
 30
0.0
 10
119.8259331297657
 20
39.54315048924616
 30
0.0
  0
SPLINE
  5
6F
330
1F
100
AcDbEntity
  8
LAYER_1
 62
   250
100
AcDbSpline
210
0.0
220
0.0
230
1.0
 70
    11
 71
     3
 72
    17
 73
    13
 74
     0
 42
0.0000000001
 43
0.0000000001
 40
0.0
 40
0.0
 40
0.0
 40
0.0
 40
1.0
 40
1.0
 40
1.0
 40
2.0
 40
2.0
 40
2.0
 40
3.0
 40
3.0
 40
3.0
 40
4.0
 40
4.0
 40
4.0
 40
4.0
 10
119.8255886202172
 20
50.84306368086563
 30
0.0
 10
118.9972154107889
 20
50.84306368086563
 30
0.0
 10
118.3255940459394
 20
51.51451279094082
 30
0.0
 10
118.3255940459394
 20
52.3430582551434
 30
0.0
 10
118.3255940459394
 20
53.17160371934599
 30
0.0
 10
118.9972154107889
 20
53.84305282942118
 30
0.0
 10
119.8255886202172
 20
53.84305282942118
 30
0.0
 10
120.6539618296455
 20
53.84305282942118
 30
0.0
 10
121.325583194495
 20
53.17160371934599
 30
0.0
 10
121.325583194495
 20
52.3430582551434
 30
0.0
 10
121.325583194495
 20
51.51451279094082
 30
0.0
 10
120.6539618296455
 20
50.84306368086563
 30
0.0
 10
119.8255886202172
 20
50.84306368086563
 30
0.0
  0
SPLINE
  5
70
330
1F
100
AcDbEntity
  8
LAYER_1
 62
   250
100
AcDbSpline
210
0.0
220
0.0
230
1.0
 70
    11
 71
     3
 72
    17
 73
    13
 74
     0
 42
0.0000000001
 43
0.0000000001
 40
0.0
 40
0.0
 40
0.0
 40
0.0
 40
1.0
 40
1.0
 40
1.0
 40
2.0
 40
2.0
 40
2.0
 40
3.0
 40
3.0
 40
3.0
 40
4.0
 40
4.0
 40
4.0
 40
4.0
 10
119.8259331297657
 20
52.24383950516821
 30
0.0
 10
119.7708116020017
 20
52.24383950516821
 30
0.0
 10
119.7260253606935
 20
52.28862574647646
 30
0.0
 10
119.7260253606935
 20
52.34374727424046
 30
0.0
 10
119.7260253606935
 20
52.39886880200445
 30
0.0
 10
119.7708116020017
 20
52.4436550433127
 30
0.0
 10
119.8259331297657
 20
52.4436550433127
 30
0.0
 10
119.881226912304
 20
52.4436550433127
 30
0.0
 10
119.9260131536122
 20
52.39886880200445
 30
0.0
 10
119.9260131536122
 20
52.34374727424046
 30
0.0
 10
119.9260131536122
 20
52.28862574647646
 30
0.0
 10
119.881226912304
 20
52.24383950516821
 30
0.0
 10
119.8259331297657
 20
52.24383950516821
 30
0.0
  0
SPLINE
  5
71
330
1F
100
AcDbEntity
  8
LAYER_1
 62
   250
100
AcDbSpline
210
0.0
220
0.0
230
1.0
 70
    11
 71
     3
 72
    17
 73
    13
 74
     0
 42
0.0000000001
 43
0.0000000001
 40
0.0
 40
0.0
 40
0.0
 40
0.0
 40
1.0
 40
1.0
 40
1.0
 40
2.0
 40
2.0
 40
2.0
 40
3.0
 40
3.0
 40
3.0
 40
4.0
 40
4.0
 40
4.0
 40
4.0
 10
119.825416365443
 20
5.977240666908468
 30
0.0
 10
116.2356268698126
 20
5.977240666908468
 30
0.0
 10
113.3255547134221
 20
8.887312823299006
 30
0.0
 10
113.3255547134221
 20
12.47710231892934
 30
0.0
 10
113.3255547134221
 20
16.06689181455967
 30
0.0
 10
116.2356268698126
 20
18.97696397095021
 30
0.0
 10
119.825416365443
 20
18.97696397095021
 30
0.0
 10
123.4153781158475
 20
18.97696397095021
 30
0.0
 10
126.3256225270124
 20
16.06689181455967
 30
0.0
 10
126.3256225270124
 20
12.47710231892934
 30
0.0
 10
126.3256225270124
 20
8.887312823299006
 30
0.0
 10
123.4153781158475
 20
5.977240666908468
 30
0.0
 10
119.825416365443
 20
5.977240666908468
 30
0.0
  0
ENDSEC
  0
SECTION
  2
OBJECTS
  0
DICTIONARY
  5
C
330
0
100
AcDbDictionary
  3
ACAD_GROUP
350
D
  3
ACAD_LAYOUT
350
1A
  3
ACAD_MLINESTYLE
350
17
  3
ACAD_PLOTSETTINGS
350
19
  3
ACAD_TABLESTYLE
350
72
  3
ACAD_VISUALSTYLE
350
2A
1001
ACAD
1000
TREAT_AS_HARD
1070
     0
  0
DICTIONARY
  5
D
102
{ACAD_REACTORS
330
C
102
}
330
C
100
AcDbDictionary
1001
ACAD
1000
TREAT_AS_HARD
1070
     0
  0
DICTIONARY
  5
1A
102
{ACAD_REACTORS
330
C
102
}
330
C
100
AcDbDictionary
1001
ACAD
1000
TREAT_AS_HARD
1070
     0
  0
DICTIONARY
  5
17
102
{ACAD_REACTORS
330
C
102
}
330
C
100
AcDbDictionary
  3
STANDARD
350
18
1001
ACAD
1000
TREAT_AS_HARD
1070
     0
  0
DICTIONARY
  5
19
102
{ACAD_REACTORS
330
C
102
}
330
C
100
AcDbDictionary
1001
ACAD
1000
TREAT_AS_HARD
1070
     0
  0
DICTIONARY
  5
72
102
{ACAD_REACTORS
330
C
102
}
330
C
100
AcDbDictionary
1001
ACAD
1000
TREAT_AS_HARD
1070
     0
  0
DICTIONARY
  5
2A
102
{ACAD_REACTORS
330
C
102
}
330
C
100
AcDbDictionary
  3
2DWIREFRAME
350
2F
  3
3D_HIDDEN
350
31
  3
3DWIREFRAME
350
30
  3
BASIC
350
32
  3
BRIGHTEN
350
36
  3
COLORCHANGE
350
3A
  3
CONCEPTUAL
350
34
  3
DIM
350
35
  3
FACEPATTERN
350
39
  3
FLAT
350
2B
  3
FLATWITHEDGES
350
2C
  3
GOURAUD
350
2D
  3
GOURAUDWITHEDGES
350
2E
  3
LINEPATTERN
350
38
  3
REALISTIC
350
33
  3
THICKEN
350
37
1001
ACAD
1000
TREAT_AS_HARD
1070
     0
  0
MLINESTYLE
  5
18
102
{ACAD_REACTORS
330
17
102
}
330
17
100
AcDbMlineStyle
  2
Standard
 70
     0
  3

 62
   256
 51
90.0
 52
90.0
 71
     2
 49
0.5
 62
   256
  6
BYLAYER
 49
-0.5
 62
   256
  6
BYLAYER
  0
VISUALSTYLE
  5
2F
102
{ACAD_REACTORS
330
2A
102
}
330
2A
100
AcDbVisualStyle
  2
2dWireframe
 70
     4
 71
     0
 72
     2
 73
     0
 90
        0
 40
-0.6
 41
-30.0
 62
     5
 63
     7
 74
     1
 91
        4
 64
     7
 65
   257
 75
     1
175
     1
 42
1.0
 92
        0
 66
   257
 43
1.0
 76
     1
 77
     6
 78
     2
 67
     7
 79
     5
170
     0
171
     0
290
     0
174
     0
 93
        1
 44
0.0
173
     0
291
     0
 45
0.0
1001
ACAD
1000
AcDbSavedByObjectVersion
1070
     0
  0
VISUALSTYLE
  5
31
102
{ACAD_REACTORS
330
2A
102
}
330
2A
100
AcDbVisualStyle
  2
3D Hidden
 70
     6
 71
     1
 72
     2
 73
     2
 90
        0
 40
-0.6
 41
-30.0
 62
     5
 63
     7
 74
     2
 91
        2
 64
     7
 65
   257
 75
     2
175
     1
 42
40.0
 92
        0
 66
   257
 43
1.0
 76
     1
 77
     6
 78
     2
 67
     7
 79
     3
170
     0
171
     0
290
     0
174
     0
 93
        1
 44
0.0
173
     0
291
     0
 45
0.0
1001
ACAD
1000
AcDbSavedByObjectVersion
1070
     0
  0
VISUALSTYLE
  5
30
102
{ACAD_REACTORS
330
2A
102
}
330
2A
100
AcDbVisualStyle
  2
3dWireframe
 70
     5
 71
     0
 72
     2
 73
     0
 90
        0
 40
-0.6
 41
-30.0
 62
     5
 63
     7
 74
     1
 91
        4
 64
     7
 65
   257
 75
     1
175
     1
 42
1.0
 92
        0
 66
   257
 43
1.0
 76
     1
 77
     6
 78
     2
 67
     7
 79
     5
170
     0
171
     0
290
     0
174
     0
 93
        1
 44
0.0
173
     0
291
     0
 45
0.0
1001
ACAD
1000
AcDbSavedByObjectVersion
1070
     0
  0
VISUALSTYLE
  5
32
102
{ACAD_REACTORS
330
2A
102
}
330
2A
100
AcDbVisualStyle
  2
Basic
 70
     7
 71
     1
 72
     0
 73
     1
 90
        0
 40
-0.6
 41
-30.0
 62
     5
 63
     7
 74
     0
 91
        4
 64
     7
 65
   257
 75
     1
175
     1
 42
1.0
 92
        8
 66
     7
 43
1.0
 76
     1
 77
     6
 78
     2
 67
     7
 79
     5
170
     0
171
     0
290
     0
174
     0
 93
        1
 44
0.0
173
     0
291
     1
 45
0.0
1001
ACAD
1000
AcDbSavedByObjectVersion
1070
     0
  0
VISUALSTYLE
  5
36
102
{ACAD_REACTORS
330
2A
102
}
330
2A
100
AcDbVisualStyle
  2
Brighten
 70
    12
 71
     2
 72
     2
 73
     0
 90
        0
 40
-0.6
 41
-30.0
 62
     5
 63
     7
 74
     1
 91
        4
 64
     7
 65
   257
 75
     1
175
     1
 42
1.0
 92
        8
 66
     7
 43
1.0
 76
     1
 77
     6
 78
     2
 67
     7
 79
     5
170
     0
171
     0
290
     0
174
     0
 93
        1
 44
50.0
173
     0
291
     1
 45
0.0
1001
ACAD
1000
AcDbSavedByObjectVersion
1070
     0
  0
VISUALSTYLE
  5
3A
102
{ACAD_REACTORS
330
2A
102
}
330
2A
100
AcDbVisualStyle
  2
ColorChange
 70
    16
 71
     2
 72
     2
 73
     3
 90
        0
 40
-0.6
 41
-30.0
 62
     5
 63
     8
 74
     1
 91
        4
 64
     7
 65
   257
 75
     1
175
     1
 42
1.0
 92
        8
 66
     8
 43
1.0
 76
     1
 77
     6
 78
     2
 67
     7
 79
     5
170
     0
171
     0
290
     0
174
     0
 93
        1
 44
0.0
173
     0
291
     1
 45
0.0
1001
ACAD
1000
AcDbSavedByObjectVersion
1070
     0
  0
VISUALSTYLE
  5
34
102
{ACAD_REACTORS
330
2A
102
}
330
2A
100
AcDbVisualStyle
  2
Conceptual
 70
     9
 71
     3
 72
     2
 73
     0
 90
        0
 40
-0.6
 41
-30.0
 62
     5
 63
     7
 74
     2
 91
        2
 64
     7
 65
   257
 75
     1
175
     1
 42
40.0
 92
        8
 66
     7
 43
1.0
 76
     1
 77
     6
 78
     2
 67
     7
 79
     3
170
     0
171
     0
290
     0
174
     0
 93
        1
 44
0.0
173
     0
291
     0
 45
0.0
1001
ACAD
1000
AcDbSavedByObjectVersion
1070
     0
  0
VISUALSTYLE
  5
35
102
{ACAD_REACTORS
330
2A
102
}
330
2A
100
AcDbVisualStyle
  2
Dim
 70
    11
 71
     2
 72
     2
 73
     0
 90
        0
 40
-0.6
 41
-30.0
 62
     5
 63
     7
 74
     1
 91
        4
 64
     7
 65
   257
 75
     1
175
     1
 42
1.0
 92
        8
 66
     7
 43
1.0
 76
     1
 77
     6
 78
     2
 67
     7
 79
     5
170
     0
171
     0
290
     0
174
     0
 93
        1
 44
-50.0
173
     0
291
     1
 45
0.0
1001
ACAD
1000
AcDbSavedByObjectVersion
1070
     0
  0
VISUALSTYLE
  5
39
102
{ACAD_REACTORS
330
2A
102
}
330
2A
100
AcDbVisualStyle
  2
Facepattern
 70
    15
 71
     2
 72
     2
 73
     0
 90
        0
 40
-0.6
 41
-30.0
 62
     5
 63
     7
 74
     1
 91
        4
 64
     7
 65
   257
 75
     1
175
     1
 42
1.0
 92
        8
 66
     7
 43
1.0
 76
     1
 77
     6
 78
     2
 67
     7
 79
     5
170
     0
171
     0
290
     0
174
     0
 93
        1
 44
0.0
173
     0
291
     1
 45
0.0
1001
ACAD
1000
AcDbSavedByObjectVersion
1070
     0
  0
VISUALSTYLE
  5
2B
102
{ACAD_REACTORS
330
2A
102
}
330
2A
100
AcDbVisualStyle
  2
Flat
 70
     0
 71
     2
 72
     1
 73
     1
 90
        2
 40
-0.6
 41
30.0
 62
     5
 63
     7
 74
     0
 91
        4
 64
     7
 65
   257
 75
     1
175
     1
 42
1.0
 92
        8
 66
     7
 43
1.0
 76
     1
 77
     6
 78
     2
 67
     7
 79
     5
170
     0
171
     0
290
     0
174
     0
 93
       13
 44
0.0
173
     0
291
     1
 45
0.0
1001
ACAD
1000
AcDbSavedByObjectVersion
1070
     0
  0
VISUALSTYLE
  5
2C
102
{ACAD_REACTORS
330
2A
102
}
330
2A
100
AcDbVisualStyle
  2
FlatWithEdges
 70
     1
 71
     2
 72
     1
 73
     1
 90
        2
 40
-0.6
 41
30.0
 62
     5
 63
     7
 74
     1
 91
        4
 64
     7
 65
   257
 75
     1
175
     1
 42
1.0
 92
        0
 66
   257
 43
1.0
 76
     1
 77
     6
 78
     2
 67
     7
 79
     5
170
     0
171
     0
290
     0
174
     0
 93
       13
 44
0.0
173
     0
291
     1
 45
0.0
1001
ACAD
1000
AcDbSavedByObjectVersion
1070
     0
  0
VISUALSTYLE
  5
2D
102
{ACAD_REACTORS
330
2A
102
}
330
2A
100
AcDbVisualStyle
  2
Gouraud
 70
     2
 71
     2
 72
     2
 73
     1
 90
        2
 40
-0.6
 41
30.0
 62
     5
 63
     7
 74
     0
 91
        4
 64
     7
 65
   257
 75
     1
175
     1
 42
1.0
 92
        0
 66
     7
 43
1.0
 76
     1
 77
     6
 78
     2
 67
     7
 79
     5
170
     0
171
     0
290
     0
174
     0
 93
       13
 44
0.0
173
     0
291
     1
 45
0.0
1001
ACAD
1000
AcDbSavedByObjectVersion
1070
     0
  0
VISUALSTYLE
  5
2E
102
{ACAD_REACTORS
330
2A
102
}
330
2A
100
AcDbVisualStyle
  2
GouraudWithEdges
 70
     3
 71
     2
 72
     2
 73
     1
 90
        2
 40
-0.6
 41
30.0
 62
     5
 63
     7
 74
     1
 91
        4
 64
     7
 65
   257
 75
     1
175
     1
 42
1.0
 92
        0
 66
   257
 43
1.0
 76
     1
 77
     6
 78
     2
 67
     7
 79
     5
170
     0
171
     0
290
     0
174
     0
 93
       13
 44
0.0
173
     0
291
     1
 45
0.0
1001
ACAD
1000
AcDbSavedByObjectVersion
1070
     0
  0
VISUALSTYLE
  5
38
102
{ACAD_REACTORS
330
2A
102
}
330
2A
100
AcDbVisualStyle
  2
Linepattern
 70
    14
 71
     2
 72
     2
 73
     0
 90
        0
 40
-0.6
 41
-30.0
 62
     5
 63
     7
 74
     1
 91
        4
 64
     7
 65
   257
 75
     7
175
     7
 42
1.0
 92
        8
 66
     7
 43
1.0
 76
     1
 77
     6
 78
     2
 67
     7
 79
     5
170
     0
171
     0
290
     0
174
     0
 93
        1
 44
0.0
173
     0
291
     1
 45
0.0
1001
ACAD
1000
AcDbSavedByObjectVersion
1070
     0
  0
VISUALSTYLE
  5
33
102
{ACAD_REACTORS
330
2A
102
}
330
2A
100
AcDbVisualStyle
  2
Realistic
 70
     8
 71
     2
 72
     2
 73
     0
 90
        0
 40
-0.6
 41
-30.0
 62
     5
 63
     7
 74
     1
 91
        0
 64
     7
 65
   257
 75
     1
175
     1
 42
1.0
 92
        8
 66
     8
 43
1.0
 76
     1
 77
     6
 78
     2
 67
     7
 79
     5
170
     0
171
     0
290
     0
174
     0
 93
       13
 44
0.0
173
     0
291
     0
 45
0.0
1001
ACAD
1000
AcDbSavedByObjectVersion
1070
     0
  0
VISUALSTYLE
  5
37
102
{ACAD_REACTORS
330
2A
102
}
330
2A
100
AcDbVisualStyle
  2
Thicken
 70
    13
 71
     2
 72
     2
 73
     0
 90
        0
 40
-0.6
 41
-30.0
 62
     5
 63
     7
 74
     1
 91
        4
 64
     7
 65
   257
 75
     1
175
     1
 42
1.0
 92
       12
 66
     7
 43
1.0
 76
     1
 77
     6
 78
     2
 67
     7
 79
     5
170
     0
171
     0
290
     0
174
     0
 93
        1
 44
0.0
173
     0
291
     1
 45
0.0
1001
ACAD
1000
AcDbSavedByObjectVersion
1070
     0
  0
ENDSEC
  0
EOF
