  0
SECTION
  2
HEADER
  9
$ACADVER
  1
AC1012
  9
$DWGCODEPAGE
  3
ansi_1252
  9
$INSBASE
 10
0.0
 20
0.0
 30
0.0
  9
$EXTMIN
 10
1.000000000000000E+20
 20
1.000000000000000E+20
 30
1.000000000000000E+20
  9
$EXTMAX
 10
-1.000000000000000E+20
 20
-1.000000000000000E+20
 30
-1.000000000000000E+20
  9
$LIMMIN
 10
0.0
 20
0.0
  9
$LIMMAX
 10
12.0
 20
9.0
  9
$ORTHOMODE
 70
     0
  9
$REGENMODE
 70
     1
  9
$FILLMODE
 70
     1
  9
$QTEXTMODE
 70
     0
  9
$MIRRTEXT
 70
     1
  9
$DRAGMODE
 70
     2
  9
$LTSCALE
 40
1.0
  9
$OSMODE
 70
    37
  9
$ATTMODE
 70
     1
  9
$TEXTSIZE
 40
0.2
  9
$TRACEWID
 40
0.05
  9
$TEXTSTYLE
  7
STANDARD
  9
$CLAYER
  8
0
  9
$CELTYPE
  6
BYLAYER
  9
$CECOLOR
 62
   256
  9
$CELTSCALE
 40
1.0
  9
$DELOBJ
 70
     1
  9
$DISPSILH
 70
     0
  9
$DIMSCALE
 40
1.0
  9
$DIMASZ
 40
0.18
  9
$DIMEXO
 40
0.0625
  9
$DIMDLI
 40
0.38
  9
$DIMRND
 40
0.0
  9
$DIMDLE
 40
0.0
  9
$DIMEXE
 40
0.18
  9
$DIMTP
 40
0.0
  9
$DIMTM
 40
0.0
  9
$DIMTXT
 40
0.18
  9
$DIMCEN
 40
0.09
  9
$DIMTSZ
 40
0.0
  9
$DIMTOL
 70
     0
  9
$DIMLIM
 70
     0
  9
$DIMTIH
 70
     1
  9
$DIMTOH
 70
     1
  9
$DIMSE1
 70
     0
  9
$DIMSE2
 70
     0
  9
$DIMTAD
 70
     0
  9
$DIMZIN
 70
     0
  9
$DIMBLK
  1

  9
$DIMASO
 70
     1
  9
$DIMSHO
 70
     1
  9
$DIMPOST
  1

  9
$DIMAPOST
  1

  9
$DIMALT
 70
     0
  9
$DIMALTD
 70
     2
  9
$DIMALTF
 40
25.4
  9
$DIMLFAC
 40
1.0
  9
$DIMTOFL
 70
     0
  9
$DIMTVP
 40
0.0
  9
$DIMTIX
 70
     0
  9
$DIMSOXD
 70
     0
  9
$DIMSAH
 70
     0
  9
$DIMBLK1
  1

  9
$DIMBLK2
  1

  9
$DIMSTYLE
  2
STANDARD
  9
$DIMCLRD
 70
     0
  9
$DIMCLRE
 70
     0
  9
$DIMCLRT
 70
     0
  9
$DIMTFAC
 40
1.0
  9
$DIMGAP
 40
0.09
  9
$DIMJUST
 70
     0
  9
$DIMSD1
 70
     0
  9
$DIMSD2
 70
     0
  9
$DIMTOLJ
 70
     1
  9
$DIMTZIN
 70
     0
  9
$DIMALTZ
 70
     0
  9
$DIMALTTZ
 70
     0
  9
$DIMFIT
 70
     3
  9
$DIMUPT
 70
     0
  9
$DIMUNIT
 70
     2
  9
$DIMDEC
 70
     4
  9
$DIMTDEC
 70
     4
  9
$DIMALTU
 70
     2
  9
$DIMALTTD
 70
     2
  9
$DIMTXSTY
  7
STANDARD
  9
$DIMAUNIT
 70
     0
  9
$LUNITS
 70
     2
  9
$LUPREC
 70
     4
  9
$SKETCHINC
 40
0.1
  9
$FILLETRAD
 40
0.5
  9
$AUNITS
 70
     0
  9
$AUPREC
 70
     0
  9
$MENU
  1
.
  9
$ELEVATION
 40
0.0
  9
$PELEVATION
 40
0.0
  9
$THICKNESS
 40
0.0
  9
$LIMCHECK
 70
     0
  9
$CHAMFERA
 40
0.5
  9
$CHAMFERB
 40
0.5
  9
$CHAMFERC
 40
1.0
  9
$CHAMFERD
 40
0.0
  9
$SKPOLY
 70
     0
  9
$TDCREATE
 40
2456551.938566296
  9
$TDUPDATE
 40
2456551.938566308
  9
$TDINDWG
 40
0.0000000116
  9
$TDUSRTIMER
 40
0.0000000116
  9
$USRTIMER
 70
     1
  9
$ANGBASE
 50
0.0
  9
$ANGDIR
 70
     0
  9
$PDMODE
 70
     0
  9
$PDSIZE
 40
0.0
  9
$PLINEWID
 40
0.0
  9
$COORDS
 70
     1
  9
$SPLFRAME
 70
     0
  9
$SPLINETYPE
 70
     6
  9
$SPLINESEGS
 70
     8
  9
$ATTDIA
 70
     0
  9
$ATTREQ
 70
     1
  9
$HANDLING
 70
     1
  9
$HANDSEED
  5
74
  9
$SURFTAB1
 70
     6
  9
$SURFTAB2
 70
     6
  9
$SURFTYPE
 70
     6
  9
$SURFU
 70
     6
  9
$SURFV
 70
     6
  9
$UCSNAME
  2

  9
$UCSORG
 10
0.0
 20
0.0
 30
0.0
  9
$UCSXDIR
 10
1.0
 20
0.0
 30
0.0
  9
$UCSYDIR
 10
0.0
 20
1.0
 30
0.0
  9
$PUCSNAME
  2

  9
$PUCSORG
 10
0.0
 20
0.0
 30
0.0
  9
$PUCSXDIR
 10
1.0
 20
0.0
 30
0.0
  9
$PUCSYDIR
 10
0.0
 20
1.0
 30
0.0
  9
$USERI1
 70
     0
  9
$USERI2
 70
     0
  9
$USERI3
 70
     0
  9
$USERI4
 70
     0
  9
$USERI5
 70
     0
  9
$USERR1
 40
0.0
  9
$USERR2
 40
0.0
  9
$USERR3
 40
0.0
  9
$USERR4
 40
0.0
  9
$USERR5
 40
0.0
  9
$WORLDVIEW
 70
     1
  9
$SHADEDGE
 70
     3
  9
$SHADEDIF
 70
    70
  9
$TILEMODE
 70
     1
  9
$MAXACTVP
 70
    64
  9
$PINSBASE
 10
0.0
 20
0.0
 30
0.0
  9
$PLIMCHECK
 70
     0
  9
$PEXTMIN
 10
1.000000000000000E+20
 20
1.000000000000000E+20
 30
1.000000000000000E+20
  9
$PEXTMAX
 10
-1.000000000000000E+20
 20
-1.000000000000000E+20
 30
-1.000000000000000E+20
  9
$PLIMMIN
 10
0.0
 20
0.0
  9
$PLIMMAX
 10
12.0
 20
9.0
  9
$UNITMODE
 70
     0
  9
$VISRETAIN
 70
     1
  9
$PLINEGEN
 70
     0
  9
$PSLTSCALE
 70
     1
  9
$TREEDEPTH
 70
  3020
  9
$PICKSTYLE
 70
     1
  9
$CMLSTYLE
  2
STANDARD
  9
$CMLJUST
 70
     0
  9
$CMLSCALE
 40
1.0
  9
$SAVEIMAGES
 70
     1
  0
ENDSEC
  0
SECTION
  2
CLASSES
  0
CLASS
  1
ACDBDICTIONARYWDFLT
  2
AcDbDictionaryWithDefault
  3
ObjectDBX Classes
 90
    32768
280
     0
281
     0
  0
CLASS
  1
VISUALSTYLE
  2
AcDbVisualStyle
  3
ObjectDBX Classes
 90
     4095
280
     0
281
     0
  0
CLASS
  1
XRECORD
  2
AcDbXrecord
  3
AutoCAD 2000
 90
    32768
280
     0
281
     0
  0
CLASS
  1
LWPOLYLINE
  2
AcDbPolyline
  3
AutoCAD 2000
 90
    32768
280
     0
281
     1
  0
CLASS
  1
HATCH
  2
AcDbHatch
  3
AutoCAD 2000
 90
    32768
280
     0
281
     1
  0
CLASS
  1
ACDBPLACEHOLDER
  2
AcDbPlaceHolder
  3
ObjectDBX Classes
 90
        0
280
     0
281
     0
  0
CLASS
  1
LAYOUT
  2
AcDbLayout
  3
ObjectDBX Classes
 90
        0
280
     0
281
     0
  0
ENDSEC
  0
SECTION
  2
TABLES
  0
TABLE
  2
VPORT
  5
8
330
0
100
AcDbSymbolTable
 70
     1
  0
VPORT
  5
29
330
8
100
AcDbSymbolTableRecord
100
AcDbViewportTableRecord
  2
*ACTIVE
 70
     0
 10
0.0
 20
0.0
 11
1.0
 21
1.0
 12
0.0
 22
0.0
 13
0.0
 23
0.0
 14
0.5
 24
0.5
 15
0.5
 25
0.5
 16
0.0
 26
0.0
 36
1.0
 17
105.0008259828644
 27
-148.4999796178229
 37
0.0
 40
296.9999592356459
 41
0.7070763662937379
 42
50.0
 43
0.0
 44
0.0
 50
0.0
 51
0.0
 71
     0
 72
   100
 73
     1
 74
     3
 75
     0
 76
     0
 77
     0
 78
     0
  0
ENDTAB
  0
TABLE
  2
LTYPE
  5
5
330
0
100
AcDbSymbolTable
 70
     1
  0
LTYPE
  5
14
330
5
100
AcDbSymbolTableRecord
100
AcDbLinetypeTableRecord
  2
BYBLOCK
 70
     0
  3

 72
    65
 73
     0
 40
0.0
  0
LTYPE
  5
15
330
5
100
AcDbSymbolTableRecord
100
AcDbLinetypeTableRecord
  2
BYLAYER
 70
     0
  3

 72
    65
 73
     0
 40
0.0
  0
LTYPE
  5
16
330
5
100
AcDbSymbolTableRecord
100
AcDbLinetypeTableRecord
  2
CONTINUOUS
 70
     0
  3
Solid line
 72
    65
 73
     0
 40
0.0
  0
ENDTAB
  0
TABLE
  2
LAYER
  5
2
330
0
100
AcDbSymbolTable
 70
     2
  0
LAYER
  5
10
330
2
100
AcDbSymbolTableRecord
100
AcDbLayerTableRecord
  2
0
 70
     0
 62
     7
  6
CONTINUOUS
  0
LAYER
  5
3B
330
2
100
AcDbSymbolTableRecord
100
AcDbLayerTableRecord
  2
LAYER_1
 70
     0
 62
     7
  6
CONTINUOUS
  0
ENDTAB
  0
TABLE
  2
STYLE
  5
3
330
0
100
AcDbSymbolTable
 70
     1
  0
STYLE
  5
11
330
3
100
AcDbSymbolTableRecord
100
AcDbTextStyleTableRecord
  2
STANDARD
 70
     0
 40
0.0
 41
1.0
 50
0.0
 71
     0
 42
0.2
  3
txt
  4

  0
ENDTAB
  0
TABLE
  2
VIEW
  5
6
330
0
100
AcDbSymbolTable
 70
     0
  0
ENDTAB
  0
TABLE
  2
UCS
  5
7
330
0
100
AcDbSymbolTable
 70
     0
  0
ENDTAB
  0
TABLE
  2
APPID
  5
9
330
0
100
AcDbSymbolTable
 70
     1
  0
APPID
  5
12
330
9
100
AcDbSymbolTableRecord
100
AcDbRegAppTableRecord
  2
ACAD
 70
     0
  0
ENDTAB
  0
TABLE
  2
DIMSTYLE
  5
A
330
0
100
AcDbSymbolTable
 70
     1
  0
DIMSTYLE
105
27
330
A
100
AcDbSymbolTableRecord
100
AcDbDimStyleTableRecord
  2
STANDARD
 70
     0
  3

  4

  5

  6

  7

 40
1.0
 41
0.18
 42
0.0625
 43
0.38
 44
0.18
 45
0.0
 46
0.0
 47
0.0
 48
0.0
140
0.18
141
0.09
142
0.0
143
25.4
144
1.0
145
0.0
146
1.0
147
0.09
 71
     0
 72
     0
 73
     1
 74
     1
 75
     0
 76
     0
 77
     0
 78
     0
170
     0
171
     2
172
     0
173
     0
174
     0
175
     0
176
     0
177
     0
178
     0
270
     2
271
     4
272
     4
273
     2
274
     2
340
11
275
     0
280
     0
281
     0
282
     0
283
     1
284
     0
285
     0
286
     0
287
     3
288
     0
  0
ENDTAB
  0
TABLE
  2
BLOCK_RECORD
  5
1
330
0
100
AcDbSymbolTable
 70
     1
  0
BLOCK_RECORD
  5
1F
330
1
100
AcDbSymbolTableRecord
100
AcDbBlockTableRecord
  2
*MODEL_SPACE
  0
BLOCK_RECORD
  5
1B
330
1
100
AcDbSymbolTableRecord
100
AcDbBlockTableRecord
  2
*PAPER_SPACE
  0
ENDTAB
  0
ENDSEC
  0
SECTION
  2
BLOCKS
  0
BLOCK
  5
20
330
1F
100
AcDbEntity
  8
0
100
AcDbBlockBegin
  2
*MODEL_SPACE
 70
     0
 71
     0
 10
0.0
 20
0.0
 30
0.0
  3
*MODEL_SPACE
  1

  0
ENDBLK
  5
21
330
1F
100
AcDbEntity
  8
0
100
AcDbBlockEnd
  0
BLOCK
  5
1C
330
1B
100
AcDbEntity
 67
     1
  8
0
100
AcDbBlockBegin
  2
*PAPER_SPACE
 70
     0
 71
     0
 10
0.0
 20
0.0
 30
0.0
  3
*PAPER_SPACE
  1

  0
ENDBLK
  5
1D
330
1B
100
AcDbEntity
 67
     1
  8
0
100
AcDbBlockEnd
  0
ENDSEC
  0
SECTION
  2
ENTITIES
  0
SPLINE
  5
3C
330
1F
100
AcDbEntity
  8
LAYER_1
 62
   250
100
AcDbSpline
210
0.0
220
0.0
230
1.0
 70
    11
 71
     3
 72
    17
 73
    13
 74
     0
 42
0.0000000001
 43
0.0000000001
 40
0.0
 40
0.0
 40
0.0
 40
0.0
 40
1.0
 40
1.0
 40
1.0
 40
2.0
 40
2.0
 40
2.0
 40
3.0
 40
3.0
 40
3.0
 40
4.0
 40
4.0
 40
4.0
 40
4.0
 10
22.75451117052665
 20
60.10485838341129
 30
0.0
 10
22.75451117052665
 20
64.27411293966064
 30
0.0
 10
26.13483886065379
 20
67.65409612023926
 30
0.0
 10
30.30443792645167
 20
67.65409612023926
 30
0.0
 10
34.47403699224954
 20
67.65409612023926
 30
0.0
 10
37.85436468237669
 20
64.27411293966064
 30
0.0
 10
37.85436468237669
 20
60.10485838341129
 30
0.0
 10
37.85436468237669
 20
55.93525931761341
 30
0.0
 10
34.47403699224954
 20
52.55493162748627
 30
0.0
 10
30.30443792645167
 20
52.55493162748627
 30
0.0
 10
26.13483886065379
 20
52.55493162748627
 30
0.0
 10
22.75451117052665
 20
55.93525931761341
 30
0.0
 10
22.75451117052665
 20
60.10485838341129
 30
0.0
  0
SPLINE
  5
3D
330
1F
100
AcDbEntity
  8
LAYER_1
 62
   250
100
AcDbSpline
210
0.0
220
0.0
230
1.0
 70
    11
 71
     3
 72
    17
 73
    13
 74
     0
 42
0.0000000001
 43
0.0000000001
 40
0.0
 40
0.0
 40
0.0
 40
0.0
 40
1.0
 40
1.0
 40
1.0
 40
2.0
 40
2.0
 40
2.0
 40
3.0
 40
3.0
 40
3.0
 40
4.0
 40
4.0
 40
4.0
 40
4.0
 10
19.80413139695869
 20
60.10520289295982
 30
0.0
 10
19.80413139695869
 20
65.90398761373234
 30
0.0
 10
24.50599771522767
 20
70.6041313842587
 30
0.0
 10
30.30443792645167
 20
70.6041313842587
 30
0.0
 10
36.10287813767567
 20
70.6041313842587
 30
0.0
 10
40.80439994639612
 20
65.90398761373234
 30
0.0
 10
40.80439994639612
 20
60.10520289295982
 30
0.0
 10
40.80439994639612
 20
54.30710719128434
 30
0.0
 10
36.10287813767567
 20
49.60592989211241
 30
0.0
 10
30.30443792645167
 20
49.60592989211241
 30
0.0
 10
24.50599771522767
 20
49.60592989211241
 30
0.0
 10
19.80413139695869
 20
54.30710719128434
 30
0.0
 10
19.80413139695869
 20
60.10520289295982
 30
0.0
  0
SPLINE
  5
3E
330
1F
100
AcDbEntity
  8
LAYER_1
 62
   250
100
AcDbSpline
210
0.0
220
0.0
230
1.0
 70
    11
 71
     3
 72
    17
 73
    13
 74
     0
 42
0.0000000001
 43
0.0000000001
 40
0.0
 40
0.0
 40
0.0
 40
0.0
 40
1.0
 40
1.0
 40
1.0
 40
2.0
 40
2.0
 40
2.0
 40
3.0
 40
3.0
 40
3.0
 40
4.0
 40
4.0
 40
4.0
 40
4.0
 10
24.80468749379883
 20
60.10485838341129
 30
0.0
 10
24.80468749379883
 20
63.14205456320754
 30
0.0
 10
27.26758625620394
 20
65.60391979696708
 30
0.0
 10
30.30409341690314
 20
65.60391979696708
 30
0.0
 10
33.34163410624792
 20
65.60391979696708
 30
0.0
 10
35.80453286865303
 20
63.14205456320754
 30
0.0
 10
35.80453286865303
 20
60.10485838341129
 30
0.0
 10
35.80453286865303
 20
57.06697318451798
 30
0.0
 10
33.34163410624792
 20
54.60545246030697
 30
0.0
 10
30.30409341690314
 20
54.60545246030697
 30
0.0
 10
27.26758625620394
 20
54.60545246030697
 30
0.0
 10
24.80468749379883
 20
57.06697318451798
 30
0.0
 10
24.80468749379883
 20
60.10485838341129
 30
0.0
  0
SPLINE
  5
3F
330
1F
100
AcDbEntity
  8
LAYER_1
 62
   250
100
AcDbSpline
210
0.0
220
0.0
230
1.0
 70
    11
 71
     3
 72
    17
 73
    13
 74
     0
 42
0.0000000001
 43
0.0000000001
 40
0.0
 40
0.0
 40
0.0
 40
0.0
 40
1.0
 40
1.0
 40
1.0
 40
2.0
 40
2.0
 40
2.0
 40
3.0
 40
3.0
 40
3.0
 40
4.0
 40
4.0
 40
4.0
 40
4.0
 10
52.83915200501938
 20
45.60514050509178
 30
0.0
 10
52.83915200501938
 20
46.98593477557991
 30
0.0
 10
53.95846352817706
 20
48.10490178918906
 30
0.0
 10
55.33822427001962
 20
48.10490178918906
 30
0.0
 10
56.7197075596048
 20
48.10490178918906
 30
0.0
 10
57.83901908276247
 20
46.98593477557991
 30
0.0
 10
57.83901908276247
 20
45.60514050509178
 30
0.0
 10
57.83901908276247
 20
44.22434623460364
 30
0.0
 10
56.7197075596048
 20
43.10537922099449
 30
0.0
 10
55.33822427001962
 20
43.10537922099449
 30
0.0
 10
53.95846352817706
 20
43.10537922099449
 30
0.0
 10
52.83915200501938
 20
44.22434623460364
 30
0.0
 10
52.83915200501938
 20
45.60514050509178
 30
0.0
  0
SPLINE
  5
40
330
1F
100
AcDbEntity
  8
LAYER_1
 62
   250
100
AcDbSpline
210
0.0
220
0.0
230
1.0
 70
    11
 71
     3
 72
    17
 73
    13
 74
     0
 42
0.0000000001
 43
0.0000000001
 40
0.0
 40
0.0
 40
0.0
 40
0.0
 40
1.0
 40
1.0
 40
1.0
 40
2.0
 40
2.0
 40
2.0
 40
3.0
 40
3.0
 40
3.0
 40
4.0
 40
4.0
 40
4.0
 40
4.0
 10
2.792249890794993
 20
45.60514050509178
 30
0.0
 10
2.792249890794993
 20
46.98593477557991
 30
0.0
 10
3.911561413952665
 20
48.10490178918906
 30
0.0
 10
5.291322155795226
 20
48.10490178918906
 30
0.0
 10
6.673149954928935
 20
48.10490178918906
 30
0.0
 10
7.792116968538083
 20
46.98593477557991
 30
0.0
 10
7.792116968538083
 20
45.60514050509178
 30
0.0
 10
7.792116968538083
 20
44.22434623460364
 30
0.0
 10
6.673149954928935
 20
43.10537922099449
 30
0.0
 10
5.291322155795226
 20
43.10537922099449
 30
0.0
 10
3.911561413952665
 20
43.10537922099449
 30
0.0
 10
2.792249890794993
 20
44.22434623460364
 30
0.0
 10
2.792249890794993
 20
45.60514050509178
 30
0.0
  0
SPLINE
  5
41
330
1F
100
AcDbEntity
  8
LAYER_1
 62
   250
100
AcDbSpline
210
0.0
220
0.0
230
1.0
 70
    11
 71
     3
 72
    17
 73
    13
 74
     0
 42
0.0000000001
 43
0.0000000001
 40
0.0
 40
0.0
 40
0.0
 40
0.0
 40
1.0
 40
1.0
 40
1.0
 40
2.0
 40
2.0
 40
2.0
 40
3.0
 40
3.0
 40
3.0
 40
4.0
 40
4.0
 40
4.0
 40
4.0
 10
52.83915200501938
 20
65.60529783516118
 30
0.0
 10
52.83915200501938
 20
66.9857475961008
 30
0.0
 10
53.95846352817706
 20
68.10471460970993
 30
0.0
 10
55.33822427001962
 20
68.10471460970993
 30
0.0
 10
56.7197075596048
 20
68.10471460970993
 30
0.0
 10
57.83901908276247
 20
66.9857475961008
 30
0.0
 10
57.83901908276247
 20
65.60529783516118
 30
0.0
 10
57.83901908276247
 20
64.22450356467304
 30
0.0
 10
56.7197075596048
 20
63.1055365510639
 30
0.0
 10
55.33822427001962
 20
63.1055365510639
 30
0.0
 10
53.95846352817706
 20
63.1055365510639
 30
0.0
 10
52.83915200501938
 20
64.22450356467304
 30
0.0
 10
52.83915200501938
 20
65.60529783516118
 30
0.0
  0
SPLINE
  5
42
330
1F
100
AcDbEntity
  8
LAYER_1
 62
   250
100
AcDbSpline
210
0.0
220
0.0
230
1.0
 70
    11
 71
     3
 72
    17
 73
    13
 74
     0
 42
0.0000000001
 43
0.0000000001
 40
0.0
 40
0.0
 40
0.0
 40
0.0
 40
1.0
 40
1.0
 40
1.0
 40
2.0
 40
2.0
 40
2.0
 40
3.0
 40
3.0
 40
3.0
 40
4.0
 40
4.0
 40
4.0
 40
4.0
 10
71.06818574612184
 20
45.60514050509178
 30
0.0
 10
71.06818574612184
 20
46.98593477557991
 30
0.0
 10
72.18749726927952
 20
48.10490178918906
 30
0.0
 10
73.56725801112208
 20
48.10490178918906
 30
0.0
 10
74.94874130070727
 20
48.10490178918906
 30
0.0
 10
76.06805282386493
 20
46.98593477557991
 30
0.0
 10
76.06805282386493
 20
45.60514050509178
 30
0.0
 10
76.06805282386493
 20
44.22434623460364
 30
0.0
 10
74.94874130070727
 20
43.10537922099449
 30
0.0
 10
73.56725801112208
 20
43.10537922099449
 30
0.0
 10
72.18749726927952
 20
43.10537922099449
 30
0.0
 10
71.06818574612184
 20
44.22434623460364
 30
0.0
 10
71.06818574612184
 20
45.60514050509178
 30
0.0
  0
SPLINE
  5
43
330
1F
100
AcDbEntity
  8
LAYER_1
 62
   250
100
AcDbSpline
210
0.0
220
0.0
230
1.0
 70
    11
 71
     3
 72
    17
 73
    13
 74
     0
 42
0.0000000001
 43
0.0000000001
 40
0.0
 40
0.0
 40
0.0
 40
0.0
 40
1.0
 40
1.0
 40
1.0
 40
2.0
 40
2.0
 40
2.0
 40
3.0
 40
3.0
 40
3.0
 40
4.0
 40
4.0
 40
4.0
 40
4.0
 10
71.06818574612184
 20
65.60529783516118
 30
0.0
 10
71.06818574612184
 20
66.9857475961008
 30
0.0
 10
72.18749726927952
 20
68.10471460970993
 30
0.0
 10
73.56725801112208
 20
68.10471460970993
 30
0.0
 10
74.94874130070727
 20
68.10471460970993
 30
0.0
 10
76.06805282386493
 20
66.9857475961008
 30
0.0
 10
76.06805282386493
 20
65.60529783516118
 30
0.0
 10
76.06805282386493
 20
64.22450356467304
 30
0.0
 10
74.94874130070727
 20
63.1055365510639
 30
0.0
 10
73.56725801112208
 20
63.1055365510639
 30
0.0
 10
72.18749726927952
 20
63.1055365510639
 30
0.0
 10
71.06818574612184
 20
64.22450356467304
 30
0.0
 10
71.06818574612184
 20
65.60529783516118
 30
0.0
  0
POLYLINE
  5
44
330
1F
100
AcDbEntity
  8
LAYER_1
 62
   250
100
AcDb2dPolyline
 66
     1
 10
0.0
 20
0.0
 30
0.0
  0
VERTEX
  5
45
330
44
100
AcDbEntity
  8
LAYER_1
 62
   250
100
AcDbVertex
100
AcDb2dVertex
 10
61.11874998472032
 20
51.69227971797971
 30
0.0
  0
VERTEX
  5
46
330
44
100
AcDbEntity
  8
LAYER_1
 62
   250
100
AcDbVertex
100
AcDb2dVertex
 10
52.65208332017031
 20
51.69227971797971
 30
0.0
  0
VERTEX
  5
47
330
44
100
AcDbEntity
  8
LAYER_1
 62
   250
100
AcDbVertex
100
AcDb2dVertex
 10
52.65208332017031
 20
59.69213594427836
 30
0.0
  0
VERTEX
  5
48
330
44
100
AcDbEntity
  8
LAYER_1
 62
   250
100
AcDbVertex
100
AcDb2dVertex
 10
61.11874998472032
 20
59.69213594427836
 30
0.0
  0
VERTEX
  5
49
330
44
100
AcDbEntity
  8
LAYER_1
 62
   250
100
AcDbVertex
100
AcDb2dVertex
 10
61.11874998472032
 20
51.69227971797971
 30
0.0
  0
SEQEND
  5
4A
330
44
100
AcDbEntity
  8
LAYER_1
  0
SPLINE
  5
4B
330
1F
100
AcDbEntity
  8
LAYER_1
 62
   250
100
AcDbSpline
210
0.0
220
0.0
230
1.0
 70
    11
 71
     3
 72
    41
 73
    37
 74
     0
 42
0.0000000001
 43
0.0000000001
 40
0.0
 40
0.0
 40
0.0
 40
0.0
 40
1.0
 40
1.0
 40
1.0
 40
2.0
 40
2.0
 40
2.0
 40
3.0
 40
3.0
 40
3.0
 40
4.0
 40
4.0
 40
4.0
 40
5.0
 40
5.0
 40
5.0
 40
6.0
 40
6.0
 40
6.0
 40
7.0
 40
7.0
 40
7.0
 40
8.0
 40
8.0
 40
8.0
 40
9.0
 40
9.0
 40
9.0
 40
10.0
 40
10.0
 40
10.0
 40
11.0
 40
11.0
 40
11.0
 40
12.0
 40
12.0
 40
12.0
 40
12.0
 10
61.11874998472032
 20
44.51494003878446
 30
0.0
 10
61.11874998472032
 20
41.76489256768378
 30
0.0
 10
58.86875812330365
 20
39.51490070626711
 30
0.0
 10
56.11871065220296
 20
39.51490070626711
 30
0.0
 10
56.11871065220296
 20
39.51490070626711
 30
0.0
 10
5.000039332517352
 20
39.51490070626711
 30
0.0
 10
5.000039332517352
 20
39.51490070626711
 30
0.0
 10
2.249991861416669
 20
39.51490070626711
 30
0.0
 10
0.0
 20
41.76489256768378
 30
0.0
 10
0.0
 20
44.51494003878446
 30
0.0
 10
0.0
 20
44.51494003878446
 30
0.0
 10
0.0
 20
46.59750025961799
 30
0.0
 10
0.0
 20
46.59750025961799
 30
0.0
 10
0.0
 20
49.34754773071867
 30
0.0
 10
2.249991861416669
 20
51.59753959213534
 30
0.0
 10
5.000039332517352
 20
51.59753959213534
 30
0.0
 10
5.000039332517352
 20
51.59753959213534
 30
0.0
 10
8.229127330842024
 20
51.59753959213534
 30
0.0
 10
8.229127330842024
 20
51.59753959213534
 30
0.0
 10
10.97917480194271
 20
51.59753959213534
 30
0.0
 10
14.02481146567782
 20
53.70214842407447
 30
0.0
 10
14.99718966638959
 20
56.27460122291052
 30
0.0
 10
14.99718966638959
 20
56.27460122291052
 30
0.0
 10
19.0458658806552
 20
66.98540308655227
 30
0.0
 10
19.0458658806552
 20
66.98540308655227
 30
0.0
 10
20.01824408136697
 20
69.55785588538832
 30
0.0
 10
23.06388074510209
 20
71.66246471732744
 30
0.0
 10
25.81392821620277
 20
71.66246471732744
 30
0.0
 10
25.81392821620277
 20
71.66246471732744
 30
0.0
 10
56.11871065220296
 20
71.66246471732744
 30
0.0
 10
56.11871065220296
 20
71.66246471732744
 30
0.0
 10
58.86875812330365
 20
71.66246471732744
 30
0.0
 10
61.11874998472032
 20
69.41247285591078
 30
0.0
 10
61.11874998472032
 20
66.66242538481009
 30
0.0
 10
61.11874998472032
 20
66.66242538481009
 30
0.0
 10
61.11874998472032
 20
44.51494003878446
 30
0.0
 10
61.11874998472032
 20
44.51494003878446
 30
0.0
  0
SPLINE
  5
4C
330
1F
100
AcDbEntity
  8
LAYER_1
 62
   250
100
AcDbSpline
210
0.0
220
0.0
230
1.0
 70
    11
 71
     3
 72
    23
 73
    19
 74
     0
 42
0.0000000001
 43
0.0000000001
 40
0.0
 40
0.0
 40
0.0
 40
0.0
 40
1.0
 40
1.0
 40
1.0
 40
2.0
 40
2.0
 40
2.0
 40
3.0
 40
3.0
 40
3.0
 40
4.0
 40
4.0
 40
4.0
 40
5.0
 40
5.0
 40
5.0
 40
6.0
 40
6.0
 40
6.0
 40
6.0
 10
78.5674695984137
 20
45.60600177896308
 30
0.0
 10
78.5674695984137
 20
42.8559543078624
 30
0.0
 10
76.31747773699702
 20
40.60596244644573
 30
0.0
 10
73.5676025206706
 20
40.60596244644573
 30
0.0
 10
70.81772730434419
 20
40.60596244644573
 30
0.0
 10
68.56773544292751
 20
42.8559543078624
 30
0.0
 10
68.56773544292751
 20
45.60600177896308
 30
0.0
 10
68.56773544292751
 20
45.60600177896308
 30
0.0
 10
68.56773544292751
 20
65.60409205174135
 30
0.0
 10
68.56773544292751
 20
65.60409205174135
 30
0.0
 10
68.56773544292751
 20
68.35413952284202
 30
0.0
 10
70.81772730434419
 20
70.6041313842587
 30
0.0
 10
73.5676025206706
 20
70.6041313842587
 30
0.0
 10
76.31747773699702
 20
70.6041313842587
 30
0.0
 10
78.5674695984137
 20
68.35413952284202
 30
0.0
 10
78.5674695984137
 20
65.60409205174135
 30
0.0
 10
78.5674695984137
 20
65.60409205174135
 30
0.0
 10
78.5674695984137
 20
45.60600177896308
 30
0.0
 10
78.5674695984137
 20
45.60600177896308
 30
0.0
  0
POLYLINE
  5
4D
330
1F
100
AcDbEntity
  8
LAYER_1
 62
   250
100
AcDb2dPolyline
 66
     1
 10
0.0
 20
0.0
 30
0.0
  0
VERTEX
  5
4E
330
4D
100
AcDbEntity
  8
LAYER_1
 62
   250
100
AcDbVertex
100
AcDb2dVertex
 10
78.5674695984137
 20
51.19205185352143
 30
0.0
  0
VERTEX
  5
4F
330
4D
100
AcDbEntity
  8
LAYER_1
 62
   250
100
AcDbVertex
100
AcDb2dVertex
 10
68.56773544292751
 20
51.19205185352143
 30
0.0
  0
VERTEX
  5
50
330
4D
100
AcDbEntity
  8
LAYER_1
 62
   250
100
AcDbVertex
100
AcDb2dVertex
 10
68.56773544292751
 20
60.19236380873664
 30
0.0
  0
VERTEX
  5
51
330
4D
100
AcDbEntity
  8
LAYER_1
 62
   250
100
AcDbVertex
100
AcDb2dVertex
 10
78.5674695984137
 20
60.19236380873664
 30
0.0
  0
VERTEX
  5
52
330
4D
100
AcDbEntity
  8
LAYER_1
 62
   250
100
AcDbVertex
100
AcDb2dVertex
 10
78.5674695984137
 20
51.19205185352143
 30
0.0
  0
SEQEND
  5
53
330
4D
100
AcDbEntity
  8
LAYER_1
  0
SPLINE
  5
54
330
1F
100
AcDbEntity
  8
LAYER_1
 62
   250
100
AcDbSpline
210
0.0
220
0.0
230
1.0
 70
    11
 71
     3
 72
    17
 73
    13
 74
     0
 42
0.0000000001
 43
0.0000000001
 40
0.0
 40
0.0
 40
0.0
 40
0.0
 40
1.0
 40
1.0
 40
1.0
 40
2.0
 40
2.0
 40
2.0
 40
3.0
 40
3.0
 40
3.0
 40
4.0
 40
4.0
 40
4.0
 40
4.0
 10
38.36423881419366
 20
20.58995767714418
 30
0.0
 10
38.36423881419366
 20
24.75921223339353
 30
0.0
 10
34.98391112406652
 20
28.13919541397215
 30
0.0
 10
30.81431205826864
 20
28.13919541397215
 30
0.0
 10
26.64471299247077
 20
28.13919541397215
 30
0.0
 10
23.26438530234363
 20
24.75921223339353
 30
0.0
 10
23.26438530234363
 20
20.58995767714418
 30
0.0
 10
23.26438530234363
 20
16.4203586113463
 30
0.0
 10
26.64471299247077
 20
13.04003092121916
 30
0.0
 10
30.81431205826864
 20
13.04003092121916
 30
0.0
 10
34.98391112406652
 20
13.04003092121916
 30
0.0
 10
38.36423881419366
 20
16.4203586113463
 30
0.0
 10
38.36423881419366
 20
20.58995767714418
 30
0.0
  0
SPLINE
  5
55
330
1F
100
AcDbEntity
  8
LAYER_1
 62
   250
100
AcDbSpline
210
0.0
220
0.0
230
1.0
 70
    11
 71
     3
 72
    17
 73
    13
 74
     0
 42
0.0000000001
 43
0.0000000001
 40
0.0
 40
0.0
 40
0.0
 40
0.0
 40
1.0
 40
1.0
 40
1.0
 40
2.0
 40
2.0
 40
2.0
 40
3.0
 40
3.0
 40
3.0
 40
4.0
 40
4.0
 40
4.0
 40
4.0
 10
41.31461858776162
 20
20.5903021866927
 30
0.0
 10
41.31461858776162
 20
26.38908690746523
 30
0.0
 10
36.61275226949265
 20
31.08923067799158
 30
0.0
 10
30.81431205826864
 20
31.08923067799158
 30
0.0
 10
25.01587184704464
 20
31.08923067799158
 30
0.0
 10
20.31435003832419
 20
26.38908690746523
 30
0.0
 10
20.31435003832419
 20
20.5903021866927
 30
0.0
 10
20.31435003832419
 20
14.79220648501723
 30
0.0
 10
25.01587184704464
 20
10.0910291858453
 30
0.0
 10
30.81431205826864
 20
10.0910291858453
 30
0.0
 10
36.61275226949265
 20
10.0910291858453
 30
0.0
 10
41.31461858776162
 20
14.79220648501723
 30
0.0
 10
41.31461858776162
 20
20.5903021866927
 30
0.0
  0
SPLINE
  5
56
330
1F
100
AcDbEntity
  8
LAYER_1
 62
   250
100
AcDbSpline
210
0.0
220
0.0
230
1.0
 70
    11
 71
     3
 72
    17
 73
    13
 74
     0
 42
0.0000000001
 43
0.0000000001
 40
0.0
 40
0.0
 40
0.0
 40
0.0
 40
1.0
 40
1.0
 40
1.0
 40
2.0
 40
2.0
 40
2.0
 40
3.0
 40
3.0
 40
3.0
 40
4.0
 40
4.0
 40
4.0
 40
4.0
 10
36.31406249092149
 20
20.58995767714418
 30
0.0
 10
36.31406249092149
 20
23.62715385694043
 30
0.0
 10
33.85116372851638
 20
26.08901909069997
 30
0.0
 10
30.81465656781717
 20
26.08901909069997
 30
0.0
 10
27.77711587847239
 20
26.08901909069997
 30
0.0
 10
25.31421711606728
 20
23.62715385694043
 30
0.0
 10
25.31421711606728
 20
20.58995767714418
 30
0.0
 10
25.31421711606728
 20
17.55207247825087
 30
0.0
 10
27.77711587847239
 20
15.09055175403986
 30
0.0
 10
30.81465656781717
 20
15.09055175403986
 30
0.0
 10
33.85116372851638
 20
15.09055175403986
 30
0.0
 10
36.31406249092149
 20
17.55207247825087
 30
0.0
 10
36.31406249092149
 20
20.58995767714418
 30
0.0
  0
SPLINE
  5
57
330
1F
100
AcDbEntity
  8
LAYER_1
 62
   250
100
AcDbSpline
210
0.0
220
0.0
230
1.0
 70
    11
 71
     3
 72
    17
 73
    13
 74
     0
 42
0.0000000001
 43
0.0000000001
 40
0.0
 40
0.0
 40
0.0
 40
0.0
 40
1.0
 40
1.0
 40
1.0
 40
2.0
 40
2.0
 40
2.0
 40
3.0
 40
3.0
 40
3.0
 40
4.0
 40
4.0
 40
4.0
 40
4.0
 10
8.279597979700934
 20
6.090239798824663
 30
0.0
 10
8.279597979700934
 20
7.471034069312798
 30
0.0
 10
7.160286456543262
 20
8.590001082921944
 30
0.0
 10
5.780525714700702
 20
8.590001082921944
 30
0.0
 10
4.399042425115518
 20
8.590001082921944
 30
0.0
 10
3.279730901957845
 20
7.471034069312798
 30
0.0
 10
3.279730901957845
 20
6.090239798824663
 30
0.0
 10
3.279730901957845
 20
4.709445528336528
 30
0.0
 10
4.399042425115518
 20
3.59047851472738
 30
0.0
 10
5.780525714700702
 20
3.59047851472738
 30
0.0
 10
7.160286456543262
 20
3.59047851472738
 30
0.0
 10
8.279597979700934
 20
4.709445528336528
 30
0.0
 10
8.279597979700934
 20
6.090239798824663
 30
0.0
  0
SPLINE
  5
58
330
1F
100
AcDbEntity
  8
LAYER_1
 62
   250
100
AcDbSpline
210
0.0
220
0.0
230
1.0
 70
    11
 71
     3
 72
    17
 73
    13
 74
     0
 42
0.0000000001
 43
0.0000000001
 40
0.0
 40
0.0
 40
0.0
 40
0.0
 40
1.0
 40
1.0
 40
1.0
 40
2.0
 40
2.0
 40
2.0
 40
3.0
 40
3.0
 40
3.0
 40
4.0
 40
4.0
 40
4.0
 40
4.0
 10
58.32650009392533
 20
6.090239798824663
 30
0.0
 10
58.32650009392533
 20
7.471034069312798
 30
0.0
 10
57.20718857076765
 20
8.590001082921944
 30
0.0
 10
55.82742782892509
 20
8.590001082921944
 30
0.0
 10
54.44560002979138
 20
8.590001082921944
 30
0.0
 10
53.32663301618224
 20
7.471034069312798
 30
0.0
 10
53.32663301618224
 20
6.090239798824663
 30
0.0
 10
53.32663301618224
 20
4.709445528336528
 30
0.0
 10
54.44560002979138
 20
3.59047851472738
 30
0.0
 10
55.82742782892509
 20
3.59047851472738
 30
0.0
 10
57.20718857076765
 20
3.59047851472738
 30
0.0
 10
58.32650009392533
 20
4.709445528336528
 30
0.0
 10
58.32650009392533
 20
6.090239798824663
 30
0.0
  0
SPLINE
  5
59
330
1F
100
AcDbEntity
  8
LAYER_1
 62
   250
100
AcDbSpline
210
0.0
220
0.0
230
1.0
 70
    11
 71
     3
 72
    17
 73
    13
 74
     0
 42
0.0000000001
 43
0.0000000001
 40
0.0
 40
0.0
 40
0.0
 40
0.0
 40
1.0
 40
1.0
 40
1.0
 40
2.0
 40
2.0
 40
2.0
 40
3.0
 40
3.0
 40
3.0
 40
4.0
 40
4.0
 40
4.0
 40
4.0
 10
8.279597979700934
 20
26.09039712889407
 30
0.0
 10
8.279597979700934
 20
27.47084688983368
 30
0.0
 10
7.160286456543262
 20
28.58981390344282
 30
0.0
 10
5.780525714700702
 20
28.58981390344282
 30
0.0
 10
4.399042425115518
 20
28.58981390344282
 30
0.0
 10
3.279730901957845
 20
27.47084688983368
 30
0.0
 10
3.279730901957845
 20
26.09039712889407
 30
0.0
 10
3.279730901957845
 20
24.70960285840593
 30
0.0
 10
4.399042425115518
 20
23.59063584479679
 30
0.0
 10
5.780525714700702
 20
23.59063584479679
 30
0.0
 10
7.160286456543262
 20
23.59063584479679
 30
0.0
 10
8.279597979700934
 20
24.70960285840593
 30
0.0
 10
8.279597979700934
 20
26.09039712889407
 30
0.0
  0
SPLINE
  5
5A
330
1F
100
AcDbEntity
  8
LAYER_1
 62
   250
100
AcDbSpline
210
0.0
220
0.0
230
1.0
 70
    11
 71
     3
 72
    17
 73
    13
 74
     0
 42
0.0000000001
 43
0.0000000001
 40
0.0
 40
0.0
 40
0.0
 40
0.0
 40
1.0
 40
1.0
 40
1.0
 40
2.0
 40
2.0
 40
2.0
 40
3.0
 40
3.0
 40
3.0
 40
4.0
 40
4.0
 40
4.0
 40
4.0
 10
71.06818574612184
 20
6.090239798824663
 30
0.0
 10
71.06818574612184
 20
7.471034069312798
 30
0.0
 10
72.18749726927952
 20
8.590001082921944
 30
0.0
 10
73.56725801112208
 20
8.590001082921944
 30
0.0
 10
74.94874130070727
 20
8.590001082921944
 30
0.0
 10
76.06805282386493
 20
7.471034069312798
 30
0.0
 10
76.06805282386493
 20
6.090239798824663
 30
0.0
 10
76.06805282386493
 20
4.709445528336528
 30
0.0
 10
74.94874130070727
 20
3.59047851472738
 30
0.0
 10
73.56725801112208
 20
3.59047851472738
 30
0.0
 10
72.18749726927952
 20
3.59047851472738
 30
0.0
 10
71.06818574612184
 20
4.709445528336528
 30
0.0
 10
71.06818574612184
 20
6.090239798824663
 30
0.0
  0
SPLINE
  5
5B
330
1F
100
AcDbEntity
  8
LAYER_1
 62
   250
100
AcDbSpline
210
0.0
220
0.0
230
1.0
 70
    11
 71
     3
 72
    17
 73
    13
 74
     0
 42
0.0000000001
 43
0.0000000001
 40
0.0
 40
0.0
 40
0.0
 40
0.0
 40
1.0
 40
1.0
 40
1.0
 40
2.0
 40
2.0
 40
2.0
 40
3.0
 40
3.0
 40
3.0
 40
4.0
 40
4.0
 40
4.0
 40
4.0
 10
71.06818574612184
 20
26.09039712889407
 30
0.0
 10
71.06818574612184
 20
27.47084688983368
 30
0.0
 10
72.18749726927952
 20
28.58981390344282
 30
0.0
 10
73.56725801112208
 20
28.58981390344282
 30
0.0
 10
74.94874130070727
 20
28.58981390344282
 30
0.0
 10
76.06805282386493
 20
27.47084688983368
 30
0.0
 10
76.06805282386493
 20
26.09039712889407
 30
0.0
 10
76.06805282386493
 20
24.70960285840593
 30
0.0
 10
74.94874130070727
 20
23.59063584479679
 30
0.0
 10
73.56725801112208
 20
23.59063584479679
 30
0.0
 10
72.18749726927952
 20
23.59063584479679
 30
0.0
 10
71.06818574612184
 20
24.70960285840593
 30
0.0
 10
71.06818574612184
 20
26.09039712889407
 30
0.0
  0
POLYLINE
  5
5C
330
1F
100
AcDbEntity
  8
LAYER_1
 62
   250
100
AcDb2dPolyline
 66
     1
 10
0.0
 20
0.0
 30
0.0
  0
VERTEX
  5
5D
330
5C
100
AcDbEntity
  8
LAYER_1
 62
   250
100
AcDbVertex
100
AcDb2dVertex
 10
0.0
 20
12.1773790117126
 30
0.0
  0
VERTEX
  5
5E
330
5C
100
AcDbEntity
  8
LAYER_1
 62
   250
100
AcDbVertex
100
AcDb2dVertex
 10
8.46666666455
 20
12.1773790117126
 30
0.0
  0
VERTEX
  5
5F
330
5C
100
AcDbEntity
  8
LAYER_1
 62
   250
100
AcDbVertex
100
AcDb2dVertex
 10
8.46666666455
 20
20.17723523801125
 30
0.0
  0
VERTEX
  5
60
330
5C
100
AcDbEntity
  8
LAYER_1
 62
   250
100
AcDbVertex
100
AcDb2dVertex
 10
0.0
 20
20.17723523801125
 30
0.0
  0
VERTEX
  5
61
330
5C
100
AcDbEntity
  8
LAYER_1
 62
   250
100
AcDbVertex
100
AcDb2dVertex
 10
0.0
 20
12.1773790117126
 30
0.0
  0
SEQEND
  5
62
330
5C
100
AcDbEntity
  8
LAYER_1
  0
SPLINE
  5
63
330
1F
100
AcDbEntity
  8
LAYER_1
 62
   250
100
AcDbSpline
210
0.0
220
0.0
230
1.0
 70
    11
 71
     3
 72
    41
 73
    37
 74
     0
 42
0.0000000001
 43
0.0000000001
 40
0.0
 40
0.0
 40
0.0
 40
0.0
 40
1.0
 40
1.0
 40
1.0
 40
2.0
 40
2.0
 40
2.0
 40
3.0
 40
3.0
 40
3.0
 40
4.0
 40
4.0
 40
4.0
 40
5.0
 40
5.0
 40
5.0
 40
6.0
 40
6.0
 40
6.0
 40
7.0
 40
7.0
 40
7.0
 40
8.0
 40
8.0
 40
8.0
 40
9.0
 40
9.0
 40
9.0
 40
10.0
 40
10.0
 40
10.0
 40
11.0
 40
11.0
 40
11.0
 40
12.0
 40
12.0
 40
12.0
 40
12.0
 10
0.0
 20
5.000039332517352
 30
0.0
 10
0.0
 20
2.249991861416669
 30
0.0
 10
2.249991861416669
 20
0.0
 30
0.0
 10
5.000039332517352
 20
0.0
 30
0.0
 10
5.000039332517352
 20
0.0
 30
0.0
 10
56.11871065220296
 20
0.0
 30
0.0
 10
56.11871065220296
 20
0.0
 30
0.0
 10
58.86875812330365
 20
0.0
 30
0.0
 10
61.11874998472032
 20
2.249991861416669
 30
0.0
 10
61.11874998472032
 20
5.000039332517352
 30
0.0
 10
61.11874998472032
 20
5.000039332517352
 30
0.0
 10
61.11874998472032
 20
7.082599553350878
 30
0.0
 10
61.11874998472032
 20
7.082599553350878
 30
0.0
 10
61.11874998472032
 20
9.83264702445156
 30
0.0
 10
58.86875812330365
 20
12.08263888586823
 30
0.0
 10
56.11871065220296
 20
12.08263888586823
 30
0.0
 10
56.11871065220296
 20
12.08263888586823
 30
0.0
 10
52.88962265387829
 20
12.08263888586823
 30
0.0
 10
52.88962265387829
 20
12.08263888586823
 30
0.0
 10
50.13957518277761
 20
12.08263888586823
 30
0.0
 10
47.09393851904249
 20
14.18724771780736
 30
0.0
 10
46.12156031833072
 20
16.75970051664341
 30
0.0
 10
46.12156031833072
 20
16.75970051664341
 30
0.0
 10
42.07288410406512
 20
27.47050238028515
 30
0.0
 10
42.07288410406512
 20
27.47050238028515
 30
0.0
 10
41.10050590335334
 20
30.04295517912121
 30
0.0
 10
38.05486923961823
 20
32.14756401106033
 30
0.0
 10
35.30482176851755
 20
32.14756401106033
 30
0.0
 10
35.30482176851755
 20
32.14756401106033
 30
0.0
 10
5.000039332517352
 20
32.14756401106033
 30
0.0
 10
5.000039332517352
 20
32.14756401106033
 30
0.0
 10
2.249991861416669
 20
32.14756401106033
 30
0.0
 10
0.0
 20
29.89757214964366
 30
0.0
 10
0.0
 20
27.14752467854298
 30
0.0
 10
0.0
 20
27.14752467854298
 30
0.0
 10
0.0
 20
5.000039332517352
 30
0.0
 10
0.0
 20
5.000039332517352
 30
0.0
  0
SPLINE
  5
64
330
1F
100
AcDbEntity
  8
LAYER_1
 62
   250
100
AcDbSpline
210
0.0
220
0.0
230
1.0
 70
    11
 71
     3
 72
    23
 73
    19
 74
     0
 42
0.0000000001
 43
0.0000000001
 40
0.0
 40
0.0
 40
0.0
 40
0.0
 40
1.0
 40
1.0
 40
1.0
 40
2.0
 40
2.0
 40
2.0
 40
3.0
 40
3.0
 40
3.0
 40
4.0
 40
4.0
 40
4.0
 40
5.0
 40
5.0
 40
5.0
 40
6.0
 40
6.0
 40
6.0
 40
6.0
 10
78.5674695984137
 20
6.091101072695975
 30
0.0
 10
78.5674695984137
 20
3.341053601595292
 30
0.0
 10
76.31747773699702
 20
1.091061740178624
 30
0.0
 10
73.5676025206706
 20
1.091061740178624
 30
0.0
 10
70.81772730434419
 20
1.091061740178624
 30
0.0
 10
68.56773544292751
 20
3.341053601595292
 30
0.0
 10
68.56773544292751
 20
6.091101072695975
 30
0.0
 10
68.56773544292751
 20
6.091101072695975
 30
0.0
 10
68.56773544292751
 20
26.08919134547423
 30
0.0
 10
68.56773544292751
 20
26.08919134547423
 30
0.0
 10
68.56773544292751
 20
28.83923881657491
 30
0.0
 10
70.81772730434419
 20
31.08923067799158
 30
0.0
 10
73.5676025206706
 20
31.08923067799158
 30
0.0
 10
76.31747773699702
 20
31.08923067799158
 30
0.0
 10
78.5674695984137
 20
28.83923881657491
 30
0.0
 10
78.5674695984137
 20
26.08919134547423
 30
0.0
 10
78.5674695984137
 20
26.08919134547423
 30
0.0
 10
78.5674695984137
 20
6.091101072695975
 30
0.0
 10
78.5674695984137
 20
6.091101072695975
 30
0.0
  0
POLYLINE
  5
65
330
1F
100
AcDbEntity
  8
LAYER_1
 62
   250
100
AcDb2dPolyline
 66
     1
 10
0.0
 20
0.0
 30
0.0
  0
VERTEX
  5
66
330
65
100
AcDbEntity
  8
LAYER_1
 62
   250
100
AcDbVertex
100
AcDb2dVertex
 10
78.5674695984137
 20
11.67715114725432
 30
0.0
  0
VERTEX
  5
67
330
65
100
AcDbEntity
  8
LAYER_1
 62
   250
100
AcDbVertex
100
AcDb2dVertex
 10
68.56773544292751
 20
11.67715114725432
 30
0.0
  0
VERTEX
  5
68
330
65
100
AcDbEntity
  8
LAYER_1
 62
   250
100
AcDbVertex
100
AcDb2dVertex
 10
68.56773544292751
 20
20.67746310246952
 30
0.0
  0
VERTEX
  5
69
330
65
100
AcDbEntity
  8
LAYER_1
 62
   250
100
AcDbVertex
100
AcDb2dVertex
 10
78.5674695984137
 20
20.67746310246952
 30
0.0
  0
VERTEX
  5
6A
330
65
100
AcDbEntity
  8
LAYER_1
 62
   250
100
AcDbVertex
100
AcDb2dVertex
 10
78.5674695984137
 20
11.67715114725432
 30
0.0
  0
SEQEND
  5
6B
330
65
100
AcDbEntity
  8
LAYER_1
  0
POLYLINE
  5
6C
330
1F
100
AcDbEntity
  8
LAYER_1
 62
   250
100
AcDb2dPolyline
 66
     1
 10
0.0
 20
0.0
 30
0.0
  0
VERTEX
  5
6D
330
6C
100
AcDbEntity
  8
LAYER_1
 62
   250
100
AcDbVertex
100
AcDb2dVertex
 10
83.37320554556295
 20
-4.703761120785866
 30
0.0
  0
VERTEX
  5
6E
330
6C
100
AcDbEntity
  8
LAYER_1
 62
   250
100
AcDbVertex
100
AcDb2dVertex
 10
-5.526794432212052
 20
-4.703761120785866
 30
0.0
  0
VERTEX
  5
6F
330
6C
100
AcDbEntity
  8
LAYER_1
 62
   250
100
AcDbVertex
100
AcDb2dVertex
 10
-5.526794432212052
 20
76.90555553632917
 30
0.0
  0
VERTEX
  5
70
330
6C
100
AcDbEntity
  8
LAYER_1
 62
   250
100
AcDbVertex
100
AcDb2dVertex
 10
83.37320554556295
 20
76.90555553632917
 30
0.0
  0
VERTEX
  5
71
330
6C
100
AcDbEntity
  8
LAYER_1
 62
   250
100
AcDbVertex
100
AcDb2dVertex
 10
83.37320554556295
 20
-4.703761120785866
 30
0.0
  0
SEQEND
  5
72
330
6C
100
AcDbEntity
  8
LAYER_1
  0
ENDSEC
  0
SECTION
  2
OBJECTS
  0
DICTIONARY
  5
C
330
0
100
AcDbDictionary
  3
ACAD_GROUP
350
D
  3
ACAD_LAYOUT
350
1A
  3
ACAD_MLINESTYLE
350
17
  3
ACAD_PLOTSETTINGS
350
19
  3
ACAD_TABLESTYLE
350
73
  3
ACAD_VISUALSTYLE
350
2A
1001
ACAD
1000
TREAT_AS_HARD
1070
     0
  0
DICTIONARY
  5
D
102
{ACAD_REACTORS
330
C
102
}
330
C
100
AcDbDictionary
1001
ACAD
1000
TREAT_AS_HARD
1070
     0
  0
DICTIONARY
  5
1A
102
{ACAD_REACTORS
330
C
102
}
330
C
100
AcDbDictionary
1001
ACAD
1000
TREAT_AS_HARD
1070
     0
  0
DICTIONARY
  5
17
102
{ACAD_REACTORS
330
C
102
}
330
C
100
AcDbDictionary
  3
STANDARD
350
18
1001
ACAD
1000
TREAT_AS_HARD
1070
     0
  0
DICTIONARY
  5
19
102
{ACAD_REACTORS
330
C
102
}
330
C
100
AcDbDictionary
1001
ACAD
1000
TREAT_AS_HARD
1070
     0
  0
DICTIONARY
  5
73
102
{ACAD_REACTORS
330
C
102
}
330
C
100
AcDbDictionary
1001
ACAD
1000
TREAT_AS_HARD
1070
     0
  0
DICTIONARY
  5
2A
102
{ACAD_REACTORS
330
C
102
}
330
C
100
AcDbDictionary
  3
2DWIREFRAME
350
2F
  3
3D_HIDDEN
350
31
  3
3DWIREFRAME
350
30
  3
BASIC
350
32
  3
BRIGHTEN
350
36
  3
COLORCHANGE
350
3A
  3
CONCEPTUAL
350
34
  3
DIM
350
35
  3
FACEPATTERN
350
39
  3
FLAT
350
2B
  3
FLATWITHEDGES
350
2C
  3
GOURAUD
350
2D
  3
GOURAUDWITHEDGES
350
2E
  3
LINEPATTERN
350
38
  3
REALISTIC
350
33
  3
THICKEN
350
37
1001
ACAD
1000
TREAT_AS_HARD
1070
     0
  0
MLINESTYLE
  5
18
102
{ACAD_REACTORS
330
17
102
}
330
17
100
AcDbMlineStyle
  2
Standard
 70
     0
  3

 62
   256
 51
90.0
 52
90.0
 71
     2
 49
0.5
 62
   256
  6
BYLAYER
 49
-0.5
 62
   256
  6
BYLAYER
  0
VISUALSTYLE
  5
2F
102
{ACAD_REACTORS
330
2A
102
}
330
2A
100
AcDbVisualStyle
  2
2dWireframe
 70
     4
 71
     0
 72
     2
 73
     0
 90
        0
 40
-0.6
 41
-30.0
 62
     5
 63
     7
 74
     1
 91
        4
 64
     7
 65
   257
 75
     1
175
     1
 42
1.0
 92
        0
 66
   257
 43
1.0
 76
     1
 77
     6
 78
     2
 67
     7
 79
     5
170
     0
171
     0
290
     0
174
     0
 93
        1
 44
0.0
173
     0
291
     0
 45
0.0
1001
ACAD
1000
AcDbSavedByObjectVersion
1070
     0
  0
VISUALSTYLE
  5
31
102
{ACAD_REACTORS
330
2A
102
}
330
2A
100
AcDbVisualStyle
  2
3D Hidden
 70
     6
 71
     1
 72
     2
 73
     2
 90
        0
 40
-0.6
 41
-30.0
 62
     5
 63
     7
 74
     2
 91
        2
 64
     7
 65
   257
 75
     2
175
     1
 42
40.0
 92
        0
 66
   257
 43
1.0
 76
     1
 77
     6
 78
     2
 67
     7
 79
     3
170
     0
171
     0
290
     0
174
     0
 93
        1
 44
0.0
173
     0
291
     0
 45
0.0
1001
ACAD
1000
AcDbSavedByObjectVersion
1070
     0
  0
VISUALSTYLE
  5
30
102
{ACAD_REACTORS
330
2A
102
}
330
2A
100
AcDbVisualStyle
  2
3dWireframe
 70
     5
 71
     0
 72
     2
 73
     0
 90
        0
 40
-0.6
 41
-30.0
 62
     5
 63
     7
 74
     1
 91
        4
 64
     7
 65
   257
 75
     1
175
     1
 42
1.0
 92
        0
 66
   257
 43
1.0
 76
     1
 77
     6
 78
     2
 67
     7
 79
     5
170
     0
171
     0
290
     0
174
     0
 93
        1
 44
0.0
173
     0
291
     0
 45
0.0
1001
ACAD
1000
AcDbSavedByObjectVersion
1070
     0
  0
VISUALSTYLE
  5
32
102
{ACAD_REACTORS
330
2A
102
}
330
2A
100
AcDbVisualStyle
  2
Basic
 70
     7
 71
     1
 72
     0
 73
     1
 90
        0
 40
-0.6
 41
-30.0
 62
     5
 63
     7
 74
     0
 91
        4
 64
     7
 65
   257
 75
     1
175
     1
 42
1.0
 92
        8
 66
     7
 43
1.0
 76
     1
 77
     6
 78
     2
 67
     7
 79
     5
170
     0
171
     0
290
     0
174
     0
 93
        1
 44
0.0
173
     0
291
     1
 45
0.0
1001
ACAD
1000
AcDbSavedByObjectVersion
1070
     0
  0
VISUALSTYLE
  5
36
102
{ACAD_REACTORS
330
2A
102
}
330
2A
100
AcDbVisualStyle
  2
Brighten
 70
    12
 71
     2
 72
     2
 73
     0
 90
        0
 40
-0.6
 41
-30.0
 62
     5
 63
     7
 74
     1
 91
        4
 64
     7
 65
   257
 75
     1
175
     1
 42
1.0
 92
        8
 66
     7
 43
1.0
 76
     1
 77
     6
 78
     2
 67
     7
 79
     5
170
     0
171
     0
290
     0
174
     0
 93
        1
 44
50.0
173
     0
291
     1
 45
0.0
1001
ACAD
1000
AcDbSavedByObjectVersion
1070
     0
  0
VISUALSTYLE
  5
3A
102
{ACAD_REACTORS
330
2A
102
}
330
2A
100
AcDbVisualStyle
  2
ColorChange
 70
    16
 71
     2
 72
     2
 73
     3
 90
        0
 40
-0.6
 41
-30.0
 62
     5
 63
     8
 74
     1
 91
        4
 64
     7
 65
   257
 75
     1
175
     1
 42
1.0
 92
        8
 66
     8
 43
1.0
 76
     1
 77
     6
 78
     2
 67
     7
 79
     5
170
     0
171
     0
290
     0
174
     0
 93
        1
 44
0.0
173
     0
291
     1
 45
0.0
1001
ACAD
1000
AcDbSavedByObjectVersion
1070
     0
  0
VISUALSTYLE
  5
34
102
{ACAD_REACTORS
330
2A
102
}
330
2A
100
AcDbVisualStyle
  2
Conceptual
 70
     9
 71
     3
 72
     2
 73
     0
 90
        0
 40
-0.6
 41
-30.0
 62
     5
 63
     7
 74
     2
 91
        2
 64
     7
 65
   257
 75
     1
175
     1
 42
40.0
 92
        8
 66
     7
 43
1.0
 76
     1
 77
     6
 78
     2
 67
     7
 79
     3
170
     0
171
     0
290
     0
174
     0
 93
        1
 44
0.0
173
     0
291
     0
 45
0.0
1001
ACAD
1000
AcDbSavedByObjectVersion
1070
     0
  0
VISUALSTYLE
  5
35
102
{ACAD_REACTORS
330
2A
102
}
330
2A
100
AcDbVisualStyle
  2
Dim
 70
    11
 71
     2
 72
     2
 73
     0
 90
        0
 40
-0.6
 41
-30.0
 62
     5
 63
     7
 74
     1
 91
        4
 64
     7
 65
   257
 75
     1
175
     1
 42
1.0
 92
        8
 66
     7
 43
1.0
 76
     1
 77
     6
 78
     2
 67
     7
 79
     5
170
     0
171
     0
290
     0
174
     0
 93
        1
 44
-50.0
173
     0
291
     1
 45
0.0
1001
ACAD
1000
AcDbSavedByObjectVersion
1070
     0
  0
VISUALSTYLE
  5
39
102
{ACAD_REACTORS
330
2A
102
}
330
2A
100
AcDbVisualStyle
  2
Facepattern
 70
    15
 71
     2
 72
     2
 73
     0
 90
        0
 40
-0.6
 41
-30.0
 62
     5
 63
     7
 74
     1
 91
        4
 64
     7
 65
   257
 75
     1
175
     1
 42
1.0
 92
        8
 66
     7
 43
1.0
 76
     1
 77
     6
 78
     2
 67
     7
 79
     5
170
     0
171
     0
290
     0
174
     0
 93
        1
 44
0.0
173
     0
291
     1
 45
0.0
1001
ACAD
1000
AcDbSavedByObjectVersion
1070
     0
  0
VISUALSTYLE
  5
2B
102
{ACAD_REACTORS
330
2A
102
}
330
2A
100
AcDbVisualStyle
  2
Flat
 70
     0
 71
     2
 72
     1
 73
     1
 90
        2
 40
-0.6
 41
30.0
 62
     5
 63
     7
 74
     0
 91
        4
 64
     7
 65
   257
 75
     1
175
     1
 42
1.0
 92
        8
 66
     7
 43
1.0
 76
     1
 77
     6
 78
     2
 67
     7
 79
     5
170
     0
171
     0
290
     0
174
     0
 93
       13
 44
0.0
173
     0
291
     1
 45
0.0
1001
ACAD
1000
AcDbSavedByObjectVersion
1070
     0
  0
VISUALSTYLE
  5
2C
102
{ACAD_REACTORS
330
2A
102
}
330
2A
100
AcDbVisualStyle
  2
FlatWithEdges
 70
     1
 71
     2
 72
     1
 73
     1
 90
        2
 40
-0.6
 41
30.0
 62
     5
 63
     7
 74
     1
 91
        4
 64
     7
 65
   257
 75
     1
175
     1
 42
1.0
 92
        0
 66
   257
 43
1.0
 76
     1
 77
     6
 78
     2
 67
     7
 79
     5
170
     0
171
     0
290
     0
174
     0
 93
       13
 44
0.0
173
     0
291
     1
 45
0.0
1001
ACAD
1000
AcDbSavedByObjectVersion
1070
     0
  0
VISUALSTYLE
  5
2D
102
{ACAD_REACTORS
330
2A
102
}
330
2A
100
AcDbVisualStyle
  2
Gouraud
 70
     2
 71
     2
 72
     2
 73
     1
 90
        2
 40
-0.6
 41
30.0
 62
     5
 63
     7
 74
     0
 91
        4
 64
     7
 65
   257
 75
     1
175
     1
 42
1.0
 92
        0
 66
     7
 43
1.0
 76
     1
 77
     6
 78
     2
 67
     7
 79
     5
170
     0
171
     0
290
     0
174
     0
 93
       13
 44
0.0
173
     0
291
     1
 45
0.0
1001
ACAD
1000
AcDbSavedByObjectVersion
1070
     0
  0
VISUALSTYLE
  5
2E
102
{ACAD_REACTORS
330
2A
102
}
330
2A
100
AcDbVisualStyle
  2
GouraudWithEdges
 70
     3
 71
     2
 72
     2
 73
     1
 90
        2
 40
-0.6
 41
30.0
 62
     5
 63
     7
 74
     1
 91
        4
 64
     7
 65
   257
 75
     1
175
     1
 42
1.0
 92
        0
 66
   257
 43
1.0
 76
     1
 77
     6
 78
     2
 67
     7
 79
     5
170
     0
171
     0
290
     0
174
     0
 93
       13
 44
0.0
173
     0
291
     1
 45
0.0
1001
ACAD
1000
AcDbSavedByObjectVersion
1070
     0
  0
VISUALSTYLE
  5
38
102
{ACAD_REACTORS
330
2A
102
}
330
2A
100
AcDbVisualStyle
  2
Linepattern
 70
    14
 71
     2
 72
     2
 73
     0
 90
        0
 40
-0.6
 41
-30.0
 62
     5
 63
     7
 74
     1
 91
        4
 64
     7
 65
   257
 75
     7
175
     7
 42
1.0
 92
        8
 66
     7
 43
1.0
 76
     1
 77
     6
 78
     2
 67
     7
 79
     5
170
     0
171
     0
290
     0
174
     0
 93
        1
 44
0.0
173
     0
291
     1
 45
0.0
1001
ACAD
1000
AcDbSavedByObjectVersion
1070
     0
  0
VISUALSTYLE
  5
33
102
{ACAD_REACTORS
330
2A
102
}
330
2A
100
AcDbVisualStyle
  2
Realistic
 70
     8
 71
     2
 72
     2
 73
     0
 90
        0
 40
-0.6
 41
-30.0
 62
     5
 63
     7
 74
     1
 91
        0
 64
     7
 65
   257
 75
     1
175
     1
 42
1.0
 92
        8
 66
     8
 43
1.0
 76
     1
 77
     6
 78
     2
 67
     7
 79
     5
170
     0
171
     0
290
     0
174
     0
 93
       13
 44
0.0
173
     0
291
     0
 45
0.0
1001
ACAD
1000
AcDbSavedByObjectVersion
1070
     0
  0
VISUALSTYLE
  5
37
102
{ACAD_REACTORS
330
2A
102
}
330
2A
100
AcDbVisualStyle
  2
Thicken
 70
    13
 71
     2
 72
     2
 73
     0
 90
        0
 40
-0.6
 41
-30.0
 62
     5
 63
     7
 74
     1
 91
        4
 64
     7
 65
   257
 75
     1
175
     1
 42
1.0
 92
       12
 66
     7
 43
1.0
 76
     1
 77
     6
 78
     2
 67
     7
 79
     5
170
     0
171
     0
290
     0
174
     0
 93
        1
 44
0.0
173
     0
291
     1
 45
0.0
1001
ACAD
1000
AcDbSavedByObjectVersion
1070
     0
  0
ENDSEC
  0
EOF
