  0
SECTION
  2
HEADER
  9
$ACADVER
  1
AC1012
  9
$DWGCODEPAGE
  3
ansi_1252
  9
$INSBASE
 10
0.0
 20
0.0
 30
0.0
  9
$EXTMIN
 10
1.000000000000000E+20
 20
1.000000000000000E+20
 30
1.000000000000000E+20
  9
$EXTMAX
 10
-1.000000000000000E+20
 20
-1.000000000000000E+20
 30
-1.000000000000000E+20
  9
$LIMMIN
 10
0.0
 20
0.0
  9
$LIMMAX
 10
12.0
 20
9.0
  9
$ORTHOMODE
 70
     0
  9
$REGENMODE
 70
     1
  9
$FILLMODE
 70
     1
  9
$QTEXTMODE
 70
     0
  9
$MIRRTEXT
 70
     1
  9
$DRAGMODE
 70
     2
  9
$LTSCALE
 40
1.0
  9
$OSMODE
 70
    37
  9
$ATTMODE
 70
     1
  9
$TEXTSIZE
 40
0.2
  9
$TRACEWID
 40
0.05
  9
$TEXTSTYLE
  7
STANDARD
  9
$CLAYER
  8
0
  9
$CELTYPE
  6
BYLAYER
  9
$CECOLOR
 62
   256
  9
$CELTSCALE
 40
1.0
  9
$DELOBJ
 70
     1
  9
$DISPSILH
 70
     0
  9
$DIMSCALE
 40
1.0
  9
$DIMASZ
 40
0.18
  9
$DIMEXO
 40
0.0625
  9
$DIMDLI
 40
0.38
  9
$DIMRND
 40
0.0
  9
$DIMDLE
 40
0.0
  9
$DIMEXE
 40
0.18
  9
$DIMTP
 40
0.0
  9
$DIMTM
 40
0.0
  9
$DIMTXT
 40
0.18
  9
$DIMCEN
 40
0.09
  9
$DIMTSZ
 40
0.0
  9
$DIMTOL
 70
     0
  9
$DIMLIM
 70
     0
  9
$DIMTIH
 70
     1
  9
$DIMTOH
 70
     1
  9
$DIMSE1
 70
     0
  9
$DIMSE2
 70
     0
  9
$DIMTAD
 70
     0
  9
$DIMZIN
 70
     0
  9
$DIMBLK
  1

  9
$DIMASO
 70
     1
  9
$DIMSHO
 70
     1
  9
$DIMPOST
  1

  9
$DIMAPOST
  1

  9
$DIMALT
 70
     0
  9
$DIMALTD
 70
     2
  9
$DIMALTF
 40
25.4
  9
$DIMLFAC
 40
1.0
  9
$DIMTOFL
 70
     0
  9
$DIMTVP
 40
0.0
  9
$DIMTIX
 70
     0
  9
$DIMSOXD
 70
     0
  9
$DIMSAH
 70
     0
  9
$DIMBLK1
  1

  9
$DIMBLK2
  1

  9
$DIMSTYLE
  2
STANDARD
  9
$DIMCLRD
 70
     0
  9
$DIMCLRE
 70
     0
  9
$DIMCLRT
 70
     0
  9
$DIMTFAC
 40
1.0
  9
$DIMGAP
 40
0.09
  9
$DIMJUST
 70
     0
  9
$DIMSD1
 70
     0
  9
$DIMSD2
 70
     0
  9
$DIMTOLJ
 70
     1
  9
$DIMTZIN
 70
     0
  9
$DIMALTZ
 70
     0
  9
$DIMALTTZ
 70
     0
  9
$DIMFIT
 70
     3
  9
$DIMUPT
 70
     0
  9
$DIMUNIT
 70
     2
  9
$DIMDEC
 70
     4
  9
$DIMTDEC
 70
     4
  9
$DIMALTU
 70
     2
  9
$DIMALTTD
 70
     2
  9
$DIMTXSTY
  7
STANDARD
  9
$DIMAUNIT
 70
     0
  9
$LUNITS
 70
     2
  9
$LUPREC
 70
     4
  9
$SKETCHINC
 40
0.1
  9
$FILLETRAD
 40
0.5
  9
$AUNITS
 70
     0
  9
$AUPREC
 70
     0
  9
$MENU
  1
.
  9
$ELEVATION
 40
0.0
  9
$PELEVATION
 40
0.0
  9
$THICKNESS
 40
0.0
  9
$LIMCHECK
 70
     0
  9
$CHAMFERA
 40
0.5
  9
$CHAMFERB
 40
0.5
  9
$CHAMFERC
 40
1.0
  9
$CHAMFERD
 40
0.0
  9
$SKPOLY
 70
     0
  9
$TDCREATE
 40
2456548.856345451
  9
$TDUPDATE
 40
2456548.856345463
  9
$TDINDWG
 40
0.0000000116
  9
$TDUSRTIMER
 40
0.0000000116
  9
$USRTIMER
 70
     1
  9
$ANGBASE
 50
0.0
  9
$ANGDIR
 70
     0
  9
$PDMODE
 70
     0
  9
$PDSIZE
 40
0.0
  9
$PLINEWID
 40
0.0
  9
$COORDS
 70
     1
  9
$SPLFRAME
 70
     0
  9
$SPLINETYPE
 70
     6
  9
$SPLINESEGS
 70
     8
  9
$ATTDIA
 70
     0
  9
$ATTREQ
 70
     1
  9
$HANDLING
 70
     1
  9
$HANDSEED
  5
61
  9
$SURFTAB1
 70
     6
  9
$SURFTAB2
 70
     6
  9
$SURFTYPE
 70
     6
  9
$SURFU
 70
     6
  9
$SURFV
 70
     6
  9
$UCSNAME
  2

  9
$UCSORG
 10
0.0
 20
0.0
 30
0.0
  9
$UCSXDIR
 10
1.0
 20
0.0
 30
0.0
  9
$UCSYDIR
 10
0.0
 20
1.0
 30
0.0
  9
$PUCSNAME
  2

  9
$PUCSORG
 10
0.0
 20
0.0
 30
0.0
  9
$PUCSXDIR
 10
1.0
 20
0.0
 30
0.0
  9
$PUCSYDIR
 10
0.0
 20
1.0
 30
0.0
  9
$USERI1
 70
     0
  9
$USERI2
 70
     0
  9
$USERI3
 70
     0
  9
$USERI4
 70
     0
  9
$USERI5
 70
     0
  9
$USERR1
 40
0.0
  9
$USERR2
 40
0.0
  9
$USERR3
 40
0.0
  9
$USERR4
 40
0.0
  9
$USERR5
 40
0.0
  9
$WORLDVIEW
 70
     1
  9
$SHADEDGE
 70
     3
  9
$SHADEDIF
 70
    70
  9
$TILEMODE
 70
     1
  9
$MAXACTVP
 70
    64
  9
$PINSBASE
 10
0.0
 20
0.0
 30
0.0
  9
$PLIMCHECK
 70
     0
  9
$PEXTMIN
 10
1.000000000000000E+20
 20
1.000000000000000E+20
 30
1.000000000000000E+20
  9
$PEXTMAX
 10
-1.000000000000000E+20
 20
-1.000000000000000E+20
 30
-1.000000000000000E+20
  9
$PLIMMIN
 10
0.0
 20
0.0
  9
$PLIMMAX
 10
12.0
 20
9.0
  9
$UNITMODE
 70
     0
  9
$VISRETAIN
 70
     1
  9
$PLINEGEN
 70
     0
  9
$PSLTSCALE
 70
     1
  9
$TREEDEPTH
 70
  3020
  9
$PICKSTYLE
 70
     1
  9
$CMLSTYLE
  2
STANDARD
  9
$CMLJUST
 70
     0
  9
$CMLSCALE
 40
1.0
  9
$SAVEIMAGES
 70
     1
  0
ENDSEC
  0
SECTION
  2
CLASSES
  0
CLASS
  1
ACDBDICTIONARYWDFLT
  2
AcDbDictionaryWithDefault
  3
ObjectDBX Classes
 90
    32768
280
     0
281
     0
  0
CLASS
  1
VISUALSTYLE
  2
AcDbVisualStyle
  3
ObjectDBX Classes
 90
     4095
280
     0
281
     0
  0
CLASS
  1
XRECORD
  2
AcDbXrecord
  3
AutoCAD 2000
 90
    32768
280
     0
281
     0
  0
CLASS
  1
LWPOLYLINE
  2
AcDbPolyline
  3
AutoCAD 2000
 90
    32768
280
     0
281
     1
  0
CLASS
  1
HATCH
  2
AcDbHatch
  3
AutoCAD 2000
 90
    32768
280
     0
281
     1
  0
CLASS
  1
ACDBPLACEHOLDER
  2
AcDbPlaceHolder
  3
ObjectDBX Classes
 90
        0
280
     0
281
     0
  0
CLASS
  1
LAYOUT
  2
AcDbLayout
  3
ObjectDBX Classes
 90
        0
280
     0
281
     0
  0
ENDSEC
  0
SECTION
  2
TABLES
  0
TABLE
  2
VPORT
  5
8
330
0
100
AcDbSymbolTable
 70
     1
  0
VPORT
  5
29
330
8
100
AcDbSymbolTableRecord
100
AcDbViewportTableRecord
  2
*ACTIVE
 70
     0
 10
0.0
 20
0.0
 11
1.0
 21
1.0
 12
0.0
 22
0.0
 13
0.0
 23
0.0
 14
0.5
 24
0.5
 15
0.5
 25
0.5
 16
0.0
 26
0.0
 36
1.0
 17
105.0008259828644
 27
-148.4999796178229
 37
0.0
 40
296.9999592356459
 41
0.7070763662937379
 42
50.0
 43
0.0
 44
0.0
 50
0.0
 51
0.0
 71
     0
 72
   100
 73
     1
 74
     3
 75
     0
 76
     0
 77
     0
 78
     0
  0
ENDTAB
  0
TABLE
  2
LTYPE
  5
5
330
0
100
AcDbSymbolTable
 70
     1
  0
LTYPE
  5
14
330
5
100
AcDbSymbolTableRecord
100
AcDbLinetypeTableRecord
  2
BYBLOCK
 70
     0
  3

 72
    65
 73
     0
 40
0.0
  0
LTYPE
  5
15
330
5
100
AcDbSymbolTableRecord
100
AcDbLinetypeTableRecord
  2
BYLAYER
 70
     0
  3

 72
    65
 73
     0
 40
0.0
  0
LTYPE
  5
16
330
5
100
AcDbSymbolTableRecord
100
AcDbLinetypeTableRecord
  2
CONTINUOUS
 70
     0
  3
Solid line
 72
    65
 73
     0
 40
0.0
  0
ENDTAB
  0
TABLE
  2
LAYER
  5
2
330
0
100
AcDbSymbolTable
 70
     2
  0
LAYER
  5
10
330
2
100
AcDbSymbolTableRecord
100
AcDbLayerTableRecord
  2
0
 70
     0
 62
     7
  6
CONTINUOUS
  0
LAYER
  5
3B
330
2
100
AcDbSymbolTableRecord
100
AcDbLayerTableRecord
  2
LAYER_1
 70
     0
 62
     7
  6
CONTINUOUS
  0
ENDTAB
  0
TABLE
  2
STYLE
  5
3
330
0
100
AcDbSymbolTable
 70
     1
  0
STYLE
  5
11
330
3
100
AcDbSymbolTableRecord
100
AcDbTextStyleTableRecord
  2
STANDARD
 70
     0
 40
0.0
 41
1.0
 50
0.0
 71
     0
 42
0.2
  3
txt
  4

  0
ENDTAB
  0
TABLE
  2
VIEW
  5
6
330
0
100
AcDbSymbolTable
 70
     0
  0
ENDTAB
  0
TABLE
  2
UCS
  5
7
330
0
100
AcDbSymbolTable
 70
     0
  0
ENDTAB
  0
TABLE
  2
APPID
  5
9
330
0
100
AcDbSymbolTable
 70
     1
  0
APPID
  5
12
330
9
100
AcDbSymbolTableRecord
100
AcDbRegAppTableRecord
  2
ACAD
 70
     0
  0
ENDTAB
  0
TABLE
  2
DIMSTYLE
  5
A
330
0
100
AcDbSymbolTable
 70
     1
  0
DIMSTYLE
105
27
330
A
100
AcDbSymbolTableRecord
100
AcDbDimStyleTableRecord
  2
STANDARD
 70
     0
  3

  4

  5

  6

  7

 40
1.0
 41
0.18
 42
0.0625
 43
0.38
 44
0.18
 45
0.0
 46
0.0
 47
0.0
 48
0.0
140
0.18
141
0.09
142
0.0
143
25.4
144
1.0
145
0.0
146
1.0
147
0.09
 71
     0
 72
     0
 73
     1
 74
     1
 75
     0
 76
     0
 77
     0
 78
     0
170
     0
171
     2
172
     0
173
     0
174
     0
175
     0
176
     0
177
     0
178
     0
270
     2
271
     4
272
     4
273
     2
274
     2
340
11
275
     0
280
     0
281
     0
282
     0
283
     1
284
     0
285
     0
286
     0
287
     3
288
     0
  0
ENDTAB
  0
TABLE
  2
BLOCK_RECORD
  5
1
330
0
100
AcDbSymbolTable
 70
     5
  0
BLOCK_RECORD
  5
1F
330
1
100
AcDbSymbolTableRecord
100
AcDbBlockTableRecord
  2
*MODEL_SPACE
  0
BLOCK_RECORD
  5
1B
330
1
100
AcDbSymbolTableRecord
100
AcDbBlockTableRecord
  2
*PAPER_SPACE
  0
BLOCK_RECORD
  5
3C
330
1
100
AcDbSymbolTableRecord
100
AcDbBlockTableRecord
  2
BLOCK_2
  0
BLOCK_RECORD
  5
47
330
1
100
AcDbSymbolTableRecord
100
AcDbBlockTableRecord
  2
BLOCK_3
  0
BLOCK_RECORD
  5
52
330
1
100
AcDbSymbolTableRecord
100
AcDbBlockTableRecord
  2
BLOCK_4
  0
BLOCK_RECORD
  5
59
330
1
100
AcDbSymbolTableRecord
100
AcDbBlockTableRecord
  2
BLOCK_5
  0
ENDTAB
  0
ENDSEC
  0
SECTION
  2
BLOCKS
  0
BLOCK
  5
20
330
1F
100
AcDbEntity
  8
0
100
AcDbBlockBegin
  2
*MODEL_SPACE
 70
     0
 71
     0
 10
0.0
 20
0.0
 30
0.0
  3
*MODEL_SPACE
  1

  0
ENDBLK
  5
21
330
1F
100
AcDbEntity
  8
0
100
AcDbBlockEnd
  0
BLOCK
  5
1C
330
1B
100
AcDbEntity
 67
     1
  8
0
100
AcDbBlockBegin
  2
*PAPER_SPACE
 70
     0
 71
     0
 10
0.0
 20
0.0
 30
0.0
  3
*PAPER_SPACE
  1

  0
ENDBLK
  5
1D
330
1B
100
AcDbEntity
 67
     1
  8
0
100
AcDbBlockEnd
  0
BLOCK
  5
3E
330
3C
100
AcDbEntity
  8
0
100
AcDbBlockBegin
  2
BLOCK_2
 70
     0
 71
     0
 10
0.0
 20
0.0
 30
0.0
  3
BLOCK_2
  1

  0
SPLINE
  5
40
330
3C
100
AcDbEntity
  8
LAYER_1
 62
     7
100
AcDbSpline
210
0.0
220
0.0
230
1.0
 70
    11
 71
     3
 72
    41
 73
    37
 74
     0
 42
0.0000000001
 43
0.0000000001
 40
0.0
 40
0.0
 40
0.0
 40
0.0
 40
1.0
 40
1.0
 40
1.0
 40
2.0
 40
2.0
 40
2.0
 40
3.0
 40
3.0
 40
3.0
 40
4.0
 40
4.0
 40
4.0
 40
5.0
 40
5.0
 40
5.0
 40
6.0
 40
6.0
 40
6.0
 40
7.0
 40
7.0
 40
7.0
 40
8.0
 40
8.0
 40
8.0
 40
9.0
 40
9.0
 40
9.0
 40
10.0
 40
10.0
 40
10.0
 40
11.0
 40
11.0
 40
11.0
 40
12.0
 40
12.0
 40
12.0
 40
12.0
 10
0.0001722547742625
 20
25.17055663433236
 30
0.0
 10
0.0001722547742625
 20
24.07053764589209
 30
0.0
 10
0.9002034502957825
 20
23.17050645037057
 30
0.0
 10
2.000222438736055
 20
23.17050645037057
 30
0.0
 10
2.000222438736055
 20
23.17050645037057
 30
0.0
 10
18.00010714610761
 20
23.17050645037057
 30
0.0
 10
18.00010714610761
 20
23.17050645037057
 30
0.0
 10
19.10012613454789
 20
23.17050645037057
 30
0.0
 10
20.00015733006941
 20
24.07053764589209
 30
0.0
 10
20.00015733006941
 20
25.17055663433236
 30
0.0
 10
20.00015733006941
 20
25.17055663433236
 30
0.0
 10
20.00015733006941
 20
51.17052000673862
 30
0.0
 10
20.00015733006941
 20
51.17052000673862
 30
0.0
 10
20.00015733006941
 20
52.2705389951789
 30
0.0
 10
20.90018852559093
 20
53.17057019070042
 30
0.0
 10
22.0002075140312
 20
53.17057019070042
 30
0.0
 10
22.0002075140312
 20
53.17057019070042
 30
0.0
 10
41.00042587950684
 20
53.17057019070042
 30
0.0
 10
41.00042587950684
 20
53.17057019070042
 30
0.0
 10
42.10044486794711
 20
53.17057019070042
 30
0.0
 10
43.00030380869437
 20
54.07060138622194
 30
0.0
 10
43.00030380869437
 20
55.17062037466221
 30
0.0
 10
43.00030380869437
 20
55.17062037466221
 30
0.0
 10
43.00030380869437
 20
71.17050508203377
 30
0.0
 10
43.00030380869437
 20
71.17050508203377
 30
0.0
 10
43.00030380869437
 20
72.27052407047404
 30
0.0
 10
42.10044486794711
 20
73.17055526599556
 30
0.0
 10
41.00042587950684
 20
73.17055526599556
 30
0.0
 10
41.00042587950684
 20
73.17055526599556
 30
0.0
 10
2.000222438736055
 20
73.17055526599556
 30
0.0
 10
2.000222438736055
 20
73.17055526599556
 30
0.0
 10
0.9002034502957825
 20
73.17055526599556
 30
0.0
 10
0.0001722547742625
 20
72.27052407047404
 30
0.0
 10
0.0001722547742625
 20
71.17050508203377
 30
0.0
 10
0.0001722547742625
 20
71.17050508203377
 30
0.0
 10
0.0001722547742625
 20
25.17055663433236
 30
0.0
 10
0.0001722547742625
 20
25.17055663433236
 30
0.0
  0
SPLINE
  5
41
330
3C
100
AcDbEntity
  8
LAYER_1
 62
     7
100
AcDbSpline
210
0.0
220
0.0
230
1.0
 70
    11
 71
     3
 72
    17
 73
    13
 74
     0
 42
0.0000000001
 43
0.0000000001
 40
0.0
 40
0.0
 40
0.0
 40
0.0
 40
1.0
 40
1.0
 40
1.0
 40
2.0
 40
2.0
 40
2.0
 40
3.0
 40
3.0
 40
3.0
 40
4.0
 40
4.0
 40
4.0
 40
4.0
 10
12.50018445868051
 20
63.17013209141233
 30
0.0
 10
12.50018445868051
 20
61.7893378209242
 30
0.0
 10
11.38087293552284
 20
60.67019855254079
 30
0.0
 10
10.0000786650347
 20
60.67019855254079
 30
0.0
 10
8.619284394546568
 20
60.67019855254079
 30
0.0
 10
7.500145126163159
 20
61.7893378209242
 30
0.0
 10
7.500145126163159
 20
63.17013209141233
 30
0.0
 10
7.500145126163159
 20
64.55092636190047
 30
0.0
 10
8.619284394546568
 20
65.67023788505814
 30
0.0
 10
10.0000786650347
 20
65.67023788505814
 30
0.0
 10
11.38087293552284
 20
65.67023788505814
 30
0.0
 10
12.50018445868051
 20
64.55092636190047
 30
0.0
 10
12.50018445868051
 20
63.17013209141233
 30
0.0
  0
SPLINE
  5
42
330
3C
100
AcDbEntity
  8
LAYER_1
 62
     7
100
AcDbSpline
210
0.0
220
0.0
230
1.0
 70
    11
 71
     3
 72
    17
 73
    13
 74
     0
 42
0.0000000001
 43
0.0000000001
 40
0.0
 40
0.0
 40
0.0
 40
0.0
 40
1.0
 40
1.0
 40
1.0
 40
2.0
 40
2.0
 40
2.0
 40
3.0
 40
3.0
 40
3.0
 40
4.0
 40
4.0
 40
4.0
 40
4.0
 10
15.00011799755205
 20
63.17013209141233
 30
0.0
 10
15.00011799755205
 20
60.40871580521032
 30
0.0
 10
12.76149495123671
 20
58.17026501366924
 30
0.0
 10
10.0000786650347
 20
58.17026501366924
 30
0.0
 10
7.238662378832696
 20
58.17026501366924
 30
0.0
 10
5.000211587291614
 20
60.40871580521032
 30
0.0
 10
5.000211587291614
 20
63.17013209141233
 30
0.0
 10
5.000211587291614
 20
65.93154837761433
 30
0.0
 10
7.238662378832696
 20
68.17017142392969
 30
0.0
 10
10.0000786650347
 20
68.17017142392969
 30
0.0
 10
12.76149495123671
 20
68.17017142392969
 30
0.0
 10
15.00011799755205
 20
65.93154837761433
 30
0.0
 10
15.00011799755205
 20
63.17013209141233
 30
0.0
  0
SPLINE
  5
43
330
3C
100
AcDbEntity
  8
LAYER_1
 62
     7
100
AcDbSpline
210
0.0
220
0.0
230
1.0
 70
    11
 71
     3
 72
    17
 73
    13
 74
     0
 42
0.0000000001
 43
0.0000000001
 40
0.0
 40
0.0
 40
0.0
 40
0.0
 40
1.0
 40
1.0
 40
1.0
 40
2.0
 40
2.0
 40
2.0
 40
3.0
 40
3.0
 40
3.0
 40
4.0
 40
4.0
 40
4.0
 40
4.0
 10
12.50018445868051
 20
34.94653183805156
 30
0.0
 10
12.50018445868051
 20
33.56573756756343
 30
0.0
 10
11.38087293552284
 20
32.44659829918002
 30
0.0
 10
10.0000786650347
 20
32.44659829918002
 30
0.0
 10
8.619284394546568
 20
32.44659829918002
 30
0.0
 10
7.500145126163159
 20
33.56573756756343
 30
0.0
 10
7.500145126163159
 20
34.94653183805156
 30
0.0
 10
7.500145126163159
 20
36.3273261085397
 30
0.0
 10
8.619284394546568
 20
37.44663763169737
 30
0.0
 10
10.0000786650347
 20
37.44663763169737
 30
0.0
 10
11.38087293552284
 20
37.44663763169737
 30
0.0
 10
12.50018445868051
 20
36.3273261085397
 30
0.0
 10
12.50018445868051
 20
34.94653183805156
 30
0.0
  0
SPLINE
  5
44
330
3C
100
AcDbEntity
  8
LAYER_1
 62
     7
100
AcDbSpline
210
0.0
220
0.0
230
1.0
 70
    11
 71
     3
 72
    17
 73
    13
 74
     0
 42
0.0000000001
 43
0.0000000001
 40
0.0
 40
0.0
 40
0.0
 40
0.0
 40
1.0
 40
1.0
 40
1.0
 40
2.0
 40
2.0
 40
2.0
 40
3.0
 40
3.0
 40
3.0
 40
4.0
 40
4.0
 40
4.0
 40
4.0
 10
15.00011799755205
 20
34.94653183805156
 30
0.0
 10
15.00011799755205
 20
32.18511555184956
 30
0.0
 10
12.76149495123671
 20
29.94666476030847
 30
0.0
 10
10.0000786650347
 20
29.94666476030847
 30
0.0
 10
7.238662378832696
 20
29.94666476030847
 30
0.0
 10
5.000211587291614
 20
32.18511555184956
 30
0.0
 10
5.000211587291614
 20
34.94653183805156
 30
0.0
 10
5.000211587291614
 20
37.70794812425357
 30
0.0
 10
7.238662378832696
 20
39.94657117056892
 30
0.0
 10
10.0000786650347
 20
39.94657117056892
 30
0.0
 10
12.76149495123671
 20
39.94657117056892
 30
0.0
 10
15.00011799755205
 20
37.70794812425357
 30
0.0
 10
15.00011799755205
 20
34.94653183805156
 30
0.0
  0
SPLINE
  5
45
330
3C
100
AcDbEntity
  8
LAYER_1
 62
     7
100
AcDbSpline
210
0.0
220
0.0
230
1.0
 70
    11
 71
     3
 72
    17
 73
    13
 74
     0
 42
0.0000000001
 43
0.0000000001
 40
0.0
 40
0.0
 40
0.0
 40
0.0
 40
1.0
 40
1.0
 40
1.0
 40
2.0
 40
2.0
 40
2.0
 40
3.0
 40
3.0
 40
3.0
 40
4.0
 40
4.0
 40
4.0
 40
4.0
 10
35.07934026900794
 20
63.17013209141233
 30
0.0
 10
35.07934026900794
 20
61.7893378209242
 30
0.0
 10
33.96002874585027
 20
60.67019855254079
 30
0.0
 10
32.57906222058787
 20
60.67019855254079
 30
0.0
 10
31.19826795009974
 20
60.67019855254079
 30
0.0
 10
30.07912868171633
 20
61.7893378209242
 30
0.0
 10
30.07912868171633
 20
63.17013209141233
 30
0.0
 10
30.07912868171633
 20
64.55092636190047
 30
0.0
 10
31.19826795009974
 20
65.67023788505814
 30
0.0
 10
32.57906222058787
 20
65.67023788505814
 30
0.0
 10
33.96002874585027
 20
65.67023788505814
 30
0.0
 10
35.07934026900794
 20
64.55092636190047
 30
0.0
 10
35.07934026900794
 20
63.17013209141233
 30
0.0
  0
SPLINE
  5
46
330
3C
100
AcDbEntity
  8
LAYER_1
 62
     7
100
AcDbSpline
210
0.0
220
0.0
230
1.0
 70
    11
 71
     3
 72
    17
 73
    13
 74
     0
 42
0.0000000001
 43
0.0000000001
 40
0.0
 40
0.0
 40
0.0
 40
0.0
 40
1.0
 40
1.0
 40
1.0
 40
2.0
 40
2.0
 40
2.0
 40
3.0
 40
3.0
 40
3.0
 40
4.0
 40
4.0
 40
4.0
 40
4.0
 10
37.57944606265375
 20
63.17013209141233
 30
0.0
 10
37.57944606265375
 20
60.40871580521032
 30
0.0
 10
35.34047850678988
 20
58.17026501366924
 30
0.0
 10
32.57906222058787
 20
58.17026501366924
 30
0.0
 10
29.81764593438587
 20
58.17026501366924
 30
0.0
 10
27.57919514284479
 20
60.40871580521032
 30
0.0
 10
27.57919514284479
 20
63.17013209141233
 30
0.0
 10
27.57919514284479
 20
65.93154837761433
 30
0.0
 10
29.81764593438587
 20
68.17017142392969
 30
0.0
 10
32.57906222058787
 20
68.17017142392969
 30
0.0
 10
35.34047850678988
 20
68.17017142392969
 30
0.0
 10
37.57944606265375
 20
65.93154837761433
 30
0.0
 10
37.57944606265375
 20
63.17013209141233
 30
0.0
  0
ENDBLK
  5
3F
330
3C
100
AcDbEntity
  8
0
100
AcDbBlockEnd
  0
BLOCK
  5
49
330
47
100
AcDbEntity
  8
0
100
AcDbBlockBegin
  2
BLOCK_3
 70
     0
 71
     0
 10
0.0
 20
0.0
 30
0.0
  3
BLOCK_3
  1

  0
SPLINE
  5
4B
330
47
100
AcDbEntity
  8
LAYER_1
 62
     7
100
AcDbSpline
210
0.0
220
0.0
230
1.0
 70
    11
 71
     3
 72
    41
 73
    37
 74
     0
 42
0.0000000001
 43
0.0000000001
 40
0.0
 40
0.0
 40
0.0
 40
0.0
 40
1.0
 40
1.0
 40
1.0
 40
2.0
 40
2.0
 40
2.0
 40
3.0
 40
3.0
 40
3.0
 40
4.0
 40
4.0
 40
4.0
 40
5.0
 40
5.0
 40
5.0
 40
6.0
 40
6.0
 40
6.0
 40
7.0
 40
7.0
 40
7.0
 40
8.0
 40
8.0
 40
8.0
 40
9.0
 40
9.0
 40
9.0
 40
10.0
 40
10.0
 40
10.0
 40
11.0
 40
11.0
 40
11.0
 40
12.0
 40
12.0
 40
12.0
 40
12.0
 10
31.09508734031651
 20
26.58063421644512
 30
0.0
 10
29.99506835187623
 20
26.58063421644512
 30
0.0
 10
29.09486490158045
 20
27.48049315719238
 30
0.0
 10
29.09486490158045
 20
28.58051214563265
 30
0.0
 10
29.09486490158045
 20
28.58051214563265
 30
0.0
 10
29.09486490158045
 20
44.58160263642404
 30
0.0
 10
29.09486490158045
 20
44.58160263642404
 30
0.0
 10
29.09486490158045
 20
45.68162162486432
 30
0.0
 10
29.99506835187623
 20
46.58148056561158
 30
0.0
 10
31.09508734031651
 20
46.58148056561158
 30
0.0
 10
31.09508734031651
 20
46.58148056561158
 30
0.0
 10
57.0948784579485
 20
46.58148056561158
 30
0.0
 10
57.0948784579485
 20
46.58148056561158
 30
0.0
 10
58.19524195593731
 20
46.58148056561158
 30
0.0
 10
59.09510089668456
 20
47.48133950635884
 30
0.0
 10
59.09510089668456
 20
48.5813584947991
 30
0.0
 10
59.09510089668456
 20
48.5813584947991
 30
0.0
 10
59.09510089668456
 20
67.58278264369459
 30
0.0
 10
59.09510089668456
 20
67.58278264369459
 30
0.0
 10
59.09510089668456
 20
68.68280163213485
 30
0.0
 10
59.99495983743182
 20
69.58266057288212
 30
0.0
 10
61.09532333542062
 20
69.58266057288212
 30
0.0
 10
61.09532333542062
 20
69.58266057288212
 30
0.0
 10
77.09503578801791
 20
69.58266057288212
 30
0.0
 10
77.09503578801791
 20
69.58266057288212
 30
0.0
 10
78.19505477645818
 20
69.58266057288212
 30
0.0
 10
79.09525822675397
 20
68.68280163213485
 30
0.0
 10
79.09525822675397
 20
67.58278264369459
 30
0.0
 10
79.09525822675397
 20
67.58278264369459
 30
0.0
 10
79.09525822675397
 20
28.58051214563265
 30
0.0
 10
79.09525822675397
 20
28.58051214563265
 30
0.0
 10
79.09525822675397
 20
27.48049315719238
 30
0.0
 10
78.19505477645818
 20
26.58063421644512
 30
0.0
 10
77.09503578801791
 20
26.58063421644512
 30
0.0
 10
77.09503578801791
 20
26.58063421644512
 30
0.0
 10
31.09508734031651
 20
26.58063421644512
 30
0.0
 10
31.09508734031651
 20
26.58063421644512
 30
0.0
  0
SPLINE
  5
4C
330
47
100
AcDbEntity
  8
LAYER_1
 62
     7
100
AcDbSpline
210
0.0
220
0.0
230
1.0
 70
    11
 71
     3
 72
    17
 73
    13
 74
     0
 42
0.0000000001
 43
0.0000000001
 40
0.0
 40
0.0
 40
0.0
 40
0.0
 40
1.0
 40
1.0
 40
1.0
 40
2.0
 40
2.0
 40
2.0
 40
3.0
 40
3.0
 40
3.0
 40
4.0
 40
4.0
 40
4.0
 40
4.0
 10
69.09483505217074
 20
39.08116318467415
 30
0.0
 10
67.7140407816826
 20
39.08116318467415
 30
0.0
 10
66.59472925852494
 20
37.96185166151648
 30
0.0
 10
66.59472925852494
 20
36.58071288147983
 30
0.0
 10
66.59472925852494
 20
35.19991861099169
 30
0.0
 10
67.7140407816826
 20
34.08095159738254
 30
0.0
 10
69.09483505217074
 20
34.08095159738254
 30
0.0
 10
70.47562932265888
 20
34.08095159738254
 30
0.0
 10
71.59459633626803
 20
35.19991861099169
 30
0.0
 10
71.59459633626803
 20
36.58071288147983
 30
0.0
 10
71.59459633626803
 20
37.96185166151648
 30
0.0
 10
70.47562932265888
 20
39.08116318467415
 30
0.0
 10
69.09483505217074
 20
39.08116318467415
 30
0.0
  0
SPLINE
  5
4D
330
47
100
AcDbEntity
  8
LAYER_1
 62
     7
100
AcDbSpline
210
0.0
220
0.0
230
1.0
 70
    11
 71
     3
 72
    17
 73
    13
 74
     0
 42
0.0000000001
 43
0.0000000001
 40
0.0
 40
0.0
 40
0.0
 40
0.0
 40
1.0
 40
1.0
 40
1.0
 40
2.0
 40
2.0
 40
2.0
 40
3.0
 40
3.0
 40
3.0
 40
4.0
 40
4.0
 40
4.0
 40
4.0
 10
69.09483505217074
 20
41.58126897831996
 30
0.0
 10
66.33324651119447
 20
41.58126897831996
 30
0.0
 10
64.09462346487912
 20
39.3423014224561
 30
0.0
 10
64.09462346487912
 20
36.58071288147983
 30
0.0
 10
64.09462346487912
 20
33.81946885005208
 30
0.0
 10
66.33324651119447
 20
31.58084580373674
 30
0.0
 10
69.09483505217074
 20
31.58084580373674
 30
0.0
 10
71.85607908359849
 20
31.58084580373674
 30
0.0
 10
74.09470212991383
 20
33.81946885005208
 30
0.0
 10
74.09470212991383
 20
36.58071288147983
 30
0.0
 10
74.09470212991383
 20
39.3423014224561
 30
0.0
 10
71.85607908359849
 20
41.58126897831996
 30
0.0
 10
69.09483505217074
 20
41.58126897831996
 30
0.0
  0
SPLINE
  5
4E
330
47
100
AcDbEntity
  8
LAYER_1
 62
     7
100
AcDbSpline
210
0.0
220
0.0
230
1.0
 70
    11
 71
     3
 72
    17
 73
    13
 74
     0
 42
0.0000000001
 43
0.0000000001
 40
0.0
 40
0.0
 40
0.0
 40
0.0
 40
1.0
 40
1.0
 40
1.0
 40
2.0
 40
2.0
 40
2.0
 40
3.0
 40
3.0
 40
3.0
 40
4.0
 40
4.0
 40
4.0
 40
4.0
 10
40.87089028926145
 20
39.08116318467415
 30
0.0
 10
39.49009601877331
 20
39.08116318467415
 30
0.0
 10
38.37112900516416
 20
37.96185166151648
 30
0.0
 10
38.37112900516416
 20
36.58071288147983
 30
0.0
 10
38.37112900516416
 20
35.19991861099169
 30
0.0
 10
39.49009601877331
 20
34.08095159738254
 30
0.0
 10
40.87089028926145
 20
34.08095159738254
 30
0.0
 10
42.25168455974958
 20
34.08095159738254
 30
0.0
 10
43.37099608290725
 20
35.19991861099169
 30
0.0
 10
43.37099608290725
 20
36.58071288147983
 30
0.0
 10
43.37099608290725
 20
37.96185166151648
 30
0.0
 10
42.25168455974958
 20
39.08116318467415
 30
0.0
 10
40.87089028926145
 20
39.08116318467415
 30
0.0
  0
SPLINE
  5
4F
330
47
100
AcDbEntity
  8
LAYER_1
 62
     7
100
AcDbSpline
210
0.0
220
0.0
230
1.0
 70
    11
 71
     3
 72
    17
 73
    13
 74
     0
 42
0.0000000001
 43
0.0000000001
 40
0.0
 40
0.0
 40
0.0
 40
0.0
 40
1.0
 40
1.0
 40
1.0
 40
2.0
 40
2.0
 40
2.0
 40
3.0
 40
3.0
 40
3.0
 40
4.0
 40
4.0
 40
4.0
 40
4.0
 10
40.87089028926145
 20
41.58126897831996
 30
0.0
 10
38.1096462578337
 20
41.58126897831996
 30
0.0
 10
35.87102321151836
 20
39.3423014224561
 30
0.0
 10
35.87102321151836
 20
36.58071288147983
 30
0.0
 10
35.87102321151836
 20
33.81946885005208
 30
0.0
 10
38.1096462578337
 20
31.58084580373674
 30
0.0
 10
40.87089028926145
 20
31.58084580373674
 30
0.0
 10
43.63247883023772
 20
31.58084580373674
 30
0.0
 10
45.87110187655306
 20
33.81946885005208
 30
0.0
 10
45.87110187655306
 20
36.58071288147983
 30
0.0
 10
45.87110187655306
 20
39.3423014224561
 30
0.0
 10
43.63247883023772
 20
41.58126897831996
 30
0.0
 10
40.87089028926145
 20
41.58126897831996
 30
0.0
  0
SPLINE
  5
50
330
47
100
AcDbEntity
  8
LAYER_1
 62
     7
100
AcDbSpline
210
0.0
220
0.0
230
1.0
 70
    11
 71
     3
 72
    17
 73
    13
 74
     0
 42
0.0000000001
 43
0.0000000001
 40
0.0
 40
0.0
 40
0.0
 40
0.0
 40
1.0
 40
1.0
 40
1.0
 40
2.0
 40
2.0
 40
2.0
 40
3.0
 40
3.0
 40
3.0
 40
4.0
 40
4.0
 40
4.0
 40
4.0
 10
69.09483505217074
 20
61.66135252364717
 30
0.0
 10
67.7140407816826
 20
61.66135252364717
 30
0.0
 10
66.59472925852494
 20
60.54204100048949
 30
0.0
 10
66.59472925852494
 20
59.16090222045283
 30
0.0
 10
66.59472925852494
 20
57.78010794996469
 30
0.0
 10
67.7140407816826
 20
56.66079642680702
 30
0.0
 10
69.09483505217074
 20
56.66079642680702
 30
0.0
 10
70.47562932265888
 20
56.66079642680702
 30
0.0
 10
71.59459633626803
 20
57.78010794996469
 30
0.0
 10
71.59459633626803
 20
59.16090222045283
 30
0.0
 10
71.59459633626803
 20
60.54204100048949
 30
0.0
 10
70.47562932265888
 20
61.66135252364717
 30
0.0
 10
69.09483505217074
 20
61.66135252364717
 30
0.0
  0
SPLINE
  5
51
330
47
100
AcDbEntity
  8
LAYER_1
 62
     7
100
AcDbSpline
210
0.0
220
0.0
230
1.0
 70
    11
 71
     3
 72
    17
 73
    13
 74
     0
 42
0.0000000001
 43
0.0000000001
 40
0.0
 40
0.0
 40
0.0
 40
0.0
 40
1.0
 40
1.0
 40
1.0
 40
2.0
 40
2.0
 40
2.0
 40
3.0
 40
3.0
 40
3.0
 40
4.0
 40
4.0
 40
4.0
 40
4.0
 10
69.09483505217074
 20
64.16145831729297
 30
0.0
 10
66.33324651119447
 20
64.16145831729297
 30
0.0
 10
64.09462346487912
 20
61.9224907614291
 30
0.0
 10
64.09462346487912
 20
59.16090222045283
 30
0.0
 10
64.09462346487912
 20
56.39931367947656
 30
0.0
 10
66.33324651119447
 20
54.16069063316122
 30
0.0
 10
69.09483505217074
 20
54.16069063316122
 30
0.0
 10
71.85607908359849
 20
54.16069063316122
 30
0.0
 10
74.09470212991383
 20
56.39931367947656
 30
0.0
 10
74.09470212991383
 20
59.16090222045283
 30
0.0
 10
74.09470212991383
 20
61.9224907614291
 30
0.0
 10
71.85607908359849
 20
64.16145831729297
 30
0.0
 10
69.09483505217074
 20
64.16145831729297
 30
0.0
  0
ENDBLK
  5
4A
330
47
100
AcDbEntity
  8
0
100
AcDbBlockEnd
  0
BLOCK
  5
54
330
52
100
AcDbEntity
  8
0
100
AcDbBlockBegin
  2
BLOCK_4
 70
     0
 71
     0
 10
0.0
 20
0.0
 30
0.0
  3
BLOCK_4
  1

  0
SPLINE
  5
56
330
52
100
AcDbEntity
  8
LAYER_1
 62
     7
100
AcDbSpline
210
0.0
220
0.0
230
1.0
 70
    11
 71
     3
 72
    29
 73
    25
 74
     0
 42
0.0000000001
 43
0.0000000001
 40
0.0
 40
0.0
 40
0.0
 40
0.0
 40
1.0
 40
1.0
 40
1.0
 40
2.0
 40
2.0
 40
2.0
 40
3.0
 40
3.0
 40
3.0
 40
4.0
 40
4.0
 40
4.0
 40
5.0
 40
5.0
 40
5.0
 40
6.0
 40
6.0
 40
6.0
 40
7.0
 40
7.0
 40
7.0
 40
8.0
 40
8.0
 40
8.0
 40
8.0
 10
45.66542967608365
 20
19.99998507529514
 30
0.0
 10
46.76510415497539
 20
19.99998507529514
 30
0.0
 10
47.66530760527117
 20
19.09995387977362
 30
0.0
 10
47.66530760527117
 20
17.99993489133335
 30
0.0
 10
47.66530760527117
 20
17.99993489133335
 30
0.0
 10
47.66530760527117
 20
2.000050183961793
 30
0.0
 10
47.66530760527117
 20
2.000050183961793
 30
0.0
 10
47.66530760527117
 20
0.90003119552152
 30
0.0
 10
46.76510415497539
 20
0.0
 30
0.0
 10
45.66542967608365
 20
0.0
 30
0.0
 10
45.66542967608365
 20
0.0
 30
0.0
 10
24.66550563619474
 20
0.0
 30
0.0
 10
24.66550563619474
 20
0.0
 30
0.0
 10
23.56548664775446
 20
0.0
 30
0.0
 10
22.66545545223294
 20
0.90003119552152
 30
0.0
 10
22.66545545223294
 20
2.000050183961793
 30
0.0
 10
22.66545545223294
 20
2.000050183961793
 30
0.0
 10
22.66545545223294
 20
17.99993489133335
 30
0.0
 10
22.66545545223294
 20
17.99993489133335
 30
0.0
 10
22.66545545223294
 20
19.09995387977362
 30
0.0
 10
23.56548664775446
 20
19.99998507529514
 30
0.0
 10
24.66550563619474
 20
19.99998507529514
 30
0.0
 10
24.66550563619474
 20
19.99998507529514
 30
0.0
 10
45.66542967608365
 20
19.99998507529514
 30
0.0
 10
45.66542967608365
 20
19.99998507529514
 30
0.0
  0
SPLINE
  5
57
330
52
100
AcDbEntity
  8
LAYER_1
 62
     7
100
AcDbSpline
210
0.0
220
0.0
230
1.0
 70
    11
 71
     3
 72
    17
 73
    13
 74
     0
 42
0.0000000001
 43
0.0000000001
 40
0.0
 40
0.0
 40
0.0
 40
0.0
 40
1.0
 40
1.0
 40
1.0
 40
2.0
 40
2.0
 40
2.0
 40
3.0
 40
3.0
 40
3.0
 40
4.0
 40
4.0
 40
4.0
 40
4.0
 10
35.16546765613919
 20
12.50001220390625
 30
0.0
 10
36.54626192662732
 20
12.50001220390625
 30
0.0
 10
37.665573449785
 20
11.38070068074857
 30
0.0
 10
37.665573449785
 20
9.99990641026044
 30
0.0
 10
37.665573449785
 20
8.619112139772305
 30
0.0
 10
36.54626192662732
 20
7.499972871388896
 30
0.0
 10
35.16546765613919
 20
7.499972871388896
 30
0.0
 10
33.78467338565105
 20
7.499972871388896
 30
0.0
 10
32.66536186249338
 20
8.619112139772305
 30
0.0
 10
32.66536186249338
 20
9.99990641026044
 30
0.0
 10
32.66536186249338
 20
11.38070068074857
 30
0.0
 10
33.78467338565105
 20
12.50001220390625
 30
0.0
 10
35.16546765613919
 20
12.50001220390625
 30
0.0
  0
SPLINE
  5
58
330
52
100
AcDbEntity
  8
LAYER_1
 62
     7
100
AcDbSpline
210
0.0
220
0.0
230
1.0
 70
    11
 71
     3
 72
    17
 73
    13
 74
     0
 42
0.0000000001
 43
0.0000000001
 40
0.0
 40
0.0
 40
0.0
 40
0.0
 40
1.0
 40
1.0
 40
1.0
 40
2.0
 40
2.0
 40
2.0
 40
3.0
 40
3.0
 40
3.0
 40
4.0
 40
4.0
 40
4.0
 40
4.0
 10
35.16546765613919
 20
14.99977348800353
 30
0.0
 10
37.92705619711546
 20
14.99977348800353
 30
0.0
 10
40.16533473388228
 20
12.76115044168819
 30
0.0
 10
40.16533473388228
 20
9.99990641026044
 30
0.0
 10
40.16533473388228
 20
7.238490124058433
 30
0.0
 10
37.92705619711546
 20
5.000039332517352
 30
0.0
 10
35.16546765613919
 20
5.000039332517352
 30
0.0
 10
32.40405136993719
 20
5.000039332517352
 30
0.0
 10
30.16542832362184
 20
7.238490124058433
 30
0.0
 10
30.16542832362184
 20
9.99990641026044
 30
0.0
 10
30.16542832362184
 20
12.76115044168819
 30
0.0
 10
32.40405136993719
 20
14.99977348800353
 30
0.0
 10
35.16546765613919
 20
14.99977348800353
 30
0.0
  0
ENDBLK
  5
55
330
52
100
AcDbEntity
  8
0
100
AcDbBlockEnd
  0
BLOCK
  5
5B
330
59
100
AcDbEntity
  8
0
100
AcDbBlockBegin
  2
BLOCK_5
 70
     0
 71
     0
 10
0.0
 20
0.0
 30
0.0
  3
BLOCK_5
  1

  0
SPLINE
  5
5D
330
59
100
AcDbEntity
  8
LAYER_1
 62
     7
100
AcDbSpline
210
0.0
220
0.0
230
1.0
 70
    11
 71
     3
 72
    29
 73
    25
 74
     0
 42
0.0000000001
 43
0.0000000001
 40
0.0
 40
0.0
 40
0.0
 40
0.0
 40
1.0
 40
1.0
 40
1.0
 40
2.0
 40
2.0
 40
2.0
 40
3.0
 40
3.0
 40
3.0
 40
4.0
 40
4.0
 40
4.0
 40
5.0
 40
5.0
 40
5.0
 40
6.0
 40
6.0
 40
6.0
 40
7.0
 40
7.0
 40
7.0
 40
8.0
 40
8.0
 40
8.0
 40
8.0
 10
76.7419135007798
 20
19.99998507529514
 30
0.0
 10
77.84193248922007
 20
19.99998507529514
 30
0.0
 10
78.74213593951586
 20
19.10012613454789
 30
0.0
 10
78.74213593951586
 20
18.00010714610761
 30
0.0
 10
78.74213593951586
 20
18.00010714610761
 30
0.0
 10
78.74213593951586
 20
2.000050183961793
 30
0.0
 10
78.74213593951586
 20
2.000050183961793
 30
0.0
 10
78.74213593951586
 20
0.90003119552152
 30
0.0
 10
77.84193248922007
 20
0.0001722547742625
 30
0.0
 10
76.7419135007798
 20
0.0001722547742625
 30
0.0
 10
76.7419135007798
 20
0.0001722547742625
 30
0.0
 10
55.74233397043942
 20
0.0
 30
0.0
 10
55.74233397043942
 20
0.0
 30
0.0
 10
54.64231498199915
 20
0.0
 30
0.0
 10
53.74211153170337
 20
0.8998589407472575
 30
0.0
 10
53.74211153170337
 20
1.999877929187531
 30
0.0
 10
53.74211153170337
 20
1.999877929187531
 30
0.0
 10
53.74211153170337
 20
17.99993489133335
 30
0.0
 10
53.74211153170337
 20
17.99993489133335
 30
0.0
 10
53.74211153170337
 20
19.09995387977362
 30
0.0
 10
54.64231498199915
 20
19.99981282052088
 30
0.0
 10
55.74233397043942
 20
19.99981282052088
 30
0.0
 10
55.74233397043942
 20
19.99981282052088
 30
0.0
 10
76.7419135007798
 20
19.99998507529514
 30
0.0
 10
76.7419135007798
 20
19.99998507529514
 30
0.0
  0
SPLINE
  5
5E
330
59
100
AcDbEntity
  8
LAYER_1
 62
     7
100
AcDbSpline
210
0.0
220
0.0
230
1.0
 70
    11
 71
     3
 72
    17
 73
    13
 74
     0
 42
0.0000000001
 43
0.0000000001
 40
0.0
 40
0.0
 40
0.0
 40
0.0
 40
1.0
 40
1.0
 40
1.0
 40
2.0
 40
2.0
 40
2.0
 40
3.0
 40
3.0
 40
3.0
 40
4.0
 40
4.0
 40
4.0
 40
4.0
 10
66.24229599038388
 20
12.50001220390625
 30
0.0
 10
67.623090260872
 20
12.50001220390625
 30
0.0
 10
68.74205727448116
 20
11.38070068074857
 30
0.0
 10
68.74205727448116
 20
9.99990641026044
 30
0.0
 10
68.74205727448116
 20
8.619112139772305
 30
0.0
 10
67.623090260872
 20
7.500145126163159
 30
0.0
 10
66.24229599038388
 20
7.500145126163159
 30
0.0
 10
64.86150171989574
 20
7.500145126163159
 30
0.0
 10
63.74219019673806
 20
8.619112139772305
 30
0.0
 10
63.74219019673806
 20
9.99990641026044
 30
0.0
 10
63.74219019673806
 20
11.38070068074857
 30
0.0
 10
64.86150171989574
 20
12.50001220390625
 30
0.0
 10
66.24229599038388
 20
12.50001220390625
 30
0.0
  0
SPLINE
  5
5F
330
59
100
AcDbEntity
  8
LAYER_1
 62
     7
100
AcDbSpline
210
0.0
220
0.0
230
1.0
 70
    11
 71
     3
 72
    17
 73
    13
 74
     0
 42
0.0000000001
 43
0.0000000001
 40
0.0
 40
0.0
 40
0.0
 40
0.0
 40
1.0
 40
1.0
 40
1.0
 40
2.0
 40
2.0
 40
2.0
 40
3.0
 40
3.0
 40
3.0
 40
4.0
 40
4.0
 40
4.0
 40
4.0
 10
66.24229599038388
 20
14.99977348800353
 30
0.0
 10
69.00354002181162
 20
14.99977348800353
 30
0.0
 10
71.24216306812696
 20
12.76115044168819
 30
0.0
 10
71.24216306812696
 20
9.99990641026044
 30
0.0
 10
71.24216306812696
 20
7.238317869284171
 30
0.0
 10
69.00354002181162
 20
5.000039332517352
 30
0.0
 10
66.24229599038388
 20
5.000039332517352
 30
0.0
 10
63.4807074494076
 20
5.000039332517352
 30
0.0
 10
61.24208440309226
 20
7.238317869284171
 30
0.0
 10
61.24208440309226
 20
9.99990641026044
 30
0.0
 10
61.24208440309226
 20
12.76115044168819
 30
0.0
 10
63.4807074494076
 20
14.99977348800353
 30
0.0
 10
66.24229599038388
 20
14.99977348800353
 30
0.0
  0
ENDBLK
  5
5C
330
59
100
AcDbEntity
  8
0
100
AcDbBlockEnd
  0
ENDSEC
  0
SECTION
  2
ENTITIES
  0
INSERT
  5
3D
330
1F
100
AcDbEntity
  8
LAYER_1
100
AcDbBlockReference
  2
BLOCK_2
 10
0.0
 20
0.0
 30
0.0
  0
INSERT
  5
48
330
1F
100
AcDbEntity
  8
LAYER_1
100
AcDbBlockReference
  2
BLOCK_3
 10
0.0
 20
0.0
 30
0.0
  0
INSERT
  5
53
330
1F
100
AcDbEntity
  8
LAYER_1
100
AcDbBlockReference
  2
BLOCK_4
 10
0.0
 20
0.0
 30
0.0
  0
INSERT
  5
5A
330
1F
100
AcDbEntity
  8
LAYER_1
100
AcDbBlockReference
  2
BLOCK_5
 10
0.0
 20
0.0
 30
0.0
  0
ENDSEC
  0
SECTION
  2
OBJECTS
  0
DICTIONARY
  5
C
330
0
100
AcDbDictionary
  3
ACAD_GROUP
350
D
  3
ACAD_LAYOUT
350
1A
  3
ACAD_MLINESTYLE
350
17
  3
ACAD_PLOTSETTINGS
350
19
  3
ACAD_TABLESTYLE
350
60
  3
ACAD_VISUALSTYLE
350
2A
1001
ACAD
1000
TREAT_AS_HARD
1070
     0
  0
DICTIONARY
  5
D
102
{ACAD_REACTORS
330
C
102
}
330
C
100
AcDbDictionary
1001
ACAD
1000
TREAT_AS_HARD
1070
     0
  0
DICTIONARY
  5
1A
102
{ACAD_REACTORS
330
C
102
}
330
C
100
AcDbDictionary
1001
ACAD
1000
TREAT_AS_HARD
1070
     0
  0
DICTIONARY
  5
17
102
{ACAD_REACTORS
330
C
102
}
330
C
100
AcDbDictionary
  3
STANDARD
350
18
1001
ACAD
1000
TREAT_AS_HARD
1070
     0
  0
DICTIONARY
  5
19
102
{ACAD_REACTORS
330
C
102
}
330
C
100
AcDbDictionary
1001
ACAD
1000
TREAT_AS_HARD
1070
     0
  0
DICTIONARY
  5
60
102
{ACAD_REACTORS
330
C
102
}
330
C
100
AcDbDictionary
1001
ACAD
1000
TREAT_AS_HARD
1070
     0
  0
DICTIONARY
  5
2A
102
{ACAD_REACTORS
330
C
102
}
330
C
100
AcDbDictionary
  3
2DWIREFRAME
350
2F
  3
3D_HIDDEN
350
31
  3
3DWIREFRAME
350
30
  3
BASIC
350
32
  3
BRIGHTEN
350
36
  3
COLORCHANGE
350
3A
  3
CONCEPTUAL
350
34
  3
DIM
350
35
  3
FACEPATTERN
350
39
  3
FLAT
350
2B
  3
FLATWITHEDGES
350
2C
  3
GOURAUD
350
2D
  3
GOURAUDWITHEDGES
350
2E
  3
LINEPATTERN
350
38
  3
REALISTIC
350
33
  3
THICKEN
350
37
1001
ACAD
1000
TREAT_AS_HARD
1070
     0
  0
MLINESTYLE
  5
18
102
{ACAD_REACTORS
330
17
102
}
330
17
100
AcDbMlineStyle
  2
Standard
 70
     0
  3

 62
   256
 51
90.0
 52
90.0
 71
     2
 49
0.5
 62
   256
  6
BYLAYER
 49
-0.5
 62
   256
  6
BYLAYER
  0
VISUALSTYLE
  5
2F
102
{ACAD_REACTORS
330
2A
102
}
330
2A
100
AcDbVisualStyle
  2
2dWireframe
 70
     4
 71
     0
 72
     2
 73
     0
 90
        0
 40
-0.6
 41
-30.0
 62
     5
 63
     7
 74
     1
 91
        4
 64
     7
 65
   257
 75
     1
175
     1
 42
1.0
 92
        0
 66
   257
 43
1.0
 76
     1
 77
     6
 78
     2
 67
     7
 79
     5
170
     0
171
     0
290
     0
174
     0
 93
        1
 44
0.0
173
     0
291
     0
 45
0.0
1001
ACAD
1000
AcDbSavedByObjectVersion
1070
     0
  0
VISUALSTYLE
  5
31
102
{ACAD_REACTORS
330
2A
102
}
330
2A
100
AcDbVisualStyle
  2
3D Hidden
 70
     6
 71
     1
 72
     2
 73
     2
 90
        0
 40
-0.6
 41
-30.0
 62
     5
 63
     7
 74
     2
 91
        2
 64
     7
 65
   257
 75
     2
175
     1
 42
40.0
 92
        0
 66
   257
 43
1.0
 76
     1
 77
     6
 78
     2
 67
     7
 79
     3
170
     0
171
     0
290
     0
174
     0
 93
        1
 44
0.0
173
     0
291
     0
 45
0.0
1001
ACAD
1000
AcDbSavedByObjectVersion
1070
     0
  0
VISUALSTYLE
  5
30
102
{ACAD_REACTORS
330
2A
102
}
330
2A
100
AcDbVisualStyle
  2
3dWireframe
 70
     5
 71
     0
 72
     2
 73
     0
 90
        0
 40
-0.6
 41
-30.0
 62
     5
 63
     7
 74
     1
 91
        4
 64
     7
 65
   257
 75
     1
175
     1
 42
1.0
 92
        0
 66
   257
 43
1.0
 76
     1
 77
     6
 78
     2
 67
     7
 79
     5
170
     0
171
     0
290
     0
174
     0
 93
        1
 44
0.0
173
     0
291
     0
 45
0.0
1001
ACAD
1000
AcDbSavedByObjectVersion
1070
     0
  0
VISUALSTYLE
  5
32
102
{ACAD_REACTORS
330
2A
102
}
330
2A
100
AcDbVisualStyle
  2
Basic
 70
     7
 71
     1
 72
     0
 73
     1
 90
        0
 40
-0.6
 41
-30.0
 62
     5
 63
     7
 74
     0
 91
        4
 64
     7
 65
   257
 75
     1
175
     1
 42
1.0
 92
        8
 66
     7
 43
1.0
 76
     1
 77
     6
 78
     2
 67
     7
 79
     5
170
     0
171
     0
290
     0
174
     0
 93
        1
 44
0.0
173
     0
291
     1
 45
0.0
1001
ACAD
1000
AcDbSavedByObjectVersion
1070
     0
  0
VISUALSTYLE
  5
36
102
{ACAD_REACTORS
330
2A
102
}
330
2A
100
AcDbVisualStyle
  2
Brighten
 70
    12
 71
     2
 72
     2
 73
     0
 90
        0
 40
-0.6
 41
-30.0
 62
     5
 63
     7
 74
     1
 91
        4
 64
     7
 65
   257
 75
     1
175
     1
 42
1.0
 92
        8
 66
     7
 43
1.0
 76
     1
 77
     6
 78
     2
 67
     7
 79
     5
170
     0
171
     0
290
     0
174
     0
 93
        1
 44
50.0
173
     0
291
     1
 45
0.0
1001
ACAD
1000
AcDbSavedByObjectVersion
1070
     0
  0
VISUALSTYLE
  5
3A
102
{ACAD_REACTORS
330
2A
102
}
330
2A
100
AcDbVisualStyle
  2
ColorChange
 70
    16
 71
     2
 72
     2
 73
     3
 90
        0
 40
-0.6
 41
-30.0
 62
     5
 63
     8
 74
     1
 91
        4
 64
     7
 65
   257
 75
     1
175
     1
 42
1.0
 92
        8
 66
     8
 43
1.0
 76
     1
 77
     6
 78
     2
 67
     7
 79
     5
170
     0
171
     0
290
     0
174
     0
 93
        1
 44
0.0
173
     0
291
     1
 45
0.0
1001
ACAD
1000
AcDbSavedByObjectVersion
1070
     0
  0
VISUALSTYLE
  5
34
102
{ACAD_REACTORS
330
2A
102
}
330
2A
100
AcDbVisualStyle
  2
Conceptual
 70
     9
 71
     3
 72
     2
 73
     0
 90
        0
 40
-0.6
 41
-30.0
 62
     5
 63
     7
 74
     2
 91
        2
 64
     7
 65
   257
 75
     1
175
     1
 42
40.0
 92
        8
 66
     7
 43
1.0
 76
     1
 77
     6
 78
     2
 67
     7
 79
     3
170
     0
171
     0
290
     0
174
     0
 93
        1
 44
0.0
173
     0
291
     0
 45
0.0
1001
ACAD
1000
AcDbSavedByObjectVersion
1070
     0
  0
VISUALSTYLE
  5
35
102
{ACAD_REACTORS
330
2A
102
}
330
2A
100
AcDbVisualStyle
  2
Dim
 70
    11
 71
     2
 72
     2
 73
     0
 90
        0
 40
-0.6
 41
-30.0
 62
     5
 63
     7
 74
     1
 91
        4
 64
     7
 65
   257
 75
     1
175
     1
 42
1.0
 92
        8
 66
     7
 43
1.0
 76
     1
 77
     6
 78
     2
 67
     7
 79
     5
170
     0
171
     0
290
     0
174
     0
 93
        1
 44
-50.0
173
     0
291
     1
 45
0.0
1001
ACAD
1000
AcDbSavedByObjectVersion
1070
     0
  0
VISUALSTYLE
  5
39
102
{ACAD_REACTORS
330
2A
102
}
330
2A
100
AcDbVisualStyle
  2
Facepattern
 70
    15
 71
     2
 72
     2
 73
     0
 90
        0
 40
-0.6
 41
-30.0
 62
     5
 63
     7
 74
     1
 91
        4
 64
     7
 65
   257
 75
     1
175
     1
 42
1.0
 92
        8
 66
     7
 43
1.0
 76
     1
 77
     6
 78
     2
 67
     7
 79
     5
170
     0
171
     0
290
     0
174
     0
 93
        1
 44
0.0
173
     0
291
     1
 45
0.0
1001
ACAD
1000
AcDbSavedByObjectVersion
1070
     0
  0
VISUALSTYLE
  5
2B
102
{ACAD_REACTORS
330
2A
102
}
330
2A
100
AcDbVisualStyle
  2
Flat
 70
     0
 71
     2
 72
     1
 73
     1
 90
        2
 40
-0.6
 41
30.0
 62
     5
 63
     7
 74
     0
 91
        4
 64
     7
 65
   257
 75
     1
175
     1
 42
1.0
 92
        8
 66
     7
 43
1.0
 76
     1
 77
     6
 78
     2
 67
     7
 79
     5
170
     0
171
     0
290
     0
174
     0
 93
       13
 44
0.0
173
     0
291
     1
 45
0.0
1001
ACAD
1000
AcDbSavedByObjectVersion
1070
     0
  0
VISUALSTYLE
  5
2C
102
{ACAD_REACTORS
330
2A
102
}
330
2A
100
AcDbVisualStyle
  2
FlatWithEdges
 70
     1
 71
     2
 72
     1
 73
     1
 90
        2
 40
-0.6
 41
30.0
 62
     5
 63
     7
 74
     1
 91
        4
 64
     7
 65
   257
 75
     1
175
     1
 42
1.0
 92
        0
 66
   257
 43
1.0
 76
     1
 77
     6
 78
     2
 67
     7
 79
     5
170
     0
171
     0
290
     0
174
     0
 93
       13
 44
0.0
173
     0
291
     1
 45
0.0
1001
ACAD
1000
AcDbSavedByObjectVersion
1070
     0
  0
VISUALSTYLE
  5
2D
102
{ACAD_REACTORS
330
2A
102
}
330
2A
100
AcDbVisualStyle
  2
Gouraud
 70
     2
 71
     2
 72
     2
 73
     1
 90
        2
 40
-0.6
 41
30.0
 62
     5
 63
     7
 74
     0
 91
        4
 64
     7
 65
   257
 75
     1
175
     1
 42
1.0
 92
        0
 66
     7
 43
1.0
 76
     1
 77
     6
 78
     2
 67
     7
 79
     5
170
     0
171
     0
290
     0
174
     0
 93
       13
 44
0.0
173
     0
291
     1
 45
0.0
1001
ACAD
1000
AcDbSavedByObjectVersion
1070
     0
  0
VISUALSTYLE
  5
2E
102
{ACAD_REACTORS
330
2A
102
}
330
2A
100
AcDbVisualStyle
  2
GouraudWithEdges
 70
     3
 71
     2
 72
     2
 73
     1
 90
        2
 40
-0.6
 41
30.0
 62
     5
 63
     7
 74
     1
 91
        4
 64
     7
 65
   257
 75
     1
175
     1
 42
1.0
 92
        0
 66
   257
 43
1.0
 76
     1
 77
     6
 78
     2
 67
     7
 79
     5
170
     0
171
     0
290
     0
174
     0
 93
       13
 44
0.0
173
     0
291
     1
 45
0.0
1001
ACAD
1000
AcDbSavedByObjectVersion
1070
     0
  0
VISUALSTYLE
  5
38
102
{ACAD_REACTORS
330
2A
102
}
330
2A
100
AcDbVisualStyle
  2
Linepattern
 70
    14
 71
     2
 72
     2
 73
     0
 90
        0
 40
-0.6
 41
-30.0
 62
     5
 63
     7
 74
     1
 91
        4
 64
     7
 65
   257
 75
     7
175
     7
 42
1.0
 92
        8
 66
     7
 43
1.0
 76
     1
 77
     6
 78
     2
 67
     7
 79
     5
170
     0
171
     0
290
     0
174
     0
 93
        1
 44
0.0
173
     0
291
     1
 45
0.0
1001
ACAD
1000
AcDbSavedByObjectVersion
1070
     0
  0
VISUALSTYLE
  5
33
102
{ACAD_REACTORS
330
2A
102
}
330
2A
100
AcDbVisualStyle
  2
Realistic
 70
     8
 71
     2
 72
     2
 73
     0
 90
        0
 40
-0.6
 41
-30.0
 62
     5
 63
     7
 74
     1
 91
        0
 64
     7
 65
   257
 75
     1
175
     1
 42
1.0
 92
        8
 66
     8
 43
1.0
 76
     1
 77
     6
 78
     2
 67
     7
 79
     5
170
     0
171
     0
290
     0
174
     0
 93
       13
 44
0.0
173
     0
291
     0
 45
0.0
1001
ACAD
1000
AcDbSavedByObjectVersion
1070
     0
  0
VISUALSTYLE
  5
37
102
{ACAD_REACTORS
330
2A
102
}
330
2A
100
AcDbVisualStyle
  2
Thicken
 70
    13
 71
     2
 72
     2
 73
     0
 90
        0
 40
-0.6
 41
-30.0
 62
     5
 63
     7
 74
     1
 91
        4
 64
     7
 65
   257
 75
     1
175
     1
 42
1.0
 92
       12
 66
     7
 43
1.0
 76
     1
 77
     6
 78
     2
 67
     7
 79
     5
170
     0
171
     0
290
     0
174
     0
 93
        1
 44
0.0
173
     0
291
     1
 45
0.0
1001
ACAD
1000
AcDbSavedByObjectVersion
1070
     0
  0
ENDSEC
  0
EOF
