  0
SECTION
  2
HEADER
  9
$ACADVER
  1
AC1012
  9
$DWGCODEPAGE
  3
ansi_1252
  9
$INSBASE
 10
0.0
 20
0.0
 30
0.0
  9
$EXTMIN
 10
1.000000000000000E+20
 20
1.000000000000000E+20
 30
1.000000000000000E+20
  9
$EXTMAX
 10
-1.000000000000000E+20
 20
-1.000000000000000E+20
 30
-1.000000000000000E+20
  9
$LIMMIN
 10
0.0
 20
0.0
  9
$LIMMAX
 10
12.0
 20
9.0
  9
$ORTHOMODE
 70
     0
  9
$REGENMODE
 70
     1
  9
$FILLMODE
 70
     1
  9
$QTEXTMODE
 70
     0
  9
$MIRRTEXT
 70
     1
  9
$DRAGMODE
 70
     2
  9
$LTSCALE
 40
1.0
  9
$OSMODE
 70
    37
  9
$ATTMODE
 70
     1
  9
$TEXTSIZE
 40
0.2
  9
$TRACEWID
 40
0.05
  9
$TEXTSTYLE
  7
STANDARD
  9
$CLAYER
  8
0
  9
$CELTYPE
  6
BYLAYER
  9
$CECOLOR
 62
   256
  9
$CELTSCALE
 40
1.0
  9
$DELOBJ
 70
     1
  9
$DISPSILH
 70
     0
  9
$DIMSCALE
 40
1.0
  9
$DIMASZ
 40
0.18
  9
$DIMEXO
 40
0.0625
  9
$DIMDLI
 40
0.38
  9
$DIMRND
 40
0.0
  9
$DIMDLE
 40
0.0
  9
$DIMEXE
 40
0.18
  9
$DIMTP
 40
0.0
  9
$DIMTM
 40
0.0
  9
$DIMTXT
 40
0.18
  9
$DIMCEN
 40
0.09
  9
$DIMTSZ
 40
0.0
  9
$DIMTOL
 70
     0
  9
$DIMLIM
 70
     0
  9
$DIMTIH
 70
     1
  9
$DIMTOH
 70
     1
  9
$DIMSE1
 70
     0
  9
$DIMSE2
 70
     0
  9
$DIMTAD
 70
     0
  9
$DIMZIN
 70
     0
  9
$DIMBLK
  1

  9
$DIMASO
 70
     1
  9
$DIMSHO
 70
     1
  9
$DIMPOST
  1

  9
$DIMAPOST
  1

  9
$DIMALT
 70
     0
  9
$DIMALTD
 70
     2
  9
$DIMALTF
 40
25.4
  9
$DIMLFAC
 40
1.0
  9
$DIMTOFL
 70
     0
  9
$DIMTVP
 40
0.0
  9
$DIMTIX
 70
     0
  9
$DIMSOXD
 70
     0
  9
$DIMSAH
 70
     0
  9
$DIMBLK1
  1

  9
$DIMBLK2
  1

  9
$DIMSTYLE
  2
STANDARD
  9
$DIMCLRD
 70
     0
  9
$DIMCLRE
 70
     0
  9
$DIMCLRT
 70
     0
  9
$DIMTFAC
 40
1.0
  9
$DIMGAP
 40
0.09
  9
$DIMJUST
 70
     0
  9
$DIMSD1
 70
     0
  9
$DIMSD2
 70
     0
  9
$DIMTOLJ
 70
     1
  9
$DIMTZIN
 70
     0
  9
$DIMALTZ
 70
     0
  9
$DIMALTTZ
 70
     0
  9
$DIMFIT
 70
     3
  9
$DIMUPT
 70
     0
  9
$DIMUNIT
 70
     2
  9
$DIMDEC
 70
     4
  9
$DIMTDEC
 70
     4
  9
$DIMALTU
 70
     2
  9
$DIMALTTD
 70
     2
  9
$DIMTXSTY
  7
STANDARD
  9
$DIMAUNIT
 70
     0
  9
$LUNITS
 70
     2
  9
$LUPREC
 70
     4
  9
$SKETCHINC
 40
0.1
  9
$FILLETRAD
 40
0.5
  9
$AUNITS
 70
     0
  9
$AUPREC
 70
     0
  9
$MENU
  1
.
  9
$ELEVATION
 40
0.0
  9
$PELEVATION
 40
0.0
  9
$THICKNESS
 40
0.0
  9
$LIMCHECK
 70
     0
  9
$CHAMFERA
 40
0.5
  9
$CHAMFERB
 40
0.5
  9
$CHAMFERC
 40
1.0
  9
$CHAMFERD
 40
0.0
  9
$SKPOLY
 70
     0
  9
$TDCREATE
 40
2456563.590851759
  9
$TDUPDATE
 40
2456563.590851771
  9
$TDINDWG
 40
0.0000000116
  9
$TDUSRTIMER
 40
0.0000000116
  9
$USRTIMER
 70
     1
  9
$ANGBASE
 50
0.0
  9
$ANGDIR
 70
     0
  9
$PDMODE
 70
     0
  9
$PDSIZE
 40
0.0
  9
$PLINEWID
 40
0.0
  9
$COORDS
 70
     1
  9
$SPLFRAME
 70
     0
  9
$SPLINETYPE
 70
     6
  9
$SPLINESEGS
 70
     8
  9
$ATTDIA
 70
     0
  9
$ATTREQ
 70
     1
  9
$HANDLING
 70
     1
  9
$HANDSEED
  5
47
  9
$SURFTAB1
 70
     6
  9
$SURFTAB2
 70
     6
  9
$SURFTYPE
 70
     6
  9
$SURFU
 70
     6
  9
$SURFV
 70
     6
  9
$UCSNAME
  2

  9
$UCSORG
 10
0.0
 20
0.0
 30
0.0
  9
$UCSXDIR
 10
1.0
 20
0.0
 30
0.0
  9
$UCSYDIR
 10
0.0
 20
1.0
 30
0.0
  9
$PUCSNAME
  2

  9
$PUCSORG
 10
0.0
 20
0.0
 30
0.0
  9
$PUCSXDIR
 10
1.0
 20
0.0
 30
0.0
  9
$PUCSYDIR
 10
0.0
 20
1.0
 30
0.0
  9
$USERI1
 70
     0
  9
$USERI2
 70
     0
  9
$USERI3
 70
     0
  9
$USERI4
 70
     0
  9
$USERI5
 70
     0
  9
$USERR1
 40
0.0
  9
$USERR2
 40
0.0
  9
$USERR3
 40
0.0
  9
$USERR4
 40
0.0
  9
$USERR5
 40
0.0
  9
$WORLDVIEW
 70
     1
  9
$SHADEDGE
 70
     3
  9
$SHADEDIF
 70
    70
  9
$TILEMODE
 70
     1
  9
$MAXACTVP
 70
    64
  9
$PINSBASE
 10
0.0
 20
0.0
 30
0.0
  9
$PLIMCHECK
 70
     0
  9
$PEXTMIN
 10
1.000000000000000E+20
 20
1.000000000000000E+20
 30
1.000000000000000E+20
  9
$PEXTMAX
 10
-1.000000000000000E+20
 20
-1.000000000000000E+20
 30
-1.000000000000000E+20
  9
$PLIMMIN
 10
0.0
 20
0.0
  9
$PLIMMAX
 10
12.0
 20
9.0
  9
$UNITMODE
 70
     0
  9
$VISRETAIN
 70
     1
  9
$PLINEGEN
 70
     0
  9
$PSLTSCALE
 70
     1
  9
$TREEDEPTH
 70
  3020
  9
$PICKSTYLE
 70
     1
  9
$CMLSTYLE
  2
STANDARD
  9
$CMLJUST
 70
     0
  9
$CMLSCALE
 40
1.0
  9
$SAVEIMAGES
 70
     1
  0
ENDSEC
  0
SECTION
  2
CLASSES
  0
CLASS
  1
ACDBDICTIONARYWDFLT
  2
AcDbDictionaryWithDefault
  3
ObjectDBX Classes
 90
    32768
280
     0
281
     0
  0
CLASS
  1
VISUALSTYLE
  2
AcDbVisualStyle
  3
ObjectDBX Classes
 90
     4095
280
     0
281
     0
  0
CLASS
  1
XRECORD
  2
AcDbXrecord
  3
AutoCAD 2000
 90
    32768
280
     0
281
     0
  0
CLASS
  1
LWPOLYLINE
  2
AcDbPolyline
  3
AutoCAD 2000
 90
    32768
280
     0
281
     1
  0
CLASS
  1
HATCH
  2
AcDbHatch
  3
AutoCAD 2000
 90
    32768
280
     0
281
     1
  0
CLASS
  1
ACDBPLACEHOLDER
  2
AcDbPlaceHolder
  3
ObjectDBX Classes
 90
        0
280
     0
281
     0
  0
CLASS
  1
LAYOUT
  2
AcDbLayout
  3
ObjectDBX Classes
 90
        0
280
     0
281
     0
  0
ENDSEC
  0
SECTION
  2
TABLES
  0
TABLE
  2
VPORT
  5
8
330
0
100
AcDbSymbolTable
 70
     1
  0
VPORT
  5
29
330
8
100
AcDbSymbolTableRecord
100
AcDbViewportTableRecord
  2
*ACTIVE
 70
     0
 10
0.0
 20
0.0
 11
1.0
 21
1.0
 12
0.0
 22
0.0
 13
0.0
 23
0.0
 14
0.5
 24
0.5
 15
0.5
 25
0.5
 16
0.0
 26
0.0
 36
1.0
 17
105.0008259828644
 27
-148.4999796178229
 37
0.0
 40
296.9999592356459
 41
0.7070763662937379
 42
50.0
 43
0.0
 44
0.0
 50
0.0
 51
0.0
 71
     0
 72
   100
 73
     1
 74
     3
 75
     0
 76
     0
 77
     0
 78
     0
  0
ENDTAB
  0
TABLE
  2
LTYPE
  5
5
330
0
100
AcDbSymbolTable
 70
     1
  0
LTYPE
  5
14
330
5
100
AcDbSymbolTableRecord
100
AcDbLinetypeTableRecord
  2
BYBLOCK
 70
     0
  3

 72
    65
 73
     0
 40
0.0
  0
LTYPE
  5
15
330
5
100
AcDbSymbolTableRecord
100
AcDbLinetypeTableRecord
  2
BYLAYER
 70
     0
  3

 72
    65
 73
     0
 40
0.0
  0
LTYPE
  5
16
330
5
100
AcDbSymbolTableRecord
100
AcDbLinetypeTableRecord
  2
CONTINUOUS
 70
     0
  3
Solid line
 72
    65
 73
     0
 40
0.0
  0
ENDTAB
  0
TABLE
  2
LAYER
  5
2
330
0
100
AcDbSymbolTable
 70
     2
  0
LAYER
  5
10
330
2
100
AcDbSymbolTableRecord
100
AcDbLayerTableRecord
  2
0
 70
     0
 62
     7
  6
CONTINUOUS
  0
LAYER
  5
3B
330
2
100
AcDbSymbolTableRecord
100
AcDbLayerTableRecord
  2
LAYER_1
 70
     0
 62
     7
  6
CONTINUOUS
  0
ENDTAB
  0
TABLE
  2
STYLE
  5
3
330
0
100
AcDbSymbolTable
 70
     1
  0
STYLE
  5
11
330
3
100
AcDbSymbolTableRecord
100
AcDbTextStyleTableRecord
  2
STANDARD
 70
     0
 40
0.0
 41
1.0
 50
0.0
 71
     0
 42
0.2
  3
txt
  4

  0
ENDTAB
  0
TABLE
  2
VIEW
  5
6
330
0
100
AcDbSymbolTable
 70
     0
  0
ENDTAB
  0
TABLE
  2
UCS
  5
7
330
0
100
AcDbSymbolTable
 70
     0
  0
ENDTAB
  0
TABLE
  2
APPID
  5
9
330
0
100
AcDbSymbolTable
 70
     1
  0
APPID
  5
12
330
9
100
AcDbSymbolTableRecord
100
AcDbRegAppTableRecord
  2
ACAD
 70
     0
  0
ENDTAB
  0
TABLE
  2
DIMSTYLE
  5
A
330
0
100
AcDbSymbolTable
 70
     1
  0
DIMSTYLE
105
27
330
A
100
AcDbSymbolTableRecord
100
AcDbDimStyleTableRecord
  2
STANDARD
 70
     0
  3

  4

  5

  6

  7

 40
1.0
 41
0.18
 42
0.0625
 43
0.38
 44
0.18
 45
0.0
 46
0.0
 47
0.0
 48
0.0
140
0.18
141
0.09
142
0.0
143
25.4
144
1.0
145
0.0
146
1.0
147
0.09
 71
     0
 72
     0
 73
     1
 74
     1
 75
     0
 76
     0
 77
     0
 78
     0
170
     0
171
     2
172
     0
173
     0
174
     0
175
     0
176
     0
177
     0
178
     0
270
     2
271
     4
272
     4
273
     2
274
     2
340
11
275
     0
280
     0
281
     0
282
     0
283
     1
284
     0
285
     0
286
     0
287
     3
288
     0
  0
ENDTAB
  0
TABLE
  2
BLOCK_RECORD
  5
1
330
0
100
AcDbSymbolTable
 70
     1
  0
BLOCK_RECORD
  5
1F
330
1
100
AcDbSymbolTableRecord
100
AcDbBlockTableRecord
  2
*MODEL_SPACE
  0
BLOCK_RECORD
  5
1B
330
1
100
AcDbSymbolTableRecord
100
AcDbBlockTableRecord
  2
*PAPER_SPACE
  0
ENDTAB
  0
ENDSEC
  0
SECTION
  2
BLOCKS
  0
BLOCK
  5
20
330
1F
100
AcDbEntity
  8
0
100
AcDbBlockBegin
  2
*MODEL_SPACE
 70
     0
 71
     0
 10
0.0
 20
0.0
 30
0.0
  3
*MODEL_SPACE
  1

  0
ENDBLK
  5
21
330
1F
100
AcDbEntity
  8
0
100
AcDbBlockEnd
  0
BLOCK
  5
1C
330
1B
100
AcDbEntity
 67
     1
  8
0
100
AcDbBlockBegin
  2
*PAPER_SPACE
 70
     0
 71
     0
 10
0.0
 20
0.0
 30
0.0
  3
*PAPER_SPACE
  1

  0
ENDBLK
  5
1D
330
1B
100
AcDbEntity
 67
     1
  8
0
100
AcDbBlockEnd
  0
ENDSEC
  0
SECTION
  2
ENTITIES
  0
SPLINE
  5
3C
330
1F
100
AcDbEntity
  8
LAYER_1
 62
     7
100
AcDbSpline
210
0.0
220
0.0
230
1.0
 70
    11
 71
     3
 72
    89
 73
    85
 74
     0
 42
0.0000000001
 43
0.0000000001
 40
0.0
 40
0.0
 40
0.0
 40
0.0
 40
1.0
 40
1.0
 40
1.0
 40
2.0
 40
2.0
 40
2.0
 40
3.0
 40
3.0
 40
3.0
 40
4.0
 40
4.0
 40
4.0
 40
5.0
 40
5.0
 40
5.0
 40
6.0
 40
6.0
 40
6.0
 40
7.0
 40
7.0
 40
7.0
 40
8.0
 40
8.0
 40
8.0
 40
9.0
 40
9.0
 40
9.0
 40
10.0
 40
10.0
 40
10.0
 40
11.0
 40
11.0
 40
11.0
 40
12.0
 40
12.0
 40
12.0
 40
13.0
 40
13.0
 40
13.0
 40
14.0
 40
14.0
 40
14.0
 40
15.0
 40
15.0
 40
15.0
 40
16.0
 40
16.0
 40
16.0
 40
17.0
 40
17.0
 40
17.0
 40
18.0
 40
18.0
 40
18.0
 40
19.0
 40
19.0
 40
19.0
 40
20.0
 40
20.0
 40
20.0
 40
21.0
 40
21.0
 40
21.0
 40
22.0
 40
22.0
 40
22.0
 40
23.0
 40
23.0
 40
23.0
 40
24.0
 40
24.0
 40
24.0
 40
25.0
 40
25.0
 40
25.0
 40
26.0
 40
26.0
 40
26.0
 40
27.0
 40
27.0
 40
27.0
 40
28.0
 40
28.0
 40
28.0
 40
28.0
 10
27.18817680526893
 20
34.99993081807293
 30
0.0
 10
26.08815781682866
 20
34.99993081807293
 30
0.0
 10
25.18812662130714
 20
34.09989962255142
 30
0.0
 10
25.18812662130714
 20
32.99988063411114
 30
0.0
 10
25.18812662130714
 20
32.99988063411114
 30
0.0
 10
25.18812662130714
 20
26.99990233700003
 30
0.0
 10
25.18812662130714
 20
26.99990233700003
 30
0.0
 10
25.18812662130714
 20
25.89988334855975
 30
0.0
 10
26.08815781682866
 20
24.99985215303823
 30
0.0
 10
27.18817680526893
 20
24.99985215303823
 30
0.0
 10
27.18817680526893
 20
24.99985215303823
 30
0.0
 10
43.18788925786622
 20
24.99985215303823
 30
0.0
 10
43.18788925786622
 20
24.99985215303823
 30
0.0
 10
44.2879082463065
 20
24.99985215303823
 30
0.0
 10
45.18793944182801
 20
24.09982095751671
 30
0.0
 10
45.18793944182801
 20
22.99980196907644
 30
0.0
 10
45.18793944182801
 20
22.99980196907644
 30
0.0
 10
45.18793944182801
 20
17.49987928164933
 30
0.0
 10
45.18793944182801
 20
17.49987928164933
 30
0.0
 10
45.18793944182801
 20
16.39986029320906
 30
0.0
 10
46.08797063734954
 20
15.49982909768754
 30
0.0
 10
47.18798962578981
 20
15.49982909768754
 30
0.0
 10
47.18798962578981
 20
15.49982909768754
 30
0.0
 10
63.18804658793563
 20
15.49982909768754
 30
0.0
 10
63.18804658793563
 20
15.49982909768754
 30
0.0
 10
64.2880655763759
 20
15.49982909768754
 30
0.0
 10
65.18809677189742
 20
16.39986029320906
 30
0.0
 10
65.18809677189742
 20
17.49987928164933
 30
0.0
 10
65.18809677189742
 20
17.49987928164933
 30
0.0
 10
65.18809677189742
 20
22.9999742238507
 30
0.0
 10
65.18809677189742
 20
22.9999742238507
 30
0.0
 10
65.18809677189742
 20
24.09999321229098
 30
0.0
 10
65.18809677189742
 20
25.90005560333401
 30
0.0
 10
65.18809677189742
 20
27.00007459177429
 30
0.0
 10
65.18809677189742
 20
27.00007459177429
 30
0.0
 10
65.18809677189742
 20
33.00005288888541
 30
0.0
 10
65.18809677189742
 20
33.00005288888541
 30
0.0
 10
65.18809677189742
 20
34.10007187732568
 30
0.0
 10
65.18809677189742
 20
35.90013426836872
 30
0.0
 10
65.18809677189742
 20
37.00015325680899
 30
0.0
 10
65.18809677189742
 20
37.00015325680899
 30
0.0
 10
65.18809677189742
 20
53.49974906431603
 30
0.0
 10
65.18809677189742
 20
53.49974906431603
 30
0.0
 10
65.18809677189742
 20
54.59976805275631
 30
0.0
 10
65.18809677189742
 20
56.39983044379935
 30
0.0
 10
65.18809677189742
 20
57.49984943223962
 30
0.0
 10
65.18809677189742
 20
57.49984943223962
 30
0.0
 10
65.18809677189742
 20
73.49990639438545
 30
0.0
 10
65.18809677189742
 20
73.49990639438545
 30
0.0
 10
65.18809677189742
 20
74.59992538282572
 30
0.0
 10
64.2880655763759
 20
75.49995657834724
 30
0.0
 10
63.18804658793563
 20
75.49995657834724
 30
0.0
 10
63.18804658793563
 20
75.49995657834724
 30
0.0
 10
47.18798962578981
 20
75.49995657834724
 30
0.0
 10
47.18798962578981
 20
75.49995657834724
 30
0.0
 10
46.08797063734954
 20
75.49995657834724
 30
0.0
 10
44.2879082463065
 20
75.49995657834724
 30
0.0
 10
43.18788925786622
 20
75.49995657834724
 30
0.0
 10
43.18788925786622
 20
75.49995657834724
 30
0.0
 10
27.18800455049467
 20
75.49995657834724
 30
0.0
 10
27.18800455049467
 20
75.49995657834724
 30
0.0
 10
26.08798556205439
 20
75.49995657834724
 30
0.0
 10
25.18795436653287
 20
74.59992538282572
 30
0.0
 10
25.18795436653287
 20
73.49990639438545
 30
0.0
 10
25.18795436653287
 20
73.49990639438545
 30
0.0
 10
25.18795436653287
 20
57.49984943223962
 30
0.0
 10
25.18795436653287
 20
57.49984943223962
 30
0.0
 10
25.18795436653287
 20
56.39983044379935
 30
0.0
 10
26.08798556205439
 20
55.49979924827783
 30
0.0
 10
27.18800455049467
 20
55.49979924827783
 30
0.0
 10
27.18800455049467
 20
55.49979924827783
 30
0.0
 10
43.18788925786622
 20
55.49979924827783
 30
0.0
 10
43.18788925786622
 20
55.49979924827783
 30
0.0
 10
44.2879082463065
 20
55.49979924827783
 30
0.0
 10
45.18793944182801
 20
54.59976805275631
 30
0.0
 10
45.18793944182801
 20
53.49974906431603
 30
0.0
 10
45.18793944182801
 20
53.49974906431603
 30
0.0
 10
45.18793944182801
 20
36.99998100203473
 30
0.0
 10
45.18793944182801
 20
36.99998100203473
 30
0.0
 10
45.18793944182801
 20
35.89996201359445
 30
0.0
 10
44.2879082463065
 20
34.99993081807293
 30
0.0
 10
43.18788925786622
 20
34.99993081807293
 30
0.0
 10
43.18788925786622
 20
34.99993081807293
 30
0.0
 10
27.18817680526893
 20
34.99993081807293
 30
0.0
 10
27.18817680526893
 20
34.99993081807293
 30
0.0
  0
SPLINE
  5
3D
330
1F
100
AcDbEntity
  8
LAYER_1
 62
   250
100
AcDbSpline
210
0.0
220
0.0
230
1.0
 70
    11
 71
     3
 72
    17
 73
    13
 74
     0
 42
0.0000000001
 43
0.0000000001
 40
0.0
 40
0.0
 40
0.0
 40
0.0
 40
1.0
 40
1.0
 40
1.0
 40
2.0
 40
2.0
 40
2.0
 40
3.0
 40
3.0
 40
3.0
 40
4.0
 40
4.0
 40
4.0
 40
4.0
 10
52.68791231321691
 20
25.49973550794799
 30
0.0
 10
52.68791231321691
 20
26.88052977843612
 30
0.0
 10
53.80722383637458
 20
27.99984130159379
 30
0.0
 10
55.18801810686272
 20
27.99984130159379
 30
0.0
 10
56.56846786780233
 20
27.99984130159379
 30
0.0
 10
57.68777939096
 20
26.88052977843612
 30
0.0
 10
57.68777939096
 20
25.49973550794799
 30
0.0
 10
57.68777939096
 20
24.11928574700837
 30
0.0
 10
56.56846786780233
 20
22.9999742238507
 30
0.0
 10
55.18801810686272
 20
22.9999742238507
 30
0.0
 10
53.80722383637458
 20
22.9999742238507
 30
0.0
 10
52.68791231321691
 20
24.11928574700837
 30
0.0
 10
52.68791231321691
 20
25.49973550794799
 30
0.0
  0
SPLINE
  5
3E
330
1F
100
AcDbEntity
  8
LAYER_1
 62
   250
100
AcDbSpline
210
0.0
220
0.0
230
1.0
 70
    11
 71
     3
 72
    17
 73
    13
 74
     0
 42
0.0000000001
 43
0.0000000001
 40
0.0
 40
0.0
 40
0.0
 40
0.0
 40
1.0
 40
1.0
 40
1.0
 40
2.0
 40
2.0
 40
2.0
 40
3.0
 40
3.0
 40
3.0
 40
4.0
 40
4.0
 40
4.0
 40
4.0
 10
52.68791231321691
 20
65.49987791331253
 30
0.0
 10
52.68791231321691
 20
66.88067218380067
 30
0.0
 10
53.80722383637458
 20
67.99998370695835
 30
0.0
 10
55.18801810686272
 20
67.99998370695835
 30
0.0
 10
56.56864012257659
 20
67.99998370695835
 30
0.0
 10
57.68795164573427
 20
66.88067218380067
 30
0.0
 10
57.68795164573427
 20
65.49987791331253
 30
0.0
 10
57.68795164573427
 20
64.11908364282439
 30
0.0
 10
56.56864012257659
 20
62.99977211966673
 30
0.0
 10
55.18801810686272
 20
62.99977211966673
 30
0.0
 10
53.80722383637458
 20
62.99977211966673
 30
0.0
 10
52.68791231321691
 20
64.11908364282439
 30
0.0
 10
52.68791231321691
 20
65.49987791331253
 30
0.0
  0
SPLINE
  5
3F
330
1F
100
AcDbEntity
  8
LAYER_1
 62
   250
100
AcDbSpline
210
0.0
220
0.0
230
1.0
 70
    11
 71
     3
 72
    17
 73
    13
 74
     0
 42
0.0000000001
 43
0.0000000001
 40
0.0
 40
0.0
 40
0.0
 40
0.0
 40
1.0
 40
1.0
 40
1.0
 40
2.0
 40
2.0
 40
2.0
 40
3.0
 40
3.0
 40
3.0
 40
4.0
 40
4.0
 40
4.0
 40
4.0
 10
32.68792723792177
 20
65.49987791331253
 30
0.0
 10
32.68792723792177
 20
66.88067218380067
 30
0.0
 10
33.80723876107944
 20
67.99998370695835
 30
0.0
 10
35.18803303156758
 20
67.99998370695835
 30
0.0
 10
36.56865504728145
 20
67.99998370695835
 30
0.0
 10
37.68796657043912
 20
66.88067218380067
 30
0.0
 10
37.68796657043912
 20
65.49987791331253
 30
0.0
 10
37.68796657043912
 20
64.11942815237292
 30
0.0
 10
36.56865504728145
 20
63.00011662921525
 30
0.0
 10
35.18803303156758
 20
63.00011662921525
 30
0.0
 10
33.80723876107944
 20
63.00011662921525
 30
0.0
 10
32.68792723792177
 20
64.11942815237292
 30
0.0
 10
32.68792723792177
 20
65.49987791331253
 30
0.0
  0
SPLINE
  5
40
330
1F
100
AcDbEntity
  8
LAYER_1
 62
   250
100
AcDbSpline
210
0.0
220
0.0
230
1.0
 70
    11
 71
     3
 72
    17
 73
    13
 74
     0
 42
0.0000000001
 43
0.0000000001
 40
0.0
 40
0.0
 40
0.0
 40
0.0
 40
1.0
 40
1.0
 40
1.0
 40
2.0
 40
2.0
 40
2.0
 40
3.0
 40
3.0
 40
3.0
 40
4.0
 40
4.0
 40
4.0
 40
4.0
 10
32.68809949269603
 20
29.99971923078132
 30
0.0
 10
32.68809949269603
 20
31.38051350126945
 30
0.0
 10
33.8074110158537
 20
32.49982502442713
 30
0.0
 10
35.18820528634184
 20
32.49982502442713
 30
0.0
 10
36.56865504728145
 20
32.49982502442713
 30
0.0
 10
37.68796657043912
 20
31.38051350126945
 30
0.0
 10
37.68796657043912
 20
29.99971923078132
 30
0.0
 10
37.68796657043912
 20
28.61909721506745
 30
0.0
 10
36.56865504728145
 20
27.49978569190978
 30
0.0
 10
35.18820528634184
 20
27.49978569190978
 30
0.0
 10
33.8074110158537
 20
27.49978569190978
 30
0.0
 10
32.68809949269603
 20
28.61909721506745
 30
0.0
 10
32.68809949269603
 20
29.99971923078132
 30
0.0
  0
SPLINE
  5
41
330
1F
100
AcDbEntity
  8
LAYER_1
 62
     7
100
AcDbSpline
210
0.0
220
0.0
230
1.0
 70
    11
 71
     3
 72
    89
 73
    85
 74
     0
 42
0.0000000001
 43
0.0000000001
 40
0.0
 40
0.0
 40
0.0
 40
0.0
 40
1.0
 40
1.0
 40
1.0
 40
2.0
 40
2.0
 40
2.0
 40
3.0
 40
3.0
 40
3.0
 40
4.0
 40
4.0
 40
4.0
 40
5.0
 40
5.0
 40
5.0
 40
6.0
 40
6.0
 40
6.0
 40
7.0
 40
7.0
 40
7.0
 40
8.0
 40
8.0
 40
8.0
 40
9.0
 40
9.0
 40
9.0
 40
10.0
 40
10.0
 40
10.0
 40
11.0
 40
11.0
 40
11.0
 40
12.0
 40
12.0
 40
12.0
 40
13.0
 40
13.0
 40
13.0
 40
14.0
 40
14.0
 40
14.0
 40
15.0
 40
15.0
 40
15.0
 40
16.0
 40
16.0
 40
16.0
 40
17.0
 40
17.0
 40
17.0
 40
18.0
 40
18.0
 40
18.0
 40
19.0
 40
19.0
 40
19.0
 40
20.0
 40
20.0
 40
20.0
 40
21.0
 40
21.0
 40
21.0
 40
22.0
 40
22.0
 40
22.0
 40
23.0
 40
23.0
 40
23.0
 40
24.0
 40
24.0
 40
24.0
 40
25.0
 40
25.0
 40
25.0
 40
26.0
 40
26.0
 40
26.0
 40
27.0
 40
27.0
 40
27.0
 40
28.0
 40
28.0
 40
28.0
 40
28.0
 10
37.9999199666285
 20
40.5000257602743
 30
0.0
 10
39.09993895506877
 20
40.5000257602743
 30
0.0
 10
39.99997015059029
 20
41.40005695579582
 30
0.0
 10
39.99997015059029
 20
42.50007594423609
 30
0.0
 10
39.99997015059029
 20
42.50007594423609
 30
0.0
 10
39.99997015059029
 20
48.50005424134721
 30
0.0
 10
39.99997015059029
 20
48.50005424134721
 30
0.0
 10
39.99997015059029
 20
49.60007322978748
 30
0.0
 10
39.09993895506877
 20
50.500104425309
 30
0.0
 10
37.9999199666285
 20
50.500104425309
 30
0.0
 10
37.9999199666285
 20
50.500104425309
 30
0.0
 10
22.0002075140312
 20
50.500104425309
 30
0.0
 10
22.0002075140312
 20
50.500104425309
 30
0.0
 10
20.90018852559093
 20
50.500104425309
 30
0.0
 10
20.00015733006941
 20
51.40013562083053
 30
0.0
 10
20.00015733006941
 20
52.50015460927079
 30
0.0
 10
20.00015733006941
 20
52.50015460927079
 30
0.0
 10
20.00015733006941
 20
58.0000772966979
 30
0.0
 10
20.00015733006941
 20
58.0000772966979
 30
0.0
 10
20.00015733006941
 20
59.10009628513817
 30
0.0
 10
19.10012613454789
 20
60.00012748065969
 30
0.0
 10
18.00010714610761
 20
60.00012748065969
 30
0.0
 10
18.00010714610761
 20
60.00012748065969
 30
0.0
 10
2.000050183961793
 20
60.00012748065969
 30
0.0
 10
2.000050183961793
 20
60.00012748065969
 30
0.0
 10
0.90003119552152
 20
60.00012748065969
 30
0.0
 10
0.0
 20
59.10009628513817
 30
0.0
 10
0.0
 20
58.0000772966979
 30
0.0
 10
0.0
 20
58.0000772966979
 30
0.0
 10
0.0
 20
52.49998235449654
 30
0.0
 10
0.0
 20
52.49998235449654
 30
0.0
 10
0.0
 20
51.39996336605626
 30
0.0
 10
0.0
 20
49.59990097501322
 30
0.0
 10
0.0
 20
48.49988198657295
 30
0.0
 10
0.0
 20
48.49988198657295
 30
0.0
 10
0.0
 20
42.49990368946183
 30
0.0
 10
0.0
 20
42.49990368946183
 30
0.0
 10
0.0
 20
41.39988470102156
 30
0.0
 10
0.0
 20
39.59982230997852
 30
0.0
 10
0.0
 20
38.49980332153824
 30
0.0
 10
0.0
 20
38.49980332153824
 30
0.0
 10
0.0
 20
22.0002075140312
 30
0.0
 10
0.0
 20
22.0002075140312
 30
0.0
 10
0.0
 20
20.90018852559093
 30
0.0
 10
0.0
 20
19.10012613454789
 30
0.0
 10
0.0
 20
18.00010714610761
 30
0.0
 10
0.0
 20
18.00010714610761
 30
0.0
 10
0.0
 20
2.000050183961793
 30
0.0
 10
0.0
 20
2.000050183961793
 30
0.0
 10
0.0
 20
0.90003119552152
 30
0.0
 10
0.90003119552152
 20
0.0
 30
0.0
 10
2.000050183961793
 20
0.0
 30
0.0
 10
2.000050183961793
 20
0.0
 30
0.0
 10
18.00010714610761
 20
0.0
 30
0.0
 10
18.00010714610761
 20
0.0
 30
0.0
 10
19.10012613454789
 20
0.0
 30
0.0
 10
20.90018852559093
 20
0.0
 30
0.0
 10
22.0002075140312
 20
0.0
 30
0.0
 10
22.0002075140312
 20
0.0
 30
0.0
 10
38.00009222140276
 20
0.0
 30
0.0
 10
38.00009222140276
 20
0.0
 30
0.0
 10
39.10011120984303
 20
0.0
 30
0.0
 10
40.00014240536455
 20
0.90003119552152
 30
0.0
 10
40.00014240536455
 20
2.000050183961793
 30
0.0
 10
40.00014240536455
 20
2.000050183961793
 30
0.0
 10
40.00014240536455
 20
18.00010714610761
 30
0.0
 10
40.00014240536455
 20
18.00010714610761
 30
0.0
 10
40.00014240536455
 20
19.10012613454789
 30
0.0
 10
39.10011120984303
 20
20.00015733006941
 30
0.0
 10
38.00009222140276
 20
20.00015733006941
 30
0.0
 10
38.00009222140276
 20
20.00015733006941
 30
0.0
 10
22.0002075140312
 20
20.00015733006941
 30
0.0
 10
22.0002075140312
 20
20.00015733006941
 30
0.0
 10
20.90018852559093
 20
20.00015733006941
 30
0.0
 10
20.00015733006941
 20
20.90018852559093
 30
0.0
 10
20.00015733006941
 20
22.0002075140312
 30
0.0
 10
20.00015733006941
 20
22.0002075140312
 30
0.0
 10
20.00015733006941
 20
38.49997557631251
 30
0.0
 10
20.00015733006941
 20
38.49997557631251
 30
0.0
 10
20.00015733006941
 20
39.59999456475278
 30
0.0
 10
20.90018852559093
 20
40.5000257602743
 30
0.0
 10
22.0002075140312
 20
40.5000257602743
 30
0.0
 10
22.0002075140312
 20
40.5000257602743
 30
0.0
 10
37.9999199666285
 20
40.5000257602743
 30
0.0
 10
37.9999199666285
 20
40.5000257602743
 30
0.0
  0
SPLINE
  5
42
330
1F
100
AcDbEntity
  8
LAYER_1
 62
   250
100
AcDbSpline
210
0.0
220
0.0
230
1.0
 70
    11
 71
     3
 72
    17
 73
    13
 74
     0
 42
0.0000000001
 43
0.0000000001
 40
0.0
 40
0.0
 40
0.0
 40
0.0
 40
1.0
 40
1.0
 40
1.0
 40
2.0
 40
2.0
 40
2.0
 40
3.0
 40
3.0
 40
3.0
 40
4.0
 40
4.0
 40
4.0
 40
4.0
 10
12.50018445868051
 20
50.00022107039926
 30
0.0
 10
12.50018445868051
 20
48.61942679991112
 30
0.0
 10
11.38087293552284
 20
47.50011527675345
 30
0.0
 10
10.0000786650347
 20
47.50011527675345
 30
0.0
 10
8.619628904095093
 20
47.50011527675345
 30
0.0
 10
7.500317380937421
 20
48.61942679991112
 30
0.0
 10
7.500317380937421
 20
50.00022107039926
 30
0.0
 10
7.500317380937421
 20
51.38067083133886
 30
0.0
 10
8.619628904095093
 20
52.49998235449654
 30
0.0
 10
10.0000786650347
 20
52.49998235449654
 30
0.0
 10
11.38087293552284
 20
52.49998235449654
 30
0.0
 10
12.50018445868051
 20
51.38067083133886
 30
0.0
 10
12.50018445868051
 20
50.00022107039926
 30
0.0
  0
SPLINE
  5
43
330
1F
100
AcDbEntity
  8
LAYER_1
 62
   250
100
AcDbSpline
210
0.0
220
0.0
230
1.0
 70
    11
 71
     3
 72
    17
 73
    13
 74
     0
 42
0.0000000001
 43
0.0000000001
 40
0.0
 40
0.0
 40
0.0
 40
0.0
 40
1.0
 40
1.0
 40
1.0
 40
2.0
 40
2.0
 40
2.0
 40
3.0
 40
3.0
 40
3.0
 40
4.0
 40
4.0
 40
4.0
 40
4.0
 10
12.50018445868051
 20
10.0000786650347
 30
0.0
 10
12.50018445868051
 20
8.619284394546568
 30
0.0
 10
11.38087293552284
 20
7.499972871388896
 30
0.0
 10
10.0000786650347
 20
7.499972871388896
 30
0.0
 10
8.619456649320831
 20
7.499972871388896
 30
0.0
 10
7.500145126163159
 20
8.619284394546568
 30
0.0
 10
7.500145126163159
 20
10.0000786650347
 30
0.0
 10
7.500145126163159
 20
11.38087293552284
 30
0.0
 10
8.619456649320831
 20
12.50018445868051
 30
0.0
 10
10.0000786650347
 20
12.50018445868051
 30
0.0
 10
11.38087293552284
 20
12.50018445868051
 30
0.0
 10
12.50018445868051
 20
11.38087293552284
 30
0.0
 10
12.50018445868051
 20
10.0000786650347
 30
0.0
  0
SPLINE
  5
44
330
1F
100
AcDbEntity
  8
LAYER_1
 62
   250
100
AcDbSpline
210
0.0
220
0.0
230
1.0
 70
    11
 71
     3
 72
    17
 73
    13
 74
     0
 42
0.0000000001
 43
0.0000000001
 40
0.0
 40
0.0
 40
0.0
 40
0.0
 40
1.0
 40
1.0
 40
1.0
 40
2.0
 40
2.0
 40
2.0
 40
3.0
 40
3.0
 40
3.0
 40
4.0
 40
4.0
 40
4.0
 40
4.0
 10
32.50016953397565
 20
10.0000786650347
 30
0.0
 10
32.50016953397565
 20
8.619284394546568
 30
0.0
 10
31.38085801081798
 20
7.499972871388896
 30
0.0
 10
30.00006374032985
 20
7.499972871388896
 30
0.0
 10
28.61944172461597
 20
7.499972871388896
 30
0.0
 10
27.5001302014583
 20
8.619284394546568
 30
0.0
 10
27.5001302014583
 20
10.0000786650347
 30
0.0
 10
27.5001302014583
 20
11.38052842597431
 30
0.0
 10
28.61944172461597
 20
12.49983994913199
 30
0.0
 10
30.00006374032985
 20
12.49983994913199
 30
0.0
 10
31.38085801081798
 20
12.49983994913199
 30
0.0
 10
32.50016953397565
 20
11.38052842597431
 30
0.0
 10
32.50016953397565
 20
10.0000786650347
 30
0.0
  0
SPLINE
  5
45
330
1F
100
AcDbEntity
  8
LAYER_1
 62
   250
100
AcDbSpline
210
0.0
220
0.0
230
1.0
 70
    11
 71
     3
 72
    17
 73
    13
 74
     0
 42
0.0000000001
 43
0.0000000001
 40
0.0
 40
0.0
 40
0.0
 40
0.0
 40
1.0
 40
1.0
 40
1.0
 40
2.0
 40
2.0
 40
2.0
 40
3.0
 40
3.0
 40
3.0
 40
4.0
 40
4.0
 40
4.0
 40
4.0
 10
32.49999727920139
 20
45.50023734756591
 30
0.0
 10
32.49999727920139
 20
44.11944307707778
 30
0.0
 10
31.38068575604372
 20
43.00013155392011
 30
0.0
 10
29.99989148555558
 20
43.00013155392011
 30
0.0
 10
28.61944172461597
 20
43.00013155392011
 30
0.0
 10
27.5001302014583
 20
44.11944307707778
 30
0.0
 10
27.5001302014583
 20
45.50023734756591
 30
0.0
 10
27.5001302014583
 20
46.88085936327979
 30
0.0
 10
28.61944172461597
 20
48.00017088643746
 30
0.0
 10
29.99989148555558
 20
48.00017088643746
 30
0.0
 10
31.38068575604372
 20
48.00017088643746
 30
0.0
 10
32.49999727920139
 20
46.88085936327979
 30
0.0
 10
32.49999727920139
 20
45.50023734756591
 30
0.0
  0
ENDSEC
  0
SECTION
  2
OBJECTS
  0
DICTIONARY
  5
C
330
0
100
AcDbDictionary
  3
ACAD_GROUP
350
D
  3
ACAD_LAYOUT
350
1A
  3
ACAD_MLINESTYLE
350
17
  3
ACAD_PLOTSETTINGS
350
19
  3
ACAD_TABLESTYLE
350
46
  3
ACAD_VISUALSTYLE
350
2A
1001
ACAD
1000
TREAT_AS_HARD
1070
     0
  0
DICTIONARY
  5
D
102
{ACAD_REACTORS
330
C
102
}
330
C
100
AcDbDictionary
1001
ACAD
1000
TREAT_AS_HARD
1070
     0
  0
DICTIONARY
  5
1A
102
{ACAD_REACTORS
330
C
102
}
330
C
100
AcDbDictionary
1001
ACAD
1000
TREAT_AS_HARD
1070
     0
  0
DICTIONARY
  5
17
102
{ACAD_REACTORS
330
C
102
}
330
C
100
AcDbDictionary
  3
STANDARD
350
18
1001
ACAD
1000
TREAT_AS_HARD
1070
     0
  0
DICTIONARY
  5
19
102
{ACAD_REACTORS
330
C
102
}
330
C
100
AcDbDictionary
1001
ACAD
1000
TREAT_AS_HARD
1070
     0
  0
DICTIONARY
  5
46
102
{ACAD_REACTORS
330
C
102
}
330
C
100
AcDbDictionary
1001
ACAD
1000
TREAT_AS_HARD
1070
     0
  0
DICTIONARY
  5
2A
102
{ACAD_REACTORS
330
C
102
}
330
C
100
AcDbDictionary
  3
2DWIREFRAME
350
2F
  3
3D_HIDDEN
350
31
  3
3DWIREFRAME
350
30
  3
BASIC
350
32
  3
BRIGHTEN
350
36
  3
COLORCHANGE
350
3A
  3
CONCEPTUAL
350
34
  3
DIM
350
35
  3
FACEPATTERN
350
39
  3
FLAT
350
2B
  3
FLATWITHEDGES
350
2C
  3
GOURAUD
350
2D
  3
GOURAUDWITHEDGES
350
2E
  3
LINEPATTERN
350
38
  3
REALISTIC
350
33
  3
THICKEN
350
37
1001
ACAD
1000
TREAT_AS_HARD
1070
     0
  0
MLINESTYLE
  5
18
102
{ACAD_REACTORS
330
17
102
}
330
17
100
AcDbMlineStyle
  2
Standard
 70
     0
  3

 62
   256
 51
90.0
 52
90.0
 71
     2
 49
0.5
 62
   256
  6
BYLAYER
 49
-0.5
 62
   256
  6
BYLAYER
  0
VISUALSTYLE
  5
2F
102
{ACAD_REACTORS
330
2A
102
}
330
2A
100
AcDbVisualStyle
  2
2dWireframe
 70
     4
 71
     0
 72
     2
 73
     0
 90
        0
 40
-0.6
 41
-30.0
 62
     5
 63
     7
 74
     1
 91
        4
 64
     7
 65
   257
 75
     1
175
     1
 42
1.0
 92
        0
 66
   257
 43
1.0
 76
     1
 77
     6
 78
     2
 67
     7
 79
     5
170
     0
171
     0
290
     0
174
     0
 93
        1
 44
0.0
173
     0
291
     0
 45
0.0
1001
ACAD
1000
AcDbSavedByObjectVersion
1070
     0
  0
VISUALSTYLE
  5
31
102
{ACAD_REACTORS
330
2A
102
}
330
2A
100
AcDbVisualStyle
  2
3D Hidden
 70
     6
 71
     1
 72
     2
 73
     2
 90
        0
 40
-0.6
 41
-30.0
 62
     5
 63
     7
 74
     2
 91
        2
 64
     7
 65
   257
 75
     2
175
     1
 42
40.0
 92
        0
 66
   257
 43
1.0
 76
     1
 77
     6
 78
     2
 67
     7
 79
     3
170
     0
171
     0
290
     0
174
     0
 93
        1
 44
0.0
173
     0
291
     0
 45
0.0
1001
ACAD
1000
AcDbSavedByObjectVersion
1070
     0
  0
VISUALSTYLE
  5
30
102
{ACAD_REACTORS
330
2A
102
}
330
2A
100
AcDbVisualStyle
  2
3dWireframe
 70
     5
 71
     0
 72
     2
 73
     0
 90
        0
 40
-0.6
 41
-30.0
 62
     5
 63
     7
 74
     1
 91
        4
 64
     7
 65
   257
 75
     1
175
     1
 42
1.0
 92
        0
 66
   257
 43
1.0
 76
     1
 77
     6
 78
     2
 67
     7
 79
     5
170
     0
171
     0
290
     0
174
     0
 93
        1
 44
0.0
173
     0
291
     0
 45
0.0
1001
ACAD
1000
AcDbSavedByObjectVersion
1070
     0
  0
VISUALSTYLE
  5
32
102
{ACAD_REACTORS
330
2A
102
}
330
2A
100
AcDbVisualStyle
  2
Basic
 70
     7
 71
     1
 72
     0
 73
     1
 90
        0
 40
-0.6
 41
-30.0
 62
     5
 63
     7
 74
     0
 91
        4
 64
     7
 65
   257
 75
     1
175
     1
 42
1.0
 92
        8
 66
     7
 43
1.0
 76
     1
 77
     6
 78
     2
 67
     7
 79
     5
170
     0
171
     0
290
     0
174
     0
 93
        1
 44
0.0
173
     0
291
     1
 45
0.0
1001
ACAD
1000
AcDbSavedByObjectVersion
1070
     0
  0
VISUALSTYLE
  5
36
102
{ACAD_REACTORS
330
2A
102
}
330
2A
100
AcDbVisualStyle
  2
Brighten
 70
    12
 71
     2
 72
     2
 73
     0
 90
        0
 40
-0.6
 41
-30.0
 62
     5
 63
     7
 74
     1
 91
        4
 64
     7
 65
   257
 75
     1
175
     1
 42
1.0
 92
        8
 66
     7
 43
1.0
 76
     1
 77
     6
 78
     2
 67
     7
 79
     5
170
     0
171
     0
290
     0
174
     0
 93
        1
 44
50.0
173
     0
291
     1
 45
0.0
1001
ACAD
1000
AcDbSavedByObjectVersion
1070
     0
  0
VISUALSTYLE
  5
3A
102
{ACAD_REACTORS
330
2A
102
}
330
2A
100
AcDbVisualStyle
  2
ColorChange
 70
    16
 71
     2
 72
     2
 73
     3
 90
        0
 40
-0.6
 41
-30.0
 62
     5
 63
     8
 74
     1
 91
        4
 64
     7
 65
   257
 75
     1
175
     1
 42
1.0
 92
        8
 66
     8
 43
1.0
 76
     1
 77
     6
 78
     2
 67
     7
 79
     5
170
     0
171
     0
290
     0
174
     0
 93
        1
 44
0.0
173
     0
291
     1
 45
0.0
1001
ACAD
1000
AcDbSavedByObjectVersion
1070
     0
  0
VISUALSTYLE
  5
34
102
{ACAD_REACTORS
330
2A
102
}
330
2A
100
AcDbVisualStyle
  2
Conceptual
 70
     9
 71
     3
 72
     2
 73
     0
 90
        0
 40
-0.6
 41
-30.0
 62
     5
 63
     7
 74
     2
 91
        2
 64
     7
 65
   257
 75
     1
175
     1
 42
40.0
 92
        8
 66
     7
 43
1.0
 76
     1
 77
     6
 78
     2
 67
     7
 79
     3
170
     0
171
     0
290
     0
174
     0
 93
        1
 44
0.0
173
     0
291
     0
 45
0.0
1001
ACAD
1000
AcDbSavedByObjectVersion
1070
     0
  0
VISUALSTYLE
  5
35
102
{ACAD_REACTORS
330
2A
102
}
330
2A
100
AcDbVisualStyle
  2
Dim
 70
    11
 71
     2
 72
     2
 73
     0
 90
        0
 40
-0.6
 41
-30.0
 62
     5
 63
     7
 74
     1
 91
        4
 64
     7
 65
   257
 75
     1
175
     1
 42
1.0
 92
        8
 66
     7
 43
1.0
 76
     1
 77
     6
 78
     2
 67
     7
 79
     5
170
     0
171
     0
290
     0
174
     0
 93
        1
 44
-50.0
173
     0
291
     1
 45
0.0
1001
ACAD
1000
AcDbSavedByObjectVersion
1070
     0
  0
VISUALSTYLE
  5
39
102
{ACAD_REACTORS
330
2A
102
}
330
2A
100
AcDbVisualStyle
  2
Facepattern
 70
    15
 71
     2
 72
     2
 73
     0
 90
        0
 40
-0.6
 41
-30.0
 62
     5
 63
     7
 74
     1
 91
        4
 64
     7
 65
   257
 75
     1
175
     1
 42
1.0
 92
        8
 66
     7
 43
1.0
 76
     1
 77
     6
 78
     2
 67
     7
 79
     5
170
     0
171
     0
290
     0
174
     0
 93
        1
 44
0.0
173
     0
291
     1
 45
0.0
1001
ACAD
1000
AcDbSavedByObjectVersion
1070
     0
  0
VISUALSTYLE
  5
2B
102
{ACAD_REACTORS
330
2A
102
}
330
2A
100
AcDbVisualStyle
  2
Flat
 70
     0
 71
     2
 72
     1
 73
     1
 90
        2
 40
-0.6
 41
30.0
 62
     5
 63
     7
 74
     0
 91
        4
 64
     7
 65
   257
 75
     1
175
     1
 42
1.0
 92
        8
 66
     7
 43
1.0
 76
     1
 77
     6
 78
     2
 67
     7
 79
     5
170
     0
171
     0
290
     0
174
     0
 93
       13
 44
0.0
173
     0
291
     1
 45
0.0
1001
ACAD
1000
AcDbSavedByObjectVersion
1070
     0
  0
VISUALSTYLE
  5
2C
102
{ACAD_REACTORS
330
2A
102
}
330
2A
100
AcDbVisualStyle
  2
FlatWithEdges
 70
     1
 71
     2
 72
     1
 73
     1
 90
        2
 40
-0.6
 41
30.0
 62
     5
 63
     7
 74
     1
 91
        4
 64
     7
 65
   257
 75
     1
175
     1
 42
1.0
 92
        0
 66
   257
 43
1.0
 76
     1
 77
     6
 78
     2
 67
     7
 79
     5
170
     0
171
     0
290
     0
174
     0
 93
       13
 44
0.0
173
     0
291
     1
 45
0.0
1001
ACAD
1000
AcDbSavedByObjectVersion
1070
     0
  0
VISUALSTYLE
  5
2D
102
{ACAD_REACTORS
330
2A
102
}
330
2A
100
AcDbVisualStyle
  2
Gouraud
 70
     2
 71
     2
 72
     2
 73
     1
 90
        2
 40
-0.6
 41
30.0
 62
     5
 63
     7
 74
     0
 91
        4
 64
     7
 65
   257
 75
     1
175
     1
 42
1.0
 92
        0
 66
     7
 43
1.0
 76
     1
 77
     6
 78
     2
 67
     7
 79
     5
170
     0
171
     0
290
     0
174
     0
 93
       13
 44
0.0
173
     0
291
     1
 45
0.0
1001
ACAD
1000
AcDbSavedByObjectVersion
1070
     0
  0
VISUALSTYLE
  5
2E
102
{ACAD_REACTORS
330
2A
102
}
330
2A
100
AcDbVisualStyle
  2
GouraudWithEdges
 70
     3
 71
     2
 72
     2
 73
     1
 90
        2
 40
-0.6
 41
30.0
 62
     5
 63
     7
 74
     1
 91
        4
 64
     7
 65
   257
 75
     1
175
     1
 42
1.0
 92
        0
 66
   257
 43
1.0
 76
     1
 77
     6
 78
     2
 67
     7
 79
     5
170
     0
171
     0
290
     0
174
     0
 93
       13
 44
0.0
173
     0
291
     1
 45
0.0
1001
ACAD
1000
AcDbSavedByObjectVersion
1070
     0
  0
VISUALSTYLE
  5
38
102
{ACAD_REACTORS
330
2A
102
}
330
2A
100
AcDbVisualStyle
  2
Linepattern
 70
    14
 71
     2
 72
     2
 73
     0
 90
        0
 40
-0.6
 41
-30.0
 62
     5
 63
     7
 74
     1
 91
        4
 64
     7
 65
   257
 75
     7
175
     7
 42
1.0
 92
        8
 66
     7
 43
1.0
 76
     1
 77
     6
 78
     2
 67
     7
 79
     5
170
     0
171
     0
290
     0
174
     0
 93
        1
 44
0.0
173
     0
291
     1
 45
0.0
1001
ACAD
1000
AcDbSavedByObjectVersion
1070
     0
  0
VISUALSTYLE
  5
33
102
{ACAD_REACTORS
330
2A
102
}
330
2A
100
AcDbVisualStyle
  2
Realistic
 70
     8
 71
     2
 72
     2
 73
     0
 90
        0
 40
-0.6
 41
-30.0
 62
     5
 63
     7
 74
     1
 91
        0
 64
     7
 65
   257
 75
     1
175
     1
 42
1.0
 92
        8
 66
     8
 43
1.0
 76
     1
 77
     6
 78
     2
 67
     7
 79
     5
170
     0
171
     0
290
     0
174
     0
 93
       13
 44
0.0
173
     0
291
     0
 45
0.0
1001
ACAD
1000
AcDbSavedByObjectVersion
1070
     0
  0
VISUALSTYLE
  5
37
102
{ACAD_REACTORS
330
2A
102
}
330
2A
100
AcDbVisualStyle
  2
Thicken
 70
    13
 71
     2
 72
     2
 73
     0
 90
        0
 40
-0.6
 41
-30.0
 62
     5
 63
     7
 74
     1
 91
        4
 64
     7
 65
   257
 75
     1
175
     1
 42
1.0
 92
       12
 66
     7
 43
1.0
 76
     1
 77
     6
 78
     2
 67
     7
 79
     5
170
     0
171
     0
290
     0
174
     0
 93
        1
 44
0.0
173
     0
291
     1
 45
0.0
1001
ACAD
1000
AcDbSavedByObjectVersion
1070
     0
  0
ENDSEC
  0
EOF
