  0
SECTION
  2
HEADER
  9
$ACADVER
  1
AC1012
  9
$DWGCODEPAGE
  3
ansi_1252
  9
$INSBASE
 10
0.0
 20
0.0
 30
0.0
  9
$EXTMIN
 10
1.000000000000000E+20
 20
1.000000000000000E+20
 30
1.000000000000000E+20
  9
$EXTMAX
 10
-1.000000000000000E+20
 20
-1.000000000000000E+20
 30
-1.000000000000000E+20
  9
$LIMMIN
 10
0.0
 20
0.0
  9
$LIMMAX
 10
12.0
 20
9.0
  9
$ORTHOMODE
 70
     0
  9
$REGENMODE
 70
     1
  9
$FILLMODE
 70
     1
  9
$QTEXTMODE
 70
     0
  9
$MIRRTEXT
 70
     1
  9
$DRAGMODE
 70
     2
  9
$LTSCALE
 40
1.0
  9
$OSMODE
 70
    37
  9
$ATTMODE
 70
     1
  9
$TEXTSIZE
 40
0.2
  9
$TRACEWID
 40
0.05
  9
$TEXTSTYLE
  7
STANDARD
  9
$CLAYER
  8
0
  9
$CELTYPE
  6
BYLAYER
  9
$CECOLOR
 62
   256
  9
$CELTSCALE
 40
1.0
  9
$DELOBJ
 70
     1
  9
$DISPSILH
 70
     0
  9
$DIMSCALE
 40
1.0
  9
$DIMASZ
 40
0.18
  9
$DIMEXO
 40
0.0625
  9
$DIMDLI
 40
0.38
  9
$DIMRND
 40
0.0
  9
$DIMDLE
 40
0.0
  9
$DIMEXE
 40
0.18
  9
$DIMTP
 40
0.0
  9
$DIMTM
 40
0.0
  9
$DIMTXT
 40
0.18
  9
$DIMCEN
 40
0.09
  9
$DIMTSZ
 40
0.0
  9
$DIMTOL
 70
     0
  9
$DIMLIM
 70
     0
  9
$DIMTIH
 70
     1
  9
$DIMTOH
 70
     1
  9
$DIMSE1
 70
     0
  9
$DIMSE2
 70
     0
  9
$DIMTAD
 70
     0
  9
$DIMZIN
 70
     0
  9
$DIMBLK
  1

  9
$DIMASO
 70
     1
  9
$DIMSHO
 70
     1
  9
$DIMPOST
  1

  9
$DIMAPOST
  1

  9
$DIMALT
 70
     0
  9
$DIMALTD
 70
     2
  9
$DIMALTF
 40
25.4
  9
$DIMLFAC
 40
1.0
  9
$DIMTOFL
 70
     0
  9
$DIMTVP
 40
0.0
  9
$DIMTIX
 70
     0
  9
$DIMSOXD
 70
     0
  9
$DIMSAH
 70
     0
  9
$DIMBLK1
  1

  9
$DIMBLK2
  1

  9
$DIMSTYLE
  2
STANDARD
  9
$DIMCLRD
 70
     0
  9
$DIMCLRE
 70
     0
  9
$DIMCLRT
 70
     0
  9
$DIMTFAC
 40
1.0
  9
$DIMGAP
 40
0.09
  9
$DIMJUST
 70
     0
  9
$DIMSD1
 70
     0
  9
$DIMSD2
 70
     0
  9
$DIMTOLJ
 70
     1
  9
$DIMTZIN
 70
     0
  9
$DIMALTZ
 70
     0
  9
$DIMALTTZ
 70
     0
  9
$DIMFIT
 70
     3
  9
$DIMUPT
 70
     0
  9
$DIMUNIT
 70
     2
  9
$DIMDEC
 70
     4
  9
$DIMTDEC
 70
     4
  9
$DIMALTU
 70
     2
  9
$DIMALTTD
 70
     2
  9
$DIMTXSTY
  7
STANDARD
  9
$DIMAUNIT
 70
     0
  9
$LUNITS
 70
     2
  9
$LUPREC
 70
     4
  9
$SKETCHINC
 40
0.1
  9
$FILLETRAD
 40
0.5
  9
$AUNITS
 70
     0
  9
$AUPREC
 70
     0
  9
$MENU
  1
.
  9
$ELEVATION
 40
0.0
  9
$PELEVATION
 40
0.0
  9
$THICKNESS
 40
0.0
  9
$LIMCHECK
 70
     0
  9
$CHAMFERA
 40
0.5
  9
$CHAMFERB
 40
0.5
  9
$CHAMFERC
 40
1.0
  9
$CHAMFERD
 40
0.0
  9
$SKPOLY
 70
     0
  9
$TDCREATE
 40
2456537.599945139
  9
$TDUPDATE
 40
2456537.59994515
  9
$TDINDWG
 40
0.0000000116
  9
$TDUSRTIMER
 40
0.0000000116
  9
$USRTIMER
 70
     1
  9
$ANGBASE
 50
0.0
  9
$ANGDIR
 70
     0
  9
$PDMODE
 70
     0
  9
$PDSIZE
 40
0.0
  9
$PLINEWID
 40
0.0
  9
$COORDS
 70
     1
  9
$SPLFRAME
 70
     0
  9
$SPLINETYPE
 70
     6
  9
$SPLINESEGS
 70
     8
  9
$ATTDIA
 70
     0
  9
$ATTREQ
 70
     1
  9
$HANDLING
 70
     1
  9
$HANDSEED
  5
8C
  9
$SURFTAB1
 70
     6
  9
$SURFTAB2
 70
     6
  9
$SURFTYPE
 70
     6
  9
$SURFU
 70
     6
  9
$SURFV
 70
     6
  9
$UCSNAME
  2

  9
$UCSORG
 10
0.0
 20
0.0
 30
0.0
  9
$UCSXDIR
 10
1.0
 20
0.0
 30
0.0
  9
$UCSYDIR
 10
0.0
 20
1.0
 30
0.0
  9
$PUCSNAME
  2

  9
$PUCSORG
 10
0.0
 20
0.0
 30
0.0
  9
$PUCSXDIR
 10
1.0
 20
0.0
 30
0.0
  9
$PUCSYDIR
 10
0.0
 20
1.0
 30
0.0
  9
$USERI1
 70
     0
  9
$USERI2
 70
     0
  9
$USERI3
 70
     0
  9
$USERI4
 70
     0
  9
$USERI5
 70
     0
  9
$USERR1
 40
0.0
  9
$USERR2
 40
0.0
  9
$USERR3
 40
0.0
  9
$USERR4
 40
0.0
  9
$USERR5
 40
0.0
  9
$WORLDVIEW
 70
     1
  9
$SHADEDGE
 70
     3
  9
$SHADEDIF
 70
    70
  9
$TILEMODE
 70
     1
  9
$MAXACTVP
 70
    64
  9
$PINSBASE
 10
0.0
 20
0.0
 30
0.0
  9
$PLIMCHECK
 70
     0
  9
$PEXTMIN
 10
1.000000000000000E+20
 20
1.000000000000000E+20
 30
1.000000000000000E+20
  9
$PEXTMAX
 10
-1.000000000000000E+20
 20
-1.000000000000000E+20
 30
-1.000000000000000E+20
  9
$PLIMMIN
 10
0.0
 20
0.0
  9
$PLIMMAX
 10
12.0
 20
9.0
  9
$UNITMODE
 70
     0
  9
$VISRETAIN
 70
     1
  9
$PLINEGEN
 70
     0
  9
$PSLTSCALE
 70
     1
  9
$TREEDEPTH
 70
  3020
  9
$PICKSTYLE
 70
     1
  9
$CMLSTYLE
  2
STANDARD
  9
$CMLJUST
 70
     0
  9
$CMLSCALE
 40
1.0
  9
$SAVEIMAGES
 70
     1
  0
ENDSEC
  0
SECTION
  2
CLASSES
  0
CLASS
  1
ACDBDICTIONARYWDFLT
  2
AcDbDictionaryWithDefault
  3
ObjectDBX Classes
 90
    32768
280
     0
281
     0
  0
CLASS
  1
VISUALSTYLE
  2
AcDbVisualStyle
  3
ObjectDBX Classes
 90
     4095
280
     0
281
     0
  0
CLASS
  1
XRECORD
  2
AcDbXrecord
  3
AutoCAD 2000
 90
    32768
280
     0
281
     0
  0
CLASS
  1
LWPOLYLINE
  2
AcDbPolyline
  3
AutoCAD 2000
 90
    32768
280
     0
281
     1
  0
CLASS
  1
HATCH
  2
AcDbHatch
  3
AutoCAD 2000
 90
    32768
280
     0
281
     1
  0
CLASS
  1
ACDBPLACEHOLDER
  2
AcDbPlaceHolder
  3
ObjectDBX Classes
 90
        0
280
     0
281
     0
  0
CLASS
  1
LAYOUT
  2
AcDbLayout
  3
ObjectDBX Classes
 90
        0
280
     0
281
     0
  0
ENDSEC
  0
SECTION
  2
TABLES
  0
TABLE
  2
VPORT
  5
8
330
0
100
AcDbSymbolTable
 70
     1
  0
VPORT
  5
29
330
8
100
AcDbSymbolTableRecord
100
AcDbViewportTableRecord
  2
*ACTIVE
 70
     0
 10
0.0
 20
0.0
 11
1.0
 21
1.0
 12
0.0
 22
0.0
 13
0.0
 23
0.0
 14
0.5
 24
0.5
 15
0.5
 25
0.5
 16
0.0
 26
0.0
 36
1.0
 17
148.4999796178229
 27
-105.0008259828644
 37
0.0
 40
210.0016519657288
 41
1.414274394775308
 42
50.0
 43
0.0
 44
0.0
 50
0.0
 51
0.0
 71
     0
 72
   100
 73
     1
 74
     3
 75
     0
 76
     0
 77
     0
 78
     0
  0
ENDTAB
  0
TABLE
  2
LTYPE
  5
5
330
0
100
AcDbSymbolTable
 70
     1
  0
LTYPE
  5
14
330
5
100
AcDbSymbolTableRecord
100
AcDbLinetypeTableRecord
  2
BYBLOCK
 70
     0
  3

 72
    65
 73
     0
 40
0.0
  0
LTYPE
  5
15
330
5
100
AcDbSymbolTableRecord
100
AcDbLinetypeTableRecord
  2
BYLAYER
 70
     0
  3

 72
    65
 73
     0
 40
0.0
  0
LTYPE
  5
16
330
5
100
AcDbSymbolTableRecord
100
AcDbLinetypeTableRecord
  2
CONTINUOUS
 70
     0
  3
Solid line
 72
    65
 73
     0
 40
0.0
  0
ENDTAB
  0
TABLE
  2
LAYER
  5
2
330
0
100
AcDbSymbolTable
 70
     2
  0
LAYER
  5
10
330
2
100
AcDbSymbolTableRecord
100
AcDbLayerTableRecord
  2
0
 70
     0
 62
     7
  6
CONTINUOUS
  0
LAYER
  5
3B
330
2
100
AcDbSymbolTableRecord
100
AcDbLayerTableRecord
  2
LAYER_1
 70
     0
 62
     7
  6
CONTINUOUS
  0
ENDTAB
  0
TABLE
  2
STYLE
  5
3
330
0
100
AcDbSymbolTable
 70
     1
  0
STYLE
  5
11
330
3
100
AcDbSymbolTableRecord
100
AcDbTextStyleTableRecord
  2
STANDARD
 70
     0
 40
0.0
 41
1.0
 50
0.0
 71
     0
 42
0.2
  3
txt
  4

  0
ENDTAB
  0
TABLE
  2
VIEW
  5
6
330
0
100
AcDbSymbolTable
 70
     0
  0
ENDTAB
  0
TABLE
  2
UCS
  5
7
330
0
100
AcDbSymbolTable
 70
     0
  0
ENDTAB
  0
TABLE
  2
APPID
  5
9
330
0
100
AcDbSymbolTable
 70
     1
  0
APPID
  5
12
330
9
100
AcDbSymbolTableRecord
100
AcDbRegAppTableRecord
  2
ACAD
 70
     0
  0
ENDTAB
  0
TABLE
  2
DIMSTYLE
  5
A
330
0
100
AcDbSymbolTable
 70
     1
  0
DIMSTYLE
105
27
330
A
100
AcDbSymbolTableRecord
100
AcDbDimStyleTableRecord
  2
STANDARD
 70
     0
  3

  4

  5

  6

  7

 40
1.0
 41
0.18
 42
0.0625
 43
0.38
 44
0.18
 45
0.0
 46
0.0
 47
0.0
 48
0.0
140
0.18
141
0.09
142
0.0
143
25.4
144
1.0
145
0.0
146
1.0
147
0.09
 71
     0
 72
     0
 73
     1
 74
     1
 75
     0
 76
     0
 77
     0
 78
     0
170
     0
171
     2
172
     0
173
     0
174
     0
175
     0
176
     0
177
     0
178
     0
270
     2
271
     4
272
     4
273
     2
274
     2
340
11
275
     0
280
     0
281
     0
282
     0
283
     1
284
     0
285
     0
286
     0
287
     3
288
     0
  0
ENDTAB
  0
TABLE
  2
BLOCK_RECORD
  5
1
330
0
100
AcDbSymbolTable
 70
     2
  0
BLOCK_RECORD
  5
1F
330
1
100
AcDbSymbolTableRecord
100
AcDbBlockTableRecord
  2
*MODEL_SPACE
  0
BLOCK_RECORD
  5
1B
330
1
100
AcDbSymbolTableRecord
100
AcDbBlockTableRecord
  2
*PAPER_SPACE
  0
BLOCK_RECORD
  5
3C
330
1
100
AcDbSymbolTableRecord
100
AcDbBlockTableRecord
  2
BLOCK_2
  0
ENDTAB
  0
ENDSEC
  0
SECTION
  2
BLOCKS
  0
BLOCK
  5
20
330
1F
100
AcDbEntity
  8
0
100
AcDbBlockBegin
  2
*MODEL_SPACE
 70
     0
 71
     0
 10
0.0
 20
0.0
 30
0.0
  3
*MODEL_SPACE
  1

  0
ENDBLK
  5
21
330
1F
100
AcDbEntity
  8
0
100
AcDbBlockEnd
  0
BLOCK
  5
1C
330
1B
100
AcDbEntity
 67
     1
  8
0
100
AcDbBlockBegin
  2
*PAPER_SPACE
 70
     0
 71
     0
 10
0.0
 20
0.0
 30
0.0
  3
*PAPER_SPACE
  1

  0
ENDBLK
  5
1D
330
1B
100
AcDbEntity
 67
     1
  8
0
100
AcDbBlockEnd
  0
BLOCK
  5
3E
330
3C
100
AcDbEntity
  8
0
100
AcDbBlockBegin
  2
BLOCK_2
 70
     0
 71
     0
 10
0.0
 20
0.0
 30
0.0
  3
BLOCK_2
  1

  0
SPLINE
  5
40
330
3C
100
AcDbEntity
  8
LAYER_1
 62
   250
100
AcDbSpline
210
0.0
220
0.0
230
1.0
 70
    11
 71
     3
 72
    17
 73
    13
 74
     0
 42
0.0000000001
 43
0.0000000001
 40
0.0
 40
0.0
 40
0.0
 40
0.0
 40
1.0
 40
1.0
 40
1.0
 40
2.0
 40
2.0
 40
2.0
 40
3.0
 40
3.0
 40
3.0
 40
4.0
 40
4.0
 40
4.0
 40
4.0
 10
19.50027397515965
 20
28.50006916605207
 30
0.0
 10
18.67207302050559
 20
28.50006916605207
 30
0.0
 10
18.00027940088188
 20
29.17151827612726
 30
0.0
 10
18.00027940088188
 20
30.00006374032985
 30
0.0
 10
18.00027940088188
 20
30.82826469498391
 30
0.0
 10
18.67207302050559
 20
31.50005831460762
 30
0.0
 10
19.50027397515965
 20
31.50005831460762
 30
0.0
 10
20.32847492981372
 20
31.50005831460762
 30
0.0
 10
21.00026854943743
 20
30.82826469498391
 30
0.0
 10
21.00026854943743
 20
30.00006374032985
 30
0.0
 10
21.00026854943743
 20
29.17151827612726
 30
0.0
 10
20.32847492981372
 20
28.50006916605207
 30
0.0
 10
19.50027397515965
 20
28.50006916605207
 30
0.0
  0
SPLINE
  5
41
330
3C
100
AcDbEntity
  8
LAYER_1
 62
   250
100
AcDbSpline
210
0.0
220
0.0
230
1.0
 70
    11
 71
     3
 72
    17
 73
    13
 74
     0
 42
0.0000000001
 43
0.0000000001
 40
0.0
 40
0.0
 40
0.0
 40
0.0
 40
1.0
 40
1.0
 40
1.0
 40
2.0
 40
2.0
 40
2.0
 40
3.0
 40
3.0
 40
3.0
 40
4.0
 40
4.0
 40
4.0
 40
4.0
 10
19.50027397515965
 20
27.00007459177429
 30
0.0
 10
17.84387206585153
 20
27.00007459177429
 30
0.0
 10
16.5002848266041
 20
28.34297281192467
 30
0.0
 10
16.5002848266041
 20
30.00006374032985
 30
0.0
 10
16.5002848266041
 20
31.65646564963797
 30
0.0
 10
17.84387206585153
 20
33.00005288888541
 30
0.0
 10
19.50027397515965
 20
33.00005288888541
 30
0.0
 10
21.15667588446778
 20
33.00005288888541
 30
0.0
 10
22.50026312371521
 20
31.65646564963797
 30
0.0
 10
22.50026312371521
 20
30.00006374032985
 30
0.0
 10
22.50026312371521
 20
28.34297281192467
 30
0.0
 10
21.15667588446778
 20
27.00007459177429
 30
0.0
 10
19.50027397515965
 20
27.00007459177429
 30
0.0
  0
SPLINE
  5
42
330
3C
100
AcDbEntity
  8
LAYER_1
 62
   250
100
AcDbSpline
210
0.0
220
0.0
230
1.0
 70
    11
 71
     3
 72
    17
 73
    13
 74
     0
 42
0.0000000001
 43
0.0000000001
 40
0.0
 40
0.0
 40
0.0
 40
0.0
 40
1.0
 40
1.0
 40
1.0
 40
2.0
 40
2.0
 40
2.0
 40
3.0
 40
3.0
 40
3.0
 40
4.0
 40
4.0
 40
4.0
 40
4.0
 10
19.50027397515965
 20
18.50016275579163
 30
0.0
 10
18.67207302050559
 20
18.50016275579163
 30
0.0
 10
18.00027940088188
 20
19.17161186586682
 30
0.0
 10
18.00027940088188
 20
20.00015733006941
 30
0.0
 10
18.00027940088188
 20
20.82835828472347
 30
0.0
 10
18.67207302050559
 20
21.50015190434718
 30
0.0
 10
19.50027397515965
 20
21.50015190434718
 30
0.0
 10
20.32847492981372
 20
21.50015190434718
 30
0.0
 10
21.00026854943743
 20
20.82835828472347
 30
0.0
 10
21.00026854943743
 20
20.00015733006941
 30
0.0
 10
21.00026854943743
 20
19.17161186586682
 30
0.0
 10
20.32847492981372
 20
18.50016275579163
 30
0.0
 10
19.50027397515965
 20
18.50016275579163
 30
0.0
  0
SPLINE
  5
43
330
3C
100
AcDbEntity
  8
LAYER_1
 62
   250
100
AcDbSpline
210
0.0
220
0.0
230
1.0
 70
    11
 71
     3
 72
    17
 73
    13
 74
     0
 42
0.0000000001
 43
0.0000000001
 40
0.0
 40
0.0
 40
0.0
 40
0.0
 40
1.0
 40
1.0
 40
1.0
 40
2.0
 40
2.0
 40
2.0
 40
3.0
 40
3.0
 40
3.0
 40
4.0
 40
4.0
 40
4.0
 40
4.0
 10
19.50027397515965
 20
17.00016818151385
 30
0.0
 10
17.84387206585153
 20
17.00016818151385
 30
0.0
 10
16.5002848266041
 20
18.34306640166423
 30
0.0
 10
16.5002848266041
 20
20.00015733006941
 30
0.0
 10
16.5002848266041
 20
21.65655923937753
 30
0.0
 10
17.84387206585153
 20
23.00014647862496
 30
0.0
 10
19.50027397515965
 20
23.00014647862496
 30
0.0
 10
21.15667588446778
 20
23.00014647862496
 30
0.0
 10
22.50026312371521
 20
21.65655923937753
 30
0.0
 10
22.50026312371521
 20
20.00015733006941
 30
0.0
 10
22.50026312371521
 20
18.34306640166423
 30
0.0
 10
21.15667588446778
 20
17.00016818151385
 30
0.0
 10
19.50027397515965
 20
17.00016818151385
 30
0.0
  0
SPLINE
  5
44
330
3C
100
AcDbEntity
  8
LAYER_1
 62
   250
100
AcDbSpline
210
0.0
220
0.0
230
1.0
 70
    11
 71
     3
 72
    17
 73
    13
 74
     0
 42
0.0000000001
 43
0.0000000001
 40
0.0
 40
0.0
 40
0.0
 40
0.0
 40
1.0
 40
1.0
 40
1.0
 40
2.0
 40
2.0
 40
2.0
 40
3.0
 40
3.0
 40
3.0
 40
4.0
 40
4.0
 40
4.0
 40
4.0
 10
34.50021971793745
 20
28.50006916605207
 30
0.0
 10
33.67201876328338
 20
28.50006916605207
 30
0.0
 10
33.00022514365967
 20
29.17151827612726
 30
0.0
 10
33.00022514365967
 20
30.00006374032985
 30
0.0
 10
33.00022514365967
 20
30.82826469498391
 30
0.0
 10
33.67201876328338
 20
31.50005831460762
 30
0.0
 10
34.50021971793745
 20
31.50005831460762
 30
0.0
 10
35.32842067259151
 20
31.50005831460762
 30
0.0
 10
36.00021429221523
 20
30.82809244020964
 30
0.0
 10
36.00021429221523
 20
29.99989148555558
 30
0.0
 10
36.00021429221523
 20
29.171346021353
 30
0.0
 10
35.32842067259151
 20
28.50006916605207
 30
0.0
 10
34.50021971793745
 20
28.50006916605207
 30
0.0
  0
SPLINE
  5
45
330
3C
100
AcDbEntity
  8
LAYER_1
 62
   250
100
AcDbSpline
210
0.0
220
0.0
230
1.0
 70
    11
 71
     3
 72
    17
 73
    13
 74
     0
 42
0.0000000001
 43
0.0000000001
 40
0.0
 40
0.0
 40
0.0
 40
0.0
 40
1.0
 40
1.0
 40
1.0
 40
2.0
 40
2.0
 40
2.0
 40
3.0
 40
3.0
 40
3.0
 40
4.0
 40
4.0
 40
4.0
 40
4.0
 10
34.50021971793745
 20
27.00007459177429
 30
0.0
 10
32.84381780862932
 20
27.00007459177429
 30
0.0
 10
31.50023056938189
 20
28.34297281192467
 30
0.0
 10
31.50023056938189
 20
30.00006374032985
 30
0.0
 10
31.50023056938189
 20
31.65646564963797
 30
0.0
 10
32.84381780862932
 20
33.00005288888541
 30
0.0
 10
34.50021971793745
 20
33.00005288888541
 30
0.0
 10
36.15662162724557
 20
32.99988063411114
 30
0.0
 10
37.500208866493
 20
31.65629339486371
 30
0.0
 10
37.500208866493
 20
29.99989148555558
 30
0.0
 10
37.500208866493
 20
28.34280055715041
 30
0.0
 10
36.15662162724557
 20
26.99990233700003
 30
0.0
 10
34.50021971793745
 20
27.00007459177429
 30
0.0
  0
SPLINE
  5
46
330
3C
100
AcDbEntity
  8
LAYER_1
 62
   250
100
AcDbSpline
210
0.0
220
0.0
230
1.0
 70
    11
 71
     3
 72
    17
 73
    13
 74
     0
 42
0.0000000001
 43
0.0000000001
 40
0.0
 40
0.0
 40
0.0
 40
0.0
 40
1.0
 40
1.0
 40
1.0
 40
2.0
 40
2.0
 40
2.0
 40
3.0
 40
3.0
 40
3.0
 40
4.0
 40
4.0
 40
4.0
 40
4.0
 10
34.50021971793745
 20
18.50016275579163
 30
0.0
 10
33.67201876328338
 20
18.50016275579163
 30
0.0
 10
33.00022514365967
 20
19.17161186586682
 30
0.0
 10
33.00022514365967
 20
20.00015733006941
 30
0.0
 10
33.00022514365967
 20
20.82835828472347
 30
0.0
 10
33.67201876328338
 20
21.50015190434718
 30
0.0
 10
34.50021971793745
 20
21.50015190434718
 30
0.0
 10
35.32842067259151
 20
21.50015190434718
 30
0.0
 10
36.00021429221523
 20
20.82835828472347
 30
0.0
 10
36.00021429221523
 20
20.00015733006941
 30
0.0
 10
36.00021429221523
 20
19.17161186586682
 30
0.0
 10
35.32842067259151
 20
18.50016275579163
 30
0.0
 10
34.50021971793745
 20
18.50016275579163
 30
0.0
  0
SPLINE
  5
47
330
3C
100
AcDbEntity
  8
LAYER_1
 62
   250
100
AcDbSpline
210
0.0
220
0.0
230
1.0
 70
    11
 71
     3
 72
    17
 73
    13
 74
     0
 42
0.0000000001
 43
0.0000000001
 40
0.0
 40
0.0
 40
0.0
 40
0.0
 40
1.0
 40
1.0
 40
1.0
 40
2.0
 40
2.0
 40
2.0
 40
3.0
 40
3.0
 40
3.0
 40
4.0
 40
4.0
 40
4.0
 40
4.0
 10
34.50021971793745
 20
17.00016818151385
 30
0.0
 10
32.84381780862932
 20
17.00016818151385
 30
0.0
 10
31.50023056938189
 20
18.34306640166423
 30
0.0
 10
31.50023056938189
 20
20.00015733006941
 30
0.0
 10
31.50023056938189
 20
21.65655923937753
 30
0.0
 10
32.84381780862932
 20
23.00014647862496
 30
0.0
 10
34.50021971793745
 20
23.00014647862496
 30
0.0
 10
36.15662162724557
 20
23.00014647862496
 30
0.0
 10
37.500208866493
 20
21.65655923937753
 30
0.0
 10
37.500208866493
 20
20.00015733006941
 30
0.0
 10
37.500208866493
 20
18.34306640166423
 30
0.0
 10
36.15662162724557
 20
17.00016818151385
 30
0.0
 10
34.50021971793745
 20
17.00016818151385
 30
0.0
  0
SPLINE
  5
48
330
3C
100
AcDbEntity
  8
LAYER_1
 62
   250
100
AcDbSpline
210
0.0
220
0.0
230
1.0
 70
    11
 71
     3
 72
    17
 73
    13
 74
     0
 42
0.0000000001
 43
0.0000000001
 40
0.0
 40
0.0
 40
0.0
 40
0.0
 40
1.0
 40
1.0
 40
1.0
 40
2.0
 40
2.0
 40
2.0
 40
3.0
 40
3.0
 40
3.0
 40
4.0
 40
4.0
 40
4.0
 40
4.0
 10
84.50009627878818
 20
28.4998969112778
 30
0.0
 10
83.67189532413411
 20
28.4998969112778
 30
0.0
 10
83.0001017045104
 20
29.171346021353
 30
0.0
 10
83.0001017045104
 20
29.99989148555558
 30
0.0
 10
83.0001017045104
 20
30.82809244020964
 30
0.0
 10
83.67189532413411
 20
31.49988605983336
 30
0.0
 10
84.50009627878818
 20
31.49988605983336
 30
0.0
 10
85.32829723344223
 20
31.49988605983336
 30
0.0
 10
86.00009085306596
 20
30.82809244020964
 30
0.0
 10
86.00009085306596
 20
29.99989148555558
 30
0.0
 10
86.00009085306596
 20
29.171346021353
 30
0.0
 10
85.32829723344223
 20
28.4998969112778
 30
0.0
 10
84.50009627878818
 20
28.4998969112778
 30
0.0
  0
SPLINE
  5
49
330
3C
100
AcDbEntity
  8
LAYER_1
 62
   250
100
AcDbSpline
210
0.0
220
0.0
230
1.0
 70
    11
 71
     3
 72
    17
 73
    13
 74
     0
 42
0.0000000001
 43
0.0000000001
 40
0.0
 40
0.0
 40
0.0
 40
0.0
 40
1.0
 40
1.0
 40
1.0
 40
2.0
 40
2.0
 40
2.0
 40
3.0
 40
3.0
 40
3.0
 40
4.0
 40
4.0
 40
4.0
 40
4.0
 10
84.50009627878818
 20
26.99990233700003
 30
0.0
 10
82.84369436948005
 20
26.99990233700003
 30
0.0
 10
81.50010713023262
 20
28.34280055715041
 30
0.0
 10
81.50010713023262
 20
29.99989148555558
 30
0.0
 10
81.50010713023262
 20
31.65629339486371
 30
0.0
 10
82.84369436948005
 20
32.99988063411114
 30
0.0
 10
84.50009627878818
 20
32.99988063411114
 30
0.0
 10
86.1564981880963
 20
32.99988063411114
 30
0.0
 10
87.50008542734373
 20
31.65629339486371
 30
0.0
 10
87.50008542734373
 20
29.99989148555558
 30
0.0
 10
87.50008542734373
 20
28.34280055715041
 30
0.0
 10
86.1564981880963
 20
26.99990233700003
 30
0.0
 10
84.50009627878818
 20
26.99990233700003
 30
0.0
  0
SPLINE
  5
4A
330
3C
100
AcDbEntity
  8
LAYER_1
 62
   250
100
AcDbSpline
210
0.0
220
0.0
230
1.0
 70
    11
 71
     3
 72
    17
 73
    13
 74
     0
 42
0.0000000001
 43
0.0000000001
 40
0.0
 40
0.0
 40
0.0
 40
0.0
 40
1.0
 40
1.0
 40
1.0
 40
2.0
 40
2.0
 40
2.0
 40
3.0
 40
3.0
 40
3.0
 40
4.0
 40
4.0
 40
4.0
 40
4.0
 10
84.50009627878818
 20
18.50016275579163
 30
0.0
 10
83.67189532413411
 20
18.50016275579163
 30
0.0
 10
83.0001017045104
 20
19.17161186586682
 30
0.0
 10
83.0001017045104
 20
20.00015733006941
 30
0.0
 10
83.0001017045104
 20
20.82835828472347
 30
0.0
 10
83.67189532413411
 20
21.50015190434718
 30
0.0
 10
84.50009627878818
 20
21.50015190434718
 30
0.0
 10
85.32829723344223
 20
21.50015190434718
 30
0.0
 10
86.00009085306596
 20
20.82835828472347
 30
0.0
 10
86.00009085306596
 20
20.00015733006941
 30
0.0
 10
86.00009085306596
 20
19.17161186586682
 30
0.0
 10
85.32829723344223
 20
18.50016275579163
 30
0.0
 10
84.50009627878818
 20
18.50016275579163
 30
0.0
  0
SPLINE
  5
4B
330
3C
100
AcDbEntity
  8
LAYER_1
 62
   250
100
AcDbSpline
210
0.0
220
0.0
230
1.0
 70
    11
 71
     3
 72
    17
 73
    13
 74
     0
 42
0.0000000001
 43
0.0000000001
 40
0.0
 40
0.0
 40
0.0
 40
0.0
 40
1.0
 40
1.0
 40
1.0
 40
2.0
 40
2.0
 40
2.0
 40
3.0
 40
3.0
 40
3.0
 40
4.0
 40
4.0
 40
4.0
 40
4.0
 10
84.50009627878818
 20
17.00016818151385
 30
0.0
 10
82.84369436948005
 20
17.00016818151385
 30
0.0
 10
81.50010713023262
 20
18.34306640166423
 30
0.0
 10
81.50010713023262
 20
20.00015733006941
 30
0.0
 10
81.50010713023262
 20
21.65655923937753
 30
0.0
 10
82.84369436948005
 20
23.00014647862496
 30
0.0
 10
84.50009627878818
 20
23.00014647862496
 30
0.0
 10
86.1564981880963
 20
23.00014647862496
 30
0.0
 10
87.50008542734373
 20
21.65655923937753
 30
0.0
 10
87.50008542734373
 20
20.00015733006941
 30
0.0
 10
87.50008542734373
 20
18.34306640166423
 30
0.0
 10
86.1564981880963
 20
17.00016818151385
 30
0.0
 10
84.50009627878818
 20
17.00016818151385
 30
0.0
  0
SPLINE
  5
4C
330
3C
100
AcDbEntity
  8
LAYER_1
 62
   250
100
AcDbSpline
210
0.0
220
0.0
230
1.0
 70
    11
 71
     3
 72
    17
 73
    13
 74
     0
 42
0.0000000001
 43
0.0000000001
 40
0.0
 40
0.0
 40
0.0
 40
0.0
 40
1.0
 40
1.0
 40
1.0
 40
2.0
 40
2.0
 40
2.0
 40
3.0
 40
3.0
 40
3.0
 40
4.0
 40
4.0
 40
4.0
 40
4.0
 10
99.50004202156596
 20
28.4998969112778
 30
0.0
 10
98.67184106691191
 20
28.4998969112778
 30
0.0
 10
98.00004744728818
 20
29.171346021353
 30
0.0
 10
98.00004744728818
 20
29.99989148555558
 30
0.0
 10
98.00004744728818
 20
30.82809244020964
 30
0.0
 10
98.67184106691191
 20
31.49988605983336
 30
0.0
 10
99.50004202156596
 20
31.49988605983336
 30
0.0
 10
100.32824297622
 20
31.49988605983336
 30
0.0
 10
101.0000365958437
 20
30.82809244020964
 30
0.0
 10
101.0000365958437
 20
29.99989148555558
 30
0.0
 10
101.0000365958437
 20
29.171346021353
 30
0.0
 10
100.32824297622
 20
28.4998969112778
 30
0.0
 10
99.50004202156596
 20
28.4998969112778
 30
0.0
  0
SPLINE
  5
4D
330
3C
100
AcDbEntity
  8
LAYER_1
 62
   250
100
AcDbSpline
210
0.0
220
0.0
230
1.0
 70
    11
 71
     3
 72
    17
 73
    13
 74
     0
 42
0.0000000001
 43
0.0000000001
 40
0.0
 40
0.0
 40
0.0
 40
0.0
 40
1.0
 40
1.0
 40
1.0
 40
2.0
 40
2.0
 40
2.0
 40
3.0
 40
3.0
 40
3.0
 40
4.0
 40
4.0
 40
4.0
 40
4.0
 10
99.50004202156596
 20
26.99990233700003
 30
0.0
 10
97.84364011225784
 20
26.99990233700003
 30
0.0
 10
96.5000528730104
 20
28.34280055715041
 30
0.0
 10
96.5000528730104
 20
29.99989148555558
 30
0.0
 10
96.5000528730104
 20
31.65629339486371
 30
0.0
 10
97.84364011225784
 20
32.99988063411114
 30
0.0
 10
99.50004202156596
 20
32.99988063411114
 30
0.0
 10
101.1564439308741
 20
32.99988063411114
 30
0.0
 10
102.5000311701215
 20
31.65629339486371
 30
0.0
 10
102.5000311701215
 20
29.99989148555558
 30
0.0
 10
102.5000311701215
 20
28.34280055715041
 30
0.0
 10
101.1564439308741
 20
26.99990233700003
 30
0.0
 10
99.50004202156596
 20
26.99990233700003
 30
0.0
  0
SPLINE
  5
4E
330
3C
100
AcDbEntity
  8
LAYER_1
 62
   250
100
AcDbSpline
210
0.0
220
0.0
230
1.0
 70
    11
 71
     3
 72
    17
 73
    13
 74
     0
 42
0.0000000001
 43
0.0000000001
 40
0.0
 40
0.0
 40
0.0
 40
0.0
 40
1.0
 40
1.0
 40
1.0
 40
2.0
 40
2.0
 40
2.0
 40
3.0
 40
3.0
 40
3.0
 40
4.0
 40
4.0
 40
4.0
 40
4.0
 10
99.50004202156596
 20
18.50016275579163
 30
0.0
 10
98.67184106691191
 20
18.50016275579163
 30
0.0
 10
98.00004744728818
 20
19.17161186586682
 30
0.0
 10
98.00004744728818
 20
20.00015733006941
 30
0.0
 10
98.00004744728818
 20
20.82835828472347
 30
0.0
 10
98.67184106691191
 20
21.50015190434718
 30
0.0
 10
99.50004202156596
 20
21.50015190434718
 30
0.0
 10
100.32824297622
 20
21.50015190434718
 30
0.0
 10
101.0000365958437
 20
20.82835828472347
 30
0.0
 10
101.0000365958437
 20
20.00015733006941
 30
0.0
 10
101.0000365958437
 20
19.17161186586682
 30
0.0
 10
100.32824297622
 20
18.50016275579163
 30
0.0
 10
99.50004202156596
 20
18.50016275579163
 30
0.0
  0
SPLINE
  5
4F
330
3C
100
AcDbEntity
  8
LAYER_1
 62
   250
100
AcDbSpline
210
0.0
220
0.0
230
1.0
 70
    11
 71
     3
 72
    17
 73
    13
 74
     0
 42
0.0000000001
 43
0.0000000001
 40
0.0
 40
0.0
 40
0.0
 40
0.0
 40
1.0
 40
1.0
 40
1.0
 40
2.0
 40
2.0
 40
2.0
 40
3.0
 40
3.0
 40
3.0
 40
4.0
 40
4.0
 40
4.0
 40
4.0
 10
99.50004202156596
 20
17.00016818151385
 30
0.0
 10
97.84364011225784
 20
17.00016818151385
 30
0.0
 10
96.5000528730104
 20
18.34306640166423
 30
0.0
 10
96.5000528730104
 20
20.00015733006941
 30
0.0
 10
96.5000528730104
 20
21.65655923937753
 30
0.0
 10
97.84364011225784
 20
23.00014647862496
 30
0.0
 10
99.50004202156596
 20
23.00014647862496
 30
0.0
 10
101.1564439308741
 20
23.00014647862496
 30
0.0
 10
102.5000311701215
 20
21.65655923937753
 30
0.0
 10
102.5000311701215
 20
20.00015733006941
 30
0.0
 10
102.5000311701215
 20
18.34306640166423
 30
0.0
 10
101.1564439308741
 20
17.00016818151385
 30
0.0
 10
99.50004202156596
 20
17.00016818151385
 30
0.0
  0
SPLINE
  5
50
330
3C
100
AcDbEntity
  8
LAYER_1
 62
   250
100
AcDbSpline
210
0.0
220
0.0
230
1.0
 70
    11
 71
     3
 72
    17
 73
    13
 74
     0
 42
0.0000000001
 43
0.0000000001
 40
0.0
 40
0.0
 40
0.0
 40
0.0
 40
1.0
 40
1.0
 40
1.0
 40
2.0
 40
2.0
 40
2.0
 40
3.0
 40
3.0
 40
3.0
 40
4.0
 40
4.0
 40
4.0
 40
4.0
 10
72.0002563296562
 20
42.94587130002742
 30
0.0
 10
71.1717108654536
 20
42.94587130002742
 30
0.0
 10
70.5002617553784
 20
43.61732041010261
 30
0.0
 10
70.5002617553784
 20
44.44586587430521
 30
0.0
 10
70.5002617553784
 20
45.27406682895926
 30
0.0
 10
71.1717108654536
 20
45.94586044858298
 30
0.0
 10
72.0002563296562
 20
45.94586044858298
 30
0.0
 10
72.82845728431025
 20
45.94586044858298
 30
0.0
 10
73.50025090393397
 20
45.27406682895926
 30
0.0
 10
73.50025090393397
 20
44.44586587430521
 30
0.0
 10
73.50025090393397
 20
43.61732041010261
 30
0.0
 10
72.82845728431025
 20
42.94587130002742
 30
0.0
 10
72.0002563296562
 20
42.94587130002742
 30
0.0
  0
SPLINE
  5
51
330
3C
100
AcDbEntity
  8
LAYER_1
 62
   250
100
AcDbSpline
210
0.0
220
0.0
230
1.0
 70
    11
 71
     3
 72
    17
 73
    13
 74
     0
 42
0.0000000001
 43
0.0000000001
 40
0.0
 40
0.0
 40
0.0
 40
0.0
 40
1.0
 40
1.0
 40
1.0
 40
2.0
 40
2.0
 40
2.0
 40
3.0
 40
3.0
 40
3.0
 40
4.0
 40
4.0
 40
4.0
 40
4.0
 10
72.0002563296562
 20
33.94555934481222
 30
0.0
 10
71.17205537500213
 20
33.94555934481222
 30
0.0
 10
70.5002617553784
 20
34.61700845488742
 30
0.0
 10
70.5002617553784
 20
35.44555391909
 30
0.0
 10
70.5002617553784
 20
36.27375487374406
 30
0.0
 10
71.17205537500213
 20
36.94554849336778
 30
0.0
 10
72.0002563296562
 20
36.94554849336778
 30
0.0
 10
72.82845728431025
 20
36.94554849336778
 30
0.0
 10
73.50025090393397
 20
36.27375487374406
 30
0.0
 10
73.50025090393397
 20
35.44555391909
 30
0.0
 10
73.50025090393397
 20
34.61700845488742
 30
0.0
 10
72.82845728431025
 20
33.94555934481222
 30
0.0
 10
72.0002563296562
 20
33.94555934481222
 30
0.0
  0
SPLINE
  5
52
330
3C
100
AcDbEntity
  8
LAYER_1
 62
   250
100
AcDbSpline
210
0.0
220
0.0
230
1.0
 70
    11
 71
     3
 72
    17
 73
    13
 74
     0
 42
0.0000000001
 43
0.0000000001
 40
0.0
 40
0.0
 40
0.0
 40
0.0
 40
1.0
 40
1.0
 40
1.0
 40
2.0
 40
2.0
 40
2.0
 40
3.0
 40
3.0
 40
3.0
 40
4.0
 40
4.0
 40
4.0
 40
4.0
 10
5.999978297111117
 20
42.94604355480168
 30
0.0
 10
5.171777342457056
 20
42.94604355480168
 30
0.0
 10
4.499983722833337
 20
43.61749266487688
 30
0.0
 10
4.499983722833337
 20
44.44603812907946
 30
0.0
 10
4.499983722833337
 20
45.27423908373353
 30
0.0
 10
5.171777342457056
 20
45.94603270335725
 30
0.0
 10
5.999978297111117
 20
45.94603270335725
 30
0.0
 10
6.828179251765178
 20
45.94603270335725
 30
0.0
 10
7.499972871388896
 20
45.27423908373353
 30
0.0
 10
7.499972871388896
 20
44.44603812907946
 30
0.0
 10
7.499972871388896
 20
43.61749266487688
 30
0.0
 10
6.828179251765178
 20
42.94604355480168
 30
0.0
 10
5.999978297111117
 20
42.94604355480168
 30
0.0
  0
SPLINE
  5
53
330
3C
100
AcDbEntity
  8
LAYER_1
 62
   250
100
AcDbSpline
210
0.0
220
0.0
230
1.0
 70
    11
 71
     3
 72
    17
 73
    13
 74
     0
 42
0.0000000001
 43
0.0000000001
 40
0.0
 40
0.0
 40
0.0
 40
0.0
 40
1.0
 40
1.0
 40
1.0
 40
2.0
 40
2.0
 40
2.0
 40
3.0
 40
3.0
 40
3.0
 40
4.0
 40
4.0
 40
4.0
 40
4.0
 10
5.999978297111117
 20
33.94573159958649
 30
0.0
 10
5.171777342457056
 20
33.94573159958649
 30
0.0
 10
4.499983722833337
 20
34.61718070966168
 30
0.0
 10
4.499983722833337
 20
35.44572617386427
 30
0.0
 10
4.499983722833337
 20
36.27392712851832
 30
0.0
 10
5.171777342457056
 20
36.94572074814204
 30
0.0
 10
5.999978297111117
 20
36.94572074814204
 30
0.0
 10
6.828179251765178
 20
36.94572074814204
 30
0.0
 10
7.499972871388896
 20
36.27392712851832
 30
0.0
 10
7.499972871388896
 20
35.44572617386427
 30
0.0
 10
7.499972871388896
 20
34.61718070966168
 30
0.0
 10
6.828179251765178
 20
33.94573159958649
 30
0.0
 10
5.999978297111117
 20
33.94573159958649
 30
0.0
  0
SPLINE
  5
54
330
3C
100
AcDbEntity
  8
LAYER_1
 62
   250
100
AcDbSpline
210
0.0
220
0.0
230
1.0
 70
    11
 71
     3
 72
    17
 73
    13
 74
     0
 42
0.0000000001
 43
0.0000000001
 40
0.0
 40
0.0
 40
0.0
 40
0.0
 40
1.0
 40
1.0
 40
1.0
 40
2.0
 40
2.0
 40
2.0
 40
3.0
 40
3.0
 40
3.0
 40
4.0
 40
4.0
 40
4.0
 40
4.0
 10
72.0002563296562
 20
12.94597981447184
 30
0.0
 10
71.1717108654536
 20
12.94597981447184
 30
0.0
 10
70.5002617553784
 20
13.61742892454703
 30
0.0
 10
70.5002617553784
 20
14.44597438874962
 30
0.0
 10
70.5002617553784
 20
15.27417534340368
 30
0.0
 10
71.1717108654536
 20
15.9459689630274
 30
0.0
 10
72.0002563296562
 20
15.9459689630274
 30
0.0
 10
72.82845728431025
 20
15.9459689630274
 30
0.0
 10
73.50025090393397
 20
15.27417534340368
 30
0.0
 10
73.50025090393397
 20
14.44597438874962
 30
0.0
 10
73.50025090393397
 20
13.61742892454703
 30
0.0
 10
72.82845728431025
 20
12.94597981447184
 30
0.0
 10
72.0002563296562
 20
12.94597981447184
 30
0.0
  0
SPLINE
  5
55
330
3C
100
AcDbEntity
  8
LAYER_1
 62
   250
100
AcDbSpline
210
0.0
220
0.0
230
1.0
 70
    11
 71
     3
 72
    17
 73
    13
 74
     0
 42
0.0000000001
 43
0.0000000001
 40
0.0
 40
0.0
 40
0.0
 40
0.0
 40
1.0
 40
1.0
 40
1.0
 40
2.0
 40
2.0
 40
2.0
 40
3.0
 40
3.0
 40
3.0
 40
4.0
 40
4.0
 40
4.0
 40
4.0
 10
72.0002563296562
 20
3.945667859256639
 30
0.0
 10
71.17205537500213
 20
3.945667859256639
 30
0.0
 10
70.5002617553784
 20
4.617116969331832
 30
0.0
 10
70.5002617553784
 20
5.445662433534418
 30
0.0
 10
70.5002617553784
 20
6.273863388188479
 30
0.0
 10
71.17205537500213
 20
6.945657007812197
 30
0.0
 10
72.0002563296562
 20
6.945657007812197
 30
0.0
 10
72.82845728431025
 20
6.945657007812197
 30
0.0
 10
73.50025090393397
 20
6.273863388188479
 30
0.0
 10
73.50025090393397
 20
5.445662433534418
 30
0.0
 10
73.50025090393397
 20
4.617116969331832
 30
0.0
 10
72.82845728431025
 20
3.945667859256639
 30
0.0
 10
72.0002563296562
 20
3.945667859256639
 30
0.0
  0
SPLINE
  5
56
330
3C
100
AcDbEntity
  8
LAYER_1
 62
   250
100
AcDbSpline
210
0.0
220
0.0
230
1.0
 70
    11
 71
     3
 72
    17
 73
    13
 74
     0
 42
0.0000000001
 43
0.0000000001
 40
0.0
 40
0.0
 40
0.0
 40
0.0
 40
1.0
 40
1.0
 40
1.0
 40
2.0
 40
2.0
 40
2.0
 40
3.0
 40
3.0
 40
3.0
 40
4.0
 40
4.0
 40
4.0
 40
4.0
 10
5.999978297111117
 20
12.94597981447184
 30
0.0
 10
5.171777342457056
 20
12.94597981447184
 30
0.0
 10
4.499983722833337
 20
13.61742892454703
 30
0.0
 10
4.499983722833337
 20
14.44597438874962
 30
0.0
 10
4.499983722833337
 20
15.27417534340368
 30
0.0
 10
5.171777342457056
 20
15.9459689630274
 30
0.0
 10
5.999978297111117
 20
15.9459689630274
 30
0.0
 10
6.828179251765178
 20
15.9459689630274
 30
0.0
 10
7.499972871388896
 20
15.27417534340368
 30
0.0
 10
7.499972871388896
 20
14.44597438874962
 30
0.0
 10
7.499972871388896
 20
13.61742892454703
 30
0.0
 10
6.828179251765178
 20
12.94597981447184
 30
0.0
 10
5.999978297111117
 20
12.94597981447184
 30
0.0
  0
SPLINE
  5
57
330
3C
100
AcDbEntity
  8
LAYER_1
 62
   250
100
AcDbSpline
210
0.0
220
0.0
230
1.0
 70
    11
 71
     3
 72
    17
 73
    13
 74
     0
 42
0.0000000001
 43
0.0000000001
 40
0.0
 40
0.0
 40
0.0
 40
0.0
 40
1.0
 40
1.0
 40
1.0
 40
2.0
 40
2.0
 40
2.0
 40
3.0
 40
3.0
 40
3.0
 40
4.0
 40
4.0
 40
4.0
 40
4.0
 10
5.999978297111117
 20
3.945667859256639
 30
0.0
 10
5.171777342457056
 20
3.945667859256639
 30
0.0
 10
4.499983722833337
 20
4.617116969331832
 30
0.0
 10
4.499983722833337
 20
5.445662433534418
 30
0.0
 10
4.499983722833337
 20
6.273863388188479
 30
0.0
 10
5.171777342457056
 20
6.945657007812197
 30
0.0
 10
5.999978297111117
 20
6.945657007812197
 30
0.0
 10
6.828179251765178
 20
6.945657007812197
 30
0.0
 10
7.499972871388896
 20
6.273863388188479
 30
0.0
 10
7.499972871388896
 20
5.445662433534418
 30
0.0
 10
7.499972871388896
 20
4.617116969331832
 30
0.0
 10
6.828179251765178
 20
3.945667859256639
 30
0.0
 10
5.999978297111117
 20
3.945667859256639
 30
0.0
  0
SPLINE
  5
58
330
3C
100
AcDbEntity
  8
LAYER_1
 62
   250
100
AcDbSpline
210
0.0
220
0.0
230
1.0
 70
    11
 71
     3
 72
    17
 73
    13
 74
     0
 42
0.0000000001
 43
0.0000000001
 40
0.0
 40
0.0
 40
0.0
 40
0.0
 40
1.0
 40
1.0
 40
1.0
 40
2.0
 40
2.0
 40
2.0
 40
3.0
 40
3.0
 40
3.0
 40
4.0
 40
4.0
 40
4.0
 40
4.0
 10
105.0001369637673
 20
42.94587130002742
 30
0.0
 10
104.1719360091133
 20
42.94587130002742
 30
0.0
 10
103.5001423894896
 20
43.61732041010261
 30
0.0
 10
103.5001423894896
 20
44.44586587430521
 30
0.0
 10
103.5001423894896
 20
45.27406682895926
 30
0.0
 10
104.1719360091133
 20
45.94586044858298
 30
0.0
 10
105.0001369637673
 20
45.94586044858298
 30
0.0
 10
105.8283379184214
 20
45.94586044858298
 30
0.0
 10
106.5001315380451
 20
45.27406682895926
 30
0.0
 10
106.5001315380451
 20
44.44586587430521
 30
0.0
 10
106.5001315380451
 20
43.61732041010261
 30
0.0
 10
105.8283379184214
 20
42.94587130002742
 30
0.0
 10
105.0001369637673
 20
42.94587130002742
 30
0.0
  0
SPLINE
  5
59
330
3C
100
AcDbEntity
  8
LAYER_1
 62
   250
100
AcDbSpline
210
0.0
220
0.0
230
1.0
 70
    11
 71
     3
 72
    17
 73
    13
 74
     0
 42
0.0000000001
 43
0.0000000001
 40
0.0
 40
0.0
 40
0.0
 40
0.0
 40
1.0
 40
1.0
 40
1.0
 40
2.0
 40
2.0
 40
2.0
 40
3.0
 40
3.0
 40
3.0
 40
4.0
 40
4.0
 40
4.0
 40
4.0
 10
105.0001369637673
 20
41.44587672574964
 30
0.0
 10
103.3437350544592
 20
41.44587672574964
 30
0.0
 10
102.0001478152118
 20
42.78877494590003
 30
0.0
 10
102.0001478152118
 20
44.44586587430521
 30
0.0
 10
102.0001478152118
 20
46.10226778361332
 30
0.0
 10
103.3437350544592
 20
47.44585502286076
 30
0.0
 10
105.0001369637673
 20
47.44585502286076
 30
0.0
 10
106.6565388730754
 20
47.44585502286076
 30
0.0
 10
108.0001261123229
 20
46.10226778361332
 30
0.0
 10
108.0001261123229
 20
44.44586587430521
 30
0.0
 10
108.0001261123229
 20
42.78877494590003
 30
0.0
 10
106.6565388730754
 20
41.44587672574964
 30
0.0
 10
105.0001369637673
 20
41.44587672574964
 30
0.0
  0
SPLINE
  5
5A
330
3C
100
AcDbEntity
  8
LAYER_1
 62
   250
100
AcDbSpline
210
0.0
220
0.0
230
1.0
 70
    11
 71
     3
 72
    17
 73
    13
 74
     0
 42
0.0000000001
 43
0.0000000001
 40
0.0
 40
0.0
 40
0.0
 40
0.0
 40
1.0
 40
1.0
 40
1.0
 40
2.0
 40
2.0
 40
2.0
 40
3.0
 40
3.0
 40
3.0
 40
4.0
 40
4.0
 40
4.0
 40
4.0
 10
105.0001369637673
 20
33.94555934481222
 30
0.0
 10
104.1719360091133
 20
33.94555934481222
 30
0.0
 10
103.5001423894896
 20
34.61700845488742
 30
0.0
 10
103.5001423894896
 20
35.44555391909
 30
0.0
 10
103.5001423894896
 20
36.27375487374406
 30
0.0
 10
104.1719360091133
 20
36.94554849336778
 30
0.0
 10
105.0001369637673
 20
36.94554849336778
 30
0.0
 10
105.8283379184214
 20
36.94554849336778
 30
0.0
 10
106.5001315380451
 20
36.27375487374406
 30
0.0
 10
106.5001315380451
 20
35.44555391909
 30
0.0
 10
106.5001315380451
 20
34.61700845488742
 30
0.0
 10
105.8283379184214
 20
33.94555934481222
 30
0.0
 10
105.0001369637673
 20
33.94555934481222
 30
0.0
  0
SPLINE
  5
5B
330
3C
100
AcDbEntity
  8
LAYER_1
 62
   250
100
AcDbSpline
210
0.0
220
0.0
230
1.0
 70
    11
 71
     3
 72
    17
 73
    13
 74
     0
 42
0.0000000001
 43
0.0000000001
 40
0.0
 40
0.0
 40
0.0
 40
0.0
 40
1.0
 40
1.0
 40
1.0
 40
2.0
 40
2.0
 40
2.0
 40
3.0
 40
3.0
 40
3.0
 40
4.0
 40
4.0
 40
4.0
 40
4.0
 10
105.0004814733159
 20
32.44556477053445
 30
0.0
 10
103.3440795640077
 20
32.44556477053445
 30
0.0
 10
102.0004923247603
 20
33.78846299068483
 30
0.0
 10
102.0004923247603
 20
35.44555391909
 30
0.0
 10
102.0004923247603
 20
37.10195582839813
 30
0.0
 10
103.3440795640077
 20
38.44554306764556
 30
0.0
 10
105.0004814733159
 20
38.44554306764556
 30
0.0
 10
106.656883382624
 20
38.44554306764556
 30
0.0
 10
108.0004706218714
 20
37.10195582839813
 30
0.0
 10
108.0004706218714
 20
35.44555391909
 30
0.0
 10
108.0004706218714
 20
33.78846299068483
 30
0.0
 10
106.656883382624
 20
32.44556477053445
 30
0.0
 10
105.0004814733159
 20
32.44556477053445
 30
0.0
  0
SPLINE
  5
5C
330
3C
100
AcDbEntity
  8
LAYER_1
 62
   250
100
AcDbSpline
210
0.0
220
0.0
230
1.0
 70
    11
 71
     3
 72
    17
 73
    13
 74
     0
 42
0.0000000001
 43
0.0000000001
 40
0.0
 40
0.0
 40
0.0
 40
0.0
 40
1.0
 40
1.0
 40
1.0
 40
2.0
 40
2.0
 40
2.0
 40
3.0
 40
3.0
 40
3.0
 40
4.0
 40
4.0
 40
4.0
 40
4.0
 10
105.0001369637673
 20
12.94597981447184
 30
0.0
 10
104.1719360091133
 20
12.94597981447184
 30
0.0
 10
103.5001423894896
 20
13.61742892454703
 30
0.0
 10
103.5001423894896
 20
14.44597438874962
 30
0.0
 10
103.5001423894896
 20
15.27417534340368
 30
0.0
 10
104.1719360091133
 20
15.9459689630274
 30
0.0
 10
105.0001369637673
 20
15.9459689630274
 30
0.0
 10
105.8283379184214
 20
15.9459689630274
 30
0.0
 10
106.5001315380451
 20
15.27417534340368
 30
0.0
 10
106.5001315380451
 20
14.44597438874962
 30
0.0
 10
106.5001315380451
 20
13.61742892454703
 30
0.0
 10
105.8283379184214
 20
12.94597981447184
 30
0.0
 10
105.0001369637673
 20
12.94597981447184
 30
0.0
  0
SPLINE
  5
5D
330
3C
100
AcDbEntity
  8
LAYER_1
 62
   250
100
AcDbSpline
210
0.0
220
0.0
230
1.0
 70
    11
 71
     3
 72
    17
 73
    13
 74
     0
 42
0.0000000001
 43
0.0000000001
 40
0.0
 40
0.0
 40
0.0
 40
0.0
 40
1.0
 40
1.0
 40
1.0
 40
2.0
 40
2.0
 40
2.0
 40
3.0
 40
3.0
 40
3.0
 40
4.0
 40
4.0
 40
4.0
 40
4.0
 10
105.0004814733159
 20
11.44598524019406
 30
0.0
 10
103.3440795640077
 20
11.44598524019406
 30
0.0
 10
102.0004923247603
 20
12.78888346034445
 30
0.0
 10
102.0004923247603
 20
14.44597438874962
 30
0.0
 10
102.0004923247603
 20
16.10237629805774
 30
0.0
 10
103.3440795640077
 20
17.44596353730518
 30
0.0
 10
105.0004814733159
 20
17.44596353730518
 30
0.0
 10
106.656883382624
 20
17.44596353730518
 30
0.0
 10
108.0004706218714
 20
16.10237629805774
 30
0.0
 10
108.0004706218714
 20
14.44597438874962
 30
0.0
 10
108.0004706218714
 20
12.78888346034445
 30
0.0
 10
106.656883382624
 20
11.44598524019406
 30
0.0
 10
105.0004814733159
 20
11.44598524019406
 30
0.0
  0
SPLINE
  5
5E
330
3C
100
AcDbEntity
  8
LAYER_1
 62
   250
100
AcDbSpline
210
0.0
220
0.0
230
1.0
 70
    11
 71
     3
 72
    17
 73
    13
 74
     0
 42
0.0000000001
 43
0.0000000001
 40
0.0
 40
0.0
 40
0.0
 40
0.0
 40
1.0
 40
1.0
 40
1.0
 40
2.0
 40
2.0
 40
2.0
 40
3.0
 40
3.0
 40
3.0
 40
4.0
 40
4.0
 40
4.0
 40
4.0
 10
105.0001369637673
 20
3.38446180470944
 30
0.0
 10
104.1719360091133
 20
3.38446180470944
 30
0.0
 10
103.5001423894896
 20
4.055910914784634
 30
0.0
 10
103.5001423894896
 20
4.88445637898722
 30
0.0
 10
103.5001423894896
 20
5.71265733364128
 30
0.0
 10
104.1719360091133
 20
6.384450953264999
 30
0.0
 10
105.0001369637673
 20
6.384450953264999
 30
0.0
 10
105.8283379184214
 20
6.384450953264999
 30
0.0
 10
106.5001315380451
 20
5.71265733364128
 30
0.0
 10
106.5001315380451
 20
4.88445637898722
 30
0.0
 10
106.5001315380451
 20
4.055910914784634
 30
0.0
 10
105.8283379184214
 20
3.38446180470944
 30
0.0
 10
105.0001369637673
 20
3.38446180470944
 30
0.0
  0
SPLINE
  5
5F
330
3C
100
AcDbEntity
  8
LAYER_1
 62
   250
100
AcDbSpline
210
0.0
220
0.0
230
1.0
 70
    11
 71
     3
 72
    17
 73
    13
 74
     0
 42
0.0000000001
 43
0.0000000001
 40
0.0
 40
0.0
 40
0.0
 40
0.0
 40
1.0
 40
1.0
 40
1.0
 40
2.0
 40
2.0
 40
2.0
 40
3.0
 40
3.0
 40
3.0
 40
4.0
 40
4.0
 40
4.0
 40
4.0
 10
105.0004814733159
 20
1.884467230431661
 30
0.0
 10
103.3440795640077
 20
1.884467230431661
 30
0.0
 10
102.0004923247603
 20
3.227365450582047
 30
0.0
 10
102.0004923247603
 20
4.88445637898722
 30
0.0
 10
102.0004923247603
 20
6.540858288295341
 30
0.0
 10
103.3440795640077
 20
7.884445527542778
 30
0.0
 10
105.0004814733159
 20
7.884445527542778
 30
0.0
 10
106.656883382624
 20
7.884445527542778
 30
0.0
 10
108.0004706218714
 20
6.540858288295341
 30
0.0
 10
108.0004706218714
 20
4.88445637898722
 30
0.0
 10
108.0004706218714
 20
3.227365450582047
 30
0.0
 10
106.656883382624
 20
1.884467230431661
 30
0.0
 10
105.0004814733159
 20
1.884467230431661
 30
0.0
  0
SPLINE
  5
60
330
3C
100
AcDbEntity
  8
LAYER_1
100
AcDbSpline
210
0.0
220
0.0
230
1.0
 70
    11
 71
     3
 72
    14
 73
    10
 74
     0
 42
0.0000000001
 43
0.0000000001
 40
0.0
 40
0.0
 40
0.0
 40
0.0
 40
1.0
 40
1.0
 40
1.0
 40
2.0
 40
2.0
 40
2.0
 40
3.0
 40
3.0
 40
3.0
 40
3.0
 10
102.0004923247603
 20
10.45104166405391
 30
0.0
 10
102.0004923247603
 20
10.45104166405391
 30
0.0
 10
102.0004923247603
 20
8.878700084585882
 30
0.0
 10
102.0004923247603
 20
8.878700084585882
 30
0.0
 10
102.4586900242985
 20
9.223209633110864
 30
0.0
 10
102.9751098375375
 20
9.493305119154451
 30
0.0
 10
103.5359713825361
 20
9.66521538386842
 30
0.0
 10
102.9751098375375
 20
9.83678113903386
 30
0.0
 10
102.4586900242985
 20
10.10687662507745
 30
0.0
 10
102.0004923247603
 20
10.45104166405391
 30
0.0
  0
SPLINE
  5
61
330
3C
100
AcDbEntity
  8
LAYER_1
100
AcDbSpline
210
0.0
220
0.0
230
1.0
 70
    11
 71
     3
 72
    14
 73
    10
 74
     0
 42
0.0000000001
 43
0.0000000001
 40
0.0
 40
0.0
 40
0.0
 40
0.0
 40
1.0
 40
1.0
 40
1.0
 40
2.0
 40
2.0
 40
2.0
 40
3.0
 40
3.0
 40
3.0
 40
3.0
 10
102.0001478152118
 20
40.45437824509474
 30
0.0
 10
102.0001478152118
 20
40.45437824509474
 30
0.0
 10
102.0001478152118
 20
39.43635252920341
 30
0.0
 10
102.0001478152118
 20
39.43635252920341
 30
0.0
 10
102.2595635052511
 20
39.63134493366856
 30
0.0
 10
102.5375827109108
 20
39.80325519838252
 30
0.0
 10
102.8324828844481
 20
39.94553764192334
 30
0.0
 10
102.5375827109108
 20
40.08782008546416
 30
0.0
 10
102.2595635052511
 20
40.25973035017812
 30
0.0
 10
102.0001478152118
 20
40.45437824509474
 30
0.0
  0
SPLINE
  5
62
330
3C
100
AcDbEntity
  8
LAYER_1
 62
     7
100
AcDbSpline
210
0.0
220
0.0
230
1.0
 70
    11
 71
     3
 72
    29
 73
    25
 74
     0
 42
0.0000000001
 43
0.0000000001
 40
0.0
 40
0.0
 40
0.0
 40
0.0
 40
1.0
 40
1.0
 40
1.0
 40
2.0
 40
2.0
 40
2.0
 40
3.0
 40
3.0
 40
3.0
 40
4.0
 40
4.0
 40
4.0
 40
5.0
 40
5.0
 40
5.0
 40
6.0
 40
6.0
 40
6.0
 40
7.0
 40
7.0
 40
7.0
 40
8.0
 40
8.0
 40
8.0
 40
8.0
 10
102.0001478152118
 20
39.43635252920341
 30
0.0
 10
102.0001478152118
 20
39.43635252920341
 30
0.0
 10
102.0001478152118
 20
40.45437824509474
 30
0.0
 10
102.0001478152118
 20
40.45437824509474
 30
0.0
 10
100.7871296948553
 20
41.3652614913948
 30
0.0
 10
99.99992537647572
 20
42.81151257610268
 30
0.0
 10
99.99992537647572
 20
44.44586587430521
 30
0.0
 10
99.99992537647572
 20
44.44586587430521
 30
0.0
 10
76.0007012071283
 20
44.44586587430521
 30
0.0
 10
76.0007012071283
 20
44.44586587430521
 30
0.0
 10
76.0007012071283
 20
43.07954100485512
 30
0.0
 10
75.31512720556358
 20
41.8754801327603
 30
0.0
 10
74.27057425443583
 20
41.15373262860046
 30
0.0
 10
74.27057425443583
 20
41.15373262860046
 30
0.0
 10
74.27057425443583
 20
38.73734265524622
 30
0.0
 10
74.27057425443583
 20
38.73734265524622
 30
0.0
 10
75.31512720556358
 20
38.01525064153785
 30
0.0
 10
76.0007012071283
 20
36.81084525989451
 30
0.0
 10
76.0007012071283
 20
35.44555391909
 30
0.0
 10
76.0007012071283
 20
35.44555391909
 30
0.0
 10
100.0002698860242
 20
35.44555391909
 30
0.0
 10
100.0002698860242
 20
35.44555391909
 30
0.0
 10
100.0002698860242
 20
37.07921819819548
 30
0.0
 10
100.7874742044038
 20
38.52512477335483
 30
0.0
 10
102.0001478152118
 20
39.43635252920341
 30
0.0
  0
SPLINE
  5
63
330
3C
100
AcDbEntity
  8
LAYER_1
 62
     7
100
AcDbSpline
210
0.0
220
0.0
230
1.0
 70
    11
 71
     3
 72
    32
 73
    28
 74
     0
 42
0.0000000001
 43
0.0000000001
 40
0.0
 40
0.0
 40
0.0
 40
0.0
 40
1.0
 40
1.0
 40
1.0
 40
2.0
 40
2.0
 40
2.0
 40
3.0
 40
3.0
 40
3.0
 40
4.0
 40
4.0
 40
4.0
 40
5.0
 40
5.0
 40
5.0
 40
6.0
 40
6.0
 40
6.0
 40
7.0
 40
7.0
 40
7.0
 40
8.0
 40
8.0
 40
8.0
 40
9.0
 40
9.0
 40
9.0
 40
9.0
 10
102.0004923247603
 20
8.878700084585882
 30
0.0
 10
102.0004923247603
 20
8.878700084585882
 30
0.0
 10
102.0004923247603
 20
10.45104166405391
 30
0.0
 10
102.0004923247603
 20
10.45104166405391
 30
0.0
 10
100.7874742044038
 20
11.36295843899954
 30
0.0
 10
100.0002698860242
 20
12.81093207145005
 30
0.0
 10
100.0002698860242
 20
14.44597438874962
 30
0.0
 10
100.0002698860242
 20
14.44597438874962
 30
0.0
 10
76.0007012071283
 20
14.44597438874962
 30
0.0
 10
76.0007012071283
 20
14.44597438874962
 30
0.0
 10
76.0007012071283
 20
13.07964951929953
 30
0.0
 10
75.31512720556358
 20
11.87558864720472
 30
0.0
 10
74.27057425443583
 20
11.15384114304487
 30
0.0
 10
74.27057425443583
 20
11.15384114304487
 30
0.0
 10
74.27057425443583
 20
8.737451169690637
 30
0.0
 10
74.27057425443583
 20
8.737451169690637
 30
0.0
 10
75.31512720556358
 20
8.015359155982273
 30
0.0
 10
76.0007012071283
 20
6.810953774338929
 30
0.0
 10
76.0007012071283
 20
5.445662433534418
 30
0.0
 10
76.0007012071283
 20
5.254804143651577
 30
0.0
 10
75.982786710605
 20
5.068424477899561
 30
0.0
 10
75.95660398491711
 20
4.88445637898722
 30
0.0
 10
75.95660398491711
 20
4.88445637898722
 30
0.0
 10
100.0002698860242
 20
4.88445637898722
 30
0.0
 10
100.0002698860242
 20
4.88445637898722
 30
0.0
 10
100.0002698860242
 20
6.518465167641217
 30
0.0
 10
100.7874742044038
 20
7.966438800091724
 30
0.0
 10
102.0004923247603
 20
8.878700084585882
 30
0.0
  0
SPLINE
  5
64
330
3C
100
AcDbEntity
  8
LAYER_1
 62
   250
100
AcDbSpline
210
0.0
220
0.0
230
1.0
 70
    11
 71
     3
 72
    17
 73
    13
 74
     0
 42
0.0000000001
 43
0.0000000001
 40
0.0
 40
0.0
 40
0.0
 40
0.0
 40
1.0
 40
1.0
 40
1.0
 40
2.0
 40
2.0
 40
2.0
 40
3.0
 40
3.0
 40
3.0
 40
4.0
 40
4.0
 40
4.0
 40
4.0
 10
14.00086805205534
 20
42.94604355480168
 30
0.0
 10
13.17266709740128
 20
42.94604355480168
 30
0.0
 10
12.50087347777756
 20
43.61749266487688
 30
0.0
 10
12.50087347777756
 20
44.44603812907946
 30
0.0
 10
12.50087347777756
 20
45.27423908373353
 30
0.0
 10
13.17266709740128
 20
45.94603270335725
 30
0.0
 10
14.00086805205534
 20
45.94603270335725
 30
0.0
 10
14.8290690067094
 20
45.94603270335725
 30
0.0
 10
15.50086262633312
 20
45.27423908373353
 30
0.0
 10
15.50086262633312
 20
44.44603812907946
 30
0.0
 10
15.50086262633312
 20
43.61749266487688
 30
0.0
 10
14.8290690067094
 20
42.94604355480168
 30
0.0
 10
14.00086805205534
 20
42.94604355480168
 30
0.0
  0
SPLINE
  5
65
330
3C
100
AcDbEntity
  8
LAYER_1
 62
   250
100
AcDbSpline
210
0.0
220
0.0
230
1.0
 70
    11
 71
     3
 72
    17
 73
    13
 74
     0
 42
0.0000000001
 43
0.0000000001
 40
0.0
 40
0.0
 40
0.0
 40
0.0
 40
1.0
 40
1.0
 40
1.0
 40
2.0
 40
2.0
 40
2.0
 40
3.0
 40
3.0
 40
3.0
 40
4.0
 40
4.0
 40
4.0
 40
4.0
 10
14.00086805205534
 20
41.4460489805239
 30
0.0
 10
12.34446614274722
 20
41.4460489805239
 30
0.0
 10
11.00087890349978
 20
42.78894720067429
 30
0.0
 10
11.00087890349978
 20
44.44603812907946
 30
0.0
 10
11.00087890349978
 20
46.10244003838758
 30
0.0
 10
12.34446614274722
 20
47.44602727763503
 30
0.0
 10
14.00086805205534
 20
47.44602727763503
 30
0.0
 10
15.65726996136346
 20
47.44602727763503
 30
0.0
 10
17.0008572006109
 20
46.10244003838758
 30
0.0
 10
17.0008572006109
 20
44.44603812907946
 30
0.0
 10
17.0008572006109
 20
42.78894720067429
 30
0.0
 10
15.65726996136346
 20
41.4460489805239
 30
0.0
 10
14.00086805205534
 20
41.4460489805239
 30
0.0
  0
SPLINE
  5
66
330
3C
100
AcDbEntity
  8
LAYER_1
 62
   250
100
AcDbSpline
210
0.0
220
0.0
230
1.0
 70
    11
 71
     3
 72
    17
 73
    13
 74
     0
 42
0.0000000001
 43
0.0000000001
 40
0.0
 40
0.0
 40
0.0
 40
0.0
 40
1.0
 40
1.0
 40
1.0
 40
2.0
 40
2.0
 40
2.0
 40
3.0
 40
3.0
 40
3.0
 40
4.0
 40
4.0
 40
4.0
 40
4.0
 10
14.00086805205534
 20
33.94573159958649
 30
0.0
 10
13.17266709740128
 20
33.94573159958649
 30
0.0
 10
12.50087347777756
 20
34.61718070966168
 30
0.0
 10
12.50087347777756
 20
35.44572617386427
 30
0.0
 10
12.50087347777756
 20
36.27392712851832
 30
0.0
 10
13.17266709740128
 20
36.94572074814204
 30
0.0
 10
14.00086805205534
 20
36.94572074814204
 30
0.0
 10
14.8290690067094
 20
36.94572074814204
 30
0.0
 10
15.50086262633312
 20
36.27392712851832
 30
0.0
 10
15.50086262633312
 20
35.44572617386427
 30
0.0
 10
15.50086262633312
 20
34.61718070966168
 30
0.0
 10
14.8290690067094
 20
33.94573159958649
 30
0.0
 10
14.00086805205534
 20
33.94573159958649
 30
0.0
  0
SPLINE
  5
67
330
3C
100
AcDbEntity
  8
LAYER_1
 62
   250
100
AcDbSpline
210
0.0
220
0.0
230
1.0
 70
    11
 71
     3
 72
    17
 73
    13
 74
     0
 42
0.0000000001
 43
0.0000000001
 40
0.0
 40
0.0
 40
0.0
 40
0.0
 40
1.0
 40
1.0
 40
1.0
 40
2.0
 40
2.0
 40
2.0
 40
3.0
 40
3.0
 40
3.0
 40
4.0
 40
4.0
 40
4.0
 40
4.0
 10
14.00121256160386
 20
32.44573702530871
 30
0.0
 10
12.34481065229574
 20
32.44573702530871
 30
0.0
 10
11.00122341304831
 20
33.78863524545909
 30
0.0
 10
11.00122341304831
 20
35.44572617386427
 30
0.0
 10
11.00122341304831
 20
37.10212808317239
 30
0.0
 10
12.34481065229574
 20
38.44571532241982
 30
0.0
 10
14.00121256160386
 20
38.44571532241982
 30
0.0
 10
15.65761447091199
 20
38.44571532241982
 30
0.0
 10
17.00120171015942
 20
37.10212808317239
 30
0.0
 10
17.00120171015942
 20
35.44572617386427
 30
0.0
 10
17.00120171015942
 20
33.78863524545909
 30
0.0
 10
15.65761447091199
 20
32.44573702530871
 30
0.0
 10
14.00121256160386
 20
32.44573702530871
 30
0.0
  0
SPLINE
  5
68
330
3C
100
AcDbEntity
  8
LAYER_1
 62
   250
100
AcDbSpline
210
0.0
220
0.0
230
1.0
 70
    11
 71
     3
 72
    17
 73
    13
 74
     0
 42
0.0000000001
 43
0.0000000001
 40
0.0
 40
0.0
 40
0.0
 40
0.0
 40
1.0
 40
1.0
 40
1.0
 40
2.0
 40
2.0
 40
2.0
 40
3.0
 40
3.0
 40
3.0
 40
4.0
 40
4.0
 40
4.0
 40
4.0
 10
14.00052354250681
 20
12.94597981447184
 30
0.0
 10
13.17232258785275
 20
12.94597981447184
 30
0.0
 10
12.50052896822904
 20
13.61742892454703
 30
0.0
 10
12.50052896822904
 20
14.44597438874962
 30
0.0
 10
12.50052896822904
 20
15.27417534340368
 30
0.0
 10
13.17232258785275
 20
15.9459689630274
 30
0.0
 10
14.00052354250681
 20
15.9459689630274
 30
0.0
 10
14.82872449716088
 20
15.9459689630274
 30
0.0
 10
15.50051811678459
 20
15.27417534340368
 30
0.0
 10
15.50051811678459
 20
14.44597438874962
 30
0.0
 10
15.50051811678459
 20
13.61742892454703
 30
0.0
 10
14.82872449716088
 20
12.94597981447184
 30
0.0
 10
14.00052354250681
 20
12.94597981447184
 30
0.0
  0
SPLINE
  5
69
330
3C
100
AcDbEntity
  8
LAYER_1
 62
   250
100
AcDbSpline
210
0.0
220
0.0
230
1.0
 70
    11
 71
     3
 72
    17
 73
    13
 74
     0
 42
0.0000000001
 43
0.0000000001
 40
0.0
 40
0.0
 40
0.0
 40
0.0
 40
1.0
 40
1.0
 40
1.0
 40
2.0
 40
2.0
 40
2.0
 40
3.0
 40
3.0
 40
3.0
 40
4.0
 40
4.0
 40
4.0
 40
4.0
 10
14.00086805205534
 20
11.44598524019406
 30
0.0
 10
12.34446614274722
 20
11.44598524019406
 30
0.0
 10
11.00087890349978
 20
12.78888346034445
 30
0.0
 10
11.00087890349978
 20
14.44597438874962
 30
0.0
 10
11.00087890349978
 20
16.10237629805774
 30
0.0
 10
12.34446614274722
 20
17.44596353730518
 30
0.0
 10
14.00086805205534
 20
17.44596353730518
 30
0.0
 10
15.65726996136346
 20
17.44596353730518
 30
0.0
 10
17.0008572006109
 20
16.10237629805774
 30
0.0
 10
17.0008572006109
 20
14.44597438874962
 30
0.0
 10
17.0008572006109
 20
12.78888346034445
 30
0.0
 10
15.65726996136346
 20
11.44598524019406
 30
0.0
 10
14.00086805205534
 20
11.44598524019406
 30
0.0
  0
SPLINE
  5
6A
330
3C
100
AcDbEntity
  8
LAYER_1
 62
   250
100
AcDbSpline
210
0.0
220
0.0
230
1.0
 70
    11
 71
     3
 72
    17
 73
    13
 74
     0
 42
0.0000000001
 43
0.0000000001
 40
0.0
 40
0.0
 40
0.0
 40
0.0
 40
1.0
 40
1.0
 40
1.0
 40
2.0
 40
2.0
 40
2.0
 40
3.0
 40
3.0
 40
3.0
 40
4.0
 40
4.0
 40
4.0
 40
4.0
 10
14.00086805205534
 20
3.38446180470944
 30
0.0
 10
13.17266709740128
 20
3.38446180470944
 30
0.0
 10
12.50087347777756
 20
4.055910914784634
 30
0.0
 10
12.50087347777756
 20
4.88445637898722
 30
0.0
 10
12.50087347777756
 20
5.71265733364128
 30
0.0
 10
13.17266709740128
 20
6.384450953264999
 30
0.0
 10
14.00086805205534
 20
6.384450953264999
 30
0.0
 10
14.8290690067094
 20
6.384450953264999
 30
0.0
 10
15.50086262633312
 20
5.71265733364128
 30
0.0
 10
15.50086262633312
 20
4.88445637898722
 30
0.0
 10
15.50086262633312
 20
4.055910914784634
 30
0.0
 10
14.8290690067094
 20
3.38446180470944
 30
0.0
 10
14.00086805205534
 20
3.38446180470944
 30
0.0
  0
SPLINE
  5
6B
330
3C
100
AcDbEntity
  8
LAYER_1
 62
   250
100
AcDbSpline
210
0.0
220
0.0
230
1.0
 70
    11
 71
     3
 72
    17
 73
    13
 74
     0
 42
0.0000000001
 43
0.0000000001
 40
0.0
 40
0.0
 40
0.0
 40
0.0
 40
1.0
 40
1.0
 40
1.0
 40
2.0
 40
2.0
 40
2.0
 40
3.0
 40
3.0
 40
3.0
 40
4.0
 40
4.0
 40
4.0
 40
4.0
 10
14.00155707115239
 20
1.884467230431661
 30
0.0
 10
12.34515516184427
 20
1.884467230431661
 30
0.0
 10
11.00122341304831
 20
3.227365450582047
 30
0.0
 10
11.00122341304831
 20
4.88445637898722
 30
0.0
 10
11.00122341304831
 20
6.540858288295341
 30
0.0
 10
12.34515516184427
 20
7.884445527542778
 30
0.0
 10
14.00155707115239
 20
7.884445527542778
 30
0.0
 10
15.65795898046051
 20
7.884445527542778
 30
0.0
 10
17.00154621970795
 20
6.540858288295341
 30
0.0
 10
17.00154621970795
 20
4.88445637898722
 30
0.0
 10
17.00154621970795
 20
3.227365450582047
 30
0.0
 10
15.65795898046051
 20
1.884467230431661
 30
0.0
 10
14.00155707115239
 20
1.884467230431661
 30
0.0
  0
POLYLINE
  5
6C
330
3C
100
AcDbEntity
  8
LAYER_1
 62
     7
100
AcDb2dPolyline
 66
     1
 10
0.0
 20
0.0
 30
0.0
  0
VERTEX
  5
6D
330
6C
100
AcDbEntity
  8
LAYER_1
 62
     7
100
AcDbVertex
100
AcDb2dVertex
 10
108.0001261123229
 20
0.0
 30
0.0
  0
VERTEX
  5
6E
330
6C
100
AcDbEntity
  8
LAYER_1
 62
     7
100
AcDbVertex
100
AcDb2dVertex
 10
108.0001261123229
 20
50.00004881562499
 30
0.0
  0
VERTEX
  5
6F
330
6C
100
AcDbEntity
  8
LAYER_1
 62
     7
100
AcDbVertex
100
AcDb2dVertex
 10
0.0
 20
50.00022107039926
 30
0.0
  0
VERTEX
  5
70
330
6C
100
AcDbEntity
  8
LAYER_1
 62
     7
100
AcDbVertex
100
AcDb2dVertex
 10
0.0
 20
30.00006374032985
 30
0.0
  0
VERTEX
  5
71
330
6C
100
AcDbEntity
  8
LAYER_1
 62
     7
100
AcDbVertex
100
AcDb2dVertex
 10
11.00087890349978
 20
30.00006374032985
 30
0.0
  0
VERTEX
  5
72
330
6C
100
AcDbEntity
  8
LAYER_1
 62
     7
100
AcDbVertex
100
AcDb2dVertex
 10
11.00087890349978
 20
19.44584146649271
 30
0.0
  0
VERTEX
  5
73
330
6C
100
AcDbEntity
  8
LAYER_1
 62
     7
100
AcDbVertex
100
AcDb2dVertex
 10
0.0
 20
19.44584146649271
 30
0.0
  0
VERTEX
  5
74
330
6C
100
AcDbEntity
  8
LAYER_1
 62
     7
100
AcDbVertex
100
AcDb2dVertex
 10
0.0
 20
0.0
 30
0.0
  0
VERTEX
  5
75
330
6C
100
AcDbEntity
  8
LAYER_1
 62
     7
100
AcDbVertex
100
AcDb2dVertex
 10
108.0001261123229
 20
0.0
 30
0.0
  0
SEQEND
  5
76
330
6C
100
AcDbEntity
  8
LAYER_1
  0
SPLINE
  5
77
330
3C
100
AcDbEntity
  8
LAYER_1
 62
   250
100
AcDbSpline
210
0.0
220
0.0
230
1.0
 70
    11
 71
     3
 72
    17
 73
    13
 74
     0
 42
0.0000000001
 43
0.0000000001
 40
0.0
 40
0.0
 40
0.0
 40
0.0
 40
1.0
 40
1.0
 40
1.0
 40
2.0
 40
2.0
 40
2.0
 40
3.0
 40
3.0
 40
3.0
 40
4.0
 40
4.0
 40
4.0
 40
4.0
 10
43.43576387802995
 20
43.0034043946311
 30
0.0
 10
42.60756292337589
 20
43.0034043946311
 30
0.0
 10
41.93576930375217
 20
43.67485350470629
 30
0.0
 10
41.93576930375217
 20
44.50339896890888
 30
0.0
 10
41.93576930375217
 20
45.33159992356293
 30
0.0
 10
42.60756292337589
 20
46.00339354318665
 30
0.0
 10
43.43576387802995
 20
46.00339354318665
 30
0.0
 10
44.26396483268401
 20
46.00339354318665
 30
0.0
 10
44.93575845230773
 20
45.33159992356293
 30
0.0
 10
44.93575845230773
 20
44.50339896890888
 30
0.0
 10
44.93575845230773
 20
43.67485350470629
 30
0.0
 10
44.26396483268401
 20
43.0034043946311
 30
0.0
 10
43.43576387802995
 20
43.0034043946311
 30
0.0
  0
SPLINE
  5
78
330
3C
100
AcDbEntity
  8
LAYER_1
 62
   250
100
AcDbSpline
210
0.0
220
0.0
230
1.0
 70
    11
 71
     3
 72
    17
 73
    13
 74
     0
 42
0.0000000001
 43
0.0000000001
 40
0.0
 40
0.0
 40
0.0
 40
0.0
 40
1.0
 40
1.0
 40
1.0
 40
2.0
 40
2.0
 40
2.0
 40
3.0
 40
3.0
 40
3.0
 40
4.0
 40
4.0
 40
4.0
 40
4.0
 10
43.43576387802995
 20
41.50340982035332
 30
0.0
 10
41.77936196872183
 20
41.50340982035332
 30
0.0
 10
40.43577472947439
 20
42.8463080405037
 30
0.0
 10
40.43577472947439
 20
44.50339896890888
 30
0.0
 10
40.43577472947439
 20
46.159800878217
 30
0.0
 10
41.77936196872183
 20
47.50338811746443
 30
0.0
 10
43.43576387802995
 20
47.50338811746443
 30
0.0
 10
45.09216578733808
 20
47.50338811746443
 30
0.0
 10
46.43575302658551
 20
46.159800878217
 30
0.0
 10
46.43575302658551
 20
44.50339896890888
 30
0.0
 10
46.43575302658551
 20
42.8463080405037
 30
0.0
 10
45.09216578733808
 20
41.50340982035332
 30
0.0
 10
43.43576387802995
 20
41.50340982035332
 30
0.0
  0
SPLINE
  5
79
330
3C
100
AcDbEntity
  8
LAYER_1
 62
   250
100
AcDbSpline
210
0.0
220
0.0
230
1.0
 70
    11
 71
     3
 72
    17
 73
    13
 74
     0
 42
0.0000000001
 43
0.0000000001
 40
0.0
 40
0.0
 40
0.0
 40
0.0
 40
1.0
 40
1.0
 40
1.0
 40
2.0
 40
2.0
 40
2.0
 40
3.0
 40
3.0
 40
3.0
 40
4.0
 40
4.0
 40
4.0
 40
4.0
 10
43.43576387802995
 20
34.00309243941589
 30
0.0
 10
42.60756292337589
 20
34.00309243941589
 30
0.0
 10
41.93576930375217
 20
34.67454154949109
 30
0.0
 10
41.93576930375217
 20
35.50308701369367
 30
0.0
 10
41.93576930375217
 20
36.33128796834774
 30
0.0
 10
42.60756292337589
 20
37.00308158797145
 30
0.0
 10
43.43576387802995
 20
37.00308158797145
 30
0.0
 10
44.26396483268401
 20
37.00308158797145
 30
0.0
 10
44.93575845230773
 20
36.33128796834774
 30
0.0
 10
44.93575845230773
 20
35.50308701369367
 30
0.0
 10
44.93575845230773
 20
34.67454154949109
 30
0.0
 10
44.26396483268401
 20
34.00309243941589
 30
0.0
 10
43.43576387802995
 20
34.00309243941589
 30
0.0
  0
SPLINE
  5
7A
330
3C
100
AcDbEntity
  8
LAYER_1
 62
   250
100
AcDbSpline
210
0.0
220
0.0
230
1.0
 70
    11
 71
     3
 72
    17
 73
    13
 74
     0
 42
0.0000000001
 43
0.0000000001
 40
0.0
 40
0.0
 40
0.0
 40
0.0
 40
1.0
 40
1.0
 40
1.0
 40
2.0
 40
2.0
 40
2.0
 40
3.0
 40
3.0
 40
3.0
 40
4.0
 40
4.0
 40
4.0
 40
4.0
 10
43.43610838757847
 20
32.50309786513812
 30
0.0
 10
41.77970647827036
 20
32.50309786513812
 30
0.0
 10
40.43611923902291
 20
33.8459960852885
 30
0.0
 10
40.43611923902291
 20
35.50308701369367
 30
0.0
 10
40.43611923902291
 20
37.1594889230018
 30
0.0
 10
41.77970647827036
 20
38.50307616224923
 30
0.0
 10
43.43610838757847
 20
38.50307616224923
 30
0.0
 10
45.09251029688659
 20
38.50307616224923
 30
0.0
 10
46.43609753613404
 20
37.1594889230018
 30
0.0
 10
46.43609753613404
 20
35.50308701369367
 30
0.0
 10
46.43609753613404
 20
33.8459960852885
 30
0.0
 10
45.09251029688659
 20
32.50309786513812
 30
0.0
 10
43.43610838757847
 20
32.50309786513812
 30
0.0
  0
SPLINE
  5
7B
330
3C
100
AcDbEntity
  8
LAYER_1
 62
   250
100
AcDbSpline
210
0.0
220
0.0
230
1.0
 70
    11
 71
     3
 72
    17
 73
    13
 74
     0
 42
0.0000000001
 43
0.0000000001
 40
0.0
 40
0.0
 40
0.0
 40
0.0
 40
1.0
 40
1.0
 40
1.0
 40
2.0
 40
2.0
 40
2.0
 40
3.0
 40
3.0
 40
3.0
 40
4.0
 40
4.0
 40
4.0
 40
4.0
 10
43.43541936848143
 20
13.00351290907551
 30
0.0
 10
42.60721841382736
 20
13.00351290907551
 30
0.0
 10
41.93542479420365
 20
13.6749620191507
 30
0.0
 10
41.93542479420365
 20
14.50350748335329
 30
0.0
 10
41.93542479420365
 20
15.33170843800735
 30
0.0
 10
42.60721841382736
 20
16.00350205763107
 30
0.0
 10
43.43541936848143
 20
16.00350205763107
 30
0.0
 10
44.26362032313548
 20
16.00350205763107
 30
0.0
 10
44.9354139427592
 20
15.33170843800735
 30
0.0
 10
44.9354139427592
 20
14.50350748335329
 30
0.0
 10
44.9354139427592
 20
13.6749620191507
 30
0.0
 10
44.26362032313548
 20
13.00351290907551
 30
0.0
 10
43.43541936848143
 20
13.00351290907551
 30
0.0
  0
SPLINE
  5
7C
330
3C
100
AcDbEntity
  8
LAYER_1
 62
   250
100
AcDbSpline
210
0.0
220
0.0
230
1.0
 70
    11
 71
     3
 72
    17
 73
    13
 74
     0
 42
0.0000000001
 43
0.0000000001
 40
0.0
 40
0.0
 40
0.0
 40
0.0
 40
1.0
 40
1.0
 40
1.0
 40
2.0
 40
2.0
 40
2.0
 40
3.0
 40
3.0
 40
3.0
 40
4.0
 40
4.0
 40
4.0
 40
4.0
 10
43.43576387802995
 20
11.50351833479773
 30
0.0
 10
41.77936196872183
 20
11.50351833479773
 30
0.0
 10
40.43577472947439
 20
12.84641655494812
 30
0.0
 10
40.43577472947439
 20
14.50350748335329
 30
0.0
 10
40.43577472947439
 20
16.15990939266141
 30
0.0
 10
41.77936196872183
 20
17.50349663190885
 30
0.0
 10
43.43576387802995
 20
17.50349663190885
 30
0.0
 10
45.09216578733808
 20
17.50349663190885
 30
0.0
 10
46.43575302658551
 20
16.15990939266141
 30
0.0
 10
46.43575302658551
 20
14.50350748335329
 30
0.0
 10
46.43575302658551
 20
12.84641655494812
 30
0.0
 10
45.09216578733808
 20
11.50351833479773
 30
0.0
 10
43.43576387802995
 20
11.50351833479773
 30
0.0
  0
SPLINE
  5
7D
330
3C
100
AcDbEntity
  8
LAYER_1
 62
   250
100
AcDbSpline
210
0.0
220
0.0
230
1.0
 70
    11
 71
     3
 72
    17
 73
    13
 74
     0
 42
0.0000000001
 43
0.0000000001
 40
0.0
 40
0.0
 40
0.0
 40
0.0
 40
1.0
 40
1.0
 40
1.0
 40
2.0
 40
2.0
 40
2.0
 40
3.0
 40
3.0
 40
3.0
 40
4.0
 40
4.0
 40
4.0
 40
4.0
 10
43.43576387802995
 20
3.441994899313113
 30
0.0
 10
42.60756292337589
 20
3.441994899313113
 30
0.0
 10
41.93576930375217
 20
4.113444009388306
 30
0.0
 10
41.93576930375217
 20
4.941989473590891
 30
0.0
 10
41.93576930375217
 20
5.770190428244953
 30
0.0
 10
42.60756292337589
 20
6.441984047868671
 30
0.0
 10
43.43576387802995
 20
6.441984047868671
 30
0.0
 10
44.26396483268401
 20
6.441984047868671
 30
0.0
 10
44.93575845230773
 20
5.770190428244953
 30
0.0
 10
44.93575845230773
 20
4.941989473590891
 30
0.0
 10
44.93575845230773
 20
4.113444009388306
 30
0.0
 10
44.26396483268401
 20
3.441994899313113
 30
0.0
 10
43.43576387802995
 20
3.441994899313113
 30
0.0
  0
SPLINE
  5
7E
330
3C
100
AcDbEntity
  8
LAYER_1
 62
   250
100
AcDbSpline
210
0.0
220
0.0
230
1.0
 70
    11
 71
     3
 72
    17
 73
    13
 74
     0
 42
0.0000000001
 43
0.0000000001
 40
0.0
 40
0.0
 40
0.0
 40
0.0
 40
1.0
 40
1.0
 40
1.0
 40
2.0
 40
2.0
 40
2.0
 40
3.0
 40
3.0
 40
3.0
 40
4.0
 40
4.0
 40
4.0
 40
4.0
 10
43.436452897127
 20
1.942000325035333
 30
0.0
 10
41.77970647827036
 20
1.942000325035333
 30
0.0
 10
40.43611923902291
 20
3.28489854518572
 30
0.0
 10
40.43611923902291
 20
4.941989473590891
 30
0.0
 10
40.43611923902291
 20
6.598391382899013
 30
0.0
 10
41.77970647827036
 20
7.941978622146451
 30
0.0
 10
43.436452897127
 20
7.941978622146451
 30
0.0
 10
45.09285480643512
 20
7.941978622146451
 30
0.0
 10
46.43644204568256
 20
6.598391382899013
 30
0.0
 10
46.43644204568256
 20
4.941989473590891
 30
0.0
 10
46.43644204568256
 20
3.28489854518572
 30
0.0
 10
45.09285480643512
 20
1.942000325035333
 30
0.0
 10
43.436452897127
 20
1.942000325035333
 30
0.0
  0
SPLINE
  5
7F
330
3C
100
AcDbEntity
  8
LAYER_1
100
AcDbSpline
210
0.0
220
0.0
230
1.0
 70
    11
 71
     3
 72
    14
 73
    10
 74
     0
 42
0.0000000001
 43
0.0000000001
 40
0.0
 40
0.0
 40
0.0
 40
0.0
 40
1.0
 40
1.0
 40
1.0
 40
2.0
 40
2.0
 40
2.0
 40
3.0
 40
3.0
 40
3.0
 40
3.0
 10
15.46572265238357
 20
9.66521538386842
 30
0.0
 10
16.02658419738224
 20
9.493649628702977
 30
0.0
 10
16.54334852016972
 20
9.22286512356234
 30
0.0
 10
17.00154621970795
 20
8.878700084585882
 30
0.0
 10
17.00154621970795
 20
8.878700084585882
 30
0.0
 10
17.00154621970795
 20
10.45173068315096
 30
0.0
 10
17.00154621970795
 20
10.45173068315096
 30
0.0
 10
16.54369302971824
 20
10.1075656441745
 30
0.0
 10
16.02658419738224
 20
9.83678113903386
 30
0.0
 10
15.46572265238357
 20
9.66521538386842
 30
0.0
  0
SPLINE
  5
80
330
3C
100
AcDbEntity
  8
LAYER_1
100
AcDbSpline
210
0.0
220
0.0
230
1.0
 70
    11
 71
     3
 72
    14
 73
    10
 74
     0
 42
0.0000000001
 43
0.0000000001
 40
0.0
 40
0.0
 40
0.0
 40
0.0
 40
1.0
 40
1.0
 40
1.0
 40
2.0
 40
2.0
 40
2.0
 40
3.0
 40
3.0
 40
3.0
 40
3.0
 10
40.22527939532563
 20
10.672905813304
 30
0.0
 10
40.22527939532563
 20
10.672905813304
 30
0.0
 10
40.22527939532563
 20
8.771902124543136
 30
0.0
 10
40.22527939532563
 20
8.771902124543136
 30
0.0
 10
40.73205294120588
 20
9.197026907422966
 30
0.0
 10
41.32357583602327
 20
9.5243109785217
 30
0.0
 10
41.97159829679877
 20
9.722748478472091
 30
0.0
 10
41.32357583602327
 20
9.920841468873956
 30
0.0
 10
40.73205294120588
 20
10.24778103042417
 30
0.0
 10
40.22527939532563
 20
10.672905813304
 30
0.0
  0
SPLINE
  5
81
330
3C
100
AcDbEntity
  8
LAYER_1
100
AcDbSpline
210
0.0
220
0.0
230
1.0
 70
    11
 71
     3
 72
    14
 73
    10
 74
     0
 42
0.0000000001
 43
0.0000000001
 40
0.0
 40
0.0
 40
0.0
 40
0.0
 40
1.0
 40
1.0
 40
1.0
 40
2.0
 40
2.0
 40
2.0
 40
3.0
 40
3.0
 40
3.0
 40
3.0
 10
16.16852213137454
 20
39.9457098966976
 30
0.0
 10
16.46342230491192
 20
39.80342745315679
 30
0.0
 10
16.74109700102306
 20
39.63186169799134
 30
0.0
 10
17.00016818151385
 20
39.43721380307473
 30
0.0
 10
17.00016818151385
 20
39.43721380307473
 30
0.0
 10
17.00016818151385
 20
40.45420599032048
 30
0.0
 10
17.00016818151385
 20
40.45420599032048
 30
0.0
 10
16.74109700102306
 20
40.25955809540386
 30
0.0
 10
16.46342230491192
 20
40.08799234023842
 30
0.0
 10
16.16852213137454
 20
39.9457098966976
 30
0.0
  0
SPLINE
  5
82
330
3C
100
AcDbEntity
  8
LAYER_1
100
AcDbSpline
210
0.0
220
0.0
230
1.0
 70
    11
 71
     3
 72
    14
 73
    10
 74
     0
 42
0.0000000001
 43
0.0000000001
 40
0.0
 40
0.0
 40
0.0
 40
0.0
 40
1.0
 40
1.0
 40
1.0
 40
2.0
 40
2.0
 40
2.0
 40
3.0
 40
3.0
 40
3.0
 40
3.0
 10
40.43577472947439
 20
40.51225584924694
 30
0.0
 10
40.43577472947439
 20
40.51225584924694
 30
0.0
 10
40.43577472947439
 20
39.49354111425856
 30
0.0
 10
40.43577472947439
 20
39.49354111425856
 30
0.0
 10
40.69519041951371
 20
39.6885335187237
 30
0.0
 10
40.97320962517337
 20
39.86044378343767
 30
0.0
 10
41.26845430825928
 20
40.00307073652701
 30
0.0
 10
40.97320962517337
 20
40.14535318006783
 30
0.0
 10
40.69519041951371
 20
40.31726344478179
 30
0.0
 10
40.43577472947439
 20
40.51225584924694
 30
0.0
  0
SPLINE
  5
83
330
3C
100
AcDbEntity
  8
LAYER_1
 62
     7
100
AcDbSpline
210
0.0
220
0.0
230
1.0
 70
    11
 71
     3
 72
    38
 73
    34
 74
     0
 42
0.0000000001
 43
0.0000000001
 40
0.0
 40
0.0
 40
0.0
 40
0.0
 40
1.0
 40
1.0
 40
1.0
 40
2.0
 40
2.0
 40
2.0
 40
3.0
 40
3.0
 40
3.0
 40
4.0
 40
4.0
 40
4.0
 40
5.0
 40
5.0
 40
5.0
 40
6.0
 40
6.0
 40
6.0
 40
7.0
 40
7.0
 40
7.0
 40
8.0
 40
8.0
 40
8.0
 40
9.0
 40
9.0
 40
9.0
 40
10.0
 40
10.0
 40
10.0
 40
11.0
 40
11.0
 40
11.0
 40
11.0
 10
17.00016818151385
 20
40.45420599032048
 30
0.0
 10
17.00016818151385
 20
40.45420599032048
 30
0.0
 10
17.00016818151385
 20
39.43721380307473
 30
0.0
 10
17.00016818151385
 20
39.43721380307473
 30
0.0
 10
18.21353081141884
 20
38.52598604722614
 30
0.0
 10
19.00107963934695
 20
37.07973496251826
 30
0.0
 10
19.00107963934695
 20
35.44572617386427
 30
0.0
 10
19.00107963934695
 20
35.29517550115884
 30
0.0
 10
18.99143337198825
 20
35.14738090484163
 30
0.0
 10
18.97868651869283
 20
35.00027532762146
 30
0.0
 10
18.97868651869283
 20
35.00027532762146
 30
0.0
 10
38.46173501642623
 20
35.0001030728472
 30
0.0
 10
38.46173501642623
 20
35.0001030728472
 30
0.0
 10
38.44519855809703
 20
35.16546765613919
 30
0.0
 10
38.43624130983539
 20
35.33324380627086
 30
0.0
 10
38.43624130983539
 20
35.50308701369367
 30
0.0
 10
38.43624130983539
 20
37.13606227370209
 30
0.0
 10
39.22310111866645
 20
38.58196884886146
 30
0.0
 10
40.43577472947439
 20
39.49354111425856
 30
0.0
 10
40.43577472947439
 20
39.49354111425856
 30
0.0
 10
40.43577472947439
 20
40.51225584924694
 30
0.0
 10
40.43577472947439
 20
40.51225584924694
 30
0.0
 10
39.22275660911792
 20
41.42313909554699
 30
0.0
 10
38.43589680028686
 20
42.86870116115783
 30
0.0
 10
38.43589680028686
 20
44.50339896890888
 30
0.0
 10
38.43589680028686
 20
44.50339896890888
 30
0.0
 10
18.99797905341023
 20
44.50357122368314
 30
0.0
 10
18.99797905341023
 20
44.50357122368314
 30
0.0
 10
18.99797905341023
 20
44.48427868896574
 30
0.0
 10
19.00073512979843
 20
44.46533066379686
 30
0.0
 10
19.00073512979843
 20
44.44603812907946
 30
0.0
 10
19.00073512979843
 20
42.81134032132842
 30
0.0
 10
18.21353081141884
 20
41.36508923662053
 30
0.0
 10
17.00016818151385
 20
40.45420599032048
 30
0.0
  0
SPLINE
  5
84
330
3C
100
AcDbEntity
  8
LAYER_1
 62
     7
100
AcDbSpline
210
0.0
220
0.0
230
1.0
 70
    11
 71
     3
 72
    38
 73
    34
 74
     0
 42
0.0000000001
 43
0.0000000001
 40
0.0
 40
0.0
 40
0.0
 40
0.0
 40
1.0
 40
1.0
 40
1.0
 40
2.0
 40
2.0
 40
2.0
 40
3.0
 40
3.0
 40
3.0
 40
4.0
 40
4.0
 40
4.0
 40
5.0
 40
5.0
 40
5.0
 40
6.0
 40
6.0
 40
6.0
 40
7.0
 40
7.0
 40
7.0
 40
8.0
 40
8.0
 40
8.0
 40
9.0
 40
9.0
 40
9.0
 40
10.0
 40
10.0
 40
10.0
 40
11.0
 40
11.0
 40
11.0
 40
11.0
 10
17.00154621970795
 20
10.45173068315096
 30
0.0
 10
17.00154621970795
 20
10.45173068315096
 30
0.0
 10
17.00154621970795
 20
8.878700084585882
 30
0.0
 10
17.00154621970795
 20
8.878700084585882
 30
0.0
 10
18.21456434006442
 20
7.966438800091724
 30
0.0
 10
19.00142414889548
 20
6.518120658092692
 30
0.0
 10
19.00142414889548
 20
4.88445637898722
 30
0.0
 10
19.00142414889548
 20
4.88445637898722
 30
0.0
 10
38.43899738622358
 20
4.88445637898722
 30
0.0
 10
38.43899738622358
 20
4.88445637898722
 30
0.0
 10
38.43899738622358
 20
4.903748913704619
 30
0.0
 10
38.43624130983539
 20
4.922696938873493
 30
0.0
 10
38.43624130983539
 20
4.941989473590891
 30
0.0
 10
38.43624130983539
 20
6.47988009820642
 30
0.0
 10
39.13215059785585
 20
7.854817706369629
 30
0.0
 10
40.22527939532563
 20
8.771902124543136
 30
0.0
 10
40.22527939532563
 20
8.771902124543136
 30
0.0
 10
40.22527939532563
 20
10.672905813304
 30
0.0
 10
40.22527939532563
 20
10.672905813304
 30
0.0
 10
39.13180608830733
 20
11.58930121238045
 30
0.0
 10
38.43589680028686
 20
12.96458333009219
 30
0.0
 10
38.43589680028686
 20
14.50350748335329
 30
0.0
 10
38.43589680028686
 20
14.67093912393643
 30
0.0
 10
38.44485404854851
 20
14.83664821677695
 30
0.0
 10
38.46104599732919
 20
14.99994574277779
 30
0.0
 10
38.46104599732919
 20
14.99994574277779
 30
0.0
 10
18.96835123223708
 20
14.99994574277779
 30
0.0
 10
18.96835123223708
 20
14.99994574277779
 30
0.0
 10
18.98833278605153
 20
14.81770019160808
 30
0.0
 10
19.00073512979843
 20
14.63338758314721
 30
0.0
 10
19.00073512979843
 20
14.44597438874962
 30
0.0
 10
19.00073512979843
 20
12.81127658099857
 30
0.0
 10
18.21421983051589
 20
11.36399196764511
 30
0.0
 10
17.00154621970795
 20
10.45173068315096
 30
0.0
  0
SPLINE
  5
85
330
3C
100
AcDbEntity
  8
LAYER_1
100
AcDbSpline
210
0.0
220
0.0
230
1.0
 70
    11
 71
     3
 72
    14
 73
    10
 74
     0
 42
0.0000000001
 43
0.0000000001
 40
0.0
 40
0.0
 40
0.0
 40
0.0
 40
1.0
 40
1.0
 40
1.0
 40
2.0
 40
2.0
 40
2.0
 40
3.0
 40
3.0
 40
3.0
 40
3.0
 10
44.90061847835818
 20
9.722748478472091
 30
0.0
 10
45.46148002335686
 20
9.551182723306649
 30
0.0
 10
45.97824434614433
 20
9.280398218166011
 30
0.0
 10
46.43644204568256
 20
8.936233179189554
 30
0.0
 10
46.43644204568256
 20
8.936233179189554
 30
0.0
 10
46.43644204568256
 20
10.50960828730315
 30
0.0
 10
46.43644204568256
 20
10.50960828730315
 30
0.0
 10
45.97824434614433
 20
10.16509873877817
 30
0.0
 10
45.46148002335686
 20
9.894314233637534
 30
0.0
 10
44.90061847835818
 20
9.722748478472091
 30
0.0
  0
SPLINE
  5
86
330
3C
100
AcDbEntity
  8
LAYER_1
100
AcDbSpline
210
0.0
220
0.0
230
1.0
 70
    11
 71
     3
 72
    14
 73
    10
 74
     0
 42
0.0000000001
 43
0.0000000001
 40
0.0
 40
0.0
 40
0.0
 40
0.0
 40
1.0
 40
1.0
 40
1.0
 40
2.0
 40
2.0
 40
2.0
 40
3.0
 40
3.0
 40
3.0
 40
3.0
 10
46.43644204568256
 20
39.49354111425856
 30
0.0
 10
46.43644204568256
 20
39.49354111425856
 30
0.0
 10
46.43644204568256
 20
40.51260035879546
 30
0.0
 10
46.43644204568256
 20
40.51260035879546
 30
0.0
 10
46.17668184609472
 20
40.31760795433032
 30
0.0
 10
45.89866264043506
 20
40.14569768961636
 30
0.0
 10
45.60341795734914
 20
40.00307073652701
 30
0.0
 10
45.89866264043506
 20
39.86044378343767
 30
0.0
 10
46.17668184609472
 20
39.6885335187237
 30
0.0
 10
46.43644204568256
 20
39.49354111425856
 30
0.0
  0
SPLINE
  5
87
330
3C
100
AcDbEntity
  8
LAYER_1
 62
     7
100
AcDbSpline
210
0.0
220
0.0
230
1.0
 70
    11
 71
     3
 72
    20
 73
    16
 74
     0
 42
0.0000000001
 43
0.0000000001
 40
0.0
 40
0.0
 40
0.0
 40
0.0
 40
1.0
 40
1.0
 40
1.0
 40
2.0
 40
2.0
 40
2.0
 40
3.0
 40
3.0
 40
3.0
 40
4.0
 40
4.0
 40
4.0
 40
5.0
 40
5.0
 40
5.0
 40
5.0
 10
47.91714408524294
 20
33.29615884584263
 30
0.0
 10
47.5678114030386
 20
32.59129230956052
 30
0.0
 10
47.05965981896426
 20
31.97944335138014
 30
0.0
 10
46.43644204568256
 20
31.51022134628911
 30
0.0
 10
46.43644204568256
 20
31.51022134628911
 30
0.0
 10
46.43644204568256
 20
18.49533962211228
 30
0.0
 10
46.43644204568256
 20
18.49533962211228
 30
0.0
 10
47.06069334760983
 20
18.02508408837567
 30
0.0
 10
47.56953395078123
 20
17.41151258245268
 30
0.0
 10
47.91886663298556
 20
16.70526800797646
 30
0.0
 10
47.91886663298556
 20
16.70526800797646
 30
0.0
 10
56.21379528759586
 20
24.99967989826397
 30
0.0
 10
56.21379528759586
 20
24.99967989826397
 30
0.0
 10
56.21379528759586
 20
24.99967989826397
 30
0.0
 10
47.91714408524294
 20
33.29615884584263
 30
0.0
 10
47.91714408524294
 20
33.29615884584263
 30
0.0
  0
SPLINE
  5
88
330
3C
100
AcDbEntity
  8
LAYER_1
 62
     7
100
AcDbSpline
210
0.0
220
0.0
230
1.0
 70
    11
 71
     3
 72
    32
 73
    28
 74
     0
 42
0.0000000001
 43
0.0000000001
 40
0.0
 40
0.0
 40
0.0
 40
0.0
 40
1.0
 40
1.0
 40
1.0
 40
2.0
 40
2.0
 40
2.0
 40
3.0
 40
3.0
 40
3.0
 40
4.0
 40
4.0
 40
4.0
 40
5.0
 40
5.0
 40
5.0
 40
6.0
 40
6.0
 40
6.0
 40
7.0
 40
7.0
 40
7.0
 40
8.0
 40
8.0
 40
8.0
 40
9.0
 40
9.0
 40
9.0
 40
9.0
 10
48.43631997487009
 20
4.941989473590891
 30
0.0
 10
48.43631997487009
 20
4.941989473590891
 30
0.0
 10
68.03495142613363
 20
4.941989473590891
 30
0.0
 10
68.03495142613363
 20
4.941989473590891
 30
0.0
 10
68.0139363436736
 20
5.107354056882884
 30
0.0
 10
67.99981145218408
 20
5.274785697466026
 30
0.0
 10
67.99981145218408
 20
5.445662433534418
 30
0.0
 10
67.99981145218408
 20
6.940489364584322
 30
0.0
 10
68.82181123496468
 20
8.24204643891171
 30
0.0
 10
70.03724092216083
 20
8.928653969122003
 30
0.0
 10
70.03724092216083
 20
8.928653969122003
 30
0.0
 10
70.03724092216083
 20
10.96263834361351
 30
0.0
 10
70.03724092216083
 20
10.96263834361351
 30
0.0
 10
69.26726208120749
 20
11.39740939385204
 30
0.0
 10
68.65713567076975
 20
12.08022731902856
 30
0.0
 10
68.31193710314771
 20
12.90188259226064
 30
0.0
 10
68.31193710314771
 20
12.90188259226064
 30
0.0
 10
59.04221868098598
 20
22.17125650487385
 30
0.0
 10
59.04221868098598
 20
22.17125650487385
 30
0.0
 10
59.04221868098598
 20
22.17125650487385
 30
0.0
 10
46.43644204568256
 20
9.565996633893224
 30
0.0
 10
46.43644204568256
 20
9.565996633893224
 30
0.0
 10
46.43644204568256
 20
9.565996633893224
 30
0.0
 10
46.43644204568256
 20
8.936233179189554
 30
0.0
 10
46.43644204568256
 20
8.936233179189554
 30
0.0
 10
47.64946016603903
 20
8.023971894695396
 30
0.0
 10
48.43631997487009
 20
6.57599826224489
 30
0.0
 10
48.43631997487009
 20
4.941989473590891
 30
0.0
  0
SPLINE
  5
89
330
3C
100
AcDbEntity
  8
LAYER_1
 62
     7
100
AcDbSpline
210
0.0
220
0.0
230
1.0
 70
    11
 71
     3
 72
    29
 73
    25
 74
     0
 42
0.0000000001
 43
0.0000000001
 40
0.0
 40
0.0
 40
0.0
 40
0.0
 40
1.0
 40
1.0
 40
1.0
 40
2.0
 40
2.0
 40
2.0
 40
3.0
 40
3.0
 40
3.0
 40
4.0
 40
4.0
 40
4.0
 40
5.0
 40
5.0
 40
5.0
 40
6.0
 40
6.0
 40
6.0
 40
7.0
 40
7.0
 40
7.0
 40
8.0
 40
8.0
 40
8.0
 40
8.0
 10
68.41460094860815
 20
37.20083006882479
 30
0.0
 10
68.77151284088004
 20
37.92636717801841
 30
0.0
 10
69.33547497181544
 20
38.53201496432533
 30
0.0
 10
70.03724092216083
 20
38.92854545467759
 30
0.0
 10
70.03724092216083
 20
38.92854545467759
 30
0.0
 10
70.03724092216083
 20
40.96252982916909
 30
0.0
 10
70.03724092216083
 20
40.96252982916909
 30
0.0
 10
68.82181123496468
 20
41.64879284983086
 30
0.0
 10
67.99981145218408
 20
42.95000541460972
 30
0.0
 10
67.99981145218408
 20
44.44586587430521
 30
0.0
 10
67.99981145218408
 20
44.44586587430521
 30
0.0
 10
48.43356389848189
 20
44.44586587430521
 30
0.0
 10
48.43356389848189
 20
44.44586587430521
 30
0.0
 10
48.41530489241006
 20
42.83562824449942
 30
0.0
 10
47.63464625545245
 20
41.41280380909124
 30
0.0
 10
46.43644204568256
 20
40.51260035879546
 30
0.0
 10
46.43644204568256
 20
40.51260035879546
 30
0.0
 10
46.43644204568256
 20
40.43370767218324
 30
0.0
 10
46.43644204568256
 20
40.43370767218324
 30
0.0
 10
46.43644204568256
 20
40.43370767218324
 30
0.0
 10
59.04221868098598
 20
27.82810329165409
 30
0.0
 10
59.04221868098598
 20
27.82810329165409
 30
0.0
 10
59.04221868098598
 20
27.82810329165409
 30
0.0
 10
68.41460094860815
 20
37.20083006882479
 30
0.0
 10
68.41460094860815
 20
37.20083006882479
 30
0.0
  0
SPLINE
  5
8A
330
3C
100
AcDbEntity
  8
LAYER_1
 62
     7
100
AcDbSpline
210
0.0
220
0.0
230
1.0
 70
    11
 71
     3
 72
    20
 73
    16
 74
     0
 42
0.0000000001
 43
0.0000000001
 40
0.0
 40
0.0
 40
0.0
 40
0.0
 40
1.0
 40
1.0
 40
1.0
 40
2.0
 40
2.0
 40
2.0
 40
3.0
 40
3.0
 40
3.0
 40
4.0
 40
4.0
 40
4.0
 40
5.0
 40
5.0
 40
5.0
 40
5.0
 10
69.39955374784108
 20
17.47076822479897
 30
0.0
 10
69.59799124779148
 20
17.64164496086737
 30
0.0
 10
69.80779756284319
 20
17.79943033409181
 30
0.0
 10
70.03724092216083
 20
17.9289659243372
 30
0.0
 10
70.03724092216083
 20
17.9289659243372
 30
0.0
 10
70.03724092216083
 20
31.96221787395389
 30
0.0
 10
70.03724092216083
 20
31.96221787395389
 30
0.0
 10
69.78540444218906
 20
32.10450031749471
 30
0.0
 10
69.55527206377438
 20
32.27882214904835
 30
0.0
 10
69.34098712459183
 20
32.47002494847972
 30
0.0
 10
69.34098712459183
 20
32.47002494847972
 30
0.0
 10
61.87064207437609
 20
24.99967989826397
 30
0.0
 10
61.87064207437609
 20
24.99967989826397
 30
0.0
 10
61.87064207437609
 20
24.99967989826397
 30
0.0
 10
69.39955374784108
 20
17.47076822479897
 30
0.0
 10
69.39955374784108
 20
17.47076822479897
 30
0.0
  0
ENDBLK
  5
3F
330
3C
100
AcDbEntity
  8
0
100
AcDbBlockEnd
  0
ENDSEC
  0
SECTION
  2
ENTITIES
  0
INSERT
  5
3D
330
1F
100
AcDbEntity
  8
LAYER_1
100
AcDbBlockReference
  2
BLOCK_2
 10
0.0
 20
0.0
 30
0.0
  0
ENDSEC
  0
SECTION
  2
OBJECTS
  0
DICTIONARY
  5
C
330
0
100
AcDbDictionary
  3
ACAD_GROUP
350
D
  3
ACAD_LAYOUT
350
1A
  3
ACAD_MLINESTYLE
350
17
  3
ACAD_PLOTSETTINGS
350
19
  3
ACAD_TABLESTYLE
350
8B
  3
ACAD_VISUALSTYLE
350
2A
1001
ACAD
1000
TREAT_AS_HARD
1070
     0
  0
DICTIONARY
  5
D
102
{ACAD_REACTORS
330
C
102
}
330
C
100
AcDbDictionary
1001
ACAD
1000
TREAT_AS_HARD
1070
     0
  0
DICTIONARY
  5
1A
102
{ACAD_REACTORS
330
C
102
}
330
C
100
AcDbDictionary
1001
ACAD
1000
TREAT_AS_HARD
1070
     0
  0
DICTIONARY
  5
17
102
{ACAD_REACTORS
330
C
102
}
330
C
100
AcDbDictionary
  3
STANDARD
350
18
1001
ACAD
1000
TREAT_AS_HARD
1070
     0
  0
DICTIONARY
  5
19
102
{ACAD_REACTORS
330
C
102
}
330
C
100
AcDbDictionary
1001
ACAD
1000
TREAT_AS_HARD
1070
     0
  0
DICTIONARY
  5
8B
102
{ACAD_REACTORS
330
C
102
}
330
C
100
AcDbDictionary
1001
ACAD
1000
TREAT_AS_HARD
1070
     0
  0
DICTIONARY
  5
2A
102
{ACAD_REACTORS
330
C
102
}
330
C
100
AcDbDictionary
  3
2DWIREFRAME
350
2F
  3
3D_HIDDEN
350
31
  3
3DWIREFRAME
350
30
  3
BASIC
350
32
  3
BRIGHTEN
350
36
  3
COLORCHANGE
350
3A
  3
CONCEPTUAL
350
34
  3
DIM
350
35
  3
FACEPATTERN
350
39
  3
FLAT
350
2B
  3
FLATWITHEDGES
350
2C
  3
GOURAUD
350
2D
  3
GOURAUDWITHEDGES
350
2E
  3
LINEPATTERN
350
38
  3
REALISTIC
350
33
  3
THICKEN
350
37
1001
ACAD
1000
TREAT_AS_HARD
1070
     0
  0
MLINESTYLE
  5
18
102
{ACAD_REACTORS
330
17
102
}
330
17
100
AcDbMlineStyle
  2
Standard
 70
     0
  3

 62
   256
 51
90.0
 52
90.0
 71
     2
 49
0.5
 62
   256
  6
BYLAYER
 49
-0.5
 62
   256
  6
BYLAYER
  0
VISUALSTYLE
  5
2F
102
{ACAD_REACTORS
330
2A
102
}
330
2A
100
AcDbVisualStyle
  2
2dWireframe
 70
     4
 71
     0
 72
     2
 73
     0
 90
        0
 40
-0.6
 41
-30.0
 62
     5
 63
     7
 74
     1
 91
        4
 64
     7
 65
   257
 75
     1
175
     1
 42
1.0
 92
        0
 66
   257
 43
1.0
 76
     1
 77
     6
 78
     2
 67
     7
 79
     5
170
     0
171
     0
290
     0
174
     0
 93
        1
 44
0.0
173
     0
291
     0
 45
0.0
1001
ACAD
1000
AcDbSavedByObjectVersion
1070
     0
  0
VISUALSTYLE
  5
31
102
{ACAD_REACTORS
330
2A
102
}
330
2A
100
AcDbVisualStyle
  2
3D Hidden
 70
     6
 71
     1
 72
     2
 73
     2
 90
        0
 40
-0.6
 41
-30.0
 62
     5
 63
     7
 74
     2
 91
        2
 64
     7
 65
   257
 75
     2
175
     1
 42
40.0
 92
        0
 66
   257
 43
1.0
 76
     1
 77
     6
 78
     2
 67
     7
 79
     3
170
     0
171
     0
290
     0
174
     0
 93
        1
 44
0.0
173
     0
291
     0
 45
0.0
1001
ACAD
1000
AcDbSavedByObjectVersion
1070
     0
  0
VISUALSTYLE
  5
30
102
{ACAD_REACTORS
330
2A
102
}
330
2A
100
AcDbVisualStyle
  2
3dWireframe
 70
     5
 71
     0
 72
     2
 73
     0
 90
        0
 40
-0.6
 41
-30.0
 62
     5
 63
     7
 74
     1
 91
        4
 64
     7
 65
   257
 75
     1
175
     1
 42
1.0
 92
        0
 66
   257
 43
1.0
 76
     1
 77
     6
 78
     2
 67
     7
 79
     5
170
     0
171
     0
290
     0
174
     0
 93
        1
 44
0.0
173
     0
291
     0
 45
0.0
1001
ACAD
1000
AcDbSavedByObjectVersion
1070
     0
  0
VISUALSTYLE
  5
32
102
{ACAD_REACTORS
330
2A
102
}
330
2A
100
AcDbVisualStyle
  2
Basic
 70
     7
 71
     1
 72
     0
 73
     1
 90
        0
 40
-0.6
 41
-30.0
 62
     5
 63
     7
 74
     0
 91
        4
 64
     7
 65
   257
 75
     1
175
     1
 42
1.0
 92
        8
 66
     7
 43
1.0
 76
     1
 77
     6
 78
     2
 67
     7
 79
     5
170
     0
171
     0
290
     0
174
     0
 93
        1
 44
0.0
173
     0
291
     1
 45
0.0
1001
ACAD
1000
AcDbSavedByObjectVersion
1070
     0
  0
VISUALSTYLE
  5
36
102
{ACAD_REACTORS
330
2A
102
}
330
2A
100
AcDbVisualStyle
  2
Brighten
 70
    12
 71
     2
 72
     2
 73
     0
 90
        0
 40
-0.6
 41
-30.0
 62
     5
 63
     7
 74
     1
 91
        4
 64
     7
 65
   257
 75
     1
175
     1
 42
1.0
 92
        8
 66
     7
 43
1.0
 76
     1
 77
     6
 78
     2
 67
     7
 79
     5
170
     0
171
     0
290
     0
174
     0
 93
        1
 44
50.0
173
     0
291
     1
 45
0.0
1001
ACAD
1000
AcDbSavedByObjectVersion
1070
     0
  0
VISUALSTYLE
  5
3A
102
{ACAD_REACTORS
330
2A
102
}
330
2A
100
AcDbVisualStyle
  2
ColorChange
 70
    16
 71
     2
 72
     2
 73
     3
 90
        0
 40
-0.6
 41
-30.0
 62
     5
 63
     8
 74
     1
 91
        4
 64
     7
 65
   257
 75
     1
175
     1
 42
1.0
 92
        8
 66
     8
 43
1.0
 76
     1
 77
     6
 78
     2
 67
     7
 79
     5
170
     0
171
     0
290
     0
174
     0
 93
        1
 44
0.0
173
     0
291
     1
 45
0.0
1001
ACAD
1000
AcDbSavedByObjectVersion
1070
     0
  0
VISUALSTYLE
  5
34
102
{ACAD_REACTORS
330
2A
102
}
330
2A
100
AcDbVisualStyle
  2
Conceptual
 70
     9
 71
     3
 72
     2
 73
     0
 90
        0
 40
-0.6
 41
-30.0
 62
     5
 63
     7
 74
     2
 91
        2
 64
     7
 65
   257
 75
     1
175
     1
 42
40.0
 92
        8
 66
     7
 43
1.0
 76
     1
 77
     6
 78
     2
 67
     7
 79
     3
170
     0
171
     0
290
     0
174
     0
 93
        1
 44
0.0
173
     0
291
     0
 45
0.0
1001
ACAD
1000
AcDbSavedByObjectVersion
1070
     0
  0
VISUALSTYLE
  5
35
102
{ACAD_REACTORS
330
2A
102
}
330
2A
100
AcDbVisualStyle
  2
Dim
 70
    11
 71
     2
 72
     2
 73
     0
 90
        0
 40
-0.6
 41
-30.0
 62
     5
 63
     7
 74
     1
 91
        4
 64
     7
 65
   257
 75
     1
175
     1
 42
1.0
 92
        8
 66
     7
 43
1.0
 76
     1
 77
     6
 78
     2
 67
     7
 79
     5
170
     0
171
     0
290
     0
174
     0
 93
        1
 44
-50.0
173
     0
291
     1
 45
0.0
1001
ACAD
1000
AcDbSavedByObjectVersion
1070
     0
  0
VISUALSTYLE
  5
39
102
{ACAD_REACTORS
330
2A
102
}
330
2A
100
AcDbVisualStyle
  2
Facepattern
 70
    15
 71
     2
 72
     2
 73
     0
 90
        0
 40
-0.6
 41
-30.0
 62
     5
 63
     7
 74
     1
 91
        4
 64
     7
 65
   257
 75
     1
175
     1
 42
1.0
 92
        8
 66
     7
 43
1.0
 76
     1
 77
     6
 78
     2
 67
     7
 79
     5
170
     0
171
     0
290
     0
174
     0
 93
        1
 44
0.0
173
     0
291
     1
 45
0.0
1001
ACAD
1000
AcDbSavedByObjectVersion
1070
     0
  0
VISUALSTYLE
  5
2B
102
{ACAD_REACTORS
330
2A
102
}
330
2A
100
AcDbVisualStyle
  2
Flat
 70
     0
 71
     2
 72
     1
 73
     1
 90
        2
 40
-0.6
 41
30.0
 62
     5
 63
     7
 74
     0
 91
        4
 64
     7
 65
   257
 75
     1
175
     1
 42
1.0
 92
        8
 66
     7
 43
1.0
 76
     1
 77
     6
 78
     2
 67
     7
 79
     5
170
     0
171
     0
290
     0
174
     0
 93
       13
 44
0.0
173
     0
291
     1
 45
0.0
1001
ACAD
1000
AcDbSavedByObjectVersion
1070
     0
  0
VISUALSTYLE
  5
2C
102
{ACAD_REACTORS
330
2A
102
}
330
2A
100
AcDbVisualStyle
  2
FlatWithEdges
 70
     1
 71
     2
 72
     1
 73
     1
 90
        2
 40
-0.6
 41
30.0
 62
     5
 63
     7
 74
     1
 91
        4
 64
     7
 65
   257
 75
     1
175
     1
 42
1.0
 92
        0
 66
   257
 43
1.0
 76
     1
 77
     6
 78
     2
 67
     7
 79
     5
170
     0
171
     0
290
     0
174
     0
 93
       13
 44
0.0
173
     0
291
     1
 45
0.0
1001
ACAD
1000
AcDbSavedByObjectVersion
1070
     0
  0
VISUALSTYLE
  5
2D
102
{ACAD_REACTORS
330
2A
102
}
330
2A
100
AcDbVisualStyle
  2
Gouraud
 70
     2
 71
     2
 72
     2
 73
     1
 90
        2
 40
-0.6
 41
30.0
 62
     5
 63
     7
 74
     0
 91
        4
 64
     7
 65
   257
 75
     1
175
     1
 42
1.0
 92
        0
 66
     7
 43
1.0
 76
     1
 77
     6
 78
     2
 67
     7
 79
     5
170
     0
171
     0
290
     0
174
     0
 93
       13
 44
0.0
173
     0
291
     1
 45
0.0
1001
ACAD
1000
AcDbSavedByObjectVersion
1070
     0
  0
VISUALSTYLE
  5
2E
102
{ACAD_REACTORS
330
2A
102
}
330
2A
100
AcDbVisualStyle
  2
GouraudWithEdges
 70
     3
 71
     2
 72
     2
 73
     1
 90
        2
 40
-0.6
 41
30.0
 62
     5
 63
     7
 74
     1
 91
        4
 64
     7
 65
   257
 75
     1
175
     1
 42
1.0
 92
        0
 66
   257
 43
1.0
 76
     1
 77
     6
 78
     2
 67
     7
 79
     5
170
     0
171
     0
290
     0
174
     0
 93
       13
 44
0.0
173
     0
291
     1
 45
0.0
1001
ACAD
1000
AcDbSavedByObjectVersion
1070
     0
  0
VISUALSTYLE
  5
38
102
{ACAD_REACTORS
330
2A
102
}
330
2A
100
AcDbVisualStyle
  2
Linepattern
 70
    14
 71
     2
 72
     2
 73
     0
 90
        0
 40
-0.6
 41
-30.0
 62
     5
 63
     7
 74
     1
 91
        4
 64
     7
 65
   257
 75
     7
175
     7
 42
1.0
 92
        8
 66
     7
 43
1.0
 76
     1
 77
     6
 78
     2
 67
     7
 79
     5
170
     0
171
     0
290
     0
174
     0
 93
        1
 44
0.0
173
     0
291
     1
 45
0.0
1001
ACAD
1000
AcDbSavedByObjectVersion
1070
     0
  0
VISUALSTYLE
  5
33
102
{ACAD_REACTORS
330
2A
102
}
330
2A
100
AcDbVisualStyle
  2
Realistic
 70
     8
 71
     2
 72
     2
 73
     0
 90
        0
 40
-0.6
 41
-30.0
 62
     5
 63
     7
 74
     1
 91
        0
 64
     7
 65
   257
 75
     1
175
     1
 42
1.0
 92
        8
 66
     8
 43
1.0
 76
     1
 77
     6
 78
     2
 67
     7
 79
     5
170
     0
171
     0
290
     0
174
     0
 93
       13
 44
0.0
173
     0
291
     0
 45
0.0
1001
ACAD
1000
AcDbSavedByObjectVersion
1070
     0
  0
VISUALSTYLE
  5
37
102
{ACAD_REACTORS
330
2A
102
}
330
2A
100
AcDbVisualStyle
  2
Thicken
 70
    13
 71
     2
 72
     2
 73
     0
 90
        0
 40
-0.6
 41
-30.0
 62
     5
 63
     7
 74
     1
 91
        4
 64
     7
 65
   257
 75
     1
175
     1
 42
1.0
 92
       12
 66
     7
 43
1.0
 76
     1
 77
     6
 78
     2
 67
     7
 79
     5
170
     0
171
     0
290
     0
174
     0
 93
        1
 44
0.0
173
     0
291
     1
 45
0.0
1001
ACAD
1000
AcDbSavedByObjectVersion
1070
     0
  0
ENDSEC
  0
EOF
