  0
SECTION
  2
HEADER
  9
$ACADVER
  1
AC1012
  9
$DWGCODEPAGE
  3
ansi_1252
  9
$INSBASE
 10
0.0
 20
0.0
 30
0.0
  9
$EXTMIN
 10
1.000000000000000E+20
 20
1.000000000000000E+20
 30
1.000000000000000E+20
  9
$EXTMAX
 10
-1.000000000000000E+20
 20
-1.000000000000000E+20
 30
-1.000000000000000E+20
  9
$LIMMIN
 10
0.0
 20
0.0
  9
$LIMMAX
 10
12.0
 20
9.0
  9
$ORTHOMODE
 70
     0
  9
$REGENMODE
 70
     1
  9
$FILLMODE
 70
     1
  9
$QTEXTMODE
 70
     0
  9
$MIRRTEXT
 70
     1
  9
$DRAGMODE
 70
     2
  9
$LTSCALE
 40
1.0
  9
$OSMODE
 70
    37
  9
$ATTMODE
 70
     1
  9
$TEXTSIZE
 40
0.2
  9
$TRACEWID
 40
0.05
  9
$TEXTSTYLE
  7
STANDARD
  9
$CLAYER
  8
0
  9
$CELTYPE
  6
BYLAYER
  9
$CECOLOR
 62
   256
  9
$CELTSCALE
 40
1.0
  9
$DELOBJ
 70
     1
  9
$DISPSILH
 70
     0
  9
$DIMSCALE
 40
1.0
  9
$DIMASZ
 40
0.18
  9
$DIMEXO
 40
0.0625
  9
$DIMDLI
 40
0.38
  9
$DIMRND
 40
0.0
  9
$DIMDLE
 40
0.0
  9
$DIMEXE
 40
0.18
  9
$DIMTP
 40
0.0
  9
$DIMTM
 40
0.0
  9
$DIMTXT
 40
0.18
  9
$DIMCEN
 40
0.09
  9
$DIMTSZ
 40
0.0
  9
$DIMTOL
 70
     0
  9
$DIMLIM
 70
     0
  9
$DIMTIH
 70
     1
  9
$DIMTOH
 70
     1
  9
$DIMSE1
 70
     0
  9
$DIMSE2
 70
     0
  9
$DIMTAD
 70
     0
  9
$DIMZIN
 70
     0
  9
$DIMBLK
  1

  9
$DIMASO
 70
     1
  9
$DIMSHO
 70
     1
  9
$DIMPOST
  1

  9
$DIMAPOST
  1

  9
$DIMALT
 70
     0
  9
$DIMALTD
 70
     2
  9
$DIMALTF
 40
25.4
  9
$DIMLFAC
 40
1.0
  9
$DIMTOFL
 70
     0
  9
$DIMTVP
 40
0.0
  9
$DIMTIX
 70
     0
  9
$DIMSOXD
 70
     0
  9
$DIMSAH
 70
     0
  9
$DIMBLK1
  1

  9
$DIMBLK2
  1

  9
$DIMSTYLE
  2
STANDARD
  9
$DIMCLRD
 70
     0
  9
$DIMCLRE
 70
     0
  9
$DIMCLRT
 70
     0
  9
$DIMTFAC
 40
1.0
  9
$DIMGAP
 40
0.09
  9
$DIMJUST
 70
     0
  9
$DIMSD1
 70
     0
  9
$DIMSD2
 70
     0
  9
$DIMTOLJ
 70
     1
  9
$DIMTZIN
 70
     0
  9
$DIMALTZ
 70
     0
  9
$DIMALTTZ
 70
     0
  9
$DIMFIT
 70
     3
  9
$DIMUPT
 70
     0
  9
$DIMUNIT
 70
     2
  9
$DIMDEC
 70
     4
  9
$DIMTDEC
 70
     4
  9
$DIMALTU
 70
     2
  9
$DIMALTTD
 70
     2
  9
$DIMTXSTY
  7
STANDARD
  9
$DIMAUNIT
 70
     0
  9
$LUNITS
 70
     2
  9
$LUPREC
 70
     4
  9
$SKETCHINC
 40
0.1
  9
$FILLETRAD
 40
0.5
  9
$AUNITS
 70
     0
  9
$AUPREC
 70
     0
  9
$MENU
  1
.
  9
$ELEVATION
 40
0.0
  9
$PELEVATION
 40
0.0
  9
$THICKNESS
 40
0.0
  9
$LIMCHECK
 70
     0
  9
$CHAMFERA
 40
0.5
  9
$CHAMFERB
 40
0.5
  9
$CHAMFERC
 40
1.0
  9
$CHAMFERD
 40
0.0
  9
$SKPOLY
 70
     0
  9
$TDCREATE
 40
2456547.570339676
  9
$TDUPDATE
 40
2456547.570339688
  9
$TDINDWG
 40
0.0000000116
  9
$TDUSRTIMER
 40
0.0000000116
  9
$USRTIMER
 70
     1
  9
$ANGBASE
 50
0.0
  9
$ANGDIR
 70
     0
  9
$PDMODE
 70
     0
  9
$PDSIZE
 40
0.0
  9
$PLINEWID
 40
0.0
  9
$COORDS
 70
     1
  9
$SPLFRAME
 70
     0
  9
$SPLINETYPE
 70
     6
  9
$SPLINESEGS
 70
     8
  9
$ATTDIA
 70
     0
  9
$ATTREQ
 70
     1
  9
$HANDLING
 70
     1
  9
$HANDSEED
  5
CA
  9
$SURFTAB1
 70
     6
  9
$SURFTAB2
 70
     6
  9
$SURFTYPE
 70
     6
  9
$SURFU
 70
     6
  9
$SURFV
 70
     6
  9
$UCSNAME
  2

  9
$UCSORG
 10
0.0
 20
0.0
 30
0.0
  9
$UCSXDIR
 10
1.0
 20
0.0
 30
0.0
  9
$UCSYDIR
 10
0.0
 20
1.0
 30
0.0
  9
$PUCSNAME
  2

  9
$PUCSORG
 10
0.0
 20
0.0
 30
0.0
  9
$PUCSXDIR
 10
1.0
 20
0.0
 30
0.0
  9
$PUCSYDIR
 10
0.0
 20
1.0
 30
0.0
  9
$USERI1
 70
     0
  9
$USERI2
 70
     0
  9
$USERI3
 70
     0
  9
$USERI4
 70
     0
  9
$USERI5
 70
     0
  9
$USERR1
 40
0.0
  9
$USERR2
 40
0.0
  9
$USERR3
 40
0.0
  9
$USERR4
 40
0.0
  9
$USERR5
 40
0.0
  9
$WORLDVIEW
 70
     1
  9
$SHADEDGE
 70
     3
  9
$SHADEDIF
 70
    70
  9
$TILEMODE
 70
     1
  9
$MAXACTVP
 70
    64
  9
$PINSBASE
 10
0.0
 20
0.0
 30
0.0
  9
$PLIMCHECK
 70
     0
  9
$PEXTMIN
 10
1.000000000000000E+20
 20
1.000000000000000E+20
 30
1.000000000000000E+20
  9
$PEXTMAX
 10
-1.000000000000000E+20
 20
-1.000000000000000E+20
 30
-1.000000000000000E+20
  9
$PLIMMIN
 10
0.0
 20
0.0
  9
$PLIMMAX
 10
12.0
 20
9.0
  9
$UNITMODE
 70
     0
  9
$VISRETAIN
 70
     1
  9
$PLINEGEN
 70
     0
  9
$PSLTSCALE
 70
     1
  9
$TREEDEPTH
 70
  3020
  9
$PICKSTYLE
 70
     1
  9
$CMLSTYLE
  2
STANDARD
  9
$CMLJUST
 70
     0
  9
$CMLSCALE
 40
1.0
  9
$SAVEIMAGES
 70
     1
  0
ENDSEC
  0
SECTION
  2
CLASSES
  0
CLASS
  1
ACDBDICTIONARYWDFLT
  2
AcDbDictionaryWithDefault
  3
ObjectDBX Classes
 90
    32768
280
     0
281
     0
  0
CLASS
  1
VISUALSTYLE
  2
AcDbVisualStyle
  3
ObjectDBX Classes
 90
     4095
280
     0
281
     0
  0
CLASS
  1
XRECORD
  2
AcDbXrecord
  3
AutoCAD 2000
 90
    32768
280
     0
281
     0
  0
CLASS
  1
LWPOLYLINE
  2
AcDbPolyline
  3
AutoCAD 2000
 90
    32768
280
     0
281
     1
  0
CLASS
  1
HATCH
  2
AcDbHatch
  3
AutoCAD 2000
 90
    32768
280
     0
281
     1
  0
CLASS
  1
ACDBPLACEHOLDER
  2
AcDbPlaceHolder
  3
ObjectDBX Classes
 90
        0
280
     0
281
     0
  0
CLASS
  1
LAYOUT
  2
AcDbLayout
  3
ObjectDBX Classes
 90
        0
280
     0
281
     0
  0
ENDSEC
  0
SECTION
  2
TABLES
  0
TABLE
  2
VPORT
  5
8
330
0
100
AcDbSymbolTable
 70
     1
  0
VPORT
  5
29
330
8
100
AcDbSymbolTableRecord
100
AcDbViewportTableRecord
  2
*ACTIVE
 70
     0
 10
0.0
 20
0.0
 11
1.0
 21
1.0
 12
0.0
 22
0.0
 13
0.0
 23
0.0
 14
0.5
 24
0.5
 15
0.5
 25
0.5
 16
0.0
 26
0.0
 36
1.0
 17
249.9995550590279
 27
-105.0008259828644
 37
0.0
 40
210.0016519657288
 41
2.380929413829817
 42
50.0
 43
0.0
 44
0.0
 50
0.0
 51
0.0
 71
     0
 72
   100
 73
     1
 74
     3
 75
     0
 76
     0
 77
     0
 78
     0
  0
ENDTAB
  0
TABLE
  2
LTYPE
  5
5
330
0
100
AcDbSymbolTable
 70
     1
  0
LTYPE
  5
14
330
5
100
AcDbSymbolTableRecord
100
AcDbLinetypeTableRecord
  2
BYBLOCK
 70
     0
  3

 72
    65
 73
     0
 40
0.0
  0
LTYPE
  5
15
330
5
100
AcDbSymbolTableRecord
100
AcDbLinetypeTableRecord
  2
BYLAYER
 70
     0
  3

 72
    65
 73
     0
 40
0.0
  0
LTYPE
  5
16
330
5
100
AcDbSymbolTableRecord
100
AcDbLinetypeTableRecord
  2
CONTINUOUS
 70
     0
  3
Solid line
 72
    65
 73
     0
 40
0.0
  0
ENDTAB
  0
TABLE
  2
LAYER
  5
2
330
0
100
AcDbSymbolTable
 70
     2
  0
LAYER
  5
10
330
2
100
AcDbSymbolTableRecord
100
AcDbLayerTableRecord
  2
0
 70
     0
 62
     7
  6
CONTINUOUS
  0
LAYER
  5
3B
330
2
100
AcDbSymbolTableRecord
100
AcDbLayerTableRecord
  2
LAYER_1
 70
     0
 62
     7
  6
CONTINUOUS
  0
ENDTAB
  0
TABLE
  2
STYLE
  5
3
330
0
100
AcDbSymbolTable
 70
     1
  0
STYLE
  5
11
330
3
100
AcDbSymbolTableRecord
100
AcDbTextStyleTableRecord
  2
STANDARD
 70
     0
 40
0.0
 41
1.0
 50
0.0
 71
     0
 42
0.2
  3
txt
  4

  0
ENDTAB
  0
TABLE
  2
VIEW
  5
6
330
0
100
AcDbSymbolTable
 70
     0
  0
ENDTAB
  0
TABLE
  2
UCS
  5
7
330
0
100
AcDbSymbolTable
 70
     0
  0
ENDTAB
  0
TABLE
  2
APPID
  5
9
330
0
100
AcDbSymbolTable
 70
     1
  0
APPID
  5
12
330
9
100
AcDbSymbolTableRecord
100
AcDbRegAppTableRecord
  2
ACAD
 70
     0
  0
ENDTAB
  0
TABLE
  2
DIMSTYLE
  5
A
330
0
100
AcDbSymbolTable
 70
     1
  0
DIMSTYLE
105
27
330
A
100
AcDbSymbolTableRecord
100
AcDbDimStyleTableRecord
  2
STANDARD
 70
     0
  3

  4

  5

  6

  7

 40
1.0
 41
0.18
 42
0.0625
 43
0.38
 44
0.18
 45
0.0
 46
0.0
 47
0.0
 48
0.0
140
0.18
141
0.09
142
0.0
143
25.4
144
1.0
145
0.0
146
1.0
147
0.09
 71
     0
 72
     0
 73
     1
 74
     1
 75
     0
 76
     0
 77
     0
 78
     0
170
     0
171
     2
172
     0
173
     0
174
     0
175
     0
176
     0
177
     0
178
     0
270
     2
271
     4
272
     4
273
     2
274
     2
340
11
275
     0
280
     0
281
     0
282
     0
283
     1
284
     0
285
     0
286
     0
287
     3
288
     0
  0
ENDTAB
  0
TABLE
  2
BLOCK_RECORD
  5
1
330
0
100
AcDbSymbolTable
 70
     4
  0
BLOCK_RECORD
  5
1F
330
1
100
AcDbSymbolTableRecord
100
AcDbBlockTableRecord
  2
*MODEL_SPACE
  0
BLOCK_RECORD
  5
1B
330
1
100
AcDbSymbolTableRecord
100
AcDbBlockTableRecord
  2
*PAPER_SPACE
  0
BLOCK_RECORD
  5
3C
330
1
100
AcDbSymbolTableRecord
100
AcDbBlockTableRecord
  2
BLOCK_2
  0
BLOCK_RECORD
  5
54
330
1
100
AcDbSymbolTableRecord
100
AcDbBlockTableRecord
  2
BLOCK_3
  0
BLOCK_RECORD
  5
78
330
1
100
AcDbSymbolTableRecord
100
AcDbBlockTableRecord
  2
BLOCK_4
  0
ENDTAB
  0
ENDSEC
  0
SECTION
  2
BLOCKS
  0
BLOCK
  5
20
330
1F
100
AcDbEntity
  8
0
100
AcDbBlockBegin
  2
*MODEL_SPACE
 70
     0
 71
     0
 10
0.0
 20
0.0
 30
0.0
  3
*MODEL_SPACE
  1

  0
ENDBLK
  5
21
330
1F
100
AcDbEntity
  8
0
100
AcDbBlockEnd
  0
BLOCK
  5
1C
330
1B
100
AcDbEntity
 67
     1
  8
0
100
AcDbBlockBegin
  2
*PAPER_SPACE
 70
     0
 71
     0
 10
0.0
 20
0.0
 30
0.0
  3
*PAPER_SPACE
  1

  0
ENDBLK
  5
1D
330
1B
100
AcDbEntity
 67
     1
  8
0
100
AcDbBlockEnd
  0
BLOCK
  5
3E
330
3C
100
AcDbEntity
  8
0
100
AcDbBlockBegin
  2
BLOCK_2
 70
     0
 71
     0
 10
0.0
 20
0.0
 30
0.0
  3
BLOCK_2
  1

  0
SPLINE
  5
40
330
3C
100
AcDbEntity
  8
LAYER_1
 62
   250
100
AcDbSpline
210
0.0
220
0.0
230
1.0
 70
    11
 71
     3
 72
    17
 73
    13
 74
     0
 42
0.0000000001
 43
0.0000000001
 40
0.0
 40
0.0
 40
0.0
 40
0.0
 40
1.0
 40
1.0
 40
1.0
 40
2.0
 40
2.0
 40
2.0
 40
3.0
 40
3.0
 40
3.0
 40
4.0
 40
4.0
 40
4.0
 40
4.0
 10
75.49926755925019
 20
72.49858939159758
 30
0.0
 10
75.49926755925019
 20
71.67004392739499
 30
0.0
 10
74.827818449175
 20
70.9985948173198
 30
0.0
 10
73.99927298497241
 20
70.9985948173198
 30
0.0
 10
73.17072752076982
 20
70.9985948173198
 30
0.0
 10
72.49927841069463
 20
71.67004392739499
 30
0.0
 10
72.49927841069463
 20
72.49858939159758
 30
0.0
 10
72.49927841069463
 20
73.32713485580017
 30
0.0
 10
73.17072752076982
 20
73.99858396587535
 30
0.0
 10
73.99927298497241
 20
73.99858396587535
 30
0.0
 10
74.827818449175
 20
73.99858396587535
 30
0.0
 10
75.49926755925019
 20
73.32713485580017
 30
0.0
 10
75.49926755925019
 20
72.49858939159758
 30
0.0
  0
SPLINE
  5
41
330
3C
100
AcDbEntity
  8
LAYER_1
 62
   250
100
AcDbSpline
210
0.0
220
0.0
230
1.0
 70
    11
 71
     3
 72
    17
 73
    13
 74
     0
 42
0.0000000001
 43
0.0000000001
 40
0.0
 40
0.0
 40
0.0
 40
0.0
 40
1.0
 40
1.0
 40
1.0
 40
2.0
 40
2.0
 40
2.0
 40
3.0
 40
3.0
 40
3.0
 40
4.0
 40
4.0
 40
4.0
 40
4.0
 10
95.4994248893196
 20
72.49858939159758
 30
0.0
 10
95.4994248893196
 20
71.67004392739499
 30
0.0
 10
94.8279757792444
 20
70.9985948173198
 30
0.0
 10
93.99943031504182
 20
70.9985948173198
 30
0.0
 10
93.17088485083923
 20
70.9985948173198
 30
0.0
 10
92.49943574076403
 20
71.67004392739499
 30
0.0
 10
92.49943574076403
 20
72.49858939159758
 30
0.0
 10
92.49943574076403
 20
73.32713485580017
 30
0.0
 10
93.17088485083923
 20
73.99858396587535
 30
0.0
 10
93.99943031504182
 20
73.99858396587535
 30
0.0
 10
94.8279757792444
 20
73.99858396587535
 30
0.0
 10
95.4994248893196
 20
73.32713485580017
 30
0.0
 10
95.4994248893196
 20
72.49858939159758
 30
0.0
  0
SPLINE
  5
42
330
3C
100
AcDbEntity
  8
LAYER_1
 62
   250
100
AcDbSpline
210
0.0
220
0.0
230
1.0
 70
    11
 71
     3
 72
    17
 73
    13
 74
     0
 42
0.0000000001
 43
0.0000000001
 40
0.0
 40
0.0
 40
0.0
 40
0.0
 40
1.0
 40
1.0
 40
1.0
 40
2.0
 40
2.0
 40
2.0
 40
3.0
 40
3.0
 40
3.0
 40
4.0
 40
4.0
 40
4.0
 40
4.0
 10
115.4992377098405
 20
72.49858939159758
 30
0.0
 10
115.4992377098405
 20
71.67004392739499
 30
0.0
 10
114.8277885997653
 20
70.9985948173198
 30
0.0
 10
113.9992431355627
 20
70.9985948173198
 30
0.0
 10
113.1706976713601
 20
70.9985948173198
 30
0.0
 10
112.4992485612849
 20
71.67004392739499
 30
0.0
 10
112.4992485612849
 20
72.49858939159758
 30
0.0
 10
112.4992485612849
 20
73.32713485580017
 30
0.0
 10
113.1706976713601
 20
73.99858396587535
 30
0.0
 10
113.9992431355627
 20
73.99858396587535
 30
0.0
 10
114.8277885997653
 20
73.99858396587535
 30
0.0
 10
115.4992377098405
 20
73.32713485580017
 30
0.0
 10
115.4992377098405
 20
72.49858939159758
 30
0.0
  0
SPLINE
  5
43
330
3C
100
AcDbEntity
  8
LAYER_1
 62
   250
100
AcDbSpline
210
0.0
220
0.0
230
1.0
 70
    11
 71
     3
 72
    17
 73
    13
 74
     0
 42
0.0000000001
 43
0.0000000001
 40
0.0
 40
0.0
 40
0.0
 40
0.0
 40
1.0
 40
1.0
 40
1.0
 40
2.0
 40
2.0
 40
2.0
 40
3.0
 40
3.0
 40
3.0
 40
4.0
 40
4.0
 40
4.0
 40
4.0
 10
135.4993950399099
 20
72.49858939159758
 30
0.0
 10
135.4993950399099
 20
71.67004392739499
 30
0.0
 10
134.8279459298347
 20
70.9985948173198
 30
0.0
 10
133.9994004656321
 20
70.9985948173198
 30
0.0
 10
133.1708550014295
 20
70.9985948173198
 30
0.0
 10
132.4994058913543
 20
71.67004392739499
 30
0.0
 10
132.4994058913543
 20
72.49858939159758
 30
0.0
 10
132.4994058913543
 20
73.32713485580017
 30
0.0
 10
133.1708550014295
 20
73.99858396587535
 30
0.0
 10
133.9994004656321
 20
73.99858396587535
 30
0.0
 10
134.8279459298347
 20
73.99858396587535
 30
0.0
 10
135.4993950399099
 20
73.32713485580017
 30
0.0
 10
135.4993950399099
 20
72.49858939159758
 30
0.0
  0
SPLINE
  5
44
330
3C
100
AcDbEntity
  8
LAYER_1
 62
   250
100
AcDbSpline
210
0.0
220
0.0
230
1.0
 70
    11
 71
     3
 72
    17
 73
    13
 74
     0
 42
0.0000000001
 43
0.0000000001
 40
0.0
 40
0.0
 40
0.0
 40
0.0
 40
1.0
 40
1.0
 40
1.0
 40
2.0
 40
2.0
 40
2.0
 40
3.0
 40
3.0
 40
3.0
 40
4.0
 40
4.0
 40
4.0
 40
4.0
 10
155.4992078604308
 20
72.49858939159758
 30
0.0
 10
155.4992078604308
 20
71.67004392739499
 30
0.0
 10
154.8277587503556
 20
70.9985948173198
 30
0.0
 10
153.999213286153
 20
70.9985948173198
 30
0.0
 10
153.1706678219504
 20
70.9985948173198
 30
0.0
 10
152.4992187118752
 20
71.67004392739499
 30
0.0
 10
152.4992187118752
 20
72.49858939159758
 30
0.0
 10
152.4992187118752
 20
73.32713485580017
 30
0.0
 10
153.1706678219504
 20
73.99858396587535
 30
0.0
 10
153.999213286153
 20
73.99858396587535
 30
0.0
 10
154.8277587503556
 20
73.99858396587535
 30
0.0
 10
155.4992078604308
 20
73.32713485580017
 30
0.0
 10
155.4992078604308
 20
72.49858939159758
 30
0.0
  0
SPLINE
  5
45
330
3C
100
AcDbEntity
  8
LAYER_1
 62
   250
100
AcDbSpline
210
0.0
220
0.0
230
1.0
 70
    11
 71
     3
 72
    17
 73
    13
 74
     0
 42
0.0000000001
 43
0.0000000001
 40
0.0
 40
0.0
 40
0.0
 40
0.0
 40
1.0
 40
1.0
 40
1.0
 40
2.0
 40
2.0
 40
2.0
 40
3.0
 40
3.0
 40
3.0
 40
4.0
 40
4.0
 40
4.0
 40
4.0
 10
175.4993651905002
 20
72.49858939159758
 30
0.0
 10
175.4993651905002
 20
71.67004392739499
 30
0.0
 10
174.827916080425
 20
70.9985948173198
 30
0.0
 10
173.9993706162224
 20
70.9985948173198
 30
0.0
 10
173.1708251520198
 20
70.9985948173198
 30
0.0
 10
172.4993760419446
 20
71.67004392739499
 30
0.0
 10
172.4993760419446
 20
72.49858939159758
 30
0.0
 10
172.4993760419446
 20
73.32713485580017
 30
0.0
 10
173.1708251520198
 20
73.99858396587535
 30
0.0
 10
173.9993706162224
 20
73.99858396587535
 30
0.0
 10
174.827916080425
 20
73.99858396587535
 30
0.0
 10
175.4993651905002
 20
73.32713485580017
 30
0.0
 10
175.4993651905002
 20
72.49858939159758
 30
0.0
  0
SPLINE
  5
46
330
3C
100
AcDbEntity
  8
LAYER_1
 62
   250
100
AcDbSpline
210
0.0
220
0.0
230
1.0
 70
    11
 71
     3
 72
    17
 73
    13
 74
     0
 42
0.0000000001
 43
0.0000000001
 40
0.0
 40
0.0
 40
0.0
 40
0.0
 40
1.0
 40
1.0
 40
1.0
 40
2.0
 40
2.0
 40
2.0
 40
3.0
 40
3.0
 40
3.0
 40
4.0
 40
4.0
 40
4.0
 40
4.0
 10
195.4991780110211
 20
72.49858939159758
 30
0.0
 10
195.4991780110211
 20
71.67004392739499
 30
0.0
 10
194.8277289009459
 20
70.9985948173198
 30
0.0
 10
193.9991834367433
 20
70.9985948173198
 30
0.0
 10
193.1706379725407
 20
70.9985948173198
 30
0.0
 10
192.4991888624655
 20
71.67004392739499
 30
0.0
 10
192.4991888624655
 20
72.49858939159758
 30
0.0
 10
192.4991888624655
 20
73.32713485580017
 30
0.0
 10
193.1706379725407
 20
73.99858396587535
 30
0.0
 10
193.9991834367433
 20
73.99858396587535
 30
0.0
 10
194.8277289009459
 20
73.99858396587535
 30
0.0
 10
195.4991780110211
 20
73.32713485580017
 30
0.0
 10
195.4991780110211
 20
72.49858939159758
 30
0.0
  0
SPLINE
  5
47
330
3C
100
AcDbEntity
  8
LAYER_1
 62
   250
100
AcDbSpline
210
0.0
220
0.0
230
1.0
 70
    11
 71
     3
 72
    17
 73
    13
 74
     0
 42
0.0000000001
 43
0.0000000001
 40
0.0
 40
0.0
 40
0.0
 40
0.0
 40
1.0
 40
1.0
 40
1.0
 40
2.0
 40
2.0
 40
2.0
 40
3.0
 40
3.0
 40
3.0
 40
4.0
 40
4.0
 40
4.0
 40
4.0
 10
215.4993353410904
 20
72.49858939159758
 30
0.0
 10
215.4993353410904
 20
71.67004392739499
 30
0.0
 10
214.8278862310153
 20
70.9985948173198
 30
0.0
 10
213.9993407668127
 20
70.9985948173198
 30
0.0
 10
213.1707953026101
 20
70.9985948173198
 30
0.0
 10
212.4993461925349
 20
71.67004392739499
 30
0.0
 10
212.4993461925349
 20
72.49858939159758
 30
0.0
 10
212.4993461925349
 20
73.32713485580017
 30
0.0
 10
213.1707953026101
 20
73.99858396587535
 30
0.0
 10
213.9993407668127
 20
73.99858396587535
 30
0.0
 10
214.8278862310153
 20
73.99858396587535
 30
0.0
 10
215.4993353410904
 20
73.32713485580017
 30
0.0
 10
215.4993353410904
 20
72.49858939159758
 30
0.0
  0
SPLINE
  5
48
330
3C
100
AcDbEntity
  8
LAYER_1
 62
   250
100
AcDbSpline
210
0.0
220
0.0
230
1.0
 70
    11
 71
     3
 72
    17
 73
    13
 74
     0
 42
0.0000000001
 43
0.0000000001
 40
0.0
 40
0.0
 40
0.0
 40
0.0
 40
1.0
 40
1.0
 40
1.0
 40
2.0
 40
2.0
 40
2.0
 40
3.0
 40
3.0
 40
3.0
 40
4.0
 40
4.0
 40
4.0
 40
4.0
 10
235.4994926711599
 20
72.49858939159758
 30
0.0
 10
235.4994926711599
 20
71.67004392739499
 30
0.0
 10
234.8280435610847
 20
70.9985948173198
 30
0.0
 10
233.9994980968821
 20
70.9985948173198
 30
0.0
 10
233.1709526326795
 20
70.9985948173198
 30
0.0
 10
232.4995035226043
 20
71.67004392739499
 30
0.0
 10
232.4995035226043
 20
72.49858939159758
 30
0.0
 10
232.4995035226043
 20
73.32713485580017
 30
0.0
 10
233.1709526326795
 20
73.99858396587535
 30
0.0
 10
233.9994980968821
 20
73.99858396587535
 30
0.0
 10
234.8280435610847
 20
73.99858396587535
 30
0.0
 10
235.4994926711599
 20
73.32713485580017
 30
0.0
 10
235.4994926711599
 20
72.49858939159758
 30
0.0
  0
SPLINE
  5
49
330
3C
100
AcDbEntity
  8
LAYER_1
 62
   250
100
AcDbSpline
210
0.0
220
0.0
230
1.0
 70
    11
 71
     3
 72
    17
 73
    13
 74
     0
 42
0.0000000001
 43
0.0000000001
 40
0.0
 40
0.0
 40
0.0
 40
0.0
 40
1.0
 40
1.0
 40
1.0
 40
2.0
 40
2.0
 40
2.0
 40
3.0
 40
3.0
 40
3.0
 40
4.0
 40
4.0
 40
4.0
 40
4.0
 10
255.4999945107778
 20
72.49858939159758
 30
0.0
 10
255.4999945107778
 20
71.67004392739499
 30
0.0
 10
254.8285454007026
 20
70.9985948173198
 30
0.0
 10
253.9999999365
 20
70.9985948173198
 30
0.0
 10
253.1714544722974
 20
70.9985948173198
 30
0.0
 10
252.5000053622222
 20
71.67004392739499
 30
0.0
 10
252.5000053622222
 20
72.49858939159758
 30
0.0
 10
252.5000053622222
 20
73.32713485580017
 30
0.0
 10
253.1714544722974
 20
73.99858396587535
 30
0.0
 10
253.9999999365
 20
73.99858396587535
 30
0.0
 10
254.8285454007026
 20
73.99858396587535
 30
0.0
 10
255.4999945107778
 20
73.32713485580017
 30
0.0
 10
255.4999945107778
 20
72.49858939159758
 30
0.0
  0
SPLINE
  5
4A
330
3C
100
AcDbEntity
  8
LAYER_1
 62
   250
100
AcDbSpline
210
0.0
220
0.0
230
1.0
 70
    11
 71
     3
 72
    17
 73
    13
 74
     0
 42
0.0000000001
 43
0.0000000001
 40
0.0
 40
0.0
 40
0.0
 40
0.0
 40
1.0
 40
1.0
 40
1.0
 40
2.0
 40
2.0
 40
2.0
 40
3.0
 40
3.0
 40
3.0
 40
4.0
 40
4.0
 40
4.0
 40
4.0
 10
275.5011853694928
 20
72.49858939159758
 30
0.0
 10
275.5011853694928
 20
71.67004392739499
 30
0.0
 10
274.8297362594176
 20
70.9985948173198
 30
0.0
 10
274.001190795215
 20
70.9985948173198
 30
0.0
 10
273.1723008214639
 20
70.9985948173198
 30
0.0
 10
272.5008517113887
 20
71.67004392739499
 30
0.0
 10
272.5008517113887
 20
72.49858939159758
 30
0.0
 10
272.5008517113887
 20
73.32713485580017
 30
0.0
 10
273.1723008214639
 20
73.99858396587535
 30
0.0
 10
274.001190795215
 20
73.99858396587535
 30
0.0
 10
274.8297362594176
 20
73.99858396587535
 30
0.0
 10
275.5011853694928
 20
73.32713485580017
 30
0.0
 10
275.5011853694928
 20
72.49858939159758
 30
0.0
  0
SPLINE
  5
4B
330
3C
100
AcDbEntity
  8
LAYER_1
 62
   250
100
AcDbSpline
210
0.0
220
0.0
230
1.0
 70
    11
 71
     3
 72
    17
 73
    13
 74
     0
 42
0.0000000001
 43
0.0000000001
 40
0.0
 40
0.0
 40
0.0
 40
0.0
 40
1.0
 40
1.0
 40
1.0
 40
2.0
 40
2.0
 40
2.0
 40
3.0
 40
3.0
 40
3.0
 40
4.0
 40
4.0
 40
4.0
 40
4.0
 10
295.5020317186592
 20
72.49858939159758
 30
0.0
 10
295.5020317186592
 20
71.67004392739499
 30
0.0
 10
294.8305826085841
 20
70.9985948173198
 30
0.0
 10
294.0016926348329
 20
70.9985948173198
 30
0.0
 10
293.1731471706303
 20
70.9985948173198
 30
0.0
 10
292.5016980605552
 20
71.67004392739499
 30
0.0
 10
292.5016980605552
 20
72.49858939159758
 30
0.0
 10
292.5016980605552
 20
73.32713485580017
 30
0.0
 10
293.1731471706303
 20
73.99858396587535
 30
0.0
 10
294.0016926348329
 20
73.99858396587535
 30
0.0
 10
294.8305826085841
 20
73.99858396587535
 30
0.0
 10
295.5020317186592
 20
73.32713485580017
 30
0.0
 10
295.5020317186592
 20
72.49858939159758
 30
0.0
  0
SPLINE
  5
4C
330
3C
100
AcDbEntity
  8
LAYER_1
 62
   250
100
AcDbSpline
210
0.0
220
0.0
230
1.0
 70
    11
 71
     3
 72
    17
 73
    13
 74
     0
 42
0.0000000001
 43
0.0000000001
 40
0.0
 40
0.0
 40
0.0
 40
0.0
 40
1.0
 40
1.0
 40
1.0
 40
2.0
 40
2.0
 40
2.0
 40
3.0
 40
3.0
 40
3.0
 40
4.0
 40
4.0
 40
4.0
 40
4.0
 10
315.5028780678257
 20
72.49858939159758
 30
0.0
 10
315.5028780678257
 20
71.67004392739499
 30
0.0
 10
314.8314289577505
 20
70.9985948173198
 30
0.0
 10
314.0028834935479
 20
70.9985948173198
 30
0.0
 10
313.1743380293453
 20
70.9985948173198
 30
0.0
 10
312.5028889192701
 20
71.67004392739499
 30
0.0
 10
312.5028889192701
 20
72.49858939159758
 30
0.0
 10
312.5028889192701
 20
73.32713485580017
 30
0.0
 10
313.1743380293453
 20
73.99858396587535
 30
0.0
 10
314.0028834935479
 20
73.99858396587535
 30
0.0
 10
314.8314289577505
 20
73.99858396587535
 30
0.0
 10
315.5028780678257
 20
73.32713485580017
 30
0.0
 10
315.5028780678257
 20
72.49858939159758
 30
0.0
  0
SPLINE
  5
4D
330
3C
100
AcDbEntity
  8
LAYER_1
 62
   250
100
AcDbSpline
210
0.0
220
0.0
230
1.0
 70
    11
 71
     3
 72
    17
 73
    13
 74
     0
 42
0.0000000001
 43
0.0000000001
 40
0.0
 40
0.0
 40
0.0
 40
0.0
 40
1.0
 40
1.0
 40
1.0
 40
2.0
 40
2.0
 40
2.0
 40
3.0
 40
3.0
 40
3.0
 40
4.0
 40
4.0
 40
4.0
 40
4.0
 10
335.5030353978951
 20
72.49858939159758
 30
0.0
 10
335.5030353978951
 20
71.67004392739499
 30
0.0
 10
334.8315862878199
 20
70.9985948173198
 30
0.0
 10
334.0030408236173
 20
70.9985948173198
 30
0.0
 10
333.1744953594147
 20
70.9985948173198
 30
0.0
 10
332.5030462493395
 20
71.67004392739499
 30
0.0
 10
332.5030462493395
 20
72.49858939159758
 30
0.0
 10
332.5030462493395
 20
73.32713485580017
 30
0.0
 10
333.1744953594147
 20
73.99858396587535
 30
0.0
 10
334.0030408236173
 20
73.99858396587535
 30
0.0
 10
334.8315862878199
 20
73.99858396587535
 30
0.0
 10
335.5030353978951
 20
73.32713485580017
 30
0.0
 10
335.5030353978951
 20
72.49858939159758
 30
0.0
  0
SPLINE
  5
4E
330
3C
100
AcDbEntity
  8
LAYER_1
 62
   250
100
AcDbSpline
210
0.0
220
0.0
230
1.0
 70
    11
 71
     3
 72
    17
 73
    13
 74
     0
 42
0.0000000001
 43
0.0000000001
 40
0.0
 40
0.0
 40
0.0
 40
0.0
 40
1.0
 40
1.0
 40
1.0
 40
2.0
 40
2.0
 40
2.0
 40
3.0
 40
3.0
 40
3.0
 40
4.0
 40
4.0
 40
4.0
 40
4.0
 10
355.5031927279645
 20
72.49858939159758
 30
0.0
 10
355.5031927279645
 20
71.67004392739499
 30
0.0
 10
354.8317436178893
 20
70.9985948173198
 30
0.0
 10
354.0031981536867
 20
70.9985948173198
 30
0.0
 10
353.1746526894841
 20
70.9985948173198
 30
0.0
 10
352.5032035794089
 20
71.67004392739499
 30
0.0
 10
352.5032035794089
 20
72.49858939159758
 30
0.0
 10
352.5032035794089
 20
73.32713485580017
 30
0.0
 10
353.1746526894841
 20
73.99858396587535
 30
0.0
 10
354.0031981536867
 20
73.99858396587535
 30
0.0
 10
354.8317436178893
 20
73.99858396587535
 30
0.0
 10
355.5031927279645
 20
73.32713485580017
 30
0.0
 10
355.5031927279645
 20
72.49858939159758
 30
0.0
  0
SPLINE
  5
4F
330
3C
100
AcDbEntity
  8
LAYER_1
 62
   250
100
AcDbSpline
210
0.0
220
0.0
230
1.0
 70
    11
 71
     3
 72
    17
 73
    13
 74
     0
 42
0.0000000001
 43
0.0000000001
 40
0.0
 40
0.0
 40
0.0
 40
0.0
 40
1.0
 40
1.0
 40
1.0
 40
2.0
 40
2.0
 40
2.0
 40
3.0
 40
3.0
 40
3.0
 40
4.0
 40
4.0
 40
4.0
 40
4.0
 10
375.5030055484854
 20
72.49858939159758
 30
0.0
 10
375.5030055484854
 20
71.67004392739499
 30
0.0
 10
374.8315564384102
 20
70.9985948173198
 30
0.0
 10
374.0030109742076
 20
70.9985948173198
 30
0.0
 10
373.174465510005
 20
70.9985948173198
 30
0.0
 10
372.5030163999298
 20
71.67004392739499
 30
0.0
 10
372.5030163999298
 20
72.49858939159758
 30
0.0
 10
372.5030163999298
 20
73.32713485580017
 30
0.0
 10
373.174465510005
 20
73.99858396587535
 30
0.0
 10
374.0030109742076
 20
73.99858396587535
 30
0.0
 10
374.8315564384102
 20
73.99858396587535
 30
0.0
 10
375.5030055484854
 20
73.32713485580017
 30
0.0
 10
375.5030055484854
 20
72.49858939159758
 30
0.0
  0
SPLINE
  5
50
330
3C
100
AcDbEntity
  8
LAYER_1
 62
   250
100
AcDbSpline
210
0.0
220
0.0
230
1.0
 70
    11
 71
     3
 72
    17
 73
    13
 74
     0
 42
0.0000000001
 43
0.0000000001
 40
0.0
 40
0.0
 40
0.0
 40
0.0
 40
1.0
 40
1.0
 40
1.0
 40
2.0
 40
2.0
 40
2.0
 40
3.0
 40
3.0
 40
3.0
 40
4.0
 40
4.0
 40
4.0
 40
4.0
 10
395.5031628785548
 20
72.49858939159758
 30
0.0
 10
395.5031628785548
 20
71.67004392739499
 30
0.0
 10
394.8317137684796
 20
70.9985948173198
 30
0.0
 10
394.003168304277
 20
70.9985948173198
 30
0.0
 10
393.1746228400744
 20
70.9985948173198
 30
0.0
 10
392.5031737299992
 20
71.67004392739499
 30
0.0
 10
392.5031737299992
 20
72.49858939159758
 30
0.0
 10
392.5031737299992
 20
73.32713485580017
 30
0.0
 10
393.1746228400744
 20
73.99858396587535
 30
0.0
 10
394.003168304277
 20
73.99858396587535
 30
0.0
 10
394.8317137684796
 20
73.99858396587535
 30
0.0
 10
395.5031628785548
 20
73.32713485580017
 30
0.0
 10
395.5031628785548
 20
72.49858939159758
 30
0.0
  0
SPLINE
  5
51
330
3C
100
AcDbEntity
  8
LAYER_1
 62
   250
100
AcDbSpline
210
0.0
220
0.0
230
1.0
 70
    11
 71
     3
 72
    17
 73
    13
 74
     0
 42
0.0000000001
 43
0.0000000001
 40
0.0
 40
0.0
 40
0.0
 40
0.0
 40
1.0
 40
1.0
 40
1.0
 40
2.0
 40
2.0
 40
2.0
 40
3.0
 40
3.0
 40
3.0
 40
4.0
 40
4.0
 40
4.0
 40
4.0
 10
415.5029756990756
 20
72.49858939159758
 30
0.0
 10
415.5029756990756
 20
71.67004392739499
 30
0.0
 10
414.8315265890005
 20
70.9985948173198
 30
0.0
 10
414.0029811247979
 20
70.9985948173198
 30
0.0
 10
413.1744356605953
 20
70.9985948173198
 30
0.0
 10
412.5029865505201
 20
71.67004392739499
 30
0.0
 10
412.5029865505201
 20
72.49858939159758
 30
0.0
 10
412.5029865505201
 20
73.32713485580017
 30
0.0
 10
413.1744356605953
 20
73.99858396587535
 30
0.0
 10
414.0029811247979
 20
73.99858396587535
 30
0.0
 10
414.8315265890005
 20
73.99858396587535
 30
0.0
 10
415.5029756990756
 20
73.32713485580017
 30
0.0
 10
415.5029756990756
 20
72.49858939159758
 30
0.0
  0
SPLINE
  5
52
330
3C
100
AcDbEntity
  8
LAYER_1
 62
   250
100
AcDbSpline
210
0.0
220
0.0
230
1.0
 70
    11
 71
     3
 72
    17
 73
    13
 74
     0
 42
0.0000000001
 43
0.0000000001
 40
0.0
 40
0.0
 40
0.0
 40
0.0
 40
1.0
 40
1.0
 40
1.0
 40
2.0
 40
2.0
 40
2.0
 40
3.0
 40
3.0
 40
3.0
 40
4.0
 40
4.0
 40
4.0
 40
4.0
 10
435.5031330291451
 20
72.49858939159758
 30
0.0
 10
435.5031330291451
 20
71.67004392739499
 30
0.0
 10
434.8316839190699
 20
70.9985948173198
 30
0.0
 10
434.0031384548673
 20
70.9985948173198
 30
0.0
 10
433.1745929906647
 20
70.9985948173198
 30
0.0
 10
432.5031438805895
 20
71.67004392739499
 30
0.0
 10
432.5031438805895
 20
72.49858939159758
 30
0.0
 10
432.5031438805895
 20
73.32713485580017
 30
0.0
 10
433.1745929906647
 20
73.99858396587535
 30
0.0
 10
434.0031384548673
 20
73.99858396587535
 30
0.0
 10
434.8316839190699
 20
73.99858396587535
 30
0.0
 10
435.5031330291451
 20
73.32713485580017
 30
0.0
 10
435.5031330291451
 20
72.49858939159758
 30
0.0
  0
SPLINE
  5
53
330
3C
100
AcDbEntity
  8
LAYER_1
 62
   250
100
AcDbSpline
210
0.0
220
0.0
230
1.0
 70
    11
 71
     3
 72
    17
 73
    13
 74
     0
 42
0.0000000001
 43
0.0000000001
 40
0.0
 40
0.0
 40
0.0
 40
0.0
 40
1.0
 40
1.0
 40
1.0
 40
2.0
 40
2.0
 40
2.0
 40
3.0
 40
3.0
 40
3.0
 40
4.0
 40
4.0
 40
4.0
 40
4.0
 10
455.5029458496659
 20
72.49858939159758
 30
0.0
 10
455.5029458496659
 20
71.67004392739499
 30
0.0
 10
454.8314967395908
 20
70.9985948173198
 30
0.0
 10
454.0029512753882
 20
70.9985948173198
 30
0.0
 10
453.1744058111856
 20
70.9985948173198
 30
0.0
 10
452.5029567011104
 20
71.67004392739499
 30
0.0
 10
452.5029567011104
 20
72.49858939159758
 30
0.0
 10
452.5029567011104
 20
73.32713485580017
 30
0.0
 10
453.1744058111856
 20
73.99858396587535
 30
0.0
 10
454.0029512753882
 20
73.99858396587535
 30
0.0
 10
454.8314967395908
 20
73.99858396587535
 30
0.0
 10
455.5029458496659
 20
73.32713485580017
 30
0.0
 10
455.5029458496659
 20
72.49858939159758
 30
0.0
  0
ENDBLK
  5
3F
330
3C
100
AcDbEntity
  8
0
100
AcDbBlockEnd
  0
BLOCK
  5
56
330
54
100
AcDbEntity
  8
0
100
AcDbBlockBegin
  2
BLOCK_3
 70
     0
 71
     0
 10
0.0
 20
0.0
 30
0.0
  3
BLOCK_3
  1

  0
SPLINE
  5
58
330
54
100
AcDbEntity
  8
LAYER_1
 62
   250
100
AcDbSpline
210
0.0
220
0.0
230
1.0
 70
    11
 71
     3
 72
    17
 73
    13
 74
     0
 42
0.0000000001
 43
0.0000000001
 40
0.0
 40
0.0
 40
0.0
 40
0.0
 40
1.0
 40
1.0
 40
1.0
 40
2.0
 40
2.0
 40
2.0
 40
3.0
 40
3.0
 40
3.0
 40
4.0
 40
4.0
 40
4.0
 40
4.0
 10
75.49926755925019
 20
7.499628361840371
 30
0.0
 10
75.49926755925019
 20
6.671082897637785
 30
0.0
 10
74.827818449175
 20
5.999633787562592
 30
0.0
 10
73.99927298497241
 20
5.999633787562592
 30
0.0
 10
73.17072752076982
 20
5.999633787562592
 30
0.0
 10
72.49927841069463
 20
6.671082897637785
 30
0.0
 10
72.49927841069463
 20
7.499628361840371
 30
0.0
 10
72.49927841069463
 20
8.328173826042956
 30
0.0
 10
73.17072752076982
 20
8.999450681343887
 30
0.0
 10
73.99927298497241
 20
8.999450681343887
 30
0.0
 10
74.827818449175
 20
8.999450681343887
 30
0.0
 10
75.49926755925019
 20
8.328173826042956
 30
0.0
 10
75.49926755925019
 20
7.499628361840371
 30
0.0
  0
SPLINE
  5
59
330
54
100
AcDbEntity
  8
LAYER_1
 62
   250
100
AcDbSpline
210
0.0
220
0.0
230
1.0
 70
    11
 71
     3
 72
    17
 73
    13
 74
     0
 42
0.0000000001
 43
0.0000000001
 40
0.0
 40
0.0
 40
0.0
 40
0.0
 40
1.0
 40
1.0
 40
1.0
 40
2.0
 40
2.0
 40
2.0
 40
3.0
 40
3.0
 40
3.0
 40
4.0
 40
4.0
 40
4.0
 40
4.0
 10
95.4994248893196
 20
7.499628361840371
 30
0.0
 10
95.4994248893196
 20
6.671082897637785
 30
0.0
 10
94.8279757792444
 20
5.999633787562592
 30
0.0
 10
93.99943031504182
 20
5.999633787562592
 30
0.0
 10
93.17088485083923
 20
5.999633787562592
 30
0.0
 10
92.49943574076403
 20
6.671082897637785
 30
0.0
 10
92.49943574076403
 20
7.499628361840371
 30
0.0
 10
92.49943574076403
 20
8.328173826042956
 30
0.0
 10
93.17088485083923
 20
8.999450681343887
 30
0.0
 10
93.99943031504182
 20
8.999450681343887
 30
0.0
 10
94.8279757792444
 20
8.999450681343887
 30
0.0
 10
95.4994248893196
 20
8.328173826042956
 30
0.0
 10
95.4994248893196
 20
7.499628361840371
 30
0.0
  0
SPLINE
  5
5A
330
54
100
AcDbEntity
  8
LAYER_1
 62
   250
100
AcDbSpline
210
0.0
220
0.0
230
1.0
 70
    11
 71
     3
 72
    17
 73
    13
 74
     0
 42
0.0000000001
 43
0.0000000001
 40
0.0
 40
0.0
 40
0.0
 40
0.0
 40
1.0
 40
1.0
 40
1.0
 40
2.0
 40
2.0
 40
2.0
 40
3.0
 40
3.0
 40
3.0
 40
4.0
 40
4.0
 40
4.0
 40
4.0
 10
115.4992377098405
 20
7.499628361840371
 30
0.0
 10
115.4992377098405
 20
6.671082897637785
 30
0.0
 10
114.8277885997653
 20
5.999633787562592
 30
0.0
 10
113.9992431355627
 20
5.999633787562592
 30
0.0
 10
113.1706976713601
 20
5.999633787562592
 30
0.0
 10
112.4992485612849
 20
6.671082897637785
 30
0.0
 10
112.4992485612849
 20
7.499628361840371
 30
0.0
 10
112.4992485612849
 20
8.328173826042956
 30
0.0
 10
113.1706976713601
 20
8.999450681343887
 30
0.0
 10
113.9992431355627
 20
8.999450681343887
 30
0.0
 10
114.8277885997653
 20
8.999450681343887
 30
0.0
 10
115.4992377098405
 20
8.328173826042956
 30
0.0
 10
115.4992377098405
 20
7.499628361840371
 30
0.0
  0
SPLINE
  5
5B
330
54
100
AcDbEntity
  8
LAYER_1
 62
   250
100
AcDbSpline
210
0.0
220
0.0
230
1.0
 70
    11
 71
     3
 72
    17
 73
    13
 74
     0
 42
0.0000000001
 43
0.0000000001
 40
0.0
 40
0.0
 40
0.0
 40
0.0
 40
1.0
 40
1.0
 40
1.0
 40
2.0
 40
2.0
 40
2.0
 40
3.0
 40
3.0
 40
3.0
 40
4.0
 40
4.0
 40
4.0
 40
4.0
 10
135.4993950399099
 20
7.499628361840371
 30
0.0
 10
135.4993950399099
 20
6.671082897637785
 30
0.0
 10
134.8279459298347
 20
5.999633787562592
 30
0.0
 10
133.9994004656321
 20
5.999633787562592
 30
0.0
 10
133.1708550014295
 20
5.999633787562592
 30
0.0
 10
132.4994058913543
 20
6.671082897637785
 30
0.0
 10
132.4994058913543
 20
7.499628361840371
 30
0.0
 10
132.4994058913543
 20
8.328173826042956
 30
0.0
 10
133.1708550014295
 20
8.999450681343887
 30
0.0
 10
133.9994004656321
 20
8.999450681343887
 30
0.0
 10
134.8279459298347
 20
8.999450681343887
 30
0.0
 10
135.4993950399099
 20
8.328173826042956
 30
0.0
 10
135.4993950399099
 20
7.499628361840371
 30
0.0
  0
SPLINE
  5
5C
330
54
100
AcDbEntity
  8
LAYER_1
 62
   250
100
AcDbSpline
210
0.0
220
0.0
230
1.0
 70
    11
 71
     3
 72
    17
 73
    13
 74
     0
 42
0.0000000001
 43
0.0000000001
 40
0.0
 40
0.0
 40
0.0
 40
0.0
 40
1.0
 40
1.0
 40
1.0
 40
2.0
 40
2.0
 40
2.0
 40
3.0
 40
3.0
 40
3.0
 40
4.0
 40
4.0
 40
4.0
 40
4.0
 10
155.4992078604308
 20
7.499628361840371
 30
0.0
 10
155.4992078604308
 20
6.671082897637785
 30
0.0
 10
154.8277587503556
 20
5.999633787562592
 30
0.0
 10
153.999213286153
 20
5.999633787562592
 30
0.0
 10
153.1706678219504
 20
5.999633787562592
 30
0.0
 10
152.4992187118752
 20
6.671082897637785
 30
0.0
 10
152.4992187118752
 20
7.499628361840371
 30
0.0
 10
152.4992187118752
 20
8.328173826042956
 30
0.0
 10
153.1706678219504
 20
8.999450681343887
 30
0.0
 10
153.999213286153
 20
8.999450681343887
 30
0.0
 10
154.8277587503556
 20
8.999450681343887
 30
0.0
 10
155.4992078604308
 20
8.328173826042956
 30
0.0
 10
155.4992078604308
 20
7.499628361840371
 30
0.0
  0
SPLINE
  5
5D
330
54
100
AcDbEntity
  8
LAYER_1
 62
   250
100
AcDbSpline
210
0.0
220
0.0
230
1.0
 70
    11
 71
     3
 72
    17
 73
    13
 74
     0
 42
0.0000000001
 43
0.0000000001
 40
0.0
 40
0.0
 40
0.0
 40
0.0
 40
1.0
 40
1.0
 40
1.0
 40
2.0
 40
2.0
 40
2.0
 40
3.0
 40
3.0
 40
3.0
 40
4.0
 40
4.0
 40
4.0
 40
4.0
 10
175.4993651905002
 20
7.499628361840371
 30
0.0
 10
175.4993651905002
 20
6.671082897637785
 30
0.0
 10
174.827916080425
 20
5.999633787562592
 30
0.0
 10
173.9993706162224
 20
5.999633787562592
 30
0.0
 10
173.1708251520198
 20
5.999633787562592
 30
0.0
 10
172.4993760419446
 20
6.671082897637785
 30
0.0
 10
172.4993760419446
 20
7.499628361840371
 30
0.0
 10
172.4993760419446
 20
8.328173826042956
 30
0.0
 10
173.1708251520198
 20
8.999450681343887
 30
0.0
 10
173.9993706162224
 20
8.999450681343887
 30
0.0
 10
174.827916080425
 20
8.999450681343887
 30
0.0
 10
175.4993651905002
 20
8.328173826042956
 30
0.0
 10
175.4993651905002
 20
7.499628361840371
 30
0.0
  0
SPLINE
  5
5E
330
54
100
AcDbEntity
  8
LAYER_1
 62
   250
100
AcDbSpline
210
0.0
220
0.0
230
1.0
 70
    11
 71
     3
 72
    17
 73
    13
 74
     0
 42
0.0000000001
 43
0.0000000001
 40
0.0
 40
0.0
 40
0.0
 40
0.0
 40
1.0
 40
1.0
 40
1.0
 40
2.0
 40
2.0
 40
2.0
 40
3.0
 40
3.0
 40
3.0
 40
4.0
 40
4.0
 40
4.0
 40
4.0
 10
195.4991780110211
 20
7.499628361840371
 30
0.0
 10
195.4991780110211
 20
6.671082897637785
 30
0.0
 10
194.8277289009459
 20
5.999633787562592
 30
0.0
 10
193.9991834367433
 20
5.999633787562592
 30
0.0
 10
193.1706379725407
 20
5.999633787562592
 30
0.0
 10
192.4991888624655
 20
6.671082897637785
 30
0.0
 10
192.4991888624655
 20
7.499628361840371
 30
0.0
 10
192.4991888624655
 20
8.328173826042956
 30
0.0
 10
193.1706379725407
 20
8.999450681343887
 30
0.0
 10
193.9991834367433
 20
8.999450681343887
 30
0.0
 10
194.8277289009459
 20
8.999450681343887
 30
0.0
 10
195.4991780110211
 20
8.328173826042956
 30
0.0
 10
195.4991780110211
 20
7.499628361840371
 30
0.0
  0
SPLINE
  5
5F
330
54
100
AcDbEntity
  8
LAYER_1
 62
   250
100
AcDbSpline
210
0.0
220
0.0
230
1.0
 70
    11
 71
     3
 72
    17
 73
    13
 74
     0
 42
0.0000000001
 43
0.0000000001
 40
0.0
 40
0.0
 40
0.0
 40
0.0
 40
1.0
 40
1.0
 40
1.0
 40
2.0
 40
2.0
 40
2.0
 40
3.0
 40
3.0
 40
3.0
 40
4.0
 40
4.0
 40
4.0
 40
4.0
 10
215.4993353410904
 20
7.499628361840371
 30
0.0
 10
215.4993353410904
 20
6.671082897637785
 30
0.0
 10
214.8278862310153
 20
5.999633787562592
 30
0.0
 10
213.9993407668127
 20
5.999633787562592
 30
0.0
 10
213.1707953026101
 20
5.999633787562592
 30
0.0
 10
212.4993461925349
 20
6.671082897637785
 30
0.0
 10
212.4993461925349
 20
7.499628361840371
 30
0.0
 10
212.4993461925349
 20
8.328173826042956
 30
0.0
 10
213.1707953026101
 20
8.999450681343887
 30
0.0
 10
213.9993407668127
 20
8.999450681343887
 30
0.0
 10
214.8278862310153
 20
8.999450681343887
 30
0.0
 10
215.4993353410904
 20
8.328173826042956
 30
0.0
 10
215.4993353410904
 20
7.499628361840371
 30
0.0
  0
SPLINE
  5
60
330
54
100
AcDbEntity
  8
LAYER_1
 62
   250
100
AcDbSpline
210
0.0
220
0.0
230
1.0
 70
    11
 71
     3
 72
    17
 73
    13
 74
     0
 42
0.0000000001
 43
0.0000000001
 40
0.0
 40
0.0
 40
0.0
 40
0.0
 40
1.0
 40
1.0
 40
1.0
 40
2.0
 40
2.0
 40
2.0
 40
3.0
 40
3.0
 40
3.0
 40
4.0
 40
4.0
 40
4.0
 40
4.0
 10
235.4994926711599
 20
7.499628361840371
 30
0.0
 10
235.4994926711599
 20
6.671082897637785
 30
0.0
 10
234.8280435610847
 20
5.999633787562592
 30
0.0
 10
233.9994980968821
 20
5.999633787562592
 30
0.0
 10
233.1709526326795
 20
5.999633787562592
 30
0.0
 10
232.4995035226043
 20
6.671082897637785
 30
0.0
 10
232.4995035226043
 20
7.499628361840371
 30
0.0
 10
232.4995035226043
 20
8.328173826042956
 30
0.0
 10
233.1709526326795
 20
8.999450681343887
 30
0.0
 10
233.9994980968821
 20
8.999450681343887
 30
0.0
 10
234.8280435610847
 20
8.999450681343887
 30
0.0
 10
235.4994926711599
 20
8.328173826042956
 30
0.0
 10
235.4994926711599
 20
7.499628361840371
 30
0.0
  0
SPLINE
  5
61
330
54
100
AcDbEntity
  8
LAYER_1
 62
   250
100
AcDbSpline
210
0.0
220
0.0
230
1.0
 70
    11
 71
     3
 72
    17
 73
    13
 74
     0
 42
0.0000000001
 43
0.0000000001
 40
0.0
 40
0.0
 40
0.0
 40
0.0
 40
1.0
 40
1.0
 40
1.0
 40
2.0
 40
2.0
 40
2.0
 40
3.0
 40
3.0
 40
3.0
 40
4.0
 40
4.0
 40
4.0
 40
4.0
 10
255.4999945107778
 20
7.499628361840371
 30
0.0
 10
255.4999945107778
 20
6.671082897637785
 30
0.0
 10
254.8285454007026
 20
5.999633787562592
 30
0.0
 10
253.9999999365
 20
5.999633787562592
 30
0.0
 10
253.1714544722974
 20
5.999633787562592
 30
0.0
 10
252.5000053622222
 20
6.671082897637785
 30
0.0
 10
252.5000053622222
 20
7.499628361840371
 30
0.0
 10
252.5000053622222
 20
8.328173826042956
 30
0.0
 10
253.1714544722974
 20
8.999450681343887
 30
0.0
 10
253.9999999365
 20
8.999450681343887
 30
0.0
 10
254.8285454007026
 20
8.999450681343887
 30
0.0
 10
255.4999945107778
 20
8.328173826042956
 30
0.0
 10
255.4999945107778
 20
7.499628361840371
 30
0.0
  0
SPLINE
  5
62
330
54
100
AcDbEntity
  8
LAYER_1
 62
   250
100
AcDbSpline
210
0.0
220
0.0
230
1.0
 70
    11
 71
     3
 72
    17
 73
    13
 74
     0
 42
0.0000000001
 43
0.0000000001
 40
0.0
 40
0.0
 40
0.0
 40
0.0
 40
1.0
 40
1.0
 40
1.0
 40
2.0
 40
2.0
 40
2.0
 40
3.0
 40
3.0
 40
3.0
 40
4.0
 40
4.0
 40
4.0
 40
4.0
 10
275.5011853694928
 20
7.499628361840371
 30
0.0
 10
275.5011853694928
 20
6.671082897637785
 30
0.0
 10
274.8297362594176
 20
5.999633787562592
 30
0.0
 10
274.001190795215
 20
5.999633787562592
 30
0.0
 10
273.1723008214639
 20
5.999633787562592
 30
0.0
 10
272.5008517113887
 20
6.671082897637785
 30
0.0
 10
272.5008517113887
 20
7.499628361840371
 30
0.0
 10
272.5008517113887
 20
8.328173826042956
 30
0.0
 10
273.1723008214639
 20
8.999450681343887
 30
0.0
 10
274.001190795215
 20
8.999450681343887
 30
0.0
 10
274.8297362594176
 20
8.999450681343887
 30
0.0
 10
275.5011853694928
 20
8.328173826042956
 30
0.0
 10
275.5011853694928
 20
7.499628361840371
 30
0.0
  0
SPLINE
  5
63
330
54
100
AcDbEntity
  8
LAYER_1
 62
   250
100
AcDbSpline
210
0.0
220
0.0
230
1.0
 70
    11
 71
     3
 72
    17
 73
    13
 74
     0
 42
0.0000000001
 43
0.0000000001
 40
0.0
 40
0.0
 40
0.0
 40
0.0
 40
1.0
 40
1.0
 40
1.0
 40
2.0
 40
2.0
 40
2.0
 40
3.0
 40
3.0
 40
3.0
 40
4.0
 40
4.0
 40
4.0
 40
4.0
 10
295.5020317186592
 20
7.499628361840371
 30
0.0
 10
295.5020317186592
 20
6.671082897637785
 30
0.0
 10
294.8305826085841
 20
5.999633787562592
 30
0.0
 10
294.0016926348329
 20
5.999633787562592
 30
0.0
 10
293.1731471706303
 20
5.999633787562592
 30
0.0
 10
292.5016980605552
 20
6.671082897637785
 30
0.0
 10
292.5016980605552
 20
7.499628361840371
 30
0.0
 10
292.5016980605552
 20
8.328173826042956
 30
0.0
 10
293.1731471706303
 20
8.999450681343887
 30
0.0
 10
294.0016926348329
 20
8.999450681343887
 30
0.0
 10
294.8305826085841
 20
8.999450681343887
 30
0.0
 10
295.5020317186592
 20
8.328173826042956
 30
0.0
 10
295.5020317186592
 20
7.499628361840371
 30
0.0
  0
SPLINE
  5
64
330
54
100
AcDbEntity
  8
LAYER_1
 62
   250
100
AcDbSpline
210
0.0
220
0.0
230
1.0
 70
    11
 71
     3
 72
    17
 73
    13
 74
     0
 42
0.0000000001
 43
0.0000000001
 40
0.0
 40
0.0
 40
0.0
 40
0.0
 40
1.0
 40
1.0
 40
1.0
 40
2.0
 40
2.0
 40
2.0
 40
3.0
 40
3.0
 40
3.0
 40
4.0
 40
4.0
 40
4.0
 40
4.0
 10
315.5028780678257
 20
7.499628361840371
 30
0.0
 10
315.5028780678257
 20
6.671082897637785
 30
0.0
 10
314.8314289577505
 20
5.999633787562592
 30
0.0
 10
314.0028834935479
 20
5.999633787562592
 30
0.0
 10
313.1743380293453
 20
5.999633787562592
 30
0.0
 10
312.5028889192701
 20
6.671082897637785
 30
0.0
 10
312.5028889192701
 20
7.499628361840371
 30
0.0
 10
312.5028889192701
 20
8.328173826042956
 30
0.0
 10
313.1743380293453
 20
8.999450681343887
 30
0.0
 10
314.0028834935479
 20
8.999450681343887
 30
0.0
 10
314.8314289577505
 20
8.999450681343887
 30
0.0
 10
315.5028780678257
 20
8.328173826042956
 30
0.0
 10
315.5028780678257
 20
7.499628361840371
 30
0.0
  0
SPLINE
  5
65
330
54
100
AcDbEntity
  8
LAYER_1
 62
   250
100
AcDbSpline
210
0.0
220
0.0
230
1.0
 70
    11
 71
     3
 72
    17
 73
    13
 74
     0
 42
0.0000000001
 43
0.0000000001
 40
0.0
 40
0.0
 40
0.0
 40
0.0
 40
1.0
 40
1.0
 40
1.0
 40
2.0
 40
2.0
 40
2.0
 40
3.0
 40
3.0
 40
3.0
 40
4.0
 40
4.0
 40
4.0
 40
4.0
 10
335.5030353978951
 20
7.499628361840371
 30
0.0
 10
335.5030353978951
 20
6.671082897637785
 30
0.0
 10
334.8315862878199
 20
5.999633787562592
 30
0.0
 10
334.0030408236173
 20
5.999633787562592
 30
0.0
 10
333.1744953594147
 20
5.999633787562592
 30
0.0
 10
332.5030462493395
 20
6.671082897637785
 30
0.0
 10
332.5030462493395
 20
7.499628361840371
 30
0.0
 10
332.5030462493395
 20
8.328173826042956
 30
0.0
 10
333.1744953594147
 20
8.999450681343887
 30
0.0
 10
334.0030408236173
 20
8.999450681343887
 30
0.0
 10
334.8315862878199
 20
8.999450681343887
 30
0.0
 10
335.5030353978951
 20
8.328173826042956
 30
0.0
 10
335.5030353978951
 20
7.499628361840371
 30
0.0
  0
SPLINE
  5
66
330
54
100
AcDbEntity
  8
LAYER_1
 62
   250
100
AcDbSpline
210
0.0
220
0.0
230
1.0
 70
    11
 71
     3
 72
    17
 73
    13
 74
     0
 42
0.0000000001
 43
0.0000000001
 40
0.0
 40
0.0
 40
0.0
 40
0.0
 40
1.0
 40
1.0
 40
1.0
 40
2.0
 40
2.0
 40
2.0
 40
3.0
 40
3.0
 40
3.0
 40
4.0
 40
4.0
 40
4.0
 40
4.0
 10
355.5031927279645
 20
7.499628361840371
 30
0.0
 10
355.5031927279645
 20
6.671082897637785
 30
0.0
 10
354.8317436178893
 20
5.999633787562592
 30
0.0
 10
354.0031981536867
 20
5.999633787562592
 30
0.0
 10
353.1746526894841
 20
5.999633787562592
 30
0.0
 10
352.5032035794089
 20
6.671082897637785
 30
0.0
 10
352.5032035794089
 20
7.499628361840371
 30
0.0
 10
352.5032035794089
 20
8.328173826042956
 30
0.0
 10
353.1746526894841
 20
8.999450681343887
 30
0.0
 10
354.0031981536867
 20
8.999450681343887
 30
0.0
 10
354.8317436178893
 20
8.999450681343887
 30
0.0
 10
355.5031927279645
 20
8.328173826042956
 30
0.0
 10
355.5031927279645
 20
7.499628361840371
 30
0.0
  0
SPLINE
  5
67
330
54
100
AcDbEntity
  8
LAYER_1
 62
   250
100
AcDbSpline
210
0.0
220
0.0
230
1.0
 70
    11
 71
     3
 72
    17
 73
    13
 74
     0
 42
0.0000000001
 43
0.0000000001
 40
0.0
 40
0.0
 40
0.0
 40
0.0
 40
1.0
 40
1.0
 40
1.0
 40
2.0
 40
2.0
 40
2.0
 40
3.0
 40
3.0
 40
3.0
 40
4.0
 40
4.0
 40
4.0
 40
4.0
 10
375.5030055484854
 20
7.499628361840371
 30
0.0
 10
375.5030055484854
 20
6.671082897637785
 30
0.0
 10
374.8315564384102
 20
5.999633787562592
 30
0.0
 10
374.0030109742076
 20
5.999633787562592
 30
0.0
 10
373.174465510005
 20
5.999633787562592
 30
0.0
 10
372.5030163999298
 20
6.671082897637785
 30
0.0
 10
372.5030163999298
 20
7.499628361840371
 30
0.0
 10
372.5030163999298
 20
8.328173826042956
 30
0.0
 10
373.174465510005
 20
8.999450681343887
 30
0.0
 10
374.0030109742076
 20
8.999450681343887
 30
0.0
 10
374.8315564384102
 20
8.999450681343887
 30
0.0
 10
375.5030055484854
 20
8.328173826042956
 30
0.0
 10
375.5030055484854
 20
7.499628361840371
 30
0.0
  0
SPLINE
  5
68
330
54
100
AcDbEntity
  8
LAYER_1
 62
   250
100
AcDbSpline
210
0.0
220
0.0
230
1.0
 70
    11
 71
     3
 72
    17
 73
    13
 74
     0
 42
0.0000000001
 43
0.0000000001
 40
0.0
 40
0.0
 40
0.0
 40
0.0
 40
1.0
 40
1.0
 40
1.0
 40
2.0
 40
2.0
 40
2.0
 40
3.0
 40
3.0
 40
3.0
 40
4.0
 40
4.0
 40
4.0
 40
4.0
 10
395.5031628785548
 20
7.499628361840371
 30
0.0
 10
395.5031628785548
 20
6.671082897637785
 30
0.0
 10
394.8317137684796
 20
5.999633787562592
 30
0.0
 10
394.003168304277
 20
5.999633787562592
 30
0.0
 10
393.1746228400744
 20
5.999633787562592
 30
0.0
 10
392.5031737299992
 20
6.671082897637785
 30
0.0
 10
392.5031737299992
 20
7.499628361840371
 30
0.0
 10
392.5031737299992
 20
8.328173826042956
 30
0.0
 10
393.1746228400744
 20
8.999450681343887
 30
0.0
 10
394.003168304277
 20
8.999450681343887
 30
0.0
 10
394.8317137684796
 20
8.999450681343887
 30
0.0
 10
395.5031628785548
 20
8.328173826042956
 30
0.0
 10
395.5031628785548
 20
7.499628361840371
 30
0.0
  0
SPLINE
  5
69
330
54
100
AcDbEntity
  8
LAYER_1
 62
   250
100
AcDbSpline
210
0.0
220
0.0
230
1.0
 70
    11
 71
     3
 72
    17
 73
    13
 74
     0
 42
0.0000000001
 43
0.0000000001
 40
0.0
 40
0.0
 40
0.0
 40
0.0
 40
1.0
 40
1.0
 40
1.0
 40
2.0
 40
2.0
 40
2.0
 40
3.0
 40
3.0
 40
3.0
 40
4.0
 40
4.0
 40
4.0
 40
4.0
 10
415.5029756990756
 20
7.499628361840371
 30
0.0
 10
415.5029756990756
 20
6.671082897637785
 30
0.0
 10
414.8315265890005
 20
5.999633787562592
 30
0.0
 10
414.0029811247979
 20
5.999633787562592
 30
0.0
 10
413.1744356605953
 20
5.999633787562592
 30
0.0
 10
412.5029865505201
 20
6.671082897637785
 30
0.0
 10
412.5029865505201
 20
7.499628361840371
 30
0.0
 10
412.5029865505201
 20
8.328173826042956
 30
0.0
 10
413.1744356605953
 20
8.999450681343887
 30
0.0
 10
414.0029811247979
 20
8.999450681343887
 30
0.0
 10
414.8315265890005
 20
8.999450681343887
 30
0.0
 10
415.5029756990756
 20
8.328173826042956
 30
0.0
 10
415.5029756990756
 20
7.499628361840371
 30
0.0
  0
SPLINE
  5
6A
330
54
100
AcDbEntity
  8
LAYER_1
 62
   250
100
AcDbSpline
210
0.0
220
0.0
230
1.0
 70
    11
 71
     3
 72
    17
 73
    13
 74
     0
 42
0.0000000001
 43
0.0000000001
 40
0.0
 40
0.0
 40
0.0
 40
0.0
 40
1.0
 40
1.0
 40
1.0
 40
2.0
 40
2.0
 40
2.0
 40
3.0
 40
3.0
 40
3.0
 40
4.0
 40
4.0
 40
4.0
 40
4.0
 10
435.5031330291451
 20
7.499628361840371
 30
0.0
 10
435.5031330291451
 20
6.671082897637785
 30
0.0
 10
434.8316839190699
 20
5.999633787562592
 30
0.0
 10
434.0031384548673
 20
5.999633787562592
 30
0.0
 10
433.1745929906647
 20
5.999633787562592
 30
0.0
 10
432.5031438805895
 20
6.671082897637785
 30
0.0
 10
432.5031438805895
 20
7.499628361840371
 30
0.0
 10
432.5031438805895
 20
8.328173826042956
 30
0.0
 10
433.1745929906647
 20
8.999450681343887
 30
0.0
 10
434.0031384548673
 20
8.999450681343887
 30
0.0
 10
434.8316839190699
 20
8.999450681343887
 30
0.0
 10
435.5031330291451
 20
8.328173826042956
 30
0.0
 10
435.5031330291451
 20
7.499628361840371
 30
0.0
  0
SPLINE
  5
6B
330
54
100
AcDbEntity
  8
LAYER_1
 62
   250
100
AcDbSpline
210
0.0
220
0.0
230
1.0
 70
    11
 71
     3
 72
    17
 73
    13
 74
     0
 42
0.0000000001
 43
0.0000000001
 40
0.0
 40
0.0
 40
0.0
 40
0.0
 40
1.0
 40
1.0
 40
1.0
 40
2.0
 40
2.0
 40
2.0
 40
3.0
 40
3.0
 40
3.0
 40
4.0
 40
4.0
 40
4.0
 40
4.0
 10
455.5029458496659
 20
7.499628361840371
 30
0.0
 10
455.5029458496659
 20
6.671082897637785
 30
0.0
 10
454.8314967395908
 20
5.999633787562592
 30
0.0
 10
454.0029512753882
 20
5.999633787562592
 30
0.0
 10
453.1744058111856
 20
5.999633787562592
 30
0.0
 10
452.5029567011104
 20
6.671082897637785
 30
0.0
 10
452.5029567011104
 20
7.499628361840371
 30
0.0
 10
452.5029567011104
 20
8.328173826042956
 30
0.0
 10
453.1744058111856
 20
8.999450681343887
 30
0.0
 10
454.0029512753882
 20
8.999450681343887
 30
0.0
 10
454.8314967395908
 20
8.999450681343887
 30
0.0
 10
455.5029458496659
 20
8.328173826042956
 30
0.0
 10
455.5029458496659
 20
7.499628361840371
 30
0.0
  0
ENDBLK
  5
57
330
54
100
AcDbEntity
  8
0
100
AcDbBlockEnd
  0
BLOCK
  5
7A
330
78
100
AcDbEntity
  8
0
100
AcDbBlockBegin
  2
BLOCK_4
 70
     0
 71
     0
 10
0.0
 20
0.0
 30
0.0
  3
BLOCK_4
  1

  0
POLYLINE
  5
7C
330
78
100
AcDbEntity
  8
LAYER_1
 62
     7
100
AcDb2dPolyline
 66
     1
 10
0.0
 20
0.0
 30
0.0
  0
VERTEX
  5
7D
330
7C
100
AcDbEntity
  8
LAYER_1
 62
     7
100
AcDbVertex
100
AcDb2dVertex
 10
202.7493814597293
 20
54.99922687427103
 30
0.0
  0
VERTEX
  5
7E
330
7C
100
AcDbEntity
  8
LAYER_1
 62
     7
100
AcDbVertex
100
AcDb2dVertex
 10
154.2324462505044
 20
14.99925672368074
 30
0.0
  0
VERTEX
  5
7F
330
7C
100
AcDbEntity
  8
LAYER_1
 62
     7
100
AcDbVertex
100
AcDb2dVertex
 10
251.6652587261462
 20
14.99925672368074
 30
0.0
  0
VERTEX
  5
80
330
7C
100
AcDbEntity
  8
LAYER_1
 62
     7
100
AcDbVertex
100
AcDb2dVertex
 10
203.1476344978242
 20
54.99922687427103
 30
0.0
  0
VERTEX
  5
81
330
7C
100
AcDbEntity
  8
LAYER_1
 62
     7
100
AcDbVertex
100
AcDb2dVertex
 10
202.7493814597293
 20
54.99922687427103
 30
0.0
  0
SEQEND
  5
82
330
7C
100
AcDbEntity
  8
LAYER_1
  0
POLYLINE
  5
83
330
78
100
AcDbEntity
  8
LAYER_1
 62
     7
100
AcDb2dPolyline
 66
     1
 10
0.0
 20
0.0
 30
0.0
  0
VERTEX
  5
84
330
83
100
AcDbEntity
  8
LAYER_1
 62
     7
100
AcDbVertex
100
AcDb2dVertex
 10
137.5855726110029
 20
54.99922687427103
 30
0.0
  0
VERTEX
  5
85
330
83
100
AcDbEntity
  8
LAYER_1
 62
     7
100
AcDbVertex
100
AcDb2dVertex
 10
93.2458156776434
 20
54.99922687427103
 30
0.0
  0
VERTEX
  5
86
330
83
100
AcDbEntity
  8
LAYER_1
 62
     7
100
AcDbVertex
100
AcDb2dVertex
 10
137.5860893753257
 20
18.443318680285
 30
0.0
  0
VERTEX
  5
87
330
83
100
AcDbEntity
  8
LAYER_1
 62
     7
100
AcDbVertex
100
AcDb2dVertex
 10
137.5855726110029
 20
54.99922687427103
 30
0.0
  0
SEQEND
  5
88
330
83
100
AcDbEntity
  8
LAYER_1
  0
POLYLINE
  5
89
330
78
100
AcDbEntity
  8
LAYER_1
 62
     7
100
AcDb2dPolyline
 66
     1
 10
0.0
 20
0.0
 30
0.0
  0
VERTEX
  5
8A
330
89
100
AcDbEntity
  8
LAYER_1
 62
     7
100
AcDbVertex
100
AcDb2dVertex
 10
190.5516763846537
 20
54.99922687427103
 30
0.0
  0
VERTEX
  5
8B
330
89
100
AcDbEntity
  8
LAYER_1
 62
     7
100
AcDbVertex
100
AcDb2dVertex
 10
146.2108859226487
 20
54.99922687427103
 30
0.0
  0
VERTEX
  5
8C
330
89
100
AcDbEntity
  8
LAYER_1
 62
     7
100
AcDbVertex
100
AcDb2dVertex
 10
146.2112304321972
 20
18.44228515163943
 30
0.0
  0
VERTEX
  5
8D
330
89
100
AcDbEntity
  8
LAYER_1
 62
     7
100
AcDbVertex
100
AcDb2dVertex
 10
190.5516763846537
 20
54.99922687427103
 30
0.0
  0
SEQEND
  5
8E
330
89
100
AcDbEntity
  8
LAYER_1
  0
POLYLINE
  5
8F
330
78
100
AcDbEntity
  8
LAYER_1
 62
     7
100
AcDb2dPolyline
 66
     1
 10
0.0
 20
0.0
 30
0.0
  0
VERTEX
  5
90
330
8F
100
AcDbEntity
  8
LAYER_1
 62
     7
100
AcDbVertex
100
AcDb2dVertex
 10
259.6861300349049
 20
54.99922687427103
 30
0.0
  0
VERTEX
  5
91
330
8F
100
AcDbEntity
  8
LAYER_1
 62
     7
100
AcDbVertex
100
AcDb2dVertex
 10
215.3453395728998
 20
54.99922687427103
 30
0.0
  0
VERTEX
  5
92
330
8F
100
AcDbEntity
  8
LAYER_1
 62
     7
100
AcDbVertex
100
AcDb2dVertex
 10
259.6864745444534
 20
18.44245740641369
 30
0.0
  0
VERTEX
  5
93
330
8F
100
AcDbEntity
  8
LAYER_1
 62
     7
100
AcDbVertex
100
AcDb2dVertex
 10
259.6861300349049
 20
54.99922687427103
 30
0.0
  0
SEQEND
  5
94
330
8F
100
AcDbEntity
  8
LAYER_1
  0
POLYLINE
  5
95
330
78
100
AcDbEntity
  8
LAYER_1
 62
     7
100
AcDb2dPolyline
 66
     1
 10
0.0
 20
0.0
 30
0.0
  0
VERTEX
  5
96
330
95
100
AcDbEntity
  8
LAYER_1
 62
     7
100
AcDbVertex
100
AcDb2dVertex
 10
324.8525227052452
 20
54.99922687427103
 30
0.0
  0
VERTEX
  5
97
330
95
100
AcDbEntity
  8
LAYER_1
 62
     7
100
AcDbVertex
100
AcDb2dVertex
 10
276.3328314196321
 20
14.99925672368074
 30
0.0
  0
VERTEX
  5
98
330
95
100
AcDbEntity
  8
LAYER_1
 62
     7
100
AcDbVertex
100
AcDb2dVertex
 10
373.7704670289532
 20
14.99925672368074
 30
0.0
  0
VERTEX
  5
99
330
95
100
AcDbEntity
  8
LAYER_1
 62
     7
100
AcDbVertex
100
AcDb2dVertex
 10
325.2507757433401
 20
54.99922687427103
 30
0.0
  0
VERTEX
  5
9A
330
95
100
AcDbEntity
  8
LAYER_1
 62
     7
100
AcDbVertex
100
AcDb2dVertex
 10
324.8525227052452
 20
54.99922687427103
 30
0.0
  0
SEQEND
  5
9B
330
95
100
AcDbEntity
  8
LAYER_1
  0
POLYLINE
  5
9C
330
78
100
AcDbEntity
  8
LAYER_1
 62
     7
100
AcDb2dPolyline
 66
     1
 10
0.0
 20
0.0
 30
0.0
  0
VERTEX
  5
9D
330
9C
100
AcDbEntity
  8
LAYER_1
 62
     7
100
AcDbVertex
100
AcDb2dVertex
 10
312.6537841015241
 20
54.99922687427103
 30
0.0
  0
VERTEX
  5
9E
330
9C
100
AcDbEntity
  8
LAYER_1
 62
     7
100
AcDbVertex
100
AcDb2dVertex
 10
268.3116156013249
 20
54.99922687427103
 30
0.0
  0
VERTEX
  5
9F
330
9C
100
AcDbEntity
  8
LAYER_1
 62
     7
100
AcDbVertex
100
AcDb2dVertex
 10
268.3119601108734
 20
18.443318680285
 30
0.0
  0
VERTEX
  5
A0
330
9C
100
AcDbEntity
  8
LAYER_1
 62
     7
100
AcDbVertex
100
AcDb2dVertex
 10
312.6537841015241
 20
54.99922687427103
 30
0.0
  0
SEQEND
  5
A1
330
9C
100
AcDbEntity
  8
LAYER_1
  0
POLYLINE
  5
A2
330
78
100
AcDbEntity
  8
LAYER_1
 62
     7
100
AcDb2dPolyline
 66
     1
 10
0.0
 20
0.0
 30
0.0
  0
VERTEX
  5
A3
330
A2
100
AcDbEntity
  8
LAYER_1
 62
     7
100
AcDbVertex
100
AcDb2dVertex
 10
464.0002738640347
 20
54.99922687427103
 30
0.0
  0
VERTEX
  5
A4
330
A2
100
AcDbEntity
  8
LAYER_1
 62
     7
100
AcDbVertex
100
AcDb2dVertex
 10
446.9577310080522
 20
54.99922687427103
 30
0.0
  0
VERTEX
  5
A5
330
A2
100
AcDbEntity
  8
LAYER_1
 62
     7
100
AcDbVertex
100
AcDb2dVertex
 10
398.4383842319876
 20
14.99925672368074
 30
0.0
  0
VERTEX
  5
A6
330
A2
100
AcDbEntity
  8
LAYER_1
 62
     7
100
AcDbVertex
100
AcDb2dVertex
 10
464.0002738640347
 20
14.99925672368074
 30
0.0
  0
VERTEX
  5
A7
330
A2
100
AcDbEntity
  8
LAYER_1
 62
     7
100
AcDbVertex
100
AcDb2dVertex
 10
464.0002738640347
 20
54.99922687427103
 30
0.0
  0
SEQEND
  5
A8
330
A2
100
AcDbEntity
  8
LAYER_1
  0
POLYLINE
  5
A9
330
78
100
AcDbEntity
  8
LAYER_1
 62
     7
100
AcDb2dPolyline
 66
     1
 10
0.0
 20
0.0
 30
0.0
  0
VERTEX
  5
AA
330
A9
100
AcDbEntity
  8
LAYER_1
 62
     7
100
AcDbVertex
100
AcDb2dVertex
 10
434.7589924043311
 20
54.99922687427103
 30
0.0
  0
VERTEX
  5
AB
330
A9
100
AcDbEntity
  8
LAYER_1
 62
     7
100
AcDbVertex
100
AcDb2dVertex
 10
390.4168239041319
 20
54.99922687427103
 30
0.0
  0
VERTEX
  5
AC
330
A9
100
AcDbEntity
  8
LAYER_1
 62
     7
100
AcDbVertex
100
AcDb2dVertex
 10
390.4171684136804
 20
18.44297417073648
 30
0.0
  0
VERTEX
  5
AD
330
A9
100
AcDbEntity
  8
LAYER_1
 62
     7
100
AcDbVertex
100
AcDb2dVertex
 10
434.7589924043311
 20
54.99922687427103
 30
0.0
  0
SEQEND
  5
AE
330
A9
100
AcDbEntity
  8
LAYER_1
  0
POLYLINE
  5
AF
330
78
100
AcDbEntity
  8
LAYER_1
 62
     7
100
AcDb2dPolyline
 66
     1
 10
0.0
 20
0.0
 30
0.0
  0
VERTEX
  5
B0
330
AF
100
AcDbEntity
  8
LAYER_1
 62
     7
100
AcDbVertex
100
AcDb2dVertex
 10
64.00022784858328
 20
54.99922687427103
 30
0.0
  0
VERTEX
  5
B1
330
AF
100
AcDbEntity
  8
LAYER_1
 62
     7
100
AcDbVertex
100
AcDb2dVertex
 10
64.00022784858328
 20
14.99925672368074
 30
0.0
  0
VERTEX
  5
B2
330
AF
100
AcDbEntity
  8
LAYER_1
 62
     7
100
AcDbVertex
100
AcDb2dVertex
 10
129.5655625761156
 20
14.99925672368074
 30
0.0
  0
VERTEX
  5
B3
330
AF
100
AcDbEntity
  8
LAYER_1
 62
     7
100
AcDbVertex
100
AcDb2dVertex
 10
81.0477660930193
 20
54.99922687427103
 30
0.0
  0
VERTEX
  5
B4
330
AF
100
AcDbEntity
  8
LAYER_1
 62
     7
100
AcDbVertex
100
AcDb2dVertex
 10
64.00022784858328
 20
54.99922687427103
 30
0.0
  0
SEQEND
  5
B5
330
AF
100
AcDbEntity
  8
LAYER_1
  0
POLYLINE
  5
B6
330
78
100
AcDbEntity
  8
LAYER_1
 62
     7
100
AcDb2dPolyline
 66
     1
 10
0.0
 20
0.0
 30
0.0
  0
VERTEX
  5
B7
330
B6
100
AcDbEntity
  8
LAYER_1
 62
     7
100
AcDbVertex
100
AcDb2dVertex
 10
381.7913383377119
 20
54.99922687427103
 30
0.0
  0
VERTEX
  5
B8
330
B6
100
AcDbEntity
  8
LAYER_1
 62
     7
100
AcDbVertex
100
AcDb2dVertex
 10
337.4488253279642
 20
54.99922687427103
 30
0.0
  0
VERTEX
  5
B9
330
B6
100
AcDbEntity
  8
LAYER_1
 62
     7
100
AcDbVertex
100
AcDb2dVertex
 10
381.7913383377119
 20
18.44245740641369
 30
0.0
  0
VERTEX
  5
BA
330
B6
100
AcDbEntity
  8
LAYER_1
 62
     7
100
AcDbVertex
100
AcDb2dVertex
 10
381.7913383377119
 20
54.99922687427103
 30
0.0
  0
SEQEND
  5
BB
330
B6
100
AcDbEntity
  8
LAYER_1
  0
ENDBLK
  5
7B
330
78
100
AcDbEntity
  8
0
100
AcDbBlockEnd
  0
ENDSEC
  0
SECTION
  2
ENTITIES
  0
INSERT
  5
3D
330
1F
100
AcDbEntity
  8
LAYER_1
100
AcDbBlockReference
  2
BLOCK_2
 10
0.0
 20
0.0
 30
0.0
  0
INSERT
  5
55
330
1F
100
AcDbEntity
  8
LAYER_1
100
AcDbBlockReference
  2
BLOCK_3
 10
0.0
 20
0.0
 30
0.0
  0
POLYLINE
  5
6C
330
1F
100
AcDbEntity
  8
LAYER_1
100
AcDb2dPolyline
 66
     1
 10
0.0
 20
0.0
 30
0.0
  0
VERTEX
  5
6D
330
6C
100
AcDbEntity
  8
LAYER_1
100
AcDbVertex
100
AcDb2dVertex
 10
264.0000786015347
 20
62.68316784457227
 30
0.0
  0
VERTEX
  5
6E
330
6C
100
AcDbEntity
  8
LAYER_1
100
AcDbVertex
100
AcDb2dVertex
 10
263.8154214835253
 20
62.49851072656288
 30
0.0
  0
VERTEX
  5
6F
330
6C
100
AcDbEntity
  8
LAYER_1
100
AcDbVertex
100
AcDb2dVertex
 10
264.1847357195441
 20
62.49851072656288
 30
0.0
  0
VERTEX
  5
70
330
6C
100
AcDbEntity
  8
LAYER_1
100
AcDbVertex
100
AcDb2dVertex
 10
264.0000786015347
 20
62.68316784457227
 30
0.0
  0
SEQEND
  5
71
330
6C
100
AcDbEntity
  8
LAYER_1
  0
POLYLINE
  5
72
330
1F
100
AcDbEntity
  8
LAYER_1
100
AcDb2dPolyline
 66
     1
 10
0.0
 20
0.0
 30
0.0
  0
VERTEX
  5
73
330
72
100
AcDbEntity
  8
LAYER_1
100
AcDbVertex
100
AcDb2dVertex
 10
264.0000786015347
 20
62.68316784457227
 30
0.0
  0
VERTEX
  5
74
330
72
100
AcDbEntity
  8
LAYER_1
100
AcDbVertex
100
AcDb2dVertex
 10
263.8154214835253
 20
62.49851072656288
 30
0.0
  0
VERTEX
  5
75
330
72
100
AcDbEntity
  8
LAYER_1
100
AcDbVertex
100
AcDb2dVertex
 10
264.1847357195441
 20
62.49851072656288
 30
0.0
  0
VERTEX
  5
76
330
72
100
AcDbEntity
  8
LAYER_1
100
AcDbVertex
100
AcDb2dVertex
 10
264.0000786015347
 20
62.68316784457227
 30
0.0
  0
SEQEND
  5
77
330
72
100
AcDbEntity
  8
LAYER_1
  0
INSERT
  5
79
330
1F
100
AcDbEntity
  8
LAYER_1
100
AcDbBlockReference
  2
BLOCK_4
 10
0.0
 20
0.0
 30
0.0
  0
SPLINE
  5
BC
330
1F
100
AcDbEntity
  8
LAYER_1
 62
     7
100
AcDbSpline
210
0.0
220
0.0
230
1.0
 70
    11
 71
     3
 72
    17
 73
    13
 74
     0
 42
0.0000000001
 43
0.0000000001
 40
0.0
 40
0.0
 40
0.0
 40
0.0
 40
1.0
 40
1.0
 40
1.0
 40
2.0
 40
2.0
 40
2.0
 40
3.0
 40
3.0
 40
3.0
 40
4.0
 40
4.0
 40
4.0
 40
4.0
 10
55.99933809363905
 20
64.99844426543442
 30
0.0
 10
55.99933809363905
 20
63.89377439808906
 30
0.0
 10
55.10395777702262
 20
62.99839408147263
 30
0.0
 10
53.99928790967726
 20
62.99839408147263
 30
0.0
 10
52.89479029710617
 20
62.99839408147263
 30
0.0
 10
51.99940998048973
 20
63.89377439808906
 30
0.0
 10
51.99940998048973
 20
64.99844426543442
 30
0.0
 10
51.99940998048973
 20
66.10311413277978
 30
0.0
 10
52.89479029710617
 20
66.99849444939622
 30
0.0
 10
53.99928790967726
 20
66.99849444939622
 30
0.0
 10
55.10395777702262
 20
66.99849444939622
 30
0.0
 10
55.99933809363905
 20
66.10311413277978
 30
0.0
 10
55.99933809363905
 20
64.99844426543442
 30
0.0
  0
SPLINE
  5
BD
330
1F
100
AcDbEntity
  8
LAYER_1
 62
     7
100
AcDbSpline
210
0.0
220
0.0
230
1.0
 70
    11
 71
     3
 72
    17
 73
    13
 74
     0
 42
0.0000000001
 43
0.0000000001
 40
0.0
 40
0.0
 40
0.0
 40
0.0
 40
1.0
 40
1.0
 40
1.0
 40
2.0
 40
2.0
 40
2.0
 40
3.0
 40
3.0
 40
3.0
 40
4.0
 40
4.0
 40
4.0
 40
4.0
 10
55.99933809363905
 20
14.99925672368074
 30
0.0
 10
55.99933809363905
 20
13.89441460156112
 30
0.0
 10
55.10395777702262
 20
12.99903428494469
 30
0.0
 10
53.99928790967726
 20
12.99903428494469
 30
0.0
 10
52.89479029710617
 20
12.99903428494469
 30
0.0
 10
51.99940998048973
 20
13.89441460156112
 30
0.0
 10
51.99940998048973
 20
14.99925672368074
 30
0.0
 10
51.99940998048973
 20
16.10358208147758
 30
0.0
 10
52.89479029710617
 20
16.99930690764253
 30
0.0
 10
53.99928790967726
 20
16.99930690764253
 30
0.0
 10
55.10395777702262
 20
16.99930690764253
 30
0.0
 10
55.99933809363905
 20
16.10358208147758
 30
0.0
 10
55.99933809363905
 20
14.99925672368074
 30
0.0
  0
SPLINE
  5
BE
330
1F
100
AcDbEntity
  8
LAYER_1
 62
     7
100
AcDbSpline
210
0.0
220
0.0
230
1.0
 70
    11
 71
     3
 72
    17
 73
    13
 74
     0
 42
0.0000000001
 43
0.0000000001
 40
0.0
 40
0.0
 40
0.0
 40
0.0
 40
1.0
 40
1.0
 40
1.0
 40
2.0
 40
2.0
 40
2.0
 40
3.0
 40
3.0
 40
3.0
 40
4.0
 40
4.0
 40
4.0
 40
4.0
 10
55.99933809363905
 20
39.99859211239619
 30
0.0
 10
55.99933809363905
 20
38.89374999027656
 30
0.0
 10
55.10395777702262
 20
37.99836967366013
 30
0.0
 10
53.99928790967726
 20
37.99836967366013
 30
0.0
 10
52.89479029710617
 20
37.99836967366013
 30
0.0
 10
51.99940998048973
 20
38.89374999027656
 30
0.0
 10
51.99940998048973
 20
39.99859211239619
 30
0.0
 10
51.99940998048973
 20
41.10291747019302
 30
0.0
 10
52.89479029710617
 20
41.99864229635798
 30
0.0
 10
53.99928790967726
 20
41.99864229635798
 30
0.0
 10
55.10395777702262
 20
41.99864229635798
 30
0.0
 10
55.99933809363905
 20
41.10291747019302
 30
0.0
 10
55.99933809363905
 20
39.99859211239619
 30
0.0
  0
SPLINE
  5
BF
330
1F
100
AcDbEntity
  8
LAYER_1
 62
     7
100
AcDbSpline
210
0.0
220
0.0
230
1.0
 70
    11
 71
     3
 72
    17
 73
    13
 74
     0
 42
0.0000000001
 43
0.0000000001
 40
0.0
 40
0.0
 40
0.0
 40
0.0
 40
1.0
 40
1.0
 40
1.0
 40
2.0
 40
2.0
 40
2.0
 40
3.0
 40
3.0
 40
3.0
 40
4.0
 40
4.0
 40
4.0
 40
4.0
 10
476.6537650718088
 20
64.99861652020869
 30
0.0
 10
476.6537650718088
 20
63.89394665286332
 30
0.0
 10
475.7583847551924
 20
62.99856633624689
 30
0.0
 10
474.6535426330727
 20
62.99856633624689
 30
0.0
 10
473.5490450205016
 20
62.99856633624689
 30
0.0
 10
472.6536647038852
 20
63.89394665286332
 30
0.0
 10
472.6536647038852
 20
64.99861652020869
 30
0.0
 10
472.6536647038852
 20
66.10328638755404
 30
0.0
 10
473.5490450205016
 20
66.99866670417047
 30
0.0
 10
474.6535426330727
 20
66.99866670417047
 30
0.0
 10
475.7583847551924
 20
66.99866670417047
 30
0.0
 10
476.6537650718088
 20
66.10328638755404
 30
0.0
 10
476.6537650718088
 20
64.99861652020869
 30
0.0
  0
SPLINE
  5
C0
330
1F
100
AcDbEntity
  8
LAYER_1
 62
     7
100
AcDbSpline
210
0.0
220
0.0
230
1.0
 70
    11
 71
     3
 72
    17
 73
    13
 74
     0
 42
0.0000000001
 43
0.0000000001
 40
0.0
 40
0.0
 40
0.0
 40
0.0
 40
1.0
 40
1.0
 40
1.0
 40
2.0
 40
2.0
 40
2.0
 40
3.0
 40
3.0
 40
3.0
 40
4.0
 40
4.0
 40
4.0
 40
4.0
 10
476.6537650718088
 20
14.99925672368074
 30
0.0
 10
476.6537650718088
 20
13.89475911110964
 30
0.0
 10
475.7583847551924
 20
12.99903428494469
 30
0.0
 10
474.6535426330727
 20
12.99903428494469
 30
0.0
 10
473.5490450205016
 20
12.99903428494469
 30
0.0
 10
472.6536647038852
 20
13.89475911110964
 30
0.0
 10
472.6536647038852
 20
14.99925672368074
 30
0.0
 10
472.6536647038852
 20
16.10358208147758
 30
0.0
 10
473.5490450205016
 20
16.99930690764253
 30
0.0
 10
474.6535426330727
 20
16.99930690764253
 30
0.0
 10
475.7583847551924
 20
16.99930690764253
 30
0.0
 10
476.6537650718088
 20
16.10358208147758
 30
0.0
 10
476.6537650718088
 20
14.99925672368074
 30
0.0
  0
SPLINE
  5
C1
330
1F
100
AcDbEntity
  8
LAYER_1
 62
     7
100
AcDbSpline
210
0.0
220
0.0
230
1.0
 70
    11
 71
     3
 72
    17
 73
    13
 74
     0
 42
0.0000000001
 43
0.0000000001
 40
0.0
 40
0.0
 40
0.0
 40
0.0
 40
1.0
 40
1.0
 40
1.0
 40
2.0
 40
2.0
 40
2.0
 40
3.0
 40
3.0
 40
3.0
 40
4.0
 40
4.0
 40
4.0
 40
4.0
 10
476.6537650718088
 20
39.99876436717045
 30
0.0
 10
476.6537650718088
 20
38.89392224505082
 30
0.0
 10
475.7583847551924
 20
37.99854192843439
 30
0.0
 10
474.6535426330727
 20
37.99854192843439
 30
0.0
 10
473.5490450205016
 20
37.99854192843439
 30
0.0
 10
472.6536647038852
 20
38.89392224505082
 30
0.0
 10
472.6536647038852
 20
39.99876436717045
 30
0.0
 10
472.6536647038852
 20
41.10308972496728
 30
0.0
 10
473.5490450205016
 20
41.99881455113224
 30
0.0
 10
474.6535426330727
 20
41.99881455113224
 30
0.0
 10
475.7583847551924
 20
41.99881455113224
 30
0.0
 10
476.6537650718088
 20
41.10308972496728
 30
0.0
 10
476.6537650718088
 20
39.99876436717045
 30
0.0
  0
SPLINE
  5
C2
330
1F
100
AcDbEntity
  8
LAYER_1
 62
   250
100
AcDbSpline
210
0.0
220
0.0
230
1.0
 70
    11
 71
     3
 72
    17
 73
    13
 74
     0
 42
0.0000000001
 43
0.0000000001
 40
0.0
 40
0.0
 40
0.0
 40
0.0
 40
1.0
 40
1.0
 40
1.0
 40
2.0
 40
2.0
 40
2.0
 40
3.0
 40
3.0
 40
3.0
 40
4.0
 40
4.0
 40
4.0
 40
4.0
 10
35.0001030728472
 20
40.03493786976557
 30
0.0
 10
35.0001030728472
 20
32.3029378174451
 30
0.0
 10
28.73209634698364
 20
26.03510334635581
 30
0.0
 10
21.00026854943743
 20
26.03510334635581
 30
0.0
 10
13.26844075189122
 20
26.03510334635581
 30
0.0
 10
7.000089516479145
 20
32.3029378174451
 30
0.0
 10
7.000089516479145
 20
40.03493786976557
 30
0.0
 10
7.000089516479145
 20
47.76676566731178
 30
0.0
 10
13.26844075189122
 20
54.03477239317534
 30
0.0
 10
21.00026854943743
 20
54.03477239317534
 30
0.0
 10
28.73209634698364
 20
54.03477239317534
 30
0.0
 10
35.0001030728472
 20
47.76676566731178
 30
0.0
 10
35.0001030728472
 20
40.03493786976557
 30
0.0
  0
SPLINE
  5
C3
330
1F
100
AcDbEntity
  8
LAYER_1
 62
   250
100
AcDbSpline
210
0.0
220
0.0
230
1.0
 70
    11
 71
     3
 72
    17
 73
    13
 74
     0
 42
0.0000000001
 43
0.0000000001
 40
0.0
 40
0.0
 40
0.0
 40
0.0
 40
1.0
 40
1.0
 40
1.0
 40
2.0
 40
2.0
 40
2.0
 40
3.0
 40
3.0
 40
3.0
 40
4.0
 40
4.0
 40
4.0
 40
4.0
 10
38.00009222140276
 20
55.53459471267885
 30
0.0
 10
38.00009222140276
 20
54.70622150325053
 30
0.0
 10
37.32864311132757
 20
54.03442788362681
 30
0.0
 10
36.50009764712497
 20
54.03442788362681
 30
0.0
 10
35.67189669247092
 20
54.03442788362681
 30
0.0
 10
35.0001030728472
 20
54.70622150325053
 30
0.0
 10
35.0001030728472
 20
55.53459471267885
 30
0.0
 10
35.0001030728472
 20
56.36296792210717
 30
0.0
 10
35.67189669247092
 20
57.03458928695663
 30
0.0
 10
36.50009764712497
 20
57.03458928695663
 30
0.0
 10
37.32864311132757
 20
57.03458928695663
 30
0.0
 10
38.00009222140276
 20
56.36296792210717
 30
0.0
 10
38.00009222140276
 20
55.53459471267885
 30
0.0
  0
SPLINE
  5
C4
330
1F
100
AcDbEntity
  8
LAYER_1
 62
   250
100
AcDbSpline
210
0.0
220
0.0
230
1.0
 70
    11
 71
     3
 72
    17
 73
    13
 74
     0
 42
0.0000000001
 43
0.0000000001
 40
0.0
 40
0.0
 40
0.0
 40
0.0
 40
1.0
 40
1.0
 40
1.0
 40
2.0
 40
2.0
 40
2.0
 40
3.0
 40
3.0
 40
3.0
 40
4.0
 40
4.0
 40
4.0
 40
4.0
 10
7.000089516479145
 20
55.53459471267885
 30
0.0
 10
7.000089516479145
 20
54.70622150325053
 30
0.0
 10
6.328640406403951
 20
54.03442788362681
 30
0.0
 10
5.50043945174989
 20
54.03442788362681
 30
0.0
 10
4.671893987547304
 20
54.03442788362681
 30
0.0
 10
4.000272622697849
 20
54.70622150325053
 30
0.0
 10
4.000272622697849
 20
55.53459471267885
 30
0.0
 10
4.000272622697849
 20
56.36296792210717
 30
0.0
 10
4.671893987547304
 20
57.03458928695663
 30
0.0
 10
5.50043945174989
 20
57.03458928695663
 30
0.0
 10
6.328640406403951
 20
57.03458928695663
 30
0.0
 10
7.000089516479145
 20
56.36296792210717
 30
0.0
 10
7.000089516479145
 20
55.53459471267885
 30
0.0
  0
SPLINE
  5
C5
330
1F
100
AcDbEntity
  8
LAYER_1
 62
   250
100
AcDbSpline
210
0.0
220
0.0
230
1.0
 70
    11
 71
     3
 72
    17
 73
    13
 74
     0
 42
0.0000000001
 43
0.0000000001
 40
0.0
 40
0.0
 40
0.0
 40
0.0
 40
1.0
 40
1.0
 40
1.0
 40
2.0
 40
2.0
 40
2.0
 40
3.0
 40
3.0
 40
3.0
 40
4.0
 40
4.0
 40
4.0
 40
4.0
 10
38.00009222140276
 20
24.53510877207803
 30
0.0
 10
38.00009222140276
 20
23.70656330787545
 30
0.0
 10
37.32864311132757
 20
23.03476968825172
 30
0.0
 10
36.50009764712497
 20
23.03476968825172
 30
0.0
 10
35.67189669247092
 20
23.03476968825172
 30
0.0
 10
35.0001030728472
 20
23.70656330787545
 30
0.0
 10
35.0001030728472
 20
24.53510877207803
 30
0.0
 10
35.0001030728472
 20
25.36365423628062
 30
0.0
 10
35.67189669247092
 20
26.03510334635581
 30
0.0
 10
36.50009764712497
 20
26.03510334635581
 30
0.0
 10
37.32864311132757
 20
26.03510334635581
 30
0.0
 10
38.00009222140276
 20
25.36365423628062
 30
0.0
 10
38.00009222140276
 20
24.53510877207803
 30
0.0
  0
SPLINE
  5
C6
330
1F
100
AcDbEntity
  8
LAYER_1
 62
   250
100
AcDbSpline
210
0.0
220
0.0
230
1.0
 70
    11
 71
     3
 72
    17
 73
    13
 74
     0
 42
0.0000000001
 43
0.0000000001
 40
0.0
 40
0.0
 40
0.0
 40
0.0
 40
1.0
 40
1.0
 40
1.0
 40
2.0
 40
2.0
 40
2.0
 40
3.0
 40
3.0
 40
3.0
 40
4.0
 40
4.0
 40
4.0
 40
4.0
 10
7.000089516479145
 20
24.5347642625295
 30
0.0
 10
7.000089516479145
 20
23.70656330787545
 30
0.0
 10
6.328640406403951
 20
23.03476968825172
 30
0.0
 10
5.50043945174989
 20
23.03476968825172
 30
0.0
 10
4.671893987547304
 20
23.03476968825172
 30
0.0
 10
4.000272622697849
 20
23.70656330787545
 30
0.0
 10
4.000272622697849
 20
24.5347642625295
 30
0.0
 10
4.000272622697849
 20
25.36330972673209
 30
0.0
 10
4.671893987547304
 20
26.03475883680728
 30
0.0
 10
5.50043945174989
 20
26.03475883680728
 30
0.0
 10
6.328640406403951
 20
26.03475883680728
 30
0.0
 10
7.000089516479145
 20
25.36330972673209
 30
0.0
 10
7.000089516479145
 20
24.5347642625295
 30
0.0
  0
SPLINE
  5
C7
330
1F
100
AcDbEntity
  8
LAYER_1
 62
     7
100
AcDbSpline
210
0.0
220
0.0
230
1.0
 70
    11
 71
     3
 72
    59
 73
    55
 74
     0
 42
0.0000000001
 43
0.0000000001
 40
0.0
 40
0.0
 40
0.0
 40
0.0
 40
1.0
 40
1.0
 40
1.0
 40
2.0
 40
2.0
 40
2.0
 40
3.0
 40
3.0
 40
3.0
 40
4.0
 40
4.0
 40
4.0
 40
5.0
 40
5.0
 40
5.0
 40
6.0
 40
6.0
 40
6.0
 40
7.0
 40
7.0
 40
7.0
 40
8.0
 40
8.0
 40
8.0
 40
9.0
 40
9.0
 40
9.0
 40
10.0
 40
10.0
 40
10.0
 40
11.0
 40
11.0
 40
11.0
 40
12.0
 40
12.0
 40
12.0
 40
13.0
 40
13.0
 40
13.0
 40
14.0
 40
14.0
 40
14.0
 40
15.0
 40
15.0
 40
15.0
 40
16.0
 40
16.0
 40
16.0
 40
17.0
 40
17.0
 40
17.0
 40
18.0
 40
18.0
 40
18.0
 40
18.0
 10
41.05451387862527
 20
1.762855359802342
 30
0.0
 10
41.05451387862527
 20
1.762855359802342
 30
0.0
 10
37.44474282918048
 20
17.27215847007432
 30
0.0
 10
37.44474282918048
 20
17.27215847007432
 30
0.0
 10
36.92522243000481
 20
18.24160833962363
 30
0.0
 10
35.60023870637772
 20
19.03501382987666
 30
0.0
 10
34.49987520838892
 20
19.03501382987666
 30
0.0
 10
34.49987520838892
 20
19.03501382987666
 30
0.0
 10
3.058383517030543
 20
19.03501382987666
 30
0.0
 10
3.058383517030543
 20
19.03501382987666
 30
0.0
 10
3.058383517030543
 20
19.03501382987666
 30
0.0
 10
0.0
 20
22.09322509213294
 30
0.0
 10
0.0
 20
22.09322509213294
 30
0.0
 10
0.0
 20
22.09322509213294
 30
0.0
 10
0.0
 20
57.97613388307541
 30
0.0
 10
0.0
 20
57.97613388307541
 30
0.0
 10
0.0
 20
57.97613388307541
 30
0.0
 10
3.058383517030543
 20
61.03451740010595
 30
0.0
 10
3.058383517030543
 20
61.03451740010595
 30
0.0
 10
3.058383517030543
 20
61.03451740010595
 30
0.0
 10
34.49987520838892
 20
61.03451740010595
 30
0.0
 10
34.49987520838892
 20
61.03451740010595
 30
0.0
 10
35.60023870637772
 20
61.03451740010595
 30
0.0
 10
36.92522243000481
 20
61.82792289035899
 30
0.0
 10
37.44474282918048
 20
62.79754501468256
 30
0.0
 10
37.44474282918048
 20
62.79754501468256
 30
0.0
 10
41.05451387862527
 20
78.23570690318414
 30
0.0
 10
41.05451387862527
 20
78.23570690318414
 30
0.0
 10
41.57403427780094
 20
79.2053290275077
 30
0.0
 10
42.89901800142803
 20
79.99873451776074
 30
0.0
 10
43.99938149941682
 20
79.99873451776074
 30
0.0
 10
43.99938149941682
 20
79.99873451776074
 30
0.0
 10
47.27222221040417
 20
79.99873451776074
 30
0.0
 10
47.27222221040417
 20
79.99873451776074
 30
0.0
 10
47.27222221040417
 20
79.99873451776074
 30
0.0
 10
47.27222221040417
 20
87.13611108932709
 30
0.0
 10
47.27222221040417
 20
87.13611108932709
 30
0.0
 10
47.27222221040417
 20
87.13611108932709
 30
0.0
 10
-7.055555553791667
 20
87.13611108932709
 30
0.0
 10
-7.055555553791667
 20
87.13611108932709
 30
0.0
 10
-7.055555553791667
 20
87.13611108932709
 30
0.0
 10
-7.055555553791667
 20
-6.702777776102083
 30
0.0
 10
-7.055555553791667
 20
-6.702777776102083
 30
0.0
 10
-7.055555553791667
 20
-6.702777776102083
 30
0.0
 10
47.27222221040417
 20
-6.702777776102083
 30
0.0
 10
47.27222221040417
 20
-6.702777776102083
 30
0.0
 10
47.27222221040417
 20
-6.702777776102083
 30
0.0
 10
47.27222221040417
 20
0.0
 30
0.0
 10
47.27222221040417
 20
0.0
 30
0.0
 10
47.27222221040417
 20
0.0
 30
0.0
 10
43.99938149941682
 20
0.0
 30
0.0
 10
43.99938149941682
 20
0.0
 30
0.0
 10
42.89901800142803
 20
0.0
 30
0.0
 10
41.57403427780094
 20
0.7934054902530375
 30
0.0
 10
41.05451387862527
 20
1.762855359802342
 30
0.0
  0
SPLINE
  5
C8
330
1F
100
AcDbEntity
  8
LAYER_1
 62
     7
100
AcDbSpline
210
0.0
220
0.0
230
1.0
 70
    11
 71
     3
 72
    53
 73
    49
 74
     0
 42
0.0000000001
 43
0.0000000001
 40
0.0
 40
0.0
 40
0.0
 40
0.0
 40
1.0
 40
1.0
 40
1.0
 40
2.0
 40
2.0
 40
2.0
 40
3.0
 40
3.0
 40
3.0
 40
4.0
 40
4.0
 40
4.0
 40
5.0
 40
5.0
 40
5.0
 40
6.0
 40
6.0
 40
6.0
 40
7.0
 40
7.0
 40
7.0
 40
8.0
 40
8.0
 40
8.0
 40
9.0
 40
9.0
 40
9.0
 40
10.0
 40
10.0
 40
10.0
 40
11.0
 40
11.0
 40
11.0
 40
12.0
 40
12.0
 40
12.0
 40
13.0
 40
13.0
 40
13.0
 40
14.0
 40
14.0
 40
14.0
 40
15.0
 40
15.0
 40
15.0
 40
16.0
 40
16.0
 40
16.0
 40
16.0
 10
484.0024982513953
 20
79.99873451776074
 30
0.0
 10
484.0024982513953
 20
79.99873451776074
 30
0.0
 10
47.27222221040417
 20
79.99873451776074
 30
0.0
 10
47.27222221040417
 20
79.99873451776074
 30
0.0
 10
47.27222221040417
 20
79.99873451776074
 30
0.0
 10
43.99938149941682
 20
79.99873451776074
 30
0.0
 10
43.99938149941682
 20
79.99873451776074
 30
0.0
 10
42.89901800142803
 20
79.99873451776074
 30
0.0
 10
41.57403427780094
 20
79.2053290275077
 30
0.0
 10
41.05451387862527
 20
78.23570690318414
 30
0.0
 10
41.05451387862527
 20
78.23570690318414
 30
0.0
 10
37.44474282918048
 20
62.79754501468256
 30
0.0
 10
37.44474282918048
 20
62.79754501468256
 30
0.0
 10
36.92522243000481
 20
61.82792289035899
 30
0.0
 10
35.60023870637772
 20
61.03451740010595
 30
0.0
 10
34.49987520838892
 20
61.03451740010595
 30
0.0
 10
34.49987520838892
 20
61.03451740010595
 30
0.0
 10
3.058383517030543
 20
61.03451740010595
 30
0.0
 10
3.058383517030543
 20
61.03451740010595
 30
0.0
 10
3.058383517030543
 20
61.03451740010595
 30
0.0
 10
0.0
 20
57.97613388307541
 30
0.0
 10
0.0
 20
57.97613388307541
 30
0.0
 10
0.0
 20
57.97613388307541
 30
0.0
 10
0.0
 20
22.09322509213294
 30
0.0
 10
0.0
 20
22.09322509213294
 30
0.0
 10
0.0
 20
22.09322509213294
 30
0.0
 10
3.058383517030543
 20
19.03501382987666
 30
0.0
 10
3.058383517030543
 20
19.03501382987666
 30
0.0
 10
3.058383517030543
 20
19.03501382987666
 30
0.0
 10
34.49987520838892
 20
19.03501382987666
 30
0.0
 10
34.49987520838892
 20
19.03501382987666
 30
0.0
 10
35.60023870637772
 20
19.03501382987666
 30
0.0
 10
36.92522243000481
 20
18.24160833962363
 30
0.0
 10
37.44474282918048
 20
17.27215847007432
 30
0.0
 10
37.44474282918048
 20
17.27215847007432
 30
0.0
 10
41.05451387862527
 20
1.762855359802342
 30
0.0
 10
41.05451387862527
 20
1.762855359802342
 30
0.0
 10
41.57403427780094
 20
0.7934054902530375
 30
0.0
 10
42.89901800142803
 20
0.0
 30
0.0
 10
43.99938149941682
 20
0.0
 30
0.0
 10
43.99938149941682
 20
0.0
 30
0.0
 10
47.27222221040417
 20
0.0
 30
0.0
 10
47.27222221040417
 20
0.0
 30
0.0
 10
47.27222221040417
 20
0.0
 30
0.0
 10
484.0024982513953
 20
0.0
 30
0.0
 10
484.0024982513953
 20
0.0
 30
0.0
 10
484.0024982513953
 20
0.0
 30
0.0
 10
484.0024982513953
 20
79.99873451776074
 30
0.0
 10
484.0024982513953
 20
79.99873451776074
 30
0.0
  0
ENDSEC
  0
SECTION
  2
OBJECTS
  0
DICTIONARY
  5
C
330
0
100
AcDbDictionary
  3
ACAD_GROUP
350
D
  3
ACAD_LAYOUT
350
1A
  3
ACAD_MLINESTYLE
350
17
  3
ACAD_PLOTSETTINGS
350
19
  3
ACAD_TABLESTYLE
350
C9
  3
ACAD_VISUALSTYLE
350
2A
1001
ACAD
1000
TREAT_AS_HARD
1070
     0
  0
DICTIONARY
  5
D
102
{ACAD_REACTORS
330
C
102
}
330
C
100
AcDbDictionary
1001
ACAD
1000
TREAT_AS_HARD
1070
     0
  0
DICTIONARY
  5
1A
102
{ACAD_REACTORS
330
C
102
}
330
C
100
AcDbDictionary
1001
ACAD
1000
TREAT_AS_HARD
1070
     0
  0
DICTIONARY
  5
17
102
{ACAD_REACTORS
330
C
102
}
330
C
100
AcDbDictionary
  3
STANDARD
350
18
1001
ACAD
1000
TREAT_AS_HARD
1070
     0
  0
DICTIONARY
  5
19
102
{ACAD_REACTORS
330
C
102
}
330
C
100
AcDbDictionary
1001
ACAD
1000
TREAT_AS_HARD
1070
     0
  0
DICTIONARY
  5
C9
102
{ACAD_REACTORS
330
C
102
}
330
C
100
AcDbDictionary
1001
ACAD
1000
TREAT_AS_HARD
1070
     0
  0
DICTIONARY
  5
2A
102
{ACAD_REACTORS
330
C
102
}
330
C
100
AcDbDictionary
  3
2DWIREFRAME
350
2F
  3
3D_HIDDEN
350
31
  3
3DWIREFRAME
350
30
  3
BASIC
350
32
  3
BRIGHTEN
350
36
  3
COLORCHANGE
350
3A
  3
CONCEPTUAL
350
34
  3
DIM
350
35
  3
FACEPATTERN
350
39
  3
FLAT
350
2B
  3
FLATWITHEDGES
350
2C
  3
GOURAUD
350
2D
  3
GOURAUDWITHEDGES
350
2E
  3
LINEPATTERN
350
38
  3
REALISTIC
350
33
  3
THICKEN
350
37
1001
ACAD
1000
TREAT_AS_HARD
1070
     0
  0
MLINESTYLE
  5
18
102
{ACAD_REACTORS
330
17
102
}
330
17
100
AcDbMlineStyle
  2
Standard
 70
     0
  3

 62
   256
 51
90.0
 52
90.0
 71
     2
 49
0.5
 62
   256
  6
BYLAYER
 49
-0.5
 62
   256
  6
BYLAYER
  0
VISUALSTYLE
  5
2F
102
{ACAD_REACTORS
330
2A
102
}
330
2A
100
AcDbVisualStyle
  2
2dWireframe
 70
     4
 71
     0
 72
     2
 73
     0
 90
        0
 40
-0.6
 41
-30.0
 62
     5
 63
     7
 74
     1
 91
        4
 64
     7
 65
   257
 75
     1
175
     1
 42
1.0
 92
        0
 66
   257
 43
1.0
 76
     1
 77
     6
 78
     2
 67
     7
 79
     5
170
     0
171
     0
290
     0
174
     0
 93
        1
 44
0.0
173
     0
291
     0
 45
0.0
1001
ACAD
1000
AcDbSavedByObjectVersion
1070
     0
  0
VISUALSTYLE
  5
31
102
{ACAD_REACTORS
330
2A
102
}
330
2A
100
AcDbVisualStyle
  2
3D Hidden
 70
     6
 71
     1
 72
     2
 73
     2
 90
        0
 40
-0.6
 41
-30.0
 62
     5
 63
     7
 74
     2
 91
        2
 64
     7
 65
   257
 75
     2
175
     1
 42
40.0
 92
        0
 66
   257
 43
1.0
 76
     1
 77
     6
 78
     2
 67
     7
 79
     3
170
     0
171
     0
290
     0
174
     0
 93
        1
 44
0.0
173
     0
291
     0
 45
0.0
1001
ACAD
1000
AcDbSavedByObjectVersion
1070
     0
  0
VISUALSTYLE
  5
30
102
{ACAD_REACTORS
330
2A
102
}
330
2A
100
AcDbVisualStyle
  2
3dWireframe
 70
     5
 71
     0
 72
     2
 73
     0
 90
        0
 40
-0.6
 41
-30.0
 62
     5
 63
     7
 74
     1
 91
        4
 64
     7
 65
   257
 75
     1
175
     1
 42
1.0
 92
        0
 66
   257
 43
1.0
 76
     1
 77
     6
 78
     2
 67
     7
 79
     5
170
     0
171
     0
290
     0
174
     0
 93
        1
 44
0.0
173
     0
291
     0
 45
0.0
1001
ACAD
1000
AcDbSavedByObjectVersion
1070
     0
  0
VISUALSTYLE
  5
32
102
{ACAD_REACTORS
330
2A
102
}
330
2A
100
AcDbVisualStyle
  2
Basic
 70
     7
 71
     1
 72
     0
 73
     1
 90
        0
 40
-0.6
 41
-30.0
 62
     5
 63
     7
 74
     0
 91
        4
 64
     7
 65
   257
 75
     1
175
     1
 42
1.0
 92
        8
 66
     7
 43
1.0
 76
     1
 77
     6
 78
     2
 67
     7
 79
     5
170
     0
171
     0
290
     0
174
     0
 93
        1
 44
0.0
173
     0
291
     1
 45
0.0
1001
ACAD
1000
AcDbSavedByObjectVersion
1070
     0
  0
VISUALSTYLE
  5
36
102
{ACAD_REACTORS
330
2A
102
}
330
2A
100
AcDbVisualStyle
  2
Brighten
 70
    12
 71
     2
 72
     2
 73
     0
 90
        0
 40
-0.6
 41
-30.0
 62
     5
 63
     7
 74
     1
 91
        4
 64
     7
 65
   257
 75
     1
175
     1
 42
1.0
 92
        8
 66
     7
 43
1.0
 76
     1
 77
     6
 78
     2
 67
     7
 79
     5
170
     0
171
     0
290
     0
174
     0
 93
        1
 44
50.0
173
     0
291
     1
 45
0.0
1001
ACAD
1000
AcDbSavedByObjectVersion
1070
     0
  0
VISUALSTYLE
  5
3A
102
{ACAD_REACTORS
330
2A
102
}
330
2A
100
AcDbVisualStyle
  2
ColorChange
 70
    16
 71
     2
 72
     2
 73
     3
 90
        0
 40
-0.6
 41
-30.0
 62
     5
 63
     8
 74
     1
 91
        4
 64
     7
 65
   257
 75
     1
175
     1
 42
1.0
 92
        8
 66
     8
 43
1.0
 76
     1
 77
     6
 78
     2
 67
     7
 79
     5
170
     0
171
     0
290
     0
174
     0
 93
        1
 44
0.0
173
     0
291
     1
 45
0.0
1001
ACAD
1000
AcDbSavedByObjectVersion
1070
     0
  0
VISUALSTYLE
  5
34
102
{ACAD_REACTORS
330
2A
102
}
330
2A
100
AcDbVisualStyle
  2
Conceptual
 70
     9
 71
     3
 72
     2
 73
     0
 90
        0
 40
-0.6
 41
-30.0
 62
     5
 63
     7
 74
     2
 91
        2
 64
     7
 65
   257
 75
     1
175
     1
 42
40.0
 92
        8
 66
     7
 43
1.0
 76
     1
 77
     6
 78
     2
 67
     7
 79
     3
170
     0
171
     0
290
     0
174
     0
 93
        1
 44
0.0
173
     0
291
     0
 45
0.0
1001
ACAD
1000
AcDbSavedByObjectVersion
1070
     0
  0
VISUALSTYLE
  5
35
102
{ACAD_REACTORS
330
2A
102
}
330
2A
100
AcDbVisualStyle
  2
Dim
 70
    11
 71
     2
 72
     2
 73
     0
 90
        0
 40
-0.6
 41
-30.0
 62
     5
 63
     7
 74
     1
 91
        4
 64
     7
 65
   257
 75
     1
175
     1
 42
1.0
 92
        8
 66
     7
 43
1.0
 76
     1
 77
     6
 78
     2
 67
     7
 79
     5
170
     0
171
     0
290
     0
174
     0
 93
        1
 44
-50.0
173
     0
291
     1
 45
0.0
1001
ACAD
1000
AcDbSavedByObjectVersion
1070
     0
  0
VISUALSTYLE
  5
39
102
{ACAD_REACTORS
330
2A
102
}
330
2A
100
AcDbVisualStyle
  2
Facepattern
 70
    15
 71
     2
 72
     2
 73
     0
 90
        0
 40
-0.6
 41
-30.0
 62
     5
 63
     7
 74
     1
 91
        4
 64
     7
 65
   257
 75
     1
175
     1
 42
1.0
 92
        8
 66
     7
 43
1.0
 76
     1
 77
     6
 78
     2
 67
     7
 79
     5
170
     0
171
     0
290
     0
174
     0
 93
        1
 44
0.0
173
     0
291
     1
 45
0.0
1001
ACAD
1000
AcDbSavedByObjectVersion
1070
     0
  0
VISUALSTYLE
  5
2B
102
{ACAD_REACTORS
330
2A
102
}
330
2A
100
AcDbVisualStyle
  2
Flat
 70
     0
 71
     2
 72
     1
 73
     1
 90
        2
 40
-0.6
 41
30.0
 62
     5
 63
     7
 74
     0
 91
        4
 64
     7
 65
   257
 75
     1
175
     1
 42
1.0
 92
        8
 66
     7
 43
1.0
 76
     1
 77
     6
 78
     2
 67
     7
 79
     5
170
     0
171
     0
290
     0
174
     0
 93
       13
 44
0.0
173
     0
291
     1
 45
0.0
1001
ACAD
1000
AcDbSavedByObjectVersion
1070
     0
  0
VISUALSTYLE
  5
2C
102
{ACAD_REACTORS
330
2A
102
}
330
2A
100
AcDbVisualStyle
  2
FlatWithEdges
 70
     1
 71
     2
 72
     1
 73
     1
 90
        2
 40
-0.6
 41
30.0
 62
     5
 63
     7
 74
     1
 91
        4
 64
     7
 65
   257
 75
     1
175
     1
 42
1.0
 92
        0
 66
   257
 43
1.0
 76
     1
 77
     6
 78
     2
 67
     7
 79
     5
170
     0
171
     0
290
     0
174
     0
 93
       13
 44
0.0
173
     0
291
     1
 45
0.0
1001
ACAD
1000
AcDbSavedByObjectVersion
1070
     0
  0
VISUALSTYLE
  5
2D
102
{ACAD_REACTORS
330
2A
102
}
330
2A
100
AcDbVisualStyle
  2
Gouraud
 70
     2
 71
     2
 72
     2
 73
     1
 90
        2
 40
-0.6
 41
30.0
 62
     5
 63
     7
 74
     0
 91
        4
 64
     7
 65
   257
 75
     1
175
     1
 42
1.0
 92
        0
 66
     7
 43
1.0
 76
     1
 77
     6
 78
     2
 67
     7
 79
     5
170
     0
171
     0
290
     0
174
     0
 93
       13
 44
0.0
173
     0
291
     1
 45
0.0
1001
ACAD
1000
AcDbSavedByObjectVersion
1070
     0
  0
VISUALSTYLE
  5
2E
102
{ACAD_REACTORS
330
2A
102
}
330
2A
100
AcDbVisualStyle
  2
GouraudWithEdges
 70
     3
 71
     2
 72
     2
 73
     1
 90
        2
 40
-0.6
 41
30.0
 62
     5
 63
     7
 74
     1
 91
        4
 64
     7
 65
   257
 75
     1
175
     1
 42
1.0
 92
        0
 66
   257
 43
1.0
 76
     1
 77
     6
 78
     2
 67
     7
 79
     5
170
     0
171
     0
290
     0
174
     0
 93
       13
 44
0.0
173
     0
291
     1
 45
0.0
1001
ACAD
1000
AcDbSavedByObjectVersion
1070
     0
  0
VISUALSTYLE
  5
38
102
{ACAD_REACTORS
330
2A
102
}
330
2A
100
AcDbVisualStyle
  2
Linepattern
 70
    14
 71
     2
 72
     2
 73
     0
 90
        0
 40
-0.6
 41
-30.0
 62
     5
 63
     7
 74
     1
 91
        4
 64
     7
 65
   257
 75
     7
175
     7
 42
1.0
 92
        8
 66
     7
 43
1.0
 76
     1
 77
     6
 78
     2
 67
     7
 79
     5
170
     0
171
     0
290
     0
174
     0
 93
        1
 44
0.0
173
     0
291
     1
 45
0.0
1001
ACAD
1000
AcDbSavedByObjectVersion
1070
     0
  0
VISUALSTYLE
  5
33
102
{ACAD_REACTORS
330
2A
102
}
330
2A
100
AcDbVisualStyle
  2
Realistic
 70
     8
 71
     2
 72
     2
 73
     0
 90
        0
 40
-0.6
 41
-30.0
 62
     5
 63
     7
 74
     1
 91
        0
 64
     7
 65
   257
 75
     1
175
     1
 42
1.0
 92
        8
 66
     8
 43
1.0
 76
     1
 77
     6
 78
     2
 67
     7
 79
     5
170
     0
171
     0
290
     0
174
     0
 93
       13
 44
0.0
173
     0
291
     0
 45
0.0
1001
ACAD
1000
AcDbSavedByObjectVersion
1070
     0
  0
VISUALSTYLE
  5
37
102
{ACAD_REACTORS
330
2A
102
}
330
2A
100
AcDbVisualStyle
  2
Thicken
 70
    13
 71
     2
 72
     2
 73
     0
 90
        0
 40
-0.6
 41
-30.0
 62
     5
 63
     7
 74
     1
 91
        4
 64
     7
 65
   257
 75
     1
175
     1
 42
1.0
 92
       12
 66
     7
 43
1.0
 76
     1
 77
     6
 78
     2
 67
     7
 79
     5
170
     0
171
     0
290
     0
174
     0
 93
        1
 44
0.0
173
     0
291
     1
 45
0.0
1001
ACAD
1000
AcDbSavedByObjectVersion
1070
     0
  0
ENDSEC
  0
EOF
