  0
SECTION
  2
HEADER
  9
$ACADVER
  1
AC1012
  9
$DWGCODEPAGE
  3
ansi_1252
  9
$INSBASE
 10
0.0
 20
0.0
 30
0.0
  9
$EXTMIN
 10
1.000000000000000E+20
 20
1.000000000000000E+20
 30
1.000000000000000E+20
  9
$EXTMAX
 10
-1.000000000000000E+20
 20
-1.000000000000000E+20
 30
-1.000000000000000E+20
  9
$LIMMIN
 10
0.0
 20
0.0
  9
$LIMMAX
 10
12.0
 20
9.0
  9
$ORTHOMODE
 70
     0
  9
$REGENMODE
 70
     1
  9
$FILLMODE
 70
     1
  9
$QTEXTMODE
 70
     0
  9
$MIRRTEXT
 70
     1
  9
$DRAGMODE
 70
     2
  9
$LTSCALE
 40
1.0
  9
$OSMODE
 70
    37
  9
$ATTMODE
 70
     1
  9
$TEXTSIZE
 40
0.2
  9
$TRACEWID
 40
0.05
  9
$TEXTSTYLE
  7
STANDARD
  9
$CLAYER
  8
0
  9
$CELTYPE
  6
BYLAYER
  9
$CECOLOR
 62
   256
  9
$CELTSCALE
 40
1.0
  9
$DELOBJ
 70
     1
  9
$DISPSILH
 70
     0
  9
$DIMSCALE
 40
1.0
  9
$DIMASZ
 40
0.18
  9
$DIMEXO
 40
0.0625
  9
$DIMDLI
 40
0.38
  9
$DIMRND
 40
0.0
  9
$DIMDLE
 40
0.0
  9
$DIMEXE
 40
0.18
  9
$DIMTP
 40
0.0
  9
$DIMTM
 40
0.0
  9
$DIMTXT
 40
0.18
  9
$DIMCEN
 40
0.09
  9
$DIMTSZ
 40
0.0
  9
$DIMTOL
 70
     0
  9
$DIMLIM
 70
     0
  9
$DIMTIH
 70
     1
  9
$DIMTOH
 70
     1
  9
$DIMSE1
 70
     0
  9
$DIMSE2
 70
     0
  9
$DIMTAD
 70
     0
  9
$DIMZIN
 70
     0
  9
$DIMBLK
  1

  9
$DIMASO
 70
     1
  9
$DIMSHO
 70
     1
  9
$DIMPOST
  1

  9
$DIMAPOST
  1

  9
$DIMALT
 70
     0
  9
$DIMALTD
 70
     2
  9
$DIMALTF
 40
25.4
  9
$DIMLFAC
 40
1.0
  9
$DIMTOFL
 70
     0
  9
$DIMTVP
 40
0.0
  9
$DIMTIX
 70
     0
  9
$DIMSOXD
 70
     0
  9
$DIMSAH
 70
     0
  9
$DIMBLK1
  1

  9
$DIMBLK2
  1

  9
$DIMSTYLE
  2
STANDARD
  9
$DIMCLRD
 70
     0
  9
$DIMCLRE
 70
     0
  9
$DIMCLRT
 70
     0
  9
$DIMTFAC
 40
1.0
  9
$DIMGAP
 40
0.09
  9
$DIMJUST
 70
     0
  9
$DIMSD1
 70
     0
  9
$DIMSD2
 70
     0
  9
$DIMTOLJ
 70
     1
  9
$DIMTZIN
 70
     0
  9
$DIMALTZ
 70
     0
  9
$DIMALTTZ
 70
     0
  9
$DIMFIT
 70
     3
  9
$DIMUPT
 70
     0
  9
$DIMUNIT
 70
     2
  9
$DIMDEC
 70
     4
  9
$DIMTDEC
 70
     4
  9
$DIMALTU
 70
     2
  9
$DIMALTTD
 70
     2
  9
$DIMTXSTY
  7
STANDARD
  9
$DIMAUNIT
 70
     0
  9
$LUNITS
 70
     2
  9
$LUPREC
 70
     4
  9
$SKETCHINC
 40
0.1
  9
$FILLETRAD
 40
0.5
  9
$AUNITS
 70
     0
  9
$AUPREC
 70
     0
  9
$MENU
  1
.
  9
$ELEVATION
 40
0.0
  9
$PELEVATION
 40
0.0
  9
$THICKNESS
 40
0.0
  9
$LIMCHECK
 70
     0
  9
$CHAMFERA
 40
0.5
  9
$CHAMFERB
 40
0.5
  9
$CHAMFERC
 40
1.0
  9
$CHAMFERD
 40
0.0
  9
$SKPOLY
 70
     0
  9
$TDCREATE
 40
2456562.696975498
  9
$TDUPDATE
 40
2456562.696975509
  9
$TDINDWG
 40
0.0000000116
  9
$TDUSRTIMER
 40
0.0000000116
  9
$USRTIMER
 70
     1
  9
$ANGBASE
 50
0.0
  9
$ANGDIR
 70
     0
  9
$PDMODE
 70
     0
  9
$PDSIZE
 40
0.0
  9
$PLINEWID
 40
0.0
  9
$COORDS
 70
     1
  9
$SPLFRAME
 70
     0
  9
$SPLINETYPE
 70
     6
  9
$SPLINESEGS
 70
     8
  9
$ATTDIA
 70
     0
  9
$ATTREQ
 70
     1
  9
$HANDLING
 70
     1
  9
$HANDSEED
  5
C2
  9
$SURFTAB1
 70
     6
  9
$SURFTAB2
 70
     6
  9
$SURFTYPE
 70
     6
  9
$SURFU
 70
     6
  9
$SURFV
 70
     6
  9
$UCSNAME
  2

  9
$UCSORG
 10
0.0
 20
0.0
 30
0.0
  9
$UCSXDIR
 10
1.0
 20
0.0
 30
0.0
  9
$UCSYDIR
 10
0.0
 20
1.0
 30
0.0
  9
$PUCSNAME
  2

  9
$PUCSORG
 10
0.0
 20
0.0
 30
0.0
  9
$PUCSXDIR
 10
1.0
 20
0.0
 30
0.0
  9
$PUCSYDIR
 10
0.0
 20
1.0
 30
0.0
  9
$USERI1
 70
     0
  9
$USERI2
 70
     0
  9
$USERI3
 70
     0
  9
$USERI4
 70
     0
  9
$USERI5
 70
     0
  9
$USERR1
 40
0.0
  9
$USERR2
 40
0.0
  9
$USERR3
 40
0.0
  9
$USERR4
 40
0.0
  9
$USERR5
 40
0.0
  9
$WORLDVIEW
 70
     1
  9
$SHADEDGE
 70
     3
  9
$SHADEDIF
 70
    70
  9
$TILEMODE
 70
     1
  9
$MAXACTVP
 70
    64
  9
$PINSBASE
 10
0.0
 20
0.0
 30
0.0
  9
$PLIMCHECK
 70
     0
  9
$PEXTMIN
 10
1.000000000000000E+20
 20
1.000000000000000E+20
 30
1.000000000000000E+20
  9
$PEXTMAX
 10
-1.000000000000000E+20
 20
-1.000000000000000E+20
 30
-1.000000000000000E+20
  9
$PLIMMIN
 10
0.0
 20
0.0
  9
$PLIMMAX
 10
12.0
 20
9.0
  9
$UNITMODE
 70
     0
  9
$VISRETAIN
 70
     1
  9
$PLINEGEN
 70
     0
  9
$PSLTSCALE
 70
     1
  9
$TREEDEPTH
 70
  3020
  9
$PICKSTYLE
 70
     1
  9
$CMLSTYLE
  2
STANDARD
  9
$CMLJUST
 70
     0
  9
$CMLSCALE
 40
1.0
  9
$SAVEIMAGES
 70
     1
  0
ENDSEC
  0
SECTION
  2
CLASSES
  0
CLASS
  1
ACDBDICTIONARYWDFLT
  2
AcDbDictionaryWithDefault
  3
ObjectDBX Classes
 90
    32768
280
     0
281
     0
  0
CLASS
  1
VISUALSTYLE
  2
AcDbVisualStyle
  3
ObjectDBX Classes
 90
     4095
280
     0
281
     0
  0
CLASS
  1
XRECORD
  2
AcDbXrecord
  3
AutoCAD 2000
 90
    32768
280
     0
281
     0
  0
CLASS
  1
LWPOLYLINE
  2
AcDbPolyline
  3
AutoCAD 2000
 90
    32768
280
     0
281
     1
  0
CLASS
  1
HATCH
  2
AcDbHatch
  3
AutoCAD 2000
 90
    32768
280
     0
281
     1
  0
CLASS
  1
ACDBPLACEHOLDER
  2
AcDbPlaceHolder
  3
ObjectDBX Classes
 90
        0
280
     0
281
     0
  0
CLASS
  1
LAYOUT
  2
AcDbLayout
  3
ObjectDBX Classes
 90
        0
280
     0
281
     0
  0
ENDSEC
  0
SECTION
  2
TABLES
  0
TABLE
  2
VPORT
  5
8
330
0
100
AcDbSymbolTable
 70
     1
  0
VPORT
  5
29
330
8
100
AcDbSymbolTableRecord
100
AcDbViewportTableRecord
  2
*ACTIVE
 70
     0
 10
0.0
 20
0.0
 11
1.0
 21
1.0
 12
0.0
 22
0.0
 13
0.0
 23
0.0
 14
0.5
 24
0.5
 15
0.5
 25
0.5
 16
0.0
 26
0.0
 36
1.0
 17
105.0008259828644
 27
-148.4999796178229
 37
0.0
 40
296.9999592356459
 41
0.7070763662937379
 42
50.0
 43
0.0
 44
0.0
 50
0.0
 51
0.0
 71
     0
 72
   100
 73
     1
 74
     3
 75
     0
 76
     0
 77
     0
 78
     0
  0
ENDTAB
  0
TABLE
  2
LTYPE
  5
5
330
0
100
AcDbSymbolTable
 70
     1
  0
LTYPE
  5
14
330
5
100
AcDbSymbolTableRecord
100
AcDbLinetypeTableRecord
  2
BYBLOCK
 70
     0
  3

 72
    65
 73
     0
 40
0.0
  0
LTYPE
  5
15
330
5
100
AcDbSymbolTableRecord
100
AcDbLinetypeTableRecord
  2
BYLAYER
 70
     0
  3

 72
    65
 73
     0
 40
0.0
  0
LTYPE
  5
16
330
5
100
AcDbSymbolTableRecord
100
AcDbLinetypeTableRecord
  2
CONTINUOUS
 70
     0
  3
Solid line
 72
    65
 73
     0
 40
0.0
  0
ENDTAB
  0
TABLE
  2
LAYER
  5
2
330
0
100
AcDbSymbolTable
 70
     2
  0
LAYER
  5
10
330
2
100
AcDbSymbolTableRecord
100
AcDbLayerTableRecord
  2
0
 70
     0
 62
     7
  6
CONTINUOUS
  0
LAYER
  5
3B
330
2
100
AcDbSymbolTableRecord
100
AcDbLayerTableRecord
  2
LAYER_1
 70
     0
 62
     7
  6
CONTINUOUS
  0
ENDTAB
  0
TABLE
  2
STYLE
  5
3
330
0
100
AcDbSymbolTable
 70
     1
  0
STYLE
  5
11
330
3
100
AcDbSymbolTableRecord
100
AcDbTextStyleTableRecord
  2
STANDARD
 70
     0
 40
0.0
 41
1.0
 50
0.0
 71
     0
 42
0.2
  3
txt
  4

  0
ENDTAB
  0
TABLE
  2
VIEW
  5
6
330
0
100
AcDbSymbolTable
 70
     0
  0
ENDTAB
  0
TABLE
  2
UCS
  5
7
330
0
100
AcDbSymbolTable
 70
     0
  0
ENDTAB
  0
TABLE
  2
APPID
  5
9
330
0
100
AcDbSymbolTable
 70
     1
  0
APPID
  5
12
330
9
100
AcDbSymbolTableRecord
100
AcDbRegAppTableRecord
  2
ACAD
 70
     0
  0
ENDTAB
  0
TABLE
  2
DIMSTYLE
  5
A
330
0
100
AcDbSymbolTable
 70
     1
  0
DIMSTYLE
105
27
330
A
100
AcDbSymbolTableRecord
100
AcDbDimStyleTableRecord
  2
STANDARD
 70
     0
  3

  4

  5

  6

  7

 40
1.0
 41
0.18
 42
0.0625
 43
0.38
 44
0.18
 45
0.0
 46
0.0
 47
0.0
 48
0.0
140
0.18
141
0.09
142
0.0
143
25.4
144
1.0
145
0.0
146
1.0
147
0.09
 71
     0
 72
     0
 73
     1
 74
     1
 75
     0
 76
     0
 77
     0
 78
     0
170
     0
171
     2
172
     0
173
     0
174
     0
175
     0
176
     0
177
     0
178
     0
270
     2
271
     4
272
     4
273
     2
274
     2
340
11
275
     0
280
     0
281
     0
282
     0
283
     1
284
     0
285
     0
286
     0
287
     3
288
     0
  0
ENDTAB
  0
TABLE
  2
BLOCK_RECORD
  5
1
330
0
100
AcDbSymbolTable
 70
     5
  0
BLOCK_RECORD
  5
1F
330
1
100
AcDbSymbolTableRecord
100
AcDbBlockTableRecord
  2
*MODEL_SPACE
  0
BLOCK_RECORD
  5
1B
330
1
100
AcDbSymbolTableRecord
100
AcDbBlockTableRecord
  2
*PAPER_SPACE
  0
BLOCK_RECORD
  5
3C
330
1
100
AcDbSymbolTableRecord
100
AcDbBlockTableRecord
  2
BLOCK_2
  0
BLOCK_RECORD
  5
40
330
1
100
AcDbSymbolTableRecord
100
AcDbBlockTableRecord
  2
BLOCK_3
  0
BLOCK_RECORD
  5
51
330
1
100
AcDbSymbolTableRecord
100
AcDbBlockTableRecord
  2
BLOCK_4
  0
BLOCK_RECORD
  5
55
330
1
100
AcDbSymbolTableRecord
100
AcDbBlockTableRecord
  2
BLOCK_5
  0
ENDTAB
  0
ENDSEC
  0
SECTION
  2
BLOCKS
  0
BLOCK
  5
20
330
1F
100
AcDbEntity
  8
0
100
AcDbBlockBegin
  2
*MODEL_SPACE
 70
     0
 71
     0
 10
0.0
 20
0.0
 30
0.0
  3
*MODEL_SPACE
  1

  0
ENDBLK
  5
21
330
1F
100
AcDbEntity
  8
0
100
AcDbBlockEnd
  0
BLOCK
  5
1C
330
1B
100
AcDbEntity
 67
     1
  8
0
100
AcDbBlockBegin
  2
*PAPER_SPACE
 70
     0
 71
     0
 10
0.0
 20
0.0
 30
0.0
  3
*PAPER_SPACE
  1

  0
ENDBLK
  5
1D
330
1B
100
AcDbEntity
 67
     1
  8
0
100
AcDbBlockEnd
  0
BLOCK
  5
3E
330
3C
100
AcDbEntity
  8
0
100
AcDbBlockBegin
  2
BLOCK_2
 70
     0
 71
     0
 10
0.0
 20
0.0
 30
0.0
  3
BLOCK_2
  1

  0
INSERT
  5
41
330
3C
100
AcDbEntity
  8
LAYER_1
100
AcDbBlockReference
  2
BLOCK_3
 10
0.0
 20
0.0
 30
0.0
  0
INSERT
  5
52
330
3C
100
AcDbEntity
  8
LAYER_1
100
AcDbBlockReference
  2
BLOCK_4
 10
0.0
 20
0.0
 30
0.0
  0
ENDBLK
  5
3F
330
3C
100
AcDbEntity
  8
0
100
AcDbBlockEnd
  0
BLOCK
  5
42
330
40
100
AcDbEntity
  8
0
100
AcDbBlockBegin
  2
BLOCK_3
 70
     0
 71
     0
 10
0.0
 20
0.0
 30
0.0
  3
BLOCK_3
  1

  0
POLYLINE
  5
44
330
40
100
AcDbEntity
  8
LAYER_1
 62
   250
100
AcDb2dPolyline
 66
     1
 10
0.0
 20
0.0
 30
0.0
  0
VERTEX
  5
45
330
44
100
AcDbEntity
  8
LAYER_1
 62
   250
100
AcDbVertex
100
AcDb2dVertex
 10
81.86735430896024
 20
23.77667100100028
 30
0.0
  0
VERTEX
  5
46
330
44
100
AcDbEntity
  8
LAYER_1
 62
   250
100
AcDbVertex
100
AcDb2dVertex
 10
57.28521998350856
 20
23.77667100100028
 30
0.0
  0
VERTEX
  5
47
330
44
100
AcDbEntity
  8
LAYER_1
 62
   250
100
AcDbVertex
100
AcDb2dVertex
 10
57.28521998350856
 20
73.77603079752822
 30
0.0
  0
VERTEX
  5
48
330
44
100
AcDbEntity
  8
LAYER_1
 62
   250
100
AcDbVertex
100
AcDb2dVertex
 10
81.86735430896024
 20
73.77603079752822
 30
0.0
  0
VERTEX
  5
49
330
44
100
AcDbEntity
  8
LAYER_1
 62
   250
100
AcDbVertex
100
AcDb2dVertex
 10
81.86735430896024
 20
23.77667100100028
 30
0.0
  0
SEQEND
  5
4A
330
44
100
AcDbEntity
  8
LAYER_1
  0
SPLINE
  5
4B
330
40
100
AcDbEntity
  8
LAYER_1
 62
   250
100
AcDbSpline
210
0.0
220
0.0
230
1.0
 70
    11
 71
     3
 72
    17
 73
    13
 74
     0
 42
0.0000000001
 43
0.0000000001
 40
0.0
 40
0.0
 40
0.0
 40
0.0
 40
1.0
 40
1.0
 40
1.0
 40
2.0
 40
2.0
 40
2.0
 40
3.0
 40
3.0
 40
3.0
 40
4.0
 40
4.0
 40
4.0
 40
4.0
 10
61.28497584188362
 20
65.40548229701669
 30
0.0
 10
62.11317679653768
 20
65.40548229701669
 30
0.0
 10
62.7849704161614
 20
64.73403318694149
 30
0.0
 10
62.7849704161614
 20
63.90548772273891
 30
0.0
 10
62.7849704161614
 20
63.07728676808485
 30
0.0
 10
62.11317679653768
 20
62.40549314846113
 30
0.0
 10
61.28497584188362
 20
62.40549314846113
 30
0.0
 10
60.45677488722956
 20
62.40549314846113
 30
0.0
 10
59.78498126760584
 20
63.07728676808485
 30
0.0
 10
59.78498126760584
 20
63.90548772273891
 30
0.0
 10
59.78498126760584
 20
64.73403318694149
 30
0.0
 10
60.45677488722956
 20
65.40548229701669
 30
0.0
 10
61.28497584188362
 20
65.40548229701669
 30
0.0
  0
SPLINE
  5
4C
330
40
100
AcDbEntity
  8
LAYER_1
 62
   250
100
AcDbSpline
210
0.0
220
0.0
230
1.0
 70
    11
 71
     3
 72
    17
 73
    13
 74
     0
 42
0.0000000001
 43
0.0000000001
 40
0.0
 40
0.0
 40
0.0
 40
0.0
 40
1.0
 40
1.0
 40
1.0
 40
2.0
 40
2.0
 40
2.0
 40
3.0
 40
3.0
 40
3.0
 40
4.0
 40
4.0
 40
4.0
 40
4.0
 10
61.28497584188362
 20
50.80844047123887
 30
0.0
 10
62.11317679653768
 20
50.80844047123887
 30
0.0
 10
62.7849704161614
 20
50.13681910638941
 30
0.0
 10
62.7849704161614
 20
49.30827364218683
 30
0.0
 10
62.7849704161614
 20
48.48007268753276
 30
0.0
 10
62.11317679653768
 20
47.80827906790904
 30
0.0
 10
61.28497584188362
 20
47.80827906790904
 30
0.0
 10
60.45677488722956
 20
47.80827906790904
 30
0.0
 10
59.78498126760584
 20
48.48007268753276
 30
0.0
 10
59.78498126760584
 20
49.30827364218683
 30
0.0
 10
59.78498126760584
 20
50.13681910638941
 30
0.0
 10
60.45677488722956
 20
50.80844047123887
 30
0.0
 10
61.28497584188362
 20
50.80844047123887
 30
0.0
  0
SPLINE
  5
4D
330
40
100
AcDbEntity
  8
LAYER_1
 62
   250
100
AcDbSpline
210
0.0
220
0.0
230
1.0
 70
    11
 71
     3
 72
    17
 73
    13
 74
     0
 42
0.0000000001
 43
0.0000000001
 40
0.0
 40
0.0
 40
0.0
 40
0.0
 40
1.0
 40
1.0
 40
1.0
 40
2.0
 40
2.0
 40
2.0
 40
3.0
 40
3.0
 40
3.0
 40
4.0
 40
4.0
 40
4.0
 40
4.0
 10
61.28497584188362
 20
35.41627060746538
 30
0.0
 10
62.11317679653768
 20
35.41627060746538
 30
0.0
 10
62.7849704161614
 20
34.74516600693871
 30
0.0
 10
62.7849704161614
 20
33.9162760331876
 30
0.0
 10
62.7849704161614
 20
33.08807507853354
 30
0.0
 10
62.11317679653768
 20
32.41628145890982
 30
0.0
 10
61.28497584188362
 20
32.41628145890982
 30
0.0
 10
60.45677488722956
 20
32.41628145890982
 30
0.0
 10
59.78498126760584
 20
33.08807507853354
 30
0.0
 10
59.78498126760584
 20
33.9162760331876
 30
0.0
 10
59.78498126760584
 20
34.74516600693871
 30
0.0
 10
60.45677488722956
 20
35.41627060746538
 30
0.0
 10
61.28497584188362
 20
35.41627060746538
 30
0.0
  0
SPLINE
  5
4E
330
40
100
AcDbEntity
  8
LAYER_1
 62
   250
100
AcDbSpline
210
0.0
220
0.0
230
1.0
 70
    11
 71
     3
 72
    17
 73
    13
 74
     0
 42
0.0000000001
 43
0.0000000001
 40
0.0
 40
0.0
 40
0.0
 40
0.0
 40
1.0
 40
1.0
 40
1.0
 40
2.0
 40
2.0
 40
2.0
 40
3.0
 40
3.0
 40
3.0
 40
4.0
 40
4.0
 40
4.0
 40
4.0
 10
77.86690943148814
 20
65.40548229701669
 30
0.0
 10
78.6951103861422
 20
65.40548229701669
 30
0.0
 10
79.36690400576592
 20
64.73403318694149
 30
0.0
 10
79.36690400576592
 20
63.90548772273891
 30
0.0
 10
79.36690400576592
 20
63.07728676808485
 30
0.0
 10
78.6951103861422
 20
62.40549314846113
 30
0.0
 10
77.86690943148814
 20
62.40549314846113
 30
0.0
 10
77.03870847683407
 20
62.40549314846113
 30
0.0
 10
76.36691485721036
 20
63.07728676808485
 30
0.0
 10
76.36691485721036
 20
63.90548772273891
 30
0.0
 10
76.36691485721036
 20
64.73403318694149
 30
0.0
 10
77.03870847683407
 20
65.40548229701669
 30
0.0
 10
77.86690943148814
 20
65.40548229701669
 30
0.0
  0
SPLINE
  5
4F
330
40
100
AcDbEntity
  8
LAYER_1
 62
   250
100
AcDbSpline
210
0.0
220
0.0
230
1.0
 70
    11
 71
     3
 72
    17
 73
    13
 74
     0
 42
0.0000000001
 43
0.0000000001
 40
0.0
 40
0.0
 40
0.0
 40
0.0
 40
1.0
 40
1.0
 40
1.0
 40
2.0
 40
2.0
 40
2.0
 40
3.0
 40
3.0
 40
3.0
 40
4.0
 40
4.0
 40
4.0
 40
4.0
 10
77.86690943148814
 20
50.80844047123887
 30
0.0
 10
78.6951103861422
 20
50.80844047123887
 30
0.0
 10
79.36690400576592
 20
50.13681910638941
 30
0.0
 10
79.36690400576592
 20
49.30827364218683
 30
0.0
 10
79.36690400576592
 20
48.48007268753276
 30
0.0
 10
78.6951103861422
 20
47.80827906790904
 30
0.0
 10
77.86690943148814
 20
47.80827906790904
 30
0.0
 10
77.03870847683407
 20
47.80827906790904
 30
0.0
 10
76.36691485721036
 20
48.48007268753276
 30
0.0
 10
76.36691485721036
 20
49.30827364218683
 30
0.0
 10
76.36691485721036
 20
50.13681910638941
 30
0.0
 10
77.03870847683407
 20
50.80844047123887
 30
0.0
 10
77.86690943148814
 20
50.80844047123887
 30
0.0
  0
SPLINE
  5
50
330
40
100
AcDbEntity
  8
LAYER_1
 62
   250
100
AcDbSpline
210
0.0
220
0.0
230
1.0
 70
    11
 71
     3
 72
    17
 73
    13
 74
     0
 42
0.0000000001
 43
0.0000000001
 40
0.0
 40
0.0
 40
0.0
 40
0.0
 40
1.0
 40
1.0
 40
1.0
 40
2.0
 40
2.0
 40
2.0
 40
3.0
 40
3.0
 40
3.0
 40
4.0
 40
4.0
 40
4.0
 40
4.0
 10
77.86690943148814
 20
35.41627060746538
 30
0.0
 10
78.6951103861422
 20
35.41627060746538
 30
0.0
 10
79.36690400576592
 20
34.74516600693871
 30
0.0
 10
79.36690400576592
 20
33.9162760331876
 30
0.0
 10
79.36690400576592
 20
33.08807507853354
 30
0.0
 10
78.6951103861422
 20
32.41628145890982
 30
0.0
 10
77.86690943148814
 20
32.41628145890982
 30
0.0
 10
77.03870847683407
 20
32.41628145890982
 30
0.0
 10
76.36691485721036
 20
33.08807507853354
 30
0.0
 10
76.36691485721036
 20
33.9162760331876
 30
0.0
 10
76.36691485721036
 20
34.74516600693871
 30
0.0
 10
77.03870847683407
 20
35.41627060746538
 30
0.0
 10
77.86690943148814
 20
35.41627060746538
 30
0.0
  0
ENDBLK
  5
43
330
40
100
AcDbEntity
  8
0
100
AcDbBlockEnd
  0
BLOCK
  5
53
330
51
100
AcDbEntity
  8
0
100
AcDbBlockBegin
  2
BLOCK_4
 70
     0
 71
     0
 10
0.0
 20
0.0
 30
0.0
  3
BLOCK_4
  1

  0
INSERT
  5
56
330
51
100
AcDbEntity
  8
LAYER_1
100
AcDbBlockReference
  2
BLOCK_5
 10
0.0
 20
0.0
 30
0.0
  0
POLYLINE
  5
91
330
51
100
AcDbEntity
  8
LAYER_1
 62
   250
100
AcDb2dPolyline
 66
     1
 10
0.0
 20
0.0
 30
0.0
  0
VERTEX
  5
92
330
91
100
AcDbEntity
  8
LAYER_1
 62
   250
100
AcDbVertex
100
AcDb2dVertex
 10
62.7849704161614
 20
66.77594128104907
 30
0.0
  0
VERTEX
  5
93
330
91
100
AcDbEntity
  8
LAYER_1
 62
   250
100
AcDbVertex
100
AcDb2dVertex
 10
76.36691485721036
 20
66.77594128104907
 30
0.0
  0
SEQEND
  5
94
330
91
100
AcDbEntity
  8
LAYER_1
  0
POLYLINE
  5
95
330
51
100
AcDbEntity
  8
LAYER_1
 62
   250
100
AcDb2dPolyline
 66
     1
 10
0.0
 20
0.0
 30
0.0
  0
VERTEX
  5
96
330
95
100
AcDbEntity
  8
LAYER_1
 62
   250
100
AcDbVertex
100
AcDb2dVertex
 10
62.7849704161614
 20
69.77593042960463
 30
0.0
  0
VERTEX
  5
97
330
95
100
AcDbEntity
  8
LAYER_1
 62
   250
100
AcDbVertex
100
AcDb2dVertex
 10
76.36691485721036
 20
69.77593042960463
 30
0.0
  0
SEQEND
  5
98
330
95
100
AcDbEntity
  8
LAYER_1
  0
POLYLINE
  5
99
330
51
100
AcDbEntity
  8
LAYER_1
 62
   250
100
AcDb2dPolyline
 66
     1
 10
0.0
 20
0.0
 30
0.0
  0
VERTEX
  5
9A
330
99
100
AcDbEntity
  8
LAYER_1
 62
   250
100
AcDbVertex
100
AcDb2dVertex
 10
62.7849704161614
 20
72.77591957816018
 30
0.0
  0
VERTEX
  5
9B
330
99
100
AcDbEntity
  8
LAYER_1
 62
   250
100
AcDbVertex
100
AcDb2dVertex
 10
76.36691485721036
 20
72.77591957816018
 30
0.0
  0
SEQEND
  5
9C
330
99
100
AcDbEntity
  8
LAYER_1
  0
ENDBLK
  5
54
330
51
100
AcDbEntity
  8
0
100
AcDbBlockEnd
  0
BLOCK
  5
57
330
55
100
AcDbEntity
  8
0
100
AcDbBlockBegin
  2
BLOCK_5
 70
     0
 71
     0
 10
0.0
 20
0.0
 30
0.0
  3
BLOCK_5
  1

  0
POLYLINE
  5
59
330
55
100
AcDbEntity
  8
LAYER_1
 62
   250
100
AcDb2dPolyline
 66
     1
 10
0.0
 20
0.0
 30
0.0
  0
VERTEX
  5
5A
330
59
100
AcDbEntity
  8
LAYER_1
 62
   250
100
AcDbVertex
100
AcDb2dVertex
 10
62.7849704161614
 20
24.77643771081978
 30
0.0
  0
VERTEX
  5
5B
330
59
100
AcDbEntity
  8
LAYER_1
 62
   250
100
AcDbVertex
100
AcDb2dVertex
 10
76.36691485721036
 20
24.77643771081978
 30
0.0
  0
SEQEND
  5
5C
330
59
100
AcDbEntity
  8
LAYER_1
  0
POLYLINE
  5
5D
330
55
100
AcDbEntity
  8
LAYER_1
 62
   250
100
AcDb2dPolyline
 66
     1
 10
0.0
 20
0.0
 30
0.0
  0
VERTEX
  5
5E
330
5D
100
AcDbEntity
  8
LAYER_1
 62
   250
100
AcDbVertex
100
AcDb2dVertex
 10
62.7849704161614
 20
27.77642685937534
 30
0.0
  0
VERTEX
  5
5F
330
5D
100
AcDbEntity
  8
LAYER_1
 62
   250
100
AcDbVertex
100
AcDb2dVertex
 10
76.36691485721036
 20
27.77642685937534
 30
0.0
  0
SEQEND
  5
60
330
5D
100
AcDbEntity
  8
LAYER_1
  0
POLYLINE
  5
61
330
55
100
AcDbEntity
  8
LAYER_1
 62
   250
100
AcDb2dPolyline
 66
     1
 10
0.0
 20
0.0
 30
0.0
  0
VERTEX
  5
62
330
61
100
AcDbEntity
  8
LAYER_1
 62
   250
100
AcDbVertex
100
AcDb2dVertex
 10
62.7849704161614
 20
30.7764160079309
 30
0.0
  0
VERTEX
  5
63
330
61
100
AcDbEntity
  8
LAYER_1
 62
   250
100
AcDbVertex
100
AcDb2dVertex
 10
76.36691485721036
 20
30.7764160079309
 30
0.0
  0
SEQEND
  5
64
330
61
100
AcDbEntity
  8
LAYER_1
  0
POLYLINE
  5
65
330
55
100
AcDbEntity
  8
LAYER_1
 62
   250
100
AcDb2dPolyline
 66
     1
 10
0.0
 20
0.0
 30
0.0
  0
VERTEX
  5
66
330
65
100
AcDbEntity
  8
LAYER_1
 62
   250
100
AcDbVertex
100
AcDb2dVertex
 10
62.7849704161614
 20
33.77640515648645
 30
0.0
  0
VERTEX
  5
67
330
65
100
AcDbEntity
  8
LAYER_1
 62
   250
100
AcDbVertex
100
AcDb2dVertex
 10
76.36691485721036
 20
33.77640515648645
 30
0.0
  0
SEQEND
  5
68
330
65
100
AcDbEntity
  8
LAYER_1
  0
POLYLINE
  5
69
330
55
100
AcDbEntity
  8
LAYER_1
 62
   250
100
AcDb2dPolyline
 66
     1
 10
0.0
 20
0.0
 30
0.0
  0
VERTEX
  5
6A
330
69
100
AcDbEntity
  8
LAYER_1
 62
   250
100
AcDbVertex
100
AcDb2dVertex
 10
62.7849704161614
 20
36.77639430504201
 30
0.0
  0
VERTEX
  5
6B
330
69
100
AcDbEntity
  8
LAYER_1
 62
   250
100
AcDbVertex
100
AcDb2dVertex
 10
76.36691485721036
 20
36.77639430504201
 30
0.0
  0
SEQEND
  5
6C
330
69
100
AcDbEntity
  8
LAYER_1
  0
POLYLINE
  5
6D
330
55
100
AcDbEntity
  8
LAYER_1
 62
   250
100
AcDb2dPolyline
 66
     1
 10
0.0
 20
0.0
 30
0.0
  0
VERTEX
  5
6E
330
6D
100
AcDbEntity
  8
LAYER_1
 62
   250
100
AcDbVertex
100
AcDb2dVertex
 10
62.7849704161614
 20
39.77638345359757
 30
0.0
  0
VERTEX
  5
6F
330
6D
100
AcDbEntity
  8
LAYER_1
 62
   250
100
AcDbVertex
100
AcDb2dVertex
 10
76.36691485721036
 20
39.77638345359757
 30
0.0
  0
SEQEND
  5
70
330
6D
100
AcDbEntity
  8
LAYER_1
  0
POLYLINE
  5
71
330
55
100
AcDbEntity
  8
LAYER_1
 62
   250
100
AcDb2dPolyline
 66
     1
 10
0.0
 20
0.0
 30
0.0
  0
VERTEX
  5
72
330
71
100
AcDbEntity
  8
LAYER_1
 62
   250
100
AcDbVertex
100
AcDb2dVertex
 10
62.7849704161614
 20
42.77637260215313
 30
0.0
  0
VERTEX
  5
73
330
71
100
AcDbEntity
  8
LAYER_1
 62
   250
100
AcDbVertex
100
AcDb2dVertex
 10
76.36691485721036
 20
42.77637260215313
 30
0.0
  0
SEQEND
  5
74
330
71
100
AcDbEntity
  8
LAYER_1
  0
POLYLINE
  5
75
330
55
100
AcDbEntity
  8
LAYER_1
 62
   250
100
AcDb2dPolyline
 66
     1
 10
0.0
 20
0.0
 30
0.0
  0
VERTEX
  5
76
330
75
100
AcDbEntity
  8
LAYER_1
 62
   250
100
AcDbVertex
100
AcDb2dVertex
 10
62.7849704161614
 20
45.77636175070869
 30
0.0
  0
VERTEX
  5
77
330
75
100
AcDbEntity
  8
LAYER_1
 62
   250
100
AcDbVertex
100
AcDb2dVertex
 10
76.36691485721036
 20
45.77636175070869
 30
0.0
  0
SEQEND
  5
78
330
75
100
AcDbEntity
  8
LAYER_1
  0
POLYLINE
  5
79
330
55
100
AcDbEntity
  8
LAYER_1
 62
   250
100
AcDb2dPolyline
 66
     1
 10
0.0
 20
0.0
 30
0.0
  0
VERTEX
  5
7A
330
79
100
AcDbEntity
  8
LAYER_1
 62
   250
100
AcDbVertex
100
AcDb2dVertex
 10
62.7849704161614
 20
48.77635089926425
 30
0.0
  0
VERTEX
  5
7B
330
79
100
AcDbEntity
  8
LAYER_1
 62
   250
100
AcDbVertex
100
AcDb2dVertex
 10
76.36691485721036
 20
48.77635089926425
 30
0.0
  0
SEQEND
  5
7C
330
79
100
AcDbEntity
  8
LAYER_1
  0
POLYLINE
  5
7D
330
55
100
AcDbEntity
  8
LAYER_1
 62
   250
100
AcDb2dPolyline
 66
     1
 10
0.0
 20
0.0
 30
0.0
  0
VERTEX
  5
7E
330
7D
100
AcDbEntity
  8
LAYER_1
 62
   250
100
AcDbVertex
100
AcDb2dVertex
 10
62.7849704161614
 20
51.77616779304554
 30
0.0
  0
VERTEX
  5
7F
330
7D
100
AcDbEntity
  8
LAYER_1
 62
   250
100
AcDbVertex
100
AcDb2dVertex
 10
76.36691485721036
 20
51.77616779304554
 30
0.0
  0
SEQEND
  5
80
330
7D
100
AcDbEntity
  8
LAYER_1
  0
POLYLINE
  5
81
330
55
100
AcDbEntity
  8
LAYER_1
 62
   250
100
AcDb2dPolyline
 66
     1
 10
0.0
 20
0.0
 30
0.0
  0
VERTEX
  5
82
330
81
100
AcDbEntity
  8
LAYER_1
 62
   250
100
AcDbVertex
100
AcDb2dVertex
 10
62.7849704161614
 20
54.7761569416011
 30
0.0
  0
VERTEX
  5
83
330
81
100
AcDbEntity
  8
LAYER_1
 62
   250
100
AcDbVertex
100
AcDb2dVertex
 10
76.36691485721036
 20
54.7761569416011
 30
0.0
  0
SEQEND
  5
84
330
81
100
AcDbEntity
  8
LAYER_1
  0
POLYLINE
  5
85
330
55
100
AcDbEntity
  8
LAYER_1
 62
   250
100
AcDb2dPolyline
 66
     1
 10
0.0
 20
0.0
 30
0.0
  0
VERTEX
  5
86
330
85
100
AcDbEntity
  8
LAYER_1
 62
   250
100
AcDbVertex
100
AcDb2dVertex
 10
62.7849704161614
 20
57.77597383538239
 30
0.0
  0
VERTEX
  5
87
330
85
100
AcDbEntity
  8
LAYER_1
 62
   250
100
AcDbVertex
100
AcDb2dVertex
 10
76.36691485721036
 20
57.77597383538239
 30
0.0
  0
SEQEND
  5
88
330
85
100
AcDbEntity
  8
LAYER_1
  0
POLYLINE
  5
89
330
55
100
AcDbEntity
  8
LAYER_1
 62
   250
100
AcDb2dPolyline
 66
     1
 10
0.0
 20
0.0
 30
0.0
  0
VERTEX
  5
8A
330
89
100
AcDbEntity
  8
LAYER_1
 62
   250
100
AcDbVertex
100
AcDb2dVertex
 10
62.7849704161614
 20
60.77596298393796
 30
0.0
  0
VERTEX
  5
8B
330
89
100
AcDbEntity
  8
LAYER_1
 62
   250
100
AcDbVertex
100
AcDb2dVertex
 10
76.36691485721036
 20
60.77596298393796
 30
0.0
  0
SEQEND
  5
8C
330
89
100
AcDbEntity
  8
LAYER_1
  0
POLYLINE
  5
8D
330
55
100
AcDbEntity
  8
LAYER_1
 62
   250
100
AcDb2dPolyline
 66
     1
 10
0.0
 20
0.0
 30
0.0
  0
VERTEX
  5
8E
330
8D
100
AcDbEntity
  8
LAYER_1
 62
   250
100
AcDbVertex
100
AcDb2dVertex
 10
62.7849704161614
 20
63.77595213249352
 30
0.0
  0
VERTEX
  5
8F
330
8D
100
AcDbEntity
  8
LAYER_1
 62
   250
100
AcDbVertex
100
AcDb2dVertex
 10
76.36691485721036
 20
63.77595213249352
 30
0.0
  0
SEQEND
  5
90
330
8D
100
AcDbEntity
  8
LAYER_1
  0
ENDBLK
  5
58
330
55
100
AcDbEntity
  8
0
100
AcDbBlockEnd
  0
ENDSEC
  0
SECTION
  2
ENTITIES
  0
INSERT
  5
3D
330
1F
100
AcDbEntity
  8
LAYER_1
100
AcDbBlockReference
  2
BLOCK_2
 10
0.0
 20
0.0
 30
0.0
  0
SPLINE
  5
9D
330
1F
100
AcDbEntity
  8
LAYER_1
 62
   250
100
AcDbSpline
210
0.0
220
0.0
230
1.0
 70
    11
 71
     3
 72
    17
 73
    13
 74
     0
 42
0.0000000001
 43
0.0000000001
 40
0.0
 40
0.0
 40
0.0
 40
0.0
 40
1.0
 40
1.0
 40
1.0
 40
2.0
 40
2.0
 40
2.0
 40
3.0
 40
3.0
 40
3.0
 40
4.0
 40
4.0
 40
4.0
 40
4.0
 10
6.998883733059307
 20
62.28973794015673
 30
0.0
 10
6.998883733059307
 20
61.46136473072841
 30
0.0
 10
6.327434622984114
 20
60.78974336587896
 30
0.0
 10
5.498889158781528
 20
60.78974336587896
 30
0.0
 10
4.670688204127467
 20
60.78974336587896
 30
0.0
 10
3.998894584503749
 20
61.46136473072841
 30
0.0
 10
3.998894584503749
 20
62.28973794015673
 30
0.0
 10
3.998894584503749
 20
63.11811114958506
 30
0.0
 10
4.670688204127467
 20
63.78973251443451
 30
0.0
 10
5.498889158781528
 20
63.78973251443451
 30
0.0
 10
6.327434622984114
 20
63.78973251443451
 30
0.0
 10
6.998883733059307
 20
63.11811114958506
 30
0.0
 10
6.998883733059307
 20
62.28973794015673
 30
0.0
  0
SPLINE
  5
9E
330
1F
100
AcDbEntity
  8
LAYER_1
 62
   250
100
AcDbSpline
210
0.0
220
0.0
230
1.0
 70
    11
 71
     3
 72
    17
 73
    13
 74
     0
 42
0.0000000001
 43
0.0000000001
 40
0.0
 40
0.0
 40
0.0
 40
0.0
 40
1.0
 40
1.0
 40
1.0
 40
2.0
 40
2.0
 40
2.0
 40
3.0
 40
3.0
 40
3.0
 40
4.0
 40
4.0
 40
4.0
 40
4.0
 10
15.99919568827451
 20
62.28973794015673
 30
0.0
 10
15.99919568827451
 20
61.46153698550268
 30
0.0
 10
15.32774657819931
 20
60.78974336587896
 30
0.0
 10
14.49920111399673
 20
60.78974336587896
 30
0.0
 10
13.67100015934267
 20
60.78974336587896
 30
0.0
 10
12.99920653971895
 20
61.46153698550268
 30
0.0
 10
12.99920653971895
 20
62.28973794015673
 30
0.0
 10
12.99920653971895
 20
63.11811114958506
 30
0.0
 10
13.67100015934267
 20
63.78973251443451
 30
0.0
 10
14.49920111399673
 20
63.78973251443451
 30
0.0
 10
15.32774657819931
 20
63.78973251443451
 30
0.0
 10
15.99919568827451
 20
63.11811114958506
 30
0.0
 10
15.99919568827451
 20
62.28973794015673
 30
0.0
  0
SPLINE
  5
9F
330
1F
100
AcDbEntity
  8
LAYER_1
 62
   250
100
AcDbSpline
210
0.0
220
0.0
230
1.0
 70
    11
 71
     3
 72
    17
 73
    13
 74
     0
 42
0.0000000001
 43
0.0000000001
 40
0.0
 40
0.0
 40
0.0
 40
0.0
 40
1.0
 40
1.0
 40
1.0
 40
2.0
 40
2.0
 40
2.0
 40
3.0
 40
3.0
 40
3.0
 40
4.0
 40
4.0
 40
4.0
 40
4.0
 10
36.99877521861489
 20
62.28973794015673
 30
0.0
 10
36.99877521861489
 20
61.46136473072841
 30
0.0
 10
36.3273261085397
 20
60.78974336587896
 30
0.0
 10
35.49878064433711
 20
60.78974336587896
 30
0.0
 10
34.67057968968305
 20
60.78974336587896
 30
0.0
 10
33.99878607005933
 20
61.46136473072841
 30
0.0
 10
33.99878607005933
 20
62.28973794015673
 30
0.0
 10
33.99878607005933
 20
63.11811114958506
 30
0.0
 10
34.67057968968305
 20
63.78973251443451
 30
0.0
 10
35.49878064433711
 20
63.78973251443451
 30
0.0
 10
36.3273261085397
 20
63.78973251443451
 30
0.0
 10
36.99877521861489
 20
63.11811114958506
 30
0.0
 10
36.99877521861489
 20
62.28973794015673
 30
0.0
  0
SPLINE
  5
A0
330
1F
100
AcDbEntity
  8
LAYER_1
 62
   250
100
AcDbSpline
210
0.0
220
0.0
230
1.0
 70
    11
 71
     3
 72
    17
 73
    13
 74
     0
 42
0.0000000001
 43
0.0000000001
 40
0.0
 40
0.0
 40
0.0
 40
0.0
 40
1.0
 40
1.0
 40
1.0
 40
2.0
 40
2.0
 40
2.0
 40
3.0
 40
3.0
 40
3.0
 40
4.0
 40
4.0
 40
4.0
 40
4.0
 10
45.99908717383009
 20
62.28973794015673
 30
0.0
 10
45.99908717383009
 20
61.46153698550268
 30
0.0
 10
45.3276380637549
 20
60.78974336587896
 30
0.0
 10
44.49909259955231
 20
60.78974336587896
 30
0.0
 10
43.67089164489825
 20
60.78974336587896
 30
0.0
 10
42.99909802527453
 20
61.46153698550268
 30
0.0
 10
42.99909802527453
 20
62.28973794015673
 30
0.0
 10
42.99909802527453
 20
63.11811114958506
 30
0.0
 10
43.67089164489825
 20
63.78973251443451
 30
0.0
 10
44.49909259955231
 20
63.78973251443451
 30
0.0
 10
45.3276380637549
 20
63.78973251443451
 30
0.0
 10
45.99908717383009
 20
63.11811114958506
 30
0.0
 10
45.99908717383009
 20
62.28973794015673
 30
0.0
  0
SPLINE
  5
A1
330
1F
100
AcDbEntity
  8
LAYER_1
100
AcDbSpline
210
0.0
220
0.0
230
1.0
 70
    11
 71
     3
 72
    14
 73
    10
 74
     0
 42
0.0000000001
 43
0.0000000001
 40
0.0
 40
0.0
 40
0.0
 40
0.0
 40
1.0
 40
1.0
 40
1.0
 40
2.0
 40
2.0
 40
2.0
 40
3.0
 40
3.0
 40
3.0
 40
3.0
 10
9.487965221152315
 20
30.43397351669706
 30
0.0
 10
9.487965221152315
 20
30.43397351669706
 30
0.0
 10
10.50667995614069
 20
30.43397351669706
 30
0.0
 10
10.50667995614069
 20
30.43397351669706
 30
0.0
 10
10.31168755167555
 20
30.69338920673638
 30
0.0
 10
10.13977728696158
 20
30.97140841239604
 30
0.0
 10
9.997150333872241
 20
31.26665309548195
 30
0.0
 10
9.854867890331422
 20
30.97140841239604
 30
0.0
 10
9.682957625617455
 20
30.69338920673638
 30
0.0
 10
9.487965221152315
 20
30.43397351669706
 30
0.0
  0
SPLINE
  5
A2
330
1F
100
AcDbEntity
  8
LAYER_1
 62
   250
100
AcDbSpline
210
0.0
220
0.0
230
1.0
 70
    11
 71
     3
 72
    17
 73
    13
 74
     0
 42
0.0000000001
 43
0.0000000001
 40
0.0
 40
0.0
 40
0.0
 40
0.0
 40
1.0
 40
1.0
 40
1.0
 40
2.0
 40
2.0
 40
2.0
 40
3.0
 40
3.0
 40
3.0
 40
4.0
 40
4.0
 40
4.0
 40
4.0
 10
6.999228242607832
 20
95.99896373468081
 30
0.0
 10
6.999228242607832
 20
95.17076278002676
 30
0.0
 10
6.327779132532639
 20
94.49896916040304
 30
0.0
 10
5.499233668330053
 20
94.49896916040304
 30
0.0
 10
4.671032713675992
 20
94.49896916040304
 30
0.0
 10
3.999239094052274
 20
95.17076278002676
 30
0.0
 10
3.999239094052274
 20
95.99896373468081
 30
0.0
 10
3.999239094052274
 20
96.82716468933488
 30
0.0
 10
4.671032713675992
 20
97.49895830895859
 30
0.0
 10
5.499233668330053
 20
97.49895830895859
 30
0.0
 10
6.327779132532639
 20
97.49895830895859
 30
0.0
 10
6.999228242607832
 20
96.82716468933488
 30
0.0
 10
6.999228242607832
 20
95.99896373468081
 30
0.0
  0
SPLINE
  5
A3
330
1F
100
AcDbEntity
  8
LAYER_1
 62
   250
100
AcDbSpline
210
0.0
220
0.0
230
1.0
 70
    11
 71
     3
 72
    17
 73
    13
 74
     0
 42
0.0000000001
 43
0.0000000001
 40
0.0
 40
0.0
 40
0.0
 40
0.0
 40
1.0
 40
1.0
 40
1.0
 40
2.0
 40
2.0
 40
2.0
 40
3.0
 40
3.0
 40
3.0
 40
4.0
 40
4.0
 40
4.0
 40
4.0
 10
8.499222816885611
 20
95.99896373468081
 30
0.0
 10
8.499222816885611
 20
94.3425618253727
 30
0.0
 10
7.156324596735224
 20
92.99897458612526
 30
0.0
 10
5.499233668330053
 20
92.99897458612526
 30
0.0
 10
3.842831759021931
 20
92.99897458612526
 30
0.0
 10
2.499244519774495
 20
94.3425618253727
 30
0.0
 10
2.499244519774495
 20
95.99896373468081
 30
0.0
 10
2.499244519774495
 20
97.65536564398894
 30
0.0
 10
3.842831759021931
 20
98.99895288323637
 30
0.0
 10
5.499233668330053
 20
98.99895288323637
 30
0.0
 10
7.156324596735224
 20
98.99895288323637
 30
0.0
 10
8.499222816885611
 20
97.65536564398894
 30
0.0
 10
8.499222816885611
 20
95.99896373468081
 30
0.0
  0
SPLINE
  5
A4
330
1F
100
AcDbEntity
  8
LAYER_1
 62
   250
100
AcDbSpline
210
0.0
220
0.0
230
1.0
 70
    11
 71
     3
 72
    17
 73
    13
 74
     0
 42
0.0000000001
 43
0.0000000001
 40
0.0
 40
0.0
 40
0.0
 40
0.0
 40
1.0
 40
1.0
 40
1.0
 40
2.0
 40
2.0
 40
2.0
 40
3.0
 40
3.0
 40
3.0
 40
4.0
 40
4.0
 40
4.0
 40
4.0
 10
15.99954019782303
 20
95.99896373468081
 30
0.0
 10
15.99954019782303
 20
95.17076278002676
 30
0.0
 10
15.32809108774784
 20
94.49896916040304
 30
0.0
 10
14.49954562354525
 20
94.49896916040304
 30
0.0
 10
13.67134466889119
 20
94.49896916040304
 30
0.0
 10
12.99955104926747
 20
95.17076278002676
 30
0.0
 10
12.99955104926747
 20
95.99896373468081
 30
0.0
 10
12.99955104926747
 20
96.82716468933488
 30
0.0
 10
13.67134466889119
 20
97.49895830895859
 30
0.0
 10
14.49954562354525
 20
97.49895830895859
 30
0.0
 10
15.32809108774784
 20
97.49895830895859
 30
0.0
 10
15.99954019782303
 20
96.82716468933488
 30
0.0
 10
15.99954019782303
 20
95.99896373468081
 30
0.0
  0
SPLINE
  5
A5
330
1F
100
AcDbEntity
  8
LAYER_1
 62
   250
100
AcDbSpline
210
0.0
220
0.0
230
1.0
 70
    11
 71
     3
 72
    17
 73
    13
 74
     0
 42
0.0000000001
 43
0.0000000001
 40
0.0
 40
0.0
 40
0.0
 40
0.0
 40
1.0
 40
1.0
 40
1.0
 40
2.0
 40
2.0
 40
2.0
 40
3.0
 40
3.0
 40
3.0
 40
4.0
 40
4.0
 40
4.0
 40
4.0
 10
17.49953477210081
 20
95.99896373468081
 30
0.0
 10
17.49953477210081
 20
94.3425618253727
 30
0.0
 10
16.15663655195042
 20
92.99897458612526
 30
0.0
 10
14.49954562354525
 20
92.99897458612526
 30
0.0
 10
12.84314371423713
 20
92.99897458612526
 30
0.0
 10
11.49955647498969
 20
94.3425618253727
 30
0.0
 10
11.49955647498969
 20
95.99896373468081
 30
0.0
 10
11.49955647498969
 20
97.65536564398894
 30
0.0
 10
12.84314371423713
 20
98.99895288323637
 30
0.0
 10
14.49954562354525
 20
98.99895288323637
 30
0.0
 10
16.15663655195042
 20
98.99895288323637
 30
0.0
 10
17.49953477210081
 20
97.65536564398894
 30
0.0
 10
17.49953477210081
 20
95.99896373468081
 30
0.0
  0
SPLINE
  5
A6
330
1F
100
AcDbEntity
  8
LAYER_1
 62
   250
100
AcDbSpline
210
0.0
220
0.0
230
1.0
 70
    11
 71
     3
 72
    17
 73
    13
 74
     0
 42
0.0000000001
 43
0.0000000001
 40
0.0
 40
0.0
 40
0.0
 40
0.0
 40
1.0
 40
1.0
 40
1.0
 40
2.0
 40
2.0
 40
2.0
 40
3.0
 40
3.0
 40
3.0
 40
4.0
 40
4.0
 40
4.0
 40
4.0
 10
36.99911972816341
 20
95.99896373468081
 30
0.0
 10
36.99911972816341
 20
95.17076278002676
 30
0.0
 10
36.32767061808822
 20
94.49896916040304
 30
0.0
 10
35.49912515388564
 20
94.49896916040304
 30
0.0
 10
34.67092419923158
 20
94.49896916040304
 30
0.0
 10
33.99913057960786
 20
95.17076278002676
 30
0.0
 10
33.99913057960786
 20
95.99896373468081
 30
0.0
 10
33.99913057960786
 20
96.82716468933488
 30
0.0
 10
34.67092419923158
 20
97.49895830895859
 30
0.0
 10
35.49912515388564
 20
97.49895830895859
 30
0.0
 10
36.32767061808822
 20
97.49895830895859
 30
0.0
 10
36.99911972816341
 20
96.82716468933488
 30
0.0
 10
36.99911972816341
 20
95.99896373468081
 30
0.0
  0
SPLINE
  5
A7
330
1F
100
AcDbEntity
  8
LAYER_1
 62
   250
100
AcDbSpline
210
0.0
220
0.0
230
1.0
 70
    11
 71
     3
 72
    17
 73
    13
 74
     0
 42
0.0000000001
 43
0.0000000001
 40
0.0
 40
0.0
 40
0.0
 40
0.0
 40
1.0
 40
1.0
 40
1.0
 40
2.0
 40
2.0
 40
2.0
 40
3.0
 40
3.0
 40
3.0
 40
4.0
 40
4.0
 40
4.0
 40
4.0
 10
38.49911430244119
 20
95.99896373468081
 30
0.0
 10
38.49911430244119
 20
94.34273408014695
 30
0.0
 10
37.15621608229081
 20
92.99914684089953
 30
0.0
 10
35.49912515388564
 20
92.99914684089953
 30
0.0
 10
33.84272324457751
 20
92.99914684089953
 30
0.0
 10
32.49913600533008
 20
94.34273408014695
 30
0.0
 10
32.49913600533008
 20
95.99896373468081
 30
0.0
 10
32.49913600533008
 20
97.65519338921467
 30
0.0
 10
33.84272324457751
 20
98.99878062846211
 30
0.0
 10
35.49912515388564
 20
98.99878062846211
 30
0.0
 10
37.15621608229081
 20
98.99878062846211
 30
0.0
 10
38.49911430244119
 20
97.65519338921467
 30
0.0
 10
38.49911430244119
 20
95.99896373468081
 30
0.0
  0
SPLINE
  5
A8
330
1F
100
AcDbEntity
  8
LAYER_1
 62
   250
100
AcDbSpline
210
0.0
220
0.0
230
1.0
 70
    11
 71
     3
 72
    17
 73
    13
 74
     0
 42
0.0000000001
 43
0.0000000001
 40
0.0
 40
0.0
 40
0.0
 40
0.0
 40
1.0
 40
1.0
 40
1.0
 40
2.0
 40
2.0
 40
2.0
 40
3.0
 40
3.0
 40
3.0
 40
4.0
 40
4.0
 40
4.0
 40
4.0
 10
45.99943168337862
 20
95.99896373468081
 30
0.0
 10
45.99943168337862
 20
95.17076278002676
 30
0.0
 10
45.32798257330342
 20
94.49896916040304
 30
0.0
 10
44.49943710910084
 20
94.49896916040304
 30
0.0
 10
43.67123615444677
 20
94.49896916040304
 30
0.0
 10
42.99944253482306
 20
95.17076278002676
 30
0.0
 10
42.99944253482306
 20
95.99896373468081
 30
0.0
 10
42.99944253482306
 20
96.82716468933488
 30
0.0
 10
43.67123615444677
 20
97.49895830895859
 30
0.0
 10
44.49943710910084
 20
97.49895830895859
 30
0.0
 10
45.32798257330342
 20
97.49895830895859
 30
0.0
 10
45.99943168337862
 20
96.82716468933488
 30
0.0
 10
45.99943168337862
 20
95.99896373468081
 30
0.0
  0
SPLINE
  5
A9
330
1F
100
AcDbEntity
  8
LAYER_1
 62
   250
100
AcDbSpline
210
0.0
220
0.0
230
1.0
 70
    11
 71
     3
 72
    17
 73
    13
 74
     0
 42
0.0000000001
 43
0.0000000001
 40
0.0
 40
0.0
 40
0.0
 40
0.0
 40
1.0
 40
1.0
 40
1.0
 40
2.0
 40
2.0
 40
2.0
 40
3.0
 40
3.0
 40
3.0
 40
4.0
 40
4.0
 40
4.0
 40
4.0
 10
47.4994262576564
 20
95.99896373468081
 30
0.0
 10
47.4994262576564
 20
94.34273408014695
 30
0.0
 10
46.15652803750601
 20
92.99914684089953
 30
0.0
 10
44.49943710910084
 20
92.99914684089953
 30
0.0
 10
42.84303519979272
 20
92.99914684089953
 30
0.0
 10
41.49944796054528
 20
94.34273408014695
 30
0.0
 10
41.49944796054528
 20
95.99896373468081
 30
0.0
 10
41.49944796054528
 20
97.65519338921467
 30
0.0
 10
42.84303519979272
 20
98.99878062846211
 30
0.0
 10
44.49943710910084
 20
98.99878062846211
 30
0.0
 10
46.15652803750601
 20
98.99878062846211
 30
0.0
 10
47.4994262576564
 20
97.65519338921467
 30
0.0
 10
47.4994262576564
 20
95.99896373468081
 30
0.0
  0
SPLINE
  5
AA
330
1F
100
AcDbEntity
  8
LAYER_1
 62
   250
100
AcDbSpline
210
0.0
220
0.0
230
1.0
 70
    11
 71
     3
 72
    17
 73
    13
 74
     0
 42
0.0000000001
 43
0.0000000001
 40
0.0
 40
0.0
 40
0.0
 40
0.0
 40
1.0
 40
1.0
 40
1.0
 40
2.0
 40
2.0
 40
2.0
 40
3.0
 40
3.0
 40
3.0
 40
4.0
 40
4.0
 40
4.0
 40
4.0
 10
6.999228242607832
 20
31.93500161962042
 30
0.0
 10
6.999228242607832
 20
31.10680066496636
 30
0.0
 10
6.327779132532639
 20
30.43500704534264
 30
0.0
 10
5.499233668330053
 20
30.43500704534264
 30
0.0
 10
4.671032713675992
 20
30.43500704534264
 30
0.0
 10
3.999239094052274
 20
31.10680066496636
 30
0.0
 10
3.999239094052274
 20
31.93500161962042
 30
0.0
 10
3.999239094052274
 20
32.76320257427448
 30
0.0
 10
4.671032713675992
 20
33.43499619389819
 30
0.0
 10
5.499233668330053
 20
33.43499619389819
 30
0.0
 10
6.327779132532639
 20
33.43499619389819
 30
0.0
 10
6.999228242607832
 20
32.76320257427448
 30
0.0
 10
6.999228242607832
 20
31.93500161962042
 30
0.0
  0
SPLINE
  5
AB
330
1F
100
AcDbEntity
  8
LAYER_1
 62
   250
100
AcDbSpline
210
0.0
220
0.0
230
1.0
 70
    11
 71
     3
 72
    17
 73
    13
 74
     0
 42
0.0000000001
 43
0.0000000001
 40
0.0
 40
0.0
 40
0.0
 40
0.0
 40
1.0
 40
1.0
 40
1.0
 40
2.0
 40
2.0
 40
2.0
 40
3.0
 40
3.0
 40
3.0
 40
4.0
 40
4.0
 40
4.0
 40
4.0
 10
8.499222816885611
 20
31.93500161962042
 30
0.0
 10
8.499222816885611
 20
30.2785997103123
 30
0.0
 10
7.156324596735224
 20
28.93501247106486
 30
0.0
 10
5.499233668330053
 20
28.93501247106486
 30
0.0
 10
3.842831759021931
 20
28.93501247106486
 30
0.0
 10
2.499244519774495
 20
30.2785997103123
 30
0.0
 10
2.499244519774495
 20
31.93500161962042
 30
0.0
 10
2.499244519774495
 20
33.59140352892854
 30
0.0
 10
3.842831759021931
 20
34.93499076817598
 30
0.0
 10
5.499233668330053
 20
34.93499076817598
 30
0.0
 10
7.156324596735224
 20
34.93499076817598
 30
0.0
 10
8.499222816885611
 20
33.59140352892854
 30
0.0
 10
8.499222816885611
 20
31.93500161962042
 30
0.0
  0
SPLINE
  5
AC
330
1F
100
AcDbEntity
  8
LAYER_1
 62
   250
100
AcDbSpline
210
0.0
220
0.0
230
1.0
 70
    11
 71
     3
 72
    17
 73
    13
 74
     0
 42
0.0000000001
 43
0.0000000001
 40
0.0
 40
0.0
 40
0.0
 40
0.0
 40
1.0
 40
1.0
 40
1.0
 40
2.0
 40
2.0
 40
2.0
 40
3.0
 40
3.0
 40
3.0
 40
4.0
 40
4.0
 40
4.0
 40
4.0
 10
15.99954019782303
 20
31.93500161962042
 30
0.0
 10
15.99954019782303
 20
31.10680066496636
 30
0.0
 10
15.32809108774784
 20
30.43500704534264
 30
0.0
 10
14.49954562354525
 20
30.43500704534264
 30
0.0
 10
13.67134466889119
 20
30.43500704534264
 30
0.0
 10
12.99955104926747
 20
31.10680066496636
 30
0.0
 10
12.99955104926747
 20
31.93500161962042
 30
0.0
 10
12.99955104926747
 20
32.76320257427448
 30
0.0
 10
13.67134466889119
 20
33.43499619389819
 30
0.0
 10
14.49954562354525
 20
33.43499619389819
 30
0.0
 10
15.32809108774784
 20
33.43499619389819
 30
0.0
 10
15.99954019782303
 20
32.76320257427448
 30
0.0
 10
15.99954019782303
 20
31.93500161962042
 30
0.0
  0
SPLINE
  5
AD
330
1F
100
AcDbEntity
  8
LAYER_1
 62
   250
100
AcDbSpline
210
0.0
220
0.0
230
1.0
 70
    11
 71
     3
 72
    17
 73
    13
 74
     0
 42
0.0000000001
 43
0.0000000001
 40
0.0
 40
0.0
 40
0.0
 40
0.0
 40
1.0
 40
1.0
 40
1.0
 40
2.0
 40
2.0
 40
2.0
 40
3.0
 40
3.0
 40
3.0
 40
4.0
 40
4.0
 40
4.0
 40
4.0
 10
17.49953477210081
 20
31.93500161962042
 30
0.0
 10
17.49953477210081
 20
30.2785997103123
 30
0.0
 10
16.15663655195042
 20
28.93501247106486
 30
0.0
 10
14.49954562354525
 20
28.93501247106486
 30
0.0
 10
12.84314371423713
 20
28.93501247106486
 30
0.0
 10
11.49955647498969
 20
30.2785997103123
 30
0.0
 10
11.49955647498969
 20
31.93500161962042
 30
0.0
 10
11.49955647498969
 20
33.59140352892854
 30
0.0
 10
12.84314371423713
 20
34.93499076817598
 30
0.0
 10
14.49954562354525
 20
34.93499076817598
 30
0.0
 10
16.15663655195042
 20
34.93499076817598
 30
0.0
 10
17.49953477210081
 20
33.59140352892854
 30
0.0
 10
17.49953477210081
 20
31.93500161962042
 30
0.0
  0
SPLINE
  5
AE
330
1F
100
AcDbEntity
  8
LAYER_1
 62
   250
100
AcDbSpline
210
0.0
220
0.0
230
1.0
 70
    11
 71
     3
 72
    17
 73
    13
 74
     0
 42
0.0000000001
 43
0.0000000001
 40
0.0
 40
0.0
 40
0.0
 40
0.0
 40
1.0
 40
1.0
 40
1.0
 40
2.0
 40
2.0
 40
2.0
 40
3.0
 40
3.0
 40
3.0
 40
4.0
 40
4.0
 40
4.0
 40
4.0
 10
36.99911972816341
 20
31.93500161962042
 30
0.0
 10
36.99911972816341
 20
31.10680066496636
 30
0.0
 10
36.32767061808822
 20
30.43500704534264
 30
0.0
 10
35.49912515388564
 20
30.43500704534264
 30
0.0
 10
34.67092419923158
 20
30.43500704534264
 30
0.0
 10
33.99913057960786
 20
31.10680066496636
 30
0.0
 10
33.99913057960786
 20
31.93500161962042
 30
0.0
 10
33.99913057960786
 20
32.76320257427448
 30
0.0
 10
34.67092419923158
 20
33.43499619389819
 30
0.0
 10
35.49912515388564
 20
33.43499619389819
 30
0.0
 10
36.32767061808822
 20
33.43499619389819
 30
0.0
 10
36.99911972816341
 20
32.76320257427448
 30
0.0
 10
36.99911972816341
 20
31.93500161962042
 30
0.0
  0
SPLINE
  5
AF
330
1F
100
AcDbEntity
  8
LAYER_1
 62
   250
100
AcDbSpline
210
0.0
220
0.0
230
1.0
 70
    11
 71
     3
 72
    17
 73
    13
 74
     0
 42
0.0000000001
 43
0.0000000001
 40
0.0
 40
0.0
 40
0.0
 40
0.0
 40
1.0
 40
1.0
 40
1.0
 40
2.0
 40
2.0
 40
2.0
 40
3.0
 40
3.0
 40
3.0
 40
4.0
 40
4.0
 40
4.0
 40
4.0
 10
38.49911430244119
 20
31.93500161962042
 30
0.0
 10
38.49911430244119
 20
30.2785997103123
 30
0.0
 10
37.15621608229081
 20
28.93501247106486
 30
0.0
 10
35.49912515388564
 20
28.93501247106486
 30
0.0
 10
33.84272324457751
 20
28.93501247106486
 30
0.0
 10
32.49913600533008
 20
30.2785997103123
 30
0.0
 10
32.49913600533008
 20
31.93500161962042
 30
0.0
 10
32.49913600533008
 20
33.59140352892854
 30
0.0
 10
33.84272324457751
 20
34.93499076817598
 30
0.0
 10
35.49912515388564
 20
34.93499076817598
 30
0.0
 10
37.15621608229081
 20
34.93499076817598
 30
0.0
 10
38.49911430244119
 20
33.59140352892854
 30
0.0
 10
38.49911430244119
 20
31.93500161962042
 30
0.0
  0
SPLINE
  5
B0
330
1F
100
AcDbEntity
  8
LAYER_1
 62
   250
100
AcDbSpline
210
0.0
220
0.0
230
1.0
 70
    11
 71
     3
 72
    17
 73
    13
 74
     0
 42
0.0000000001
 43
0.0000000001
 40
0.0
 40
0.0
 40
0.0
 40
0.0
 40
1.0
 40
1.0
 40
1.0
 40
2.0
 40
2.0
 40
2.0
 40
3.0
 40
3.0
 40
3.0
 40
4.0
 40
4.0
 40
4.0
 40
4.0
 10
45.99943168337862
 20
31.93500161962042
 30
0.0
 10
45.99943168337862
 20
31.10680066496636
 30
0.0
 10
45.32798257330342
 20
30.43500704534264
 30
0.0
 10
44.49943710910084
 20
30.43500704534264
 30
0.0
 10
43.67123615444677
 20
30.43500704534264
 30
0.0
 10
42.99944253482306
 20
31.10680066496636
 30
0.0
 10
42.99944253482306
 20
31.93500161962042
 30
0.0
 10
42.99944253482306
 20
32.76320257427448
 30
0.0
 10
43.67123615444677
 20
33.43499619389819
 30
0.0
 10
44.49943710910084
 20
33.43499619389819
 30
0.0
 10
45.32798257330342
 20
33.43499619389819
 30
0.0
 10
45.99943168337862
 20
32.76320257427448
 30
0.0
 10
45.99943168337862
 20
31.93500161962042
 30
0.0
  0
SPLINE
  5
B1
330
1F
100
AcDbEntity
  8
LAYER_1
 62
   250
100
AcDbSpline
210
0.0
220
0.0
230
1.0
 70
    11
 71
     3
 72
    17
 73
    13
 74
     0
 42
0.0000000001
 43
0.0000000001
 40
0.0
 40
0.0
 40
0.0
 40
0.0
 40
1.0
 40
1.0
 40
1.0
 40
2.0
 40
2.0
 40
2.0
 40
3.0
 40
3.0
 40
3.0
 40
4.0
 40
4.0
 40
4.0
 40
4.0
 10
47.4994262576564
 20
31.93500161962042
 30
0.0
 10
47.4994262576564
 20
30.2785997103123
 30
0.0
 10
46.15652803750601
 20
28.93501247106486
 30
0.0
 10
44.49943710910084
 20
28.93501247106486
 30
0.0
 10
42.84303519979272
 20
28.93501247106486
 30
0.0
 10
41.49944796054528
 20
30.2785997103123
 30
0.0
 10
41.49944796054528
 20
31.93500161962042
 30
0.0
 10
41.49944796054528
 20
33.59140352892854
 30
0.0
 10
42.84303519979272
 20
34.93499076817598
 30
0.0
 10
44.49943710910084
 20
34.93499076817598
 30
0.0
 10
46.15652803750601
 20
34.93499076817598
 30
0.0
 10
47.4994262576564
 20
33.59140352892854
 30
0.0
 10
47.4994262576564
 20
31.93500161962042
 30
0.0
  0
SPLINE
  5
B2
330
1F
100
AcDbEntity
  8
LAYER_1
 62
   250
100
AcDbSpline
210
0.0
220
0.0
230
1.0
 70
    11
 71
     3
 72
    17
 73
    13
 74
     0
 42
0.0000000001
 43
0.0000000001
 40
0.0
 40
0.0
 40
0.0
 40
0.0
 40
1.0
 40
1.0
 40
1.0
 40
2.0
 40
2.0
 40
2.0
 40
3.0
 40
3.0
 40
3.0
 40
4.0
 40
4.0
 40
4.0
 40
4.0
 10
6.999228242607832
 20
2.999989148555558
 30
0.0
 10
6.999228242607832
 20
2.171788193901497
 30
0.0
 10
6.327779132532639
 20
1.499994574277779
 30
0.0
 10
5.499233668330053
 20
1.499994574277779
 30
0.0
 10
4.671032713675992
 20
1.499994574277779
 30
0.0
 10
3.999239094052274
 20
2.171788193901497
 30
0.0
 10
3.999239094052274
 20
2.999989148555558
 30
0.0
 10
3.999239094052274
 20
3.828190103209619
 30
0.0
 10
4.671032713675992
 20
4.499983722833337
 30
0.0
 10
5.499233668330053
 20
4.499983722833337
 30
0.0
 10
6.327779132532639
 20
4.499983722833337
 30
0.0
 10
6.999228242607832
 20
3.828190103209619
 30
0.0
 10
6.999228242607832
 20
2.999989148555558
 30
0.0
  0
SPLINE
  5
B3
330
1F
100
AcDbEntity
  8
LAYER_1
 62
   250
100
AcDbSpline
210
0.0
220
0.0
230
1.0
 70
    11
 71
     3
 72
    17
 73
    13
 74
     0
 42
0.0000000001
 43
0.0000000001
 40
0.0
 40
0.0
 40
0.0
 40
0.0
 40
1.0
 40
1.0
 40
1.0
 40
2.0
 40
2.0
 40
2.0
 40
3.0
 40
3.0
 40
3.0
 40
4.0
 40
4.0
 40
4.0
 40
4.0
 10
8.499222816885611
 20
2.999989148555558
 30
0.0
 10
8.499222816885611
 20
1.343587239247437
 30
0.0
 10
7.156324596735224
 20
0.0
 30
0.0
 10
5.499233668330053
 20
0.0
 30
0.0
 10
3.842831759021931
 20
0.0
 30
0.0
 10
2.499244519774495
 20
1.343587239247437
 30
0.0
 10
2.499244519774495
 20
2.999989148555558
 30
0.0
 10
2.499244519774495
 20
4.65639105786368
 30
0.0
 10
3.842831759021931
 20
5.999978297111117
 30
0.0
 10
5.499233668330053
 20
5.999978297111117
 30
0.0
 10
7.156324596735224
 20
5.999978297111117
 30
0.0
 10
8.499222816885611
 20
4.65639105786368
 30
0.0
 10
8.499222816885611
 20
2.999989148555558
 30
0.0
  0
SPLINE
  5
B4
330
1F
100
AcDbEntity
  8
LAYER_1
 62
   250
100
AcDbSpline
210
0.0
220
0.0
230
1.0
 70
    11
 71
     3
 72
    17
 73
    13
 74
     0
 42
0.0000000001
 43
0.0000000001
 40
0.0
 40
0.0
 40
0.0
 40
0.0
 40
1.0
 40
1.0
 40
1.0
 40
2.0
 40
2.0
 40
2.0
 40
3.0
 40
3.0
 40
3.0
 40
4.0
 40
4.0
 40
4.0
 40
4.0
 10
15.99954019782303
 20
2.999989148555558
 30
0.0
 10
15.99954019782303
 20
2.171788193901497
 30
0.0
 10
15.32809108774784
 20
1.499994574277779
 30
0.0
 10
14.49954562354525
 20
1.499994574277779
 30
0.0
 10
13.67134466889119
 20
1.499994574277779
 30
0.0
 10
12.99955104926747
 20
2.171788193901497
 30
0.0
 10
12.99955104926747
 20
2.999989148555558
 30
0.0
 10
12.99955104926747
 20
3.828190103209619
 30
0.0
 10
13.67134466889119
 20
4.499983722833337
 30
0.0
 10
14.49954562354525
 20
4.499983722833337
 30
0.0
 10
15.32809108774784
 20
4.499983722833337
 30
0.0
 10
15.99954019782303
 20
3.828190103209619
 30
0.0
 10
15.99954019782303
 20
2.999989148555558
 30
0.0
  0
SPLINE
  5
B5
330
1F
100
AcDbEntity
  8
LAYER_1
 62
   250
100
AcDbSpline
210
0.0
220
0.0
230
1.0
 70
    11
 71
     3
 72
    17
 73
    13
 74
     0
 42
0.0000000001
 43
0.0000000001
 40
0.0
 40
0.0
 40
0.0
 40
0.0
 40
1.0
 40
1.0
 40
1.0
 40
2.0
 40
2.0
 40
2.0
 40
3.0
 40
3.0
 40
3.0
 40
4.0
 40
4.0
 40
4.0
 40
4.0
 10
17.49953477210081
 20
2.999989148555558
 30
0.0
 10
17.49953477210081
 20
1.343587239247437
 30
0.0
 10
16.15663655195042
 20
0.0
 30
0.0
 10
14.49954562354525
 20
0.0
 30
0.0
 10
12.84314371423713
 20
0.0
 30
0.0
 10
11.49955647498969
 20
1.343587239247437
 30
0.0
 10
11.49955647498969
 20
2.999989148555558
 30
0.0
 10
11.49955647498969
 20
4.65639105786368
 30
0.0
 10
12.84314371423713
 20
5.999978297111117
 30
0.0
 10
14.49954562354525
 20
5.999978297111117
 30
0.0
 10
16.15663655195042
 20
5.999978297111117
 30
0.0
 10
17.49953477210081
 20
4.65639105786368
 30
0.0
 10
17.49953477210081
 20
2.999989148555558
 30
0.0
  0
SPLINE
  5
B6
330
1F
100
AcDbEntity
  8
LAYER_1
 62
   250
100
AcDbSpline
210
0.0
220
0.0
230
1.0
 70
    11
 71
     3
 72
    17
 73
    13
 74
     0
 42
0.0000000001
 43
0.0000000001
 40
0.0
 40
0.0
 40
0.0
 40
0.0
 40
1.0
 40
1.0
 40
1.0
 40
2.0
 40
2.0
 40
2.0
 40
3.0
 40
3.0
 40
3.0
 40
4.0
 40
4.0
 40
4.0
 40
4.0
 10
36.99911972816341
 20
2.999989148555558
 30
0.0
 10
36.99911972816341
 20
2.171788193901497
 30
0.0
 10
36.32767061808822
 20
1.499994574277779
 30
0.0
 10
35.49912515388564
 20
1.499994574277779
 30
0.0
 10
34.67092419923158
 20
1.499994574277779
 30
0.0
 10
33.99913057960786
 20
2.171788193901497
 30
0.0
 10
33.99913057960786
 20
2.999989148555558
 30
0.0
 10
33.99913057960786
 20
3.828190103209619
 30
0.0
 10
34.67092419923158
 20
4.499983722833337
 30
0.0
 10
35.49912515388564
 20
4.499983722833337
 30
0.0
 10
36.32767061808822
 20
4.499983722833337
 30
0.0
 10
36.99911972816341
 20
3.828190103209619
 30
0.0
 10
36.99911972816341
 20
2.999989148555558
 30
0.0
  0
SPLINE
  5
B7
330
1F
100
AcDbEntity
  8
LAYER_1
 62
   250
100
AcDbSpline
210
0.0
220
0.0
230
1.0
 70
    11
 71
     3
 72
    17
 73
    13
 74
     0
 42
0.0000000001
 43
0.0000000001
 40
0.0
 40
0.0
 40
0.0
 40
0.0
 40
1.0
 40
1.0
 40
1.0
 40
2.0
 40
2.0
 40
2.0
 40
3.0
 40
3.0
 40
3.0
 40
4.0
 40
4.0
 40
4.0
 40
4.0
 10
38.49911430244119
 20
2.999989148555558
 30
0.0
 10
38.49911430244119
 20
1.343587239247437
 30
0.0
 10
37.15621608229081
 20
0.0
 30
0.0
 10
35.49912515388564
 20
0.0
 30
0.0
 10
33.84272324457751
 20
0.0
 30
0.0
 10
32.49913600533008
 20
1.343587239247437
 30
0.0
 10
32.49913600533008
 20
2.999989148555558
 30
0.0
 10
32.49913600533008
 20
4.65639105786368
 30
0.0
 10
33.84272324457751
 20
5.999978297111117
 30
0.0
 10
35.49912515388564
 20
5.999978297111117
 30
0.0
 10
37.15621608229081
 20
5.999978297111117
 30
0.0
 10
38.49911430244119
 20
4.65639105786368
 30
0.0
 10
38.49911430244119
 20
2.999989148555558
 30
0.0
  0
SPLINE
  5
B8
330
1F
100
AcDbEntity
  8
LAYER_1
 62
   250
100
AcDbSpline
210
0.0
220
0.0
230
1.0
 70
    11
 71
     3
 72
    17
 73
    13
 74
     0
 42
0.0000000001
 43
0.0000000001
 40
0.0
 40
0.0
 40
0.0
 40
0.0
 40
1.0
 40
1.0
 40
1.0
 40
2.0
 40
2.0
 40
2.0
 40
3.0
 40
3.0
 40
3.0
 40
4.0
 40
4.0
 40
4.0
 40
4.0
 10
45.99943168337862
 20
2.999989148555558
 30
0.0
 10
45.99943168337862
 20
2.171788193901497
 30
0.0
 10
45.32798257330342
 20
1.499994574277779
 30
0.0
 10
44.49943710910084
 20
1.499994574277779
 30
0.0
 10
43.67123615444677
 20
1.499994574277779
 30
0.0
 10
42.99944253482306
 20
2.171788193901497
 30
0.0
 10
42.99944253482306
 20
2.999989148555558
 30
0.0
 10
42.99944253482306
 20
3.828190103209619
 30
0.0
 10
43.67123615444677
 20
4.499983722833337
 30
0.0
 10
44.49943710910084
 20
4.499983722833337
 30
0.0
 10
45.32798257330342
 20
4.499983722833337
 30
0.0
 10
45.99943168337862
 20
3.828190103209619
 30
0.0
 10
45.99943168337862
 20
2.999989148555558
 30
0.0
  0
SPLINE
  5
B9
330
1F
100
AcDbEntity
  8
LAYER_1
 62
   250
100
AcDbSpline
210
0.0
220
0.0
230
1.0
 70
    11
 71
     3
 72
    17
 73
    13
 74
     0
 42
0.0000000001
 43
0.0000000001
 40
0.0
 40
0.0
 40
0.0
 40
0.0
 40
1.0
 40
1.0
 40
1.0
 40
2.0
 40
2.0
 40
2.0
 40
3.0
 40
3.0
 40
3.0
 40
4.0
 40
4.0
 40
4.0
 40
4.0
 10
47.4994262576564
 20
2.999989148555558
 30
0.0
 10
47.4994262576564
 20
1.343587239247437
 30
0.0
 10
46.15652803750601
 20
0.0
 30
0.0
 10
44.49943710910084
 20
0.0
 30
0.0
 10
42.84303519979272
 20
0.0
 30
0.0
 10
41.49944796054528
 20
1.343587239247437
 30
0.0
 10
41.49944796054528
 20
2.999989148555558
 30
0.0
 10
41.49944796054528
 20
4.65639105786368
 30
0.0
 10
42.84303519979272
 20
5.999978297111117
 30
0.0
 10
44.49943710910084
 20
5.999978297111117
 30
0.0
 10
46.15652803750601
 20
5.999978297111117
 30
0.0
 10
47.4994262576564
 20
4.65639105786368
 30
0.0
 10
47.4994262576564
 20
2.999989148555558
 30
0.0
  0
POLYLINE
  5
BA
330
1F
100
AcDbEntity
  8
LAYER_1
 62
   250
100
AcDb2dPolyline
 66
     1
 10
0.0
 20
0.0
 30
0.0
  0
VERTEX
  5
BB
330
BA
100
AcDbEntity
  8
LAYER_1
 62
   250
100
AcDbVertex
100
AcDb2dVertex
 10
49.99815401310811
 20
0.0
 30
0.0
  0
VERTEX
  5
BC
330
BA
100
AcDbEntity
  8
LAYER_1
 62
   250
100
AcDbVertex
100
AcDb2dVertex
 10
0.0001722547742625
 20
0.0
 30
0.0
  0
VERTEX
  5
BD
330
BA
100
AcDbEntity
  8
LAYER_1
 62
   250
100
AcDbVertex
100
AcDb2dVertex
 10
0.0001722547742625
 20
98.99826386413933
 30
0.0
  0
VERTEX
  5
BE
330
BA
100
AcDbEntity
  8
LAYER_1
 62
   250
100
AcDbVertex
100
AcDb2dVertex
 10
49.99815401310811
 20
98.99826386413933
 30
0.0
  0
VERTEX
  5
BF
330
BA
100
AcDbEntity
  8
LAYER_1
 62
   250
100
AcDbVertex
100
AcDb2dVertex
 10
49.99815401310811
 20
0.0
 30
0.0
  0
SEQEND
  5
C0
330
BA
100
AcDbEntity
  8
LAYER_1
  0
ENDSEC
  0
SECTION
  2
OBJECTS
  0
DICTIONARY
  5
C
330
0
100
AcDbDictionary
  3
ACAD_GROUP
350
D
  3
ACAD_LAYOUT
350
1A
  3
ACAD_MLINESTYLE
350
17
  3
ACAD_PLOTSETTINGS
350
19
  3
ACAD_TABLESTYLE
350
C1
  3
ACAD_VISUALSTYLE
350
2A
1001
ACAD
1000
TREAT_AS_HARD
1070
     0
  0
DICTIONARY
  5
D
102
{ACAD_REACTORS
330
C
102
}
330
C
100
AcDbDictionary
1001
ACAD
1000
TREAT_AS_HARD
1070
     0
  0
DICTIONARY
  5
1A
102
{ACAD_REACTORS
330
C
102
}
330
C
100
AcDbDictionary
1001
ACAD
1000
TREAT_AS_HARD
1070
     0
  0
DICTIONARY
  5
17
102
{ACAD_REACTORS
330
C
102
}
330
C
100
AcDbDictionary
  3
STANDARD
350
18
1001
ACAD
1000
TREAT_AS_HARD
1070
     0
  0
DICTIONARY
  5
19
102
{ACAD_REACTORS
330
C
102
}
330
C
100
AcDbDictionary
1001
ACAD
1000
TREAT_AS_HARD
1070
     0
  0
DICTIONARY
  5
C1
102
{ACAD_REACTORS
330
C
102
}
330
C
100
AcDbDictionary
1001
ACAD
1000
TREAT_AS_HARD
1070
     0
  0
DICTIONARY
  5
2A
102
{ACAD_REACTORS
330
C
102
}
330
C
100
AcDbDictionary
  3
2DWIREFRAME
350
2F
  3
3D_HIDDEN
350
31
  3
3DWIREFRAME
350
30
  3
BASIC
350
32
  3
BRIGHTEN
350
36
  3
COLORCHANGE
350
3A
  3
CONCEPTUAL
350
34
  3
DIM
350
35
  3
FACEPATTERN
350
39
  3
FLAT
350
2B
  3
FLATWITHEDGES
350
2C
  3
GOURAUD
350
2D
  3
GOURAUDWITHEDGES
350
2E
  3
LINEPATTERN
350
38
  3
REALISTIC
350
33
  3
THICKEN
350
37
1001
ACAD
1000
TREAT_AS_HARD
1070
     0
  0
MLINESTYLE
  5
18
102
{ACAD_REACTORS
330
17
102
}
330
17
100
AcDbMlineStyle
  2
Standard
 70
     0
  3

 62
   256
 51
90.0
 52
90.0
 71
     2
 49
0.5
 62
   256
  6
BYLAYER
 49
-0.5
 62
   256
  6
BYLAYER
  0
VISUALSTYLE
  5
2F
102
{ACAD_REACTORS
330
2A
102
}
330
2A
100
AcDbVisualStyle
  2
2dWireframe
 70
     4
 71
     0
 72
     2
 73
     0
 90
        0
 40
-0.6
 41
-30.0
 62
     5
 63
     7
 74
     1
 91
        4
 64
     7
 65
   257
 75
     1
175
     1
 42
1.0
 92
        0
 66
   257
 43
1.0
 76
     1
 77
     6
 78
     2
 67
     7
 79
     5
170
     0
171
     0
290
     0
174
     0
 93
        1
 44
0.0
173
     0
291
     0
 45
0.0
1001
ACAD
1000
AcDbSavedByObjectVersion
1070
     0
  0
VISUALSTYLE
  5
31
102
{ACAD_REACTORS
330
2A
102
}
330
2A
100
AcDbVisualStyle
  2
3D Hidden
 70
     6
 71
     1
 72
     2
 73
     2
 90
        0
 40
-0.6
 41
-30.0
 62
     5
 63
     7
 74
     2
 91
        2
 64
     7
 65
   257
 75
     2
175
     1
 42
40.0
 92
        0
 66
   257
 43
1.0
 76
     1
 77
     6
 78
     2
 67
     7
 79
     3
170
     0
171
     0
290
     0
174
     0
 93
        1
 44
0.0
173
     0
291
     0
 45
0.0
1001
ACAD
1000
AcDbSavedByObjectVersion
1070
     0
  0
VISUALSTYLE
  5
30
102
{ACAD_REACTORS
330
2A
102
}
330
2A
100
AcDbVisualStyle
  2
3dWireframe
 70
     5
 71
     0
 72
     2
 73
     0
 90
        0
 40
-0.6
 41
-30.0
 62
     5
 63
     7
 74
     1
 91
        4
 64
     7
 65
   257
 75
     1
175
     1
 42
1.0
 92
        0
 66
   257
 43
1.0
 76
     1
 77
     6
 78
     2
 67
     7
 79
     5
170
     0
171
     0
290
     0
174
     0
 93
        1
 44
0.0
173
     0
291
     0
 45
0.0
1001
ACAD
1000
AcDbSavedByObjectVersion
1070
     0
  0
VISUALSTYLE
  5
32
102
{ACAD_REACTORS
330
2A
102
}
330
2A
100
AcDbVisualStyle
  2
Basic
 70
     7
 71
     1
 72
     0
 73
     1
 90
        0
 40
-0.6
 41
-30.0
 62
     5
 63
     7
 74
     0
 91
        4
 64
     7
 65
   257
 75
     1
175
     1
 42
1.0
 92
        8
 66
     7
 43
1.0
 76
     1
 77
     6
 78
     2
 67
     7
 79
     5
170
     0
171
     0
290
     0
174
     0
 93
        1
 44
0.0
173
     0
291
     1
 45
0.0
1001
ACAD
1000
AcDbSavedByObjectVersion
1070
     0
  0
VISUALSTYLE
  5
36
102
{ACAD_REACTORS
330
2A
102
}
330
2A
100
AcDbVisualStyle
  2
Brighten
 70
    12
 71
     2
 72
     2
 73
     0
 90
        0
 40
-0.6
 41
-30.0
 62
     5
 63
     7
 74
     1
 91
        4
 64
     7
 65
   257
 75
     1
175
     1
 42
1.0
 92
        8
 66
     7
 43
1.0
 76
     1
 77
     6
 78
     2
 67
     7
 79
     5
170
     0
171
     0
290
     0
174
     0
 93
        1
 44
50.0
173
     0
291
     1
 45
0.0
1001
ACAD
1000
AcDbSavedByObjectVersion
1070
     0
  0
VISUALSTYLE
  5
3A
102
{ACAD_REACTORS
330
2A
102
}
330
2A
100
AcDbVisualStyle
  2
ColorChange
 70
    16
 71
     2
 72
     2
 73
     3
 90
        0
 40
-0.6
 41
-30.0
 62
     5
 63
     8
 74
     1
 91
        4
 64
     7
 65
   257
 75
     1
175
     1
 42
1.0
 92
        8
 66
     8
 43
1.0
 76
     1
 77
     6
 78
     2
 67
     7
 79
     5
170
     0
171
     0
290
     0
174
     0
 93
        1
 44
0.0
173
     0
291
     1
 45
0.0
1001
ACAD
1000
AcDbSavedByObjectVersion
1070
     0
  0
VISUALSTYLE
  5
34
102
{ACAD_REACTORS
330
2A
102
}
330
2A
100
AcDbVisualStyle
  2
Conceptual
 70
     9
 71
     3
 72
     2
 73
     0
 90
        0
 40
-0.6
 41
-30.0
 62
     5
 63
     7
 74
     2
 91
        2
 64
     7
 65
   257
 75
     1
175
     1
 42
40.0
 92
        8
 66
     7
 43
1.0
 76
     1
 77
     6
 78
     2
 67
     7
 79
     3
170
     0
171
     0
290
     0
174
     0
 93
        1
 44
0.0
173
     0
291
     0
 45
0.0
1001
ACAD
1000
AcDbSavedByObjectVersion
1070
     0
  0
VISUALSTYLE
  5
35
102
{ACAD_REACTORS
330
2A
102
}
330
2A
100
AcDbVisualStyle
  2
Dim
 70
    11
 71
     2
 72
     2
 73
     0
 90
        0
 40
-0.6
 41
-30.0
 62
     5
 63
     7
 74
     1
 91
        4
 64
     7
 65
   257
 75
     1
175
     1
 42
1.0
 92
        8
 66
     7
 43
1.0
 76
     1
 77
     6
 78
     2
 67
     7
 79
     5
170
     0
171
     0
290
     0
174
     0
 93
        1
 44
-50.0
173
     0
291
     1
 45
0.0
1001
ACAD
1000
AcDbSavedByObjectVersion
1070
     0
  0
VISUALSTYLE
  5
39
102
{ACAD_REACTORS
330
2A
102
}
330
2A
100
AcDbVisualStyle
  2
Facepattern
 70
    15
 71
     2
 72
     2
 73
     0
 90
        0
 40
-0.6
 41
-30.0
 62
     5
 63
     7
 74
     1
 91
        4
 64
     7
 65
   257
 75
     1
175
     1
 42
1.0
 92
        8
 66
     7
 43
1.0
 76
     1
 77
     6
 78
     2
 67
     7
 79
     5
170
     0
171
     0
290
     0
174
     0
 93
        1
 44
0.0
173
     0
291
     1
 45
0.0
1001
ACAD
1000
AcDbSavedByObjectVersion
1070
     0
  0
VISUALSTYLE
  5
2B
102
{ACAD_REACTORS
330
2A
102
}
330
2A
100
AcDbVisualStyle
  2
Flat
 70
     0
 71
     2
 72
     1
 73
     1
 90
        2
 40
-0.6
 41
30.0
 62
     5
 63
     7
 74
     0
 91
        4
 64
     7
 65
   257
 75
     1
175
     1
 42
1.0
 92
        8
 66
     7
 43
1.0
 76
     1
 77
     6
 78
     2
 67
     7
 79
     5
170
     0
171
     0
290
     0
174
     0
 93
       13
 44
0.0
173
     0
291
     1
 45
0.0
1001
ACAD
1000
AcDbSavedByObjectVersion
1070
     0
  0
VISUALSTYLE
  5
2C
102
{ACAD_REACTORS
330
2A
102
}
330
2A
100
AcDbVisualStyle
  2
FlatWithEdges
 70
     1
 71
     2
 72
     1
 73
     1
 90
        2
 40
-0.6
 41
30.0
 62
     5
 63
     7
 74
     1
 91
        4
 64
     7
 65
   257
 75
     1
175
     1
 42
1.0
 92
        0
 66
   257
 43
1.0
 76
     1
 77
     6
 78
     2
 67
     7
 79
     5
170
     0
171
     0
290
     0
174
     0
 93
       13
 44
0.0
173
     0
291
     1
 45
0.0
1001
ACAD
1000
AcDbSavedByObjectVersion
1070
     0
  0
VISUALSTYLE
  5
2D
102
{ACAD_REACTORS
330
2A
102
}
330
2A
100
AcDbVisualStyle
  2
Gouraud
 70
     2
 71
     2
 72
     2
 73
     1
 90
        2
 40
-0.6
 41
30.0
 62
     5
 63
     7
 74
     0
 91
        4
 64
     7
 65
   257
 75
     1
175
     1
 42
1.0
 92
        0
 66
     7
 43
1.0
 76
     1
 77
     6
 78
     2
 67
     7
 79
     5
170
     0
171
     0
290
     0
174
     0
 93
       13
 44
0.0
173
     0
291
     1
 45
0.0
1001
ACAD
1000
AcDbSavedByObjectVersion
1070
     0
  0
VISUALSTYLE
  5
2E
102
{ACAD_REACTORS
330
2A
102
}
330
2A
100
AcDbVisualStyle
  2
GouraudWithEdges
 70
     3
 71
     2
 72
     2
 73
     1
 90
        2
 40
-0.6
 41
30.0
 62
     5
 63
     7
 74
     1
 91
        4
 64
     7
 65
   257
 75
     1
175
     1
 42
1.0
 92
        0
 66
   257
 43
1.0
 76
     1
 77
     6
 78
     2
 67
     7
 79
     5
170
     0
171
     0
290
     0
174
     0
 93
       13
 44
0.0
173
     0
291
     1
 45
0.0
1001
ACAD
1000
AcDbSavedByObjectVersion
1070
     0
  0
VISUALSTYLE
  5
38
102
{ACAD_REACTORS
330
2A
102
}
330
2A
100
AcDbVisualStyle
  2
Linepattern
 70
    14
 71
     2
 72
     2
 73
     0
 90
        0
 40
-0.6
 41
-30.0
 62
     5
 63
     7
 74
     1
 91
        4
 64
     7
 65
   257
 75
     7
175
     7
 42
1.0
 92
        8
 66
     7
 43
1.0
 76
     1
 77
     6
 78
     2
 67
     7
 79
     5
170
     0
171
     0
290
     0
174
     0
 93
        1
 44
0.0
173
     0
291
     1
 45
0.0
1001
ACAD
1000
AcDbSavedByObjectVersion
1070
     0
  0
VISUALSTYLE
  5
33
102
{ACAD_REACTORS
330
2A
102
}
330
2A
100
AcDbVisualStyle
  2
Realistic
 70
     8
 71
     2
 72
     2
 73
     0
 90
        0
 40
-0.6
 41
-30.0
 62
     5
 63
     7
 74
     1
 91
        0
 64
     7
 65
   257
 75
     1
175
     1
 42
1.0
 92
        8
 66
     8
 43
1.0
 76
     1
 77
     6
 78
     2
 67
     7
 79
     5
170
     0
171
     0
290
     0
174
     0
 93
       13
 44
0.0
173
     0
291
     0
 45
0.0
1001
ACAD
1000
AcDbSavedByObjectVersion
1070
     0
  0
VISUALSTYLE
  5
37
102
{ACAD_REACTORS
330
2A
102
}
330
2A
100
AcDbVisualStyle
  2
Thicken
 70
    13
 71
     2
 72
     2
 73
     0
 90
        0
 40
-0.6
 41
-30.0
 62
     5
 63
     7
 74
     1
 91
        4
 64
     7
 65
   257
 75
     1
175
     1
 42
1.0
 92
       12
 66
     7
 43
1.0
 76
     1
 77
     6
 78
     2
 67
     7
 79
     5
170
     0
171
     0
290
     0
174
     0
 93
        1
 44
0.0
173
     0
291
     1
 45
0.0
1001
ACAD
1000
AcDbSavedByObjectVersion
1070
     0
  0
ENDSEC
  0
EOF
