  0
SECTION
  2
HEADER
  9
$ACADVER
  1
AC1012
  9
$DWGCODEPAGE
  3
ansi_1252
  9
$INSBASE
 10
0.0
 20
0.0
 30
0.0
  9
$EXTMIN
 10
1.000000000000000E+20
 20
1.000000000000000E+20
 30
1.000000000000000E+20
  9
$EXTMAX
 10
-1.000000000000000E+20
 20
-1.000000000000000E+20
 30
-1.000000000000000E+20
  9
$LIMMIN
 10
0.0
 20
0.0
  9
$LIMMAX
 10
12.0
 20
9.0
  9
$ORTHOMODE
 70
     0
  9
$REGENMODE
 70
     1
  9
$FILLMODE
 70
     1
  9
$QTEXTMODE
 70
     0
  9
$MIRRTEXT
 70
     1
  9
$DRAGMODE
 70
     2
  9
$LTSCALE
 40
1.0
  9
$OSMODE
 70
    37
  9
$ATTMODE
 70
     1
  9
$TEXTSIZE
 40
0.2
  9
$TRACEWID
 40
0.05
  9
$TEXTSTYLE
  7
STANDARD
  9
$CLAYER
  8
0
  9
$CELTYPE
  6
BYLAYER
  9
$CECOLOR
 62
   256
  9
$CELTSCALE
 40
1.0
  9
$DELOBJ
 70
     1
  9
$DISPSILH
 70
     0
  9
$DIMSCALE
 40
1.0
  9
$DIMASZ
 40
0.18
  9
$DIMEXO
 40
0.0625
  9
$DIMDLI
 40
0.38
  9
$DIMRND
 40
0.0
  9
$DIMDLE
 40
0.0
  9
$DIMEXE
 40
0.18
  9
$DIMTP
 40
0.0
  9
$DIMTM
 40
0.0
  9
$DIMTXT
 40
0.18
  9
$DIMCEN
 40
0.09
  9
$DIMTSZ
 40
0.0
  9
$DIMTOL
 70
     0
  9
$DIMLIM
 70
     0
  9
$DIMTIH
 70
     1
  9
$DIMTOH
 70
     1
  9
$DIMSE1
 70
     0
  9
$DIMSE2
 70
     0
  9
$DIMTAD
 70
     0
  9
$DIMZIN
 70
     0
  9
$DIMBLK
  1

  9
$DIMASO
 70
     1
  9
$DIMSHO
 70
     1
  9
$DIMPOST
  1

  9
$DIMAPOST
  1

  9
$DIMALT
 70
     0
  9
$DIMALTD
 70
     2
  9
$DIMALTF
 40
25.4
  9
$DIMLFAC
 40
1.0
  9
$DIMTOFL
 70
     0
  9
$DIMTVP
 40
0.0
  9
$DIMTIX
 70
     0
  9
$DIMSOXD
 70
     0
  9
$DIMSAH
 70
     0
  9
$DIMBLK1
  1

  9
$DIMBLK2
  1

  9
$DIMSTYLE
  2
STANDARD
  9
$DIMCLRD
 70
     0
  9
$DIMCLRE
 70
     0
  9
$DIMCLRT
 70
     0
  9
$DIMTFAC
 40
1.0
  9
$DIMGAP
 40
0.09
  9
$DIMJUST
 70
     0
  9
$DIMSD1
 70
     0
  9
$DIMSD2
 70
     0
  9
$DIMTOLJ
 70
     1
  9
$DIMTZIN
 70
     0
  9
$DIMALTZ
 70
     0
  9
$DIMALTTZ
 70
     0
  9
$DIMFIT
 70
     3
  9
$DIMUPT
 70
     0
  9
$DIMUNIT
 70
     2
  9
$DIMDEC
 70
     4
  9
$DIMTDEC
 70
     4
  9
$DIMALTU
 70
     2
  9
$DIMALTTD
 70
     2
  9
$DIMTXSTY
  7
STANDARD
  9
$DIMAUNIT
 70
     0
  9
$LUNITS
 70
     2
  9
$LUPREC
 70
     4
  9
$SKETCHINC
 40
0.1
  9
$FILLETRAD
 40
0.5
  9
$AUNITS
 70
     0
  9
$AUPREC
 70
     0
  9
$MENU
  1
.
  9
$ELEVATION
 40
0.0
  9
$PELEVATION
 40
0.0
  9
$THICKNESS
 40
0.0
  9
$LIMCHECK
 70
     0
  9
$CHAMFERA
 40
0.5
  9
$CHAMFERB
 40
0.5
  9
$CHAMFERC
 40
1.0
  9
$CHAMFERD
 40
0.0
  9
$SKPOLY
 70
     0
  9
$TDCREATE
 40
2456562.576152361
  9
$TDUPDATE
 40
2456562.576152373
  9
$TDINDWG
 40
0.0000000116
  9
$TDUSRTIMER
 40
0.0000000116
  9
$USRTIMER
 70
     1
  9
$ANGBASE
 50
0.0
  9
$ANGDIR
 70
     0
  9
$PDMODE
 70
     0
  9
$PDSIZE
 40
0.0
  9
$PLINEWID
 40
0.0
  9
$COORDS
 70
     1
  9
$SPLFRAME
 70
     0
  9
$SPLINETYPE
 70
     6
  9
$SPLINESEGS
 70
     8
  9
$ATTDIA
 70
     0
  9
$ATTREQ
 70
     1
  9
$HANDLING
 70
     1
  9
$HANDSEED
  5
83
  9
$SURFTAB1
 70
     6
  9
$SURFTAB2
 70
     6
  9
$SURFTYPE
 70
     6
  9
$SURFU
 70
     6
  9
$SURFV
 70
     6
  9
$UCSNAME
  2

  9
$UCSORG
 10
0.0
 20
0.0
 30
0.0
  9
$UCSXDIR
 10
1.0
 20
0.0
 30
0.0
  9
$UCSYDIR
 10
0.0
 20
1.0
 30
0.0
  9
$PUCSNAME
  2

  9
$PUCSORG
 10
0.0
 20
0.0
 30
0.0
  9
$PUCSXDIR
 10
1.0
 20
0.0
 30
0.0
  9
$PUCSYDIR
 10
0.0
 20
1.0
 30
0.0
  9
$USERI1
 70
     0
  9
$USERI2
 70
     0
  9
$USERI3
 70
     0
  9
$USERI4
 70
     0
  9
$USERI5
 70
     0
  9
$USERR1
 40
0.0
  9
$USERR2
 40
0.0
  9
$USERR3
 40
0.0
  9
$USERR4
 40
0.0
  9
$USERR5
 40
0.0
  9
$WORLDVIEW
 70
     1
  9
$SHADEDGE
 70
     3
  9
$SHADEDIF
 70
    70
  9
$TILEMODE
 70
     1
  9
$MAXACTVP
 70
    64
  9
$PINSBASE
 10
0.0
 20
0.0
 30
0.0
  9
$PLIMCHECK
 70
     0
  9
$PEXTMIN
 10
1.000000000000000E+20
 20
1.000000000000000E+20
 30
1.000000000000000E+20
  9
$PEXTMAX
 10
-1.000000000000000E+20
 20
-1.000000000000000E+20
 30
-1.000000000000000E+20
  9
$PLIMMIN
 10
0.0
 20
0.0
  9
$PLIMMAX
 10
12.0
 20
9.0
  9
$UNITMODE
 70
     0
  9
$VISRETAIN
 70
     1
  9
$PLINEGEN
 70
     0
  9
$PSLTSCALE
 70
     1
  9
$TREEDEPTH
 70
  3020
  9
$PICKSTYLE
 70
     1
  9
$CMLSTYLE
  2
STANDARD
  9
$CMLJUST
 70
     0
  9
$CMLSCALE
 40
1.0
  9
$SAVEIMAGES
 70
     1
  0
ENDSEC
  0
SECTION
  2
CLASSES
  0
CLASS
  1
ACDBDICTIONARYWDFLT
  2
AcDbDictionaryWithDefault
  3
ObjectDBX Classes
 90
    32768
280
     0
281
     0
  0
CLASS
  1
VISUALSTYLE
  2
AcDbVisualStyle
  3
ObjectDBX Classes
 90
     4095
280
     0
281
     0
  0
CLASS
  1
XRECORD
  2
AcDbXrecord
  3
AutoCAD 2000
 90
    32768
280
     0
281
     0
  0
CLASS
  1
LWPOLYLINE
  2
AcDbPolyline
  3
AutoCAD 2000
 90
    32768
280
     0
281
     1
  0
CLASS
  1
HATCH
  2
AcDbHatch
  3
AutoCAD 2000
 90
    32768
280
     0
281
     1
  0
CLASS
  1
ACDBPLACEHOLDER
  2
AcDbPlaceHolder
  3
ObjectDBX Classes
 90
        0
280
     0
281
     0
  0
CLASS
  1
LAYOUT
  2
AcDbLayout
  3
ObjectDBX Classes
 90
        0
280
     0
281
     0
  0
ENDSEC
  0
SECTION
  2
TABLES
  0
TABLE
  2
VPORT
  5
8
330
0
100
AcDbSymbolTable
 70
     1
  0
VPORT
  5
29
330
8
100
AcDbSymbolTableRecord
100
AcDbViewportTableRecord
  2
*ACTIVE
 70
     0
 10
0.0
 20
0.0
 11
1.0
 21
1.0
 12
0.0
 22
0.0
 13
0.0
 23
0.0
 14
0.5
 24
0.5
 15
0.5
 25
0.5
 16
0.0
 26
0.0
 36
1.0
 17
105.0008259828644
 27
-148.4999796178229
 37
0.0
 40
296.9999592356459
 41
0.7070763662937379
 42
50.0
 43
0.0
 44
0.0
 50
0.0
 51
0.0
 71
     0
 72
   100
 73
     1
 74
     3
 75
     0
 76
     0
 77
     0
 78
     0
  0
ENDTAB
  0
TABLE
  2
LTYPE
  5
5
330
0
100
AcDbSymbolTable
 70
     1
  0
LTYPE
  5
14
330
5
100
AcDbSymbolTableRecord
100
AcDbLinetypeTableRecord
  2
BYBLOCK
 70
     0
  3

 72
    65
 73
     0
 40
0.0
  0
LTYPE
  5
15
330
5
100
AcDbSymbolTableRecord
100
AcDbLinetypeTableRecord
  2
BYLAYER
 70
     0
  3

 72
    65
 73
     0
 40
0.0
  0
LTYPE
  5
16
330
5
100
AcDbSymbolTableRecord
100
AcDbLinetypeTableRecord
  2
CONTINUOUS
 70
     0
  3
Solid line
 72
    65
 73
     0
 40
0.0
  0
ENDTAB
  0
TABLE
  2
LAYER
  5
2
330
0
100
AcDbSymbolTable
 70
     2
  0
LAYER
  5
10
330
2
100
AcDbSymbolTableRecord
100
AcDbLayerTableRecord
  2
0
 70
     0
 62
     7
  6
CONTINUOUS
  0
LAYER
  5
3B
330
2
100
AcDbSymbolTableRecord
100
AcDbLayerTableRecord
  2
LAYER_1
 70
     0
 62
     7
  6
CONTINUOUS
  0
ENDTAB
  0
TABLE
  2
STYLE
  5
3
330
0
100
AcDbSymbolTable
 70
     1
  0
STYLE
  5
11
330
3
100
AcDbSymbolTableRecord
100
AcDbTextStyleTableRecord
  2
STANDARD
 70
     0
 40
0.0
 41
1.0
 50
0.0
 71
     0
 42
0.2
  3
txt
  4

  0
ENDTAB
  0
TABLE
  2
VIEW
  5
6
330
0
100
AcDbSymbolTable
 70
     0
  0
ENDTAB
  0
TABLE
  2
UCS
  5
7
330
0
100
AcDbSymbolTable
 70
     0
  0
ENDTAB
  0
TABLE
  2
APPID
  5
9
330
0
100
AcDbSymbolTable
 70
     1
  0
APPID
  5
12
330
9
100
AcDbSymbolTableRecord
100
AcDbRegAppTableRecord
  2
ACAD
 70
     0
  0
ENDTAB
  0
TABLE
  2
DIMSTYLE
  5
A
330
0
100
AcDbSymbolTable
 70
     1
  0
DIMSTYLE
105
27
330
A
100
AcDbSymbolTableRecord
100
AcDbDimStyleTableRecord
  2
STANDARD
 70
     0
  3

  4

  5

  6

  7

 40
1.0
 41
0.18
 42
0.0625
 43
0.38
 44
0.18
 45
0.0
 46
0.0
 47
0.0
 48
0.0
140
0.18
141
0.09
142
0.0
143
25.4
144
1.0
145
0.0
146
1.0
147
0.09
 71
     0
 72
     0
 73
     1
 74
     1
 75
     0
 76
     0
 77
     0
 78
     0
170
     0
171
     2
172
     0
173
     0
174
     0
175
     0
176
     0
177
     0
178
     0
270
     2
271
     4
272
     4
273
     2
274
     2
340
11
275
     0
280
     0
281
     0
282
     0
283
     1
284
     0
285
     0
286
     0
287
     3
288
     0
  0
ENDTAB
  0
TABLE
  2
BLOCK_RECORD
  5
1
330
0
100
AcDbSymbolTable
 70
     1
  0
BLOCK_RECORD
  5
1F
330
1
100
AcDbSymbolTableRecord
100
AcDbBlockTableRecord
  2
*MODEL_SPACE
  0
BLOCK_RECORD
  5
1B
330
1
100
AcDbSymbolTableRecord
100
AcDbBlockTableRecord
  2
*PAPER_SPACE
  0
ENDTAB
  0
ENDSEC
  0
SECTION
  2
BLOCKS
  0
BLOCK
  5
20
330
1F
100
AcDbEntity
  8
0
100
AcDbBlockBegin
  2
*MODEL_SPACE
 70
     0
 71
     0
 10
0.0
 20
0.0
 30
0.0
  3
*MODEL_SPACE
  1

  0
ENDBLK
  5
21
330
1F
100
AcDbEntity
  8
0
100
AcDbBlockEnd
  0
BLOCK
  5
1C
330
1B
100
AcDbEntity
 67
     1
  8
0
100
AcDbBlockBegin
  2
*PAPER_SPACE
 70
     0
 71
     0
 10
0.0
 20
0.0
 30
0.0
  3
*PAPER_SPACE
  1

  0
ENDBLK
  5
1D
330
1B
100
AcDbEntity
 67
     1
  8
0
100
AcDbBlockEnd
  0
ENDSEC
  0
SECTION
  2
ENTITIES
  0
SPLINE
  5
3C
330
1F
100
AcDbEntity
  8
LAYER_1
 62
   250
100
AcDbSpline
210
0.0
220
0.0
230
1.0
 70
    11
 71
     3
 72
    17
 73
    13
 74
     0
 42
0.0000000001
 43
0.0000000001
 40
0.0
 40
0.0
 40
0.0
 40
0.0
 40
1.0
 40
1.0
 40
1.0
 40
2.0
 40
2.0
 40
2.0
 40
3.0
 40
3.0
 40
3.0
 40
4.0
 40
4.0
 40
4.0
 40
4.0
 10
19.50027397515965
 20
28.4998969112778
 30
0.0
 10
18.67207302050559
 20
28.4998969112778
 30
0.0
 10
18.00027940088188
 20
29.171346021353
 30
0.0
 10
18.00027940088188
 20
29.99989148555558
 30
0.0
 10
18.00027940088188
 20
30.82809244020964
 30
0.0
 10
18.67207302050559
 20
31.49988605983336
 30
0.0
 10
19.50027397515965
 20
31.49988605983336
 30
0.0
 10
20.32847492981372
 20
31.49988605983336
 30
0.0
 10
21.00026854943743
 20
30.82809244020964
 30
0.0
 10
21.00026854943743
 20
29.99989148555558
 30
0.0
 10
21.00026854943743
 20
29.171346021353
 30
0.0
 10
20.32847492981372
 20
28.4998969112778
 30
0.0
 10
19.50027397515965
 20
28.4998969112778
 30
0.0
  0
SPLINE
  5
3D
330
1F
100
AcDbEntity
  8
LAYER_1
 62
   250
100
AcDbSpline
210
0.0
220
0.0
230
1.0
 70
    11
 71
     3
 72
    17
 73
    13
 74
     0
 42
0.0000000001
 43
0.0000000001
 40
0.0
 40
0.0
 40
0.0
 40
0.0
 40
1.0
 40
1.0
 40
1.0
 40
2.0
 40
2.0
 40
2.0
 40
3.0
 40
3.0
 40
3.0
 40
4.0
 40
4.0
 40
4.0
 40
4.0
 10
19.50027397515965
 20
26.99990233700003
 30
0.0
 10
17.84387206585153
 20
26.99990233700003
 30
0.0
 10
16.5002848266041
 20
28.34280055715041
 30
0.0
 10
16.5002848266041
 20
29.99989148555558
 30
0.0
 10
16.5002848266041
 20
31.65629339486371
 30
0.0
 10
17.84387206585153
 20
32.99988063411114
 30
0.0
 10
19.50027397515965
 20
32.99988063411114
 30
0.0
 10
21.15667588446778
 20
32.99988063411114
 30
0.0
 10
22.50026312371521
 20
31.65629339486371
 30
0.0
 10
22.50026312371521
 20
29.99989148555558
 30
0.0
 10
22.50026312371521
 20
28.34280055715041
 30
0.0
 10
21.15667588446778
 20
26.99990233700003
 30
0.0
 10
19.50027397515965
 20
26.99990233700003
 30
0.0
  0
SPLINE
  5
3E
330
1F
100
AcDbEntity
  8
LAYER_1
 62
   250
100
AcDbSpline
210
0.0
220
0.0
230
1.0
 70
    11
 71
     3
 72
    17
 73
    13
 74
     0
 42
0.0000000001
 43
0.0000000001
 40
0.0
 40
0.0
 40
0.0
 40
0.0
 40
1.0
 40
1.0
 40
1.0
 40
2.0
 40
2.0
 40
2.0
 40
3.0
 40
3.0
 40
3.0
 40
4.0
 40
4.0
 40
4.0
 40
4.0
 10
19.50027397515965
 20
18.50016275579163
 30
0.0
 10
18.67207302050559
 20
18.50016275579163
 30
0.0
 10
18.00027940088188
 20
19.17161186586682
 30
0.0
 10
18.00027940088188
 20
20.00015733006941
 30
0.0
 10
18.00027940088188
 20
20.82835828472347
 30
0.0
 10
18.67207302050559
 20
21.50015190434718
 30
0.0
 10
19.50027397515965
 20
21.50015190434718
 30
0.0
 10
20.32847492981372
 20
21.50015190434718
 30
0.0
 10
21.00026854943743
 20
20.82835828472347
 30
0.0
 10
21.00026854943743
 20
20.00015733006941
 30
0.0
 10
21.00026854943743
 20
19.17161186586682
 30
0.0
 10
20.32847492981372
 20
18.50016275579163
 30
0.0
 10
19.50027397515965
 20
18.50016275579163
 30
0.0
  0
SPLINE
  5
3F
330
1F
100
AcDbEntity
  8
LAYER_1
 62
   250
100
AcDbSpline
210
0.0
220
0.0
230
1.0
 70
    11
 71
     3
 72
    17
 73
    13
 74
     0
 42
0.0000000001
 43
0.0000000001
 40
0.0
 40
0.0
 40
0.0
 40
0.0
 40
1.0
 40
1.0
 40
1.0
 40
2.0
 40
2.0
 40
2.0
 40
3.0
 40
3.0
 40
3.0
 40
4.0
 40
4.0
 40
4.0
 40
4.0
 10
19.50027397515965
 20
17.00016818151385
 30
0.0
 10
17.84387206585153
 20
17.00016818151385
 30
0.0
 10
16.5002848266041
 20
18.34306640166423
 30
0.0
 10
16.5002848266041
 20
20.00015733006941
 30
0.0
 10
16.5002848266041
 20
21.65655923937753
 30
0.0
 10
17.84387206585153
 20
23.00014647862496
 30
0.0
 10
19.50027397515965
 20
23.00014647862496
 30
0.0
 10
21.15667588446778
 20
23.00014647862496
 30
0.0
 10
22.50026312371521
 20
21.65655923937753
 30
0.0
 10
22.50026312371521
 20
20.00015733006941
 30
0.0
 10
22.50026312371521
 20
18.34306640166423
 30
0.0
 10
21.15667588446778
 20
17.00016818151385
 30
0.0
 10
19.50027397515965
 20
17.00016818151385
 30
0.0
  0
SPLINE
  5
40
330
1F
100
AcDbEntity
  8
LAYER_1
 62
   250
100
AcDbSpline
210
0.0
220
0.0
230
1.0
 70
    11
 71
     3
 72
    17
 73
    13
 74
     0
 42
0.0000000001
 43
0.0000000001
 40
0.0
 40
0.0
 40
0.0
 40
0.0
 40
1.0
 40
1.0
 40
1.0
 40
2.0
 40
2.0
 40
2.0
 40
3.0
 40
3.0
 40
3.0
 40
4.0
 40
4.0
 40
4.0
 40
4.0
 10
34.50021971793745
 20
28.4998969112778
 30
0.0
 10
33.67201876328338
 20
28.4998969112778
 30
0.0
 10
33.00022514365967
 20
29.171346021353
 30
0.0
 10
33.00022514365967
 20
29.99989148555558
 30
0.0
 10
33.00022514365967
 20
30.82809244020964
 30
0.0
 10
33.67201876328338
 20
31.49988605983336
 30
0.0
 10
34.50021971793745
 20
31.49988605983336
 30
0.0
 10
35.32842067259151
 20
31.49988605983336
 30
0.0
 10
36.00021429221523
 20
30.82809244020964
 30
0.0
 10
36.00021429221523
 20
29.99989148555558
 30
0.0
 10
36.00021429221523
 20
29.171346021353
 30
0.0
 10
35.32842067259151
 20
28.4998969112778
 30
0.0
 10
34.50021971793745
 20
28.4998969112778
 30
0.0
  0
SPLINE
  5
41
330
1F
100
AcDbEntity
  8
LAYER_1
 62
   250
100
AcDbSpline
210
0.0
220
0.0
230
1.0
 70
    11
 71
     3
 72
    17
 73
    13
 74
     0
 42
0.0000000001
 43
0.0000000001
 40
0.0
 40
0.0
 40
0.0
 40
0.0
 40
1.0
 40
1.0
 40
1.0
 40
2.0
 40
2.0
 40
2.0
 40
3.0
 40
3.0
 40
3.0
 40
4.0
 40
4.0
 40
4.0
 40
4.0
 10
34.50021971793745
 20
26.99990233700003
 30
0.0
 10
32.84381780862932
 20
26.99990233700003
 30
0.0
 10
31.50023056938189
 20
28.34280055715041
 30
0.0
 10
31.50023056938189
 20
29.99989148555558
 30
0.0
 10
31.50023056938189
 20
31.65629339486371
 30
0.0
 10
32.84381780862932
 20
32.99988063411114
 30
0.0
 10
34.50021971793745
 20
32.99988063411114
 30
0.0
 10
36.15662162724557
 20
32.99988063411114
 30
0.0
 10
37.500208866493
 20
31.65629339486371
 30
0.0
 10
37.500208866493
 20
29.99989148555558
 30
0.0
 10
37.500208866493
 20
28.34280055715041
 30
0.0
 10
36.15662162724557
 20
26.99990233700003
 30
0.0
 10
34.50021971793745
 20
26.99990233700003
 30
0.0
  0
SPLINE
  5
42
330
1F
100
AcDbEntity
  8
LAYER_1
 62
   250
100
AcDbSpline
210
0.0
220
0.0
230
1.0
 70
    11
 71
     3
 72
    17
 73
    13
 74
     0
 42
0.0000000001
 43
0.0000000001
 40
0.0
 40
0.0
 40
0.0
 40
0.0
 40
1.0
 40
1.0
 40
1.0
 40
2.0
 40
2.0
 40
2.0
 40
3.0
 40
3.0
 40
3.0
 40
4.0
 40
4.0
 40
4.0
 40
4.0
 10
34.50021971793745
 20
18.50016275579163
 30
0.0
 10
33.67201876328338
 20
18.50016275579163
 30
0.0
 10
33.00022514365967
 20
19.17161186586682
 30
0.0
 10
33.00022514365967
 20
20.00015733006941
 30
0.0
 10
33.00022514365967
 20
20.82835828472347
 30
0.0
 10
33.67201876328338
 20
21.50015190434718
 30
0.0
 10
34.50021971793745
 20
21.50015190434718
 30
0.0
 10
35.32842067259151
 20
21.50015190434718
 30
0.0
 10
36.00021429221523
 20
20.82835828472347
 30
0.0
 10
36.00021429221523
 20
20.00015733006941
 30
0.0
 10
36.00021429221523
 20
19.17161186586682
 30
0.0
 10
35.32842067259151
 20
18.50016275579163
 30
0.0
 10
34.50021971793745
 20
18.50016275579163
 30
0.0
  0
SPLINE
  5
43
330
1F
100
AcDbEntity
  8
LAYER_1
 62
   250
100
AcDbSpline
210
0.0
220
0.0
230
1.0
 70
    11
 71
     3
 72
    17
 73
    13
 74
     0
 42
0.0000000001
 43
0.0000000001
 40
0.0
 40
0.0
 40
0.0
 40
0.0
 40
1.0
 40
1.0
 40
1.0
 40
2.0
 40
2.0
 40
2.0
 40
3.0
 40
3.0
 40
3.0
 40
4.0
 40
4.0
 40
4.0
 40
4.0
 10
34.50021971793745
 20
17.00016818151385
 30
0.0
 10
32.84381780862932
 20
17.00016818151385
 30
0.0
 10
31.50023056938189
 20
18.34306640166423
 30
0.0
 10
31.50023056938189
 20
20.00015733006941
 30
0.0
 10
31.50023056938189
 20
21.65655923937753
 30
0.0
 10
32.84381780862932
 20
23.00014647862496
 30
0.0
 10
34.50021971793745
 20
23.00014647862496
 30
0.0
 10
36.15662162724557
 20
23.00014647862496
 30
0.0
 10
37.500208866493
 20
21.65655923937753
 30
0.0
 10
37.500208866493
 20
20.00015733006941
 30
0.0
 10
37.500208866493
 20
18.34306640166423
 30
0.0
 10
36.15662162724557
 20
17.00016818151385
 30
0.0
 10
34.50021971793745
 20
17.00016818151385
 30
0.0
  0
SPLINE
  5
44
330
1F
100
AcDbEntity
  8
LAYER_1
 62
   250
100
AcDbSpline
210
0.0
220
0.0
230
1.0
 70
    11
 71
     3
 72
    17
 73
    13
 74
     0
 42
0.0000000001
 43
0.0000000001
 40
0.0
 40
0.0
 40
0.0
 40
0.0
 40
1.0
 40
1.0
 40
1.0
 40
2.0
 40
2.0
 40
2.0
 40
3.0
 40
3.0
 40
3.0
 40
4.0
 40
4.0
 40
4.0
 40
4.0
 10
84.49992402401391
 20
28.4998969112778
 30
0.0
 10
83.67172306935986
 20
28.4998969112778
 30
0.0
 10
82.99992944973613
 20
29.171346021353
 30
0.0
 10
82.99992944973613
 20
29.99989148555558
 30
0.0
 10
82.99992944973613
 20
30.82809244020964
 30
0.0
 10
83.67172306935986
 20
31.49988605983336
 30
0.0
 10
84.49992402401391
 20
31.49988605983336
 30
0.0
 10
85.32812497866797
 20
31.49988605983336
 30
0.0
 10
85.99991859829169
 20
30.82809244020964
 30
0.0
 10
85.99991859829169
 20
29.99989148555558
 30
0.0
 10
85.99991859829169
 20
29.171346021353
 30
0.0
 10
85.32812497866797
 20
28.4998969112778
 30
0.0
 10
84.49992402401391
 20
28.4998969112778
 30
0.0
  0
SPLINE
  5
45
330
1F
100
AcDbEntity
  8
LAYER_1
 62
   250
100
AcDbSpline
210
0.0
220
0.0
230
1.0
 70
    11
 71
     3
 72
    17
 73
    13
 74
     0
 42
0.0000000001
 43
0.0000000001
 40
0.0
 40
0.0
 40
0.0
 40
0.0
 40
1.0
 40
1.0
 40
1.0
 40
2.0
 40
2.0
 40
2.0
 40
3.0
 40
3.0
 40
3.0
 40
4.0
 40
4.0
 40
4.0
 40
4.0
 10
84.49992402401391
 20
26.99990233700003
 30
0.0
 10
82.84352211470579
 20
26.99990233700003
 30
0.0
 10
81.49993487545835
 20
28.34280055715041
 30
0.0
 10
81.49993487545835
 20
29.99989148555558
 30
0.0
 10
81.49993487545835
 20
31.65629339486371
 30
0.0
 10
82.84352211470579
 20
32.99988063411114
 30
0.0
 10
84.49992402401391
 20
32.99988063411114
 30
0.0
 10
86.15632593332204
 20
32.99988063411114
 30
0.0
 10
87.49991317256946
 20
31.65629339486371
 30
0.0
 10
87.49991317256946
 20
29.99989148555558
 30
0.0
 10
87.49991317256946
 20
28.34280055715041
 30
0.0
 10
86.15632593332204
 20
26.99990233700003
 30
0.0
 10
84.49992402401391
 20
26.99990233700003
 30
0.0
  0
SPLINE
  5
46
330
1F
100
AcDbEntity
  8
LAYER_1
 62
   250
100
AcDbSpline
210
0.0
220
0.0
230
1.0
 70
    11
 71
     3
 72
    17
 73
    13
 74
     0
 42
0.0000000001
 43
0.0000000001
 40
0.0
 40
0.0
 40
0.0
 40
0.0
 40
1.0
 40
1.0
 40
1.0
 40
2.0
 40
2.0
 40
2.0
 40
3.0
 40
3.0
 40
3.0
 40
4.0
 40
4.0
 40
4.0
 40
4.0
 10
84.49992402401391
 20
18.50016275579163
 30
0.0
 10
83.67172306935986
 20
18.50016275579163
 30
0.0
 10
82.99992944973613
 20
19.17161186586682
 30
0.0
 10
82.99992944973613
 20
20.00015733006941
 30
0.0
 10
82.99992944973613
 20
20.82835828472347
 30
0.0
 10
83.67172306935986
 20
21.50015190434718
 30
0.0
 10
84.49992402401391
 20
21.50015190434718
 30
0.0
 10
85.32812497866797
 20
21.50015190434718
 30
0.0
 10
85.99991859829169
 20
20.82835828472347
 30
0.0
 10
85.99991859829169
 20
20.00015733006941
 30
0.0
 10
85.99991859829169
 20
19.17161186586682
 30
0.0
 10
85.32812497866797
 20
18.50016275579163
 30
0.0
 10
84.49992402401391
 20
18.50016275579163
 30
0.0
  0
SPLINE
  5
47
330
1F
100
AcDbEntity
  8
LAYER_1
 62
   250
100
AcDbSpline
210
0.0
220
0.0
230
1.0
 70
    11
 71
     3
 72
    17
 73
    13
 74
     0
 42
0.0000000001
 43
0.0000000001
 40
0.0
 40
0.0
 40
0.0
 40
0.0
 40
1.0
 40
1.0
 40
1.0
 40
2.0
 40
2.0
 40
2.0
 40
3.0
 40
3.0
 40
3.0
 40
4.0
 40
4.0
 40
4.0
 40
4.0
 10
84.49992402401391
 20
17.00016818151385
 30
0.0
 10
82.84352211470579
 20
17.00016818151385
 30
0.0
 10
81.49993487545835
 20
18.34306640166423
 30
0.0
 10
81.49993487545835
 20
20.00015733006941
 30
0.0
 10
81.49993487545835
 20
21.65655923937753
 30
0.0
 10
82.84352211470579
 20
23.00014647862496
 30
0.0
 10
84.49992402401391
 20
23.00014647862496
 30
0.0
 10
86.15632593332204
 20
23.00014647862496
 30
0.0
 10
87.49991317256946
 20
21.65655923937753
 30
0.0
 10
87.49991317256946
 20
20.00015733006941
 30
0.0
 10
87.49991317256946
 20
18.34306640166423
 30
0.0
 10
86.15632593332204
 20
17.00016818151385
 30
0.0
 10
84.49992402401391
 20
17.00016818151385
 30
0.0
  0
SPLINE
  5
48
330
1F
100
AcDbEntity
  8
LAYER_1
 62
   250
100
AcDbSpline
210
0.0
220
0.0
230
1.0
 70
    11
 71
     3
 72
    17
 73
    13
 74
     0
 42
0.0000000001
 43
0.0000000001
 40
0.0
 40
0.0
 40
0.0
 40
0.0
 40
1.0
 40
1.0
 40
1.0
 40
2.0
 40
2.0
 40
2.0
 40
3.0
 40
3.0
 40
3.0
 40
4.0
 40
4.0
 40
4.0
 40
4.0
 10
99.4998697667917
 20
28.4998969112778
 30
0.0
 10
98.67166881213764
 20
28.4998969112778
 30
0.0
 10
97.99987519251393
 20
29.171346021353
 30
0.0
 10
97.99987519251393
 20
29.99989148555558
 30
0.0
 10
97.99987519251393
 20
30.82809244020964
 30
0.0
 10
98.67166881213764
 20
31.49988605983336
 30
0.0
 10
99.4998697667917
 20
31.49988605983336
 30
0.0
 10
100.3280707214458
 20
31.49988605983336
 30
0.0
 10
100.9998643410695
 20
30.82809244020964
 30
0.0
 10
100.9998643410695
 20
29.99989148555558
 30
0.0
 10
100.9998643410695
 20
29.171346021353
 30
0.0
 10
100.3280707214458
 20
28.4998969112778
 30
0.0
 10
99.4998697667917
 20
28.4998969112778
 30
0.0
  0
SPLINE
  5
49
330
1F
100
AcDbEntity
  8
LAYER_1
 62
   250
100
AcDbSpline
210
0.0
220
0.0
230
1.0
 70
    11
 71
     3
 72
    17
 73
    13
 74
     0
 42
0.0000000001
 43
0.0000000001
 40
0.0
 40
0.0
 40
0.0
 40
0.0
 40
1.0
 40
1.0
 40
1.0
 40
2.0
 40
2.0
 40
2.0
 40
3.0
 40
3.0
 40
3.0
 40
4.0
 40
4.0
 40
4.0
 40
4.0
 10
99.4998697667917
 20
26.99990233700003
 30
0.0
 10
97.84346785748359
 20
26.99990233700003
 30
0.0
 10
96.49988061823615
 20
28.34280055715041
 30
0.0
 10
96.49988061823615
 20
29.99989148555558
 30
0.0
 10
96.49988061823615
 20
31.65629339486371
 30
0.0
 10
97.84346785748359
 20
32.99988063411114
 30
0.0
 10
99.4998697667917
 20
32.99988063411114
 30
0.0
 10
101.1562716760998
 20
32.99988063411114
 30
0.0
 10
102.4998589153473
 20
31.65629339486371
 30
0.0
 10
102.4998589153473
 20
29.99989148555558
 30
0.0
 10
102.4998589153473
 20
28.34280055715041
 30
0.0
 10
101.1562716760998
 20
26.99990233700003
 30
0.0
 10
99.4998697667917
 20
26.99990233700003
 30
0.0
  0
SPLINE
  5
4A
330
1F
100
AcDbEntity
  8
LAYER_1
 62
   250
100
AcDbSpline
210
0.0
220
0.0
230
1.0
 70
    11
 71
     3
 72
    17
 73
    13
 74
     0
 42
0.0000000001
 43
0.0000000001
 40
0.0
 40
0.0
 40
0.0
 40
0.0
 40
1.0
 40
1.0
 40
1.0
 40
2.0
 40
2.0
 40
2.0
 40
3.0
 40
3.0
 40
3.0
 40
4.0
 40
4.0
 40
4.0
 40
4.0
 10
99.4998697667917
 20
18.50016275579163
 30
0.0
 10
98.67166881213764
 20
18.50016275579163
 30
0.0
 10
97.99987519251393
 20
19.17161186586682
 30
0.0
 10
97.99987519251393
 20
20.00015733006941
 30
0.0
 10
97.99987519251393
 20
20.82835828472347
 30
0.0
 10
98.67166881213764
 20
21.50015190434718
 30
0.0
 10
99.4998697667917
 20
21.50015190434718
 30
0.0
 10
100.3280707214458
 20
21.50015190434718
 30
0.0
 10
100.9998643410695
 20
20.82835828472347
 30
0.0
 10
100.9998643410695
 20
20.00015733006941
 30
0.0
 10
100.9998643410695
 20
19.17161186586682
 30
0.0
 10
100.3280707214458
 20
18.50016275579163
 30
0.0
 10
99.4998697667917
 20
18.50016275579163
 30
0.0
  0
SPLINE
  5
4B
330
1F
100
AcDbEntity
  8
LAYER_1
 62
   250
100
AcDbSpline
210
0.0
220
0.0
230
1.0
 70
    11
 71
     3
 72
    17
 73
    13
 74
     0
 42
0.0000000001
 43
0.0000000001
 40
0.0
 40
0.0
 40
0.0
 40
0.0
 40
1.0
 40
1.0
 40
1.0
 40
2.0
 40
2.0
 40
2.0
 40
3.0
 40
3.0
 40
3.0
 40
4.0
 40
4.0
 40
4.0
 40
4.0
 10
99.4998697667917
 20
17.00016818151385
 30
0.0
 10
97.84346785748359
 20
17.00016818151385
 30
0.0
 10
96.49988061823615
 20
18.34306640166423
 30
0.0
 10
96.49988061823615
 20
20.00015733006941
 30
0.0
 10
96.49988061823615
 20
21.65655923937753
 30
0.0
 10
97.84346785748359
 20
23.00014647862496
 30
0.0
 10
99.4998697667917
 20
23.00014647862496
 30
0.0
 10
101.1562716760998
 20
23.00014647862496
 30
0.0
 10
102.4998589153473
 20
21.65655923937753
 30
0.0
 10
102.4998589153473
 20
20.00015733006941
 30
0.0
 10
102.4998589153473
 20
18.34306640166423
 30
0.0
 10
101.1562716760998
 20
17.00016818151385
 30
0.0
 10
99.4998697667917
 20
17.00016818151385
 30
0.0
  0
SPLINE
  5
4C
330
1F
100
AcDbEntity
  8
LAYER_1
 62
   250
100
AcDbSpline
210
0.0
220
0.0
230
1.0
 70
    11
 71
     3
 72
    17
 73
    13
 74
     0
 42
0.0000000001
 43
0.0000000001
 40
0.0
 40
0.0
 40
0.0
 40
0.0
 40
1.0
 40
1.0
 40
1.0
 40
2.0
 40
2.0
 40
2.0
 40
3.0
 40
3.0
 40
3.0
 40
4.0
 40
4.0
 40
4.0
 40
4.0
 10
72.00008407488193
 20
43.00099282779142
 30
0.0
 10
71.17153861067933
 20
43.00099282779142
 30
0.0
 10
70.50008950060415
 20
43.67244193786662
 30
0.0
 10
70.50008950060415
 20
44.5009874020692
 30
0.0
 10
70.50008950060415
 20
45.32918835672326
 30
0.0
 10
71.17153861067933
 20
46.00098197634698
 30
0.0
 10
72.00008407488193
 20
46.00098197634698
 30
0.0
 10
72.82862953908452
 20
46.00098197634698
 30
0.0
 10
73.5000786491597
 20
45.32918835672326
 30
0.0
 10
73.5000786491597
 20
44.5009874020692
 30
0.0
 10
73.5000786491597
 20
43.67244193786662
 30
0.0
 10
72.82862953908452
 20
43.00099282779142
 30
0.0
 10
72.00008407488193
 20
43.00099282779142
 30
0.0
  0
SPLINE
  5
4D
330
1F
100
AcDbEntity
  8
LAYER_1
 62
   250
100
AcDbSpline
210
0.0
220
0.0
230
1.0
 70
    11
 71
     3
 72
    17
 73
    13
 74
     0
 42
0.0000000001
 43
0.0000000001
 40
0.0
 40
0.0
 40
0.0
 40
0.0
 40
1.0
 40
1.0
 40
1.0
 40
2.0
 40
2.0
 40
2.0
 40
3.0
 40
3.0
 40
3.0
 40
4.0
 40
4.0
 40
4.0
 40
4.0
 10
72.00008407488193
 20
34.00068087257622
 30
0.0
 10
71.17188312022786
 20
34.00068087257622
 30
0.0
 10
70.50008950060415
 20
34.67212998265141
 30
0.0
 10
70.50008950060415
 20
35.500675446854
 30
0.0
 10
70.50008950060415
 20
36.32887640150806
 30
0.0
 10
71.17188312022786
 20
37.00067002113178
 30
0.0
 10
72.00008407488193
 20
37.00067002113178
 30
0.0
 10
72.82862953908452
 20
37.00067002113178
 30
0.0
 10
73.5000786491597
 20
36.32887640150806
 30
0.0
 10
73.5000786491597
 20
35.500675446854
 30
0.0
 10
73.5000786491597
 20
34.67212998265141
 30
0.0
 10
72.82862953908452
 20
34.00068087257622
 30
0.0
 10
72.00008407488193
 20
34.00068087257622
 30
0.0
  0
SPLINE
  5
4E
330
1F
100
AcDbEntity
  8
LAYER_1
 62
   250
100
AcDbSpline
210
0.0
220
0.0
230
1.0
 70
    11
 71
     3
 72
    17
 73
    13
 74
     0
 42
0.0000000001
 43
0.0000000001
 40
0.0
 40
0.0
 40
0.0
 40
0.0
 40
1.0
 40
1.0
 40
1.0
 40
2.0
 40
2.0
 40
2.0
 40
3.0
 40
3.0
 40
3.0
 40
4.0
 40
4.0
 40
4.0
 40
4.0
 10
5.999978297111117
 20
43.00099282779142
 30
0.0
 10
5.171777342457056
 20
43.00099282779142
 30
0.0
 10
4.499983722833337
 20
43.67244193786662
 30
0.0
 10
4.499983722833337
 20
44.5009874020692
 30
0.0
 10
4.499983722833337
 20
45.32918835672326
 30
0.0
 10
5.171777342457056
 20
46.00098197634698
 30
0.0
 10
5.999978297111117
 20
46.00098197634698
 30
0.0
 10
6.828179251765178
 20
46.00098197634698
 30
0.0
 10
7.499972871388896
 20
45.32918835672326
 30
0.0
 10
7.499972871388896
 20
44.5009874020692
 30
0.0
 10
7.499972871388896
 20
43.67244193786662
 30
0.0
 10
6.828179251765178
 20
43.00099282779142
 30
0.0
 10
5.999978297111117
 20
43.00099282779142
 30
0.0
  0
SPLINE
  5
4F
330
1F
100
AcDbEntity
  8
LAYER_1
 62
   250
100
AcDbSpline
210
0.0
220
0.0
230
1.0
 70
    11
 71
     3
 72
    17
 73
    13
 74
     0
 42
0.0000000001
 43
0.0000000001
 40
0.0
 40
0.0
 40
0.0
 40
0.0
 40
1.0
 40
1.0
 40
1.0
 40
2.0
 40
2.0
 40
2.0
 40
3.0
 40
3.0
 40
3.0
 40
4.0
 40
4.0
 40
4.0
 40
4.0
 10
5.999978297111117
 20
34.00068087257622
 30
0.0
 10
5.171777342457056
 20
34.00068087257622
 30
0.0
 10
4.499983722833337
 20
34.67212998265141
 30
0.0
 10
4.499983722833337
 20
35.500675446854
 30
0.0
 10
4.499983722833337
 20
36.32887640150806
 30
0.0
 10
5.171777342457056
 20
37.00067002113178
 30
0.0
 10
5.999978297111117
 20
37.00067002113178
 30
0.0
 10
6.828179251765178
 20
37.00067002113178
 30
0.0
 10
7.499972871388896
 20
36.32887640150806
 30
0.0
 10
7.499972871388896
 20
35.500675446854
 30
0.0
 10
7.499972871388896
 20
34.67212998265141
 30
0.0
 10
6.828179251765178
 20
34.00068087257622
 30
0.0
 10
5.999978297111117
 20
34.00068087257622
 30
0.0
  0
SPLINE
  5
50
330
1F
100
AcDbEntity
  8
LAYER_1
 62
   250
100
AcDbSpline
210
0.0
220
0.0
230
1.0
 70
    11
 71
     3
 72
    17
 73
    13
 74
     0
 42
0.0000000001
 43
0.0000000001
 40
0.0
 40
0.0
 40
0.0
 40
0.0
 40
1.0
 40
1.0
 40
1.0
 40
2.0
 40
2.0
 40
2.0
 40
3.0
 40
3.0
 40
3.0
 40
4.0
 40
4.0
 40
4.0
 40
4.0
 10
72.00008407488193
 20
13.00110134223584
 30
0.0
 10
71.17153861067933
 20
13.00110134223584
 30
0.0
 10
70.50008950060415
 20
13.67255045231103
 30
0.0
 10
70.50008950060415
 20
14.50109591651362
 30
0.0
 10
70.50008950060415
 20
15.32929687116768
 30
0.0
 10
71.17153861067933
 20
16.00109049079139
 30
0.0
 10
72.00008407488193
 20
16.00109049079139
 30
0.0
 10
72.82862953908452
 20
16.00109049079139
 30
0.0
 10
73.5000786491597
 20
15.32929687116768
 30
0.0
 10
73.5000786491597
 20
14.50109591651362
 30
0.0
 10
73.5000786491597
 20
13.67255045231103
 30
0.0
 10
72.82862953908452
 20
13.00110134223584
 30
0.0
 10
72.00008407488193
 20
13.00110134223584
 30
0.0
  0
SPLINE
  5
51
330
1F
100
AcDbEntity
  8
LAYER_1
 62
   250
100
AcDbSpline
210
0.0
220
0.0
230
1.0
 70
    11
 71
     3
 72
    17
 73
    13
 74
     0
 42
0.0000000001
 43
0.0000000001
 40
0.0
 40
0.0
 40
0.0
 40
0.0
 40
1.0
 40
1.0
 40
1.0
 40
2.0
 40
2.0
 40
2.0
 40
3.0
 40
3.0
 40
3.0
 40
4.0
 40
4.0
 40
4.0
 40
4.0
 10
72.00008407488193
 20
4.000789387020636
 30
0.0
 10
71.17188312022786
 20
4.000789387020636
 30
0.0
 10
70.50008950060415
 20
4.67223849709583
 30
0.0
 10
70.50008950060415
 20
5.500783961298415
 30
0.0
 10
70.50008950060415
 20
6.328984915952477
 30
0.0
 10
71.17188312022786
 20
7.000778535576194
 30
0.0
 10
72.00008407488193
 20
7.000778535576194
 30
0.0
 10
72.82862953908452
 20
7.000778535576194
 30
0.0
 10
73.5000786491597
 20
6.328984915952477
 30
0.0
 10
73.5000786491597
 20
5.500783961298415
 30
0.0
 10
73.5000786491597
 20
4.67223849709583
 30
0.0
 10
72.82828502953599
 20
4.000789387020636
 30
0.0
 10
72.00008407488193
 20
4.000789387020636
 30
0.0
  0
SPLINE
  5
52
330
1F
100
AcDbEntity
  8
LAYER_1
 62
   250
100
AcDbSpline
210
0.0
220
0.0
230
1.0
 70
    11
 71
     3
 72
    17
 73
    13
 74
     0
 42
0.0000000001
 43
0.0000000001
 40
0.0
 40
0.0
 40
0.0
 40
0.0
 40
1.0
 40
1.0
 40
1.0
 40
2.0
 40
2.0
 40
2.0
 40
3.0
 40
3.0
 40
3.0
 40
4.0
 40
4.0
 40
4.0
 40
4.0
 10
5.999978297111117
 20
13.00110134223584
 30
0.0
 10
5.171777342457056
 20
13.00110134223584
 30
0.0
 10
4.499983722833337
 20
13.67255045231103
 30
0.0
 10
4.499983722833337
 20
14.50109591651362
 30
0.0
 10
4.499983722833337
 20
15.32929687116768
 30
0.0
 10
5.171777342457056
 20
16.00109049079139
 30
0.0
 10
5.999978297111117
 20
16.00109049079139
 30
0.0
 10
6.828179251765178
 20
16.00109049079139
 30
0.0
 10
7.499972871388896
 20
15.32929687116768
 30
0.0
 10
7.499972871388896
 20
14.50109591651362
 30
0.0
 10
7.499972871388896
 20
13.67255045231103
 30
0.0
 10
6.828179251765178
 20
13.00110134223584
 30
0.0
 10
5.999978297111117
 20
13.00110134223584
 30
0.0
  0
SPLINE
  5
53
330
1F
100
AcDbEntity
  8
LAYER_1
 62
   250
100
AcDbSpline
210
0.0
220
0.0
230
1.0
 70
    11
 71
     3
 72
    17
 73
    13
 74
     0
 42
0.0000000001
 43
0.0000000001
 40
0.0
 40
0.0
 40
0.0
 40
0.0
 40
1.0
 40
1.0
 40
1.0
 40
2.0
 40
2.0
 40
2.0
 40
3.0
 40
3.0
 40
3.0
 40
4.0
 40
4.0
 40
4.0
 40
4.0
 10
5.999978297111117
 20
4.000789387020636
 30
0.0
 10
5.171777342457056
 20
4.000789387020636
 30
0.0
 10
4.499983722833337
 20
4.67223849709583
 30
0.0
 10
4.499983722833337
 20
5.500783961298415
 30
0.0
 10
4.499983722833337
 20
6.328984915952477
 30
0.0
 10
5.171777342457056
 20
7.000778535576194
 30
0.0
 10
5.999978297111117
 20
7.000778535576194
 30
0.0
 10
6.828179251765178
 20
7.000778535576194
 30
0.0
 10
7.499972871388896
 20
6.328984915952477
 30
0.0
 10
7.499972871388896
 20
5.500783961298415
 30
0.0
 10
7.499972871388896
 20
4.67223849709583
 30
0.0
 10
6.828179251765178
 20
4.000789387020636
 30
0.0
 10
5.999978297111117
 20
4.000789387020636
 30
0.0
  0
SPLINE
  5
54
330
1F
100
AcDbEntity
  8
LAYER_1
100
AcDbSpline
210
0.0
220
0.0
230
1.0
 70
    11
 71
     3
 72
    14
 73
    10
 74
     0
 42
0.0000000001
 43
0.0000000001
 40
0.0
 40
0.0
 40
0.0
 40
0.0
 40
1.0
 40
1.0
 40
1.0
 40
2.0
 40
2.0
 40
2.0
 40
3.0
 40
3.0
 40
3.0
 40
3.0
 10
102.000320069986
 20
10.45104166405391
 30
0.0
 10
102.000320069986
 20
10.45104166405391
 30
0.0
 10
102.000320069986
 20
8.878700084585882
 30
0.0
 10
102.000320069986
 20
8.878700084585882
 30
0.0
 10
102.4585177695243
 20
9.223209633110864
 30
0.0
 10
102.9752820923117
 20
9.493305119154451
 30
0.0
 10
103.5361436373104
 20
9.66521538386842
 30
0.0
 10
102.9752820923117
 20
9.83678113903386
 30
0.0
 10
102.4585177695243
 20
10.10687662507745
 30
0.0
 10
102.000320069986
 20
10.45104166405391
 30
0.0
  0
SPLINE
  5
55
330
1F
100
AcDbEntity
  8
LAYER_1
100
AcDbSpline
210
0.0
220
0.0
230
1.0
 70
    11
 71
     3
 72
    14
 73
    10
 74
     0
 42
0.0000000001
 43
0.0000000001
 40
0.0
 40
0.0
 40
0.0
 40
0.0
 40
1.0
 40
1.0
 40
1.0
 40
2.0
 40
2.0
 40
2.0
 40
3.0
 40
3.0
 40
3.0
 40
3.0
 10
102.000320069986
 20
40.45437824509474
 30
0.0
 10
102.000320069986
 20
40.45437824509474
 30
0.0
 10
102.000320069986
 20
39.43635252920341
 30
0.0
 10
102.000320069986
 20
39.43635252920341
 30
0.0
 10
102.2593912504768
 20
39.63134493366856
 30
0.0
 10
102.5374104561365
 20
39.80325519838252
 30
0.0
 10
102.8326551392224
 20
39.94553764192334
 30
0.0
 10
102.5374104561365
 20
40.08782008546416
 30
0.0
 10
102.2593912504768
 20
40.25973035017812
 30
0.0
 10
102.000320069986
 20
40.45437824509474
 30
0.0
  0
SPLINE
  5
56
330
1F
100
AcDbEntity
  8
LAYER_1
 62
     7
100
AcDbSpline
210
0.0
220
0.0
230
1.0
 70
    11
 71
     3
 72
    29
 73
    25
 74
     0
 42
0.0000000001
 43
0.0000000001
 40
0.0
 40
0.0
 40
0.0
 40
0.0
 40
1.0
 40
1.0
 40
1.0
 40
2.0
 40
2.0
 40
2.0
 40
3.0
 40
3.0
 40
3.0
 40
4.0
 40
4.0
 40
4.0
 40
5.0
 40
5.0
 40
5.0
 40
6.0
 40
6.0
 40
6.0
 40
7.0
 40
7.0
 40
7.0
 40
8.0
 40
8.0
 40
8.0
 40
8.0
 10
102.3530978476756
 20
39.43635252920341
 30
0.0
 10
102.3530978476756
 20
39.43635252920341
 30
0.0
 10
102.3530978476756
 20
40.45437824509474
 30
0.0
 10
102.3530978476756
 20
40.45437824509474
 30
0.0
 10
101.1397352177706
 20
41.3652614913948
 30
0.0
 10
100.3528754089396
 20
42.81151257610268
 30
0.0
 10
100.3528754089396
 20
44.44586587430521
 30
0.0
 10
100.3528754089396
 20
44.44586587430521
 30
0.0
 10
76.35330673004363
 20
44.44586587430521
 30
0.0
 10
76.35330673004363
 20
44.44586587430521
 30
0.0
 10
76.35330673004363
 20
43.07954100485512
 30
0.0
 10
75.66773272847891
 20
41.8754801327603
 30
0.0
 10
74.62317977735115
 20
41.15373262860046
 30
0.0
 10
74.62317977735115
 20
41.15373262860046
 30
0.0
 10
74.62317977735115
 20
38.73734265524622
 30
0.0
 10
74.62317977735115
 20
38.73734265524622
 30
0.0
 10
75.66773272847891
 20
38.01525064153785
 30
0.0
 10
76.35330673004363
 20
36.81084525989451
 30
0.0
 10
76.35330673004363
 20
35.44555391909
 30
0.0
 10
76.35330673004363
 20
35.44555391909
 30
0.0
 10
100.3528754089396
 20
35.44555391909
 30
0.0
 10
100.3528754089396
 20
35.44555391909
 30
0.0
 10
100.3528754089396
 20
37.07921819819548
 30
0.0
 10
101.1400797273191
 20
38.52512477335483
 30
0.0
 10
102.3530978476756
 20
39.43635252920341
 30
0.0
  0
SPLINE
  5
57
330
1F
100
AcDbEntity
  8
LAYER_1
 62
     7
100
AcDbSpline
210
0.0
220
0.0
230
1.0
 70
    11
 71
     3
 72
    32
 73
    28
 74
     0
 42
0.0000000001
 43
0.0000000001
 40
0.0
 40
0.0
 40
0.0
 40
0.0
 40
1.0
 40
1.0
 40
1.0
 40
2.0
 40
2.0
 40
2.0
 40
3.0
 40
3.0
 40
3.0
 40
4.0
 40
4.0
 40
4.0
 40
5.0
 40
5.0
 40
5.0
 40
6.0
 40
6.0
 40
6.0
 40
7.0
 40
7.0
 40
7.0
 40
8.0
 40
8.0
 40
8.0
 40
9.0
 40
9.0
 40
9.0
 40
9.0
 10
102.3530978476756
 20
8.878700084585882
 30
0.0
 10
102.3530978476756
 20
8.878700084585882
 30
0.0
 10
102.3530978476756
 20
10.45104166405391
 30
0.0
 10
102.3530978476756
 20
10.45104166405391
 30
0.0
 10
101.1400797273191
 20
11.36295843899954
 30
0.0
 10
100.3528754089396
 20
12.81093207145005
 30
0.0
 10
100.3528754089396
 20
14.44597438874962
 30
0.0
 10
100.3528754089396
 20
14.44597438874962
 30
0.0
 10
76.35330673004363
 20
14.44597438874962
 30
0.0
 10
76.35330673004363
 20
14.44597438874962
 30
0.0
 10
76.35330673004363
 20
13.07964951929953
 30
0.0
 10
75.66773272847891
 20
11.87558864720472
 30
0.0
 10
74.62317977735115
 20
11.15384114304487
 30
0.0
 10
74.62317977735115
 20
11.15384114304487
 30
0.0
 10
74.62317977735115
 20
8.737451169690637
 30
0.0
 10
74.62317977735115
 20
8.737451169690637
 30
0.0
 10
75.66773272847891
 20
8.015359155982273
 30
0.0
 10
76.35330673004363
 20
6.810953774338929
 30
0.0
 10
76.35330673004363
 20
5.445662433534418
 30
0.0
 10
76.35330673004363
 20
5.254804143651577
 30
0.0
 10
76.33539223352032
 20
5.068424477899561
 30
0.0
 10
76.30920950783242
 20
4.88445637898722
 30
0.0
 10
76.30920950783242
 20
4.88445637898722
 30
0.0
 10
100.3528754089396
 20
4.88445637898722
 30
0.0
 10
100.3528754089396
 20
4.88445637898722
 30
0.0
 10
100.3528754089396
 20
6.518465167641217
 30
0.0
 10
101.1404242368677
 20
7.966438800091724
 30
0.0
 10
102.3530978476756
 20
8.878700084585882
 30
0.0
  0
POLYLINE
  5
58
330
1F
100
AcDbEntity
  8
LAYER_1
 62
     7
100
AcDb2dPolyline
 66
     1
 10
0.0
 20
0.0
 30
0.0
  0
VERTEX
  5
59
330
58
100
AcDbEntity
  8
LAYER_1
 62
     7
100
AcDbVertex
100
AcDb2dVertex
 10
109.0000650769167
 20
0.0
 30
0.0
  0
VERTEX
  5
5A
330
58
100
AcDbEntity
  8
LAYER_1
 62
     7
100
AcDbVertex
100
AcDb2dVertex
 10
109.0000650769167
 20
50.00004881562499
 30
0.0
  0
VERTEX
  5
5B
330
58
100
AcDbEntity
  8
LAYER_1
 62
     7
100
AcDbVertex
100
AcDb2dVertex
 10
0.0
 20
50.00004881562499
 30
0.0
  0
VERTEX
  5
5C
330
58
100
AcDbEntity
  8
LAYER_1
 62
     7
100
AcDbVertex
100
AcDb2dVertex
 10
0.0
 20
0.0
 30
0.0
  0
VERTEX
  5
5D
330
58
100
AcDbEntity
  8
LAYER_1
 62
     7
100
AcDbVertex
100
AcDb2dVertex
 10
109.0000650769167
 20
0.0
 30
0.0
  0
SEQEND
  5
5E
330
58
100
AcDbEntity
  8
LAYER_1
  0
SPLINE
  5
5F
330
1F
100
AcDbEntity
  8
LAYER_1
100
AcDbSpline
210
0.0
220
0.0
230
1.0
 70
    11
 71
     3
 72
    14
 73
    10
 74
     0
 42
0.0000000001
 43
0.0000000001
 40
0.0
 40
0.0
 40
0.0
 40
0.0
 40
1.0
 40
1.0
 40
1.0
 40
2.0
 40
2.0
 40
2.0
 40
3.0
 40
3.0
 40
3.0
 40
3.0
 10
15.46572265238357
 20
9.66521538386842
 30
0.0
 10
16.02658419738224
 20
9.493649628702977
 30
0.0
 10
16.54334852016972
 20
9.22286512356234
 30
0.0
 10
17.00154621970795
 20
8.878700084585882
 30
0.0
 10
17.00154621970795
 20
8.878700084585882
 30
0.0
 10
17.00154621970795
 20
10.45173068315096
 30
0.0
 10
17.00154621970795
 20
10.45173068315096
 30
0.0
 10
16.54369302971824
 20
10.1075656441745
 30
0.0
 10
16.02658419738224
 20
9.83678113903386
 30
0.0
 10
15.46572265238357
 20
9.66521538386842
 30
0.0
  0
SPLINE
  5
60
330
1F
100
AcDbEntity
  8
LAYER_1
100
AcDbSpline
210
0.0
220
0.0
230
1.0
 70
    11
 71
     3
 72
    14
 73
    10
 74
     0
 42
0.0000000001
 43
0.0000000001
 40
0.0
 40
0.0
 40
0.0
 40
0.0
 40
1.0
 40
1.0
 40
1.0
 40
2.0
 40
2.0
 40
2.0
 40
3.0
 40
3.0
 40
3.0
 40
3.0
 10
16.16852213137454
 20
39.94553764192334
 30
0.0
 10
16.46342230491192
 20
39.80325519838252
 30
0.0
 10
16.74109700102306
 20
39.63168944321708
 30
0.0
 10
17.00016818151385
 20
39.43704154830046
 30
0.0
 10
17.00016818151385
 20
39.43704154830046
 30
0.0
 10
17.00016818151385
 20
40.45403373554622
 30
0.0
 10
17.00016818151385
 20
40.45403373554622
 30
0.0
 10
16.74109700102306
 20
40.2593858406296
 30
0.0
 10
16.46342230491192
 20
40.08782008546416
 30
0.0
 10
16.16852213137454
 20
39.94553764192334
 30
0.0
  0
SPLINE
  5
61
330
1F
100
AcDbEntity
  8
LAYER_1
100
AcDbSpline
210
0.0
220
0.0
230
1.0
 70
    11
 71
     3
 72
    14
 73
    10
 74
     0
 42
0.0000000001
 43
0.0000000001
 40
0.0
 40
0.0
 40
0.0
 40
0.0
 40
1.0
 40
1.0
 40
1.0
 40
2.0
 40
2.0
 40
2.0
 40
3.0
 40
3.0
 40
3.0
 40
3.0
 10
40.43577472947439
 20
40.51225584924694
 30
0.0
 10
40.43577472947439
 20
40.51225584924694
 30
0.0
 10
40.43577472947439
 20
39.49354111425856
 30
0.0
 10
40.43577472947439
 20
39.49354111425856
 30
0.0
 10
40.69519041951371
 20
39.6885335187237
 30
0.0
 10
40.97320962517337
 20
39.86044378343767
 30
0.0
 10
41.26845430825928
 20
40.00307073652701
 30
0.0
 10
40.97320962517337
 20
40.14535318006783
 30
0.0
 10
40.69519041951371
 20
40.31726344478179
 30
0.0
 10
40.43577472947439
 20
40.51225584924694
 30
0.0
  0
SPLINE
  5
62
330
1F
100
AcDbEntity
  8
LAYER_1
 62
     7
100
AcDbSpline
210
0.0
220
0.0
230
1.0
 70
    11
 71
     3
 72
    38
 73
    34
 74
     0
 42
0.0000000001
 43
0.0000000001
 40
0.0
 40
0.0
 40
0.0
 40
0.0
 40
1.0
 40
1.0
 40
1.0
 40
2.0
 40
2.0
 40
2.0
 40
3.0
 40
3.0
 40
3.0
 40
4.0
 40
4.0
 40
4.0
 40
5.0
 40
5.0
 40
5.0
 40
6.0
 40
6.0
 40
6.0
 40
7.0
 40
7.0
 40
7.0
 40
8.0
 40
8.0
 40
8.0
 40
9.0
 40
9.0
 40
9.0
 40
10.0
 40
10.0
 40
10.0
 40
11.0
 40
11.0
 40
11.0
 40
11.0
 10
15.9418348484451
 20
40.45403373554622
 30
0.0
 10
15.9418348484451
 20
40.45403373554622
 30
0.0
 10
15.9418348484451
 20
39.43704154830046
 30
0.0
 10
15.9418348484451
 20
39.43704154830046
 30
0.0
 10
17.15519747835009
 20
38.52581379245188
 30
0.0
 10
17.9427463062782
 20
37.079562707744
 30
0.0
 10
17.9427463062782
 20
35.44555391909
 30
0.0
 10
17.9427463062782
 20
35.29500324638458
 30
0.0
 10
17.9331000389195
 20
35.14720865006736
 30
0.0
 10
17.92035318562408
 20
35.0001030728472
 30
0.0
 10
17.92035318562408
 20
35.0001030728472
 30
0.0
 10
37.40340168335749
 20
35.0001030728472
 30
0.0
 10
37.40340168335749
 20
35.0001030728472
 30
0.0
 10
37.38686522502829
 20
35.16546765613919
 30
0.0
 10
37.37790797676664
 20
35.33324380627086
 30
0.0
 10
37.37790797676664
 20
35.50308701369367
 30
0.0
 10
37.37790797676664
 20
37.13606227370209
 30
0.0
 10
38.1647677855977
 20
38.58196884886146
 30
0.0
 10
39.37744139640564
 20
39.49354111425856
 30
0.0
 10
39.37744139640564
 20
39.49354111425856
 30
0.0
 10
39.37744139640564
 20
40.51225584924694
 30
0.0
 10
39.37744139640564
 20
40.51225584924694
 30
0.0
 10
38.16442327604917
 20
41.42313909554699
 30
0.0
 10
37.37756346721811
 20
42.86870116115783
 30
0.0
 10
37.37756346721811
 20
44.50339896890888
 30
0.0
 10
37.37756346721811
 20
44.50339896890888
 30
0.0
 10
17.93964572034148
 20
44.50339896890888
 30
0.0
 10
17.93964572034148
 20
44.50339896890888
 30
0.0
 10
17.93964572034148
 20
44.48410643419147
 30
0.0
 10
17.94240179672968
 20
44.4651584090226
 30
0.0
 10
17.94240179672968
 20
44.44586587430521
 30
0.0
 10
17.94240179672968
 20
42.81116806655415
 30
0.0
 10
17.15519747835009
 20
41.36491698184627
 30
0.0
 10
15.9418348484451
 20
40.45403373554622
 30
0.0
  0
SPLINE
  5
63
330
1F
100
AcDbEntity
  8
LAYER_1
 62
     7
100
AcDbSpline
210
0.0
220
0.0
230
1.0
 70
    11
 71
     3
 72
    38
 73
    34
 74
     0
 42
0.0000000001
 43
0.0000000001
 40
0.0
 40
0.0
 40
0.0
 40
0.0
 40
1.0
 40
1.0
 40
1.0
 40
2.0
 40
2.0
 40
2.0
 40
3.0
 40
3.0
 40
3.0
 40
4.0
 40
4.0
 40
4.0
 40
5.0
 40
5.0
 40
5.0
 40
6.0
 40
6.0
 40
6.0
 40
7.0
 40
7.0
 40
7.0
 40
8.0
 40
8.0
 40
8.0
 40
9.0
 40
9.0
 40
9.0
 40
10.0
 40
10.0
 40
10.0
 40
11.0
 40
11.0
 40
11.0
 40
11.0
 10
15.9432128866392
 20
10.45173068315096
 30
0.0
 10
15.9432128866392
 20
10.45173068315096
 30
0.0
 10
15.9432128866392
 20
8.878700084585882
 30
0.0
 10
15.9432128866392
 20
8.878700084585882
 30
0.0
 10
17.15623100699566
 20
7.966438800091724
 30
0.0
 10
17.94309081582673
 20
6.518120658092692
 30
0.0
 10
17.94309081582673
 20
4.88445637898722
 30
0.0
 10
17.94309081582673
 20
4.88445637898722
 30
0.0
 10
37.38066405315484
 20
4.88445637898722
 30
0.0
 10
37.38066405315484
 20
4.88445637898722
 30
0.0
 10
37.38066405315484
 20
4.903748913704619
 30
0.0
 10
37.37790797676664
 20
4.922696938873493
 30
0.0
 10
37.37790797676664
 20
4.941989473590891
 30
0.0
 10
37.37790797676664
 20
6.47988009820642
 30
0.0
 10
38.0738172647871
 20
7.854817706369629
 30
0.0
 10
39.16694606225688
 20
8.771902124543136
 30
0.0
 10
39.16694606225688
 20
8.771902124543136
 30
0.0
 10
39.16694606225688
 20
10.672905813304
 30
0.0
 10
39.16694606225688
 20
10.672905813304
 30
0.0
 10
38.07347275523858
 20
11.58930121238045
 30
0.0
 10
37.37756346721811
 20
12.96458333009219
 30
0.0
 10
37.37756346721811
 20
14.50350748335329
 30
0.0
 10
37.37756346721811
 20
14.67093912393643
 30
0.0
 10
37.38652071547976
 20
14.83664821677695
 30
0.0
 10
37.40271266426043
 20
14.99994574277779
 30
0.0
 10
37.40271266426043
 20
14.99994574277779
 30
0.0
 10
17.91001789916833
 20
14.99994574277779
 30
0.0
 10
17.91001789916833
 20
14.99994574277779
 30
0.0
 10
17.92999945298278
 20
14.81770019160808
 30
0.0
 10
17.94240179672968
 20
14.63338758314721
 30
0.0
 10
17.94240179672968
 20
14.44597438874962
 30
0.0
 10
17.94240179672968
 20
12.81127658099857
 30
0.0
 10
17.15588649744714
 20
11.36399196764511
 30
0.0
 10
15.9432128866392
 20
10.45173068315096
 30
0.0
  0
SPLINE
  5
64
330
1F
100
AcDbEntity
  8
LAYER_1
100
AcDbSpline
210
0.0
220
0.0
230
1.0
 70
    11
 71
     3
 72
    14
 73
    10
 74
     0
 42
0.0000000001
 43
0.0000000001
 40
0.0
 40
0.0
 40
0.0
 40
0.0
 40
1.0
 40
1.0
 40
1.0
 40
2.0
 40
2.0
 40
2.0
 40
3.0
 40
3.0
 40
3.0
 40
3.0
 10
44.90061847835818
 20
9.722748478472091
 30
0.0
 10
45.46148002335686
 20
9.551182723306649
 30
0.0
 10
45.97824434614433
 20
9.280398218166011
 30
0.0
 10
46.43644204568256
 20
8.936233179189554
 30
0.0
 10
46.43644204568256
 20
8.936233179189554
 30
0.0
 10
46.43644204568256
 20
10.50960828730315
 30
0.0
 10
46.43644204568256
 20
10.50960828730315
 30
0.0
 10
45.97824434614433
 20
10.16509873877817
 30
0.0
 10
45.46148002335686
 20
9.894314233637534
 30
0.0
 10
44.90061847835818
 20
9.722748478472091
 30
0.0
  0
SPLINE
  5
65
330
1F
100
AcDbEntity
  8
LAYER_1
100
AcDbSpline
210
0.0
220
0.0
230
1.0
 70
    11
 71
     3
 72
    14
 73
    10
 74
     0
 42
0.0000000001
 43
0.0000000001
 40
0.0
 40
0.0
 40
0.0
 40
0.0
 40
1.0
 40
1.0
 40
1.0
 40
2.0
 40
2.0
 40
2.0
 40
3.0
 40
3.0
 40
3.0
 40
3.0
 10
46.43644204568256
 20
39.49354111425856
 30
0.0
 10
46.43644204568256
 20
39.49354111425856
 30
0.0
 10
46.43644204568256
 20
40.51260035879546
 30
0.0
 10
46.43644204568256
 20
40.51260035879546
 30
0.0
 10
46.17668184609472
 20
40.31760795433032
 30
0.0
 10
45.89866264043506
 20
40.14569768961636
 30
0.0
 10
45.60341795734914
 20
40.00307073652701
 30
0.0
 10
45.89866264043506
 20
39.86044378343767
 30
0.0
 10
46.17668184609472
 20
39.6885335187237
 30
0.0
 10
46.43644204568256
 20
39.49354111425856
 30
0.0
  0
SPLINE
  5
66
330
1F
100
AcDbEntity
  8
LAYER_1
 62
     7
100
AcDbSpline
210
0.0
220
0.0
230
1.0
 70
    11
 71
     3
 72
    20
 73
    16
 74
     0
 42
0.0000000001
 43
0.0000000001
 40
0.0
 40
0.0
 40
0.0
 40
0.0
 40
1.0
 40
1.0
 40
1.0
 40
2.0
 40
2.0
 40
2.0
 40
3.0
 40
3.0
 40
3.0
 40
4.0
 40
4.0
 40
4.0
 40
5.0
 40
5.0
 40
5.0
 40
5.0
 10
47.21158852986377
 20
33.29615884584263
 30
0.0
 10
46.86225584765944
 20
32.59129230956052
 30
0.0
 10
46.35410426358509
 20
31.97944335138014
 30
0.0
 10
45.73088649030339
 20
31.51022134628911
 30
0.0
 10
45.73088649030339
 20
31.51022134628911
 30
0.0
 10
45.73088649030339
 20
18.49533962211228
 30
0.0
 10
45.73088649030339
 20
18.49533962211228
 30
0.0
 10
46.35513779223066
 20
18.02508408837567
 30
0.0
 10
46.86397839540206
 20
17.41151258245268
 30
0.0
 10
47.2133110776064
 20
16.70526800797646
 30
0.0
 10
47.2133110776064
 20
16.70526800797646
 30
0.0
 10
55.50806747744243
 20
24.99967989826397
 30
0.0
 10
55.50806747744243
 20
24.99967989826397
 30
0.0
 10
55.50806747744243
 20
24.99967989826397
 30
0.0
 10
47.21158852986377
 20
33.29615884584263
 30
0.0
 10
47.21158852986377
 20
33.29615884584263
 30
0.0
  0
SPLINE
  5
67
330
1F
100
AcDbEntity
  8
LAYER_1
 62
     7
100
AcDbSpline
210
0.0
220
0.0
230
1.0
 70
    11
 71
     3
 72
    32
 73
    28
 74
     0
 42
0.0000000001
 43
0.0000000001
 40
0.0
 40
0.0
 40
0.0
 40
0.0
 40
1.0
 40
1.0
 40
1.0
 40
2.0
 40
2.0
 40
2.0
 40
3.0
 40
3.0
 40
3.0
 40
4.0
 40
4.0
 40
4.0
 40
5.0
 40
5.0
 40
5.0
 40
6.0
 40
6.0
 40
6.0
 40
7.0
 40
7.0
 40
7.0
 40
8.0
 40
8.0
 40
8.0
 40
9.0
 40
9.0
 40
9.0
 40
9.0
 10
47.73076441949092
 20
4.941989473590891
 30
0.0
 10
47.73076441949092
 20
4.941989473590891
 30
0.0
 10
67.3292236159802
 20
4.941989473590891
 30
0.0
 10
67.3292236159802
 20
4.941989473590891
 30
0.0
 10
67.30820853352017
 20
5.107354056882884
 30
0.0
 10
67.29408364203064
 20
5.274785697466026
 30
0.0
 10
67.29408364203064
 20
5.445662433534418
 30
0.0
 10
67.29408364203064
 20
6.940489364584322
 30
0.0
 10
68.11642793435979
 20
8.24204643891171
 30
0.0
 10
69.3315131120074
 20
8.928653969122003
 30
0.0
 10
69.3315131120074
 20
8.928653969122003
 30
0.0
 10
69.3315131120074
 20
10.96263834361351
 30
0.0
 10
69.3315131120074
 20
10.96263834361351
 30
0.0
 10
68.56153427105406
 20
11.39740939385204
 30
0.0
 10
67.95140786061631
 20
12.08022731902856
 30
0.0
 10
67.60620929299428
 20
12.90188259226064
 30
0.0
 10
67.60620929299428
 20
12.90188259226064
 30
0.0
 10
58.33649087083255
 20
22.17125650487385
 30
0.0
 10
58.33649087083255
 20
22.17125650487385
 30
0.0
 10
58.33649087083255
 20
22.17125650487385
 30
0.0
 10
45.73088649030339
 20
9.565996633893224
 30
0.0
 10
45.73088649030339
 20
9.565996633893224
 30
0.0
 10
45.73088649030339
 20
9.565996633893224
 30
0.0
 10
45.73088649030339
 20
8.936233179189554
 30
0.0
 10
45.73088649030339
 20
8.936233179189554
 30
0.0
 10
46.94390461065986
 20
8.023971894695396
 30
0.0
 10
47.73076441949092
 20
6.57599826224489
 30
0.0
 10
47.73076441949092
 20
4.941989473590891
 30
0.0
  0
SPLINE
  5
68
330
1F
100
AcDbEntity
  8
LAYER_1
 62
     7
100
AcDbSpline
210
0.0
220
0.0
230
1.0
 70
    11
 71
     3
 72
    29
 73
    25
 74
     0
 42
0.0000000001
 43
0.0000000001
 40
0.0
 40
0.0
 40
0.0
 40
0.0
 40
1.0
 40
1.0
 40
1.0
 40
2.0
 40
2.0
 40
2.0
 40
3.0
 40
3.0
 40
3.0
 40
4.0
 40
4.0
 40
4.0
 40
5.0
 40
5.0
 40
5.0
 40
6.0
 40
6.0
 40
6.0
 40
7.0
 40
7.0
 40
7.0
 40
8.0
 40
8.0
 40
8.0
 40
8.0
 10
67.70921764800326
 20
37.20083006882479
 30
0.0
 10
68.06612954027514
 20
37.92636717801841
 30
0.0
 10
68.62974716166201
 20
38.53201496432533
 30
0.0
 10
69.3315131120074
 20
38.92854545467759
 30
0.0
 10
69.3315131120074
 20
38.92854545467759
 30
0.0
 10
69.3315131120074
 20
40.96252982916909
 30
0.0
 10
69.3315131120074
 20
40.96252982916909
 30
0.0
 10
68.11608342481126
 20
41.64879284983086
 30
0.0
 10
67.29408364203064
 20
42.95000541460972
 30
0.0
 10
67.29408364203064
 20
44.44586587430521
 30
0.0
 10
67.29408364203064
 20
44.44586587430521
 30
0.0
 10
47.72800834310272
 20
44.44586587430521
 30
0.0
 10
47.72800834310272
 20
44.44586587430521
 30
0.0
 10
47.7097493370309
 20
42.83562824449942
 30
0.0
 10
46.92909070007328
 20
41.41280380909124
 30
0.0
 10
45.73088649030339
 20
40.51260035879546
 30
0.0
 10
45.73088649030339
 20
40.51260035879546
 30
0.0
 10
45.73088649030339
 20
40.43370767218324
 30
0.0
 10
45.73088649030339
 20
40.43370767218324
 30
0.0
 10
45.73088649030339
 20
40.43370767218324
 30
0.0
 10
58.33649087083255
 20
27.82810329165409
 30
0.0
 10
58.33649087083255
 20
27.82810329165409
 30
0.0
 10
58.33649087083255
 20
27.82810329165409
 30
0.0
 10
67.70921764800326
 20
37.20083006882479
 30
0.0
 10
67.70921764800326
 20
37.20083006882479
 30
0.0
  0
SPLINE
  5
69
330
1F
100
AcDbEntity
  8
LAYER_1
 62
     7
100
AcDbSpline
210
0.0
220
0.0
230
1.0
 70
    11
 71
     3
 72
    20
 73
    16
 74
     0
 42
0.0000000001
 43
0.0000000001
 40
0.0
 40
0.0
 40
0.0
 40
0.0
 40
1.0
 40
1.0
 40
1.0
 40
2.0
 40
2.0
 40
2.0
 40
3.0
 40
3.0
 40
3.0
 40
4.0
 40
4.0
 40
4.0
 40
5.0
 40
5.0
 40
5.0
 40
5.0
 10
68.69382593768766
 20
17.47076822479897
 30
0.0
 10
68.89226343763805
 20
17.64164496086737
 30
0.0
 10
69.10206975268976
 20
17.79943033409181
 30
0.0
 10
69.3315131120074
 20
17.9289659243372
 30
0.0
 10
69.3315131120074
 20
17.9289659243372
 30
0.0
 10
69.3315131120074
 20
31.96221787395389
 30
0.0
 10
69.3315131120074
 20
31.96221787395389
 30
0.0
 10
69.07967663203564
 20
32.10450031749471
 30
0.0
 10
68.84954425362095
 20
32.27882214904835
 30
0.0
 10
68.63525931443841
 20
32.47002494847972
 30
0.0
 10
68.63525931443841
 20
32.47002494847972
 30
0.0
 10
61.16491426422267
 20
24.99967989826397
 30
0.0
 10
61.16491426422267
 20
24.99967989826397
 30
0.0
 10
61.16491426422267
 20
24.99967989826397
 30
0.0
 10
68.69382593768766
 20
17.47076822479897
 30
0.0
 10
68.69382593768766
 20
17.47076822479897
 30
0.0
  0
SPLINE
  5
6A
330
1F
100
AcDbEntity
  8
LAYER_1
 62
   250
100
AcDbSpline
210
0.0
220
0.0
230
1.0
 70
    11
 71
     3
 72
    17
 73
    13
 74
     0
 42
0.0000000001
 43
0.0000000001
 40
0.0
 40
0.0
 40
0.0
 40
0.0
 40
1.0
 40
1.0
 40
1.0
 40
2.0
 40
2.0
 40
2.0
 40
3.0
 40
3.0
 40
3.0
 40
4.0
 40
4.0
 40
4.0
 40
4.0
 10
106.0007649474582
 20
43.00099282779142
 30
0.0
 10
105.1725639928041
 20
43.00099282779142
 30
0.0
 10
104.5007703731804
 20
43.67244193786662
 30
0.0
 10
104.5007703731804
 20
44.5009874020692
 30
0.0
 10
104.5007703731804
 20
45.32918835672326
 30
0.0
 10
105.1725639928041
 20
46.00098197634698
 30
0.0
 10
106.0007649474582
 20
46.00098197634698
 30
0.0
 10
106.8289659021122
 20
46.00098197634698
 30
0.0
 10
107.5007595217359
 20
45.32918835672326
 30
0.0
 10
107.5007595217359
 20
44.5009874020692
 30
0.0
 10
107.5007595217359
 20
43.67244193786662
 30
0.0
 10
106.8289659021122
 20
43.00099282779142
 30
0.0
 10
106.0007649474582
 20
43.00099282779142
 30
0.0
  0
SPLINE
  5
6B
330
1F
100
AcDbEntity
  8
LAYER_1
 62
   250
100
AcDbSpline
210
0.0
220
0.0
230
1.0
 70
    11
 71
     3
 72
    17
 73
    13
 74
     0
 42
0.0000000001
 43
0.0000000001
 40
0.0
 40
0.0
 40
0.0
 40
0.0
 40
1.0
 40
1.0
 40
1.0
 40
2.0
 40
2.0
 40
2.0
 40
3.0
 40
3.0
 40
3.0
 40
4.0
 40
4.0
 40
4.0
 40
4.0
 10
106.0007649474582
 20
41.50099825351364
 30
0.0
 10
104.34436303815
 20
41.50099825351364
 30
0.0
 10
103.0007757989026
 20
42.84389647366402
 30
0.0
 10
103.0007757989026
 20
44.5009874020692
 30
0.0
 10
103.0007757989026
 20
46.15738931137732
 30
0.0
 10
104.34436303815
 20
47.50097655062476
 30
0.0
 10
106.0007649474582
 20
47.50097655062476
 30
0.0
 10
107.6571668567663
 20
47.50097655062476
 30
0.0
 10
109.0007540960137
 20
46.15738931137732
 30
0.0
 10
109.0007540960137
 20
44.5009874020692
 30
0.0
 10
109.0007540960137
 20
42.84389647366402
 30
0.0
 10
107.6571668567663
 20
41.50099825351364
 30
0.0
 10
106.0007649474582
 20
41.50099825351364
 30
0.0
  0
SPLINE
  5
6C
330
1F
100
AcDbEntity
  8
LAYER_1
 62
   250
100
AcDbSpline
210
0.0
220
0.0
230
1.0
 70
    11
 71
     3
 72
    17
 73
    13
 74
     0
 42
0.0000000001
 43
0.0000000001
 40
0.0
 40
0.0
 40
0.0
 40
0.0
 40
1.0
 40
1.0
 40
1.0
 40
2.0
 40
2.0
 40
2.0
 40
3.0
 40
3.0
 40
3.0
 40
4.0
 40
4.0
 40
4.0
 40
4.0
 10
106.0007649474582
 20
34.00068087257622
 30
0.0
 10
105.1725639928041
 20
34.00068087257622
 30
0.0
 10
104.5007703731804
 20
34.67212998265141
 30
0.0
 10
104.5007703731804
 20
35.500675446854
 30
0.0
 10
104.5007703731804
 20
36.32887640150806
 30
0.0
 10
105.1725639928041
 20
37.00067002113178
 30
0.0
 10
106.0007649474582
 20
37.00067002113178
 30
0.0
 10
106.8289659021122
 20
37.00067002113178
 30
0.0
 10
107.5007595217359
 20
36.32887640150806
 30
0.0
 10
107.5007595217359
 20
35.500675446854
 30
0.0
 10
107.5007595217359
 20
34.67212998265141
 30
0.0
 10
106.8289659021122
 20
34.00068087257622
 30
0.0
 10
106.0007649474582
 20
34.00068087257622
 30
0.0
  0
SPLINE
  5
6D
330
1F
100
AcDbEntity
  8
LAYER_1
 62
   250
100
AcDbSpline
210
0.0
220
0.0
230
1.0
 70
    11
 71
     3
 72
    17
 73
    13
 74
     0
 42
0.0000000001
 43
0.0000000001
 40
0.0
 40
0.0
 40
0.0
 40
0.0
 40
1.0
 40
1.0
 40
1.0
 40
2.0
 40
2.0
 40
2.0
 40
3.0
 40
3.0
 40
3.0
 40
4.0
 40
4.0
 40
4.0
 40
4.0
 10
106.0007649474582
 20
32.50068629829844
 30
0.0
 10
104.34436303815
 20
32.50068629829844
 30
0.0
 10
103.0007757989026
 20
33.84358451844883
 30
0.0
 10
103.0007757989026
 20
35.500675446854
 30
0.0
 10
103.0007757989026
 20
37.15707735616212
 30
0.0
 10
104.34436303815
 20
38.50066459540956
 30
0.0
 10
106.0007649474582
 20
38.50066459540956
 30
0.0
 10
107.6571668567663
 20
38.50066459540956
 30
0.0
 10
109.0007540960137
 20
37.15707735616212
 30
0.0
 10
109.0007540960137
 20
35.500675446854
 30
0.0
 10
109.0007540960137
 20
33.84358451844883
 30
0.0
 10
107.6571668567663
 20
32.50068629829844
 30
0.0
 10
106.0007649474582
 20
32.50068629829844
 30
0.0
  0
SPLINE
  5
6E
330
1F
100
AcDbEntity
  8
LAYER_1
 62
   250
100
AcDbSpline
210
0.0
220
0.0
230
1.0
 70
    11
 71
     3
 72
    17
 73
    13
 74
     0
 42
0.0000000001
 43
0.0000000001
 40
0.0
 40
0.0
 40
0.0
 40
0.0
 40
1.0
 40
1.0
 40
1.0
 40
2.0
 40
2.0
 40
2.0
 40
3.0
 40
3.0
 40
3.0
 40
4.0
 40
4.0
 40
4.0
 40
4.0
 10
106.0007649474582
 20
13.00110134223584
 30
0.0
 10
105.1725639928041
 20
13.00110134223584
 30
0.0
 10
104.5007703731804
 20
13.67255045231103
 30
0.0
 10
104.5007703731804
 20
14.50109591651362
 30
0.0
 10
104.5007703731804
 20
15.32929687116768
 30
0.0
 10
105.1725639928041
 20
16.00109049079139
 30
0.0
 10
106.0007649474582
 20
16.00109049079139
 30
0.0
 10
106.8289659021122
 20
16.00109049079139
 30
0.0
 10
107.5007595217359
 20
15.32929687116768
 30
0.0
 10
107.5007595217359
 20
14.50109591651362
 30
0.0
 10
107.5007595217359
 20
13.67255045231103
 30
0.0
 10
106.8289659021122
 20
13.00110134223584
 30
0.0
 10
106.0007649474582
 20
13.00110134223584
 30
0.0
  0
SPLINE
  5
6F
330
1F
100
AcDbEntity
  8
LAYER_1
 62
   250
100
AcDbSpline
210
0.0
220
0.0
230
1.0
 70
    11
 71
     3
 72
    17
 73
    13
 74
     0
 42
0.0000000001
 43
0.0000000001
 40
0.0
 40
0.0
 40
0.0
 40
0.0
 40
1.0
 40
1.0
 40
1.0
 40
2.0
 40
2.0
 40
2.0
 40
3.0
 40
3.0
 40
3.0
 40
4.0
 40
4.0
 40
4.0
 40
4.0
 10
106.0007649474582
 20
11.50110676795806
 30
0.0
 10
104.34436303815
 20
11.50110676795806
 30
0.0
 10
103.0007757989026
 20
12.84400498810844
 30
0.0
 10
103.0007757989026
 20
14.50109591651362
 30
0.0
 10
103.0007757989026
 20
16.15749782582174
 30
0.0
 10
104.34436303815
 20
17.50108506506917
 30
0.0
 10
106.0007649474582
 20
17.50108506506917
 30
0.0
 10
107.6571668567663
 20
17.50108506506917
 30
0.0
 10
109.0007540960137
 20
16.15749782582174
 30
0.0
 10
109.0007540960137
 20
14.50109591651362
 30
0.0
 10
109.0007540960137
 20
12.84400498810844
 30
0.0
 10
107.6571668567663
 20
11.50110676795806
 30
0.0
 10
106.0007649474582
 20
11.50110676795806
 30
0.0
  0
SPLINE
  5
70
330
1F
100
AcDbEntity
  8
LAYER_1
 62
   250
100
AcDbSpline
210
0.0
220
0.0
230
1.0
 70
    11
 71
     3
 72
    17
 73
    13
 74
     0
 42
0.0000000001
 43
0.0000000001
 40
0.0
 40
0.0
 40
0.0
 40
0.0
 40
1.0
 40
1.0
 40
1.0
 40
2.0
 40
2.0
 40
2.0
 40
3.0
 40
3.0
 40
3.0
 40
4.0
 40
4.0
 40
4.0
 40
4.0
 10
106.0007649474582
 20
4.000789387020636
 30
0.0
 10
105.1725639928041
 20
4.000789387020636
 30
0.0
 10
104.5007703731804
 20
4.67223849709583
 30
0.0
 10
104.5007703731804
 20
5.500783961298415
 30
0.0
 10
104.5007703731804
 20
6.328984915952477
 30
0.0
 10
105.1725639928041
 20
7.000778535576194
 30
0.0
 10
106.0007649474582
 20
7.000778535576194
 30
0.0
 10
106.8289659021122
 20
7.000778535576194
 30
0.0
 10
107.5007595217359
 20
6.328984915952477
 30
0.0
 10
107.5007595217359
 20
5.500783961298415
 30
0.0
 10
107.5007595217359
 20
4.67223849709583
 30
0.0
 10
106.8289659021122
 20
4.000789387020636
 30
0.0
 10
106.0007649474582
 20
4.000789387020636
 30
0.0
  0
SPLINE
  5
71
330
1F
100
AcDbEntity
  8
LAYER_1
 62
   250
100
AcDbSpline
210
0.0
220
0.0
230
1.0
 70
    11
 71
     3
 72
    17
 73
    13
 74
     0
 42
0.0000000001
 43
0.0000000001
 40
0.0
 40
0.0
 40
0.0
 40
0.0
 40
1.0
 40
1.0
 40
1.0
 40
2.0
 40
2.0
 40
2.0
 40
3.0
 40
3.0
 40
3.0
 40
4.0
 40
4.0
 40
4.0
 40
4.0
 10
106.0007649474582
 20
2.500794812742857
 30
0.0
 10
104.34436303815
 20
2.500794812742857
 30
0.0
 10
103.0007757989026
 20
3.843693032893244
 30
0.0
 10
103.0007757989026
 20
5.500783961298415
 30
0.0
 10
103.0007757989026
 20
7.157185870606537
 30
0.0
 10
104.34436303815
 20
8.500773109853974
 30
0.0
 10
106.0007649474582
 20
8.500773109853974
 30
0.0
 10
107.6571668567663
 20
8.500773109853974
 30
0.0
 10
109.0007540960137
 20
7.157185870606537
 30
0.0
 10
109.0004095864652
 20
5.500783961298415
 30
0.0
 10
109.0004095864652
 20
3.843693032893244
 30
0.0
 10
107.6568223472177
 20
2.500794812742857
 30
0.0
 10
106.0007649474582
 20
2.500794812742857
 30
0.0
  0
SPLINE
  5
72
330
1F
100
AcDbEntity
  8
LAYER_1
 62
   250
100
AcDbSpline
210
0.0
220
0.0
230
1.0
 70
    11
 71
     3
 72
    17
 73
    13
 74
     0
 42
0.0000000001
 43
0.0000000001
 40
0.0
 40
0.0
 40
0.0
 40
0.0
 40
1.0
 40
1.0
 40
1.0
 40
2.0
 40
2.0
 40
2.0
 40
3.0
 40
3.0
 40
3.0
 40
4.0
 40
4.0
 40
4.0
 40
4.0
 10
41.93680283239775
 20
43.00099282779142
 30
0.0
 10
41.10860187774369
 20
43.00099282779142
 30
0.0
 10
40.43680825811997
 20
43.67244193786662
 30
0.0
 10
40.43680825811997
 20
44.5009874020692
 30
0.0
 10
40.43680825811997
 20
45.32918835672326
 30
0.0
 10
41.10860187774369
 20
46.00098197634698
 30
0.0
 10
41.93680283239775
 20
46.00098197634698
 30
0.0
 10
42.7650037870518
 20
46.00098197634698
 30
0.0
 10
43.43679740667552
 20
45.32918835672326
 30
0.0
 10
43.43679740667552
 20
44.5009874020692
 30
0.0
 10
43.43679740667552
 20
43.67244193786662
 30
0.0
 10
42.7650037870518
 20
43.00099282779142
 30
0.0
 10
41.93680283239775
 20
43.00099282779142
 30
0.0
  0
SPLINE
  5
73
330
1F
100
AcDbEntity
  8
LAYER_1
 62
   250
100
AcDbSpline
210
0.0
220
0.0
230
1.0
 70
    11
 71
     3
 72
    17
 73
    13
 74
     0
 42
0.0000000001
 43
0.0000000001
 40
0.0
 40
0.0
 40
0.0
 40
0.0
 40
1.0
 40
1.0
 40
1.0
 40
2.0
 40
2.0
 40
2.0
 40
3.0
 40
3.0
 40
3.0
 40
4.0
 40
4.0
 40
4.0
 40
4.0
 10
41.93680283239775
 20
41.50099825351364
 30
0.0
 10
40.28040092308962
 20
41.50099825351364
 30
0.0
 10
38.93681368384219
 20
42.84389647366402
 30
0.0
 10
38.93681368384219
 20
44.5009874020692
 30
0.0
 10
38.93681368384219
 20
46.15738931137732
 30
0.0
 10
40.28040092308962
 20
47.50097655062476
 30
0.0
 10
41.93680283239775
 20
47.50097655062476
 30
0.0
 10
43.59320474170587
 20
47.50097655062476
 30
0.0
 10
44.9367919809533
 20
46.15738931137732
 30
0.0
 10
44.9367919809533
 20
44.5009874020692
 30
0.0
 10
44.9367919809533
 20
42.84389647366402
 30
0.0
 10
43.59320474170587
 20
41.50099825351364
 30
0.0
 10
41.93680283239775
 20
41.50099825351364
 30
0.0
  0
SPLINE
  5
74
330
1F
100
AcDbEntity
  8
LAYER_1
 62
   250
100
AcDbSpline
210
0.0
220
0.0
230
1.0
 70
    11
 71
     3
 72
    17
 73
    13
 74
     0
 42
0.0000000001
 43
0.0000000001
 40
0.0
 40
0.0
 40
0.0
 40
0.0
 40
1.0
 40
1.0
 40
1.0
 40
2.0
 40
2.0
 40
2.0
 40
3.0
 40
3.0
 40
3.0
 40
4.0
 40
4.0
 40
4.0
 40
4.0
 10
41.93680283239775
 20
34.00068087257622
 30
0.0
 10
41.10860187774369
 20
34.00068087257622
 30
0.0
 10
40.43680825811997
 20
34.67212998265141
 30
0.0
 10
40.43680825811997
 20
35.500675446854
 30
0.0
 10
40.43680825811997
 20
36.32887640150806
 30
0.0
 10
41.10860187774369
 20
37.00067002113178
 30
0.0
 10
41.93680283239775
 20
37.00067002113178
 30
0.0
 10
42.7650037870518
 20
37.00067002113178
 30
0.0
 10
43.43679740667552
 20
36.32887640150806
 30
0.0
 10
43.43679740667552
 20
35.500675446854
 30
0.0
 10
43.43679740667552
 20
34.67212998265141
 30
0.0
 10
42.7650037870518
 20
34.00068087257622
 30
0.0
 10
41.93680283239775
 20
34.00068087257622
 30
0.0
  0
SPLINE
  5
75
330
1F
100
AcDbEntity
  8
LAYER_1
 62
   250
100
AcDbSpline
210
0.0
220
0.0
230
1.0
 70
    11
 71
     3
 72
    17
 73
    13
 74
     0
 42
0.0000000001
 43
0.0000000001
 40
0.0
 40
0.0
 40
0.0
 40
0.0
 40
1.0
 40
1.0
 40
1.0
 40
2.0
 40
2.0
 40
2.0
 40
3.0
 40
3.0
 40
3.0
 40
4.0
 40
4.0
 40
4.0
 40
4.0
 10
41.93680283239775
 20
32.50068629829844
 30
0.0
 10
40.28040092308962
 20
32.50068629829844
 30
0.0
 10
38.93681368384219
 20
33.84358451844883
 30
0.0
 10
38.93681368384219
 20
35.500675446854
 30
0.0
 10
38.93681368384219
 20
37.15707735616212
 30
0.0
 10
40.28040092308962
 20
38.50066459540956
 30
0.0
 10
41.93680283239775
 20
38.50066459540956
 30
0.0
 10
43.59320474170587
 20
38.50066459540956
 30
0.0
 10
44.9367919809533
 20
37.15707735616212
 30
0.0
 10
44.9367919809533
 20
35.500675446854
 30
0.0
 10
44.9367919809533
 20
33.84358451844883
 30
0.0
 10
43.59320474170587
 20
32.50068629829844
 30
0.0
 10
41.93680283239775
 20
32.50068629829844
 30
0.0
  0
SPLINE
  5
76
330
1F
100
AcDbEntity
  8
LAYER_1
 62
   250
100
AcDbSpline
210
0.0
220
0.0
230
1.0
 70
    11
 71
     3
 72
    17
 73
    13
 74
     0
 42
0.0000000001
 43
0.0000000001
 40
0.0
 40
0.0
 40
0.0
 40
0.0
 40
1.0
 40
1.0
 40
1.0
 40
2.0
 40
2.0
 40
2.0
 40
3.0
 40
3.0
 40
3.0
 40
4.0
 40
4.0
 40
4.0
 40
4.0
 10
41.93680283239775
 20
13.00110134223584
 30
0.0
 10
41.10860187774369
 20
13.00110134223584
 30
0.0
 10
40.43680825811997
 20
13.67255045231103
 30
0.0
 10
40.43680825811997
 20
14.50109591651362
 30
0.0
 10
40.43680825811997
 20
15.32929687116768
 30
0.0
 10
41.10860187774369
 20
16.00109049079139
 30
0.0
 10
41.93680283239775
 20
16.00109049079139
 30
0.0
 10
42.7650037870518
 20
16.00109049079139
 30
0.0
 10
43.43679740667552
 20
15.32929687116768
 30
0.0
 10
43.43679740667552
 20
14.50109591651362
 30
0.0
 10
43.43679740667552
 20
13.67255045231103
 30
0.0
 10
42.7650037870518
 20
13.00110134223584
 30
0.0
 10
41.93680283239775
 20
13.00110134223584
 30
0.0
  0
SPLINE
  5
77
330
1F
100
AcDbEntity
  8
LAYER_1
 62
   250
100
AcDbSpline
210
0.0
220
0.0
230
1.0
 70
    11
 71
     3
 72
    17
 73
    13
 74
     0
 42
0.0000000001
 43
0.0000000001
 40
0.0
 40
0.0
 40
0.0
 40
0.0
 40
1.0
 40
1.0
 40
1.0
 40
2.0
 40
2.0
 40
2.0
 40
3.0
 40
3.0
 40
3.0
 40
4.0
 40
4.0
 40
4.0
 40
4.0
 10
41.93680283239775
 20
11.50110676795806
 30
0.0
 10
40.28040092308962
 20
11.50110676795806
 30
0.0
 10
38.93681368384219
 20
12.84400498810844
 30
0.0
 10
38.93681368384219
 20
14.50109591651362
 30
0.0
 10
38.93681368384219
 20
16.15749782582174
 30
0.0
 10
40.28040092308962
 20
17.50108506506917
 30
0.0
 10
41.93680283239775
 20
17.50108506506917
 30
0.0
 10
43.59320474170587
 20
17.50108506506917
 30
0.0
 10
44.9367919809533
 20
16.15749782582174
 30
0.0
 10
44.9367919809533
 20
14.50109591651362
 30
0.0
 10
44.9367919809533
 20
12.84400498810844
 30
0.0
 10
43.59320474170587
 20
11.50110676795806
 30
0.0
 10
41.93680283239775
 20
11.50110676795806
 30
0.0
  0
SPLINE
  5
78
330
1F
100
AcDbEntity
  8
LAYER_1
 62
   250
100
AcDbSpline
210
0.0
220
0.0
230
1.0
 70
    11
 71
     3
 72
    17
 73
    13
 74
     0
 42
0.0000000001
 43
0.0000000001
 40
0.0
 40
0.0
 40
0.0
 40
0.0
 40
1.0
 40
1.0
 40
1.0
 40
2.0
 40
2.0
 40
2.0
 40
3.0
 40
3.0
 40
3.0
 40
4.0
 40
4.0
 40
4.0
 40
4.0
 10
41.93680283239775
 20
4.000789387020636
 30
0.0
 10
41.10860187774369
 20
4.000789387020636
 30
0.0
 10
40.43680825811997
 20
4.67223849709583
 30
0.0
 10
40.43680825811997
 20
5.500783961298415
 30
0.0
 10
40.43680825811997
 20
6.328984915952477
 30
0.0
 10
41.10860187774369
 20
7.000778535576194
 30
0.0
 10
41.93680283239775
 20
7.000778535576194
 30
0.0
 10
42.7650037870518
 20
7.000778535576194
 30
0.0
 10
43.43679740667552
 20
6.328984915952477
 30
0.0
 10
43.43679740667552
 20
5.500783961298415
 30
0.0
 10
43.43679740667552
 20
4.67223849709583
 30
0.0
 10
42.7650037870518
 20
4.000789387020636
 30
0.0
 10
41.93680283239775
 20
4.000789387020636
 30
0.0
  0
SPLINE
  5
79
330
1F
100
AcDbEntity
  8
LAYER_1
 62
   250
100
AcDbSpline
210
0.0
220
0.0
230
1.0
 70
    11
 71
     3
 72
    17
 73
    13
 74
     0
 42
0.0000000001
 43
0.0000000001
 40
0.0
 40
0.0
 40
0.0
 40
0.0
 40
1.0
 40
1.0
 40
1.0
 40
2.0
 40
2.0
 40
2.0
 40
3.0
 40
3.0
 40
3.0
 40
4.0
 40
4.0
 40
4.0
 40
4.0
 10
41.93680283239775
 20
2.500794812742857
 30
0.0
 10
40.28040092308962
 20
2.500794812742857
 30
0.0
 10
38.93681368384219
 20
3.843693032893244
 30
0.0
 10
38.93681368384219
 20
5.500783961298415
 30
0.0
 10
38.93681368384219
 20
7.157185870606537
 30
0.0
 10
40.28040092308962
 20
8.500773109853974
 30
0.0
 10
41.93680283239775
 20
8.500773109853974
 30
0.0
 10
43.59320474170587
 20
8.500773109853974
 30
0.0
 10
44.9367919809533
 20
7.157185870606537
 30
0.0
 10
44.9367919809533
 20
5.500783961298415
 30
0.0
 10
44.9367919809533
 20
3.843693032893244
 30
0.0
 10
43.59320474170587
 20
2.500794812742857
 30
0.0
 10
41.93680283239775
 20
2.500794812742857
 30
0.0
  0
SPLINE
  5
7A
330
1F
100
AcDbEntity
  8
LAYER_1
 62
   250
100
AcDbSpline
210
0.0
220
0.0
230
1.0
 70
    11
 71
     3
 72
    17
 73
    13
 74
     0
 42
0.0000000001
 43
0.0000000001
 40
0.0
 40
0.0
 40
0.0
 40
0.0
 40
1.0
 40
1.0
 40
1.0
 40
2.0
 40
2.0
 40
2.0
 40
3.0
 40
3.0
 40
3.0
 40
4.0
 40
4.0
 40
4.0
 40
4.0
 10
13.00179036133289
 20
43.00099282779142
 30
0.0
 10
12.17358940667883
 20
43.00099282779142
 30
0.0
 10
11.50179578705511
 20
43.67244193786662
 30
0.0
 10
11.50179578705511
 20
44.5009874020692
 30
0.0
 10
11.50179578705511
 20
45.32918835672326
 30
0.0
 10
12.17358940667883
 20
46.00098197634698
 30
0.0
 10
13.00179036133289
 20
46.00098197634698
 30
0.0
 10
13.82999131598695
 20
46.00098197634698
 30
0.0
 10
14.50178493561067
 20
45.32918835672326
 30
0.0
 10
14.50178493561067
 20
44.5009874020692
 30
0.0
 10
14.50178493561067
 20
43.67244193786662
 30
0.0
 10
13.82999131598695
 20
43.00099282779142
 30
0.0
 10
13.00179036133289
 20
43.00099282779142
 30
0.0
  0
SPLINE
  5
7B
330
1F
100
AcDbEntity
  8
LAYER_1
 62
   250
100
AcDbSpline
210
0.0
220
0.0
230
1.0
 70
    11
 71
     3
 72
    17
 73
    13
 74
     0
 42
0.0000000001
 43
0.0000000001
 40
0.0
 40
0.0
 40
0.0
 40
0.0
 40
1.0
 40
1.0
 40
1.0
 40
2.0
 40
2.0
 40
2.0
 40
3.0
 40
3.0
 40
3.0
 40
4.0
 40
4.0
 40
4.0
 40
4.0
 10
13.00179036133289
 20
41.50099825351364
 30
0.0
 10
11.34538845202476
 20
41.50099825351364
 30
0.0
 10
10.00180121277733
 20
42.84389647366402
 30
0.0
 10
10.00180121277733
 20
44.5009874020692
 30
0.0
 10
10.00180121277733
 20
46.15738931137732
 30
0.0
 10
11.34538845202476
 20
47.50097655062476
 30
0.0
 10
13.00179036133289
 20
47.50097655062476
 30
0.0
 10
14.65819227064101
 20
47.50097655062476
 30
0.0
 10
16.00177950988844
 20
46.15738931137732
 30
0.0
 10
16.00177950988844
 20
44.5009874020692
 30
0.0
 10
16.00177950988844
 20
42.84389647366402
 30
0.0
 10
14.65819227064101
 20
41.50099825351364
 30
0.0
 10
13.00179036133289
 20
41.50099825351364
 30
0.0
  0
SPLINE
  5
7C
330
1F
100
AcDbEntity
  8
LAYER_1
 62
   250
100
AcDbSpline
210
0.0
220
0.0
230
1.0
 70
    11
 71
     3
 72
    17
 73
    13
 74
     0
 42
0.0000000001
 43
0.0000000001
 40
0.0
 40
0.0
 40
0.0
 40
0.0
 40
1.0
 40
1.0
 40
1.0
 40
2.0
 40
2.0
 40
2.0
 40
3.0
 40
3.0
 40
3.0
 40
4.0
 40
4.0
 40
4.0
 40
4.0
 10
13.00179036133289
 20
34.00068087257622
 30
0.0
 10
12.17358940667883
 20
34.00068087257622
 30
0.0
 10
11.50179578705511
 20
34.67212998265141
 30
0.0
 10
11.50179578705511
 20
35.500675446854
 30
0.0
 10
11.50179578705511
 20
36.32887640150806
 30
0.0
 10
12.17358940667883
 20
37.00067002113178
 30
0.0
 10
13.00179036133289
 20
37.00067002113178
 30
0.0
 10
13.82999131598695
 20
37.00067002113178
 30
0.0
 10
14.50178493561067
 20
36.32887640150806
 30
0.0
 10
14.50178493561067
 20
35.500675446854
 30
0.0
 10
14.50178493561067
 20
34.67212998265141
 30
0.0
 10
13.82999131598695
 20
34.00068087257622
 30
0.0
 10
13.00179036133289
 20
34.00068087257622
 30
0.0
  0
SPLINE
  5
7D
330
1F
100
AcDbEntity
  8
LAYER_1
 62
   250
100
AcDbSpline
210
0.0
220
0.0
230
1.0
 70
    11
 71
     3
 72
    17
 73
    13
 74
     0
 42
0.0000000001
 43
0.0000000001
 40
0.0
 40
0.0
 40
0.0
 40
0.0
 40
1.0
 40
1.0
 40
1.0
 40
2.0
 40
2.0
 40
2.0
 40
3.0
 40
3.0
 40
3.0
 40
4.0
 40
4.0
 40
4.0
 40
4.0
 10
13.00179036133289
 20
32.50068629829844
 30
0.0
 10
11.34538845202476
 20
32.50068629829844
 30
0.0
 10
10.00180121277733
 20
33.84358451844883
 30
0.0
 10
10.00180121277733
 20
35.500675446854
 30
0.0
 10
10.00180121277733
 20
37.15707735616212
 30
0.0
 10
11.34538845202476
 20
38.50066459540956
 30
0.0
 10
13.00179036133289
 20
38.50066459540956
 30
0.0
 10
14.65819227064101
 20
38.50066459540956
 30
0.0
 10
16.00177950988844
 20
37.15707735616212
 30
0.0
 10
16.00177950988844
 20
35.500675446854
 30
0.0
 10
16.00177950988844
 20
33.84358451844883
 30
0.0
 10
14.65819227064101
 20
32.50068629829844
 30
0.0
 10
13.00179036133289
 20
32.50068629829844
 30
0.0
  0
SPLINE
  5
7E
330
1F
100
AcDbEntity
  8
LAYER_1
 62
   250
100
AcDbSpline
210
0.0
220
0.0
230
1.0
 70
    11
 71
     3
 72
    17
 73
    13
 74
     0
 42
0.0000000001
 43
0.0000000001
 40
0.0
 40
0.0
 40
0.0
 40
0.0
 40
1.0
 40
1.0
 40
1.0
 40
2.0
 40
2.0
 40
2.0
 40
3.0
 40
3.0
 40
3.0
 40
4.0
 40
4.0
 40
4.0
 40
4.0
 10
13.00179036133289
 20
13.00110134223584
 30
0.0
 10
12.17358940667883
 20
13.00110134223584
 30
0.0
 10
11.50179578705511
 20
13.67255045231103
 30
0.0
 10
11.50179578705511
 20
14.50109591651362
 30
0.0
 10
11.50179578705511
 20
15.32929687116768
 30
0.0
 10
12.17358940667883
 20
16.00109049079139
 30
0.0
 10
13.00179036133289
 20
16.00109049079139
 30
0.0
 10
13.82999131598695
 20
16.00109049079139
 30
0.0
 10
14.50178493561067
 20
15.32929687116768
 30
0.0
 10
14.50178493561067
 20
14.50109591651362
 30
0.0
 10
14.50178493561067
 20
13.67255045231103
 30
0.0
 10
13.82999131598695
 20
13.00110134223584
 30
0.0
 10
13.00179036133289
 20
13.00110134223584
 30
0.0
  0
SPLINE
  5
7F
330
1F
100
AcDbEntity
  8
LAYER_1
 62
   250
100
AcDbSpline
210
0.0
220
0.0
230
1.0
 70
    11
 71
     3
 72
    17
 73
    13
 74
     0
 42
0.0000000001
 43
0.0000000001
 40
0.0
 40
0.0
 40
0.0
 40
0.0
 40
1.0
 40
1.0
 40
1.0
 40
2.0
 40
2.0
 40
2.0
 40
3.0
 40
3.0
 40
3.0
 40
4.0
 40
4.0
 40
4.0
 40
4.0
 10
13.00179036133289
 20
11.50110676795806
 30
0.0
 10
11.34538845202476
 20
11.50110676795806
 30
0.0
 10
10.00180121277733
 20
12.84400498810844
 30
0.0
 10
10.00180121277733
 20
14.50109591651362
 30
0.0
 10
10.00180121277733
 20
16.15749782582174
 30
0.0
 10
11.34538845202476
 20
17.50108506506917
 30
0.0
 10
13.00179036133289
 20
17.50108506506917
 30
0.0
 10
14.65819227064101
 20
17.50108506506917
 30
0.0
 10
16.00177950988844
 20
16.15749782582174
 30
0.0
 10
16.00177950988844
 20
14.50109591651362
 30
0.0
 10
16.00177950988844
 20
12.84400498810844
 30
0.0
 10
14.65819227064101
 20
11.50110676795806
 30
0.0
 10
13.00179036133289
 20
11.50110676795806
 30
0.0
  0
SPLINE
  5
80
330
1F
100
AcDbEntity
  8
LAYER_1
 62
   250
100
AcDbSpline
210
0.0
220
0.0
230
1.0
 70
    11
 71
     3
 72
    17
 73
    13
 74
     0
 42
0.0000000001
 43
0.0000000001
 40
0.0
 40
0.0
 40
0.0
 40
0.0
 40
1.0
 40
1.0
 40
1.0
 40
2.0
 40
2.0
 40
2.0
 40
3.0
 40
3.0
 40
3.0
 40
4.0
 40
4.0
 40
4.0
 40
4.0
 10
13.00179036133289
 20
4.000789387020636
 30
0.0
 10
12.17358940667883
 20
4.000789387020636
 30
0.0
 10
11.50179578705511
 20
4.67223849709583
 30
0.0
 10
11.50179578705511
 20
5.500783961298415
 30
0.0
 10
11.50179578705511
 20
6.328984915952477
 30
0.0
 10
12.17358940667883
 20
7.000778535576194
 30
0.0
 10
13.00179036133289
 20
7.000778535576194
 30
0.0
 10
13.82999131598695
 20
7.000778535576194
 30
0.0
 10
14.50178493561067
 20
6.328984915952477
 30
0.0
 10
14.50178493561067
 20
5.500783961298415
 30
0.0
 10
14.50178493561067
 20
4.67223849709583
 30
0.0
 10
13.82999131598695
 20
4.000789387020636
 30
0.0
 10
13.00179036133289
 20
4.000789387020636
 30
0.0
  0
SPLINE
  5
81
330
1F
100
AcDbEntity
  8
LAYER_1
 62
   250
100
AcDbSpline
210
0.0
220
0.0
230
1.0
 70
    11
 71
     3
 72
    17
 73
    13
 74
     0
 42
0.0000000001
 43
0.0000000001
 40
0.0
 40
0.0
 40
0.0
 40
0.0
 40
1.0
 40
1.0
 40
1.0
 40
2.0
 40
2.0
 40
2.0
 40
3.0
 40
3.0
 40
3.0
 40
4.0
 40
4.0
 40
4.0
 40
4.0
 10
13.00179036133289
 20
2.500794812742857
 30
0.0
 10
11.34538845202476
 20
2.500794812742857
 30
0.0
 10
10.00180121277733
 20
3.843693032893244
 30
0.0
 10
10.00180121277733
 20
5.500783961298415
 30
0.0
 10
10.00180121277733
 20
7.157185870606537
 30
0.0
 10
11.34538845202476
 20
8.500773109853974
 30
0.0
 10
13.00179036133289
 20
8.500773109853974
 30
0.0
 10
14.65819227064101
 20
8.500773109853974
 30
0.0
 10
16.00177950988844
 20
7.157185870606537
 30
0.0
 10
16.00177950988844
 20
5.500783961298415
 30
0.0
 10
16.00177950988844
 20
3.843693032893244
 30
0.0
 10
14.65819227064101
 20
2.500794812742857
 30
0.0
 10
13.00179036133289
 20
2.500794812742857
 30
0.0
  0
ENDSEC
  0
SECTION
  2
OBJECTS
  0
DICTIONARY
  5
C
330
0
100
AcDbDictionary
  3
ACAD_GROUP
350
D
  3
ACAD_LAYOUT
350
1A
  3
ACAD_MLINESTYLE
350
17
  3
ACAD_PLOTSETTINGS
350
19
  3
ACAD_TABLESTYLE
350
82
  3
ACAD_VISUALSTYLE
350
2A
1001
ACAD
1000
TREAT_AS_HARD
1070
     0
  0
DICTIONARY
  5
D
102
{ACAD_REACTORS
330
C
102
}
330
C
100
AcDbDictionary
1001
ACAD
1000
TREAT_AS_HARD
1070
     0
  0
DICTIONARY
  5
1A
102
{ACAD_REACTORS
330
C
102
}
330
C
100
AcDbDictionary
1001
ACAD
1000
TREAT_AS_HARD
1070
     0
  0
DICTIONARY
  5
17
102
{ACAD_REACTORS
330
C
102
}
330
C
100
AcDbDictionary
  3
STANDARD
350
18
1001
ACAD
1000
TREAT_AS_HARD
1070
     0
  0
DICTIONARY
  5
19
102
{ACAD_REACTORS
330
C
102
}
330
C
100
AcDbDictionary
1001
ACAD
1000
TREAT_AS_HARD
1070
     0
  0
DICTIONARY
  5
82
102
{ACAD_REACTORS
330
C
102
}
330
C
100
AcDbDictionary
1001
ACAD
1000
TREAT_AS_HARD
1070
     0
  0
DICTIONARY
  5
2A
102
{ACAD_REACTORS
330
C
102
}
330
C
100
AcDbDictionary
  3
2DWIREFRAME
350
2F
  3
3D_HIDDEN
350
31
  3
3DWIREFRAME
350
30
  3
BASIC
350
32
  3
BRIGHTEN
350
36
  3
COLORCHANGE
350
3A
  3
CONCEPTUAL
350
34
  3
DIM
350
35
  3
FACEPATTERN
350
39
  3
FLAT
350
2B
  3
FLATWITHEDGES
350
2C
  3
GOURAUD
350
2D
  3
GOURAUDWITHEDGES
350
2E
  3
LINEPATTERN
350
38
  3
REALISTIC
350
33
  3
THICKEN
350
37
1001
ACAD
1000
TREAT_AS_HARD
1070
     0
  0
MLINESTYLE
  5
18
102
{ACAD_REACTORS
330
17
102
}
330
17
100
AcDbMlineStyle
  2
Standard
 70
     0
  3

 62
   256
 51
90.0
 52
90.0
 71
     2
 49
0.5
 62
   256
  6
BYLAYER
 49
-0.5
 62
   256
  6
BYLAYER
  0
VISUALSTYLE
  5
2F
102
{ACAD_REACTORS
330
2A
102
}
330
2A
100
AcDbVisualStyle
  2
2dWireframe
 70
     4
 71
     0
 72
     2
 73
     0
 90
        0
 40
-0.6
 41
-30.0
 62
     5
 63
     7
 74
     1
 91
        4
 64
     7
 65
   257
 75
     1
175
     1
 42
1.0
 92
        0
 66
   257
 43
1.0
 76
     1
 77
     6
 78
     2
 67
     7
 79
     5
170
     0
171
     0
290
     0
174
     0
 93
        1
 44
0.0
173
     0
291
     0
 45
0.0
1001
ACAD
1000
AcDbSavedByObjectVersion
1070
     0
  0
VISUALSTYLE
  5
31
102
{ACAD_REACTORS
330
2A
102
}
330
2A
100
AcDbVisualStyle
  2
3D Hidden
 70
     6
 71
     1
 72
     2
 73
     2
 90
        0
 40
-0.6
 41
-30.0
 62
     5
 63
     7
 74
     2
 91
        2
 64
     7
 65
   257
 75
     2
175
     1
 42
40.0
 92
        0
 66
   257
 43
1.0
 76
     1
 77
     6
 78
     2
 67
     7
 79
     3
170
     0
171
     0
290
     0
174
     0
 93
        1
 44
0.0
173
     0
291
     0
 45
0.0
1001
ACAD
1000
AcDbSavedByObjectVersion
1070
     0
  0
VISUALSTYLE
  5
30
102
{ACAD_REACTORS
330
2A
102
}
330
2A
100
AcDbVisualStyle
  2
3dWireframe
 70
     5
 71
     0
 72
     2
 73
     0
 90
        0
 40
-0.6
 41
-30.0
 62
     5
 63
     7
 74
     1
 91
        4
 64
     7
 65
   257
 75
     1
175
     1
 42
1.0
 92
        0
 66
   257
 43
1.0
 76
     1
 77
     6
 78
     2
 67
     7
 79
     5
170
     0
171
     0
290
     0
174
     0
 93
        1
 44
0.0
173
     0
291
     0
 45
0.0
1001
ACAD
1000
AcDbSavedByObjectVersion
1070
     0
  0
VISUALSTYLE
  5
32
102
{ACAD_REACTORS
330
2A
102
}
330
2A
100
AcDbVisualStyle
  2
Basic
 70
     7
 71
     1
 72
     0
 73
     1
 90
        0
 40
-0.6
 41
-30.0
 62
     5
 63
     7
 74
     0
 91
        4
 64
     7
 65
   257
 75
     1
175
     1
 42
1.0
 92
        8
 66
     7
 43
1.0
 76
     1
 77
     6
 78
     2
 67
     7
 79
     5
170
     0
171
     0
290
     0
174
     0
 93
        1
 44
0.0
173
     0
291
     1
 45
0.0
1001
ACAD
1000
AcDbSavedByObjectVersion
1070
     0
  0
VISUALSTYLE
  5
36
102
{ACAD_REACTORS
330
2A
102
}
330
2A
100
AcDbVisualStyle
  2
Brighten
 70
    12
 71
     2
 72
     2
 73
     0
 90
        0
 40
-0.6
 41
-30.0
 62
     5
 63
     7
 74
     1
 91
        4
 64
     7
 65
   257
 75
     1
175
     1
 42
1.0
 92
        8
 66
     7
 43
1.0
 76
     1
 77
     6
 78
     2
 67
     7
 79
     5
170
     0
171
     0
290
     0
174
     0
 93
        1
 44
50.0
173
     0
291
     1
 45
0.0
1001
ACAD
1000
AcDbSavedByObjectVersion
1070
     0
  0
VISUALSTYLE
  5
3A
102
{ACAD_REACTORS
330
2A
102
}
330
2A
100
AcDbVisualStyle
  2
ColorChange
 70
    16
 71
     2
 72
     2
 73
     3
 90
        0
 40
-0.6
 41
-30.0
 62
     5
 63
     8
 74
     1
 91
        4
 64
     7
 65
   257
 75
     1
175
     1
 42
1.0
 92
        8
 66
     8
 43
1.0
 76
     1
 77
     6
 78
     2
 67
     7
 79
     5
170
     0
171
     0
290
     0
174
     0
 93
        1
 44
0.0
173
     0
291
     1
 45
0.0
1001
ACAD
1000
AcDbSavedByObjectVersion
1070
     0
  0
VISUALSTYLE
  5
34
102
{ACAD_REACTORS
330
2A
102
}
330
2A
100
AcDbVisualStyle
  2
Conceptual
 70
     9
 71
     3
 72
     2
 73
     0
 90
        0
 40
-0.6
 41
-30.0
 62
     5
 63
     7
 74
     2
 91
        2
 64
     7
 65
   257
 75
     1
175
     1
 42
40.0
 92
        8
 66
     7
 43
1.0
 76
     1
 77
     6
 78
     2
 67
     7
 79
     3
170
     0
171
     0
290
     0
174
     0
 93
        1
 44
0.0
173
     0
291
     0
 45
0.0
1001
ACAD
1000
AcDbSavedByObjectVersion
1070
     0
  0
VISUALSTYLE
  5
35
102
{ACAD_REACTORS
330
2A
102
}
330
2A
100
AcDbVisualStyle
  2
Dim
 70
    11
 71
     2
 72
     2
 73
     0
 90
        0
 40
-0.6
 41
-30.0
 62
     5
 63
     7
 74
     1
 91
        4
 64
     7
 65
   257
 75
     1
175
     1
 42
1.0
 92
        8
 66
     7
 43
1.0
 76
     1
 77
     6
 78
     2
 67
     7
 79
     5
170
     0
171
     0
290
     0
174
     0
 93
        1
 44
-50.0
173
     0
291
     1
 45
0.0
1001
ACAD
1000
AcDbSavedByObjectVersion
1070
     0
  0
VISUALSTYLE
  5
39
102
{ACAD_REACTORS
330
2A
102
}
330
2A
100
AcDbVisualStyle
  2
Facepattern
 70
    15
 71
     2
 72
     2
 73
     0
 90
        0
 40
-0.6
 41
-30.0
 62
     5
 63
     7
 74
     1
 91
        4
 64
     7
 65
   257
 75
     1
175
     1
 42
1.0
 92
        8
 66
     7
 43
1.0
 76
     1
 77
     6
 78
     2
 67
     7
 79
     5
170
     0
171
     0
290
     0
174
     0
 93
        1
 44
0.0
173
     0
291
     1
 45
0.0
1001
ACAD
1000
AcDbSavedByObjectVersion
1070
     0
  0
VISUALSTYLE
  5
2B
102
{ACAD_REACTORS
330
2A
102
}
330
2A
100
AcDbVisualStyle
  2
Flat
 70
     0
 71
     2
 72
     1
 73
     1
 90
        2
 40
-0.6
 41
30.0
 62
     5
 63
     7
 74
     0
 91
        4
 64
     7
 65
   257
 75
     1
175
     1
 42
1.0
 92
        8
 66
     7
 43
1.0
 76
     1
 77
     6
 78
     2
 67
     7
 79
     5
170
     0
171
     0
290
     0
174
     0
 93
       13
 44
0.0
173
     0
291
     1
 45
0.0
1001
ACAD
1000
AcDbSavedByObjectVersion
1070
     0
  0
VISUALSTYLE
  5
2C
102
{ACAD_REACTORS
330
2A
102
}
330
2A
100
AcDbVisualStyle
  2
FlatWithEdges
 70
     1
 71
     2
 72
     1
 73
     1
 90
        2
 40
-0.6
 41
30.0
 62
     5
 63
     7
 74
     1
 91
        4
 64
     7
 65
   257
 75
     1
175
     1
 42
1.0
 92
        0
 66
   257
 43
1.0
 76
     1
 77
     6
 78
     2
 67
     7
 79
     5
170
     0
171
     0
290
     0
174
     0
 93
       13
 44
0.0
173
     0
291
     1
 45
0.0
1001
ACAD
1000
AcDbSavedByObjectVersion
1070
     0
  0
VISUALSTYLE
  5
2D
102
{ACAD_REACTORS
330
2A
102
}
330
2A
100
AcDbVisualStyle
  2
Gouraud
 70
     2
 71
     2
 72
     2
 73
     1
 90
        2
 40
-0.6
 41
30.0
 62
     5
 63
     7
 74
     0
 91
        4
 64
     7
 65
   257
 75
     1
175
     1
 42
1.0
 92
        0
 66
     7
 43
1.0
 76
     1
 77
     6
 78
     2
 67
     7
 79
     5
170
     0
171
     0
290
     0
174
     0
 93
       13
 44
0.0
173
     0
291
     1
 45
0.0
1001
ACAD
1000
AcDbSavedByObjectVersion
1070
     0
  0
VISUALSTYLE
  5
2E
102
{ACAD_REACTORS
330
2A
102
}
330
2A
100
AcDbVisualStyle
  2
GouraudWithEdges
 70
     3
 71
     2
 72
     2
 73
     1
 90
        2
 40
-0.6
 41
30.0
 62
     5
 63
     7
 74
     1
 91
        4
 64
     7
 65
   257
 75
     1
175
     1
 42
1.0
 92
        0
 66
   257
 43
1.0
 76
     1
 77
     6
 78
     2
 67
     7
 79
     5
170
     0
171
     0
290
     0
174
     0
 93
       13
 44
0.0
173
     0
291
     1
 45
0.0
1001
ACAD
1000
AcDbSavedByObjectVersion
1070
     0
  0
VISUALSTYLE
  5
38
102
{ACAD_REACTORS
330
2A
102
}
330
2A
100
AcDbVisualStyle
  2
Linepattern
 70
    14
 71
     2
 72
     2
 73
     0
 90
        0
 40
-0.6
 41
-30.0
 62
     5
 63
     7
 74
     1
 91
        4
 64
     7
 65
   257
 75
     7
175
     7
 42
1.0
 92
        8
 66
     7
 43
1.0
 76
     1
 77
     6
 78
     2
 67
     7
 79
     5
170
     0
171
     0
290
     0
174
     0
 93
        1
 44
0.0
173
     0
291
     1
 45
0.0
1001
ACAD
1000
AcDbSavedByObjectVersion
1070
     0
  0
VISUALSTYLE
  5
33
102
{ACAD_REACTORS
330
2A
102
}
330
2A
100
AcDbVisualStyle
  2
Realistic
 70
     8
 71
     2
 72
     2
 73
     0
 90
        0
 40
-0.6
 41
-30.0
 62
     5
 63
     7
 74
     1
 91
        0
 64
     7
 65
   257
 75
     1
175
     1
 42
1.0
 92
        8
 66
     8
 43
1.0
 76
     1
 77
     6
 78
     2
 67
     7
 79
     5
170
     0
171
     0
290
     0
174
     0
 93
       13
 44
0.0
173
     0
291
     0
 45
0.0
1001
ACAD
1000
AcDbSavedByObjectVersion
1070
     0
  0
VISUALSTYLE
  5
37
102
{ACAD_REACTORS
330
2A
102
}
330
2A
100
AcDbVisualStyle
  2
Thicken
 70
    13
 71
     2
 72
     2
 73
     0
 90
        0
 40
-0.6
 41
-30.0
 62
     5
 63
     7
 74
     1
 91
        4
 64
     7
 65
   257
 75
     1
175
     1
 42
1.0
 92
       12
 66
     7
 43
1.0
 76
     1
 77
     6
 78
     2
 67
     7
 79
     5
170
     0
171
     0
290
     0
174
     0
 93
        1
 44
0.0
173
     0
291
     1
 45
0.0
1001
ACAD
1000
AcDbSavedByObjectVersion
1070
     0
  0
ENDSEC
  0
EOF
