  0
SECTION
  2
HEADER
  9
$ACADVER
  1
AC1012
  9
$DWGCODEPAGE
  3
ansi_1252
  9
$INSBASE
 10
0.0
 20
0.0
 30
0.0
  9
$EXTMIN
 10
1.000000000000000E+20
 20
1.000000000000000E+20
 30
1.000000000000000E+20
  9
$EXTMAX
 10
-1.000000000000000E+20
 20
-1.000000000000000E+20
 30
-1.000000000000000E+20
  9
$LIMMIN
 10
0.0
 20
0.0
  9
$LIMMAX
 10
12.0
 20
9.0
  9
$ORTHOMODE
 70
     0
  9
$REGENMODE
 70
     1
  9
$FILLMODE
 70
     1
  9
$QTEXTMODE
 70
     0
  9
$MIRRTEXT
 70
     1
  9
$DRAGMODE
 70
     2
  9
$LTSCALE
 40
1.0
  9
$OSMODE
 70
    37
  9
$ATTMODE
 70
     1
  9
$TEXTSIZE
 40
0.2
  9
$TRACEWID
 40
0.05
  9
$TEXTSTYLE
  7
STANDARD
  9
$CLAYER
  8
0
  9
$CELTYPE
  6
BYLAYER
  9
$CECOLOR
 62
   256
  9
$CELTSCALE
 40
1.0
  9
$DELOBJ
 70
     1
  9
$DISPSILH
 70
     0
  9
$DIMSCALE
 40
1.0
  9
$DIMASZ
 40
0.18
  9
$DIMEXO
 40
0.0625
  9
$DIMDLI
 40
0.38
  9
$DIMRND
 40
0.0
  9
$DIMDLE
 40
0.0
  9
$DIMEXE
 40
0.18
  9
$DIMTP
 40
0.0
  9
$DIMTM
 40
0.0
  9
$DIMTXT
 40
0.18
  9
$DIMCEN
 40
0.09
  9
$DIMTSZ
 40
0.0
  9
$DIMTOL
 70
     0
  9
$DIMLIM
 70
     0
  9
$DIMTIH
 70
     1
  9
$DIMTOH
 70
     1
  9
$DIMSE1
 70
     0
  9
$DIMSE2
 70
     0
  9
$DIMTAD
 70
     0
  9
$DIMZIN
 70
     0
  9
$DIMBLK
  1

  9
$DIMASO
 70
     1
  9
$DIMSHO
 70
     1
  9
$DIMPOST
  1

  9
$DIMAPOST
  1

  9
$DIMALT
 70
     0
  9
$DIMALTD
 70
     2
  9
$DIMALTF
 40
25.4
  9
$DIMLFAC
 40
1.0
  9
$DIMTOFL
 70
     0
  9
$DIMTVP
 40
0.0
  9
$DIMTIX
 70
     0
  9
$DIMSOXD
 70
     0
  9
$DIMSAH
 70
     0
  9
$DIMBLK1
  1

  9
$DIMBLK2
  1

  9
$DIMSTYLE
  2
STANDARD
  9
$DIMCLRD
 70
     0
  9
$DIMCLRE
 70
     0
  9
$DIMCLRT
 70
     0
  9
$DIMTFAC
 40
1.0
  9
$DIMGAP
 40
0.09
  9
$DIMJUST
 70
     0
  9
$DIMSD1
 70
     0
  9
$DIMSD2
 70
     0
  9
$DIMTOLJ
 70
     1
  9
$DIMTZIN
 70
     0
  9
$DIMALTZ
 70
     0
  9
$DIMALTTZ
 70
     0
  9
$DIMFIT
 70
     3
  9
$DIMUPT
 70
     0
  9
$DIMUNIT
 70
     2
  9
$DIMDEC
 70
     4
  9
$DIMTDEC
 70
     4
  9
$DIMALTU
 70
     2
  9
$DIMALTTD
 70
     2
  9
$DIMTXSTY
  7
STANDARD
  9
$DIMAUNIT
 70
     0
  9
$LUNITS
 70
     2
  9
$LUPREC
 70
     4
  9
$SKETCHINC
 40
0.1
  9
$FILLETRAD
 40
0.5
  9
$AUNITS
 70
     0
  9
$AUPREC
 70
     0
  9
$MENU
  1
.
  9
$ELEVATION
 40
0.0
  9
$PELEVATION
 40
0.0
  9
$THICKNESS
 40
0.0
  9
$LIMCHECK
 70
     0
  9
$CHAMFERA
 40
0.5
  9
$CHAMFERB
 40
0.5
  9
$CHAMFERC
 40
1.0
  9
$CHAMFERD
 40
0.0
  9
$SKPOLY
 70
     0
  9
$TDCREATE
 40
2456536.529797315
  9
$TDUPDATE
 40
2456536.529797326
  9
$TDINDWG
 40
0.0000000116
  9
$TDUSRTIMER
 40
0.0000000116
  9
$USRTIMER
 70
     1
  9
$ANGBASE
 50
0.0
  9
$ANGDIR
 70
     0
  9
$PDMODE
 70
     0
  9
$PDSIZE
 40
0.0
  9
$PLINEWID
 40
0.0
  9
$COORDS
 70
     1
  9
$SPLFRAME
 70
     0
  9
$SPLINETYPE
 70
     6
  9
$SPLINESEGS
 70
     8
  9
$ATTDIA
 70
     0
  9
$ATTREQ
 70
     1
  9
$HANDLING
 70
     1
  9
$HANDSEED
  5
DB
  9
$SURFTAB1
 70
     6
  9
$SURFTAB2
 70
     6
  9
$SURFTYPE
 70
     6
  9
$SURFU
 70
     6
  9
$SURFV
 70
     6
  9
$UCSNAME
  2

  9
$UCSORG
 10
0.0
 20
0.0
 30
0.0
  9
$UCSXDIR
 10
1.0
 20
0.0
 30
0.0
  9
$UCSYDIR
 10
0.0
 20
1.0
 30
0.0
  9
$PUCSNAME
  2

  9
$PUCSORG
 10
0.0
 20
0.0
 30
0.0
  9
$PUCSXDIR
 10
1.0
 20
0.0
 30
0.0
  9
$PUCSYDIR
 10
0.0
 20
1.0
 30
0.0
  9
$USERI1
 70
     0
  9
$USERI2
 70
     0
  9
$USERI3
 70
     0
  9
$USERI4
 70
     0
  9
$USERI5
 70
     0
  9
$USERR1
 40
0.0
  9
$USERR2
 40
0.0
  9
$USERR3
 40
0.0
  9
$USERR4
 40
0.0
  9
$USERR5
 40
0.0
  9
$WORLDVIEW
 70
     1
  9
$SHADEDGE
 70
     3
  9
$SHADEDIF
 70
    70
  9
$TILEMODE
 70
     1
  9
$MAXACTVP
 70
    64
  9
$PINSBASE
 10
0.0
 20
0.0
 30
0.0
  9
$PLIMCHECK
 70
     0
  9
$PEXTMIN
 10
1.000000000000000E+20
 20
1.000000000000000E+20
 30
1.000000000000000E+20
  9
$PEXTMAX
 10
-1.000000000000000E+20
 20
-1.000000000000000E+20
 30
-1.000000000000000E+20
  9
$PLIMMIN
 10
0.0
 20
0.0
  9
$PLIMMAX
 10
12.0
 20
9.0
  9
$UNITMODE
 70
     0
  9
$VISRETAIN
 70
     1
  9
$PLINEGEN
 70
     0
  9
$PSLTSCALE
 70
     1
  9
$TREEDEPTH
 70
  3020
  9
$PICKSTYLE
 70
     1
  9
$CMLSTYLE
  2
STANDARD
  9
$CMLJUST
 70
     0
  9
$CMLSCALE
 40
1.0
  9
$SAVEIMAGES
 70
     1
  0
ENDSEC
  0
SECTION
  2
CLASSES
  0
CLASS
  1
ACDBDICTIONARYWDFLT
  2
AcDbDictionaryWithDefault
  3
ObjectDBX Classes
 90
    32768
280
     0
281
     0
  0
CLASS
  1
VISUALSTYLE
  2
AcDbVisualStyle
  3
ObjectDBX Classes
 90
     4095
280
     0
281
     0
  0
CLASS
  1
XRECORD
  2
AcDbXrecord
  3
AutoCAD 2000
 90
    32768
280
     0
281
     0
  0
CLASS
  1
LWPOLYLINE
  2
AcDbPolyline
  3
AutoCAD 2000
 90
    32768
280
     0
281
     1
  0
CLASS
  1
HATCH
  2
AcDbHatch
  3
AutoCAD 2000
 90
    32768
280
     0
281
     1
  0
CLASS
  1
ACDBPLACEHOLDER
  2
AcDbPlaceHolder
  3
ObjectDBX Classes
 90
        0
280
     0
281
     0
  0
CLASS
  1
LAYOUT
  2
AcDbLayout
  3
ObjectDBX Classes
 90
        0
280
     0
281
     0
  0
ENDSEC
  0
SECTION
  2
TABLES
  0
TABLE
  2
VPORT
  5
8
330
0
100
AcDbSymbolTable
 70
     1
  0
VPORT
  5
29
330
8
100
AcDbSymbolTableRecord
100
AcDbViewportTableRecord
  2
*ACTIVE
 70
     0
 10
0.0
 20
0.0
 11
1.0
 21
1.0
 12
0.0
 22
0.0
 13
0.0
 23
0.0
 14
0.5
 24
0.5
 15
0.5
 25
0.5
 16
0.0
 26
0.0
 36
1.0
 17
148.4999796178229
 27
-105.0008259828644
 37
0.0
 40
210.0016519657288
 41
1.414274394775308
 42
50.0
 43
0.0
 44
0.0
 50
0.0
 51
0.0
 71
     0
 72
   100
 73
     1
 74
     3
 75
     0
 76
     0
 77
     0
 78
     0
  0
ENDTAB
  0
TABLE
  2
LTYPE
  5
5
330
0
100
AcDbSymbolTable
 70
     1
  0
LTYPE
  5
14
330
5
100
AcDbSymbolTableRecord
100
AcDbLinetypeTableRecord
  2
BYBLOCK
 70
     0
  3

 72
    65
 73
     0
 40
0.0
  0
LTYPE
  5
15
330
5
100
AcDbSymbolTableRecord
100
AcDbLinetypeTableRecord
  2
BYLAYER
 70
     0
  3

 72
    65
 73
     0
 40
0.0
  0
LTYPE
  5
16
330
5
100
AcDbSymbolTableRecord
100
AcDbLinetypeTableRecord
  2
CONTINUOUS
 70
     0
  3
Solid line
 72
    65
 73
     0
 40
0.0
  0
ENDTAB
  0
TABLE
  2
LAYER
  5
2
330
0
100
AcDbSymbolTable
 70
     2
  0
LAYER
  5
10
330
2
100
AcDbSymbolTableRecord
100
AcDbLayerTableRecord
  2
0
 70
     0
 62
     7
  6
CONTINUOUS
  0
LAYER
  5
3B
330
2
100
AcDbSymbolTableRecord
100
AcDbLayerTableRecord
  2
LAYER_1
 70
     0
 62
     7
  6
CONTINUOUS
  0
ENDTAB
  0
TABLE
  2
STYLE
  5
3
330
0
100
AcDbSymbolTable
 70
     1
  0
STYLE
  5
11
330
3
100
AcDbSymbolTableRecord
100
AcDbTextStyleTableRecord
  2
STANDARD
 70
     0
 40
0.0
 41
1.0
 50
0.0
 71
     0
 42
0.2
  3
txt
  4

  0
ENDTAB
  0
TABLE
  2
VIEW
  5
6
330
0
100
AcDbSymbolTable
 70
     0
  0
ENDTAB
  0
TABLE
  2
UCS
  5
7
330
0
100
AcDbSymbolTable
 70
     0
  0
ENDTAB
  0
TABLE
  2
APPID
  5
9
330
0
100
AcDbSymbolTable
 70
     1
  0
APPID
  5
12
330
9
100
AcDbSymbolTableRecord
100
AcDbRegAppTableRecord
  2
ACAD
 70
     0
  0
ENDTAB
  0
TABLE
  2
DIMSTYLE
  5
A
330
0
100
AcDbSymbolTable
 70
     1
  0
DIMSTYLE
105
27
330
A
100
AcDbSymbolTableRecord
100
AcDbDimStyleTableRecord
  2
STANDARD
 70
     0
  3

  4

  5

  6

  7

 40
1.0
 41
0.18
 42
0.0625
 43
0.38
 44
0.18
 45
0.0
 46
0.0
 47
0.0
 48
0.0
140
0.18
141
0.09
142
0.0
143
25.4
144
1.0
145
0.0
146
1.0
147
0.09
 71
     0
 72
     0
 73
     1
 74
     1
 75
     0
 76
     0
 77
     0
 78
     0
170
     0
171
     2
172
     0
173
     0
174
     0
175
     0
176
     0
177
     0
178
     0
270
     2
271
     4
272
     4
273
     2
274
     2
340
11
275
     0
280
     0
281
     0
282
     0
283
     1
284
     0
285
     0
286
     0
287
     3
288
     0
  0
ENDTAB
  0
TABLE
  2
BLOCK_RECORD
  5
1
330
0
100
AcDbSymbolTable
 70
    19
  0
BLOCK_RECORD
  5
1F
330
1
100
AcDbSymbolTableRecord
100
AcDbBlockTableRecord
  2
*MODEL_SPACE
  0
BLOCK_RECORD
  5
1B
330
1
100
AcDbSymbolTableRecord
100
AcDbBlockTableRecord
  2
*PAPER_SPACE
  0
BLOCK_RECORD
  5
3C
330
1
100
AcDbSymbolTableRecord
100
AcDbBlockTableRecord
  2
BLOCK_2
  0
BLOCK_RECORD
  5
59
330
1
100
AcDbSymbolTableRecord
100
AcDbBlockTableRecord
  2
BLOCK_3
  0
BLOCK_RECORD
  5
5F
330
1
100
AcDbSymbolTableRecord
100
AcDbBlockTableRecord
  2
BLOCK_4
  0
BLOCK_RECORD
  5
65
330
1
100
AcDbSymbolTableRecord
100
AcDbBlockTableRecord
  2
BLOCK_5
  0
BLOCK_RECORD
  5
6B
330
1
100
AcDbSymbolTableRecord
100
AcDbBlockTableRecord
  2
BLOCK_6
  0
BLOCK_RECORD
  5
71
330
1
100
AcDbSymbolTableRecord
100
AcDbBlockTableRecord
  2
BLOCK_7
  0
BLOCK_RECORD
  5
77
330
1
100
AcDbSymbolTableRecord
100
AcDbBlockTableRecord
  2
BLOCK_8
  0
BLOCK_RECORD
  5
7D
330
1
100
AcDbSymbolTableRecord
100
AcDbBlockTableRecord
  2
BLOCK_9
  0
BLOCK_RECORD
  5
83
330
1
100
AcDbSymbolTableRecord
100
AcDbBlockTableRecord
  2
BLOCK_10
  0
BLOCK_RECORD
  5
8B
330
1
100
AcDbSymbolTableRecord
100
AcDbBlockTableRecord
  2
BLOCK_11
  0
BLOCK_RECORD
  5
A8
330
1
100
AcDbSymbolTableRecord
100
AcDbBlockTableRecord
  2
BLOCK_12
  0
BLOCK_RECORD
  5
AE
330
1
100
AcDbSymbolTableRecord
100
AcDbBlockTableRecord
  2
BLOCK_13
  0
BLOCK_RECORD
  5
B4
330
1
100
AcDbSymbolTableRecord
100
AcDbBlockTableRecord
  2
BLOCK_14
  0
BLOCK_RECORD
  5
BA
330
1
100
AcDbSymbolTableRecord
100
AcDbBlockTableRecord
  2
BLOCK_15
  0
BLOCK_RECORD
  5
C0
330
1
100
AcDbSymbolTableRecord
100
AcDbBlockTableRecord
  2
BLOCK_16
  0
BLOCK_RECORD
  5
C6
330
1
100
AcDbSymbolTableRecord
100
AcDbBlockTableRecord
  2
BLOCK_17
  0
BLOCK_RECORD
  5
CC
330
1
100
AcDbSymbolTableRecord
100
AcDbBlockTableRecord
  2
BLOCK_18
  0
BLOCK_RECORD
  5
D2
330
1
100
AcDbSymbolTableRecord
100
AcDbBlockTableRecord
  2
BLOCK_19
  0
ENDTAB
  0
ENDSEC
  0
SECTION
  2
BLOCKS
  0
BLOCK
  5
20
330
1F
100
AcDbEntity
  8
0
100
AcDbBlockBegin
  2
*MODEL_SPACE
 70
     0
 71
     0
 10
0.0
 20
0.0
 30
0.0
  3
*MODEL_SPACE
  1

  0
ENDBLK
  5
21
330
1F
100
AcDbEntity
  8
0
100
AcDbBlockEnd
  0
BLOCK
  5
1C
330
1B
100
AcDbEntity
 67
     1
  8
0
100
AcDbBlockBegin
  2
*PAPER_SPACE
 70
     0
 71
     0
 10
0.0
 20
0.0
 30
0.0
  3
*PAPER_SPACE
  1

  0
ENDBLK
  5
1D
330
1B
100
AcDbEntity
 67
     1
  8
0
100
AcDbBlockEnd
  0
BLOCK
  5
3E
330
3C
100
AcDbEntity
  8
0
100
AcDbBlockBegin
  2
BLOCK_2
 70
     0
 71
     0
 10
0.0
 20
0.0
 30
0.0
  3
BLOCK_2
  1

  0
POLYLINE
  5
40
330
3C
100
AcDbEntity
  8
LAYER_1
 62
     7
100
AcDb2dPolyline
 66
     1
 10
0.0
 20
0.0
 30
0.0
  0
VERTEX
  5
41
330
40
100
AcDbEntity
  8
LAYER_1
 62
     7
100
AcDbVertex
100
AcDb2dVertex
 10
43.49812010631297
 20
78.00006237199304
 30
0.0
  0
VERTEX
  5
42
330
40
100
AcDbEntity
  8
LAYER_1
 62
     7
100
AcDbVertex
100
AcDb2dVertex
 10
35.9998697826667
 20
78.00006237199304
 30
0.0
  0
VERTEX
  5
43
330
40
100
AcDbEntity
  8
LAYER_1
 62
     7
100
AcDbVertex
100
AcDb2dVertex
 10
35.49860838956285
 20
78.00006237199304
 30
0.0
  0
VERTEX
  5
44
330
40
100
AcDbEntity
  8
LAYER_1
 62
     7
100
AcDbVertex
100
AcDb2dVertex
 10
0.0
 20
78.00006237199304
 30
0.0
  0
VERTEX
  5
45
330
40
100
AcDbEntity
  8
LAYER_1
 62
     7
100
AcDbVertex
100
AcDb2dVertex
 10
0.0
 20
0.0
 30
0.0
  0
VERTEX
  5
46
330
40
100
AcDbEntity
  8
LAYER_1
 62
     7
100
AcDbVertex
100
AcDb2dVertex
 10
35.9998697826667
 20
0.0
 30
0.0
  0
VERTEX
  5
47
330
40
100
AcDbEntity
  8
LAYER_1
 62
     7
100
AcDbVertex
100
AcDb2dVertex
 10
35.9998697826667
 20
38.00009222140276
 30
0.0
  0
VERTEX
  5
48
330
40
100
AcDbEntity
  8
LAYER_1
 62
     7
100
AcDbVertex
100
AcDb2dVertex
 10
43.49812010631297
 20
38.00009222140276
 30
0.0
  0
VERTEX
  5
49
330
40
100
AcDbEntity
  8
LAYER_1
 62
     7
100
AcDbVertex
100
AcDb2dVertex
 10
43.49812010631297
 20
78.00006237199304
 30
0.0
  0
SEQEND
  5
4A
330
40
100
AcDbEntity
  8
LAYER_1
  0
SPLINE
  5
4B
330
3C
100
AcDbEntity
  8
LAYER_1
 62
     7
100
AcDbSpline
210
0.0
220
0.0
230
1.0
 70
    11
 71
     3
 72
    17
 73
    13
 74
     0
 42
0.0000000001
 43
0.0000000001
 40
0.0
 40
0.0
 40
0.0
 40
0.0
 40
1.0
 40
1.0
 40
1.0
 40
2.0
 40
2.0
 40
2.0
 40
3.0
 40
3.0
 40
3.0
 40
4.0
 40
4.0
 40
4.0
 40
4.0
 10
7.000089516479145
 20
67.49992809727432
 30
0.0
 10
7.000089516479145
 20
66.39543048470323
 30
0.0
 10
6.104709199862712
 20
65.5000501680868
 30
0.0
 10
5.000211587291614
 20
65.5000501680868
 30
0.0
 10
3.895541719946253
 20
65.5000501680868
 30
0.0
 10
3.000161403329821
 20
66.39543048470323
 30
0.0
 10
3.000161403329821
 20
67.49992809727432
 30
0.0
 10
3.000161403329821
 20
68.60459796461969
 30
0.0
 10
3.895541719946253
 20
69.49997828123612
 30
0.0
 10
5.000211587291614
 20
69.49997828123612
 30
0.0
 10
6.104709199862712
 20
69.49997828123612
 30
0.0
 10
7.000089516479145
 20
68.60459796461969
 30
0.0
 10
7.000089516479145
 20
67.49992809727432
 30
0.0
  0
SPLINE
  5
4C
330
3C
100
AcDbEntity
  8
LAYER_1
 62
     7
100
AcDbSpline
210
0.0
220
0.0
230
1.0
 70
    11
 71
     3
 72
    17
 73
    13
 74
     0
 42
0.0000000001
 43
0.0000000001
 40
0.0
 40
0.0
 40
0.0
 40
0.0
 40
1.0
 40
1.0
 40
1.0
 40
2.0
 40
2.0
 40
2.0
 40
3.0
 40
3.0
 40
3.0
 40
4.0
 40
4.0
 40
4.0
 40
4.0
 10
8.750198022986062
 20
67.49975584250006
 30
0.0
 10
8.750198022986062
 20
65.42890894631638
 30
0.0
 10
7.071230738249554
 20
63.74994166157988
 30
0.0
 10
5.000211587291614
 20
63.74994166157988
 30
0.0
 10
2.929020181559412
 20
63.74994166157988
 30
0.0
 10
1.250052896822903
 20
65.42890894631638
 30
0.0
 10
1.250052896822903
 20
67.49975584250006
 30
0.0
 10
1.250052896822903
 20
69.57111950300653
 30
0.0
 10
2.929020181559412
 20
71.25008678774304
 30
0.0
 10
5.000211587291614
 20
71.25008678774304
 30
0.0
 10
7.071230738249554
 20
71.25008678774304
 30
0.0
 10
8.750198022986062
 20
69.57111950300653
 30
0.0
 10
8.750198022986062
 20
67.49975584250006
 30
0.0
  0
SPLINE
  5
4D
330
3C
100
AcDbEntity
  8
LAYER_1
 62
     7
100
AcDbSpline
210
0.0
220
0.0
230
1.0
 70
    11
 71
     3
 72
    17
 73
    13
 74
     0
 42
0.0000000001
 43
0.0000000001
 40
0.0
 40
0.0
 40
0.0
 40
0.0
 40
1.0
 40
1.0
 40
1.0
 40
2.0
 40
2.0
 40
2.0
 40
3.0
 40
3.0
 40
3.0
 40
4.0
 40
4.0
 40
4.0
 40
4.0
 10
33.00005288888541
 20
67.49992809727432
 30
0.0
 10
33.00005288888541
 20
66.39543048470323
 30
0.0
 10
32.10432806272045
 20
65.5000501680868
 30
0.0
 10
31.00000270492361
 20
65.5000501680868
 30
0.0
 10
29.89533283757825
 20
65.5000501680868
 30
0.0
 10
28.99995252096182
 20
66.39543048470323
 30
0.0
 10
28.99995252096182
 20
67.49992809727432
 30
0.0
 10
28.99995252096182
 20
68.60459796461969
 30
0.0
 10
29.89533283757825
 20
69.49997828123612
 30
0.0
 10
31.00000270492361
 20
69.49997828123612
 30
0.0
 10
32.10432806272045
 20
69.49997828123612
 30
0.0
 10
33.00005288888541
 20
68.60459796461969
 30
0.0
 10
33.00005288888541
 20
67.49992809727432
 30
0.0
  0
SPLINE
  5
4E
330
3C
100
AcDbEntity
  8
LAYER_1
 62
     7
100
AcDbSpline
210
0.0
220
0.0
230
1.0
 70
    11
 71
     3
 72
    17
 73
    13
 74
     0
 42
0.0000000001
 43
0.0000000001
 40
0.0
 40
0.0
 40
0.0
 40
0.0
 40
1.0
 40
1.0
 40
1.0
 40
2.0
 40
2.0
 40
2.0
 40
3.0
 40
3.0
 40
3.0
 40
4.0
 40
4.0
 40
4.0
 40
4.0
 10
34.74998914061806
 20
67.49992809727432
 30
0.0
 10
34.74998914061806
 20
65.42890894631638
 30
0.0
 10
33.07050509155876
 20
63.75011391635414
 30
0.0
 10
31.00000270492361
 20
63.75011391635414
 30
0.0
 10
28.92881129919141
 20
63.75011391635414
 30
0.0
 10
27.25001626922916
 20
65.42890894631638
 30
0.0
 10
27.25001626922916
 20
67.49992809727432
 30
0.0
 10
27.25001626922916
 20
69.57111950300653
 30
0.0
 10
28.92881129919141
 20
71.24991453296877
 30
0.0
 10
31.00000270492361
 20
71.24991453296877
 30
0.0
 10
33.07050509155876
 20
71.24991453296877
 30
0.0
 10
34.74998914061806
 20
69.57111950300653
 30
0.0
 10
34.74998914061806
 20
67.49992809727432
 30
0.0
  0
SPLINE
  5
4F
330
3C
100
AcDbEntity
  8
LAYER_1
 62
     7
100
AcDbSpline
210
0.0
220
0.0
230
1.0
 70
    11
 71
     3
 72
    17
 73
    13
 74
     0
 42
0.0000000001
 43
0.0000000001
 40
0.0
 40
0.0
 40
0.0
 40
0.0
 40
1.0
 40
1.0
 40
1.0
 40
2.0
 40
2.0
 40
2.0
 40
3.0
 40
3.0
 40
3.0
 40
4.0
 40
4.0
 40
4.0
 40
4.0
 10
34.74998914061806
 20
10.49996201994445
 30
0.0
 10
34.74998914061806
 20
8.428770614212253
 30
0.0
 10
33.07050509155876
 20
6.749975584250007
 30
0.0
 10
31.00000270492361
 20
6.749975584250007
 30
0.0
 10
28.92881129919141
 20
6.749975584250007
 30
0.0
 10
27.25001626922916
 20
8.428770614212253
 30
0.0
 10
27.25001626922916
 20
10.49996201994445
 30
0.0
 10
27.25001626922916
 20
12.57080891612813
 30
0.0
 10
28.92881129919141
 20
14.25029296518743
 30
0.0
 10
31.00000270492361
 20
14.25029296518743
 30
0.0
 10
33.07050509155876
 20
14.25029296518743
 30
0.0
 10
34.74998914061806
 20
12.57080891612813
 30
0.0
 10
34.74998914061806
 20
10.49996201994445
 30
0.0
  0
SPLINE
  5
50
330
3C
100
AcDbEntity
  8
LAYER_1
 62
     7
100
AcDbSpline
210
0.0
220
0.0
230
1.0
 70
    11
 71
     3
 72
    17
 73
    13
 74
     0
 42
0.0000000001
 43
0.0000000001
 40
0.0
 40
0.0
 40
0.0
 40
0.0
 40
1.0
 40
1.0
 40
1.0
 40
2.0
 40
2.0
 40
2.0
 40
3.0
 40
3.0
 40
3.0
 40
4.0
 40
4.0
 40
4.0
 40
4.0
 10
33.00005288888541
 20
10.49996201994445
 30
0.0
 10
33.00005288888541
 20
9.395464407373357
 30
0.0
 10
32.10432806272045
 20
8.500084090756923
 30
0.0
 10
31.00000270492361
 20
8.500084090756923
 30
0.0
 10
29.89533283757825
 20
8.500084090756923
 30
0.0
 10
28.99995252096182
 20
9.395464407373357
 30
0.0
 10
28.99995252096182
 20
10.49996201994445
 30
0.0
 10
28.99995252096182
 20
11.60445963251555
 30
0.0
 10
29.89533283757825
 20
12.50018445868051
 30
0.0
 10
31.00000270492361
 20
12.50018445868051
 30
0.0
 10
32.10432806272045
 20
12.50018445868051
 30
0.0
 10
33.00005288888541
 20
11.60445963251555
 30
0.0
 10
33.00005288888541
 20
10.49996201994445
 30
0.0
  0
SPLINE
  5
51
330
3C
100
AcDbEntity
  8
LAYER_1
 62
     7
100
AcDbSpline
210
0.0
220
0.0
230
1.0
 70
    11
 71
     3
 72
    17
 73
    13
 74
     0
 42
0.0000000001
 43
0.0000000001
 40
0.0
 40
0.0
 40
0.0
 40
0.0
 40
1.0
 40
1.0
 40
1.0
 40
2.0
 40
2.0
 40
2.0
 40
3.0
 40
3.0
 40
3.0
 40
4.0
 40
4.0
 40
4.0
 40
4.0
 10
8.749853513437538
 20
10.49996201994445
 30
0.0
 10
8.749853513437538
 20
8.429459633309301
 30
0.0
 10
7.070369464378241
 20
6.749975584250007
 30
0.0
 10
4.999867077743089
 20
6.749975584250007
 30
0.0
 10
2.928675672010887
 20
6.749975584250007
 30
0.0
 10
1.249880642048641
 20
8.429459633309301
 30
0.0
 10
1.249880642048641
 20
10.49996201994445
 30
0.0
 10
1.249880642048641
 20
12.57149793522518
 30
0.0
 10
2.928675672010887
 20
14.25029296518743
 30
0.0
 10
4.999867077743089
 20
14.25029296518743
 30
0.0
 10
7.070369464378241
 20
14.25029296518743
 30
0.0
 10
8.749853513437538
 20
12.57149793522518
 30
0.0
 10
8.749853513437538
 20
10.49996201994445
 30
0.0
  0
SPLINE
  5
52
330
3C
100
AcDbEntity
  8
LAYER_1
 62
     7
100
AcDbSpline
210
0.0
220
0.0
230
1.0
 70
    11
 71
     3
 72
    17
 73
    13
 74
     0
 42
0.0000000001
 43
0.0000000001
 40
0.0
 40
0.0
 40
0.0
 40
0.0
 40
1.0
 40
1.0
 40
1.0
 40
2.0
 40
2.0
 40
2.0
 40
3.0
 40
3.0
 40
3.0
 40
4.0
 40
4.0
 40
4.0
 40
4.0
 10
6.999917261704882
 20
10.49996201994445
 30
0.0
 10
6.999917261704882
 20
9.395808916921881
 30
0.0
 10
6.104192435539924
 20
8.500084090756923
 30
0.0
 10
4.999867077743089
 20
8.500084090756923
 30
0.0
 10
3.895197210397729
 20
8.500084090756923
 30
0.0
 10
2.999816893781296
 20
9.395808916921881
 30
0.0
 10
2.999816893781296
 20
10.49996201994445
 30
0.0
 10
2.999816893781296
 20
11.60480414206408
 30
0.0
 10
3.895197210397729
 20
12.50018445868051
 30
0.0
 10
4.999867077743089
 20
12.50018445868051
 30
0.0
 10
6.104192435539924
 20
12.50018445868051
 30
0.0
 10
6.999917261704882
 20
11.60480414206408
 30
0.0
 10
6.999917261704882
 20
10.49996201994445
 30
0.0
  0
SPLINE
  5
53
330
3C
100
AcDbEntity
  8
LAYER_1
 62
     7
100
AcDbSpline
210
0.0
220
0.0
230
1.0
 70
    11
 71
     3
 72
    17
 73
    13
 74
     0
 42
0.0000000001
 43
0.0000000001
 40
0.0
 40
0.0
 40
0.0
 40
0.0
 40
1.0
 40
1.0
 40
1.0
 40
2.0
 40
2.0
 40
2.0
 40
3.0
 40
3.0
 40
3.0
 40
4.0
 40
4.0
 40
4.0
 40
4.0
 10
20.4998684302049
 20
11.99995659422223
 30
0.0
 10
20.4998684302049
 20
10.6191623237341
 30
0.0
 10
19.38055690704722
 20
9.499850800576427
 30
0.0
 10
17.99993489133335
 20
9.499850800576427
 30
0.0
 10
16.61931287561948
 20
9.499850800576427
 30
0.0
 10
15.50000135246181
 20
10.6191623237341
 30
0.0
 10
15.50000135246181
 20
11.99995659422223
 30
0.0
 10
15.50000135246181
 20
13.38075086471037
 30
0.0
 10
16.61931287561948
 20
14.49971787831952
 30
0.0
 10
17.99993489133335
 20
14.49971787831952
 30
0.0
 10
19.38055690704722
 20
14.49971787831952
 30
0.0
 10
20.4998684302049
 20
13.38075086471037
 30
0.0
 10
20.4998684302049
 20
11.99995659422223
 30
0.0
  0
SPLINE
  5
54
330
3C
100
AcDbEntity
  8
LAYER_1
 62
     7
100
AcDbSpline
210
0.0
220
0.0
230
1.0
 70
    11
 71
     3
 72
    17
 73
    13
 74
     0
 42
0.0000000001
 43
0.0000000001
 40
0.0
 40
0.0
 40
0.0
 40
0.0
 40
1.0
 40
1.0
 40
1.0
 40
2.0
 40
2.0
 40
2.0
 40
3.0
 40
3.0
 40
3.0
 40
4.0
 40
4.0
 40
4.0
 40
4.0
 10
22.49991861416669
 20
11.99995659422223
 30
0.0
 10
22.49991861416669
 20
9.514664711163
 30
0.0
 10
20.48505451961832
 20
7.499628361840371
 30
0.0
 10
17.99993489133335
 20
7.499628361840371
 30
0.0
 10
15.51481526304838
 20
7.499628361840371
 30
0.0
 10
13.49995116850001
 20
9.514664711163
 30
0.0
 10
13.49995116850001
 20
11.99995659422223
 30
0.0
 10
13.49995116850001
 20
14.48559298682999
 30
0.0
 10
15.51481526304838
 20
16.49994031705557
 30
0.0
 10
17.99993489133335
 20
16.49994031705557
 30
0.0
 10
20.48505451961832
 20
16.49994031705557
 30
0.0
 10
22.49991861416669
 20
14.48559298682999
 30
0.0
 10
22.49991861416669
 20
11.99995659422223
 30
0.0
  0
SPLINE
  5
55
330
3C
100
AcDbEntity
  8
LAYER_1
 62
     7
100
AcDbSpline
210
0.0
220
0.0
230
1.0
 70
    11
 71
     3
 72
    17
 73
    13
 74
     0
 42
0.0000000001
 43
0.0000000001
 40
0.0
 40
0.0
 40
0.0
 40
0.0
 40
1.0
 40
1.0
 40
1.0
 40
2.0
 40
2.0
 40
2.0
 40
3.0
 40
3.0
 40
3.0
 40
4.0
 40
4.0
 40
4.0
 40
4.0
 10
20.4998684302049
 20
31.99976941474311
 30
0.0
 10
20.4998684302049
 20
30.61897514425498
 30
0.0
 10
19.38055690704722
 20
29.49966362109731
 30
0.0
 10
17.99993489133335
 20
29.49966362109731
 30
0.0
 10
16.61931287561948
 20
29.49966362109731
 30
0.0
 10
15.50000135246181
 20
30.61897514425498
 30
0.0
 10
15.50000135246181
 20
31.99976941474311
 30
0.0
 10
15.50000135246181
 20
33.38056368523125
 30
0.0
 10
16.61931287561948
 20
34.4995306988404
 30
0.0
 10
17.99993489133335
 20
34.4995306988404
 30
0.0
 10
19.38055690704722
 20
34.4995306988404
 30
0.0
 10
20.4998684302049
 20
33.38056368523125
 30
0.0
 10
20.4998684302049
 20
31.99976941474311
 30
0.0
  0
SPLINE
  5
56
330
3C
100
AcDbEntity
  8
LAYER_1
 62
     7
100
AcDbSpline
210
0.0
220
0.0
230
1.0
 70
    11
 71
     3
 72
    17
 73
    13
 74
     0
 42
0.0000000001
 43
0.0000000001
 40
0.0
 40
0.0
 40
0.0
 40
0.0
 40
1.0
 40
1.0
 40
1.0
 40
2.0
 40
2.0
 40
2.0
 40
3.0
 40
3.0
 40
3.0
 40
4.0
 40
4.0
 40
4.0
 40
4.0
 10
22.49991861416669
 20
31.99994166951738
 30
0.0
 10
22.49991861416669
 20
29.51447753168388
 30
0.0
 10
20.48505451961832
 20
27.49961343713552
 30
0.0
 10
17.99993489133335
 20
27.49961343713552
 30
0.0
 10
15.51481526304838
 20
27.49961343713552
 30
0.0
 10
13.49995116850001
 20
29.51447753168388
 30
0.0
 10
13.49995116850001
 20
31.99994166951738
 30
0.0
 10
13.49995116850001
 20
34.48540580735087
 30
0.0
 10
15.51481526304838
 20
36.49958088280219
 30
0.0
 10
17.99993489133335
 20
36.49958088280219
 30
0.0
 10
20.48505451961832
 20
36.49958088280219
 30
0.0
 10
22.49991861416669
 20
34.48540580735087
 30
0.0
 10
22.49991861416669
 20
31.99994166951738
 30
0.0
  0
SPLINE
  5
57
330
3C
100
AcDbEntity
  8
LAYER_1
 62
     7
100
AcDbSpline
210
0.0
220
0.0
230
1.0
 70
    11
 71
     3
 72
    17
 73
    13
 74
     0
 42
0.0000000001
 43
0.0000000001
 40
0.0
 40
0.0
 40
0.0
 40
0.0
 40
1.0
 40
1.0
 40
1.0
 40
2.0
 40
2.0
 40
2.0
 40
3.0
 40
3.0
 40
3.0
 40
4.0
 40
4.0
 40
4.0
 40
4.0
 10
20.4998684302049
 20
51.99992674481252
 30
0.0
 10
20.4998684302049
 20
50.61913247432439
 30
0.0
 10
19.38055690704722
 20
49.49982095116671
 30
0.0
 10
17.99993489133335
 20
49.49982095116671
 30
0.0
 10
16.61931287561948
 20
49.49982095116671
 30
0.0
 10
15.50000135246181
 20
50.61913247432439
 30
0.0
 10
15.50000135246181
 20
51.99992674481252
 30
0.0
 10
15.50000135246181
 20
53.38072101530066
 30
0.0
 10
16.61931287561948
 20
54.4996880289098
 30
0.0
 10
17.99993489133335
 20
54.4996880289098
 30
0.0
 10
19.38055690704722
 20
54.4996880289098
 30
0.0
 10
20.4998684302049
 20
53.38072101530066
 30
0.0
 10
20.4998684302049
 20
51.99992674481252
 30
0.0
  0
SPLINE
  5
58
330
3C
100
AcDbEntity
  8
LAYER_1
 62
     7
100
AcDbSpline
210
0.0
220
0.0
230
1.0
 70
    11
 71
     3
 72
    17
 73
    13
 74
     0
 42
0.0000000001
 43
0.0000000001
 40
0.0
 40
0.0
 40
0.0
 40
0.0
 40
1.0
 40
1.0
 40
1.0
 40
2.0
 40
2.0
 40
2.0
 40
3.0
 40
3.0
 40
3.0
 40
4.0
 40
4.0
 40
4.0
 40
4.0
 10
22.49991861416669
 20
52.00009899958678
 30
0.0
 10
22.49991861416669
 20
49.51463486175329
 30
0.0
 10
20.48505451961832
 20
47.49977076720492
 30
0.0
 10
17.99993489133335
 20
47.49977076720492
 30
0.0
 10
15.51481526304838
 20
47.49977076720492
 30
0.0
 10
13.49995116850001
 20
49.51463486175329
 30
0.0
 10
13.49995116850001
 20
52.00009899958678
 30
0.0
 10
13.49995116850001
 20
54.48556313742028
 30
0.0
 10
15.51481526304838
 20
56.4997382128716
 30
0.0
 10
17.99993489133335
 20
56.4997382128716
 30
0.0
 10
20.48505451961832
 20
56.4997382128716
 30
0.0
 10
22.49991861416669
 20
54.48556313742028
 30
0.0
 10
22.49991861416669
 20
52.00009899958678
 30
0.0
  0
INSERT
  5
5A
330
3C
100
AcDbEntity
  8
LAYER_1
100
AcDbBlockReference
  2
BLOCK_3
 10
0.0
 20
0.0
 30
0.0
  0
INSERT
  5
60
330
3C
100
AcDbEntity
  8
LAYER_1
100
AcDbBlockReference
  2
BLOCK_4
 10
0.0
 20
0.0
 30
0.0
  0
INSERT
  5
66
330
3C
100
AcDbEntity
  8
LAYER_1
100
AcDbBlockReference
  2
BLOCK_5
 10
0.0
 20
0.0
 30
0.0
  0
INSERT
  5
6C
330
3C
100
AcDbEntity
  8
LAYER_1
100
AcDbBlockReference
  2
BLOCK_6
 10
0.0
 20
0.0
 30
0.0
  0
INSERT
  5
72
330
3C
100
AcDbEntity
  8
LAYER_1
100
AcDbBlockReference
  2
BLOCK_7
 10
0.0
 20
0.0
 30
0.0
  0
INSERT
  5
78
330
3C
100
AcDbEntity
  8
LAYER_1
100
AcDbBlockReference
  2
BLOCK_8
 10
0.0
 20
0.0
 30
0.0
  0
INSERT
  5
7E
330
3C
100
AcDbEntity
  8
LAYER_1
100
AcDbBlockReference
  2
BLOCK_9
 10
0.0
 20
0.0
 30
0.0
  0
INSERT
  5
84
330
3C
100
AcDbEntity
  8
LAYER_1
100
AcDbBlockReference
  2
BLOCK_10
 10
0.0
 20
0.0
 30
0.0
  0
SPLINE
  5
89
330
3C
100
AcDbEntity
  8
LAYER_1
 62
     7
100
AcDbSpline
210
0.0
220
0.0
230
1.0
 70
    11
 71
     3
 72
    32
 73
    28
 74
     0
 42
0.0000000001
 43
0.0000000001
 40
0.0
 40
0.0
 40
0.0
 40
0.0
 40
1.0
 40
1.0
 40
1.0
 40
2.0
 40
2.0
 40
2.0
 40
3.0
 40
3.0
 40
3.0
 40
4.0
 40
4.0
 40
4.0
 40
5.0
 40
5.0
 40
5.0
 40
6.0
 40
6.0
 40
6.0
 40
7.0
 40
7.0
 40
7.0
 40
8.0
 40
8.0
 40
8.0
 40
9.0
 40
9.0
 40
9.0
 40
9.0
 10
22.2587619301992
 20
56.90264212987157
 30
0.0
 10
23.62939316900585
 20
55.71115585629791
 30
0.0
 10
24.49996879812848
 20
53.9591525472741
 30
0.0
 10
24.49996879812848
 20
52.00009899958678
 30
0.0
 10
24.49996879812848
 20
48.41013724918219
 30
0.0
 10
21.58955213218942
 20
45.49989283801739
 30
0.0
 10
17.99993489133335
 20
45.49989283801739
 30
0.0
 10
14.41031765047728
 20
45.49989283801739
 30
0.0
 10
11.50007323931248
 20
48.41013724918219
 30
0.0
 10
11.50007323931248
 20
52.00009899958678
 30
0.0
 10
11.50007323931248
 20
53.9591525472741
 30
0.0
 10
12.37047661366085
 20
55.71115585629791
 30
0.0
 10
13.7411078524675
 20
56.90264212987157
 30
0.0
 10
13.7411078524675
 20
56.90264212987157
 30
0.0
 10
2.999989148555558
 20
56.90264212987157
 30
0.0
 10
2.999989148555558
 20
56.90264212987157
 30
0.0
 10
2.999989148555558
 20
56.90264212987157
 30
0.0
 10
2.999989148555558
 20
21.09742024212148
 30
0.0
 10
2.999989148555558
 20
21.09742024212148
 30
0.0
 10
2.999989148555558
 20
21.09742024212148
 30
0.0
 10
32.99988063411114
 20
21.09742024212148
 30
0.0
 10
32.99988063411114
 20
21.09742024212148
 30
0.0
 10
32.99988063411114
 20
21.09742024212148
 30
0.0
 10
32.99988063411114
 20
56.90264212987157
 30
0.0
 10
32.99988063411114
 20
56.90264212987157
 30
0.0
 10
32.99988063411114
 20
56.90264212987157
 30
0.0
 10
22.2587619301992
 20
56.90264212987157
 30
0.0
 10
22.2587619301992
 20
56.90264212987157
 30
0.0
  0
SPLINE
  5
8A
330
3C
100
AcDbEntity
  8
LAYER_1
 62
     7
100
AcDbSpline
210
0.0
220
0.0
230
1.0
 70
    11
 71
     3
 72
    17
 73
    13
 74
     0
 42
0.0000000001
 43
0.0000000001
 40
0.0
 40
0.0
 40
0.0
 40
0.0
 40
1.0
 40
1.0
 40
1.0
 40
2.0
 40
2.0
 40
2.0
 40
3.0
 40
3.0
 40
3.0
 40
4.0
 40
4.0
 40
4.0
 40
4.0
 10
17.99993489133335
 20
25.49973550794799
 30
0.0
 10
14.41031765047728
 20
25.49973550794799
 30
0.0
 10
11.50007323931248
 20
28.40997991911279
 30
0.0
 10
11.50007323931248
 20
31.99994166951738
 30
0.0
 10
11.50007323931248
 20
35.59007567469623
 30
0.0
 10
14.41031765047728
 20
38.49945881198972
 30
0.0
 10
17.99993489133335
 20
38.49945881198972
 30
0.0
 10
21.58955213218942
 20
38.49945881198972
 30
0.0
 10
24.49996879812848
 20
35.59007567469623
 30
0.0
 10
24.49996879812848
 20
31.99994166951738
 30
0.0
 10
24.49996879812848
 20
28.40997991911279
 30
0.0
 10
21.58955213218942
 20
25.49973550794799
 30
0.0
 10
17.99993489133335
 20
25.49973550794799
 30
0.0
  0
ENDBLK
  5
3F
330
3C
100
AcDbEntity
  8
0
100
AcDbBlockEnd
  0
BLOCK
  5
5B
330
59
100
AcDbEntity
  8
0
100
AcDbBlockBegin
  2
BLOCK_3
 70
     0
 71
     0
 10
0.0
 20
0.0
 30
0.0
  3
BLOCK_3
  1

  0
SPLINE
  5
5D
330
59
100
AcDbEntity
  8
LAYER_1
 62
     7
100
AcDbSpline
210
0.0
220
0.0
230
1.0
 70
    11
 71
     3
 72
    17
 73
    13
 74
     0
 42
0.0000000001
 43
0.0000000001
 40
0.0
 40
0.0
 40
0.0
 40
0.0
 40
1.0
 40
1.0
 40
1.0
 40
2.0
 40
2.0
 40
2.0
 40
3.0
 40
3.0
 40
3.0
 40
4.0
 40
4.0
 40
4.0
 40
4.0
 10
41.00077038905536
 20
72.99795598218454
 30
0.0
 10
41.00077038905536
 20
72.16923826320769
 30
0.0
 10
40.32897676943165
 20
71.49796140790676
 30
0.0
 10
39.50112032432611
 20
71.49796140790676
 30
0.0
 10
38.672230350575
 20
71.49796140790676
 30
0.0
 10
38.00043673095128
 20
72.16923826320769
 30
0.0
 10
38.00043673095128
 20
72.99795598218454
 30
0.0
 10
38.00043673095128
 20
73.8261569368386
 30
0.0
 10
38.672230350575
 20
74.49743379213953
 30
0.0
 10
39.50112032432611
 20
74.49743379213953
 30
0.0
 10
40.32897676943165
 20
74.49743379213953
 30
0.0
 10
41.00077038905536
 20
73.8261569368386
 30
0.0
 10
41.00077038905536
 20
72.99795598218454
 30
0.0
  0
SPLINE
  5
5E
330
59
100
AcDbEntity
  8
LAYER_1
 62
     7
100
AcDbSpline
210
0.0
220
0.0
230
1.0
 70
    11
 71
     3
 72
    17
 73
    13
 74
     0
 42
0.0000000001
 43
0.0000000001
 40
0.0
 40
0.0
 40
0.0
 40
0.0
 40
1.0
 40
1.0
 40
1.0
 40
2.0
 40
2.0
 40
2.0
 40
3.0
 40
3.0
 40
3.0
 40
4.0
 40
4.0
 40
4.0
 40
4.0
 10
42.50145398243019
 20
72.9981282369588
 30
0.0
 10
42.50145398243019
 20
71.34052054423084
 30
0.0
 10
41.15752223363423
 20
69.99762232408045
 30
0.0
 10
39.50180934342316
 20
69.99762232408045
 30
0.0
 10
37.84368488637242
 20
69.99762232408045
 30
0.0
 10
36.49975313757646
 20
71.34052054423084
 30
0.0
 10
36.49975313757646
 20
72.9981282369588
 30
0.0
 10
36.49975313757646
 20
74.65487465581545
 30
0.0
 10
37.84368488637242
 20
75.99777287596584
 30
0.0
 10
39.50180934342316
 20
75.99777287596584
 30
0.0
 10
41.15752223363423
 20
75.99777287596584
 30
0.0
 10
42.50145398243019
 20
74.65487465581545
 30
0.0
 10
42.50145398243019
 20
72.9981282369588
 30
0.0
  0
ENDBLK
  5
5C
330
59
100
AcDbEntity
  8
0
100
AcDbBlockEnd
  0
BLOCK
  5
61
330
5F
100
AcDbEntity
  8
0
100
AcDbBlockBegin
  2
BLOCK_4
 70
     0
 71
     0
 10
0.0
 20
0.0
 30
0.0
  3
BLOCK_4
  1

  0
SPLINE
  5
63
330
5F
100
AcDbEntity
  8
LAYER_1
 62
     7
100
AcDbSpline
210
0.0
220
0.0
230
1.0
 70
    11
 71
     3
 72
    17
 73
    13
 74
     0
 42
0.0000000001
 43
0.0000000001
 40
0.0
 40
0.0
 40
0.0
 40
0.0
 40
1.0
 40
1.0
 40
1.0
 40
2.0
 40
2.0
 40
2.0
 40
3.0
 40
3.0
 40
3.0
 40
4.0
 40
4.0
 40
4.0
 40
4.0
 10
41.00077038905536
 20
62.9980495719241
 30
0.0
 10
41.00077038905536
 20
62.16933185294725
 30
0.0
 10
40.32897676943165
 20
61.49805499764632
 30
0.0
 10
39.50112032432611
 20
61.49805499764632
 30
0.0
 10
38.672230350575
 20
61.49805499764632
 30
0.0
 10
38.00043673095128
 20
62.16933185294725
 30
0.0
 10
38.00043673095128
 20
62.9980495719241
 30
0.0
 10
38.00043673095128
 20
63.82625052657816
 30
0.0
 10
38.672230350575
 20
64.4975273818791
 30
0.0
 10
39.50112032432611
 20
64.4975273818791
 30
0.0
 10
40.32897676943165
 20
64.4975273818791
 30
0.0
 10
41.00077038905536
 20
63.82625052657816
 30
0.0
 10
41.00077038905536
 20
62.9980495719241
 30
0.0
  0
SPLINE
  5
64
330
5F
100
AcDbEntity
  8
LAYER_1
 62
     7
100
AcDbSpline
210
0.0
220
0.0
230
1.0
 70
    11
 71
     3
 72
    17
 73
    13
 74
     0
 42
0.0000000001
 43
0.0000000001
 40
0.0
 40
0.0
 40
0.0
 40
0.0
 40
1.0
 40
1.0
 40
1.0
 40
2.0
 40
2.0
 40
2.0
 40
3.0
 40
3.0
 40
3.0
 40
4.0
 40
4.0
 40
4.0
 40
4.0
 10
42.50145398243019
 20
62.99822182669836
 30
0.0
 10
42.50145398243019
 20
61.3406141339704
 30
0.0
 10
41.15752223363423
 20
59.99771591382002
 30
0.0
 10
39.50180934342316
 20
59.99771591382002
 30
0.0
 10
37.84368488637242
 20
59.99771591382002
 30
0.0
 10
36.49975313757646
 20
61.3406141339704
 30
0.0
 10
36.49975313757646
 20
62.99822182669836
 30
0.0
 10
36.49975313757646
 20
64.65496824555501
 30
0.0
 10
37.84368488637242
 20
65.9978664657054
 30
0.0
 10
39.50180934342316
 20
65.9978664657054
 30
0.0
 10
41.15752223363423
 20
65.9978664657054
 30
0.0
 10
42.50145398243019
 20
64.65496824555501
 30
0.0
 10
42.50145398243019
 20
62.99822182669836
 30
0.0
  0
ENDBLK
  5
62
330
5F
100
AcDbEntity
  8
0
100
AcDbBlockEnd
  0
BLOCK
  5
67
330
65
100
AcDbEntity
  8
0
100
AcDbBlockBegin
  2
BLOCK_5
 70
     0
 71
     0
 10
0.0
 20
0.0
 30
0.0
  3
BLOCK_5
  1

  0
SPLINE
  5
69
330
65
100
AcDbEntity
  8
LAYER_1
 62
     7
100
AcDbSpline
210
0.0
220
0.0
230
1.0
 70
    11
 71
     3
 72
    17
 73
    13
 74
     0
 42
0.0000000001
 43
0.0000000001
 40
0.0
 40
0.0
 40
0.0
 40
0.0
 40
1.0
 40
1.0
 40
1.0
 40
2.0
 40
2.0
 40
2.0
 40
3.0
 40
3.0
 40
3.0
 40
4.0
 40
4.0
 40
4.0
 40
4.0
 10
41.00077038905536
 20
52.9979709068894
 30
0.0
 10
41.00077038905536
 20
52.16925318791255
 30
0.0
 10
40.32897676943165
 20
51.49797633261162
 30
0.0
 10
39.50112032432611
 20
51.49797633261162
 30
0.0
 10
38.672230350575
 20
51.49797633261162
 30
0.0
 10
38.00043673095128
 20
52.16925318791255
 30
0.0
 10
38.00043673095128
 20
52.9979709068894
 30
0.0
 10
38.00043673095128
 20
53.82617186154346
 30
0.0
 10
38.672230350575
 20
54.49744871684439
 30
0.0
 10
39.50112032432611
 20
54.49744871684439
 30
0.0
 10
40.32897676943165
 20
54.49744871684439
 30
0.0
 10
41.00077038905536
 20
53.82617186154346
 30
0.0
 10
41.00077038905536
 20
52.9979709068894
 30
0.0
  0
SPLINE
  5
6A
330
65
100
AcDbEntity
  8
LAYER_1
 62
     7
100
AcDbSpline
210
0.0
220
0.0
230
1.0
 70
    11
 71
     3
 72
    17
 73
    13
 74
     0
 42
0.0000000001
 43
0.0000000001
 40
0.0
 40
0.0
 40
0.0
 40
0.0
 40
1.0
 40
1.0
 40
1.0
 40
2.0
 40
2.0
 40
2.0
 40
3.0
 40
3.0
 40
3.0
 40
4.0
 40
4.0
 40
4.0
 40
4.0
 10
42.50145398243019
 20
52.99814316166366
 30
0.0
 10
42.50145398243019
 20
51.3405354689357
 30
0.0
 10
41.15752223363423
 20
49.99763724878532
 30
0.0
 10
39.50180934342316
 20
49.99763724878532
 30
0.0
 10
37.84368488637242
 20
49.99763724878532
 30
0.0
 10
36.49975313757646
 20
51.3405354689357
 30
0.0
 10
36.49975313757646
 20
52.99814316166366
 30
0.0
 10
36.49975313757646
 20
54.6548895805203
 30
0.0
 10
37.84368488637242
 20
55.99778780067069
 30
0.0
 10
39.50180934342316
 20
55.99778780067069
 30
0.0
 10
41.15752223363423
 20
55.99778780067069
 30
0.0
 10
42.50145398243019
 20
54.6548895805203
 30
0.0
 10
42.50145398243019
 20
52.99814316166366
 30
0.0
  0
ENDBLK
  5
68
330
65
100
AcDbEntity
  8
0
100
AcDbBlockEnd
  0
BLOCK
  5
6D
330
6B
100
AcDbEntity
  8
0
100
AcDbBlockBegin
  2
BLOCK_6
 70
     0
 71
     0
 10
0.0
 20
0.0
 30
0.0
  3
BLOCK_6
  1

  0
SPLINE
  5
6F
330
6B
100
AcDbEntity
  8
LAYER_1
 62
     7
100
AcDbSpline
210
0.0
220
0.0
230
1.0
 70
    11
 71
     3
 72
    17
 73
    13
 74
     0
 42
0.0000000001
 43
0.0000000001
 40
0.0
 40
0.0
 40
0.0
 40
0.0
 40
1.0
 40
1.0
 40
1.0
 40
2.0
 40
2.0
 40
2.0
 40
3.0
 40
3.0
 40
3.0
 40
4.0
 40
4.0
 40
4.0
 40
4.0
 10
41.00077038905536
 20
42.99789224185469
 30
0.0
 10
41.00077038905536
 20
42.16917452287785
 30
0.0
 10
40.32897676943165
 20
41.49789766757691
 30
0.0
 10
39.50112032432611
 20
41.49789766757691
 30
0.0
 10
38.672230350575
 20
41.49789766757691
 30
0.0
 10
38.00043673095128
 20
42.16917452287785
 30
0.0
 10
38.00043673095128
 20
42.99789224185469
 30
0.0
 10
38.00043673095128
 20
43.82609319650876
 30
0.0
 10
38.672230350575
 20
44.49737005180969
 30
0.0
 10
39.50112032432611
 20
44.49737005180969
 30
0.0
 10
40.32897676943165
 20
44.49737005180969
 30
0.0
 10
41.00077038905536
 20
43.82609319650876
 30
0.0
 10
41.00077038905536
 20
42.99789224185469
 30
0.0
  0
SPLINE
  5
70
330
6B
100
AcDbEntity
  8
LAYER_1
 62
     7
100
AcDbSpline
210
0.0
220
0.0
230
1.0
 70
    11
 71
     3
 72
    17
 73
    13
 74
     0
 42
0.0000000001
 43
0.0000000001
 40
0.0
 40
0.0
 40
0.0
 40
0.0
 40
1.0
 40
1.0
 40
1.0
 40
2.0
 40
2.0
 40
2.0
 40
3.0
 40
3.0
 40
3.0
 40
4.0
 40
4.0
 40
4.0
 40
4.0
 10
42.50145398243019
 20
42.99806449662896
 30
0.0
 10
42.50145398243019
 20
41.340456803901
 30
0.0
 10
41.15752223363423
 20
39.99755858375061
 30
0.0
 10
39.50180934342316
 20
39.99755858375061
 30
0.0
 10
37.84368488637242
 20
39.99755858375061
 30
0.0
 10
36.49975313757646
 20
41.340456803901
 30
0.0
 10
36.49975313757646
 20
42.99806449662896
 30
0.0
 10
36.49975313757646
 20
44.6548109154856
 30
0.0
 10
37.84368488637242
 20
45.99770913563599
 30
0.0
 10
39.50180934342316
 20
45.99770913563599
 30
0.0
 10
41.15752223363423
 20
45.99770913563599
 30
0.0
 10
42.50145398243019
 20
44.6548109154856
 30
0.0
 10
42.50145398243019
 20
42.99806449662896
 30
0.0
  0
ENDBLK
  5
6E
330
6B
100
AcDbEntity
  8
0
100
AcDbBlockEnd
  0
BLOCK
  5
73
330
71
100
AcDbEntity
  8
0
100
AcDbBlockBegin
  2
BLOCK_7
 70
     0
 71
     0
 10
0.0
 20
0.0
 30
0.0
  3
BLOCK_7
  1

  0
SPLINE
  5
75
330
71
100
AcDbEntity
  8
LAYER_1
 62
     7
100
AcDbSpline
210
0.0
220
0.0
230
1.0
 70
    11
 71
     3
 72
    17
 73
    13
 74
     0
 42
0.0000000001
 43
0.0000000001
 40
0.0
 40
0.0
 40
0.0
 40
0.0
 40
1.0
 40
1.0
 40
1.0
 40
2.0
 40
2.0
 40
2.0
 40
3.0
 40
3.0
 40
3.0
 40
4.0
 40
4.0
 40
4.0
 40
4.0
 10
41.00077038905536
 20
72.99795598218454
 30
0.0
 10
41.00077038905536
 20
72.16923826320769
 30
0.0
 10
40.32897676943165
 20
71.49796140790676
 30
0.0
 10
39.50112032432611
 20
71.49796140790676
 30
0.0
 10
38.672230350575
 20
71.49796140790676
 30
0.0
 10
38.00043673095128
 20
72.16923826320769
 30
0.0
 10
38.00043673095128
 20
72.99795598218454
 30
0.0
 10
38.00043673095128
 20
73.8261569368386
 30
0.0
 10
38.672230350575
 20
74.49743379213953
 30
0.0
 10
39.50112032432611
 20
74.49743379213953
 30
0.0
 10
40.32897676943165
 20
74.49743379213953
 30
0.0
 10
41.00077038905536
 20
73.8261569368386
 30
0.0
 10
41.00077038905536
 20
72.99795598218454
 30
0.0
  0
SPLINE
  5
76
330
71
100
AcDbEntity
  8
LAYER_1
 62
     7
100
AcDbSpline
210
0.0
220
0.0
230
1.0
 70
    11
 71
     3
 72
    17
 73
    13
 74
     0
 42
0.0000000001
 43
0.0000000001
 40
0.0
 40
0.0
 40
0.0
 40
0.0
 40
1.0
 40
1.0
 40
1.0
 40
2.0
 40
2.0
 40
2.0
 40
3.0
 40
3.0
 40
3.0
 40
4.0
 40
4.0
 40
4.0
 40
4.0
 10
42.50145398243019
 20
72.9981282369588
 30
0.0
 10
42.50145398243019
 20
71.34052054423084
 30
0.0
 10
41.15752223363423
 20
69.99762232408045
 30
0.0
 10
39.50180934342316
 20
69.99762232408045
 30
0.0
 10
37.84368488637242
 20
69.99762232408045
 30
0.0
 10
36.49975313757646
 20
71.34052054423084
 30
0.0
 10
36.49975313757646
 20
72.9981282369588
 30
0.0
 10
36.49975313757646
 20
74.65487465581545
 30
0.0
 10
37.84368488637242
 20
75.99777287596584
 30
0.0
 10
39.50180934342316
 20
75.99777287596584
 30
0.0
 10
41.15752223363423
 20
75.99777287596584
 30
0.0
 10
42.50145398243019
 20
74.65487465581545
 30
0.0
 10
42.50145398243019
 20
72.9981282369588
 30
0.0
  0
ENDBLK
  5
74
330
71
100
AcDbEntity
  8
0
100
AcDbBlockEnd
  0
BLOCK
  5
79
330
77
100
AcDbEntity
  8
0
100
AcDbBlockBegin
  2
BLOCK_8
 70
     0
 71
     0
 10
0.0
 20
0.0
 30
0.0
  3
BLOCK_8
  1

  0
SPLINE
  5
7B
330
77
100
AcDbEntity
  8
LAYER_1
 62
     7
100
AcDbSpline
210
0.0
220
0.0
230
1.0
 70
    11
 71
     3
 72
    17
 73
    13
 74
     0
 42
0.0000000001
 43
0.0000000001
 40
0.0
 40
0.0
 40
0.0
 40
0.0
 40
1.0
 40
1.0
 40
1.0
 40
2.0
 40
2.0
 40
2.0
 40
3.0
 40
3.0
 40
3.0
 40
4.0
 40
4.0
 40
4.0
 40
4.0
 10
41.00077038905536
 20
62.9980495719241
 30
0.0
 10
41.00077038905536
 20
62.16933185294725
 30
0.0
 10
40.32897676943165
 20
61.49805499764632
 30
0.0
 10
39.50112032432611
 20
61.49805499764632
 30
0.0
 10
38.672230350575
 20
61.49805499764632
 30
0.0
 10
38.00043673095128
 20
62.16933185294725
 30
0.0
 10
38.00043673095128
 20
62.9980495719241
 30
0.0
 10
38.00043673095128
 20
63.82625052657816
 30
0.0
 10
38.672230350575
 20
64.4975273818791
 30
0.0
 10
39.50112032432611
 20
64.4975273818791
 30
0.0
 10
40.32897676943165
 20
64.4975273818791
 30
0.0
 10
41.00077038905536
 20
63.82625052657816
 30
0.0
 10
41.00077038905536
 20
62.9980495719241
 30
0.0
  0
SPLINE
  5
7C
330
77
100
AcDbEntity
  8
LAYER_1
 62
     7
100
AcDbSpline
210
0.0
220
0.0
230
1.0
 70
    11
 71
     3
 72
    17
 73
    13
 74
     0
 42
0.0000000001
 43
0.0000000001
 40
0.0
 40
0.0
 40
0.0
 40
0.0
 40
1.0
 40
1.0
 40
1.0
 40
2.0
 40
2.0
 40
2.0
 40
3.0
 40
3.0
 40
3.0
 40
4.0
 40
4.0
 40
4.0
 40
4.0
 10
42.50145398243019
 20
62.99822182669836
 30
0.0
 10
42.50145398243019
 20
61.3406141339704
 30
0.0
 10
41.15752223363423
 20
59.99771591382002
 30
0.0
 10
39.50180934342316
 20
59.99771591382002
 30
0.0
 10
37.84368488637242
 20
59.99771591382002
 30
0.0
 10
36.49975313757646
 20
61.3406141339704
 30
0.0
 10
36.49975313757646
 20
62.99822182669836
 30
0.0
 10
36.49975313757646
 20
64.65496824555501
 30
0.0
 10
37.84368488637242
 20
65.9978664657054
 30
0.0
 10
39.50180934342316
 20
65.9978664657054
 30
0.0
 10
41.15752223363423
 20
65.9978664657054
 30
0.0
 10
42.50145398243019
 20
64.65496824555501
 30
0.0
 10
42.50145398243019
 20
62.99822182669836
 30
0.0
  0
ENDBLK
  5
7A
330
77
100
AcDbEntity
  8
0
100
AcDbBlockEnd
  0
BLOCK
  5
7F
330
7D
100
AcDbEntity
  8
0
100
AcDbBlockBegin
  2
BLOCK_9
 70
     0
 71
     0
 10
0.0
 20
0.0
 30
0.0
  3
BLOCK_9
  1

  0
SPLINE
  5
81
330
7D
100
AcDbEntity
  8
LAYER_1
 62
     7
100
AcDbSpline
210
0.0
220
0.0
230
1.0
 70
    11
 71
     3
 72
    17
 73
    13
 74
     0
 42
0.0000000001
 43
0.0000000001
 40
0.0
 40
0.0
 40
0.0
 40
0.0
 40
1.0
 40
1.0
 40
1.0
 40
2.0
 40
2.0
 40
2.0
 40
3.0
 40
3.0
 40
3.0
 40
4.0
 40
4.0
 40
4.0
 40
4.0
 10
41.00077038905536
 20
52.9979709068894
 30
0.0
 10
41.00077038905536
 20
52.16925318791255
 30
0.0
 10
40.32897676943165
 20
51.49797633261162
 30
0.0
 10
39.50112032432611
 20
51.49797633261162
 30
0.0
 10
38.672230350575
 20
51.49797633261162
 30
0.0
 10
38.00043673095128
 20
52.16925318791255
 30
0.0
 10
38.00043673095128
 20
52.9979709068894
 30
0.0
 10
38.00043673095128
 20
53.82617186154346
 30
0.0
 10
38.672230350575
 20
54.49744871684439
 30
0.0
 10
39.50112032432611
 20
54.49744871684439
 30
0.0
 10
40.32897676943165
 20
54.49744871684439
 30
0.0
 10
41.00077038905536
 20
53.82617186154346
 30
0.0
 10
41.00077038905536
 20
52.9979709068894
 30
0.0
  0
SPLINE
  5
82
330
7D
100
AcDbEntity
  8
LAYER_1
 62
     7
100
AcDbSpline
210
0.0
220
0.0
230
1.0
 70
    11
 71
     3
 72
    17
 73
    13
 74
     0
 42
0.0000000001
 43
0.0000000001
 40
0.0
 40
0.0
 40
0.0
 40
0.0
 40
1.0
 40
1.0
 40
1.0
 40
2.0
 40
2.0
 40
2.0
 40
3.0
 40
3.0
 40
3.0
 40
4.0
 40
4.0
 40
4.0
 40
4.0
 10
42.50145398243019
 20
52.99814316166366
 30
0.0
 10
42.50145398243019
 20
51.3405354689357
 30
0.0
 10
41.15752223363423
 20
49.99763724878532
 30
0.0
 10
39.50180934342316
 20
49.99763724878532
 30
0.0
 10
37.84368488637242
 20
49.99763724878532
 30
0.0
 10
36.49975313757646
 20
51.3405354689357
 30
0.0
 10
36.49975313757646
 20
52.99814316166366
 30
0.0
 10
36.49975313757646
 20
54.6548895805203
 30
0.0
 10
37.84368488637242
 20
55.99778780067069
 30
0.0
 10
39.50180934342316
 20
55.99778780067069
 30
0.0
 10
41.15752223363423
 20
55.99778780067069
 30
0.0
 10
42.50145398243019
 20
54.6548895805203
 30
0.0
 10
42.50145398243019
 20
52.99814316166366
 30
0.0
  0
ENDBLK
  5
80
330
7D
100
AcDbEntity
  8
0
100
AcDbBlockEnd
  0
BLOCK
  5
85
330
83
100
AcDbEntity
  8
0
100
AcDbBlockBegin
  2
BLOCK_10
 70
     0
 71
     0
 10
0.0
 20
0.0
 30
0.0
  3
BLOCK_10
  1

  0
SPLINE
  5
87
330
83
100
AcDbEntity
  8
LAYER_1
 62
     7
100
AcDbSpline
210
0.0
220
0.0
230
1.0
 70
    11
 71
     3
 72
    17
 73
    13
 74
     0
 42
0.0000000001
 43
0.0000000001
 40
0.0
 40
0.0
 40
0.0
 40
0.0
 40
1.0
 40
1.0
 40
1.0
 40
2.0
 40
2.0
 40
2.0
 40
3.0
 40
3.0
 40
3.0
 40
4.0
 40
4.0
 40
4.0
 40
4.0
 10
41.00077038905536
 20
42.99789224185469
 30
0.0
 10
41.00077038905536
 20
42.16917452287785
 30
0.0
 10
40.32897676943165
 20
41.49789766757691
 30
0.0
 10
39.50112032432611
 20
41.49789766757691
 30
0.0
 10
38.672230350575
 20
41.49789766757691
 30
0.0
 10
38.00043673095128
 20
42.16917452287785
 30
0.0
 10
38.00043673095128
 20
42.99789224185469
 30
0.0
 10
38.00043673095128
 20
43.82609319650876
 30
0.0
 10
38.672230350575
 20
44.49737005180969
 30
0.0
 10
39.50112032432611
 20
44.49737005180969
 30
0.0
 10
40.32897676943165
 20
44.49737005180969
 30
0.0
 10
41.00077038905536
 20
43.82609319650876
 30
0.0
 10
41.00077038905536
 20
42.99789224185469
 30
0.0
  0
SPLINE
  5
88
330
83
100
AcDbEntity
  8
LAYER_1
 62
     7
100
AcDbSpline
210
0.0
220
0.0
230
1.0
 70
    11
 71
     3
 72
    17
 73
    13
 74
     0
 42
0.0000000001
 43
0.0000000001
 40
0.0
 40
0.0
 40
0.0
 40
0.0
 40
1.0
 40
1.0
 40
1.0
 40
2.0
 40
2.0
 40
2.0
 40
3.0
 40
3.0
 40
3.0
 40
4.0
 40
4.0
 40
4.0
 40
4.0
 10
42.50145398243019
 20
42.99806449662896
 30
0.0
 10
42.50145398243019
 20
41.340456803901
 30
0.0
 10
41.15752223363423
 20
39.99755858375061
 30
0.0
 10
39.50180934342316
 20
39.99755858375061
 30
0.0
 10
37.84368488637242
 20
39.99755858375061
 30
0.0
 10
36.49975313757646
 20
41.340456803901
 30
0.0
 10
36.49975313757646
 20
42.99806449662896
 30
0.0
 10
36.49975313757646
 20
44.6548109154856
 30
0.0
 10
37.84368488637242
 20
45.99770913563599
 30
0.0
 10
39.50180934342316
 20
45.99770913563599
 30
0.0
 10
41.15752223363423
 20
45.99770913563599
 30
0.0
 10
42.50145398243019
 20
44.6548109154856
 30
0.0
 10
42.50145398243019
 20
42.99806449662896
 30
0.0
  0
ENDBLK
  5
86
330
83
100
AcDbEntity
  8
0
100
AcDbBlockEnd
  0
BLOCK
  5
8D
330
8B
100
AcDbEntity
  8
0
100
AcDbBlockBegin
  2
BLOCK_11
 70
     0
 71
     0
 10
0.0
 20
0.0
 30
0.0
  3
BLOCK_11
  1

  0
POLYLINE
  5
8F
330
8B
100
AcDbEntity
  8
LAYER_1
 62
     7
100
AcDb2dPolyline
 66
     1
 10
0.0
 20
0.0
 30
0.0
  0
VERTEX
  5
90
330
8F
100
AcDbEntity
  8
LAYER_1
 62
     7
100
AcDbVertex
100
AcDb2dVertex
 10
51.50900063816442
 20
78.00006237199304
 30
0.0
  0
VERTEX
  5
91
330
8F
100
AcDbEntity
  8
LAYER_1
 62
     7
100
AcDbVertex
100
AcDb2dVertex
 10
59.00725096181069
 20
78.00006237199304
 30
0.0
  0
VERTEX
  5
92
330
8F
100
AcDbEntity
  8
LAYER_1
 62
     7
100
AcDbVertex
100
AcDb2dVertex
 10
59.50851235491454
 20
78.00006237199304
 30
0.0
  0
VERTEX
  5
93
330
8F
100
AcDbEntity
  8
LAYER_1
 62
     7
100
AcDbVertex
100
AcDb2dVertex
 10
95.00884329222002
 20
78.00006237199304
 30
0.0
  0
VERTEX
  5
94
330
8F
100
AcDbEntity
  8
LAYER_1
 62
     7
100
AcDbVertex
100
AcDb2dVertex
 10
95.00884329222002
 20
0.0
 30
0.0
  0
VERTEX
  5
95
330
8F
100
AcDbEntity
  8
LAYER_1
 62
     7
100
AcDbVertex
100
AcDb2dVertex
 10
59.00725096181069
 20
0.0
 30
0.0
  0
VERTEX
  5
96
330
8F
100
AcDbEntity
  8
LAYER_1
 62
     7
100
AcDbVertex
100
AcDb2dVertex
 10
59.00725096181069
 20
38.00009222140276
 30
0.0
  0
VERTEX
  5
97
330
8F
100
AcDbEntity
  8
LAYER_1
 62
     7
100
AcDbVertex
100
AcDb2dVertex
 10
51.50900063816442
 20
38.00009222140276
 30
0.0
  0
VERTEX
  5
98
330
8F
100
AcDbEntity
  8
LAYER_1
 62
     7
100
AcDbVertex
100
AcDb2dVertex
 10
51.50900063816442
 20
78.00006237199304
 30
0.0
  0
SEQEND
  5
99
330
8F
100
AcDbEntity
  8
LAYER_1
  0
SPLINE
  5
9A
330
8B
100
AcDbEntity
  8
LAYER_1
 62
     7
100
AcDbSpline
210
0.0
220
0.0
230
1.0
 70
    11
 71
     3
 72
    17
 73
    13
 74
     0
 42
0.0000000001
 43
0.0000000001
 40
0.0
 40
0.0
 40
0.0
 40
0.0
 40
1.0
 40
1.0
 40
1.0
 40
2.0
 40
2.0
 40
2.0
 40
3.0
 40
3.0
 40
3.0
 40
4.0
 40
4.0
 40
4.0
 40
4.0
 10
88.00840926619234
 20
67.49992809727432
 30
0.0
 10
88.00840926619234
 20
66.39543048470323
 30
0.0
 10
88.90378958280878
 20
65.5000501680868
 30
0.0
 10
90.00828719537988
 20
65.5000501680868
 30
0.0
 10
91.1131293174995
 20
65.5000501680868
 30
0.0
 10
92.00850963411594
 20
66.39543048470323
 30
0.0
 10
92.00850963411594
 20
67.49992809727432
 30
0.0
 10
92.00850963411594
 20
68.60459796461969
 30
0.0
 10
91.1131293174995
 20
69.49997828123612
 30
0.0
 10
90.00828719537988
 20
69.49997828123612
 30
0.0
 10
88.90378958280878
 20
69.49997828123612
 30
0.0
 10
88.00840926619234
 20
68.60459796461969
 30
0.0
 10
88.00840926619234
 20
67.49992809727432
 30
0.0
  0
SPLINE
  5
9B
330
8B
100
AcDbEntity
  8
LAYER_1
 62
     7
100
AcDbSpline
210
0.0
220
0.0
230
1.0
 70
    11
 71
     3
 72
    17
 73
    13
 74
     0
 42
0.0000000001
 43
0.0000000001
 40
0.0
 40
0.0
 40
0.0
 40
0.0
 40
1.0
 40
1.0
 40
1.0
 40
2.0
 40
2.0
 40
2.0
 40
3.0
 40
3.0
 40
3.0
 40
4.0
 40
4.0
 40
4.0
 40
4.0
 10
86.25830075968543
 20
67.49975584250006
 30
0.0
 10
86.25830075968543
 20
65.42890894631638
 30
0.0
 10
87.93709578964767
 20
63.74994166157988
 30
0.0
 10
90.00828719537988
 20
63.74994166157988
 30
0.0
 10
92.07947860111207
 20
63.74994166157988
 30
0.0
 10
93.75861814062284
 20
65.42890894631638
 30
0.0
 10
93.75861814062284
 20
67.49975584250006
 30
0.0
 10
93.75861814062284
 20
69.57111950300653
 30
0.0
 10
92.07947860111207
 20
71.25008678774304
 30
0.0
 10
90.00828719537988
 20
71.25008678774304
 30
0.0
 10
87.93709578964767
 20
71.25008678774304
 30
0.0
 10
86.25830075968543
 20
69.57111950300653
 30
0.0
 10
86.25830075968543
 20
67.49975584250006
 30
0.0
  0
SPLINE
  5
9C
330
8B
100
AcDbEntity
  8
LAYER_1
 62
     7
100
AcDbSpline
210
0.0
220
0.0
230
1.0
 70
    11
 71
     3
 72
    17
 73
    13
 74
     0
 42
0.0000000001
 43
0.0000000001
 40
0.0
 40
0.0
 40
0.0
 40
0.0
 40
1.0
 40
1.0
 40
1.0
 40
2.0
 40
2.0
 40
2.0
 40
3.0
 40
3.0
 40
3.0
 40
4.0
 40
4.0
 40
4.0
 40
4.0
 10
62.00724011036625
 20
67.49992809727432
 30
0.0
 10
62.00724011036625
 20
66.39543048470323
 30
0.0
 10
62.90296493653121
 20
65.5000501680868
 30
0.0
 10
64.00711803955377
 20
65.5000501680868
 30
0.0
 10
65.11196016167341
 20
65.5000501680868
 30
0.0
 10
66.00734047828983
 20
66.39543048470323
 30
0.0
 10
66.00734047828983
 20
67.49992809727432
 30
0.0
 10
66.00734047828983
 20
68.60459796461969
 30
0.0
 10
65.11196016167341
 20
69.49997828123612
 30
0.0
 10
64.00711803955377
 20
69.49997828123612
 30
0.0
 10
62.90296493653121
 20
69.49997828123612
 30
0.0
 10
62.00724011036625
 20
68.60459796461969
 30
0.0
 10
62.00724011036625
 20
67.49992809727432
 30
0.0
  0
SPLINE
  5
9D
330
8B
100
AcDbEntity
  8
LAYER_1
 62
     7
100
AcDbSpline
210
0.0
220
0.0
230
1.0
 70
    11
 71
     3
 72
    17
 73
    13
 74
     0
 42
0.0000000001
 43
0.0000000001
 40
0.0
 40
0.0
 40
0.0
 40
0.0
 40
1.0
 40
1.0
 40
1.0
 40
2.0
 40
2.0
 40
2.0
 40
3.0
 40
3.0
 40
3.0
 40
4.0
 40
4.0
 40
4.0
 40
4.0
 10
60.25713160385933
 20
67.49992809727432
 30
0.0
 10
60.25713160385933
 20
65.42890894631638
 30
0.0
 10
61.93661565291863
 20
63.75011391635414
 30
0.0
 10
64.00711803955377
 20
63.75011391635414
 30
0.0
 10
66.07865395483451
 20
63.75011391635414
 30
0.0
 10
67.75744898479675
 20
65.42890894631638
 30
0.0
 10
67.75744898479675
 20
67.49992809727432
 30
0.0
 10
67.75744898479675
 20
69.57111950300653
 30
0.0
 10
66.07865395483451
 20
71.24991453296877
 30
0.0
 10
64.00711803955377
 20
71.24991453296877
 30
0.0
 10
61.93661565291863
 20
71.24991453296877
 30
0.0
 10
60.25713160385933
 20
69.57111950300653
 30
0.0
 10
60.25713160385933
 20
67.49992809727432
 30
0.0
  0
SPLINE
  5
9E
330
8B
100
AcDbEntity
  8
LAYER_1
 62
     7
100
AcDbSpline
210
0.0
220
0.0
230
1.0
 70
    11
 71
     3
 72
    17
 73
    13
 74
     0
 42
0.0000000001
 43
0.0000000001
 40
0.0
 40
0.0
 40
0.0
 40
0.0
 40
1.0
 40
1.0
 40
1.0
 40
2.0
 40
2.0
 40
2.0
 40
3.0
 40
3.0
 40
3.0
 40
4.0
 40
4.0
 40
4.0
 40
4.0
 10
60.25713160385933
 20
10.49996201994445
 30
0.0
 10
60.25713160385933
 20
8.428770614212253
 30
0.0
 10
61.93661565291863
 20
6.749975584250007
 30
0.0
 10
64.00711803955377
 20
6.749975584250007
 30
0.0
 10
66.07865395483451
 20
6.749975584250007
 30
0.0
 10
67.75744898479675
 20
8.428770614212253
 30
0.0
 10
67.75744898479675
 20
10.49996201994445
 30
0.0
 10
67.75744898479675
 20
12.57080891612813
 30
0.0
 10
66.07865395483451
 20
14.25029296518743
 30
0.0
 10
64.00711803955377
 20
14.25029296518743
 30
0.0
 10
61.93661565291863
 20
14.25029296518743
 30
0.0
 10
60.25713160385933
 20
12.57080891612813
 30
0.0
 10
60.25713160385933
 20
10.49996201994445
 30
0.0
  0
SPLINE
  5
9F
330
8B
100
AcDbEntity
  8
LAYER_1
 62
     7
100
AcDbSpline
210
0.0
220
0.0
230
1.0
 70
    11
 71
     3
 72
    17
 73
    13
 74
     0
 42
0.0000000001
 43
0.0000000001
 40
0.0
 40
0.0
 40
0.0
 40
0.0
 40
1.0
 40
1.0
 40
1.0
 40
2.0
 40
2.0
 40
2.0
 40
3.0
 40
3.0
 40
3.0
 40
4.0
 40
4.0
 40
4.0
 40
4.0
 10
62.00724011036625
 20
10.49996201994445
 30
0.0
 10
62.00724011036625
 20
9.395464407373357
 30
0.0
 10
62.90296493653121
 20
8.500084090756923
 30
0.0
 10
64.00711803955377
 20
8.500084090756923
 30
0.0
 10
65.11196016167341
 20
8.500084090756923
 30
0.0
 10
66.00734047828983
 20
9.395464407373357
 30
0.0
 10
66.00734047828983
 20
10.49996201994445
 30
0.0
 10
66.00734047828983
 20
11.60445963251555
 30
0.0
 10
65.11196016167341
 20
12.50018445868051
 30
0.0
 10
64.00711803955377
 20
12.50018445868051
 30
0.0
 10
62.90296493653121
 20
12.50018445868051
 30
0.0
 10
62.00724011036625
 20
11.60445963251555
 30
0.0
 10
62.00724011036625
 20
10.49996201994445
 30
0.0
  0
SPLINE
  5
A0
330
8B
100
AcDbEntity
  8
LAYER_1
 62
     7
100
AcDbSpline
210
0.0
220
0.0
230
1.0
 70
    11
 71
     3
 72
    17
 73
    13
 74
     0
 42
0.0000000001
 43
0.0000000001
 40
0.0
 40
0.0
 40
0.0
 40
0.0
 40
1.0
 40
1.0
 40
1.0
 40
2.0
 40
2.0
 40
2.0
 40
3.0
 40
3.0
 40
3.0
 40
4.0
 40
4.0
 40
4.0
 40
4.0
 10
86.25864526923395
 20
10.49996201994445
 30
0.0
 10
86.25864526923395
 20
8.429459633309301
 30
0.0
 10
87.93812931829325
 20
6.749975584250007
 30
0.0
 10
90.0086317049284
 20
6.749975584250007
 30
0.0
 10
92.0798231106606
 20
6.749975584250007
 30
0.0
 10
93.75896265017137
 20
8.429459633309301
 30
0.0
 10
93.75896265017137
 20
10.49996201994445
 30
0.0
 10
93.75896265017137
 20
12.57149793522518
 30
0.0
 10
92.0798231106606
 20
14.25029296518743
 30
0.0
 10
90.0086317049284
 20
14.25029296518743
 30
0.0
 10
87.93812931829325
 20
14.25029296518743
 30
0.0
 10
86.25864526923395
 20
12.57149793522518
 30
0.0
 10
86.25864526923395
 20
10.49996201994445
 30
0.0
  0
SPLINE
  5
A1
330
8B
100
AcDbEntity
  8
LAYER_1
 62
     7
100
AcDbSpline
210
0.0
220
0.0
230
1.0
 70
    11
 71
     3
 72
    17
 73
    13
 74
     0
 42
0.0000000001
 43
0.0000000001
 40
0.0
 40
0.0
 40
0.0
 40
0.0
 40
1.0
 40
1.0
 40
1.0
 40
2.0
 40
2.0
 40
2.0
 40
3.0
 40
3.0
 40
3.0
 40
4.0
 40
4.0
 40
4.0
 40
4.0
 10
88.00840926619234
 20
10.49996201994445
 30
0.0
 10
88.00840926619234
 20
9.395808916921881
 30
0.0
 10
88.90413409235731
 20
8.500084090756923
 30
0.0
 10
90.0086317049284
 20
8.500084090756923
 30
0.0
 10
91.11347382704803
 20
8.500084090756923
 30
0.0
 10
92.00885414366445
 20
9.395808916921881
 30
0.0
 10
92.00885414366445
 20
10.49996201994445
 30
0.0
 10
92.00885414366445
 20
11.60480414206408
 30
0.0
 10
91.11347382704803
 20
12.50018445868051
 30
0.0
 10
90.0086317049284
 20
12.50018445868051
 30
0.0
 10
88.90413409235731
 20
12.50018445868051
 30
0.0
 10
88.00840926619234
 20
11.60480414206408
 30
0.0
 10
88.00840926619234
 20
10.49996201994445
 30
0.0
  0
SPLINE
  5
A2
330
8B
100
AcDbEntity
  8
LAYER_1
 62
     7
100
AcDbSpline
210
0.0
220
0.0
230
1.0
 70
    11
 71
     3
 72
    17
 73
    13
 74
     0
 42
0.0000000001
 43
0.0000000001
 40
0.0
 40
0.0
 40
0.0
 40
0.0
 40
1.0
 40
1.0
 40
1.0
 40
2.0
 40
2.0
 40
2.0
 40
3.0
 40
3.0
 40
3.0
 40
4.0
 40
4.0
 40
4.0
 40
4.0
 10
74.50776907859529
 20
11.99995659422223
 30
0.0
 10
74.50776907859529
 20
10.6191623237341
 30
0.0
 10
75.62742511130148
 20
9.499850800576427
 30
0.0
 10
77.00787487224109
 20
9.499850800576427
 30
0.0
 10
78.38866914272923
 20
9.499850800576427
 30
0.0
 10
79.50798066588689
 20
10.6191623237341
 30
0.0
 10
79.50798066588689
 20
11.99995659422223
 30
0.0
 10
79.50798066588689
 20
13.38075086471037
 30
0.0
 10
78.38866914272923
 20
14.49971787831952
 30
0.0
 10
77.00787487224109
 20
14.49971787831952
 30
0.0
 10
75.62742511130148
 20
14.49971787831952
 30
0.0
 10
74.50776907859529
 20
13.38075086471037
 30
0.0
 10
74.50776907859529
 20
11.99995659422223
 30
0.0
  0
SPLINE
  5
A3
330
8B
100
AcDbEntity
  8
LAYER_1
 62
     7
100
AcDbSpline
210
0.0
220
0.0
230
1.0
 70
    11
 71
     3
 72
    17
 73
    13
 74
     0
 42
0.0000000001
 43
0.0000000001
 40
0.0
 40
0.0
 40
0.0
 40
0.0
 40
1.0
 40
1.0
 40
1.0
 40
2.0
 40
2.0
 40
2.0
 40
3.0
 40
3.0
 40
3.0
 40
4.0
 40
4.0
 40
4.0
 40
4.0
 10
72.50789114940775
 20
11.99995659422223
 30
0.0
 10
72.50789114940775
 20
9.514664711163
 30
0.0
 10
74.52258298918186
 20
7.499628361840371
 30
0.0
 10
77.00787487224109
 20
7.499628361840371
 30
0.0
 10
79.49316675530032
 20
7.499628361840371
 30
0.0
 10
81.50820310462295
 20
9.514664711163
 30
0.0
 10
81.50820310462295
 20
11.99995659422223
 30
0.0
 10
81.50820310462295
 20
14.48559298682999
 30
0.0
 10
79.49316675530032
 20
16.49994031705557
 30
0.0
 10
77.00787487224109
 20
16.49994031705557
 30
0.0
 10
74.52258298918186
 20
16.49994031705557
 30
0.0
 10
72.50789114940775
 20
14.48559298682999
 30
0.0
 10
72.50789114940775
 20
11.99995659422223
 30
0.0
  0
SPLINE
  5
A4
330
8B
100
AcDbEntity
  8
LAYER_1
 62
     7
100
AcDbSpline
210
0.0
220
0.0
230
1.0
 70
    11
 71
     3
 72
    17
 73
    13
 74
     0
 42
0.0000000001
 43
0.0000000001
 40
0.0
 40
0.0
 40
0.0
 40
0.0
 40
1.0
 40
1.0
 40
1.0
 40
2.0
 40
2.0
 40
2.0
 40
3.0
 40
3.0
 40
3.0
 40
4.0
 40
4.0
 40
4.0
 40
4.0
 10
74.50776907859529
 20
31.99976941474311
 30
0.0
 10
74.50776907859529
 20
30.61897514425498
 30
0.0
 10
75.62742511130148
 20
29.49966362109731
 30
0.0
 10
77.00787487224109
 20
29.49966362109731
 30
0.0
 10
78.38866914272923
 20
29.49966362109731
 30
0.0
 10
79.50798066588689
 20
30.61897514425498
 30
0.0
 10
79.50798066588689
 20
31.99976941474311
 30
0.0
 10
79.50798066588689
 20
33.38056368523125
 30
0.0
 10
78.38866914272923
 20
34.4995306988404
 30
0.0
 10
77.00787487224109
 20
34.4995306988404
 30
0.0
 10
75.62742511130148
 20
34.4995306988404
 30
0.0
 10
74.50776907859529
 20
33.38056368523125
 30
0.0
 10
74.50776907859529
 20
31.99976941474311
 30
0.0
  0
SPLINE
  5
A5
330
8B
100
AcDbEntity
  8
LAYER_1
 62
     7
100
AcDbSpline
210
0.0
220
0.0
230
1.0
 70
    11
 71
     3
 72
    17
 73
    13
 74
     0
 42
0.0000000001
 43
0.0000000001
 40
0.0
 40
0.0
 40
0.0
 40
0.0
 40
1.0
 40
1.0
 40
1.0
 40
2.0
 40
2.0
 40
2.0
 40
3.0
 40
3.0
 40
3.0
 40
4.0
 40
4.0
 40
4.0
 40
4.0
 10
72.50789114940775
 20
31.99994166951738
 30
0.0
 10
72.50789114940775
 20
29.51447753168388
 30
0.0
 10
74.52258298918186
 20
27.49961343713552
 30
0.0
 10
77.00787487224109
 20
27.49961343713552
 30
0.0
 10
79.49316675530032
 20
27.49961343713552
 30
0.0
 10
81.50820310462295
 20
29.51447753168388
 30
0.0
 10
81.50820310462295
 20
31.99994166951738
 30
0.0
 10
81.50820310462295
 20
34.48540580735087
 30
0.0
 10
79.49316675530032
 20
36.49958088280219
 30
0.0
 10
77.00787487224109
 20
36.49958088280219
 30
0.0
 10
74.52258298918186
 20
36.49958088280219
 30
0.0
 10
72.50789114940775
 20
34.48540580735087
 30
0.0
 10
72.50789114940775
 20
31.99994166951738
 30
0.0
  0
SPLINE
  5
A6
330
8B
100
AcDbEntity
  8
LAYER_1
 62
     7
100
AcDbSpline
210
0.0
220
0.0
230
1.0
 70
    11
 71
     3
 72
    17
 73
    13
 74
     0
 42
0.0000000001
 43
0.0000000001
 40
0.0
 40
0.0
 40
0.0
 40
0.0
 40
1.0
 40
1.0
 40
1.0
 40
2.0
 40
2.0
 40
2.0
 40
3.0
 40
3.0
 40
3.0
 40
4.0
 40
4.0
 40
4.0
 40
4.0
 10
74.50776907859529
 20
51.99992674481252
 30
0.0
 10
74.50776907859529
 20
50.61913247432439
 30
0.0
 10
75.62742511130148
 20
49.49982095116671
 30
0.0
 10
77.00787487224109
 20
49.49982095116671
 30
0.0
 10
78.38866914272923
 20
49.49982095116671
 30
0.0
 10
79.50798066588689
 20
50.61913247432439
 30
0.0
 10
79.50798066588689
 20
51.99992674481252
 30
0.0
 10
79.50798066588689
 20
53.38072101530066
 30
0.0
 10
78.38866914272923
 20
54.4996880289098
 30
0.0
 10
77.00787487224109
 20
54.4996880289098
 30
0.0
 10
75.62742511130148
 20
54.4996880289098
 30
0.0
 10
74.50776907859529
 20
53.38072101530066
 30
0.0
 10
74.50776907859529
 20
51.99992674481252
 30
0.0
  0
SPLINE
  5
A7
330
8B
100
AcDbEntity
  8
LAYER_1
 62
     7
100
AcDbSpline
210
0.0
220
0.0
230
1.0
 70
    11
 71
     3
 72
    17
 73
    13
 74
     0
 42
0.0000000001
 43
0.0000000001
 40
0.0
 40
0.0
 40
0.0
 40
0.0
 40
1.0
 40
1.0
 40
1.0
 40
2.0
 40
2.0
 40
2.0
 40
3.0
 40
3.0
 40
3.0
 40
4.0
 40
4.0
 40
4.0
 40
4.0
 10
72.50789114940775
 20
52.00009899958678
 30
0.0
 10
72.50789114940775
 20
49.51463486175329
 30
0.0
 10
74.52258298918186
 20
47.49977076720492
 30
0.0
 10
77.00787487224109
 20
47.49977076720492
 30
0.0
 10
79.49316675530032
 20
47.49977076720492
 30
0.0
 10
81.50820310462295
 20
49.51463486175329
 30
0.0
 10
81.50820310462295
 20
52.00009899958678
 30
0.0
 10
81.50820310462295
 20
54.48556313742028
 30
0.0
 10
79.49316675530032
 20
56.4997382128716
 30
0.0
 10
77.00787487224109
 20
56.4997382128716
 30
0.0
 10
74.52258298918186
 20
56.4997382128716
 30
0.0
 10
72.50789114940775
 20
54.48556313742028
 30
0.0
 10
72.50789114940775
 20
52.00009899958678
 30
0.0
  0
INSERT
  5
A9
330
8B
100
AcDbEntity
  8
LAYER_1
100
AcDbBlockReference
  2
BLOCK_12
 10
0.0
 20
0.0
 30
0.0
  0
INSERT
  5
AF
330
8B
100
AcDbEntity
  8
LAYER_1
100
AcDbBlockReference
  2
BLOCK_13
 10
0.0
 20
0.0
 30
0.0
  0
INSERT
  5
B5
330
8B
100
AcDbEntity
  8
LAYER_1
100
AcDbBlockReference
  2
BLOCK_14
 10
0.0
 20
0.0
 30
0.0
  0
INSERT
  5
BB
330
8B
100
AcDbEntity
  8
LAYER_1
100
AcDbBlockReference
  2
BLOCK_15
 10
0.0
 20
0.0
 30
0.0
  0
INSERT
  5
C1
330
8B
100
AcDbEntity
  8
LAYER_1
100
AcDbBlockReference
  2
BLOCK_16
 10
0.0
 20
0.0
 30
0.0
  0
INSERT
  5
C7
330
8B
100
AcDbEntity
  8
LAYER_1
100
AcDbBlockReference
  2
BLOCK_17
 10
0.0
 20
0.0
 30
0.0
  0
INSERT
  5
CD
330
8B
100
AcDbEntity
  8
LAYER_1
100
AcDbBlockReference
  2
BLOCK_18
 10
0.0
 20
0.0
 30
0.0
  0
INSERT
  5
D3
330
8B
100
AcDbEntity
  8
LAYER_1
100
AcDbBlockReference
  2
BLOCK_19
 10
0.0
 20
0.0
 30
0.0
  0
SPLINE
  5
D8
330
8B
100
AcDbEntity
  8
LAYER_1
 62
     7
100
AcDbSpline
210
0.0
220
0.0
230
1.0
 70
    11
 71
     3
 72
    32
 73
    28
 74
     0
 42
0.0000000001
 43
0.0000000001
 40
0.0
 40
0.0
 40
0.0
 40
0.0
 40
1.0
 40
1.0
 40
1.0
 40
2.0
 40
2.0
 40
2.0
 40
3.0
 40
3.0
 40
3.0
 40
4.0
 40
4.0
 40
4.0
 40
5.0
 40
5.0
 40
5.0
 40
6.0
 40
6.0
 40
6.0
 40
7.0
 40
7.0
 40
7.0
 40
8.0
 40
8.0
 40
8.0
 40
9.0
 40
9.0
 40
9.0
 40
9.0
 10
62.00724011036625
 20
56.90264212987157
 30
0.0
 10
62.00724011036625
 20
56.90264212987157
 30
0.0
 10
62.00724011036625
 20
21.09742024212148
 30
0.0
 10
62.00724011036625
 20
21.09742024212148
 30
0.0
 10
62.00724011036625
 20
21.09742024212148
 30
0.0
 10
92.00850963411594
 20
21.09742024212148
 30
0.0
 10
92.00850963411594
 20
21.09742024212148
 30
0.0
 10
92.00850963411594
 20
21.09742024212148
 30
0.0
 10
92.00850963411594
 20
56.90264212987157
 30
0.0
 10
92.00850963411594
 20
56.90264212987157
 30
0.0
 10
92.00850963411594
 20
56.90264212987157
 30
0.0
 10
81.26704642065546
 20
56.90264212987157
 30
0.0
 10
81.26704642065546
 20
56.90264212987157
 30
0.0
 10
82.63784991423637
 20
55.71115585629791
 30
0.0
 10
83.50808103381048
 20
53.9591525472741
 30
0.0
 10
83.50808103381048
 20
52.00009899958678
 30
0.0
 10
83.50808103381048
 20
48.41013724918219
 30
0.0
 10
80.59766436787142
 20
45.49989283801739
 30
0.0
 10
77.00787487224109
 20
45.49989283801739
 30
0.0
 10
73.41808537661076
 20
45.49989283801739
 30
0.0
 10
70.5076687106717
 20
48.41013724918219
 30
0.0
 10
70.5076687106717
 20
52.00009899958678
 30
0.0
 10
70.5076687106717
 20
53.9591525472741
 30
0.0
 10
71.37824433979434
 20
55.71115585629791
 30
0.0
 10
72.74904783337524
 20
56.90264212987157
 30
0.0
 10
72.74904783337524
 20
56.90264212987157
 30
0.0
 10
62.00724011036625
 20
56.90264212987157
 30
0.0
 10
62.00724011036625
 20
56.90264212987157
 30
0.0
  0
SPLINE
  5
D9
330
8B
100
AcDbEntity
  8
LAYER_1
 62
     7
100
AcDbSpline
210
0.0
220
0.0
230
1.0
 70
    11
 71
     3
 72
    17
 73
    13
 74
     0
 42
0.0000000001
 43
0.0000000001
 40
0.0
 40
0.0
 40
0.0
 40
0.0
 40
1.0
 40
1.0
 40
1.0
 40
2.0
 40
2.0
 40
2.0
 40
3.0
 40
3.0
 40
3.0
 40
4.0
 40
4.0
 40
4.0
 40
4.0
 10
70.5076687106717
 20
31.99994166951738
 30
0.0
 10
70.5076687106717
 20
35.59007567469623
 30
0.0
 10
73.41808537661076
 20
38.49945881198972
 30
0.0
 10
77.00787487224109
 20
38.49945881198972
 30
0.0
 10
80.59766436787142
 20
38.49945881198972
 30
0.0
 10
83.50808103381048
 20
35.59007567469623
 30
0.0
 10
83.50808103381048
 20
31.99994166951738
 30
0.0
 10
83.50808103381048
 20
28.40997991911279
 30
0.0
 10
80.59766436787142
 20
25.49973550794799
 30
0.0
 10
77.00787487224109
 20
25.49973550794799
 30
0.0
 10
73.41808537661076
 20
25.49973550794799
 30
0.0
 10
70.5076687106717
 20
28.40997991911279
 30
0.0
 10
70.5076687106717
 20
31.99994166951738
 30
0.0
  0
ENDBLK
  5
8E
330
8B
100
AcDbEntity
  8
0
100
AcDbBlockEnd
  0
BLOCK
  5
AA
330
A8
100
AcDbEntity
  8
0
100
AcDbBlockBegin
  2
BLOCK_12
 70
     0
 71
     0
 10
0.0
 20
0.0
 30
0.0
  3
BLOCK_12
  1

  0
SPLINE
  5
AC
330
A8
100
AcDbEntity
  8
LAYER_1
 62
     7
100
AcDbSpline
210
0.0
220
0.0
230
1.0
 70
    11
 71
     3
 72
    17
 73
    13
 74
     0
 42
0.0000000001
 43
0.0000000001
 40
0.0
 40
0.0
 40
0.0
 40
0.0
 40
1.0
 40
1.0
 40
1.0
 40
2.0
 40
2.0
 40
2.0
 40
3.0
 40
3.0
 40
3.0
 40
4.0
 40
4.0
 40
4.0
 40
4.0
 10
54.00635035542203
 20
72.99795598218454
 30
0.0
 10
54.00635035542203
 20
72.16923826320769
 30
0.0
 10
54.67814397504574
 20
71.49796140790676
 30
0.0
 10
55.50600042015128
 20
71.49796140790676
 30
0.0
 10
56.33489039390239
 20
71.49796140790676
 30
0.0
 10
57.00668401352611
 20
72.16923826320769
 30
0.0
 10
57.00668401352611
 20
72.99795598218454
 30
0.0
 10
57.00668401352611
 20
73.8261569368386
 30
0.0
 10
56.33489039390239
 20
74.49743379213953
 30
0.0
 10
55.50600042015128
 20
74.49743379213953
 30
0.0
 10
54.67814397504574
 20
74.49743379213953
 30
0.0
 10
54.00635035542203
 20
73.8261569368386
 30
0.0
 10
54.00635035542203
 20
72.99795598218454
 30
0.0
  0
SPLINE
  5
AD
330
A8
100
AcDbEntity
  8
LAYER_1
 62
     7
100
AcDbSpline
210
0.0
220
0.0
230
1.0
 70
    11
 71
     3
 72
    17
 73
    13
 74
     0
 42
0.0000000001
 43
0.0000000001
 40
0.0
 40
0.0
 40
0.0
 40
0.0
 40
1.0
 40
1.0
 40
1.0
 40
2.0
 40
2.0
 40
2.0
 40
3.0
 40
3.0
 40
3.0
 40
4.0
 40
4.0
 40
4.0
 40
4.0
 10
52.5056667620472
 20
72.9981282369588
 30
0.0
 10
52.5056667620472
 20
71.34052054423084
 30
0.0
 10
53.84959851084316
 20
69.99762232408045
 30
0.0
 10
55.50531140105423
 20
69.99762232408045
 30
0.0
 10
57.16343585810498
 20
69.99762232408045
 30
0.0
 10
58.50736760690094
 20
71.34052054423084
 30
0.0
 10
58.50736760690094
 20
72.9981282369588
 30
0.0
 10
58.50736760690094
 20
74.65487465581545
 30
0.0
 10
57.16343585810498
 20
75.99777287596584
 30
0.0
 10
55.50531140105423
 20
75.99777287596584
 30
0.0
 10
53.84959851084316
 20
75.99777287596584
 30
0.0
 10
52.5056667620472
 20
74.65487465581545
 30
0.0
 10
52.5056667620472
 20
72.9981282369588
 30
0.0
  0
ENDBLK
  5
AB
330
A8
100
AcDbEntity
  8
0
100
AcDbBlockEnd
  0
BLOCK
  5
B0
330
AE
100
AcDbEntity
  8
0
100
AcDbBlockBegin
  2
BLOCK_13
 70
     0
 71
     0
 10
0.0
 20
0.0
 30
0.0
  3
BLOCK_13
  1

  0
SPLINE
  5
B2
330
AE
100
AcDbEntity
  8
LAYER_1
 62
     7
100
AcDbSpline
210
0.0
220
0.0
230
1.0
 70
    11
 71
     3
 72
    17
 73
    13
 74
     0
 42
0.0000000001
 43
0.0000000001
 40
0.0
 40
0.0
 40
0.0
 40
0.0
 40
1.0
 40
1.0
 40
1.0
 40
2.0
 40
2.0
 40
2.0
 40
3.0
 40
3.0
 40
3.0
 40
4.0
 40
4.0
 40
4.0
 40
4.0
 10
54.00635035542203
 20
62.9980495719241
 30
0.0
 10
54.00635035542203
 20
62.16933185294725
 30
0.0
 10
54.67814397504574
 20
61.49805499764632
 30
0.0
 10
55.50600042015128
 20
61.49805499764632
 30
0.0
 10
56.33489039390239
 20
61.49805499764632
 30
0.0
 10
57.00668401352611
 20
62.16933185294725
 30
0.0
 10
57.00668401352611
 20
62.9980495719241
 30
0.0
 10
57.00668401352611
 20
63.82625052657816
 30
0.0
 10
56.33489039390239
 20
64.4975273818791
 30
0.0
 10
55.50600042015128
 20
64.4975273818791
 30
0.0
 10
54.67814397504574
 20
64.4975273818791
 30
0.0
 10
54.00635035542203
 20
63.82625052657816
 30
0.0
 10
54.00635035542203
 20
62.9980495719241
 30
0.0
  0
SPLINE
  5
B3
330
AE
100
AcDbEntity
  8
LAYER_1
 62
     7
100
AcDbSpline
210
0.0
220
0.0
230
1.0
 70
    11
 71
     3
 72
    17
 73
    13
 74
     0
 42
0.0000000001
 43
0.0000000001
 40
0.0
 40
0.0
 40
0.0
 40
0.0
 40
1.0
 40
1.0
 40
1.0
 40
2.0
 40
2.0
 40
2.0
 40
3.0
 40
3.0
 40
3.0
 40
4.0
 40
4.0
 40
4.0
 40
4.0
 10
52.5056667620472
 20
62.99822182669836
 30
0.0
 10
52.5056667620472
 20
61.3406141339704
 30
0.0
 10
53.84959851084316
 20
59.99771591382002
 30
0.0
 10
55.50531140105423
 20
59.99771591382002
 30
0.0
 10
57.16343585810498
 20
59.99771591382002
 30
0.0
 10
58.50736760690094
 20
61.3406141339704
 30
0.0
 10
58.50736760690094
 20
62.99822182669836
 30
0.0
 10
58.50736760690094
 20
64.65496824555501
 30
0.0
 10
57.16343585810498
 20
65.9978664657054
 30
0.0
 10
55.50531140105423
 20
65.9978664657054
 30
0.0
 10
53.84959851084316
 20
65.9978664657054
 30
0.0
 10
52.5056667620472
 20
64.65496824555501
 30
0.0
 10
52.5056667620472
 20
62.99822182669836
 30
0.0
  0
ENDBLK
  5
B1
330
AE
100
AcDbEntity
  8
0
100
AcDbBlockEnd
  0
BLOCK
  5
B6
330
B4
100
AcDbEntity
  8
0
100
AcDbBlockBegin
  2
BLOCK_14
 70
     0
 71
     0
 10
0.0
 20
0.0
 30
0.0
  3
BLOCK_14
  1

  0
SPLINE
  5
B8
330
B4
100
AcDbEntity
  8
LAYER_1
 62
     7
100
AcDbSpline
210
0.0
220
0.0
230
1.0
 70
    11
 71
     3
 72
    17
 73
    13
 74
     0
 42
0.0000000001
 43
0.0000000001
 40
0.0
 40
0.0
 40
0.0
 40
0.0
 40
1.0
 40
1.0
 40
1.0
 40
2.0
 40
2.0
 40
2.0
 40
3.0
 40
3.0
 40
3.0
 40
4.0
 40
4.0
 40
4.0
 40
4.0
 10
54.00635035542203
 20
52.9979709068894
 30
0.0
 10
54.00635035542203
 20
52.16925318791255
 30
0.0
 10
54.67814397504574
 20
51.49797633261162
 30
0.0
 10
55.50600042015128
 20
51.49797633261162
 30
0.0
 10
56.33489039390239
 20
51.49797633261162
 30
0.0
 10
57.00668401352611
 20
52.16925318791255
 30
0.0
 10
57.00668401352611
 20
52.9979709068894
 30
0.0
 10
57.00668401352611
 20
53.82617186154346
 30
0.0
 10
56.33489039390239
 20
54.49744871684439
 30
0.0
 10
55.50600042015128
 20
54.49744871684439
 30
0.0
 10
54.67814397504574
 20
54.49744871684439
 30
0.0
 10
54.00635035542203
 20
53.82617186154346
 30
0.0
 10
54.00635035542203
 20
52.9979709068894
 30
0.0
  0
SPLINE
  5
B9
330
B4
100
AcDbEntity
  8
LAYER_1
 62
     7
100
AcDbSpline
210
0.0
220
0.0
230
1.0
 70
    11
 71
     3
 72
    17
 73
    13
 74
     0
 42
0.0000000001
 43
0.0000000001
 40
0.0
 40
0.0
 40
0.0
 40
0.0
 40
1.0
 40
1.0
 40
1.0
 40
2.0
 40
2.0
 40
2.0
 40
3.0
 40
3.0
 40
3.0
 40
4.0
 40
4.0
 40
4.0
 40
4.0
 10
52.5056667620472
 20
52.99814316166366
 30
0.0
 10
52.5056667620472
 20
51.3405354689357
 30
0.0
 10
53.84959851084316
 20
49.99763724878532
 30
0.0
 10
55.50531140105423
 20
49.99763724878532
 30
0.0
 10
57.16343585810498
 20
49.99763724878532
 30
0.0
 10
58.50736760690094
 20
51.3405354689357
 30
0.0
 10
58.50736760690094
 20
52.99814316166366
 30
0.0
 10
58.50736760690094
 20
54.6548895805203
 30
0.0
 10
57.16343585810498
 20
55.99778780067069
 30
0.0
 10
55.50531140105423
 20
55.99778780067069
 30
0.0
 10
53.84959851084316
 20
55.99778780067069
 30
0.0
 10
52.5056667620472
 20
54.6548895805203
 30
0.0
 10
52.5056667620472
 20
52.99814316166366
 30
0.0
  0
ENDBLK
  5
B7
330
B4
100
AcDbEntity
  8
0
100
AcDbBlockEnd
  0
BLOCK
  5
BC
330
BA
100
AcDbEntity
  8
0
100
AcDbBlockBegin
  2
BLOCK_15
 70
     0
 71
     0
 10
0.0
 20
0.0
 30
0.0
  3
BLOCK_15
  1

  0
SPLINE
  5
BE
330
BA
100
AcDbEntity
  8
LAYER_1
 62
     7
100
AcDbSpline
210
0.0
220
0.0
230
1.0
 70
    11
 71
     3
 72
    17
 73
    13
 74
     0
 42
0.0000000001
 43
0.0000000001
 40
0.0
 40
0.0
 40
0.0
 40
0.0
 40
1.0
 40
1.0
 40
1.0
 40
2.0
 40
2.0
 40
2.0
 40
3.0
 40
3.0
 40
3.0
 40
4.0
 40
4.0
 40
4.0
 40
4.0
 10
54.00635035542203
 20
42.99789224185469
 30
0.0
 10
54.00635035542203
 20
42.16917452287785
 30
0.0
 10
54.67814397504574
 20
41.49789766757691
 30
0.0
 10
55.50600042015128
 20
41.49789766757691
 30
0.0
 10
56.33489039390239
 20
41.49789766757691
 30
0.0
 10
57.00668401352611
 20
42.16917452287785
 30
0.0
 10
57.00668401352611
 20
42.99789224185469
 30
0.0
 10
57.00668401352611
 20
43.82609319650876
 30
0.0
 10
56.33489039390239
 20
44.49737005180969
 30
0.0
 10
55.50600042015128
 20
44.49737005180969
 30
0.0
 10
54.67814397504574
 20
44.49737005180969
 30
0.0
 10
54.00635035542203
 20
43.82609319650876
 30
0.0
 10
54.00635035542203
 20
42.99789224185469
 30
0.0
  0
SPLINE
  5
BF
330
BA
100
AcDbEntity
  8
LAYER_1
 62
     7
100
AcDbSpline
210
0.0
220
0.0
230
1.0
 70
    11
 71
     3
 72
    17
 73
    13
 74
     0
 42
0.0000000001
 43
0.0000000001
 40
0.0
 40
0.0
 40
0.0
 40
0.0
 40
1.0
 40
1.0
 40
1.0
 40
2.0
 40
2.0
 40
2.0
 40
3.0
 40
3.0
 40
3.0
 40
4.0
 40
4.0
 40
4.0
 40
4.0
 10
52.5056667620472
 20
42.99806449662896
 30
0.0
 10
52.5056667620472
 20
41.340456803901
 30
0.0
 10
53.84959851084316
 20
39.99755858375061
 30
0.0
 10
55.50531140105423
 20
39.99755858375061
 30
0.0
 10
57.16343585810498
 20
39.99755858375061
 30
0.0
 10
58.50736760690094
 20
41.340456803901
 30
0.0
 10
58.50736760690094
 20
42.99806449662896
 30
0.0
 10
58.50736760690094
 20
44.6548109154856
 30
0.0
 10
57.16343585810498
 20
45.99770913563599
 30
0.0
 10
55.50531140105423
 20
45.99770913563599
 30
0.0
 10
53.84959851084316
 20
45.99770913563599
 30
0.0
 10
52.5056667620472
 20
44.6548109154856
 30
0.0
 10
52.5056667620472
 20
42.99806449662896
 30
0.0
  0
ENDBLK
  5
BD
330
BA
100
AcDbEntity
  8
0
100
AcDbBlockEnd
  0
BLOCK
  5
C2
330
C0
100
AcDbEntity
  8
0
100
AcDbBlockBegin
  2
BLOCK_16
 70
     0
 71
     0
 10
0.0
 20
0.0
 30
0.0
  3
BLOCK_16
  1

  0
SPLINE
  5
C4
330
C0
100
AcDbEntity
  8
LAYER_1
 62
     7
100
AcDbSpline
210
0.0
220
0.0
230
1.0
 70
    11
 71
     3
 72
    17
 73
    13
 74
     0
 42
0.0000000001
 43
0.0000000001
 40
0.0
 40
0.0
 40
0.0
 40
0.0
 40
1.0
 40
1.0
 40
1.0
 40
2.0
 40
2.0
 40
2.0
 40
3.0
 40
3.0
 40
3.0
 40
4.0
 40
4.0
 40
4.0
 40
4.0
 10
54.00635035542203
 20
72.99795598218454
 30
0.0
 10
54.00635035542203
 20
72.16923826320769
 30
0.0
 10
54.67814397504574
 20
71.49796140790676
 30
0.0
 10
55.50600042015128
 20
71.49796140790676
 30
0.0
 10
56.33489039390239
 20
71.49796140790676
 30
0.0
 10
57.00668401352611
 20
72.16923826320769
 30
0.0
 10
57.00668401352611
 20
72.99795598218454
 30
0.0
 10
57.00668401352611
 20
73.8261569368386
 30
0.0
 10
56.33489039390239
 20
74.49743379213953
 30
0.0
 10
55.50600042015128
 20
74.49743379213953
 30
0.0
 10
54.67814397504574
 20
74.49743379213953
 30
0.0
 10
54.00635035542203
 20
73.8261569368386
 30
0.0
 10
54.00635035542203
 20
72.99795598218454
 30
0.0
  0
SPLINE
  5
C5
330
C0
100
AcDbEntity
  8
LAYER_1
 62
     7
100
AcDbSpline
210
0.0
220
0.0
230
1.0
 70
    11
 71
     3
 72
    17
 73
    13
 74
     0
 42
0.0000000001
 43
0.0000000001
 40
0.0
 40
0.0
 40
0.0
 40
0.0
 40
1.0
 40
1.0
 40
1.0
 40
2.0
 40
2.0
 40
2.0
 40
3.0
 40
3.0
 40
3.0
 40
4.0
 40
4.0
 40
4.0
 40
4.0
 10
52.5056667620472
 20
72.9981282369588
 30
0.0
 10
52.5056667620472
 20
71.34052054423084
 30
0.0
 10
53.84959851084316
 20
69.99762232408045
 30
0.0
 10
55.50531140105423
 20
69.99762232408045
 30
0.0
 10
57.16343585810498
 20
69.99762232408045
 30
0.0
 10
58.50736760690094
 20
71.34052054423084
 30
0.0
 10
58.50736760690094
 20
72.9981282369588
 30
0.0
 10
58.50736760690094
 20
74.65487465581545
 30
0.0
 10
57.16343585810498
 20
75.99777287596584
 30
0.0
 10
55.50531140105423
 20
75.99777287596584
 30
0.0
 10
53.84959851084316
 20
75.99777287596584
 30
0.0
 10
52.5056667620472
 20
74.65487465581545
 30
0.0
 10
52.5056667620472
 20
72.9981282369588
 30
0.0
  0
ENDBLK
  5
C3
330
C0
100
AcDbEntity
  8
0
100
AcDbBlockEnd
  0
BLOCK
  5
C8
330
C6
100
AcDbEntity
  8
0
100
AcDbBlockBegin
  2
BLOCK_17
 70
     0
 71
     0
 10
0.0
 20
0.0
 30
0.0
  3
BLOCK_17
  1

  0
SPLINE
  5
CA
330
C6
100
AcDbEntity
  8
LAYER_1
 62
     7
100
AcDbSpline
210
0.0
220
0.0
230
1.0
 70
    11
 71
     3
 72
    17
 73
    13
 74
     0
 42
0.0000000001
 43
0.0000000001
 40
0.0
 40
0.0
 40
0.0
 40
0.0
 40
1.0
 40
1.0
 40
1.0
 40
2.0
 40
2.0
 40
2.0
 40
3.0
 40
3.0
 40
3.0
 40
4.0
 40
4.0
 40
4.0
 40
4.0
 10
54.00635035542203
 20
62.9980495719241
 30
0.0
 10
54.00635035542203
 20
62.16933185294725
 30
0.0
 10
54.67814397504574
 20
61.49805499764632
 30
0.0
 10
55.50600042015128
 20
61.49805499764632
 30
0.0
 10
56.33489039390239
 20
61.49805499764632
 30
0.0
 10
57.00668401352611
 20
62.16933185294725
 30
0.0
 10
57.00668401352611
 20
62.9980495719241
 30
0.0
 10
57.00668401352611
 20
63.82625052657816
 30
0.0
 10
56.33489039390239
 20
64.4975273818791
 30
0.0
 10
55.50600042015128
 20
64.4975273818791
 30
0.0
 10
54.67814397504574
 20
64.4975273818791
 30
0.0
 10
54.00635035542203
 20
63.82625052657816
 30
0.0
 10
54.00635035542203
 20
62.9980495719241
 30
0.0
  0
SPLINE
  5
CB
330
C6
100
AcDbEntity
  8
LAYER_1
 62
     7
100
AcDbSpline
210
0.0
220
0.0
230
1.0
 70
    11
 71
     3
 72
    17
 73
    13
 74
     0
 42
0.0000000001
 43
0.0000000001
 40
0.0
 40
0.0
 40
0.0
 40
0.0
 40
1.0
 40
1.0
 40
1.0
 40
2.0
 40
2.0
 40
2.0
 40
3.0
 40
3.0
 40
3.0
 40
4.0
 40
4.0
 40
4.0
 40
4.0
 10
52.5056667620472
 20
62.99822182669836
 30
0.0
 10
52.5056667620472
 20
61.3406141339704
 30
0.0
 10
53.84959851084316
 20
59.99771591382002
 30
0.0
 10
55.50531140105423
 20
59.99771591382002
 30
0.0
 10
57.16343585810498
 20
59.99771591382002
 30
0.0
 10
58.50736760690094
 20
61.3406141339704
 30
0.0
 10
58.50736760690094
 20
62.99822182669836
 30
0.0
 10
58.50736760690094
 20
64.65496824555501
 30
0.0
 10
57.16343585810498
 20
65.9978664657054
 30
0.0
 10
55.50531140105423
 20
65.9978664657054
 30
0.0
 10
53.84959851084316
 20
65.9978664657054
 30
0.0
 10
52.5056667620472
 20
64.65496824555501
 30
0.0
 10
52.5056667620472
 20
62.99822182669836
 30
0.0
  0
ENDBLK
  5
C9
330
C6
100
AcDbEntity
  8
0
100
AcDbBlockEnd
  0
BLOCK
  5
CE
330
CC
100
AcDbEntity
  8
0
100
AcDbBlockBegin
  2
BLOCK_18
 70
     0
 71
     0
 10
0.0
 20
0.0
 30
0.0
  3
BLOCK_18
  1

  0
SPLINE
  5
D0
330
CC
100
AcDbEntity
  8
LAYER_1
 62
     7
100
AcDbSpline
210
0.0
220
0.0
230
1.0
 70
    11
 71
     3
 72
    17
 73
    13
 74
     0
 42
0.0000000001
 43
0.0000000001
 40
0.0
 40
0.0
 40
0.0
 40
0.0
 40
1.0
 40
1.0
 40
1.0
 40
2.0
 40
2.0
 40
2.0
 40
3.0
 40
3.0
 40
3.0
 40
4.0
 40
4.0
 40
4.0
 40
4.0
 10
54.00635035542203
 20
52.9979709068894
 30
0.0
 10
54.00635035542203
 20
52.16925318791255
 30
0.0
 10
54.67814397504574
 20
51.49797633261162
 30
0.0
 10
55.50600042015128
 20
51.49797633261162
 30
0.0
 10
56.33489039390239
 20
51.49797633261162
 30
0.0
 10
57.00668401352611
 20
52.16925318791255
 30
0.0
 10
57.00668401352611
 20
52.9979709068894
 30
0.0
 10
57.00668401352611
 20
53.82617186154346
 30
0.0
 10
56.33489039390239
 20
54.49744871684439
 30
0.0
 10
55.50600042015128
 20
54.49744871684439
 30
0.0
 10
54.67814397504574
 20
54.49744871684439
 30
0.0
 10
54.00635035542203
 20
53.82617186154346
 30
0.0
 10
54.00635035542203
 20
52.9979709068894
 30
0.0
  0
SPLINE
  5
D1
330
CC
100
AcDbEntity
  8
LAYER_1
 62
     7
100
AcDbSpline
210
0.0
220
0.0
230
1.0
 70
    11
 71
     3
 72
    17
 73
    13
 74
     0
 42
0.0000000001
 43
0.0000000001
 40
0.0
 40
0.0
 40
0.0
 40
0.0
 40
1.0
 40
1.0
 40
1.0
 40
2.0
 40
2.0
 40
2.0
 40
3.0
 40
3.0
 40
3.0
 40
4.0
 40
4.0
 40
4.0
 40
4.0
 10
52.5056667620472
 20
52.99814316166366
 30
0.0
 10
52.5056667620472
 20
51.3405354689357
 30
0.0
 10
53.84959851084316
 20
49.99763724878532
 30
0.0
 10
55.50531140105423
 20
49.99763724878532
 30
0.0
 10
57.16343585810498
 20
49.99763724878532
 30
0.0
 10
58.50736760690094
 20
51.3405354689357
 30
0.0
 10
58.50736760690094
 20
52.99814316166366
 30
0.0
 10
58.50736760690094
 20
54.6548895805203
 30
0.0
 10
57.16343585810498
 20
55.99778780067069
 30
0.0
 10
55.50531140105423
 20
55.99778780067069
 30
0.0
 10
53.84959851084316
 20
55.99778780067069
 30
0.0
 10
52.5056667620472
 20
54.6548895805203
 30
0.0
 10
52.5056667620472
 20
52.99814316166366
 30
0.0
  0
ENDBLK
  5
CF
330
CC
100
AcDbEntity
  8
0
100
AcDbBlockEnd
  0
BLOCK
  5
D4
330
D2
100
AcDbEntity
  8
0
100
AcDbBlockBegin
  2
BLOCK_19
 70
     0
 71
     0
 10
0.0
 20
0.0
 30
0.0
  3
BLOCK_19
  1

  0
SPLINE
  5
D6
330
D2
100
AcDbEntity
  8
LAYER_1
 62
     7
100
AcDbSpline
210
0.0
220
0.0
230
1.0
 70
    11
 71
     3
 72
    17
 73
    13
 74
     0
 42
0.0000000001
 43
0.0000000001
 40
0.0
 40
0.0
 40
0.0
 40
0.0
 40
1.0
 40
1.0
 40
1.0
 40
2.0
 40
2.0
 40
2.0
 40
3.0
 40
3.0
 40
3.0
 40
4.0
 40
4.0
 40
4.0
 40
4.0
 10
54.00635035542203
 20
42.99789224185469
 30
0.0
 10
54.00635035542203
 20
42.16917452287785
 30
0.0
 10
54.67814397504574
 20
41.49789766757691
 30
0.0
 10
55.50600042015128
 20
41.49789766757691
 30
0.0
 10
56.33489039390239
 20
41.49789766757691
 30
0.0
 10
57.00668401352611
 20
42.16917452287785
 30
0.0
 10
57.00668401352611
 20
42.99789224185469
 30
0.0
 10
57.00668401352611
 20
43.82609319650876
 30
0.0
 10
56.33489039390239
 20
44.49737005180969
 30
0.0
 10
55.50600042015128
 20
44.49737005180969
 30
0.0
 10
54.67814397504574
 20
44.49737005180969
 30
0.0
 10
54.00635035542203
 20
43.82609319650876
 30
0.0
 10
54.00635035542203
 20
42.99789224185469
 30
0.0
  0
SPLINE
  5
D7
330
D2
100
AcDbEntity
  8
LAYER_1
 62
     7
100
AcDbSpline
210
0.0
220
0.0
230
1.0
 70
    11
 71
     3
 72
    17
 73
    13
 74
     0
 42
0.0000000001
 43
0.0000000001
 40
0.0
 40
0.0
 40
0.0
 40
0.0
 40
1.0
 40
1.0
 40
1.0
 40
2.0
 40
2.0
 40
2.0
 40
3.0
 40
3.0
 40
3.0
 40
4.0
 40
4.0
 40
4.0
 40
4.0
 10
52.5056667620472
 20
42.99806449662896
 30
0.0
 10
52.5056667620472
 20
41.340456803901
 30
0.0
 10
53.84959851084316
 20
39.99755858375061
 30
0.0
 10
55.50531140105423
 20
39.99755858375061
 30
0.0
 10
57.16343585810498
 20
39.99755858375061
 30
0.0
 10
58.50736760690094
 20
41.340456803901
 30
0.0
 10
58.50736760690094
 20
42.99806449662896
 30
0.0
 10
58.50736760690094
 20
44.6548109154856
 30
0.0
 10
57.16343585810498
 20
45.99770913563599
 30
0.0
 10
55.50531140105423
 20
45.99770913563599
 30
0.0
 10
53.84959851084316
 20
45.99770913563599
 30
0.0
 10
52.5056667620472
 20
44.6548109154856
 30
0.0
 10
52.5056667620472
 20
42.99806449662896
 30
0.0
  0
ENDBLK
  5
D5
330
D2
100
AcDbEntity
  8
0
100
AcDbBlockEnd
  0
ENDSEC
  0
SECTION
  2
ENTITIES
  0
INSERT
  5
3D
330
1F
100
AcDbEntity
  8
LAYER_1
100
AcDbBlockReference
  2
BLOCK_2
 10
0.0
 20
0.0
 30
0.0
  0
INSERT
  5
8C
330
1F
100
AcDbEntity
  8
LAYER_1
100
AcDbBlockReference
  2
BLOCK_11
 10
0.0
 20
0.0
 30
0.0
  0
ENDSEC
  0
SECTION
  2
OBJECTS
  0
DICTIONARY
  5
C
330
0
100
AcDbDictionary
  3
ACAD_GROUP
350
D
  3
ACAD_LAYOUT
350
1A
  3
ACAD_MLINESTYLE
350
17
  3
ACAD_PLOTSETTINGS
350
19
  3
ACAD_TABLESTYLE
350
DA
  3
ACAD_VISUALSTYLE
350
2A
1001
ACAD
1000
TREAT_AS_HARD
1070
     0
  0
DICTIONARY
  5
D
102
{ACAD_REACTORS
330
C
102
}
330
C
100
AcDbDictionary
1001
ACAD
1000
TREAT_AS_HARD
1070
     0
  0
DICTIONARY
  5
1A
102
{ACAD_REACTORS
330
C
102
}
330
C
100
AcDbDictionary
1001
ACAD
1000
TREAT_AS_HARD
1070
     0
  0
DICTIONARY
  5
17
102
{ACAD_REACTORS
330
C
102
}
330
C
100
AcDbDictionary
  3
STANDARD
350
18
1001
ACAD
1000
TREAT_AS_HARD
1070
     0
  0
DICTIONARY
  5
19
102
{ACAD_REACTORS
330
C
102
}
330
C
100
AcDbDictionary
1001
ACAD
1000
TREAT_AS_HARD
1070
     0
  0
DICTIONARY
  5
DA
102
{ACAD_REACTORS
330
C
102
}
330
C
100
AcDbDictionary
1001
ACAD
1000
TREAT_AS_HARD
1070
     0
  0
DICTIONARY
  5
2A
102
{ACAD_REACTORS
330
C
102
}
330
C
100
AcDbDictionary
  3
2DWIREFRAME
350
2F
  3
3D_HIDDEN
350
31
  3
3DWIREFRAME
350
30
  3
BASIC
350
32
  3
BRIGHTEN
350
36
  3
COLORCHANGE
350
3A
  3
CONCEPTUAL
350
34
  3
DIM
350
35
  3
FACEPATTERN
350
39
  3
FLAT
350
2B
  3
FLATWITHEDGES
350
2C
  3
GOURAUD
350
2D
  3
GOURAUDWITHEDGES
350
2E
  3
LINEPATTERN
350
38
  3
REALISTIC
350
33
  3
THICKEN
350
37
1001
ACAD
1000
TREAT_AS_HARD
1070
     0
  0
MLINESTYLE
  5
18
102
{ACAD_REACTORS
330
17
102
}
330
17
100
AcDbMlineStyle
  2
Standard
 70
     0
  3

 62
   256
 51
90.0
 52
90.0
 71
     2
 49
0.5
 62
   256
  6
BYLAYER
 49
-0.5
 62
   256
  6
BYLAYER
  0
VISUALSTYLE
  5
2F
102
{ACAD_REACTORS
330
2A
102
}
330
2A
100
AcDbVisualStyle
  2
2dWireframe
 70
     4
 71
     0
 72
     2
 73
     0
 90
        0
 40
-0.6
 41
-30.0
 62
     5
 63
     7
 74
     1
 91
        4
 64
     7
 65
   257
 75
     1
175
     1
 42
1.0
 92
        0
 66
   257
 43
1.0
 76
     1
 77
     6
 78
     2
 67
     7
 79
     5
170
     0
171
     0
290
     0
174
     0
 93
        1
 44
0.0
173
     0
291
     0
 45
0.0
1001
ACAD
1000
AcDbSavedByObjectVersion
1070
     0
  0
VISUALSTYLE
  5
31
102
{ACAD_REACTORS
330
2A
102
}
330
2A
100
AcDbVisualStyle
  2
3D Hidden
 70
     6
 71
     1
 72
     2
 73
     2
 90
        0
 40
-0.6
 41
-30.0
 62
     5
 63
     7
 74
     2
 91
        2
 64
     7
 65
   257
 75
     2
175
     1
 42
40.0
 92
        0
 66
   257
 43
1.0
 76
     1
 77
     6
 78
     2
 67
     7
 79
     3
170
     0
171
     0
290
     0
174
     0
 93
        1
 44
0.0
173
     0
291
     0
 45
0.0
1001
ACAD
1000
AcDbSavedByObjectVersion
1070
     0
  0
VISUALSTYLE
  5
30
102
{ACAD_REACTORS
330
2A
102
}
330
2A
100
AcDbVisualStyle
  2
3dWireframe
 70
     5
 71
     0
 72
     2
 73
     0
 90
        0
 40
-0.6
 41
-30.0
 62
     5
 63
     7
 74
     1
 91
        4
 64
     7
 65
   257
 75
     1
175
     1
 42
1.0
 92
        0
 66
   257
 43
1.0
 76
     1
 77
     6
 78
     2
 67
     7
 79
     5
170
     0
171
     0
290
     0
174
     0
 93
        1
 44
0.0
173
     0
291
     0
 45
0.0
1001
ACAD
1000
AcDbSavedByObjectVersion
1070
     0
  0
VISUALSTYLE
  5
32
102
{ACAD_REACTORS
330
2A
102
}
330
2A
100
AcDbVisualStyle
  2
Basic
 70
     7
 71
     1
 72
     0
 73
     1
 90
        0
 40
-0.6
 41
-30.0
 62
     5
 63
     7
 74
     0
 91
        4
 64
     7
 65
   257
 75
     1
175
     1
 42
1.0
 92
        8
 66
     7
 43
1.0
 76
     1
 77
     6
 78
     2
 67
     7
 79
     5
170
     0
171
     0
290
     0
174
     0
 93
        1
 44
0.0
173
     0
291
     1
 45
0.0
1001
ACAD
1000
AcDbSavedByObjectVersion
1070
     0
  0
VISUALSTYLE
  5
36
102
{ACAD_REACTORS
330
2A
102
}
330
2A
100
AcDbVisualStyle
  2
Brighten
 70
    12
 71
     2
 72
     2
 73
     0
 90
        0
 40
-0.6
 41
-30.0
 62
     5
 63
     7
 74
     1
 91
        4
 64
     7
 65
   257
 75
     1
175
     1
 42
1.0
 92
        8
 66
     7
 43
1.0
 76
     1
 77
     6
 78
     2
 67
     7
 79
     5
170
     0
171
     0
290
     0
174
     0
 93
        1
 44
50.0
173
     0
291
     1
 45
0.0
1001
ACAD
1000
AcDbSavedByObjectVersion
1070
     0
  0
VISUALSTYLE
  5
3A
102
{ACAD_REACTORS
330
2A
102
}
330
2A
100
AcDbVisualStyle
  2
ColorChange
 70
    16
 71
     2
 72
     2
 73
     3
 90
        0
 40
-0.6
 41
-30.0
 62
     5
 63
     8
 74
     1
 91
        4
 64
     7
 65
   257
 75
     1
175
     1
 42
1.0
 92
        8
 66
     8
 43
1.0
 76
     1
 77
     6
 78
     2
 67
     7
 79
     5
170
     0
171
     0
290
     0
174
     0
 93
        1
 44
0.0
173
     0
291
     1
 45
0.0
1001
ACAD
1000
AcDbSavedByObjectVersion
1070
     0
  0
VISUALSTYLE
  5
34
102
{ACAD_REACTORS
330
2A
102
}
330
2A
100
AcDbVisualStyle
  2
Conceptual
 70
     9
 71
     3
 72
     2
 73
     0
 90
        0
 40
-0.6
 41
-30.0
 62
     5
 63
     7
 74
     2
 91
        2
 64
     7
 65
   257
 75
     1
175
     1
 42
40.0
 92
        8
 66
     7
 43
1.0
 76
     1
 77
     6
 78
     2
 67
     7
 79
     3
170
     0
171
     0
290
     0
174
     0
 93
        1
 44
0.0
173
     0
291
     0
 45
0.0
1001
ACAD
1000
AcDbSavedByObjectVersion
1070
     0
  0
VISUALSTYLE
  5
35
102
{ACAD_REACTORS
330
2A
102
}
330
2A
100
AcDbVisualStyle
  2
Dim
 70
    11
 71
     2
 72
     2
 73
     0
 90
        0
 40
-0.6
 41
-30.0
 62
     5
 63
     7
 74
     1
 91
        4
 64
     7
 65
   257
 75
     1
175
     1
 42
1.0
 92
        8
 66
     7
 43
1.0
 76
     1
 77
     6
 78
     2
 67
     7
 79
     5
170
     0
171
     0
290
     0
174
     0
 93
        1
 44
-50.0
173
     0
291
     1
 45
0.0
1001
ACAD
1000
AcDbSavedByObjectVersion
1070
     0
  0
VISUALSTYLE
  5
39
102
{ACAD_REACTORS
330
2A
102
}
330
2A
100
AcDbVisualStyle
  2
Facepattern
 70
    15
 71
     2
 72
     2
 73
     0
 90
        0
 40
-0.6
 41
-30.0
 62
     5
 63
     7
 74
     1
 91
        4
 64
     7
 65
   257
 75
     1
175
     1
 42
1.0
 92
        8
 66
     7
 43
1.0
 76
     1
 77
     6
 78
     2
 67
     7
 79
     5
170
     0
171
     0
290
     0
174
     0
 93
        1
 44
0.0
173
     0
291
     1
 45
0.0
1001
ACAD
1000
AcDbSavedByObjectVersion
1070
     0
  0
VISUALSTYLE
  5
2B
102
{ACAD_REACTORS
330
2A
102
}
330
2A
100
AcDbVisualStyle
  2
Flat
 70
     0
 71
     2
 72
     1
 73
     1
 90
        2
 40
-0.6
 41
30.0
 62
     5
 63
     7
 74
     0
 91
        4
 64
     7
 65
   257
 75
     1
175
     1
 42
1.0
 92
        8
 66
     7
 43
1.0
 76
     1
 77
     6
 78
     2
 67
     7
 79
     5
170
     0
171
     0
290
     0
174
     0
 93
       13
 44
0.0
173
     0
291
     1
 45
0.0
1001
ACAD
1000
AcDbSavedByObjectVersion
1070
     0
  0
VISUALSTYLE
  5
2C
102
{ACAD_REACTORS
330
2A
102
}
330
2A
100
AcDbVisualStyle
  2
FlatWithEdges
 70
     1
 71
     2
 72
     1
 73
     1
 90
        2
 40
-0.6
 41
30.0
 62
     5
 63
     7
 74
     1
 91
        4
 64
     7
 65
   257
 75
     1
175
     1
 42
1.0
 92
        0
 66
   257
 43
1.0
 76
     1
 77
     6
 78
     2
 67
     7
 79
     5
170
     0
171
     0
290
     0
174
     0
 93
       13
 44
0.0
173
     0
291
     1
 45
0.0
1001
ACAD
1000
AcDbSavedByObjectVersion
1070
     0
  0
VISUALSTYLE
  5
2D
102
{ACAD_REACTORS
330
2A
102
}
330
2A
100
AcDbVisualStyle
  2
Gouraud
 70
     2
 71
     2
 72
     2
 73
     1
 90
        2
 40
-0.6
 41
30.0
 62
     5
 63
     7
 74
     0
 91
        4
 64
     7
 65
   257
 75
     1
175
     1
 42
1.0
 92
        0
 66
     7
 43
1.0
 76
     1
 77
     6
 78
     2
 67
     7
 79
     5
170
     0
171
     0
290
     0
174
     0
 93
       13
 44
0.0
173
     0
291
     1
 45
0.0
1001
ACAD
1000
AcDbSavedByObjectVersion
1070
     0
  0
VISUALSTYLE
  5
2E
102
{ACAD_REACTORS
330
2A
102
}
330
2A
100
AcDbVisualStyle
  2
GouraudWithEdges
 70
     3
 71
     2
 72
     2
 73
     1
 90
        2
 40
-0.6
 41
30.0
 62
     5
 63
     7
 74
     1
 91
        4
 64
     7
 65
   257
 75
     1
175
     1
 42
1.0
 92
        0
 66
   257
 43
1.0
 76
     1
 77
     6
 78
     2
 67
     7
 79
     5
170
     0
171
     0
290
     0
174
     0
 93
       13
 44
0.0
173
     0
291
     1
 45
0.0
1001
ACAD
1000
AcDbSavedByObjectVersion
1070
     0
  0
VISUALSTYLE
  5
38
102
{ACAD_REACTORS
330
2A
102
}
330
2A
100
AcDbVisualStyle
  2
Linepattern
 70
    14
 71
     2
 72
     2
 73
     0
 90
        0
 40
-0.6
 41
-30.0
 62
     5
 63
     7
 74
     1
 91
        4
 64
     7
 65
   257
 75
     7
175
     7
 42
1.0
 92
        8
 66
     7
 43
1.0
 76
     1
 77
     6
 78
     2
 67
     7
 79
     5
170
     0
171
     0
290
     0
174
     0
 93
        1
 44
0.0
173
     0
291
     1
 45
0.0
1001
ACAD
1000
AcDbSavedByObjectVersion
1070
     0
  0
VISUALSTYLE
  5
33
102
{ACAD_REACTORS
330
2A
102
}
330
2A
100
AcDbVisualStyle
  2
Realistic
 70
     8
 71
     2
 72
     2
 73
     0
 90
        0
 40
-0.6
 41
-30.0
 62
     5
 63
     7
 74
     1
 91
        0
 64
     7
 65
   257
 75
     1
175
     1
 42
1.0
 92
        8
 66
     8
 43
1.0
 76
     1
 77
     6
 78
     2
 67
     7
 79
     5
170
     0
171
     0
290
     0
174
     0
 93
       13
 44
0.0
173
     0
291
     0
 45
0.0
1001
ACAD
1000
AcDbSavedByObjectVersion
1070
     0
  0
VISUALSTYLE
  5
37
102
{ACAD_REACTORS
330
2A
102
}
330
2A
100
AcDbVisualStyle
  2
Thicken
 70
    13
 71
     2
 72
     2
 73
     0
 90
        0
 40
-0.6
 41
-30.0
 62
     5
 63
     7
 74
     1
 91
        4
 64
     7
 65
   257
 75
     1
175
     1
 42
1.0
 92
       12
 66
     7
 43
1.0
 76
     1
 77
     6
 78
     2
 67
     7
 79
     5
170
     0
171
     0
290
     0
174
     0
 93
        1
 44
0.0
173
     0
291
     1
 45
0.0
1001
ACAD
1000
AcDbSavedByObjectVersion
1070
     0
  0
ENDSEC
  0
EOF
