  0
SECTION
  2
HEADER
  9
$ACADVER
  1
AC1012
  9
$DWGCODEPAGE
  3
ansi_1252
  9
$INSBASE
 10
0.0
 20
0.0
 30
0.0
  9
$EXTMIN
 10
1.000000000000000E+20
 20
1.000000000000000E+20
 30
1.000000000000000E+20
  9
$EXTMAX
 10
-1.000000000000000E+20
 20
-1.000000000000000E+20
 30
-1.000000000000000E+20
  9
$LIMMIN
 10
0.0
 20
0.0
  9
$LIMMAX
 10
12.0
 20
9.0
  9
$ORTHOMODE
 70
     0
  9
$REGENMODE
 70
     1
  9
$FILLMODE
 70
     1
  9
$QTEXTMODE
 70
     0
  9
$MIRRTEXT
 70
     1
  9
$DRAGMODE
 70
     2
  9
$LTSCALE
 40
1.0
  9
$OSMODE
 70
    37
  9
$ATTMODE
 70
     1
  9
$TEXTSIZE
 40
0.2
  9
$TRACEWID
 40
0.05
  9
$TEXTSTYLE
  7
STANDARD
  9
$CLAYER
  8
0
  9
$CELTYPE
  6
BYLAYER
  9
$CECOLOR
 62
   256
  9
$CELTSCALE
 40
1.0
  9
$DELOBJ
 70
     1
  9
$DISPSILH
 70
     0
  9
$DIMSCALE
 40
1.0
  9
$DIMASZ
 40
0.18
  9
$DIMEXO
 40
0.0625
  9
$DIMDLI
 40
0.38
  9
$DIMRND
 40
0.0
  9
$DIMDLE
 40
0.0
  9
$DIMEXE
 40
0.18
  9
$DIMTP
 40
0.0
  9
$DIMTM
 40
0.0
  9
$DIMTXT
 40
0.18
  9
$DIMCEN
 40
0.09
  9
$DIMTSZ
 40
0.0
  9
$DIMTOL
 70
     0
  9
$DIMLIM
 70
     0
  9
$DIMTIH
 70
     1
  9
$DIMTOH
 70
     1
  9
$DIMSE1
 70
     0
  9
$DIMSE2
 70
     0
  9
$DIMTAD
 70
     0
  9
$DIMZIN
 70
     0
  9
$DIMBLK
  1

  9
$DIMASO
 70
     1
  9
$DIMSHO
 70
     1
  9
$DIMPOST
  1

  9
$DIMAPOST
  1

  9
$DIMALT
 70
     0
  9
$DIMALTD
 70
     2
  9
$DIMALTF
 40
25.4
  9
$DIMLFAC
 40
1.0
  9
$DIMTOFL
 70
     0
  9
$DIMTVP
 40
0.0
  9
$DIMTIX
 70
     0
  9
$DIMSOXD
 70
     0
  9
$DIMSAH
 70
     0
  9
$DIMBLK1
  1

  9
$DIMBLK2
  1

  9
$DIMSTYLE
  2
STANDARD
  9
$DIMCLRD
 70
     0
  9
$DIMCLRE
 70
     0
  9
$DIMCLRT
 70
     0
  9
$DIMTFAC
 40
1.0
  9
$DIMGAP
 40
0.09
  9
$DIMJUST
 70
     0
  9
$DIMSD1
 70
     0
  9
$DIMSD2
 70
     0
  9
$DIMTOLJ
 70
     1
  9
$DIMTZIN
 70
     0
  9
$DIMALTZ
 70
     0
  9
$DIMALTTZ
 70
     0
  9
$DIMFIT
 70
     3
  9
$DIMUPT
 70
     0
  9
$DIMUNIT
 70
     2
  9
$DIMDEC
 70
     4
  9
$DIMTDEC
 70
     4
  9
$DIMALTU
 70
     2
  9
$DIMALTTD
 70
     2
  9
$DIMTXSTY
  7
STANDARD
  9
$DIMAUNIT
 70
     0
  9
$LUNITS
 70
     2
  9
$LUPREC
 70
     4
  9
$SKETCHINC
 40
0.1
  9
$FILLETRAD
 40
0.5
  9
$AUNITS
 70
     0
  9
$AUPREC
 70
     0
  9
$MENU
  1
.
  9
$ELEVATION
 40
0.0
  9
$PELEVATION
 40
0.0
  9
$THICKNESS
 40
0.0
  9
$LIMCHECK
 70
     0
  9
$CHAMFERA
 40
0.5
  9
$CHAMFERB
 40
0.5
  9
$CHAMFERC
 40
1.0
  9
$CHAMFERD
 40
0.0
  9
$SKPOLY
 70
     0
  9
$TDCREATE
 40
2456551.586660706
  9
$TDUPDATE
 40
2456551.586660718
  9
$TDINDWG
 40
0.0000000116
  9
$TDUSRTIMER
 40
0.0000000116
  9
$USRTIMER
 70
     1
  9
$ANGBASE
 50
0.0
  9
$ANGDIR
 70
     0
  9
$PDMODE
 70
     0
  9
$PDSIZE
 40
0.0
  9
$PLINEWID
 40
0.0
  9
$COORDS
 70
     1
  9
$SPLFRAME
 70
     0
  9
$SPLINETYPE
 70
     6
  9
$SPLINESEGS
 70
     8
  9
$ATTDIA
 70
     0
  9
$ATTREQ
 70
     1
  9
$HANDLING
 70
     1
  9
$HANDSEED
  5
6B
  9
$SURFTAB1
 70
     6
  9
$SURFTAB2
 70
     6
  9
$SURFTYPE
 70
     6
  9
$SURFU
 70
     6
  9
$SURFV
 70
     6
  9
$UCSNAME
  2

  9
$UCSORG
 10
0.0
 20
0.0
 30
0.0
  9
$UCSXDIR
 10
1.0
 20
0.0
 30
0.0
  9
$UCSYDIR
 10
0.0
 20
1.0
 30
0.0
  9
$PUCSNAME
  2

  9
$PUCSORG
 10
0.0
 20
0.0
 30
0.0
  9
$PUCSXDIR
 10
1.0
 20
0.0
 30
0.0
  9
$PUCSYDIR
 10
0.0
 20
1.0
 30
0.0
  9
$USERI1
 70
     0
  9
$USERI2
 70
     0
  9
$USERI3
 70
     0
  9
$USERI4
 70
     0
  9
$USERI5
 70
     0
  9
$USERR1
 40
0.0
  9
$USERR2
 40
0.0
  9
$USERR3
 40
0.0
  9
$USERR4
 40
0.0
  9
$USERR5
 40
0.0
  9
$WORLDVIEW
 70
     1
  9
$SHADEDGE
 70
     3
  9
$SHADEDIF
 70
    70
  9
$TILEMODE
 70
     1
  9
$MAXACTVP
 70
    64
  9
$PINSBASE
 10
0.0
 20
0.0
 30
0.0
  9
$PLIMCHECK
 70
     0
  9
$PEXTMIN
 10
1.000000000000000E+20
 20
1.000000000000000E+20
 30
1.000000000000000E+20
  9
$PEXTMAX
 10
-1.000000000000000E+20
 20
-1.000000000000000E+20
 30
-1.000000000000000E+20
  9
$PLIMMIN
 10
0.0
 20
0.0
  9
$PLIMMAX
 10
12.0
 20
9.0
  9
$UNITMODE
 70
     0
  9
$VISRETAIN
 70
     1
  9
$PLINEGEN
 70
     0
  9
$PSLTSCALE
 70
     1
  9
$TREEDEPTH
 70
  3020
  9
$PICKSTYLE
 70
     1
  9
$CMLSTYLE
  2
STANDARD
  9
$CMLJUST
 70
     0
  9
$CMLSCALE
 40
1.0
  9
$SAVEIMAGES
 70
     1
  0
ENDSEC
  0
SECTION
  2
CLASSES
  0
CLASS
  1
ACDBDICTIONARYWDFLT
  2
AcDbDictionaryWithDefault
  3
ObjectDBX Classes
 90
    32768
280
     0
281
     0
  0
CLASS
  1
VISUALSTYLE
  2
AcDbVisualStyle
  3
ObjectDBX Classes
 90
     4095
280
     0
281
     0
  0
CLASS
  1
XRECORD
  2
AcDbXrecord
  3
AutoCAD 2000
 90
    32768
280
     0
281
     0
  0
CLASS
  1
LWPOLYLINE
  2
AcDbPolyline
  3
AutoCAD 2000
 90
    32768
280
     0
281
     1
  0
CLASS
  1
HATCH
  2
AcDbHatch
  3
AutoCAD 2000
 90
    32768
280
     0
281
     1
  0
CLASS
  1
ACDBPLACEHOLDER
  2
AcDbPlaceHolder
  3
ObjectDBX Classes
 90
        0
280
     0
281
     0
  0
CLASS
  1
LAYOUT
  2
AcDbLayout
  3
ObjectDBX Classes
 90
        0
280
     0
281
     0
  0
ENDSEC
  0
SECTION
  2
TABLES
  0
TABLE
  2
VPORT
  5
8
330
0
100
AcDbSymbolTable
 70
     1
  0
VPORT
  5
29
330
8
100
AcDbSymbolTableRecord
100
AcDbViewportTableRecord
  2
*ACTIVE
 70
     0
 10
0.0
 20
0.0
 11
1.0
 21
1.0
 12
0.0
 22
0.0
 13
0.0
 23
0.0
 14
0.5
 24
0.5
 15
0.5
 25
0.5
 16
0.0
 26
0.0
 36
1.0
 17
105.0008259828644
 27
-148.4999796178229
 37
0.0
 40
296.9999592356459
 41
0.7070763662937379
 42
50.0
 43
0.0
 44
0.0
 50
0.0
 51
0.0
 71
     0
 72
   100
 73
     1
 74
     3
 75
     0
 76
     0
 77
     0
 78
     0
  0
ENDTAB
  0
TABLE
  2
LTYPE
  5
5
330
0
100
AcDbSymbolTable
 70
     1
  0
LTYPE
  5
14
330
5
100
AcDbSymbolTableRecord
100
AcDbLinetypeTableRecord
  2
BYBLOCK
 70
     0
  3

 72
    65
 73
     0
 40
0.0
  0
LTYPE
  5
15
330
5
100
AcDbSymbolTableRecord
100
AcDbLinetypeTableRecord
  2
BYLAYER
 70
     0
  3

 72
    65
 73
     0
 40
0.0
  0
LTYPE
  5
16
330
5
100
AcDbSymbolTableRecord
100
AcDbLinetypeTableRecord
  2
CONTINUOUS
 70
     0
  3
Solid line
 72
    65
 73
     0
 40
0.0
  0
ENDTAB
  0
TABLE
  2
LAYER
  5
2
330
0
100
AcDbSymbolTable
 70
     2
  0
LAYER
  5
10
330
2
100
AcDbSymbolTableRecord
100
AcDbLayerTableRecord
  2
0
 70
     0
 62
     7
  6
CONTINUOUS
  0
LAYER
  5
3B
330
2
100
AcDbSymbolTableRecord
100
AcDbLayerTableRecord
  2
LAYER_1
 70
     0
 62
     7
  6
CONTINUOUS
  0
ENDTAB
  0
TABLE
  2
STYLE
  5
3
330
0
100
AcDbSymbolTable
 70
     1
  0
STYLE
  5
11
330
3
100
AcDbSymbolTableRecord
100
AcDbTextStyleTableRecord
  2
STANDARD
 70
     0
 40
0.0
 41
1.0
 50
0.0
 71
     0
 42
0.2
  3
txt
  4

  0
ENDTAB
  0
TABLE
  2
VIEW
  5
6
330
0
100
AcDbSymbolTable
 70
     0
  0
ENDTAB
  0
TABLE
  2
UCS
  5
7
330
0
100
AcDbSymbolTable
 70
     0
  0
ENDTAB
  0
TABLE
  2
APPID
  5
9
330
0
100
AcDbSymbolTable
 70
     1
  0
APPID
  5
12
330
9
100
AcDbSymbolTableRecord
100
AcDbRegAppTableRecord
  2
ACAD
 70
     0
  0
ENDTAB
  0
TABLE
  2
DIMSTYLE
  5
A
330
0
100
AcDbSymbolTable
 70
     1
  0
DIMSTYLE
105
27
330
A
100
AcDbSymbolTableRecord
100
AcDbDimStyleTableRecord
  2
STANDARD
 70
     0
  3

  4

  5

  6

  7

 40
1.0
 41
0.18
 42
0.0625
 43
0.38
 44
0.18
 45
0.0
 46
0.0
 47
0.0
 48
0.0
140
0.18
141
0.09
142
0.0
143
25.4
144
1.0
145
0.0
146
1.0
147
0.09
 71
     0
 72
     0
 73
     1
 74
     1
 75
     0
 76
     0
 77
     0
 78
     0
170
     0
171
     2
172
     0
173
     0
174
     0
175
     0
176
     0
177
     0
178
     0
270
     2
271
     4
272
     4
273
     2
274
     2
340
11
275
     0
280
     0
281
     0
282
     0
283
     1
284
     0
285
     0
286
     0
287
     3
288
     0
  0
ENDTAB
  0
TABLE
  2
BLOCK_RECORD
  5
1
330
0
100
AcDbSymbolTable
 70
     5
  0
BLOCK_RECORD
  5
1F
330
1
100
AcDbSymbolTableRecord
100
AcDbBlockTableRecord
  2
*MODEL_SPACE
  0
BLOCK_RECORD
  5
1B
330
1
100
AcDbSymbolTableRecord
100
AcDbBlockTableRecord
  2
*PAPER_SPACE
  0
BLOCK_RECORD
  5
3C
330
1
100
AcDbSymbolTableRecord
100
AcDbBlockTableRecord
  2
BLOCK_2
  0
BLOCK_RECORD
  5
41
330
1
100
AcDbSymbolTableRecord
100
AcDbBlockTableRecord
  2
BLOCK_3
  0
BLOCK_RECORD
  5
53
330
1
100
AcDbSymbolTableRecord
100
AcDbBlockTableRecord
  2
BLOCK_4
  0
BLOCK_RECORD
  5
58
330
1
100
AcDbSymbolTableRecord
100
AcDbBlockTableRecord
  2
BLOCK_5
  0
ENDTAB
  0
ENDSEC
  0
SECTION
  2
BLOCKS
  0
BLOCK
  5
20
330
1F
100
AcDbEntity
  8
0
100
AcDbBlockBegin
  2
*MODEL_SPACE
 70
     0
 71
     0
 10
0.0
 20
0.0
 30
0.0
  3
*MODEL_SPACE
  1

  0
ENDBLK
  5
21
330
1F
100
AcDbEntity
  8
0
100
AcDbBlockEnd
  0
BLOCK
  5
1C
330
1B
100
AcDbEntity
 67
     1
  8
0
100
AcDbBlockBegin
  2
*PAPER_SPACE
 70
     0
 71
     0
 10
0.0
 20
0.0
 30
0.0
  3
*PAPER_SPACE
  1

  0
ENDBLK
  5
1D
330
1B
100
AcDbEntity
 67
     1
  8
0
100
AcDbBlockEnd
  0
BLOCK
  5
3E
330
3C
100
AcDbEntity
  8
0
100
AcDbBlockBegin
  2
BLOCK_2
 70
     0
 71
     0
 10
0.0
 20
0.0
 30
0.0
  3
BLOCK_2
  1

  0
SPLINE
  5
40
330
3C
100
AcDbEntity
  8
LAYER_1
 62
     7
100
AcDbSpline
210
0.0
220
0.0
230
1.0
 70
    11
 71
     3
 72
    29
 73
    25
 74
     0
 42
0.0000000001
 43
0.0000000001
 40
0.0
 40
0.0
 40
0.0
 40
0.0
 40
1.0
 40
1.0
 40
1.0
 40
2.0
 40
2.0
 40
2.0
 40
3.0
 40
3.0
 40
3.0
 40
4.0
 40
4.0
 40
4.0
 40
5.0
 40
5.0
 40
5.0
 40
6.0
 40
6.0
 40
6.0
 40
7.0
 40
7.0
 40
7.0
 40
8.0
 40
8.0
 40
8.0
 40
8.0
 10
0.0
 20
2.000050183961793
 30
0.0
 10
0.0
 20
0.90003119552152
 30
0.0
 10
0.90003119552152
 20
0.0
 30
0.0
 10
2.000050183961793
 20
0.0
 30
0.0
 10
2.000050183961793
 20
0.0
 30
0.0
 10
38.00095349527407
 20
0.0
 30
0.0
 10
38.00095349527407
 20
0.0
 30
0.0
 10
39.10097248371434
 20
0.0
 30
0.0
 10
40.00100367923586
 20
0.90003119552152
 30
0.0
 10
40.00100367923586
 20
2.000050183961793
 30
0.0
 10
40.00100367923586
 20
2.000050183961793
 30
0.0
 10
40.00100367923586
 20
19.99998507529514
 30
0.0
 10
40.00100367923586
 20
19.99998507529514
 30
0.0
 10
40.00100367923586
 20
21.10000406373542
 30
0.0
 10
39.10097248371434
 20
22.00003525925694
 30
0.0
 10
38.00095349527407
 20
22.00003525925694
 30
0.0
 10
38.00095349527407
 20
22.00003525925694
 30
0.0
 10
2.000050183961793
 20
22.00003525925694
 30
0.0
 10
2.000050183961793
 20
22.00003525925694
 30
0.0
 10
0.90003119552152
 20
22.00003525925694
 30
0.0
 10
0.0
 20
21.10000406373542
 30
0.0
 10
0.0
 20
19.99998507529514
 30
0.0
 10
0.0
 20
19.99998507529514
 30
0.0
 10
0.0
 20
2.000050183961793
 30
0.0
 10
0.0
 20
2.000050183961793
 30
0.0
  0
INSERT
  5
42
330
3C
100
AcDbEntity
  8
LAYER_1
100
AcDbBlockReference
  2
BLOCK_3
 10
0.0
 20
0.0
 30
0.0
  0
SPLINE
  5
49
330
3C
100
AcDbEntity
  8
LAYER_1
 62
     7
100
AcDbSpline
210
0.0
220
0.0
230
1.0
 70
    11
 71
     3
 72
    17
 73
    13
 74
     0
 42
0.0000000001
 43
0.0000000001
 40
0.0
 40
0.0
 40
0.0
 40
0.0
 40
1.0
 40
1.0
 40
1.0
 40
2.0
 40
2.0
 40
2.0
 40
3.0
 40
3.0
 40
3.0
 40
4.0
 40
4.0
 40
4.0
 40
4.0
 10
5.823417153492063
 20
19.11390651648889
 30
0.0
 10
5.823417153492063
 20
18.28553330706056
 30
0.0
 10
5.151795788642607
 20
17.61373968743684
 30
0.0
 10
4.323594833988546
 20
17.61373968743684
 30
0.0
 10
3.49504936978596
 20
17.61373968743684
 30
0.0
 10
2.823428004936504
 20
18.28553330706056
 30
0.0
 10
2.823428004936504
 20
19.11390651648889
 30
0.0
 10
2.823428004936504
 20
19.94210747114295
 30
0.0
 10
3.49504936978596
 20
20.61390109076666
 30
0.0
 10
4.323594833988546
 20
20.61390109076666
 30
0.0
 10
5.151795788642607
 20
20.61390109076666
 30
0.0
 10
5.823417153492063
 20
19.94210747114295
 30
0.0
 10
5.823417153492063
 20
19.11390651648889
 30
0.0
  0
SPLINE
  5
4A
330
3C
100
AcDbEntity
  8
LAYER_1
 62
     7
100
AcDbSpline
210
0.0
220
0.0
230
1.0
 70
    11
 71
     3
 72
    17
 73
    13
 74
     0
 42
0.0000000001
 43
0.0000000001
 40
0.0
 40
0.0
 40
0.0
 40
0.0
 40
1.0
 40
1.0
 40
1.0
 40
2.0
 40
2.0
 40
2.0
 40
3.0
 40
3.0
 40
3.0
 40
4.0
 40
4.0
 40
4.0
 40
4.0
 10
16.30494791259043
 20
19.11390651648889
 30
0.0
 10
16.30494791259043
 20
18.28553330706056
 30
0.0
 10
15.63315429296671
 20
17.61373968743684
 30
0.0
 10
14.80495333831265
 20
17.61373968743684
 30
0.0
 10
13.97640787411007
 20
17.61373968743684
 30
0.0
 10
13.30495876403487
 20
18.28553330706056
 30
0.0
 10
13.30495876403487
 20
19.11390651648889
 30
0.0
 10
13.30495876403487
 20
19.94210747114295
 30
0.0
 10
13.97640787411007
 20
20.61390109076666
 30
0.0
 10
14.80495333831265
 20
20.61390109076666
 30
0.0
 10
15.63315429296671
 20
20.61390109076666
 30
0.0
 10
16.30494791259043
 20
19.94210747114295
 30
0.0
 10
16.30494791259043
 20
19.11390651648889
 30
0.0
  0
SPLINE
  5
4B
330
3C
100
AcDbEntity
  8
LAYER_1
 62
     7
100
AcDbSpline
210
0.0
220
0.0
230
1.0
 70
    11
 71
     3
 72
    17
 73
    13
 74
     0
 42
0.0000000001
 43
0.0000000001
 40
0.0
 40
0.0
 40
0.0
 40
0.0
 40
1.0
 40
1.0
 40
1.0
 40
2.0
 40
2.0
 40
2.0
 40
3.0
 40
3.0
 40
3.0
 40
4.0
 40
4.0
 40
4.0
 40
4.0
 10
26.78630641691453
 20
19.11390651648889
 30
0.0
 10
26.78630641691453
 20
18.28553330706056
 30
0.0
 10
26.11451279729082
 20
17.61373968743684
 30
0.0
 10
25.28631184263676
 20
17.61373968743684
 30
0.0
 10
24.45776637843417
 20
17.61373968743684
 30
0.0
 10
23.78631726835898
 20
18.28553330706056
 30
0.0
 10
23.78631726835898
 20
19.11390651648889
 30
0.0
 10
23.78631726835898
 20
19.94210747114295
 30
0.0
 10
24.45776637843417
 20
20.61390109076666
 30
0.0
 10
25.28631184263676
 20
20.61390109076666
 30
0.0
 10
26.11451279729082
 20
20.61390109076666
 30
0.0
 10
26.78630641691453
 20
19.94210747114295
 30
0.0
 10
26.78630641691453
 20
19.11390651648889
 30
0.0
  0
SPLINE
  5
4C
330
3C
100
AcDbEntity
  8
LAYER_1
 62
     7
100
AcDbSpline
210
0.0
220
0.0
230
1.0
 70
    11
 71
     3
 72
    17
 73
    13
 74
     0
 42
0.0000000001
 43
0.0000000001
 40
0.0
 40
0.0
 40
0.0
 40
0.0
 40
1.0
 40
1.0
 40
1.0
 40
2.0
 40
2.0
 40
2.0
 40
3.0
 40
3.0
 40
3.0
 40
4.0
 40
4.0
 40
4.0
 40
4.0
 10
37.26766492123864
 20
19.11390651648889
 30
0.0
 10
37.26766492123864
 20
18.28553330706056
 30
0.0
 10
36.59587130161492
 20
17.61373968743684
 30
0.0
 10
35.76767034696086
 20
17.61373968743684
 30
0.0
 10
34.93912488275828
 20
17.61373968743684
 30
0.0
 10
34.26767577268308
 20
18.28553330706056
 30
0.0
 10
34.26767577268308
 20
19.11390651648889
 30
0.0
 10
34.26767577268308
 20
19.94210747114295
 30
0.0
 10
34.93912488275828
 20
20.61390109076666
 30
0.0
 10
35.76767034696086
 20
20.61390109076666
 30
0.0
 10
36.59587130161492
 20
20.61390109076666
 30
0.0
 10
37.26766492123864
 20
19.94210747114295
 30
0.0
 10
37.26766492123864
 20
19.11390651648889
 30
0.0
  0
ENDBLK
  5
3F
330
3C
100
AcDbEntity
  8
0
100
AcDbBlockEnd
  0
BLOCK
  5
43
330
41
100
AcDbEntity
  8
0
100
AcDbBlockBegin
  2
BLOCK_3
 70
     0
 71
     0
 10
0.0
 20
0.0
 30
0.0
  3
BLOCK_3
  1

  0
SPLINE
  5
45
330
41
100
AcDbEntity
  8
LAYER_1
 62
     7
100
AcDbSpline
210
0.0
220
0.0
230
1.0
 70
    11
 71
     3
 72
    17
 73
    13
 74
     0
 42
0.0000000001
 43
0.0000000001
 40
0.0
 40
0.0
 40
0.0
 40
0.0
 40
1.0
 40
1.0
 40
1.0
 40
2.0
 40
2.0
 40
2.0
 40
3.0
 40
3.0
 40
3.0
 40
4.0
 40
4.0
 40
4.0
 40
4.0
 10
5.823417153492063
 20
2.885439723671001
 30
0.0
 10
5.823417153492063
 20
2.057066514242678
 30
0.0
 10
5.151795788642607
 20
1.38527289461896
 30
0.0
 10
4.323594833988546
 20
1.38527289461896
 30
0.0
 10
3.49504936978596
 20
1.38527289461896
 30
0.0
 10
2.823428004936504
 20
2.057066514242678
 30
0.0
 10
2.823428004936504
 20
2.885439723671001
 30
0.0
 10
2.823428004936504
 20
3.713640678325062
 30
0.0
 10
3.49504936978596
 20
4.38543429794878
 30
0.0
 10
4.323594833988546
 20
4.38543429794878
 30
0.0
 10
5.151795788642607
 20
4.38543429794878
 30
0.0
 10
5.823417153492063
 20
3.713640678325062
 30
0.0
 10
5.823417153492063
 20
2.885439723671001
 30
0.0
  0
SPLINE
  5
46
330
41
100
AcDbEntity
  8
LAYER_1
 62
     7
100
AcDbSpline
210
0.0
220
0.0
230
1.0
 70
    11
 71
     3
 72
    17
 73
    13
 74
     0
 42
0.0000000001
 43
0.0000000001
 40
0.0
 40
0.0
 40
0.0
 40
0.0
 40
1.0
 40
1.0
 40
1.0
 40
2.0
 40
2.0
 40
2.0
 40
3.0
 40
3.0
 40
3.0
 40
4.0
 40
4.0
 40
4.0
 40
4.0
 10
16.30494791259043
 20
2.885439723671001
 30
0.0
 10
16.30494791259043
 20
2.057066514242678
 30
0.0
 10
15.63315429296671
 20
1.38527289461896
 30
0.0
 10
14.80495333831265
 20
1.38527289461896
 30
0.0
 10
13.97640787411007
 20
1.38527289461896
 30
0.0
 10
13.30495876403487
 20
2.057066514242678
 30
0.0
 10
13.30495876403487
 20
2.885439723671001
 30
0.0
 10
13.30495876403487
 20
3.713640678325062
 30
0.0
 10
13.97640787411007
 20
4.38543429794878
 30
0.0
 10
14.80495333831265
 20
4.38543429794878
 30
0.0
 10
15.63315429296671
 20
4.38543429794878
 30
0.0
 10
16.30494791259043
 20
3.713640678325062
 30
0.0
 10
16.30494791259043
 20
2.885439723671001
 30
0.0
  0
SPLINE
  5
47
330
41
100
AcDbEntity
  8
LAYER_1
 62
     7
100
AcDbSpline
210
0.0
220
0.0
230
1.0
 70
    11
 71
     3
 72
    17
 73
    13
 74
     0
 42
0.0000000001
 43
0.0000000001
 40
0.0
 40
0.0
 40
0.0
 40
0.0
 40
1.0
 40
1.0
 40
1.0
 40
2.0
 40
2.0
 40
2.0
 40
3.0
 40
3.0
 40
3.0
 40
4.0
 40
4.0
 40
4.0
 40
4.0
 10
26.78630641691453
 20
2.885439723671001
 30
0.0
 10
26.78630641691453
 20
2.057066514242678
 30
0.0
 10
26.11451279729082
 20
1.38527289461896
 30
0.0
 10
25.28631184263676
 20
1.38527289461896
 30
0.0
 10
24.45776637843417
 20
1.38527289461896
 30
0.0
 10
23.78631726835898
 20
2.057066514242678
 30
0.0
 10
23.78631726835898
 20
2.885439723671001
 30
0.0
 10
23.78631726835898
 20
3.713640678325062
 30
0.0
 10
24.45776637843417
 20
4.38543429794878
 30
0.0
 10
25.28631184263676
 20
4.38543429794878
 30
0.0
 10
26.11451279729082
 20
4.38543429794878
 30
0.0
 10
26.78630641691453
 20
3.713640678325062
 30
0.0
 10
26.78630641691453
 20
2.885439723671001
 30
0.0
  0
SPLINE
  5
48
330
41
100
AcDbEntity
  8
LAYER_1
 62
     7
100
AcDbSpline
210
0.0
220
0.0
230
1.0
 70
    11
 71
     3
 72
    17
 73
    13
 74
     0
 42
0.0000000001
 43
0.0000000001
 40
0.0
 40
0.0
 40
0.0
 40
0.0
 40
1.0
 40
1.0
 40
1.0
 40
2.0
 40
2.0
 40
2.0
 40
3.0
 40
3.0
 40
3.0
 40
4.0
 40
4.0
 40
4.0
 40
4.0
 10
37.26766492123864
 20
2.885439723671001
 30
0.0
 10
37.26766492123864
 20
2.057066514242678
 30
0.0
 10
36.59587130161492
 20
1.38527289461896
 30
0.0
 10
35.76767034696086
 20
1.38527289461896
 30
0.0
 10
34.93912488275828
 20
1.38527289461896
 30
0.0
 10
34.26767577268308
 20
2.057066514242678
 30
0.0
 10
34.26767577268308
 20
2.885439723671001
 30
0.0
 10
34.26767577268308
 20
3.713640678325062
 30
0.0
 10
34.93912488275828
 20
4.38543429794878
 30
0.0
 10
35.76767034696086
 20
4.38543429794878
 30
0.0
 10
36.59587130161492
 20
4.38543429794878
 30
0.0
 10
37.26766492123864
 20
3.713640678325062
 30
0.0
 10
37.26766492123864
 20
2.885439723671001
 30
0.0
  0
ENDBLK
  5
44
330
41
100
AcDbEntity
  8
0
100
AcDbBlockEnd
  0
BLOCK
  5
55
330
53
100
AcDbEntity
  8
0
100
AcDbBlockBegin
  2
BLOCK_4
 70
     0
 71
     0
 10
0.0
 20
0.0
 30
0.0
  3
BLOCK_4
  1

  0
SPLINE
  5
57
330
53
100
AcDbEntity
  8
LAYER_1
 62
     7
100
AcDbSpline
210
0.0
220
0.0
230
1.0
 70
    11
 71
     3
 72
    29
 73
    25
 74
     0
 42
0.0000000001
 43
0.0000000001
 40
0.0
 40
0.0
 40
0.0
 40
0.0
 40
1.0
 40
1.0
 40
1.0
 40
2.0
 40
2.0
 40
2.0
 40
3.0
 40
3.0
 40
3.0
 40
4.0
 40
4.0
 40
4.0
 40
5.0
 40
5.0
 40
5.0
 40
6.0
 40
6.0
 40
6.0
 40
7.0
 40
7.0
 40
7.0
 40
8.0
 40
8.0
 40
8.0
 40
8.0
 10
45.97876111046712
 20
1.999877929187531
 30
0.0
 10
45.97876111046712
 20
0.9002034502957825
 30
0.0
 10
46.8789645607629
 20
0.0
 30
0.0
 10
47.97863903965465
 20
0.0
 30
0.0
 10
47.97863903965465
 20
0.0
 30
0.0
 10
83.97988686051545
 20
0.0
 30
0.0
 10
83.97988686051545
 20
0.0
 30
0.0
 10
85.07956133940719
 20
0.0
 30
0.0
 10
85.98010929925151
 20
0.9002034502957825
 30
0.0
 10
85.98010929925151
 20
1.999877929187531
 30
0.0
 10
85.98010929925151
 20
1.999877929187531
 30
0.0
 10
85.98010929925151
 20
19.99998507529514
 30
0.0
 10
85.98010929925151
 20
19.99998507529514
 30
0.0
 10
85.98010929925151
 20
21.10000406373542
 30
0.0
 10
85.07956133940719
 20
22.00003525925694
 30
0.0
 10
83.97988686051545
 20
22.00003525925694
 30
0.0
 10
83.97988686051545
 20
22.00003525925694
 30
0.0
 10
47.97863903965465
 20
22.00003525925694
 30
0.0
 10
47.97863903965465
 20
22.00003525925694
 30
0.0
 10
46.8789645607629
 20
22.00003525925694
 30
0.0
 10
45.97876111046712
 20
21.10000406373542
 30
0.0
 10
45.97876111046712
 20
19.99998507529514
 30
0.0
 10
45.97876111046712
 20
19.99998507529514
 30
0.0
 10
45.97876111046712
 20
1.999877929187531
 30
0.0
 10
45.97876111046712
 20
1.999877929187531
 30
0.0
  0
INSERT
  5
59
330
53
100
AcDbEntity
  8
LAYER_1
100
AcDbBlockReference
  2
BLOCK_5
 10
0.0
 20
0.0
 30
0.0
  0
SPLINE
  5
60
330
53
100
AcDbEntity
  8
LAYER_1
 62
     7
100
AcDbSpline
210
0.0
220
0.0
230
1.0
 70
    11
 71
     3
 72
    17
 73
    13
 74
     0
 42
0.0000000001
 43
0.0000000001
 40
0.0
 40
0.0
 40
0.0
 40
0.0
 40
1.0
 40
1.0
 40
1.0
 40
2.0
 40
2.0
 40
2.0
 40
3.0
 40
3.0
 40
3.0
 40
4.0
 40
4.0
 40
4.0
 40
4.0
 10
51.80200600918491
 20
19.11390651648889
 30
0.0
 10
51.80200600918491
 20
18.28553330706056
 30
0.0
 10
51.13055689910973
 20
17.61373968743684
 30
0.0
 10
50.30235594445566
 20
17.61373968743684
 30
0.0
 10
49.47381048025308
 20
17.61373968743684
 30
0.0
 10
48.80201686062936
 20
18.28553330706056
 30
0.0
 10
48.80201686062936
 20
19.11390651648889
 30
0.0
 10
48.80201686062936
 20
19.94210747114295
 30
0.0
 10
49.47381048025308
 20
20.61390109076666
 30
0.0
 10
50.30235594445566
 20
20.61390109076666
 30
0.0
 10
51.13055689910973
 20
20.61390109076666
 30
0.0
 10
51.80200600918491
 20
19.94210747114295
 30
0.0
 10
51.80200600918491
 20
19.11390651648889
 30
0.0
  0
SPLINE
  5
61
330
53
100
AcDbEntity
  8
LAYER_1
 62
     7
100
AcDbSpline
210
0.0
220
0.0
230
1.0
 70
    11
 71
     3
 72
    17
 73
    13
 74
     0
 42
0.0000000001
 43
0.0000000001
 40
0.0
 40
0.0
 40
0.0
 40
0.0
 40
1.0
 40
1.0
 40
1.0
 40
2.0
 40
2.0
 40
2.0
 40
3.0
 40
3.0
 40
3.0
 40
4.0
 40
4.0
 40
4.0
 40
4.0
 10
62.28370902305755
 20
19.11390651648889
 30
0.0
 10
62.28370902305755
 20
18.28553330706056
 30
0.0
 10
61.61191540343383
 20
17.61373968743684
 30
0.0
 10
60.78371444877977
 20
17.61373968743684
 30
0.0
 10
59.95516898457718
 20
17.61373968743684
 30
0.0
 10
59.28371987450199
 20
18.28553330706056
 30
0.0
 10
59.28371987450199
 20
19.11390651648889
 30
0.0
 10
59.28371987450199
 20
19.94210747114295
 30
0.0
 10
59.95516898457718
 20
20.61390109076666
 30
0.0
 10
60.78371444877977
 20
20.61390109076666
 30
0.0
 10
61.61191540343383
 20
20.61390109076666
 30
0.0
 10
62.28370902305755
 20
19.94210747114295
 30
0.0
 10
62.28370902305755
 20
19.11390651648889
 30
0.0
  0
SPLINE
  5
62
330
53
100
AcDbEntity
  8
LAYER_1
 62
     7
100
AcDbSpline
210
0.0
220
0.0
230
1.0
 70
    11
 71
     3
 72
    17
 73
    13
 74
     0
 42
0.0000000001
 43
0.0000000001
 40
0.0
 40
0.0
 40
0.0
 40
0.0
 40
1.0
 40
1.0
 40
1.0
 40
2.0
 40
2.0
 40
2.0
 40
3.0
 40
3.0
 40
3.0
 40
4.0
 40
4.0
 40
4.0
 40
4.0
 10
72.76541203693017
 20
19.11390651648889
 30
0.0
 10
72.76541203693017
 20
18.28553330706056
 30
0.0
 10
72.09361841730646
 20
17.61373968743684
 30
0.0
 10
71.2654174626524
 20
17.61373968743684
 30
0.0
 10
70.43652748890129
 20
17.61373968743684
 30
0.0
 10
69.76507837882609
 20
18.28553330706056
 30
0.0
 10
69.76507837882609
 20
19.11390651648889
 30
0.0
 10
69.76507837882609
 20
19.94210747114295
 30
0.0
 10
70.43652748890129
 20
20.61390109076666
 30
0.0
 10
71.2654174626524
 20
20.61390109076666
 30
0.0
 10
72.09361841730646
 20
20.61390109076666
 30
0.0
 10
72.76541203693017
 20
19.94210747114295
 30
0.0
 10
72.76541203693017
 20
19.11390651648889
 30
0.0
  0
SPLINE
  5
63
330
53
100
AcDbEntity
  8
LAYER_1
 62
     7
100
AcDbSpline
210
0.0
220
0.0
230
1.0
 70
    11
 71
     3
 72
    17
 73
    13
 74
     0
 42
0.0000000001
 43
0.0000000001
 40
0.0
 40
0.0
 40
0.0
 40
0.0
 40
1.0
 40
1.0
 40
1.0
 40
2.0
 40
2.0
 40
2.0
 40
3.0
 40
3.0
 40
3.0
 40
4.0
 40
4.0
 40
4.0
 40
4.0
 10
83.24677054125428
 20
19.11390651648889
 30
0.0
 10
83.24677054125428
 20
18.28553330706056
 30
0.0
 10
82.57497692163057
 20
17.61373968743684
 30
0.0
 10
81.7467759669765
 20
17.61373968743684
 30
0.0
 10
80.9178859932254
 20
17.61373968743684
 30
0.0
 10
80.24678139269872
 20
18.28553330706056
 30
0.0
 10
80.24678139269872
 20
19.11390651648889
 30
0.0
 10
80.24678139269872
 20
19.94210747114295
 30
0.0
 10
80.9178859932254
 20
20.61390109076666
 30
0.0
 10
81.7467759669765
 20
20.61390109076666
 30
0.0
 10
82.57497692163057
 20
20.61390109076666
 30
0.0
 10
83.24677054125428
 20
19.94210747114295
 30
0.0
 10
83.24677054125428
 20
19.11390651648889
 30
0.0
  0
ENDBLK
  5
56
330
53
100
AcDbEntity
  8
0
100
AcDbBlockEnd
  0
BLOCK
  5
5A
330
58
100
AcDbEntity
  8
0
100
AcDbBlockBegin
  2
BLOCK_5
 70
     0
 71
     0
 10
0.0
 20
0.0
 30
0.0
  3
BLOCK_5
  1

  0
SPLINE
  5
5C
330
58
100
AcDbEntity
  8
LAYER_1
 62
     7
100
AcDbSpline
210
0.0
220
0.0
230
1.0
 70
    11
 71
     3
 72
    17
 73
    13
 74
     0
 42
0.0000000001
 43
0.0000000001
 40
0.0
 40
0.0
 40
0.0
 40
0.0
 40
1.0
 40
1.0
 40
1.0
 40
2.0
 40
2.0
 40
2.0
 40
3.0
 40
3.0
 40
3.0
 40
4.0
 40
4.0
 40
4.0
 40
4.0
 10
51.80200600918491
 20
2.885267468896739
 30
0.0
 10
51.80200600918491
 20
2.057066514242678
 30
0.0
 10
51.13055689910973
 20
1.38527289461896
 30
0.0
 10
50.30235594445566
 20
1.38527289461896
 30
0.0
 10
49.47381048025308
 20
1.38527289461896
 30
0.0
 10
48.80201686062936
 20
2.057066514242678
 30
0.0
 10
48.80201686062936
 20
2.885267468896739
 30
0.0
 10
48.80201686062936
 20
3.7134684235508
 30
0.0
 10
49.47381048025308
 20
4.385262043174518
 30
0.0
 10
50.30235594445566
 20
4.385262043174518
 30
0.0
 10
51.13055689910973
 20
4.385262043174518
 30
0.0
 10
51.80200600918491
 20
3.7134684235508
 30
0.0
 10
51.80200600918491
 20
2.885267468896739
 30
0.0
  0
SPLINE
  5
5D
330
58
100
AcDbEntity
  8
LAYER_1
 62
     7
100
AcDbSpline
210
0.0
220
0.0
230
1.0
 70
    11
 71
     3
 72
    17
 73
    13
 74
     0
 42
0.0000000001
 43
0.0000000001
 40
0.0
 40
0.0
 40
0.0
 40
0.0
 40
1.0
 40
1.0
 40
1.0
 40
2.0
 40
2.0
 40
2.0
 40
3.0
 40
3.0
 40
3.0
 40
4.0
 40
4.0
 40
4.0
 40
4.0
 10
62.28370902305755
 20
2.885267468896739
 30
0.0
 10
62.28370902305755
 20
2.057066514242678
 30
0.0
 10
61.61191540343383
 20
1.38527289461896
 30
0.0
 10
60.78371444877977
 20
1.38527289461896
 30
0.0
 10
59.95516898457718
 20
1.38527289461896
 30
0.0
 10
59.28371987450199
 20
2.057066514242678
 30
0.0
 10
59.28371987450199
 20
2.885267468896739
 30
0.0
 10
59.28371987450199
 20
3.7134684235508
 30
0.0
 10
59.95516898457718
 20
4.385262043174518
 30
0.0
 10
60.78371444877977
 20
4.385262043174518
 30
0.0
 10
61.61191540343383
 20
4.385262043174518
 30
0.0
 10
62.28370902305755
 20
3.7134684235508
 30
0.0
 10
62.28370902305755
 20
2.885267468896739
 30
0.0
  0
SPLINE
  5
5E
330
58
100
AcDbEntity
  8
LAYER_1
 62
     7
100
AcDbSpline
210
0.0
220
0.0
230
1.0
 70
    11
 71
     3
 72
    17
 73
    13
 74
     0
 42
0.0000000001
 43
0.0000000001
 40
0.0
 40
0.0
 40
0.0
 40
0.0
 40
1.0
 40
1.0
 40
1.0
 40
2.0
 40
2.0
 40
2.0
 40
3.0
 40
3.0
 40
3.0
 40
4.0
 40
4.0
 40
4.0
 40
4.0
 10
72.76541203693017
 20
2.885267468896739
 30
0.0
 10
72.76541203693017
 20
2.057066514242678
 30
0.0
 10
72.09361841730646
 20
1.38527289461896
 30
0.0
 10
71.2654174626524
 20
1.38527289461896
 30
0.0
 10
70.43652748890129
 20
1.38527289461896
 30
0.0
 10
69.76507837882609
 20
2.057066514242678
 30
0.0
 10
69.76507837882609
 20
2.885267468896739
 30
0.0
 10
69.76507837882609
 20
3.7134684235508
 30
0.0
 10
70.43652748890129
 20
4.385262043174518
 30
0.0
 10
71.2654174626524
 20
4.385262043174518
 30
0.0
 10
72.09361841730646
 20
4.385262043174518
 30
0.0
 10
72.76541203693017
 20
3.7134684235508
 30
0.0
 10
72.76541203693017
 20
2.885267468896739
 30
0.0
  0
SPLINE
  5
5F
330
58
100
AcDbEntity
  8
LAYER_1
 62
     7
100
AcDbSpline
210
0.0
220
0.0
230
1.0
 70
    11
 71
     3
 72
    17
 73
    13
 74
     0
 42
0.0000000001
 43
0.0000000001
 40
0.0
 40
0.0
 40
0.0
 40
0.0
 40
1.0
 40
1.0
 40
1.0
 40
2.0
 40
2.0
 40
2.0
 40
3.0
 40
3.0
 40
3.0
 40
4.0
 40
4.0
 40
4.0
 40
4.0
 10
83.24677054125428
 20
2.885267468896739
 30
0.0
 10
83.24677054125428
 20
2.057066514242678
 30
0.0
 10
82.57497692163057
 20
1.38527289461896
 30
0.0
 10
81.7467759669765
 20
1.38527289461896
 30
0.0
 10
80.9178859932254
 20
1.38527289461896
 30
0.0
 10
80.24678139269872
 20
2.057066514242678
 30
0.0
 10
80.24678139269872
 20
2.885267468896739
 30
0.0
 10
80.24678139269872
 20
3.7134684235508
 30
0.0
 10
80.9178859932254
 20
4.385262043174518
 30
0.0
 10
81.7467759669765
 20
4.385262043174518
 30
0.0
 10
82.57497692163057
 20
4.385262043174518
 30
0.0
 10
83.24677054125428
 20
3.7134684235508
 30
0.0
 10
83.24677054125428
 20
2.885267468896739
 30
0.0
  0
ENDBLK
  5
5B
330
58
100
AcDbEntity
  8
0
100
AcDbBlockEnd
  0
ENDSEC
  0
SECTION
  2
ENTITIES
  0
INSERT
  5
3D
330
1F
100
AcDbEntity
  8
LAYER_1
100
AcDbBlockReference
  2
BLOCK_2
 10
0.0
 20
0.0
 30
0.0
  0
SPLINE
  5
4D
330
1F
100
AcDbEntity
  8
LAYER_1
 62
     7
100
AcDbSpline
210
0.0
220
0.0
230
1.0
 70
    11
 71
     3
 72
    17
 73
    13
 74
     0
 42
0.0000000001
 43
0.0000000001
 40
0.0
 40
0.0
 40
0.0
 40
0.0
 40
1.0
 40
1.0
 40
1.0
 40
2.0
 40
2.0
 40
2.0
 40
3.0
 40
3.0
 40
3.0
 40
4.0
 40
4.0
 40
4.0
 40
4.0
 10
10.82982991265713
 20
11.00001762962847
 30
0.0
 10
10.82982991265713
 20
10.17164442020015
 30
0.0
 10
10.15803629303341
 20
9.499850800576427
 30
0.0
 10
9.329835338379347
 20
9.499850800576427
 30
0.0
 10
8.500945364628237
 20
9.499850800576427
 30
0.0
 10
7.829840764101568
 20
10.17164442020015
 30
0.0
 10
7.829840764101568
 20
11.00001762962847
 30
0.0
 10
7.829840764101568
 20
11.82821858428253
 30
0.0
 10
8.500945364628237
 20
12.50001220390625
 30
0.0
 10
9.329835338379347
 20
12.50001220390625
 30
0.0
 10
10.15803629303341
 20
12.50001220390625
 30
0.0
 10
10.82982991265713
 20
11.82821858428253
 30
0.0
 10
10.82982991265713
 20
11.00001762962847
 30
0.0
  0
SPLINE
  5
4E
330
1F
100
AcDbEntity
  8
LAYER_1
 62
     7
100
AcDbSpline
210
0.0
220
0.0
230
1.0
 70
    11
 71
     3
 72
    17
 73
    13
 74
     0
 42
0.0000000001
 43
0.0000000001
 40
0.0
 40
0.0
 40
0.0
 40
0.0
 40
1.0
 40
1.0
 40
1.0
 40
2.0
 40
2.0
 40
2.0
 40
3.0
 40
3.0
 40
3.0
 40
4.0
 40
4.0
 40
4.0
 40
4.0
 10
12.32999674170917
 20
11.00001762962847
 30
0.0
 10
12.32999674170917
 20
9.343271210771821
 30
0.0
 10
10.98640950246173
 20
7.999683971524385
 30
0.0
 10
9.329835338379347
 20
7.999683971524385
 30
0.0
 10
7.672055390877126
 20
7.999683971524385
 30
0.0
 10
6.329846189823789
 20
9.343271210771821
 30
0.0
 10
6.329846189823789
 20
11.00001762962847
 30
0.0
 10
6.329846189823789
 20
12.65659179371085
 30
0.0
 10
7.672055390877126
 20
14.00017903295829
 30
0.0
 10
9.329835338379347
 20
14.00017903295829
 30
0.0
 10
10.98640950246173
 20
14.00017903295829
 30
0.0
 10
12.32999674170917
 20
12.65659179371085
 30
0.0
 10
12.32999674170917
 20
11.00001762962847
 30
0.0
  0
SPLINE
  5
4F
330
1F
100
AcDbEntity
  8
LAYER_1
 62
     7
100
AcDbSpline
210
0.0
220
0.0
230
1.0
 70
    11
 71
     3
 72
    17
 73
    13
 74
     0
 42
0.0000000001
 43
0.0000000001
 40
0.0
 40
0.0
 40
0.0
 40
0.0
 40
1.0
 40
1.0
 40
1.0
 40
2.0
 40
2.0
 40
2.0
 40
3.0
 40
3.0
 40
3.0
 40
4.0
 40
4.0
 40
4.0
 40
4.0
 10
21.50049641389571
 20
11.00001762962847
 30
0.0
 10
21.50049641389571
 20
10.17164442020015
 30
0.0
 10
20.82870279427199
 20
9.499850800576427
 30
0.0
 10
20.00050183961793
 20
9.499850800576427
 30
0.0
 10
19.17161186586682
 20
9.499850800576427
 30
0.0
 10
18.50050726534015
 20
10.17164442020015
 30
0.0
 10
18.50050726534015
 20
11.00001762962847
 30
0.0
 10
18.50050726534015
 20
11.82821858428253
 30
0.0
 10
19.17161186586682
 20
12.50001220390625
 30
0.0
 10
20.00050183961793
 20
12.50001220390625
 30
0.0
 10
20.82870279427199
 20
12.50001220390625
 30
0.0
 10
21.50049641389571
 20
11.82821858428253
 30
0.0
 10
21.50049641389571
 20
11.00001762962847
 30
0.0
  0
SPLINE
  5
50
330
1F
100
AcDbEntity
  8
LAYER_1
 62
     7
100
AcDbSpline
210
0.0
220
0.0
230
1.0
 70
    11
 71
     3
 72
    17
 73
    13
 74
     0
 42
0.0000000001
 43
0.0000000001
 40
0.0
 40
0.0
 40
0.0
 40
0.0
 40
1.0
 40
1.0
 40
1.0
 40
2.0
 40
2.0
 40
2.0
 40
3.0
 40
3.0
 40
3.0
 40
4.0
 40
4.0
 40
4.0
 40
4.0
 10
23.00066324294775
 20
11.00001762962847
 30
0.0
 10
23.00066324294775
 20
9.343271210771821
 30
0.0
 10
21.65707600370031
 20
7.999683971524385
 30
0.0
 10
20.00050183961793
 20
7.999683971524385
 30
0.0
 10
18.34272189211571
 20
7.999683971524385
 30
0.0
 10
17.00051269106237
 20
9.343271210771821
 30
0.0
 10
17.00051269106237
 20
11.00001762962847
 30
0.0
 10
17.00051269106237
 20
12.65659179371085
 30
0.0
 10
18.34272189211571
 20
14.00017903295829
 30
0.0
 10
20.00050183961793
 20
14.00017903295829
 30
0.0
 10
21.65707600370031
 20
14.00017903295829
 30
0.0
 10
23.00066324294775
 20
12.65659179371085
 30
0.0
 10
23.00066324294775
 20
11.00001762962847
 30
0.0
  0
SPLINE
  5
51
330
1F
100
AcDbEntity
  8
LAYER_1
 62
     7
100
AcDbSpline
210
0.0
220
0.0
230
1.0
 70
    11
 71
     3
 72
    17
 73
    13
 74
     0
 42
0.0000000001
 43
0.0000000001
 40
0.0
 40
0.0
 40
0.0
 40
0.0
 40
1.0
 40
1.0
 40
1.0
 40
2.0
 40
2.0
 40
2.0
 40
3.0
 40
3.0
 40
3.0
 40
4.0
 40
4.0
 40
4.0
 40
4.0
 10
31.82889267867472
 20
11.00001762962847
 30
0.0
 10
31.82889267867472
 20
10.17164442020015
 30
0.0
 10
31.157099059051
 20
9.499850800576427
 30
0.0
 10
30.32889810439695
 20
9.499850800576427
 30
0.0
 10
29.50000813064583
 20
9.499850800576427
 30
0.0
 10
28.82890353011916
 20
10.17164442020015
 30
0.0
 10
28.82890353011916
 20
11.00001762962847
 30
0.0
 10
28.82890353011916
 20
11.82821858428253
 30
0.0
 10
29.50000813064583
 20
12.50001220390625
 30
0.0
 10
30.32889810439695
 20
12.50001220390625
 30
0.0
 10
31.157099059051
 20
12.50001220390625
 30
0.0
 10
31.82889267867472
 20
11.82821858428253
 30
0.0
 10
31.82889267867472
 20
11.00001762962847
 30
0.0
  0
SPLINE
  5
52
330
1F
100
AcDbEntity
  8
LAYER_1
 62
     7
100
AcDbSpline
210
0.0
220
0.0
230
1.0
 70
    11
 71
     3
 72
    17
 73
    13
 74
     0
 42
0.0000000001
 43
0.0000000001
 40
0.0
 40
0.0
 40
0.0
 40
0.0
 40
1.0
 40
1.0
 40
1.0
 40
2.0
 40
2.0
 40
2.0
 40
3.0
 40
3.0
 40
3.0
 40
4.0
 40
4.0
 40
4.0
 40
4.0
 10
33.32905950772676
 20
11.00001762962847
 30
0.0
 10
33.32905950772676
 20
9.343271210771821
 30
0.0
 10
31.98547226847933
 20
7.999683971524385
 30
0.0
 10
30.32889810439695
 20
7.999683971524385
 30
0.0
 10
28.67111815689472
 20
7.999683971524385
 30
0.0
 10
27.32890895584138
 20
9.343271210771821
 30
0.0
 10
27.32890895584138
 20
11.00001762962847
 30
0.0
 10
27.32890895584138
 20
12.65659179371085
 30
0.0
 10
28.67111815689472
 20
14.00017903295829
 30
0.0
 10
30.32889810439695
 20
14.00017903295829
 30
0.0
 10
31.98547226847933
 20
14.00017903295829
 30
0.0
 10
33.32905950772676
 20
12.65659179371085
 30
0.0
 10
33.32905950772676
 20
11.00001762962847
 30
0.0
  0
INSERT
  5
54
330
1F
100
AcDbEntity
  8
LAYER_1
100
AcDbBlockReference
  2
BLOCK_4
 10
0.0
 20
0.0
 30
0.0
  0
SPLINE
  5
64
330
1F
100
AcDbEntity
  8
LAYER_1
 62
     7
100
AcDbSpline
210
0.0
220
0.0
230
1.0
 70
    11
 71
     3
 72
    17
 73
    13
 74
     0
 42
0.0000000001
 43
0.0000000001
 40
0.0
 40
0.0
 40
0.0
 40
0.0
 40
1.0
 40
1.0
 40
1.0
 40
2.0
 40
2.0
 40
2.0
 40
3.0
 40
3.0
 40
3.0
 40
4.0
 40
4.0
 40
4.0
 40
4.0
 10
56.80841876834998
 20
11.00001762962847
 30
0.0
 10
56.80841876834998
 20
10.17164442020015
 30
0.0
 10
56.13662514872626
 20
9.499850800576427
 30
0.0
 10
55.3084241940722
 20
9.499850800576427
 30
0.0
 10
54.47953422032109
 20
9.499850800576427
 30
0.0
 10
53.80842961979442
 20
10.17164442020015
 30
0.0
 10
53.80842961979442
 20
11.00001762962847
 30
0.0
 10
53.80842961979442
 20
11.82821858428253
 30
0.0
 10
54.47953422032109
 20
12.50001220390625
 30
0.0
 10
55.3084241940722
 20
12.50001220390625
 30
0.0
 10
56.13662514872626
 20
12.50001220390625
 30
0.0
 10
56.80841876834998
 20
11.82821858428253
 30
0.0
 10
56.80841876834998
 20
11.00001762962847
 30
0.0
  0
SPLINE
  5
65
330
1F
100
AcDbEntity
  8
LAYER_1
 62
     7
100
AcDbSpline
210
0.0
220
0.0
230
1.0
 70
    11
 71
     3
 72
    17
 73
    13
 74
     0
 42
0.0000000001
 43
0.0000000001
 40
0.0
 40
0.0
 40
0.0
 40
0.0
 40
1.0
 40
1.0
 40
1.0
 40
2.0
 40
2.0
 40
2.0
 40
3.0
 40
3.0
 40
3.0
 40
4.0
 40
4.0
 40
4.0
 40
4.0
 10
58.30875785217629
 20
11.00001762962847
 30
0.0
 10
58.30875785217629
 20
9.343271210771821
 30
0.0
 10
56.96517061292885
 20
7.999683971524385
 30
0.0
 10
55.3084241940722
 20
7.999683971524385
 30
0.0
 10
53.65064424656998
 20
7.999683971524385
 30
0.0
 10
52.30843504551665
 20
9.343271210771821
 30
0.0
 10
52.30843504551665
 20
11.00001762962847
 30
0.0
 10
52.30843504551665
 20
12.65659179371085
 30
0.0
 10
53.65064424656998
 20
14.00017903295829
 30
0.0
 10
55.3084241940722
 20
14.00017903295829
 30
0.0
 10
56.96517061292885
 20
14.00017903295829
 30
0.0
 10
58.30875785217629
 20
12.65659179371085
 30
0.0
 10
58.30875785217629
 20
11.00001762962847
 30
0.0
  0
SPLINE
  5
66
330
1F
100
AcDbEntity
  8
LAYER_1
 62
     7
100
AcDbSpline
210
0.0
220
0.0
230
1.0
 70
    11
 71
     3
 72
    17
 73
    13
 74
     0
 42
0.0000000001
 43
0.0000000001
 40
0.0
 40
0.0
 40
0.0
 40
0.0
 40
1.0
 40
1.0
 40
1.0
 40
2.0
 40
2.0
 40
2.0
 40
3.0
 40
3.0
 40
3.0
 40
4.0
 40
4.0
 40
4.0
 40
4.0
 10
67.47925752436282
 20
11.00001762962847
 30
0.0
 10
67.47925752436282
 20
10.17164442020015
 30
0.0
 10
66.80746390473911
 20
9.499850800576427
 30
0.0
 10
65.97926295008504
 20
9.499850800576427
 30
0.0
 10
65.15037297633394
 20
9.499850800576427
 30
0.0
 10
64.47926837580727
 20
10.17164442020015
 30
0.0
 10
64.47926837580727
 20
11.00001762962847
 30
0.0
 10
64.47926837580727
 20
11.82821858428253
 30
0.0
 10
65.15037297633394
 20
12.50001220390625
 30
0.0
 10
65.97926295008504
 20
12.50001220390625
 30
0.0
 10
66.80746390473911
 20
12.50001220390625
 30
0.0
 10
67.47925752436282
 20
11.82821858428253
 30
0.0
 10
67.47925752436282
 20
11.00001762962847
 30
0.0
  0
SPLINE
  5
67
330
1F
100
AcDbEntity
  8
LAYER_1
 62
     7
100
AcDbSpline
210
0.0
220
0.0
230
1.0
 70
    11
 71
     3
 72
    17
 73
    13
 74
     0
 42
0.0000000001
 43
0.0000000001
 40
0.0
 40
0.0
 40
0.0
 40
0.0
 40
1.0
 40
1.0
 40
1.0
 40
2.0
 40
2.0
 40
2.0
 40
3.0
 40
3.0
 40
3.0
 40
4.0
 40
4.0
 40
4.0
 40
4.0
 10
68.9792520986406
 20
11.00001762962847
 30
0.0
 10
68.9792520986406
 20
9.343271210771821
 30
0.0
 10
67.63566485939317
 20
7.999683971524385
 30
0.0
 10
65.97926295008504
 20
7.999683971524385
 30
0.0
 10
64.32148300258282
 20
7.999683971524385
 30
0.0
 10
62.97927380152949
 20
9.343271210771821
 30
0.0
 10
62.97927380152949
 20
11.00001762962847
 30
0.0
 10
62.97927380152949
 20
12.65659179371085
 30
0.0
 10
64.32148300258282
 20
14.00017903295829
 30
0.0
 10
65.97926295008504
 20
14.00017903295829
 30
0.0
 10
67.63566485939317
 20
14.00017903295829
 30
0.0
 10
68.9792520986406
 20
12.65659179371085
 30
0.0
 10
68.9792520986406
 20
11.00001762962847
 30
0.0
  0
SPLINE
  5
68
330
1F
100
AcDbEntity
  8
LAYER_1
 62
     7
100
AcDbSpline
210
0.0
220
0.0
230
1.0
 70
    11
 71
     3
 72
    17
 73
    13
 74
     0
 42
0.0000000001
 43
0.0000000001
 40
0.0
 40
0.0
 40
0.0
 40
0.0
 40
1.0
 40
1.0
 40
1.0
 40
2.0
 40
2.0
 40
2.0
 40
3.0
 40
3.0
 40
3.0
 40
4.0
 40
4.0
 40
4.0
 40
4.0
 10
77.80765378914184
 20
11.00001762962847
 30
0.0
 10
77.80765378914184
 20
10.17164442020015
 30
0.0
 10
77.13586016951812
 20
9.499850800576427
 30
0.0
 10
76.30765921486406
 20
9.499850800576427
 30
0.0
 10
75.47876924111296
 20
9.499850800576427
 30
0.0
 10
74.80766464058628
 20
10.17164442020015
 30
0.0
 10
74.80766464058628
 20
11.00001762962847
 30
0.0
 10
74.80766464058628
 20
11.82821858428253
 30
0.0
 10
75.47876924111296
 20
12.50001220390625
 30
0.0
 10
76.30765921486406
 20
12.50001220390625
 30
0.0
 10
77.13586016951812
 20
12.50001220390625
 30
0.0
 10
77.80765378914184
 20
11.82821858428253
 30
0.0
 10
77.80765378914184
 20
11.00001762962847
 30
0.0
  0
SPLINE
  5
69
330
1F
100
AcDbEntity
  8
LAYER_1
 62
     7
100
AcDbSpline
210
0.0
220
0.0
230
1.0
 70
    11
 71
     3
 72
    17
 73
    13
 74
     0
 42
0.0000000001
 43
0.0000000001
 40
0.0
 40
0.0
 40
0.0
 40
0.0
 40
1.0
 40
1.0
 40
1.0
 40
2.0
 40
2.0
 40
2.0
 40
3.0
 40
3.0
 40
3.0
 40
4.0
 40
4.0
 40
4.0
 40
4.0
 10
79.30764836341962
 20
11.00001762962847
 30
0.0
 10
79.30764836341962
 20
9.343271210771821
 30
0.0
 10
77.96406112417218
 20
7.999683971524385
 30
0.0
 10
76.30765921486406
 20
7.999683971524385
 30
0.0
 10
74.64987926736184
 20
7.999683971524385
 30
0.0
 10
73.3076700663085
 20
9.343271210771821
 30
0.0
 10
73.3076700663085
 20
11.00001762962847
 30
0.0
 10
73.3076700663085
 20
12.65659179371085
 30
0.0
 10
74.64987926736184
 20
14.00017903295829
 30
0.0
 10
76.30765921486406
 20
14.00017903295829
 30
0.0
 10
77.96406112417218
 20
14.00017903295829
 30
0.0
 10
79.30764836341962
 20
12.65659179371085
 30
0.0
 10
79.30764836341962
 20
11.00001762962847
 30
0.0
  0
ENDSEC
  0
SECTION
  2
OBJECTS
  0
DICTIONARY
  5
C
330
0
100
AcDbDictionary
  3
ACAD_GROUP
350
D
  3
ACAD_LAYOUT
350
1A
  3
ACAD_MLINESTYLE
350
17
  3
ACAD_PLOTSETTINGS
350
19
  3
ACAD_TABLESTYLE
350
6A
  3
ACAD_VISUALSTYLE
350
2A
1001
ACAD
1000
TREAT_AS_HARD
1070
     0
  0
DICTIONARY
  5
D
102
{ACAD_REACTORS
330
C
102
}
330
C
100
AcDbDictionary
1001
ACAD
1000
TREAT_AS_HARD
1070
     0
  0
DICTIONARY
  5
1A
102
{ACAD_REACTORS
330
C
102
}
330
C
100
AcDbDictionary
1001
ACAD
1000
TREAT_AS_HARD
1070
     0
  0
DICTIONARY
  5
17
102
{ACAD_REACTORS
330
C
102
}
330
C
100
AcDbDictionary
  3
STANDARD
350
18
1001
ACAD
1000
TREAT_AS_HARD
1070
     0
  0
DICTIONARY
  5
19
102
{ACAD_REACTORS
330
C
102
}
330
C
100
AcDbDictionary
1001
ACAD
1000
TREAT_AS_HARD
1070
     0
  0
DICTIONARY
  5
6A
102
{ACAD_REACTORS
330
C
102
}
330
C
100
AcDbDictionary
1001
ACAD
1000
TREAT_AS_HARD
1070
     0
  0
DICTIONARY
  5
2A
102
{ACAD_REACTORS
330
C
102
}
330
C
100
AcDbDictionary
  3
2DWIREFRAME
350
2F
  3
3D_HIDDEN
350
31
  3
3DWIREFRAME
350
30
  3
BASIC
350
32
  3
BRIGHTEN
350
36
  3
COLORCHANGE
350
3A
  3
CONCEPTUAL
350
34
  3
DIM
350
35
  3
FACEPATTERN
350
39
  3
FLAT
350
2B
  3
FLATWITHEDGES
350
2C
  3
GOURAUD
350
2D
  3
GOURAUDWITHEDGES
350
2E
  3
LINEPATTERN
350
38
  3
REALISTIC
350
33
  3
THICKEN
350
37
1001
ACAD
1000
TREAT_AS_HARD
1070
     0
  0
MLINESTYLE
  5
18
102
{ACAD_REACTORS
330
17
102
}
330
17
100
AcDbMlineStyle
  2
Standard
 70
     0
  3

 62
   256
 51
90.0
 52
90.0
 71
     2
 49
0.5
 62
   256
  6
BYLAYER
 49
-0.5
 62
   256
  6
BYLAYER
  0
VISUALSTYLE
  5
2F
102
{ACAD_REACTORS
330
2A
102
}
330
2A
100
AcDbVisualStyle
  2
2dWireframe
 70
     4
 71
     0
 72
     2
 73
     0
 90
        0
 40
-0.6
 41
-30.0
 62
     5
 63
     7
 74
     1
 91
        4
 64
     7
 65
   257
 75
     1
175
     1
 42
1.0
 92
        0
 66
   257
 43
1.0
 76
     1
 77
     6
 78
     2
 67
     7
 79
     5
170
     0
171
     0
290
     0
174
     0
 93
        1
 44
0.0
173
     0
291
     0
 45
0.0
1001
ACAD
1000
AcDbSavedByObjectVersion
1070
     0
  0
VISUALSTYLE
  5
31
102
{ACAD_REACTORS
330
2A
102
}
330
2A
100
AcDbVisualStyle
  2
3D Hidden
 70
     6
 71
     1
 72
     2
 73
     2
 90
        0
 40
-0.6
 41
-30.0
 62
     5
 63
     7
 74
     2
 91
        2
 64
     7
 65
   257
 75
     2
175
     1
 42
40.0
 92
        0
 66
   257
 43
1.0
 76
     1
 77
     6
 78
     2
 67
     7
 79
     3
170
     0
171
     0
290
     0
174
     0
 93
        1
 44
0.0
173
     0
291
     0
 45
0.0
1001
ACAD
1000
AcDbSavedByObjectVersion
1070
     0
  0
VISUALSTYLE
  5
30
102
{ACAD_REACTORS
330
2A
102
}
330
2A
100
AcDbVisualStyle
  2
3dWireframe
 70
     5
 71
     0
 72
     2
 73
     0
 90
        0
 40
-0.6
 41
-30.0
 62
     5
 63
     7
 74
     1
 91
        4
 64
     7
 65
   257
 75
     1
175
     1
 42
1.0
 92
        0
 66
   257
 43
1.0
 76
     1
 77
     6
 78
     2
 67
     7
 79
     5
170
     0
171
     0
290
     0
174
     0
 93
        1
 44
0.0
173
     0
291
     0
 45
0.0
1001
ACAD
1000
AcDbSavedByObjectVersion
1070
     0
  0
VISUALSTYLE
  5
32
102
{ACAD_REACTORS
330
2A
102
}
330
2A
100
AcDbVisualStyle
  2
Basic
 70
     7
 71
     1
 72
     0
 73
     1
 90
        0
 40
-0.6
 41
-30.0
 62
     5
 63
     7
 74
     0
 91
        4
 64
     7
 65
   257
 75
     1
175
     1
 42
1.0
 92
        8
 66
     7
 43
1.0
 76
     1
 77
     6
 78
     2
 67
     7
 79
     5
170
     0
171
     0
290
     0
174
     0
 93
        1
 44
0.0
173
     0
291
     1
 45
0.0
1001
ACAD
1000
AcDbSavedByObjectVersion
1070
     0
  0
VISUALSTYLE
  5
36
102
{ACAD_REACTORS
330
2A
102
}
330
2A
100
AcDbVisualStyle
  2
Brighten
 70
    12
 71
     2
 72
     2
 73
     0
 90
        0
 40
-0.6
 41
-30.0
 62
     5
 63
     7
 74
     1
 91
        4
 64
     7
 65
   257
 75
     1
175
     1
 42
1.0
 92
        8
 66
     7
 43
1.0
 76
     1
 77
     6
 78
     2
 67
     7
 79
     5
170
     0
171
     0
290
     0
174
     0
 93
        1
 44
50.0
173
     0
291
     1
 45
0.0
1001
ACAD
1000
AcDbSavedByObjectVersion
1070
     0
  0
VISUALSTYLE
  5
3A
102
{ACAD_REACTORS
330
2A
102
}
330
2A
100
AcDbVisualStyle
  2
ColorChange
 70
    16
 71
     2
 72
     2
 73
     3
 90
        0
 40
-0.6
 41
-30.0
 62
     5
 63
     8
 74
     1
 91
        4
 64
     7
 65
   257
 75
     1
175
     1
 42
1.0
 92
        8
 66
     8
 43
1.0
 76
     1
 77
     6
 78
     2
 67
     7
 79
     5
170
     0
171
     0
290
     0
174
     0
 93
        1
 44
0.0
173
     0
291
     1
 45
0.0
1001
ACAD
1000
AcDbSavedByObjectVersion
1070
     0
  0
VISUALSTYLE
  5
34
102
{ACAD_REACTORS
330
2A
102
}
330
2A
100
AcDbVisualStyle
  2
Conceptual
 70
     9
 71
     3
 72
     2
 73
     0
 90
        0
 40
-0.6
 41
-30.0
 62
     5
 63
     7
 74
     2
 91
        2
 64
     7
 65
   257
 75
     1
175
     1
 42
40.0
 92
        8
 66
     7
 43
1.0
 76
     1
 77
     6
 78
     2
 67
     7
 79
     3
170
     0
171
     0
290
     0
174
     0
 93
        1
 44
0.0
173
     0
291
     0
 45
0.0
1001
ACAD
1000
AcDbSavedByObjectVersion
1070
     0
  0
VISUALSTYLE
  5
35
102
{ACAD_REACTORS
330
2A
102
}
330
2A
100
AcDbVisualStyle
  2
Dim
 70
    11
 71
     2
 72
     2
 73
     0
 90
        0
 40
-0.6
 41
-30.0
 62
     5
 63
     7
 74
     1
 91
        4
 64
     7
 65
   257
 75
     1
175
     1
 42
1.0
 92
        8
 66
     7
 43
1.0
 76
     1
 77
     6
 78
     2
 67
     7
 79
     5
170
     0
171
     0
290
     0
174
     0
 93
        1
 44
-50.0
173
     0
291
     1
 45
0.0
1001
ACAD
1000
AcDbSavedByObjectVersion
1070
     0
  0
VISUALSTYLE
  5
39
102
{ACAD_REACTORS
330
2A
102
}
330
2A
100
AcDbVisualStyle
  2
Facepattern
 70
    15
 71
     2
 72
     2
 73
     0
 90
        0
 40
-0.6
 41
-30.0
 62
     5
 63
     7
 74
     1
 91
        4
 64
     7
 65
   257
 75
     1
175
     1
 42
1.0
 92
        8
 66
     7
 43
1.0
 76
     1
 77
     6
 78
     2
 67
     7
 79
     5
170
     0
171
     0
290
     0
174
     0
 93
        1
 44
0.0
173
     0
291
     1
 45
0.0
1001
ACAD
1000
AcDbSavedByObjectVersion
1070
     0
  0
VISUALSTYLE
  5
2B
102
{ACAD_REACTORS
330
2A
102
}
330
2A
100
AcDbVisualStyle
  2
Flat
 70
     0
 71
     2
 72
     1
 73
     1
 90
        2
 40
-0.6
 41
30.0
 62
     5
 63
     7
 74
     0
 91
        4
 64
     7
 65
   257
 75
     1
175
     1
 42
1.0
 92
        8
 66
     7
 43
1.0
 76
     1
 77
     6
 78
     2
 67
     7
 79
     5
170
     0
171
     0
290
     0
174
     0
 93
       13
 44
0.0
173
     0
291
     1
 45
0.0
1001
ACAD
1000
AcDbSavedByObjectVersion
1070
     0
  0
VISUALSTYLE
  5
2C
102
{ACAD_REACTORS
330
2A
102
}
330
2A
100
AcDbVisualStyle
  2
FlatWithEdges
 70
     1
 71
     2
 72
     1
 73
     1
 90
        2
 40
-0.6
 41
30.0
 62
     5
 63
     7
 74
     1
 91
        4
 64
     7
 65
   257
 75
     1
175
     1
 42
1.0
 92
        0
 66
   257
 43
1.0
 76
     1
 77
     6
 78
     2
 67
     7
 79
     5
170
     0
171
     0
290
     0
174
     0
 93
       13
 44
0.0
173
     0
291
     1
 45
0.0
1001
ACAD
1000
AcDbSavedByObjectVersion
1070
     0
  0
VISUALSTYLE
  5
2D
102
{ACAD_REACTORS
330
2A
102
}
330
2A
100
AcDbVisualStyle
  2
Gouraud
 70
     2
 71
     2
 72
     2
 73
     1
 90
        2
 40
-0.6
 41
30.0
 62
     5
 63
     7
 74
     0
 91
        4
 64
     7
 65
   257
 75
     1
175
     1
 42
1.0
 92
        0
 66
     7
 43
1.0
 76
     1
 77
     6
 78
     2
 67
     7
 79
     5
170
     0
171
     0
290
     0
174
     0
 93
       13
 44
0.0
173
     0
291
     1
 45
0.0
1001
ACAD
1000
AcDbSavedByObjectVersion
1070
     0
  0
VISUALSTYLE
  5
2E
102
{ACAD_REACTORS
330
2A
102
}
330
2A
100
AcDbVisualStyle
  2
GouraudWithEdges
 70
     3
 71
     2
 72
     2
 73
     1
 90
        2
 40
-0.6
 41
30.0
 62
     5
 63
     7
 74
     1
 91
        4
 64
     7
 65
   257
 75
     1
175
     1
 42
1.0
 92
        0
 66
   257
 43
1.0
 76
     1
 77
     6
 78
     2
 67
     7
 79
     5
170
     0
171
     0
290
     0
174
     0
 93
       13
 44
0.0
173
     0
291
     1
 45
0.0
1001
ACAD
1000
AcDbSavedByObjectVersion
1070
     0
  0
VISUALSTYLE
  5
38
102
{ACAD_REACTORS
330
2A
102
}
330
2A
100
AcDbVisualStyle
  2
Linepattern
 70
    14
 71
     2
 72
     2
 73
     0
 90
        0
 40
-0.6
 41
-30.0
 62
     5
 63
     7
 74
     1
 91
        4
 64
     7
 65
   257
 75
     7
175
     7
 42
1.0
 92
        8
 66
     7
 43
1.0
 76
     1
 77
     6
 78
     2
 67
     7
 79
     5
170
     0
171
     0
290
     0
174
     0
 93
        1
 44
0.0
173
     0
291
     1
 45
0.0
1001
ACAD
1000
AcDbSavedByObjectVersion
1070
     0
  0
VISUALSTYLE
  5
33
102
{ACAD_REACTORS
330
2A
102
}
330
2A
100
AcDbVisualStyle
  2
Realistic
 70
     8
 71
     2
 72
     2
 73
     0
 90
        0
 40
-0.6
 41
-30.0
 62
     5
 63
     7
 74
     1
 91
        0
 64
     7
 65
   257
 75
     1
175
     1
 42
1.0
 92
        8
 66
     8
 43
1.0
 76
     1
 77
     6
 78
     2
 67
     7
 79
     5
170
     0
171
     0
290
     0
174
     0
 93
       13
 44
0.0
173
     0
291
     0
 45
0.0
1001
ACAD
1000
AcDbSavedByObjectVersion
1070
     0
  0
VISUALSTYLE
  5
37
102
{ACAD_REACTORS
330
2A
102
}
330
2A
100
AcDbVisualStyle
  2
Thicken
 70
    13
 71
     2
 72
     2
 73
     0
 90
        0
 40
-0.6
 41
-30.0
 62
     5
 63
     7
 74
     1
 91
        4
 64
     7
 65
   257
 75
     1
175
     1
 42
1.0
 92
       12
 66
     7
 43
1.0
 76
     1
 77
     6
 78
     2
 67
     7
 79
     5
170
     0
171
     0
290
     0
174
     0
 93
        1
 44
0.0
173
     0
291
     1
 45
0.0
1001
ACAD
1000
AcDbSavedByObjectVersion
1070
     0
  0
ENDSEC
  0
EOF
