  0
SECTION
  2
HEADER
  9
$ACADVER
  1
AC1012
  9
$DWGCODEPAGE
  3
ansi_1252
  9
$INSBASE
 10
0.0
 20
0.0
 30
0.0
  9
$EXTMIN
 10
1.000000000000000E+20
 20
1.000000000000000E+20
 30
1.000000000000000E+20
  9
$EXTMAX
 10
-1.000000000000000E+20
 20
-1.000000000000000E+20
 30
-1.000000000000000E+20
  9
$LIMMIN
 10
0.0
 20
0.0
  9
$LIMMAX
 10
12.0
 20
9.0
  9
$ORTHOMODE
 70
     0
  9
$REGENMODE
 70
     1
  9
$FILLMODE
 70
     1
  9
$QTEXTMODE
 70
     0
  9
$MIRRTEXT
 70
     1
  9
$DRAGMODE
 70
     2
  9
$LTSCALE
 40
1.0
  9
$OSMODE
 70
    37
  9
$ATTMODE
 70
     1
  9
$TEXTSIZE
 40
0.2
  9
$TRACEWID
 40
0.05
  9
$TEXTSTYLE
  7
STANDARD
  9
$CLAYER
  8
0
  9
$CELTYPE
  6
BYLAYER
  9
$CECOLOR
 62
   256
  9
$CELTSCALE
 40
1.0
  9
$DELOBJ
 70
     1
  9
$DISPSILH
 70
     0
  9
$DIMSCALE
 40
1.0
  9
$DIMASZ
 40
0.18
  9
$DIMEXO
 40
0.0625
  9
$DIMDLI
 40
0.38
  9
$DIMRND
 40
0.0
  9
$DIMDLE
 40
0.0
  9
$DIMEXE
 40
0.18
  9
$DIMTP
 40
0.0
  9
$DIMTM
 40
0.0
  9
$DIMTXT
 40
0.18
  9
$DIMCEN
 40
0.09
  9
$DIMTSZ
 40
0.0
  9
$DIMTOL
 70
     0
  9
$DIMLIM
 70
     0
  9
$DIMTIH
 70
     1
  9
$DIMTOH
 70
     1
  9
$DIMSE1
 70
     0
  9
$DIMSE2
 70
     0
  9
$DIMTAD
 70
     0
  9
$DIMZIN
 70
     0
  9
$DIMBLK
  1

  9
$DIMASO
 70
     1
  9
$DIMSHO
 70
     1
  9
$DIMPOST
  1

  9
$DIMAPOST
  1

  9
$DIMALT
 70
     0
  9
$DIMALTD
 70
     2
  9
$DIMALTF
 40
25.4
  9
$DIMLFAC
 40
1.0
  9
$DIMTOFL
 70
     0
  9
$DIMTVP
 40
0.0
  9
$DIMTIX
 70
     0
  9
$DIMSOXD
 70
     0
  9
$DIMSAH
 70
     0
  9
$DIMBLK1
  1

  9
$DIMBLK2
  1

  9
$DIMSTYLE
  2
STANDARD
  9
$DIMCLRD
 70
     0
  9
$DIMCLRE
 70
     0
  9
$DIMCLRT
 70
     0
  9
$DIMTFAC
 40
1.0
  9
$DIMGAP
 40
0.09
  9
$DIMJUST
 70
     0
  9
$DIMSD1
 70
     0
  9
$DIMSD2
 70
     0
  9
$DIMTOLJ
 70
     1
  9
$DIMTZIN
 70
     0
  9
$DIMALTZ
 70
     0
  9
$DIMALTTZ
 70
     0
  9
$DIMFIT
 70
     3
  9
$DIMUPT
 70
     0
  9
$DIMUNIT
 70
     2
  9
$DIMDEC
 70
     4
  9
$DIMTDEC
 70
     4
  9
$DIMALTU
 70
     2
  9
$DIMALTTD
 70
     2
  9
$DIMTXSTY
  7
STANDARD
  9
$DIMAUNIT
 70
     0
  9
$LUNITS
 70
     2
  9
$LUPREC
 70
     4
  9
$SKETCHINC
 40
0.1
  9
$FILLETRAD
 40
0.5
  9
$AUNITS
 70
     0
  9
$AUPREC
 70
     0
  9
$MENU
  1
.
  9
$ELEVATION
 40
0.0
  9
$PELEVATION
 40
0.0
  9
$THICKNESS
 40
0.0
  9
$LIMCHECK
 70
     0
  9
$CHAMFERA
 40
0.5
  9
$CHAMFERB
 40
0.5
  9
$CHAMFERC
 40
1.0
  9
$CHAMFERD
 40
0.0
  9
$SKPOLY
 70
     0
  9
$TDCREATE
 40
2456382.7448464
  9
$TDUPDATE
 40
2456382.744846412
  9
$TDINDWG
 40
0.0000000116
  9
$TDUSRTIMER
 40
0.0000000116
  9
$USRTIMER
 70
     1
  9
$ANGBASE
 50
0.0
  9
$ANGDIR
 70
     0
  9
$PDMODE
 70
     0
  9
$PDSIZE
 40
0.0
  9
$PLINEWID
 40
0.0
  9
$COORDS
 70
     1
  9
$SPLFRAME
 70
     0
  9
$SPLINETYPE
 70
     6
  9
$SPLINESEGS
 70
     8
  9
$ATTDIA
 70
     0
  9
$ATTREQ
 70
     1
  9
$HANDLING
 70
     1
  9
$HANDSEED
  5
F8
  9
$SURFTAB1
 70
     6
  9
$SURFTAB2
 70
     6
  9
$SURFTYPE
 70
     6
  9
$SURFU
 70
     6
  9
$SURFV
 70
     6
  9
$UCSNAME
  2

  9
$UCSORG
 10
0.0
 20
0.0
 30
0.0
  9
$UCSXDIR
 10
1.0
 20
0.0
 30
0.0
  9
$UCSYDIR
 10
0.0
 20
1.0
 30
0.0
  9
$PUCSNAME
  2

  9
$PUCSORG
 10
0.0
 20
0.0
 30
0.0
  9
$PUCSXDIR
 10
1.0
 20
0.0
 30
0.0
  9
$PUCSYDIR
 10
0.0
 20
1.0
 30
0.0
  9
$USERI1
 70
     0
  9
$USERI2
 70
     0
  9
$USERI3
 70
     0
  9
$USERI4
 70
     0
  9
$USERI5
 70
     0
  9
$USERR1
 40
0.0
  9
$USERR2
 40
0.0
  9
$USERR3
 40
0.0
  9
$USERR4
 40
0.0
  9
$USERR5
 40
0.0
  9
$WORLDVIEW
 70
     1
  9
$SHADEDGE
 70
     3
  9
$SHADEDIF
 70
    70
  9
$TILEMODE
 70
     1
  9
$MAXACTVP
 70
    64
  9
$PINSBASE
 10
0.0
 20
0.0
 30
0.0
  9
$PLIMCHECK
 70
     0
  9
$PEXTMIN
 10
1.000000000000000E+20
 20
1.000000000000000E+20
 30
1.000000000000000E+20
  9
$PEXTMAX
 10
-1.000000000000000E+20
 20
-1.000000000000000E+20
 30
-1.000000000000000E+20
  9
$PLIMMIN
 10
0.0
 20
0.0
  9
$PLIMMAX
 10
12.0
 20
9.0
  9
$UNITMODE
 70
     0
  9
$VISRETAIN
 70
     1
  9
$PLINEGEN
 70
     0
  9
$PSLTSCALE
 70
     1
  9
$TREEDEPTH
 70
  3020
  9
$PICKSTYLE
 70
     1
  9
$CMLSTYLE
  2
STANDARD
  9
$CMLJUST
 70
     0
  9
$CMLSCALE
 40
1.0
  9
$SAVEIMAGES
 70
     1
  0
ENDSEC
  0
SECTION
  2
CLASSES
  0
CLASS
  1
ACDBDICTIONARYWDFLT
  2
AcDbDictionaryWithDefault
  3
ObjectDBX Classes
 90
    32768
280
     0
281
     0
  0
CLASS
  1
VISUALSTYLE
  2
AcDbVisualStyle
  3
ObjectDBX Classes
 90
     4095
280
     0
281
     0
  0
CLASS
  1
XRECORD
  2
AcDbXrecord
  3
AutoCAD 2000
 90
    32768
280
     0
281
     0
  0
CLASS
  1
LWPOLYLINE
  2
AcDbPolyline
  3
AutoCAD 2000
 90
    32768
280
     0
281
     1
  0
CLASS
  1
HATCH
  2
AcDbHatch
  3
AutoCAD 2000
 90
    32768
280
     0
281
     1
  0
CLASS
  1
ACDBPLACEHOLDER
  2
AcDbPlaceHolder
  3
ObjectDBX Classes
 90
        0
280
     0
281
     0
  0
CLASS
  1
LAYOUT
  2
AcDbLayout
  3
ObjectDBX Classes
 90
        0
280
     0
281
     0
  0
ENDSEC
  0
SECTION
  2
TABLES
  0
TABLE
  2
VPORT
  5
8
330
0
100
AcDbSymbolTable
 70
     1
  0
VPORT
  5
29
330
8
100
AcDbSymbolTableRecord
100
AcDbViewportTableRecord
  2
*ACTIVE
 70
     0
 10
0.0
 20
0.0
 11
1.0
 21
1.0
 12
0.0
 22
0.0
 13
0.0
 23
0.0
 14
0.5
 24
0.5
 15
0.5
 25
0.5
 16
0.0
 26
0.0
 36
1.0
 17
104.951388862651
 27
148.5194444073146
 37
0.0
 40
297.0388888146292
 41
0.7066508313539193
 42
50.0
 43
0.0
 44
0.0
 50
0.0
 51
0.0
 71
     0
 72
   100
 73
     1
 74
     3
 75
     0
 76
     0
 77
     0
 78
     0
  0
ENDTAB
  0
TABLE
  2
LTYPE
  5
5
330
0
100
AcDbSymbolTable
 70
     1
  0
LTYPE
  5
14
330
5
100
AcDbSymbolTableRecord
100
AcDbLinetypeTableRecord
  2
BYBLOCK
 70
     0
  3

 72
    65
 73
     0
 40
0.0
  0
LTYPE
  5
15
330
5
100
AcDbSymbolTableRecord
100
AcDbLinetypeTableRecord
  2
BYLAYER
 70
     0
  3

 72
    65
 73
     0
 40
0.0
  0
LTYPE
  5
16
330
5
100
AcDbSymbolTableRecord
100
AcDbLinetypeTableRecord
  2
CONTINUOUS
 70
     0
  3
Solid line
 72
    65
 73
     0
 40
0.0
  0
ENDTAB
  0
TABLE
  2
LAYER
  5
2
330
0
100
AcDbSymbolTable
 70
     2
  0
LAYER
  5
10
330
2
100
AcDbSymbolTableRecord
100
AcDbLayerTableRecord
  2
0
 70
     0
 62
     7
  6
CONTINUOUS
  0
LAYER
  5
3B
330
2
100
AcDbSymbolTableRecord
100
AcDbLayerTableRecord
  2
LAYER_1
 70
     0
 62
     7
  6
CONTINUOUS
  0
ENDTAB
  0
TABLE
  2
STYLE
  5
3
330
0
100
AcDbSymbolTable
 70
     1
  0
STYLE
  5
11
330
3
100
AcDbSymbolTableRecord
100
AcDbTextStyleTableRecord
  2
STANDARD
 70
     0
 40
0.0
 41
1.0
 50
0.0
 71
     0
 42
0.2
  3
txt
  4

  0
ENDTAB
  0
TABLE
  2
VIEW
  5
6
330
0
100
AcDbSymbolTable
 70
     0
  0
ENDTAB
  0
TABLE
  2
UCS
  5
7
330
0
100
AcDbSymbolTable
 70
     0
  0
ENDTAB
  0
TABLE
  2
APPID
  5
9
330
0
100
AcDbSymbolTable
 70
     1
  0
APPID
  5
12
330
9
100
AcDbSymbolTableRecord
100
AcDbRegAppTableRecord
  2
ACAD
 70
     0
  0
ENDTAB
  0
TABLE
  2
DIMSTYLE
  5
A
330
0
100
AcDbSymbolTable
 70
     1
  0
DIMSTYLE
105
27
330
A
100
AcDbSymbolTableRecord
100
AcDbDimStyleTableRecord
  2
STANDARD
 70
     0
  3

  4

  5

  6

  7

 40
1.0
 41
0.18
 42
0.0625
 43
0.38
 44
0.18
 45
0.0
 46
0.0
 47
0.0
 48
0.0
140
0.18
141
0.09
142
0.0
143
25.4
144
1.0
145
0.0
146
1.0
147
0.09
 71
     0
 72
     0
 73
     1
 74
     1
 75
     0
 76
     0
 77
     0
 78
     0
170
     0
171
     2
172
     0
173
     0
174
     0
175
     0
176
     0
177
     0
178
     0
270
     2
271
     4
272
     4
273
     2
274
     2
340
11
275
     0
280
     0
281
     0
282
     0
283
     1
284
     0
285
     0
286
     0
287
     3
288
     0
  0
ENDTAB
  0
TABLE
  2
BLOCK_RECORD
  5
1
330
0
100
AcDbSymbolTable
 70
     1
  0
BLOCK_RECORD
  5
1F
330
1
100
AcDbSymbolTableRecord
100
AcDbBlockTableRecord
  2
*MODEL_SPACE
  0
BLOCK_RECORD
  5
1B
330
1
100
AcDbSymbolTableRecord
100
AcDbBlockTableRecord
  2
*PAPER_SPACE
  0
ENDTAB
  0
ENDSEC
  0
SECTION
  2
BLOCKS
  0
BLOCK
  5
20
330
1F
100
AcDbEntity
  8
0
100
AcDbBlockBegin
  2
*MODEL_SPACE
 70
     0
 71
     0
 10
0.0
 20
0.0
 30
0.0
  3
*MODEL_SPACE
  1

  0
ENDBLK
  5
21
330
1F
100
AcDbEntity
  8
0
100
AcDbBlockEnd
  0
BLOCK
  5
1C
330
1B
100
AcDbEntity
 67
     1
  8
0
100
AcDbBlockBegin
  2
*PAPER_SPACE
 70
     0
 71
     0
 10
0.0
 20
0.0
 30
0.0
  3
*PAPER_SPACE
  1

  0
ENDBLK
  5
1D
330
1B
100
AcDbEntity
 67
     1
  8
0
100
AcDbBlockEnd
  0
ENDSEC
  0
SECTION
  2
ENTITIES
  0
SPLINE
  5
3C
330
1F
100
AcDbEntity
  8
LAYER_1
 62
     7
100
AcDbSpline
210
0.0
220
0.0
230
1.0
 70
    11
 71
     3
 72
    41
 73
    37
 74
     0
 42
0.0000000001
 43
0.0000000001
 40
0.0
 40
0.0
 40
0.0
 40
0.0
 40
1.0
 40
1.0
 40
1.0
 40
2.0
 40
2.0
 40
2.0
 40
3.0
 40
3.0
 40
3.0
 40
4.0
 40
4.0
 40
4.0
 40
5.0
 40
5.0
 40
5.0
 40
6.0
 40
6.0
 40
6.0
 40
7.0
 40
7.0
 40
7.0
 40
8.0
 40
8.0
 40
8.0
 40
9.0
 40
9.0
 40
9.0
 40
10.0
 40
10.0
 40
10.0
 40
11.0
 40
11.0
 40
11.0
 40
12.0
 40
12.0
 40
12.0
 40
12.0
 10
0.0
 20
53.34006888857471
 30
0.0
 10
0.0
 20
53.34006888857471
 30
0.0
 10
0.0
 20
53.34006888857471
 30
0.0
 10
0.0
 20
53.34006888857471
 30
0.0
 10
0.0
 20
53.34006888857471
 30
0.0
 10
0.0
 20
0.0
 30
0.0
 10
0.0
 20
0.0
 30
0.0
 10
0.0
 20
0.0
 30
0.0
 10
-83.60816105765699
 20
0.0
 30
0.0
 10
-83.60816105765699
 20
0.0
 30
0.0
 10
-83.60816105765699
 20
0.0
 30
0.0
 10
-83.60816105765699
 20
2.370570203400413
 30
0.0
 10
-83.60816105765699
 20
2.370570203400413
 30
0.0
 10
-83.60816105765699
 20
2.370570203400413
 30
0.0
 10
-86.31755640203173
 20
5.080137802549411
 30
0.0
 10
-86.31755640203173
 20
5.080137802549411
 30
0.0
 10
-86.31755640203173
 20
5.080137802549411
 30
0.0
 10
-86.31755640203173
 20
38.26949868834929
 30
0.0
 10
-86.31755640203173
 20
38.26949868834929
 30
0.0
 10
-86.31755640203173
 20
38.26949868834929
 30
0.0
 10
-83.60816105765699
 20
40.93634710348119
 30
0.0
 10
-83.60816105765699
 20
40.93634710348119
 30
0.0
 10
-83.60816105765699
 20
40.93634710348119
 30
0.0
 10
-83.60816105765699
 20
50.9267795011572
 30
0.0
 10
-83.60816105765699
 20
50.9267795011572
 30
0.0
 10
-83.60816105765699
 20
50.9267795011572
 30
0.0
 10
-83.60816105765699
 20
40.93634710348119
 30
0.0
 10
-83.60816105765699
 20
40.93634710348119
 30
0.0
 10
-83.60816105765699
 20
40.93634710348119
 30
0.0
 10
-83.60816105765699
 20
50.9267795011572
 30
0.0
 10
-83.60816105765699
 20
50.9267795011572
 30
0.0
 10
-83.60816105765699
 20
50.9267795011572
 30
0.0
 10
-81.23759085425658
 20
53.34006888857471
 30
0.0
 10
-81.23759085425658
 20
53.34006888857471
 30
0.0
 10
-81.23759085425658
 20
53.34006888857471
 30
0.0
 10
0.0
 20
53.34006888857471
 30
0.0
 10
0.0
 20
53.34006888857471
 30
0.0
  0
SPLINE
  5
3D
330
1F
100
AcDbEntity
  8
LAYER_1
 62
     7
100
AcDbSpline
210
0.0
220
0.0
230
1.0
 70
    11
 71
     3
 72
    17
 73
    13
 74
     0
 42
0.0000000001
 43
0.0000000001
 40
0.0
 40
0.0
 40
0.0
 40
0.0
 40
1.0
 40
1.0
 40
1.0
 40
2.0
 40
2.0
 40
2.0
 40
3.0
 40
3.0
 40
3.0
 40
4.0
 40
4.0
 40
4.0
 40
4.0
 10
-53.97482773173199
 20
25.39999999365
 30
0.0
 10
-53.4668484024319
 20
25.39999999365
 30
0.0
 10
-53.00124374760038
 20
25.86577690325578
 30
0.0
 10
-53.00124374760038
 20
26.37358397778161
 30
0.0
 10
-53.00124374760038
 20
26.92411023632453
 30
0.0
 10
-53.4668484024319
 20
27.34716796191321
 30
0.0
 10
-53.97482773173199
 20
27.34716796191321
 30
0.0
 10
-54.52518173550065
 20
27.34716796191321
 30
0.0
 10
-54.94858397063786
 20
26.92411023632453
 30
0.0
 10
-54.94858397063786
 20
26.37358397778161
 30
0.0
 10
-54.94858397063786
 20
25.86577690325578
 30
0.0
 10
-54.52518173550065
 20
25.39999999365
 30
0.0
 10
-53.97482773173199
 20
25.39999999365
 30
0.0
  0
POLYLINE
  5
3E
330
1F
100
AcDbEntity
  8
LAYER_1
 62
     7
100
AcDb2dPolyline
 66
     1
 10
0.0
 20
0.0
 30
0.0
  0
VERTEX
  5
3F
330
3E
100
AcDbEntity
  8
LAYER_1
 62
     7
100
AcDbVertex
100
AcDb2dVertex
 10
-55.54114039410083
 20
27.30513779699316
 30
0.0
  0
VERTEX
  5
40
330
3E
100
AcDbEntity
  8
LAYER_1
 62
     7
100
AcDbVertex
100
AcDb2dVertex
 10
-55.54114039410083
 20
27.34716796191321
 30
0.0
  0
VERTEX
  5
41
330
3E
100
AcDbEntity
  8
LAYER_1
 62
     7
100
AcDbVertex
100
AcDb2dVertex
 10
-57.4884806171383
 20
27.34716796191321
 30
0.0
  0
VERTEX
  5
42
330
3E
100
AcDbEntity
  8
LAYER_1
 62
     7
100
AcDbVertex
100
AcDb2dVertex
 10
-57.4884806171383
 20
25.39999999365
 30
0.0
  0
VERTEX
  5
43
330
3E
100
AcDbEntity
  8
LAYER_1
 62
     7
100
AcDbVertex
100
AcDb2dVertex
 10
-57.44627819744399
 20
25.39999999365
 30
0.0
  0
VERTEX
  5
44
330
3E
100
AcDbEntity
  8
LAYER_1
 62
     7
100
AcDbVertex
100
AcDb2dVertex
 10
-55.54114039410083
 20
25.39999999365
 30
0.0
  0
VERTEX
  5
45
330
3E
100
AcDbEntity
  8
LAYER_1
 62
     7
100
AcDbVertex
100
AcDb2dVertex
 10
-55.54114039410083
 20
27.30513779699316
 30
0.0
  0
SEQEND
  5
46
330
3E
100
AcDbEntity
  8
LAYER_1
  0
SPLINE
  5
47
330
1F
100
AcDbEntity
  8
LAYER_1
 62
     7
100
AcDbSpline
210
0.0
220
0.0
230
1.0
 70
    11
 71
     3
 72
    17
 73
    13
 74
     0
 42
0.0000000001
 43
0.0000000001
 40
0.0
 40
0.0
 40
0.0
 40
0.0
 40
1.0
 40
1.0
 40
1.0
 40
2.0
 40
2.0
 40
2.0
 40
3.0
 40
3.0
 40
3.0
 40
4.0
 40
4.0
 40
4.0
 40
4.0
 10
-52.83191730450036
 20
19.21949869311179
 30
0.0
 10
-52.83191730450036
 20
19.76968044210619
 30
0.0
 10
-53.29752195933187
 20
20.1930826772434
 30
0.0
 10
-53.80550128863196
 20
20.1930826772434
 30
0.0
 10
-54.35585529240062
 20
20.1930826772434
 30
0.0
 10
-54.77925752753783
 20
19.76968044210619
 30
0.0
 10
-54.77925752753783
 20
19.21949869311179
 30
0.0
 10
-54.77925752753783
 20
18.71134710903744
 30
0.0
 10
-54.35585529240062
 20
18.24557019943166
 30
0.0
 10
-53.80550128863196
 20
18.24557019943166
 30
0.0
 10
-53.29752195933187
 20
18.24557019943166
 30
0.0
 10
-52.83191730450036
 20
18.71134710903744
 30
0.0
 10
-52.83191730450036
 20
19.21949869311179
 30
0.0
  0
POLYLINE
  5
48
330
1F
100
AcDbEntity
  8
LAYER_1
 62
     7
100
AcDb2dPolyline
 66
     1
 10
0.0
 20
0.0
 30
0.0
  0
VERTEX
  5
49
330
48
100
AcDbEntity
  8
LAYER_1
 62
     7
100
AcDbVertex
100
AcDb2dVertex
 10
-57.31915417403827
 20
18.24557019943166
 30
0.0
  0
VERTEX
  5
4A
330
48
100
AcDbEntity
  8
LAYER_1
 62
     7
100
AcDbVertex
100
AcDb2dVertex
 10
-57.27695175434396
 20
18.24557019943166
 30
0.0
  0
VERTEX
  5
4B
330
48
100
AcDbEntity
  8
LAYER_1
 62
     7
100
AcDbVertex
100
AcDb2dVertex
 10
-55.3718139510008
 20
18.24557019943166
 30
0.0
  0
VERTEX
  5
4C
330
48
100
AcDbEntity
  8
LAYER_1
 62
     7
100
AcDbVertex
100
AcDb2dVertex
 10
-55.3718139510008
 20
20.15070800277482
 30
0.0
  0
VERTEX
  5
4D
330
48
100
AcDbEntity
  8
LAYER_1
 62
     7
100
AcDbVertex
100
AcDb2dVertex
 10
-55.3718139510008
 20
20.1930826772434
 30
0.0
  0
VERTEX
  5
4E
330
48
100
AcDbEntity
  8
LAYER_1
 62
     7
100
AcDbVertex
100
AcDb2dVertex
 10
-57.31915417403827
 20
20.1930826772434
 30
0.0
  0
VERTEX
  5
4F
330
48
100
AcDbEntity
  8
LAYER_1
 62
     7
100
AcDbVertex
100
AcDb2dVertex
 10
-57.31915417403827
 20
18.24557019943166
 30
0.0
  0
SEQEND
  5
50
330
48
100
AcDbEntity
  8
LAYER_1
  0
SPLINE
  5
51
330
1F
100
AcDbEntity
  8
LAYER_1
 62
     7
100
AcDbSpline
210
0.0
220
0.0
230
1.0
 70
    11
 71
     3
 72
    17
 73
    13
 74
     0
 42
0.0000000001
 43
0.0000000001
 40
0.0
 40
0.0
 40
0.0
 40
0.0
 40
1.0
 40
1.0
 40
1.0
 40
2.0
 40
2.0
 40
2.0
 40
3.0
 40
3.0
 40
3.0
 40
4.0
 40
4.0
 40
4.0
 40
4.0
 10
-46.05851507095065
 20
37.46506889254346
 30
0.0
 10
-45.50816106718199
 20
37.46506889254346
 30
0.0
 10
-45.04255641235047
 20
37.93050129260071
 30
0.0
 10
-45.04255641235047
 20
38.43865287667506
 30
0.0
 10
-45.04255641235047
 20
38.98883462566946
 30
0.0
 10
-45.50816106718199
 20
39.41223686080667
 30
0.0
 10
-46.05851507095065
 20
39.41223686080667
 30
0.0
 10
-46.60886907471932
 20
39.41223686080667
 30
0.0
 10
-47.03227130985652
 20
38.98883462566946
 30
0.0
 10
-47.03227130985652
 20
38.43865287667506
 30
0.0
 10
-47.03227130985652
 20
37.93050129260071
 30
0.0
 10
-46.60886907471932
 20
37.46506889254346
 30
0.0
 10
-46.05851507095065
 20
37.46506889254346
 30
0.0
  0
SPLINE
  5
52
330
1F
100
AcDbEntity
  8
LAYER_1
 62
     7
100
AcDbSpline
210
0.0
220
0.0
230
1.0
 70
    11
 71
     3
 72
    17
 73
    13
 74
     0
 42
0.0000000001
 43
0.0000000001
 40
0.0
 40
0.0
 40
0.0
 40
0.0
 40
1.0
 40
1.0
 40
1.0
 40
2.0
 40
2.0
 40
2.0
 40
3.0
 40
3.0
 40
3.0
 40
4.0
 40
4.0
 40
4.0
 40
4.0
 10
-45.04255641235047
 20
32.25780706658833
 30
0.0
 10
-45.04255641235047
 20
32.80833332513125
 30
0.0
 10
-45.50816106718199
 20
33.23173556026845
 30
0.0
 10
-46.05851507095065
 20
33.23173556026845
 30
0.0
 10
-46.60886907471932
 20
33.23173556026845
 30
0.0
 10
-47.03227130985652
 20
32.80833332513125
 30
0.0
 10
-47.03227130985652
 20
32.25780706658833
 30
0.0
 10
-47.03227130985652
 20
31.70762531759393
 30
0.0
 10
-46.60886907471932
 20
31.24219291753668
 30
0.0
 10
-46.05851507095065
 20
31.24219291753668
 30
0.0
 10
-45.50816106718199
 20
31.24219291753668
 30
0.0
 10
-45.04255641235047
 20
31.70762531759393
 30
0.0
 10
-45.04255641235047
 20
32.25780706658833
 30
0.0
  0
SPLINE
  5
53
330
1F
100
AcDbEntity
  8
LAYER_1
 62
     7
100
AcDbSpline
210
0.0
220
0.0
230
1.0
 70
    11
 71
     3
 72
    17
 73
    13
 74
     0
 42
0.0000000001
 43
0.0000000001
 40
0.0
 40
0.0
 40
0.0
 40
0.0
 40
1.0
 40
1.0
 40
1.0
 40
2.0
 40
2.0
 40
2.0
 40
3.0
 40
3.0
 40
3.0
 40
4.0
 40
4.0
 40
4.0
 40
4.0
 10
-36.82979328506339
 20
39.41223686080667
 30
0.0
 10
-37.38031954360631
 20
39.41223686080667
 30
0.0
 10
-37.80337726919499
 20
38.98883462566946
 30
0.0
 10
-37.80337726919499
 20
38.43865287667506
 30
0.0
 10
-37.80337726919499
 20
37.93050129260071
 30
0.0
 10
-37.38031954360631
 20
37.46506889254346
 30
0.0
 10
-36.82979328506339
 20
37.46506889254346
 30
0.0
 10
-36.32198621053756
 20
37.46506889254346
 30
0.0
 10
-35.85620930093178
 20
37.93050129260071
 30
0.0
 10
-35.85620930093178
 20
38.43865287667506
 30
0.0
 10
-35.85620930093178
 20
38.98883462566946
 30
0.0
 10
-36.32198621053756
 20
39.41223686080667
 30
0.0
 10
-36.82979328506339
 20
39.41223686080667
 30
0.0
  0
SPLINE
  5
54
330
1F
100
AcDbEntity
  8
LAYER_1
 62
     7
100
AcDbSpline
210
0.0
220
0.0
230
1.0
 70
    11
 71
     3
 72
    17
 73
    13
 74
     0
 42
0.0000000001
 43
0.0000000001
 40
0.0
 40
0.0
 40
0.0
 40
0.0
 40
1.0
 40
1.0
 40
1.0
 40
2.0
 40
2.0
 40
2.0
 40
3.0
 40
3.0
 40
3.0
 40
4.0
 40
4.0
 40
4.0
 40
4.0
 10
-35.85620930093178
 20
32.25780706658833
 30
0.0
 10
-35.85620930093178
 20
32.80833332513125
 30
0.0
 10
-36.32198621053756
 20
33.23173556026845
 30
0.0
 10
-36.82979328506339
 20
33.23173556026845
 30
0.0
 10
-37.38031954360631
 20
33.23173556026845
 30
0.0
 10
-37.80337726919499
 20
32.80833332513125
 30
0.0
 10
-37.80337726919499
 20
32.25780706658833
 30
0.0
 10
-37.80337726919499
 20
31.70762531759393
 30
0.0
 10
-37.38031954360631
 20
31.24219291753668
 30
0.0
 10
-36.82979328506339
 20
31.24219291753668
 30
0.0
 10
-36.32198621053756
 20
31.24219291753668
 30
0.0
 10
-35.85620930093178
 20
31.70762531759393
 30
0.0
 10
-35.85620930093178
 20
32.25780706658833
 30
0.0
  0
SPLINE
  5
55
330
1F
100
AcDbEntity
  8
LAYER_1
 62
     7
100
AcDbSpline
210
0.0
220
0.0
230
1.0
 70
    11
 71
     3
 72
    17
 73
    13
 74
     0
 42
0.0000000001
 43
0.0000000001
 40
0.0
 40
0.0
 40
0.0
 40
0.0
 40
1.0
 40
1.0
 40
1.0
 40
2.0
 40
2.0
 40
2.0
 40
3.0
 40
3.0
 40
3.0
 40
4.0
 40
4.0
 40
4.0
 40
4.0
 10
-12.699999996825
 20
3.809931097137795
 30
0.0
 10
-13.2501817458194
 20
3.809931097137795
 30
0.0
 10
-13.6735839809566
 20
3.259749348143396
 30
0.0
 10
-13.6735839809566
 20
2.582443575743278
 30
0.0
 10
-13.6735839809566
 20
1.90513780334316
 30
0.0
 10
-13.2501817458194
 20
1.354611544800236
 30
0.0
 10
-12.699999996825
 20
1.354611544800236
 30
0.0
 10
-12.19184841275065
 20
1.354611544800236
 30
0.0
 10
-11.72607150314487
 20
1.90513780334316
 30
0.0
 10
-11.72607150314487
 20
2.582443575743278
 30
0.0
 10
-11.72607150314487
 20
3.259749348143396
 30
0.0
 10
-12.19184841275065
 20
3.809931097137795
 30
0.0
 10
-12.699999996825
 20
3.809931097137795
 30
0.0
  0
SPLINE
  5
56
330
1F
100
AcDbEntity
  8
LAYER_1
 62
     7
100
AcDbSpline
210
0.0
220
0.0
230
1.0
 70
    11
 71
     3
 72
    17
 73
    13
 74
     0
 42
0.0000000001
 43
0.0000000001
 40
0.0
 40
0.0
 40
0.0
 40
0.0
 40
1.0
 40
1.0
 40
1.0
 40
2.0
 40
2.0
 40
2.0
 40
3.0
 40
3.0
 40
3.0
 40
4.0
 40
4.0
 40
4.0
 40
4.0
 10
-15.23972438855118
 20
3.809931097137795
 30
0.0
 10
-15.7902506470941
 20
3.809931097137795
 30
0.0
 10
-16.21365288223131
 20
3.259749348143396
 30
0.0
 10
-16.21365288223131
 20
2.582443575743278
 30
0.0
 10
-16.21365288223131
 20
1.90513780334316
 30
0.0
 10
-15.7902506470941
 20
1.354611544800236
 30
0.0
 10
-15.23972438855118
 20
1.354611544800236
 30
0.0
 10
-14.73191731402535
 20
1.354611544800236
 30
0.0
 10
-14.26614040441958
 20
1.90513780334316
 30
0.0
 10
-14.26614040441958
 20
2.582443575743278
 30
0.0
 10
-14.26614040441958
 20
3.259749348143396
 30
0.0
 10
-14.73191731402535
 20
3.809931097137795
 30
0.0
 10
-15.23972438855118
 20
3.809931097137795
 30
0.0
  0
SPLINE
  5
57
330
1F
100
AcDbEntity
  8
LAYER_1
 62
     7
100
AcDbSpline
210
0.0
220
0.0
230
1.0
 70
    11
 71
     3
 72
    17
 73
    13
 74
     0
 42
0.0000000001
 43
0.0000000001
 40
0.0
 40
0.0
 40
0.0
 40
0.0
 40
1.0
 40
1.0
 40
1.0
 40
2.0
 40
2.0
 40
2.0
 40
3.0
 40
3.0
 40
3.0
 40
4.0
 40
4.0
 40
4.0
 40
4.0
 10
-17.77979328982589
 20
3.809931097137795
 30
0.0
 10
-18.33031954836881
 20
3.809931097137795
 30
0.0
 10
-18.75337727395749
 20
3.259749348143396
 30
0.0
 10
-18.75337727395749
 20
2.582443575743278
 30
0.0
 10
-18.75337727395749
 20
1.90513780334316
 30
0.0
 10
-18.33031954836881
 20
1.354611544800236
 30
0.0
 10
-17.77979328982589
 20
1.354611544800236
 30
0.0
 10
-17.27198621530006
 20
1.354611544800236
 30
0.0
 10
-16.80620930569428
 20
1.90513780334316
 30
0.0
 10
-16.80620930569428
 20
2.582443575743278
 30
0.0
 10
-16.80620930569428
 20
3.259749348143396
 30
0.0
 10
-17.27198621530006
 20
3.809931097137795
 30
0.0
 10
-17.77979328982589
 20
3.809931097137795
 30
0.0
  0
SPLINE
  5
58
330
1F
100
AcDbEntity
  8
LAYER_1
 62
     7
100
AcDbSpline
210
0.0
220
0.0
230
1.0
 70
    11
 71
     3
 72
    17
 73
    13
 74
     0
 42
0.0000000001
 43
0.0000000001
 40
0.0
 40
0.0
 40
0.0
 40
0.0
 40
1.0
 40
1.0
 40
1.0
 40
2.0
 40
2.0
 40
2.0
 40
3.0
 40
3.0
 40
3.0
 40
4.0
 40
4.0
 40
4.0
 40
4.0
 10
-20.31986219110059
 20
3.809931097137795
 30
0.0
 10
-20.87004394009499
 20
3.809931097137795
 30
0.0
 10
-21.29344617523219
 20
3.259749348143396
 30
0.0
 10
-21.29344617523219
 20
2.582443575743278
 30
0.0
 10
-21.29344617523219
 20
1.90513780334316
 30
0.0
 10
-20.87004394009499
 20
1.354611544800236
 30
0.0
 10
-20.31986219110059
 20
1.354611544800236
 30
0.0
 10
-19.81171060702624
 20
1.354611544800236
 30
0.0
 10
-19.34627820696899
 20
1.90513780334316
 30
0.0
 10
-19.34627820696899
 20
2.582443575743278
 30
0.0
 10
-19.34627820696899
 20
3.259749348143396
 30
0.0
 10
-19.81171060702624
 20
3.809931097137795
 30
0.0
 10
-20.31986219110059
 20
3.809931097137795
 30
0.0
  0
SPLINE
  5
59
330
1F
100
AcDbEntity
  8
LAYER_1
 62
     7
100
AcDbSpline
210
0.0
220
0.0
230
1.0
 70
    11
 71
     3
 72
    17
 73
    13
 74
     0
 42
0.0000000001
 43
0.0000000001
 40
0.0
 40
0.0
 40
0.0
 40
0.0
 40
1.0
 40
1.0
 40
1.0
 40
2.0
 40
2.0
 40
2.0
 40
3.0
 40
3.0
 40
3.0
 40
4.0
 40
4.0
 40
4.0
 40
4.0
 10
-22.85993109237529
 20
3.809931097137795
 30
0.0
 10
-23.4101128413697
 20
3.809931097137795
 30
0.0
 10
-23.8335150765069
 20
3.259749348143396
 30
0.0
 10
-23.8335150765069
 20
2.582443575743278
 30
0.0
 10
-23.8335150765069
 20
1.90513780334316
 30
0.0
 10
-23.4101128413697
 20
1.354611544800236
 30
0.0
 10
-22.85993109237529
 20
1.354611544800236
 30
0.0
 10
-22.35177950830095
 20
1.354611544800236
 30
0.0
 10
-21.88634710824369
 20
1.90513780334316
 30
0.0
 10
-21.88634710824369
 20
2.582443575743278
 30
0.0
 10
-21.88634710824369
 20
3.259749348143396
 30
0.0
 10
-22.35177950830095
 20
3.809931097137795
 30
0.0
 10
-22.85993109237529
 20
3.809931097137795
 30
0.0
  0
SPLINE
  5
5A
330
1F
100
AcDbEntity
  8
LAYER_1
 62
     7
100
AcDbSpline
210
0.0
220
0.0
230
1.0
 70
    11
 71
     3
 72
    17
 73
    13
 74
     0
 42
0.0000000001
 43
0.0000000001
 40
0.0
 40
0.0
 40
0.0
 40
0.0
 40
1.0
 40
1.0
 40
1.0
 40
2.0
 40
2.0
 40
2.0
 40
3.0
 40
3.0
 40
3.0
 40
4.0
 40
4.0
 40
4.0
 40
4.0
 10
-25.39999999365
 20
3.809931097137795
 30
0.0
 10
-25.9501817426444
 20
3.809931097137795
 30
0.0
 10
-26.37358397778161
 20
3.259749348143396
 30
0.0
 10
-26.37358397778161
 20
2.582443575743278
 30
0.0
 10
-26.37358397778161
 20
1.90513780334316
 30
0.0
 10
-25.9501817426444
 20
1.354611544800236
 30
0.0
 10
-25.39999999365
 20
1.354611544800236
 30
0.0
 10
-24.89184840957565
 20
1.354611544800236
 30
0.0
 10
-24.42607149996987
 20
1.90513780334316
 30
0.0
 10
-24.42607149996987
 20
2.582443575743278
 30
0.0
 10
-24.42607149996987
 20
3.259749348143396
 30
0.0
 10
-24.89184840957565
 20
3.809931097137795
 30
0.0
 10
-25.39999999365
 20
3.809931097137795
 30
0.0
  0
SPLINE
  5
5B
330
1F
100
AcDbEntity
  8
LAYER_1
 62
     7
100
AcDbSpline
210
0.0
220
0.0
230
1.0
 70
    11
 71
     3
 72
    17
 73
    13
 74
     0
 42
0.0000000001
 43
0.0000000001
 40
0.0
 40
0.0
 40
0.0
 40
0.0
 40
1.0
 40
1.0
 40
1.0
 40
2.0
 40
2.0
 40
2.0
 40
3.0
 40
3.0
 40
3.0
 40
4.0
 40
4.0
 40
4.0
 40
4.0
 10
-27.93972438537618
 20
3.809931097137795
 30
0.0
 10
-28.4902506439191
 20
3.809931097137795
 30
0.0
 10
-28.91365287905631
 20
3.259749348143396
 30
0.0
 10
-28.91365287905631
 20
2.582443575743278
 30
0.0
 10
-28.91365287905631
 20
1.90513780334316
 30
0.0
 10
-28.4902506439191
 20
1.354611544800236
 30
0.0
 10
-27.93972438537618
 20
1.354611544800236
 30
0.0
 10
-27.43191731085036
 20
1.354611544800236
 30
0.0
 10
-26.96614040124458
 20
1.90513780334316
 30
0.0
 10
-26.96614040124458
 20
2.582443575743278
 30
0.0
 10
-26.96614040124458
 20
3.259749348143396
 30
0.0
 10
-27.43191731085036
 20
3.809931097137795
 30
0.0
 10
-27.93972438537618
 20
3.809931097137795
 30
0.0
  0
SPLINE
  5
5C
330
1F
100
AcDbEntity
  8
LAYER_1
 62
     7
100
AcDbSpline
210
0.0
220
0.0
230
1.0
 70
    11
 71
     3
 72
    17
 73
    13
 74
     0
 42
0.0000000001
 43
0.0000000001
 40
0.0
 40
0.0
 40
0.0
 40
0.0
 40
1.0
 40
1.0
 40
1.0
 40
2.0
 40
2.0
 40
2.0
 40
3.0
 40
3.0
 40
3.0
 40
4.0
 40
4.0
 40
4.0
 40
4.0
 10
-30.47979328665089
 20
3.809931097137795
 30
0.0
 10
-31.03031954519381
 20
3.809931097137795
 30
0.0
 10
-31.45337727078249
 20
3.259749348143396
 30
0.0
 10
-31.45337727078249
 20
2.582443575743278
 30
0.0
 10
-31.45337727078249
 20
1.90513780334316
 30
0.0
 10
-31.03031954519381
 20
1.354611544800236
 30
0.0
 10
-30.47979328665089
 20
1.354611544800236
 30
0.0
 10
-29.97198621212506
 20
1.354611544800236
 30
0.0
 10
-29.50620930251928
 20
1.90513780334316
 30
0.0
 10
-29.50620930251928
 20
2.582443575743278
 30
0.0
 10
-29.50620930251928
 20
3.259749348143396
 30
0.0
 10
-29.97198621212506
 20
3.809931097137795
 30
0.0
 10
-30.47979328665089
 20
3.809931097137795
 30
0.0
  0
SPLINE
  5
5D
330
1F
100
AcDbEntity
  8
LAYER_1
 62
     7
100
AcDbSpline
210
0.0
220
0.0
230
1.0
 70
    11
 71
     3
 72
    17
 73
    13
 74
     0
 42
0.0000000001
 43
0.0000000001
 40
0.0
 40
0.0
 40
0.0
 40
0.0
 40
1.0
 40
1.0
 40
1.0
 40
2.0
 40
2.0
 40
2.0
 40
3.0
 40
3.0
 40
3.0
 40
4.0
 40
4.0
 40
4.0
 40
4.0
 10
-35.5599310892003
 20
3.809931097137795
 30
0.0
 10
-36.11011283819469
 20
3.809931097137795
 30
0.0
 10
-36.5335150733319
 20
3.259749348143396
 30
0.0
 10
-36.5335150733319
 20
2.582443575743278
 30
0.0
 10
-36.5335150733319
 20
1.90513780334316
 30
0.0
 10
-36.11011283819469
 20
1.354611544800236
 30
0.0
 10
-35.5599310892003
 20
1.354611544800236
 30
0.0
 10
-35.05177950512594
 20
1.354611544800236
 30
0.0
 10
-34.58634710506869
 20
1.90513780334316
 30
0.0
 10
-34.58634710506869
 20
2.582443575743278
 30
0.0
 10
-34.58634710506869
 20
3.259749348143396
 30
0.0
 10
-35.05177950512594
 20
3.809931097137795
 30
0.0
 10
-35.5599310892003
 20
3.809931097137795
 30
0.0
  0
SPLINE
  5
5E
330
1F
100
AcDbEntity
  8
LAYER_1
 62
     7
100
AcDbSpline
210
0.0
220
0.0
230
1.0
 70
    11
 71
     3
 72
    17
 73
    13
 74
     0
 42
0.0000000001
 43
0.0000000001
 40
0.0
 40
0.0
 40
0.0
 40
0.0
 40
1.0
 40
1.0
 40
1.0
 40
2.0
 40
2.0
 40
2.0
 40
3.0
 40
3.0
 40
3.0
 40
4.0
 40
4.0
 40
4.0
 40
4.0
 10
-38.099999990475
 20
3.809931097137795
 30
0.0
 10
-38.6501817394694
 20
3.809931097137795
 30
0.0
 10
-39.07358397460661
 20
3.259749348143396
 30
0.0
 10
-39.07358397460661
 20
2.582443575743278
 30
0.0
 10
-39.07358397460661
 20
1.90513780334316
 30
0.0
 10
-38.6501817394694
 20
1.354611544800236
 30
0.0
 10
-38.099999990475
 20
1.354611544800236
 30
0.0
 10
-37.59184840640065
 20
1.354611544800236
 30
0.0
 10
-37.12607149679487
 20
1.90513780334316
 30
0.0
 10
-37.12607149679487
 20
2.582443575743278
 30
0.0
 10
-37.12607149679487
 20
3.259749348143396
 30
0.0
 10
-37.59184840640065
 20
3.809931097137795
 30
0.0
 10
-38.099999990475
 20
3.809931097137795
 30
0.0
  0
SPLINE
  5
5F
330
1F
100
AcDbEntity
  8
LAYER_1
 62
     7
100
AcDbSpline
210
0.0
220
0.0
230
1.0
 70
    11
 71
     3
 72
    17
 73
    13
 74
     0
 42
0.0000000001
 43
0.0000000001
 40
0.0
 40
0.0
 40
0.0
 40
0.0
 40
1.0
 40
1.0
 40
1.0
 40
2.0
 40
2.0
 40
2.0
 40
3.0
 40
3.0
 40
3.0
 40
4.0
 40
4.0
 40
4.0
 40
4.0
 10
-40.63972438220118
 20
3.809931097137795
 30
0.0
 10
-41.1902506407441
 20
3.809931097137795
 30
0.0
 10
-41.61348062110705
 20
3.259749348143396
 30
0.0
 10
-41.61348062110705
 20
2.582443575743278
 30
0.0
 10
-41.61348062110705
 20
1.90513780334316
 30
0.0
 10
-41.1902506407441
 20
1.354611544800236
 30
0.0
 10
-40.63972438220118
 20
1.354611544800236
 30
0.0
 10
-40.13191730767536
 20
1.354611544800236
 30
0.0
 10
-39.66614039806958
 20
1.90513780334316
 30
0.0
 10
-39.66614039806958
 20
2.582443575743278
 30
0.0
 10
-39.66614039806958
 20
3.259749348143396
 30
0.0
 10
-40.13191730767536
 20
3.809931097137795
 30
0.0
 10
-40.63972438220118
 20
3.809931097137795
 30
0.0
  0
SPLINE
  5
60
330
1F
100
AcDbEntity
  8
LAYER_1
 62
     7
100
AcDbSpline
210
0.0
220
0.0
230
1.0
 70
    11
 71
     3
 72
    17
 73
    13
 74
     0
 42
0.0000000001
 43
0.0000000001
 40
0.0
 40
0.0
 40
0.0
 40
0.0
 40
1.0
 40
1.0
 40
1.0
 40
2.0
 40
2.0
 40
2.0
 40
3.0
 40
3.0
 40
3.0
 40
4.0
 40
4.0
 40
4.0
 40
4.0
 10
-43.17979328347589
 20
3.809931097137795
 30
0.0
 10
-43.73014728724455
 20
3.809931097137795
 30
0.0
 10
-44.15354952238175
 20
3.259749348143396
 30
0.0
 10
-44.15354952238175
 20
2.582443575743278
 30
0.0
 10
-44.15354952238175
 20
1.90513780334316
 30
0.0
 10
-43.73014728724455
 20
1.354611544800236
 30
0.0
 10
-43.17979328347589
 20
1.354611544800236
 30
0.0
 10
-42.6718139541758
 20
1.354611544800236
 30
0.0
 10
-42.20620929934428
 20
1.90513780334316
 30
0.0
 10
-42.20620929934428
 20
2.582443575743278
 30
0.0
 10
-42.20620929934428
 20
3.259749348143396
 30
0.0
 10
-42.6718139541758
 20
3.809931097137795
 30
0.0
 10
-43.17979328347589
 20
3.809931097137795
 30
0.0
  0
SPLINE
  5
61
330
1F
100
AcDbEntity
  8
LAYER_1
 62
     7
100
AcDbSpline
210
0.0
220
0.0
230
1.0
 70
    11
 71
     3
 72
    17
 73
    13
 74
     0
 42
0.0000000001
 43
0.0000000001
 40
0.0
 40
0.0
 40
0.0
 40
0.0
 40
1.0
 40
1.0
 40
1.0
 40
2.0
 40
2.0
 40
2.0
 40
3.0
 40
3.0
 40
3.0
 40
4.0
 40
4.0
 40
4.0
 40
4.0
 10
-45.71986218475059
 20
3.809931097137795
 30
0.0
 10
-46.27021618851926
 20
3.809931097137795
 30
0.0
 10
-46.69361842365646
 20
3.259749348143396
 30
0.0
 10
-46.69361842365646
 20
2.582443575743278
 30
0.0
 10
-46.69361842365646
 20
1.90513780334316
 30
0.0
 10
-46.27021618851926
 20
1.354611544800236
 30
0.0
 10
-45.71986218475059
 20
1.354611544800236
 30
0.0
 10
-45.2118828554505
 20
1.354611544800236
 30
0.0
 10
-44.74627820061899
 20
1.90513780334316
 30
0.0
 10
-44.74627820061899
 20
2.582443575743278
 30
0.0
 10
-44.74627820061899
 20
3.259749348143396
 30
0.0
 10
-45.2118828554505
 20
3.809931097137795
 30
0.0
 10
-45.71986218475059
 20
3.809931097137795
 30
0.0
  0
SPLINE
  5
62
330
1F
100
AcDbEntity
  8
LAYER_1
 62
     7
100
AcDbSpline
210
0.0
220
0.0
230
1.0
 70
    11
 71
     3
 72
    17
 73
    13
 74
     0
 42
0.0000000001
 43
0.0000000001
 40
0.0
 40
0.0
 40
0.0
 40
0.0
 40
1.0
 40
1.0
 40
1.0
 40
2.0
 40
2.0
 40
2.0
 40
3.0
 40
3.0
 40
3.0
 40
4.0
 40
4.0
 40
4.0
 40
4.0
 10
-48.2599310860253
 20
3.809931097137795
 30
0.0
 10
-48.81028508979396
 20
3.809931097137795
 30
0.0
 10
-49.2335150701569
 20
3.259749348143396
 30
0.0
 10
-49.2335150701569
 20
2.582443575743278
 30
0.0
 10
-49.2335150701569
 20
1.90513780334316
 30
0.0
 10
-48.81028508979396
 20
1.354611544800236
 30
0.0
 10
-48.2599310860253
 20
1.354611544800236
 30
0.0
 10
-47.75195175672521
 20
1.354611544800236
 30
0.0
 10
-47.28617484711943
 20
1.90513780334316
 30
0.0
 10
-47.28617484711943
 20
2.582443575743278
 30
0.0
 10
-47.28617484711943
 20
3.259749348143396
 30
0.0
 10
-47.75195175672521
 20
3.809931097137795
 30
0.0
 10
-48.2599310860253
 20
3.809931097137795
 30
0.0
  0
SPLINE
  5
63
330
1F
100
AcDbEntity
  8
LAYER_1
 62
     7
100
AcDbSpline
210
0.0
220
0.0
230
1.0
 70
    11
 71
     3
 72
    17
 73
    13
 74
     0
 42
0.0000000001
 43
0.0000000001
 40
0.0
 40
0.0
 40
0.0
 40
0.0
 40
1.0
 40
1.0
 40
1.0
 40
2.0
 40
2.0
 40
2.0
 40
3.0
 40
3.0
 40
3.0
 40
4.0
 40
4.0
 40
4.0
 40
4.0
 10
-50.79982773252574
 20
3.809931097137795
 30
0.0
 10
-51.3501817362944
 20
3.809931097137795
 30
0.0
 10
-51.77358397143161
 20
3.259749348143396
 30
0.0
 10
-51.77358397143161
 20
2.582443575743278
 30
0.0
 10
-51.77358397143161
 20
1.90513780334316
 30
0.0
 10
-51.3501817362944
 20
1.354611544800236
 30
0.0
 10
-50.79982773252574
 20
1.354611544800236
 30
0.0
 10
-50.29184840322565
 20
1.354611544800236
 30
0.0
 10
-49.82624374839413
 20
1.90513780334316
 30
0.0
 10
-49.82624374839413
 20
2.582443575743278
 30
0.0
 10
-49.82624374839413
 20
3.259749348143396
 30
0.0
 10
-50.29184840322565
 20
3.809931097137795
 30
0.0
 10
-50.79982773252574
 20
3.809931097137795
 30
0.0
  0
SPLINE
  5
64
330
1F
100
AcDbEntity
  8
LAYER_1
 62
     7
100
AcDbSpline
210
0.0
220
0.0
230
1.0
 70
    11
 71
     3
 72
    17
 73
    13
 74
     0
 42
0.0000000001
 43
0.0000000001
 40
0.0
 40
0.0
 40
0.0
 40
0.0
 40
1.0
 40
1.0
 40
1.0
 40
2.0
 40
2.0
 40
2.0
 40
3.0
 40
3.0
 40
3.0
 40
4.0
 40
4.0
 40
4.0
 40
4.0
 10
-53.33989663380044
 20
3.809931097137795
 30
0.0
 10
-53.8902506375691
 20
3.809931097137795
 30
0.0
 10
-54.31348061793205
 20
3.259749348143396
 30
0.0
 10
-54.31348061793205
 20
2.582443575743278
 30
0.0
 10
-54.31348061793205
 20
1.90513780334316
 30
0.0
 10
-53.8902506375691
 20
1.354611544800236
 30
0.0
 10
-53.33989663380044
 20
1.354611544800236
 30
0.0
 10
-52.83191730450036
 20
1.354611544800236
 30
0.0
 10
-52.36614039489458
 20
1.90513780334316
 30
0.0
 10
-52.36614039489458
 20
2.582443575743278
 30
0.0
 10
-52.36614039489458
 20
3.259749348143396
 30
0.0
 10
-52.83191730450036
 20
3.809931097137795
 30
0.0
 10
-53.33989663380044
 20
3.809931097137795
 30
0.0
  0
SPLINE
  5
65
330
1F
100
AcDbEntity
  8
LAYER_1
 62
     7
100
AcDbSpline
210
0.0
220
0.0
230
1.0
 70
    11
 71
     3
 72
    17
 73
    13
 74
     0
 42
0.0000000001
 43
0.0000000001
 40
0.0
 40
0.0
 40
0.0
 40
0.0
 40
1.0
 40
1.0
 40
1.0
 40
2.0
 40
2.0
 40
2.0
 40
3.0
 40
3.0
 40
3.0
 40
4.0
 40
4.0
 40
4.0
 40
4.0
 10
-58.4198621815756
 20
3.809931097137795
 30
0.0
 10
-58.97021618534426
 20
3.809931097137795
 30
0.0
 10
-59.39361842048146
 20
3.259749348143396
 30
0.0
 10
-59.39361842048146
 20
2.582443575743278
 30
0.0
 10
-59.39361842048146
 20
1.90513780334316
 30
0.0
 10
-58.97021618534426
 20
1.354611544800236
 30
0.0
 10
-58.4198621815756
 20
1.354611544800236
 30
0.0
 10
-57.9118828522755
 20
1.354611544800236
 30
0.0
 10
-57.44627819744399
 20
1.90513780334316
 30
0.0
 10
-57.44627819744399
 20
2.582443575743278
 30
0.0
 10
-57.44627819744399
 20
3.259749348143396
 30
0.0
 10
-57.9118828522755
 20
3.809931097137795
 30
0.0
 10
-58.4198621815756
 20
3.809931097137795
 30
0.0
  0
SPLINE
  5
66
330
1F
100
AcDbEntity
  8
LAYER_1
 62
     7
100
AcDbSpline
210
0.0
220
0.0
230
1.0
 70
    11
 71
     3
 72
    17
 73
    13
 74
     0
 42
0.0000000001
 43
0.0000000001
 40
0.0
 40
0.0
 40
0.0
 40
0.0
 40
1.0
 40
1.0
 40
1.0
 40
2.0
 40
2.0
 40
2.0
 40
3.0
 40
3.0
 40
3.0
 40
4.0
 40
4.0
 40
4.0
 40
4.0
 10
-60.9599310828503
 20
3.809931097137795
 30
0.0
 10
-61.51028508661896
 20
3.809931097137795
 30
0.0
 10
-61.9335150669819
 20
3.259749348143396
 30
0.0
 10
-61.9335150669819
 20
2.582443575743278
 30
0.0
 10
-61.9335150669819
 20
1.90513780334316
 30
0.0
 10
-61.51028508661896
 20
1.354611544800236
 30
0.0
 10
-60.9599310828503
 20
1.354611544800236
 30
0.0
 10
-60.45195175355021
 20
1.354611544800236
 30
0.0
 10
-59.98617484394443
 20
1.90513780334316
 30
0.0
 10
-59.98617484394443
 20
2.582443575743278
 30
0.0
 10
-59.98617484394443
 20
3.259749348143396
 30
0.0
 10
-60.45195175355021
 20
3.809931097137795
 30
0.0
 10
-60.9599310828503
 20
3.809931097137795
 30
0.0
  0
SPLINE
  5
67
330
1F
100
AcDbEntity
  8
LAYER_1
 62
     7
100
AcDbSpline
210
0.0
220
0.0
230
1.0
 70
    11
 71
     3
 72
    17
 73
    13
 74
     0
 42
0.0000000001
 43
0.0000000001
 40
0.0
 40
0.0
 40
0.0
 40
0.0
 40
1.0
 40
1.0
 40
1.0
 40
2.0
 40
2.0
 40
2.0
 40
3.0
 40
3.0
 40
3.0
 40
4.0
 40
4.0
 40
4.0
 40
4.0
 10
-63.49982772935074
 20
3.809931097137795
 30
0.0
 10
-64.0501817331194
 20
3.809931097137795
 30
0.0
 10
-64.4735839682566
 20
3.259749348143396
 30
0.0
 10
-64.4735839682566
 20
2.582443575743278
 30
0.0
 10
-64.4735839682566
 20
1.90513780334316
 30
0.0
 10
-64.0501817331194
 20
1.354611544800236
 30
0.0
 10
-63.49982772935074
 20
1.354611544800236
 30
0.0
 10
-62.99184840005065
 20
1.354611544800236
 30
0.0
 10
-62.52624374521913
 20
1.90513780334316
 30
0.0
 10
-62.52624374521913
 20
2.582443575743278
 30
0.0
 10
-62.52624374521913
 20
3.259749348143396
 30
0.0
 10
-62.99184840005065
 20
3.809931097137795
 30
0.0
 10
-63.49982772935074
 20
3.809931097137795
 30
0.0
  0
SPLINE
  5
68
330
1F
100
AcDbEntity
  8
LAYER_1
 62
     7
100
AcDbSpline
210
0.0
220
0.0
230
1.0
 70
    11
 71
     3
 72
    17
 73
    13
 74
     0
 42
0.0000000001
 43
0.0000000001
 40
0.0
 40
0.0
 40
0.0
 40
0.0
 40
1.0
 40
1.0
 40
1.0
 40
2.0
 40
2.0
 40
2.0
 40
3.0
 40
3.0
 40
3.0
 40
4.0
 40
4.0
 40
4.0
 40
4.0
 10
-66.03989663062545
 20
3.809931097137795
 30
0.0
 10
-66.59025063439411
 20
3.809931097137795
 30
0.0
 10
-67.01348061475704
 20
3.259749348143396
 30
0.0
 10
-67.01348061475704
 20
2.582443575743278
 30
0.0
 10
-67.01348061475704
 20
1.90513780334316
 30
0.0
 10
-66.59025063439411
 20
1.354611544800236
 30
0.0
 10
-66.03989663062545
 20
1.354611544800236
 30
0.0
 10
-65.53191730132535
 20
1.354611544800236
 30
0.0
 10
-65.06614039171959
 20
1.90513780334316
 30
0.0
 10
-65.06614039171959
 20
2.582443575743278
 30
0.0
 10
-65.06614039171959
 20
3.259749348143396
 30
0.0
 10
-65.53191730132535
 20
3.809931097137795
 30
0.0
 10
-66.03989663062545
 20
3.809931097137795
 30
0.0
  0
SPLINE
  5
69
330
1F
100
AcDbEntity
  8
LAYER_1
 62
     7
100
AcDbSpline
210
0.0
220
0.0
230
1.0
 70
    11
 71
     3
 72
    17
 73
    13
 74
     0
 42
0.0000000001
 43
0.0000000001
 40
0.0
 40
0.0
 40
0.0
 40
0.0
 40
1.0
 40
1.0
 40
1.0
 40
2.0
 40
2.0
 40
2.0
 40
3.0
 40
3.0
 40
3.0
 40
4.0
 40
4.0
 40
4.0
 40
4.0
 10
-68.57979327712589
 20
3.809931097137795
 30
0.0
 10
-69.13014728089455
 20
3.809931097137795
 30
0.0
 10
-69.55354951603175
 20
3.259749348143396
 30
0.0
 10
-69.55354951603175
 20
2.582443575743278
 30
0.0
 10
-69.55354951603175
 20
1.90513780334316
 30
0.0
 10
-69.13014728089455
 20
1.354611544800236
 30
0.0
 10
-68.57979327712589
 20
1.354611544800236
 30
0.0
 10
-68.0718139478258
 20
1.354611544800236
 30
0.0
 10
-67.60620929299428
 20
1.90513780334316
 30
0.0
 10
-67.60620929299428
 20
2.582443575743278
 30
0.0
 10
-67.60620929299428
 20
3.259749348143396
 30
0.0
 10
-68.0718139478258
 20
3.809931097137795
 30
0.0
 10
-68.57979327712589
 20
3.809931097137795
 30
0.0
  0
SPLINE
  5
6A
330
1F
100
AcDbEntity
  8
LAYER_1
 62
     7
100
AcDbSpline
210
0.0
220
0.0
230
1.0
 70
    11
 71
     3
 72
    17
 73
    13
 74
     0
 42
0.0000000001
 43
0.0000000001
 40
0.0
 40
0.0
 40
0.0
 40
0.0
 40
1.0
 40
1.0
 40
1.0
 40
2.0
 40
2.0
 40
2.0
 40
3.0
 40
3.0
 40
3.0
 40
4.0
 40
4.0
 40
4.0
 40
4.0
 10
-71.1198621784006
 20
3.809931097137795
 30
0.0
 10
-71.67021618216926
 20
3.809931097137795
 30
0.0
 10
-72.09361841730646
 20
3.259749348143396
 30
0.0
 10
-72.09361841730646
 20
2.582443575743278
 30
0.0
 10
-72.09361841730646
 20
1.90513780334316
 30
0.0
 10
-71.67021618216926
 20
1.354611544800236
 30
0.0
 10
-71.1198621784006
 20
1.354611544800236
 30
0.0
 10
-70.61188284910051
 20
1.354611544800236
 30
0.0
 10
-70.14627819426899
 20
1.90513780334316
 30
0.0
 10
-70.14627819426899
 20
2.582443575743278
 30
0.0
 10
-70.14627819426899
 20
3.259749348143396
 30
0.0
 10
-70.61188284910051
 20
3.809931097137795
 30
0.0
 10
-71.1198621784006
 20
3.809931097137795
 30
0.0
  0
SPLINE
  5
6B
330
1F
100
AcDbEntity
  8
LAYER_1
 62
     7
100
AcDbSpline
210
0.0
220
0.0
230
1.0
 70
    11
 71
     3
 72
    17
 73
    13
 74
     0
 42
0.0000000001
 43
0.0000000001
 40
0.0
 40
0.0
 40
0.0
 40
0.0
 40
1.0
 40
1.0
 40
1.0
 40
2.0
 40
2.0
 40
2.0
 40
3.0
 40
3.0
 40
3.0
 40
4.0
 40
4.0
 40
4.0
 40
4.0
 10
-73.6599310796753
 20
3.809931097137795
 30
0.0
 10
-74.21028508344396
 20
3.809931097137795
 30
0.0
 10
-74.6335150638069
 20
3.259749348143396
 30
0.0
 10
-74.6335150638069
 20
2.582443575743278
 30
0.0
 10
-74.6335150638069
 20
1.90513780334316
 30
0.0
 10
-74.21028508344396
 20
1.354611544800236
 30
0.0
 10
-73.6599310796753
 20
1.354611544800236
 30
0.0
 10
-73.1519517503752
 20
1.354611544800236
 30
0.0
 10
-72.68617484076943
 20
1.90513780334316
 30
0.0
 10
-72.68617484076943
 20
2.582443575743278
 30
0.0
 10
-72.68617484076943
 20
3.259749348143396
 30
0.0
 10
-73.1519517503752
 20
3.809931097137795
 30
0.0
 10
-73.6599310796753
 20
3.809931097137795
 30
0.0
  0
SPLINE
  5
6C
330
1F
100
AcDbEntity
  8
LAYER_1
 62
     7
100
AcDbSpline
210
0.0
220
0.0
230
1.0
 70
    11
 71
     3
 72
    17
 73
    13
 74
     0
 42
0.0000000001
 43
0.0000000001
 40
0.0
 40
0.0
 40
0.0
 40
0.0
 40
1.0
 40
1.0
 40
1.0
 40
2.0
 40
2.0
 40
2.0
 40
3.0
 40
3.0
 40
3.0
 40
4.0
 40
4.0
 40
4.0
 40
4.0
 10
-76.19982772617574
 20
3.809931097137795
 30
0.0
 10
-76.7501817299444
 20
3.809931097137795
 30
0.0
 10
-77.1735839650816
 20
3.259749348143396
 30
0.0
 10
-77.1735839650816
 20
2.582443575743278
 30
0.0
 10
-77.1735839650816
 20
1.90513780334316
 30
0.0
 10
-76.7501817299444
 20
1.354611544800236
 30
0.0
 10
-76.19982772617574
 20
1.354611544800236
 30
0.0
 10
-75.64947372240708
 20
1.354611544800236
 30
0.0
 10
-75.18386906757556
 20
1.90513780334316
 30
0.0
 10
-75.18386906757556
 20
2.582443575743278
 30
0.0
 10
-75.18386906757556
 20
3.259749348143396
 30
0.0
 10
-75.64947372240708
 20
3.809931097137795
 30
0.0
 10
-76.19982772617574
 20
3.809931097137795
 30
0.0
  0
SPLINE
  5
6D
330
1F
100
AcDbEntity
  8
LAYER_1
 62
     7
100
AcDbSpline
210
0.0
220
0.0
230
1.0
 70
    11
 71
     3
 72
    17
 73
    13
 74
     0
 42
0.0000000001
 43
0.0000000001
 40
0.0
 40
0.0
 40
0.0
 40
0.0
 40
1.0
 40
1.0
 40
1.0
 40
2.0
 40
2.0
 40
2.0
 40
3.0
 40
3.0
 40
3.0
 40
4.0
 40
4.0
 40
4.0
 40
4.0
 10
-3.59805772479493
 20
49.57216795635696
 30
0.0
 10
-3.047875975800531
 20
49.57216795635696
 30
0.0
 10
-2.582099066194753
 20
50.12269421489989
 30
0.0
 10
-2.582099066194753
 20
50.7999999873
 30
0.0
 10
-2.582099066194753
 20
51.47730575970012
 30
0.0
 10
-3.047875975800531
 20
52.02783201824305
 30
0.0
 10
-3.59805772479493
 20
52.02783201824305
 30
0.0
 10
-4.148583983337854
 20
52.02783201824305
 30
0.0
 10
-4.571986218475059
 20
51.47730575970012
 30
0.0
 10
-4.571986218475059
 20
50.7999999873
 30
0.0
 10
-4.571986218475059
 20
50.12269421489989
 30
0.0
 10
-4.148583983337854
 20
49.57216795635696
 30
0.0
 10
-3.59805772479493
 20
49.57216795635696
 30
0.0
  0
SPLINE
  5
6E
330
1F
100
AcDbEntity
  8
LAYER_1
 62
     7
100
AcDbSpline
210
0.0
220
0.0
230
1.0
 70
    11
 71
     3
 72
    17
 73
    13
 74
     0
 42
0.0000000001
 43
0.0000000001
 40
0.0
 40
0.0
 40
0.0
 40
0.0
 40
1.0
 40
1.0
 40
1.0
 40
2.0
 40
2.0
 40
2.0
 40
3.0
 40
3.0
 40
3.0
 40
4.0
 40
4.0
 40
4.0
 40
4.0
 10
-6.138126626069635
 20
49.57216795635696
 30
0.0
 10
-5.587944877075237
 20
49.57216795635696
 30
0.0
 10
-5.122167967469458
 20
50.12269421489989
 30
0.0
 10
-5.122167967469458
 20
50.7999999873
 30
0.0
 10
-5.122167967469458
 20
51.47730575970012
 30
0.0
 10
-5.587944877075237
 20
52.02783201824305
 30
0.0
 10
-6.138126626069635
 20
52.02783201824305
 30
0.0
 10
-6.688652884612559
 20
52.02783201824305
 30
0.0
 10
-7.111710610201239
 20
51.47730575970012
 30
0.0
 10
-7.111710610201239
 20
50.7999999873
 30
0.0
 10
-7.111710610201239
 20
50.12269421489989
 30
0.0
 10
-6.688652884612559
 20
49.57216795635696
 30
0.0
 10
-6.138126626069635
 20
49.57216795635696
 30
0.0
  0
SPLINE
  5
6F
330
1F
100
AcDbEntity
  8
LAYER_1
 62
     7
100
AcDbSpline
210
0.0
220
0.0
230
1.0
 70
    11
 71
     3
 72
    17
 73
    13
 74
     0
 42
0.0000000001
 43
0.0000000001
 40
0.0
 40
0.0
 40
0.0
 40
0.0
 40
1.0
 40
1.0
 40
1.0
 40
2.0
 40
2.0
 40
2.0
 40
3.0
 40
3.0
 40
3.0
 40
4.0
 40
4.0
 40
4.0
 40
4.0
 10
-8.678195527344341
 20
49.57216795635696
 30
0.0
 10
-8.128013778349942
 20
49.57216795635696
 30
0.0
 10
-7.662236868744164
 20
50.12269421489989
 30
0.0
 10
-7.662236868744164
 20
50.7999999873
 30
0.0
 10
-7.662236868744164
 20
51.47730575970012
 30
0.0
 10
-8.128013778349942
 20
52.02783201824305
 30
0.0
 10
-8.678195527344341
 20
52.02783201824305
 30
0.0
 10
-9.228377276338739
 20
52.02783201824305
 30
0.0
 10
-9.651779511475944
 20
51.47730575970012
 30
0.0
 10
-9.651779511475944
 20
50.7999999873
 30
0.0
 10
-9.651779511475944
 20
50.12269421489989
 30
0.0
 10
-9.228377276338739
 20
49.57216795635696
 30
0.0
 10
-8.678195527344341
 20
49.57216795635696
 30
0.0
  0
SPLINE
  5
70
330
1F
100
AcDbEntity
  8
LAYER_1
 62
     7
100
AcDbSpline
210
0.0
220
0.0
230
1.0
 70
    11
 71
     3
 72
    17
 73
    13
 74
     0
 42
0.0000000001
 43
0.0000000001
 40
0.0
 40
0.0
 40
0.0
 40
0.0
 40
1.0
 40
1.0
 40
1.0
 40
2.0
 40
2.0
 40
2.0
 40
3.0
 40
3.0
 40
3.0
 40
4.0
 40
4.0
 40
4.0
 40
4.0
 10
-11.21826442861905
 20
52.02783201824305
 30
0.0
 10
-11.76844617761344
 20
52.02783201824305
 30
0.0
 10
-12.19184841275065
 20
51.47730575970012
 30
0.0
 10
-12.19184841275065
 20
50.7999999873
 30
0.0
 10
-12.19184841275065
 20
50.12269421489989
 30
0.0
 10
-11.76844617761344
 20
49.57216795635696
 30
0.0
 10
-11.21826442861905
 20
49.57216795635696
 30
0.0
 10
-10.66773817007612
 20
49.57216795635696
 30
0.0
 10
-10.20230577001887
 20
50.12269421489989
 30
0.0
 10
-10.20230577001887
 20
50.7999999873
 30
0.0
 10
-10.20230577001887
 20
51.47730575970012
 30
0.0
 10
-10.66773817007612
 20
52.02783201824305
 30
0.0
 10
-11.21826442861905
 20
52.02783201824305
 30
0.0
  0
SPLINE
  5
71
330
1F
100
AcDbEntity
  8
LAYER_1
 62
     7
100
AcDbSpline
210
0.0
220
0.0
230
1.0
 70
    11
 71
     3
 72
    17
 73
    13
 74
     0
 42
0.0000000001
 43
0.0000000001
 40
0.0
 40
0.0
 40
0.0
 40
0.0
 40
1.0
 40
1.0
 40
1.0
 40
2.0
 40
2.0
 40
2.0
 40
3.0
 40
3.0
 40
3.0
 40
4.0
 40
4.0
 40
4.0
 40
4.0
 10
-13.71595865542518
 20
49.57216795635696
 30
0.0
 10
-13.20780707135083
 20
49.57216795635696
 30
0.0
 10
-12.74237467129357
 20
50.12269421489989
 30
0.0
 10
-12.74237467129357
 20
50.7999999873
 30
0.0
 10
-12.74237467129357
 20
51.47730575970012
 30
0.0
 10
-13.20780707135083
 20
52.02783201824305
 30
0.0
 10
-13.71595865542518
 20
52.02783201824305
 30
0.0
 10
-14.26614040441958
 20
52.02783201824305
 30
0.0
 10
-14.68954263955678
 20
51.47730575970012
 30
0.0
 10
-14.68954263955678
 20
50.7999999873
 30
0.0
 10
-14.68954263955678
 20
50.12269421489989
 30
0.0
 10
-14.26614040441958
 20
49.57216795635696
 30
0.0
 10
-13.71595865542518
 20
49.57216795635696
 30
0.0
  0
SPLINE
  5
72
330
1F
100
AcDbEntity
  8
LAYER_1
 62
     7
100
AcDbSpline
210
0.0
220
0.0
230
1.0
 70
    11
 71
     3
 72
    17
 73
    13
 74
     0
 42
0.0000000001
 43
0.0000000001
 40
0.0
 40
0.0
 40
0.0
 40
0.0
 40
1.0
 40
1.0
 40
1.0
 40
2.0
 40
2.0
 40
2.0
 40
3.0
 40
3.0
 40
3.0
 40
4.0
 40
4.0
 40
4.0
 40
4.0
 10
-16.25602755669988
 20
49.57216795635696
 30
0.0
 10
-15.74787597262553
 20
49.57216795635696
 30
0.0
 10
-15.28209906301975
 20
50.12269421489989
 30
0.0
 10
-15.28209906301975
 20
50.7999999873
 30
0.0
 10
-15.28209906301975
 20
51.47730575970012
 30
0.0
 10
-15.74787597262553
 20
52.02783201824305
 30
0.0
 10
-16.25602755669988
 20
52.02783201824305
 30
0.0
 10
-16.80620930569428
 20
52.02783201824305
 30
0.0
 10
-17.22961154083149
 20
51.47730575970012
 30
0.0
 10
-17.22961154083149
 20
50.7999999873
 30
0.0
 10
-17.22961154083149
 20
50.12269421489989
 30
0.0
 10
-16.80620930569428
 20
49.57216795635696
 30
0.0
 10
-16.25602755669988
 20
49.57216795635696
 30
0.0
  0
SPLINE
  5
73
330
1F
100
AcDbEntity
  8
LAYER_1
 62
     7
100
AcDbSpline
210
0.0
220
0.0
230
1.0
 70
    11
 71
     3
 72
    17
 73
    13
 74
     0
 42
0.0000000001
 43
0.0000000001
 40
0.0
 40
0.0
 40
0.0
 40
0.0
 40
1.0
 40
1.0
 40
1.0
 40
2.0
 40
2.0
 40
2.0
 40
3.0
 40
3.0
 40
3.0
 40
4.0
 40
4.0
 40
4.0
 40
4.0
 10
-18.79575194842606
 20
49.57216795635696
 30
0.0
 10
-18.28794487390024
 20
49.57216795635696
 30
0.0
 10
-17.82216796429446
 20
50.12269421489989
 30
0.0
 10
-17.82216796429446
 20
50.7999999873
 30
0.0
 10
-17.82216796429446
 20
51.47730575970012
 30
0.0
 10
-18.28794487390024
 20
52.02783201824305
 30
0.0
 10
-18.79575194842606
 20
52.02783201824305
 30
0.0
 10
-19.34627820696899
 20
52.02783201824305
 30
0.0
 10
-19.76968044210619
 20
51.47730575970012
 30
0.0
 10
-19.76968044210619
 20
50.7999999873
 30
0.0
 10
-19.76968044210619
 20
50.12269421489989
 30
0.0
 10
-19.34627820696899
 20
49.57216795635696
 30
0.0
 10
-18.79575194842606
 20
49.57216795635696
 30
0.0
  0
SPLINE
  5
74
330
1F
100
AcDbEntity
  8
LAYER_1
 62
     7
100
AcDbSpline
210
0.0
220
0.0
230
1.0
 70
    11
 71
     3
 72
    17
 73
    13
 74
     0
 42
0.0000000001
 43
0.0000000001
 40
0.0
 40
0.0
 40
0.0
 40
0.0
 40
1.0
 40
1.0
 40
1.0
 40
2.0
 40
2.0
 40
2.0
 40
3.0
 40
3.0
 40
3.0
 40
4.0
 40
4.0
 40
4.0
 40
4.0
 10
-21.33582084970077
 20
49.57216795635696
 30
0.0
 10
-20.82801377517494
 20
49.57216795635696
 30
0.0
 10
-20.36223686556916
 20
50.12269421489989
 30
0.0
 10
-20.36223686556916
 20
50.7999999873
 30
0.0
 10
-20.36223686556916
 20
51.47730575970012
 30
0.0
 10
-20.82801377517494
 20
52.02783201824305
 30
0.0
 10
-21.33582084970077
 20
52.02783201824305
 30
0.0
 10
-21.88634710824369
 20
52.02783201824305
 30
0.0
 10
-22.30940483383237
 20
51.47730575970012
 30
0.0
 10
-22.30940483383237
 20
50.7999999873
 30
0.0
 10
-22.30940483383237
 20
50.12269421489989
 30
0.0
 10
-21.88634710824369
 20
49.57216795635696
 30
0.0
 10
-21.33582084970077
 20
49.57216795635696
 30
0.0
  0
SPLINE
  5
75
330
1F
100
AcDbEntity
  8
LAYER_1
 62
     7
100
AcDbSpline
210
0.0
220
0.0
230
1.0
 70
    11
 71
     3
 72
    17
 73
    13
 74
     0
 42
0.0000000001
 43
0.0000000001
 40
0.0
 40
0.0
 40
0.0
 40
0.0
 40
1.0
 40
1.0
 40
1.0
 40
2.0
 40
2.0
 40
2.0
 40
3.0
 40
3.0
 40
3.0
 40
4.0
 40
4.0
 40
4.0
 40
4.0
 10
-22.90230576684387
 20
50.7999999873
 30
0.0
 10
-22.90230576684387
 20
51.47730575970012
 30
0.0
 10
-23.36773816690112
 20
52.02783201824305
 30
0.0
 10
-23.87588975097547
 20
52.02783201824305
 30
0.0
 10
-24.42607149996987
 20
52.02783201824305
 30
0.0
 10
-24.84947373510708
 20
51.47730575970012
 30
0.0
 10
-24.84947373510708
 20
50.7999999873
 30
0.0
 10
-24.84947373510708
 20
50.12269421489989
 30
0.0
 10
-24.42607149996987
 20
49.57216795635696
 30
0.0
 10
-23.87588975097547
 20
49.57216795635696
 30
0.0
 10
-23.36773816690112
 20
49.57216795635696
 30
0.0
 10
-22.90230576684387
 20
50.12269421489989
 30
0.0
 10
-22.90230576684387
 20
50.7999999873
 30
0.0
  0
SPLINE
  5
76
330
1F
100
AcDbEntity
  8
LAYER_1
 62
     7
100
AcDbSpline
210
0.0
220
0.0
230
1.0
 70
    11
 71
     3
 72
    17
 73
    13
 74
     0
 42
0.0000000001
 43
0.0000000001
 40
0.0
 40
0.0
 40
0.0
 40
0.0
 40
1.0
 40
1.0
 40
1.0
 40
2.0
 40
2.0
 40
2.0
 40
3.0
 40
3.0
 40
3.0
 40
4.0
 40
4.0
 40
4.0
 40
4.0
 10
-25.44237466811857
 20
50.7999999873
 30
0.0
 10
-25.44237466811857
 20
51.47730575970012
 30
0.0
 10
-25.90780706817583
 20
52.02783201824305
 30
0.0
 10
-26.41595865225018
 20
52.02783201824305
 30
0.0
 10
-26.96614040124458
 20
52.02783201824305
 30
0.0
 10
-27.38954263638178
 20
51.47730575970012
 30
0.0
 10
-27.38954263638178
 20
50.7999999873
 30
0.0
 10
-27.38954263638178
 20
50.12269421489989
 30
0.0
 10
-26.96614040124458
 20
49.57216795635696
 30
0.0
 10
-26.41595865225018
 20
49.57216795635696
 30
0.0
 10
-25.90780706817583
 20
49.57216795635696
 30
0.0
 10
-25.44237466811857
 20
50.12269421489989
 30
0.0
 10
-25.44237466811857
 20
50.7999999873
 30
0.0
  0
SPLINE
  5
77
330
1F
100
AcDbEntity
  8
LAYER_1
 62
     7
100
AcDbSpline
210
0.0
220
0.0
230
1.0
 70
    11
 71
     3
 72
    17
 73
    13
 74
     0
 42
0.0000000001
 43
0.0000000001
 40
0.0
 40
0.0
 40
0.0
 40
0.0
 40
1.0
 40
1.0
 40
1.0
 40
2.0
 40
2.0
 40
2.0
 40
3.0
 40
3.0
 40
3.0
 40
4.0
 40
4.0
 40
4.0
 40
4.0
 10
-30.47979328665089
 20
52.02783201824305
 30
0.0
 10
-31.03031954519381
 20
52.02783201824305
 30
0.0
 10
-31.45337727078249
 20
51.47730575970012
 30
0.0
 10
-31.45337727078249
 20
50.7999999873
 30
0.0
 10
-31.45337727078249
 20
50.12269421489989
 30
0.0
 10
-31.03031954519381
 20
49.57216795635696
 30
0.0
 10
-30.47979328665089
 20
49.57216795635696
 30
0.0
 10
-29.97198621212506
 20
49.57216795635696
 30
0.0
 10
-29.50620930251928
 20
50.12269421489989
 30
0.0
 10
-29.50620930251928
 20
50.7999999873
 30
0.0
 10
-29.50620930251928
 20
51.47730575970012
 30
0.0
 10
-29.97198621212506
 20
52.02783201824305
 30
0.0
 10
-30.47979328665089
 20
52.02783201824305
 30
0.0
  0
SPLINE
  5
78
330
1F
100
AcDbEntity
  8
LAYER_1
 62
     7
100
AcDbSpline
210
0.0
220
0.0
230
1.0
 70
    11
 71
     3
 72
    17
 73
    13
 74
     0
 42
0.0000000001
 43
0.0000000001
 40
0.0
 40
0.0
 40
0.0
 40
0.0
 40
1.0
 40
1.0
 40
1.0
 40
2.0
 40
2.0
 40
2.0
 40
3.0
 40
3.0
 40
3.0
 40
4.0
 40
4.0
 40
4.0
 40
4.0
 10
-33.01986218792559
 20
52.02783201824305
 30
0.0
 10
-33.57004393691999
 20
52.02783201824305
 30
0.0
 10
-33.9934461720572
 20
51.47730575970012
 30
0.0
 10
-33.9934461720572
 20
50.7999999873
 30
0.0
 10
-33.9934461720572
 20
50.12269421489989
 30
0.0
 10
-33.57004393691999
 20
49.57216795635696
 30
0.0
 10
-33.01986218792559
 20
49.57216795635696
 30
0.0
 10
-32.51171060385124
 20
49.57216795635696
 30
0.0
 10
-32.04627820379399
 20
50.12269421489989
 30
0.0
 10
-32.04627820379399
 20
50.7999999873
 30
0.0
 10
-32.04627820379399
 20
51.47730575970012
 30
0.0
 10
-32.51171060385124
 20
52.02783201824305
 30
0.0
 10
-33.01986218792559
 20
52.02783201824305
 30
0.0
  0
SPLINE
  5
79
330
1F
100
AcDbEntity
  8
LAYER_1
 62
     7
100
AcDbSpline
210
0.0
220
0.0
230
1.0
 70
    11
 71
     3
 72
    17
 73
    13
 74
     0
 42
0.0000000001
 43
0.0000000001
 40
0.0
 40
0.0
 40
0.0
 40
0.0
 40
1.0
 40
1.0
 40
1.0
 40
2.0
 40
2.0
 40
2.0
 40
3.0
 40
3.0
 40
3.0
 40
4.0
 40
4.0
 40
4.0
 40
4.0
 10
-35.5599310892003
 20
52.02783201824305
 30
0.0
 10
-36.11011283819469
 20
52.02783201824305
 30
0.0
 10
-36.5335150733319
 20
51.47730575970012
 30
0.0
 10
-36.5335150733319
 20
50.7999999873
 30
0.0
 10
-36.5335150733319
 20
50.12269421489989
 30
0.0
 10
-36.11011283819469
 20
49.57216795635696
 30
0.0
 10
-35.5599310892003
 20
49.57216795635696
 30
0.0
 10
-35.05177950512594
 20
49.57216795635696
 30
0.0
 10
-34.58634710506869
 20
50.12269421489989
 30
0.0
 10
-34.58634710506869
 20
50.7999999873
 30
0.0
 10
-34.58634710506869
 20
51.47730575970012
 30
0.0
 10
-35.05177950512594
 20
52.02783201824305
 30
0.0
 10
-35.5599310892003
 20
52.02783201824305
 30
0.0
  0
SPLINE
  5
7A
330
1F
100
AcDbEntity
  8
LAYER_1
 62
     7
100
AcDbSpline
210
0.0
220
0.0
230
1.0
 70
    11
 71
     3
 72
    17
 73
    13
 74
     0
 42
0.0000000001
 43
0.0000000001
 40
0.0
 40
0.0
 40
0.0
 40
0.0
 40
1.0
 40
1.0
 40
1.0
 40
2.0
 40
2.0
 40
2.0
 40
3.0
 40
3.0
 40
3.0
 40
4.0
 40
4.0
 40
4.0
 40
4.0
 10
-38.099999990475
 20
49.57216795635696
 30
0.0
 10
-37.59184840640065
 20
49.57216795635696
 30
0.0
 10
-37.12607149679487
 20
50.12269421489989
 30
0.0
 10
-37.12607149679487
 20
50.7999999873
 30
0.0
 10
-37.12607149679487
 20
51.47730575970012
 30
0.0
 10
-37.59184840640065
 20
52.02783201824305
 30
0.0
 10
-38.099999990475
 20
52.02783201824305
 30
0.0
 10
-38.6501817394694
 20
52.02783201824305
 30
0.0
 10
-39.07358397460661
 20
51.47730575970012
 30
0.0
 10
-39.07358397460661
 20
50.7999999873
 30
0.0
 10
-39.07358397460661
 20
50.12269421489989
 30
0.0
 10
-38.6501817394694
 20
49.57216795635696
 30
0.0
 10
-38.099999990475
 20
49.57216795635696
 30
0.0
  0
SPLINE
  5
7B
330
1F
100
AcDbEntity
  8
LAYER_1
 62
     7
100
AcDbSpline
210
0.0
220
0.0
230
1.0
 70
    11
 71
     3
 72
    17
 73
    13
 74
     0
 42
0.0000000001
 43
0.0000000001
 40
0.0
 40
0.0
 40
0.0
 40
0.0
 40
1.0
 40
1.0
 40
1.0
 40
2.0
 40
2.0
 40
2.0
 40
3.0
 40
3.0
 40
3.0
 40
4.0
 40
4.0
 40
4.0
 40
4.0
 10
-40.63972438220118
 20
49.57216795635696
 30
0.0
 10
-40.13191730767536
 20
49.57216795635696
 30
0.0
 10
-39.66614039806958
 20
50.12269421489989
 30
0.0
 10
-39.66614039806958
 20
50.7999999873
 30
0.0
 10
-39.66614039806958
 20
51.47730575970012
 30
0.0
 10
-40.13191730767536
 20
52.02783201824305
 30
0.0
 10
-40.63972438220118
 20
52.02783201824305
 30
0.0
 10
-41.1902506407441
 20
52.02783201824305
 30
0.0
 10
-41.61348062110705
 20
51.47730575970012
 30
0.0
 10
-41.61348062110705
 20
50.7999999873
 30
0.0
 10
-41.61348062110705
 20
50.12269421489989
 30
0.0
 10
-41.1902506407441
 20
49.57216795635696
 30
0.0
 10
-40.63972438220118
 20
49.57216795635696
 30
0.0
  0
SPLINE
  5
7C
330
1F
100
AcDbEntity
  8
LAYER_1
 62
     7
100
AcDbSpline
210
0.0
220
0.0
230
1.0
 70
    11
 71
     3
 72
    17
 73
    13
 74
     0
 42
0.0000000001
 43
0.0000000001
 40
0.0
 40
0.0
 40
0.0
 40
0.0
 40
1.0
 40
1.0
 40
1.0
 40
2.0
 40
2.0
 40
2.0
 40
3.0
 40
3.0
 40
3.0
 40
4.0
 40
4.0
 40
4.0
 40
4.0
 10
-43.17979328347589
 20
49.57216795635696
 30
0.0
 10
-42.6718139541758
 20
49.57216795635696
 30
0.0
 10
-42.20620929934428
 20
50.12269421489989
 30
0.0
 10
-42.20620929934428
 20
50.7999999873
 30
0.0
 10
-42.20620929934428
 20
51.47730575970012
 30
0.0
 10
-42.6718139541758
 20
52.02783201824305
 30
0.0
 10
-43.17979328347589
 20
52.02783201824305
 30
0.0
 10
-43.73014728724455
 20
52.02783201824305
 30
0.0
 10
-44.15354952238175
 20
51.47730575970012
 30
0.0
 10
-44.15354952238175
 20
50.7999999873
 30
0.0
 10
-44.15354952238175
 20
50.12269421489989
 30
0.0
 10
-43.73014728724455
 20
49.57216795635696
 30
0.0
 10
-43.17979328347589
 20
49.57216795635696
 30
0.0
  0
SPLINE
  5
7D
330
1F
100
AcDbEntity
  8
LAYER_1
 62
     7
100
AcDbSpline
210
0.0
220
0.0
230
1.0
 70
    11
 71
     3
 72
    17
 73
    13
 74
     0
 42
0.0000000001
 43
0.0000000001
 40
0.0
 40
0.0
 40
0.0
 40
0.0
 40
1.0
 40
1.0
 40
1.0
 40
2.0
 40
2.0
 40
2.0
 40
3.0
 40
3.0
 40
3.0
 40
4.0
 40
4.0
 40
4.0
 40
4.0
 10
-45.71986218475059
 20
52.02783201824305
 30
0.0
 10
-46.27021618851926
 20
52.02783201824305
 30
0.0
 10
-46.69361842365646
 20
51.47730575970012
 30
0.0
 10
-46.69361842365646
 20
50.7999999873
 30
0.0
 10
-46.69361842365646
 20
50.12269421489989
 30
0.0
 10
-46.27021618851926
 20
49.57216795635696
 30
0.0
 10
-45.71986218475059
 20
49.57216795635696
 30
0.0
 10
-45.2118828554505
 20
49.57216795635696
 30
0.0
 10
-44.74627820061899
 20
50.12269421489989
 30
0.0
 10
-44.74627820061899
 20
50.7999999873
 30
0.0
 10
-44.74627820061899
 20
51.47730575970012
 30
0.0
 10
-45.2118828554505
 20
52.02783201824305
 30
0.0
 10
-45.71986218475059
 20
52.02783201824305
 30
0.0
  0
SPLINE
  5
7E
330
1F
100
AcDbEntity
  8
LAYER_1
 62
     7
100
AcDbSpline
210
0.0
220
0.0
230
1.0
 70
    11
 71
     3
 72
    17
 73
    13
 74
     0
 42
0.0000000001
 43
0.0000000001
 40
0.0
 40
0.0
 40
0.0
 40
0.0
 40
1.0
 40
1.0
 40
1.0
 40
2.0
 40
2.0
 40
2.0
 40
3.0
 40
3.0
 40
3.0
 40
4.0
 40
4.0
 40
4.0
 40
4.0
 10
-48.2599310860253
 20
52.02783201824305
 30
0.0
 10
-48.81028508979396
 20
52.02783201824305
 30
0.0
 10
-49.2335150701569
 20
51.47730575970012
 30
0.0
 10
-49.2335150701569
 20
50.7999999873
 30
0.0
 10
-49.2335150701569
 20
50.12269421489989
 30
0.0
 10
-48.81028508979396
 20
49.57216795635696
 30
0.0
 10
-48.2599310860253
 20
49.57216795635696
 30
0.0
 10
-47.75195175672521
 20
49.57216795635696
 30
0.0
 10
-47.28617484711943
 20
50.12269421489989
 30
0.0
 10
-47.28617484711943
 20
50.7999999873
 30
0.0
 10
-47.28617484711943
 20
51.47730575970012
 30
0.0
 10
-47.75195175672521
 20
52.02783201824305
 30
0.0
 10
-48.2599310860253
 20
52.02783201824305
 30
0.0
  0
SPLINE
  5
7F
330
1F
100
AcDbEntity
  8
LAYER_1
 62
     7
100
AcDbSpline
210
0.0
220
0.0
230
1.0
 70
    11
 71
     3
 72
    17
 73
    13
 74
     0
 42
0.0000000001
 43
0.0000000001
 40
0.0
 40
0.0
 40
0.0
 40
0.0
 40
1.0
 40
1.0
 40
1.0
 40
2.0
 40
2.0
 40
2.0
 40
3.0
 40
3.0
 40
3.0
 40
4.0
 40
4.0
 40
4.0
 40
4.0
 10
-53.33989663380044
 20
49.57216795635696
 30
0.0
 10
-52.83191730450036
 20
49.57216795635696
 30
0.0
 10
-52.36614039489458
 20
50.12269421489989
 30
0.0
 10
-52.36614039489458
 20
50.7999999873
 30
0.0
 10
-52.36614039489458
 20
51.47730575970012
 30
0.0
 10
-52.83191730450036
 20
52.02783201824305
 30
0.0
 10
-53.33989663380044
 20
52.02783201824305
 30
0.0
 10
-53.8902506375691
 20
52.02783201824305
 30
0.0
 10
-54.31348061793205
 20
51.47730575970012
 30
0.0
 10
-54.31348061793205
 20
50.7999999873
 30
0.0
 10
-54.31348061793205
 20
50.12269421489989
 30
0.0
 10
-53.8902506375691
 20
49.57216795635696
 30
0.0
 10
-53.33989663380044
 20
49.57216795635696
 30
0.0
  0
SPLINE
  5
80
330
1F
100
AcDbEntity
  8
LAYER_1
 62
     7
100
AcDbSpline
210
0.0
220
0.0
230
1.0
 70
    11
 71
     3
 72
    17
 73
    13
 74
     0
 42
0.0000000001
 43
0.0000000001
 40
0.0
 40
0.0
 40
0.0
 40
0.0
 40
1.0
 40
1.0
 40
1.0
 40
2.0
 40
2.0
 40
2.0
 40
3.0
 40
3.0
 40
3.0
 40
4.0
 40
4.0
 40
4.0
 40
4.0
 10
-55.87979328030089
 20
49.57216795635696
 30
0.0
 10
-55.3718139510008
 20
49.57216795635696
 30
0.0
 10
-54.90620929616929
 20
50.12269421489989
 30
0.0
 10
-54.90620929616929
 20
50.7999999873
 30
0.0
 10
-54.90620929616929
 20
51.47730575970012
 30
0.0
 10
-55.3718139510008
 20
52.02783201824305
 30
0.0
 10
-55.87979328030089
 20
52.02783201824305
 30
0.0
 10
-56.43014728406955
 20
52.02783201824305
 30
0.0
 10
-56.85354951920675
 20
51.47730575970012
 30
0.0
 10
-56.85354951920675
 20
50.7999999873
 30
0.0
 10
-56.85354951920675
 20
50.12269421489989
 30
0.0
 10
-56.43014728406955
 20
49.57216795635696
 30
0.0
 10
-55.87979328030089
 20
49.57216795635696
 30
0.0
  0
SPLINE
  5
81
330
1F
100
AcDbEntity
  8
LAYER_1
 62
     7
100
AcDbSpline
210
0.0
220
0.0
230
1.0
 70
    11
 71
     3
 72
    17
 73
    13
 74
     0
 42
0.0000000001
 43
0.0000000001
 40
0.0
 40
0.0
 40
0.0
 40
0.0
 40
1.0
 40
1.0
 40
1.0
 40
2.0
 40
2.0
 40
2.0
 40
3.0
 40
3.0
 40
3.0
 40
4.0
 40
4.0
 40
4.0
 40
4.0
 10
-58.4198621815756
 20
49.57216795635696
 30
0.0
 10
-57.9118828522755
 20
49.57216795635696
 30
0.0
 10
-57.44627819744399
 20
50.12269421489989
 30
0.0
 10
-57.44627819744399
 20
50.7999999873
 30
0.0
 10
-57.44627819744399
 20
51.47730575970012
 30
0.0
 10
-57.9118828522755
 20
52.02783201824305
 30
0.0
 10
-58.4198621815756
 20
52.02783201824305
 30
0.0
 10
-58.97021618534426
 20
52.02783201824305
 30
0.0
 10
-59.39361842048146
 20
51.47730575970012
 30
0.0
 10
-59.39361842048146
 20
50.7999999873
 30
0.0
 10
-59.39361842048146
 20
50.12269421489989
 30
0.0
 10
-58.97021618534426
 20
49.57216795635696
 30
0.0
 10
-58.4198621815756
 20
49.57216795635696
 30
0.0
  0
SPLINE
  5
82
330
1F
100
AcDbEntity
  8
LAYER_1
 62
     7
100
AcDbSpline
210
0.0
220
0.0
230
1.0
 70
    11
 71
     3
 72
    17
 73
    13
 74
     0
 42
0.0000000001
 43
0.0000000001
 40
0.0
 40
0.0
 40
0.0
 40
0.0
 40
1.0
 40
1.0
 40
1.0
 40
2.0
 40
2.0
 40
2.0
 40
3.0
 40
3.0
 40
3.0
 40
4.0
 40
4.0
 40
4.0
 40
4.0
 10
-60.9599310828503
 20
52.02783201824305
 30
0.0
 10
-61.51028508661896
 20
52.02783201824305
 30
0.0
 10
-61.9335150669819
 20
51.47730575970012
 30
0.0
 10
-61.9335150669819
 20
50.7999999873
 30
0.0
 10
-61.9335150669819
 20
50.12269421489989
 30
0.0
 10
-61.51028508661896
 20
49.57216795635696
 30
0.0
 10
-60.9599310828503
 20
49.57216795635696
 30
0.0
 10
-60.45195175355021
 20
49.57216795635696
 30
0.0
 10
-59.98617484394443
 20
50.12269421489989
 30
0.0
 10
-59.98617484394443
 20
50.7999999873
 30
0.0
 10
-59.98617484394443
 20
51.47730575970012
 30
0.0
 10
-60.45195175355021
 20
52.02783201824305
 30
0.0
 10
-60.9599310828503
 20
52.02783201824305
 30
0.0
  0
SPLINE
  5
83
330
1F
100
AcDbEntity
  8
LAYER_1
 62
     7
100
AcDbSpline
210
0.0
220
0.0
230
1.0
 70
    11
 71
     3
 72
    17
 73
    13
 74
     0
 42
0.0000000001
 43
0.0000000001
 40
0.0
 40
0.0
 40
0.0
 40
0.0
 40
1.0
 40
1.0
 40
1.0
 40
2.0
 40
2.0
 40
2.0
 40
3.0
 40
3.0
 40
3.0
 40
4.0
 40
4.0
 40
4.0
 40
4.0
 10
-63.49982772935074
 20
52.02783201824305
 30
0.0
 10
-64.0501817331194
 20
52.02783201824305
 30
0.0
 10
-64.4735839682566
 20
51.47730575970012
 30
0.0
 10
-64.4735839682566
 20
50.7999999873
 30
0.0
 10
-64.4735839682566
 20
50.12269421489989
 30
0.0
 10
-64.0501817331194
 20
49.57216795635696
 30
0.0
 10
-63.49982772935074
 20
49.57216795635696
 30
0.0
 10
-62.99184840005065
 20
49.57216795635696
 30
0.0
 10
-62.52624374521913
 20
50.12269421489989
 30
0.0
 10
-62.52624374521913
 20
50.7999999873
 30
0.0
 10
-62.52624374521913
 20
51.47730575970012
 30
0.0
 10
-62.99184840005065
 20
52.02783201824305
 30
0.0
 10
-63.49982772935074
 20
52.02783201824305
 30
0.0
  0
SPLINE
  5
84
330
1F
100
AcDbEntity
  8
LAYER_1
 62
     7
100
AcDbSpline
210
0.0
220
0.0
230
1.0
 70
    11
 71
     3
 72
    17
 73
    13
 74
     0
 42
0.0000000001
 43
0.0000000001
 40
0.0
 40
0.0
 40
0.0
 40
0.0
 40
1.0
 40
1.0
 40
1.0
 40
2.0
 40
2.0
 40
2.0
 40
3.0
 40
3.0
 40
3.0
 40
4.0
 40
4.0
 40
4.0
 40
4.0
 10
-66.03989663062545
 20
52.02783201824305
 30
0.0
 10
-66.59025063439411
 20
52.02783201824305
 30
0.0
 10
-67.01348061475704
 20
51.47730575970012
 30
0.0
 10
-67.01348061475704
 20
50.7999999873
 30
0.0
 10
-67.01348061475704
 20
50.12269421489989
 30
0.0
 10
-66.59025063439411
 20
49.57216795635696
 30
0.0
 10
-66.03989663062545
 20
49.57216795635696
 30
0.0
 10
-65.53191730132535
 20
49.57216795635696
 30
0.0
 10
-65.06614039171959
 20
50.12269421489989
 30
0.0
 10
-65.06614039171959
 20
50.7999999873
 30
0.0
 10
-65.06614039171959
 20
51.47730575970012
 30
0.0
 10
-65.53191730132535
 20
52.02783201824305
 30
0.0
 10
-66.03989663062545
 20
52.02783201824305
 30
0.0
  0
SPLINE
  5
85
330
1F
100
AcDbEntity
  8
LAYER_1
 62
     7
100
AcDbSpline
210
0.0
220
0.0
230
1.0
 70
    11
 71
     3
 72
    17
 73
    13
 74
     0
 42
0.0000000001
 43
0.0000000001
 40
0.0
 40
0.0
 40
0.0
 40
0.0
 40
1.0
 40
1.0
 40
1.0
 40
2.0
 40
2.0
 40
2.0
 40
3.0
 40
3.0
 40
3.0
 40
4.0
 40
4.0
 40
4.0
 40
4.0
 10
-68.57979327712589
 20
49.57216795635696
 30
0.0
 10
-68.0718139478258
 20
49.57216795635696
 30
0.0
 10
-67.60620929299428
 20
50.12269421489989
 30
0.0
 10
-67.60620929299428
 20
50.7999999873
 30
0.0
 10
-67.60620929299428
 20
51.47730575970012
 30
0.0
 10
-68.0718139478258
 20
52.02783201824305
 30
0.0
 10
-68.57979327712589
 20
52.02783201824305
 30
0.0
 10
-69.13014728089455
 20
52.02783201824305
 30
0.0
 10
-69.55354951603175
 20
51.47730575970012
 30
0.0
 10
-69.55354951603175
 20
50.7999999873
 30
0.0
 10
-69.55354951603175
 20
50.12269421489989
 30
0.0
 10
-69.13014728089455
 20
49.57216795635696
 30
0.0
 10
-68.57979327712589
 20
49.57216795635696
 30
0.0
  0
SPLINE
  5
86
330
1F
100
AcDbEntity
  8
LAYER_1
 62
     7
100
AcDbSpline
210
0.0
220
0.0
230
1.0
 70
    11
 71
     3
 72
    17
 73
    13
 74
     0
 42
0.0000000001
 43
0.0000000001
 40
0.0
 40
0.0
 40
0.0
 40
0.0
 40
1.0
 40
1.0
 40
1.0
 40
2.0
 40
2.0
 40
2.0
 40
3.0
 40
3.0
 40
3.0
 40
4.0
 40
4.0
 40
4.0
 40
4.0
 10
-71.1198621784006
 20
52.02783201824305
 30
0.0
 10
-71.67021618216926
 20
52.02783201824305
 30
0.0
 10
-72.09361841730646
 20
51.47730575970012
 30
0.0
 10
-72.09361841730646
 20
50.7999999873
 30
0.0
 10
-72.09361841730646
 20
50.12269421489989
 30
0.0
 10
-71.67021618216926
 20
49.57216795635696
 30
0.0
 10
-71.1198621784006
 20
49.57216795635696
 30
0.0
 10
-70.61188284910051
 20
49.57216795635696
 30
0.0
 10
-70.14627819426899
 20
50.12269421489989
 30
0.0
 10
-70.14627819426899
 20
50.7999999873
 30
0.0
 10
-70.14627819426899
 20
51.47730575970012
 30
0.0
 10
-70.61188284910051
 20
52.02783201824305
 30
0.0
 10
-71.1198621784006
 20
52.02783201824305
 30
0.0
  0
SPLINE
  5
87
330
1F
100
AcDbEntity
  8
LAYER_1
 62
     7
100
AcDbSpline
210
0.0
220
0.0
230
1.0
 70
    11
 71
     3
 72
    17
 73
    13
 74
     0
 42
0.0000000001
 43
0.0000000001
 40
0.0
 40
0.0
 40
0.0
 40
0.0
 40
1.0
 40
1.0
 40
1.0
 40
2.0
 40
2.0
 40
2.0
 40
3.0
 40
3.0
 40
3.0
 40
4.0
 40
4.0
 40
4.0
 40
4.0
 10
-78.73989662745045
 20
51.77358397143161
 30
0.0
 10
-79.29025063121911
 20
51.77358397143161
 30
0.0
 10
-79.71348061158206
 20
51.35052624584293
 30
0.0
 10
-79.71348061158206
 20
50.7999999873
 30
0.0
 10
-79.71348061158206
 20
50.29219291277418
 30
0.0
 10
-79.29025063121911
 20
49.8264160031684
 30
0.0
 10
-78.73989662745045
 20
49.8264160031684
 30
0.0
 10
-78.18954262368179
 20
49.8264160031684
 30
0.0
 10
-77.72393796885027
 20
50.29219291277418
 30
0.0
 10
-77.72393796885027
 20
50.7999999873
 30
0.0
 10
-77.72393796885027
 20
51.35052624584293
 30
0.0
 10
-78.18954262368179
 20
51.77358397143161
 30
0.0
 10
-78.73989662745045
 20
51.77358397143161
 30
0.0
  0
SPLINE
  5
88
330
1F
100
AcDbEntity
  8
LAYER_1
 62
     7
100
AcDbSpline
210
0.0
220
0.0
230
1.0
 70
    11
 71
     3
 72
    17
 73
    13
 74
     0
 42
0.0000000001
 43
0.0000000001
 40
0.0
 40
0.0
 40
0.0
 40
0.0
 40
1.0
 40
1.0
 40
1.0
 40
2.0
 40
2.0
 40
2.0
 40
3.0
 40
3.0
 40
3.0
 40
4.0
 40
4.0
 40
4.0
 40
4.0
 10
-78.73989662745045
 20
49.23385957970542
 30
0.0
 10
-79.29025063121911
 20
49.23385957970542
 30
0.0
 10
-79.71348061158206
 20
48.81011283501969
 30
0.0
 10
-79.71348061158206
 20
48.2599310860253
 30
0.0
 10
-79.71348061158206
 20
47.75177950195095
 30
0.0
 10
-79.29025063121911
 20
47.2863471018937
 30
0.0
 10
-78.73989662745045
 20
47.2863471018937
 30
0.0
 10
-78.18954262368179
 20
47.2863471018937
 30
0.0
 10
-77.72393796885027
 20
47.75177950195095
 30
0.0
 10
-77.72393796885027
 20
48.2599310860253
 30
0.0
 10
-77.72393796885027
 20
48.81011283501969
 30
0.0
 10
-78.18954262368179
 20
49.23385957970542
 30
0.0
 10
-78.73989662745045
 20
49.23385957970542
 30
0.0
  0
SPLINE
  5
89
330
1F
100
AcDbEntity
  8
LAYER_1
 62
     7
100
AcDbSpline
210
0.0
220
0.0
230
1.0
 70
    11
 71
     3
 72
    17
 73
    13
 74
     0
 42
0.0000000001
 43
0.0000000001
 40
0.0
 40
0.0
 40
0.0
 40
0.0
 40
1.0
 40
1.0
 40
1.0
 40
2.0
 40
2.0
 40
2.0
 40
3.0
 40
3.0
 40
3.0
 40
4.0
 40
4.0
 40
4.0
 40
4.0
 10
-78.73989662745045
 20
46.6934461688822
 30
0.0
 10
-79.29025063121911
 20
46.6934461688822
 30
0.0
 10
-79.71348061158206
 20
46.27038844329351
 30
0.0
 10
-79.71348061158206
 20
45.71986218475059
 30
0.0
 10
-79.71348061158206
 20
45.21205511022477
 30
0.0
 10
-79.29025063121911
 20
44.74627820061899
 30
0.0
 10
-78.73989662745045
 20
44.74627820061899
 30
0.0
 10
-78.18954262368179
 20
44.74627820061899
 30
0.0
 10
-77.72393796885027
 20
45.21205511022477
 30
0.0
 10
-77.72393796885027
 20
45.71986218475059
 30
0.0
 10
-77.72393796885027
 20
46.27038844329351
 30
0.0
 10
-78.18954262368179
 20
46.6934461688822
 30
0.0
 10
-78.73989662745045
 20
46.6934461688822
 30
0.0
  0
SPLINE
  5
8A
330
1F
100
AcDbEntity
  8
LAYER_1
 62
     7
100
AcDbSpline
210
0.0
220
0.0
230
1.0
 70
    11
 71
     3
 72
    17
 73
    13
 74
     0
 42
0.0000000001
 43
0.0000000001
 40
0.0
 40
0.0
 40
0.0
 40
0.0
 40
1.0
 40
1.0
 40
1.0
 40
2.0
 40
2.0
 40
2.0
 40
3.0
 40
3.0
 40
3.0
 40
4.0
 40
4.0
 40
4.0
 40
4.0
 10
-78.73989662745045
 20
44.15372177715602
 30
0.0
 10
-79.29025063121911
 20
44.15372177715602
 30
0.0
 10
-79.71348061158206
 20
43.73031954201881
 30
0.0
 10
-79.71348061158206
 20
43.18013779302441
 30
0.0
 10
-79.71348061158206
 20
42.67198620895006
 30
0.0
 10
-79.29025063121911
 20
42.20655380889281
 30
0.0
 10
-78.73989662745045
 20
42.20655380889281
 30
0.0
 10
-78.18954262368179
 20
42.20655380889281
 30
0.0
 10
-77.72393796885027
 20
42.67198620895006
 30
0.0
 10
-77.72393796885027
 20
43.18013779302441
 30
0.0
 10
-77.72393796885027
 20
43.73031954201881
 30
0.0
 10
-78.18954262368179
 20
44.15372177715602
 30
0.0
 10
-78.73989662745045
 20
44.15372177715602
 30
0.0
  0
SPLINE
  5
8B
330
1F
100
AcDbEntity
  8
LAYER_1
 62
     7
100
AcDbSpline
210
0.0
220
0.0
230
1.0
 70
    11
 71
     3
 72
    17
 73
    13
 74
     0
 42
0.0000000001
 43
0.0000000001
 40
0.0
 40
0.0
 40
0.0
 40
0.0
 40
1.0
 40
1.0
 40
1.0
 40
2.0
 40
2.0
 40
2.0
 40
3.0
 40
3.0
 40
3.0
 40
4.0
 40
4.0
 40
4.0
 40
4.0
 10
-78.73989662745045
 20
41.61365287588131
 30
0.0
 10
-79.29025063121911
 20
41.61365287588131
 30
0.0
 10
-79.71348061158206
 20
41.1902506407441
 30
0.0
 10
-79.71348061158206
 20
40.64006889174971
 30
0.0
 10
-79.71348061158206
 20
40.13191730767536
 30
0.0
 10
-79.29025063121911
 20
39.66614039806958
 30
0.0
 10
-78.73989662745045
 20
39.66614039806958
 30
0.0
 10
-78.18954262368179
 20
39.66614039806958
 30
0.0
 10
-77.72393796885027
 20
40.13191730767536
 30
0.0
 10
-77.72393796885027
 20
40.64006889174971
 30
0.0
 10
-77.72393796885027
 20
41.1902506407441
 30
0.0
 10
-78.18954262368179
 20
41.61365287588131
 30
0.0
 10
-78.73989662745045
 20
41.61365287588131
 30
0.0
  0
SPLINE
  5
8C
330
1F
100
AcDbEntity
  8
LAYER_1
 62
     7
100
AcDbSpline
210
0.0
220
0.0
230
1.0
 70
    11
 71
     3
 72
    17
 73
    13
 74
     0
 42
0.0000000001
 43
0.0000000001
 40
0.0
 40
0.0
 40
0.0
 40
0.0
 40
1.0
 40
1.0
 40
1.0
 40
2.0
 40
2.0
 40
2.0
 40
3.0
 40
3.0
 40
3.0
 40
4.0
 40
4.0
 40
4.0
 40
4.0
 10
-78.73989662745045
 20
39.07358397460661
 30
0.0
 10
-79.29025063121911
 20
39.07358397460661
 30
0.0
 10
-79.71348061158206
 20
38.65052624901793
 30
0.0
 10
-79.71348061158206
 20
38.099999990475
 30
0.0
 10
-79.71348061158206
 20
37.59219291594918
 30
0.0
 10
-79.29025063121911
 20
37.1264160063434
 30
0.0
 10
-78.73989662745045
 20
37.1264160063434
 30
0.0
 10
-78.18954262368179
 20
37.1264160063434
 30
0.0
 10
-77.72393796885027
 20
37.59219291594918
 30
0.0
 10
-77.72393796885027
 20
38.099999990475
 30
0.0
 10
-77.72393796885027
 20
38.65052624901793
 30
0.0
 10
-78.18954262368179
 20
39.07358397460661
 30
0.0
 10
-78.73989662745045
 20
39.07358397460661
 30
0.0
  0
SPLINE
  5
8D
330
1F
100
AcDbEntity
  8
LAYER_1
 62
     7
100
AcDbSpline
210
0.0
220
0.0
230
1.0
 70
    11
 71
     3
 72
    17
 73
    13
 74
     0
 42
0.0000000001
 43
0.0000000001
 40
0.0
 40
0.0
 40
0.0
 40
0.0
 40
1.0
 40
1.0
 40
1.0
 40
2.0
 40
2.0
 40
2.0
 40
3.0
 40
3.0
 40
3.0
 40
4.0
 40
4.0
 40
4.0
 40
4.0
 10
-78.73989662745045
 20
36.53385958288042
 30
0.0
 10
-79.29025063121911
 20
36.53385958288042
 30
0.0
 10
-79.71348061158206
 20
36.11011283819469
 30
0.0
 10
-79.71348061158206
 20
35.5599310892003
 30
0.0
 10
-79.71348061158206
 20
35.05177950512594
 30
0.0
 10
-79.29025063121911
 20
34.58634710506869
 30
0.0
 10
-78.73989662745045
 20
34.58634710506869
 30
0.0
 10
-78.18954262368179
 20
34.58634710506869
 30
0.0
 10
-77.72393796885027
 20
35.05177950512594
 30
0.0
 10
-77.72393796885027
 20
35.5599310892003
 30
0.0
 10
-77.72393796885027
 20
36.11011283819469
 30
0.0
 10
-78.18954262368179
 20
36.53385958288042
 30
0.0
 10
-78.73989662745045
 20
36.53385958288042
 30
0.0
  0
SPLINE
  5
8E
330
1F
100
AcDbEntity
  8
LAYER_1
 62
     7
100
AcDbSpline
210
0.0
220
0.0
230
1.0
 70
    11
 71
     3
 72
    17
 73
    13
 74
     0
 42
0.0000000001
 43
0.0000000001
 40
0.0
 40
0.0
 40
0.0
 40
0.0
 40
1.0
 40
1.0
 40
1.0
 40
2.0
 40
2.0
 40
2.0
 40
3.0
 40
3.0
 40
3.0
 40
4.0
 40
4.0
 40
4.0
 40
4.0
 10
-78.73989662745045
 20
33.9934461720572
 30
0.0
 10
-79.29025063121911
 20
33.9934461720572
 30
0.0
 10
-79.71348061158206
 20
33.57038844646851
 30
0.0
 10
-79.71348061158206
 20
33.01986218792559
 30
0.0
 10
-79.71348061158206
 20
32.51205511339977
 30
0.0
 10
-79.29025063121911
 20
32.04627820379399
 30
0.0
 10
-78.73989662745045
 20
32.04627820379399
 30
0.0
 10
-78.18954262368179
 20
32.04627820379399
 30
0.0
 10
-77.72393796885027
 20
32.51205511339977
 30
0.0
 10
-77.72393796885027
 20
33.01986218792559
 30
0.0
 10
-77.72393796885027
 20
33.57038844646851
 30
0.0
 10
-78.18954262368179
 20
33.9934461720572
 30
0.0
 10
-78.73989662745045
 20
33.9934461720572
 30
0.0
  0
SPLINE
  5
8F
330
1F
100
AcDbEntity
  8
LAYER_1
 62
     7
100
AcDbSpline
210
0.0
220
0.0
230
1.0
 70
    11
 71
     3
 72
    17
 73
    13
 74
     0
 42
0.0000000001
 43
0.0000000001
 40
0.0
 40
0.0
 40
0.0
 40
0.0
 40
1.0
 40
1.0
 40
1.0
 40
2.0
 40
2.0
 40
2.0
 40
3.0
 40
3.0
 40
3.0
 40
4.0
 40
4.0
 40
4.0
 40
4.0
 10
-78.73989662745045
 20
31.45372178033102
 30
0.0
 10
-79.29025063121911
 20
31.45372178033102
 30
0.0
 10
-79.71348061158206
 20
31.03031954519381
 30
0.0
 10
-79.71348061158206
 20
30.48013779619941
 30
0.0
 10
-79.71348061158206
 20
29.97198621212506
 30
0.0
 10
-79.29025063121911
 20
29.50655381206781
 30
0.0
 10
-78.73989662745045
 20
29.50655381206781
 30
0.0
 10
-78.18954262368179
 20
29.50655381206781
 30
0.0
 10
-77.72393796885027
 20
29.97198621212506
 30
0.0
 10
-77.72393796885027
 20
30.48013779619941
 30
0.0
 10
-77.72393796885027
 20
31.03031954519381
 30
0.0
 10
-78.18954262368179
 20
31.45372178033102
 30
0.0
 10
-78.73989662745045
 20
31.45372178033102
 30
0.0
  0
SPLINE
  5
90
330
1F
100
AcDbEntity
  8
LAYER_1
 62
     7
100
AcDbSpline
210
0.0
220
0.0
230
1.0
 70
    11
 71
     3
 72
    17
 73
    13
 74
     0
 42
0.0000000001
 43
0.0000000001
 40
0.0
 40
0.0
 40
0.0
 40
0.0
 40
1.0
 40
1.0
 40
1.0
 40
2.0
 40
2.0
 40
2.0
 40
3.0
 40
3.0
 40
3.0
 40
4.0
 40
4.0
 40
4.0
 40
4.0
 10
-78.73989662745045
 20
28.91365287905631
 30
0.0
 10
-79.29025063121911
 20
28.91365287905631
 30
0.0
 10
-79.71348061158206
 20
28.4902506439191
 30
0.0
 10
-79.71348061158206
 20
27.94006889492471
 30
0.0
 10
-79.71348061158206
 20
27.43191731085036
 30
0.0
 10
-79.29025063121911
 20
26.96614040124458
 30
0.0
 10
-78.73989662745045
 20
26.96614040124458
 30
0.0
 10
-78.18954262368179
 20
26.96614040124458
 30
0.0
 10
-77.72393796885027
 20
27.43191731085036
 30
0.0
 10
-77.72393796885027
 20
27.94006889492471
 30
0.0
 10
-77.72393796885027
 20
28.4902506439191
 30
0.0
 10
-78.18954262368179
 20
28.91365287905631
 30
0.0
 10
-78.73989662745045
 20
28.91365287905631
 30
0.0
  0
SPLINE
  5
91
330
1F
100
AcDbEntity
  8
LAYER_1
 62
     7
100
AcDbSpline
210
0.0
220
0.0
230
1.0
 70
    11
 71
     3
 72
    17
 73
    13
 74
     0
 42
0.0000000001
 43
0.0000000001
 40
0.0
 40
0.0
 40
0.0
 40
0.0
 40
1.0
 40
1.0
 40
1.0
 40
2.0
 40
2.0
 40
2.0
 40
3.0
 40
3.0
 40
3.0
 40
4.0
 40
4.0
 40
4.0
 40
4.0
 10
-78.73989662745045
 20
26.37358397778161
 30
0.0
 10
-79.29025063121911
 20
26.37358397778161
 30
0.0
 10
-79.71348061158206
 20
25.95052625219293
 30
0.0
 10
-79.71348061158206
 20
25.39999999365
 30
0.0
 10
-79.71348061158206
 20
24.89219291912417
 30
0.0
 10
-79.29025063121911
 20
24.4264160095184
 30
0.0
 10
-78.73989662745045
 20
24.4264160095184
 30
0.0
 10
-78.18954262368179
 20
24.4264160095184
 30
0.0
 10
-77.72393796885027
 20
24.89219291912417
 30
0.0
 10
-77.72393796885027
 20
25.39999999365
 30
0.0
 10
-77.72393796885027
 20
25.95052625219293
 30
0.0
 10
-78.18954262368179
 20
26.37358397778161
 30
0.0
 10
-78.73989662745045
 20
26.37358397778161
 30
0.0
  0
SPLINE
  5
92
330
1F
100
AcDbEntity
  8
LAYER_1
 62
     7
100
AcDbSpline
210
0.0
220
0.0
230
1.0
 70
    11
 71
     3
 72
    17
 73
    13
 74
     0
 42
0.0000000001
 43
0.0000000001
 40
0.0
 40
0.0
 40
0.0
 40
0.0
 40
1.0
 40
1.0
 40
1.0
 40
2.0
 40
2.0
 40
2.0
 40
3.0
 40
3.0
 40
3.0
 40
4.0
 40
4.0
 40
4.0
 40
4.0
 10
-78.73989662745045
 20
23.83385958605542
 30
0.0
 10
-79.29025063121911
 20
23.83385958605542
 30
0.0
 10
-79.71348061158206
 20
23.4101128413697
 30
0.0
 10
-79.71348061158206
 20
22.85993109237529
 30
0.0
 10
-79.71348061158206
 20
22.35177950830095
 30
0.0
 10
-79.29025063121911
 20
21.88634710824369
 30
0.0
 10
-78.73989662745045
 20
21.88634710824369
 30
0.0
 10
-78.18954262368179
 20
21.88634710824369
 30
0.0
 10
-77.72393796885027
 20
22.35177950830095
 30
0.0
 10
-77.72393796885027
 20
22.85993109237529
 30
0.0
 10
-77.72393796885027
 20
23.4101128413697
 30
0.0
 10
-78.18954262368179
 20
23.83385958605542
 30
0.0
 10
-78.73989662745045
 20
23.83385958605542
 30
0.0
  0
SPLINE
  5
93
330
1F
100
AcDbEntity
  8
LAYER_1
 62
     7
100
AcDbSpline
210
0.0
220
0.0
230
1.0
 70
    11
 71
     3
 72
    17
 73
    13
 74
     0
 42
0.0000000001
 43
0.0000000001
 40
0.0
 40
0.0
 40
0.0
 40
0.0
 40
1.0
 40
1.0
 40
1.0
 40
2.0
 40
2.0
 40
2.0
 40
3.0
 40
3.0
 40
3.0
 40
4.0
 40
4.0
 40
4.0
 40
4.0
 10
-78.73989662745045
 20
21.33616535924929
 30
0.0
 10
-79.29025063121911
 20
21.33616535924929
 30
0.0
 10
-79.71348061158206
 20
20.91241861456356
 30
0.0
 10
-79.71348061158206
 20
20.36223686556916
 30
0.0
 10
-79.71348061158206
 20
19.81205511657476
 30
0.0
 10
-79.29025063121911
 20
19.34627820696899
 30
0.0
 10
-78.73989662745045
 20
19.34627820696899
 30
0.0
 10
-78.18954262368179
 20
19.34627820696899
 30
0.0
 10
-77.72393796885027
 20
19.81205511657476
 30
0.0
 10
-77.72393796885027
 20
20.36223686556916
 30
0.0
 10
-77.72393796885027
 20
20.91241861456356
 30
0.0
 10
-78.18954262368179
 20
21.33616535924929
 30
0.0
 10
-78.73989662745045
 20
21.33616535924929
 30
0.0
  0
SPLINE
  5
94
330
1F
100
AcDbEntity
  8
LAYER_1
 62
     7
100
AcDbSpline
210
0.0
220
0.0
230
1.0
 70
    11
 71
     3
 72
    17
 73
    13
 74
     0
 42
0.0000000001
 43
0.0000000001
 40
0.0
 40
0.0
 40
0.0
 40
0.0
 40
1.0
 40
1.0
 40
1.0
 40
2.0
 40
2.0
 40
2.0
 40
3.0
 40
3.0
 40
3.0
 40
4.0
 40
4.0
 40
4.0
 40
4.0
 10
-78.73989662745045
 20
18.79575194842606
 30
0.0
 10
-79.29025063121911
 20
18.79575194842606
 30
0.0
 10
-79.71348061158206
 20
18.37269422283738
 30
0.0
 10
-79.71348061158206
 20
17.82216796429446
 30
0.0
 10
-79.71348061158206
 20
17.27198621530006
 30
0.0
 10
-79.29025063121911
 20
16.80655381524281
 30
0.0
 10
-78.73989662745045
 20
16.80655381524281
 30
0.0
 10
-78.18954262368179
 20
16.80655381524281
 30
0.0
 10
-77.72393796885027
 20
17.27198621530006
 30
0.0
 10
-77.72393796885027
 20
17.82216796429446
 30
0.0
 10
-77.72393796885027
 20
18.37269422283738
 30
0.0
 10
-78.18954262368179
 20
18.79575194842606
 30
0.0
 10
-78.73989662745045
 20
18.79575194842606
 30
0.0
  0
SPLINE
  5
95
330
1F
100
AcDbEntity
  8
LAYER_1
 62
     7
100
AcDbSpline
210
0.0
220
0.0
230
1.0
 70
    11
 71
     3
 72
    17
 73
    13
 74
     0
 42
0.0000000001
 43
0.0000000001
 40
0.0
 40
0.0
 40
0.0
 40
0.0
 40
1.0
 40
1.0
 40
1.0
 40
2.0
 40
2.0
 40
2.0
 40
3.0
 40
3.0
 40
3.0
 40
4.0
 40
4.0
 40
4.0
 40
4.0
 10
-78.73989662745045
 20
16.25602755669988
 30
0.0
 10
-79.29025063121911
 20
16.25602755669988
 30
0.0
 10
-79.71348061158206
 20
15.83262532156268
 30
0.0
 10
-79.71348061158206
 20
15.28244357256828
 30
0.0
 10
-79.71348061158206
 20
14.73191731402535
 30
0.0
 10
-79.29025063121911
 20
14.26614040441958
 30
0.0
 10
-78.73989662745045
 20
14.26614040441958
 30
0.0
 10
-78.18954262368179
 20
14.26614040441958
 30
0.0
 10
-77.72393796885027
 20
14.73191731402535
 30
0.0
 10
-77.72393796885027
 20
15.28244357256828
 30
0.0
 10
-77.72393796885027
 20
15.83262532156268
 30
0.0
 10
-78.18954262368179
 20
16.25602755669988
 30
0.0
 10
-78.73989662745045
 20
16.25602755669988
 30
0.0
  0
SPLINE
  5
96
330
1F
100
AcDbEntity
  8
LAYER_1
 62
     7
100
AcDbSpline
210
0.0
220
0.0
230
1.0
 70
    11
 71
     3
 72
    17
 73
    13
 74
     0
 42
0.0000000001
 43
0.0000000001
 40
0.0
 40
0.0
 40
0.0
 40
0.0
 40
1.0
 40
1.0
 40
1.0
 40
2.0
 40
2.0
 40
2.0
 40
3.0
 40
3.0
 40
3.0
 40
4.0
 40
4.0
 40
4.0
 40
4.0
 10
-78.73989662745045
 20
13.71595865542518
 30
0.0
 10
-79.29025063121911
 20
13.71595865542518
 30
0.0
 10
-79.71348061158206
 20
13.29255642028797
 30
0.0
 10
-79.71348061158206
 20
12.74237467129357
 30
0.0
 10
-79.71348061158206
 20
12.19219292229917
 30
0.0
 10
-79.29025063121911
 20
11.7264160126934
 30
0.0
 10
-78.73989662745045
 20
11.7264160126934
 30
0.0
 10
-78.18954262368179
 20
11.7264160126934
 30
0.0
 10
-77.72393796885027
 20
12.19219292229917
 30
0.0
 10
-77.72393796885027
 20
12.74237467129357
 30
0.0
 10
-77.72393796885027
 20
13.29255642028797
 30
0.0
 10
-78.18954262368179
 20
13.71595865542518
 30
0.0
 10
-78.73989662745045
 20
13.71595865542518
 30
0.0
  0
SPLINE
  5
97
330
1F
100
AcDbEntity
  8
LAYER_1
 62
     7
100
AcDbSpline
210
0.0
220
0.0
230
1.0
 70
    11
 71
     3
 72
    17
 73
    13
 74
     0
 42
0.0000000001
 43
0.0000000001
 40
0.0
 40
0.0
 40
0.0
 40
0.0
 40
1.0
 40
1.0
 40
1.0
 40
2.0
 40
2.0
 40
2.0
 40
3.0
 40
3.0
 40
3.0
 40
4.0
 40
4.0
 40
4.0
 40
4.0
 10
-78.73989662745045
 20
11.17588975415047
 30
0.0
 10
-79.29025063121911
 20
11.17588975415047
 30
0.0
 10
-79.71348061158206
 20
10.75283202856179
 30
0.0
 10
-79.71348061158206
 20
10.20230577001887
 30
0.0
 10
-79.71348061158206
 20
9.651779511475944
 30
0.0
 10
-79.29025063121911
 20
9.18634711141869
 30
0.0
 10
-78.73989662745045
 20
9.18634711141869
 30
0.0
 10
-78.18954262368179
 20
9.18634711141869
 30
0.0
 10
-77.72393796885027
 20
9.651779511475944
 30
0.0
 10
-77.72393796885027
 20
10.20230577001887
 30
0.0
 10
-77.72393796885027
 20
10.75283202856179
 30
0.0
 10
-78.18954262368179
 20
11.17588975415047
 30
0.0
 10
-78.73989662745045
 20
11.17588975415047
 30
0.0
  0
SPLINE
  5
98
330
1F
100
AcDbEntity
  8
LAYER_1
 62
     7
100
AcDbSpline
210
0.0
220
0.0
230
1.0
 70
    11
 71
     3
 72
    17
 73
    13
 74
     0
 42
0.0000000001
 43
0.0000000001
 40
0.0
 40
0.0
 40
0.0
 40
0.0
 40
1.0
 40
1.0
 40
1.0
 40
2.0
 40
2.0
 40
2.0
 40
3.0
 40
3.0
 40
3.0
 40
4.0
 40
4.0
 40
4.0
 40
4.0
 10
-78.73989662745045
 20
8.636165362424292
 30
0.0
 10
-79.29025063121911
 20
8.636165362424292
 30
0.0
 10
-79.71348061158206
 20
8.212418617738562
 30
0.0
 10
-79.71348061158206
 20
7.662236868744164
 30
0.0
 10
-79.71348061158206
 20
7.112055119749765
 30
0.0
 10
-79.29025063121911
 20
6.646278210143986
 30
0.0
 10
-78.73989662745045
 20
6.646278210143986
 30
0.0
 10
-78.18954262368179
 20
6.646278210143986
 30
0.0
 10
-77.72393796885027
 20
7.112055119749765
 30
0.0
 10
-77.72393796885027
 20
7.662236868744164
 30
0.0
 10
-77.72393796885027
 20
8.212418617738562
 30
0.0
 10
-78.18954262368179
 20
8.636165362424292
 30
0.0
 10
-78.73989662745045
 20
8.636165362424292
 30
0.0
  0
SPLINE
  5
99
330
1F
100
AcDbEntity
  8
LAYER_1
 62
     7
100
AcDbSpline
210
0.0
220
0.0
230
1.0
 70
    11
 71
     3
 72
    17
 73
    13
 74
     0
 42
0.0000000001
 43
0.0000000001
 40
0.0
 40
0.0
 40
0.0
 40
0.0
 40
1.0
 40
1.0
 40
1.0
 40
2.0
 40
2.0
 40
2.0
 40
3.0
 40
3.0
 40
3.0
 40
4.0
 40
4.0
 40
4.0
 40
4.0
 10
-81.27979327395089
 20
51.77358397143161
 30
0.0
 10
-81.83014727771955
 20
51.77358397143161
 30
0.0
 10
-82.25354951285675
 20
51.35052624584293
 30
0.0
 10
-82.25354951285675
 20
50.7999999873
 30
0.0
 10
-82.25354951285675
 20
50.29219291277418
 30
0.0
 10
-81.83014727771955
 20
49.8264160031684
 30
0.0
 10
-81.27979327395089
 20
49.8264160031684
 30
0.0
 10
-80.7296115249565
 20
49.8264160031684
 30
0.0
 10
-80.26383461535072
 20
50.29219291277418
 30
0.0
 10
-80.26383461535072
 20
50.7999999873
 30
0.0
 10
-80.26383461535072
 20
51.35052624584293
 30
0.0
 10
-80.7296115249565
 20
51.77358397143161
 30
0.0
 10
-81.27979327395089
 20
51.77358397143161
 30
0.0
  0
SPLINE
  5
9A
330
1F
100
AcDbEntity
  8
LAYER_1
 62
     7
100
AcDbSpline
210
0.0
220
0.0
230
1.0
 70
    11
 71
     3
 72
    17
 73
    13
 74
     0
 42
0.0000000001
 43
0.0000000001
 40
0.0
 40
0.0
 40
0.0
 40
0.0
 40
1.0
 40
1.0
 40
1.0
 40
2.0
 40
2.0
 40
2.0
 40
3.0
 40
3.0
 40
3.0
 40
4.0
 40
4.0
 40
4.0
 40
4.0
 10
-81.27979327395089
 20
49.23385957970542
 30
0.0
 10
-81.83014727771955
 20
49.23385957970542
 30
0.0
 10
-82.25354951285675
 20
48.81011283501969
 30
0.0
 10
-82.25354951285675
 20
48.2599310860253
 30
0.0
 10
-82.25354951285675
 20
47.75177950195095
 30
0.0
 10
-81.83014727771955
 20
47.2863471018937
 30
0.0
 10
-81.27979327395089
 20
47.2863471018937
 30
0.0
 10
-80.7296115249565
 20
47.2863471018937
 30
0.0
 10
-80.26383461535072
 20
47.75177950195095
 30
0.0
 10
-80.26383461535072
 20
48.2599310860253
 30
0.0
 10
-80.26383461535072
 20
48.81011283501969
 30
0.0
 10
-80.7296115249565
 20
49.23385957970542
 30
0.0
 10
-81.27979327395089
 20
49.23385957970542
 30
0.0
  0
SPLINE
  5
9B
330
1F
100
AcDbEntity
  8
LAYER_1
 62
     7
100
AcDbSpline
210
0.0
220
0.0
230
1.0
 70
    11
 71
     3
 72
    17
 73
    13
 74
     0
 42
0.0000000001
 43
0.0000000001
 40
0.0
 40
0.0
 40
0.0
 40
0.0
 40
1.0
 40
1.0
 40
1.0
 40
2.0
 40
2.0
 40
2.0
 40
3.0
 40
3.0
 40
3.0
 40
4.0
 40
4.0
 40
4.0
 40
4.0
 10
-81.27979327395089
 20
46.6934461688822
 30
0.0
 10
-81.83014727771955
 20
46.6934461688822
 30
0.0
 10
-82.25354951285675
 20
46.27038844329351
 30
0.0
 10
-82.25354951285675
 20
45.71986218475059
 30
0.0
 10
-82.25354951285675
 20
45.21205511022477
 30
0.0
 10
-81.83014727771955
 20
44.74627820061899
 30
0.0
 10
-81.27979327395089
 20
44.74627820061899
 30
0.0
 10
-80.7296115249565
 20
44.74627820061899
 30
0.0
 10
-80.26383461535072
 20
45.21205511022477
 30
0.0
 10
-80.26383461535072
 20
45.71986218475059
 30
0.0
 10
-80.26383461535072
 20
46.27038844329351
 30
0.0
 10
-80.7296115249565
 20
46.6934461688822
 30
0.0
 10
-81.27979327395089
 20
46.6934461688822
 30
0.0
  0
SPLINE
  5
9C
330
1F
100
AcDbEntity
  8
LAYER_1
 62
     7
100
AcDbSpline
210
0.0
220
0.0
230
1.0
 70
    11
 71
     3
 72
    17
 73
    13
 74
     0
 42
0.0000000001
 43
0.0000000001
 40
0.0
 40
0.0
 40
0.0
 40
0.0
 40
1.0
 40
1.0
 40
1.0
 40
2.0
 40
2.0
 40
2.0
 40
3.0
 40
3.0
 40
3.0
 40
4.0
 40
4.0
 40
4.0
 40
4.0
 10
-81.27979327395089
 20
44.15372177715602
 30
0.0
 10
-81.83014727771955
 20
44.15372177715602
 30
0.0
 10
-82.25354951285675
 20
43.73031954201881
 30
0.0
 10
-82.25354951285675
 20
43.18013779302441
 30
0.0
 10
-82.25354951285675
 20
42.67198620895006
 30
0.0
 10
-81.83014727771955
 20
42.20655380889281
 30
0.0
 10
-81.27979327395089
 20
42.20655380889281
 30
0.0
 10
-80.7296115249565
 20
42.20655380889281
 30
0.0
 10
-80.26383461535072
 20
42.67198620895006
 30
0.0
 10
-80.26383461535072
 20
43.18013779302441
 30
0.0
 10
-80.26383461535072
 20
43.73031954201881
 30
0.0
 10
-80.7296115249565
 20
44.15372177715602
 30
0.0
 10
-81.27979327395089
 20
44.15372177715602
 30
0.0
  0
SPLINE
  5
9D
330
1F
100
AcDbEntity
  8
LAYER_1
 62
     7
100
AcDbSpline
210
0.0
220
0.0
230
1.0
 70
    11
 71
     3
 72
    17
 73
    13
 74
     0
 42
0.0000000001
 43
0.0000000001
 40
0.0
 40
0.0
 40
0.0
 40
0.0
 40
1.0
 40
1.0
 40
1.0
 40
2.0
 40
2.0
 40
2.0
 40
3.0
 40
3.0
 40
3.0
 40
4.0
 40
4.0
 40
4.0
 40
4.0
 10
-81.27979327395089
 20
41.61365287588131
 30
0.0
 10
-81.83014727771955
 20
41.61365287588131
 30
0.0
 10
-82.25354951285675
 20
41.1902506407441
 30
0.0
 10
-82.25354951285675
 20
40.64006889174971
 30
0.0
 10
-82.25354951285675
 20
40.13191730767536
 30
0.0
 10
-81.83014727771955
 20
39.66614039806958
 30
0.0
 10
-81.27979327395089
 20
39.66614039806958
 30
0.0
 10
-80.7296115249565
 20
39.66614039806958
 30
0.0
 10
-80.26383461535072
 20
40.13191730767536
 30
0.0
 10
-80.26383461535072
 20
40.64006889174971
 30
0.0
 10
-80.26383461535072
 20
41.1902506407441
 30
0.0
 10
-80.7296115249565
 20
41.61365287588131
 30
0.0
 10
-81.27979327395089
 20
41.61365287588131
 30
0.0
  0
SPLINE
  5
9E
330
1F
100
AcDbEntity
  8
LAYER_1
 62
     7
100
AcDbSpline
210
0.0
220
0.0
230
1.0
 70
    11
 71
     3
 72
    17
 73
    13
 74
     0
 42
0.0000000001
 43
0.0000000001
 40
0.0
 40
0.0
 40
0.0
 40
0.0
 40
1.0
 40
1.0
 40
1.0
 40
2.0
 40
2.0
 40
2.0
 40
3.0
 40
3.0
 40
3.0
 40
4.0
 40
4.0
 40
4.0
 40
4.0
 10
-81.27979327395089
 20
39.07358397460661
 30
0.0
 10
-81.83014727771955
 20
39.07358397460661
 30
0.0
 10
-82.25354951285675
 20
38.65052624901793
 30
0.0
 10
-82.25354951285675
 20
38.099999990475
 30
0.0
 10
-82.25354951285675
 20
37.59219291594918
 30
0.0
 10
-81.83014727771955
 20
37.1264160063434
 30
0.0
 10
-81.27979327395089
 20
37.1264160063434
 30
0.0
 10
-80.7296115249565
 20
37.1264160063434
 30
0.0
 10
-80.26383461535072
 20
37.59219291594918
 30
0.0
 10
-80.26383461535072
 20
38.099999990475
 30
0.0
 10
-80.26383461535072
 20
38.65052624901793
 30
0.0
 10
-80.7296115249565
 20
39.07358397460661
 30
0.0
 10
-81.27979327395089
 20
39.07358397460661
 30
0.0
  0
SPLINE
  5
9F
330
1F
100
AcDbEntity
  8
LAYER_1
 62
     7
100
AcDbSpline
210
0.0
220
0.0
230
1.0
 70
    11
 71
     3
 72
    17
 73
    13
 74
     0
 42
0.0000000001
 43
0.0000000001
 40
0.0
 40
0.0
 40
0.0
 40
0.0
 40
1.0
 40
1.0
 40
1.0
 40
2.0
 40
2.0
 40
2.0
 40
3.0
 40
3.0
 40
3.0
 40
4.0
 40
4.0
 40
4.0
 40
4.0
 10
-81.27979327395089
 20
36.53385958288042
 30
0.0
 10
-81.83014727771955
 20
36.53385958288042
 30
0.0
 10
-82.25354951285675
 20
36.11011283819469
 30
0.0
 10
-82.25354951285675
 20
35.5599310892003
 30
0.0
 10
-82.25354951285675
 20
35.05177950512594
 30
0.0
 10
-81.83014727771955
 20
34.58634710506869
 30
0.0
 10
-81.27979327395089
 20
34.58634710506869
 30
0.0
 10
-80.7296115249565
 20
34.58634710506869
 30
0.0
 10
-80.26383461535072
 20
35.05177950512594
 30
0.0
 10
-80.26383461535072
 20
35.5599310892003
 30
0.0
 10
-80.26383461535072
 20
36.11011283819469
 30
0.0
 10
-80.7296115249565
 20
36.53385958288042
 30
0.0
 10
-81.27979327395089
 20
36.53385958288042
 30
0.0
  0
SPLINE
  5
A0
330
1F
100
AcDbEntity
  8
LAYER_1
 62
     7
100
AcDbSpline
210
0.0
220
0.0
230
1.0
 70
    11
 71
     3
 72
    17
 73
    13
 74
     0
 42
0.0000000001
 43
0.0000000001
 40
0.0
 40
0.0
 40
0.0
 40
0.0
 40
1.0
 40
1.0
 40
1.0
 40
2.0
 40
2.0
 40
2.0
 40
3.0
 40
3.0
 40
3.0
 40
4.0
 40
4.0
 40
4.0
 40
4.0
 10
-81.27979327395089
 20
33.9934461720572
 30
0.0
 10
-81.83014727771955
 20
33.9934461720572
 30
0.0
 10
-82.25354951285675
 20
33.57038844646851
 30
0.0
 10
-82.25354951285675
 20
33.01986218792559
 30
0.0
 10
-82.25354951285675
 20
32.51205511339977
 30
0.0
 10
-81.83014727771955
 20
32.04627820379399
 30
0.0
 10
-81.27979327395089
 20
32.04627820379399
 30
0.0
 10
-80.7296115249565
 20
32.04627820379399
 30
0.0
 10
-80.26383461535072
 20
32.51205511339977
 30
0.0
 10
-80.26383461535072
 20
33.01986218792559
 30
0.0
 10
-80.26383461535072
 20
33.57038844646851
 30
0.0
 10
-80.7296115249565
 20
33.9934461720572
 30
0.0
 10
-81.27979327395089
 20
33.9934461720572
 30
0.0
  0
SPLINE
  5
A1
330
1F
100
AcDbEntity
  8
LAYER_1
 62
     7
100
AcDbSpline
210
0.0
220
0.0
230
1.0
 70
    11
 71
     3
 72
    17
 73
    13
 74
     0
 42
0.0000000001
 43
0.0000000001
 40
0.0
 40
0.0
 40
0.0
 40
0.0
 40
1.0
 40
1.0
 40
1.0
 40
2.0
 40
2.0
 40
2.0
 40
3.0
 40
3.0
 40
3.0
 40
4.0
 40
4.0
 40
4.0
 40
4.0
 10
-81.27979327395089
 20
31.45372178033102
 30
0.0
 10
-81.83014727771955
 20
31.45372178033102
 30
0.0
 10
-82.25354951285675
 20
31.03031954519381
 30
0.0
 10
-82.25354951285675
 20
30.48013779619941
 30
0.0
 10
-82.25354951285675
 20
29.97198621212506
 30
0.0
 10
-81.83014727771955
 20
29.50655381206781
 30
0.0
 10
-81.27979327395089
 20
29.50655381206781
 30
0.0
 10
-80.7296115249565
 20
29.50655381206781
 30
0.0
 10
-80.26383461535072
 20
29.97198621212506
 30
0.0
 10
-80.26383461535072
 20
30.48013779619941
 30
0.0
 10
-80.26383461535072
 20
31.03031954519381
 30
0.0
 10
-80.7296115249565
 20
31.45372178033102
 30
0.0
 10
-81.27979327395089
 20
31.45372178033102
 30
0.0
  0
SPLINE
  5
A2
330
1F
100
AcDbEntity
  8
LAYER_1
 62
     7
100
AcDbSpline
210
0.0
220
0.0
230
1.0
 70
    11
 71
     3
 72
    17
 73
    13
 74
     0
 42
0.0000000001
 43
0.0000000001
 40
0.0
 40
0.0
 40
0.0
 40
0.0
 40
1.0
 40
1.0
 40
1.0
 40
2.0
 40
2.0
 40
2.0
 40
3.0
 40
3.0
 40
3.0
 40
4.0
 40
4.0
 40
4.0
 40
4.0
 10
-81.27979327395089
 20
28.91365287905631
 30
0.0
 10
-81.83014727771955
 20
28.91365287905631
 30
0.0
 10
-82.25354951285675
 20
28.4902506439191
 30
0.0
 10
-82.25354951285675
 20
27.94006889492471
 30
0.0
 10
-82.25354951285675
 20
27.43191731085036
 30
0.0
 10
-81.83014727771955
 20
26.96614040124458
 30
0.0
 10
-81.27979327395089
 20
26.96614040124458
 30
0.0
 10
-80.7296115249565
 20
26.96614040124458
 30
0.0
 10
-80.26383461535072
 20
27.43191731085036
 30
0.0
 10
-80.26383461535072
 20
27.94006889492471
 30
0.0
 10
-80.26383461535072
 20
28.4902506439191
 30
0.0
 10
-80.7296115249565
 20
28.91365287905631
 30
0.0
 10
-81.27979327395089
 20
28.91365287905631
 30
0.0
  0
SPLINE
  5
A3
330
1F
100
AcDbEntity
  8
LAYER_1
 62
     7
100
AcDbSpline
210
0.0
220
0.0
230
1.0
 70
    11
 71
     3
 72
    17
 73
    13
 74
     0
 42
0.0000000001
 43
0.0000000001
 40
0.0
 40
0.0
 40
0.0
 40
0.0
 40
1.0
 40
1.0
 40
1.0
 40
2.0
 40
2.0
 40
2.0
 40
3.0
 40
3.0
 40
3.0
 40
4.0
 40
4.0
 40
4.0
 40
4.0
 10
-81.27979327395089
 20
26.37358397778161
 30
0.0
 10
-81.83014727771955
 20
26.37358397778161
 30
0.0
 10
-82.25354951285675
 20
25.95052625219293
 30
0.0
 10
-82.25354951285675
 20
25.39999999365
 30
0.0
 10
-82.25354951285675
 20
24.89219291912417
 30
0.0
 10
-81.83014727771955
 20
24.4264160095184
 30
0.0
 10
-81.27979327395089
 20
24.4264160095184
 30
0.0
 10
-80.7296115249565
 20
24.4264160095184
 30
0.0
 10
-80.26383461535072
 20
24.89219291912417
 30
0.0
 10
-80.26383461535072
 20
25.39999999365
 30
0.0
 10
-80.26383461535072
 20
25.95052625219293
 30
0.0
 10
-80.7296115249565
 20
26.37358397778161
 30
0.0
 10
-81.27979327395089
 20
26.37358397778161
 30
0.0
  0
SPLINE
  5
A4
330
1F
100
AcDbEntity
  8
LAYER_1
 62
     7
100
AcDbSpline
210
0.0
220
0.0
230
1.0
 70
    11
 71
     3
 72
    17
 73
    13
 74
     0
 42
0.0000000001
 43
0.0000000001
 40
0.0
 40
0.0
 40
0.0
 40
0.0
 40
1.0
 40
1.0
 40
1.0
 40
2.0
 40
2.0
 40
2.0
 40
3.0
 40
3.0
 40
3.0
 40
4.0
 40
4.0
 40
4.0
 40
4.0
 10
-81.27979327395089
 20
23.83385958605542
 30
0.0
 10
-81.83014727771955
 20
23.83385958605542
 30
0.0
 10
-82.25354951285675
 20
23.4101128413697
 30
0.0
 10
-82.25354951285675
 20
22.85993109237529
 30
0.0
 10
-82.25354951285675
 20
22.35177950830095
 30
0.0
 10
-81.83014727771955
 20
21.88634710824369
 30
0.0
 10
-81.27979327395089
 20
21.88634710824369
 30
0.0
 10
-80.7296115249565
 20
21.88634710824369
 30
0.0
 10
-80.26383461535072
 20
22.35177950830095
 30
0.0
 10
-80.26383461535072
 20
22.85993109237529
 30
0.0
 10
-80.26383461535072
 20
23.4101128413697
 30
0.0
 10
-80.7296115249565
 20
23.83385958605542
 30
0.0
 10
-81.27979327395089
 20
23.83385958605542
 30
0.0
  0
SPLINE
  5
A5
330
1F
100
AcDbEntity
  8
LAYER_1
 62
     7
100
AcDbSpline
210
0.0
220
0.0
230
1.0
 70
    11
 71
     3
 72
    17
 73
    13
 74
     0
 42
0.0000000001
 43
0.0000000001
 40
0.0
 40
0.0
 40
0.0
 40
0.0
 40
1.0
 40
1.0
 40
1.0
 40
2.0
 40
2.0
 40
2.0
 40
3.0
 40
3.0
 40
3.0
 40
4.0
 40
4.0
 40
4.0
 40
4.0
 10
-81.27979327395089
 20
21.33616535924929
 30
0.0
 10
-81.83014727771955
 20
21.33616535924929
 30
0.0
 10
-82.25354951285675
 20
20.91241861456356
 30
0.0
 10
-82.25354951285675
 20
20.36223686556916
 30
0.0
 10
-82.25354951285675
 20
19.81205511657476
 30
0.0
 10
-81.83014727771955
 20
19.34627820696899
 30
0.0
 10
-81.27979327395089
 20
19.34627820696899
 30
0.0
 10
-80.7296115249565
 20
19.34627820696899
 30
0.0
 10
-80.26383461535072
 20
19.81205511657476
 30
0.0
 10
-80.26383461535072
 20
20.36223686556916
 30
0.0
 10
-80.26383461535072
 20
20.91241861456356
 30
0.0
 10
-80.7296115249565
 20
21.33616535924929
 30
0.0
 10
-81.27979327395089
 20
21.33616535924929
 30
0.0
  0
SPLINE
  5
A6
330
1F
100
AcDbEntity
  8
LAYER_1
 62
     7
100
AcDbSpline
210
0.0
220
0.0
230
1.0
 70
    11
 71
     3
 72
    17
 73
    13
 74
     0
 42
0.0000000001
 43
0.0000000001
 40
0.0
 40
0.0
 40
0.0
 40
0.0
 40
1.0
 40
1.0
 40
1.0
 40
2.0
 40
2.0
 40
2.0
 40
3.0
 40
3.0
 40
3.0
 40
4.0
 40
4.0
 40
4.0
 40
4.0
 10
-81.27979327395089
 20
18.79575194842606
 30
0.0
 10
-81.83014727771955
 20
18.79575194842606
 30
0.0
 10
-82.25354951285675
 20
18.37269422283738
 30
0.0
 10
-82.25354951285675
 20
17.82216796429446
 30
0.0
 10
-82.25354951285675
 20
17.27198621530006
 30
0.0
 10
-81.83014727771955
 20
16.80655381524281
 30
0.0
 10
-81.27979327395089
 20
16.80655381524281
 30
0.0
 10
-80.7296115249565
 20
16.80655381524281
 30
0.0
 10
-80.26383461535072
 20
17.27198621530006
 30
0.0
 10
-80.26383461535072
 20
17.82216796429446
 30
0.0
 10
-80.26383461535072
 20
18.37269422283738
 30
0.0
 10
-80.7296115249565
 20
18.79575194842606
 30
0.0
 10
-81.27979327395089
 20
18.79575194842606
 30
0.0
  0
SPLINE
  5
A7
330
1F
100
AcDbEntity
  8
LAYER_1
 62
     7
100
AcDbSpline
210
0.0
220
0.0
230
1.0
 70
    11
 71
     3
 72
    17
 73
    13
 74
     0
 42
0.0000000001
 43
0.0000000001
 40
0.0
 40
0.0
 40
0.0
 40
0.0
 40
1.0
 40
1.0
 40
1.0
 40
2.0
 40
2.0
 40
2.0
 40
3.0
 40
3.0
 40
3.0
 40
4.0
 40
4.0
 40
4.0
 40
4.0
 10
-81.27979327395089
 20
16.25602755669988
 30
0.0
 10
-81.83014727771955
 20
16.25602755669988
 30
0.0
 10
-82.25354951285675
 20
15.83262532156268
 30
0.0
 10
-82.25354951285675
 20
15.28244357256828
 30
0.0
 10
-82.25354951285675
 20
14.73191731402535
 30
0.0
 10
-81.83014727771955
 20
14.26614040441958
 30
0.0
 10
-81.27979327395089
 20
14.26614040441958
 30
0.0
 10
-80.7296115249565
 20
14.26614040441958
 30
0.0
 10
-80.26383461535072
 20
14.73191731402535
 30
0.0
 10
-80.26383461535072
 20
15.28244357256828
 30
0.0
 10
-80.26383461535072
 20
15.83262532156268
 30
0.0
 10
-80.7296115249565
 20
16.25602755669988
 30
0.0
 10
-81.27979327395089
 20
16.25602755669988
 30
0.0
  0
SPLINE
  5
A8
330
1F
100
AcDbEntity
  8
LAYER_1
 62
     7
100
AcDbSpline
210
0.0
220
0.0
230
1.0
 70
    11
 71
     3
 72
    17
 73
    13
 74
     0
 42
0.0000000001
 43
0.0000000001
 40
0.0
 40
0.0
 40
0.0
 40
0.0
 40
1.0
 40
1.0
 40
1.0
 40
2.0
 40
2.0
 40
2.0
 40
3.0
 40
3.0
 40
3.0
 40
4.0
 40
4.0
 40
4.0
 40
4.0
 10
-81.27979327395089
 20
13.71595865542518
 30
0.0
 10
-81.83014727771955
 20
13.71595865542518
 30
0.0
 10
-82.25354951285675
 20
13.29255642028797
 30
0.0
 10
-82.25354951285675
 20
12.74237467129357
 30
0.0
 10
-82.25354951285675
 20
12.19219292229917
 30
0.0
 10
-81.83014727771955
 20
11.7264160126934
 30
0.0
 10
-81.27979327395089
 20
11.7264160126934
 30
0.0
 10
-80.7296115249565
 20
11.7264160126934
 30
0.0
 10
-80.26383461535072
 20
12.19219292229917
 30
0.0
 10
-80.26383461535072
 20
12.74237467129357
 30
0.0
 10
-80.26383461535072
 20
13.29255642028797
 30
0.0
 10
-80.7296115249565
 20
13.71595865542518
 30
0.0
 10
-81.27979327395089
 20
13.71595865542518
 30
0.0
  0
SPLINE
  5
A9
330
1F
100
AcDbEntity
  8
LAYER_1
 62
     7
100
AcDbSpline
210
0.0
220
0.0
230
1.0
 70
    11
 71
     3
 72
    17
 73
    13
 74
     0
 42
0.0000000001
 43
0.0000000001
 40
0.0
 40
0.0
 40
0.0
 40
0.0
 40
1.0
 40
1.0
 40
1.0
 40
2.0
 40
2.0
 40
2.0
 40
3.0
 40
3.0
 40
3.0
 40
4.0
 40
4.0
 40
4.0
 40
4.0
 10
-81.27979327395089
 20
11.17588975415047
 30
0.0
 10
-81.83014727771955
 20
11.17588975415047
 30
0.0
 10
-82.25354951285675
 20
10.75283202856179
 30
0.0
 10
-82.25354951285675
 20
10.20230577001887
 30
0.0
 10
-82.25354951285675
 20
9.651779511475944
 30
0.0
 10
-81.83014727771955
 20
9.18634711141869
 30
0.0
 10
-81.27979327395089
 20
9.18634711141869
 30
0.0
 10
-80.7296115249565
 20
9.18634711141869
 30
0.0
 10
-80.26383461535072
 20
9.651779511475944
 30
0.0
 10
-80.26383461535072
 20
10.20230577001887
 30
0.0
 10
-80.26383461535072
 20
10.75283202856179
 30
0.0
 10
-80.7296115249565
 20
11.17588975415047
 30
0.0
 10
-81.27979327395089
 20
11.17588975415047
 30
0.0
  0
SPLINE
  5
AA
330
1F
100
AcDbEntity
  8
LAYER_1
 62
     7
100
AcDbSpline
210
0.0
220
0.0
230
1.0
 70
    11
 71
     3
 72
    17
 73
    13
 74
     0
 42
0.0000000001
 43
0.0000000001
 40
0.0
 40
0.0
 40
0.0
 40
0.0
 40
1.0
 40
1.0
 40
1.0
 40
2.0
 40
2.0
 40
2.0
 40
3.0
 40
3.0
 40
3.0
 40
4.0
 40
4.0
 40
4.0
 40
4.0
 10
-81.27979327395089
 20
8.636165362424292
 30
0.0
 10
-81.83014727771955
 20
8.636165362424292
 30
0.0
 10
-82.25354951285675
 20
8.212418617738562
 30
0.0
 10
-82.25354951285675
 20
7.662236868744164
 30
0.0
 10
-82.25354951285675
 20
7.112055119749765
 30
0.0
 10
-81.83014727771955
 20
6.646278210143986
 30
0.0
 10
-81.27979327395089
 20
6.646278210143986
 30
0.0
 10
-80.7296115249565
 20
6.646278210143986
 30
0.0
 10
-80.26383461535072
 20
7.112055119749765
 30
0.0
 10
-80.26383461535072
 20
7.662236868744164
 30
0.0
 10
-80.26383461535072
 20
8.212418617738562
 30
0.0
 10
-80.7296115249565
 20
8.636165362424292
 30
0.0
 10
-81.27979327395089
 20
8.636165362424292
 30
0.0
  0
POLYLINE
  5
AB
330
1F
100
AcDbEntity
  8
LAYER_1
 62
     7
100
AcDb2dPolyline
 66
     1
 10
0.0
 20
0.0
 30
0.0
  0
VERTEX
  5
AC
330
AB
100
AcDbEntity
  8
LAYER_1
 62
     7
100
AcDbVertex
100
AcDb2dVertex
 10
-57.65780706023833
 20
30.60691731005661
 30
0.0
  0
VERTEX
  5
AD
330
AB
100
AcDbEntity
  8
LAYER_1
 62
     7
100
AcDbVertex
100
AcDb2dVertex
 10
-57.61560464054402
 20
30.60691731005661
 30
0.0
  0
VERTEX
  5
AE
330
AB
100
AcDbEntity
  8
LAYER_1
 62
     7
100
AcDbVertex
100
AcDb2dVertex
 10
-55.71046683720085
 20
30.60691731005661
 30
0.0
  0
VERTEX
  5
AF
330
AB
100
AcDbEntity
  8
LAYER_1
 62
     7
100
AcDbVertex
100
AcDb2dVertex
 10
-55.71046683720085
 20
32.55408527831981
 30
0.0
  0
VERTEX
  5
B0
330
AB
100
AcDbEntity
  8
LAYER_1
 62
     7
100
AcDbVertex
100
AcDb2dVertex
 10
-55.71046683720085
 20
32.59680446233691
 30
0.0
  0
VERTEX
  5
B1
330
AB
100
AcDbEntity
  8
LAYER_1
 62
     7
100
AcDbVertex
100
AcDb2dVertex
 10
-57.65780706023833
 20
32.59680446233691
 30
0.0
  0
VERTEX
  5
B2
330
AB
100
AcDbEntity
  8
LAYER_1
 62
     7
100
AcDbVertex
100
AcDb2dVertex
 10
-57.65780706023833
 20
30.60691731005661
 30
0.0
  0
SEQEND
  5
B3
330
AB
100
AcDbEntity
  8
LAYER_1
  0
SPLINE
  5
B4
330
1F
100
AcDbEntity
  8
LAYER_1
 62
     7
100
AcDbSpline
210
0.0
220
0.0
230
1.0
 70
    11
 71
     3
 72
    17
 73
    13
 74
     0
 42
0.0000000001
 43
0.0000000001
 40
0.0
 40
0.0
 40
0.0
 40
0.0
 40
1.0
 40
1.0
 40
1.0
 40
2.0
 40
2.0
 40
2.0
 40
3.0
 40
3.0
 40
3.0
 40
4.0
 40
4.0
 40
4.0
 40
4.0
 10
-54.14415417483202
 20
30.60691731005661
 30
0.0
 10
-53.63617484553193
 20
30.60691731005661
 30
0.0
 10
-53.17057019070042
 20
31.07269421966238
 30
0.0
 10
-53.17057019070042
 20
31.62322047820531
 30
0.0
 10
-53.17057019070042
 20
32.17340222719971
 30
0.0
 10
-53.63617484553193
 20
32.59680446233691
 30
0.0
 10
-54.14415417483202
 20
32.59680446233691
 30
0.0
 10
-54.69450817860068
 20
32.59680446233691
 30
0.0
 10
-55.11791041373789
 20
32.17340222719971
 30
0.0
 10
-55.11791041373789
 20
31.62322047820531
 30
0.0
 10
-55.11791041373789
 20
31.07269421966238
 30
0.0
 10
-54.69450817860068
 20
30.60691731005661
 30
0.0
 10
-54.14415417483202
 20
30.60691731005661
 30
0.0
  0
POLYLINE
  5
B5
330
1F
100
AcDbEntity
  8
LAYER_1
 62
     7
100
AcDb2dPolyline
 66
     1
 10
0.0
 20
0.0
 30
0.0
  0
VERTEX
  5
B6
330
B5
100
AcDbEntity
  8
LAYER_1
 62
     7
100
AcDbVertex
100
AcDb2dVertex
 10
-71.41614039013209
 20
38.86205511181227
 30
0.0
  0
VERTEX
  5
B7
330
B5
100
AcDbEntity
  8
LAYER_1
 62
     7
100
AcDbVertex
100
AcDb2dVertex
 10
-71.41614039013209
 20
40.80922308007548
 30
0.0
  0
VERTEX
  5
B8
330
B5
100
AcDbEntity
  8
LAYER_1
 62
     7
100
AcDbVertex
100
AcDb2dVertex
 10
-71.41614039013209
 20
40.85159775454404
 30
0.0
  0
VERTEX
  5
B9
330
B5
100
AcDbEntity
  8
LAYER_1
 62
     7
100
AcDbVertex
100
AcDb2dVertex
 10
-73.36348061316956
 20
40.85159775454404
 30
0.0
  0
VERTEX
  5
BA
330
B5
100
AcDbEntity
  8
LAYER_1
 62
     7
100
AcDbVertex
100
AcDb2dVertex
 10
-73.36348061316956
 20
38.86205511181227
 30
0.0
  0
VERTEX
  5
BB
330
B5
100
AcDbEntity
  8
LAYER_1
 62
     7
100
AcDbVertex
100
AcDb2dVertex
 10
-73.32127819347524
 20
38.86205511181227
 30
0.0
  0
VERTEX
  5
BC
330
B5
100
AcDbEntity
  8
LAYER_1
 62
     7
100
AcDbVertex
100
AcDb2dVertex
 10
-71.41614039013209
 20
38.86205511181227
 30
0.0
  0
SEQEND
  5
BD
330
B5
100
AcDbEntity
  8
LAYER_1
  0
SPLINE
  5
BE
330
1F
100
AcDbEntity
  8
LAYER_1
 62
     7
100
AcDbSpline
210
0.0
220
0.0
230
1.0
 70
    11
 71
     3
 72
    17
 73
    13
 74
     0
 42
0.0000000001
 43
0.0000000001
 40
0.0
 40
0.0
 40
0.0
 40
0.0
 40
1.0
 40
1.0
 40
1.0
 40
2.0
 40
2.0
 40
2.0
 40
3.0
 40
3.0
 40
3.0
 40
4.0
 40
4.0
 40
4.0
 40
4.0
 10
-72.38989662903795
 20
41.40177950353844
 30
0.0
 10
-71.88191729973786
 20
41.40177950353844
 30
0.0
 10
-71.41614039013209
 20
41.86755641314422
 30
0.0
 10
-71.41614039013209
 20
42.41808267168715
 30
0.0
 10
-71.41614039013209
 20
42.96826442068155
 30
0.0
 10
-71.88191729973786
 20
43.39166665581875
 30
0.0
 10
-72.38989662903795
 20
43.39166665581875
 30
0.0
 10
-72.94025063280661
 20
43.39166665581875
 30
0.0
 10
-73.36348061316956
 20
42.96826442068155
 30
0.0
 10
-73.36348061316956
 20
42.41808267168715
 30
0.0
 10
-73.36348061316956
 20
41.86755641314422
 30
0.0
 10
-72.94025063280661
 20
41.40177950353844
 30
0.0
 10
-72.38989662903795
 20
41.40177950353844
 30
0.0
  0
SPLINE
  5
BF
330
1F
100
AcDbEntity
  8
LAYER_1
 62
     7
100
AcDbSpline
210
0.0
220
0.0
230
1.0
 70
    11
 71
     3
 72
    17
 73
    13
 74
     0
 42
0.0000000001
 43
0.0000000001
 40
0.0
 40
0.0
 40
0.0
 40
0.0
 40
1.0
 40
1.0
 40
1.0
 40
2.0
 40
2.0
 40
2.0
 40
3.0
 40
3.0
 40
3.0
 40
4.0
 40
4.0
 40
4.0
 40
4.0
 10
-72.38989662903795
 20
43.94219291436168
 30
0.0
 10
-71.88191729973786
 20
43.94219291436168
 30
0.0
 10
-71.41614039013209
 20
44.40762531441893
 30
0.0
 10
-71.41614039013209
 20
44.95780706341333
 30
0.0
 10
-71.41614039013209
 20
45.50833332195625
 30
0.0
 10
-71.88191729973786
 20
45.93173555709345
 30
0.0
 10
-72.38989662903795
 20
45.93173555709345
 30
0.0
 10
-72.94025063280661
 20
45.93173555709345
 30
0.0
 10
-73.36348061316956
 20
45.50833332195625
 30
0.0
 10
-73.36348061316956
 20
44.95780706341333
 30
0.0
 10
-73.36348061316956
 20
44.40762531441893
 30
0.0
 10
-72.94025063280661
 20
43.94219291436168
 30
0.0
 10
-72.38989662903795
 20
43.94219291436168
 30
0.0
  0
SPLINE
  5
C0
330
1F
100
AcDbEntity
  8
LAYER_1
 62
     7
100
AcDbSpline
210
0.0
220
0.0
230
1.0
 70
    11
 71
     3
 72
    17
 73
    13
 74
     0
 42
0.0000000001
 43
0.0000000001
 40
0.0
 40
0.0
 40
0.0
 40
0.0
 40
1.0
 40
1.0
 40
1.0
 40
2.0
 40
2.0
 40
2.0
 40
3.0
 40
3.0
 40
3.0
 40
4.0
 40
4.0
 40
4.0
 40
4.0
 10
-72.38989662903795
 20
46.48191730608786
 30
0.0
 10
-71.88191729973786
 20
46.48191730608786
 30
0.0
 10
-71.41614039013209
 20
46.94769421569364
 30
0.0
 10
-71.41614039013209
 20
47.49822047423656
 30
0.0
 10
-71.41614039013209
 20
48.04840222323096
 30
0.0
 10
-71.88191729973786
 20
48.47180445836816
 30
0.0
 10
-72.38989662903795
 20
48.47180445836816
 30
0.0
 10
-72.94025063280661
 20
48.47180445836816
 30
0.0
 10
-73.36348061316956
 20
48.04840222323096
 30
0.0
 10
-73.36348061316956
 20
47.49822047423656
 30
0.0
 10
-73.36348061316956
 20
46.94769421569364
 30
0.0
 10
-72.94025063280661
 20
46.48191730608786
 30
0.0
 10
-72.38989662903795
 20
46.48191730608786
 30
0.0
  0
SPLINE
  5
C1
330
1F
100
AcDbEntity
  8
LAYER_1
 62
     7
100
AcDbSpline
210
0.0
220
0.0
230
1.0
 70
    11
 71
     3
 72
    17
 73
    13
 74
     0
 42
0.0000000001
 43
0.0000000001
 40
0.0
 40
0.0
 40
0.0
 40
0.0
 40
1.0
 40
1.0
 40
1.0
 40
2.0
 40
2.0
 40
2.0
 40
3.0
 40
3.0
 40
3.0
 40
4.0
 40
4.0
 40
4.0
 40
4.0
 10
-8.424291990081427
 20
43.56116535369304
 30
0.0
 10
-9.52499999761875
 20
43.56116535369304
 30
0.0
 10
-10.41383463281321
 20
42.71436088341864
 30
0.0
 10
-10.41383463281321
 20
41.61365287588131
 30
0.0
 10
-10.41383463281321
 20
40.51294486834399
 30
0.0
 10
-9.52499999761875
 20
39.62411023314953
 30
0.0
 10
-8.424291990081427
 20
39.62411023314953
 30
0.0
 10
-7.323583982544104
 20
39.62411023314953
 30
0.0
 10
-6.434404837801122
 20
40.51294486834399
 30
0.0
 10
-6.434404837801122
 20
41.61365287588131
 30
0.0
 10
-6.434404837801122
 20
42.71436088341864
 30
0.0
 10
-7.323583982544104
 20
43.56116535369304
 30
0.0
 10
-8.424291990081427
 20
43.56116535369304
 30
0.0
  0
SPLINE
  5
C2
330
1F
100
AcDbEntity
  8
LAYER_1
 62
     7
100
AcDbSpline
210
0.0
220
0.0
230
1.0
 70
    11
 71
     3
 72
    17
 73
    13
 74
     0
 42
0.0000000001
 43
0.0000000001
 40
0.0
 40
0.0
 40
0.0
 40
0.0
 40
1.0
 40
1.0
 40
1.0
 40
2.0
 40
2.0
 40
2.0
 40
3.0
 40
3.0
 40
3.0
 40
4.0
 40
4.0
 40
4.0
 40
4.0
 10
-3.38652886200059
 20
43.56116535369304
 30
0.0
 10
-4.487236869537913
 20
43.56116535369304
 30
0.0
 10
-5.334041339812323
 20
42.71436088341864
 30
0.0
 10
-5.334041339812323
 20
41.61365287588131
 30
0.0
 10
-5.334041339812323
 20
40.51294486834399
 30
0.0
 10
-4.487236869537913
 20
39.62411023314953
 30
0.0
 10
-3.38652886200059
 20
39.62411023314953
 30
0.0
 10
-2.285820854463267
 20
39.62411023314953
 30
0.0
 10
-1.396986219268809
 20
40.51294486834399
 30
0.0
 10
-1.396986219268809
 20
41.61365287588131
 30
0.0
 10
-1.396986219268809
 20
42.71436088341864
 30
0.0
 10
-2.285820854463267
 20
43.56116535369304
 30
0.0
 10
-3.38652886200059
 20
43.56116535369304
 30
0.0
  0
SPLINE
  5
C3
330
1F
100
AcDbEntity
  8
LAYER_1
 62
     7
100
AcDbSpline
210
0.0
220
0.0
230
1.0
 70
    11
 71
     3
 72
    17
 73
    13
 74
     0
 42
0.0000000001
 43
0.0000000001
 40
0.0
 40
0.0
 40
0.0
 40
0.0
 40
1.0
 40
1.0
 40
1.0
 40
2.0
 40
2.0
 40
2.0
 40
3.0
 40
3.0
 40
3.0
 40
4.0
 40
4.0
 40
4.0
 40
4.0
 10
-22.09787597103803
 20
42.58723686001291
 30
0.0
 10
-22.64805772003243
 20
42.58723686001291
 30
0.0
 10
-23.07145995516964
 20
42.16383462487571
 30
0.0
 10
-23.07145995516964
 20
41.61365287588131
 30
0.0
 10
-23.07145995516964
 20
41.10550129180696
 30
0.0
 10
-22.64805772003243
 20
40.64006889174971
 30
0.0
 10
-22.09787597103803
 20
40.64006889174971
 30
0.0
 10
-21.54769422204363
 20
40.64006889174971
 30
0.0
 10
-21.08191731243786
 20
41.10550129180696
 30
0.0
 10
-21.08191731243786
 20
41.61365287588131
 30
0.0
 10
-21.08191731243786
 20
42.16383462487571
 30
0.0
 10
-21.54769422204363
 20
42.58723686001291
 30
0.0
 10
-22.09787597103803
 20
42.58723686001291
 30
0.0
  0
SPLINE
  5
C4
330
1F
100
AcDbEntity
  8
LAYER_1
 62
     7
100
AcDbSpline
210
0.0
220
0.0
230
1.0
 70
    11
 71
     3
 72
    17
 73
    13
 74
     0
 42
0.0000000001
 43
0.0000000001
 40
0.0
 40
0.0
 40
0.0
 40
0.0
 40
1.0
 40
1.0
 40
1.0
 40
2.0
 40
2.0
 40
2.0
 40
3.0
 40
3.0
 40
3.0
 40
4.0
 40
4.0
 40
4.0
 40
4.0
 10
-19.55780706976333
 20
40.64006889174971
 30
0.0
 10
-19.00762532076893
 20
40.64006889174971
 30
0.0
 10
-18.54184841116315
 20
41.10550129180696
 30
0.0
 10
-18.54184841116315
 20
41.61365287588131
 30
0.0
 10
-18.54184841116315
 20
42.16383462487571
 30
0.0
 10
-19.00762532076893
 20
42.58723686001291
 30
0.0
 10
-19.55780706976333
 20
42.58723686001291
 30
0.0
 10
-20.10833332830625
 20
42.58723686001291
 30
0.0
 10
-20.53139105389493
 20
42.16383462487571
 30
0.0
 10
-20.53139105389493
 20
41.61365287588131
 30
0.0
 10
-20.53139105389493
 20
41.10550129180696
 30
0.0
 10
-20.10833332830625
 20
40.64006889174971
 30
0.0
 10
-19.55780706976333
 20
40.64006889174971
 30
0.0
  0
SPLINE
  5
C5
330
1F
100
AcDbEntity
  8
LAYER_1
 62
     7
100
AcDbSpline
210
0.0
220
0.0
230
1.0
 70
    11
 71
     3
 72
    17
 73
    13
 74
     0
 42
0.0000000001
 43
0.0000000001
 40
0.0
 40
0.0
 40
0.0
 40
0.0
 40
1.0
 40
1.0
 40
1.0
 40
2.0
 40
2.0
 40
2.0
 40
3.0
 40
3.0
 40
3.0
 40
4.0
 40
4.0
 40
4.0
 40
4.0
 10
-17.01773816848862
 20
40.64006889174971
 30
0.0
 10
-16.46755641949422
 20
40.64006889174971
 30
0.0
 10
-16.00177950988844
 20
41.10550129180696
 30
0.0
 10
-16.00177950988844
 20
41.61365287588131
 30
0.0
 10
-16.00177950988844
 20
42.16383462487571
 30
0.0
 10
-16.46755641949422
 20
42.58723686001291
 30
0.0
 10
-17.01773816848862
 20
42.58723686001291
 30
0.0
 10
-17.56826442703155
 20
42.58723686001291
 30
0.0
 10
-17.99166666216875
 20
42.16383462487571
 30
0.0
 10
-17.99166666216875
 20
41.61365287588131
 30
0.0
 10
-17.99166666216875
 20
41.10550129180696
 30
0.0
 10
-17.56826442703155
 20
40.64006889174971
 30
0.0
 10
-17.01773816848862
 20
40.64006889174971
 30
0.0
  0
SPLINE
  5
C6
330
1F
100
AcDbEntity
  8
LAYER_1
 62
     7
100
AcDbSpline
210
0.0
220
0.0
230
1.0
 70
    11
 71
     3
 72
    17
 73
    13
 74
     0
 42
0.0000000001
 43
0.0000000001
 40
0.0
 40
0.0
 40
0.0
 40
0.0
 40
1.0
 40
1.0
 40
1.0
 40
2.0
 40
2.0
 40
2.0
 40
3.0
 40
3.0
 40
3.0
 40
4.0
 40
4.0
 40
4.0
 40
4.0
 10
-14.47801377676244
 20
42.58723686001291
 30
0.0
 10
-15.02819552575684
 20
42.58723686001291
 30
0.0
 10
-15.45159776089405
 20
42.16383462487571
 30
0.0
 10
-15.45159776089405
 20
41.61365287588131
 30
0.0
 10
-15.45159776089405
 20
41.10550129180696
 30
0.0
 10
-15.02819552575684
 20
40.64006889174971
 30
0.0
 10
-14.47801377676244
 20
40.64006889174971
 30
0.0
 10
-13.96986219268809
 20
40.64006889174971
 30
0.0
 10
-13.50408528308231
 20
41.10550129180696
 30
0.0
 10
-13.50408528308231
 20
41.61365287588131
 30
0.0
 10
-13.50408528308231
 20
42.16383462487571
 30
0.0
 10
-13.96986219268809
 20
42.58723686001291
 30
0.0
 10
-14.47801377676244
 20
42.58723686001291
 30
0.0
  0
SPLINE
  5
C7
330
1F
100
AcDbEntity
  8
LAYER_1
 62
     7
100
AcDbSpline
210
0.0
220
0.0
230
1.0
 70
    11
 71
     3
 72
    17
 73
    13
 74
     0
 42
0.0000000001
 43
0.0000000001
 40
0.0
 40
0.0
 40
0.0
 40
0.0
 40
1.0
 40
1.0
 40
1.0
 40
2.0
 40
2.0
 40
2.0
 40
3.0
 40
3.0
 40
3.0
 40
4.0
 40
4.0
 40
4.0
 40
4.0
 10
-33.01986218792559
 20
42.58723686001291
 30
0.0
 10
-33.57004393691999
 20
42.58723686001291
 30
0.0
 10
-33.9934461720572
 20
42.16383462487571
 30
0.0
 10
-33.9934461720572
 20
41.61365287588131
 30
0.0
 10
-33.9934461720572
 20
41.10550129180696
 30
0.0
 10
-33.57004393691999
 20
40.64006889174971
 30
0.0
 10
-33.01986218792559
 20
40.64006889174971
 30
0.0
 10
-32.51171060385124
 20
40.64006889174971
 30
0.0
 10
-32.04627820379399
 20
41.10550129180696
 30
0.0
 10
-32.04627820379399
 20
41.61365287588131
 30
0.0
 10
-32.04627820379399
 20
42.16383462487571
 30
0.0
 10
-32.51171060385124
 20
42.58723686001291
 30
0.0
 10
-33.01986218792559
 20
42.58723686001291
 30
0.0
  0
SPLINE
  5
C8
330
1F
100
AcDbEntity
  8
LAYER_1
 62
     7
100
AcDbSpline
210
0.0
220
0.0
230
1.0
 70
    11
 71
     3
 72
    17
 73
    13
 74
     0
 42
0.0000000001
 43
0.0000000001
 40
0.0
 40
0.0
 40
0.0
 40
0.0
 40
1.0
 40
1.0
 40
1.0
 40
2.0
 40
2.0
 40
2.0
 40
3.0
 40
3.0
 40
3.0
 40
4.0
 40
4.0
 40
4.0
 40
4.0
 10
-30.47979328665089
 20
42.58723686001291
 30
0.0
 10
-31.03031954519381
 20
42.58723686001291
 30
0.0
 10
-31.45337727078249
 20
42.16383462487571
 30
0.0
 10
-31.45337727078249
 20
41.61365287588131
 30
0.0
 10
-31.45337727078249
 20
41.10550129180696
 30
0.0
 10
-31.03031954519381
 20
40.64006889174971
 30
0.0
 10
-30.47979328665089
 20
40.64006889174971
 30
0.0
 10
-29.97198621212506
 20
40.64006889174971
 30
0.0
 10
-29.50620930251928
 20
41.10550129180696
 30
0.0
 10
-29.50620930251928
 20
41.61365287588131
 30
0.0
 10
-29.50620930251928
 20
42.16383462487571
 30
0.0
 10
-29.97198621212506
 20
42.58723686001291
 30
0.0
 10
-30.47979328665089
 20
42.58723686001291
 30
0.0
  0
SPLINE
  5
C9
330
1F
100
AcDbEntity
  8
LAYER_1
 62
     7
100
AcDbSpline
210
0.0
220
0.0
230
1.0
 70
    11
 71
     3
 72
    17
 73
    13
 74
     0
 42
0.0000000001
 43
0.0000000001
 40
0.0
 40
0.0
 40
0.0
 40
0.0
 40
1.0
 40
1.0
 40
1.0
 40
2.0
 40
2.0
 40
2.0
 40
3.0
 40
3.0
 40
3.0
 40
4.0
 40
4.0
 40
4.0
 40
4.0
 10
-27.93972438537618
 20
42.58723686001291
 30
0.0
 10
-28.4902506439191
 20
42.58723686001291
 30
0.0
 10
-28.91365287905631
 20
42.16383462487571
 30
0.0
 10
-28.91365287905631
 20
41.61365287588131
 30
0.0
 10
-28.91365287905631
 20
41.10550129180696
 30
0.0
 10
-28.4902506439191
 20
40.64006889174971
 30
0.0
 10
-27.93972438537618
 20
40.64006889174971
 30
0.0
 10
-27.43191731085036
 20
40.64006889174971
 30
0.0
 10
-26.96614040124458
 20
41.10550129180696
 30
0.0
 10
-26.96614040124458
 20
41.61365287588131
 30
0.0
 10
-26.96614040124458
 20
42.16383462487571
 30
0.0
 10
-27.43191731085036
 20
42.58723686001291
 30
0.0
 10
-27.93972438537618
 20
42.58723686001291
 30
0.0
  0
SPLINE
  5
CA
330
1F
100
AcDbEntity
  8
LAYER_1
 62
     7
100
AcDbSpline
210
0.0
220
0.0
230
1.0
 70
    11
 71
     3
 72
    17
 73
    13
 74
     0
 42
0.0000000001
 43
0.0000000001
 40
0.0
 40
0.0
 40
0.0
 40
0.0
 40
1.0
 40
1.0
 40
1.0
 40
2.0
 40
2.0
 40
2.0
 40
3.0
 40
3.0
 40
3.0
 40
4.0
 40
4.0
 40
4.0
 40
4.0
 10
-25.39999999365
 20
42.58723686001291
 30
0.0
 10
-25.9501817426444
 20
42.58723686001291
 30
0.0
 10
-26.37358397778161
 20
42.16383462487571
 30
0.0
 10
-26.37358397778161
 20
41.61365287588131
 30
0.0
 10
-26.37358397778161
 20
41.10550129180696
 30
0.0
 10
-25.9501817426444
 20
40.64006889174971
 30
0.0
 10
-25.39999999365
 20
40.64006889174971
 30
0.0
 10
-24.89184840957565
 20
40.64006889174971
 30
0.0
 10
-24.42607149996987
 20
41.10550129180696
 30
0.0
 10
-24.42607149996987
 20
41.61365287588131
 30
0.0
 10
-24.42607149996987
 20
42.16383462487571
 30
0.0
 10
-24.89184840957565
 20
42.58723686001291
 30
0.0
 10
-25.39999999365
 20
42.58723686001291
 30
0.0
  0
POLYLINE
  5
CB
330
1F
100
AcDbEntity
  8
LAYER_1
 62
     7
100
AcDb2dPolyline
 66
     1
 10
0.0
 20
0.0
 30
0.0
  0
VERTEX
  5
CC
330
CB
100
AcDbEntity
  8
LAYER_1
 62
     7
100
AcDbVertex
100
AcDb2dVertex
 10
-42.8835150717444
 20
40.64006889174971
 30
0.0
  0
VERTEX
  5
CD
330
CB
100
AcDbEntity
  8
LAYER_1
 62
     7
100
AcDbVertex
100
AcDb2dVertex
 10
-42.84114039727583
 20
40.64006889174971
 30
0.0
  0
VERTEX
  5
CE
330
CB
100
AcDbEntity
  8
LAYER_1
 62
     7
100
AcDbVertex
100
AcDb2dVertex
 10
-40.93634710348119
 20
40.64006889174971
 30
0.0
  0
VERTEX
  5
CF
330
CB
100
AcDbEntity
  8
LAYER_1
 62
     7
100
AcDbVertex
100
AcDb2dVertex
 10
-40.93634710348119
 20
42.54486218554434
 30
0.0
  0
VERTEX
  5
D0
330
CB
100
AcDbEntity
  8
LAYER_1
 62
     7
100
AcDbVertex
100
AcDb2dVertex
 10
-40.93634710348119
 20
42.58723686001291
 30
0.0
  0
VERTEX
  5
D1
330
CB
100
AcDbEntity
  8
LAYER_1
 62
     7
100
AcDbVertex
100
AcDb2dVertex
 10
-42.8835150717444
 20
42.58723686001291
 30
0.0
  0
VERTEX
  5
D2
330
CB
100
AcDbEntity
  8
LAYER_1
 62
     7
100
AcDbVertex
100
AcDb2dVertex
 10
-42.8835150717444
 20
40.64006889174971
 30
0.0
  0
SEQEND
  5
D3
330
CB
100
AcDbEntity
  8
LAYER_1
  0
SPLINE
  5
D4
330
1F
100
AcDbEntity
  8
LAYER_1
 62
     7
100
AcDbSpline
210
0.0
220
0.0
230
1.0
 70
    11
 71
     3
 72
    17
 73
    13
 74
     0
 42
0.0000000001
 43
0.0000000001
 40
0.0
 40
0.0
 40
0.0
 40
0.0
 40
1.0
 40
1.0
 40
1.0
 40
2.0
 40
2.0
 40
2.0
 40
3.0
 40
3.0
 40
3.0
 40
4.0
 40
4.0
 40
4.0
 40
4.0
 10
-38.39627820220649
 20
41.61365287588131
 30
0.0
 10
-38.39627820220649
 20
42.16383462487571
 30
0.0
 10
-38.86171060226374
 20
42.58723686001291
 30
0.0
 10
-39.36986218633809
 20
42.58723686001291
 30
0.0
 10
-39.92004393533249
 20
42.58723686001291
 30
0.0
 10
-40.3434461704697
 20
42.16383462487571
 30
0.0
 10
-40.3434461704697
 20
41.61365287588131
 30
0.0
 10
-40.3434461704697
 20
41.10550129180696
 30
0.0
 10
-39.92004393533249
 20
40.64006889174971
 30
0.0
 10
-39.36986218633809
 20
40.64006889174971
 30
0.0
 10
-38.86171060226374
 20
40.64006889174971
 30
0.0
 10
-38.39627820220649
 20
41.10550129180696
 30
0.0
 10
-38.39627820220649
 20
41.61365287588131
 30
0.0
  0
SPLINE
  5
D5
330
1F
100
AcDbEntity
  8
LAYER_1
 62
     7
100
AcDbSpline
210
0.0
220
0.0
230
1.0
 70
    11
 71
     3
 72
    17
 73
    13
 74
     0
 42
0.0000000001
 43
0.0000000001
 40
0.0
 40
0.0
 40
0.0
 40
0.0
 40
1.0
 40
1.0
 40
1.0
 40
2.0
 40
2.0
 40
2.0
 40
3.0
 40
3.0
 40
3.0
 40
4.0
 40
4.0
 40
4.0
 40
4.0
 10
-36.82979328506339
 20
42.58723686001291
 30
0.0
 10
-37.38031954360631
 20
42.58723686001291
 30
0.0
 10
-37.80337726919499
 20
42.16383462487571
 30
0.0
 10
-37.80337726919499
 20
41.61365287588131
 30
0.0
 10
-37.80337726919499
 20
41.10550129180696
 30
0.0
 10
-37.38031954360631
 20
40.64006889174971
 30
0.0
 10
-36.82979328506339
 20
40.64006889174971
 30
0.0
 10
-36.32198621053756
 20
40.64006889174971
 30
0.0
 10
-35.85620930093178
 20
41.10550129180696
 30
0.0
 10
-35.85620930093178
 20
41.61365287588131
 30
0.0
 10
-35.85620930093178
 20
42.16383462487571
 30
0.0
 10
-36.32198621053756
 20
42.58723686001291
 30
0.0
 10
-36.82979328506339
 20
42.58723686001291
 30
0.0
  0
POLYLINE
  5
D6
330
1F
100
AcDbEntity
  8
LAYER_1
 62
     7
100
AcDb2dPolyline
 66
     1
 10
0.0
 20
0.0
 30
0.0
  0
VERTEX
  5
D7
330
D6
100
AcDbEntity
  8
LAYER_1
 62
     7
100
AcDbVertex
100
AcDb2dVertex
 10
-50.12252196012562
 20
42.71436088341864
 30
0.0
  0
VERTEX
  5
D8
330
D6
100
AcDbEntity
  8
LAYER_1
 62
     7
100
AcDbVertex
100
AcDb2dVertex
 10
-50.12252196012562
 20
42.7567355578872
 30
0.0
  0
VERTEX
  5
D9
330
D6
100
AcDbEntity
  8
LAYER_1
 62
     7
100
AcDbVertex
100
AcDb2dVertex
 10
-52.11223685763166
 20
42.7567355578872
 30
0.0
  0
VERTEX
  5
DA
330
D6
100
AcDbEntity
  8
LAYER_1
 62
     7
100
AcDbVertex
100
AcDb2dVertex
 10
-52.11223685763166
 20
40.76719291515543
 30
0.0
  0
VERTEX
  5
DB
330
D6
100
AcDbEntity
  8
LAYER_1
 62
     7
100
AcDbVertex
100
AcDb2dVertex
 10
-52.0698621831631
 20
40.76719291515543
 30
0.0
  0
VERTEX
  5
DC
330
D6
100
AcDbEntity
  8
LAYER_1
 62
     7
100
AcDbVertex
100
AcDb2dVertex
 10
-50.12252196012562
 20
40.76719291515543
 30
0.0
  0
VERTEX
  5
DD
330
D6
100
AcDbEntity
  8
LAYER_1
 62
     7
100
AcDbVertex
100
AcDb2dVertex
 10
-50.12252196012562
 20
42.71436088341864
 30
0.0
  0
SEQEND
  5
DE
330
D6
100
AcDbEntity
  8
LAYER_1
  0
SPLINE
  5
DF
330
1F
100
AcDbEntity
  8
LAYER_1
 62
     7
100
AcDbSpline
210
0.0
220
0.0
230
1.0
 70
    11
 71
     3
 72
    17
 73
    13
 74
     0
 42
0.0000000001
 43
0.0000000001
 40
0.0
 40
0.0
 40
0.0
 40
0.0
 40
1.0
 40
1.0
 40
1.0
 40
2.0
 40
2.0
 40
2.0
 40
3.0
 40
3.0
 40
3.0
 40
4.0
 40
4.0
 40
4.0
 40
4.0
 10
-47.58262531362518
 20
41.78280706420708
 30
0.0
 10
-47.58262531362518
 20
42.33333332275
 30
0.0
 10
-48.0482299684567
 20
42.7567355578872
 30
0.0
 10
-48.59858397222536
 20
42.7567355578872
 30
0.0
 10
-49.14893797599402
 20
42.7567355578872
 30
0.0
 10
-49.57216795635696
 20
42.33333332275
 30
0.0
 10
-49.57216795635696
 20
41.78280706420708
 30
0.0
 10
-49.57216795635696
 20
41.23262531521268
 30
0.0
 10
-49.14893797599402
 20
40.76719291515543
 30
0.0
 10
-48.59858397222536
 20
40.76719291515543
 30
0.0
 10
-48.0482299684567
 20
40.76719291515543
 30
0.0
 10
-47.58262531362518
 20
41.23262531521268
 30
0.0
 10
-47.58262531362518
 20
41.78280706420708
 30
0.0
  0
SPLINE
  5
E0
330
1F
100
AcDbEntity
  8
LAYER_1
 62
     7
100
AcDbSpline
210
0.0
220
0.0
230
1.0
 70
    11
 71
     3
 72
    17
 73
    13
 74
     0
 42
0.0000000001
 43
0.0000000001
 40
0.0
 40
0.0
 40
0.0
 40
0.0
 40
1.0
 40
1.0
 40
1.0
 40
2.0
 40
2.0
 40
2.0
 40
3.0
 40
3.0
 40
3.0
 40
4.0
 40
4.0
 40
4.0
 40
4.0
 10
-46.05851507095065
 20
40.76719291515543
 30
0.0
 10
-45.50816106718199
 20
40.76719291515543
 30
0.0
 10
-45.04255641235047
 20
41.23262531521268
 30
0.0
 10
-45.04255641235047
 20
41.78280706420708
 30
0.0
 10
-45.04255641235047
 20
42.33333332275
 30
0.0
 10
-45.50816106718199
 20
42.7567355578872
 30
0.0
 10
-46.05851507095065
 20
42.7567355578872
 30
0.0
 10
-46.60886907471932
 20
42.7567355578872
 30
0.0
 10
-47.03227130985652
 20
42.33333332275
 30
0.0
 10
-47.03227130985652
 20
41.78280706420708
 30
0.0
 10
-47.03227130985652
 20
41.23262531521268
 30
0.0
 10
-46.60886907471932
 20
40.76719291515543
 30
0.0
 10
-46.05851507095065
 20
40.76719291515543
 30
0.0
  0
POLYLINE
  5
E1
330
1F
100
AcDbEntity
  8
LAYER_1
 62
     7
100
AcDb2dPolyline
 66
     1
 10
0.0
 20
0.0
 30
0.0
  0
VERTEX
  5
E2
330
E1
100
AcDbEntity
  8
LAYER_1
 62
     7
100
AcDbVertex
100
AcDb2dVertex
 10
-58.92784151087568
 20
45.38155380809906
 30
0.0
  0
VERTEX
  5
E3
330
E1
100
AcDbEntity
  8
LAYER_1
 62
     7
100
AcDbVertex
100
AcDb2dVertex
 10
-58.88546683640711
 20
45.38155380809906
 30
0.0
  0
VERTEX
  5
E4
330
E1
100
AcDbEntity
  8
LAYER_1
 62
     7
100
AcDbVertex
100
AcDb2dVertex
 10
-56.98050128783821
 20
45.38155380809906
 30
0.0
  0
VERTEX
  5
E5
330
E1
100
AcDbEntity
  8
LAYER_1
 62
     7
100
AcDbVertex
100
AcDb2dVertex
 10
-56.98050128783821
 20
47.2863471018937
 30
0.0
  0
VERTEX
  5
E6
330
E1
100
AcDbEntity
  8
LAYER_1
 62
     7
100
AcDbVertex
100
AcDb2dVertex
 10
-56.98050128783821
 20
47.32872177636226
 30
0.0
  0
VERTEX
  5
E7
330
E1
100
AcDbEntity
  8
LAYER_1
 62
     7
100
AcDbVertex
100
AcDb2dVertex
 10
-58.92784151087568
 20
47.32872177636226
 30
0.0
  0
VERTEX
  5
E8
330
E1
100
AcDbEntity
  8
LAYER_1
 62
     7
100
AcDbVertex
100
AcDb2dVertex
 10
-58.92784151087568
 20
45.38155380809906
 30
0.0
  0
SEQEND
  5
E9
330
E1
100
AcDbEntity
  8
LAYER_1
  0
SPLINE
  5
EA
330
1F
100
AcDbEntity
  8
LAYER_1
 62
     7
100
AcDbSpline
210
0.0
220
0.0
230
1.0
 70
    11
 71
     3
 72
    17
 73
    13
 74
     0
 42
0.0000000001
 43
0.0000000001
 40
0.0
 40
0.0
 40
0.0
 40
0.0
 40
1.0
 40
1.0
 40
1.0
 40
2.0
 40
2.0
 40
2.0
 40
3.0
 40
3.0
 40
3.0
 40
4.0
 40
4.0
 40
4.0
 40
4.0
 10
-56.38794486437524
 20
46.35513779223066
 30
0.0
 10
-56.38794486437524
 20
45.84698620815631
 30
0.0
 10
-55.96454262923803
 20
45.38155380809906
 30
0.0
 10
-55.41418862546937
 20
45.38155380809906
 30
0.0
 10
-54.90620929616929
 20
45.38155380809906
 30
0.0
 10
-54.44060464133777
 20
45.84698620815631
 30
0.0
 10
-54.44060464133777
 20
46.35513779223066
 30
0.0
 10
-54.44060464133777
 20
46.90531954122506
 30
0.0
 10
-54.90620929616929
 20
47.32872177636226
 30
0.0
 10
-55.41418862546937
 20
47.32872177636226
 30
0.0
 10
-55.96454262923803
 20
47.32872177636226
 30
0.0
 10
-56.38794486437524
 20
46.90531954122506
 30
0.0
 10
-56.38794486437524
 20
46.35513779223066
 30
0.0
  0
SPLINE
  5
EB
330
1F
100
AcDbEntity
  8
LAYER_1
 62
     7
100
AcDbSpline
210
0.0
220
0.0
230
1.0
 70
    11
 71
     3
 72
    17
 73
    13
 74
     0
 42
0.0000000001
 43
0.0000000001
 40
0.0
 40
0.0
 40
0.0
 40
0.0
 40
1.0
 40
1.0
 40
1.0
 40
2.0
 40
2.0
 40
2.0
 40
3.0
 40
3.0
 40
3.0
 40
4.0
 40
4.0
 40
4.0
 40
4.0
 10
-52.87429197896893
 20
47.32872177636226
 30
0.0
 10
-53.42447372796333
 20
47.32872177636226
 30
0.0
 10
-53.84787596310053
 20
46.90531954122506
 30
0.0
 10
-53.84787596310053
 20
46.35513779223066
 30
0.0
 10
-53.84787596310053
 20
45.84698620815631
 30
0.0
 10
-53.42447372796333
 20
45.38155380809906
 30
0.0
 10
-52.87429197896893
 20
45.38155380809906
 30
0.0
 10
-52.36614039489458
 20
45.38155380809906
 30
0.0
 10
-51.90053574006306
 20
45.84698620815631
 30
0.0
 10
-51.90053574006306
 20
46.35513779223066
 30
0.0
 10
-51.90053574006306
 20
46.90531954122506
 30
0.0
 10
-52.36614039489458
 20
47.32872177636226
 30
0.0
 10
-52.87429197896893
 20
47.32872177636226
 30
0.0
  0
SPLINE
  5
EC
330
1F
100
AcDbEntity
  8
LAYER_1
 62
     7
100
AcDbSpline
210
0.0
220
0.0
230
1.0
 70
    11
 71
     3
 72
    17
 73
    13
 74
     0
 42
0.0000000001
 43
0.0000000001
 40
0.0
 40
0.0
 40
0.0
 40
0.0
 40
1.0
 40
1.0
 40
1.0
 40
2.0
 40
2.0
 40
2.0
 40
3.0
 40
3.0
 40
3.0
 40
4.0
 40
4.0
 40
4.0
 40
4.0
 10
-50.33422307769423
 20
47.32872177636226
 30
0.0
 10
-50.88457708146289
 20
47.32872177636226
 30
0.0
 10
-51.30780706182583
 20
46.90531954122506
 30
0.0
 10
-51.30780706182583
 20
46.35513779223066
 30
0.0
 10
-51.30780706182583
 20
45.84698620815631
 30
0.0
 10
-50.88457708146289
 20
45.38155380809906
 30
0.0
 10
-50.33422307769423
 20
45.38155380809906
 30
0.0
 10
-49.82624374839413
 20
45.38155380809906
 30
0.0
 10
-49.36063909356262
 20
45.84698620815631
 30
0.0
 10
-49.36063909356262
 20
46.35513779223066
 30
0.0
 10
-49.36063909356262
 20
46.90531954122506
 30
0.0
 10
-49.82624374839413
 20
47.32872177636226
 30
0.0
 10
-50.33422307769423
 20
47.32872177636226
 30
0.0
  0
POLYLINE
  5
ED
330
1F
100
AcDbEntity
  8
LAYER_1
 62
     7
100
AcDb2dPolyline
 66
     1
 10
0.0
 20
0.0
 30
0.0
  0
VERTEX
  5
EE
330
ED
100
AcDbEntity
  8
LAYER_1
 62
     7
100
AcDbVertex
100
AcDb2dVertex
 10
-9.397875974213031
 20
4.910639104675118
 30
0.0
  0
VERTEX
  5
EF
330
ED
100
AcDbEntity
  8
LAYER_1
 62
     7
100
AcDbVertex
100
AcDb2dVertex
 10
-9.355501299744459
 20
4.910639104675118
 30
0.0
  0
VERTEX
  5
F0
330
ED
100
AcDbEntity
  8
LAYER_1
 62
     7
100
AcDbVertex
100
AcDb2dVertex
 10
-7.450708005949823
 20
4.910639104675118
 30
0.0
  0
VERTEX
  5
F1
330
ED
100
AcDbEntity
  8
LAYER_1
 62
     7
100
AcDbVertex
100
AcDb2dVertex
 10
-7.450708005949823
 20
6.815776908018278
 30
0.0
  0
VERTEX
  5
F2
330
ED
100
AcDbEntity
  8
LAYER_1
 62
     7
100
AcDbVertex
100
AcDb2dVertex
 10
-7.450708005949823
 20
6.857807072938327
 30
0.0
  0
VERTEX
  5
F3
330
ED
100
AcDbEntity
  8
LAYER_1
 62
     7
100
AcDbVertex
100
AcDb2dVertex
 10
-9.397875974213031
 20
6.857807072938327
 30
0.0
  0
VERTEX
  5
F4
330
ED
100
AcDbEntity
  8
LAYER_1
 62
     7
100
AcDbVertex
100
AcDb2dVertex
 10
-9.397875974213031
 20
4.910639104675118
 30
0.0
  0
SEQEND
  5
F5
330
ED
100
AcDbEntity
  8
LAYER_1
  0
SPLINE
  5
F6
330
1F
100
AcDbEntity
  8
LAYER_1
 62
     7
100
AcDbSpline
210
0.0
220
0.0
230
1.0
 70
    11
 71
     3
 72
    17
 73
    13
 74
     0
 42
0.0000000001
 43
0.0000000001
 40
0.0
 40
0.0
 40
0.0
 40
0.0
 40
1.0
 40
1.0
 40
1.0
 40
2.0
 40
2.0
 40
2.0
 40
3.0
 40
3.0
 40
3.0
 40
4.0
 40
4.0
 40
4.0
 40
4.0
 10
-5.884223088806722
 20
6.857807072938327
 30
0.0
 10
-6.434404837801122
 20
6.857807072938327
 30
0.0
 10
-6.857807072938327
 20
6.434749347349646
 30
0.0
 10
-6.857807072938327
 20
5.884223088806722
 30
0.0
 10
-6.857807072938327
 20
5.376416014280896
 30
0.0
 10
-6.434404837801122
 20
4.910639104675118
 30
0.0
 10
-5.884223088806722
 20
4.910639104675118
 30
0.0
 10
-5.376071504732371
 20
4.910639104675118
 30
0.0
 10
-4.910639104675118
 20
5.376416014280896
 30
0.0
 10
-4.910639104675118
 20
5.884223088806722
 30
0.0
 10
-4.910639104675118
 20
6.434749347349646
 30
0.0
 10
-5.376071504732371
 20
6.857807072938327
 30
0.0
 10
-5.884223088806722
 20
6.857807072938327
 30
0.0
  0
ENDSEC
  0
SECTION
  2
OBJECTS
  0
DICTIONARY
  5
C
330
0
100
AcDbDictionary
  3
ACAD_GROUP
350
D
  3
ACAD_LAYOUT
350
1A
  3
ACAD_MLINESTYLE
350
17
  3
ACAD_PLOTSETTINGS
350
19
  3
ACAD_TABLESTYLE
350
F7
  3
ACAD_VISUALSTYLE
350
2A
1001
ACAD
1000
TREAT_AS_HARD
1070
     0
  0
DICTIONARY
  5
D
102
{ACAD_REACTORS
330
C
102
}
330
C
100
AcDbDictionary
1001
ACAD
1000
TREAT_AS_HARD
1070
     0
  0
DICTIONARY
  5
1A
102
{ACAD_REACTORS
330
C
102
}
330
C
100
AcDbDictionary
1001
ACAD
1000
TREAT_AS_HARD
1070
     0
  0
DICTIONARY
  5
17
102
{ACAD_REACTORS
330
C
102
}
330
C
100
AcDbDictionary
  3
STANDARD
350
18
1001
ACAD
1000
TREAT_AS_HARD
1070
     0
  0
DICTIONARY
  5
19
102
{ACAD_REACTORS
330
C
102
}
330
C
100
AcDbDictionary
1001
ACAD
1000
TREAT_AS_HARD
1070
     0
  0
DICTIONARY
  5
F7
102
{ACAD_REACTORS
330
C
102
}
330
C
100
AcDbDictionary
1001
ACAD
1000
TREAT_AS_HARD
1070
     0
  0
DICTIONARY
  5
2A
102
{ACAD_REACTORS
330
C
102
}
330
C
100
AcDbDictionary
  3
2DWIREFRAME
350
2F
  3
3D_HIDDEN
350
31
  3
3DWIREFRAME
350
30
  3
BASIC
350
32
  3
BRIGHTEN
350
36
  3
COLORCHANGE
350
3A
  3
CONCEPTUAL
350
34
  3
DIM
350
35
  3
FACEPATTERN
350
39
  3
FLAT
350
2B
  3
FLATWITHEDGES
350
2C
  3
GOURAUD
350
2D
  3
GOURAUDWITHEDGES
350
2E
  3
LINEPATTERN
350
38
  3
REALISTIC
350
33
  3
THICKEN
350
37
1001
ACAD
1000
TREAT_AS_HARD
1070
     0
  0
MLINESTYLE
  5
18
102
{ACAD_REACTORS
330
17
102
}
330
17
100
AcDbMlineStyle
  2
Standard
 70
     0
  3

 62
   256
 51
90.0
 52
90.0
 71
     2
 49
0.5
 62
   256
  6
BYLAYER
 49
-0.5
 62
   256
  6
BYLAYER
  0
VISUALSTYLE
  5
2F
102
{ACAD_REACTORS
330
2A
102
}
330
2A
100
AcDbVisualStyle
  2
2dWireframe
 70
     4
 71
     0
 72
     2
 73
     0
 90
        0
 40
-0.6
 41
-30.0
 62
     5
 63
     7
 74
     1
 91
        4
 64
     7
 65
   257
 75
     1
175
     1
 42
1.0
 92
        0
 66
   257
 43
1.0
 76
     1
 77
     6
 78
     2
 67
     7
 79
     5
170
     0
171
     0
290
     0
174
     0
 93
        1
 44
0.0
173
     0
291
     0
 45
0.0
1001
ACAD
1000
AcDbSavedByObjectVersion
1070
     0
  0
VISUALSTYLE
  5
31
102
{ACAD_REACTORS
330
2A
102
}
330
2A
100
AcDbVisualStyle
  2
3D Hidden
 70
     6
 71
     1
 72
     2
 73
     2
 90
        0
 40
-0.6
 41
-30.0
 62
     5
 63
     7
 74
     2
 91
        2
 64
     7
 65
   257
 75
     2
175
     1
 42
40.0
 92
        0
 66
   257
 43
1.0
 76
     1
 77
     6
 78
     2
 67
     7
 79
     3
170
     0
171
     0
290
     0
174
     0
 93
        1
 44
0.0
173
     0
291
     0
 45
0.0
1001
ACAD
1000
AcDbSavedByObjectVersion
1070
     0
  0
VISUALSTYLE
  5
30
102
{ACAD_REACTORS
330
2A
102
}
330
2A
100
AcDbVisualStyle
  2
3dWireframe
 70
     5
 71
     0
 72
     2
 73
     0
 90
        0
 40
-0.6
 41
-30.0
 62
     5
 63
     7
 74
     1
 91
        4
 64
     7
 65
   257
 75
     1
175
     1
 42
1.0
 92
        0
 66
   257
 43
1.0
 76
     1
 77
     6
 78
     2
 67
     7
 79
     5
170
     0
171
     0
290
     0
174
     0
 93
        1
 44
0.0
173
     0
291
     0
 45
0.0
1001
ACAD
1000
AcDbSavedByObjectVersion
1070
     0
  0
VISUALSTYLE
  5
32
102
{ACAD_REACTORS
330
2A
102
}
330
2A
100
AcDbVisualStyle
  2
Basic
 70
     7
 71
     1
 72
     0
 73
     1
 90
        0
 40
-0.6
 41
-30.0
 62
     5
 63
     7
 74
     0
 91
        4
 64
     7
 65
   257
 75
     1
175
     1
 42
1.0
 92
        8
 66
     7
 43
1.0
 76
     1
 77
     6
 78
     2
 67
     7
 79
     5
170
     0
171
     0
290
     0
174
     0
 93
        1
 44
0.0
173
     0
291
     1
 45
0.0
1001
ACAD
1000
AcDbSavedByObjectVersion
1070
     0
  0
VISUALSTYLE
  5
36
102
{ACAD_REACTORS
330
2A
102
}
330
2A
100
AcDbVisualStyle
  2
Brighten
 70
    12
 71
     2
 72
     2
 73
     0
 90
        0
 40
-0.6
 41
-30.0
 62
     5
 63
     7
 74
     1
 91
        4
 64
     7
 65
   257
 75
     1
175
     1
 42
1.0
 92
        8
 66
     7
 43
1.0
 76
     1
 77
     6
 78
     2
 67
     7
 79
     5
170
     0
171
     0
290
     0
174
     0
 93
        1
 44
50.0
173
     0
291
     1
 45
0.0
1001
ACAD
1000
AcDbSavedByObjectVersion
1070
     0
  0
VISUALSTYLE
  5
3A
102
{ACAD_REACTORS
330
2A
102
}
330
2A
100
AcDbVisualStyle
  2
ColorChange
 70
    16
 71
     2
 72
     2
 73
     3
 90
        0
 40
-0.6
 41
-30.0
 62
     5
 63
     8
 74
     1
 91
        4
 64
     7
 65
   257
 75
     1
175
     1
 42
1.0
 92
        8
 66
     8
 43
1.0
 76
     1
 77
     6
 78
     2
 67
     7
 79
     5
170
     0
171
     0
290
     0
174
     0
 93
        1
 44
0.0
173
     0
291
     1
 45
0.0
1001
ACAD
1000
AcDbSavedByObjectVersion
1070
     0
  0
VISUALSTYLE
  5
34
102
{ACAD_REACTORS
330
2A
102
}
330
2A
100
AcDbVisualStyle
  2
Conceptual
 70
     9
 71
     3
 72
     2
 73
     0
 90
        0
 40
-0.6
 41
-30.0
 62
     5
 63
     7
 74
     2
 91
        2
 64
     7
 65
   257
 75
     1
175
     1
 42
40.0
 92
        8
 66
     7
 43
1.0
 76
     1
 77
     6
 78
     2
 67
     7
 79
     3
170
     0
171
     0
290
     0
174
     0
 93
        1
 44
0.0
173
     0
291
     0
 45
0.0
1001
ACAD
1000
AcDbSavedByObjectVersion
1070
     0
  0
VISUALSTYLE
  5
35
102
{ACAD_REACTORS
330
2A
102
}
330
2A
100
AcDbVisualStyle
  2
Dim
 70
    11
 71
     2
 72
     2
 73
     0
 90
        0
 40
-0.6
 41
-30.0
 62
     5
 63
     7
 74
     1
 91
        4
 64
     7
 65
   257
 75
     1
175
     1
 42
1.0
 92
        8
 66
     7
 43
1.0
 76
     1
 77
     6
 78
     2
 67
     7
 79
     5
170
     0
171
     0
290
     0
174
     0
 93
        1
 44
-50.0
173
     0
291
     1
 45
0.0
1001
ACAD
1000
AcDbSavedByObjectVersion
1070
     0
  0
VISUALSTYLE
  5
39
102
{ACAD_REACTORS
330
2A
102
}
330
2A
100
AcDbVisualStyle
  2
Facepattern
 70
    15
 71
     2
 72
     2
 73
     0
 90
        0
 40
-0.6
 41
-30.0
 62
     5
 63
     7
 74
     1
 91
        4
 64
     7
 65
   257
 75
     1
175
     1
 42
1.0
 92
        8
 66
     7
 43
1.0
 76
     1
 77
     6
 78
     2
 67
     7
 79
     5
170
     0
171
     0
290
     0
174
     0
 93
        1
 44
0.0
173
     0
291
     1
 45
0.0
1001
ACAD
1000
AcDbSavedByObjectVersion
1070
     0
  0
VISUALSTYLE
  5
2B
102
{ACAD_REACTORS
330
2A
102
}
330
2A
100
AcDbVisualStyle
  2
Flat
 70
     0
 71
     2
 72
     1
 73
     1
 90
        2
 40
-0.6
 41
30.0
 62
     5
 63
     7
 74
     0
 91
        4
 64
     7
 65
   257
 75
     1
175
     1
 42
1.0
 92
        8
 66
     7
 43
1.0
 76
     1
 77
     6
 78
     2
 67
     7
 79
     5
170
     0
171
     0
290
     0
174
     0
 93
       13
 44
0.0
173
     0
291
     1
 45
0.0
1001
ACAD
1000
AcDbSavedByObjectVersion
1070
     0
  0
VISUALSTYLE
  5
2C
102
{ACAD_REACTORS
330
2A
102
}
330
2A
100
AcDbVisualStyle
  2
FlatWithEdges
 70
     1
 71
     2
 72
     1
 73
     1
 90
        2
 40
-0.6
 41
30.0
 62
     5
 63
     7
 74
     1
 91
        4
 64
     7
 65
   257
 75
     1
175
     1
 42
1.0
 92
        0
 66
   257
 43
1.0
 76
     1
 77
     6
 78
     2
 67
     7
 79
     5
170
     0
171
     0
290
     0
174
     0
 93
       13
 44
0.0
173
     0
291
     1
 45
0.0
1001
ACAD
1000
AcDbSavedByObjectVersion
1070
     0
  0
VISUALSTYLE
  5
2D
102
{ACAD_REACTORS
330
2A
102
}
330
2A
100
AcDbVisualStyle
  2
Gouraud
 70
     2
 71
     2
 72
     2
 73
     1
 90
        2
 40
-0.6
 41
30.0
 62
     5
 63
     7
 74
     0
 91
        4
 64
     7
 65
   257
 75
     1
175
     1
 42
1.0
 92
        0
 66
     7
 43
1.0
 76
     1
 77
     6
 78
     2
 67
     7
 79
     5
170
     0
171
     0
290
     0
174
     0
 93
       13
 44
0.0
173
     0
291
     1
 45
0.0
1001
ACAD
1000
AcDbSavedByObjectVersion
1070
     0
  0
VISUALSTYLE
  5
2E
102
{ACAD_REACTORS
330
2A
102
}
330
2A
100
AcDbVisualStyle
  2
GouraudWithEdges
 70
     3
 71
     2
 72
     2
 73
     1
 90
        2
 40
-0.6
 41
30.0
 62
     5
 63
     7
 74
     1
 91
        4
 64
     7
 65
   257
 75
     1
175
     1
 42
1.0
 92
        0
 66
   257
 43
1.0
 76
     1
 77
     6
 78
     2
 67
     7
 79
     5
170
     0
171
     0
290
     0
174
     0
 93
       13
 44
0.0
173
     0
291
     1
 45
0.0
1001
ACAD
1000
AcDbSavedByObjectVersion
1070
     0
  0
VISUALSTYLE
  5
38
102
{ACAD_REACTORS
330
2A
102
}
330
2A
100
AcDbVisualStyle
  2
Linepattern
 70
    14
 71
     2
 72
     2
 73
     0
 90
        0
 40
-0.6
 41
-30.0
 62
     5
 63
     7
 74
     1
 91
        4
 64
     7
 65
   257
 75
     7
175
     7
 42
1.0
 92
        8
 66
     7
 43
1.0
 76
     1
 77
     6
 78
     2
 67
     7
 79
     5
170
     0
171
     0
290
     0
174
     0
 93
        1
 44
0.0
173
     0
291
     1
 45
0.0
1001
ACAD
1000
AcDbSavedByObjectVersion
1070
     0
  0
VISUALSTYLE
  5
33
102
{ACAD_REACTORS
330
2A
102
}
330
2A
100
AcDbVisualStyle
  2
Realistic
 70
     8
 71
     2
 72
     2
 73
     0
 90
        0
 40
-0.6
 41
-30.0
 62
     5
 63
     7
 74
     1
 91
        0
 64
     7
 65
   257
 75
     1
175
     1
 42
1.0
 92
        8
 66
     8
 43
1.0
 76
     1
 77
     6
 78
     2
 67
     7
 79
     5
170
     0
171
     0
290
     0
174
     0
 93
       13
 44
0.0
173
     0
291
     0
 45
0.0
1001
ACAD
1000
AcDbSavedByObjectVersion
1070
     0
  0
VISUALSTYLE
  5
37
102
{ACAD_REACTORS
330
2A
102
}
330
2A
100
AcDbVisualStyle
  2
Thicken
 70
    13
 71
     2
 72
     2
 73
     0
 90
        0
 40
-0.6
 41
-30.0
 62
     5
 63
     7
 74
     1
 91
        4
 64
     7
 65
   257
 75
     1
175
     1
 42
1.0
 92
       12
 66
     7
 43
1.0
 76
     1
 77
     6
 78
     2
 67
     7
 79
     5
170
     0
171
     0
290
     0
174
     0
 93
        1
 44
0.0
173
     0
291
     1
 45
0.0
1001
ACAD
1000
AcDbSavedByObjectVersion
1070
     0
  0
ENDSEC
  0
EOF
