  0
SECTION
  2
HEADER
  9
$ACADVER
  1
AC1012
  9
$DWGCODEPAGE
  3
ansi_1252
  9
$INSBASE
 10
0.0
 20
0.0
 30
0.0
  9
$EXTMIN
 10
1.000000000000000E+20
 20
1.000000000000000E+20
 30
1.000000000000000E+20
  9
$EXTMAX
 10
-1.000000000000000E+20
 20
-1.000000000000000E+20
 30
-1.000000000000000E+20
  9
$LIMMIN
 10
0.0
 20
0.0
  9
$LIMMAX
 10
12.0
 20
9.0
  9
$ORTHOMODE
 70
     0
  9
$REGENMODE
 70
     1
  9
$FILLMODE
 70
     1
  9
$QTEXTMODE
 70
     0
  9
$MIRRTEXT
 70
     1
  9
$DRAGMODE
 70
     2
  9
$LTSCALE
 40
1.0
  9
$OSMODE
 70
    37
  9
$ATTMODE
 70
     1
  9
$TEXTSIZE
 40
0.2
  9
$TRACEWID
 40
0.05
  9
$TEXTSTYLE
  7
STANDARD
  9
$CLAYER
  8
0
  9
$CELTYPE
  6
BYLAYER
  9
$CECOLOR
 62
   256
  9
$CELTSCALE
 40
1.0
  9
$DELOBJ
 70
     1
  9
$DISPSILH
 70
     0
  9
$DIMSCALE
 40
1.0
  9
$DIMASZ
 40
0.18
  9
$DIMEXO
 40
0.0625
  9
$DIMDLI
 40
0.38
  9
$DIMRND
 40
0.0
  9
$DIMDLE
 40
0.0
  9
$DIMEXE
 40
0.18
  9
$DIMTP
 40
0.0
  9
$DIMTM
 40
0.0
  9
$DIMTXT
 40
0.18
  9
$DIMCEN
 40
0.09
  9
$DIMTSZ
 40
0.0
  9
$DIMTOL
 70
     0
  9
$DIMLIM
 70
     0
  9
$DIMTIH
 70
     1
  9
$DIMTOH
 70
     1
  9
$DIMSE1
 70
     0
  9
$DIMSE2
 70
     0
  9
$DIMTAD
 70
     0
  9
$DIMZIN
 70
     0
  9
$DIMBLK
  1

  9
$DIMASO
 70
     1
  9
$DIMSHO
 70
     1
  9
$DIMPOST
  1

  9
$DIMAPOST
  1

  9
$DIMALT
 70
     0
  9
$DIMALTD
 70
     2
  9
$DIMALTF
 40
25.4
  9
$DIMLFAC
 40
1.0
  9
$DIMTOFL
 70
     0
  9
$DIMTVP
 40
0.0
  9
$DIMTIX
 70
     0
  9
$DIMSOXD
 70
     0
  9
$DIMSAH
 70
     0
  9
$DIMBLK1
  1

  9
$DIMBLK2
  1

  9
$DIMSTYLE
  2
STANDARD
  9
$DIMCLRD
 70
     0
  9
$DIMCLRE
 70
     0
  9
$DIMCLRT
 70
     0
  9
$DIMTFAC
 40
1.0
  9
$DIMGAP
 40
0.09
  9
$DIMJUST
 70
     0
  9
$DIMSD1
 70
     0
  9
$DIMSD2
 70
     0
  9
$DIMTOLJ
 70
     1
  9
$DIMTZIN
 70
     0
  9
$DIMALTZ
 70
     0
  9
$DIMALTTZ
 70
     0
  9
$DIMFIT
 70
     3
  9
$DIMUPT
 70
     0
  9
$DIMUNIT
 70
     2
  9
$DIMDEC
 70
     4
  9
$DIMTDEC
 70
     4
  9
$DIMALTU
 70
     2
  9
$DIMALTTD
 70
     2
  9
$DIMTXSTY
  7
STANDARD
  9
$DIMAUNIT
 70
     0
  9
$LUNITS
 70
     2
  9
$LUPREC
 70
     4
  9
$SKETCHINC
 40
0.1
  9
$FILLETRAD
 40
0.5
  9
$AUNITS
 70
     0
  9
$AUPREC
 70
     0
  9
$MENU
  1
.
  9
$ELEVATION
 40
0.0
  9
$PELEVATION
 40
0.0
  9
$THICKNESS
 40
0.0
  9
$LIMCHECK
 70
     0
  9
$CHAMFERA
 40
0.5
  9
$CHAMFERB
 40
0.5
  9
$CHAMFERC
 40
1.0
  9
$CHAMFERD
 40
0.0
  9
$SKPOLY
 70
     0
  9
$TDCREATE
 40
2456593.409585556
  9
$TDUPDATE
 40
2456593.409585567
  9
$TDINDWG
 40
0.0000000116
  9
$TDUSRTIMER
 40
0.0000000116
  9
$USRTIMER
 70
     1
  9
$ANGBASE
 50
0.0
  9
$ANGDIR
 70
     0
  9
$PDMODE
 70
     0
  9
$PDSIZE
 40
0.0
  9
$PLINEWID
 40
0.0
  9
$COORDS
 70
     1
  9
$SPLFRAME
 70
     0
  9
$SPLINETYPE
 70
     6
  9
$SPLINESEGS
 70
     8
  9
$ATTDIA
 70
     0
  9
$ATTREQ
 70
     1
  9
$HANDLING
 70
     1
  9
$HANDSEED
  5
65
  9
$SURFTAB1
 70
     6
  9
$SURFTAB2
 70
     6
  9
$SURFTYPE
 70
     6
  9
$SURFU
 70
     6
  9
$SURFV
 70
     6
  9
$UCSNAME
  2

  9
$UCSORG
 10
0.0
 20
0.0
 30
0.0
  9
$UCSXDIR
 10
1.0
 20
0.0
 30
0.0
  9
$UCSYDIR
 10
0.0
 20
1.0
 30
0.0
  9
$PUCSNAME
  2

  9
$PUCSORG
 10
0.0
 20
0.0
 30
0.0
  9
$PUCSXDIR
 10
1.0
 20
0.0
 30
0.0
  9
$PUCSYDIR
 10
0.0
 20
1.0
 30
0.0
  9
$USERI1
 70
     0
  9
$USERI2
 70
     0
  9
$USERI3
 70
     0
  9
$USERI4
 70
     0
  9
$USERI5
 70
     0
  9
$USERR1
 40
0.0
  9
$USERR2
 40
0.0
  9
$USERR3
 40
0.0
  9
$USERR4
 40
0.0
  9
$USERR5
 40
0.0
  9
$WORLDVIEW
 70
     1
  9
$SHADEDGE
 70
     3
  9
$SHADEDIF
 70
    70
  9
$TILEMODE
 70
     1
  9
$MAXACTVP
 70
    64
  9
$PINSBASE
 10
0.0
 20
0.0
 30
0.0
  9
$PLIMCHECK
 70
     0
  9
$PEXTMIN
 10
1.000000000000000E+20
 20
1.000000000000000E+20
 30
1.000000000000000E+20
  9
$PEXTMAX
 10
-1.000000000000000E+20
 20
-1.000000000000000E+20
 30
-1.000000000000000E+20
  9
$PLIMMIN
 10
0.0
 20
0.0
  9
$PLIMMAX
 10
12.0
 20
9.0
  9
$UNITMODE
 70
     0
  9
$VISRETAIN
 70
     1
  9
$PLINEGEN
 70
     0
  9
$PSLTSCALE
 70
     1
  9
$TREEDEPTH
 70
  3020
  9
$PICKSTYLE
 70
     1
  9
$CMLSTYLE
  2
STANDARD
  9
$CMLJUST
 70
     0
  9
$CMLSCALE
 40
1.0
  9
$SAVEIMAGES
 70
     1
  0
ENDSEC
  0
SECTION
  2
CLASSES
  0
CLASS
  1
ACDBDICTIONARYWDFLT
  2
AcDbDictionaryWithDefault
  3
ObjectDBX Classes
 90
    32768
280
     0
281
     0
  0
CLASS
  1
VISUALSTYLE
  2
AcDbVisualStyle
  3
ObjectDBX Classes
 90
     4095
280
     0
281
     0
  0
CLASS
  1
XRECORD
  2
AcDbXrecord
  3
AutoCAD 2000
 90
    32768
280
     0
281
     0
  0
CLASS
  1
LWPOLYLINE
  2
AcDbPolyline
  3
AutoCAD 2000
 90
    32768
280
     0
281
     1
  0
CLASS
  1
HATCH
  2
AcDbHatch
  3
AutoCAD 2000
 90
    32768
280
     0
281
     1
  0
CLASS
  1
ACDBPLACEHOLDER
  2
AcDbPlaceHolder
  3
ObjectDBX Classes
 90
        0
280
     0
281
     0
  0
CLASS
  1
LAYOUT
  2
AcDbLayout
  3
ObjectDBX Classes
 90
        0
280
     0
281
     0
  0
ENDSEC
  0
SECTION
  2
TABLES
  0
TABLE
  2
VPORT
  5
8
330
0
100
AcDbSymbolTable
 70
     1
  0
VPORT
  5
29
330
8
100
AcDbSymbolTableRecord
100
AcDbViewportTableRecord
  2
*ACTIVE
 70
     0
 10
0.0
 20
0.0
 11
1.0
 21
1.0
 12
0.0
 22
0.0
 13
0.0
 23
0.0
 14
0.5
 24
0.5
 15
0.5
 25
0.5
 16
0.0
 26
0.0
 36
1.0
 17
148.4999796178229
 27
-105.0008259828644
 37
0.0
 40
210.0016519657288
 41
1.414274394775308
 42
50.0
 43
0.0
 44
0.0
 50
0.0
 51
0.0
 71
     0
 72
   100
 73
     1
 74
     3
 75
     0
 76
     0
 77
     0
 78
     0
  0
ENDTAB
  0
TABLE
  2
LTYPE
  5
5
330
0
100
AcDbSymbolTable
 70
     1
  0
LTYPE
  5
14
330
5
100
AcDbSymbolTableRecord
100
AcDbLinetypeTableRecord
  2
BYBLOCK
 70
     0
  3

 72
    65
 73
     0
 40
0.0
  0
LTYPE
  5
15
330
5
100
AcDbSymbolTableRecord
100
AcDbLinetypeTableRecord
  2
BYLAYER
 70
     0
  3

 72
    65
 73
     0
 40
0.0
  0
LTYPE
  5
16
330
5
100
AcDbSymbolTableRecord
100
AcDbLinetypeTableRecord
  2
CONTINUOUS
 70
     0
  3
Solid line
 72
    65
 73
     0
 40
0.0
  0
ENDTAB
  0
TABLE
  2
LAYER
  5
2
330
0
100
AcDbSymbolTable
 70
     2
  0
LAYER
  5
10
330
2
100
AcDbSymbolTableRecord
100
AcDbLayerTableRecord
  2
0
 70
     0
 62
     7
  6
CONTINUOUS
  0
LAYER
  5
3B
330
2
100
AcDbSymbolTableRecord
100
AcDbLayerTableRecord
  2
LAYER_1
 70
     0
 62
     7
  6
CONTINUOUS
  0
ENDTAB
  0
TABLE
  2
STYLE
  5
3
330
0
100
AcDbSymbolTable
 70
     1
  0
STYLE
  5
11
330
3
100
AcDbSymbolTableRecord
100
AcDbTextStyleTableRecord
  2
STANDARD
 70
     0
 40
0.0
 41
1.0
 50
0.0
 71
     0
 42
0.2
  3
txt
  4

  0
ENDTAB
  0
TABLE
  2
VIEW
  5
6
330
0
100
AcDbSymbolTable
 70
     0
  0
ENDTAB
  0
TABLE
  2
UCS
  5
7
330
0
100
AcDbSymbolTable
 70
     0
  0
ENDTAB
  0
TABLE
  2
APPID
  5
9
330
0
100
AcDbSymbolTable
 70
     1
  0
APPID
  5
12
330
9
100
AcDbSymbolTableRecord
100
AcDbRegAppTableRecord
  2
ACAD
 70
     0
  0
ENDTAB
  0
TABLE
  2
DIMSTYLE
  5
A
330
0
100
AcDbSymbolTable
 70
     1
  0
DIMSTYLE
105
27
330
A
100
AcDbSymbolTableRecord
100
AcDbDimStyleTableRecord
  2
STANDARD
 70
     0
  3

  4

  5

  6

  7

 40
1.0
 41
0.18
 42
0.0625
 43
0.38
 44
0.18
 45
0.0
 46
0.0
 47
0.0
 48
0.0
140
0.18
141
0.09
142
0.0
143
25.4
144
1.0
145
0.0
146
1.0
147
0.09
 71
     0
 72
     0
 73
     1
 74
     1
 75
     0
 76
     0
 77
     0
 78
     0
170
     0
171
     2
172
     0
173
     0
174
     0
175
     0
176
     0
177
     0
178
     0
270
     2
271
     4
272
     4
273
     2
274
     2
340
11
275
     0
280
     0
281
     0
282
     0
283
     1
284
     0
285
     0
286
     0
287
     3
288
     0
  0
ENDTAB
  0
TABLE
  2
BLOCK_RECORD
  5
1
330
0
100
AcDbSymbolTable
 70
     2
  0
BLOCK_RECORD
  5
1F
330
1
100
AcDbSymbolTableRecord
100
AcDbBlockTableRecord
  2
*MODEL_SPACE
  0
BLOCK_RECORD
  5
1B
330
1
100
AcDbSymbolTableRecord
100
AcDbBlockTableRecord
  2
*PAPER_SPACE
  0
BLOCK_RECORD
  5
3C
330
1
100
AcDbSymbolTableRecord
100
AcDbBlockTableRecord
  2
BLOCK_2
  0
ENDTAB
  0
ENDSEC
  0
SECTION
  2
BLOCKS
  0
BLOCK
  5
20
330
1F
100
AcDbEntity
  8
0
100
AcDbBlockBegin
  2
*MODEL_SPACE
 70
     0
 71
     0
 10
0.0
 20
0.0
 30
0.0
  3
*MODEL_SPACE
  1

  0
ENDBLK
  5
21
330
1F
100
AcDbEntity
  8
0
100
AcDbBlockEnd
  0
BLOCK
  5
1C
330
1B
100
AcDbEntity
 67
     1
  8
0
100
AcDbBlockBegin
  2
*PAPER_SPACE
 70
     0
 71
     0
 10
0.0
 20
0.0
 30
0.0
  3
*PAPER_SPACE
  1

  0
ENDBLK
  5
1D
330
1B
100
AcDbEntity
 67
     1
  8
0
100
AcDbBlockEnd
  0
BLOCK
  5
3E
330
3C
100
AcDbEntity
  8
0
100
AcDbBlockBegin
  2
BLOCK_2
 70
     0
 71
     0
 10
0.0
 20
0.0
 30
0.0
  3
BLOCK_2
  1

  0
SPLINE
  5
40
330
3C
100
AcDbEntity
  8
LAYER_1
 62
     7
100
AcDbSpline
210
0.0
220
0.0
230
1.0
 70
    11
 71
     3
 72
   245
 73
   241
 74
     0
 42
0.0000000001
 43
0.0000000001
 40
0.0
 40
0.0
 40
0.0
 40
0.0
 40
1.0
 40
1.0
 40
1.0
 40
2.0
 40
2.0
 40
2.0
 40
3.0
 40
3.0
 40
3.0
 40
4.0
 40
4.0
 40
4.0
 40
5.0
 40
5.0
 40
5.0
 40
6.0
 40
6.0
 40
6.0
 40
7.0
 40
7.0
 40
7.0
 40
8.0
 40
8.0
 40
8.0
 40
9.0
 40
9.0
 40
9.0
 40
10.0
 40
10.0
 40
10.0
 40
11.0
 40
11.0
 40
11.0
 40
12.0
 40
12.0
 40
12.0
 40
13.0
 40
13.0
 40
13.0
 40
14.0
 40
14.0
 40
14.0
 40
15.0
 40
15.0
 40
15.0
 40
16.0
 40
16.0
 40
16.0
 40
17.0
 40
17.0
 40
17.0
 40
18.0
 40
18.0
 40
18.0
 40
19.0
 40
19.0
 40
19.0
 40
20.0
 40
20.0
 40
20.0
 40
21.0
 40
21.0
 40
21.0
 40
22.0
 40
22.0
 40
22.0
 40
23.0
 40
23.0
 40
23.0
 40
24.0
 40
24.0
 40
24.0
 40
25.0
 40
25.0
 40
25.0
 40
26.0
 40
26.0
 40
26.0
 40
27.0
 40
27.0
 40
27.0
 40
28.0
 40
28.0
 40
28.0
 40
29.0
 40
29.0
 40
29.0
 40
30.0
 40
30.0
 40
30.0
 40
31.0
 40
31.0
 40
31.0
 40
32.0
 40
32.0
 40
32.0
 40
33.0
 40
33.0
 40
33.0
 40
34.0
 40
34.0
 40
34.0
 40
35.0
 40
35.0
 40
35.0
 40
36.0
 40
36.0
 40
36.0
 40
37.0
 40
37.0
 40
37.0
 40
38.0
 40
38.0
 40
38.0
 40
39.0
 40
39.0
 40
39.0
 40
40.0
 40
40.0
 40
40.0
 40
41.0
 40
41.0
 40
41.0
 40
42.0
 40
42.0
 40
42.0
 40
43.0
 40
43.0
 40
43.0
 40
44.0
 40
44.0
 40
44.0
 40
45.0
 40
45.0
 40
45.0
 40
46.0
 40
46.0
 40
46.0
 40
47.0
 40
47.0
 40
47.0
 40
48.0
 40
48.0
 40
48.0
 40
49.0
 40
49.0
 40
49.0
 40
50.0
 40
50.0
 40
50.0
 40
51.0
 40
51.0
 40
51.0
 40
52.0
 40
52.0
 40
52.0
 40
53.0
 40
53.0
 40
53.0
 40
54.0
 40
54.0
 40
54.0
 40
55.0
 40
55.0
 40
55.0
 40
56.0
 40
56.0
 40
56.0
 40
57.0
 40
57.0
 40
57.0
 40
58.0
 40
58.0
 40
58.0
 40
59.0
 40
59.0
 40
59.0
 40
60.0
 40
60.0
 40
60.0
 40
61.0
 40
61.0
 40
61.0
 40
62.0
 40
62.0
 40
62.0
 40
63.0
 40
63.0
 40
63.0
 40
64.0
 40
64.0
 40
64.0
 40
65.0
 40
65.0
 40
65.0
 40
66.0
 40
66.0
 40
66.0
 40
67.0
 40
67.0
 40
67.0
 40
68.0
 40
68.0
 40
68.0
 40
69.0
 40
69.0
 40
69.0
 40
70.0
 40
70.0
 40
70.0
 40
71.0
 40
71.0
 40
71.0
 40
72.0
 40
72.0
 40
72.0
 40
73.0
 40
73.0
 40
73.0
 40
74.0
 40
74.0
 40
74.0
 40
75.0
 40
75.0
 40
75.0
 40
76.0
 40
76.0
 40
76.0
 40
77.0
 40
77.0
 40
77.0
 40
78.0
 40
78.0
 40
78.0
 40
79.0
 40
79.0
 40
79.0
 40
80.0
 40
80.0
 40
80.0
 40
80.0
 10
177.1778157109139
 20
25.41119655397706
 30
0.0
 10
177.1778157109139
 20
27.06122503663747
 30
0.0
 10
175.8276827902445
 20
28.41118570253262
 30
0.0
 10
174.1778265623583
 20
28.41118570253262
 30
0.0
 10
174.1778265623583
 20
28.41118570253262
 30
0.0
 10
171.6350015846954
 20
28.41118570253262
 30
0.0
 10
171.6350015846954
 20
28.41118570253262
 30
0.0
 10
169.9851453568093
 20
28.41118570253262
 30
0.0
 10
168.6350124361399
 20
27.11100666639933
 30
0.0
 10
168.6350124361399
 20
25.52178411905358
 30
0.0
 10
168.6350124361399
 20
23.93256157170783
 30
0.0
 10
167.2848795154705
 20
22.63238253557454
 30
0.0
 10
165.6350232875843
 20
22.63238253557454
 30
0.0
 10
165.6350232875843
 20
22.63238253557454
 30
0.0
 10
151.634844254626
 20
22.63238253557454
 30
0.0
 10
151.634844254626
 20
22.63238253557454
 30
0.0
 10
149.9849880267399
 20
22.63238253557454
 30
0.0
 10
148.6348551060705
 20
23.93256157170783
 30
0.0
 10
148.6348551060705
 20
25.52178411905358
 30
0.0
 10
148.6348551060705
 20
27.11100666639933
 30
0.0
 10
147.2847221854011
 20
28.41118570253262
 30
0.0
 10
145.6348659575149
 20
28.41118570253262
 30
0.0
 10
145.6348659575149
 20
28.41118570253262
 30
0.0
 10
143.6167290222556
 20
28.41118570253262
 30
0.0
 10
143.6167290222556
 20
28.41118570253262
 30
0.0
 10
141.9668727943694
 20
28.41118570253262
 30
0.0
 10
140.6167398737
 20
27.12961018201968
 30
0.0
 10
140.6167398737
 20
25.56329751965084
 30
0.0
 10
140.6167398737
 20
23.99715711205627
 30
0.0
 10
139.2666069530306
 20
22.71558159154333
 30
0.0
 10
137.6167507251444
 20
22.71558159154333
 30
0.0
 10
137.6167507251444
 20
22.71558159154333
 30
0.0
 10
123.6165716921861
 20
22.71558159154333
 30
0.0
 10
123.6165716921861
 20
22.71558159154333
 30
0.0
 10
121.9667154643
 20
22.71558159154333
 30
0.0
 10
120.6165825436306
 20
23.99715711205627
 30
0.0
 10
120.6165825436306
 20
25.56329751965084
 30
0.0
 10
120.6165825436306
 20
27.12961018201968
 30
0.0
 10
119.2664496229612
 20
28.41118570253262
 30
0.0
 10
117.616593395075
 20
28.41118570253262
 30
0.0
 10
117.616593395075
 20
28.41118570253262
 30
0.0
 10
115.5981119502671
 20
28.41118570253262
 30
0.0
 10
115.5981119502671
 20
28.41118570253262
 30
0.0
 10
113.948255722381
 20
28.41118570253262
 30
0.0
 10
112.5981228017116
 20
27.11100666639933
 30
0.0
 10
112.5981228017116
 20
25.52178411905358
 30
0.0
 10
112.5981228017116
 20
23.93256157170783
 30
0.0
 10
111.2479898810422
 20
22.63238253557454
 30
0.0
 10
109.598133653156
 20
22.63238253557454
 30
0.0
 10
109.598133653156
 20
22.63238253557454
 30
0.0
 10
95.59795462019774
 20
22.63238253557454
 30
0.0
 10
95.59795462019774
 20
22.63238253557454
 30
0.0
 10
93.94809839231159
 20
22.63238253557454
 30
0.0
 10
92.59796547164218
 20
23.93256157170783
 30
0.0
 10
92.59796547164218
 20
25.52178411905358
 30
0.0
 10
92.59796547164218
 20
27.11100666639933
 30
0.0
 10
91.24783255097277
 20
28.41118570253262
 30
0.0
 10
89.59797632308663
 20
28.41118570253262
 30
0.0
 10
89.59797632308663
 20
28.41118570253262
 30
0.0
 10
87.57983938782726
 20
28.41118570253262
 30
0.0
 10
87.57983938782726
 20
28.41118570253262
 30
0.0
 10
85.92963865039259
 20
28.41118570253262
 30
0.0
 10
84.57967798449745
 20
27.12961018201968
 30
0.0
 10
84.57967798449745
 20
25.56329751965084
 30
0.0
 10
84.57967798449745
 20
23.99715711205627
 30
0.0
 10
83.2297173186023
 20
22.71558159154333
 30
0.0
 10
81.57968883594188
 20
22.71558159154333
 30
0.0
 10
81.57968883594188
 20
22.71558159154333
 30
0.0
 10
67.5795098029836
 20
22.71558159154333
 30
0.0
 10
67.5795098029836
 20
22.71558159154333
 30
0.0
 10
65.92948132032319
 20
22.71558159154333
 30
0.0
 10
64.57952065442804
 20
23.99715711205627
 30
0.0
 10
64.57952065442804
 20
25.56329751965084
 30
0.0
 10
64.57952065442804
 20
27.12961018201968
 30
0.0
 10
63.22955998853289
 20
28.41118570253262
 30
0.0
 10
61.57953150587248
 20
28.41118570253262
 30
0.0
 10
61.57953150587248
 20
28.41118570253262
 30
0.0
 10
59.56156682538739
 20
28.41118570253262
 30
0.0
 10
59.56156682538739
 20
28.41118570253262
 30
0.0
 10
57.91153834272698
 20
28.41118570253262
 30
0.0
 10
56.56157767683183
 20
27.12030842420951
 30
0.0
 10
56.56157767683183
 20
25.54262694673934
 30
0.0
 10
56.56157767683183
 20
23.96477321449492
 30
0.0
 10
55.21161701093668
 20
22.6738959361718
 30
0.0
 10
53.56158852827627
 20
22.6738959361718
 30
0.0
 10
53.56158852827627
 20
22.6738959361718
 30
0.0
 10
39.56123724054372
 20
22.6738959361718
 30
0.0
 10
39.56123724054372
 20
22.6738959361718
 30
0.0
 10
37.91120875788331
 20
22.6738959361718
 30
0.0
 10
36.56124809198816
 20
23.96477321449492
 30
0.0
 10
36.56124809198816
 20
25.54262694673934
 30
0.0
 10
36.56124809198816
 20
27.12030842420951
 30
0.0
 10
35.21128742609302
 20
28.41118570253262
 30
0.0
 10
33.56125894343261
 20
28.41118570253262
 30
0.0
 10
33.56125894343261
 20
28.41118570253262
 30
0.0
 10
31.54312200817325
 20
28.41118570253262
 30
0.0
 10
31.54312200817325
 20
28.41118570253262
 30
0.0
 10
29.89309352551284
 20
28.41118570253262
 30
0.0
 10
28.54313285961769
 20
27.13908419460412
 30
0.0
 10
28.54313285961769
 20
25.58431260211087
 30
0.0
 10
28.54313285961769
 20
24.02936875484335
 30
0.0
 10
27.19317219372254
 20
22.75726724691485
 30
0.0
 10
25.54314371106213
 20
22.75726724691485
 30
0.0
 10
25.54314371106213
 20
22.75726724691485
 30
0.0
 10
11.54296467810384
 20
22.75726724691485
 30
0.0
 10
11.54296467810384
 20
22.75726724691485
 30
0.0
 10
9.892936195443433
 20
22.75726724691485
 30
0.0
 10
8.542975529548285
 20
24.02936875484335
 30
0.0
 10
8.542975529548285
 20
25.58431260211087
 30
0.0
 10
8.542975529548285
 20
27.13908419460412
 30
0.0
 10
7.193014863653135
 20
28.41118570253262
 30
0.0
 10
5.542986380992726
 20
28.41118570253262
 30
0.0
 10
5.542986380992726
 20
28.41118570253262
 30
0.0
 10
2.999989148555558
 20
28.41118570253262
 30
0.0
 10
2.999989148555558
 20
28.41118570253262
 30
0.0
 10
1.349960665895149
 20
28.41118570253262
 30
0.0
 10
0.0
 20
27.06122503663747
 30
0.0
 10
0.0
 20
25.41119655397706
 30
0.0
 10
0.0
 20
25.41119655397706
 30
0.0
 10
0.0
 20
2.999989148555558
 30
0.0
 10
0.0
 20
2.999989148555558
 30
0.0
 10
0.0
 20
1.350132920669411
 30
0.0
 10
1.349960665895149
 20
0.0
 30
0.0
 10
2.999989148555558
 20
0.0
 30
0.0
 10
2.999989148555558
 20
0.0
 30
0.0
 10
5.542986380992726
 20
0.0
 30
0.0
 10
5.542986380992726
 20
0.0
 30
0.0
 10
7.193014863653135
 20
0.0
 30
0.0
 10
8.542975529548285
 20
1.218185763584342
 30
0.0
 10
8.542975529548285
 20
2.706811522760797
 30
0.0
 10
8.542975529548285
 20
4.195781791485777
 30
0.0
 10
9.892936195443433
 20
5.413795300295857
 30
0.0
 10
11.54296467810384
 20
5.413795300295857
 30
0.0
 10
11.54296467810384
 20
5.413795300295857
 30
0.0
 10
25.54314371106213
 20
5.413795300295857
 30
0.0
 10
25.54314371106213
 20
5.413795300295857
 30
0.0
 10
27.19317219372254
 20
5.413795300295857
 30
0.0
 10
28.54313285961769
 20
4.195781791485777
 30
0.0
 10
28.54313285961769
 20
2.706811522760797
 30
0.0
 10
28.54313285961769
 20
1.218185763584342
 30
0.0
 10
29.89309352551284
 20
0.0
 30
0.0
 10
31.54312200817325
 20
0.0
 30
0.0
 10
31.54312200817325
 20
0.0
 30
0.0
 10
33.56125894343261
 20
0.0
 30
0.0
 10
33.56125894343261
 20
0.0
 30
0.0
 10
35.21128742609302
 20
0.0
 30
0.0
 10
36.56124809198816
 20
1.199237738415468
 30
0.0
 10
36.56124809198816
 20
2.665125867389274
 30
0.0
 10
36.56124809198816
 20
4.131186251137343
 30
0.0
 10
37.91120875788331
 20
5.330596244327073
 30
0.0
 10
39.56123724054372
 20
5.330596244327073
 30
0.0
 10
39.56123724054372
 20
5.330596244327073
 30
0.0
 10
53.56158852827627
 20
5.330596244327073
 30
0.0
 10
53.56158852827627
 20
5.330596244327073
 30
0.0
 10
55.21161701093668
 20
5.330596244327073
 30
0.0
 10
56.56157767683183
 20
4.131186251137343
 30
0.0
 10
56.56157767683183
 20
2.665125867389274
 30
0.0
 10
56.56157767683183
 20
1.199237738415468
 30
0.0
 10
57.91153834272698
 20
0.0
 30
0.0
 10
59.56156682538739
 20
0.0
 30
0.0
 10
59.56156682538739
 20
0.0
 30
0.0
 10
61.57953150587248
 20
0.0
 30
0.0
 10
61.57953150587248
 20
0.0
 30
0.0
 10
63.22955998853289
 20
0.0
 30
0.0
 10
64.57952065442804
 20
1.208884005774168
 30
0.0
 10
64.57952065442804
 20
2.686140949849298
 30
0.0
 10
64.57952065442804
 20
4.163570148698691
 30
0.0
 10
65.92948132032319
 20
5.372281899698597
 30
0.0
 10
67.5795098029836
 20
5.372281899698597
 30
0.0
 10
67.5795098029836
 20
5.372281899698597
 30
0.0
 10
81.57968883594188
 20
5.372281899698597
 30
0.0
 10
81.57968883594188
 20
5.372281899698597
 30
0.0
 10
83.2297173186023
 20
5.372281899698597
 30
0.0
 10
84.57967798449745
 20
4.163570148698691
 30
0.0
 10
84.57967798449745
 20
2.686140949849298
 30
0.0
 10
84.57967798449745
 20
1.208884005774168
 30
0.0
 10
85.92963865039259
 20
0.0
 30
0.0
 10
87.57983938782726
 20
0.0
 30
0.0
 10
87.57983938782726
 20
0.0
 30
0.0
 10
89.59797632308663
 20
0.0
 30
0.0
 10
89.59797632308663
 20
0.0
 30
0.0
 10
91.24783255097277
 20
0.0
 30
0.0
 10
92.59796547164218
 20
1.189935980605294
 30
0.0
 10
92.59796547164218
 20
2.644455294477775
 30
0.0
 10
92.59796547164218
 20
4.098974608350257
 30
0.0
 10
93.94809839231159
 20
5.289082843729813
 30
0.0
 10
95.59795462019774
 20
5.289082843729813
 30
0.0
 10
95.59795462019774
 20
5.289082843729813
 30
0.0
 10
109.598133653156
 20
5.289082843729813
 30
0.0
 10
109.598133653156
 20
5.289082843729813
 30
0.0
 10
111.2479898810422
 20
5.289082843729813
 30
0.0
 10
112.5981228017116
 20
4.098974608350257
 30
0.0
 10
112.5981228017116
 20
2.644455294477775
 30
0.0
 10
112.5981228017116
 20
1.189935980605294
 30
0.0
 10
113.948255722381
 20
0.0
 30
0.0
 10
115.5981119502671
 20
0.0
 30
0.0
 10
115.5981119502671
 20
0.0
 30
0.0
 10
117.616593395075
 20
0.0
 30
0.0
 10
117.616593395075
 20
0.0
 30
0.0
 10
119.2664496229612
 20
0.0
 30
0.0
 10
120.6165825436306
 20
1.208884005774168
 30
0.0
 10
120.6165825436306
 20
2.686140949849298
 30
0.0
 10
120.6165825436306
 20
4.163570148698691
 30
0.0
 10
121.9667154643
 20
5.372281899698597
 30
0.0
 10
123.6165716921861
 20
5.372281899698597
 30
0.0
 10
123.6165716921861
 20
5.372281899698597
 30
0.0
 10
137.6167507251444
 20
5.372281899698597
 30
0.0
 10
137.6167507251444
 20
5.372281899698597
 30
0.0
 10
139.2666069530306
 20
5.372281899698597
 30
0.0
 10
140.6167398737
 20
4.163570148698691
 30
0.0
 10
140.6167398737
 20
2.686140949849298
 30
0.0
 10
140.6167398737
 20
1.208884005774168
 30
0.0
 10
141.9668727943694
 20
0.0
 30
0.0
 10
143.6167290222556
 20
0.0
 30
0.0
 10
143.6167290222556
 20
0.0
 30
0.0
 10
145.6348659575149
 20
0.0
 30
0.0
 10
145.6348659575149
 20
0.0
 30
0.0
 10
147.2847221854011
 20
0.0
 30
0.0
 10
148.6348551060705
 20
1.189935980605294
 30
0.0
 10
148.6348551060705
 20
2.644455294477775
 30
0.0
 10
148.6348551060705
 20
4.098974608350257
 30
0.0
 10
149.9849880267399
 20
5.289082843729813
 30
0.0
 10
151.634844254626
 20
5.289082843729813
 30
0.0
 10
151.634844254626
 20
5.289082843729813
 30
0.0
 10
165.6350232875843
 20
5.289082843729813
 30
0.0
 10
165.6350232875843
 20
5.289082843729813
 30
0.0
 10
167.2848795154705
 20
5.289082843729813
 30
0.0
 10
168.6350124361399
 20
4.098974608350257
 30
0.0
 10
168.6350124361399
 20
2.644455294477775
 30
0.0
 10
168.6350124361399
 20
1.189935980605294
 30
0.0
 10
169.9851453568093
 20
0.0
 30
0.0
 10
171.6350015846954
 20
0.0
 30
0.0
 10
171.6350015846954
 20
0.0
 30
0.0
 10
174.1778265623583
 20
0.0
 30
0.0
 10
174.1778265623583
 20
0.0
 30
0.0
 10
175.8276827902445
 20
0.0
 30
0.0
 10
177.1778157109139
 20
1.350132920669411
 30
0.0
 10
177.1778157109139
 20
2.999989148555558
 30
0.0
 10
177.1778157109139
 20
2.999989148555558
 30
0.0
 10
177.1778157109139
 20
25.41119655397706
 30
0.0
 10
177.1778157109139
 20
25.41119655397706
 30
0.0
  0
SPLINE
  5
41
330
3C
100
AcDbEntity
  8
LAYER_1
 62
     7
100
AcDbSpline
210
0.0
220
0.0
230
1.0
 70
    11
 71
     3
 72
   245
 73
   241
 74
     0
 42
0.0000000001
 43
0.0000000001
 40
0.0
 40
0.0
 40
0.0
 40
0.0
 40
1.0
 40
1.0
 40
1.0
 40
2.0
 40
2.0
 40
2.0
 40
3.0
 40
3.0
 40
3.0
 40
4.0
 40
4.0
 40
4.0
 40
5.0
 40
5.0
 40
5.0
 40
6.0
 40
6.0
 40
6.0
 40
7.0
 40
7.0
 40
7.0
 40
8.0
 40
8.0
 40
8.0
 40
9.0
 40
9.0
 40
9.0
 40
10.0
 40
10.0
 40
10.0
 40
11.0
 40
11.0
 40
11.0
 40
12.0
 40
12.0
 40
12.0
 40
13.0
 40
13.0
 40
13.0
 40
14.0
 40
14.0
 40
14.0
 40
15.0
 40
15.0
 40
15.0
 40
16.0
 40
16.0
 40
16.0
 40
17.0
 40
17.0
 40
17.0
 40
18.0
 40
18.0
 40
18.0
 40
19.0
 40
19.0
 40
19.0
 40
20.0
 40
20.0
 40
20.0
 40
21.0
 40
21.0
 40
21.0
 40
22.0
 40
22.0
 40
22.0
 40
23.0
 40
23.0
 40
23.0
 40
24.0
 40
24.0
 40
24.0
 40
25.0
 40
25.0
 40
25.0
 40
26.0
 40
26.0
 40
26.0
 40
27.0
 40
27.0
 40
27.0
 40
28.0
 40
28.0
 40
28.0
 40
29.0
 40
29.0
 40
29.0
 40
30.0
 40
30.0
 40
30.0
 40
31.0
 40
31.0
 40
31.0
 40
32.0
 40
32.0
 40
32.0
 40
33.0
 40
33.0
 40
33.0
 40
34.0
 40
34.0
 40
34.0
 40
35.0
 40
35.0
 40
35.0
 40
36.0
 40
36.0
 40
36.0
 40
37.0
 40
37.0
 40
37.0
 40
38.0
 40
38.0
 40
38.0
 40
39.0
 40
39.0
 40
39.0
 40
40.0
 40
40.0
 40
40.0
 40
41.0
 40
41.0
 40
41.0
 40
42.0
 40
42.0
 40
42.0
 40
43.0
 40
43.0
 40
43.0
 40
44.0
 40
44.0
 40
44.0
 40
45.0
 40
45.0
 40
45.0
 40
46.0
 40
46.0
 40
46.0
 40
47.0
 40
47.0
 40
47.0
 40
48.0
 40
48.0
 40
48.0
 40
49.0
 40
49.0
 40
49.0
 40
50.0
 40
50.0
 40
50.0
 40
51.0
 40
51.0
 40
51.0
 40
52.0
 40
52.0
 40
52.0
 40
53.0
 40
53.0
 40
53.0
 40
54.0
 40
54.0
 40
54.0
 40
55.0
 40
55.0
 40
55.0
 40
56.0
 40
56.0
 40
56.0
 40
57.0
 40
57.0
 40
57.0
 40
58.0
 40
58.0
 40
58.0
 40
59.0
 40
59.0
 40
59.0
 40
60.0
 40
60.0
 40
60.0
 40
61.0
 40
61.0
 40
61.0
 40
62.0
 40
62.0
 40
62.0
 40
63.0
 40
63.0
 40
63.0
 40
64.0
 40
64.0
 40
64.0
 40
65.0
 40
65.0
 40
65.0
 40
66.0
 40
66.0
 40
66.0
 40
67.0
 40
67.0
 40
67.0
 40
68.0
 40
68.0
 40
68.0
 40
69.0
 40
69.0
 40
69.0
 40
70.0
 40
70.0
 40
70.0
 40
71.0
 40
71.0
 40
71.0
 40
72.0
 40
72.0
 40
72.0
 40
73.0
 40
73.0
 40
73.0
 40
74.0
 40
74.0
 40
74.0
 40
75.0
 40
75.0
 40
75.0
 40
76.0
 40
76.0
 40
76.0
 40
77.0
 40
77.0
 40
77.0
 40
78.0
 40
78.0
 40
78.0
 40
79.0
 40
79.0
 40
79.0
 40
80.0
 40
80.0
 40
80.0
 40
80.0
 10
177.1778157109139
 20
25.41119655397706
 30
0.0
 10
177.1778157109139
 20
27.06122503663747
 30
0.0
 10
175.8276827902445
 20
28.41118570253262
 30
0.0
 10
174.1778265623583
 20
28.41118570253262
 30
0.0
 10
174.1778265623583
 20
28.41118570253262
 30
0.0
 10
171.6350015846954
 20
28.41118570253262
 30
0.0
 10
171.6350015846954
 20
28.41118570253262
 30
0.0
 10
169.9851453568093
 20
28.41118570253262
 30
0.0
 10
168.6350124361399
 20
27.11100666639933
 30
0.0
 10
168.6350124361399
 20
25.52178411905358
 30
0.0
 10
168.6350124361399
 20
23.93256157170783
 30
0.0
 10
167.2848795154705
 20
22.63238253557454
 30
0.0
 10
165.6350232875843
 20
22.63238253557454
 30
0.0
 10
165.6350232875843
 20
22.63238253557454
 30
0.0
 10
151.634844254626
 20
22.63238253557454
 30
0.0
 10
151.634844254626
 20
22.63238253557454
 30
0.0
 10
149.9849880267399
 20
22.63238253557454
 30
0.0
 10
148.6348551060705
 20
23.93256157170783
 30
0.0
 10
148.6348551060705
 20
25.52178411905358
 30
0.0
 10
148.6348551060705
 20
27.11100666639933
 30
0.0
 10
147.2847221854011
 20
28.41118570253262
 30
0.0
 10
145.6348659575149
 20
28.41118570253262
 30
0.0
 10
145.6348659575149
 20
28.41118570253262
 30
0.0
 10
143.6167290222556
 20
28.41118570253262
 30
0.0
 10
143.6167290222556
 20
28.41118570253262
 30
0.0
 10
141.9668727943694
 20
28.41118570253262
 30
0.0
 10
140.6167398737
 20
27.12961018201968
 30
0.0
 10
140.6167398737
 20
25.56329751965084
 30
0.0
 10
140.6167398737
 20
23.99715711205627
 30
0.0
 10
139.2666069530306
 20
22.71558159154333
 30
0.0
 10
137.6167507251444
 20
22.71558159154333
 30
0.0
 10
137.6167507251444
 20
22.71558159154333
 30
0.0
 10
123.6165716921861
 20
22.71558159154333
 30
0.0
 10
123.6165716921861
 20
22.71558159154333
 30
0.0
 10
121.9667154643
 20
22.71558159154333
 30
0.0
 10
120.6165825436306
 20
23.99715711205627
 30
0.0
 10
120.6165825436306
 20
25.56329751965084
 30
0.0
 10
120.6165825436306
 20
27.12961018201968
 30
0.0
 10
119.2664496229612
 20
28.41118570253262
 30
0.0
 10
117.616593395075
 20
28.41118570253262
 30
0.0
 10
117.616593395075
 20
28.41118570253262
 30
0.0
 10
115.5981119502671
 20
28.41118570253262
 30
0.0
 10
115.5981119502671
 20
28.41118570253262
 30
0.0
 10
113.948255722381
 20
28.41118570253262
 30
0.0
 10
112.5981228017116
 20
27.11100666639933
 30
0.0
 10
112.5981228017116
 20
25.52178411905358
 30
0.0
 10
112.5981228017116
 20
23.93256157170783
 30
0.0
 10
111.2479898810422
 20
22.63238253557454
 30
0.0
 10
109.598133653156
 20
22.63238253557454
 30
0.0
 10
109.598133653156
 20
22.63238253557454
 30
0.0
 10
95.59795462019774
 20
22.63238253557454
 30
0.0
 10
95.59795462019774
 20
22.63238253557454
 30
0.0
 10
93.94809839231159
 20
22.63238253557454
 30
0.0
 10
92.59796547164218
 20
23.93256157170783
 30
0.0
 10
92.59796547164218
 20
25.52178411905358
 30
0.0
 10
92.59796547164218
 20
27.11100666639933
 30
0.0
 10
91.24783255097277
 20
28.41118570253262
 30
0.0
 10
89.59797632308663
 20
28.41118570253262
 30
0.0
 10
89.59797632308663
 20
28.41118570253262
 30
0.0
 10
87.57983938782726
 20
28.41118570253262
 30
0.0
 10
87.57983938782726
 20
28.41118570253262
 30
0.0
 10
85.92963865039259
 20
28.41118570253262
 30
0.0
 10
84.57967798449745
 20
27.12961018201968
 30
0.0
 10
84.57967798449745
 20
25.56329751965084
 30
0.0
 10
84.57967798449745
 20
23.99715711205627
 30
0.0
 10
83.2297173186023
 20
22.71558159154333
 30
0.0
 10
81.57968883594188
 20
22.71558159154333
 30
0.0
 10
81.57968883594188
 20
22.71558159154333
 30
0.0
 10
67.5795098029836
 20
22.71558159154333
 30
0.0
 10
67.5795098029836
 20
22.71558159154333
 30
0.0
 10
65.92948132032319
 20
22.71558159154333
 30
0.0
 10
64.57952065442804
 20
23.99715711205627
 30
0.0
 10
64.57952065442804
 20
25.56329751965084
 30
0.0
 10
64.57952065442804
 20
27.12961018201968
 30
0.0
 10
63.22955998853289
 20
28.41118570253262
 30
0.0
 10
61.57953150587248
 20
28.41118570253262
 30
0.0
 10
61.57953150587248
 20
28.41118570253262
 30
0.0
 10
59.56156682538739
 20
28.41118570253262
 30
0.0
 10
59.56156682538739
 20
28.41118570253262
 30
0.0
 10
57.91153834272698
 20
28.41118570253262
 30
0.0
 10
56.56157767683183
 20
27.12030842420951
 30
0.0
 10
56.56157767683183
 20
25.54262694673934
 30
0.0
 10
56.56157767683183
 20
23.96477321449492
 30
0.0
 10
55.21161701093668
 20
22.6738959361718
 30
0.0
 10
53.56158852827627
 20
22.6738959361718
 30
0.0
 10
53.56158852827627
 20
22.6738959361718
 30
0.0
 10
39.56123724054372
 20
22.6738959361718
 30
0.0
 10
39.56123724054372
 20
22.6738959361718
 30
0.0
 10
37.91120875788331
 20
22.6738959361718
 30
0.0
 10
36.56124809198816
 20
23.96477321449492
 30
0.0
 10
36.56124809198816
 20
25.54262694673934
 30
0.0
 10
36.56124809198816
 20
27.12030842420951
 30
0.0
 10
35.21128742609302
 20
28.41118570253262
 30
0.0
 10
33.56125894343261
 20
28.41118570253262
 30
0.0
 10
33.56125894343261
 20
28.41118570253262
 30
0.0
 10
31.54312200817325
 20
28.41118570253262
 30
0.0
 10
31.54312200817325
 20
28.41118570253262
 30
0.0
 10
29.89309352551284
 20
28.41118570253262
 30
0.0
 10
28.54313285961769
 20
27.13908419460412
 30
0.0
 10
28.54313285961769
 20
25.58431260211087
 30
0.0
 10
28.54313285961769
 20
24.02936875484335
 30
0.0
 10
27.19317219372254
 20
22.75726724691485
 30
0.0
 10
25.54314371106213
 20
22.75726724691485
 30
0.0
 10
25.54314371106213
 20
22.75726724691485
 30
0.0
 10
11.54296467810384
 20
22.75726724691485
 30
0.0
 10
11.54296467810384
 20
22.75726724691485
 30
0.0
 10
9.892936195443433
 20
22.75726724691485
 30
0.0
 10
8.542975529548285
 20
24.02936875484335
 30
0.0
 10
8.542975529548285
 20
25.58431260211087
 30
0.0
 10
8.542975529548285
 20
27.13908419460412
 30
0.0
 10
7.193014863653135
 20
28.41118570253262
 30
0.0
 10
5.542986380992726
 20
28.41118570253262
 30
0.0
 10
5.542986380992726
 20
28.41118570253262
 30
0.0
 10
2.999989148555558
 20
28.41118570253262
 30
0.0
 10
2.999989148555558
 20
28.41118570253262
 30
0.0
 10
1.349960665895149
 20
28.41118570253262
 30
0.0
 10
0.0
 20
27.06122503663747
 30
0.0
 10
0.0
 20
25.41119655397706
 30
0.0
 10
0.0
 20
25.41119655397706
 30
0.0
 10
0.0
 20
2.999989148555558
 30
0.0
 10
0.0
 20
2.999989148555558
 30
0.0
 10
0.0
 20
1.350132920669411
 30
0.0
 10
1.349960665895149
 20
0.0
 30
0.0
 10
2.999989148555558
 20
0.0
 30
0.0
 10
2.999989148555558
 20
0.0
 30
0.0
 10
5.542986380992726
 20
0.0
 30
0.0
 10
5.542986380992726
 20
0.0
 30
0.0
 10
7.193014863653135
 20
0.0
 30
0.0
 10
8.542975529548285
 20
1.218185763584342
 30
0.0
 10
8.542975529548285
 20
2.706811522760797
 30
0.0
 10
8.542975529548285
 20
4.195781791485777
 30
0.0
 10
9.892936195443433
 20
5.413795300295857
 30
0.0
 10
11.54296467810384
 20
5.413795300295857
 30
0.0
 10
11.54296467810384
 20
5.413795300295857
 30
0.0
 10
25.54314371106213
 20
5.413795300295857
 30
0.0
 10
25.54314371106213
 20
5.413795300295857
 30
0.0
 10
27.19317219372254
 20
5.413795300295857
 30
0.0
 10
28.54313285961769
 20
4.195781791485777
 30
0.0
 10
28.54313285961769
 20
2.706811522760797
 30
0.0
 10
28.54313285961769
 20
1.218185763584342
 30
0.0
 10
29.89309352551284
 20
0.0
 30
0.0
 10
31.54312200817325
 20
0.0
 30
0.0
 10
31.54312200817325
 20
0.0
 30
0.0
 10
33.56125894343261
 20
0.0
 30
0.0
 10
33.56125894343261
 20
0.0
 30
0.0
 10
35.21128742609302
 20
0.0
 30
0.0
 10
36.56124809198816
 20
1.199237738415468
 30
0.0
 10
36.56124809198816
 20
2.665125867389274
 30
0.0
 10
36.56124809198816
 20
4.131186251137343
 30
0.0
 10
37.91120875788331
 20
5.330596244327073
 30
0.0
 10
39.56123724054372
 20
5.330596244327073
 30
0.0
 10
39.56123724054372
 20
5.330596244327073
 30
0.0
 10
53.56158852827627
 20
5.330596244327073
 30
0.0
 10
53.56158852827627
 20
5.330596244327073
 30
0.0
 10
55.21161701093668
 20
5.330596244327073
 30
0.0
 10
56.56157767683183
 20
4.131186251137343
 30
0.0
 10
56.56157767683183
 20
2.665125867389274
 30
0.0
 10
56.56157767683183
 20
1.199237738415468
 30
0.0
 10
57.91153834272698
 20
0.0
 30
0.0
 10
59.56156682538739
 20
0.0
 30
0.0
 10
59.56156682538739
 20
0.0
 30
0.0
 10
61.57953150587248
 20
0.0
 30
0.0
 10
61.57953150587248
 20
0.0
 30
0.0
 10
63.22955998853289
 20
0.0
 30
0.0
 10
64.57952065442804
 20
1.208884005774168
 30
0.0
 10
64.57952065442804
 20
2.686140949849298
 30
0.0
 10
64.57952065442804
 20
4.163570148698691
 30
0.0
 10
65.92948132032319
 20
5.372281899698597
 30
0.0
 10
67.5795098029836
 20
5.372281899698597
 30
0.0
 10
67.5795098029836
 20
5.372281899698597
 30
0.0
 10
81.57968883594188
 20
5.372281899698597
 30
0.0
 10
81.57968883594188
 20
5.372281899698597
 30
0.0
 10
83.2297173186023
 20
5.372281899698597
 30
0.0
 10
84.57967798449745
 20
4.163570148698691
 30
0.0
 10
84.57967798449745
 20
2.686140949849298
 30
0.0
 10
84.57967798449745
 20
1.208884005774168
 30
0.0
 10
85.92963865039259
 20
0.0
 30
0.0
 10
87.57983938782726
 20
0.0
 30
0.0
 10
87.57983938782726
 20
0.0
 30
0.0
 10
89.59797632308663
 20
0.0
 30
0.0
 10
89.59797632308663
 20
0.0
 30
0.0
 10
91.24783255097277
 20
0.0
 30
0.0
 10
92.59796547164218
 20
1.189935980605294
 30
0.0
 10
92.59796547164218
 20
2.644455294477775
 30
0.0
 10
92.59796547164218
 20
4.098974608350257
 30
0.0
 10
93.94809839231159
 20
5.289082843729813
 30
0.0
 10
95.59795462019774
 20
5.289082843729813
 30
0.0
 10
95.59795462019774
 20
5.289082843729813
 30
0.0
 10
109.598133653156
 20
5.289082843729813
 30
0.0
 10
109.598133653156
 20
5.289082843729813
 30
0.0
 10
111.2479898810422
 20
5.289082843729813
 30
0.0
 10
112.5981228017116
 20
4.098974608350257
 30
0.0
 10
112.5981228017116
 20
2.644455294477775
 30
0.0
 10
112.5981228017116
 20
1.189935980605294
 30
0.0
 10
113.948255722381
 20
0.0
 30
0.0
 10
115.5981119502671
 20
0.0
 30
0.0
 10
115.5981119502671
 20
0.0
 30
0.0
 10
117.616593395075
 20
0.0
 30
0.0
 10
117.616593395075
 20
0.0
 30
0.0
 10
119.2664496229612
 20
0.0
 30
0.0
 10
120.6165825436306
 20
1.208884005774168
 30
0.0
 10
120.6165825436306
 20
2.686140949849298
 30
0.0
 10
120.6165825436306
 20
4.163570148698691
 30
0.0
 10
121.9667154643
 20
5.372281899698597
 30
0.0
 10
123.6165716921861
 20
5.372281899698597
 30
0.0
 10
123.6165716921861
 20
5.372281899698597
 30
0.0
 10
137.6167507251444
 20
5.372281899698597
 30
0.0
 10
137.6167507251444
 20
5.372281899698597
 30
0.0
 10
139.2666069530306
 20
5.372281899698597
 30
0.0
 10
140.6167398737
 20
4.163570148698691
 30
0.0
 10
140.6167398737
 20
2.686140949849298
 30
0.0
 10
140.6167398737
 20
1.208884005774168
 30
0.0
 10
141.9668727943694
 20
0.0
 30
0.0
 10
143.6167290222556
 20
0.0
 30
0.0
 10
143.6167290222556
 20
0.0
 30
0.0
 10
145.6348659575149
 20
0.0
 30
0.0
 10
145.6348659575149
 20
0.0
 30
0.0
 10
147.2847221854011
 20
0.0
 30
0.0
 10
148.6348551060705
 20
1.189935980605294
 30
0.0
 10
148.6348551060705
 20
2.644455294477775
 30
0.0
 10
148.6348551060705
 20
4.098974608350257
 30
0.0
 10
149.9849880267399
 20
5.289082843729813
 30
0.0
 10
151.634844254626
 20
5.289082843729813
 30
0.0
 10
151.634844254626
 20
5.289082843729813
 30
0.0
 10
165.6350232875843
 20
5.289082843729813
 30
0.0
 10
165.6350232875843
 20
5.289082843729813
 30
0.0
 10
167.2848795154705
 20
5.289082843729813
 30
0.0
 10
168.6350124361399
 20
4.098974608350257
 30
0.0
 10
168.6350124361399
 20
2.644455294477775
 30
0.0
 10
168.6350124361399
 20
1.189935980605294
 30
0.0
 10
169.9851453568093
 20
0.0
 30
0.0
 10
171.6350015846954
 20
0.0
 30
0.0
 10
171.6350015846954
 20
0.0
 30
0.0
 10
174.1778265623583
 20
0.0
 30
0.0
 10
174.1778265623583
 20
0.0
 30
0.0
 10
175.8276827902445
 20
0.0
 30
0.0
 10
177.1778157109139
 20
1.350132920669411
 30
0.0
 10
177.1778157109139
 20
2.999989148555558
 30
0.0
 10
177.1778157109139
 20
2.999989148555558
 30
0.0
 10
177.1778157109139
 20
25.41119655397706
 30
0.0
 10
177.1778157109139
 20
25.41119655397706
 30
0.0
  0
ENDBLK
  5
3F
330
3C
100
AcDbEntity
  8
0
100
AcDbBlockEnd
  0
ENDSEC
  0
SECTION
  2
ENTITIES
  0
INSERT
  5
3D
330
1F
100
AcDbEntity
  8
LAYER_1
100
AcDbBlockReference
  2
BLOCK_2
 10
0.0
 20
0.0
 30
0.0
  0
SPLINE
  5
42
330
1F
100
AcDbEntity
  8
LAYER_1
 62
     7
100
AcDbSpline
210
0.0
220
0.0
230
1.0
 70
    11
 71
     3
 72
    17
 73
    13
 74
     0
 42
0.0000000001
 43
0.0000000001
 40
0.0
 40
0.0
 40
0.0
 40
0.0
 40
1.0
 40
1.0
 40
1.0
 40
2.0
 40
2.0
 40
2.0
 40
3.0
 40
3.0
 40
3.0
 40
4.0
 40
4.0
 40
4.0
 40
4.0
 10
6.008763290598504
 20
23.23217365955654
 30
0.0
 10
6.008763290598504
 20
22.40414495967674
 30
0.0
 10
5.336797416200523
 20
21.73235134005303
 30
0.0
 10
4.508596461546462
 20
21.73235134005303
 30
0.0
 10
3.680567761666664
 20
21.73235134005303
 30
0.0
 10
3.008601887268683
 20
22.40414495967674
 30
0.0
 10
3.008601887268683
 20
23.23217365955654
 30
0.0
 10
3.008601887268683
 20
24.0603746142106
 30
0.0
 10
3.680567761666664
 20
24.73234048860858
 30
0.0
 10
4.508596461546462
 20
24.73234048860858
 30
0.0
 10
5.336797416200523
 20
24.73234048860858
 30
0.0
 10
6.008763290598504
 20
24.0603746142106
 30
0.0
 10
6.008763290598504
 20
23.23217365955654
 30
0.0
  0
SPLINE
  5
43
330
1F
100
AcDbEntity
  8
LAYER_1
 62
     7
100
AcDbSpline
210
0.0
220
0.0
230
1.0
 70
    11
 71
     3
 72
    17
 73
    13
 74
     0
 42
0.0000000001
 43
0.0000000001
 40
0.0
 40
0.0
 40
0.0
 40
0.0
 40
1.0
 40
1.0
 40
1.0
 40
2.0
 40
2.0
 40
2.0
 40
3.0
 40
3.0
 40
3.0
 40
4.0
 40
4.0
 40
4.0
 40
4.0
 10
7.508757864876283
 20
23.23217365955654
 30
0.0
 10
7.508757864876283
 20
21.57559949547416
 30
0.0
 10
6.165342880403109
 20
20.23218451100098
 30
0.0
 10
4.508596461546462
 20
20.23218451100098
 30
0.0
 10
2.852022297464078
 20
20.23218451100098
 30
0.0
 10
1.508607312990904
 20
21.57559949547416
 30
0.0
 10
1.508607312990904
 20
23.23217365955654
 30
0.0
 10
1.508607312990904
 20
24.88892007841319
 30
0.0
 10
2.852022297464078
 20
26.23233506288636
 30
0.0
 10
4.508596461546462
 20
26.23233506288636
 30
0.0
 10
6.165342880403109
 20
26.23233506288636
 30
0.0
 10
7.508757864876283
 20
24.88892007841319
 30
0.0
 10
7.508757864876283
 20
23.23217365955654
 30
0.0
  0
SPLINE
  5
44
330
1F
100
AcDbEntity
  8
LAYER_1
 62
     7
100
AcDbSpline
210
0.0
220
0.0
230
1.0
 70
    11
 71
     3
 72
    17
 73
    13
 74
     0
 42
0.0000000001
 43
0.0000000001
 40
0.0
 40
0.0
 40
0.0
 40
0.0
 40
1.0
 40
1.0
 40
1.0
 40
2.0
 40
2.0
 40
2.0
 40
3.0
 40
3.0
 40
3.0
 40
4.0
 40
4.0
 40
4.0
 40
4.0
 10
6.008763290598504
 20
5.066185165834148
 30
0.0
 10
6.008763290598504
 20
4.237811956405825
 30
0.0
 10
5.337141925749048
 20
3.566018336782107
 30
0.0
 10
4.508596461546462
 20
3.566018336782107
 30
0.0
 10
3.680223252118139
 20
3.566018336782107
 30
0.0
 10
3.008601887268683
 20
4.237811956405825
 30
0.0
 10
3.008601887268683
 20
5.066185165834148
 30
0.0
 10
3.008601887268683
 20
5.894730630036734
 30
0.0
 10
3.680223252118139
 20
6.56635199488619
 30
0.0
 10
4.508596461546462
 20
6.56635199488619
 30
0.0
 10
5.337141925749048
 20
6.56635199488619
 30
0.0
 10
6.008763290598504
 20
5.894730630036734
 30
0.0
 10
6.008763290598504
 20
5.066185165834148
 30
0.0
  0
SPLINE
  5
45
330
1F
100
AcDbEntity
  8
LAYER_1
 62
     7
100
AcDbSpline
210
0.0
220
0.0
230
1.0
 70
    11
 71
     3
 72
    17
 73
    13
 74
     0
 42
0.0000000001
 43
0.0000000001
 40
0.0
 40
0.0
 40
0.0
 40
0.0
 40
1.0
 40
1.0
 40
1.0
 40
2.0
 40
2.0
 40
2.0
 40
3.0
 40
3.0
 40
3.0
 40
4.0
 40
4.0
 40
4.0
 40
4.0
 10
7.508757864876283
 20
5.066185165834148
 30
0.0
 10
7.508757864876283
 20
3.409955511300289
 30
0.0
 10
6.165342880403109
 20
2.066023762504328
 30
0.0
 10
4.508596461546462
 20
2.066023762504328
 30
0.0
 10
2.852022297464078
 20
2.066023762504328
 30
0.0
 10
1.508607312990904
 20
3.409955511300289
 30
0.0
 10
1.508607312990904
 20
5.066185165834148
 30
0.0
 10
1.508607312990904
 20
6.722931584690795
 30
0.0
 10
2.852022297464078
 20
8.066346569163969
 30
0.0
 10
4.508596461546462
 20
8.066346569163969
 30
0.0
 10
6.165342880403109
 20
8.066346569163969
 30
0.0
 10
7.508757864876283
 20
6.722931584690795
 30
0.0
 10
7.508757864876283
 20
5.066185165834148
 30
0.0
  0
SPLINE
  5
46
330
1F
100
AcDbEntity
  8
LAYER_1
 62
     7
100
AcDbSpline
210
0.0
220
0.0
230
1.0
 70
    11
 71
     3
 72
    17
 73
    13
 74
     0
 42
0.0000000001
 43
0.0000000001
 40
0.0
 40
0.0
 40
0.0
 40
0.0
 40
1.0
 40
1.0
 40
1.0
 40
2.0
 40
2.0
 40
2.0
 40
3.0
 40
3.0
 40
3.0
 40
4.0
 40
4.0
 40
4.0
 40
4.0
 10
34.01067164948344
 20
23.23217365955654
 30
0.0
 10
34.01067164948344
 20
22.40380045012822
 30
0.0
 10
33.33905028463399
 20
21.73235134005303
 30
0.0
 10
32.5105048204314
 20
21.73235134005303
 30
0.0
 10
31.68213161100308
 20
21.73235134005303
 30
0.0
 10
31.01068250092789
 20
22.40380045012822
 30
0.0
 10
31.01068250092789
 20
23.23217365955654
 30
0.0
 10
31.01068250092789
 20
24.06071912375913
 30
0.0
 10
31.68213161100308
 20
24.73234048860858
 30
0.0
 10
32.5105048204314
 20
24.73234048860858
 30
0.0
 10
33.33905028463399
 20
24.73234048860858
 30
0.0
 10
34.01067164948344
 20
24.06071912375913
 30
0.0
 10
34.01067164948344
 20
23.23217365955654
 30
0.0
  0
SPLINE
  5
47
330
1F
100
AcDbEntity
  8
LAYER_1
 62
     7
100
AcDbSpline
210
0.0
220
0.0
230
1.0
 70
    11
 71
     3
 72
    17
 73
    13
 74
     0
 42
0.0000000001
 43
0.0000000001
 40
0.0
 40
0.0
 40
0.0
 40
0.0
 40
1.0
 40
1.0
 40
1.0
 40
2.0
 40
2.0
 40
2.0
 40
3.0
 40
3.0
 40
3.0
 40
4.0
 40
4.0
 40
4.0
 40
4.0
 10
35.51066622376123
 20
23.23217365955654
 30
0.0
 10
35.51066622376123
 20
21.5754272406999
 30
0.0
 10
34.16742349406231
 20
20.23235676577524
 30
0.0
 10
32.5105048204314
 20
20.23235676577524
 30
0.0
 10
30.85375840157475
 20
20.23235676577524
 30
0.0
 10
29.51068792665011
 20
21.5754272406999
 30
0.0
 10
29.51068792665011
 20
23.23217365955654
 30
0.0
 10
29.51068792665011
 20
24.88909233318745
 30
0.0
 10
30.85375840157475
 20
26.23233506288636
 30
0.0
 10
32.5105048204314
 20
26.23233506288636
 30
0.0
 10
34.16742349406231
 20
26.23233506288636
 30
0.0
 10
35.51066622376123
 20
24.88909233318745
 30
0.0
 10
35.51066622376123
 20
23.23217365955654
 30
0.0
  0
SPLINE
  5
48
330
1F
100
AcDbEntity
  8
LAYER_1
 62
     7
100
AcDbSpline
210
0.0
220
0.0
230
1.0
 70
    11
 71
     3
 72
    17
 73
    13
 74
     0
 42
0.0000000001
 43
0.0000000001
 40
0.0
 40
0.0
 40
0.0
 40
0.0
 40
1.0
 40
1.0
 40
1.0
 40
2.0
 40
2.0
 40
2.0
 40
3.0
 40
3.0
 40
3.0
 40
4.0
 40
4.0
 40
4.0
 40
4.0
 10
34.01067164948344
 20
5.066185165834148
 30
0.0
 10
34.01067164948344
 20
4.237811956405825
 30
0.0
 10
33.33905028463399
 20
3.566018336782107
 30
0.0
 10
32.5105048204314
 20
3.566018336782107
 30
0.0
 10
31.68213161100308
 20
3.566018336782107
 30
0.0
 10
31.01068250092789
 20
4.237811956405825
 30
0.0
 10
31.01068250092789
 20
5.066185165834148
 30
0.0
 10
31.01068250092789
 20
5.894730630036734
 30
0.0
 10
31.68213161100308
 20
6.56635199488619
 30
0.0
 10
32.5105048204314
 20
6.56635199488619
 30
0.0
 10
33.33905028463399
 20
6.56635199488619
 30
0.0
 10
34.01067164948344
 20
5.894730630036734
 30
0.0
 10
34.01067164948344
 20
5.066185165834148
 30
0.0
  0
SPLINE
  5
49
330
1F
100
AcDbEntity
  8
LAYER_1
 62
     7
100
AcDbSpline
210
0.0
220
0.0
230
1.0
 70
    11
 71
     3
 72
    17
 73
    13
 74
     0
 42
0.0000000001
 43
0.0000000001
 40
0.0
 40
0.0
 40
0.0
 40
0.0
 40
1.0
 40
1.0
 40
1.0
 40
2.0
 40
2.0
 40
2.0
 40
3.0
 40
3.0
 40
3.0
 40
4.0
 40
4.0
 40
4.0
 40
4.0
 10
35.51066622376123
 20
5.066185165834148
 30
0.0
 10
35.51066622376123
 20
3.409266492203239
 30
0.0
 10
34.16742349406231
 20
2.065679252955802
 30
0.0
 10
32.5105048204314
 20
2.065679252955802
 30
0.0
 10
30.85375840157475
 20
2.065679252955802
 30
0.0
 10
29.51068792665011
 20
3.409266492203239
 30
0.0
 10
29.51068792665011
 20
5.066185165834148
 30
0.0
 10
29.51068792665011
 20
6.723103839465058
 30
0.0
 10
30.85375840157475
 20
8.066518823938232
 30
0.0
 10
32.5105048204314
 20
8.066518823938232
 30
0.0
 10
34.16742349406231
 20
8.066518823938232
 30
0.0
 10
35.51066622376123
 20
6.723103839465058
 30
0.0
 10
35.51066622376123
 20
5.066185165834148
 30
0.0
  0
SPLINE
  5
4A
330
1F
100
AcDbEntity
  8
LAYER_1
 62
     7
100
AcDbSpline
210
0.0
220
0.0
230
1.0
 70
    11
 71
     3
 72
    17
 73
    13
 74
     0
 42
0.0000000001
 43
0.0000000001
 40
0.0
 40
0.0
 40
0.0
 40
0.0
 40
1.0
 40
1.0
 40
1.0
 40
2.0
 40
2.0
 40
2.0
 40
3.0
 40
3.0
 40
3.0
 40
4.0
 40
4.0
 40
4.0
 40
4.0
 10
62.01258000836839
 20
23.23217365955654
 30
0.0
 10
62.01258000836839
 20
22.40380045012822
 30
0.0
 10
61.34095864351893
 20
21.73235134005303
 30
0.0
 10
60.51241317931635
 20
21.73235134005303
 30
0.0
 10
59.68403996988802
 20
21.73235134005303
 30
0.0
 10
59.01241860503856
 20
22.40380045012822
 30
0.0
 10
59.01241860503856
 20
23.23217365955654
 30
0.0
 10
59.01241860503856
 20
24.06071912375913
 30
0.0
 10
59.68403996988802
 20
24.73234048860858
 30
0.0
 10
60.51241317931635
 20
24.73234048860858
 30
0.0
 10
61.34095864351893
 20
24.73234048860858
 30
0.0
 10
62.01258000836839
 20
24.06071912375913
 30
0.0
 10
62.01258000836839
 20
23.23217365955654
 30
0.0
  0
SPLINE
  5
4B
330
1F
100
AcDbEntity
  8
LAYER_1
 62
     7
100
AcDbSpline
210
0.0
220
0.0
230
1.0
 70
    11
 71
     3
 72
    17
 73
    13
 74
     0
 42
0.0000000001
 43
0.0000000001
 40
0.0
 40
0.0
 40
0.0
 40
0.0
 40
1.0
 40
1.0
 40
1.0
 40
2.0
 40
2.0
 40
2.0
 40
3.0
 40
3.0
 40
3.0
 40
4.0
 40
4.0
 40
4.0
 40
4.0
 10
63.51257458264617
 20
23.23217365955654
 30
0.0
 10
63.51257458264617
 20
21.5754272406999
 30
0.0
 10
62.16933185294725
 20
20.23252902054951
 30
0.0
 10
60.51241317931635
 20
20.23252902054951
 30
0.0
 10
58.8556667604597
 20
20.23252902054951
 30
0.0
 10
57.51242403076078
 20
21.5754272406999
 30
0.0
 10
57.51242403076078
 20
23.23217365955654
 30
0.0
 10
57.51242403076078
 20
24.88909233318745
 30
0.0
 10
58.8556667604597
 20
26.23233506288636
 30
0.0
 10
60.51241317931635
 20
26.23233506288636
 30
0.0
 10
62.16933185294725
 20
26.23233506288636
 30
0.0
 10
63.51257458264617
 20
24.88909233318745
 30
0.0
 10
63.51257458264617
 20
23.23217365955654
 30
0.0
  0
SPLINE
  5
4C
330
1F
100
AcDbEntity
  8
LAYER_1
 62
     7
100
AcDbSpline
210
0.0
220
0.0
230
1.0
 70
    11
 71
     3
 72
    17
 73
    13
 74
     0
 42
0.0000000001
 43
0.0000000001
 40
0.0
 40
0.0
 40
0.0
 40
0.0
 40
1.0
 40
1.0
 40
1.0
 40
2.0
 40
2.0
 40
2.0
 40
3.0
 40
3.0
 40
3.0
 40
4.0
 40
4.0
 40
4.0
 40
4.0
 10
62.01258000836839
 20
5.066185165834148
 30
0.0
 10
62.01258000836839
 20
4.237984211180088
 30
0.0
 10
61.34078638874467
 20
3.566018336782107
 30
0.0
 10
60.51241317931635
 20
3.566018336782107
 30
0.0
 10
59.68421222466228
 20
3.566018336782107
 30
0.0
 10
59.01241860503856
 20
4.237984211180088
 30
0.0
 10
59.01241860503856
 20
5.066185165834148
 30
0.0
 10
59.01241860503856
 20
5.894558375262472
 30
0.0
 10
59.68421222466228
 20
6.56635199488619
 30
0.0
 10
60.51241317931635
 20
6.56635199488619
 30
0.0
 10
61.34078638874467
 20
6.56635199488619
 30
0.0
 10
62.01258000836839
 20
5.894558375262472
 30
0.0
 10
62.01258000836839
 20
5.066185165834148
 30
0.0
  0
SPLINE
  5
4D
330
1F
100
AcDbEntity
  8
LAYER_1
 62
     7
100
AcDbSpline
210
0.0
220
0.0
230
1.0
 70
    11
 71
     3
 72
    17
 73
    13
 74
     0
 42
0.0000000001
 43
0.0000000001
 40
0.0
 40
0.0
 40
0.0
 40
0.0
 40
1.0
 40
1.0
 40
1.0
 40
2.0
 40
2.0
 40
2.0
 40
3.0
 40
3.0
 40
3.0
 40
4.0
 40
4.0
 40
4.0
 40
4.0
 10
63.51257458264617
 20
5.066185165834148
 30
0.0
 10
63.51257458264617
 20
3.409955511300289
 30
0.0
 10
62.16915959817299
 20
2.066023762504328
 30
0.0
 10
60.51241317931635
 20
2.066023762504328
 30
0.0
 10
58.85601127000822
 20
2.066023762504328
 30
0.0
 10
57.51242403076078
 20
3.409955511300289
 30
0.0
 10
57.51242403076078
 20
5.066185165834148
 30
0.0
 10
57.51242403076078
 20
6.722931584690795
 30
0.0
 10
58.85601127000822
 20
8.066346569163969
 30
0.0
 10
60.51241317931635
 20
8.066346569163969
 30
0.0
 10
62.16915959817299
 20
8.066346569163969
 30
0.0
 10
63.51257458264617
 20
6.722931584690795
 30
0.0
 10
63.51257458264617
 20
5.066185165834148
 30
0.0
  0
SPLINE
  5
4E
330
1F
100
AcDbEntity
  8
LAYER_1
 62
     7
100
AcDbSpline
210
0.0
220
0.0
230
1.0
 70
    11
 71
     3
 72
    17
 73
    13
 74
     0
 42
0.0000000001
 43
0.0000000001
 40
0.0
 40
0.0
 40
0.0
 40
0.0
 40
1.0
 40
1.0
 40
1.0
 40
2.0
 40
2.0
 40
2.0
 40
3.0
 40
3.0
 40
3.0
 40
4.0
 40
4.0
 40
4.0
 40
4.0
 10
90.0141438577048
 20
23.23217365955654
 30
0.0
 10
90.0141438577048
 20
22.40397270490248
 30
0.0
 10
89.34269474762961
 20
21.73235134005303
 30
0.0
 10
88.51449379297554
 20
21.73235134005303
 30
0.0
 10
87.68594832877297
 20
21.73235134005303
 30
0.0
 10
87.01415470914924
 20
22.40397270490248
 30
0.0
 10
87.01415470914924
 20
23.23217365955654
 30
0.0
 10
87.01415470914924
 20
24.06054686898486
 30
0.0
 10
87.68594832877297
 20
24.73216823383432
 30
0.0
 10
88.51449379297554
 20
24.73216823383432
 30
0.0
 10
89.34269474762961
 20
24.73216823383432
 30
0.0
 10
90.0141438577048
 20
24.06054686898486
 30
0.0
 10
90.0141438577048
 20
23.23217365955654
 30
0.0
  0
SPLINE
  5
4F
330
1F
100
AcDbEntity
  8
LAYER_1
 62
     7
100
AcDbSpline
210
0.0
220
0.0
230
1.0
 70
    11
 71
     3
 72
    17
 73
    13
 74
     0
 42
0.0000000001
 43
0.0000000001
 40
0.0
 40
0.0
 40
0.0
 40
0.0
 40
1.0
 40
1.0
 40
1.0
 40
2.0
 40
2.0
 40
2.0
 40
3.0
 40
3.0
 40
3.0
 40
4.0
 40
4.0
 40
4.0
 40
4.0
 10
91.5144829415311
 20
23.23217365955654
 30
0.0
 10
91.5144829415311
 20
21.57559949547416
 30
0.0
 10
90.17055119273515
 20
20.23235676577524
 30
0.0
 10
88.51449379297554
 20
20.23235676577524
 30
0.0
 10
86.85791962889316
 20
20.23235676577524
 30
0.0
 10
85.51433238964573
 20
21.57559949547416
 30
0.0
 10
85.51433238964573
 20
23.23217365955654
 30
0.0
 10
85.51433238964573
 20
24.88892007841319
 30
0.0
 10
86.85791962889316
 20
26.2321628081121
 30
0.0
 10
88.51449379297554
 20
26.2321628081121
 30
0.0
 10
90.17055119273515
 20
26.2321628081121
 30
0.0
 10
91.5144829415311
 20
24.88892007841319
 30
0.0
 10
91.5144829415311
 20
23.23217365955654
 30
0.0
  0
SPLINE
  5
50
330
1F
100
AcDbEntity
  8
LAYER_1
 62
     7
100
AcDbSpline
210
0.0
220
0.0
230
1.0
 70
    11
 71
     3
 72
    17
 73
    13
 74
     0
 42
0.0000000001
 43
0.0000000001
 40
0.0
 40
0.0
 40
0.0
 40
0.0
 40
1.0
 40
1.0
 40
1.0
 40
2.0
 40
2.0
 40
2.0
 40
3.0
 40
3.0
 40
3.0
 40
4.0
 40
4.0
 40
4.0
 40
4.0
 10
90.0141438577048
 20
5.066185165834148
 30
0.0
 10
90.0141438577048
 20
4.237984211180088
 30
0.0
 10
89.34269474762961
 20
3.566362846330632
 30
0.0
 10
88.51449379297554
 20
3.566362846330632
 30
0.0
 10
87.68594832877297
 20
3.566362846330632
 30
0.0
 10
87.01415470914924
 20
4.237984211180088
 30
0.0
 10
87.01415470914924
 20
5.066185165834148
 30
0.0
 10
87.01415470914924
 20
5.894558375262472
 30
0.0
 10
87.68594832877297
 20
6.566179740111927
 30
0.0
 10
88.51449379297554
 20
6.566179740111927
 30
0.0
 10
89.34269474762961
 20
6.566179740111927
 30
0.0
 10
90.0141438577048
 20
5.894558375262472
 30
0.0
 10
90.0141438577048
 20
5.066185165834148
 30
0.0
  0
SPLINE
  5
51
330
1F
100
AcDbEntity
  8
LAYER_1
 62
     7
100
AcDbSpline
210
0.0
220
0.0
230
1.0
 70
    11
 71
     3
 72
    17
 73
    13
 74
     0
 42
0.0000000001
 43
0.0000000001
 40
0.0
 40
0.0
 40
0.0
 40
0.0
 40
1.0
 40
1.0
 40
1.0
 40
2.0
 40
2.0
 40
2.0
 40
3.0
 40
3.0
 40
3.0
 40
4.0
 40
4.0
 40
4.0
 40
4.0
 10
91.5144829415311
 20
5.066185165834148
 30
0.0
 10
91.5144829415311
 20
3.409955511300289
 30
0.0
 10
90.17055119273515
 20
2.066023762504328
 30
0.0
 10
88.51449379297554
 20
2.066023762504328
 30
0.0
 10
86.85791962889316
 20
2.066023762504328
 30
0.0
 10
85.51433238964573
 20
3.409955511300289
 30
0.0
 10
85.51433238964573
 20
5.066185165834148
 30
0.0
 10
85.51433238964573
 20
6.722931584690795
 30
0.0
 10
86.85791962889316
 20
8.066174314389707
 30
0.0
 10
88.51449379297554
 20
8.066174314389707
 30
0.0
 10
90.17055119273515
 20
8.066174314389707
 30
0.0
 10
91.5144829415311
 20
6.722931584690795
 30
0.0
 10
91.5144829415311
 20
5.066185165834148
 30
0.0
  0
SPLINE
  5
52
330
1F
100
AcDbEntity
  8
LAYER_1
 62
     7
100
AcDbSpline
210
0.0
220
0.0
230
1.0
 70
    11
 71
     3
 72
    17
 73
    13
 74
     0
 42
0.0000000001
 43
0.0000000001
 40
0.0
 40
0.0
 40
0.0
 40
0.0
 40
1.0
 40
1.0
 40
1.0
 40
2.0
 40
2.0
 40
2.0
 40
3.0
 40
3.0
 40
3.0
 40
4.0
 40
4.0
 40
4.0
 40
4.0
 10
118.0165689809125
 20
23.23217365955654
 30
0.0
 10
118.0165689809125
 20
22.40397270490248
 30
0.0
 10
117.3447753612888
 20
21.73217908527876
 30
0.0
 10
116.5162298970862
 20
21.73217908527876
 30
0.0
 10
115.6880289424322
 20
21.73217908527876
 30
0.0
 10
115.0162353228084
 20
22.40397270490248
 30
0.0
 10
115.0162353228084
 20
23.23217365955654
 30
0.0
 10
115.0162353228084
 20
24.06054686898486
 30
0.0
 10
115.6880289424322
 20
24.73234048860858
 30
0.0
 10
116.5162298970862
 20
24.73234048860858
 30
0.0
 10
117.3447753612888
 20
24.73234048860858
 30
0.0
 10
118.0165689809125
 20
24.06054686898486
 30
0.0
 10
118.0165689809125
 20
23.23217365955654
 30
0.0
  0
SPLINE
  5
53
330
1F
100
AcDbEntity
  8
LAYER_1
 62
     7
100
AcDbSpline
210
0.0
220
0.0
230
1.0
 70
    11
 71
     3
 72
    17
 73
    13
 74
     0
 42
0.0000000001
 43
0.0000000001
 40
0.0
 40
0.0
 40
0.0
 40
0.0
 40
1.0
 40
1.0
 40
1.0
 40
2.0
 40
2.0
 40
2.0
 40
3.0
 40
3.0
 40
3.0
 40
4.0
 40
4.0
 40
4.0
 40
4.0
 10
119.5165635551903
 20
23.23217365955654
 30
0.0
 10
119.5165635551903
 20
21.57577175024842
 30
0.0
 10
118.1726318063943
 20
20.23252902054951
 30
0.0
 10
116.5162298970862
 20
20.23252902054951
 30
0.0
 10
114.8601724973266
 20
20.23252902054951
 30
0.0
 10
113.5165852580792
 20
21.57577175024842
 30
0.0
 10
113.5165852580792
 20
23.23217365955654
 30
0.0
 10
113.5165852580792
 20
24.88857556886466
 30
0.0
 10
114.8601724973266
 20
26.2321628081121
 30
0.0
 10
116.5162298970862
 20
26.2321628081121
 30
0.0
 10
118.1726318063943
 20
26.2321628081121
 30
0.0
 10
119.5165635551903
 20
24.88857556886466
 30
0.0
 10
119.5165635551903
 20
23.23217365955654
 30
0.0
  0
SPLINE
  5
54
330
1F
100
AcDbEntity
  8
LAYER_1
 62
     7
100
AcDbSpline
210
0.0
220
0.0
230
1.0
 70
    11
 71
     3
 72
    17
 73
    13
 74
     0
 42
0.0000000001
 43
0.0000000001
 40
0.0
 40
0.0
 40
0.0
 40
0.0
 40
1.0
 40
1.0
 40
1.0
 40
2.0
 40
2.0
 40
2.0
 40
3.0
 40
3.0
 40
3.0
 40
4.0
 40
4.0
 40
4.0
 40
4.0
 10
118.0165689809125
 20
5.066185165834148
 30
0.0
 10
118.0165689809125
 20
4.237984211180088
 30
0.0
 10
117.3447753612888
 20
3.566018336782107
 30
0.0
 10
116.5162298970862
 20
3.566018336782107
 30
0.0
 10
115.6880289424322
 20
3.566018336782107
 30
0.0
 10
115.0162353228084
 20
4.237984211180088
 30
0.0
 10
115.0162353228084
 20
5.066185165834148
 30
0.0
 10
115.0162353228084
 20
5.894558375262472
 30
0.0
 10
115.6880289424322
 20
6.56635199488619
 30
0.0
 10
116.5162298970862
 20
6.56635199488619
 30
0.0
 10
117.3447753612888
 20
6.56635199488619
 30
0.0
 10
118.0165689809125
 20
5.894558375262472
 30
0.0
 10
118.0165689809125
 20
5.066185165834148
 30
0.0
  0
SPLINE
  5
55
330
1F
100
AcDbEntity
  8
LAYER_1
 62
     7
100
AcDbSpline
210
0.0
220
0.0
230
1.0
 70
    11
 71
     3
 72
    17
 73
    13
 74
     0
 42
0.0000000001
 43
0.0000000001
 40
0.0
 40
0.0
 40
0.0
 40
0.0
 40
1.0
 40
1.0
 40
1.0
 40
2.0
 40
2.0
 40
2.0
 40
3.0
 40
3.0
 40
3.0
 40
4.0
 40
4.0
 40
4.0
 40
4.0
 10
119.5165635551903
 20
5.066185165834148
 30
0.0
 10
119.5165635551903
 20
3.409955511300289
 30
0.0
 10
118.1726318063943
 20
2.066023762504328
 30
0.0
 10
116.5162298970862
 20
2.066023762504328
 30
0.0
 10
114.8601724973266
 20
2.066023762504328
 30
0.0
 10
113.5165852580792
 20
3.409955511300289
 30
0.0
 10
113.5165852580792
 20
5.066185165834148
 30
0.0
 10
113.5165852580792
 20
6.722759329916533
 30
0.0
 10
114.8601724973266
 20
8.066174314389707
 30
0.0
 10
116.5162298970862
 20
8.066174314389707
 30
0.0
 10
118.1726318063943
 20
8.066174314389707
 30
0.0
 10
119.5165635551903
 20
6.722759329916533
 30
0.0
 10
119.5165635551903
 20
5.066185165834148
 30
0.0
  0
SPLINE
  5
56
330
1F
100
AcDbEntity
  8
LAYER_1
 62
     7
100
AcDbSpline
210
0.0
220
0.0
230
1.0
 70
    11
 71
     3
 72
    17
 73
    13
 74
     0
 42
0.0000000001
 43
0.0000000001
 40
0.0
 40
0.0
 40
0.0
 40
0.0
 40
1.0
 40
1.0
 40
1.0
 40
2.0
 40
2.0
 40
2.0
 40
3.0
 40
3.0
 40
3.0
 40
4.0
 40
4.0
 40
4.0
 40
4.0
 10
146.0183050850232
 20
23.23217365955654
 30
0.0
 10
146.0183050850232
 20
22.40397270490248
 30
0.0
 10
145.346855974948
 20
21.73217908527876
 30
0.0
 10
144.5179660011969
 20
21.73217908527876
 30
0.0
 10
143.6897650465428
 20
21.73217908527876
 30
0.0
 10
143.0183159364676
 20
22.40397270490248
 30
0.0
 10
143.0183159364676
 20
23.23217365955654
 30
0.0
 10
143.0183159364676
 20
24.06054686898486
 30
0.0
 10
143.6897650465428
 20
24.73234048860858
 30
0.0
 10
144.5179660011969
 20
24.73234048860858
 30
0.0
 10
145.346855974948
 20
24.73234048860858
 30
0.0
 10
146.0183050850232
 20
24.06054686898486
 30
0.0
 10
146.0183050850232
 20
23.23217365955654
 30
0.0
  0
SPLINE
  5
57
330
1F
100
AcDbEntity
  8
LAYER_1
 62
     7
100
AcDbSpline
210
0.0
220
0.0
230
1.0
 70
    11
 71
     3
 72
    17
 73
    13
 74
     0
 42
0.0000000001
 43
0.0000000001
 40
0.0
 40
0.0
 40
0.0
 40
0.0
 40
1.0
 40
1.0
 40
1.0
 40
2.0
 40
2.0
 40
2.0
 40
3.0
 40
3.0
 40
3.0
 40
4.0
 40
4.0
 40
4.0
 40
4.0
 10
147.518299659301
 20
23.23217365955654
 30
0.0
 10
147.518299659301
 20
21.57559949547416
 30
0.0
 10
146.1757459486991
 20
20.23201225622672
 30
0.0
 10
144.5179660011969
 20
20.23201225622672
 30
0.0
 10
142.8608750727917
 20
20.23201225622672
 30
0.0
 10
141.5183213621899
 20
21.57559949547416
 30
0.0
 10
141.5183213621899
 20
23.23217365955654
 30
0.0
 10
141.5183213621899
 20
24.88874782363893
 30
0.0
 10
142.8608750727917
 20
26.23250731766062
 30
0.0
 10
144.5179660011969
 20
26.23250731766062
 30
0.0
 10
146.1757459486991
 20
26.23250731766062
 30
0.0
 10
147.518299659301
 20
24.88874782363893
 30
0.0
 10
147.518299659301
 20
23.23217365955654
 30
0.0
  0
SPLINE
  5
58
330
1F
100
AcDbEntity
  8
LAYER_1
 62
     7
100
AcDbSpline
210
0.0
220
0.0
230
1.0
 70
    11
 71
     3
 72
    17
 73
    13
 74
     0
 42
0.0000000001
 43
0.0000000001
 40
0.0
 40
0.0
 40
0.0
 40
0.0
 40
1.0
 40
1.0
 40
1.0
 40
2.0
 40
2.0
 40
2.0
 40
3.0
 40
3.0
 40
3.0
 40
4.0
 40
4.0
 40
4.0
 40
4.0
 10
146.0183050850232
 20
5.066185165834148
 30
0.0
 10
146.0183050850232
 20
4.237984211180088
 30
0.0
 10
145.346855974948
 20
3.566018336782107
 30
0.0
 10
144.5179660011969
 20
3.566018336782107
 30
0.0
 10
143.6897650465428
 20
3.566018336782107
 30
0.0
 10
143.0183159364676
 20
4.237984211180088
 30
0.0
 10
143.0183159364676
 20
5.066185165834148
 30
0.0
 10
143.0183159364676
 20
5.894558375262472
 30
0.0
 10
143.6897650465428
 20
6.56635199488619
 30
0.0
 10
144.5179660011969
 20
6.56635199488619
 30
0.0
 10
145.346855974948
 20
6.56635199488619
 30
0.0
 10
146.0183050850232
 20
5.894558375262472
 30
0.0
 10
146.0183050850232
 20
5.066185165834148
 30
0.0
  0
SPLINE
  5
59
330
1F
100
AcDbEntity
  8
LAYER_1
 62
     7
100
AcDbSpline
210
0.0
220
0.0
230
1.0
 70
    11
 71
     3
 72
    17
 73
    13
 74
     0
 42
0.0000000001
 43
0.0000000001
 40
0.0
 40
0.0
 40
0.0
 40
0.0
 40
1.0
 40
1.0
 40
1.0
 40
2.0
 40
2.0
 40
2.0
 40
3.0
 40
3.0
 40
3.0
 40
4.0
 40
4.0
 40
4.0
 40
4.0
 10
147.518299659301
 20
5.066185165834148
 30
0.0
 10
147.518299659301
 20
3.409611001751764
 30
0.0
 10
146.1757459486991
 20
2.065679252955802
 30
0.0
 10
144.5179660011969
 20
2.065679252955802
 30
0.0
 10
142.8608750727917
 20
2.065679252955802
 30
0.0
 10
141.5183213621899
 20
3.409611001751764
 30
0.0
 10
141.5183213621899
 20
5.066185165834148
 30
0.0
 10
141.5183213621899
 20
6.723103839465058
 30
0.0
 10
142.8608750727917
 20
8.066691078712495
 30
0.0
 10
144.5179660011969
 20
8.066691078712495
 30
0.0
 10
146.1757459486991
 20
8.066691078712495
 30
0.0
 10
147.518299659301
 20
6.723103839465058
 30
0.0
 10
147.518299659301
 20
5.066185165834148
 30
0.0
  0
SPLINE
  5
5A
330
1F
100
AcDbEntity
  8
LAYER_1
 62
     7
100
AcDbSpline
210
0.0
220
0.0
230
1.0
 70
    11
 71
     3
 72
    17
 73
    13
 74
     0
 42
0.0000000001
 43
0.0000000001
 40
0.0
 40
0.0
 40
0.0
 40
0.0
 40
1.0
 40
1.0
 40
1.0
 40
2.0
 40
2.0
 40
2.0
 40
3.0
 40
3.0
 40
3.0
 40
4.0
 40
4.0
 40
4.0
 40
4.0
 10
174.0200411891339
 20
23.23217365955654
 30
0.0
 10
174.0200411891339
 20
22.40380045012822
 30
0.0
 10
173.3485920790587
 20
21.7320068305045
 30
0.0
 10
172.5200466148561
 20
21.7320068305045
 30
0.0
 10
171.6915011506535
 20
21.7320068305045
 30
0.0
 10
171.0200520405783
 20
22.40380045012822
 30
0.0
 10
171.0200520405783
 20
23.23217365955654
 30
0.0
 10
171.0200520405783
 20
24.06071912375913
 30
0.0
 10
171.6915011506535
 20
24.73251274338284
 30
0.0
 10
172.5200466148561
 20
24.73251274338284
 30
0.0
 10
173.3485920790587
 20
24.73251274338284
 30
0.0
 10
174.0200411891339
 20
24.06071912375913
 30
0.0
 10
174.0200411891339
 20
23.23217365955654
 30
0.0
  0
SPLINE
  5
5B
330
1F
100
AcDbEntity
  8
LAYER_1
 62
     7
100
AcDbSpline
210
0.0
220
0.0
230
1.0
 70
    11
 71
     3
 72
    17
 73
    13
 74
     0
 42
0.0000000001
 43
0.0000000001
 40
0.0
 40
0.0
 40
0.0
 40
0.0
 40
1.0
 40
1.0
 40
1.0
 40
2.0
 40
2.0
 40
2.0
 40
3.0
 40
3.0
 40
3.0
 40
4.0
 40
4.0
 40
4.0
 40
4.0
 10
175.5200357634117
 20
23.23217365955654
 30
0.0
 10
175.5200357634117
 20
21.5754272406999
 30
0.0
 10
174.1771375432613
 20
20.23218451100098
 30
0.0
 10
172.5200466148561
 20
20.23218451100098
 30
0.0
 10
170.8629556864509
 20
20.23218451100098
 30
0.0
 10
169.5200574663006
 20
21.5754272406999
 30
0.0
 10
169.5200574663006
 20
23.23217365955654
 30
0.0
 10
169.5200574663006
 20
24.88909233318745
 30
0.0
 10
170.8629556864509
 20
26.23233506288636
 30
0.0
 10
172.5200466148561
 20
26.23233506288636
 30
0.0
 10
174.1771375432613
 20
26.23233506288636
 30
0.0
 10
175.5200357634117
 20
24.88909233318745
 30
0.0
 10
175.5200357634117
 20
23.23217365955654
 30
0.0
  0
SPLINE
  5
5C
330
1F
100
AcDbEntity
  8
LAYER_1
 62
     7
100
AcDbSpline
210
0.0
220
0.0
230
1.0
 70
    11
 71
     3
 72
    17
 73
    13
 74
     0
 42
0.0000000001
 43
0.0000000001
 40
0.0
 40
0.0
 40
0.0
 40
0.0
 40
1.0
 40
1.0
 40
1.0
 40
2.0
 40
2.0
 40
2.0
 40
3.0
 40
3.0
 40
3.0
 40
4.0
 40
4.0
 40
4.0
 40
4.0
 10
174.0200411891339
 20
5.066185165834148
 30
0.0
 10
174.0200411891339
 20
4.237811956405825
 30
0.0
 10
173.3485920790587
 20
3.566018336782107
 30
0.0
 10
172.5200466148561
 20
3.566018336782107
 30
0.0
 10
171.6915011506535
 20
3.566018336782107
 30
0.0
 10
171.0200520405783
 20
4.237811956405825
 30
0.0
 10
171.0200520405783
 20
5.066185165834148
 30
0.0
 10
171.0200520405783
 20
5.894730630036734
 30
0.0
 10
171.6915011506535
 20
6.566524249660453
 30
0.0
 10
172.5200466148561
 20
6.566524249660453
 30
0.0
 10
173.3485920790587
 20
6.566524249660453
 30
0.0
 10
174.0200411891339
 20
5.894730630036734
 30
0.0
 10
174.0200411891339
 20
5.066185165834148
 30
0.0
  0
SPLINE
  5
5D
330
1F
100
AcDbEntity
  8
LAYER_1
 62
     7
100
AcDbSpline
210
0.0
220
0.0
230
1.0
 70
    11
 71
     3
 72
    17
 73
    13
 74
     0
 42
0.0000000001
 43
0.0000000001
 40
0.0
 40
0.0
 40
0.0
 40
0.0
 40
1.0
 40
1.0
 40
1.0
 40
2.0
 40
2.0
 40
2.0
 40
3.0
 40
3.0
 40
3.0
 40
4.0
 40
4.0
 40
4.0
 40
4.0
 10
175.5200357634117
 20
5.066185165834148
 30
0.0
 10
175.5200357634117
 20
3.409611001751764
 30
0.0
 10
174.1771375432613
 20
2.065679252955802
 30
0.0
 10
172.5200466148561
 20
2.065679252955802
 30
0.0
 10
170.8629556864509
 20
2.065679252955802
 30
0.0
 10
169.5200574663006
 20
3.409611001751764
 30
0.0
 10
169.5200574663006
 20
5.066185165834148
 30
0.0
 10
169.5200574663006
 20
6.723103839465058
 30
0.0
 10
170.8629556864509
 20
8.066346569163969
 30
0.0
 10
172.5200466148561
 20
8.066346569163969
 30
0.0
 10
174.1771375432613
 20
8.066346569163969
 30
0.0
 10
175.5200357634117
 20
6.723103839465058
 30
0.0
 10
175.5200357634117
 20
5.066185165834148
 30
0.0
  0
SPLINE
  5
5E
330
1F
100
AcDbEntity
  8
LAYER_1
 62
     7
100
AcDbSpline
210
0.0
220
0.0
230
1.0
 70
    11
 71
     3
 72
    17
 73
    13
 74
     0
 42
0.0000000001
 43
0.0000000001
 40
0.0
 40
0.0
 40
0.0
 40
0.0
 40
1.0
 40
1.0
 40
1.0
 40
2.0
 40
2.0
 40
2.0
 40
3.0
 40
3.0
 40
3.0
 40
4.0
 40
4.0
 40
4.0
 40
4.0
 10
20.1930826772434
 20
14.36070827548969
 30
0.0
 10
20.1930826772434
 20
13.4494805196411
 30
0.0
 10
19.45410969565731
 20
12.71050753805501
 30
0.0
 10
18.54305419458299
 20
12.71050753805501
 30
0.0
 10
17.63165418396014
 20
12.71050753805501
 30
0.0
 10
16.89302571192258
 20
13.4494805196411
 30
0.0
 10
16.89302571192258
 20
14.36070827548969
 30
0.0
 10
16.89302571192258
 20
15.27210828611253
 30
0.0
 10
17.63165418396014
 20
16.01090901292436
 30
0.0
 10
18.54305419458299
 20
16.01090901292436
 30
0.0
 10
19.45410969565731
 20
16.01090901292436
 30
0.0
 10
20.1930826772434
 20
15.27210828611253
 30
0.0
 10
20.1930826772434
 20
14.36070827548969
 30
0.0
  0
SPLINE
  5
5F
330
1F
100
AcDbEntity
  8
LAYER_1
 62
     7
100
AcDbSpline
210
0.0
220
0.0
230
1.0
 70
    11
 71
     3
 72
    17
 73
    13
 74
     0
 42
0.0000000001
 43
0.0000000001
 40
0.0
 40
0.0
 40
0.0
 40
0.0
 40
1.0
 40
1.0
 40
1.0
 40
2.0
 40
2.0
 40
2.0
 40
3.0
 40
3.0
 40
3.0
 40
4.0
 40
4.0
 40
4.0
 40
4.0
 10
48.21135523968327
 20
14.36070827548969
 30
0.0
 10
48.21135523968327
 20
13.4494805196411
 30
0.0
 10
47.47238225809718
 20
12.71050753805501
 30
0.0
 10
46.56132675702286
 20
12.71050753805501
 30
0.0
 10
45.64992674640002
 20
12.71050753805501
 30
0.0
 10
44.91129827436246
 20
13.4494805196411
 30
0.0
 10
44.91129827436246
 20
14.36070827548969
 30
0.0
 10
44.91129827436246
 20
15.27210828611253
 30
0.0
 10
45.64992674640002
 20
16.01090901292436
 30
0.0
 10
46.56132675702286
 20
16.01090901292436
 30
0.0
 10
47.47238225809718
 20
16.01090901292436
 30
0.0
 10
48.21135523968327
 20
15.27210828611253
 30
0.0
 10
48.21135523968327
 20
14.36070827548969
 30
0.0
  0
SPLINE
  5
60
330
1F
100
AcDbEntity
  8
LAYER_1
 62
     7
100
AcDbSpline
210
0.0
220
0.0
230
1.0
 70
    11
 71
     3
 72
    17
 73
    13
 74
     0
 42
0.0000000001
 43
0.0000000001
 40
0.0
 40
0.0
 40
0.0
 40
0.0
 40
1.0
 40
1.0
 40
1.0
 40
2.0
 40
2.0
 40
2.0
 40
3.0
 40
3.0
 40
3.0
 40
4.0
 40
4.0
 40
4.0
 40
4.0
 10
76.22980005689742
 20
14.36070827548969
 30
0.0
 10
76.22980005689742
 20
13.4494805196411
 30
0.0
 10
75.49082707531133
 20
12.71050753805501
 30
0.0
 10
74.579771574237
 20
12.71050753805501
 30
0.0
 10
73.66837156361416
 20
12.71050753805501
 30
0.0
 10
72.9297430915766
 20
13.4494805196411
 30
0.0
 10
72.9297430915766
 20
14.36070827548969
 30
0.0
 10
72.9297430915766
 20
15.27210828611253
 30
0.0
 10
73.66837156361416
 20
16.01090901292436
 30
0.0
 10
74.579771574237
 20
16.01090901292436
 30
0.0
 10
75.49082707531133
 20
16.01090901292436
 30
0.0
 10
76.22980005689742
 20
15.27210828611253
 30
0.0
 10
76.22980005689742
 20
14.36070827548969
 30
0.0
  0
SPLINE
  5
61
330
1F
100
AcDbEntity
  8
LAYER_1
 62
     7
100
AcDbSpline
210
0.0
220
0.0
230
1.0
 70
    11
 71
     3
 72
    17
 73
    13
 74
     0
 42
0.0000000001
 43
0.0000000001
 40
0.0
 40
0.0
 40
0.0
 40
0.0
 40
1.0
 40
1.0
 40
1.0
 40
2.0
 40
2.0
 40
2.0
 40
3.0
 40
3.0
 40
3.0
 40
4.0
 40
4.0
 40
4.0
 40
4.0
 10
104.2482448741115
 20
14.36070827548969
 30
0.0
 10
104.2482448741115
 20
13.4494805196411
 30
0.0
 10
103.5092718925255
 20
12.71050753805501
 30
0.0
 10
102.5983886462254
 20
12.71050753805501
 30
0.0
 10
101.6871608903768
 20
12.71050753805501
 30
0.0
 10
100.9485324183393
 20
13.4494805196411
 30
0.0
 10
100.9485324183393
 20
14.36070827548969
 30
0.0
 10
100.9485324183393
 20
15.27210828611253
 30
0.0
 10
101.6871608903768
 20
16.01090901292436
 30
0.0
 10
102.5983886462254
 20
16.01090901292436
 30
0.0
 10
103.5092718925255
 20
16.01090901292436
 30
0.0
 10
104.2482448741115
 20
15.27210828611253
 30
0.0
 10
104.2482448741115
 20
14.36070827548969
 30
0.0
  0
SPLINE
  5
62
330
1F
100
AcDbEntity
  8
LAYER_1
 62
     7
100
AcDbSpline
210
0.0
220
0.0
230
1.0
 70
    11
 71
     3
 72
    17
 73
    13
 74
     0
 42
0.0000000001
 43
0.0000000001
 40
0.0
 40
0.0
 40
0.0
 40
0.0
 40
1.0
 40
1.0
 40
1.0
 40
2.0
 40
2.0
 40
2.0
 40
3.0
 40
3.0
 40
3.0
 40
4.0
 40
4.0
 40
4.0
 40
4.0
 10
132.2665174365514
 20
14.36070827548969
 30
0.0
 10
132.2665174365514
 20
13.4494805196411
 30
0.0
 10
131.5275444549654
 20
12.71050753805501
 30
0.0
 10
130.6166612086653
 20
12.71050753805501
 30
0.0
 10
129.7050889432682
 20
12.71050753805501
 30
0.0
 10
128.9668049807791
 20
13.4494805196411
 30
0.0
 10
128.9668049807791
 20
14.36070827548969
 30
0.0
 10
128.9668049807791
 20
15.27210828611253
 30
0.0
 10
129.7050889432682
 20
16.01090901292436
 30
0.0
 10
130.6166612086653
 20
16.01090901292436
 30
0.0
 10
131.5275444549654
 20
16.01090901292436
 30
0.0
 10
132.2665174365514
 20
15.27210828611253
 30
0.0
 10
132.2665174365514
 20
14.36070827548969
 30
0.0
  0
SPLINE
  5
63
330
1F
100
AcDbEntity
  8
LAYER_1
 62
     7
100
AcDbSpline
210
0.0
220
0.0
230
1.0
 70
    11
 71
     3
 72
    17
 73
    13
 74
     0
 42
0.0000000001
 43
0.0000000001
 40
0.0
 40
0.0
 40
0.0
 40
0.0
 40
1.0
 40
1.0
 40
1.0
 40
2.0
 40
2.0
 40
2.0
 40
3.0
 40
3.0
 40
3.0
 40
4.0
 40
4.0
 40
4.0
 40
4.0
 10
160.2847899989913
 20
14.36053602071542
 30
0.0
 10
160.2847899989913
 20
13.44930826486684
 30
0.0
 10
159.5458170174052
 20
12.71033528328075
 30
0.0
 10
158.6349337711052
 20
12.71033528328075
 30
0.0
 10
157.7233615057081
 20
12.71033528328075
 30
0.0
 10
156.985077543219
 20
13.44930826486684
 30
0.0
 10
156.985077543219
 20
14.36053602071542
 30
0.0
 10
156.985077543219
 20
15.27193603133827
 30
0.0
 10
157.7233615057081
 20
16.0107367581501
 30
0.0
 10
158.6349337711052
 20
16.0107367581501
 30
0.0
 10
159.5458170174052
 20
16.0107367581501
 30
0.0
 10
160.2847899989913
 20
15.27193603133827
 30
0.0
 10
160.2847899989913
 20
14.36053602071542
 30
0.0
  0
ENDSEC
  0
SECTION
  2
OBJECTS
  0
DICTIONARY
  5
C
330
0
100
AcDbDictionary
  3
ACAD_GROUP
350
D
  3
ACAD_LAYOUT
350
1A
  3
ACAD_MLINESTYLE
350
17
  3
ACAD_PLOTSETTINGS
350
19
  3
ACAD_TABLESTYLE
350
64
  3
ACAD_VISUALSTYLE
350
2A
1001
ACAD
1000
TREAT_AS_HARD
1070
     0
  0
DICTIONARY
  5
D
102
{ACAD_REACTORS
330
C
102
}
330
C
100
AcDbDictionary
1001
ACAD
1000
TREAT_AS_HARD
1070
     0
  0
DICTIONARY
  5
1A
102
{ACAD_REACTORS
330
C
102
}
330
C
100
AcDbDictionary
1001
ACAD
1000
TREAT_AS_HARD
1070
     0
  0
DICTIONARY
  5
17
102
{ACAD_REACTORS
330
C
102
}
330
C
100
AcDbDictionary
  3
STANDARD
350
18
1001
ACAD
1000
TREAT_AS_HARD
1070
     0
  0
DICTIONARY
  5
19
102
{ACAD_REACTORS
330
C
102
}
330
C
100
AcDbDictionary
1001
ACAD
1000
TREAT_AS_HARD
1070
     0
  0
DICTIONARY
  5
64
102
{ACAD_REACTORS
330
C
102
}
330
C
100
AcDbDictionary
1001
ACAD
1000
TREAT_AS_HARD
1070
     0
  0
DICTIONARY
  5
2A
102
{ACAD_REACTORS
330
C
102
}
330
C
100
AcDbDictionary
  3
2DWIREFRAME
350
2F
  3
3D_HIDDEN
350
31
  3
3DWIREFRAME
350
30
  3
BASIC
350
32
  3
BRIGHTEN
350
36
  3
COLORCHANGE
350
3A
  3
CONCEPTUAL
350
34
  3
DIM
350
35
  3
FACEPATTERN
350
39
  3
FLAT
350
2B
  3
FLATWITHEDGES
350
2C
  3
GOURAUD
350
2D
  3
GOURAUDWITHEDGES
350
2E
  3
LINEPATTERN
350
38
  3
REALISTIC
350
33
  3
THICKEN
350
37
1001
ACAD
1000
TREAT_AS_HARD
1070
     0
  0
MLINESTYLE
  5
18
102
{ACAD_REACTORS
330
17
102
}
330
17
100
AcDbMlineStyle
  2
Standard
 70
     0
  3

 62
   256
 51
90.0
 52
90.0
 71
     2
 49
0.5
 62
   256
  6
BYLAYER
 49
-0.5
 62
   256
  6
BYLAYER
  0
VISUALSTYLE
  5
2F
102
{ACAD_REACTORS
330
2A
102
}
330
2A
100
AcDbVisualStyle
  2
2dWireframe
 70
     4
 71
     0
 72
     2
 73
     0
 90
        0
 40
-0.6
 41
-30.0
 62
     5
 63
     7
 74
     1
 91
        4
 64
     7
 65
   257
 75
     1
175
     1
 42
1.0
 92
        0
 66
   257
 43
1.0
 76
     1
 77
     6
 78
     2
 67
     7
 79
     5
170
     0
171
     0
290
     0
174
     0
 93
        1
 44
0.0
173
     0
291
     0
 45
0.0
1001
ACAD
1000
AcDbSavedByObjectVersion
1070
     0
  0
VISUALSTYLE
  5
31
102
{ACAD_REACTORS
330
2A
102
}
330
2A
100
AcDbVisualStyle
  2
3D Hidden
 70
     6
 71
     1
 72
     2
 73
     2
 90
        0
 40
-0.6
 41
-30.0
 62
     5
 63
     7
 74
     2
 91
        2
 64
     7
 65
   257
 75
     2
175
     1
 42
40.0
 92
        0
 66
   257
 43
1.0
 76
     1
 77
     6
 78
     2
 67
     7
 79
     3
170
     0
171
     0
290
     0
174
     0
 93
        1
 44
0.0
173
     0
291
     0
 45
0.0
1001
ACAD
1000
AcDbSavedByObjectVersion
1070
     0
  0
VISUALSTYLE
  5
30
102
{ACAD_REACTORS
330
2A
102
}
330
2A
100
AcDbVisualStyle
  2
3dWireframe
 70
     5
 71
     0
 72
     2
 73
     0
 90
        0
 40
-0.6
 41
-30.0
 62
     5
 63
     7
 74
     1
 91
        4
 64
     7
 65
   257
 75
     1
175
     1
 42
1.0
 92
        0
 66
   257
 43
1.0
 76
     1
 77
     6
 78
     2
 67
     7
 79
     5
170
     0
171
     0
290
     0
174
     0
 93
        1
 44
0.0
173
     0
291
     0
 45
0.0
1001
ACAD
1000
AcDbSavedByObjectVersion
1070
     0
  0
VISUALSTYLE
  5
32
102
{ACAD_REACTORS
330
2A
102
}
330
2A
100
AcDbVisualStyle
  2
Basic
 70
     7
 71
     1
 72
     0
 73
     1
 90
        0
 40
-0.6
 41
-30.0
 62
     5
 63
     7
 74
     0
 91
        4
 64
     7
 65
   257
 75
     1
175
     1
 42
1.0
 92
        8
 66
     7
 43
1.0
 76
     1
 77
     6
 78
     2
 67
     7
 79
     5
170
     0
171
     0
290
     0
174
     0
 93
        1
 44
0.0
173
     0
291
     1
 45
0.0
1001
ACAD
1000
AcDbSavedByObjectVersion
1070
     0
  0
VISUALSTYLE
  5
36
102
{ACAD_REACTORS
330
2A
102
}
330
2A
100
AcDbVisualStyle
  2
Brighten
 70
    12
 71
     2
 72
     2
 73
     0
 90
        0
 40
-0.6
 41
-30.0
 62
     5
 63
     7
 74
     1
 91
        4
 64
     7
 65
   257
 75
     1
175
     1
 42
1.0
 92
        8
 66
     7
 43
1.0
 76
     1
 77
     6
 78
     2
 67
     7
 79
     5
170
     0
171
     0
290
     0
174
     0
 93
        1
 44
50.0
173
     0
291
     1
 45
0.0
1001
ACAD
1000
AcDbSavedByObjectVersion
1070
     0
  0
VISUALSTYLE
  5
3A
102
{ACAD_REACTORS
330
2A
102
}
330
2A
100
AcDbVisualStyle
  2
ColorChange
 70
    16
 71
     2
 72
     2
 73
     3
 90
        0
 40
-0.6
 41
-30.0
 62
     5
 63
     8
 74
     1
 91
        4
 64
     7
 65
   257
 75
     1
175
     1
 42
1.0
 92
        8
 66
     8
 43
1.0
 76
     1
 77
     6
 78
     2
 67
     7
 79
     5
170
     0
171
     0
290
     0
174
     0
 93
        1
 44
0.0
173
     0
291
     1
 45
0.0
1001
ACAD
1000
AcDbSavedByObjectVersion
1070
     0
  0
VISUALSTYLE
  5
34
102
{ACAD_REACTORS
330
2A
102
}
330
2A
100
AcDbVisualStyle
  2
Conceptual
 70
     9
 71
     3
 72
     2
 73
     0
 90
        0
 40
-0.6
 41
-30.0
 62
     5
 63
     7
 74
     2
 91
        2
 64
     7
 65
   257
 75
     1
175
     1
 42
40.0
 92
        8
 66
     7
 43
1.0
 76
     1
 77
     6
 78
     2
 67
     7
 79
     3
170
     0
171
     0
290
     0
174
     0
 93
        1
 44
0.0
173
     0
291
     0
 45
0.0
1001
ACAD
1000
AcDbSavedByObjectVersion
1070
     0
  0
VISUALSTYLE
  5
35
102
{ACAD_REACTORS
330
2A
102
}
330
2A
100
AcDbVisualStyle
  2
Dim
 70
    11
 71
     2
 72
     2
 73
     0
 90
        0
 40
-0.6
 41
-30.0
 62
     5
 63
     7
 74
     1
 91
        4
 64
     7
 65
   257
 75
     1
175
     1
 42
1.0
 92
        8
 66
     7
 43
1.0
 76
     1
 77
     6
 78
     2
 67
     7
 79
     5
170
     0
171
     0
290
     0
174
     0
 93
        1
 44
-50.0
173
     0
291
     1
 45
0.0
1001
ACAD
1000
AcDbSavedByObjectVersion
1070
     0
  0
VISUALSTYLE
  5
39
102
{ACAD_REACTORS
330
2A
102
}
330
2A
100
AcDbVisualStyle
  2
Facepattern
 70
    15
 71
     2
 72
     2
 73
     0
 90
        0
 40
-0.6
 41
-30.0
 62
     5
 63
     7
 74
     1
 91
        4
 64
     7
 65
   257
 75
     1
175
     1
 42
1.0
 92
        8
 66
     7
 43
1.0
 76
     1
 77
     6
 78
     2
 67
     7
 79
     5
170
     0
171
     0
290
     0
174
     0
 93
        1
 44
0.0
173
     0
291
     1
 45
0.0
1001
ACAD
1000
AcDbSavedByObjectVersion
1070
     0
  0
VISUALSTYLE
  5
2B
102
{ACAD_REACTORS
330
2A
102
}
330
2A
100
AcDbVisualStyle
  2
Flat
 70
     0
 71
     2
 72
     1
 73
     1
 90
        2
 40
-0.6
 41
30.0
 62
     5
 63
     7
 74
     0
 91
        4
 64
     7
 65
   257
 75
     1
175
     1
 42
1.0
 92
        8
 66
     7
 43
1.0
 76
     1
 77
     6
 78
     2
 67
     7
 79
     5
170
     0
171
     0
290
     0
174
     0
 93
       13
 44
0.0
173
     0
291
     1
 45
0.0
1001
ACAD
1000
AcDbSavedByObjectVersion
1070
     0
  0
VISUALSTYLE
  5
2C
102
{ACAD_REACTORS
330
2A
102
}
330
2A
100
AcDbVisualStyle
  2
FlatWithEdges
 70
     1
 71
     2
 72
     1
 73
     1
 90
        2
 40
-0.6
 41
30.0
 62
     5
 63
     7
 74
     1
 91
        4
 64
     7
 65
   257
 75
     1
175
     1
 42
1.0
 92
        0
 66
   257
 43
1.0
 76
     1
 77
     6
 78
     2
 67
     7
 79
     5
170
     0
171
     0
290
     0
174
     0
 93
       13
 44
0.0
173
     0
291
     1
 45
0.0
1001
ACAD
1000
AcDbSavedByObjectVersion
1070
     0
  0
VISUALSTYLE
  5
2D
102
{ACAD_REACTORS
330
2A
102
}
330
2A
100
AcDbVisualStyle
  2
Gouraud
 70
     2
 71
     2
 72
     2
 73
     1
 90
        2
 40
-0.6
 41
30.0
 62
     5
 63
     7
 74
     0
 91
        4
 64
     7
 65
   257
 75
     1
175
     1
 42
1.0
 92
        0
 66
     7
 43
1.0
 76
     1
 77
     6
 78
     2
 67
     7
 79
     5
170
     0
171
     0
290
     0
174
     0
 93
       13
 44
0.0
173
     0
291
     1
 45
0.0
1001
ACAD
1000
AcDbSavedByObjectVersion
1070
     0
  0
VISUALSTYLE
  5
2E
102
{ACAD_REACTORS
330
2A
102
}
330
2A
100
AcDbVisualStyle
  2
GouraudWithEdges
 70
     3
 71
     2
 72
     2
 73
     1
 90
        2
 40
-0.6
 41
30.0
 62
     5
 63
     7
 74
     1
 91
        4
 64
     7
 65
   257
 75
     1
175
     1
 42
1.0
 92
        0
 66
   257
 43
1.0
 76
     1
 77
     6
 78
     2
 67
     7
 79
     5
170
     0
171
     0
290
     0
174
     0
 93
       13
 44
0.0
173
     0
291
     1
 45
0.0
1001
ACAD
1000
AcDbSavedByObjectVersion
1070
     0
  0
VISUALSTYLE
  5
38
102
{ACAD_REACTORS
330
2A
102
}
330
2A
100
AcDbVisualStyle
  2
Linepattern
 70
    14
 71
     2
 72
     2
 73
     0
 90
        0
 40
-0.6
 41
-30.0
 62
     5
 63
     7
 74
     1
 91
        4
 64
     7
 65
   257
 75
     7
175
     7
 42
1.0
 92
        8
 66
     7
 43
1.0
 76
     1
 77
     6
 78
     2
 67
     7
 79
     5
170
     0
171
     0
290
     0
174
     0
 93
        1
 44
0.0
173
     0
291
     1
 45
0.0
1001
ACAD
1000
AcDbSavedByObjectVersion
1070
     0
  0
VISUALSTYLE
  5
33
102
{ACAD_REACTORS
330
2A
102
}
330
2A
100
AcDbVisualStyle
  2
Realistic
 70
     8
 71
     2
 72
     2
 73
     0
 90
        0
 40
-0.6
 41
-30.0
 62
     5
 63
     7
 74
     1
 91
        0
 64
     7
 65
   257
 75
     1
175
     1
 42
1.0
 92
        8
 66
     8
 43
1.0
 76
     1
 77
     6
 78
     2
 67
     7
 79
     5
170
     0
171
     0
290
     0
174
     0
 93
       13
 44
0.0
173
     0
291
     0
 45
0.0
1001
ACAD
1000
AcDbSavedByObjectVersion
1070
     0
  0
VISUALSTYLE
  5
37
102
{ACAD_REACTORS
330
2A
102
}
330
2A
100
AcDbVisualStyle
  2
Thicken
 70
    13
 71
     2
 72
     2
 73
     0
 90
        0
 40
-0.6
 41
-30.0
 62
     5
 63
     7
 74
     1
 91
        4
 64
     7
 65
   257
 75
     1
175
     1
 42
1.0
 92
       12
 66
     7
 43
1.0
 76
     1
 77
     6
 78
     2
 67
     7
 79
     5
170
     0
171
     0
290
     0
174
     0
 93
        1
 44
0.0
173
     0
291
     1
 45
0.0
1001
ACAD
1000
AcDbSavedByObjectVersion
1070
     0
  0
ENDSEC
  0
EOF
