  0
SECTION
  2
HEADER
  9
$ACADVER
  1
AC1012
  9
$DWGCODEPAGE
  3
ansi_1252
  9
$INSBASE
 10
0.0
 20
0.0
 30
0.0
  9
$EXTMIN
 10
1.000000000000000E+20
 20
1.000000000000000E+20
 30
1.000000000000000E+20
  9
$EXTMAX
 10
-1.000000000000000E+20
 20
-1.000000000000000E+20
 30
-1.000000000000000E+20
  9
$LIMMIN
 10
0.0
 20
0.0
  9
$LIMMAX
 10
12.0
 20
9.0
  9
$ORTHOMODE
 70
     0
  9
$REGENMODE
 70
     1
  9
$FILLMODE
 70
     1
  9
$QTEXTMODE
 70
     0
  9
$MIRRTEXT
 70
     1
  9
$DRAGMODE
 70
     2
  9
$LTSCALE
 40
1.0
  9
$OSMODE
 70
    37
  9
$ATTMODE
 70
     1
  9
$TEXTSIZE
 40
0.2
  9
$TRACEWID
 40
0.05
  9
$TEXTSTYLE
  7
STANDARD
  9
$CLAYER
  8
0
  9
$CELTYPE
  6
BYLAYER
  9
$CECOLOR
 62
   256
  9
$CELTSCALE
 40
1.0
  9
$DELOBJ
 70
     1
  9
$DISPSILH
 70
     0
  9
$DIMSCALE
 40
1.0
  9
$DIMASZ
 40
0.18
  9
$DIMEXO
 40
0.0625
  9
$DIMDLI
 40
0.38
  9
$DIMRND
 40
0.0
  9
$DIMDLE
 40
0.0
  9
$DIMEXE
 40
0.18
  9
$DIMTP
 40
0.0
  9
$DIMTM
 40
0.0
  9
$DIMTXT
 40
0.18
  9
$DIMCEN
 40
0.09
  9
$DIMTSZ
 40
0.0
  9
$DIMTOL
 70
     0
  9
$DIMLIM
 70
     0
  9
$DIMTIH
 70
     1
  9
$DIMTOH
 70
     1
  9
$DIMSE1
 70
     0
  9
$DIMSE2
 70
     0
  9
$DIMTAD
 70
     0
  9
$DIMZIN
 70
     0
  9
$DIMBLK
  1

  9
$DIMASO
 70
     1
  9
$DIMSHO
 70
     1
  9
$DIMPOST
  1

  9
$DIMAPOST
  1

  9
$DIMALT
 70
     0
  9
$DIMALTD
 70
     2
  9
$DIMALTF
 40
25.4
  9
$DIMLFAC
 40
1.0
  9
$DIMTOFL
 70
     0
  9
$DIMTVP
 40
0.0
  9
$DIMTIX
 70
     0
  9
$DIMSOXD
 70
     0
  9
$DIMSAH
 70
     0
  9
$DIMBLK1
  1

  9
$DIMBLK2
  1

  9
$DIMSTYLE
  2
STANDARD
  9
$DIMCLRD
 70
     0
  9
$DIMCLRE
 70
     0
  9
$DIMCLRT
 70
     0
  9
$DIMTFAC
 40
1.0
  9
$DIMGAP
 40
0.09
  9
$DIMJUST
 70
     0
  9
$DIMSD1
 70
     0
  9
$DIMSD2
 70
     0
  9
$DIMTOLJ
 70
     1
  9
$DIMTZIN
 70
     0
  9
$DIMALTZ
 70
     0
  9
$DIMALTTZ
 70
     0
  9
$DIMFIT
 70
     3
  9
$DIMUPT
 70
     0
  9
$DIMUNIT
 70
     2
  9
$DIMDEC
 70
     4
  9
$DIMTDEC
 70
     4
  9
$DIMALTU
 70
     2
  9
$DIMALTTD
 70
     2
  9
$DIMTXSTY
  7
STANDARD
  9
$DIMAUNIT
 70
     0
  9
$LUNITS
 70
     2
  9
$LUPREC
 70
     4
  9
$SKETCHINC
 40
0.1
  9
$FILLETRAD
 40
0.5
  9
$AUNITS
 70
     0
  9
$AUPREC
 70
     0
  9
$MENU
  1
.
  9
$ELEVATION
 40
0.0
  9
$PELEVATION
 40
0.0
  9
$THICKNESS
 40
0.0
  9
$LIMCHECK
 70
     0
  9
$CHAMFERA
 40
0.5
  9
$CHAMFERB
 40
0.5
  9
$CHAMFERC
 40
1.0
  9
$CHAMFERD
 40
0.0
  9
$SKPOLY
 70
     0
  9
$TDCREATE
 40
2456592.838988611
  9
$TDUPDATE
 40
2456592.838988623
  9
$TDINDWG
 40
0.0000000116
  9
$TDUSRTIMER
 40
0.0000000116
  9
$USRTIMER
 70
     1
  9
$ANGBASE
 50
0.0
  9
$ANGDIR
 70
     0
  9
$PDMODE
 70
     0
  9
$PDSIZE
 40
0.0
  9
$PLINEWID
 40
0.0
  9
$COORDS
 70
     1
  9
$SPLFRAME
 70
     0
  9
$SPLINETYPE
 70
     6
  9
$SPLINESEGS
 70
     8
  9
$ATTDIA
 70
     0
  9
$ATTREQ
 70
     1
  9
$HANDLING
 70
     1
  9
$HANDSEED
  5
95
  9
$SURFTAB1
 70
     6
  9
$SURFTAB2
 70
     6
  9
$SURFTYPE
 70
     6
  9
$SURFU
 70
     6
  9
$SURFV
 70
     6
  9
$UCSNAME
  2

  9
$UCSORG
 10
0.0
 20
0.0
 30
0.0
  9
$UCSXDIR
 10
1.0
 20
0.0
 30
0.0
  9
$UCSYDIR
 10
0.0
 20
1.0
 30
0.0
  9
$PUCSNAME
  2

  9
$PUCSORG
 10
0.0
 20
0.0
 30
0.0
  9
$PUCSXDIR
 10
1.0
 20
0.0
 30
0.0
  9
$PUCSYDIR
 10
0.0
 20
1.0
 30
0.0
  9
$USERI1
 70
     0
  9
$USERI2
 70
     0
  9
$USERI3
 70
     0
  9
$USERI4
 70
     0
  9
$USERI5
 70
     0
  9
$USERR1
 40
0.0
  9
$USERR2
 40
0.0
  9
$USERR3
 40
0.0
  9
$USERR4
 40
0.0
  9
$USERR5
 40
0.0
  9
$WORLDVIEW
 70
     1
  9
$SHADEDGE
 70
     3
  9
$SHADEDIF
 70
    70
  9
$TILEMODE
 70
     1
  9
$MAXACTVP
 70
    64
  9
$PINSBASE
 10
0.0
 20
0.0
 30
0.0
  9
$PLIMCHECK
 70
     0
  9
$PEXTMIN
 10
1.000000000000000E+20
 20
1.000000000000000E+20
 30
1.000000000000000E+20
  9
$PEXTMAX
 10
-1.000000000000000E+20
 20
-1.000000000000000E+20
 30
-1.000000000000000E+20
  9
$PLIMMIN
 10
0.0
 20
0.0
  9
$PLIMMAX
 10
12.0
 20
9.0
  9
$UNITMODE
 70
     0
  9
$VISRETAIN
 70
     1
  9
$PLINEGEN
 70
     0
  9
$PSLTSCALE
 70
     1
  9
$TREEDEPTH
 70
  3020
  9
$PICKSTYLE
 70
     1
  9
$CMLSTYLE
  2
STANDARD
  9
$CMLJUST
 70
     0
  9
$CMLSCALE
 40
1.0
  9
$SAVEIMAGES
 70
     1
  0
ENDSEC
  0
SECTION
  2
CLASSES
  0
CLASS
  1
ACDBDICTIONARYWDFLT
  2
AcDbDictionaryWithDefault
  3
ObjectDBX Classes
 90
    32768
280
     0
281
     0
  0
CLASS
  1
VISUALSTYLE
  2
AcDbVisualStyle
  3
ObjectDBX Classes
 90
     4095
280
     0
281
     0
  0
CLASS
  1
XRECORD
  2
AcDbXrecord
  3
AutoCAD 2000
 90
    32768
280
     0
281
     0
  0
CLASS
  1
LWPOLYLINE
  2
AcDbPolyline
  3
AutoCAD 2000
 90
    32768
280
     0
281
     1
  0
CLASS
  1
HATCH
  2
AcDbHatch
  3
AutoCAD 2000
 90
    32768
280
     0
281
     1
  0
CLASS
  1
ACDBPLACEHOLDER
  2
AcDbPlaceHolder
  3
ObjectDBX Classes
 90
        0
280
     0
281
     0
  0
CLASS
  1
LAYOUT
  2
AcDbLayout
  3
ObjectDBX Classes
 90
        0
280
     0
281
     0
  0
ENDSEC
  0
SECTION
  2
TABLES
  0
TABLE
  2
VPORT
  5
8
330
0
100
AcDbSymbolTable
 70
     1
  0
VPORT
  5
29
330
8
100
AcDbSymbolTableRecord
100
AcDbViewportTableRecord
  2
*ACTIVE
 70
     0
 10
0.0
 20
0.0
 11
1.0
 21
1.0
 12
0.0
 22
0.0
 13
0.0
 23
0.0
 14
0.5
 24
0.5
 15
0.5
 25
0.5
 16
0.0
 26
0.0
 36
1.0
 17
148.4999796178229
 27
-105.0008259828644
 37
0.0
 40
210.0016519657288
 41
1.414274394775308
 42
50.0
 43
0.0
 44
0.0
 50
0.0
 51
0.0
 71
     0
 72
   100
 73
     1
 74
     3
 75
     0
 76
     0
 77
     0
 78
     0
  0
ENDTAB
  0
TABLE
  2
LTYPE
  5
5
330
0
100
AcDbSymbolTable
 70
     1
  0
LTYPE
  5
14
330
5
100
AcDbSymbolTableRecord
100
AcDbLinetypeTableRecord
  2
BYBLOCK
 70
     0
  3

 72
    65
 73
     0
 40
0.0
  0
LTYPE
  5
15
330
5
100
AcDbSymbolTableRecord
100
AcDbLinetypeTableRecord
  2
BYLAYER
 70
     0
  3

 72
    65
 73
     0
 40
0.0
  0
LTYPE
  5
16
330
5
100
AcDbSymbolTableRecord
100
AcDbLinetypeTableRecord
  2
CONTINUOUS
 70
     0
  3
Solid line
 72
    65
 73
     0
 40
0.0
  0
ENDTAB
  0
TABLE
  2
LAYER
  5
2
330
0
100
AcDbSymbolTable
 70
     2
  0
LAYER
  5
10
330
2
100
AcDbSymbolTableRecord
100
AcDbLayerTableRecord
  2
0
 70
     0
 62
     7
  6
CONTINUOUS
  0
LAYER
  5
3B
330
2
100
AcDbSymbolTableRecord
100
AcDbLayerTableRecord
  2
LAYER_1
 70
     0
 62
     7
  6
CONTINUOUS
  0
ENDTAB
  0
TABLE
  2
STYLE
  5
3
330
0
100
AcDbSymbolTable
 70
     1
  0
STYLE
  5
11
330
3
100
AcDbSymbolTableRecord
100
AcDbTextStyleTableRecord
  2
STANDARD
 70
     0
 40
0.0
 41
1.0
 50
0.0
 71
     0
 42
0.2
  3
txt
  4

  0
ENDTAB
  0
TABLE
  2
VIEW
  5
6
330
0
100
AcDbSymbolTable
 70
     0
  0
ENDTAB
  0
TABLE
  2
UCS
  5
7
330
0
100
AcDbSymbolTable
 70
     0
  0
ENDTAB
  0
TABLE
  2
APPID
  5
9
330
0
100
AcDbSymbolTable
 70
     1
  0
APPID
  5
12
330
9
100
AcDbSymbolTableRecord
100
AcDbRegAppTableRecord
  2
ACAD
 70
     0
  0
ENDTAB
  0
TABLE
  2
DIMSTYLE
  5
A
330
0
100
AcDbSymbolTable
 70
     1
  0
DIMSTYLE
105
27
330
A
100
AcDbSymbolTableRecord
100
AcDbDimStyleTableRecord
  2
STANDARD
 70
     0
  3

  4

  5

  6

  7

 40
1.0
 41
0.18
 42
0.0625
 43
0.38
 44
0.18
 45
0.0
 46
0.0
 47
0.0
 48
0.0
140
0.18
141
0.09
142
0.0
143
25.4
144
1.0
145
0.0
146
1.0
147
0.09
 71
     0
 72
     0
 73
     1
 74
     1
 75
     0
 76
     0
 77
     0
 78
     0
170
     0
171
     2
172
     0
173
     0
174
     0
175
     0
176
     0
177
     0
178
     0
270
     2
271
     4
272
     4
273
     2
274
     2
340
11
275
     0
280
     0
281
     0
282
     0
283
     1
284
     0
285
     0
286
     0
287
     3
288
     0
  0
ENDTAB
  0
TABLE
  2
BLOCK_RECORD
  5
1
330
0
100
AcDbSymbolTable
 70
    12
  0
BLOCK_RECORD
  5
1F
330
1
100
AcDbSymbolTableRecord
100
AcDbBlockTableRecord
  2
*MODEL_SPACE
  0
BLOCK_RECORD
  5
1B
330
1
100
AcDbSymbolTableRecord
100
AcDbBlockTableRecord
  2
*PAPER_SPACE
  0
BLOCK_RECORD
  5
3C
330
1
100
AcDbSymbolTableRecord
100
AcDbBlockTableRecord
  2
BLOCK_2
  0
BLOCK_RECORD
  5
47
330
1
100
AcDbSymbolTableRecord
100
AcDbBlockTableRecord
  2
BLOCK_3
  0
BLOCK_RECORD
  5
57
330
1
100
AcDbSymbolTableRecord
100
AcDbBlockTableRecord
  2
BLOCK_4
  0
BLOCK_RECORD
  5
5D
330
1
100
AcDbSymbolTableRecord
100
AcDbBlockTableRecord
  2
BLOCK_5
  0
BLOCK_RECORD
  5
63
330
1
100
AcDbSymbolTableRecord
100
AcDbBlockTableRecord
  2
BLOCK_6
  0
BLOCK_RECORD
  5
69
330
1
100
AcDbSymbolTableRecord
100
AcDbBlockTableRecord
  2
BLOCK_7
  0
BLOCK_RECORD
  5
6F
330
1
100
AcDbSymbolTableRecord
100
AcDbBlockTableRecord
  2
BLOCK_8
  0
BLOCK_RECORD
  5
75
330
1
100
AcDbSymbolTableRecord
100
AcDbBlockTableRecord
  2
BLOCK_9
  0
BLOCK_RECORD
  5
7B
330
1
100
AcDbSymbolTableRecord
100
AcDbBlockTableRecord
  2
BLOCK_10
  0
BLOCK_RECORD
  5
88
330
1
100
AcDbSymbolTableRecord
100
AcDbBlockTableRecord
  2
BLOCK_11
  0
BLOCK_RECORD
  5
8E
330
1
100
AcDbSymbolTableRecord
100
AcDbBlockTableRecord
  2
BLOCK_12
  0
ENDTAB
  0
ENDSEC
  0
SECTION
  2
BLOCKS
  0
BLOCK
  5
20
330
1F
100
AcDbEntity
  8
0
100
AcDbBlockBegin
  2
*MODEL_SPACE
 70
     0
 71
     0
 10
0.0
 20
0.0
 30
0.0
  3
*MODEL_SPACE
  1

  0
ENDBLK
  5
21
330
1F
100
AcDbEntity
  8
0
100
AcDbBlockEnd
  0
BLOCK
  5
1C
330
1B
100
AcDbEntity
 67
     1
  8
0
100
AcDbBlockBegin
  2
*PAPER_SPACE
 70
     0
 71
     0
 10
0.0
 20
0.0
 30
0.0
  3
*PAPER_SPACE
  1

  0
ENDBLK
  5
1D
330
1B
100
AcDbEntity
 67
     1
  8
0
100
AcDbBlockEnd
  0
BLOCK
  5
3E
330
3C
100
AcDbEntity
  8
0
100
AcDbBlockBegin
  2
BLOCK_2
 70
     0
 71
     0
 10
0.0
 20
0.0
 30
0.0
  3
BLOCK_2
  1

  0
SPLINE
  5
40
330
3C
100
AcDbEntity
  8
LAYER_1
 62
     7
100
AcDbSpline
210
0.0
220
0.0
230
1.0
 70
    11
 71
     3
 72
    29
 73
    25
 74
     0
 42
0.0000000001
 43
0.0000000001
 40
0.0
 40
0.0
 40
0.0
 40
0.0
 40
1.0
 40
1.0
 40
1.0
 40
2.0
 40
2.0
 40
2.0
 40
3.0
 40
3.0
 40
3.0
 40
4.0
 40
4.0
 40
4.0
 40
5.0
 40
5.0
 40
5.0
 40
6.0
 40
6.0
 40
6.0
 40
7.0
 40
7.0
 40
7.0
 40
8.0
 40
8.0
 40
8.0
 40
8.0
 10
32.45417750924757
 20
6.505029295248743
 30
0.0
 10
32.45417750924757
 20
5.680273436079932
 30
0.0
 10
31.77928330368713
 20
5.005034720970964
 30
0.0
 10
30.95418293496979
 20
5.005034720970964
 30
0.0
 10
30.95418293496979
 20
5.005034720970964
 30
0.0
 10
8.954147675712852
 20
5.005034720970964
 30
0.0
 10
8.954147675712852
 20
5.005034720970964
 30
0.0
 10
8.129219561769778
 20
5.005034720970964
 30
0.0
 10
7.454153101435073
 20
5.680273436079932
 30
0.0
 10
7.454153101435073
 20
6.505029295248743
 30
0.0
 10
7.454153101435073
 20
6.505029295248743
 30
0.0
 10
7.454153101435073
 20
31.50505370306124
 30
0.0
 10
7.454153101435073
 20
31.50505370306124
 30
0.0
 10
7.454153101435073
 20
32.32998181700431
 30
0.0
 10
8.129219561769778
 20
33.00504827733901
 30
0.0
 10
8.954147675712852
 20
33.00504827733901
 30
0.0
 10
8.954147675712852
 20
33.00504827733901
 30
0.0
 10
30.95418293496979
 20
33.00504827733901
 30
0.0
 10
30.95418293496979
 20
33.00504827733901
 30
0.0
 10
31.77928330368713
 20
33.00504827733901
 30
0.0
 10
32.45417750924757
 20
32.32998181700431
 30
0.0
 10
32.45417750924757
 20
31.50505370306124
 30
0.0
 10
32.45417750924757
 20
31.50505370306124
 30
0.0
 10
32.45417750924757
 20
6.505029295248743
 30
0.0
 10
32.45417750924757
 20
6.505029295248743
 30
0.0
  0
SPLINE
  5
41
330
3C
100
AcDbEntity
  8
LAYER_1
 62
     7
100
AcDbSpline
210
0.0
220
0.0
230
1.0
 70
    11
 71
     3
 72
    29
 73
    25
 74
     0
 42
0.0000000001
 43
0.0000000001
 40
0.0
 40
0.0
 40
0.0
 40
0.0
 40
1.0
 40
1.0
 40
1.0
 40
2.0
 40
2.0
 40
2.0
 40
3.0
 40
3.0
 40
3.0
 40
4.0
 40
4.0
 40
4.0
 40
5.0
 40
5.0
 40
5.0
 40
6.0
 40
6.0
 40
6.0
 40
7.0
 40
7.0
 40
7.0
 40
8.0
 40
8.0
 40
8.0
 40
8.0
 10
60.47245007168745
 20
6.505029295248743
 30
0.0
 10
60.47245007168745
 20
5.680273436079932
 30
0.0
 10
59.79755586612701
 20
5.005034720970964
 30
0.0
 10
58.97245549740967
 20
5.005034720970964
 30
0.0
 10
58.97245549740967
 20
5.005034720970964
 30
0.0
 10
36.97242023815273
 20
5.005034720970964
 30
0.0
 10
36.97242023815273
 20
5.005034720970964
 30
0.0
 10
36.14749212420966
 20
5.005034720970964
 30
0.0
 10
35.47242566387495
 20
5.680273436079932
 30
0.0
 10
35.47242566387495
 20
6.505029295248743
 30
0.0
 10
35.47242566387495
 20
6.505029295248743
 30
0.0
 10
35.47242566387495
 20
31.50505370306124
 30
0.0
 10
35.47242566387495
 20
31.50505370306124
 30
0.0
 10
35.47242566387495
 20
32.32998181700431
 30
0.0
 10
36.14749212420966
 20
33.00504827733901
 30
0.0
 10
36.97242023815273
 20
33.00504827733901
 30
0.0
 10
36.97242023815273
 20
33.00504827733901
 30
0.0
 10
58.97245549740967
 20
33.00504827733901
 30
0.0
 10
58.97245549740967
 20
33.00504827733901
 30
0.0
 10
59.79755586612701
 20
33.00504827733901
 30
0.0
 10
60.47245007168745
 20
32.32998181700431
 30
0.0
 10
60.47245007168745
 20
31.50505370306124
 30
0.0
 10
60.47245007168745
 20
31.50505370306124
 30
0.0
 10
60.47245007168745
 20
6.505029295248743
 30
0.0
 10
60.47245007168745
 20
6.505029295248743
 30
0.0
  0
SPLINE
  5
42
330
3C
100
AcDbEntity
  8
LAYER_1
 62
     7
100
AcDbSpline
210
0.0
220
0.0
230
1.0
 70
    11
 71
     3
 72
    29
 73
    25
 74
     0
 42
0.0000000001
 43
0.0000000001
 40
0.0
 40
0.0
 40
0.0
 40
0.0
 40
1.0
 40
1.0
 40
1.0
 40
2.0
 40
2.0
 40
2.0
 40
3.0
 40
3.0
 40
3.0
 40
4.0
 40
4.0
 40
4.0
 40
5.0
 40
5.0
 40
5.0
 40
6.0
 40
6.0
 40
6.0
 40
7.0
 40
7.0
 40
7.0
 40
8.0
 40
8.0
 40
8.0
 40
8.0
 10
88.49089488890158
 20
6.505029295248743
 30
0.0
 10
88.49089488890158
 20
5.680273436079932
 30
0.0
 10
87.81600068334114
 20
5.005034720970964
 30
0.0
 10
86.9909003146238
 20
5.005034720970964
 30
0.0
 10
86.9909003146238
 20
5.005034720970964
 30
0.0
 10
64.99086505536687
 20
5.005034720970964
 30
0.0
 10
64.99086505536687
 20
5.005034720970964
 30
0.0
 10
64.1659369414238
 20
5.005034720970964
 30
0.0
 10
63.49087048108909
 20
5.680273436079932
 30
0.0
 10
63.49087048108909
 20
6.505029295248743
 30
0.0
 10
63.49087048108909
 20
6.505029295248743
 30
0.0
 10
63.49087048108909
 20
31.50505370306124
 30
0.0
 10
63.49087048108909
 20
31.50505370306124
 30
0.0
 10
63.49087048108909
 20
32.32998181700431
 30
0.0
 10
64.1659369414238
 20
33.00504827733901
 30
0.0
 10
64.99086505536687
 20
33.00504827733901
 30
0.0
 10
64.99086505536687
 20
33.00504827733901
 30
0.0
 10
86.9909003146238
 20
33.00504827733901
 30
0.0
 10
86.9909003146238
 20
33.00504827733901
 30
0.0
 10
87.81600068334114
 20
33.00504827733901
 30
0.0
 10
88.49089488890158
 20
32.32998181700431
 30
0.0
 10
88.49089488890158
 20
31.50505370306124
 30
0.0
 10
88.49089488890158
 20
31.50505370306124
 30
0.0
 10
88.49089488890158
 20
6.505029295248743
 30
0.0
 10
88.49089488890158
 20
6.505029295248743
 30
0.0
  0
SPLINE
  5
43
330
3C
100
AcDbEntity
  8
LAYER_1
 62
     7
100
AcDbSpline
210
0.0
220
0.0
230
1.0
 70
    11
 71
     3
 72
    29
 73
    25
 74
     0
 42
0.0000000001
 43
0.0000000001
 40
0.0
 40
0.0
 40
0.0
 40
0.0
 40
1.0
 40
1.0
 40
1.0
 40
2.0
 40
2.0
 40
2.0
 40
3.0
 40
3.0
 40
3.0
 40
4.0
 40
4.0
 40
4.0
 40
5.0
 40
5.0
 40
5.0
 40
6.0
 40
6.0
 40
6.0
 40
7.0
 40
7.0
 40
7.0
 40
8.0
 40
8.0
 40
8.0
 40
8.0
 10
172.5458848309955
 20
6.505029295248743
 30
0.0
 10
172.5458848309955
 20
5.680273436079932
 30
0.0
 10
171.870990625435
 20
5.005034720970964
 30
0.0
 10
171.0458902567177
 20
5.005034720970964
 30
0.0
 10
171.0458902567177
 20
5.005034720970964
 30
0.0
 10
149.0458549974608
 20
5.005034720970964
 30
0.0
 10
149.0458549974608
 20
5.005034720970964
 30
0.0
 10
148.2207546287434
 20
5.005034720970964
 30
0.0
 10
147.545860423183
 20
5.680273436079932
 30
0.0
 10
147.545860423183
 20
6.505029295248743
 30
0.0
 10
147.545860423183
 20
6.505029295248743
 30
0.0
 10
147.545860423183
 20
31.50505370306124
 30
0.0
 10
147.545860423183
 20
31.50505370306124
 30
0.0
 10
147.545860423183
 20
32.32998181700431
 30
0.0
 10
148.2207546287434
 20
33.00504827733901
 30
0.0
 10
149.0458549974608
 20
33.00504827733901
 30
0.0
 10
149.0458549974608
 20
33.00504827733901
 30
0.0
 10
171.0458902567177
 20
33.00504827733901
 30
0.0
 10
171.0458902567177
 20
33.00504827733901
 30
0.0
 10
171.870990625435
 20
33.00504827733901
 30
0.0
 10
172.5458848309955
 20
32.32998181700431
 30
0.0
 10
172.5458848309955
 20
31.50505370306124
 30
0.0
 10
172.5458848309955
 20
31.50505370306124
 30
0.0
 10
172.5458848309955
 20
6.505029295248743
 30
0.0
 10
172.5458848309955
 20
6.505029295248743
 30
0.0
  0
SPLINE
  5
44
330
3C
100
AcDbEntity
  8
LAYER_1
 62
     7
100
AcDbSpline
210
0.0
220
0.0
230
1.0
 70
    11
 71
     3
 72
    29
 73
    25
 74
     0
 42
0.0000000001
 43
0.0000000001
 40
0.0
 40
0.0
 40
0.0
 40
0.0
 40
1.0
 40
1.0
 40
1.0
 40
2.0
 40
2.0
 40
2.0
 40
3.0
 40
3.0
 40
3.0
 40
4.0
 40
4.0
 40
4.0
 40
5.0
 40
5.0
 40
5.0
 40
6.0
 40
6.0
 40
6.0
 40
7.0
 40
7.0
 40
7.0
 40
8.0
 40
8.0
 40
8.0
 40
8.0
 10
116.5093397061157
 20
6.505029295248743
 30
0.0
 10
116.5093397061157
 20
5.680273436079932
 30
0.0
 10
115.8344455005553
 20
5.005034720970964
 30
0.0
 10
115.0093451318379
 20
5.005034720970964
 30
0.0
 10
115.0093451318379
 20
5.005034720970964
 30
0.0
 10
93.00930987258101
 20
5.005034720970964
 30
0.0
 10
93.00930987258101
 20
5.005034720970964
 30
0.0
 10
92.18420950386367
 20
5.005034720970964
 30
0.0
 10
91.50931529830324
 20
5.680273436079932
 30
0.0
 10
91.50931529830324
 20
6.505029295248743
 30
0.0
 10
91.50931529830324
 20
6.505029295248743
 30
0.0
 10
91.50931529830324
 20
31.50505370306124
 30
0.0
 10
91.50931529830324
 20
31.50505370306124
 30
0.0
 10
91.50931529830324
 20
32.32998181700431
 30
0.0
 10
92.18420950386367
 20
33.00504827733901
 30
0.0
 10
93.00930987258101
 20
33.00504827733901
 30
0.0
 10
93.00930987258101
 20
33.00504827733901
 30
0.0
 10
115.0093451318379
 20
33.00504827733901
 30
0.0
 10
115.0093451318379
 20
33.00504827733901
 30
0.0
 10
115.8344455005553
 20
33.00504827733901
 30
0.0
 10
116.5093397061157
 20
32.32998181700431
 30
0.0
 10
116.5093397061157
 20
31.50505370306124
 30
0.0
 10
116.5093397061157
 20
31.50505370306124
 30
0.0
 10
116.5093397061157
 20
6.505029295248743
 30
0.0
 10
116.5093397061157
 20
6.505029295248743
 30
0.0
  0
SPLINE
  5
45
330
3C
100
AcDbEntity
  8
LAYER_1
 62
     7
100
AcDbSpline
210
0.0
220
0.0
230
1.0
 70
    11
 71
     3
 72
    29
 73
    25
 74
     0
 42
0.0000000001
 43
0.0000000001
 40
0.0
 40
0.0
 40
0.0
 40
0.0
 40
1.0
 40
1.0
 40
1.0
 40
2.0
 40
2.0
 40
2.0
 40
3.0
 40
3.0
 40
3.0
 40
4.0
 40
4.0
 40
4.0
 40
5.0
 40
5.0
 40
5.0
 40
6.0
 40
6.0
 40
6.0
 40
7.0
 40
7.0
 40
7.0
 40
8.0
 40
8.0
 40
8.0
 40
8.0
 10
144.5276122685556
 20
6.505373804797268
 30
0.0
 10
144.5276122685556
 20
5.680617945628457
 30
0.0
 10
143.8527180629952
 20
5.005379230519488
 30
0.0
 10
143.0276176942778
 20
5.005379230519488
 30
0.0
 10
143.0276176942778
 20
5.005379230519488
 30
0.0
 10
121.0275824350209
 20
5.005379230519488
 30
0.0
 10
121.0275824350209
 20
5.005379230519488
 30
0.0
 10
120.2024820663035
 20
5.005379230519488
 30
0.0
 10
119.5275878607431
 20
5.680617945628457
 30
0.0
 10
119.5275878607431
 20
6.505373804797268
 30
0.0
 10
119.5275878607431
 20
6.505373804797268
 30
0.0
 10
119.5275878607431
 20
31.50505370306124
 30
0.0
 10
119.5275878607431
 20
31.50505370306124
 30
0.0
 10
119.5275878607431
 20
32.32998181700431
 30
0.0
 10
120.2024820663035
 20
33.00504827733901
 30
0.0
 10
121.0275824350209
 20
33.00504827733901
 30
0.0
 10
121.0275824350209
 20
33.00504827733901
 30
0.0
 10
143.0276176942778
 20
33.00504827733901
 30
0.0
 10
143.0276176942778
 20
33.00504827733901
 30
0.0
 10
143.8527180629952
 20
33.00504827733901
 30
0.0
 10
144.5276122685556
 20
32.32998181700431
 30
0.0
 10
144.5276122685556
 20
31.50505370306124
 30
0.0
 10
144.5276122685556
 20
31.50505370306124
 30
0.0
 10
144.5276122685556
 20
6.505373804797268
 30
0.0
 10
144.5276122685556
 20
6.505373804797268
 30
0.0
  0
ENDBLK
  5
3F
330
3C
100
AcDbEntity
  8
0
100
AcDbBlockEnd
  0
BLOCK
  5
49
330
47
100
AcDbEntity
  8
0
100
AcDbBlockBegin
  2
BLOCK_3
 70
     0
 71
     0
 10
0.0
 20
0.0
 30
0.0
  3
BLOCK_3
  1

  0
SPLINE
  5
4B
330
47
100
AcDbEntity
  8
LAYER_1
 62
     7
100
AcDbSpline
210
0.0
220
0.0
230
1.0
 70
    11
 71
     3
 72
    41
 73
    37
 74
     0
 42
0.0000000001
 43
0.0000000001
 40
0.0
 40
0.0
 40
0.0
 40
0.0
 40
1.0
 40
1.0
 40
1.0
 40
2.0
 40
2.0
 40
2.0
 40
3.0
 40
3.0
 40
3.0
 40
4.0
 40
4.0
 40
4.0
 40
5.0
 40
5.0
 40
5.0
 40
6.0
 40
6.0
 40
6.0
 40
7.0
 40
7.0
 40
7.0
 40
8.0
 40
8.0
 40
8.0
 40
9.0
 40
9.0
 40
9.0
 40
10.0
 40
10.0
 40
10.0
 40
11.0
 40
11.0
 40
11.0
 40
12.0
 40
12.0
 40
12.0
 40
12.0
 10
30.95418293496979
 20
33.00504827733901
 30
0.0
 10
30.95418293496979
 20
33.00504827733901
 30
0.0
 10
29.95424397037602
 20
33.00504827733901
 30
0.0
 10
29.95424397037602
 20
33.00504827733901
 30
0.0
 10
29.95424397037602
 20
33.00504827733901
 30
0.0
 10
29.95424397037602
 20
64.91111109488334
 30
0.0
 10
29.95424397037602
 20
64.91111109488334
 30
0.0
 10
29.95424397037602
 20
64.91111109488334
 30
0.0
 10
9.954086640306617
 20
64.91111109488334
 30
0.0
 10
9.954086640306617
 20
64.91111109488334
 30
0.0
 10
9.954086640306617
 20
64.91111109488334
 30
0.0
 10
9.954086640306617
 20
33.00504827733901
 30
0.0
 10
9.954086640306617
 20
33.00504827733901
 30
0.0
 10
9.954086640306617
 20
33.00504827733901
 30
0.0
 10
8.954147675712852
 20
33.00504827733901
 30
0.0
 10
8.954147675712852
 20
33.00504827733901
 30
0.0
 10
8.129219561769778
 20
33.00504827733901
 30
0.0
 10
7.454153101435073
 20
32.32998181700431
 30
0.0
 10
7.454153101435073
 20
31.50505370306124
 30
0.0
 10
7.454153101435073
 20
31.50505370306124
 30
0.0
 10
7.454153101435073
 20
6.505029295248743
 30
0.0
 10
7.454153101435073
 20
6.505029295248743
 30
0.0
 10
7.454153101435073
 20
5.680273436079932
 30
0.0
 10
8.129219561769778
 20
5.005034720970964
 30
0.0
 10
8.954147675712852
 20
5.005034720970964
 30
0.0
 10
8.954147675712852
 20
5.005034720970964
 30
0.0
 10
30.95418293496979
 20
5.005034720970964
 30
0.0
 10
30.95418293496979
 20
5.005034720970964
 30
0.0
 10
31.77928330368713
 20
5.005034720970964
 30
0.0
 10
32.45417750924757
 20
5.680273436079932
 30
0.0
 10
32.45417750924757
 20
6.505029295248743
 30
0.0
 10
32.45417750924757
 20
6.505029295248743
 30
0.0
 10
32.45417750924757
 20
31.50505370306124
 30
0.0
 10
32.45417750924757
 20
31.50505370306124
 30
0.0
 10
32.45417750924757
 20
32.32998181700431
 30
0.0
 10
31.77928330368713
 20
33.00504827733901
 30
0.0
 10
30.95418293496979
 20
33.00504827733901
 30
0.0
  0
SPLINE
  5
4C
330
47
100
AcDbEntity
  8
LAYER_1
 62
     7
100
AcDbSpline
210
0.0
220
0.0
230
1.0
 70
    11
 71
     3
 72
    41
 73
    37
 74
     0
 42
0.0000000001
 43
0.0000000001
 40
0.0
 40
0.0
 40
0.0
 40
0.0
 40
1.0
 40
1.0
 40
1.0
 40
2.0
 40
2.0
 40
2.0
 40
3.0
 40
3.0
 40
3.0
 40
4.0
 40
4.0
 40
4.0
 40
5.0
 40
5.0
 40
5.0
 40
6.0
 40
6.0
 40
6.0
 40
7.0
 40
7.0
 40
7.0
 40
8.0
 40
8.0
 40
8.0
 40
9.0
 40
9.0
 40
9.0
 40
10.0
 40
10.0
 40
10.0
 40
11.0
 40
11.0
 40
11.0
 40
12.0
 40
12.0
 40
12.0
 40
12.0
 10
58.97245549740967
 20
33.00504827733901
 30
0.0
 10
58.97245549740967
 20
33.00504827733901
 30
0.0
 10
57.97268878759017
 20
33.00504827733901
 30
0.0
 10
57.97268878759017
 20
33.00504827733901
 30
0.0
 10
57.97268878759017
 20
33.00504827733901
 30
0.0
 10
57.97268878759017
 20
64.91111109488334
 30
0.0
 10
57.97268878759017
 20
64.91111109488334
 30
0.0
 10
57.97268878759017
 20
64.91111109488334
 30
0.0
 10
37.9723592027465
 20
64.91111109488334
 30
0.0
 10
37.9723592027465
 20
64.91111109488334
 30
0.0
 10
37.9723592027465
 20
64.91111109488334
 30
0.0
 10
37.9723592027465
 20
33.00504827733901
 30
0.0
 10
37.9723592027465
 20
33.00504827733901
 30
0.0
 10
37.9723592027465
 20
33.00504827733901
 30
0.0
 10
36.97242023815273
 20
33.00504827733901
 30
0.0
 10
36.97242023815273
 20
33.00504827733901
 30
0.0
 10
36.14749212420966
 20
33.00504827733901
 30
0.0
 10
35.47242566387495
 20
32.32998181700431
 30
0.0
 10
35.47242566387495
 20
31.50505370306124
 30
0.0
 10
35.47242566387495
 20
31.50505370306124
 30
0.0
 10
35.47242566387495
 20
6.505029295248743
 30
0.0
 10
35.47242566387495
 20
6.505029295248743
 30
0.0
 10
35.47242566387495
 20
5.680273436079932
 30
0.0
 10
36.14749212420966
 20
5.005034720970964
 30
0.0
 10
36.97242023815273
 20
5.005034720970964
 30
0.0
 10
36.97242023815273
 20
5.005034720970964
 30
0.0
 10
58.97245549740967
 20
5.005034720970964
 30
0.0
 10
58.97245549740967
 20
5.005034720970964
 30
0.0
 10
59.79755586612701
 20
5.005034720970964
 30
0.0
 10
60.47245007168745
 20
5.680273436079932
 30
0.0
 10
60.47245007168745
 20
6.505029295248743
 30
0.0
 10
60.47245007168745
 20
6.505029295248743
 30
0.0
 10
60.47245007168745
 20
31.50505370306124
 30
0.0
 10
60.47245007168745
 20
31.50505370306124
 30
0.0
 10
60.47245007168745
 20
32.32998181700431
 30
0.0
 10
59.79755586612701
 20
33.00504827733901
 30
0.0
 10
58.97245549740967
 20
33.00504827733901
 30
0.0
  0
SPLINE
  5
4D
330
47
100
AcDbEntity
  8
LAYER_1
 62
     7
100
AcDbSpline
210
0.0
220
0.0
230
1.0
 70
    11
 71
     3
 72
    41
 73
    37
 74
     0
 42
0.0000000001
 43
0.0000000001
 40
0.0
 40
0.0
 40
0.0
 40
0.0
 40
1.0
 40
1.0
 40
1.0
 40
2.0
 40
2.0
 40
2.0
 40
3.0
 40
3.0
 40
3.0
 40
4.0
 40
4.0
 40
4.0
 40
5.0
 40
5.0
 40
5.0
 40
6.0
 40
6.0
 40
6.0
 40
7.0
 40
7.0
 40
7.0
 40
8.0
 40
8.0
 40
8.0
 40
9.0
 40
9.0
 40
9.0
 40
10.0
 40
10.0
 40
10.0
 40
11.0
 40
11.0
 40
11.0
 40
12.0
 40
12.0
 40
12.0
 40
12.0
 10
86.9909003146238
 20
33.00504827733901
 30
0.0
 10
86.9909003146238
 20
33.00504827733901
 30
0.0
 10
85.99096135003005
 20
33.00504827733901
 30
0.0
 10
85.99096135003005
 20
33.00504827733901
 30
0.0
 10
85.99096135003005
 20
33.00504827733901
 30
0.0
 10
85.99096135003005
 20
64.91111109488334
 30
0.0
 10
85.99096135003005
 20
64.91111109488334
 30
0.0
 10
85.99096135003005
 20
64.91111109488334
 30
0.0
 10
65.99063176518638
 20
64.91111109488334
 30
0.0
 10
65.99063176518638
 20
64.91111109488334
 30
0.0
 10
65.99063176518638
 20
64.91111109488334
 30
0.0
 10
65.99063176518638
 20
33.00504827733901
 30
0.0
 10
65.99063176518638
 20
33.00504827733901
 30
0.0
 10
65.99063176518638
 20
33.00504827733901
 30
0.0
 10
64.99086505536687
 20
33.00504827733901
 30
0.0
 10
64.99086505536687
 20
33.00504827733901
 30
0.0
 10
64.1659369414238
 20
33.00504827733901
 30
0.0
 10
63.49087048108909
 20
32.32998181700431
 30
0.0
 10
63.49087048108909
 20
31.50505370306124
 30
0.0
 10
63.49087048108909
 20
31.50505370306124
 30
0.0
 10
63.49087048108909
 20
6.505029295248743
 30
0.0
 10
63.49087048108909
 20
6.505029295248743
 30
0.0
 10
63.49087048108909
 20
5.680273436079932
 30
0.0
 10
64.1659369414238
 20
5.005034720970964
 30
0.0
 10
64.99086505536687
 20
5.005034720970964
 30
0.0
 10
64.99086505536687
 20
5.005034720970964
 30
0.0
 10
86.9909003146238
 20
5.005034720970964
 30
0.0
 10
86.9909003146238
 20
5.005034720970964
 30
0.0
 10
87.81600068334114
 20
5.005034720970964
 30
0.0
 10
88.49089488890158
 20
5.680273436079932
 30
0.0
 10
88.49089488890158
 20
6.505029295248743
 30
0.0
 10
88.49089488890158
 20
6.505029295248743
 30
0.0
 10
88.49089488890158
 20
31.50505370306124
 30
0.0
 10
88.49089488890158
 20
31.50505370306124
 30
0.0
 10
88.49089488890158
 20
32.32998181700431
 30
0.0
 10
87.81600068334114
 20
33.00504827733901
 30
0.0
 10
86.9909003146238
 20
33.00504827733901
 30
0.0
  0
SPLINE
  5
4E
330
47
100
AcDbEntity
  8
LAYER_1
 62
     7
100
AcDbSpline
210
0.0
220
0.0
230
1.0
 70
    11
 71
     3
 72
    41
 73
    37
 74
     0
 42
0.0000000001
 43
0.0000000001
 40
0.0
 40
0.0
 40
0.0
 40
0.0
 40
1.0
 40
1.0
 40
1.0
 40
2.0
 40
2.0
 40
2.0
 40
3.0
 40
3.0
 40
3.0
 40
4.0
 40
4.0
 40
4.0
 40
5.0
 40
5.0
 40
5.0
 40
6.0
 40
6.0
 40
6.0
 40
7.0
 40
7.0
 40
7.0
 40
8.0
 40
8.0
 40
8.0
 40
9.0
 40
9.0
 40
9.0
 40
10.0
 40
10.0
 40
10.0
 40
11.0
 40
11.0
 40
11.0
 40
12.0
 40
12.0
 40
12.0
 40
12.0
 10
171.0458902567177
 20
33.00504827733901
 30
0.0
 10
171.0458902567177
 20
33.00504827733901
 30
0.0
 10
170.0461235468982
 20
33.00504827733901
 30
0.0
 10
170.0461235468982
 20
33.00504827733901
 30
0.0
 10
170.0461235468982
 20
33.00504827733901
 30
0.0
 10
170.0461235468982
 20
64.91111109488334
 30
0.0
 10
170.0461235468982
 20
64.91111109488334
 30
0.0
 10
170.0461235468982
 20
64.91111109488334
 30
0.0
 10
150.0456217072803
 20
64.91111109488334
 30
0.0
 10
150.0456217072803
 20
64.91111109488334
 30
0.0
 10
150.0456217072803
 20
64.91111109488334
 30
0.0
 10
150.0456217072803
 20
33.00504827733901
 30
0.0
 10
150.0456217072803
 20
33.00504827733901
 30
0.0
 10
150.0456217072803
 20
33.00504827733901
 30
0.0
 10
149.0458549974608
 20
33.00504827733901
 30
0.0
 10
149.0458549974608
 20
33.00504827733901
 30
0.0
 10
148.2207546287434
 20
33.00504827733901
 30
0.0
 10
147.545860423183
 20
32.32998181700431
 30
0.0
 10
147.545860423183
 20
31.50505370306124
 30
0.0
 10
147.545860423183
 20
31.50505370306124
 30
0.0
 10
147.545860423183
 20
6.505029295248743
 30
0.0
 10
147.545860423183
 20
6.505029295248743
 30
0.0
 10
147.545860423183
 20
5.680273436079932
 30
0.0
 10
148.2207546287434
 20
5.005034720970964
 30
0.0
 10
149.0458549974608
 20
5.005034720970964
 30
0.0
 10
149.0458549974608
 20
5.005034720970964
 30
0.0
 10
171.0458902567177
 20
5.005034720970964
 30
0.0
 10
171.0458902567177
 20
5.005034720970964
 30
0.0
 10
171.870990625435
 20
5.005034720970964
 30
0.0
 10
172.5458848309955
 20
5.680273436079932
 30
0.0
 10
172.5458848309955
 20
6.505029295248743
 30
0.0
 10
172.5458848309955
 20
6.505029295248743
 30
0.0
 10
172.5458848309955
 20
31.50505370306124
 30
0.0
 10
172.5458848309955
 20
31.50505370306124
 30
0.0
 10
172.5458848309955
 20
32.32998181700431
 30
0.0
 10
171.870990625435
 20
33.00504827733901
 30
0.0
 10
171.0458902567177
 20
33.00504827733901
 30
0.0
  0
SPLINE
  5
4F
330
47
100
AcDbEntity
  8
LAYER_1
 62
     7
100
AcDbSpline
210
0.0
220
0.0
230
1.0
 70
    11
 71
     3
 72
    41
 73
    37
 74
     0
 42
0.0000000001
 43
0.0000000001
 40
0.0
 40
0.0
 40
0.0
 40
0.0
 40
1.0
 40
1.0
 40
1.0
 40
2.0
 40
2.0
 40
2.0
 40
3.0
 40
3.0
 40
3.0
 40
4.0
 40
4.0
 40
4.0
 40
5.0
 40
5.0
 40
5.0
 40
6.0
 40
6.0
 40
6.0
 40
7.0
 40
7.0
 40
7.0
 40
8.0
 40
8.0
 40
8.0
 40
9.0
 40
9.0
 40
9.0
 40
10.0
 40
10.0
 40
10.0
 40
11.0
 40
11.0
 40
11.0
 40
12.0
 40
12.0
 40
12.0
 40
12.0
 10
115.0093451318379
 20
33.00504827733901
 30
0.0
 10
115.0093451318379
 20
33.00504827733901
 30
0.0
 10
114.0092339124699
 20
33.00504827733901
 30
0.0
 10
114.0092339124699
 20
33.00504827733901
 30
0.0
 10
114.0092339124699
 20
33.00504827733901
 30
0.0
 10
114.0092339124699
 20
64.91111109488334
 30
0.0
 10
114.0092339124699
 20
64.91111109488334
 30
0.0
 10
114.0092339124699
 20
64.91111109488334
 30
0.0
 10
94.00890432762625
 20
64.91111109488334
 30
0.0
 10
94.00890432762625
 20
64.91111109488334
 30
0.0
 10
94.00890432762625
 20
64.91111109488334
 30
0.0
 10
94.00890432762625
 20
33.00504827733901
 30
0.0
 10
94.00890432762625
 20
33.00504827733901
 30
0.0
 10
94.00890432762625
 20
33.00504827733901
 30
0.0
 10
93.00930987258101
 20
33.00504827733901
 30
0.0
 10
93.00930987258101
 20
33.00504827733901
 30
0.0
 10
92.18420950386367
 20
33.00504827733901
 30
0.0
 10
91.50931529830324
 20
32.32998181700431
 30
0.0
 10
91.50931529830324
 20
31.50505370306124
 30
0.0
 10
91.50931529830324
 20
31.50505370306124
 30
0.0
 10
91.50931529830324
 20
6.505029295248743
 30
0.0
 10
91.50931529830324
 20
6.505029295248743
 30
0.0
 10
91.50931529830324
 20
5.680273436079932
 30
0.0
 10
92.18420950386367
 20
5.005034720970964
 30
0.0
 10
93.00930987258101
 20
5.005034720970964
 30
0.0
 10
93.00930987258101
 20
5.005034720970964
 30
0.0
 10
115.0093451318379
 20
5.005034720970964
 30
0.0
 10
115.0093451318379
 20
5.005034720970964
 30
0.0
 10
115.8344455005553
 20
5.005034720970964
 30
0.0
 10
116.5093397061157
 20
5.680273436079932
 30
0.0
 10
116.5093397061157
 20
6.505029295248743
 30
0.0
 10
116.5093397061157
 20
6.505029295248743
 30
0.0
 10
116.5093397061157
 20
31.50505370306124
 30
0.0
 10
116.5093397061157
 20
31.50505370306124
 30
0.0
 10
116.5093397061157
 20
32.32998181700431
 30
0.0
 10
115.8344455005553
 20
33.00504827733901
 30
0.0
 10
115.0093451318379
 20
33.00504827733901
 30
0.0
  0
SPLINE
  5
50
330
47
100
AcDbEntity
  8
LAYER_1
 62
     7
100
AcDbSpline
210
0.0
220
0.0
230
1.0
 70
    11
 71
     3
 72
    41
 73
    37
 74
     0
 42
0.0000000001
 43
0.0000000001
 40
0.0
 40
0.0
 40
0.0
 40
0.0
 40
1.0
 40
1.0
 40
1.0
 40
2.0
 40
2.0
 40
2.0
 40
3.0
 40
3.0
 40
3.0
 40
4.0
 40
4.0
 40
4.0
 40
5.0
 40
5.0
 40
5.0
 40
6.0
 40
6.0
 40
6.0
 40
7.0
 40
7.0
 40
7.0
 40
8.0
 40
8.0
 40
8.0
 40
9.0
 40
9.0
 40
9.0
 40
10.0
 40
10.0
 40
10.0
 40
11.0
 40
11.0
 40
11.0
 40
12.0
 40
12.0
 40
12.0
 40
12.0
 10
143.0276176942778
 20
33.00504827733901
 30
0.0
 10
143.0276176942778
 20
33.00504827733901
 30
0.0
 10
142.0275064749098
 20
33.00504827733901
 30
0.0
 10
142.0275064749098
 20
33.00504827733901
 30
0.0
 10
142.0275064749098
 20
33.00504827733901
 30
0.0
 10
142.0275064749098
 20
64.91111109488334
 30
0.0
 10
142.0275064749098
 20
64.91111109488334
 30
0.0
 10
142.0275064749098
 20
64.91111109488334
 30
0.0
 10
122.0273491448404
 20
64.91111109488334
 30
0.0
 10
122.0273491448404
 20
64.91111109488334
 30
0.0
 10
122.0273491448404
 20
64.91111109488334
 30
0.0
 10
122.0273491448404
 20
33.00504827733901
 30
0.0
 10
122.0273491448404
 20
33.00504827733901
 30
0.0
 10
122.0273491448404
 20
33.00504827733901
 30
0.0
 10
121.0275824350209
 20
33.00504827733901
 30
0.0
 10
121.0275824350209
 20
33.00504827733901
 30
0.0
 10
120.2024820663035
 20
33.00504827733901
 30
0.0
 10
119.5275878607431
 20
32.32998181700431
 30
0.0
 10
119.5275878607431
 20
31.50505370306124
 30
0.0
 10
119.5275878607431
 20
31.50505370306124
 30
0.0
 10
119.5275878607431
 20
6.505373804797268
 30
0.0
 10
119.5275878607431
 20
6.505373804797268
 30
0.0
 10
119.5275878607431
 20
5.680617945628457
 30
0.0
 10
120.2024820663035
 20
5.005379230519488
 30
0.0
 10
121.0275824350209
 20
5.005379230519488
 30
0.0
 10
121.0275824350209
 20
5.005379230519488
 30
0.0
 10
143.0276176942778
 20
5.005379230519488
 30
0.0
 10
143.0276176942778
 20
5.005379230519488
 30
0.0
 10
143.8527180629952
 20
5.005379230519488
 30
0.0
 10
144.5276122685556
 20
5.680617945628457
 30
0.0
 10
144.5276122685556
 20
6.505373804797268
 30
0.0
 10
144.5276122685556
 20
6.505373804797268
 30
0.0
 10
144.5276122685556
 20
31.50505370306124
 30
0.0
 10
144.5276122685556
 20
31.50505370306124
 30
0.0
 10
144.5276122685556
 20
32.32998181700431
 30
0.0
 10
143.8527180629952
 20
33.00504827733901
 30
0.0
 10
143.0276176942778
 20
33.00504827733901
 30
0.0
  0
ENDBLK
  5
4A
330
47
100
AcDbEntity
  8
0
100
AcDbBlockEnd
  0
BLOCK
  5
59
330
57
100
AcDbEntity
  8
0
100
AcDbBlockBegin
  2
BLOCK_4
 70
     0
 71
     0
 10
0.0
 20
0.0
 30
0.0
  3
BLOCK_4
  1

  0
SPLINE
  5
5B
330
57
100
AcDbEntity
  8
LAYER_1
 62
     7
100
AcDbSpline
210
0.0
220
0.0
230
1.0
 70
    11
 71
     3
 72
    17
 73
    13
 74
     0
 42
0.0000000001
 43
0.0000000001
 40
0.0
 40
0.0
 40
0.0
 40
0.0
 40
1.0
 40
1.0
 40
1.0
 40
2.0
 40
2.0
 40
2.0
 40
3.0
 40
3.0
 40
3.0
 40
4.0
 40
4.0
 40
4.0
 40
4.0
 10
7.569736054965206
 20
59.37759872647505
 30
0.0
 10
7.569736054965206
 20
58.46654322540073
 30
0.0
 10
6.830935328153378
 20
57.7277424985889
 30
0.0
 10
5.919707572304795
 20
57.7277424985889
 30
0.0
 10
5.008652071230476
 20
57.7277424985889
 30
0.0
 10
4.269851344418648
 20
58.46654322540073
 30
0.0
 10
4.269851344418648
 20
59.37759872647505
 30
0.0
 10
4.269851344418648
 20
60.28882648232363
 30
0.0
 10
5.008652071230476
 20
61.02762720913546
 30
0.0
 10
5.919707572304795
 20
61.02762720913546
 30
0.0
 10
6.830935328153378
 20
61.02762720913546
 30
0.0
 10
7.569736054965206
 20
60.28882648232363
 30
0.0
 10
7.569736054965206
 20
59.37759872647505
 30
0.0
  0
SPLINE
  5
5C
330
57
100
AcDbEntity
  8
LAYER_1
 62
     7
100
AcDbSpline
210
0.0
220
0.0
230
1.0
 70
    11
 71
     3
 72
    17
 73
    13
 74
     0
 42
0.0000000001
 43
0.0000000001
 40
0.0
 40
0.0
 40
0.0
 40
0.0
 40
1.0
 40
1.0
 40
1.0
 40
2.0
 40
2.0
 40
2.0
 40
3.0
 40
3.0
 40
3.0
 40
4.0
 40
4.0
 40
4.0
 40
4.0
 10
7.569736054965206
 20
41.21161023275265
 30
0.0
 10
7.569736054965206
 20
40.30055473167833
 30
0.0
 10
6.830935328153378
 20
39.56175400486651
 30
0.0
 10
5.919707572304795
 20
39.56175400486651
 30
0.0
 10
5.008652071230476
 20
39.56175400486651
 30
0.0
 10
4.269851344418648
 20
40.30055473167833
 30
0.0
 10
4.269851344418648
 20
41.21161023275265
 30
0.0
 10
4.269851344418648
 20
42.12283798860123
 30
0.0
 10
5.008652071230476
 20
42.86163871541306
 30
0.0
 10
5.919707572304795
 20
42.86163871541306
 30
0.0
 10
6.830935328153378
 20
42.86163871541306
 30
0.0
 10
7.569736054965206
 20
42.12283798860123
 30
0.0
 10
7.569736054965206
 20
41.21161023275265
 30
0.0
  0
ENDBLK
  5
5A
330
57
100
AcDbEntity
  8
0
100
AcDbBlockEnd
  0
BLOCK
  5
5F
330
5D
100
AcDbEntity
  8
0
100
AcDbBlockBegin
  2
BLOCK_5
 70
     0
 71
     0
 10
0.0
 20
0.0
 30
0.0
  3
BLOCK_5
  1

  0
SPLINE
  5
61
330
5D
100
AcDbEntity
  8
LAYER_1
 62
     7
100
AcDbSpline
210
0.0
220
0.0
230
1.0
 70
    11
 71
     3
 72
    17
 73
    13
 74
     0
 42
0.0000000001
 43
0.0000000001
 40
0.0
 40
0.0
 40
0.0
 40
0.0
 40
1.0
 40
1.0
 40
1.0
 40
2.0
 40
2.0
 40
2.0
 40
3.0
 40
3.0
 40
3.0
 40
4.0
 40
4.0
 40
4.0
 40
4.0
 10
35.57164441385014
 20
59.37759872647505
 30
0.0
 10
35.57164441385014
 20
58.46654322540073
 30
0.0
 10
34.83284368703832
 20
57.7277424985889
 30
0.0
 10
33.92161593118973
 20
57.7277424985889
 30
0.0
 10
33.01056043011542
 20
57.7277424985889
 30
0.0
 10
32.27175970330359
 20
58.46654322540073
 30
0.0
 10
32.27175970330359
 20
59.37759872647505
 30
0.0
 10
32.27175970330359
 20
60.28882648232363
 30
0.0
 10
33.01056043011542
 20
61.02762720913546
 30
0.0
 10
33.92161593118973
 20
61.02762720913546
 30
0.0
 10
34.83284368703832
 20
61.02762720913546
 30
0.0
 10
35.57164441385014
 20
60.28882648232363
 30
0.0
 10
35.57164441385014
 20
59.37759872647505
 30
0.0
  0
SPLINE
  5
62
330
5D
100
AcDbEntity
  8
LAYER_1
 62
     7
100
AcDbSpline
210
0.0
220
0.0
230
1.0
 70
    11
 71
     3
 72
    17
 73
    13
 74
     0
 42
0.0000000001
 43
0.0000000001
 40
0.0
 40
0.0
 40
0.0
 40
0.0
 40
1.0
 40
1.0
 40
1.0
 40
2.0
 40
2.0
 40
2.0
 40
3.0
 40
3.0
 40
3.0
 40
4.0
 40
4.0
 40
4.0
 40
4.0
 10
35.57164441385014
 20
41.21161023275265
 30
0.0
 10
35.57164441385014
 20
40.30055473167833
 30
0.0
 10
34.83284368703832
 20
39.56175400486651
 30
0.0
 10
33.92161593118973
 20
39.56175400486651
 30
0.0
 10
33.01056043011542
 20
39.56175400486651
 30
0.0
 10
32.27175970330359
 20
40.30055473167833
 30
0.0
 10
32.27175970330359
 20
41.21161023275265
 30
0.0
 10
32.27175970330359
 20
42.12283798860123
 30
0.0
 10
33.01056043011542
 20
42.86163871541306
 30
0.0
 10
33.92161593118973
 20
42.86163871541306
 30
0.0
 10
34.83284368703832
 20
42.86163871541306
 30
0.0
 10
35.57164441385014
 20
42.12283798860123
 30
0.0
 10
35.57164441385014
 20
41.21161023275265
 30
0.0
  0
ENDBLK
  5
60
330
5D
100
AcDbEntity
  8
0
100
AcDbBlockEnd
  0
BLOCK
  5
65
330
63
100
AcDbEntity
  8
0
100
AcDbBlockBegin
  2
BLOCK_6
 70
     0
 71
     0
 10
0.0
 20
0.0
 30
0.0
  3
BLOCK_6
  1

  0
SPLINE
  5
67
330
63
100
AcDbEntity
  8
LAYER_1
 62
     7
100
AcDbSpline
210
0.0
220
0.0
230
1.0
 70
    11
 71
     3
 72
    17
 73
    13
 74
     0
 42
0.0000000001
 43
0.0000000001
 40
0.0
 40
0.0
 40
0.0
 40
0.0
 40
1.0
 40
1.0
 40
1.0
 40
2.0
 40
2.0
 40
2.0
 40
3.0
 40
3.0
 40
3.0
 40
4.0
 40
4.0
 40
4.0
 40
4.0
 10
63.57355277273508
 20
59.37759872647505
 30
0.0
 10
63.57355277273508
 20
58.46654322540073
 30
0.0
 10
62.83475204592326
 20
57.7277424985889
 30
0.0
 10
61.92352429007467
 20
57.7277424985889
 30
0.0
 10
61.01246878900036
 20
57.7277424985889
 30
0.0
 10
60.27366806218853
 20
58.46654322540073
 30
0.0
 10
60.27366806218853
 20
59.37759872647505
 30
0.0
 10
60.27366806218853
 20
60.28882648232363
 30
0.0
 10
61.01246878900036
 20
61.02762720913546
 30
0.0
 10
61.92352429007467
 20
61.02762720913546
 30
0.0
 10
62.83475204592326
 20
61.02762720913546
 30
0.0
 10
63.57355277273508
 20
60.28882648232363
 30
0.0
 10
63.57355277273508
 20
59.37759872647505
 30
0.0
  0
SPLINE
  5
68
330
63
100
AcDbEntity
  8
LAYER_1
 62
     7
100
AcDbSpline
210
0.0
220
0.0
230
1.0
 70
    11
 71
     3
 72
    17
 73
    13
 74
     0
 42
0.0000000001
 43
0.0000000001
 40
0.0
 40
0.0
 40
0.0
 40
0.0
 40
1.0
 40
1.0
 40
1.0
 40
2.0
 40
2.0
 40
2.0
 40
3.0
 40
3.0
 40
3.0
 40
4.0
 40
4.0
 40
4.0
 40
4.0
 10
63.57355277273508
 20
41.21161023275265
 30
0.0
 10
63.57355277273508
 20
40.30055473167833
 30
0.0
 10
62.83475204592326
 20
39.56175400486651
 30
0.0
 10
61.92352429007467
 20
39.56175400486651
 30
0.0
 10
61.01246878900036
 20
39.56175400486651
 30
0.0
 10
60.27366806218853
 20
40.30055473167833
 30
0.0
 10
60.27366806218853
 20
41.21161023275265
 30
0.0
 10
60.27366806218853
 20
42.12283798860123
 30
0.0
 10
61.01246878900036
 20
42.86163871541306
 30
0.0
 10
61.92352429007467
 20
42.86163871541306
 30
0.0
 10
62.83475204592326
 20
42.86163871541306
 30
0.0
 10
63.57355277273508
 20
42.12283798860123
 30
0.0
 10
63.57355277273508
 20
41.21161023275265
 30
0.0
  0
ENDBLK
  5
66
330
63
100
AcDbEntity
  8
0
100
AcDbBlockEnd
  0
BLOCK
  5
6B
330
69
100
AcDbEntity
  8
0
100
AcDbBlockBegin
  2
BLOCK_7
 70
     0
 71
     0
 10
0.0
 20
0.0
 30
0.0
  3
BLOCK_7
  1

  0
SPLINE
  5
6D
330
69
100
AcDbEntity
  8
LAYER_1
 62
     7
100
AcDbSpline
210
0.0
220
0.0
230
1.0
 70
    11
 71
     3
 72
    17
 73
    13
 74
     0
 42
0.0000000001
 43
0.0000000001
 40
0.0
 40
0.0
 40
0.0
 40
0.0
 40
1.0
 40
1.0
 40
1.0
 40
2.0
 40
2.0
 40
2.0
 40
3.0
 40
3.0
 40
3.0
 40
4.0
 40
4.0
 40
4.0
 40
4.0
 10
91.57546113162003
 20
59.37759872647505
 30
0.0
 10
91.57546113162003
 20
58.46654322540073
 30
0.0
 10
90.8366604048082
 20
57.7277424985889
 30
0.0
 10
89.92543264895961
 20
57.7277424985889
 30
0.0
 10
89.0143771478853
 20
57.7277424985889
 30
0.0
 10
88.27557642107347
 20
58.46654322540073
 30
0.0
 10
88.27557642107347
 20
59.37759872647505
 30
0.0
 10
88.27557642107347
 20
60.28882648232363
 30
0.0
 10
89.0143771478853
 20
61.02762720913546
 30
0.0
 10
89.92543264895961
 20
61.02762720913546
 30
0.0
 10
90.8366604048082
 20
61.02762720913546
 30
0.0
 10
91.57546113162003
 20
60.28882648232363
 30
0.0
 10
91.57546113162003
 20
59.37759872647505
 30
0.0
  0
SPLINE
  5
6E
330
69
100
AcDbEntity
  8
LAYER_1
 62
     7
100
AcDbSpline
210
0.0
220
0.0
230
1.0
 70
    11
 71
     3
 72
    17
 73
    13
 74
     0
 42
0.0000000001
 43
0.0000000001
 40
0.0
 40
0.0
 40
0.0
 40
0.0
 40
1.0
 40
1.0
 40
1.0
 40
2.0
 40
2.0
 40
2.0
 40
3.0
 40
3.0
 40
3.0
 40
4.0
 40
4.0
 40
4.0
 40
4.0
 10
91.57546113162003
 20
41.21161023275265
 30
0.0
 10
91.57546113162003
 20
40.30055473167833
 30
0.0
 10
90.8366604048082
 20
39.56175400486651
 30
0.0
 10
89.92543264895961
 20
39.56175400486651
 30
0.0
 10
89.0143771478853
 20
39.56175400486651
 30
0.0
 10
88.27557642107347
 20
40.30055473167833
 30
0.0
 10
88.27557642107347
 20
41.21161023275265
 30
0.0
 10
88.27557642107347
 20
42.12283798860123
 30
0.0
 10
89.0143771478853
 20
42.86163871541306
 30
0.0
 10
89.92543264895961
 20
42.86163871541306
 30
0.0
 10
90.8366604048082
 20
42.86163871541306
 30
0.0
 10
91.57546113162003
 20
42.12283798860123
 30
0.0
 10
91.57546113162003
 20
41.21161023275265
 30
0.0
  0
ENDBLK
  5
6C
330
69
100
AcDbEntity
  8
0
100
AcDbBlockEnd
  0
BLOCK
  5
71
330
6F
100
AcDbEntity
  8
0
100
AcDbBlockBegin
  2
BLOCK_8
 70
     0
 71
     0
 10
0.0
 20
0.0
 30
0.0
  3
BLOCK_8
  1

  0
SPLINE
  5
73
330
6F
100
AcDbEntity
  8
LAYER_1
 62
     7
100
AcDbSpline
210
0.0
220
0.0
230
1.0
 70
    11
 71
     3
 72
    17
 73
    13
 74
     0
 42
0.0000000001
 43
0.0000000001
 40
0.0
 40
0.0
 40
0.0
 40
0.0
 40
1.0
 40
1.0
 40
1.0
 40
2.0
 40
2.0
 40
2.0
 40
3.0
 40
3.0
 40
3.0
 40
4.0
 40
4.0
 40
4.0
 40
4.0
 10
119.577369490505
 20
59.37759872647505
 30
0.0
 10
119.577369490505
 20
58.46654322540073
 30
0.0
 10
118.8385687636931
 20
57.7277424985889
 30
0.0
 10
117.9273410078446
 20
57.7277424985889
 30
0.0
 10
117.0162855067702
 20
57.7277424985889
 30
0.0
 10
116.2774847799584
 20
58.46654322540073
 30
0.0
 10
116.2774847799584
 20
59.37759872647505
 30
0.0
 10
116.2774847799584
 20
60.28882648232363
 30
0.0
 10
117.0162855067702
 20
61.02762720913546
 30
0.0
 10
117.9273410078446
 20
61.02762720913546
 30
0.0
 10
118.8385687636931
 20
61.02762720913546
 30
0.0
 10
119.577369490505
 20
60.28882648232363
 30
0.0
 10
119.577369490505
 20
59.37759872647505
 30
0.0
  0
SPLINE
  5
74
330
6F
100
AcDbEntity
  8
LAYER_1
 62
     7
100
AcDbSpline
210
0.0
220
0.0
230
1.0
 70
    11
 71
     3
 72
    17
 73
    13
 74
     0
 42
0.0000000001
 43
0.0000000001
 40
0.0
 40
0.0
 40
0.0
 40
0.0
 40
1.0
 40
1.0
 40
1.0
 40
2.0
 40
2.0
 40
2.0
 40
3.0
 40
3.0
 40
3.0
 40
4.0
 40
4.0
 40
4.0
 40
4.0
 10
119.577369490505
 20
41.21161023275265
 30
0.0
 10
119.577369490505
 20
40.30055473167833
 30
0.0
 10
118.8385687636931
 20
39.56175400486651
 30
0.0
 10
117.9273410078446
 20
39.56175400486651
 30
0.0
 10
117.0162855067702
 20
39.56175400486651
 30
0.0
 10
116.2774847799584
 20
40.30055473167833
 30
0.0
 10
116.2774847799584
 20
41.21161023275265
 30
0.0
 10
116.2774847799584
 20
42.12283798860123
 30
0.0
 10
117.0162855067702
 20
42.86163871541306
 30
0.0
 10
117.9273410078446
 20
42.86163871541306
 30
0.0
 10
118.8385687636931
 20
42.86163871541306
 30
0.0
 10
119.577369490505
 20
42.12283798860123
 30
0.0
 10
119.577369490505
 20
41.21161023275265
 30
0.0
  0
ENDBLK
  5
72
330
6F
100
AcDbEntity
  8
0
100
AcDbBlockEnd
  0
BLOCK
  5
77
330
75
100
AcDbEntity
  8
0
100
AcDbBlockBegin
  2
BLOCK_9
 70
     0
 71
     0
 10
0.0
 20
0.0
 30
0.0
  3
BLOCK_9
  1

  0
SPLINE
  5
79
330
75
100
AcDbEntity
  8
LAYER_1
 62
     7
100
AcDbSpline
210
0.0
220
0.0
230
1.0
 70
    11
 71
     3
 72
    17
 73
    13
 74
     0
 42
0.0000000001
 43
0.0000000001
 40
0.0
 40
0.0
 40
0.0
 40
0.0
 40
1.0
 40
1.0
 40
1.0
 40
2.0
 40
2.0
 40
2.0
 40
3.0
 40
3.0
 40
3.0
 40
4.0
 40
4.0
 40
4.0
 40
4.0
 10
147.5792778493899
 20
59.37759872647505
 30
0.0
 10
147.5792778493899
 20
58.46654322540073
 30
0.0
 10
146.8404771225781
 20
57.7277424985889
 30
0.0
 10
145.9292493667295
 20
57.7277424985889
 30
0.0
 10
145.0181938656552
 20
57.7277424985889
 30
0.0
 10
144.2793931388433
 20
58.46654322540073
 30
0.0
 10
144.2793931388433
 20
59.37759872647505
 30
0.0
 10
144.2793931388433
 20
60.28882648232363
 30
0.0
 10
145.0181938656552
 20
61.02762720913546
 30
0.0
 10
145.9292493667295
 20
61.02762720913546
 30
0.0
 10
146.8404771225781
 20
61.02762720913546
 30
0.0
 10
147.5792778493899
 20
60.28882648232363
 30
0.0
 10
147.5792778493899
 20
59.37759872647505
 30
0.0
  0
SPLINE
  5
7A
330
75
100
AcDbEntity
  8
LAYER_1
 62
     7
100
AcDbSpline
210
0.0
220
0.0
230
1.0
 70
    11
 71
     3
 72
    17
 73
    13
 74
     0
 42
0.0000000001
 43
0.0000000001
 40
0.0
 40
0.0
 40
0.0
 40
0.0
 40
1.0
 40
1.0
 40
1.0
 40
2.0
 40
2.0
 40
2.0
 40
3.0
 40
3.0
 40
3.0
 40
4.0
 40
4.0
 40
4.0
 40
4.0
 10
147.5792778493899
 20
41.21161023275265
 30
0.0
 10
147.5792778493899
 20
40.30055473167833
 30
0.0
 10
146.8404771225781
 20
39.56175400486651
 30
0.0
 10
145.9292493667295
 20
39.56175400486651
 30
0.0
 10
145.0181938656552
 20
39.56175400486651
 30
0.0
 10
144.2793931388433
 20
40.30055473167833
 30
0.0
 10
144.2793931388433
 20
41.21161023275265
 30
0.0
 10
144.2793931388433
 20
42.12283798860123
 30
0.0
 10
145.0181938656552
 20
42.86163871541306
 30
0.0
 10
145.9292493667295
 20
42.86163871541306
 30
0.0
 10
146.8404771225781
 20
42.86163871541306
 30
0.0
 10
147.5792778493899
 20
42.12283798860123
 30
0.0
 10
147.5792778493899
 20
41.21161023275265
 30
0.0
  0
ENDBLK
  5
78
330
75
100
AcDbEntity
  8
0
100
AcDbBlockEnd
  0
BLOCK
  5
7D
330
7B
100
AcDbEntity
  8
0
100
AcDbBlockBegin
  2
BLOCK_10
 70
     0
 71
     0
 10
0.0
 20
0.0
 30
0.0
  3
BLOCK_10
  1

  0
SPLINE
  5
7F
330
7B
100
AcDbEntity
  8
LAYER_1
 62
     7
100
AcDbSpline
210
0.0
220
0.0
230
1.0
 70
    11
 71
     3
 72
    17
 73
    13
 74
     0
 42
0.0000000001
 43
0.0000000001
 40
0.0
 40
0.0
 40
0.0
 40
0.0
 40
1.0
 40
1.0
 40
1.0
 40
2.0
 40
2.0
 40
2.0
 40
3.0
 40
3.0
 40
3.0
 40
4.0
 40
4.0
 40
4.0
 40
4.0
 10
175.5810139535006
 20
59.37759872647505
 30
0.0
 10
175.5810139535006
 20
58.46654322540073
 30
0.0
 10
174.842385481463
 20
57.7277424985889
 30
0.0
 10
173.9311577256144
 20
57.7277424985889
 30
0.0
 10
173.0199299697659
 20
57.7277424985889
 30
0.0
 10
172.2813014977283
 20
58.46654322540073
 30
0.0
 10
172.2813014977283
 20
59.37759872647505
 30
0.0
 10
172.2813014977283
 20
60.28882648232363
 30
0.0
 10
173.0199299697659
 20
61.02762720913546
 30
0.0
 10
173.9311577256144
 20
61.02762720913546
 30
0.0
 10
174.842385481463
 20
61.02762720913546
 30
0.0
 10
175.5810139535006
 20
60.28882648232363
 30
0.0
 10
175.5810139535006
 20
59.37759872647505
 30
0.0
  0
SPLINE
  5
80
330
7B
100
AcDbEntity
  8
LAYER_1
 62
     7
100
AcDbSpline
210
0.0
220
0.0
230
1.0
 70
    11
 71
     3
 72
    17
 73
    13
 74
     0
 42
0.0000000001
 43
0.0000000001
 40
0.0
 40
0.0
 40
0.0
 40
0.0
 40
1.0
 40
1.0
 40
1.0
 40
2.0
 40
2.0
 40
2.0
 40
3.0
 40
3.0
 40
3.0
 40
4.0
 40
4.0
 40
4.0
 40
4.0
 10
175.5810139535006
 20
41.21161023275265
 30
0.0
 10
175.5810139535006
 20
40.30055473167833
 30
0.0
 10
174.842385481463
 20
39.56175400486651
 30
0.0
 10
173.9311577256144
 20
39.56175400486651
 30
0.0
 10
173.0199299697659
 20
39.56175400486651
 30
0.0
 10
172.2813014977283
 20
40.30055473167833
 30
0.0
 10
172.2813014977283
 20
41.21161023275265
 30
0.0
 10
172.2813014977283
 20
42.12283798860123
 30
0.0
 10
173.0199299697659
 20
42.86163871541306
 30
0.0
 10
173.9311577256144
 20
42.86163871541306
 30
0.0
 10
174.842385481463
 20
42.86163871541306
 30
0.0
 10
175.5810139535006
 20
42.12283798860123
 30
0.0
 10
175.5810139535006
 20
41.21161023275265
 30
0.0
  0
ENDBLK
  5
7E
330
7B
100
AcDbEntity
  8
0
100
AcDbBlockEnd
  0
BLOCK
  5
8A
330
88
100
AcDbEntity
  8
0
100
AcDbBlockBegin
  2
BLOCK_11
 70
     0
 71
     0
 10
0.0
 20
0.0
 30
0.0
  3
BLOCK_11
  1

  0
SPLINE
  5
8C
330
88
100
AcDbEntity
  8
LAYER_1
 62
     7
100
AcDbSpline
210
0.0
220
0.0
230
1.0
 70
    11
 71
     3
 72
    17
 73
    13
 74
     0
 42
0.0000000001
 43
0.0000000001
 40
0.0
 40
0.0
 40
0.0
 40
0.0
 40
1.0
 40
1.0
 40
1.0
 40
2.0
 40
2.0
 40
2.0
 40
3.0
 40
3.0
 40
3.0
 40
4.0
 40
4.0
 40
4.0
 40
4.0
 10
5.313370766900825
 20
28.08820800079045
 30
0.0
 10
5.313370766900825
 20
27.26000704613639
 30
0.0
 10
4.641577147277106
 20
26.58821342651267
 30
0.0
 10
3.813203937848782
 20
26.58821342651267
 30
0.0
 10
2.985002983194722
 20
26.58821342651267
 30
0.0
 10
2.313209363571003
 20
27.26000704613639
 30
0.0
 10
2.313209363571003
 20
28.08820800079045
 30
0.0
 10
2.313209363571003
 20
28.91640895544451
 30
0.0
 10
2.985002983194722
 20
29.58820257506823
 30
0.0
 10
3.813203937848782
 20
29.58820257506823
 30
0.0
 10
4.641577147277106
 20
29.58820257506823
 30
0.0
 10
5.313370766900825
 20
28.91640895544451
 30
0.0
 10
5.313370766900825
 20
28.08820800079045
 30
0.0
  0
SPLINE
  5
8D
330
88
100
AcDbEntity
  8
LAYER_1
 62
     7
100
AcDbSpline
210
0.0
220
0.0
230
1.0
 70
    11
 71
     3
 72
    17
 73
    13
 74
     0
 42
0.0000000001
 43
0.0000000001
 40
0.0
 40
0.0
 40
0.0
 40
0.0
 40
1.0
 40
1.0
 40
1.0
 40
2.0
 40
2.0
 40
2.0
 40
3.0
 40
3.0
 40
3.0
 40
4.0
 40
4.0
 40
4.0
 40
4.0
 10
5.313370766900825
 20
9.922219507068057
 30
0.0
 10
5.313370766900825
 20
9.094018552413996
 30
0.0
 10
4.641577147277106
 20
8.422224932790277
 30
0.0
 10
3.813203937848782
 20
8.422224932790277
 30
0.0
 10
2.985002983194722
 20
8.422224932790277
 30
0.0
 10
2.313209363571003
 20
9.094018552413996
 30
0.0
 10
2.313209363571003
 20
9.922219507068057
 30
0.0
 10
2.313209363571003
 20
10.75042046172212
 30
0.0
 10
2.985002983194722
 20
11.42221408134584
 30
0.0
 10
3.813203937848782
 20
11.42221408134584
 30
0.0
 10
4.641577147277106
 20
11.42221408134584
 30
0.0
 10
5.313370766900825
 20
10.75042046172212
 30
0.0
 10
5.313370766900825
 20
9.922219507068057
 30
0.0
  0
ENDBLK
  5
8B
330
88
100
AcDbEntity
  8
0
100
AcDbBlockEnd
  0
BLOCK
  5
90
330
8E
100
AcDbEntity
  8
0
100
AcDbBlockBegin
  2
BLOCK_12
 70
     0
 71
     0
 10
0.0
 20
0.0
 30
0.0
  3
BLOCK_12
  1

  0
SPLINE
  5
92
330
8E
100
AcDbEntity
  8
LAYER_1
 62
     7
100
AcDbSpline
210
0.0
220
0.0
230
1.0
 70
    11
 71
     3
 72
    17
 73
    13
 74
     0
 42
0.0000000001
 43
0.0000000001
 40
0.0
 40
0.0
 40
0.0
 40
0.0
 40
1.0
 40
1.0
 40
1.0
 40
2.0
 40
2.0
 40
2.0
 40
3.0
 40
3.0
 40
3.0
 40
4.0
 40
4.0
 40
4.0
 40
4.0
 10
177.7751952680562
 20
28.08820800079045
 30
0.0
 10
177.7751952680562
 20
27.26000704613639
 30
0.0
 10
177.1034016484325
 20
26.58821342651267
 30
0.0
 10
176.2752006937784
 20
26.58821342651267
 30
0.0
 10
175.4469997391244
 20
26.58821342651267
 30
0.0
 10
174.7752061195006
 20
27.26000704613639
 30
0.0
 10
174.7752061195006
 20
28.08820800079045
 30
0.0
 10
174.7752061195006
 20
28.91640895544451
 30
0.0
 10
175.4469997391244
 20
29.58820257506823
 30
0.0
 10
176.2752006937784
 20
29.58820257506823
 30
0.0
 10
177.1034016484325
 20
29.58820257506823
 30
0.0
 10
177.7751952680562
 20
28.91640895544451
 30
0.0
 10
177.7751952680562
 20
28.08820800079045
 30
0.0
  0
SPLINE
  5
93
330
8E
100
AcDbEntity
  8
LAYER_1
 62
     7
100
AcDbSpline
210
0.0
220
0.0
230
1.0
 70
    11
 71
     3
 72
    17
 73
    13
 74
     0
 42
0.0000000001
 43
0.0000000001
 40
0.0
 40
0.0
 40
0.0
 40
0.0
 40
1.0
 40
1.0
 40
1.0
 40
2.0
 40
2.0
 40
2.0
 40
3.0
 40
3.0
 40
3.0
 40
4.0
 40
4.0
 40
4.0
 40
4.0
 10
177.7751952680562
 20
9.922219507068057
 30
0.0
 10
177.7751952680562
 20
9.094018552413996
 30
0.0
 10
177.1034016484325
 20
8.422224932790277
 30
0.0
 10
176.2752006937784
 20
8.422224932790277
 30
0.0
 10
175.4469997391244
 20
8.422224932790277
 30
0.0
 10
174.7752061195006
 20
9.094018552413996
 30
0.0
 10
174.7752061195006
 20
9.922219507068057
 30
0.0
 10
174.7752061195006
 20
10.75042046172212
 30
0.0
 10
175.4469997391244
 20
11.42221408134584
 30
0.0
 10
176.2752006937784
 20
11.42221408134584
 30
0.0
 10
177.1034016484325
 20
11.42221408134584
 30
0.0
 10
177.7751952680562
 20
10.75042046172212
 30
0.0
 10
177.7751952680562
 20
9.922219507068057
 30
0.0
  0
ENDBLK
  5
91
330
8E
100
AcDbEntity
  8
0
100
AcDbBlockEnd
  0
ENDSEC
  0
SECTION
  2
ENTITIES
  0
INSERT
  5
3D
330
1F
100
AcDbEntity
  8
LAYER_1
100
AcDbBlockReference
  2
BLOCK_2
 10
0.0
 20
0.0
 30
0.0
  0
SPLINE
  5
46
330
1F
100
AcDbEntity
  8
LAYER_1
 62
     7
100
AcDbSpline
210
0.0
220
0.0
230
1.0
 70
    11
 71
     3
 72
    29
 73
    25
 74
     0
 42
0.0000000001
 43
0.0000000001
 40
0.0
 40
0.0
 40
0.0
 40
0.0
 40
1.0
 40
1.0
 40
1.0
 40
2.0
 40
2.0
 40
2.0
 40
3.0
 40
3.0
 40
3.0
 40
4.0
 40
4.0
 40
4.0
 40
5.0
 40
5.0
 40
5.0
 40
6.0
 40
6.0
 40
6.0
 40
7.0
 40
7.0
 40
7.0
 40
8.0
 40
8.0
 40
8.0
 40
8.0
 10
180.0000379324306
 20
66.00010577777081
 30
0.0
 10
180.0000379324306
 20
68.1999714998771
 30
0.0
 10
178.1999755413875
 20
70.00003389092014
 30
0.0
 10
175.999937564507
 20
70.00003389092014
 30
0.0
 10
175.999937564507
 20
70.00003389092014
 30
0.0
 10
3.999928113149324
 20
70.00003389092014
 30
0.0
 10
3.999928113149324
 20
70.00003389092014
 30
0.0
 10
1.80006239104304
 20
70.00003389092014
 30
0.0
 10
0.0
 20
68.1999714998771
 30
0.0
 10
0.0
 20
66.00010577777081
 30
0.0
 10
0.0
 20
66.00010577777081
 30
0.0
 10
0.0
 20
3.999928113149324
 30
0.0
 10
0.0
 20
3.999928113149324
 30
0.0
 10
0.0
 20
1.80006239104304
 30
0.0
 10
1.80006239104304
 20
0.0
 30
0.0
 10
3.999928113149324
 20
0.0
 30
0.0
 10
3.999928113149324
 20
0.0
 30
0.0
 10
175.999937564507
 20
0.0
 30
0.0
 10
175.999937564507
 20
0.0
 30
0.0
 10
178.1999755413875
 20
0.0
 30
0.0
 10
180.0000379324306
 20
1.80006239104304
 30
0.0
 10
180.0000379324306
 20
3.999928113149324
 30
0.0
 10
180.0000379324306
 20
3.999928113149324
 30
0.0
 10
180.0000379324306
 20
66.00010577777081
 30
0.0
 10
180.0000379324306
 20
66.00010577777081
 30
0.0
  0
INSERT
  5
48
330
1F
100
AcDbEntity
  8
LAYER_1
100
AcDbBlockReference
  2
BLOCK_3
 10
0.0
 20
0.0
 30
0.0
  0
SPLINE
  5
51
330
1F
100
AcDbEntity
  8
LAYER_1
 62
     7
100
AcDbSpline
210
0.0
220
0.0
230
1.0
 70
    11
 71
     3
 72
    17
 73
    13
 74
     0
 42
0.0000000001
 43
0.0000000001
 40
0.0
 40
0.0
 40
0.0
 40
0.0
 40
1.0
 40
1.0
 40
1.0
 40
2.0
 40
2.0
 40
2.0
 40
3.0
 40
3.0
 40
3.0
 40
4.0
 40
4.0
 40
4.0
 40
4.0
 10
166.0460231789746
 20
5.005034720970964
 30
0.0
 10
166.0460231789746
 20
3.348288302114317
 30
0.0
 10
163.3595377195768
 20
2.005217827189668
 30
0.0
 10
160.0460448818635
 20
2.005217827189668
 30
0.0
 10
156.7325520441502
 20
2.005217827189668
 30
0.0
 10
154.0460665847524
 20
3.348288302114317
 30
0.0
 10
154.0460665847524
 20
5.005034720970964
 30
0.0
 10
154.0460665847524
 20
6.66178113982761
 30
0.0
 10
156.7325520441502
 20
8.00485161475226
 30
0.0
 10
160.0460448818635
 20
8.00485161475226
 30
0.0
 10
163.3595377195768
 20
8.00485161475226
 30
0.0
 10
166.0460231789746
 20
6.66178113982761
 30
0.0
 10
166.0460231789746
 20
5.005034720970964
 30
0.0
  0
SPLINE
  5
52
330
1F
100
AcDbEntity
  8
LAYER_1
 62
     7
100
AcDbSpline
210
0.0
220
0.0
230
1.0
 70
    11
 71
     3
 72
    17
 73
    13
 74
     0
 42
0.0000000001
 43
0.0000000001
 40
0.0
 40
0.0
 40
0.0
 40
0.0
 40
1.0
 40
1.0
 40
1.0
 40
2.0
 40
2.0
 40
2.0
 40
3.0
 40
3.0
 40
3.0
 40
4.0
 40
4.0
 40
4.0
 40
4.0
 10
138.0275783617605
 20
5.005379230519488
 30
0.0
 10
138.0275783617605
 20
3.348632811662842
 30
0.0
 10
135.3410929023626
 20
2.005390081963931
 30
0.0
 10
132.0276000646494
 20
2.005390081963931
 30
0.0
 10
128.7141072269361
 20
2.005390081963931
 30
0.0
 10
126.0276217675382
 20
3.348632811662842
 30
0.0
 10
126.0276217675382
 20
5.005379230519488
 30
0.0
 10
126.0276217675382
 20
6.662125649376136
 30
0.0
 10
128.7141072269361
 20
8.005196124300785
 30
0.0
 10
132.0276000646494
 20
8.005196124300785
 30
0.0
 10
135.3410929023626
 20
8.005196124300785
 30
0.0
 10
138.0275783617605
 20
6.662125649376136
 30
0.0
 10
138.0275783617605
 20
5.005379230519488
 30
0.0
  0
SPLINE
  5
53
330
1F
100
AcDbEntity
  8
LAYER_1
 62
     7
100
AcDbSpline
210
0.0
220
0.0
230
1.0
 70
    11
 71
     3
 72
    17
 73
    13
 74
     0
 42
0.0000000001
 43
0.0000000001
 40
0.0
 40
0.0
 40
0.0
 40
0.0
 40
1.0
 40
1.0
 40
1.0
 40
2.0
 40
2.0
 40
2.0
 40
3.0
 40
3.0
 40
3.0
 40
4.0
 40
4.0
 40
4.0
 40
4.0
 10
110.0093057993206
 20
5.005551485293751
 30
0.0
 10
110.0093057993206
 20
3.348632811662842
 30
0.0
 10
107.3228203399228
 20
2.005562336738193
 30
0.0
 10
104.0093275022095
 20
2.005562336738193
 30
0.0
 10
100.6958346644962
 20
2.005562336738193
 30
0.0
 10
98.00934920509836
 20
3.348632811662842
 30
0.0
 10
98.00934920509836
 20
5.005551485293751
 30
0.0
 10
98.00934920509836
 20
6.662470158924661
 30
0.0
 10
100.6958346644962
 20
8.005196124300785
 30
0.0
 10
104.0093275022095
 20
8.005196124300785
 30
0.0
 10
107.3228203399228
 20
8.005196124300785
 30
0.0
 10
110.0093057993206
 20
6.662470158924661
 30
0.0
 10
110.0093057993206
 20
5.005551485293751
 30
0.0
  0
SPLINE
  5
54
330
1F
100
AcDbEntity
  8
LAYER_1
 62
     7
100
AcDbSpline
210
0.0
220
0.0
230
1.0
 70
    11
 71
     3
 72
    17
 73
    13
 74
     0
 42
0.0000000001
 43
0.0000000001
 40
0.0
 40
0.0
 40
0.0
 40
0.0
 40
1.0
 40
1.0
 40
1.0
 40
2.0
 40
2.0
 40
2.0
 40
3.0
 40
3.0
 40
3.0
 40
4.0
 40
4.0
 40
4.0
 40
4.0
 10
81.99086098210645
 20
5.005034720970964
 30
0.0
 10
81.99086098210645
 20
3.348288302114317
 30
0.0
 10
79.30437552270863
 20
2.005217827189668
 30
0.0
 10
75.99088268499534
 20
2.005217827189668
 30
0.0
 10
72.67738984728204
 20
2.005217827189668
 30
0.0
 10
69.99090438788423
 20
3.348288302114317
 30
0.0
 10
69.99090438788423
 20
5.005034720970964
 30
0.0
 10
69.99090438788423
 20
6.66178113982761
 30
0.0
 10
72.67738984728204
 20
8.00485161475226
 30
0.0
 10
75.99088268499534
 20
8.00485161475226
 30
0.0
 10
79.30437552270863
 20
8.00485161475226
 30
0.0
 10
81.99086098210645
 20
6.66178113982761
 30
0.0
 10
81.99086098210645
 20
5.005034720970964
 30
0.0
  0
SPLINE
  5
55
330
1F
100
AcDbEntity
  8
LAYER_1
 62
     7
100
AcDbSpline
210
0.0
220
0.0
230
1.0
 70
    11
 71
     3
 72
    17
 73
    13
 74
     0
 42
0.0000000001
 43
0.0000000001
 40
0.0
 40
0.0
 40
0.0
 40
0.0
 40
1.0
 40
1.0
 40
1.0
 40
2.0
 40
2.0
 40
2.0
 40
3.0
 40
3.0
 40
3.0
 40
4.0
 40
4.0
 40
4.0
 40
4.0
 10
53.97241616489232
 20
5.005551485293751
 30
0.0
 10
53.97241616489232
 20
3.348632811662842
 30
0.0
 10
51.28593070549449
 20
2.005562336738193
 30
0.0
 10
47.9724378677812
 20
2.005562336738193
 30
0.0
 10
44.6589450300679
 20
2.005562336738193
 30
0.0
 10
41.97245957067008
 20
3.348632811662842
 30
0.0
 10
41.97245957067008
 20
5.005551485293751
 30
0.0
 10
41.97245957067008
 20
6.662470158924661
 30
0.0
 10
44.6589450300679
 20
8.005196124300785
 30
0.0
 10
47.9724378677812
 20
8.005196124300785
 30
0.0
 10
51.28593070549449
 20
8.005196124300785
 30
0.0
 10
53.97241616489232
 20
6.662470158924661
 30
0.0
 10
53.97241616489232
 20
5.005551485293751
 30
0.0
  0
SPLINE
  5
56
330
1F
100
AcDbEntity
  8
LAYER_1
 62
     7
100
AcDbSpline
210
0.0
220
0.0
230
1.0
 70
    11
 71
     3
 72
    17
 73
    13
 74
     0
 42
0.0000000001
 43
0.0000000001
 40
0.0
 40
0.0
 40
0.0
 40
0.0
 40
1.0
 40
1.0
 40
1.0
 40
2.0
 40
2.0
 40
2.0
 40
3.0
 40
3.0
 40
3.0
 40
4.0
 40
4.0
 40
4.0
 40
4.0
 10
25.95414360245244
 20
5.005034720970964
 30
0.0
 10
25.95414360245244
 20
3.348288302114317
 30
0.0
 10
23.26765814305461
 20
2.005217827189668
 30
0.0
 10
19.95416530534132
 20
2.005217827189668
 30
0.0
 10
16.64067246762803
 20
2.005217827189668
 30
0.0
 10
13.9541870082302
 20
3.348288302114317
 30
0.0
 10
13.9541870082302
 20
5.005034720970964
 30
0.0
 10
13.9541870082302
 20
6.66178113982761
 30
0.0
 10
16.64067246762803
 20
8.00485161475226
 30
0.0
 10
19.95416530534132
 20
8.00485161475226
 30
0.0
 10
23.26765814305461
 20
8.00485161475226
 30
0.0
 10
25.95414360245244
 20
6.66178113982761
 30
0.0
 10
25.95414360245244
 20
5.005034720970964
 30
0.0
  0
INSERT
  5
58
330
1F
100
AcDbEntity
  8
LAYER_1
100
AcDbBlockReference
  2
BLOCK_4
 10
0.0
 20
0.0
 30
0.0
  0
INSERT
  5
5E
330
1F
100
AcDbEntity
  8
LAYER_1
100
AcDbBlockReference
  2
BLOCK_5
 10
0.0
 20
0.0
 30
0.0
  0
INSERT
  5
64
330
1F
100
AcDbEntity
  8
LAYER_1
100
AcDbBlockReference
  2
BLOCK_6
 10
0.0
 20
0.0
 30
0.0
  0
INSERT
  5
6A
330
1F
100
AcDbEntity
  8
LAYER_1
100
AcDbBlockReference
  2
BLOCK_7
 10
0.0
 20
0.0
 30
0.0
  0
INSERT
  5
70
330
1F
100
AcDbEntity
  8
LAYER_1
100
AcDbBlockReference
  2
BLOCK_8
 10
0.0
 20
0.0
 30
0.0
  0
INSERT
  5
76
330
1F
100
AcDbEntity
  8
LAYER_1
100
AcDbBlockReference
  2
BLOCK_9
 10
0.0
 20
0.0
 30
0.0
  0
INSERT
  5
7C
330
1F
100
AcDbEntity
  8
LAYER_1
100
AcDbBlockReference
  2
BLOCK_10
 10
0.0
 20
0.0
 30
0.0
  0
POLYLINE
  5
81
330
1F
100
AcDbEntity
  8
LAYER_1
 62
     7
100
AcDb2dPolyline
 66
     1
 10
0.0
 20
0.0
 30
0.0
  0
VERTEX
  5
82
330
81
100
AcDbEntity
  8
LAYER_1
 62
     7
100
AcDbVertex
100
AcDb2dVertex
 10
168.0507242418415
 20
75.49444442557083
 30
0.0
  0
VERTEX
  5
83
330
81
100
AcDbEntity
  8
LAYER_1
 62
     7
100
AcDbVertex
100
AcDb2dVertex
 10
164.0409776065592
 20
75.49444442557083
 30
0.0
  0
VERTEX
  5
84
330
81
100
AcDbEntity
  8
LAYER_1
 62
     7
100
AcDbVertex
100
AcDb2dVertex
 10
164.0409776065592
 20
77.99437796444238
 30
0.0
  0
VERTEX
  5
85
330
81
100
AcDbEntity
  8
LAYER_1
 62
     7
100
AcDbVertex
100
AcDb2dVertex
 10
168.0507242418415
 20
77.99437796444238
 30
0.0
  0
VERTEX
  5
86
330
81
100
AcDbEntity
  8
LAYER_1
 62
     7
100
AcDbVertex
100
AcDb2dVertex
 10
168.0507242418415
 20
75.49444442557083
 30
0.0
  0
SEQEND
  5
87
330
81
100
AcDbEntity
  8
LAYER_1
  0
INSERT
  5
89
330
1F
100
AcDbEntity
  8
LAYER_1
100
AcDbBlockReference
  2
BLOCK_11
 10
0.0
 20
0.0
 30
0.0
  0
INSERT
  5
8F
330
1F
100
AcDbEntity
  8
LAYER_1
100
AcDbBlockReference
  2
BLOCK_12
 10
0.0
 20
0.0
 30
0.0
  0
ENDSEC
  0
SECTION
  2
OBJECTS
  0
DICTIONARY
  5
C
330
0
100
AcDbDictionary
  3
ACAD_GROUP
350
D
  3
ACAD_LAYOUT
350
1A
  3
ACAD_MLINESTYLE
350
17
  3
ACAD_PLOTSETTINGS
350
19
  3
ACAD_TABLESTYLE
350
94
  3
ACAD_VISUALSTYLE
350
2A
1001
ACAD
1000
TREAT_AS_HARD
1070
     0
  0
DICTIONARY
  5
D
102
{ACAD_REACTORS
330
C
102
}
330
C
100
AcDbDictionary
1001
ACAD
1000
TREAT_AS_HARD
1070
     0
  0
DICTIONARY
  5
1A
102
{ACAD_REACTORS
330
C
102
}
330
C
100
AcDbDictionary
1001
ACAD
1000
TREAT_AS_HARD
1070
     0
  0
DICTIONARY
  5
17
102
{ACAD_REACTORS
330
C
102
}
330
C
100
AcDbDictionary
  3
STANDARD
350
18
1001
ACAD
1000
TREAT_AS_HARD
1070
     0
  0
DICTIONARY
  5
19
102
{ACAD_REACTORS
330
C
102
}
330
C
100
AcDbDictionary
1001
ACAD
1000
TREAT_AS_HARD
1070
     0
  0
DICTIONARY
  5
94
102
{ACAD_REACTORS
330
C
102
}
330
C
100
AcDbDictionary
1001
ACAD
1000
TREAT_AS_HARD
1070
     0
  0
DICTIONARY
  5
2A
102
{ACAD_REACTORS
330
C
102
}
330
C
100
AcDbDictionary
  3
2DWIREFRAME
350
2F
  3
3D_HIDDEN
350
31
  3
3DWIREFRAME
350
30
  3
BASIC
350
32
  3
BRIGHTEN
350
36
  3
COLORCHANGE
350
3A
  3
CONCEPTUAL
350
34
  3
DIM
350
35
  3
FACEPATTERN
350
39
  3
FLAT
350
2B
  3
FLATWITHEDGES
350
2C
  3
GOURAUD
350
2D
  3
GOURAUDWITHEDGES
350
2E
  3
LINEPATTERN
350
38
  3
REALISTIC
350
33
  3
THICKEN
350
37
1001
ACAD
1000
TREAT_AS_HARD
1070
     0
  0
MLINESTYLE
  5
18
102
{ACAD_REACTORS
330
17
102
}
330
17
100
AcDbMlineStyle
  2
Standard
 70
     0
  3

 62
   256
 51
90.0
 52
90.0
 71
     2
 49
0.5
 62
   256
  6
BYLAYER
 49
-0.5
 62
   256
  6
BYLAYER
  0
VISUALSTYLE
  5
2F
102
{ACAD_REACTORS
330
2A
102
}
330
2A
100
AcDbVisualStyle
  2
2dWireframe
 70
     4
 71
     0
 72
     2
 73
     0
 90
        0
 40
-0.6
 41
-30.0
 62
     5
 63
     7
 74
     1
 91
        4
 64
     7
 65
   257
 75
     1
175
     1
 42
1.0
 92
        0
 66
   257
 43
1.0
 76
     1
 77
     6
 78
     2
 67
     7
 79
     5
170
     0
171
     0
290
     0
174
     0
 93
        1
 44
0.0
173
     0
291
     0
 45
0.0
1001
ACAD
1000
AcDbSavedByObjectVersion
1070
     0
  0
VISUALSTYLE
  5
31
102
{ACAD_REACTORS
330
2A
102
}
330
2A
100
AcDbVisualStyle
  2
3D Hidden
 70
     6
 71
     1
 72
     2
 73
     2
 90
        0
 40
-0.6
 41
-30.0
 62
     5
 63
     7
 74
     2
 91
        2
 64
     7
 65
   257
 75
     2
175
     1
 42
40.0
 92
        0
 66
   257
 43
1.0
 76
     1
 77
     6
 78
     2
 67
     7
 79
     3
170
     0
171
     0
290
     0
174
     0
 93
        1
 44
0.0
173
     0
291
     0
 45
0.0
1001
ACAD
1000
AcDbSavedByObjectVersion
1070
     0
  0
VISUALSTYLE
  5
30
102
{ACAD_REACTORS
330
2A
102
}
330
2A
100
AcDbVisualStyle
  2
3dWireframe
 70
     5
 71
     0
 72
     2
 73
     0
 90
        0
 40
-0.6
 41
-30.0
 62
     5
 63
     7
 74
     1
 91
        4
 64
     7
 65
   257
 75
     1
175
     1
 42
1.0
 92
        0
 66
   257
 43
1.0
 76
     1
 77
     6
 78
     2
 67
     7
 79
     5
170
     0
171
     0
290
     0
174
     0
 93
        1
 44
0.0
173
     0
291
     0
 45
0.0
1001
ACAD
1000
AcDbSavedByObjectVersion
1070
     0
  0
VISUALSTYLE
  5
32
102
{ACAD_REACTORS
330
2A
102
}
330
2A
100
AcDbVisualStyle
  2
Basic
 70
     7
 71
     1
 72
     0
 73
     1
 90
        0
 40
-0.6
 41
-30.0
 62
     5
 63
     7
 74
     0
 91
        4
 64
     7
 65
   257
 75
     1
175
     1
 42
1.0
 92
        8
 66
     7
 43
1.0
 76
     1
 77
     6
 78
     2
 67
     7
 79
     5
170
     0
171
     0
290
     0
174
     0
 93
        1
 44
0.0
173
     0
291
     1
 45
0.0
1001
ACAD
1000
AcDbSavedByObjectVersion
1070
     0
  0
VISUALSTYLE
  5
36
102
{ACAD_REACTORS
330
2A
102
}
330
2A
100
AcDbVisualStyle
  2
Brighten
 70
    12
 71
     2
 72
     2
 73
     0
 90
        0
 40
-0.6
 41
-30.0
 62
     5
 63
     7
 74
     1
 91
        4
 64
     7
 65
   257
 75
     1
175
     1
 42
1.0
 92
        8
 66
     7
 43
1.0
 76
     1
 77
     6
 78
     2
 67
     7
 79
     5
170
     0
171
     0
290
     0
174
     0
 93
        1
 44
50.0
173
     0
291
     1
 45
0.0
1001
ACAD
1000
AcDbSavedByObjectVersion
1070
     0
  0
VISUALSTYLE
  5
3A
102
{ACAD_REACTORS
330
2A
102
}
330
2A
100
AcDbVisualStyle
  2
ColorChange
 70
    16
 71
     2
 72
     2
 73
     3
 90
        0
 40
-0.6
 41
-30.0
 62
     5
 63
     8
 74
     1
 91
        4
 64
     7
 65
   257
 75
     1
175
     1
 42
1.0
 92
        8
 66
     8
 43
1.0
 76
     1
 77
     6
 78
     2
 67
     7
 79
     5
170
     0
171
     0
290
     0
174
     0
 93
        1
 44
0.0
173
     0
291
     1
 45
0.0
1001
ACAD
1000
AcDbSavedByObjectVersion
1070
     0
  0
VISUALSTYLE
  5
34
102
{ACAD_REACTORS
330
2A
102
}
330
2A
100
AcDbVisualStyle
  2
Conceptual
 70
     9
 71
     3
 72
     2
 73
     0
 90
        0
 40
-0.6
 41
-30.0
 62
     5
 63
     7
 74
     2
 91
        2
 64
     7
 65
   257
 75
     1
175
     1
 42
40.0
 92
        8
 66
     7
 43
1.0
 76
     1
 77
     6
 78
     2
 67
     7
 79
     3
170
     0
171
     0
290
     0
174
     0
 93
        1
 44
0.0
173
     0
291
     0
 45
0.0
1001
ACAD
1000
AcDbSavedByObjectVersion
1070
     0
  0
VISUALSTYLE
  5
35
102
{ACAD_REACTORS
330
2A
102
}
330
2A
100
AcDbVisualStyle
  2
Dim
 70
    11
 71
     2
 72
     2
 73
     0
 90
        0
 40
-0.6
 41
-30.0
 62
     5
 63
     7
 74
     1
 91
        4
 64
     7
 65
   257
 75
     1
175
     1
 42
1.0
 92
        8
 66
     7
 43
1.0
 76
     1
 77
     6
 78
     2
 67
     7
 79
     5
170
     0
171
     0
290
     0
174
     0
 93
        1
 44
-50.0
173
     0
291
     1
 45
0.0
1001
ACAD
1000
AcDbSavedByObjectVersion
1070
     0
  0
VISUALSTYLE
  5
39
102
{ACAD_REACTORS
330
2A
102
}
330
2A
100
AcDbVisualStyle
  2
Facepattern
 70
    15
 71
     2
 72
     2
 73
     0
 90
        0
 40
-0.6
 41
-30.0
 62
     5
 63
     7
 74
     1
 91
        4
 64
     7
 65
   257
 75
     1
175
     1
 42
1.0
 92
        8
 66
     7
 43
1.0
 76
     1
 77
     6
 78
     2
 67
     7
 79
     5
170
     0
171
     0
290
     0
174
     0
 93
        1
 44
0.0
173
     0
291
     1
 45
0.0
1001
ACAD
1000
AcDbSavedByObjectVersion
1070
     0
  0
VISUALSTYLE
  5
2B
102
{ACAD_REACTORS
330
2A
102
}
330
2A
100
AcDbVisualStyle
  2
Flat
 70
     0
 71
     2
 72
     1
 73
     1
 90
        2
 40
-0.6
 41
30.0
 62
     5
 63
     7
 74
     0
 91
        4
 64
     7
 65
   257
 75
     1
175
     1
 42
1.0
 92
        8
 66
     7
 43
1.0
 76
     1
 77
     6
 78
     2
 67
     7
 79
     5
170
     0
171
     0
290
     0
174
     0
 93
       13
 44
0.0
173
     0
291
     1
 45
0.0
1001
ACAD
1000
AcDbSavedByObjectVersion
1070
     0
  0
VISUALSTYLE
  5
2C
102
{ACAD_REACTORS
330
2A
102
}
330
2A
100
AcDbVisualStyle
  2
FlatWithEdges
 70
     1
 71
     2
 72
     1
 73
     1
 90
        2
 40
-0.6
 41
30.0
 62
     5
 63
     7
 74
     1
 91
        4
 64
     7
 65
   257
 75
     1
175
     1
 42
1.0
 92
        0
 66
   257
 43
1.0
 76
     1
 77
     6
 78
     2
 67
     7
 79
     5
170
     0
171
     0
290
     0
174
     0
 93
       13
 44
0.0
173
     0
291
     1
 45
0.0
1001
ACAD
1000
AcDbSavedByObjectVersion
1070
     0
  0
VISUALSTYLE
  5
2D
102
{ACAD_REACTORS
330
2A
102
}
330
2A
100
AcDbVisualStyle
  2
Gouraud
 70
     2
 71
     2
 72
     2
 73
     1
 90
        2
 40
-0.6
 41
30.0
 62
     5
 63
     7
 74
     0
 91
        4
 64
     7
 65
   257
 75
     1
175
     1
 42
1.0
 92
        0
 66
     7
 43
1.0
 76
     1
 77
     6
 78
     2
 67
     7
 79
     5
170
     0
171
     0
290
     0
174
     0
 93
       13
 44
0.0
173
     0
291
     1
 45
0.0
1001
ACAD
1000
AcDbSavedByObjectVersion
1070
     0
  0
VISUALSTYLE
  5
2E
102
{ACAD_REACTORS
330
2A
102
}
330
2A
100
AcDbVisualStyle
  2
GouraudWithEdges
 70
     3
 71
     2
 72
     2
 73
     1
 90
        2
 40
-0.6
 41
30.0
 62
     5
 63
     7
 74
     1
 91
        4
 64
     7
 65
   257
 75
     1
175
     1
 42
1.0
 92
        0
 66
   257
 43
1.0
 76
     1
 77
     6
 78
     2
 67
     7
 79
     5
170
     0
171
     0
290
     0
174
     0
 93
       13
 44
0.0
173
     0
291
     1
 45
0.0
1001
ACAD
1000
AcDbSavedByObjectVersion
1070
     0
  0
VISUALSTYLE
  5
38
102
{ACAD_REACTORS
330
2A
102
}
330
2A
100
AcDbVisualStyle
  2
Linepattern
 70
    14
 71
     2
 72
     2
 73
     0
 90
        0
 40
-0.6
 41
-30.0
 62
     5
 63
     7
 74
     1
 91
        4
 64
     7
 65
   257
 75
     7
175
     7
 42
1.0
 92
        8
 66
     7
 43
1.0
 76
     1
 77
     6
 78
     2
 67
     7
 79
     5
170
     0
171
     0
290
     0
174
     0
 93
        1
 44
0.0
173
     0
291
     1
 45
0.0
1001
ACAD
1000
AcDbSavedByObjectVersion
1070
     0
  0
VISUALSTYLE
  5
33
102
{ACAD_REACTORS
330
2A
102
}
330
2A
100
AcDbVisualStyle
  2
Realistic
 70
     8
 71
     2
 72
     2
 73
     0
 90
        0
 40
-0.6
 41
-30.0
 62
     5
 63
     7
 74
     1
 91
        0
 64
     7
 65
   257
 75
     1
175
     1
 42
1.0
 92
        8
 66
     8
 43
1.0
 76
     1
 77
     6
 78
     2
 67
     7
 79
     5
170
     0
171
     0
290
     0
174
     0
 93
       13
 44
0.0
173
     0
291
     0
 45
0.0
1001
ACAD
1000
AcDbSavedByObjectVersion
1070
     0
  0
VISUALSTYLE
  5
37
102
{ACAD_REACTORS
330
2A
102
}
330
2A
100
AcDbVisualStyle
  2
Thicken
 70
    13
 71
     2
 72
     2
 73
     0
 90
        0
 40
-0.6
 41
-30.0
 62
     5
 63
     7
 74
     1
 91
        4
 64
     7
 65
   257
 75
     1
175
     1
 42
1.0
 92
       12
 66
     7
 43
1.0
 76
     1
 77
     6
 78
     2
 67
     7
 79
     5
170
     0
171
     0
290
     0
174
     0
 93
        1
 44
0.0
173
     0
291
     1
 45
0.0
1001
ACAD
1000
AcDbSavedByObjectVersion
1070
     0
  0
ENDSEC
  0
EOF
