  0
SECTION
  2
HEADER
  9
$ACADVER
  1
AC1012
  9
$DWGCODEPAGE
  3
ansi_1252
  9
$INSBASE
 10
0.0
 20
0.0
 30
0.0
  9
$EXTMIN
 10
1.000000000000000E+20
 20
1.000000000000000E+20
 30
1.000000000000000E+20
  9
$EXTMAX
 10
-1.000000000000000E+20
 20
-1.000000000000000E+20
 30
-1.000000000000000E+20
  9
$LIMMIN
 10
0.0
 20
0.0
  9
$LIMMAX
 10
12.0
 20
9.0
  9
$ORTHOMODE
 70
     0
  9
$REGENMODE
 70
     1
  9
$FILLMODE
 70
     1
  9
$QTEXTMODE
 70
     0
  9
$MIRRTEXT
 70
     1
  9
$DRAGMODE
 70
     2
  9
$LTSCALE
 40
1.0
  9
$OSMODE
 70
    37
  9
$ATTMODE
 70
     1
  9
$TEXTSIZE
 40
0.2
  9
$TRACEWID
 40
0.05
  9
$TEXTSTYLE
  7
STANDARD
  9
$CLAYER
  8
0
  9
$CELTYPE
  6
BYLAYER
  9
$CECOLOR
 62
   256
  9
$CELTSCALE
 40
1.0
  9
$DELOBJ
 70
     1
  9
$DISPSILH
 70
     0
  9
$DIMSCALE
 40
1.0
  9
$DIMASZ
 40
0.18
  9
$DIMEXO
 40
0.0625
  9
$DIMDLI
 40
0.38
  9
$DIMRND
 40
0.0
  9
$DIMDLE
 40
0.0
  9
$DIMEXE
 40
0.18
  9
$DIMTP
 40
0.0
  9
$DIMTM
 40
0.0
  9
$DIMTXT
 40
0.18
  9
$DIMCEN
 40
0.09
  9
$DIMTSZ
 40
0.0
  9
$DIMTOL
 70
     0
  9
$DIMLIM
 70
     0
  9
$DIMTIH
 70
     1
  9
$DIMTOH
 70
     1
  9
$DIMSE1
 70
     0
  9
$DIMSE2
 70
     0
  9
$DIMTAD
 70
     0
  9
$DIMZIN
 70
     0
  9
$DIMBLK
  1

  9
$DIMASO
 70
     1
  9
$DIMSHO
 70
     1
  9
$DIMPOST
  1

  9
$DIMAPOST
  1

  9
$DIMALT
 70
     0
  9
$DIMALTD
 70
     2
  9
$DIMALTF
 40
25.4
  9
$DIMLFAC
 40
1.0
  9
$DIMTOFL
 70
     0
  9
$DIMTVP
 40
0.0
  9
$DIMTIX
 70
     0
  9
$DIMSOXD
 70
     0
  9
$DIMSAH
 70
     0
  9
$DIMBLK1
  1

  9
$DIMBLK2
  1

  9
$DIMSTYLE
  2
STANDARD
  9
$DIMCLRD
 70
     0
  9
$DIMCLRE
 70
     0
  9
$DIMCLRT
 70
     0
  9
$DIMTFAC
 40
1.0
  9
$DIMGAP
 40
0.09
  9
$DIMJUST
 70
     0
  9
$DIMSD1
 70
     0
  9
$DIMSD2
 70
     0
  9
$DIMTOLJ
 70
     1
  9
$DIMTZIN
 70
     0
  9
$DIMALTZ
 70
     0
  9
$DIMALTTZ
 70
     0
  9
$DIMFIT
 70
     3
  9
$DIMUPT
 70
     0
  9
$DIMUNIT
 70
     2
  9
$DIMDEC
 70
     4
  9
$DIMTDEC
 70
     4
  9
$DIMALTU
 70
     2
  9
$DIMALTTD
 70
     2
  9
$DIMTXSTY
  7
STANDARD
  9
$DIMAUNIT
 70
     0
  9
$LUNITS
 70
     2
  9
$LUPREC
 70
     4
  9
$SKETCHINC
 40
0.1
  9
$FILLETRAD
 40
0.5
  9
$AUNITS
 70
     0
  9
$AUPREC
 70
     0
  9
$MENU
  1
.
  9
$ELEVATION
 40
0.0
  9
$PELEVATION
 40
0.0
  9
$THICKNESS
 40
0.0
  9
$LIMCHECK
 70
     0
  9
$CHAMFERA
 40
0.5
  9
$CHAMFERB
 40
0.5
  9
$CHAMFERC
 40
1.0
  9
$CHAMFERD
 40
0.0
  9
$SKPOLY
 70
     0
  9
$TDCREATE
 40
2456592.691336956
  9
$TDUPDATE
 40
2456592.691336968
  9
$TDINDWG
 40
0.0000000116
  9
$TDUSRTIMER
 40
0.0000000116
  9
$USRTIMER
 70
     1
  9
$ANGBASE
 50
0.0
  9
$ANGDIR
 70
     0
  9
$PDMODE
 70
     0
  9
$PDSIZE
 40
0.0
  9
$PLINEWID
 40
0.0
  9
$COORDS
 70
     1
  9
$SPLFRAME
 70
     0
  9
$SPLINETYPE
 70
     6
  9
$SPLINESEGS
 70
     8
  9
$ATTDIA
 70
     0
  9
$ATTREQ
 70
     1
  9
$HANDLING
 70
     1
  9
$HANDSEED
  5
BC
  9
$SURFTAB1
 70
     6
  9
$SURFTAB2
 70
     6
  9
$SURFTYPE
 70
     6
  9
$SURFU
 70
     6
  9
$SURFV
 70
     6
  9
$UCSNAME
  2

  9
$UCSORG
 10
0.0
 20
0.0
 30
0.0
  9
$UCSXDIR
 10
1.0
 20
0.0
 30
0.0
  9
$UCSYDIR
 10
0.0
 20
1.0
 30
0.0
  9
$PUCSNAME
  2

  9
$PUCSORG
 10
0.0
 20
0.0
 30
0.0
  9
$PUCSXDIR
 10
1.0
 20
0.0
 30
0.0
  9
$PUCSYDIR
 10
0.0
 20
1.0
 30
0.0
  9
$USERI1
 70
     0
  9
$USERI2
 70
     0
  9
$USERI3
 70
     0
  9
$USERI4
 70
     0
  9
$USERI5
 70
     0
  9
$USERR1
 40
0.0
  9
$USERR2
 40
0.0
  9
$USERR3
 40
0.0
  9
$USERR4
 40
0.0
  9
$USERR5
 40
0.0
  9
$WORLDVIEW
 70
     1
  9
$SHADEDGE
 70
     3
  9
$SHADEDIF
 70
    70
  9
$TILEMODE
 70
     1
  9
$MAXACTVP
 70
    64
  9
$PINSBASE
 10
0.0
 20
0.0
 30
0.0
  9
$PLIMCHECK
 70
     0
  9
$PEXTMIN
 10
1.000000000000000E+20
 20
1.000000000000000E+20
 30
1.000000000000000E+20
  9
$PEXTMAX
 10
-1.000000000000000E+20
 20
-1.000000000000000E+20
 30
-1.000000000000000E+20
  9
$PLIMMIN
 10
0.0
 20
0.0
  9
$PLIMMAX
 10
12.0
 20
9.0
  9
$UNITMODE
 70
     0
  9
$VISRETAIN
 70
     1
  9
$PLINEGEN
 70
     0
  9
$PSLTSCALE
 70
     1
  9
$TREEDEPTH
 70
  3020
  9
$PICKSTYLE
 70
     1
  9
$CMLSTYLE
  2
STANDARD
  9
$CMLJUST
 70
     0
  9
$CMLSCALE
 40
1.0
  9
$SAVEIMAGES
 70
     1
  0
ENDSEC
  0
SECTION
  2
CLASSES
  0
CLASS
  1
ACDBDICTIONARYWDFLT
  2
AcDbDictionaryWithDefault
  3
ObjectDBX Classes
 90
    32768
280
     0
281
     0
  0
CLASS
  1
VISUALSTYLE
  2
AcDbVisualStyle
  3
ObjectDBX Classes
 90
     4095
280
     0
281
     0
  0
CLASS
  1
XRECORD
  2
AcDbXrecord
  3
AutoCAD 2000
 90
    32768
280
     0
281
     0
  0
CLASS
  1
LWPOLYLINE
  2
AcDbPolyline
  3
AutoCAD 2000
 90
    32768
280
     0
281
     1
  0
CLASS
  1
HATCH
  2
AcDbHatch
  3
AutoCAD 2000
 90
    32768
280
     0
281
     1
  0
CLASS
  1
ACDBPLACEHOLDER
  2
AcDbPlaceHolder
  3
ObjectDBX Classes
 90
        0
280
     0
281
     0
  0
CLASS
  1
LAYOUT
  2
AcDbLayout
  3
ObjectDBX Classes
 90
        0
280
     0
281
     0
  0
ENDSEC
  0
SECTION
  2
TABLES
  0
TABLE
  2
VPORT
  5
8
330
0
100
AcDbSymbolTable
 70
     1
  0
VPORT
  5
29
330
8
100
AcDbSymbolTableRecord
100
AcDbViewportTableRecord
  2
*ACTIVE
 70
     0
 10
0.0
 20
0.0
 11
1.0
 21
1.0
 12
0.0
 22
0.0
 13
0.0
 23
0.0
 14
0.5
 24
0.5
 15
0.5
 25
0.5
 16
0.0
 26
0.0
 36
1.0
 17
148.4999796178229
 27
-105.0008259828644
 37
0.0
 40
210.0016519657288
 41
1.414274394775308
 42
50.0
 43
0.0
 44
0.0
 50
0.0
 51
0.0
 71
     0
 72
   100
 73
     1
 74
     3
 75
     0
 76
     0
 77
     0
 78
     0
  0
ENDTAB
  0
TABLE
  2
LTYPE
  5
5
330
0
100
AcDbSymbolTable
 70
     1
  0
LTYPE
  5
14
330
5
100
AcDbSymbolTableRecord
100
AcDbLinetypeTableRecord
  2
BYBLOCK
 70
     0
  3

 72
    65
 73
     0
 40
0.0
  0
LTYPE
  5
15
330
5
100
AcDbSymbolTableRecord
100
AcDbLinetypeTableRecord
  2
BYLAYER
 70
     0
  3

 72
    65
 73
     0
 40
0.0
  0
LTYPE
  5
16
330
5
100
AcDbSymbolTableRecord
100
AcDbLinetypeTableRecord
  2
CONTINUOUS
 70
     0
  3
Solid line
 72
    65
 73
     0
 40
0.0
  0
ENDTAB
  0
TABLE
  2
LAYER
  5
2
330
0
100
AcDbSymbolTable
 70
     2
  0
LAYER
  5
10
330
2
100
AcDbSymbolTableRecord
100
AcDbLayerTableRecord
  2
0
 70
     0
 62
     7
  6
CONTINUOUS
  0
LAYER
  5
3B
330
2
100
AcDbSymbolTableRecord
100
AcDbLayerTableRecord
  2
LAYER_1
 70
     0
 62
     7
  6
CONTINUOUS
  0
ENDTAB
  0
TABLE
  2
STYLE
  5
3
330
0
100
AcDbSymbolTable
 70
     1
  0
STYLE
  5
11
330
3
100
AcDbSymbolTableRecord
100
AcDbTextStyleTableRecord
  2
STANDARD
 70
     0
 40
0.0
 41
1.0
 50
0.0
 71
     0
 42
0.2
  3
txt
  4

  0
ENDTAB
  0
TABLE
  2
VIEW
  5
6
330
0
100
AcDbSymbolTable
 70
     0
  0
ENDTAB
  0
TABLE
  2
UCS
  5
7
330
0
100
AcDbSymbolTable
 70
     0
  0
ENDTAB
  0
TABLE
  2
APPID
  5
9
330
0
100
AcDbSymbolTable
 70
     1
  0
APPID
  5
12
330
9
100
AcDbSymbolTableRecord
100
AcDbRegAppTableRecord
  2
ACAD
 70
     0
  0
ENDTAB
  0
TABLE
  2
DIMSTYLE
  5
A
330
0
100
AcDbSymbolTable
 70
     1
  0
DIMSTYLE
105
27
330
A
100
AcDbSymbolTableRecord
100
AcDbDimStyleTableRecord
  2
STANDARD
 70
     0
  3

  4

  5

  6

  7

 40
1.0
 41
0.18
 42
0.0625
 43
0.38
 44
0.18
 45
0.0
 46
0.0
 47
0.0
 48
0.0
140
0.18
141
0.09
142
0.0
143
25.4
144
1.0
145
0.0
146
1.0
147
0.09
 71
     0
 72
     0
 73
     1
 74
     1
 75
     0
 76
     0
 77
     0
 78
     0
170
     0
171
     2
172
     0
173
     0
174
     0
175
     0
176
     0
177
     0
178
     0
270
     2
271
     4
272
     4
273
     2
274
     2
340
11
275
     0
280
     0
281
     0
282
     0
283
     1
284
     0
285
     0
286
     0
287
     3
288
     0
  0
ENDTAB
  0
TABLE
  2
BLOCK_RECORD
  5
1
330
0
100
AcDbSymbolTable
 70
     2
  0
BLOCK_RECORD
  5
1F
330
1
100
AcDbSymbolTableRecord
100
AcDbBlockTableRecord
  2
*MODEL_SPACE
  0
BLOCK_RECORD
  5
1B
330
1
100
AcDbSymbolTableRecord
100
AcDbBlockTableRecord
  2
*PAPER_SPACE
  0
BLOCK_RECORD
  5
94
330
1
100
AcDbSymbolTableRecord
100
AcDbBlockTableRecord
  2
BLOCK_2
  0
ENDTAB
  0
ENDSEC
  0
SECTION
  2
BLOCKS
  0
BLOCK
  5
20
330
1F
100
AcDbEntity
  8
0
100
AcDbBlockBegin
  2
*MODEL_SPACE
 70
     0
 71
     0
 10
0.0
 20
0.0
 30
0.0
  3
*MODEL_SPACE
  1

  0
ENDBLK
  5
21
330
1F
100
AcDbEntity
  8
0
100
AcDbBlockEnd
  0
BLOCK
  5
1C
330
1B
100
AcDbEntity
 67
     1
  8
0
100
AcDbBlockBegin
  2
*PAPER_SPACE
 70
     0
 71
     0
 10
0.0
 20
0.0
 30
0.0
  3
*PAPER_SPACE
  1

  0
ENDBLK
  5
1D
330
1B
100
AcDbEntity
 67
     1
  8
0
100
AcDbBlockEnd
  0
BLOCK
  5
96
330
94
100
AcDbEntity
  8
0
100
AcDbBlockBegin
  2
BLOCK_2
 70
     0
 71
     0
 10
0.0
 20
0.0
 30
0.0
  3
BLOCK_2
  1

  0
SPLINE
  5
98
330
94
100
AcDbEntity
  8
LAYER_1
 62
   250
100
AcDbSpline
210
0.0
220
0.0
230
1.0
 70
    11
 71
     3
 72
    47
 73
    43
 74
     0
 42
0.0000000001
 43
0.0000000001
 40
0.0
 40
0.0
 40
0.0
 40
0.0
 40
1.0
 40
1.0
 40
1.0
 40
2.0
 40
2.0
 40
2.0
 40
3.0
 40
3.0
 40
3.0
 40
4.0
 40
4.0
 40
4.0
 40
5.0
 40
5.0
 40
5.0
 40
6.0
 40
6.0
 40
6.0
 40
7.0
 40
7.0
 40
7.0
 40
8.0
 40
8.0
 40
8.0
 40
9.0
 40
9.0
 40
9.0
 40
10.0
 40
10.0
 40
10.0
 40
11.0
 40
11.0
 40
11.0
 40
12.0
 40
12.0
 40
12.0
 40
13.0
 40
13.0
 40
13.0
 40
14.0
 40
14.0
 40
14.0
 40
14.0
 10
52.17355955726912
 20
41.79848224866497
 30
0.0
 10
51.82939451829265
 20
41.78435735717544
 30
0.0
 10
51.65748425357869
 20
41.52494166713613
 30
0.0
 10
51.65748425357869
 20
41.15252684518062
 30
0.0
 10
51.65748425357869
 20
40.92411701450855
 30
0.0
 10
51.75325790806863
 20
40.59976127457228
 30
0.0
 10
52.08639864149229
 20
40.59976127457228
 30
0.0
 10
52.4105821266543
 20
40.59976127457228
 30
0.0
 10
52.4643256162242
 20
40.94392631354874
 30
0.0
 10
52.5346055641233
 20
41.28516302136274
 30
0.0
 10
52.60523002157092
 20
41.6293280603392
 30
0.0
 10
52.69273544689626
 20
41.97349309931565
 30
0.0
 10
53.09305554228229
 20
41.97349309931565
 30
0.0
 10
53.51060111509457
 20
41.97349309931565
 30
0.0
 10
53.66011825915442
 20
41.5728284943811
 30
0.0
 10
53.66011825915442
 20
41.26552597709681
 30
0.0
 10
53.66011825915442
 20
40.7944091694889
 30
0.0
 10
53.4654703642378
 20
40.41079778720633
 30
0.0
 10
52.94663898415918
 20
40.41648219475699
 30
0.0
 10
52.94663898415918
 20
40.41648219475699
 30
0.0
 10
52.94663898415918
 20
40.54050563222599
 30
0.0
 10
52.94663898415918
 20
40.54050563222599
 30
0.0
 10
53.38657767762558
 20
40.5151841804094
 30
0.0
 10
53.55297578956315
 20
40.86778970332472
 30
0.0
 10
53.55297578956315
 20
41.26552597709681
 30
0.0
 10
53.55297578956315
 20
41.5080606992584
 30
0.0
 10
53.44307724358368
 20
41.8492974070724
 30
0.0
 10
53.09305554228229
 20
41.8492974070724
 30
0.0
 10
52.75199108924256
 20
41.8492974070724
 30
0.0
 10
52.69273544689626
 20
41.50513236809594
 30
0.0
 10
52.62211098944864
 20
41.16113958389374
 30
0.0
 10
52.55148653200102
 20
40.81973062130549
 30
0.0
 10
52.4698377690006
 20
40.47556558232903
 30
0.0
 10
52.08639864149229
 20
40.47556558232903
 30
0.0
 10
51.69985892804726
 20
40.47556558232903
 30
0.0
 10
51.55034178398742
 20
40.83385551279501
 30
0.0
 10
51.55034178398742
 20
41.15252684518062
 30
0.0
 10
51.55034178398742
 20
41.5728284943811
 30
0.0
 10
51.73086478741451
 20
41.90286864186803
 30
0.0
 10
52.17355955726912
 20
41.92267794090822
 30
0.0
 10
52.17355955726912
 20
41.92267794090822
 30
0.0
 10
52.17355955726912
 20
41.79848224866497
 30
0.0
 10
52.17355955726912
 20
41.79848224866497
 30
0.0
  0
SPLINE
  5
99
330
94
100
AcDbEntity
  8
LAYER_1
 62
   250
100
AcDbSpline
210
0.0
220
0.0
230
1.0
 70
    11
 71
     3
 72
    17
 73
    13
 74
     0
 42
0.0000000001
 43
0.0000000001
 40
0.0
 40
0.0
 40
0.0
 40
0.0
 40
1.0
 40
1.0
 40
1.0
 40
2.0
 40
2.0
 40
2.0
 40
3.0
 40
3.0
 40
3.0
 40
4.0
 40
4.0
 40
4.0
 40
4.0
 10
53.66011825915442
 20
43.69535182284353
 30
0.0
 10
53.66011825915442
 20
43.09177109382775
 30
0.0
 10
53.19468585909716
 20
42.73640949452423
 30
0.0
 10
52.60523002157092
 20
42.73640949452423
 30
0.0
 10
52.01577418404467
 20
42.73640949452423
 30
0.0
 10
51.55034178398742
 20
43.09177109382775
 30
0.0
 10
51.55034178398742
 20
43.69535182284353
 30
0.0
 10
51.55034178398742
 20
44.2961764754711
 30
0.0
 10
52.01577418404467
 20
44.65153807477462
 30
0.0
 10
52.60523002157092
 20
44.65153807477462
 30
0.0
 10
53.19468585909716
 20
44.65153807477462
 30
0.0
 10
53.66011825915442
 20
44.2961764754711
 30
0.0
 10
53.66011825915442
 20
43.69535182284353
 30
0.0
  0
SPLINE
  5
9A
330
94
100
AcDbEntity
  8
LAYER_1
 62
   250
100
AcDbSpline
210
0.0
220
0.0
230
1.0
 70
    11
 71
     3
 72
    17
 73
    13
 74
     0
 42
0.0000000001
 43
0.0000000001
 40
0.0
 40
0.0
 40
0.0
 40
0.0
 40
1.0
 40
1.0
 40
1.0
 40
2.0
 40
2.0
 40
2.0
 40
3.0
 40
3.0
 40
3.0
 40
4.0
 40
4.0
 40
4.0
 40
4.0
 10
53.55297578956315
 20
43.69535182284353
 30
0.0
 10
53.55297578956315
 20
44.22003986524707
 30
0.0
 10
53.12130532526135
 20
44.52751463730562
 30
0.0
 10
52.60523002157092
 20
44.52751463730562
 30
0.0
 10
52.08915471788049
 20
44.52751463730562
 30
0.0
 10
51.65748425357869
 20
44.22003986524707
 30
0.0
 10
51.65748425357869
 20
43.69535182284353
 30
0.0
 10
51.65748425357869
 20
43.16790770405178
 30
0.0
 10
52.08915471788049
 20
42.86043293199323
 30
0.0
 10
52.60523002157092
 20
42.86043293199323
 30
0.0
 10
53.12130532526135
 20
42.86043293199323
 30
0.0
 10
53.55297578956315
 20
43.16790770405178
 30
0.0
 10
53.55297578956315
 20
43.69535182284353
 30
0.0
  0
POLYLINE
  5
9B
330
94
100
AcDbEntity
  8
LAYER_1
 62
   250
100
AcDb2dPolyline
 66
     1
 10
0.0
 20
0.0
 30
0.0
  0
VERTEX
  5
9C
330
9B
100
AcDbEntity
  8
LAYER_1
 62
   250
100
AcDbVertex
100
AcDb2dVertex
 10
51.59822861123239
 20
45.48232285104262
 30
0.0
  0
VERTEX
  5
9D
330
9B
100
AcDbEntity
  8
LAYER_1
 62
   250
100
AcDbVertex
100
AcDb2dVertex
 10
51.59822861123239
 20
45.60634628851161
 30
0.0
  0
VERTEX
  5
9E
330
9B
100
AcDbEntity
  8
LAYER_1
 62
   250
100
AcDbVertex
100
AcDb2dVertex
 10
53.61223143190944
 20
45.60634628851161
 30
0.0
  0
VERTEX
  5
9F
330
9B
100
AcDbEntity
  8
LAYER_1
 62
   250
100
AcDbVertex
100
AcDb2dVertex
 10
53.61223143190944
 20
45.48232285104262
 30
0.0
  0
VERTEX
  5
A0
330
9B
100
AcDbEntity
  8
LAYER_1
 62
   250
100
AcDbVertex
100
AcDb2dVertex
 10
51.59822861123239
 20
45.48232285104262
 30
0.0
  0
SEQEND
  5
A1
330
9B
100
AcDbEntity
  8
LAYER_1
  0
SPLINE
  5
A2
330
94
100
AcDbEntity
  8
LAYER_1
 62
   250
100
AcDbSpline
210
0.0
220
0.0
230
1.0
 70
    11
 71
     3
 72
    35
 73
    31
 74
     0
 42
0.0000000001
 43
0.0000000001
 40
0.0
 40
0.0
 40
0.0
 40
0.0
 40
1.0
 40
1.0
 40
1.0
 40
2.0
 40
2.0
 40
2.0
 40
3.0
 40
3.0
 40
3.0
 40
4.0
 40
4.0
 40
4.0
 40
5.0
 40
5.0
 40
5.0
 40
6.0
 40
6.0
 40
6.0
 40
7.0
 40
7.0
 40
7.0
 40
8.0
 40
8.0
 40
8.0
 40
9.0
 40
9.0
 40
9.0
 40
10.0
 40
10.0
 40
10.0
 40
10.0
 10
52.19905326385996
 20
48.09473875750757
 30
0.0
 10
51.86074488720843
 20
48.04116752271193
 30
0.0
 10
51.65748425357869
 20
47.74506156575471
 30
0.0
 10
51.65748425357869
 20
47.40933701071711
 30
0.0
 10
51.65748425357869
 20
46.88189289192536
 30
0.0
 10
52.08915471788049
 20
46.57441811986681
 30
0.0
 10
52.60523002157092
 20
46.57441811986681
 30
0.0
 10
53.12130532526135
 20
46.57441811986681
 30
0.0
 10
53.55297578956315
 20
46.88189289192536
 30
0.0
 10
53.55297578956315
 20
47.40933701071711
 30
0.0
 10
53.55297578956315
 20
47.80138887693855
 30
0.0
 10
53.20329859781029
 20
48.10610757260889
 30
0.0
 10
52.82812769946658
 20
48.12867294803728
 30
0.0
 10
52.82812769946658
 20
48.12867294803728
 30
0.0
 10
52.82812769946658
 20
48.25269638550628
 30
0.0
 10
52.82812769946658
 20
48.25269638550628
 30
0.0
 10
53.30768499101336
 20
48.2075656346495
 30
0.0
 10
53.66011825915442
 20
47.85220403534598
 30
0.0
 10
53.66011825915442
 20
47.40933701071711
 30
0.0
 10
53.66011825915442
 20
46.80575628170134
 30
0.0
 10
53.19468585909716
 20
46.45039468239782
 30
0.0
 10
52.60523002157092
 20
46.45039468239782
 30
0.0
 10
52.01577418404467
 20
46.45039468239782
 30
0.0
 10
51.55034178398742
 20
46.80575628170134
 30
0.0
 10
51.55034178398742
 20
47.40933701071711
 30
0.0
 10
51.55034178398742
 20
48.12298854048662
 30
0.0
 10
52.17080348088091
 20
48.21600611858836
 30
0.0
 10
52.19905326385996
 20
48.21893444975083
 30
0.0
 10
52.19905326385996
 20
48.21893444975083
 30
0.0
 10
52.19905326385996
 20
48.09473875750757
 30
0.0
 10
52.19905326385996
 20
48.09473875750757
 30
0.0
  0
SPLINE
  5
A3
330
94
100
AcDbEntity
  8
LAYER_1
 62
   250
100
AcDbSpline
210
0.0
220
0.0
230
1.0
 70
    11
 71
     3
 72
    41
 73
    37
 74
     0
 42
0.0000000001
 43
0.0000000001
 40
0.0
 40
0.0
 40
0.0
 40
0.0
 40
1.0
 40
1.0
 40
1.0
 40
2.0
 40
2.0
 40
2.0
 40
3.0
 40
3.0
 40
3.0
 40
4.0
 40
4.0
 40
4.0
 40
5.0
 40
5.0
 40
5.0
 40
6.0
 40
6.0
 40
6.0
 40
7.0
 40
7.0
 40
7.0
 40
8.0
 40
8.0
 40
8.0
 40
9.0
 40
9.0
 40
9.0
 40
10.0
 40
10.0
 40
10.0
 40
11.0
 40
11.0
 40
11.0
 40
12.0
 40
12.0
 40
12.0
 40
12.0
 10
53.50508896231818
 20
51.6762600239733
 30
0.0
 10
53.50508896231818
 20
51.6762600239733
 30
0.0
 10
53.61223143190944
 20
51.6762600239733
 30
0.0
 10
53.61223143190944
 20
51.6762600239733
 30
0.0
 10
53.61223143190944
 20
51.6762600239733
 30
0.0
 10
53.61223143190944
 20
50.37866480945394
 30
0.0
 10
53.61223143190944
 20
50.37866480945394
 30
0.0
 10
53.24842934866706
 20
50.40123018488234
 30
0.0
 10
53.04826930097405
 20
50.68889565790069
 30
0.0
 10
52.85913355883383
 20
50.97380505453086
 30
0.0
 10
52.66999781669362
 20
51.25595837477282
 30
0.0
 10
52.48947481326653
 20
51.53793944024051
 30
0.0
 10
52.16253525171631
 20
51.53793944024051
 30
0.0
 10
51.89726289935208
 20
51.53793944024051
 30
0.0
 10
51.72535263463811
 20
51.31228568595665
 30
0.0
 10
51.72535263463811
 20
51.058554403468
 30
0.0
 10
51.72535263463811
 20
50.70302054939022
 30
0.0
 10
51.98752440106562
 20
50.53386636106445
 30
0.0
 10
52.32307670132896
 20
50.53386636106445
 30
0.0
 10
52.32307670132896
 20
50.53386636106445
 30
0.0
 10
52.32307670132896
 20
50.42672389147318
 30
0.0
 10
52.32307670132896
 20
50.42672389147318
 30
0.0
 10
51.8576443012717
 20
50.44928926690157
 30
0.0
 10
51.63199054698784
 20
50.66081812969591
 30
0.0
 10
51.63199054698784
 20
51.04150118081601
 30
0.0
 10
51.63199054698784
 20
51.37154132830295
 30
0.0
 10
51.80700139763853
 20
51.64525416460605
 30
0.0
 10
52.16529132810452
 20
51.64525416460605
 30
0.0
 10
52.50670029069277
 20
51.64525416460605
 30
0.0
 10
52.72098522987531
 20
51.37722573585361
 30
0.0
 10
52.90702038607881
 20
51.09800074677411
 30
0.0
 10
53.09305554228229
 20
50.81877575769462
 30
0.0
 10
53.26531031654478
 20
50.53386636106445
 30
0.0
 10
53.50508896231818
 20
50.51405706202426
 30
0.0
 10
53.50508896231818
 20
50.51405706202426
 30
0.0
 10
53.50508896231818
 20
51.6762600239733
 30
0.0
 10
53.50508896231818
 20
51.6762600239733
 30
0.0
  0
SPLINE
  5
A4
330
94
100
AcDbEntity
  8
LAYER_1
 62
   250
100
AcDbSpline
210
0.0
220
0.0
230
1.0
 70
    11
 71
     3
 72
    35
 73
    31
 74
     0
 42
0.0000000001
 43
0.0000000001
 40
0.0
 40
0.0
 40
0.0
 40
0.0
 40
1.0
 40
1.0
 40
1.0
 40
2.0
 40
2.0
 40
2.0
 40
3.0
 40
3.0
 40
3.0
 40
4.0
 40
4.0
 40
4.0
 40
5.0
 40
5.0
 40
5.0
 40
6.0
 40
6.0
 40
6.0
 40
7.0
 40
7.0
 40
7.0
 40
8.0
 40
8.0
 40
8.0
 40
9.0
 40
9.0
 40
9.0
 40
10.0
 40
10.0
 40
10.0
 40
10.0
 10
51.63199054698784
 20
53.16678058566664
 30
0.0
 10
51.63199054698784
 20
53.46857095017452
 30
0.0
 10
51.75325790806863
 20
53.76760523829421
 30
0.0
 10
52.12016057724774
 20
53.76760523829421
 30
0.0
 10
52.33720159281848
 20
53.76760523829421
 30
0.0
 10
52.50084362836785
 20
53.64633787721342
 30
0.0
 10
52.54597437922462
 20
53.40948756260249
 30
0.0
 10
52.54597437922462
 20
53.40948756260249
 30
0.0
 10
52.55148653200102
 20
53.40948756260249
 30
0.0
 10
52.55148653200102
 20
53.40948756260249
 30
0.0
 10
52.5828369009168
 20
53.67458766019246
 30
0.0
 10
52.77748479583341
 20
53.84064126258151
 30
0.0
 10
53.05378145375045
 20
53.84064126258151
 30
0.0
 10
53.4572021350732
 20
53.84064126258151
 30
0.0
 10
53.64599336766489
 20
53.53919540762215
 30
0.0
 10
53.64599336766489
 20
53.16678058566664
 30
0.0
 10
53.64599336766489
 20
52.7945380184854
 30
0.0
 10
53.4572021350732
 20
52.49274765397751
 30
0.0
 10
53.05378145375045
 20
52.49274765397751
 30
0.0
 10
52.77748479583341
 20
52.49274765397751
 30
0.0
 10
52.5828369009168
 20
52.65914576591508
 30
0.0
 10
52.55148653200102
 20
52.92424586350505
 30
0.0
 10
52.55148653200102
 20
52.92424586350505
 30
0.0
 10
52.54597437922462
 20
52.92424586350505
 30
0.0
 10
52.54597437922462
 20
52.92424586350505
 30
0.0
 10
52.50084362836785
 20
52.68739554889412
 30
0.0
 10
52.33720159281848
 20
52.56595593303907
 30
0.0
 10
52.12016057724774
 20
52.56595593303907
 30
0.0
 10
51.75325790806863
 20
52.56595593303907
 30
0.0
 10
51.63199054698784
 20
52.86499022115876
 30
0.0
 10
51.63199054698784
 20
53.16678058566664
 30
0.0
  0
SPLINE
  5
A5
330
94
100
AcDbEntity
  8
LAYER_1
 62
   250
100
AcDbSpline
210
0.0
220
0.0
230
1.0
 70
    11
 71
     3
 72
    17
 73
    13
 74
     0
 42
0.0000000001
 43
0.0000000001
 40
0.0
 40
0.0
 40
0.0
 40
0.0
 40
1.0
 40
1.0
 40
1.0
 40
2.0
 40
2.0
 40
2.0
 40
3.0
 40
3.0
 40
3.0
 40
4.0
 40
4.0
 40
4.0
 40
4.0
 10
51.72535263463811
 20
53.16678058566664
 30
0.0
 10
51.72535263463811
 20
52.91012097201553
 30
0.0
 10
51.82388236551625
 20
52.6732706574046
 30
0.0
 10
52.12016057724774
 20
52.6732706574046
 30
0.0
 10
52.39645723516477
 20
52.6732706574046
 30
0.0
 10
52.50670029069277
 20
52.91580537956619
 30
0.0
 10
52.50670029069277
 20
53.16678058566664
 30
0.0
 10
52.50670029069277
 20
53.41792804654136
 30
0.0
 10
52.39645723516477
 20
53.66046276870294
 30
0.0
 10
52.12016057724774
 20
53.66046276870294
 30
0.0
 10
51.82388236551625
 20
53.66046276870294
 30
0.0
 10
51.72535263463811
 20
53.42344019931775
 30
0.0
 10
51.72535263463811
 20
53.16678058566664
 30
0.0
  0
SPLINE
  5
A6
330
94
100
AcDbEntity
  8
LAYER_1
 62
   250
100
AcDbSpline
210
0.0
220
0.0
230
1.0
 70
    11
 71
     3
 72
    17
 73
    13
 74
     0
 42
0.0000000001
 43
0.0000000001
 40
0.0
 40
0.0
 40
0.0
 40
0.0
 40
1.0
 40
1.0
 40
1.0
 40
2.0
 40
2.0
 40
2.0
 40
3.0
 40
3.0
 40
3.0
 40
4.0
 40
4.0
 40
4.0
 40
4.0
 10
52.59971786879452
 20
53.16678058566664
 30
0.0
 10
52.59971786879452
 20
52.86223414477055
 30
0.0
 10
52.72925345903991
 20
52.59989012356878
 30
0.0
 10
53.05378145375045
 20
52.59989012356878
 30
0.0
 10
53.3979464927269
 20
52.59989012356878
 30
0.0
 10
53.55297578956315
 20
52.86791855232121
 30
0.0
 10
53.55297578956315
 20
53.16678058566664
 30
0.0
 10
53.55297578956315
 20
53.46581487378633
 30
0.0
 10
53.3979464927269
 20
53.73349879299024
 30
0.0
 10
53.05378145375045
 20
53.73349879299024
 30
0.0
 10
52.72925345903991
 20
53.73349879299024
 30
0.0
 10
52.59971786879452
 20
53.47149928133699
 30
0.0
 10
52.59971786879452
 20
53.16678058566664
 30
0.0
  0
ENDBLK
  5
97
330
94
100
AcDbEntity
  8
0
100
AcDbBlockEnd
  0
ENDSEC
  0
SECTION
  2
ENTITIES
  0
SPLINE
  5
3C
330
1F
100
AcDbEntity
  8
LAYER_1
 62
   250
100
AcDbSpline
210
0.0
220
0.0
230
1.0
 70
    11
 71
     3
 72
    29
 73
    25
 74
     0
 42
0.0000000001
 43
0.0000000001
 40
0.0
 40
0.0
 40
0.0
 40
0.0
 40
1.0
 40
1.0
 40
1.0
 40
2.0
 40
2.0
 40
2.0
 40
3.0
 40
3.0
 40
3.0
 40
4.0
 40
4.0
 40
4.0
 40
5.0
 40
5.0
 40
5.0
 40
6.0
 40
6.0
 40
6.0
 40
7.0
 40
7.0
 40
7.0
 40
8.0
 40
8.0
 40
8.0
 40
8.0
 10
25.0000244078125
 20
1.499994574277779
 30
0.0
 10
25.0000244078125
 20
0.6750664603347056
 30
0.0
 10
24.32495794747779
 20
0.0
 30
0.0
 10
23.50002983353471
 20
0.0
 30
0.0
 10
23.50002983353471
 20
0.0
 30
0.0
 10
1.499994574277779
 20
0.0
 30
0.0
 10
1.499994574277779
 20
0.0
 30
0.0
 10
0.6750664603347056
 20
0.0
 30
0.0
 10
0.0
 20
0.6750664603347056
 30
0.0
 10
0.0
 20
1.499994574277779
 30
0.0
 10
0.0
 20
1.499994574277779
 30
0.0
 10
0.0
 20
26.50001898209027
 30
0.0
 10
0.0
 20
26.50001898209027
 30
0.0
 10
0.0
 20
27.32494709603335
 30
0.0
 10
0.6750664603347056
 20
28.00001355636805
 30
0.0
 10
1.499994574277779
 20
28.00001355636805
 30
0.0
 10
1.499994574277779
 20
28.00001355636805
 30
0.0
 10
23.50002983353471
 20
28.00001355636805
 30
0.0
 10
23.50002983353471
 20
28.00001355636805
 30
0.0
 10
24.32495794747779
 20
28.00001355636805
 30
0.0
 10
25.0000244078125
 20
27.32494709603335
 30
0.0
 10
25.0000244078125
 20
26.50001898209027
 30
0.0
 10
25.0000244078125
 20
26.50001898209027
 30
0.0
 10
25.0000244078125
 20
1.499994574277779
 30
0.0
 10
25.0000244078125
 20
1.499994574277779
 30
0.0
  0
POLYLINE
  5
3D
330
1F
100
AcDbEntity
  8
LAYER_1
 62
   250
100
AcDb2dPolyline
 66
     1
 10
0.0
 20
0.0
 30
0.0
  0
VERTEX
  5
3E
330
3D
100
AcDbEntity
  8
LAYER_1
 62
   250
100
AcDbVertex
100
AcDb2dVertex
 10
8.500084090756923
 20
31.00017495969787
 30
0.0
  0
VERTEX
  5
3F
330
3D
100
AcDbEntity
  8
LAYER_1
 62
   250
100
AcDbVertex
100
AcDb2dVertex
 10
8.500084090756923
 20
24.93405082926996
 30
0.0
  0
VERTEX
  5
40
330
3D
100
AcDbEntity
  8
LAYER_1
 62
   250
100
AcDbVertex
100
AcDb2dVertex
 10
8.506629772178899
 20
24.93405082926996
 30
0.0
  0
VERTEX
  5
41
330
3D
100
AcDbEntity
  8
LAYER_1
 62
   250
100
AcDbVertex
100
AcDb2dVertex
 10
9.300035262431937
 20
16.95004204220346
 30
0.0
  0
VERTEX
  5
42
330
3D
100
AcDbEntity
  8
LAYER_1
 62
   250
100
AcDbVertex
100
AcDb2dVertex
 10
9.300035262431937
 20
8.049982365609033
 30
0.0
  0
VERTEX
  5
43
330
3D
100
AcDbEntity
  8
LAYER_1
 62
   250
100
AcDbVertex
100
AcDb2dVertex
 10
15.69998914538056
 20
8.049982365609033
 30
0.0
  0
VERTEX
  5
44
330
3D
100
AcDbEntity
  8
LAYER_1
 62
   250
100
AcDbVertex
100
AcDb2dVertex
 10
15.69998914538056
 20
16.95004204220346
 30
0.0
  0
VERTEX
  5
45
330
3D
100
AcDbEntity
  8
LAYER_1
 62
   250
100
AcDbVertex
100
AcDb2dVertex
 10
16.49356689040786
 20
24.93405082926996
 30
0.0
  0
VERTEX
  5
46
330
3D
100
AcDbEntity
  8
LAYER_1
 62
   250
100
AcDbVertex
100
AcDb2dVertex
 10
16.50011257182983
 20
24.93405082926996
 30
0.0
  0
VERTEX
  5
47
330
3D
100
AcDbEntity
  8
LAYER_1
 62
   250
100
AcDbVertex
100
AcDb2dVertex
 10
16.50011257182983
 20
31.00017495969787
 30
0.0
  0
VERTEX
  5
48
330
3D
100
AcDbEntity
  8
LAYER_1
 62
   250
100
AcDbVertex
100
AcDb2dVertex
 10
8.500084090756923
 20
31.00017495969787
 30
0.0
  0
SEQEND
  5
49
330
3D
100
AcDbEntity
  8
LAYER_1
  0
SPLINE
  5
4A
330
1F
100
AcDbEntity
  8
LAYER_1
 62
   250
100
AcDbSpline
210
0.0
220
0.0
230
1.0
 70
    11
 71
     3
 72
    17
 73
    13
 74
     0
 42
0.0000000001
 43
0.0000000001
 40
0.0
 40
0.0
 40
0.0
 40
0.0
 40
1.0
 40
1.0
 40
1.0
 40
2.0
 40
2.0
 40
2.0
 40
3.0
 40
3.0
 40
3.0
 40
4.0
 40
4.0
 40
4.0
 40
4.0
 10
14.15004068656666
 20
12.50001220390625
 30
0.0
 10
14.15004068656666
 20
11.5886121932834
 30
0.0
 10
13.41141221452909
 20
10.84998372124584
 30
0.0
 10
12.50001220390625
 20
10.84998372124584
 30
0.0
 10
11.5886121932834
 20
10.84998372124584
 30
0.0
 10
10.84998372124584
 20
11.5886121932834
 30
0.0
 10
10.84998372124584
 20
12.50001220390625
 30
0.0
 10
10.84998372124584
 20
13.41141221452909
 30
0.0
 10
11.5886121932834
 20
14.15004068656666
 30
0.0
 10
12.50001220390625
 20
14.15004068656666
 30
0.0
 10
13.41141221452909
 20
14.15004068656666
 30
0.0
 10
14.15004068656666
 20
13.41141221452909
 30
0.0
 10
14.15004068656666
 20
12.50001220390625
 30
0.0
  0
SPLINE
  5
4B
330
1F
100
AcDbEntity
  8
LAYER_1
 62
   250
100
AcDbSpline
210
0.0
220
0.0
230
1.0
 70
    11
 71
     3
 72
    47
 73
    43
 74
     0
 42
0.0000000001
 43
0.0000000001
 40
0.0
 40
0.0
 40
0.0
 40
0.0
 40
1.0
 40
1.0
 40
1.0
 40
2.0
 40
2.0
 40
2.0
 40
3.0
 40
3.0
 40
3.0
 40
4.0
 40
4.0
 40
4.0
 40
5.0
 40
5.0
 40
5.0
 40
6.0
 40
6.0
 40
6.0
 40
7.0
 40
7.0
 40
7.0
 40
8.0
 40
8.0
 40
8.0
 40
9.0
 40
9.0
 40
9.0
 40
10.0
 40
10.0
 40
10.0
 40
11.0
 40
11.0
 40
11.0
 40
12.0
 40
12.0
 40
12.0
 40
13.0
 40
13.0
 40
13.0
 40
14.0
 40
14.0
 40
14.0
 40
14.0
 10
22.10063204742623
 20
8.63737114584413
 30
0.0
 10
21.75646700844977
 20
8.623246254354605
 30
0.0
 10
21.58455674373581
 20
8.363830564315293
 30
0.0
 10
21.58455674373581
 20
7.991415742359785
 30
0.0
 10
21.58455674373581
 20
7.763005911687721
 30
0.0
 10
21.68033039822575
 20
7.438650171751449
 30
0.0
 10
22.01347113164941
 20
7.438650171751449
 30
0.0
 10
22.33765461681142
 20
7.438650171751449
 30
0.0
 10
22.39139810638132
 20
7.782815210727907
 30
0.0
 10
22.46167805428042
 20
8.124051918541904
 30
0.0
 10
22.53230251172804
 20
8.468216957518363
 30
0.0
 10
22.61980793705338
 20
8.812381996494821
 30
0.0
 10
23.02012803243941
 20
8.812381996494821
 30
0.0
 10
23.43767360525169
 20
8.812381996494821
 30
0.0
 10
23.58719074931154
 20
8.411717391560266
 30
0.0
 10
23.58719074931154
 20
8.10441487427598
 30
0.0
 10
23.58719074931154
 20
7.633298066668065
 30
0.0
 10
23.39254285439492
 20
7.249686684385495
 30
0.0
 10
22.87371147431629
 20
7.255371091936158
 30
0.0
 10
22.87371147431629
 20
7.255371091936158
 30
0.0
 10
22.87371147431629
 20
7.379394529405151
 30
0.0
 10
22.87371147431629
 20
7.379394529405151
 30
0.0
 10
23.3136501677827
 20
7.354073077588565
 30
0.0
 10
23.48004827972027
 20
7.706678600503886
 30
0.0
 10
23.48004827972027
 20
8.10441487427598
 30
0.0
 10
23.48004827972027
 20
8.346949596437568
 30
0.0
 10
23.3701497337408
 20
8.688186304251564
 30
0.0
 10
23.02012803243941
 20
8.688186304251564
 30
0.0
 10
22.67906357939968
 20
8.688186304251564
 30
0.0
 10
22.61980793705338
 20
8.344021265275106
 30
0.0
 10
22.54918347960576
 20
8.00002848107291
 30
0.0
 10
22.47855902215814
 20
7.658619518484651
 30
0.0
 10
22.39691025915772
 20
7.314454479508192
 30
0.0
 10
22.01347113164941
 20
7.314454479508192
 30
0.0
 10
21.62693141820438
 20
7.314454479508192
 30
0.0
 10
21.47741427414454
 20
7.672744409974175
 30
0.0
 10
21.47741427414454
 20
7.991415742359785
 30
0.0
 10
21.47741427414454
 20
8.411717391560266
 30
0.0
 10
21.65793727757163
 20
8.7417575390472
 30
0.0
 10
22.10063204742623
 20
8.761566838087386
 30
0.0
 10
22.10063204742623
 20
8.761566838087386
 30
0.0
 10
22.10063204742623
 20
8.63737114584413
 30
0.0
 10
22.10063204742623
 20
8.63737114584413
 30
0.0
  0
SPLINE
  5
4C
330
1F
100
AcDbEntity
  8
LAYER_1
 62
   250
100
AcDbSpline
210
0.0
220
0.0
230
1.0
 70
    11
 71
     3
 72
    17
 73
    13
 74
     0
 42
0.0000000001
 43
0.0000000001
 40
0.0
 40
0.0
 40
0.0
 40
0.0
 40
1.0
 40
1.0
 40
1.0
 40
2.0
 40
2.0
 40
2.0
 40
3.0
 40
3.0
 40
3.0
 40
4.0
 40
4.0
 40
4.0
 40
4.0
 10
23.58719074931154
 20
10.53424072002269
 30
0.0
 10
23.58719074931154
 20
9.93065999100692
 30
0.0
 10
23.12175834925428
 20
9.575298391703399
 30
0.0
 10
22.53230251172804
 20
9.575298391703399
 30
0.0
 10
21.94284667420179
 20
9.575298391703399
 30
0.0
 10
21.47741427414454
 20
9.93065999100692
 30
0.0
 10
21.47741427414454
 20
10.53424072002269
 30
0.0
 10
21.47741427414454
 20
11.13506537265026
 30
0.0
 10
21.94284667420179
 20
11.49042697195378
 30
0.0
 10
22.53230251172804
 20
11.49042697195378
 30
0.0
 10
23.12175834925428
 20
11.49042697195378
 30
0.0
 10
23.58719074931154
 20
11.13506537265026
 30
0.0
 10
23.58719074931154
 20
10.53424072002269
 30
0.0
  0
SPLINE
  5
4D
330
1F
100
AcDbEntity
  8
LAYER_1
 62
   250
100
AcDbSpline
210
0.0
220
0.0
230
1.0
 70
    11
 71
     3
 72
    17
 73
    13
 74
     0
 42
0.0000000001
 43
0.0000000001
 40
0.0
 40
0.0
 40
0.0
 40
0.0
 40
1.0
 40
1.0
 40
1.0
 40
2.0
 40
2.0
 40
2.0
 40
3.0
 40
3.0
 40
3.0
 40
4.0
 40
4.0
 40
4.0
 40
4.0
 10
23.48004827972027
 20
10.53424072002269
 30
0.0
 10
23.48004827972027
 20
11.05892876242624
 30
0.0
 10
23.04837781541846
 20
11.36640353448479
 30
0.0
 10
22.53230251172804
 20
11.36640353448479
 30
0.0
 10
22.01622720803761
 20
11.36640353448479
 30
0.0
 10
21.58455674373581
 20
11.05892876242624
 30
0.0
 10
21.58455674373581
 20
10.53424072002269
 30
0.0
 10
21.58455674373581
 20
10.00679660123094
 30
0.0
 10
22.01622720803761
 20
9.699321829172392
 30
0.0
 10
22.53230251172804
 20
9.699321829172392
 30
0.0
 10
23.04837781541846
 20
9.699321829172392
 30
0.0
 10
23.48004827972027
 20
10.00679660123094
 30
0.0
 10
23.48004827972027
 20
10.53424072002269
 30
0.0
  0
POLYLINE
  5
4E
330
1F
100
AcDbEntity
  8
LAYER_1
 62
   250
100
AcDb2dPolyline
 66
     1
 10
0.0
 20
0.0
 30
0.0
  0
VERTEX
  5
4F
330
4E
100
AcDbEntity
  8
LAYER_1
 62
   250
100
AcDbVertex
100
AcDb2dVertex
 10
21.52530110138951
 20
12.32121174822178
 30
0.0
  0
VERTEX
  5
50
330
4E
100
AcDbEntity
  8
LAYER_1
 62
   250
100
AcDbVertex
100
AcDb2dVertex
 10
21.52530110138951
 20
12.44523518569078
 30
0.0
  0
VERTEX
  5
51
330
4E
100
AcDbEntity
  8
LAYER_1
 62
   250
100
AcDbVertex
100
AcDb2dVertex
 10
23.53930392206657
 20
12.44523518569078
 30
0.0
  0
VERTEX
  5
52
330
4E
100
AcDbEntity
  8
LAYER_1
 62
   250
100
AcDbVertex
100
AcDb2dVertex
 10
23.53930392206657
 20
12.32121174822178
 30
0.0
  0
VERTEX
  5
53
330
4E
100
AcDbEntity
  8
LAYER_1
 62
   250
100
AcDbVertex
100
AcDb2dVertex
 10
21.52530110138951
 20
12.32121174822178
 30
0.0
  0
SEQEND
  5
54
330
4E
100
AcDbEntity
  8
LAYER_1
  0
SPLINE
  5
55
330
1F
100
AcDbEntity
  8
LAYER_1
 62
   250
100
AcDbSpline
210
0.0
220
0.0
230
1.0
 70
    11
 71
     3
 72
    35
 73
    31
 74
     0
 42
0.0000000001
 43
0.0000000001
 40
0.0
 40
0.0
 40
0.0
 40
0.0
 40
1.0
 40
1.0
 40
1.0
 40
2.0
 40
2.0
 40
2.0
 40
3.0
 40
3.0
 40
3.0
 40
4.0
 40
4.0
 40
4.0
 40
5.0
 40
5.0
 40
5.0
 40
6.0
 40
6.0
 40
6.0
 40
7.0
 40
7.0
 40
7.0
 40
8.0
 40
8.0
 40
8.0
 40
9.0
 40
9.0
 40
9.0
 40
10.0
 40
10.0
 40
10.0
 40
10.0
 10
22.12612575401708
 20
14.93362765468673
 30
0.0
 10
21.78781737736555
 20
14.8800564198911
 30
0.0
 10
21.58455674373581
 20
14.58395046293387
 30
0.0
 10
21.58455674373581
 20
14.24822590789628
 30
0.0
 10
21.58455674373581
 20
13.72078178910453
 30
0.0
 10
22.01622720803761
 20
13.41330701704598
 30
0.0
 10
22.53230251172804
 20
13.41330701704598
 30
0.0
 10
23.04837781541846
 20
13.41330701704598
 30
0.0
 10
23.48004827972027
 20
13.72078178910453
 30
0.0
 10
23.48004827972027
 20
14.24822590789628
 30
0.0
 10
23.48004827972027
 20
14.64027777411771
 30
0.0
 10
23.13037108796741
 20
14.94499646978806
 30
0.0
 10
22.7552001896237
 20
14.96756184521644
 30
0.0
 10
22.7552001896237
 20
14.96756184521644
 30
0.0
 10
22.7552001896237
 20
15.09158528268544
 30
0.0
 10
22.7552001896237
 20
15.09158528268544
 30
0.0
 10
23.23475748117048
 20
15.04645453182867
 30
0.0
 10
23.58719074931154
 20
14.69109293252514
 30
0.0
 10
23.58719074931154
 20
14.24822590789628
 30
0.0
 10
23.58719074931154
 20
13.64464517888051
 30
0.0
 10
23.12175834925428
 20
13.28928357957698
 30
0.0
 10
22.53230251172804
 20
13.28928357957698
 30
0.0
 10
21.94284667420179
 20
13.28928357957698
 30
0.0
 10
21.47741427414454
 20
13.64464517888051
 30
0.0
 10
21.47741427414454
 20
14.24822590789628
 30
0.0
 10
21.47741427414454
 20
14.96187743766578
 30
0.0
 10
22.09787597103803
 20
15.05489501576753
 30
0.0
 10
22.12612575401708
 20
15.05782334692999
 30
0.0
 10
22.12612575401708
 20
15.05782334692999
 30
0.0
 10
22.12612575401708
 20
14.93362765468673
 30
0.0
 10
22.12612575401708
 20
14.93362765468673
 30
0.0
  0
POLYLINE
  5
56
330
1F
100
AcDbEntity
  8
LAYER_1
 62
   250
100
AcDb2dPolyline
 66
     1
 10
0.0
 20
0.0
 30
0.0
  0
VERTEX
  5
57
330
56
100
AcDbEntity
  8
LAYER_1
 62
   250
100
AcDbVertex
100
AcDb2dVertex
 10
21.59316948244893
 20
20.35827500576113
 30
0.0
  0
VERTEX
  5
58
330
56
100
AcDbEntity
  8
LAYER_1
 62
   250
100
AcDbVertex
100
AcDb2dVertex
 10
22.94984808454032
 20
20.35827500576113
 30
0.0
  0
VERTEX
  5
59
330
56
100
AcDbEntity
  8
LAYER_1
 62
   250
100
AcDbVertex
100
AcDb2dVertex
 10
22.94984808454032
 20
20.6853868220856
 30
0.0
  0
VERTEX
  5
5A
330
56
100
AcDbEntity
  8
LAYER_1
 62
   250
100
AcDbVertex
100
AcDb2dVertex
 10
23.04286566264206
 20
20.6853868220856
 30
0.0
  0
VERTEX
  5
5B
330
56
100
AcDbEntity
  8
LAYER_1
 62
   250
100
AcDbVertex
100
AcDb2dVertex
 10
23.04286566264206
 20
20.35827500576113
 30
0.0
  0
VERTEX
  5
5C
330
56
100
AcDbEntity
  8
LAYER_1
 62
   250
100
AcDbVertex
100
AcDb2dVertex
 10
23.53930392206657
 20
20.35827500576113
 30
0.0
  0
VERTEX
  5
5D
330
56
100
AcDbEntity
  8
LAYER_1
 62
   250
100
AcDbVertex
100
AcDb2dVertex
 10
23.53930392206657
 20
20.25113253616986
 30
0.0
  0
VERTEX
  5
5E
330
56
100
AcDbEntity
  8
LAYER_1
 62
   250
100
AcDbVertex
100
AcDb2dVertex
 10
23.04286566264206
 20
20.25113253616986
 30
0.0
  0
VERTEX
  5
5F
330
56
100
AcDbEntity
  8
LAYER_1
 62
   250
100
AcDbVertex
100
AcDb2dVertex
 10
23.04286566264206
 20
19.30338676817763
 30
0.0
  0
VERTEX
  5
60
330
56
100
AcDbEntity
  8
LAYER_1
 62
   250
100
AcDbVertex
100
AcDb2dVertex
 10
22.93572319305079
 20
19.30338676817763
 30
0.0
  0
VERTEX
  5
61
330
56
100
AcDbEntity
  8
LAYER_1
 62
   250
100
AcDbVertex
100
AcDb2dVertex
 10
21.59316948244893
 20
20.25113253616986
 30
0.0
  0
VERTEX
  5
62
330
56
100
AcDbEntity
  8
LAYER_1
 62
   250
100
AcDbVertex
100
AcDb2dVertex
 10
21.59316948244893
 20
20.35827500576113
 30
0.0
  0
SEQEND
  5
63
330
56
100
AcDbEntity
  8
LAYER_1
  0
POLYLINE
  5
64
330
1F
100
AcDbEntity
  8
LAYER_1
 62
   250
100
AcDb2dPolyline
 66
     1
 10
0.0
 20
0.0
 30
0.0
  0
VERTEX
  5
65
330
64
100
AcDbEntity
  8
LAYER_1
 62
   250
100
AcDbVertex
100
AcDb2dVertex
 10
21.73958604057205
 20
20.25113253616986
 30
0.0
  0
VERTEX
  5
66
330
64
100
AcDbEntity
  8
LAYER_1
 62
   250
100
AcDbVertex
100
AcDb2dVertex
 10
21.73958604057205
 20
20.24544812861919
 30
0.0
  0
VERTEX
  5
67
330
64
100
AcDbEntity
  8
LAYER_1
 62
   250
100
AcDbVertex
100
AcDb2dVertex
 10
22.94984808454032
 20
19.41052923776889
 30
0.0
  0
VERTEX
  5
68
330
64
100
AcDbEntity
  8
LAYER_1
 62
   250
100
AcDbVertex
100
AcDb2dVertex
 10
22.94984808454032
 20
20.25113253616986
 30
0.0
  0
VERTEX
  5
69
330
64
100
AcDbEntity
  8
LAYER_1
 62
   250
100
AcDbVertex
100
AcDb2dVertex
 10
21.73958604057205
 20
20.25113253616986
 30
0.0
  0
SEQEND
  5
6A
330
64
100
AcDbEntity
  8
LAYER_1
  0
SPLINE
  5
6B
330
1F
100
AcDbEntity
  8
LAYER_1
 62
   250
100
AcDbSpline
210
0.0
220
0.0
230
1.0
 70
    11
 71
     3
 72
    29
 73
    25
 74
     0
 42
0.0000000001
 43
0.0000000001
 40
0.0
 40
0.0
 40
0.0
 40
0.0
 40
1.0
 40
1.0
 40
1.0
 40
2.0
 40
2.0
 40
2.0
 40
3.0
 40
3.0
 40
3.0
 40
4.0
 40
4.0
 40
4.0
 40
5.0
 40
5.0
 40
5.0
 40
6.0
 40
6.0
 40
6.0
 40
7.0
 40
7.0
 40
7.0
 40
8.0
 40
8.0
 40
8.0
 40
8.0
 10
55.0512478160983
 20
1.499994574277779
 30
0.0
 10
55.0512478160983
 20
0.6750664603347056
 30
0.0
 10
54.3761813557636
 20
0.0
 30
0.0
 10
53.55125324182053
 20
0.0
 30
0.0
 10
53.55125324182053
 20
0.0
 30
0.0
 10
31.55121798256359
 20
0.0
 30
0.0
 10
31.55121798256359
 20
0.0
 30
0.0
 10
30.72628986862051
 20
0.0
 30
0.0
 10
30.05122340828581
 20
0.6750664603347056
 30
0.0
 10
30.05122340828581
 20
1.499994574277779
 30
0.0
 10
30.05122340828581
 20
1.499994574277779
 30
0.0
 10
30.05122340828581
 20
26.50001898209027
 30
0.0
 10
30.05122340828581
 20
26.50001898209027
 30
0.0
 10
30.05122340828581
 20
27.32494709603335
 30
0.0
 10
30.72628986862051
 20
28.00001355636805
 30
0.0
 10
31.55121798256359
 20
28.00001355636805
 30
0.0
 10
31.55121798256359
 20
28.00001355636805
 30
0.0
 10
53.55125324182053
 20
28.00001355636805
 30
0.0
 10
53.55125324182053
 20
28.00001355636805
 30
0.0
 10
54.3761813557636
 20
28.00001355636805
 30
0.0
 10
55.0512478160983
 20
27.32494709603335
 30
0.0
 10
55.0512478160983
 20
26.50001898209027
 30
0.0
 10
55.0512478160983
 20
26.50001898209027
 30
0.0
 10
55.0512478160983
 20
1.499994574277779
 30
0.0
 10
55.0512478160983
 20
1.499994574277779
 30
0.0
  0
POLYLINE
  5
6C
330
1F
100
AcDbEntity
  8
LAYER_1
 62
   250
100
AcDb2dPolyline
 66
     1
 10
0.0
 20
0.0
 30
0.0
  0
VERTEX
  5
6D
330
6C
100
AcDbEntity
  8
LAYER_1
 62
   250
100
AcDbVertex
100
AcDb2dVertex
 10
38.55130749904273
 20
31.00017495969787
 30
0.0
  0
VERTEX
  5
6E
330
6C
100
AcDbEntity
  8
LAYER_1
 62
   250
100
AcDbVertex
100
AcDb2dVertex
 10
38.55130749904273
 20
24.89873860054615
 30
0.0
  0
VERTEX
  5
6F
330
6C
100
AcDbEntity
  8
LAYER_1
 62
   250
100
AcDbVertex
100
AcDb2dVertex
 10
38.56215954982127
 20
24.89873860054615
 30
0.0
  0
VERTEX
  5
70
330
6C
100
AcDbEntity
  8
LAYER_1
 62
   250
100
AcDbVertex
100
AcDb2dVertex
 10
39.35125867071774
 20
17.59995930549584
 30
0.0
  0
VERTEX
  5
71
330
6C
100
AcDbEntity
  8
LAYER_1
 62
   250
100
AcDbVertex
100
AcDb2dVertex
 10
39.35125867071774
 20
7.400065102316651
 30
0.0
  0
VERTEX
  5
72
330
6C
100
AcDbEntity
  8
LAYER_1
 62
   250
100
AcDbVertex
100
AcDb2dVertex
 10
45.75155706321489
 20
7.400065102316651
 30
0.0
  0
VERTEX
  5
73
330
6C
100
AcDbEntity
  8
LAYER_1
 62
   250
100
AcDbVertex
100
AcDb2dVertex
 10
45.75155706321489
 20
17.59995930549584
 30
0.0
  0
VERTEX
  5
74
330
6C
100
AcDbEntity
  8
LAYER_1
 62
   250
100
AcDbVertex
100
AcDb2dVertex
 10
46.54048392933711
 20
24.89873860054615
 30
0.0
  0
VERTEX
  5
75
330
6C
100
AcDbEntity
  8
LAYER_1
 62
   250
100
AcDbVertex
100
AcDb2dVertex
 10
46.5515082348899
 20
24.89873860054615
 30
0.0
  0
VERTEX
  5
76
330
6C
100
AcDbEntity
  8
LAYER_1
 62
   250
100
AcDbVertex
100
AcDb2dVertex
 10
46.5515082348899
 20
31.00017495969787
 30
0.0
  0
VERTEX
  5
77
330
6C
100
AcDbEntity
  8
LAYER_1
 62
   250
100
AcDbVertex
100
AcDb2dVertex
 10
38.55130749904273
 20
31.00017495969787
 30
0.0
  0
SEQEND
  5
78
330
6C
100
AcDbEntity
  8
LAYER_1
  0
SPLINE
  5
79
330
1F
100
AcDbEntity
  8
LAYER_1
 62
   250
100
AcDbSpline
210
0.0
220
0.0
230
1.0
 70
    11
 71
     3
 72
    17
 73
    13
 74
     0
 42
0.0000000001
 43
0.0000000001
 40
0.0
 40
0.0
 40
0.0
 40
0.0
 40
1.0
 40
1.0
 40
1.0
 40
2.0
 40
2.0
 40
2.0
 40
3.0
 40
3.0
 40
3.0
 40
4.0
 40
4.0
 40
4.0
 40
4.0
 10
44.20126409485246
 20
12.50001220390625
 30
0.0
 10
44.20126409485246
 20
11.5886121932834
 30
0.0
 10
43.4626356228149
 20
10.84998372124584
 30
0.0
 10
42.55106335741779
 20
10.84998372124584
 30
0.0
 10
41.64018011111774
 20
10.84998372124584
 30
0.0
 10
40.90155163908017
 20
11.5886121932834
 30
0.0
 10
40.90155163908017
 20
12.50001220390625
 30
0.0
 10
40.90155163908017
 20
13.41141221452909
 30
0.0
 10
41.64018011111774
 20
14.15004068656666
 30
0.0
 10
42.55106335741779
 20
14.15004068656666
 30
0.0
 10
43.4626356228149
 20
14.15004068656666
 30
0.0
 10
44.20126409485246
 20
13.41141221452909
 30
0.0
 10
44.20126409485246
 20
12.50001220390625
 30
0.0
  0
SPLINE
  5
7A
330
1F
100
AcDbEntity
  8
LAYER_1
 62
   250
100
AcDbSpline
210
0.0
220
0.0
230
1.0
 70
    11
 71
     3
 72
    47
 73
    43
 74
     0
 42
0.0000000001
 43
0.0000000001
 40
0.0
 40
0.0
 40
0.0
 40
0.0
 40
1.0
 40
1.0
 40
1.0
 40
2.0
 40
2.0
 40
2.0
 40
3.0
 40
3.0
 40
3.0
 40
4.0
 40
4.0
 40
4.0
 40
5.0
 40
5.0
 40
5.0
 40
6.0
 40
6.0
 40
6.0
 40
7.0
 40
7.0
 40
7.0
 40
8.0
 40
8.0
 40
8.0
 40
9.0
 40
9.0
 40
9.0
 40
10.0
 40
10.0
 40
10.0
 40
11.0
 40
11.0
 40
11.0
 40
12.0
 40
12.0
 40
12.0
 40
13.0
 40
13.0
 40
13.0
 40
14.0
 40
14.0
 40
14.0
 40
14.0
 10
52.15185545571204
 20
8.63737114584413
 30
0.0
 10
51.80769041673558
 20
8.623246254354605
 30
0.0
 10
51.63578015202161
 20
8.363830564315293
 30
0.0
 10
51.63578015202161
 20
7.991415742359785
 30
0.0
 10
51.63578015202161
 20
7.763005911687721
 30
0.0
 10
51.73155380651156
 20
7.438650171751449
 30
0.0
 10
52.06469453993522
 20
7.438650171751449
 30
0.0
 10
52.38887802509723
 20
7.438650171751449
 30
0.0
 10
52.44262151466712
 20
7.782815210727907
 30
0.0
 10
52.51290146256622
 20
8.124051918541904
 30
0.0
 10
52.58352592001384
 20
8.468216957518363
 30
0.0
 10
52.67103134533919
 20
8.812381996494821
 30
0.0
 10
53.07135144072522
 20
8.812381996494821
 30
0.0
 10
53.4888970135375
 20
8.812381996494821
 30
0.0
 10
53.63841415759735
 20
8.411717391560266
 30
0.0
 10
53.63841415759735
 20
8.10441487427598
 30
0.0
 10
53.63841415759735
 20
7.633298066668065
 30
0.0
 10
53.44376626268073
 20
7.249686684385495
 30
0.0
 10
52.9249348826021
 20
7.255371091936158
 30
0.0
 10
52.9249348826021
 20
7.255371091936158
 30
0.0
 10
52.9249348826021
 20
7.379394529405151
 30
0.0
 10
52.9249348826021
 20
7.379394529405151
 30
0.0
 10
53.3648735760685
 20
7.354073077588565
 30
0.0
 10
53.53127168800607
 20
7.706678600503886
 30
0.0
 10
53.53127168800607
 20
8.10441487427598
 30
0.0
 10
53.53127168800607
 20
8.346949596437568
 30
0.0
 10
53.4213731420266
 20
8.688186304251564
 30
0.0
 10
53.07135144072522
 20
8.688186304251564
 30
0.0
 10
52.73028698768549
 20
8.688186304251564
 30
0.0
 10
52.67103134533919
 20
8.344021265275106
 30
0.0
 10
52.60040688789157
 20
8.00002848107291
 30
0.0
 10
52.52978243044394
 20
7.658619518484651
 30
0.0
 10
52.44813366744352
 20
7.314454479508192
 30
0.0
 10
52.06469453993522
 20
7.314454479508192
 30
0.0
 10
51.67815482649019
 20
7.314454479508192
 30
0.0
 10
51.52863768243034
 20
7.672744409974175
 30
0.0
 10
51.52863768243034
 20
7.991415742359785
 30
0.0
 10
51.52863768243034
 20
8.411717391560266
 30
0.0
 10
51.70916068585743
 20
8.7417575390472
 30
0.0
 10
52.15185545571204
 20
8.761566838087386
 30
0.0
 10
52.15185545571204
 20
8.761566838087386
 30
0.0
 10
52.15185545571204
 20
8.63737114584413
 30
0.0
 10
52.15185545571204
 20
8.63737114584413
 30
0.0
  0
SPLINE
  5
7B
330
1F
100
AcDbEntity
  8
LAYER_1
 62
   250
100
AcDbSpline
210
0.0
220
0.0
230
1.0
 70
    11
 71
     3
 72
    17
 73
    13
 74
     0
 42
0.0000000001
 43
0.0000000001
 40
0.0
 40
0.0
 40
0.0
 40
0.0
 40
1.0
 40
1.0
 40
1.0
 40
2.0
 40
2.0
 40
2.0
 40
3.0
 40
3.0
 40
3.0
 40
4.0
 40
4.0
 40
4.0
 40
4.0
 10
53.63841415759735
 20
10.53424072002269
 30
0.0
 10
53.63841415759735
 20
9.93065999100692
 30
0.0
 10
53.17298175754009
 20
9.575298391703399
 30
0.0
 10
52.58352592001384
 20
9.575298391703399
 30
0.0
 10
51.9940700824876
 20
9.575298391703399
 30
0.0
 10
51.52863768243034
 20
9.93065999100692
 30
0.0
 10
51.52863768243034
 20
10.53424072002269
 30
0.0
 10
51.52863768243034
 20
11.13506537265026
 30
0.0
 10
51.9940700824876
 20
11.49042697195378
 30
0.0
 10
52.58352592001384
 20
11.49042697195378
 30
0.0
 10
53.17298175754009
 20
11.49042697195378
 30
0.0
 10
53.63841415759735
 20
11.13506537265026
 30
0.0
 10
53.63841415759735
 20
10.53424072002269
 30
0.0
  0
SPLINE
  5
7C
330
1F
100
AcDbEntity
  8
LAYER_1
 62
   250
100
AcDbSpline
210
0.0
220
0.0
230
1.0
 70
    11
 71
     3
 72
    17
 73
    13
 74
     0
 42
0.0000000001
 43
0.0000000001
 40
0.0
 40
0.0
 40
0.0
 40
0.0
 40
1.0
 40
1.0
 40
1.0
 40
2.0
 40
2.0
 40
2.0
 40
3.0
 40
3.0
 40
3.0
 40
4.0
 40
4.0
 40
4.0
 40
4.0
 10
53.53127168800607
 20
10.53424072002269
 30
0.0
 10
53.53127168800607
 20
11.05892876242624
 30
0.0
 10
53.09960122370427
 20
11.36640353448479
 30
0.0
 10
52.58352592001384
 20
11.36640353448479
 30
0.0
 10
52.06745061632342
 20
11.36640353448479
 30
0.0
 10
51.63578015202161
 20
11.05892876242624
 30
0.0
 10
51.63578015202161
 20
10.53424072002269
 30
0.0
 10
51.63578015202161
 20
10.00679660123094
 30
0.0
 10
52.06745061632342
 20
9.699321829172392
 30
0.0
 10
52.58352592001384
 20
9.699321829172392
 30
0.0
 10
53.09960122370427
 20
9.699321829172392
 30
0.0
 10
53.53127168800607
 20
10.00679660123094
 30
0.0
 10
53.53127168800607
 20
10.53424072002269
 30
0.0
  0
POLYLINE
  5
7D
330
1F
100
AcDbEntity
  8
LAYER_1
 62
   250
100
AcDb2dPolyline
 66
     1
 10
0.0
 20
0.0
 30
0.0
  0
VERTEX
  5
7E
330
7D
100
AcDbEntity
  8
LAYER_1
 62
   250
100
AcDbVertex
100
AcDb2dVertex
 10
51.57652450967532
 20
12.32121174822178
 30
0.0
  0
VERTEX
  5
7F
330
7D
100
AcDbEntity
  8
LAYER_1
 62
   250
100
AcDbVertex
100
AcDb2dVertex
 10
51.57652450967532
 20
12.44523518569078
 30
0.0
  0
VERTEX
  5
80
330
7D
100
AcDbEntity
  8
LAYER_1
 62
   250
100
AcDbVertex
100
AcDb2dVertex
 10
53.59052733035237
 20
12.44523518569078
 30
0.0
  0
VERTEX
  5
81
330
7D
100
AcDbEntity
  8
LAYER_1
 62
   250
100
AcDbVertex
100
AcDb2dVertex
 10
53.59052733035237
 20
12.32121174822178
 30
0.0
  0
VERTEX
  5
82
330
7D
100
AcDbEntity
  8
LAYER_1
 62
   250
100
AcDbVertex
100
AcDb2dVertex
 10
51.57652450967532
 20
12.32121174822178
 30
0.0
  0
SEQEND
  5
83
330
7D
100
AcDbEntity
  8
LAYER_1
  0
SPLINE
  5
84
330
1F
100
AcDbEntity
  8
LAYER_1
 62
   250
100
AcDbSpline
210
0.0
220
0.0
230
1.0
 70
    11
 71
     3
 72
    35
 73
    31
 74
     0
 42
0.0000000001
 43
0.0000000001
 40
0.0
 40
0.0
 40
0.0
 40
0.0
 40
1.0
 40
1.0
 40
1.0
 40
2.0
 40
2.0
 40
2.0
 40
3.0
 40
3.0
 40
3.0
 40
4.0
 40
4.0
 40
4.0
 40
5.0
 40
5.0
 40
5.0
 40
6.0
 40
6.0
 40
6.0
 40
7.0
 40
7.0
 40
7.0
 40
8.0
 40
8.0
 40
8.0
 40
9.0
 40
9.0
 40
9.0
 40
10.0
 40
10.0
 40
10.0
 40
10.0
 10
52.17734916230289
 20
14.93362765468673
 30
0.0
 10
51.83904078565136
 20
14.8800564198911
 30
0.0
 10
51.63578015202161
 20
14.58395046293387
 30
0.0
 10
51.63578015202161
 20
14.24822590789628
 30
0.0
 10
51.63578015202161
 20
13.72078178910453
 30
0.0
 10
52.06745061632342
 20
13.41330701704598
 30
0.0
 10
52.58352592001384
 20
13.41330701704598
 30
0.0
 10
53.09960122370427
 20
13.41330701704598
 30
0.0
 10
53.53127168800607
 20
13.72078178910453
 30
0.0
 10
53.53127168800607
 20
14.24822590789628
 30
0.0
 10
53.53127168800607
 20
14.64027777411771
 30
0.0
 10
53.18159449625321
 20
14.94499646978806
 30
0.0
 10
52.80642359790951
 20
14.96756184521644
 30
0.0
 10
52.80642359790951
 20
14.96756184521644
 30
0.0
 10
52.80642359790951
 20
15.09158528268544
 30
0.0
 10
52.80642359790951
 20
15.09158528268544
 30
0.0
 10
53.28598088945628
 20
15.04645453182867
 30
0.0
 10
53.63841415759735
 20
14.69109293252514
 30
0.0
 10
53.63841415759735
 20
14.24822590789628
 30
0.0
 10
53.63841415759735
 20
13.64464517888051
 30
0.0
 10
53.17298175754009
 20
13.28928357957698
 30
0.0
 10
52.58352592001384
 20
13.28928357957698
 30
0.0
 10
51.9940700824876
 20
13.28928357957698
 30
0.0
 10
51.52863768243034
 20
13.64464517888051
 30
0.0
 10
51.52863768243034
 20
14.24822590789628
 30
0.0
 10
51.52863768243034
 20
14.96187743766578
 30
0.0
 10
52.14909937932384
 20
15.05489501576753
 30
0.0
 10
52.17734916230289
 20
15.05782334692999
 30
0.0
 10
52.17734916230289
 20
15.05782334692999
 30
0.0
 10
52.17734916230289
 20
14.93362765468673
 30
0.0
 10
52.17734916230289
 20
14.93362765468673
 30
0.0
  0
SPLINE
  5
85
330
1F
100
AcDbEntity
  8
LAYER_1
 62
   250
100
AcDbSpline
210
0.0
220
0.0
230
1.0
 70
    11
 71
     3
 72
    35
 73
    31
 74
     0
 42
0.0000000001
 43
0.0000000001
 40
0.0
 40
0.0
 40
0.0
 40
0.0
 40
1.0
 40
1.0
 40
1.0
 40
2.0
 40
2.0
 40
2.0
 40
3.0
 40
3.0
 40
3.0
 40
4.0
 40
4.0
 40
4.0
 40
5.0
 40
5.0
 40
5.0
 40
6.0
 40
6.0
 40
6.0
 40
7.0
 40
7.0
 40
7.0
 40
8.0
 40
8.0
 40
8.0
 40
9.0
 40
9.0
 40
9.0
 40
10.0
 40
10.0
 40
10.0
 40
10.0
 10
52.12395018228151
 20
20.54448241673888
 30
0.0
 10
51.8728027214068
 20
20.50210774227031
 30
0.0
 10
51.70364853308104
 20
20.31314425490435
 30
0.0
 10
51.70364853308104
 20
20.05648464125324
 30
0.0
 10
51.70364853308104
 20
19.52060003852263
 30
0.0
 10
52.33237845913913
 20
19.44721950468681
 30
0.0
 10
52.71616209619596
 20
19.44721950468681
 30
0.0
 10
52.71616209619596
 20
19.44721950468681
 30
0.0
 10
52.72167424897236
 20
19.45290391223747
 30
0.0
 10
52.72167424897236
 20
19.45290391223747
 30
0.0
 10
52.47087129764618
 20
19.53748100640035
 30
0.0
 10
52.30447318570861
 20
19.77433132101128
 30
0.0
 10
52.30447318570861
 20
20.03391926582485
 30
0.0
 10
52.30447318570861
 20
20.41753064810742
 30
0.0
 10
52.58903807279025
 20
20.6853868220856
 30
0.0
 10
52.97006563345887
 20
20.6853868220856
 30
0.0
 10
53.34523653180258
 20
20.6853868220856
 30
0.0
 10
53.62428926610782
 20
20.40909016416856
 30
0.0
 10
53.62428926610782
 20
20.03391926582485
 30
0.0
 10
53.62428926610782
 20
19.48959417915538
 30
0.0
 10
53.18710664902962
 20
19.34007703509554
 30
0.0
 10
52.71340601980776
 20
19.34007703509554
 30
0.0
 10
52.23384872826099
 20
19.34007703509554
 30
0.0
 10
51.61028644543077
 20
19.45565998862567
 30
0.0
 10
51.61028644543077
 20
20.05648464125324
 30
0.0
 10
51.61028644543077
 20
20.38084038118951
 30
0.0
 10
51.79666611118278
 20
20.61476236463798
 30
0.0
 10
52.12395018228151
 20
20.65162488633015
 30
0.0
 10
52.12395018228151
 20
20.65162488633015
 30
0.0
 10
52.12395018228151
 20
20.54448241673888
 30
0.0
 10
52.12395018228151
 20
20.54448241673888
 30
0.0
  0
SPLINE
  5
86
330
1F
100
AcDbEntity
  8
LAYER_1
 62
   250
100
AcDbSpline
210
0.0
220
0.0
230
1.0
 70
    11
 71
     3
 72
    17
 73
    13
 74
     0
 42
0.0000000001
 43
0.0000000001
 40
0.0
 40
0.0
 40
0.0
 40
0.0
 40
1.0
 40
1.0
 40
1.0
 40
2.0
 40
2.0
 40
2.0
 40
3.0
 40
3.0
 40
3.0
 40
4.0
 40
4.0
 40
4.0
 40
4.0
 10
52.97006563345887
 20
20.57824435249433
 30
0.0
 10
52.66551919256279
 20
20.57824435249433
 30
0.0
 10
52.39749076381035
 20
20.34983452182226
 30
0.0
 10
52.39749076381035
 20
20.03391926582485
 30
0.0
 10
52.39749076381035
 20
19.71231960227678
 30
0.0
 10
52.65415037746146
 20
19.48390977160472
 30
0.0
 10
52.97006563345887
 20
19.48390977160472
 30
0.0
 10
53.29149304223269
 20
19.48390977160472
 30
0.0
 10
53.53127168800607
 20
19.72920057015451
 30
0.0
 10
53.53127168800607
 20
20.03391926582485
 30
0.0
 10
53.53127168800607
 20
20.34707844543406
 30
0.0
 10
53.27736815074316
 20
20.57824435249433
 30
0.0
 10
52.97006563345887
 20
20.57824435249433
 30
0.0
  0
SPLINE
  5
87
330
1F
100
AcDbEntity
  8
LAYER_1
 62
   250
100
AcDbSpline
210
0.0
220
0.0
230
1.0
 70
    11
 71
     3
 72
    29
 73
    25
 74
     0
 42
0.0000000001
 43
0.0000000001
 40
0.0
 40
0.0
 40
0.0
 40
0.0
 40
1.0
 40
1.0
 40
1.0
 40
2.0
 40
2.0
 40
2.0
 40
3.0
 40
3.0
 40
3.0
 40
4.0
 40
4.0
 40
4.0
 40
5.0
 40
5.0
 40
5.0
 40
6.0
 40
6.0
 40
6.0
 40
7.0
 40
7.0
 40
7.0
 40
8.0
 40
8.0
 40
8.0
 40
8.0
 10
55.0512478160983
 20
34.66110567709861
 30
0.0
 10
55.0512478160983
 20
33.83617756315554
 30
0.0
 10
54.3761813557636
 20
33.16111110282083
 30
0.0
 10
53.55125324182053
 20
33.16111110282083
 30
0.0
 10
53.55125324182053
 20
33.16111110282083
 30
0.0
 10
31.55121798256359
 20
33.16111110282083
 30
0.0
 10
31.55121798256359
 20
33.16111110282083
 30
0.0
 10
30.72628986862051
 20
33.16111110282083
 30
0.0
 10
30.05122340828581
 20
33.83617756315554
 30
0.0
 10
30.05122340828581
 20
34.66110567709861
 30
0.0
 10
30.05122340828581
 20
34.66110567709861
 30
0.0
 10
30.05122340828581
 20
59.66113008491111
 30
0.0
 10
30.05122340828581
 20
59.66113008491111
 30
0.0
 10
30.05122340828581
 20
60.48605819885418
 30
0.0
 10
30.72628986862051
 20
61.16112465918889
 30
0.0
 10
31.55121798256359
 20
61.16112465918889
 30
0.0
 10
31.55121798256359
 20
61.16112465918889
 30
0.0
 10
53.55125324182053
 20
61.16112465918889
 30
0.0
 10
53.55125324182053
 20
61.16112465918889
 30
0.0
 10
54.3761813557636
 20
61.16112465918889
 30
0.0
 10
55.0512478160983
 20
60.48605819885418
 30
0.0
 10
55.0512478160983
 20
59.66113008491111
 30
0.0
 10
55.0512478160983
 20
59.66113008491111
 30
0.0
 10
55.0512478160983
 20
34.66110567709861
 30
0.0
 10
55.0512478160983
 20
34.66110567709861
 30
0.0
  0
POLYLINE
  5
88
330
1F
100
AcDbEntity
  8
LAYER_1
 62
   250
100
AcDb2dPolyline
 66
     1
 10
0.0
 20
0.0
 30
0.0
  0
VERTEX
  5
89
330
88
100
AcDbEntity
  8
LAYER_1
 62
   250
100
AcDbVertex
100
AcDb2dVertex
 10
34.9628960416065
 20
64.16042478864739
 30
0.0
  0
VERTEX
  5
8A
330
88
100
AcDbEntity
  8
LAYER_1
 62
   250
100
AcDbVertex
100
AcDb2dVertex
 10
34.9628960416065
 20
61.16043564009184
 30
0.0
  0
VERTEX
  5
8B
330
88
100
AcDbEntity
  8
LAYER_1
 62
   250
100
AcDbVertex
100
AcDb2dVertex
 10
37.25112846290944
 20
54.86107854531251
 30
0.0
  0
VERTEX
  5
8C
330
88
100
AcDbEntity
  8
LAYER_1
 62
   250
100
AcDbVertex
100
AcDb2dVertex
 10
37.25112846290944
 20
36.46116806814165
 30
0.0
  0
VERTEX
  5
8D
330
88
100
AcDbEntity
  8
LAYER_1
 62
   250
100
AcDbVertex
100
AcDb2dVertex
 10
47.85134276147467
 20
36.46116806814165
 30
0.0
  0
VERTEX
  5
8E
330
88
100
AcDbEntity
  8
LAYER_1
 62
   250
100
AcDbVertex
100
AcDb2dVertex
 10
47.85134276147467
 20
54.86107854531251
 30
0.0
  0
VERTEX
  5
8F
330
88
100
AcDbEntity
  8
LAYER_1
 62
   250
100
AcDbVertex
100
AcDb2dVertex
 10
49.96318629393281
 20
61.16043564009184
 30
0.0
  0
VERTEX
  5
90
330
88
100
AcDbEntity
  8
LAYER_1
 62
   250
100
AcDbVertex
100
AcDb2dVertex
 10
49.96318629393281
 20
64.16042478864739
 30
0.0
  0
VERTEX
  5
91
330
88
100
AcDbEntity
  8
LAYER_1
 62
   250
100
AcDbVertex
100
AcDb2dVertex
 10
34.9628960416065
 20
64.16042478864739
 30
0.0
  0
SEQEND
  5
92
330
88
100
AcDbEntity
  8
LAYER_1
  0
SPLINE
  5
93
330
1F
100
AcDbEntity
  8
LAYER_1
 62
   250
100
AcDbSpline
210
0.0
220
0.0
230
1.0
 70
    11
 71
     3
 72
    17
 73
    13
 74
     0
 42
0.0000000001
 43
0.0000000001
 40
0.0
 40
0.0
 40
0.0
 40
0.0
 40
1.0
 40
1.0
 40
1.0
 40
2.0
 40
2.0
 40
2.0
 40
3.0
 40
3.0
 40
3.0
 40
4.0
 40
4.0
 40
4.0
 40
4.0
 10
44.20126409485246
 20
45.66112330672708
 30
0.0
 10
44.20126409485246
 20
44.74972329610424
 30
0.0
 10
43.4626356228149
 20
44.01109482406667
 30
0.0
 10
42.55106335741779
 20
44.01109482406667
 30
0.0
 10
41.63983560156921
 20
44.01109482406667
 30
0.0
 10
40.90120712953164
 20
44.74972329610424
 30
0.0
 10
40.90120712953164
 20
45.66112330672708
 30
0.0
 10
40.90120712953164
 20
46.57252331734993
 30
0.0
 10
41.63983560156921
 20
47.31115178938749
 30
0.0
 10
42.55106335741779
 20
47.31115178938749
 30
0.0
 10
43.4626356228149
 20
47.31115178938749
 30
0.0
 10
44.20126409485246
 20
46.57252331734993
 30
0.0
 10
44.20126409485246
 20
45.66112330672708
 30
0.0
  0
INSERT
  5
95
330
1F
100
AcDbEntity
  8
LAYER_1
100
AcDbBlockReference
  2
BLOCK_2
 10
0.0
 20
0.0
 30
0.0
  0
SPLINE
  5
A7
330
1F
100
AcDbEntity
  8
LAYER_1
 62
   250
100
AcDbSpline
210
0.0
220
0.0
230
1.0
 70
    11
 71
     3
 72
    17
 73
    13
 74
     0
 42
0.0000000001
 43
0.0000000001
 40
0.0
 40
0.0
 40
0.0
 40
0.0
 40
1.0
 40
1.0
 40
1.0
 40
2.0
 40
2.0
 40
2.0
 40
3.0
 40
3.0
 40
3.0
 40
4.0
 40
4.0
 40
4.0
 40
4.0
 10
38.35114745134972
 20
36.4604790490446
 30
0.0
 10
38.35114745134972
 20
35.85276420544653
 30
0.0
 10
37.85867105173325
 20
35.36046006060433
 30
0.0
 10
37.25095620813518
 20
35.36046006060433
 30
0.0
 10
36.64358587408563
 20
35.36046006060433
 30
0.0
 10
36.15110947446917
 20
35.85276420544653
 30
0.0
 10
36.15110947446917
 20
36.4604790490446
 30
0.0
 10
36.15110947446917
 20
37.06819389264268
 30
0.0
 10
36.64358587408563
 20
37.56049803748488
 30
0.0
 10
37.25095620813518
 20
37.56049803748488
 30
0.0
 10
37.85867105173325
 20
37.56049803748488
 30
0.0
 10
38.35114745134972
 20
37.06819389264268
 30
0.0
 10
38.35114745134972
 20
36.4604790490446
 30
0.0
  0
SPLINE
  5
A8
330
1F
100
AcDbEntity
  8
LAYER_1
 62
   250
100
AcDbSpline
210
0.0
220
0.0
230
1.0
 70
    11
 71
     3
 72
    17
 73
    13
 74
     0
 42
0.0000000001
 43
0.0000000001
 40
0.0
 40
0.0
 40
0.0
 40
0.0
 40
1.0
 40
1.0
 40
1.0
 40
2.0
 40
2.0
 40
2.0
 40
3.0
 40
3.0
 40
3.0
 40
4.0
 40
4.0
 40
4.0
 40
4.0
 10
48.95136174991494
 20
36.4604790490446
 30
0.0
 10
48.95136174991494
 20
35.85276420544653
 30
0.0
 10
48.45888535029847
 20
35.36046006060433
 30
0.0
 10
47.85117050670041
 20
35.36046006060433
 30
0.0
 10
47.24380017265086
 20
35.36046006060433
 30
0.0
 10
46.75132377303439
 20
35.85276420544653
 30
0.0
 10
46.75132377303439
 20
36.4604790490446
 30
0.0
 10
46.75132377303439
 20
37.06819389264268
 30
0.0
 10
47.24380017265086
 20
37.56049803748488
 30
0.0
 10
47.85117050670041
 20
37.56049803748488
 30
0.0
 10
48.45888535029847
 20
37.56049803748488
 30
0.0
 10
48.95136174991494
 20
37.06819389264268
 30
0.0
 10
48.95136174991494
 20
36.4604790490446
 30
0.0
  0
SPLINE
  5
A9
330
1F
100
AcDbEntity
  8
LAYER_1
 62
   250
100
AcDbSpline
210
0.0
220
0.0
230
1.0
 70
    11
 71
     3
 72
    17
 73
    13
 74
     0
 42
0.0000000001
 43
0.0000000001
 40
0.0
 40
0.0
 40
0.0
 40
0.0
 40
1.0
 40
1.0
 40
1.0
 40
2.0
 40
2.0
 40
2.0
 40
3.0
 40
3.0
 40
3.0
 40
4.0
 40
4.0
 40
4.0
 40
4.0
 10
40.45127765915802
 20
7.497216795000696
 30
0.0
 10
40.45127765915802
 20
6.889501951402625
 30
0.0
 10
39.95880125954155
 20
6.397197806560423
 30
0.0
 10
39.35108641594348
 20
6.397197806560423
 30
0.0
 10
38.74371608189394
 20
6.397197806560423
 30
0.0
 10
38.25123968227747
 20
6.889501951402625
 30
0.0
 10
38.25123968227747
 20
7.497216795000696
 30
0.0
 10
38.25123968227747
 20
8.104931638598767
 30
0.0
 10
38.74371608189394
 20
8.597235783440969
 30
0.0
 10
39.35108641594348
 20
8.597235783440969
 30
0.0
 10
39.95880125954155
 20
8.597235783440969
 30
0.0
 10
40.45127765915802
 20
8.104931638598767
 30
0.0
 10
40.45127765915802
 20
7.497216795000696
 30
0.0
  0
SPLINE
  5
AA
330
1F
100
AcDbEntity
  8
LAYER_1
 62
   250
100
AcDbSpline
210
0.0
220
0.0
230
1.0
 70
    11
 71
     3
 72
    17
 73
    13
 74
     0
 42
0.0000000001
 43
0.0000000001
 40
0.0
 40
0.0
 40
0.0
 40
0.0
 40
1.0
 40
1.0
 40
1.0
 40
2.0
 40
2.0
 40
2.0
 40
3.0
 40
3.0
 40
3.0
 40
4.0
 40
4.0
 40
4.0
 40
4.0
 10
46.85157605165517
 20
7.399376083219601
 30
0.0
 10
46.85157605165517
 20
6.791661239621529
 30
0.0
 10
46.3590996520387
 20
6.299357094779328
 30
0.0
 10
45.75138480844063
 20
6.299357094779328
 30
0.0
 10
45.14401447439108
 20
6.299357094779328
 30
0.0
 10
44.65153807477462
 20
6.791661239621529
 30
0.0
 10
44.65153807477462
 20
7.399376083219601
 30
0.0
 10
44.65153807477462
 20
8.007090926817671
 30
0.0
 10
45.14401447439108
 20
8.499395071659874
 30
0.0
 10
45.75138480844063
 20
8.499395071659874
 30
0.0
 10
46.3590996520387
 20
8.499395071659874
 30
0.0
 10
46.85157605165517
 20
8.007090926817671
 30
0.0
 10
46.85157605165517
 20
7.399376083219601
 30
0.0
  0
SPLINE
  5
AB
330
1F
100
AcDbEntity
  8
LAYER_1
 62
   250
100
AcDbSpline
210
0.0
220
0.0
230
1.0
 70
    11
 71
     3
 72
    17
 73
    13
 74
     0
 42
0.0000000001
 43
0.0000000001
 40
0.0
 40
0.0
 40
0.0
 40
0.0
 40
1.0
 40
1.0
 40
1.0
 40
2.0
 40
2.0
 40
2.0
 40
3.0
 40
3.0
 40
3.0
 40
4.0
 40
4.0
 40
4.0
 40
4.0
 10
10.40005425087221
 20
8.049293346511982
 30
0.0
 10
10.40005425087221
 20
7.441578502913911
 30
0.0
 10
9.907577851255745
 20
6.949102103297447
 30
0.0
 10
9.299863007657674
 20
6.949102103297447
 30
0.0
 10
8.692492673608127
 20
6.949102103297447
 30
0.0
 10
8.200016273991663
 20
7.441578502913911
 30
0.0
 10
8.200016273991663
 20
8.049293346511982
 30
0.0
 10
8.200016273991663
 20
8.657008190110053
 30
0.0
 10
8.692492673608127
 20
9.149312334952256
 30
0.0
 10
9.299863007657674
 20
9.149312334952256
 30
0.0
 10
9.907577851255745
 20
9.149312334952256
 30
0.0
 10
10.40005425087221
 20
8.657008190110053
 30
0.0
 10
10.40005425087221
 20
8.049293346511982
 30
0.0
  0
SPLINE
  5
AC
330
1F
100
AcDbEntity
  8
LAYER_1
 62
   250
100
AcDbSpline
210
0.0
220
0.0
230
1.0
 70
    11
 71
     3
 72
    17
 73
    13
 74
     0
 42
0.0000000001
 43
0.0000000001
 40
0.0
 40
0.0
 40
0.0
 40
0.0
 40
1.0
 40
1.0
 40
1.0
 40
2.0
 40
2.0
 40
2.0
 40
3.0
 40
3.0
 40
3.0
 40
4.0
 40
4.0
 40
4.0
 40
4.0
 10
16.80000813382083
 20
8.049293346511982
 30
0.0
 10
16.80000813382083
 20
7.441578502913911
 30
0.0
 10
16.30753173420437
 20
6.949102103297447
 30
0.0
 10
15.6998168906063
 20
6.949102103297447
 30
0.0
 10
15.09244655655675
 20
6.949102103297447
 30
0.0
 10
14.59997015694029
 20
7.441578502913911
 30
0.0
 10
14.59997015694029
 20
8.049293346511982
 30
0.0
 10
14.59997015694029
 20
8.657008190110053
 30
0.0
 10
15.09244655655675
 20
9.149312334952256
 30
0.0
 10
15.6998168906063
 20
9.149312334952256
 30
0.0
 10
16.30753173420437
 20
9.149312334952256
 30
0.0
 10
16.80000813382083
 20
8.657008190110053
 30
0.0
 10
16.80000813382083
 20
8.049293346511982
 30
0.0
  0
POLYLINE
  5
AD
330
1F
100
AcDbEntity
  8
LAYER_1
 62
   250
100
AcDb2dPolyline
 66
     1
 10
0.0
 20
0.0
 30
0.0
  0
VERTEX
  5
AE
330
AD
100
AcDbEntity
  8
LAYER_1
 62
   250
100
AcDbVertex
100
AcDb2dVertex
 10
53.59052733035237
 20
17.91432426852489
 30
0.0
  0
VERTEX
  5
AF
330
AD
100
AcDbEntity
  8
LAYER_1
 62
   250
100
AcDbVertex
100
AcDb2dVertex
 10
51.64439289073474
 20
17.91432426852489
 30
0.0
  0
VERTEX
  5
B0
330
AD
100
AcDbEntity
  8
LAYER_1
 62
   250
100
AcDbVertex
100
AcDb2dVertex
 10
51.64439289073474
 20
18.02146673811616
 30
0.0
  0
VERTEX
  5
B1
330
AD
100
AcDbEntity
  8
LAYER_1
 62
   250
100
AcDbVertex
100
AcDb2dVertex
 10
53.59052733035237
 20
18.02146673811616
 30
0.0
  0
VERTEX
  5
B2
330
AD
100
AcDbEntity
  8
LAYER_1
 62
   250
100
AcDbVertex
100
AcDb2dVertex
 10
53.59052733035237
 20
17.91432426852489
 30
0.0
  0
SEQEND
  5
B3
330
AD
100
AcDbEntity
  8
LAYER_1
  0
POLYLINE
  5
B4
330
1F
100
AcDbEntity
  8
LAYER_1
 62
   250
100
AcDb2dPolyline
 66
     1
 10
0.0
 20
0.0
 30
0.0
  0
VERTEX
  5
B5
330
B4
100
AcDbEntity
  8
LAYER_1
 62
   250
100
AcDbVertex
100
AcDb2dVertex
 10
23.53930392206657
 20
17.91432426852489
 30
0.0
  0
VERTEX
  5
B6
330
B4
100
AcDbEntity
  8
LAYER_1
 62
   250
100
AcDbVertex
100
AcDb2dVertex
 10
21.59316948244893
 20
17.91432426852489
 30
0.0
  0
VERTEX
  5
B7
330
B4
100
AcDbEntity
  8
LAYER_1
 62
   250
100
AcDbVertex
100
AcDb2dVertex
 10
21.59316948244893
 20
18.02146673811616
 30
0.0
  0
VERTEX
  5
B8
330
B4
100
AcDbEntity
  8
LAYER_1
 62
   250
100
AcDbVertex
100
AcDb2dVertex
 10
23.53930392206657
 20
18.02146673811616
 30
0.0
  0
VERTEX
  5
B9
330
B4
100
AcDbEntity
  8
LAYER_1
 62
   250
100
AcDbVertex
100
AcDb2dVertex
 10
23.53930392206657
 20
17.91432426852489
 30
0.0
  0
SEQEND
  5
BA
330
B4
100
AcDbEntity
  8
LAYER_1
  0
ENDSEC
  0
SECTION
  2
OBJECTS
  0
DICTIONARY
  5
C
330
0
100
AcDbDictionary
  3
ACAD_GROUP
350
D
  3
ACAD_LAYOUT
350
1A
  3
ACAD_MLINESTYLE
350
17
  3
ACAD_PLOTSETTINGS
350
19
  3
ACAD_TABLESTYLE
350
BB
  3
ACAD_VISUALSTYLE
350
2A
1001
ACAD
1000
TREAT_AS_HARD
1070
     0
  0
DICTIONARY
  5
D
102
{ACAD_REACTORS
330
C
102
}
330
C
100
AcDbDictionary
1001
ACAD
1000
TREAT_AS_HARD
1070
     0
  0
DICTIONARY
  5
1A
102
{ACAD_REACTORS
330
C
102
}
330
C
100
AcDbDictionary
1001
ACAD
1000
TREAT_AS_HARD
1070
     0
  0
DICTIONARY
  5
17
102
{ACAD_REACTORS
330
C
102
}
330
C
100
AcDbDictionary
  3
STANDARD
350
18
1001
ACAD
1000
TREAT_AS_HARD
1070
     0
  0
DICTIONARY
  5
19
102
{ACAD_REACTORS
330
C
102
}
330
C
100
AcDbDictionary
1001
ACAD
1000
TREAT_AS_HARD
1070
     0
  0
DICTIONARY
  5
BB
102
{ACAD_REACTORS
330
C
102
}
330
C
100
AcDbDictionary
1001
ACAD
1000
TREAT_AS_HARD
1070
     0
  0
DICTIONARY
  5
2A
102
{ACAD_REACTORS
330
C
102
}
330
C
100
AcDbDictionary
  3
2DWIREFRAME
350
2F
  3
3D_HIDDEN
350
31
  3
3DWIREFRAME
350
30
  3
BASIC
350
32
  3
BRIGHTEN
350
36
  3
COLORCHANGE
350
3A
  3
CONCEPTUAL
350
34
  3
DIM
350
35
  3
FACEPATTERN
350
39
  3
FLAT
350
2B
  3
FLATWITHEDGES
350
2C
  3
GOURAUD
350
2D
  3
GOURAUDWITHEDGES
350
2E
  3
LINEPATTERN
350
38
  3
REALISTIC
350
33
  3
THICKEN
350
37
1001
ACAD
1000
TREAT_AS_HARD
1070
     0
  0
MLINESTYLE
  5
18
102
{ACAD_REACTORS
330
17
102
}
330
17
100
AcDbMlineStyle
  2
Standard
 70
     0
  3

 62
   256
 51
90.0
 52
90.0
 71
     2
 49
0.5
 62
   256
  6
BYLAYER
 49
-0.5
 62
   256
  6
BYLAYER
  0
VISUALSTYLE
  5
2F
102
{ACAD_REACTORS
330
2A
102
}
330
2A
100
AcDbVisualStyle
  2
2dWireframe
 70
     4
 71
     0
 72
     2
 73
     0
 90
        0
 40
-0.6
 41
-30.0
 62
     5
 63
     7
 74
     1
 91
        4
 64
     7
 65
   257
 75
     1
175
     1
 42
1.0
 92
        0
 66
   257
 43
1.0
 76
     1
 77
     6
 78
     2
 67
     7
 79
     5
170
     0
171
     0
290
     0
174
     0
 93
        1
 44
0.0
173
     0
291
     0
 45
0.0
1001
ACAD
1000
AcDbSavedByObjectVersion
1070
     0
  0
VISUALSTYLE
  5
31
102
{ACAD_REACTORS
330
2A
102
}
330
2A
100
AcDbVisualStyle
  2
3D Hidden
 70
     6
 71
     1
 72
     2
 73
     2
 90
        0
 40
-0.6
 41
-30.0
 62
     5
 63
     7
 74
     2
 91
        2
 64
     7
 65
   257
 75
     2
175
     1
 42
40.0
 92
        0
 66
   257
 43
1.0
 76
     1
 77
     6
 78
     2
 67
     7
 79
     3
170
     0
171
     0
290
     0
174
     0
 93
        1
 44
0.0
173
     0
291
     0
 45
0.0
1001
ACAD
1000
AcDbSavedByObjectVersion
1070
     0
  0
VISUALSTYLE
  5
30
102
{ACAD_REACTORS
330
2A
102
}
330
2A
100
AcDbVisualStyle
  2
3dWireframe
 70
     5
 71
     0
 72
     2
 73
     0
 90
        0
 40
-0.6
 41
-30.0
 62
     5
 63
     7
 74
     1
 91
        4
 64
     7
 65
   257
 75
     1
175
     1
 42
1.0
 92
        0
 66
   257
 43
1.0
 76
     1
 77
     6
 78
     2
 67
     7
 79
     5
170
     0
171
     0
290
     0
174
     0
 93
        1
 44
0.0
173
     0
291
     0
 45
0.0
1001
ACAD
1000
AcDbSavedByObjectVersion
1070
     0
  0
VISUALSTYLE
  5
32
102
{ACAD_REACTORS
330
2A
102
}
330
2A
100
AcDbVisualStyle
  2
Basic
 70
     7
 71
     1
 72
     0
 73
     1
 90
        0
 40
-0.6
 41
-30.0
 62
     5
 63
     7
 74
     0
 91
        4
 64
     7
 65
   257
 75
     1
175
     1
 42
1.0
 92
        8
 66
     7
 43
1.0
 76
     1
 77
     6
 78
     2
 67
     7
 79
     5
170
     0
171
     0
290
     0
174
     0
 93
        1
 44
0.0
173
     0
291
     1
 45
0.0
1001
ACAD
1000
AcDbSavedByObjectVersion
1070
     0
  0
VISUALSTYLE
  5
36
102
{ACAD_REACTORS
330
2A
102
}
330
2A
100
AcDbVisualStyle
  2
Brighten
 70
    12
 71
     2
 72
     2
 73
     0
 90
        0
 40
-0.6
 41
-30.0
 62
     5
 63
     7
 74
     1
 91
        4
 64
     7
 65
   257
 75
     1
175
     1
 42
1.0
 92
        8
 66
     7
 43
1.0
 76
     1
 77
     6
 78
     2
 67
     7
 79
     5
170
     0
171
     0
290
     0
174
     0
 93
        1
 44
50.0
173
     0
291
     1
 45
0.0
1001
ACAD
1000
AcDbSavedByObjectVersion
1070
     0
  0
VISUALSTYLE
  5
3A
102
{ACAD_REACTORS
330
2A
102
}
330
2A
100
AcDbVisualStyle
  2
ColorChange
 70
    16
 71
     2
 72
     2
 73
     3
 90
        0
 40
-0.6
 41
-30.0
 62
     5
 63
     8
 74
     1
 91
        4
 64
     7
 65
   257
 75
     1
175
     1
 42
1.0
 92
        8
 66
     8
 43
1.0
 76
     1
 77
     6
 78
     2
 67
     7
 79
     5
170
     0
171
     0
290
     0
174
     0
 93
        1
 44
0.0
173
     0
291
     1
 45
0.0
1001
ACAD
1000
AcDbSavedByObjectVersion
1070
     0
  0
VISUALSTYLE
  5
34
102
{ACAD_REACTORS
330
2A
102
}
330
2A
100
AcDbVisualStyle
  2
Conceptual
 70
     9
 71
     3
 72
     2
 73
     0
 90
        0
 40
-0.6
 41
-30.0
 62
     5
 63
     7
 74
     2
 91
        2
 64
     7
 65
   257
 75
     1
175
     1
 42
40.0
 92
        8
 66
     7
 43
1.0
 76
     1
 77
     6
 78
     2
 67
     7
 79
     3
170
     0
171
     0
290
     0
174
     0
 93
        1
 44
0.0
173
     0
291
     0
 45
0.0
1001
ACAD
1000
AcDbSavedByObjectVersion
1070
     0
  0
VISUALSTYLE
  5
35
102
{ACAD_REACTORS
330
2A
102
}
330
2A
100
AcDbVisualStyle
  2
Dim
 70
    11
 71
     2
 72
     2
 73
     0
 90
        0
 40
-0.6
 41
-30.0
 62
     5
 63
     7
 74
     1
 91
        4
 64
     7
 65
   257
 75
     1
175
     1
 42
1.0
 92
        8
 66
     7
 43
1.0
 76
     1
 77
     6
 78
     2
 67
     7
 79
     5
170
     0
171
     0
290
     0
174
     0
 93
        1
 44
-50.0
173
     0
291
     1
 45
0.0
1001
ACAD
1000
AcDbSavedByObjectVersion
1070
     0
  0
VISUALSTYLE
  5
39
102
{ACAD_REACTORS
330
2A
102
}
330
2A
100
AcDbVisualStyle
  2
Facepattern
 70
    15
 71
     2
 72
     2
 73
     0
 90
        0
 40
-0.6
 41
-30.0
 62
     5
 63
     7
 74
     1
 91
        4
 64
     7
 65
   257
 75
     1
175
     1
 42
1.0
 92
        8
 66
     7
 43
1.0
 76
     1
 77
     6
 78
     2
 67
     7
 79
     5
170
     0
171
     0
290
     0
174
     0
 93
        1
 44
0.0
173
     0
291
     1
 45
0.0
1001
ACAD
1000
AcDbSavedByObjectVersion
1070
     0
  0
VISUALSTYLE
  5
2B
102
{ACAD_REACTORS
330
2A
102
}
330
2A
100
AcDbVisualStyle
  2
Flat
 70
     0
 71
     2
 72
     1
 73
     1
 90
        2
 40
-0.6
 41
30.0
 62
     5
 63
     7
 74
     0
 91
        4
 64
     7
 65
   257
 75
     1
175
     1
 42
1.0
 92
        8
 66
     7
 43
1.0
 76
     1
 77
     6
 78
     2
 67
     7
 79
     5
170
     0
171
     0
290
     0
174
     0
 93
       13
 44
0.0
173
     0
291
     1
 45
0.0
1001
ACAD
1000
AcDbSavedByObjectVersion
1070
     0
  0
VISUALSTYLE
  5
2C
102
{ACAD_REACTORS
330
2A
102
}
330
2A
100
AcDbVisualStyle
  2
FlatWithEdges
 70
     1
 71
     2
 72
     1
 73
     1
 90
        2
 40
-0.6
 41
30.0
 62
     5
 63
     7
 74
     1
 91
        4
 64
     7
 65
   257
 75
     1
175
     1
 42
1.0
 92
        0
 66
   257
 43
1.0
 76
     1
 77
     6
 78
     2
 67
     7
 79
     5
170
     0
171
     0
290
     0
174
     0
 93
       13
 44
0.0
173
     0
291
     1
 45
0.0
1001
ACAD
1000
AcDbSavedByObjectVersion
1070
     0
  0
VISUALSTYLE
  5
2D
102
{ACAD_REACTORS
330
2A
102
}
330
2A
100
AcDbVisualStyle
  2
Gouraud
 70
     2
 71
     2
 72
     2
 73
     1
 90
        2
 40
-0.6
 41
30.0
 62
     5
 63
     7
 74
     0
 91
        4
 64
     7
 65
   257
 75
     1
175
     1
 42
1.0
 92
        0
 66
     7
 43
1.0
 76
     1
 77
     6
 78
     2
 67
     7
 79
     5
170
     0
171
     0
290
     0
174
     0
 93
       13
 44
0.0
173
     0
291
     1
 45
0.0
1001
ACAD
1000
AcDbSavedByObjectVersion
1070
     0
  0
VISUALSTYLE
  5
2E
102
{ACAD_REACTORS
330
2A
102
}
330
2A
100
AcDbVisualStyle
  2
GouraudWithEdges
 70
     3
 71
     2
 72
     2
 73
     1
 90
        2
 40
-0.6
 41
30.0
 62
     5
 63
     7
 74
     1
 91
        4
 64
     7
 65
   257
 75
     1
175
     1
 42
1.0
 92
        0
 66
   257
 43
1.0
 76
     1
 77
     6
 78
     2
 67
     7
 79
     5
170
     0
171
     0
290
     0
174
     0
 93
       13
 44
0.0
173
     0
291
     1
 45
0.0
1001
ACAD
1000
AcDbSavedByObjectVersion
1070
     0
  0
VISUALSTYLE
  5
38
102
{ACAD_REACTORS
330
2A
102
}
330
2A
100
AcDbVisualStyle
  2
Linepattern
 70
    14
 71
     2
 72
     2
 73
     0
 90
        0
 40
-0.6
 41
-30.0
 62
     5
 63
     7
 74
     1
 91
        4
 64
     7
 65
   257
 75
     7
175
     7
 42
1.0
 92
        8
 66
     7
 43
1.0
 76
     1
 77
     6
 78
     2
 67
     7
 79
     5
170
     0
171
     0
290
     0
174
     0
 93
        1
 44
0.0
173
     0
291
     1
 45
0.0
1001
ACAD
1000
AcDbSavedByObjectVersion
1070
     0
  0
VISUALSTYLE
  5
33
102
{ACAD_REACTORS
330
2A
102
}
330
2A
100
AcDbVisualStyle
  2
Realistic
 70
     8
 71
     2
 72
     2
 73
     0
 90
        0
 40
-0.6
 41
-30.0
 62
     5
 63
     7
 74
     1
 91
        0
 64
     7
 65
   257
 75
     1
175
     1
 42
1.0
 92
        8
 66
     8
 43
1.0
 76
     1
 77
     6
 78
     2
 67
     7
 79
     5
170
     0
171
     0
290
     0
174
     0
 93
       13
 44
0.0
173
     0
291
     0
 45
0.0
1001
ACAD
1000
AcDbSavedByObjectVersion
1070
     0
  0
VISUALSTYLE
  5
37
102
{ACAD_REACTORS
330
2A
102
}
330
2A
100
AcDbVisualStyle
  2
Thicken
 70
    13
 71
     2
 72
     2
 73
     0
 90
        0
 40
-0.6
 41
-30.0
 62
     5
 63
     7
 74
     1
 91
        4
 64
     7
 65
   257
 75
     1
175
     1
 42
1.0
 92
       12
 66
     7
 43
1.0
 76
     1
 77
     6
 78
     2
 67
     7
 79
     5
170
     0
171
     0
290
     0
174
     0
 93
        1
 44
0.0
173
     0
291
     1
 45
0.0
1001
ACAD
1000
AcDbSavedByObjectVersion
1070
     0
  0
ENDSEC
  0
EOF
