  0
SECTION
  2
HEADER
  9
$ACADVER
  1
AC1012
  9
$DWGCODEPAGE
  3
ansi_1252
  9
$INSBASE
 10
0.0
 20
0.0
 30
0.0
  9
$EXTMIN
 10
1.000000000000000E+20
 20
1.000000000000000E+20
 30
1.000000000000000E+20
  9
$EXTMAX
 10
-1.000000000000000E+20
 20
-1.000000000000000E+20
 30
-1.000000000000000E+20
  9
$LIMMIN
 10
0.0
 20
0.0
  9
$LIMMAX
 10
12.0
 20
9.0
  9
$ORTHOMODE
 70
     0
  9
$REGENMODE
 70
     1
  9
$FILLMODE
 70
     1
  9
$QTEXTMODE
 70
     0
  9
$MIRRTEXT
 70
     1
  9
$DRAGMODE
 70
     2
  9
$LTSCALE
 40
1.0
  9
$OSMODE
 70
    37
  9
$ATTMODE
 70
     1
  9
$TEXTSIZE
 40
0.2
  9
$TRACEWID
 40
0.05
  9
$TEXTSTYLE
  7
STANDARD
  9
$CLAYER
  8
0
  9
$CELTYPE
  6
BYLAYER
  9
$CECOLOR
 62
   256
  9
$CELTSCALE
 40
1.0
  9
$DELOBJ
 70
     1
  9
$DISPSILH
 70
     0
  9
$DIMSCALE
 40
1.0
  9
$DIMASZ
 40
0.18
  9
$DIMEXO
 40
0.0625
  9
$DIMDLI
 40
0.38
  9
$DIMRND
 40
0.0
  9
$DIMDLE
 40
0.0
  9
$DIMEXE
 40
0.18
  9
$DIMTP
 40
0.0
  9
$DIMTM
 40
0.0
  9
$DIMTXT
 40
0.18
  9
$DIMCEN
 40
0.09
  9
$DIMTSZ
 40
0.0
  9
$DIMTOL
 70
     0
  9
$DIMLIM
 70
     0
  9
$DIMTIH
 70
     1
  9
$DIMTOH
 70
     1
  9
$DIMSE1
 70
     0
  9
$DIMSE2
 70
     0
  9
$DIMTAD
 70
     0
  9
$DIMZIN
 70
     0
  9
$DIMBLK
  1

  9
$DIMASO
 70
     1
  9
$DIMSHO
 70
     1
  9
$DIMPOST
  1

  9
$DIMAPOST
  1

  9
$DIMALT
 70
     0
  9
$DIMALTD
 70
     2
  9
$DIMALTF
 40
25.4
  9
$DIMLFAC
 40
1.0
  9
$DIMTOFL
 70
     0
  9
$DIMTVP
 40
0.0
  9
$DIMTIX
 70
     0
  9
$DIMSOXD
 70
     0
  9
$DIMSAH
 70
     0
  9
$DIMBLK1
  1

  9
$DIMBLK2
  1

  9
$DIMSTYLE
  2
STANDARD
  9
$DIMCLRD
 70
     0
  9
$DIMCLRE
 70
     0
  9
$DIMCLRT
 70
     0
  9
$DIMTFAC
 40
1.0
  9
$DIMGAP
 40
0.09
  9
$DIMJUST
 70
     0
  9
$DIMSD1
 70
     0
  9
$DIMSD2
 70
     0
  9
$DIMTOLJ
 70
     1
  9
$DIMTZIN
 70
     0
  9
$DIMALTZ
 70
     0
  9
$DIMALTTZ
 70
     0
  9
$DIMFIT
 70
     3
  9
$DIMUPT
 70
     0
  9
$DIMUNIT
 70
     2
  9
$DIMDEC
 70
     4
  9
$DIMTDEC
 70
     4
  9
$DIMALTU
 70
     2
  9
$DIMALTTD
 70
     2
  9
$DIMTXSTY
  7
STANDARD
  9
$DIMAUNIT
 70
     0
  9
$LUNITS
 70
     2
  9
$LUPREC
 70
     4
  9
$SKETCHINC
 40
0.1
  9
$FILLETRAD
 40
0.5
  9
$AUNITS
 70
     0
  9
$AUPREC
 70
     0
  9
$MENU
  1
.
  9
$ELEVATION
 40
0.0
  9
$PELEVATION
 40
0.0
  9
$THICKNESS
 40
0.0
  9
$LIMCHECK
 70
     0
  9
$CHAMFERA
 40
0.5
  9
$CHAMFERB
 40
0.5
  9
$CHAMFERC
 40
1.0
  9
$CHAMFERD
 40
0.0
  9
$SKPOLY
 70
     0
  9
$TDCREATE
 40
2456601.829123113
  9
$TDUPDATE
 40
2456601.829123125
  9
$TDINDWG
 40
0.0000000116
  9
$TDUSRTIMER
 40
0.0000000116
  9
$USRTIMER
 70
     1
  9
$ANGBASE
 50
0.0
  9
$ANGDIR
 70
     0
  9
$PDMODE
 70
     0
  9
$PDSIZE
 40
0.0
  9
$PLINEWID
 40
0.0
  9
$COORDS
 70
     1
  9
$SPLFRAME
 70
     0
  9
$SPLINETYPE
 70
     6
  9
$SPLINESEGS
 70
     8
  9
$ATTDIA
 70
     0
  9
$ATTREQ
 70
     1
  9
$HANDLING
 70
     1
  9
$HANDSEED
  5
4C
  9
$SURFTAB1
 70
     6
  9
$SURFTAB2
 70
     6
  9
$SURFTYPE
 70
     6
  9
$SURFU
 70
     6
  9
$SURFV
 70
     6
  9
$UCSNAME
  2

  9
$UCSORG
 10
0.0
 20
0.0
 30
0.0
  9
$UCSXDIR
 10
1.0
 20
0.0
 30
0.0
  9
$UCSYDIR
 10
0.0
 20
1.0
 30
0.0
  9
$PUCSNAME
  2

  9
$PUCSORG
 10
0.0
 20
0.0
 30
0.0
  9
$PUCSXDIR
 10
1.0
 20
0.0
 30
0.0
  9
$PUCSYDIR
 10
0.0
 20
1.0
 30
0.0
  9
$USERI1
 70
     0
  9
$USERI2
 70
     0
  9
$USERI3
 70
     0
  9
$USERI4
 70
     0
  9
$USERI5
 70
     0
  9
$USERR1
 40
0.0
  9
$USERR2
 40
0.0
  9
$USERR3
 40
0.0
  9
$USERR4
 40
0.0
  9
$USERR5
 40
0.0
  9
$WORLDVIEW
 70
     1
  9
$SHADEDGE
 70
     3
  9
$SHADEDIF
 70
    70
  9
$TILEMODE
 70
     1
  9
$MAXACTVP
 70
    64
  9
$PINSBASE
 10
0.0
 20
0.0
 30
0.0
  9
$PLIMCHECK
 70
     0
  9
$PEXTMIN
 10
1.000000000000000E+20
 20
1.000000000000000E+20
 30
1.000000000000000E+20
  9
$PEXTMAX
 10
-1.000000000000000E+20
 20
-1.000000000000000E+20
 30
-1.000000000000000E+20
  9
$PLIMMIN
 10
0.0
 20
0.0
  9
$PLIMMAX
 10
12.0
 20
9.0
  9
$UNITMODE
 70
     0
  9
$VISRETAIN
 70
     1
  9
$PLINEGEN
 70
     0
  9
$PSLTSCALE
 70
     1
  9
$TREEDEPTH
 70
  3020
  9
$PICKSTYLE
 70
     1
  9
$CMLSTYLE
  2
STANDARD
  9
$CMLJUST
 70
     0
  9
$CMLSCALE
 40
1.0
  9
$SAVEIMAGES
 70
     1
  0
ENDSEC
  0
SECTION
  2
CLASSES
  0
CLASS
  1
ACDBDICTIONARYWDFLT
  2
AcDbDictionaryWithDefault
  3
ObjectDBX Classes
 90
    32768
280
     0
281
     0
  0
CLASS
  1
VISUALSTYLE
  2
AcDbVisualStyle
  3
ObjectDBX Classes
 90
     4095
280
     0
281
     0
  0
CLASS
  1
XRECORD
  2
AcDbXrecord
  3
AutoCAD 2000
 90
    32768
280
     0
281
     0
  0
CLASS
  1
LWPOLYLINE
  2
AcDbPolyline
  3
AutoCAD 2000
 90
    32768
280
     0
281
     1
  0
CLASS
  1
HATCH
  2
AcDbHatch
  3
AutoCAD 2000
 90
    32768
280
     0
281
     1
  0
CLASS
  1
ACDBPLACEHOLDER
  2
AcDbPlaceHolder
  3
ObjectDBX Classes
 90
        0
280
     0
281
     0
  0
CLASS
  1
LAYOUT
  2
AcDbLayout
  3
ObjectDBX Classes
 90
        0
280
     0
281
     0
  0
ENDSEC
  0
SECTION
  2
TABLES
  0
TABLE
  2
VPORT
  5
8
330
0
100
AcDbSymbolTable
 70
     1
  0
VPORT
  5
29
330
8
100
AcDbSymbolTableRecord
100
AcDbViewportTableRecord
  2
*ACTIVE
 70
     0
 10
0.0
 20
0.0
 11
1.0
 21
1.0
 12
0.0
 22
0.0
 13
0.0
 23
0.0
 14
0.5
 24
0.5
 15
0.5
 25
0.5
 16
0.0
 26
0.0
 36
1.0
 17
148.4999796178229
 27
-105.0008259828644
 37
0.0
 40
210.0016519657288
 41
1.414274394775308
 42
50.0
 43
0.0
 44
0.0
 50
0.0
 51
0.0
 71
     0
 72
   100
 73
     1
 74
     3
 75
     0
 76
     0
 77
     0
 78
     0
  0
ENDTAB
  0
TABLE
  2
LTYPE
  5
5
330
0
100
AcDbSymbolTable
 70
     1
  0
LTYPE
  5
14
330
5
100
AcDbSymbolTableRecord
100
AcDbLinetypeTableRecord
  2
BYBLOCK
 70
     0
  3

 72
    65
 73
     0
 40
0.0
  0
LTYPE
  5
15
330
5
100
AcDbSymbolTableRecord
100
AcDbLinetypeTableRecord
  2
BYLAYER
 70
     0
  3

 72
    65
 73
     0
 40
0.0
  0
LTYPE
  5
16
330
5
100
AcDbSymbolTableRecord
100
AcDbLinetypeTableRecord
  2
CONTINUOUS
 70
     0
  3
Solid line
 72
    65
 73
     0
 40
0.0
  0
ENDTAB
  0
TABLE
  2
LAYER
  5
2
330
0
100
AcDbSymbolTable
 70
     2
  0
LAYER
  5
10
330
2
100
AcDbSymbolTableRecord
100
AcDbLayerTableRecord
  2
0
 70
     0
 62
     7
  6
CONTINUOUS
  0
LAYER
  5
3B
330
2
100
AcDbSymbolTableRecord
100
AcDbLayerTableRecord
  2
LAYER_1
 70
     0
 62
     7
  6
CONTINUOUS
  0
ENDTAB
  0
TABLE
  2
STYLE
  5
3
330
0
100
AcDbSymbolTable
 70
     1
  0
STYLE
  5
11
330
3
100
AcDbSymbolTableRecord
100
AcDbTextStyleTableRecord
  2
STANDARD
 70
     0
 40
0.0
 41
1.0
 50
0.0
 71
     0
 42
0.2
  3
txt
  4

  0
ENDTAB
  0
TABLE
  2
VIEW
  5
6
330
0
100
AcDbSymbolTable
 70
     0
  0
ENDTAB
  0
TABLE
  2
UCS
  5
7
330
0
100
AcDbSymbolTable
 70
     0
  0
ENDTAB
  0
TABLE
  2
APPID
  5
9
330
0
100
AcDbSymbolTable
 70
     1
  0
APPID
  5
12
330
9
100
AcDbSymbolTableRecord
100
AcDbRegAppTableRecord
  2
ACAD
 70
     0
  0
ENDTAB
  0
TABLE
  2
DIMSTYLE
  5
A
330
0
100
AcDbSymbolTable
 70
     1
  0
DIMSTYLE
105
27
330
A
100
AcDbSymbolTableRecord
100
AcDbDimStyleTableRecord
  2
STANDARD
 70
     0
  3

  4

  5

  6

  7

 40
1.0
 41
0.18
 42
0.0625
 43
0.38
 44
0.18
 45
0.0
 46
0.0
 47
0.0
 48
0.0
140
0.18
141
0.09
142
0.0
143
25.4
144
1.0
145
0.0
146
1.0
147
0.09
 71
     0
 72
     0
 73
     1
 74
     1
 75
     0
 76
     0
 77
     0
 78
     0
170
     0
171
     2
172
     0
173
     0
174
     0
175
     0
176
     0
177
     0
178
     0
270
     2
271
     4
272
     4
273
     2
274
     2
340
11
275
     0
280
     0
281
     0
282
     0
283
     1
284
     0
285
     0
286
     0
287
     3
288
     0
  0
ENDTAB
  0
TABLE
  2
BLOCK_RECORD
  5
1
330
0
100
AcDbSymbolTable
 70
     1
  0
BLOCK_RECORD
  5
1F
330
1
100
AcDbSymbolTableRecord
100
AcDbBlockTableRecord
  2
*MODEL_SPACE
  0
BLOCK_RECORD
  5
1B
330
1
100
AcDbSymbolTableRecord
100
AcDbBlockTableRecord
  2
*PAPER_SPACE
  0
ENDTAB
  0
ENDSEC
  0
SECTION
  2
BLOCKS
  0
BLOCK
  5
20
330
1F
100
AcDbEntity
  8
0
100
AcDbBlockBegin
  2
*MODEL_SPACE
 70
     0
 71
     0
 10
0.0
 20
0.0
 30
0.0
  3
*MODEL_SPACE
  1

  0
ENDBLK
  5
21
330
1F
100
AcDbEntity
  8
0
100
AcDbBlockEnd
  0
BLOCK
  5
1C
330
1B
100
AcDbEntity
 67
     1
  8
0
100
AcDbBlockBegin
  2
*PAPER_SPACE
 70
     0
 71
     0
 10
0.0
 20
0.0
 30
0.0
  3
*PAPER_SPACE
  1

  0
ENDBLK
  5
1D
330
1B
100
AcDbEntity
 67
     1
  8
0
100
AcDbBlockEnd
  0
ENDSEC
  0
SECTION
  2
ENTITIES
  0
SPLINE
  5
3C
330
1F
100
AcDbEntity
  8
LAYER_1
 62
     7
100
AcDbSpline
210
0.0
220
0.0
230
1.0
 70
    11
 71
     3
 72
    17
 73
    13
 74
     0
 42
0.0000000001
 43
0.0000000001
 40
0.0
 40
0.0
 40
0.0
 40
0.0
 40
1.0
 40
1.0
 40
1.0
 40
2.0
 40
2.0
 40
2.0
 40
3.0
 40
3.0
 40
3.0
 40
4.0
 40
4.0
 40
4.0
 40
4.0
 10
7.51065266739317
 20
25.18726534743582
 30
0.0
 10
7.51065266739317
 20
24.3588921380075
 30
0.0
 10
6.839031302543715
 20
23.68744302793231
 30
0.0
 10
6.010485838341129
 20
23.68744302793231
 30
0.0
 10
5.182112628912805
 20
23.68744302793231
 30
0.0
 10
4.51049126406335
 20
24.3588921380075
 30
0.0
 10
4.51049126406335
 20
25.18726534743582
 30
0.0
 10
4.51049126406335
 20
26.01581081163841
 30
0.0
 10
5.182112628912805
 20
26.68743217648786
 30
0.0
 10
6.010485838341129
 20
26.68743217648786
 30
0.0
 10
6.839031302543715
 20
26.68743217648786
 30
0.0
 10
7.51065266739317
 20
26.01581081163841
 30
0.0
 10
7.51065266739317
 20
25.18726534743582
 30
0.0
  0
SPLINE
  5
3D
330
1F
100
AcDbEntity
  8
LAYER_1
 62
     7
100
AcDbSpline
210
0.0
220
0.0
230
1.0
 70
    11
 71
     3
 72
    17
 73
    13
 74
     0
 42
0.0000000001
 43
0.0000000001
 40
0.0
 40
0.0
 40
0.0
 40
0.0
 40
1.0
 40
1.0
 40
1.0
 40
2.0
 40
2.0
 40
2.0
 40
3.0
 40
3.0
 40
3.0
 40
4.0
 40
4.0
 40
4.0
 40
4.0
 10
9.01064724167095
 20
25.18726534743582
 30
0.0
 10
9.01064724167095
 20
23.53051892857918
 30
0.0
 10
7.667404511972038
 20
22.18762070842879
 30
0.0
 10
6.010485838341129
 20
22.18762070842879
 30
0.0
 10
4.353739419484482
 20
22.18762070842879
 30
0.0
 10
3.01049668978557
 20
23.53051892857918
 30
0.0
 10
3.01049668978557
 20
25.18726534743582
 30
0.0
 10
3.01049668978557
 20
26.84418402106673
 30
0.0
 10
4.353739419484482
 20
28.18742675076565
 30
0.0
 10
6.010485838341129
 20
28.18742675076565
 30
0.0
 10
7.667404511972038
 20
28.18742675076565
 30
0.0
 10
9.01064724167095
 20
26.84418402106673
 30
0.0
 10
9.01064724167095
 20
25.18726534743582
 30
0.0
  0
SPLINE
  5
3E
330
1F
100
AcDbEntity
  8
LAYER_1
 62
     7
100
AcDbSpline
210
0.0
220
0.0
230
1.0
 70
    11
 71
     3
 72
    17
 73
    13
 74
     0
 42
0.0000000001
 43
0.0000000001
 40
0.0
 40
0.0
 40
0.0
 40
0.0
 40
1.0
 40
1.0
 40
1.0
 40
2.0
 40
2.0
 40
2.0
 40
3.0
 40
3.0
 40
3.0
 40
4.0
 40
4.0
 40
4.0
 40
4.0
 10
7.51065266739317
 20
7.021276853713431
 30
0.0
 10
7.51065266739317
 20
6.19307589905937
 30
0.0
 10
6.838859047769453
 20
5.52111002466139
 30
0.0
 10
6.010485838341129
 20
5.52111002466139
 30
0.0
 10
5.182284883687068
 20
5.52111002466139
 30
0.0
 10
4.51049126406335
 20
6.19307589905937
 30
0.0
 10
4.51049126406335
 20
7.021276853713431
 30
0.0
 10
4.51049126406335
 20
7.849650063141755
 30
0.0
 10
5.182284883687068
 20
8.521443682765472
 30
0.0
 10
6.010485838341129
 20
8.521443682765472
 30
0.0
 10
6.838859047769453
 20
8.521443682765472
 30
0.0
 10
7.51065266739317
 20
7.849650063141755
 30
0.0
 10
7.51065266739317
 20
7.021276853713431
 30
0.0
  0
SPLINE
  5
3F
330
1F
100
AcDbEntity
  8
LAYER_1
 62
     7
100
AcDbSpline
210
0.0
220
0.0
230
1.0
 70
    11
 71
     3
 72
    17
 73
    13
 74
     0
 42
0.0000000001
 43
0.0000000001
 40
0.0
 40
0.0
 40
0.0
 40
0.0
 40
1.0
 40
1.0
 40
1.0
 40
2.0
 40
2.0
 40
2.0
 40
3.0
 40
3.0
 40
3.0
 40
4.0
 40
4.0
 40
4.0
 40
4.0
 10
9.01064724167095
 20
7.021276853713431
 30
0.0
 10
9.01064724167095
 20
5.365047199179572
 30
0.0
 10
7.667232257197775
 20
4.02111545038361
 30
0.0
 10
6.010485838341129
 20
4.02111545038361
 30
0.0
 10
4.354083929033007
 20
4.02111545038361
 30
0.0
 10
3.01049668978557
 20
5.365047199179572
 30
0.0
 10
3.01049668978557
 20
7.021276853713431
 30
0.0
 10
3.01049668978557
 20
8.678023272570078
 30
0.0
 10
4.354083929033007
 20
10.02143825704325
 30
0.0
 10
6.010485838341129
 20
10.02143825704325
 30
0.0
 10
7.667232257197775
 20
10.02143825704325
 30
0.0
 10
9.01064724167095
 20
8.678023272570078
 30
0.0
 10
9.01064724167095
 20
7.021276853713431
 30
0.0
  0
SPLINE
  5
40
330
1F
100
AcDbEntity
  8
LAYER_1
 62
     7
100
AcDbSpline
210
0.0
220
0.0
230
1.0
 70
    11
 71
     3
 72
    17
 73
    13
 74
     0
 42
0.0000000001
 43
0.0000000001
 40
0.0
 40
0.0
 40
0.0
 40
0.0
 40
1.0
 40
1.0
 40
1.0
 40
2.0
 40
2.0
 40
2.0
 40
3.0
 40
3.0
 40
3.0
 40
4.0
 40
4.0
 40
4.0
 40
4.0
 10
35.51221651672959
 20
7.021276853713431
 30
0.0
 10
35.51221651672959
 20
6.19307589905937
 30
0.0
 10
34.84076740665439
 20
5.521454534209915
 30
0.0
 10
34.01256645200034
 20
5.521454534209915
 30
0.0
 10
33.18402098779774
 20
5.521454534209915
 30
0.0
 10
32.51222736817403
 20
6.19307589905937
 30
0.0
 10
32.51222736817403
 20
7.021276853713431
 30
0.0
 10
32.51222736817403
 20
7.849650063141755
 30
0.0
 10
33.18402098779774
 20
8.521271427991211
 30
0.0
 10
34.01256645200034
 20
8.521271427991211
 30
0.0
 10
34.84076740665439
 20
8.521271427991211
 30
0.0
 10
35.51221651672959
 20
7.849650063141755
 30
0.0
 10
35.51221651672959
 20
7.021276853713431
 30
0.0
  0
SPLINE
  5
41
330
1F
100
AcDbEntity
  8
LAYER_1
 62
     7
100
AcDbSpline
210
0.0
220
0.0
230
1.0
 70
    11
 71
     3
 72
    17
 73
    13
 74
     0
 42
0.0000000001
 43
0.0000000001
 40
0.0
 40
0.0
 40
0.0
 40
0.0
 40
1.0
 40
1.0
 40
1.0
 40
2.0
 40
2.0
 40
2.0
 40
3.0
 40
3.0
 40
3.0
 40
4.0
 40
4.0
 40
4.0
 40
4.0
 10
37.01255560055589
 20
7.021276853713431
 30
0.0
 10
37.01255560055589
 20
5.365047199179572
 30
0.0
 10
35.66862385175993
 20
4.02111545038361
 30
0.0
 10
34.01256645200034
 20
4.02111545038361
 30
0.0
 10
32.35599228791795
 20
4.02111545038361
 30
0.0
 10
31.01240504867051
 20
5.365047199179572
 30
0.0
 10
31.01240504867051
 20
7.021276853713431
 30
0.0
 10
31.01240504867051
 20
8.678023272570078
 30
0.0
 10
32.35599228791795
 20
10.02126600226899
 30
0.0
 10
34.01256645200034
 20
10.02126600226899
 30
0.0
 10
35.66862385175993
 20
10.02126600226899
 30
0.0
 10
37.01255560055589
 20
8.678023272570078
 30
0.0
 10
37.01255560055589
 20
7.021276853713431
 30
0.0
  0
SPLINE
  5
42
330
1F
100
AcDbEntity
  8
LAYER_1
 62
     7
100
AcDbSpline
210
0.0
220
0.0
230
1.0
 70
    11
 71
     3
 72
    17
 73
    13
 74
     0
 42
0.0000000001
 43
0.0000000001
 40
0.0
 40
0.0
 40
0.0
 40
0.0
 40
1.0
 40
1.0
 40
1.0
 40
2.0
 40
2.0
 40
2.0
 40
3.0
 40
3.0
 40
3.0
 40
4.0
 40
4.0
 40
4.0
 40
4.0
 10
63.51464163993732
 20
25.18726534743582
 30
0.0
 10
63.51464163993732
 20
24.35906439278176
 30
0.0
 10
62.8428480203136
 20
23.68727077315804
 30
0.0
 10
62.01430255611101
 20
23.68727077315804
 30
0.0
 10
61.18610160145695
 20
23.68727077315804
 30
0.0
 10
60.51430798183323
 20
24.35906439278176
 30
0.0
 10
60.51430798183323
 20
25.18726534743582
 30
0.0
 10
60.51430798183323
 20
26.01563855686415
 30
0.0
 10
61.18610160145695
 20
26.68743217648786
 30
0.0
 10
62.01430255611101
 20
26.68743217648786
 30
0.0
 10
62.8428480203136
 20
26.68743217648786
 30
0.0
 10
63.51464163993732
 20
26.01563855686415
 30
0.0
 10
63.51464163993732
 20
25.18726534743582
 30
0.0
  0
SPLINE
  5
43
330
1F
100
AcDbEntity
  8
LAYER_1
 62
     7
100
AcDbSpline
210
0.0
220
0.0
230
1.0
 70
    11
 71
     3
 72
    17
 73
    13
 74
     0
 42
0.0000000001
 43
0.0000000001
 40
0.0
 40
0.0
 40
0.0
 40
0.0
 40
1.0
 40
1.0
 40
1.0
 40
2.0
 40
2.0
 40
2.0
 40
3.0
 40
3.0
 40
3.0
 40
4.0
 40
4.0
 40
4.0
 40
4.0
 10
65.01463621421509
 20
25.18726534743582
 30
0.0
 10
65.01463621421509
 20
23.5308634381277
 30
0.0
 10
63.67070446541913
 20
22.18762070842879
 30
0.0
 10
62.01430255611101
 20
22.18762070842879
 30
0.0
 10
60.35824515635142
 20
22.18762070842879
 30
0.0
 10
59.01465791710397
 20
23.5308634381277
 30
0.0
 10
59.01465791710397
 20
25.18726534743582
 30
0.0
 10
59.01465791710397
 20
26.84366725674395
 30
0.0
 10
60.35824515635142
 20
28.18725449599138
 30
0.0
 10
62.01430255611101
 20
28.18725449599138
 30
0.0
 10
63.67070446541913
 20
28.18725449599138
 30
0.0
 10
65.01463621421509
 20
26.84366725674395
 30
0.0
 10
65.01463621421509
 20
25.18726534743582
 30
0.0
  0
SPLINE
  5
44
330
1F
100
AcDbEntity
  8
LAYER_1
 62
     7
100
AcDbSpline
210
0.0
220
0.0
230
1.0
 70
    11
 71
     3
 72
    17
 73
    13
 74
     0
 42
0.0000000001
 43
0.0000000001
 40
0.0
 40
0.0
 40
0.0
 40
0.0
 40
1.0
 40
1.0
 40
1.0
 40
2.0
 40
2.0
 40
2.0
 40
3.0
 40
3.0
 40
3.0
 40
4.0
 40
4.0
 40
4.0
 40
4.0
 10
63.51464163993732
 20
7.021276853713431
 30
0.0
 10
63.51464163993732
 20
6.19307589905937
 30
0.0
 10
62.8428480203136
 20
5.52111002466139
 30
0.0
 10
62.01430255611101
 20
5.52111002466139
 30
0.0
 10
61.18610160145695
 20
5.52111002466139
 30
0.0
 10
60.51430798183323
 20
6.19307589905937
 30
0.0
 10
60.51430798183323
 20
7.021276853713431
 30
0.0
 10
60.51430798183323
 20
7.849650063141755
 30
0.0
 10
61.18610160145695
 20
8.521443682765472
 30
0.0
 10
62.01430255611101
 20
8.521443682765472
 30
0.0
 10
62.8428480203136
 20
8.521443682765472
 30
0.0
 10
63.51464163993732
 20
7.849650063141755
 30
0.0
 10
63.51464163993732
 20
7.021276853713431
 30
0.0
  0
SPLINE
  5
45
330
1F
100
AcDbEntity
  8
LAYER_1
 62
     7
100
AcDbSpline
210
0.0
220
0.0
230
1.0
 70
    11
 71
     3
 72
    17
 73
    13
 74
     0
 42
0.0000000001
 43
0.0000000001
 40
0.0
 40
0.0
 40
0.0
 40
0.0
 40
1.0
 40
1.0
 40
1.0
 40
2.0
 40
2.0
 40
2.0
 40
3.0
 40
3.0
 40
3.0
 40
4.0
 40
4.0
 40
4.0
 40
4.0
 10
65.01463621421509
 20
7.021276853713431
 30
0.0
 10
65.01463621421509
 20
5.365047199179572
 30
0.0
 10
63.67070446541913
 20
4.02111545038361
 30
0.0
 10
62.01430255611101
 20
4.02111545038361
 30
0.0
 10
60.35824515635142
 20
4.02111545038361
 30
0.0
 10
59.01465791710397
 20
5.365047199179572
 30
0.0
 10
59.01465791710397
 20
7.021276853713431
 30
0.0
 10
59.01465791710397
 20
8.677851017795815
 30
0.0
 10
60.35824515635142
 20
10.02126600226899
 30
0.0
 10
62.01430255611101
 20
10.02126600226899
 30
0.0
 10
63.67070446541913
 20
10.02126600226899
 30
0.0
 10
65.01463621421509
 20
8.677851017795815
 30
0.0
 10
65.01463621421509
 20
7.021276853713431
 30
0.0
  0
SPLINE
  5
46
330
1F
100
AcDbEntity
  8
LAYER_1
 62
     7
100
AcDbSpline
210
0.0
220
0.0
230
1.0
 70
    11
 71
     3
 72
    17
 73
    13
 74
     0
 42
0.0000000001
 43
0.0000000001
 40
0.0
 40
0.0
 40
0.0
 40
0.0
 40
1.0
 40
1.0
 40
1.0
 40
2.0
 40
2.0
 40
2.0
 40
3.0
 40
3.0
 40
3.0
 40
4.0
 40
4.0
 40
4.0
 40
4.0
 10
24.57782795609513
 20
16.31579996336897
 30
0.0
 10
24.57782795609513
 20
13.830680335084
 30
0.0
 10
22.5627916067725
 20
11.81529947621284
 30
0.0
 10
20.07784423326179
 20
11.81529947621284
 30
0.0
 10
17.59220784065403
 20
11.81529947621284
 30
0.0
 10
15.57786051042845
 20
13.830680335084
 30
0.0
 10
15.57786051042845
 20
16.31579996336897
 30
0.0
 10
15.57786051042845
 20
18.8010918464282
 30
0.0
 10
17.59220784065403
 20
20.81664496007362
 30
0.0
 10
20.07784423326179
 20
20.81664496007362
 30
0.0
 10
22.5627916067725
 20
20.81664496007362
 30
0.0
 10
24.57782795609513
 20
18.8010918464282
 30
0.0
 10
24.57782795609513
 20
16.31579996336897
 30
0.0
  0
SPLINE
  5
47
330
1F
100
AcDbEntity
  8
LAYER_1
 62
     7
100
AcDbSpline
210
0.0
220
0.0
230
1.0
 70
    11
 71
     3
 72
    17
 73
    13
 74
     0
 42
0.0000000001
 43
0.0000000001
 40
0.0
 40
0.0
 40
0.0
 40
0.0
 40
1.0
 40
1.0
 40
1.0
 40
2.0
 40
2.0
 40
2.0
 40
3.0
 40
3.0
 40
3.0
 40
4.0
 40
4.0
 40
4.0
 40
4.0
 10
52.59644502808353
 20
16.31579996336897
 30
0.0
 10
52.59644502808353
 20
13.83016357076121
 30
0.0
 10
50.58037515011532
 20
11.81478271189006
 30
0.0
 10
48.09646130525019
 20
11.81478271189006
 30
0.0
 10
45.61116942219096
 20
11.81478271189006
 30
0.0
 10
43.59647758241685
 20
13.83016357076121
 30
0.0
 10
43.59647758241685
 20
16.31579996336897
 30
0.0
 10
43.59647758241685
 20
18.80178086552525
 30
0.0
 10
45.61116942219096
 20
20.81681721484788
 30
0.0
 10
48.09646130525019
 20
20.81681721484788
 30
0.0
 10
50.58037515011532
 20
20.81681721484788
 30
0.0
 10
52.59644502808353
 20
18.80178086552525
 30
0.0
 10
52.59644502808353
 20
16.31579996336897
 30
0.0
  0
SPLINE
  5
48
330
1F
100
AcDbEntity
  8
LAYER_1
 62
     7
100
AcDbSpline
210
0.0
220
0.0
230
1.0
 70
    11
 71
     3
 72
    17
 73
    13
 74
     0
 42
0.0000000001
 43
0.0000000001
 40
0.0
 40
0.0
 40
0.0
 40
0.0
 40
1.0
 40
1.0
 40
1.0
 40
2.0
 40
2.0
 40
2.0
 40
3.0
 40
3.0
 40
3.0
 40
4.0
 40
4.0
 40
4.0
 40
4.0
 10
47.01228975604207
 20
33.0703328367845
 30
0.0
 10
47.01228975604207
 20
25.89075384552384
 30
0.0
 10
41.19180093371247
 20
20.0704372779685
 30
0.0
 10
34.01222194245181
 20
20.0704372779685
 30
0.0
 10
26.83247069641688
 20
20.0704372779685
 30
0.0
 10
21.01215412886155
 20
25.89075384552384
 30
0.0
 10
21.01215412886155
 20
33.0703328367845
 30
0.0
 10
21.01215412886155
 20
40.25008408281943
 30
0.0
 10
26.83247069641688
 20
46.07040065037476
 30
0.0
 10
34.01222194245181
 20
46.07040065037476
 30
0.0
 10
41.19180093371247
 20
46.07040065037476
 30
0.0
 10
47.01228975604207
 20
40.25008408281943
 30
0.0
 10
47.01228975604207
 20
33.0703328367845
 30
0.0
  0
SPLINE
  5
49
330
1F
100
AcDbEntity
  8
LAYER_1
 62
     7
100
AcDbSpline
210
0.0
220
0.0
230
1.0
 70
    11
 71
     3
 72
    92
 73
    88
 74
     0
 42
0.0000000001
 43
0.0000000001
 40
0.0
 40
0.0
 40
0.0
 40
0.0
 40
1.0
 40
1.0
 40
1.0
 40
2.0
 40
2.0
 40
2.0
 40
3.0
 40
3.0
 40
3.0
 40
4.0
 40
4.0
 40
4.0
 40
5.0
 40
5.0
 40
5.0
 40
6.0
 40
6.0
 40
6.0
 40
7.0
 40
7.0
 40
7.0
 40
8.0
 40
8.0
 40
8.0
 40
9.0
 40
9.0
 40
9.0
 40
10.0
 40
10.0
 40
10.0
 40
11.0
 40
11.0
 40
11.0
 40
12.0
 40
12.0
 40
12.0
 40
13.0
 40
13.0
 40
13.0
 40
14.0
 40
14.0
 40
14.0
 40
15.0
 40
15.0
 40
15.0
 40
16.0
 40
16.0
 40
16.0
 40
17.0
 40
17.0
 40
17.0
 40
18.0
 40
18.0
 40
18.0
 40
19.0
 40
19.0
 40
19.0
 40
20.0
 40
20.0
 40
20.0
 40
21.0
 40
21.0
 40
21.0
 40
22.0
 40
22.0
 40
22.0
 40
23.0
 40
23.0
 40
23.0
 40
24.0
 40
24.0
 40
24.0
 40
25.0
 40
25.0
 40
25.0
 40
26.0
 40
26.0
 40
26.0
 40
27.0
 40
27.0
 40
27.0
 40
28.0
 40
28.0
 40
28.0
 40
29.0
 40
29.0
 40
29.0
 40
29.0
 10
62.11455483473178
 20
30.36627739041191
 30
0.0
 10
62.11455483473178
 20
30.36627739041191
 30
0.0
 10
52.01215683378516
 20
30.36627739041191
 30
0.0
 10
52.01215683378516
 20
30.36627739041191
 30
0.0
 10
52.01215683378516
 20
30.36627739041191
 30
0.0
 10
52.01215683378516
 20
33.0703328367845
 30
0.0
 10
52.01215683378516
 20
33.0703328367845
 30
0.0
 10
52.01215683378516
 20
43.01132811424717
 30
0.0
 10
43.95338947468874
 20
51.07026772811786
 30
0.0
 10
34.01222194245181
 20
51.07026772811786
 30
0.0
 10
24.07122666498914
 20
51.07026772811786
 30
0.0
 10
16.01228705111846
 20
43.01132811424717
 30
0.0
 10
16.01228705111846
 20
33.0703328367845
 30
0.0
 10
16.01228705111846
 20
33.0703328367845
 30
0.0
 10
16.01228705111846
 20
30.36627739041191
 30
0.0
 10
16.01228705111846
 20
30.36627739041191
 30
0.0
 10
16.01228705111846
 20
30.36627739041191
 30
0.0
 10
6.059578449005939
 20
30.36627739041191
 30
0.0
 10
6.059578449005939
 20
30.36627739041191
 30
0.0
 10
3.859712726899655
 20
30.36627739041191
 30
0.0
 10
2.059650335856615
 20
29.07540011208879
 30
0.0
 10
2.059650335856615
 20
27.49771863461863
 30
0.0
 10
2.059650335856615
 20
25.9198649023742
 30
0.0
 10
2.059650335856615
 20
22.82892523300805
 30
0.0
 10
2.059650335856615
 20
20.62905951090177
 30
0.0
 10
2.059650335856615
 20
20.62905951090177
 30
0.0
 10
2.059650335856615
 20
11.28561604535568
 30
0.0
 10
2.059650335856615
 20
11.28561604535568
 30
0.0
 10
2.059650335856615
 20
9.085750323249396
 30
0.0
 10
2.059650335856615
 20
6.086277939016625
 30
0.0
 10
2.059650335856615
 20
4.62038981004282
 30
0.0
 10
2.059650335856615
 20
3.154501681069013
 30
0.0
 10
3.859712726899655
 20
1.955091687879283
 30
0.0
 10
6.059578449005939
 20
1.955091687879283
 30
0.0
 10
6.059578449005939
 20
1.955091687879283
 30
0.0
 10
6.077665200303501
 20
1.955091687879283
 30
0.0
 10
6.077665200303501
 20
1.955091687879283
 30
0.0
 10
8.277530922409785
 20
1.955091687879283
 30
0.0
 10
10.07759331345282
 20
3.163803438879188
 30
0.0
 10
10.07759331345282
 20
4.641232637728581
 30
0.0
 10
10.07759331345282
 20
6.118661836577973
 30
0.0
 10
11.87765570449587
 20
7.327373587577879
 30
0.0
 10
14.07752142660215
 20
7.327373587577879
 30
0.0
 10
14.07752142660215
 20
7.327373587577879
 30
0.0
 10
26.07782253037291
 20
7.327373587577879
 30
0.0
 10
26.07782253037291
 20
7.327373587577879
 30
0.0
 10
28.27768825247919
 20
7.327373587577879
 30
0.0
 10
30.07775064352223
 20
6.118661836577973
 30
0.0
 10
30.07775064352223
 20
4.641232637728581
 30
0.0
 10
30.07775064352223
 20
3.163803438879188
 30
0.0
 10
31.87781303456527
 20
1.955091687879283
 30
0.0
 10
34.07767875667155
 20
1.955091687879283
 30
0.0
 10
34.07767875667155
 20
1.955091687879283
 30
0.0
 10
34.09593776274338
 20
1.955091687879283
 30
0.0
 10
34.09593776274338
 20
1.955091687879283
 30
0.0
 10
36.29597573962393
 20
1.955091687879283
 30
0.0
 10
38.09603813066696
 20
3.145199923258839
 30
0.0
 10
38.09603813066696
 20
4.599546982357058
 30
0.0
 10
38.09603813066696
 20
6.054066296229539
 30
0.0
 10
39.89610052171
 20
7.244174531609096
 30
0.0
 10
42.09613849859055
 20
7.244174531609096
 30
0.0
 10
42.09613849859055
 20
7.244174531609096
 30
0.0
 10
54.09609509281278
 20
7.244174531609096
 30
0.0
 10
54.09609509281278
 20
7.244174531609096
 30
0.0
 10
56.29613306969333
 20
7.244174531609096
 30
0.0
 10
58.09619546073637
 20
6.054066296229539
 30
0.0
 10
58.09619546073637
 20
4.599546982357058
 30
0.0
 10
58.09619546073637
 20
3.145199923258839
 30
0.0
 10
59.89625785177941
 20
1.955091687879283
 30
0.0
 10
62.09629582865995
 20
1.955091687879283
 30
0.0
 10
62.09629582865995
 20
1.955091687879283
 30
0.0
 10
62.11455483473178
 20
1.955091687879283
 30
0.0
 10
62.11455483473178
 20
1.955091687879283
 30
0.0
 10
64.31459281161233
 20
1.955091687879283
 30
0.0
 10
66.11465520265537
 20
3.163803438879188
 30
0.0
 10
66.11465520265537
 20
4.641232637728581
 30
0.0
 10
66.11465520265537
 20
6.118661836577973
 30
0.0
 10
66.11465520265537
 20
9.12743597862092
 30
0.0
 10
66.11465520265537
 20
11.3273017007272
 30
0.0
 10
66.11465520265537
 20
11.3273017007272
 30
0.0
 10
66.11465520265537
 20
20.67074516627329
 30
0.0
 10
66.11465520265537
 20
20.67074516627329
 30
0.0
 10
66.11465520265537
 20
22.87061088837957
 30
0.0
 10
66.11465520265537
 20
25.95224879993555
 30
0.0
 10
66.11465520265537
 20
27.51838920753013
 30
0.0
 10
66.11465520265537
 20
29.08470186989896
 30
0.0
 10
64.31459281161233
 20
30.36627739041191
 30
0.0
 10
62.11455483473178
 20
30.36627739041191
 30
0.0
  0
SPLINE
  5
4A
330
1F
100
AcDbEntity
  8
LAYER_1
 62
     7
100
AcDbSpline
210
0.0
220
0.0
230
1.0
 70
    11
 71
     3
 72
    26
 73
    22
 74
     0
 42
0.0000000001
 43
0.0000000001
 40
0.0
 40
0.0
 40
0.0
 40
0.0
 40
1.0
 40
1.0
 40
1.0
 40
2.0
 40
2.0
 40
2.0
 40
3.0
 40
3.0
 40
3.0
 40
4.0
 40
4.0
 40
4.0
 40
5.0
 40
5.0
 40
5.0
 40
6.0
 40
6.0
 40
6.0
 40
7.0
 40
7.0
 40
7.0
 40
7.0
 10
52.00113252823236
 20
32.63194443628646
 30
0.0
 10
51.76755505433242
 20
22.89438204722779
 30
0.0
 10
43.80628389746857
 20
15.07057020022541
 30
0.0
 10
34.01222194245181
 20
15.07057020022541
 30
0.0
 10
24.21833224220931
 20
15.07057020022541
 30
0.0
 10
16.2568888305712
 20
22.89438204722779
 30
0.0
 10
16.02331135667126
 20
32.63194443628646
 30
0.0
 10
16.02331135667126
 20
32.63194443628646
 30
0.0
 10
0.0
 20
32.63194443628646
 30
0.0
 10
0.0
 20
32.63194443628646
 30
0.0
 10
0.0
 20
32.63194443628646
 30
0.0
 10
0.0
 20
0.0
 30
0.0
 10
0.0
 20
0.0
 30
0.0
 10
0.0
 20
0.0
 30
0.0
 10
68.17447779328624
 20
0.0
 30
0.0
 10
68.17447779328624
 20
0.0
 30
0.0
 10
68.17447779328624
 20
0.0
 30
0.0
 10
68.17447779328624
 20
32.63194443628646
 30
0.0
 10
68.17447779328624
 20
32.63194443628646
 30
0.0
 10
68.17447779328624
 20
32.63194443628646
 30
0.0
 10
52.00113252823236
 20
32.63194443628646
 30
0.0
 10
52.00113252823236
 20
32.63194443628646
 30
0.0
  0
ENDSEC
  0
SECTION
  2
OBJECTS
  0
DICTIONARY
  5
C
330
0
100
AcDbDictionary
  3
ACAD_GROUP
350
D
  3
ACAD_LAYOUT
350
1A
  3
ACAD_MLINESTYLE
350
17
  3
ACAD_PLOTSETTINGS
350
19
  3
ACAD_TABLESTYLE
350
4B
  3
ACAD_VISUALSTYLE
350
2A
1001
ACAD
1000
TREAT_AS_HARD
1070
     0
  0
DICTIONARY
  5
D
102
{ACAD_REACTORS
330
C
102
}
330
C
100
AcDbDictionary
1001
ACAD
1000
TREAT_AS_HARD
1070
     0
  0
DICTIONARY
  5
1A
102
{ACAD_REACTORS
330
C
102
}
330
C
100
AcDbDictionary
1001
ACAD
1000
TREAT_AS_HARD
1070
     0
  0
DICTIONARY
  5
17
102
{ACAD_REACTORS
330
C
102
}
330
C
100
AcDbDictionary
  3
STANDARD
350
18
1001
ACAD
1000
TREAT_AS_HARD
1070
     0
  0
DICTIONARY
  5
19
102
{ACAD_REACTORS
330
C
102
}
330
C
100
AcDbDictionary
1001
ACAD
1000
TREAT_AS_HARD
1070
     0
  0
DICTIONARY
  5
4B
102
{ACAD_REACTORS
330
C
102
}
330
C
100
AcDbDictionary
1001
ACAD
1000
TREAT_AS_HARD
1070
     0
  0
DICTIONARY
  5
2A
102
{ACAD_REACTORS
330
C
102
}
330
C
100
AcDbDictionary
  3
2DWIREFRAME
350
2F
  3
3D_HIDDEN
350
31
  3
3DWIREFRAME
350
30
  3
BASIC
350
32
  3
BRIGHTEN
350
36
  3
COLORCHANGE
350
3A
  3
CONCEPTUAL
350
34
  3
DIM
350
35
  3
FACEPATTERN
350
39
  3
FLAT
350
2B
  3
FLATWITHEDGES
350
2C
  3
GOURAUD
350
2D
  3
GOURAUDWITHEDGES
350
2E
  3
LINEPATTERN
350
38
  3
REALISTIC
350
33
  3
THICKEN
350
37
1001
ACAD
1000
TREAT_AS_HARD
1070
     0
  0
MLINESTYLE
  5
18
102
{ACAD_REACTORS
330
17
102
}
330
17
100
AcDbMlineStyle
  2
Standard
 70
     0
  3

 62
   256
 51
90.0
 52
90.0
 71
     2
 49
0.5
 62
   256
  6
BYLAYER
 49
-0.5
 62
   256
  6
BYLAYER
  0
VISUALSTYLE
  5
2F
102
{ACAD_REACTORS
330
2A
102
}
330
2A
100
AcDbVisualStyle
  2
2dWireframe
 70
     4
 71
     0
 72
     2
 73
     0
 90
        0
 40
-0.6
 41
-30.0
 62
     5
 63
     7
 74
     1
 91
        4
 64
     7
 65
   257
 75
     1
175
     1
 42
1.0
 92
        0
 66
   257
 43
1.0
 76
     1
 77
     6
 78
     2
 67
     7
 79
     5
170
     0
171
     0
290
     0
174
     0
 93
        1
 44
0.0
173
     0
291
     0
 45
0.0
1001
ACAD
1000
AcDbSavedByObjectVersion
1070
     0
  0
VISUALSTYLE
  5
31
102
{ACAD_REACTORS
330
2A
102
}
330
2A
100
AcDbVisualStyle
  2
3D Hidden
 70
     6
 71
     1
 72
     2
 73
     2
 90
        0
 40
-0.6
 41
-30.0
 62
     5
 63
     7
 74
     2
 91
        2
 64
     7
 65
   257
 75
     2
175
     1
 42
40.0
 92
        0
 66
   257
 43
1.0
 76
     1
 77
     6
 78
     2
 67
     7
 79
     3
170
     0
171
     0
290
     0
174
     0
 93
        1
 44
0.0
173
     0
291
     0
 45
0.0
1001
ACAD
1000
AcDbSavedByObjectVersion
1070
     0
  0
VISUALSTYLE
  5
30
102
{ACAD_REACTORS
330
2A
102
}
330
2A
100
AcDbVisualStyle
  2
3dWireframe
 70
     5
 71
     0
 72
     2
 73
     0
 90
        0
 40
-0.6
 41
-30.0
 62
     5
 63
     7
 74
     1
 91
        4
 64
     7
 65
   257
 75
     1
175
     1
 42
1.0
 92
        0
 66
   257
 43
1.0
 76
     1
 77
     6
 78
     2
 67
     7
 79
     5
170
     0
171
     0
290
     0
174
     0
 93
        1
 44
0.0
173
     0
291
     0
 45
0.0
1001
ACAD
1000
AcDbSavedByObjectVersion
1070
     0
  0
VISUALSTYLE
  5
32
102
{ACAD_REACTORS
330
2A
102
}
330
2A
100
AcDbVisualStyle
  2
Basic
 70
     7
 71
     1
 72
     0
 73
     1
 90
        0
 40
-0.6
 41
-30.0
 62
     5
 63
     7
 74
     0
 91
        4
 64
     7
 65
   257
 75
     1
175
     1
 42
1.0
 92
        8
 66
     7
 43
1.0
 76
     1
 77
     6
 78
     2
 67
     7
 79
     5
170
     0
171
     0
290
     0
174
     0
 93
        1
 44
0.0
173
     0
291
     1
 45
0.0
1001
ACAD
1000
AcDbSavedByObjectVersion
1070
     0
  0
VISUALSTYLE
  5
36
102
{ACAD_REACTORS
330
2A
102
}
330
2A
100
AcDbVisualStyle
  2
Brighten
 70
    12
 71
     2
 72
     2
 73
     0
 90
        0
 40
-0.6
 41
-30.0
 62
     5
 63
     7
 74
     1
 91
        4
 64
     7
 65
   257
 75
     1
175
     1
 42
1.0
 92
        8
 66
     7
 43
1.0
 76
     1
 77
     6
 78
     2
 67
     7
 79
     5
170
     0
171
     0
290
     0
174
     0
 93
        1
 44
50.0
173
     0
291
     1
 45
0.0
1001
ACAD
1000
AcDbSavedByObjectVersion
1070
     0
  0
VISUALSTYLE
  5
3A
102
{ACAD_REACTORS
330
2A
102
}
330
2A
100
AcDbVisualStyle
  2
ColorChange
 70
    16
 71
     2
 72
     2
 73
     3
 90
        0
 40
-0.6
 41
-30.0
 62
     5
 63
     8
 74
     1
 91
        4
 64
     7
 65
   257
 75
     1
175
     1
 42
1.0
 92
        8
 66
     8
 43
1.0
 76
     1
 77
     6
 78
     2
 67
     7
 79
     5
170
     0
171
     0
290
     0
174
     0
 93
        1
 44
0.0
173
     0
291
     1
 45
0.0
1001
ACAD
1000
AcDbSavedByObjectVersion
1070
     0
  0
VISUALSTYLE
  5
34
102
{ACAD_REACTORS
330
2A
102
}
330
2A
100
AcDbVisualStyle
  2
Conceptual
 70
     9
 71
     3
 72
     2
 73
     0
 90
        0
 40
-0.6
 41
-30.0
 62
     5
 63
     7
 74
     2
 91
        2
 64
     7
 65
   257
 75
     1
175
     1
 42
40.0
 92
        8
 66
     7
 43
1.0
 76
     1
 77
     6
 78
     2
 67
     7
 79
     3
170
     0
171
     0
290
     0
174
     0
 93
        1
 44
0.0
173
     0
291
     0
 45
0.0
1001
ACAD
1000
AcDbSavedByObjectVersion
1070
     0
  0
VISUALSTYLE
  5
35
102
{ACAD_REACTORS
330
2A
102
}
330
2A
100
AcDbVisualStyle
  2
Dim
 70
    11
 71
     2
 72
     2
 73
     0
 90
        0
 40
-0.6
 41
-30.0
 62
     5
 63
     7
 74
     1
 91
        4
 64
     7
 65
   257
 75
     1
175
     1
 42
1.0
 92
        8
 66
     7
 43
1.0
 76
     1
 77
     6
 78
     2
 67
     7
 79
     5
170
     0
171
     0
290
     0
174
     0
 93
        1
 44
-50.0
173
     0
291
     1
 45
0.0
1001
ACAD
1000
AcDbSavedByObjectVersion
1070
     0
  0
VISUALSTYLE
  5
39
102
{ACAD_REACTORS
330
2A
102
}
330
2A
100
AcDbVisualStyle
  2
Facepattern
 70
    15
 71
     2
 72
     2
 73
     0
 90
        0
 40
-0.6
 41
-30.0
 62
     5
 63
     7
 74
     1
 91
        4
 64
     7
 65
   257
 75
     1
175
     1
 42
1.0
 92
        8
 66
     7
 43
1.0
 76
     1
 77
     6
 78
     2
 67
     7
 79
     5
170
     0
171
     0
290
     0
174
     0
 93
        1
 44
0.0
173
     0
291
     1
 45
0.0
1001
ACAD
1000
AcDbSavedByObjectVersion
1070
     0
  0
VISUALSTYLE
  5
2B
102
{ACAD_REACTORS
330
2A
102
}
330
2A
100
AcDbVisualStyle
  2
Flat
 70
     0
 71
     2
 72
     1
 73
     1
 90
        2
 40
-0.6
 41
30.0
 62
     5
 63
     7
 74
     0
 91
        4
 64
     7
 65
   257
 75
     1
175
     1
 42
1.0
 92
        8
 66
     7
 43
1.0
 76
     1
 77
     6
 78
     2
 67
     7
 79
     5
170
     0
171
     0
290
     0
174
     0
 93
       13
 44
0.0
173
     0
291
     1
 45
0.0
1001
ACAD
1000
AcDbSavedByObjectVersion
1070
     0
  0
VISUALSTYLE
  5
2C
102
{ACAD_REACTORS
330
2A
102
}
330
2A
100
AcDbVisualStyle
  2
FlatWithEdges
 70
     1
 71
     2
 72
     1
 73
     1
 90
        2
 40
-0.6
 41
30.0
 62
     5
 63
     7
 74
     1
 91
        4
 64
     7
 65
   257
 75
     1
175
     1
 42
1.0
 92
        0
 66
   257
 43
1.0
 76
     1
 77
     6
 78
     2
 67
     7
 79
     5
170
     0
171
     0
290
     0
174
     0
 93
       13
 44
0.0
173
     0
291
     1
 45
0.0
1001
ACAD
1000
AcDbSavedByObjectVersion
1070
     0
  0
VISUALSTYLE
  5
2D
102
{ACAD_REACTORS
330
2A
102
}
330
2A
100
AcDbVisualStyle
  2
Gouraud
 70
     2
 71
     2
 72
     2
 73
     1
 90
        2
 40
-0.6
 41
30.0
 62
     5
 63
     7
 74
     0
 91
        4
 64
     7
 65
   257
 75
     1
175
     1
 42
1.0
 92
        0
 66
     7
 43
1.0
 76
     1
 77
     6
 78
     2
 67
     7
 79
     5
170
     0
171
     0
290
     0
174
     0
 93
       13
 44
0.0
173
     0
291
     1
 45
0.0
1001
ACAD
1000
AcDbSavedByObjectVersion
1070
     0
  0
VISUALSTYLE
  5
2E
102
{ACAD_REACTORS
330
2A
102
}
330
2A
100
AcDbVisualStyle
  2
GouraudWithEdges
 70
     3
 71
     2
 72
     2
 73
     1
 90
        2
 40
-0.6
 41
30.0
 62
     5
 63
     7
 74
     1
 91
        4
 64
     7
 65
   257
 75
     1
175
     1
 42
1.0
 92
        0
 66
   257
 43
1.0
 76
     1
 77
     6
 78
     2
 67
     7
 79
     5
170
     0
171
     0
290
     0
174
     0
 93
       13
 44
0.0
173
     0
291
     1
 45
0.0
1001
ACAD
1000
AcDbSavedByObjectVersion
1070
     0
  0
VISUALSTYLE
  5
38
102
{ACAD_REACTORS
330
2A
102
}
330
2A
100
AcDbVisualStyle
  2
Linepattern
 70
    14
 71
     2
 72
     2
 73
     0
 90
        0
 40
-0.6
 41
-30.0
 62
     5
 63
     7
 74
     1
 91
        4
 64
     7
 65
   257
 75
     7
175
     7
 42
1.0
 92
        8
 66
     7
 43
1.0
 76
     1
 77
     6
 78
     2
 67
     7
 79
     5
170
     0
171
     0
290
     0
174
     0
 93
        1
 44
0.0
173
     0
291
     1
 45
0.0
1001
ACAD
1000
AcDbSavedByObjectVersion
1070
     0
  0
VISUALSTYLE
  5
33
102
{ACAD_REACTORS
330
2A
102
}
330
2A
100
AcDbVisualStyle
  2
Realistic
 70
     8
 71
     2
 72
     2
 73
     0
 90
        0
 40
-0.6
 41
-30.0
 62
     5
 63
     7
 74
     1
 91
        0
 64
     7
 65
   257
 75
     1
175
     1
 42
1.0
 92
        8
 66
     8
 43
1.0
 76
     1
 77
     6
 78
     2
 67
     7
 79
     5
170
     0
171
     0
290
     0
174
     0
 93
       13
 44
0.0
173
     0
291
     0
 45
0.0
1001
ACAD
1000
AcDbSavedByObjectVersion
1070
     0
  0
VISUALSTYLE
  5
37
102
{ACAD_REACTORS
330
2A
102
}
330
2A
100
AcDbVisualStyle
  2
Thicken
 70
    13
 71
     2
 72
     2
 73
     0
 90
        0
 40
-0.6
 41
-30.0
 62
     5
 63
     7
 74
     1
 91
        4
 64
     7
 65
   257
 75
     1
175
     1
 42
1.0
 92
       12
 66
     7
 43
1.0
 76
     1
 77
     6
 78
     2
 67
     7
 79
     5
170
     0
171
     0
290
     0
174
     0
 93
        1
 44
0.0
173
     0
291
     1
 45
0.0
1001
ACAD
1000
AcDbSavedByObjectVersion
1070
     0
  0
ENDSEC
  0
EOF
