  0
SECTION
  2
HEADER
  9
$ACADVER
  1
AC1012
  9
$DWGCODEPAGE
  3
ansi_1252
  9
$INSBASE
 10
0.0
 20
0.0
 30
0.0
  9
$EXTMIN
 10
1.000000000000000E+20
 20
1.000000000000000E+20
 30
1.000000000000000E+20
  9
$EXTMAX
 10
-1.000000000000000E+20
 20
-1.000000000000000E+20
 30
-1.000000000000000E+20
  9
$LIMMIN
 10
0.0
 20
0.0
  9
$LIMMAX
 10
12.0
 20
9.0
  9
$ORTHOMODE
 70
     0
  9
$REGENMODE
 70
     1
  9
$FILLMODE
 70
     1
  9
$QTEXTMODE
 70
     0
  9
$MIRRTEXT
 70
     1
  9
$DRAGMODE
 70
     2
  9
$LTSCALE
 40
1.0
  9
$OSMODE
 70
    37
  9
$ATTMODE
 70
     1
  9
$TEXTSIZE
 40
0.2
  9
$TRACEWID
 40
0.05
  9
$TEXTSTYLE
  7
STANDARD
  9
$CLAYER
  8
0
  9
$CELTYPE
  6
BYLAYER
  9
$CECOLOR
 62
   256
  9
$CELTSCALE
 40
1.0
  9
$DELOBJ
 70
     1
  9
$DISPSILH
 70
     0
  9
$DIMSCALE
 40
1.0
  9
$DIMASZ
 40
0.18
  9
$DIMEXO
 40
0.0625
  9
$DIMDLI
 40
0.38
  9
$DIMRND
 40
0.0
  9
$DIMDLE
 40
0.0
  9
$DIMEXE
 40
0.18
  9
$DIMTP
 40
0.0
  9
$DIMTM
 40
0.0
  9
$DIMTXT
 40
0.18
  9
$DIMCEN
 40
0.09
  9
$DIMTSZ
 40
0.0
  9
$DIMTOL
 70
     0
  9
$DIMLIM
 70
     0
  9
$DIMTIH
 70
     1
  9
$DIMTOH
 70
     1
  9
$DIMSE1
 70
     0
  9
$DIMSE2
 70
     0
  9
$DIMTAD
 70
     0
  9
$DIMZIN
 70
     0
  9
$DIMBLK
  1

  9
$DIMASO
 70
     1
  9
$DIMSHO
 70
     1
  9
$DIMPOST
  1

  9
$DIMAPOST
  1

  9
$DIMALT
 70
     0
  9
$DIMALTD
 70
     2
  9
$DIMALTF
 40
25.4
  9
$DIMLFAC
 40
1.0
  9
$DIMTOFL
 70
     0
  9
$DIMTVP
 40
0.0
  9
$DIMTIX
 70
     0
  9
$DIMSOXD
 70
     0
  9
$DIMSAH
 70
     0
  9
$DIMBLK1
  1

  9
$DIMBLK2
  1

  9
$DIMSTYLE
  2
STANDARD
  9
$DIMCLRD
 70
     0
  9
$DIMCLRE
 70
     0
  9
$DIMCLRT
 70
     0
  9
$DIMTFAC
 40
1.0
  9
$DIMGAP
 40
0.09
  9
$DIMJUST
 70
     0
  9
$DIMSD1
 70
     0
  9
$DIMSD2
 70
     0
  9
$DIMTOLJ
 70
     1
  9
$DIMTZIN
 70
     0
  9
$DIMALTZ
 70
     0
  9
$DIMALTTZ
 70
     0
  9
$DIMFIT
 70
     3
  9
$DIMUPT
 70
     0
  9
$DIMUNIT
 70
     2
  9
$DIMDEC
 70
     4
  9
$DIMTDEC
 70
     4
  9
$DIMALTU
 70
     2
  9
$DIMALTTD
 70
     2
  9
$DIMTXSTY
  7
STANDARD
  9
$DIMAUNIT
 70
     0
  9
$LUNITS
 70
     2
  9
$LUPREC
 70
     4
  9
$SKETCHINC
 40
0.1
  9
$FILLETRAD
 40
0.5
  9
$AUNITS
 70
     0
  9
$AUPREC
 70
     0
  9
$MENU
  1
.
  9
$ELEVATION
 40
0.0
  9
$PELEVATION
 40
0.0
  9
$THICKNESS
 40
0.0
  9
$LIMCHECK
 70
     0
  9
$CHAMFERA
 40
0.5
  9
$CHAMFERB
 40
0.5
  9
$CHAMFERC
 40
1.0
  9
$CHAMFERD
 40
0.0
  9
$SKPOLY
 70
     0
  9
$TDCREATE
 40
2456600.655406597
  9
$TDUPDATE
 40
2456600.655406609
  9
$TDINDWG
 40
0.0000000116
  9
$TDUSRTIMER
 40
0.0000000116
  9
$USRTIMER
 70
     1
  9
$ANGBASE
 50
0.0
  9
$ANGDIR
 70
     0
  9
$PDMODE
 70
     0
  9
$PDSIZE
 40
0.0
  9
$PLINEWID
 40
0.0
  9
$COORDS
 70
     1
  9
$SPLFRAME
 70
     0
  9
$SPLINETYPE
 70
     6
  9
$SPLINESEGS
 70
     8
  9
$ATTDIA
 70
     0
  9
$ATTREQ
 70
     1
  9
$HANDLING
 70
     1
  9
$HANDSEED
  5
5D
  9
$SURFTAB1
 70
     6
  9
$SURFTAB2
 70
     6
  9
$SURFTYPE
 70
     6
  9
$SURFU
 70
     6
  9
$SURFV
 70
     6
  9
$UCSNAME
  2

  9
$UCSORG
 10
0.0
 20
0.0
 30
0.0
  9
$UCSXDIR
 10
1.0
 20
0.0
 30
0.0
  9
$UCSYDIR
 10
0.0
 20
1.0
 30
0.0
  9
$PUCSNAME
  2

  9
$PUCSORG
 10
0.0
 20
0.0
 30
0.0
  9
$PUCSXDIR
 10
1.0
 20
0.0
 30
0.0
  9
$PUCSYDIR
 10
0.0
 20
1.0
 30
0.0
  9
$USERI1
 70
     0
  9
$USERI2
 70
     0
  9
$USERI3
 70
     0
  9
$USERI4
 70
     0
  9
$USERI5
 70
     0
  9
$USERR1
 40
0.0
  9
$USERR2
 40
0.0
  9
$USERR3
 40
0.0
  9
$USERR4
 40
0.0
  9
$USERR5
 40
0.0
  9
$WORLDVIEW
 70
     1
  9
$SHADEDGE
 70
     3
  9
$SHADEDIF
 70
    70
  9
$TILEMODE
 70
     1
  9
$MAXACTVP
 70
    64
  9
$PINSBASE
 10
0.0
 20
0.0
 30
0.0
  9
$PLIMCHECK
 70
     0
  9
$PEXTMIN
 10
1.000000000000000E+20
 20
1.000000000000000E+20
 30
1.000000000000000E+20
  9
$PEXTMAX
 10
-1.000000000000000E+20
 20
-1.000000000000000E+20
 30
-1.000000000000000E+20
  9
$PLIMMIN
 10
0.0
 20
0.0
  9
$PLIMMAX
 10
12.0
 20
9.0
  9
$UNITMODE
 70
     0
  9
$VISRETAIN
 70
     1
  9
$PLINEGEN
 70
     0
  9
$PSLTSCALE
 70
     1
  9
$TREEDEPTH
 70
  3020
  9
$PICKSTYLE
 70
     1
  9
$CMLSTYLE
  2
STANDARD
  9
$CMLJUST
 70
     0
  9
$CMLSCALE
 40
1.0
  9
$SAVEIMAGES
 70
     1
  0
ENDSEC
  0
SECTION
  2
CLASSES
  0
CLASS
  1
ACDBDICTIONARYWDFLT
  2
AcDbDictionaryWithDefault
  3
ObjectDBX Classes
 90
    32768
280
     0
281
     0
  0
CLASS
  1
VISUALSTYLE
  2
AcDbVisualStyle
  3
ObjectDBX Classes
 90
     4095
280
     0
281
     0
  0
CLASS
  1
XRECORD
  2
AcDbXrecord
  3
AutoCAD 2000
 90
    32768
280
     0
281
     0
  0
CLASS
  1
LWPOLYLINE
  2
AcDbPolyline
  3
AutoCAD 2000
 90
    32768
280
     0
281
     1
  0
CLASS
  1
HATCH
  2
AcDbHatch
  3
AutoCAD 2000
 90
    32768
280
     0
281
     1
  0
CLASS
  1
ACDBPLACEHOLDER
  2
AcDbPlaceHolder
  3
ObjectDBX Classes
 90
        0
280
     0
281
     0
  0
CLASS
  1
LAYOUT
  2
AcDbLayout
  3
ObjectDBX Classes
 90
        0
280
     0
281
     0
  0
ENDSEC
  0
SECTION
  2
TABLES
  0
TABLE
  2
VPORT
  5
8
330
0
100
AcDbSymbolTable
 70
     1
  0
VPORT
  5
29
330
8
100
AcDbSymbolTableRecord
100
AcDbViewportTableRecord
  2
*ACTIVE
 70
     0
 10
0.0
 20
0.0
 11
1.0
 21
1.0
 12
0.0
 22
0.0
 13
0.0
 23
0.0
 14
0.5
 24
0.5
 15
0.5
 25
0.5
 16
0.0
 26
0.0
 36
1.0
 17
105.0008259828644
 27
-148.4999796178229
 37
0.0
 40
296.9999592356459
 41
0.7070763662937379
 42
50.0
 43
0.0
 44
0.0
 50
0.0
 51
0.0
 71
     0
 72
   100
 73
     1
 74
     3
 75
     0
 76
     0
 77
     0
 78
     0
  0
ENDTAB
  0
TABLE
  2
LTYPE
  5
5
330
0
100
AcDbSymbolTable
 70
     1
  0
LTYPE
  5
14
330
5
100
AcDbSymbolTableRecord
100
AcDbLinetypeTableRecord
  2
BYBLOCK
 70
     0
  3

 72
    65
 73
     0
 40
0.0
  0
LTYPE
  5
15
330
5
100
AcDbSymbolTableRecord
100
AcDbLinetypeTableRecord
  2
BYLAYER
 70
     0
  3

 72
    65
 73
     0
 40
0.0
  0
LTYPE
  5
16
330
5
100
AcDbSymbolTableRecord
100
AcDbLinetypeTableRecord
  2
CONTINUOUS
 70
     0
  3
Solid line
 72
    65
 73
     0
 40
0.0
  0
ENDTAB
  0
TABLE
  2
LAYER
  5
2
330
0
100
AcDbSymbolTable
 70
     2
  0
LAYER
  5
10
330
2
100
AcDbSymbolTableRecord
100
AcDbLayerTableRecord
  2
0
 70
     0
 62
     7
  6
CONTINUOUS
  0
LAYER
  5
3B
330
2
100
AcDbSymbolTableRecord
100
AcDbLayerTableRecord
  2
LAYER_1
 70
     0
 62
     7
  6
CONTINUOUS
  0
ENDTAB
  0
TABLE
  2
STYLE
  5
3
330
0
100
AcDbSymbolTable
 70
     1
  0
STYLE
  5
11
330
3
100
AcDbSymbolTableRecord
100
AcDbTextStyleTableRecord
  2
STANDARD
 70
     0
 40
0.0
 41
1.0
 50
0.0
 71
     0
 42
0.2
  3
txt
  4

  0
ENDTAB
  0
TABLE
  2
VIEW
  5
6
330
0
100
AcDbSymbolTable
 70
     0
  0
ENDTAB
  0
TABLE
  2
UCS
  5
7
330
0
100
AcDbSymbolTable
 70
     0
  0
ENDTAB
  0
TABLE
  2
APPID
  5
9
330
0
100
AcDbSymbolTable
 70
     1
  0
APPID
  5
12
330
9
100
AcDbSymbolTableRecord
100
AcDbRegAppTableRecord
  2
ACAD
 70
     0
  0
ENDTAB
  0
TABLE
  2
DIMSTYLE
  5
A
330
0
100
AcDbSymbolTable
 70
     1
  0
DIMSTYLE
105
27
330
A
100
AcDbSymbolTableRecord
100
AcDbDimStyleTableRecord
  2
STANDARD
 70
     0
  3

  4

  5

  6

  7

 40
1.0
 41
0.18
 42
0.0625
 43
0.38
 44
0.18
 45
0.0
 46
0.0
 47
0.0
 48
0.0
140
0.18
141
0.09
142
0.0
143
25.4
144
1.0
145
0.0
146
1.0
147
0.09
 71
     0
 72
     0
 73
     1
 74
     1
 75
     0
 76
     0
 77
     0
 78
     0
170
     0
171
     2
172
     0
173
     0
174
     0
175
     0
176
     0
177
     0
178
     0
270
     2
271
     4
272
     4
273
     2
274
     2
340
11
275
     0
280
     0
281
     0
282
     0
283
     1
284
     0
285
     0
286
     0
287
     3
288
     0
  0
ENDTAB
  0
TABLE
  2
BLOCK_RECORD
  5
1
330
0
100
AcDbSymbolTable
 70
     2
  0
BLOCK_RECORD
  5
1F
330
1
100
AcDbSymbolTableRecord
100
AcDbBlockTableRecord
  2
*MODEL_SPACE
  0
BLOCK_RECORD
  5
1B
330
1
100
AcDbSymbolTableRecord
100
AcDbBlockTableRecord
  2
*PAPER_SPACE
  0
BLOCK_RECORD
  5
4A
330
1
100
AcDbSymbolTableRecord
100
AcDbBlockTableRecord
  2
BLOCK_2
  0
ENDTAB
  0
ENDSEC
  0
SECTION
  2
BLOCKS
  0
BLOCK
  5
20
330
1F
100
AcDbEntity
  8
0
100
AcDbBlockBegin
  2
*MODEL_SPACE
 70
     0
 71
     0
 10
0.0
 20
0.0
 30
0.0
  3
*MODEL_SPACE
  1

  0
ENDBLK
  5
21
330
1F
100
AcDbEntity
  8
0
100
AcDbBlockEnd
  0
BLOCK
  5
1C
330
1B
100
AcDbEntity
 67
     1
  8
0
100
AcDbBlockBegin
  2
*PAPER_SPACE
 70
     0
 71
     0
 10
0.0
 20
0.0
 30
0.0
  3
*PAPER_SPACE
  1

  0
ENDBLK
  5
1D
330
1B
100
AcDbEntity
 67
     1
  8
0
100
AcDbBlockEnd
  0
BLOCK
  5
4C
330
4A
100
AcDbEntity
  8
0
100
AcDbBlockBegin
  2
BLOCK_2
 70
     0
 71
     0
 10
0.0
 20
0.0
 30
0.0
  3
BLOCK_2
  1

  0
SPLINE
  5
4E
330
4A
100
AcDbEntity
  8
LAYER_1
 62
     7
100
AcDbSpline
210
0.0
220
0.0
230
1.0
 70
    11
 71
     3
 72
    17
 73
    13
 74
     0
 42
0.0000000001
 43
0.0000000001
 40
0.0
 40
0.0
 40
0.0
 40
0.0
 40
1.0
 40
1.0
 40
1.0
 40
2.0
 40
2.0
 40
2.0
 40
3.0
 40
3.0
 40
3.0
 40
4.0
 40
4.0
 40
4.0
 40
4.0
 10
7.029717337652293
 20
56.50473360132521
 30
0.0
 10
7.029717337652293
 20
57.3332790655278
 30
0.0
 10
6.357923718028575
 20
58.00472817560298
 30
0.0
 10
5.529722763374514
 20
58.00472817560298
 30
0.0
 10
4.701177299171929
 20
58.00472817560298
 30
0.0
 10
4.029728189096735
 20
57.3332790655278
 30
0.0
 10
4.029728189096735
 20
56.50473360132521
 30
0.0
 10
4.029728189096735
 20
55.67653264667115
 30
0.0
 10
4.701177299171929
 20
55.00473902704743
 30
0.0
 10
5.529722763374514
 20
55.00473902704743
 30
0.0
 10
6.357923718028575
 20
55.00473902704743
 30
0.0
 10
7.029717337652293
 20
55.67653264667115
 30
0.0
 10
7.029717337652293
 20
56.50473360132521
 30
0.0
  0
SPLINE
  5
4F
330
4A
100
AcDbEntity
  8
LAYER_1
 62
     7
100
AcDbSpline
210
0.0
220
0.0
230
1.0
 70
    11
 71
     3
 72
    17
 73
    13
 74
     0
 42
0.0000000001
 43
0.0000000001
 40
0.0
 40
0.0
 40
0.0
 40
0.0
 40
1.0
 40
1.0
 40
1.0
 40
2.0
 40
2.0
 40
2.0
 40
3.0
 40
3.0
 40
3.0
 40
4.0
 40
4.0
 40
4.0
 40
4.0
 10
7.029717337652293
 20
47.68528915908563
 30
0.0
 10
7.029717337652293
 20
48.51383462328821
 30
0.0
 10
6.357923718028575
 20
49.18528373336341
 30
0.0
 10
5.529722763374514
 20
49.18528373336341
 30
0.0
 10
4.701177299171929
 20
49.18528373336341
 30
0.0
 10
4.029728189096735
 20
48.51383462328821
 30
0.0
 10
4.029728189096735
 20
47.68528915908563
 30
0.0
 10
4.029728189096735
 20
46.85708820443156
 30
0.0
 10
4.701177299171929
 20
46.18529458480784
 30
0.0
 10
5.529722763374514
 20
46.18529458480784
 30
0.0
 10
6.357923718028575
 20
46.18529458480784
 30
0.0
 10
7.029717337652293
 20
46.85708820443156
 30
0.0
 10
7.029717337652293
 20
47.68528915908563
 30
0.0
  0
SPLINE
  5
50
330
4A
100
AcDbEntity
  8
LAYER_1
 62
     7
100
AcDbSpline
210
0.0
220
0.0
230
1.0
 70
    11
 71
     3
 72
    17
 73
    13
 74
     0
 42
0.0000000001
 43
0.0000000001
 40
0.0
 40
0.0
 40
0.0
 40
0.0
 40
1.0
 40
1.0
 40
1.0
 40
2.0
 40
2.0
 40
2.0
 40
3.0
 40
3.0
 40
3.0
 40
4.0
 40
4.0
 40
4.0
 40
4.0
 10
14.50006238786804
 20
73.63202580624477
 30
0.0
 10
14.50006238786804
 20
74.46022676089883
 30
0.0
 10
13.82861327779285
 20
75.13202038052255
 30
0.0
 10
13.00006781359026
 20
75.13202038052255
 30
0.0
 10
12.17152234938768
 20
75.13202038052255
 30
0.0
 10
11.50007323931248
 20
74.46022676089883
 30
0.0
 10
11.50007323931248
 20
73.63202580624477
 30
0.0
 10
11.50007323931248
 20
72.80348034204219
 30
0.0
 10
12.17152234938768
 20
72.13203123196699
 30
0.0
 10
13.00006781359026
 20
72.13203123196699
 30
0.0
 10
13.82861327779285
 20
72.13203123196699
 30
0.0
 10
14.50006238786804
 20
72.80348034204219
 30
0.0
 10
14.50006238786804
 20
73.63202580624477
 30
0.0
  0
SPLINE
  5
51
330
4A
100
AcDbEntity
  8
LAYER_1
 62
     7
100
AcDbSpline
210
0.0
220
0.0
230
1.0
 70
    11
 71
     3
 72
    17
 73
    13
 74
     0
 42
0.0000000001
 43
0.0000000001
 40
0.0
 40
0.0
 40
0.0
 40
0.0
 40
1.0
 40
1.0
 40
1.0
 40
2.0
 40
2.0
 40
2.0
 40
3.0
 40
3.0
 40
3.0
 40
4.0
 40
4.0
 40
4.0
 40
4.0
 10
16.00005696214582
 20
73.63202580624477
 30
0.0
 10
16.00005696214582
 20
75.28808320600437
 30
0.0
 10
14.65681423244691
 20
76.63167044525181
 30
0.0
 10
13.00006781359026
 20
76.63167044525181
 30
0.0
 10
11.34332139473361
 20
76.63167044525181
 30
0.0
 10
10.0000786650347
 20
75.28808320600437
 30
0.0
 10
10.0000786650347
 20
73.63202580624477
 30
0.0
 10
10.0000786650347
 20
71.97459036829108
 30
0.0
 10
11.34332139473361
 20
70.63238116723774
 30
0.0
 10
13.00006781359026
 20
70.63238116723774
 30
0.0
 10
14.65681423244691
 20
70.63238116723774
 30
0.0
 10
16.00005696214582
 20
71.97459036829108
 30
0.0
 10
16.00005696214582
 20
73.63202580624477
 30
0.0
  0
SPLINE
  5
52
330
4A
100
AcDbEntity
  8
LAYER_1
 62
     7
100
AcDbSpline
210
0.0
220
0.0
230
1.0
 70
    11
 71
     3
 72
    17
 73
    13
 74
     0
 42
0.0000000001
 43
0.0000000001
 40
0.0
 40
0.0
 40
0.0
 40
0.0
 40
1.0
 40
1.0
 40
1.0
 40
2.0
 40
2.0
 40
2.0
 40
3.0
 40
3.0
 40
3.0
 40
4.0
 40
4.0
 40
4.0
 40
4.0
 10
5.588978405720812
 20
73.63202580624477
 30
0.0
 10
5.588978405720812
 20
74.46022676089883
 30
0.0
 10
4.917529295645618
 20
75.13202038052255
 30
0.0
 10
4.088983831443032
 20
75.13202038052255
 30
0.0
 10
3.260438367240446
 20
75.13202038052255
 30
0.0
 10
2.588989257165253
 20
74.46022676089883
 30
0.0
 10
2.588989257165253
 20
73.63202580624477
 30
0.0
 10
2.588989257165253
 20
72.80348034204219
 30
0.0
 10
3.260438367240446
 20
72.13203123196699
 30
0.0
 10
4.088983831443032
 20
72.13203123196699
 30
0.0
 10
4.917529295645618
 20
72.13203123196699
 30
0.0
 10
5.588978405720812
 20
72.80348034204219
 30
0.0
 10
5.588978405720812
 20
73.63202580624477
 30
0.0
  0
SPLINE
  5
53
330
4A
100
AcDbEntity
  8
LAYER_1
 62
     7
100
AcDbSpline
210
0.0
220
0.0
230
1.0
 70
    11
 71
     3
 72
    17
 73
    13
 74
     0
 42
0.0000000001
 43
0.0000000001
 40
0.0
 40
0.0
 40
0.0
 40
0.0
 40
1.0
 40
1.0
 40
1.0
 40
2.0
 40
2.0
 40
2.0
 40
3.0
 40
3.0
 40
3.0
 40
4.0
 40
4.0
 40
4.0
 40
4.0
 10
7.088972979998591
 20
73.63202580624477
 30
0.0
 10
7.088972979998591
 20
75.28808320600437
 30
0.0
 10
5.745730250299679
 20
76.63167044525181
 30
0.0
 10
4.088983831443032
 20
76.63167044525181
 30
0.0
 10
2.432237412586385
 20
76.63167044525181
 30
0.0
 10
1.088994682887474
 20
75.28808320600437
 30
0.0
 10
1.088994682887474
 20
73.63202580624477
 30
0.0
 10
1.088994682887474
 20
71.97459036829108
 30
0.0
 10
2.432237412586385
 20
70.63238116723774
 30
0.0
 10
4.088983831443032
 20
70.63238116723774
 30
0.0
 10
5.745730250299679
 20
70.63238116723774
 30
0.0
 10
7.088972979998591
 20
71.97459036829108
 30
0.0
 10
7.088972979998591
 20
73.63202580624477
 30
0.0
  0
SPLINE
  5
54
330
4A
100
AcDbEntity
  8
LAYER_1
 62
     7
100
AcDbSpline
210
0.0
220
0.0
230
1.0
 70
    11
 71
     3
 72
    17
 73
    13
 74
     0
 42
0.0000000001
 43
0.0000000001
 40
0.0
 40
0.0
 40
0.0
 40
0.0
 40
1.0
 40
1.0
 40
1.0
 40
2.0
 40
2.0
 40
2.0
 40
3.0
 40
3.0
 40
3.0
 40
4.0
 40
4.0
 40
4.0
 40
4.0
 10
136.5635850353036
 20
74.6321370256128
 30
0.0
 10
136.5635850353036
 20
75.46033798026686
 30
0.0
 10
135.8921359252284
 20
76.13213159989058
 30
0.0
 10
135.0635904610258
 20
76.13213159989058
 30
0.0
 10
134.2353895063717
 20
76.13213159989058
 30
0.0
 10
133.563595886748
 20
75.46033798026686
 30
0.0
 10
133.563595886748
 20
74.6321370256128
 30
0.0
 10
133.563595886748
 20
73.80359156141022
 30
0.0
 10
134.2353895063717
 20
73.13214245133503
 30
0.0
 10
135.0635904610258
 20
73.13214245133503
 30
0.0
 10
135.8921359252284
 20
73.13214245133503
 30
0.0
 10
136.5635850353036
 20
73.80359156141022
 30
0.0
 10
136.5635850353036
 20
74.6321370256128
 30
0.0
  0
SPLINE
  5
55
330
4A
100
AcDbEntity
  8
LAYER_1
 62
     7
100
AcDbSpline
210
0.0
220
0.0
230
1.0
 70
    11
 71
     3
 72
    17
 73
    13
 74
     0
 42
0.0000000001
 43
0.0000000001
 40
0.0
 40
0.0
 40
0.0
 40
0.0
 40
1.0
 40
1.0
 40
1.0
 40
2.0
 40
2.0
 40
2.0
 40
3.0
 40
3.0
 40
3.0
 40
4.0
 40
4.0
 40
4.0
 40
4.0
 10
101.6385850440348
 20
74.6321370256128
 30
0.0
 10
101.6385850440348
 20
75.46033798026686
 30
0.0
 10
100.9671359339596
 20
76.13213159989058
 30
0.0
 10
100.138590469757
 20
76.13213159989058
 30
0.0
 10
99.31038951510297
 20
76.13213159989058
 30
0.0
 10
98.63859589547924
 20
75.46033798026686
 30
0.0
 10
98.63859589547924
 20
74.6321370256128
 30
0.0
 10
98.63859589547924
 20
73.80359156141022
 30
0.0
 10
99.31038951510297
 20
73.13214245133503
 30
0.0
 10
100.138590469757
 20
73.13214245133503
 30
0.0
 10
100.9671359339596
 20
73.13214245133503
 30
0.0
 10
101.6385850440348
 20
73.80359156141022
 30
0.0
 10
101.6385850440348
 20
74.6321370256128
 30
0.0
  0
SPLINE
  5
56
330
4A
100
AcDbEntity
  8
LAYER_1
 62
     7
100
AcDbSpline
210
0.0
220
0.0
230
1.0
 70
    11
 71
     3
 72
    17
 73
    13
 74
     0
 42
0.0000000001
 43
0.0000000001
 40
0.0
 40
0.0
 40
0.0
 40
0.0
 40
1.0
 40
1.0
 40
1.0
 40
2.0
 40
2.0
 40
2.0
 40
3.0
 40
3.0
 40
3.0
 40
4.0
 40
4.0
 40
4.0
 40
4.0
 10
127.744140593064
 20
73.6323703157933
 30
0.0
 10
127.744140593064
 20
74.46057127044736
 30
0.0
 10
127.0726914829888
 20
75.13236489007107
 30
0.0
 10
126.2441460187862
 20
75.13236489007107
 30
0.0
 10
125.4159450641321
 20
75.13236489007107
 30
0.0
 10
124.7441514445084
 20
74.46057127044736
 30
0.0
 10
124.7441514445084
 20
73.6323703157933
 30
0.0
 10
124.7441514445084
 20
72.80382485159072
 30
0.0
 10
125.4159450641321
 20
72.13237574151552
 30
0.0
 10
126.2441460187862
 20
72.13237574151552
 30
0.0
 10
127.0726914829888
 20
72.13237574151552
 30
0.0
 10
127.744140593064
 20
72.80382485159072
 30
0.0
 10
127.744140593064
 20
73.6323703157933
 30
0.0
  0
SPLINE
  5
57
330
4A
100
AcDbEntity
  8
LAYER_1
 62
     7
100
AcDbSpline
210
0.0
220
0.0
230
1.0
 70
    11
 71
     3
 72
    17
 73
    13
 74
     0
 42
0.0000000001
 43
0.0000000001
 40
0.0
 40
0.0
 40
0.0
 40
0.0
 40
1.0
 40
1.0
 40
1.0
 40
2.0
 40
2.0
 40
2.0
 40
3.0
 40
3.0
 40
3.0
 40
4.0
 40
4.0
 40
4.0
 40
4.0
 10
129.2441351673417
 20
73.6323703157933
 30
0.0
 10
129.2441351673417
 20
75.2884277155529
 30
0.0
 10
127.9012369471914
 20
76.63201495480034
 30
0.0
 10
126.2441460187862
 20
76.63201495480034
 30
0.0
 10
124.5873995999295
 20
76.63201495480034
 30
0.0
 10
123.2441568702306
 20
75.2884277155529
 30
0.0
 10
123.2441568702306
 20
73.6323703157933
 30
0.0
 10
123.2441568702306
 20
71.9749348778396
 30
0.0
 10
124.5873995999295
 20
70.63272567678627
 30
0.0
 10
126.2441460187862
 20
70.63272567678627
 30
0.0
 10
127.9012369471914
 20
70.63272567678627
 30
0.0
 10
129.2441351673417
 20
71.9749348778396
 30
0.0
 10
129.2441351673417
 20
73.6323703157933
 30
0.0
  0
SPLINE
  5
58
330
4A
100
AcDbEntity
  8
LAYER_1
 62
     7
100
AcDbSpline
210
0.0
220
0.0
230
1.0
 70
    11
 71
     3
 72
    17
 73
    13
 74
     0
 42
0.0000000001
 43
0.0000000001
 40
0.0
 40
0.0
 40
0.0
 40
0.0
 40
1.0
 40
1.0
 40
1.0
 40
2.0
 40
2.0
 40
2.0
 40
3.0
 40
3.0
 40
3.0
 40
4.0
 40
4.0
 40
4.0
 40
4.0
 10
118.8330566109167
 20
73.6323703157933
 30
0.0
 10
118.8330566109167
 20
74.46057127044736
 30
0.0
 10
118.1616075008416
 20
75.13236489007107
 30
0.0
 10
117.333062036639
 20
75.13236489007107
 30
0.0
 10
116.5048610819849
 20
75.13236489007107
 30
0.0
 10
115.8330674623612
 20
74.46057127044736
 30
0.0
 10
115.8330674623612
 20
73.6323703157933
 30
0.0
 10
115.8330674623612
 20
72.80382485159072
 30
0.0
 10
116.5048610819849
 20
72.13237574151552
 30
0.0
 10
117.333062036639
 20
72.13237574151552
 30
0.0
 10
118.1616075008416
 20
72.13237574151552
 30
0.0
 10
118.8330566109167
 20
72.80382485159072
 30
0.0
 10
118.8330566109167
 20
73.6323703157933
 30
0.0
  0
SPLINE
  5
59
330
4A
100
AcDbEntity
  8
LAYER_1
 62
     7
100
AcDbSpline
210
0.0
220
0.0
230
1.0
 70
    11
 71
     3
 72
    17
 73
    13
 74
     0
 42
0.0000000001
 43
0.0000000001
 40
0.0
 40
0.0
 40
0.0
 40
0.0
 40
1.0
 40
1.0
 40
1.0
 40
2.0
 40
2.0
 40
2.0
 40
3.0
 40
3.0
 40
3.0
 40
4.0
 40
4.0
 40
4.0
 40
4.0
 10
120.3330511851945
 20
73.6323703157933
 30
0.0
 10
120.3330511851945
 20
75.2884277155529
 30
0.0
 10
118.9901529650441
 20
76.63201495480034
 30
0.0
 10
117.333062036639
 20
76.63201495480034
 30
0.0
 10
115.6763156177823
 20
76.63201495480034
 30
0.0
 10
114.3330728880834
 20
75.2884277155529
 30
0.0
 10
114.3330728880834
 20
73.6323703157933
 30
0.0
 10
114.3330728880834
 20
71.9749348778396
 30
0.0
 10
115.6763156177823
 20
70.63272567678627
 30
0.0
 10
117.333062036639
 20
70.63272567678627
 30
0.0
 10
118.9901529650441
 20
70.63272567678627
 30
0.0
 10
120.3330511851945
 20
71.9749348778396
 30
0.0
 10
120.3330511851945
 20
73.6323703157933
 30
0.0
  0
SPLINE
  5
5A
330
4A
100
AcDbEntity
  8
LAYER_1
 62
     7
100
AcDbSpline
210
0.0
220
0.0
230
1.0
 70
    11
 71
     3
 72
    62
 73
    58
 74
     0
 42
0.0000000001
 43
0.0000000001
 40
0.0
 40
0.0
 40
0.0
 40
0.0
 40
1.0
 40
1.0
 40
1.0
 40
2.0
 40
2.0
 40
2.0
 40
3.0
 40
3.0
 40
3.0
 40
4.0
 40
4.0
 40
4.0
 40
5.0
 40
5.0
 40
5.0
 40
6.0
 40
6.0
 40
6.0
 40
7.0
 40
7.0
 40
7.0
 40
8.0
 40
8.0
 40
8.0
 40
9.0
 40
9.0
 40
9.0
 40
10.0
 40
10.0
 40
10.0
 40
11.0
 40
11.0
 40
11.0
 40
12.0
 40
12.0
 40
12.0
 40
13.0
 40
13.0
 40
13.0
 40
14.0
 40
14.0
 40
14.0
 40
15.0
 40
15.0
 40
15.0
 40
16.0
 40
16.0
 40
16.0
 40
17.0
 40
17.0
 40
17.0
 40
18.0
 40
18.0
 40
18.0
 40
19.0
 40
19.0
 40
19.0
 40
19.0
 10
150.000146446875
 20
71.63214787705725
 30
0.0
 10
149.9998019373265
 20
69.4321099001767
 30
0.0
 10
148.2000840558319
 20
67.63239201868218
 30
0.0
 10
146.0000460789514
 20
67.63239201868218
 30
0.0
 10
146.0000460789514
 20
67.63239201868218
 30
0.0
 10
88.00014103702775
 20
67.63239201868218
 30
0.0
 10
88.00014103702775
 20
67.63239201868218
 30
0.0
 10
85.8001030601472
 20
67.63239201868218
 30
0.0
 10
82.29575193255107
 20
67.05327146761168
 30
0.0
 10
80.21284720216902
 20
66.34564885494137
 30
0.0
 10
80.21284720216902
 20
66.34564885494137
 30
0.0
 10
13.31529405049062
 20
43.62007648649082
 30
0.0
 10
13.31529405049062
 20
43.62007648649082
 30
0.0
 10
11.23204481056004
 20
42.9124538738205
 30
0.0
 10
7.727693682963911
 20
42.33333332275
 30
0.0
 10
5.528000215631889
 20
42.33333332275
 30
0.0
 10
5.528000215631889
 20
42.33333332275
 30
0.0
 10
4.000100367923586
 20
42.33333332275
 30
0.0
 10
4.000100367923586
 20
42.33333332275
 30
0.0
 10
1.80006239104304
 20
42.33333332275
 30
0.0
 10
0.0
 20
44.13339571379304
 30
0.0
 10
0.0
 20
46.33343369067359
 30
0.0
 10
0.0
 20
46.33343369067359
 30
0.0
 10
0.0
 20
63.6322916507586
 30
0.0
 10
0.0
 20
63.6322916507586
 30
0.0
 10
0.0
 20
65.83232962763914
 30
0.0
 10
0.0
 20
69.4321099001767
 30
0.0
 10
0.0
 20
71.63214787705725
 30
0.0
 10
0.0
 20
71.63214787705725
 30
0.0
 10
0.0
 20
71.63249238660578
 30
0.0
 10
0.0
 20
71.63249238660578
 30
0.0
 10
0.0
 20
71.63249238660578
 30
0.0
 10
0.0
 20
73.63202580624477
 30
0.0
 10
0.0
 20
73.63202580624477
 30
0.0
 10
0.0
 20
73.63202580624477
 30
0.0
 10
0.0
 20
77.63212617416836
 30
0.0
 10
0.0
 20
77.63212617416836
 30
0.0
 10
0.0
 20
77.63212617416836
 30
0.0
 10
4.000100367923586
 20
77.63212617416836
 30
0.0
 10
4.000100367923586
 20
77.63212617416836
 30
0.0
 10
4.000100367923586
 20
77.63212617416836
 30
0.0
 10
146.0000460789514
 20
77.63212617416836
 30
0.0
 10
146.0000460789514
 20
77.63212617416836
 30
0.0
 10
146.0000460789514
 20
77.63212617416836
 30
0.0
 10
150.000146446875
 20
77.63212617416836
 30
0.0
 10
150.000146446875
 20
77.63212617416836
 30
0.0
 10
150.000146446875
 20
77.63212617416836
 30
0.0
 10
150.000146446875
 20
73.63202580624477
 30
0.0
 10
150.000146446875
 20
73.63202580624477
 30
0.0
 10
150.000146446875
 20
73.63202580624477
 30
0.0
 10
150.000146446875
 20
71.63249238660578
 30
0.0
 10
150.000146446875
 20
71.63249238660578
 30
0.0
 10
150.000146446875
 20
71.63249238660578
 30
0.0
 10
150.000146446875
 20
71.63214787705725
 30
0.0
 10
150.000146446875
 20
71.63214787705725
 30
0.0
 10
150.000146446875
 20
71.63214787705725
 30
0.0
 10
150.000146446875
 20
71.63214787705725
 30
0.0
 10
150.000146446875
 20
71.63214787705725
 30
0.0
  0
SPLINE
  5
5B
330
4A
100
AcDbEntity
  8
LAYER_1
 62
     7
100
AcDbSpline
210
0.0
220
0.0
230
1.0
 70
    11
 71
     3
 72
    23
 73
    19
 74
     0
 42
0.0000000001
 43
0.0000000001
 40
0.0
 40
0.0
 40
0.0
 40
0.0
 40
1.0
 40
1.0
 40
1.0
 40
2.0
 40
2.0
 40
2.0
 40
3.0
 40
3.0
 40
3.0
 40
4.0
 40
4.0
 40
4.0
 40
5.0
 40
5.0
 40
5.0
 40
6.0
 40
6.0
 40
6.0
 40
6.0
 10
70.75227049012443
 20
68.71553003924473
 30
0.0
 10
73.87972817163424
 20
69.76972925773119
 30
0.0
 10
73.73813474719047
 20
70.63203665768921
 30
0.0
 10
70.43807778186965
 20
70.63203665768921
 30
0.0
 10
70.43807778186965
 20
70.63203665768921
 30
0.0
 10
17.5000515364236
 20
70.63203665768921
 30
0.0
 10
17.5000515364236
 20
70.63203665768921
 30
0.0
 10
14.19999457110278
 20
70.63203665768921
 30
0.0
 10
11.50007323931248
 20
67.93211532589892
 30
0.0
 10
11.50007323931248
 20
64.6320583605781
 30
0.0
 10
11.50007323931248
 20
64.6320583605781
 30
0.0
 10
11.50007323931248
 20
54.74360078926549
 30
0.0
 10
11.50007323931248
 20
54.74360078926549
 30
0.0
 10
11.50007323931248
 20
51.44354382394467
 30
0.0
 10
14.05840114665901
 20
49.60592989211241
 30
0.0
 10
17.18585882816881
 20
50.66012911059886
 30
0.0
 10
17.18585882816881
 20
50.66012911059886
 30
0.0
 10
70.75227049012443
 20
68.71553003924473
 30
0.0
 10
70.75227049012443
 20
68.71553003924473
 30
0.0
  0
ENDBLK
  5
4D
330
4A
100
AcDbEntity
  8
0
100
AcDbBlockEnd
  0
ENDSEC
  0
SECTION
  2
ENTITIES
  0
SPLINE
  5
3C
330
1F
100
AcDbEntity
  8
LAYER_1
 62
     7
100
AcDbSpline
210
0.0
220
0.0
230
1.0
 70
    11
 71
     3
 72
    17
 73
    13
 74
     0
 42
0.0000000001
 43
0.0000000001
 40
0.0
 40
0.0
 40
0.0
 40
0.0
 40
1.0
 40
1.0
 40
1.0
 40
2.0
 40
2.0
 40
2.0
 40
3.0
 40
3.0
 40
3.0
 40
4.0
 40
4.0
 40
4.0
 40
4.0
 10
7.02954508287803
 20
21.12739257284315
 30
0.0
 10
7.02954508287803
 20
20.29884710864057
 30
0.0
 10
6.357923718028575
 20
19.62739799856537
 30
0.0
 10
5.529550508600251
 20
19.62739799856537
 30
0.0
 10
4.701177299171929
 20
19.62739799856537
 30
0.0
 10
4.029555934322472
 20
20.29884710864057
 30
0.0
 10
4.029555934322472
 20
21.12739257284315
 30
0.0
 10
4.029555934322472
 20
21.95559352749721
 30
0.0
 10
4.701177299171929
 20
22.62738714712093
 30
0.0
 10
5.529550508600251
 20
22.62738714712093
 30
0.0
 10
6.357923718028575
 20
22.62738714712093
 30
0.0
 10
7.02954508287803
 20
21.95559352749721
 30
0.0
 10
7.02954508287803
 20
21.12739257284315
 30
0.0
  0
SPLINE
  5
3D
330
1F
100
AcDbEntity
  8
LAYER_1
 62
     7
100
AcDbSpline
210
0.0
220
0.0
230
1.0
 70
    11
 71
     3
 72
    17
 73
    13
 74
     0
 42
0.0000000001
 43
0.0000000001
 40
0.0
 40
0.0
 40
0.0
 40
0.0
 40
1.0
 40
1.0
 40
1.0
 40
2.0
 40
2.0
 40
2.0
 40
3.0
 40
3.0
 40
3.0
 40
4.0
 40
4.0
 40
4.0
 40
4.0
 10
7.02954508287803
 20
29.94683701508274
 30
0.0
 10
7.02954508287803
 20
29.11829155088015
 30
0.0
 10
6.357923718028575
 20
28.44684244080496
 30
0.0
 10
5.529550508600251
 20
28.44684244080496
 30
0.0
 10
4.701177299171929
 20
28.44684244080496
 30
0.0
 10
4.029555934322472
 20
29.11829155088015
 30
0.0
 10
4.029555934322472
 20
29.94683701508274
 30
0.0
 10
4.029555934322472
 20
30.7750379697368
 30
0.0
 10
4.701177299171929
 20
31.44683158936052
 30
0.0
 10
5.529550508600251
 20
31.44683158936052
 30
0.0
 10
6.357923718028575
 20
31.44683158936052
 30
0.0
 10
7.02954508287803
 20
30.7750379697368
 30
0.0
 10
7.02954508287803
 20
29.94683701508274
 30
0.0
  0
SPLINE
  5
3E
330
1F
100
AcDbEntity
  8
LAYER_1
 62
     7
100
AcDbSpline
210
0.0
220
0.0
230
1.0
 70
    11
 71
     3
 72
    17
 73
    13
 74
     0
 42
0.0000000001
 43
0.0000000001
 40
0.0
 40
0.0
 40
0.0
 40
0.0
 40
1.0
 40
1.0
 40
1.0
 40
2.0
 40
2.0
 40
2.0
 40
3.0
 40
3.0
 40
3.0
 40
4.0
 40
4.0
 40
4.0
 40
4.0
 10
14.50006238786804
 20
4.000100367923586
 30
0.0
 10
14.50006238786804
 20
3.171899413269525
 30
0.0
 10
13.82844102301858
 20
2.500105793645807
 30
0.0
 10
12.999895558816
 20
2.500105793645807
 30
0.0
 10
12.17152234938768
 20
2.500105793645807
 30
0.0
 10
11.49990098453822
 20
3.171899413269525
 30
0.0
 10
11.49990098453822
 20
4.000100367923586
 30
0.0
 10
11.49990098453822
 20
4.828645832126172
 30
0.0
 10
12.17152234938768
 20
5.500094942201366
 30
0.0
 10
12.999895558816
 20
5.500094942201366
 30
0.0
 10
13.82844102301858
 20
5.500094942201366
 30
0.0
 10
14.50006238786804
 20
4.828645832126172
 30
0.0
 10
14.50006238786804
 20
4.000100367923586
 30
0.0
  0
SPLINE
  5
3F
330
1F
100
AcDbEntity
  8
LAYER_1
 62
     7
100
AcDbSpline
210
0.0
220
0.0
230
1.0
 70
    11
 71
     3
 72
    17
 73
    13
 74
     0
 42
0.0000000001
 43
0.0000000001
 40
0.0
 40
0.0
 40
0.0
 40
0.0
 40
1.0
 40
1.0
 40
1.0
 40
2.0
 40
2.0
 40
2.0
 40
3.0
 40
3.0
 40
3.0
 40
4.0
 40
4.0
 40
4.0
 40
4.0
 10
16.00005696214582
 20
4.000100367923586
 30
0.0
 10
16.00005696214582
 20
2.344042968163989
 30
0.0
 10
14.65681423244691
 20
1.000455728916553
 30
0.0
 10
12.999895558816
 20
1.000455728916553
 30
0.0
 10
11.34314913995935
 20
1.000455728916553
 30
0.0
 10
9.99990641026044
 20
2.344042968163989
 30
0.0
 10
9.99990641026044
 20
4.000100367923586
 30
0.0
 10
9.99990641026044
 20
5.657535805877283
 30
0.0
 10
11.34314913995935
 20
6.99974500693062
 30
0.0
 10
12.999895558816
 20
6.99974500693062
 30
0.0
 10
14.65681423244691
 20
6.99974500693062
 30
0.0
 10
16.00005696214582
 20
5.657535805877283
 30
0.0
 10
16.00005696214582
 20
4.000100367923586
 30
0.0
  0
SPLINE
  5
40
330
1F
100
AcDbEntity
  8
LAYER_1
 62
     7
100
AcDbSpline
210
0.0
220
0.0
230
1.0
 70
    11
 71
     3
 72
    17
 73
    13
 74
     0
 42
0.0000000001
 43
0.0000000001
 40
0.0
 40
0.0
 40
0.0
 40
0.0
 40
1.0
 40
1.0
 40
1.0
 40
2.0
 40
2.0
 40
2.0
 40
3.0
 40
3.0
 40
3.0
 40
4.0
 40
4.0
 40
4.0
 40
4.0
 10
5.588978405720812
 20
4.000100367923586
 30
0.0
 10
5.588978405720812
 20
3.171899413269525
 30
0.0
 10
4.917357040871355
 20
2.500105793645807
 30
0.0
 10
4.088811576668769
 20
2.500105793645807
 30
0.0
 10
3.260438367240446
 20
2.500105793645807
 30
0.0
 10
2.58881700239099
 20
3.171899413269525
 30
0.0
 10
2.58881700239099
 20
4.000100367923586
 30
0.0
 10
2.58881700239099
 20
4.828645832126172
 30
0.0
 10
3.260438367240446
 20
5.500094942201366
 30
0.0
 10
4.088811576668769
 20
5.500094942201366
 30
0.0
 10
4.917357040871355
 20
5.500094942201366
 30
0.0
 10
5.588978405720812
 20
4.828645832126172
 30
0.0
 10
5.588978405720812
 20
4.000100367923586
 30
0.0
  0
SPLINE
  5
41
330
1F
100
AcDbEntity
  8
LAYER_1
 62
     7
100
AcDbSpline
210
0.0
220
0.0
230
1.0
 70
    11
 71
     3
 72
    17
 73
    13
 74
     0
 42
0.0000000001
 43
0.0000000001
 40
0.0
 40
0.0
 40
0.0
 40
0.0
 40
1.0
 40
1.0
 40
1.0
 40
2.0
 40
2.0
 40
2.0
 40
3.0
 40
3.0
 40
3.0
 40
4.0
 40
4.0
 40
4.0
 40
4.0
 10
7.088972979998591
 20
4.000100367923586
 30
0.0
 10
7.088972979998591
 20
2.344042968163989
 30
0.0
 10
5.745730250299679
 20
1.000455728916553
 30
0.0
 10
4.088811576668769
 20
1.000455728916553
 30
0.0
 10
2.432065157812123
 20
1.000455728916553
 30
0.0
 10
1.088822428113211
 20
2.344042968163989
 30
0.0
 10
1.088822428113211
 20
4.000100367923586
 30
0.0
 10
1.088822428113211
 20
5.657535805877283
 30
0.0
 10
2.432065157812123
 20
6.99974500693062
 30
0.0
 10
4.088811576668769
 20
6.99974500693062
 30
0.0
 10
5.745730250299679
 20
6.99974500693062
 30
0.0
 10
7.088972979998591
 20
5.657535805877283
 30
0.0
 10
7.088972979998591
 20
4.000100367923586
 30
0.0
  0
SPLINE
  5
42
330
1F
100
AcDbEntity
  8
LAYER_1
 62
     7
100
AcDbSpline
210
0.0
220
0.0
230
1.0
 70
    11
 71
     3
 72
    17
 73
    13
 74
     0
 42
0.0000000001
 43
0.0000000001
 40
0.0
 40
0.0
 40
0.0
 40
0.0
 40
1.0
 40
1.0
 40
1.0
 40
2.0
 40
2.0
 40
2.0
 40
3.0
 40
3.0
 40
3.0
 40
4.0
 40
4.0
 40
4.0
 40
4.0
 10
136.5635850353036
 20
2.999989148555558
 30
0.0
 10
136.5635850353036
 20
2.171788193901497
 30
0.0
 10
135.8921359252284
 20
1.499994574277779
 30
0.0
 10
135.0635904610258
 20
1.499994574277779
 30
0.0
 10
134.2353895063717
 20
1.499994574277779
 30
0.0
 10
133.563595886748
 20
2.171788193901497
 30
0.0
 10
133.563595886748
 20
2.999989148555558
 30
0.0
 10
133.563595886748
 20
3.828534612758144
 30
0.0
 10
134.2353895063717
 20
4.499983722833337
 30
0.0
 10
135.0635904610258
 20
4.499983722833337
 30
0.0
 10
135.8921359252284
 20
4.499983722833337
 30
0.0
 10
136.5635850353036
 20
3.828534612758144
 30
0.0
 10
136.5635850353036
 20
2.999989148555558
 30
0.0
  0
SPLINE
  5
43
330
1F
100
AcDbEntity
  8
LAYER_1
 62
     7
100
AcDbSpline
210
0.0
220
0.0
230
1.0
 70
    11
 71
     3
 72
    17
 73
    13
 74
     0
 42
0.0000000001
 43
0.0000000001
 40
0.0
 40
0.0
 40
0.0
 40
0.0
 40
1.0
 40
1.0
 40
1.0
 40
2.0
 40
2.0
 40
2.0
 40
3.0
 40
3.0
 40
3.0
 40
4.0
 40
4.0
 40
4.0
 40
4.0
 10
101.6385850440348
 20
2.999989148555558
 30
0.0
 10
101.6385850440348
 20
2.171788193901497
 30
0.0
 10
100.9671359339596
 20
1.499994574277779
 30
0.0
 10
100.138590469757
 20
1.499994574277779
 30
0.0
 10
99.31038951510297
 20
1.499994574277779
 30
0.0
 10
98.63859589547924
 20
2.171788193901497
 30
0.0
 10
98.63859589547924
 20
2.999989148555558
 30
0.0
 10
98.63859589547924
 20
3.828534612758144
 30
0.0
 10
99.31038951510297
 20
4.499983722833337
 30
0.0
 10
100.138590469757
 20
4.499983722833337
 30
0.0
 10
100.9671359339596
 20
4.499983722833337
 30
0.0
 10
101.6385850440348
 20
3.828534612758144
 30
0.0
 10
101.6385850440348
 20
2.999989148555558
 30
0.0
  0
SPLINE
  5
44
330
1F
100
AcDbEntity
  8
LAYER_1
 62
     7
100
AcDbSpline
210
0.0
220
0.0
230
1.0
 70
    11
 71
     3
 72
    17
 73
    13
 74
     0
 42
0.0000000001
 43
0.0000000001
 40
0.0
 40
0.0
 40
0.0
 40
0.0
 40
1.0
 40
1.0
 40
1.0
 40
2.0
 40
2.0
 40
2.0
 40
3.0
 40
3.0
 40
3.0
 40
4.0
 40
4.0
 40
4.0
 40
4.0
 10
127.744140593064
 20
3.999755858375061
 30
0.0
 10
127.744140593064
 20
3.171554903721
 30
0.0
 10
127.0726914829888
 20
2.499761284097282
 30
0.0
 10
126.2441460187862
 20
2.499761284097282
 30
0.0
 10
125.4159450641321
 20
2.499761284097282
 30
0.0
 10
124.7441514445084
 20
3.171554903721
 30
0.0
 10
124.7441514445084
 20
3.999755858375061
 30
0.0
 10
124.7441514445084
 20
4.828301322577647
 30
0.0
 10
125.4159450641321
 20
5.49975043265284
 30
0.0
 10
126.2441460187862
 20
5.49975043265284
 30
0.0
 10
127.0726914829888
 20
5.49975043265284
 30
0.0
 10
127.744140593064
 20
4.828301322577647
 30
0.0
 10
127.744140593064
 20
3.999755858375061
 30
0.0
  0
SPLINE
  5
45
330
1F
100
AcDbEntity
  8
LAYER_1
 62
     7
100
AcDbSpline
210
0.0
220
0.0
230
1.0
 70
    11
 71
     3
 72
    17
 73
    13
 74
     0
 42
0.0000000001
 43
0.0000000001
 40
0.0
 40
0.0
 40
0.0
 40
0.0
 40
1.0
 40
1.0
 40
1.0
 40
2.0
 40
2.0
 40
2.0
 40
3.0
 40
3.0
 40
3.0
 40
4.0
 40
4.0
 40
4.0
 40
4.0
 10
129.2441351673417
 20
3.999755858375061
 30
0.0
 10
129.2441351673417
 20
2.343698458615465
 30
0.0
 10
127.9012369471914
 20
1.000111219368028
 30
0.0
 10
126.2441460187862
 20
1.000111219368028
 30
0.0
 10
124.5873995999295
 20
1.000111219368028
 30
0.0
 10
123.2441568702306
 20
2.343698458615465
 30
0.0
 10
123.2441568702306
 20
3.999755858375061
 30
0.0
 10
123.2441568702306
 20
5.657191296328758
 30
0.0
 10
124.5873995999295
 20
6.999400497382094
 30
0.0
 10
126.2441460187862
 20
6.999400497382094
 30
0.0
 10
127.9012369471914
 20
6.999400497382094
 30
0.0
 10
129.2441351673417
 20
5.657191296328758
 30
0.0
 10
129.2441351673417
 20
3.999755858375061
 30
0.0
  0
SPLINE
  5
46
330
1F
100
AcDbEntity
  8
LAYER_1
 62
     7
100
AcDbSpline
210
0.0
220
0.0
230
1.0
 70
    11
 71
     3
 72
    17
 73
    13
 74
     0
 42
0.0000000001
 43
0.0000000001
 40
0.0
 40
0.0
 40
0.0
 40
0.0
 40
1.0
 40
1.0
 40
1.0
 40
2.0
 40
2.0
 40
2.0
 40
3.0
 40
3.0
 40
3.0
 40
4.0
 40
4.0
 40
4.0
 40
4.0
 10
118.8330566109167
 20
3.999755858375061
 30
0.0
 10
118.8330566109167
 20
3.171554903721
 30
0.0
 10
118.1616075008416
 20
2.499761284097282
 30
0.0
 10
117.333062036639
 20
2.499761284097282
 30
0.0
 10
116.5048610819849
 20
2.499761284097282
 30
0.0
 10
115.8330674623612
 20
3.171554903721
 30
0.0
 10
115.8330674623612
 20
3.999755858375061
 30
0.0
 10
115.8330674623612
 20
4.828301322577647
 30
0.0
 10
116.5048610819849
 20
5.49975043265284
 30
0.0
 10
117.333062036639
 20
5.49975043265284
 30
0.0
 10
118.1616075008416
 20
5.49975043265284
 30
0.0
 10
118.8330566109167
 20
4.828301322577647
 30
0.0
 10
118.8330566109167
 20
3.999755858375061
 30
0.0
  0
SPLINE
  5
47
330
1F
100
AcDbEntity
  8
LAYER_1
 62
     7
100
AcDbSpline
210
0.0
220
0.0
230
1.0
 70
    11
 71
     3
 72
    17
 73
    13
 74
     0
 42
0.0000000001
 43
0.0000000001
 40
0.0
 40
0.0
 40
0.0
 40
0.0
 40
1.0
 40
1.0
 40
1.0
 40
2.0
 40
2.0
 40
2.0
 40
3.0
 40
3.0
 40
3.0
 40
4.0
 40
4.0
 40
4.0
 40
4.0
 10
120.3330511851945
 20
3.999755858375061
 30
0.0
 10
120.3330511851945
 20
2.343698458615465
 30
0.0
 10
118.9901529650441
 20
1.000111219368028
 30
0.0
 10
117.333062036639
 20
1.000111219368028
 30
0.0
 10
115.6763156177823
 20
1.000111219368028
 30
0.0
 10
114.3330728880834
 20
2.343698458615465
 30
0.0
 10
114.3330728880834
 20
3.999755858375061
 30
0.0
 10
114.3330728880834
 20
5.657191296328758
 30
0.0
 10
115.6763156177823
 20
6.999400497382094
 30
0.0
 10
117.333062036639
 20
6.999400497382094
 30
0.0
 10
118.9901529650441
 20
6.999400497382094
 30
0.0
 10
120.3330511851945
 20
5.657191296328758
 30
0.0
 10
120.3330511851945
 20
3.999755858375061
 30
0.0
  0
SPLINE
  5
48
330
1F
100
AcDbEntity
  8
LAYER_1
 62
     7
100
AcDbSpline
210
0.0
220
0.0
230
1.0
 70
    11
 71
     3
 72
    62
 73
    58
 74
     0
 42
0.0000000001
 43
0.0000000001
 40
0.0
 40
0.0
 40
0.0
 40
0.0
 40
1.0
 40
1.0
 40
1.0
 40
2.0
 40
2.0
 40
2.0
 40
3.0
 40
3.0
 40
3.0
 40
4.0
 40
4.0
 40
4.0
 40
5.0
 40
5.0
 40
5.0
 40
6.0
 40
6.0
 40
6.0
 40
7.0
 40
7.0
 40
7.0
 40
8.0
 40
8.0
 40
8.0
 40
9.0
 40
9.0
 40
9.0
 40
10.0
 40
10.0
 40
10.0
 40
11.0
 40
11.0
 40
11.0
 40
12.0
 40
12.0
 40
12.0
 40
13.0
 40
13.0
 40
13.0
 40
14.0
 40
14.0
 40
14.0
 40
15.0
 40
15.0
 40
15.0
 40
16.0
 40
16.0
 40
16.0
 40
17.0
 40
17.0
 40
17.0
 40
18.0
 40
18.0
 40
18.0
 40
19.0
 40
19.0
 40
19.0
 40
19.0
 10
150.000146446875
 20
5.999978297111117
 30
0.0
 10
149.9998019373265
 20
8.200016273991663
 30
0.0
 10
148.2000840558319
 20
9.999734155486179
 30
0.0
 10
146.0000460789514
 20
9.999734155486179
 30
0.0
 10
146.0000460789514
 20
9.999734155486179
 30
0.0
 10
88.00014103702775
 20
9.999734155486179
 30
0.0
 10
88.00014103702775
 20
9.999734155486179
 30
0.0
 10
85.8001030601472
 20
9.999734155486179
 30
0.0
 10
82.29575193255107
 20
10.57885470655668
 30
0.0
 10
80.21284720216902
 20
11.28647731922699
 30
0.0
 10
80.21284720216902
 20
11.28647731922699
 30
0.0
 10
13.31512179571636
 20
34.01204968767755
 30
0.0
 10
13.31512179571636
 20
34.01204968767755
 30
0.0
 10
11.23204481056004
 20
34.71967230034786
 30
0.0
 10
7.727693682963911
 20
35.29879285141836
 30
0.0
 10
5.527827960857627
 20
35.29879285141836
 30
0.0
 10
5.527827960857627
 20
35.29879285141836
 30
0.0
 10
3.999928113149324
 20
35.29879285141836
 30
0.0
 10
3.999928113149324
 20
35.29879285141836
 30
0.0
 10
1.80006239104304
 20
35.29879285141836
 30
0.0
 10
0.0
 20
33.49873046037532
 30
0.0
 10
0.0
 20
31.29869248349477
 30
0.0
 10
0.0
 20
31.29869248349477
 30
0.0
 10
0.0
 20
13.99983452340976
 30
0.0
 10
0.0
 20
13.99983452340976
 30
0.0
 10
0.0
 20
11.79979654652922
 30
0.0
 10
0.0
 20
8.200016273991663
 30
0.0
 10
0.0
 20
5.999978297111117
 30
0.0
 10
0.0
 20
5.999978297111117
 30
0.0
 10
0.0
 20
5.999633787562592
 30
0.0
 10
0.0
 20
5.999633787562592
 30
0.0
 10
0.0
 20
5.999633787562592
 30
0.0
 10
0.0
 20
4.000100367923586
 30
0.0
 10
0.0
 20
4.000100367923586
 30
0.0
 10
0.0
 20
4.000100367923586
 30
0.0
 10
0.0
 20
0.0
 30
0.0
 10
0.0
 20
0.0
 30
0.0
 10
0.0
 20
0.0
 30
0.0
 10
3.999928113149324
 20
0.0
 30
0.0
 10
3.999928113149324
 20
0.0
 30
0.0
 10
3.999928113149324
 20
0.0
 30
0.0
 10
146.0000460789514
 20
0.0
 30
0.0
 10
146.0000460789514
 20
0.0
 30
0.0
 10
146.0000460789514
 20
0.0
 30
0.0
 10
150.000146446875
 20
0.0
 30
0.0
 10
150.000146446875
 20
0.0
 30
0.0
 10
150.000146446875
 20
0.0
 30
0.0
 10
150.000146446875
 20
4.000100367923586
 30
0.0
 10
150.000146446875
 20
4.000100367923586
 30
0.0
 10
150.000146446875
 20
4.000100367923586
 30
0.0
 10
150.000146446875
 20
5.999633787562592
 30
0.0
 10
150.000146446875
 20
5.999633787562592
 30
0.0
 10
150.000146446875
 20
5.999633787562592
 30
0.0
 10
150.000146446875
 20
5.999978297111117
 30
0.0
 10
150.000146446875
 20
5.999978297111117
 30
0.0
 10
150.000146446875
 20
5.999978297111117
 30
0.0
 10
150.000146446875
 20
5.999978297111117
 30
0.0
 10
150.000146446875
 20
5.999978297111117
 30
0.0
  0
SPLINE
  5
49
330
1F
100
AcDbEntity
  8
LAYER_1
 62
     7
100
AcDbSpline
210
0.0
220
0.0
230
1.0
 70
    11
 71
     3
 72
    23
 73
    19
 74
     0
 42
0.0000000001
 43
0.0000000001
 40
0.0
 40
0.0
 40
0.0
 40
0.0
 40
1.0
 40
1.0
 40
1.0
 40
2.0
 40
2.0
 40
2.0
 40
3.0
 40
3.0
 40
3.0
 40
4.0
 40
4.0
 40
4.0
 40
5.0
 40
5.0
 40
5.0
 40
6.0
 40
6.0
 40
6.0
 40
6.0
 10
70.75227049012443
 20
8.91659613492363
 30
0.0
 10
73.87955591685997
 20
7.862396916437179
 30
0.0
 10
73.73813474719047
 20
7.000089516479145
 30
0.0
 10
70.43807778186965
 20
7.000089516479145
 30
0.0
 10
70.43807778186965
 20
7.000089516479145
 30
0.0
 10
17.49987928164933
 20
7.000089516479145
 30
0.0
 10
17.49987928164933
 20
7.000089516479145
 30
0.0
 10
14.19982231632852
 20
7.000089516479145
 30
0.0
 10
11.49990098453822
 20
9.700010848269443
 30
0.0
 10
11.49990098453822
 20
13.00006781359026
 30
0.0
 10
11.49990098453822
 20
13.00006781359026
 30
0.0
 10
11.49990098453822
 20
22.88852538490287
 30
0.0
 10
11.49990098453822
 20
22.88852538490287
 30
0.0
 10
11.49990098453822
 20
26.18858235022369
 30
0.0
 10
14.05840114665901
 20
28.02619628205595
 30
0.0
 10
17.18568657339455
 20
26.9719970635695
 30
0.0
 10
17.18568657339455
 20
26.9719970635695
 30
0.0
 10
70.75227049012443
 20
8.91659613492363
 30
0.0
 10
70.75227049012443
 20
8.91659613492363
 30
0.0
  0
INSERT
  5
4B
330
1F
100
AcDbEntity
  8
LAYER_1
100
AcDbBlockReference
  2
BLOCK_2
 10
0.0
 20
0.0
 30
0.0
  0
ENDSEC
  0
SECTION
  2
OBJECTS
  0
DICTIONARY
  5
C
330
0
100
AcDbDictionary
  3
ACAD_GROUP
350
D
  3
ACAD_LAYOUT
350
1A
  3
ACAD_MLINESTYLE
350
17
  3
ACAD_PLOTSETTINGS
350
19
  3
ACAD_TABLESTYLE
350
5C
  3
ACAD_VISUALSTYLE
350
2A
1001
ACAD
1000
TREAT_AS_HARD
1070
     0
  0
DICTIONARY
  5
D
102
{ACAD_REACTORS
330
C
102
}
330
C
100
AcDbDictionary
1001
ACAD
1000
TREAT_AS_HARD
1070
     0
  0
DICTIONARY
  5
1A
102
{ACAD_REACTORS
330
C
102
}
330
C
100
AcDbDictionary
1001
ACAD
1000
TREAT_AS_HARD
1070
     0
  0
DICTIONARY
  5
17
102
{ACAD_REACTORS
330
C
102
}
330
C
100
AcDbDictionary
  3
STANDARD
350
18
1001
ACAD
1000
TREAT_AS_HARD
1070
     0
  0
DICTIONARY
  5
19
102
{ACAD_REACTORS
330
C
102
}
330
C
100
AcDbDictionary
1001
ACAD
1000
TREAT_AS_HARD
1070
     0
  0
DICTIONARY
  5
5C
102
{ACAD_REACTORS
330
C
102
}
330
C
100
AcDbDictionary
1001
ACAD
1000
TREAT_AS_HARD
1070
     0
  0
DICTIONARY
  5
2A
102
{ACAD_REACTORS
330
C
102
}
330
C
100
AcDbDictionary
  3
2DWIREFRAME
350
2F
  3
3D_HIDDEN
350
31
  3
3DWIREFRAME
350
30
  3
BASIC
350
32
  3
BRIGHTEN
350
36
  3
COLORCHANGE
350
3A
  3
CONCEPTUAL
350
34
  3
DIM
350
35
  3
FACEPATTERN
350
39
  3
FLAT
350
2B
  3
FLATWITHEDGES
350
2C
  3
GOURAUD
350
2D
  3
GOURAUDWITHEDGES
350
2E
  3
LINEPATTERN
350
38
  3
REALISTIC
350
33
  3
THICKEN
350
37
1001
ACAD
1000
TREAT_AS_HARD
1070
     0
  0
MLINESTYLE
  5
18
102
{ACAD_REACTORS
330
17
102
}
330
17
100
AcDbMlineStyle
  2
Standard
 70
     0
  3

 62
   256
 51
90.0
 52
90.0
 71
     2
 49
0.5
 62
   256
  6
BYLAYER
 49
-0.5
 62
   256
  6
BYLAYER
  0
VISUALSTYLE
  5
2F
102
{ACAD_REACTORS
330
2A
102
}
330
2A
100
AcDbVisualStyle
  2
2dWireframe
 70
     4
 71
     0
 72
     2
 73
     0
 90
        0
 40
-0.6
 41
-30.0
 62
     5
 63
     7
 74
     1
 91
        4
 64
     7
 65
   257
 75
     1
175
     1
 42
1.0
 92
        0
 66
   257
 43
1.0
 76
     1
 77
     6
 78
     2
 67
     7
 79
     5
170
     0
171
     0
290
     0
174
     0
 93
        1
 44
0.0
173
     0
291
     0
 45
0.0
1001
ACAD
1000
AcDbSavedByObjectVersion
1070
     0
  0
VISUALSTYLE
  5
31
102
{ACAD_REACTORS
330
2A
102
}
330
2A
100
AcDbVisualStyle
  2
3D Hidden
 70
     6
 71
     1
 72
     2
 73
     2
 90
        0
 40
-0.6
 41
-30.0
 62
     5
 63
     7
 74
     2
 91
        2
 64
     7
 65
   257
 75
     2
175
     1
 42
40.0
 92
        0
 66
   257
 43
1.0
 76
     1
 77
     6
 78
     2
 67
     7
 79
     3
170
     0
171
     0
290
     0
174
     0
 93
        1
 44
0.0
173
     0
291
     0
 45
0.0
1001
ACAD
1000
AcDbSavedByObjectVersion
1070
     0
  0
VISUALSTYLE
  5
30
102
{ACAD_REACTORS
330
2A
102
}
330
2A
100
AcDbVisualStyle
  2
3dWireframe
 70
     5
 71
     0
 72
     2
 73
     0
 90
        0
 40
-0.6
 41
-30.0
 62
     5
 63
     7
 74
     1
 91
        4
 64
     7
 65
   257
 75
     1
175
     1
 42
1.0
 92
        0
 66
   257
 43
1.0
 76
     1
 77
     6
 78
     2
 67
     7
 79
     5
170
     0
171
     0
290
     0
174
     0
 93
        1
 44
0.0
173
     0
291
     0
 45
0.0
1001
ACAD
1000
AcDbSavedByObjectVersion
1070
     0
  0
VISUALSTYLE
  5
32
102
{ACAD_REACTORS
330
2A
102
}
330
2A
100
AcDbVisualStyle
  2
Basic
 70
     7
 71
     1
 72
     0
 73
     1
 90
        0
 40
-0.6
 41
-30.0
 62
     5
 63
     7
 74
     0
 91
        4
 64
     7
 65
   257
 75
     1
175
     1
 42
1.0
 92
        8
 66
     7
 43
1.0
 76
     1
 77
     6
 78
     2
 67
     7
 79
     5
170
     0
171
     0
290
     0
174
     0
 93
        1
 44
0.0
173
     0
291
     1
 45
0.0
1001
ACAD
1000
AcDbSavedByObjectVersion
1070
     0
  0
VISUALSTYLE
  5
36
102
{ACAD_REACTORS
330
2A
102
}
330
2A
100
AcDbVisualStyle
  2
Brighten
 70
    12
 71
     2
 72
     2
 73
     0
 90
        0
 40
-0.6
 41
-30.0
 62
     5
 63
     7
 74
     1
 91
        4
 64
     7
 65
   257
 75
     1
175
     1
 42
1.0
 92
        8
 66
     7
 43
1.0
 76
     1
 77
     6
 78
     2
 67
     7
 79
     5
170
     0
171
     0
290
     0
174
     0
 93
        1
 44
50.0
173
     0
291
     1
 45
0.0
1001
ACAD
1000
AcDbSavedByObjectVersion
1070
     0
  0
VISUALSTYLE
  5
3A
102
{ACAD_REACTORS
330
2A
102
}
330
2A
100
AcDbVisualStyle
  2
ColorChange
 70
    16
 71
     2
 72
     2
 73
     3
 90
        0
 40
-0.6
 41
-30.0
 62
     5
 63
     8
 74
     1
 91
        4
 64
     7
 65
   257
 75
     1
175
     1
 42
1.0
 92
        8
 66
     8
 43
1.0
 76
     1
 77
     6
 78
     2
 67
     7
 79
     5
170
     0
171
     0
290
     0
174
     0
 93
        1
 44
0.0
173
     0
291
     1
 45
0.0
1001
ACAD
1000
AcDbSavedByObjectVersion
1070
     0
  0
VISUALSTYLE
  5
34
102
{ACAD_REACTORS
330
2A
102
}
330
2A
100
AcDbVisualStyle
  2
Conceptual
 70
     9
 71
     3
 72
     2
 73
     0
 90
        0
 40
-0.6
 41
-30.0
 62
     5
 63
     7
 74
     2
 91
        2
 64
     7
 65
   257
 75
     1
175
     1
 42
40.0
 92
        8
 66
     7
 43
1.0
 76
     1
 77
     6
 78
     2
 67
     7
 79
     3
170
     0
171
     0
290
     0
174
     0
 93
        1
 44
0.0
173
     0
291
     0
 45
0.0
1001
ACAD
1000
AcDbSavedByObjectVersion
1070
     0
  0
VISUALSTYLE
  5
35
102
{ACAD_REACTORS
330
2A
102
}
330
2A
100
AcDbVisualStyle
  2
Dim
 70
    11
 71
     2
 72
     2
 73
     0
 90
        0
 40
-0.6
 41
-30.0
 62
     5
 63
     7
 74
     1
 91
        4
 64
     7
 65
   257
 75
     1
175
     1
 42
1.0
 92
        8
 66
     7
 43
1.0
 76
     1
 77
     6
 78
     2
 67
     7
 79
     5
170
     0
171
     0
290
     0
174
     0
 93
        1
 44
-50.0
173
     0
291
     1
 45
0.0
1001
ACAD
1000
AcDbSavedByObjectVersion
1070
     0
  0
VISUALSTYLE
  5
39
102
{ACAD_REACTORS
330
2A
102
}
330
2A
100
AcDbVisualStyle
  2
Facepattern
 70
    15
 71
     2
 72
     2
 73
     0
 90
        0
 40
-0.6
 41
-30.0
 62
     5
 63
     7
 74
     1
 91
        4
 64
     7
 65
   257
 75
     1
175
     1
 42
1.0
 92
        8
 66
     7
 43
1.0
 76
     1
 77
     6
 78
     2
 67
     7
 79
     5
170
     0
171
     0
290
     0
174
     0
 93
        1
 44
0.0
173
     0
291
     1
 45
0.0
1001
ACAD
1000
AcDbSavedByObjectVersion
1070
     0
  0
VISUALSTYLE
  5
2B
102
{ACAD_REACTORS
330
2A
102
}
330
2A
100
AcDbVisualStyle
  2
Flat
 70
     0
 71
     2
 72
     1
 73
     1
 90
        2
 40
-0.6
 41
30.0
 62
     5
 63
     7
 74
     0
 91
        4
 64
     7
 65
   257
 75
     1
175
     1
 42
1.0
 92
        8
 66
     7
 43
1.0
 76
     1
 77
     6
 78
     2
 67
     7
 79
     5
170
     0
171
     0
290
     0
174
     0
 93
       13
 44
0.0
173
     0
291
     1
 45
0.0
1001
ACAD
1000
AcDbSavedByObjectVersion
1070
     0
  0
VISUALSTYLE
  5
2C
102
{ACAD_REACTORS
330
2A
102
}
330
2A
100
AcDbVisualStyle
  2
FlatWithEdges
 70
     1
 71
     2
 72
     1
 73
     1
 90
        2
 40
-0.6
 41
30.0
 62
     5
 63
     7
 74
     1
 91
        4
 64
     7
 65
   257
 75
     1
175
     1
 42
1.0
 92
        0
 66
   257
 43
1.0
 76
     1
 77
     6
 78
     2
 67
     7
 79
     5
170
     0
171
     0
290
     0
174
     0
 93
       13
 44
0.0
173
     0
291
     1
 45
0.0
1001
ACAD
1000
AcDbSavedByObjectVersion
1070
     0
  0
VISUALSTYLE
  5
2D
102
{ACAD_REACTORS
330
2A
102
}
330
2A
100
AcDbVisualStyle
  2
Gouraud
 70
     2
 71
     2
 72
     2
 73
     1
 90
        2
 40
-0.6
 41
30.0
 62
     5
 63
     7
 74
     0
 91
        4
 64
     7
 65
   257
 75
     1
175
     1
 42
1.0
 92
        0
 66
     7
 43
1.0
 76
     1
 77
     6
 78
     2
 67
     7
 79
     5
170
     0
171
     0
290
     0
174
     0
 93
       13
 44
0.0
173
     0
291
     1
 45
0.0
1001
ACAD
1000
AcDbSavedByObjectVersion
1070
     0
  0
VISUALSTYLE
  5
2E
102
{ACAD_REACTORS
330
2A
102
}
330
2A
100
AcDbVisualStyle
  2
GouraudWithEdges
 70
     3
 71
     2
 72
     2
 73
     1
 90
        2
 40
-0.6
 41
30.0
 62
     5
 63
     7
 74
     1
 91
        4
 64
     7
 65
   257
 75
     1
175
     1
 42
1.0
 92
        0
 66
   257
 43
1.0
 76
     1
 77
     6
 78
     2
 67
     7
 79
     5
170
     0
171
     0
290
     0
174
     0
 93
       13
 44
0.0
173
     0
291
     1
 45
0.0
1001
ACAD
1000
AcDbSavedByObjectVersion
1070
     0
  0
VISUALSTYLE
  5
38
102
{ACAD_REACTORS
330
2A
102
}
330
2A
100
AcDbVisualStyle
  2
Linepattern
 70
    14
 71
     2
 72
     2
 73
     0
 90
        0
 40
-0.6
 41
-30.0
 62
     5
 63
     7
 74
     1
 91
        4
 64
     7
 65
   257
 75
     7
175
     7
 42
1.0
 92
        8
 66
     7
 43
1.0
 76
     1
 77
     6
 78
     2
 67
     7
 79
     5
170
     0
171
     0
290
     0
174
     0
 93
        1
 44
0.0
173
     0
291
     1
 45
0.0
1001
ACAD
1000
AcDbSavedByObjectVersion
1070
     0
  0
VISUALSTYLE
  5
33
102
{ACAD_REACTORS
330
2A
102
}
330
2A
100
AcDbVisualStyle
  2
Realistic
 70
     8
 71
     2
 72
     2
 73
     0
 90
        0
 40
-0.6
 41
-30.0
 62
     5
 63
     7
 74
     1
 91
        0
 64
     7
 65
   257
 75
     1
175
     1
 42
1.0
 92
        8
 66
     8
 43
1.0
 76
     1
 77
     6
 78
     2
 67
     7
 79
     5
170
     0
171
     0
290
     0
174
     0
 93
       13
 44
0.0
173
     0
291
     0
 45
0.0
1001
ACAD
1000
AcDbSavedByObjectVersion
1070
     0
  0
VISUALSTYLE
  5
37
102
{ACAD_REACTORS
330
2A
102
}
330
2A
100
AcDbVisualStyle
  2
Thicken
 70
    13
 71
     2
 72
     2
 73
     0
 90
        0
 40
-0.6
 41
-30.0
 62
     5
 63
     7
 74
     1
 91
        4
 64
     7
 65
   257
 75
     1
175
     1
 42
1.0
 92
       12
 66
     7
 43
1.0
 76
     1
 77
     6
 78
     2
 67
     7
 79
     5
170
     0
171
     0
290
     0
174
     0
 93
        1
 44
0.0
173
     0
291
     1
 45
0.0
1001
ACAD
1000
AcDbSavedByObjectVersion
1070
     0
  0
ENDSEC
  0
EOF
