  0
SECTION
  2
HEADER
  9
$ACADVER
  1
AC1012
  9
$DWGCODEPAGE
  3
ansi_1252
  9
$INSBASE
 10
0.0
 20
0.0
 30
0.0
  9
$EXTMIN
 10
1.000000000000000E+20
 20
1.000000000000000E+20
 30
1.000000000000000E+20
  9
$EXTMAX
 10
-1.000000000000000E+20
 20
-1.000000000000000E+20
 30
-1.000000000000000E+20
  9
$LIMMIN
 10
0.0
 20
0.0
  9
$LIMMAX
 10
12.0
 20
9.0
  9
$ORTHOMODE
 70
     0
  9
$REGENMODE
 70
     1
  9
$FILLMODE
 70
     1
  9
$QTEXTMODE
 70
     0
  9
$MIRRTEXT
 70
     1
  9
$DRAGMODE
 70
     2
  9
$LTSCALE
 40
1.0
  9
$OSMODE
 70
    37
  9
$ATTMODE
 70
     1
  9
$TEXTSIZE
 40
0.2
  9
$TRACEWID
 40
0.05
  9
$TEXTSTYLE
  7
STANDARD
  9
$CLAYER
  8
0
  9
$CELTYPE
  6
BYLAYER
  9
$CECOLOR
 62
   256
  9
$CELTSCALE
 40
1.0
  9
$DELOBJ
 70
     1
  9
$DISPSILH
 70
     0
  9
$DIMSCALE
 40
1.0
  9
$DIMASZ
 40
0.18
  9
$DIMEXO
 40
0.0625
  9
$DIMDLI
 40
0.38
  9
$DIMRND
 40
0.0
  9
$DIMDLE
 40
0.0
  9
$DIMEXE
 40
0.18
  9
$DIMTP
 40
0.0
  9
$DIMTM
 40
0.0
  9
$DIMTXT
 40
0.18
  9
$DIMCEN
 40
0.09
  9
$DIMTSZ
 40
0.0
  9
$DIMTOL
 70
     0
  9
$DIMLIM
 70
     0
  9
$DIMTIH
 70
     1
  9
$DIMTOH
 70
     1
  9
$DIMSE1
 70
     0
  9
$DIMSE2
 70
     0
  9
$DIMTAD
 70
     0
  9
$DIMZIN
 70
     0
  9
$DIMBLK
  1

  9
$DIMASO
 70
     1
  9
$DIMSHO
 70
     1
  9
$DIMPOST
  1

  9
$DIMAPOST
  1

  9
$DIMALT
 70
     0
  9
$DIMALTD
 70
     2
  9
$DIMALTF
 40
25.4
  9
$DIMLFAC
 40
1.0
  9
$DIMTOFL
 70
     0
  9
$DIMTVP
 40
0.0
  9
$DIMTIX
 70
     0
  9
$DIMSOXD
 70
     0
  9
$DIMSAH
 70
     0
  9
$DIMBLK1
  1

  9
$DIMBLK2
  1

  9
$DIMSTYLE
  2
STANDARD
  9
$DIMCLRD
 70
     0
  9
$DIMCLRE
 70
     0
  9
$DIMCLRT
 70
     0
  9
$DIMTFAC
 40
1.0
  9
$DIMGAP
 40
0.09
  9
$DIMJUST
 70
     0
  9
$DIMSD1
 70
     0
  9
$DIMSD2
 70
     0
  9
$DIMTOLJ
 70
     1
  9
$DIMTZIN
 70
     0
  9
$DIMALTZ
 70
     0
  9
$DIMALTTZ
 70
     0
  9
$DIMFIT
 70
     3
  9
$DIMUPT
 70
     0
  9
$DIMUNIT
 70
     2
  9
$DIMDEC
 70
     4
  9
$DIMTDEC
 70
     4
  9
$DIMALTU
 70
     2
  9
$DIMALTTD
 70
     2
  9
$DIMTXSTY
  7
STANDARD
  9
$DIMAUNIT
 70
     0
  9
$LUNITS
 70
     2
  9
$LUPREC
 70
     4
  9
$SKETCHINC
 40
0.1
  9
$FILLETRAD
 40
0.5
  9
$AUNITS
 70
     0
  9
$AUPREC
 70
     0
  9
$MENU
  1
.
  9
$ELEVATION
 40
0.0
  9
$PELEVATION
 40
0.0
  9
$THICKNESS
 40
0.0
  9
$LIMCHECK
 70
     0
  9
$CHAMFERA
 40
0.5
  9
$CHAMFERB
 40
0.5
  9
$CHAMFERC
 40
1.0
  9
$CHAMFERD
 40
0.0
  9
$SKPOLY
 70
     0
  9
$TDCREATE
 40
2456546.541428079
  9
$TDUPDATE
 40
2456546.54142809
  9
$TDINDWG
 40
0.0000000116
  9
$TDUSRTIMER
 40
0.0000000116
  9
$USRTIMER
 70
     1
  9
$ANGBASE
 50
0.0
  9
$ANGDIR
 70
     0
  9
$PDMODE
 70
     0
  9
$PDSIZE
 40
0.0
  9
$PLINEWID
 40
0.0
  9
$COORDS
 70
     1
  9
$SPLFRAME
 70
     0
  9
$SPLINETYPE
 70
     6
  9
$SPLINESEGS
 70
     8
  9
$ATTDIA
 70
     0
  9
$ATTREQ
 70
     1
  9
$HANDLING
 70
     1
  9
$HANDSEED
  5
4F
  9
$SURFTAB1
 70
     6
  9
$SURFTAB2
 70
     6
  9
$SURFTYPE
 70
     6
  9
$SURFU
 70
     6
  9
$SURFV
 70
     6
  9
$UCSNAME
  2

  9
$UCSORG
 10
0.0
 20
0.0
 30
0.0
  9
$UCSXDIR
 10
1.0
 20
0.0
 30
0.0
  9
$UCSYDIR
 10
0.0
 20
1.0
 30
0.0
  9
$PUCSNAME
  2

  9
$PUCSORG
 10
0.0
 20
0.0
 30
0.0
  9
$PUCSXDIR
 10
1.0
 20
0.0
 30
0.0
  9
$PUCSYDIR
 10
0.0
 20
1.0
 30
0.0
  9
$USERI1
 70
     0
  9
$USERI2
 70
     0
  9
$USERI3
 70
     0
  9
$USERI4
 70
     0
  9
$USERI5
 70
     0
  9
$USERR1
 40
0.0
  9
$USERR2
 40
0.0
  9
$USERR3
 40
0.0
  9
$USERR4
 40
0.0
  9
$USERR5
 40
0.0
  9
$WORLDVIEW
 70
     1
  9
$SHADEDGE
 70
     3
  9
$SHADEDIF
 70
    70
  9
$TILEMODE
 70
     1
  9
$MAXACTVP
 70
    64
  9
$PINSBASE
 10
0.0
 20
0.0
 30
0.0
  9
$PLIMCHECK
 70
     0
  9
$PEXTMIN
 10
1.000000000000000E+20
 20
1.000000000000000E+20
 30
1.000000000000000E+20
  9
$PEXTMAX
 10
-1.000000000000000E+20
 20
-1.000000000000000E+20
 30
-1.000000000000000E+20
  9
$PLIMMIN
 10
0.0
 20
0.0
  9
$PLIMMAX
 10
12.0
 20
9.0
  9
$UNITMODE
 70
     0
  9
$VISRETAIN
 70
     1
  9
$PLINEGEN
 70
     0
  9
$PSLTSCALE
 70
     1
  9
$TREEDEPTH
 70
  3020
  9
$PICKSTYLE
 70
     1
  9
$CMLSTYLE
  2
STANDARD
  9
$CMLJUST
 70
     0
  9
$CMLSCALE
 40
1.0
  9
$SAVEIMAGES
 70
     1
  0
ENDSEC
  0
SECTION
  2
CLASSES
  0
CLASS
  1
ACDBDICTIONARYWDFLT
  2
AcDbDictionaryWithDefault
  3
ObjectDBX Classes
 90
    32768
280
     0
281
     0
  0
CLASS
  1
VISUALSTYLE
  2
AcDbVisualStyle
  3
ObjectDBX Classes
 90
     4095
280
     0
281
     0
  0
CLASS
  1
XRECORD
  2
AcDbXrecord
  3
AutoCAD 2000
 90
    32768
280
     0
281
     0
  0
CLASS
  1
LWPOLYLINE
  2
AcDbPolyline
  3
AutoCAD 2000
 90
    32768
280
     0
281
     1
  0
CLASS
  1
HATCH
  2
AcDbHatch
  3
AutoCAD 2000
 90
    32768
280
     0
281
     1
  0
CLASS
  1
ACDBPLACEHOLDER
  2
AcDbPlaceHolder
  3
ObjectDBX Classes
 90
        0
280
     0
281
     0
  0
CLASS
  1
LAYOUT
  2
AcDbLayout
  3
ObjectDBX Classes
 90
        0
280
     0
281
     0
  0
ENDSEC
  0
SECTION
  2
TABLES
  0
TABLE
  2
VPORT
  5
8
330
0
100
AcDbSymbolTable
 70
     1
  0
VPORT
  5
29
330
8
100
AcDbSymbolTableRecord
100
AcDbViewportTableRecord
  2
*ACTIVE
 70
     0
 10
0.0
 20
0.0
 11
1.0
 21
1.0
 12
0.0
 22
0.0
 13
0.0
 23
0.0
 14
0.5
 24
0.5
 15
0.5
 25
0.5
 16
0.0
 26
0.0
 36
1.0
 17
249.9995550590279
 27
-105.0008259828644
 37
0.0
 40
210.0016519657288
 41
2.380929413829817
 42
50.0
 43
0.0
 44
0.0
 50
0.0
 51
0.0
 71
     0
 72
   100
 73
     1
 74
     3
 75
     0
 76
     0
 77
     0
 78
     0
  0
ENDTAB
  0
TABLE
  2
LTYPE
  5
5
330
0
100
AcDbSymbolTable
 70
     1
  0
LTYPE
  5
14
330
5
100
AcDbSymbolTableRecord
100
AcDbLinetypeTableRecord
  2
BYBLOCK
 70
     0
  3

 72
    65
 73
     0
 40
0.0
  0
LTYPE
  5
15
330
5
100
AcDbSymbolTableRecord
100
AcDbLinetypeTableRecord
  2
BYLAYER
 70
     0
  3

 72
    65
 73
     0
 40
0.0
  0
LTYPE
  5
16
330
5
100
AcDbSymbolTableRecord
100
AcDbLinetypeTableRecord
  2
CONTINUOUS
 70
     0
  3
Solid line
 72
    65
 73
     0
 40
0.0
  0
ENDTAB
  0
TABLE
  2
LAYER
  5
2
330
0
100
AcDbSymbolTable
 70
     2
  0
LAYER
  5
10
330
2
100
AcDbSymbolTableRecord
100
AcDbLayerTableRecord
  2
0
 70
     0
 62
     7
  6
CONTINUOUS
  0
LAYER
  5
3B
330
2
100
AcDbSymbolTableRecord
100
AcDbLayerTableRecord
  2
LAYER_1
 70
     0
 62
     7
  6
CONTINUOUS
  0
ENDTAB
  0
TABLE
  2
STYLE
  5
3
330
0
100
AcDbSymbolTable
 70
     1
  0
STYLE
  5
11
330
3
100
AcDbSymbolTableRecord
100
AcDbTextStyleTableRecord
  2
STANDARD
 70
     0
 40
0.0
 41
1.0
 50
0.0
 71
     0
 42
0.2
  3
txt
  4

  0
ENDTAB
  0
TABLE
  2
VIEW
  5
6
330
0
100
AcDbSymbolTable
 70
     0
  0
ENDTAB
  0
TABLE
  2
UCS
  5
7
330
0
100
AcDbSymbolTable
 70
     0
  0
ENDTAB
  0
TABLE
  2
APPID
  5
9
330
0
100
AcDbSymbolTable
 70
     1
  0
APPID
  5
12
330
9
100
AcDbSymbolTableRecord
100
AcDbRegAppTableRecord
  2
ACAD
 70
     0
  0
ENDTAB
  0
TABLE
  2
DIMSTYLE
  5
A
330
0
100
AcDbSymbolTable
 70
     1
  0
DIMSTYLE
105
27
330
A
100
AcDbSymbolTableRecord
100
AcDbDimStyleTableRecord
  2
STANDARD
 70
     0
  3

  4

  5

  6

  7

 40
1.0
 41
0.18
 42
0.0625
 43
0.38
 44
0.18
 45
0.0
 46
0.0
 47
0.0
 48
0.0
140
0.18
141
0.09
142
0.0
143
25.4
144
1.0
145
0.0
146
1.0
147
0.09
 71
     0
 72
     0
 73
     1
 74
     1
 75
     0
 76
     0
 77
     0
 78
     0
170
     0
171
     2
172
     0
173
     0
174
     0
175
     0
176
     0
177
     0
178
     0
270
     2
271
     4
272
     4
273
     2
274
     2
340
11
275
     0
280
     0
281
     0
282
     0
283
     1
284
     0
285
     0
286
     0
287
     3
288
     0
  0
ENDTAB
  0
TABLE
  2
BLOCK_RECORD
  5
1
330
0
100
AcDbSymbolTable
 70
     1
  0
BLOCK_RECORD
  5
1F
330
1
100
AcDbSymbolTableRecord
100
AcDbBlockTableRecord
  2
*MODEL_SPACE
  0
BLOCK_RECORD
  5
1B
330
1
100
AcDbSymbolTableRecord
100
AcDbBlockTableRecord
  2
*PAPER_SPACE
  0
ENDTAB
  0
ENDSEC
  0
SECTION
  2
BLOCKS
  0
BLOCK
  5
20
330
1F
100
AcDbEntity
  8
0
100
AcDbBlockBegin
  2
*MODEL_SPACE
 70
     0
 71
     0
 10
0.0
 20
0.0
 30
0.0
  3
*MODEL_SPACE
  1

  0
ENDBLK
  5
21
330
1F
100
AcDbEntity
  8
0
100
AcDbBlockEnd
  0
BLOCK
  5
1C
330
1B
100
AcDbEntity
 67
     1
  8
0
100
AcDbBlockBegin
  2
*PAPER_SPACE
 70
     0
 71
     0
 10
0.0
 20
0.0
 30
0.0
  3
*PAPER_SPACE
  1

  0
ENDBLK
  5
1D
330
1B
100
AcDbEntity
 67
     1
  8
0
100
AcDbBlockEnd
  0
ENDSEC
  0
SECTION
  2
ENTITIES
  0
SPLINE
  5
3C
330
1F
100
AcDbEntity
  8
LAYER_1
 62
   250
100
AcDbSpline
210
0.0
220
0.0
230
1.0
 70
    11
 71
     3
 72
    17
 73
    13
 74
     0
 42
0.0000000001
 43
0.0000000001
 40
0.0
 40
0.0
 40
0.0
 40
0.0
 40
1.0
 40
1.0
 40
1.0
 40
2.0
 40
2.0
 40
2.0
 40
3.0
 40
3.0
 40
3.0
 40
4.0
 40
4.0
 40
4.0
 40
4.0
 10
35.0001030728472
 20
34.99975856329867
 30
0.0
 10
35.0001030728472
 20
27.26758625620394
 30
0.0
 10
28.73192409220938
 20
20.99992403988891
 30
0.0
 10
21.00026854943743
 20
20.99992403988891
 30
0.0
 10
13.26826849711696
 20
20.99992403988891
 30
0.0
 10
7.000089516479145
 20
27.26758625620394
 30
0.0
 10
7.000089516479145
 20
34.99975856329867
 30
0.0
 10
7.000089516479145
 20
42.73158636084489
 30
0.0
 10
13.26826849711696
 20
48.99959308670844
 30
0.0
 10
21.00026854943743
 20
48.99959308670844
 30
0.0
 10
28.73192409220938
 20
48.99959308670844
 30
0.0
 10
35.0001030728472
 20
42.73158636084489
 30
0.0
 10
35.0001030728472
 20
34.99975856329867
 30
0.0
  0
SPLINE
  5
3D
330
1F
100
AcDbEntity
  8
LAYER_1
 62
   250
100
AcDbSpline
210
0.0
220
0.0
230
1.0
 70
    11
 71
     3
 72
    17
 73
    13
 74
     0
 42
0.0000000001
 43
0.0000000001
 40
0.0
 40
0.0
 40
0.0
 40
0.0
 40
1.0
 40
1.0
 40
1.0
 40
2.0
 40
2.0
 40
2.0
 40
3.0
 40
3.0
 40
3.0
 40
4.0
 40
4.0
 40
4.0
 40
4.0
 10
38.00009222140276
 20
50.49941540621195
 30
0.0
 10
38.00009222140276
 20
49.67104219678363
 30
0.0
 10
37.32864311132757
 20
48.99924857715991
 30
0.0
 10
36.50009764712497
 20
48.99924857715991
 30
0.0
 10
35.67189669247092
 20
48.99924857715991
 30
0.0
 10
35.0001030728472
 20
49.67104219678363
 30
0.0
 10
35.0001030728472
 20
50.49941540621195
 30
0.0
 10
35.0001030728472
 20
51.32778861564028
 30
0.0
 10
35.67189669247092
 20
51.99940998048973
 30
0.0
 10
36.50009764712497
 20
51.99940998048973
 30
0.0
 10
37.32864311132757
 20
51.99940998048973
 30
0.0
 10
38.00009222140276
 20
51.32778861564028
 30
0.0
 10
38.00009222140276
 20
50.49941540621195
 30
0.0
  0
SPLINE
  5
3E
330
1F
100
AcDbEntity
  8
LAYER_1
 62
   250
100
AcDbSpline
210
0.0
220
0.0
230
1.0
 70
    11
 71
     3
 72
    17
 73
    13
 74
     0
 42
0.0000000001
 43
0.0000000001
 40
0.0
 40
0.0
 40
0.0
 40
0.0
 40
1.0
 40
1.0
 40
1.0
 40
2.0
 40
2.0
 40
2.0
 40
3.0
 40
3.0
 40
3.0
 40
4.0
 40
4.0
 40
4.0
 40
4.0
 10
39.50008679568054
 20
50.49958766098622
 30
0.0
 10
39.50008679568054
 20
48.84266898735531
 30
0.0
 10
38.15718857553015
 20
47.49890949333361
 30
0.0
 10
36.5004421566735
 20
47.49890949333361
 30
0.0
 10
34.84369573781686
 20
47.49890949333361
 30
0.0
 10
33.50010849856942
 20
48.84266898735531
 30
0.0
 10
33.50010849856942
 20
50.49958766098622
 30
0.0
 10
33.50010849856942
 20
52.15633407984286
 30
0.0
 10
34.84369573781686
 20
53.49974906431603
 30
0.0
 10
36.5004421566735
 20
53.49974906431603
 30
0.0
 10
38.15718857553015
 20
53.49974906431603
 30
0.0
 10
39.50008679568054
 20
52.15633407984286
 30
0.0
 10
39.50008679568054
 20
50.49958766098622
 30
0.0
  0
SPLINE
  5
3F
330
1F
100
AcDbEntity
  8
LAYER_1
 62
   250
100
AcDbSpline
210
0.0
220
0.0
230
1.0
 70
    11
 71
     3
 72
    17
 73
    13
 74
     0
 42
0.0000000001
 43
0.0000000001
 40
0.0
 40
0.0
 40
0.0
 40
0.0
 40
1.0
 40
1.0
 40
1.0
 40
2.0
 40
2.0
 40
2.0
 40
3.0
 40
3.0
 40
3.0
 40
4.0
 40
4.0
 40
4.0
 40
4.0
 10
7.000089516479145
 20
50.49941540621195
 30
0.0
 10
7.000089516479145
 20
49.67104219678363
 30
0.0
 10
6.328640406403951
 20
48.99924857715991
 30
0.0
 10
5.500267196975628
 20
48.99924857715991
 30
0.0
 10
4.671893987547304
 20
48.99924857715991
 30
0.0
 10
4.000272622697849
 20
49.67104219678363
 30
0.0
 10
4.000272622697849
 20
50.49941540621195
 30
0.0
 10
4.000272622697849
 20
51.32778861564028
 30
0.0
 10
4.671893987547304
 20
51.99940998048973
 30
0.0
 10
5.500267196975628
 20
51.99940998048973
 30
0.0
 10
6.328640406403951
 20
51.99940998048973
 30
0.0
 10
7.000089516479145
 20
51.32778861564028
 30
0.0
 10
7.000089516479145
 20
50.49941540621195
 30
0.0
  0
SPLINE
  5
40
330
1F
100
AcDbEntity
  8
LAYER_1
 62
   250
100
AcDbSpline
210
0.0
220
0.0
230
1.0
 70
    11
 71
     3
 72
    17
 73
    13
 74
     0
 42
0.0000000001
 43
0.0000000001
 40
0.0
 40
0.0
 40
0.0
 40
0.0
 40
1.0
 40
1.0
 40
1.0
 40
2.0
 40
2.0
 40
2.0
 40
3.0
 40
3.0
 40
3.0
 40
4.0
 40
4.0
 40
4.0
 40
4.0
 10
8.500256345531186
 20
50.49958766098622
 30
0.0
 10
8.500256345531186
 20
48.84266898735531
 30
0.0
 10
7.157185870606537
 20
47.49890949333361
 30
0.0
 10
5.50043945174989
 20
47.49890949333361
 30
0.0
 10
3.843520778118981
 20
47.49890949333361
 30
0.0
 10
2.500105793645807
 20
48.84266898735531
 30
0.0
 10
2.500105793645807
 20
50.49958766098622
 30
0.0
 10
2.500105793645807
 20
52.15633407984286
 30
0.0
 10
3.843520778118981
 20
53.49974906431603
 30
0.0
 10
5.50043945174989
 20
53.49974906431603
 30
0.0
 10
7.157185870606537
 20
53.49974906431603
 30
0.0
 10
8.500256345531186
 20
52.15633407984286
 30
0.0
 10
8.500256345531186
 20
50.49958766098622
 30
0.0
  0
SPLINE
  5
41
330
1F
100
AcDbEntity
  8
LAYER_1
 62
   250
100
AcDbSpline
210
0.0
220
0.0
230
1.0
 70
    11
 71
     3
 72
    17
 73
    13
 74
     0
 42
0.0000000001
 43
0.0000000001
 40
0.0
 40
0.0
 40
0.0
 40
0.0
 40
1.0
 40
1.0
 40
1.0
 40
2.0
 40
2.0
 40
2.0
 40
3.0
 40
3.0
 40
3.0
 40
4.0
 40
4.0
 40
4.0
 40
4.0
 10
38.00009222140276
 20
19.49992946561113
 30
0.0
 10
38.00009222140276
 20
18.67138400140854
 30
0.0
 10
37.32864311132757
 20
17.99959038178482
 30
0.0
 10
36.50009764712497
 20
17.99959038178482
 30
0.0
 10
35.67189669247092
 20
17.99959038178482
 30
0.0
 10
35.0001030728472
 20
18.67138400140854
 30
0.0
 10
35.0001030728472
 20
19.49992946561113
 30
0.0
 10
35.0001030728472
 20
20.32847492981372
 30
0.0
 10
35.67189669247092
 20
20.99992403988891
 30
0.0
 10
36.50009764712497
 20
20.99992403988891
 30
0.0
 10
37.32864311132757
 20
20.99992403988891
 30
0.0
 10
38.00009222140276
 20
20.32847492981372
 30
0.0
 10
38.00009222140276
 20
19.49992946561113
 30
0.0
  0
SPLINE
  5
42
330
1F
100
AcDbEntity
  8
LAYER_1
 62
   250
100
AcDbSpline
210
0.0
220
0.0
230
1.0
 70
    11
 71
     3
 72
    17
 73
    13
 74
     0
 42
0.0000000001
 43
0.0000000001
 40
0.0
 40
0.0
 40
0.0
 40
0.0
 40
1.0
 40
1.0
 40
1.0
 40
2.0
 40
2.0
 40
2.0
 40
3.0
 40
3.0
 40
3.0
 40
4.0
 40
4.0
 40
4.0
 40
4.0
 10
39.50008679568054
 20
19.50027397515965
 30
0.0
 10
39.50008679568054
 20
17.84283853720596
 30
0.0
 10
38.15718857553015
 20
16.49925129795852
 30
0.0
 10
36.5004421566735
 20
16.49925129795852
 30
0.0
 10
34.84369573781686
 20
16.49925129795852
 30
0.0
 10
33.50010849856942
 20
17.84283853720596
 30
0.0
 10
33.50010849856942
 20
19.50027397515965
 30
0.0
 10
33.50010849856942
 20
21.15736490356483
 30
0.0
 10
34.84369573781686
 20
22.50026312371521
 30
0.0
 10
36.5004421566735
 20
22.50026312371521
 30
0.0
 10
38.15718857553015
 20
22.50026312371521
 30
0.0
 10
39.50008679568054
 20
21.15736490356483
 30
0.0
 10
39.50008679568054
 20
19.50027397515965
 30
0.0
  0
SPLINE
  5
43
330
1F
100
AcDbEntity
  8
LAYER_1
 62
   250
100
AcDbSpline
210
0.0
220
0.0
230
1.0
 70
    11
 71
     3
 72
    17
 73
    13
 74
     0
 42
0.0000000001
 43
0.0000000001
 40
0.0
 40
0.0
 40
0.0
 40
0.0
 40
1.0
 40
1.0
 40
1.0
 40
2.0
 40
2.0
 40
2.0
 40
3.0
 40
3.0
 40
3.0
 40
4.0
 40
4.0
 40
4.0
 40
4.0
 10
7.000089516479145
 20
19.49958495606261
 30
0.0
 10
7.000089516479145
 20
18.67138400140854
 30
0.0
 10
6.328640406403951
 20
17.99959038178482
 30
0.0
 10
5.500267196975628
 20
17.99959038178482
 30
0.0
 10
4.671893987547304
 20
17.99959038178482
 30
0.0
 10
4.000272622697849
 20
18.67138400140854
 30
0.0
 10
4.000272622697849
 20
19.49958495606261
 30
0.0
 10
4.000272622697849
 20
20.32813042026519
 30
0.0
 10
4.671893987547304
 20
20.99957953034038
 30
0.0
 10
5.500267196975628
 20
20.99957953034038
 30
0.0
 10
6.328640406403951
 20
20.99957953034038
 30
0.0
 10
7.000089516479145
 20
20.32813042026519
 30
0.0
 10
7.000089516479145
 20
19.49958495606261
 30
0.0
  0
SPLINE
  5
44
330
1F
100
AcDbEntity
  8
LAYER_1
 62
   250
100
AcDbSpline
210
0.0
220
0.0
230
1.0
 70
    11
 71
     3
 72
    17
 73
    13
 74
     0
 42
0.0000000001
 43
0.0000000001
 40
0.0
 40
0.0
 40
0.0
 40
0.0
 40
1.0
 40
1.0
 40
1.0
 40
2.0
 40
2.0
 40
2.0
 40
3.0
 40
3.0
 40
3.0
 40
4.0
 40
4.0
 40
4.0
 40
4.0
 10
8.500256345531186
 20
19.49958495606261
 30
0.0
 10
8.500256345531186
 20
17.84318304675448
 30
0.0
 10
7.157185870606537
 20
16.49925129795852
 30
0.0
 10
5.50043945174989
 20
16.49925129795852
 30
0.0
 10
3.843520778118981
 20
16.49925129795852
 30
0.0
 10
2.500105793645807
 20
17.84318304675448
 30
0.0
 10
2.500105793645807
 20
19.49958495606261
 30
0.0
 10
2.500105793645807
 20
21.15667588446778
 30
0.0
 10
3.843520778118981
 20
22.49957410461816
 30
0.0
 10
5.50043945174989
 20
22.49957410461816
 30
0.0
 10
7.157185870606537
 20
22.49957410461816
 30
0.0
 10
8.500256345531186
 20
21.15667588446778
 30
0.0
 10
8.500256345531186
 20
19.49958495606261
 30
0.0
  0
SPLINE
  5
45
330
1F
100
AcDbEntity
  8
LAYER_1
 62
   250
100
AcDbSpline
210
0.0
220
0.0
230
1.0
 70
    11
 71
     3
 72
    17
 73
    13
 74
     0
 42
0.0000000001
 43
0.0000000001
 40
0.0
 40
0.0
 40
0.0
 40
0.0
 40
1.0
 40
1.0
 40
1.0
 40
2.0
 40
2.0
 40
2.0
 40
3.0
 40
3.0
 40
3.0
 40
4.0
 40
4.0
 40
4.0
 40
4.0
 10
56.50025497719438
 20
59.99978297111117
 30
0.0
 10
56.50025497719438
 20
58.6191609553973
 30
0.0
 10
55.38128796358524
 20
57.49933266791684
 30
0.0
 10
54.0004936930971
 20
57.49933266791684
 30
0.0
 10
52.61969942260897
 20
57.49933266791684
 30
0.0
 10
51.50004338990277
 20
58.6191609553973
 30
0.0
 10
51.50004338990277
 20
59.99978297111117
 30
0.0
 10
51.50004338990277
 20
61.3805772415993
 30
0.0
 10
52.61969942260897
 20
62.50006101953124
 30
0.0
 10
54.0004936930971
 20
62.50006101953124
 30
0.0
 10
55.38128796358524
 20
62.50006101953124
 30
0.0
 10
56.50025497719438
 20
61.3805772415993
 30
0.0
 10
56.50025497719438
 20
59.99978297111117
 30
0.0
  0
SPLINE
  5
46
330
1F
100
AcDbEntity
  8
LAYER_1
 62
   250
100
AcDbSpline
210
0.0
220
0.0
230
1.0
 70
    11
 71
     3
 72
    17
 73
    13
 74
     0
 42
0.0000000001
 43
0.0000000001
 40
0.0
 40
0.0
 40
0.0
 40
0.0
 40
1.0
 40
1.0
 40
1.0
 40
2.0
 40
2.0
 40
2.0
 40
3.0
 40
3.0
 40
3.0
 40
4.0
 40
4.0
 40
4.0
 40
4.0
 10
59.00001626129166
 20
59.99995522588543
 30
0.0
 10
59.00001626129166
 20
57.23871119445769
 30
0.0
 10
56.76208223407337
 20
54.99905461949677
 30
0.0
 10
54.0004936930971
 20
54.99905461949677
 30
0.0
 10
51.23924966166935
 20
54.99905461949677
 30
0.0
 10
49.00028210580549
 20
57.23871119445769
 30
0.0
 10
49.00028210580549
 20
59.99995522588543
 30
0.0
 10
49.00028210580549
 20
62.76137151208744
 30
0.0
 10
51.23924966166935
 20
65.0003390679513
 30
0.0
 10
54.0004936930971
 20
65.0003390679513
 30
0.0
 10
56.76208223407337
 20
65.0003390679513
 30
0.0
 10
59.00001626129166
 20
62.76137151208744
 30
0.0
 10
59.00001626129166
 20
59.99995522588543
 30
0.0
  0
SPLINE
  5
47
330
1F
100
AcDbEntity
  8
LAYER_1
 62
   250
100
AcDbSpline
210
0.0
220
0.0
230
1.0
 70
    11
 71
     3
 72
    17
 73
    13
 74
     0
 42
0.0000000001
 43
0.0000000001
 40
0.0
 40
0.0
 40
0.0
 40
0.0
 40
1.0
 40
1.0
 40
1.0
 40
2.0
 40
2.0
 40
2.0
 40
3.0
 40
3.0
 40
3.0
 40
4.0
 40
4.0
 40
4.0
 40
4.0
 10
56.50025497719438
 20
43.3331000325695
 30
0.0
 10
56.50025497719438
 20
41.95247801685563
 30
0.0
 10
55.38128796358524
 20
40.83264972937517
 30
0.0
 10
54.0004936930971
 20
40.83264972937517
 30
0.0
 10
52.61969942260897
 20
40.83264972937517
 30
0.0
 10
51.50004338990277
 20
41.95247801685563
 30
0.0
 10
51.50004338990277
 20
43.3331000325695
 30
0.0
 10
51.50004338990277
 20
44.71389430305764
 30
0.0
 10
52.61969942260897
 20
45.83337808098958
 30
0.0
 10
54.0004936930971
 20
45.83337808098958
 30
0.0
 10
55.38128796358524
 20
45.83337808098958
 30
0.0
 10
56.50025497719438
 20
44.71389430305764
 30
0.0
 10
56.50025497719438
 20
43.3331000325695
 30
0.0
  0
SPLINE
  5
48
330
1F
100
AcDbEntity
  8
LAYER_1
 62
   250
100
AcDbSpline
210
0.0
220
0.0
230
1.0
 70
    11
 71
     3
 72
    17
 73
    13
 74
     0
 42
0.0000000001
 43
0.0000000001
 40
0.0
 40
0.0
 40
0.0
 40
0.0
 40
1.0
 40
1.0
 40
1.0
 40
2.0
 40
2.0
 40
2.0
 40
3.0
 40
3.0
 40
3.0
 40
4.0
 40
4.0
 40
4.0
 40
4.0
 10
59.00001626129166
 20
43.3331000325695
 30
0.0
 10
59.00001626129166
 20
40.57202825591602
 30
0.0
 10
56.76208223407337
 20
38.33237168095511
 30
0.0
 10
54.0004936930971
 20
38.33237168095511
 30
0.0
 10
51.23924966166935
 20
38.33237168095511
 30
0.0
 10
49.00028210580549
 20
40.57202825591602
 30
0.0
 10
49.00028210580549
 20
43.3331000325695
 30
0.0
 10
49.00028210580549
 20
46.09468857354577
 30
0.0
 10
51.23924966166935
 20
48.33365612940965
 30
0.0
 10
54.0004936930971
 20
48.33365612940965
 30
0.0
 10
56.76208223407337
 20
48.33365612940965
 30
0.0
 10
59.00001626129166
 20
46.09468857354577
 30
0.0
 10
59.00001626129166
 20
43.3331000325695
 30
0.0
  0
SPLINE
  5
49
330
1F
100
AcDbEntity
  8
LAYER_1
 62
   250
100
AcDbSpline
210
0.0
220
0.0
230
1.0
 70
    11
 71
     3
 72
    17
 73
    13
 74
     0
 42
0.0000000001
 43
0.0000000001
 40
0.0
 40
0.0
 40
0.0
 40
0.0
 40
1.0
 40
1.0
 40
1.0
 40
2.0
 40
2.0
 40
2.0
 40
3.0
 40
3.0
 40
3.0
 40
4.0
 40
4.0
 40
4.0
 40
4.0
 10
56.50025497719438
 20
26.66641709402784
 30
0.0
 10
56.50025497719438
 20
25.28596733308823
 30
0.0
 10
55.38128796358524
 20
24.16596679083351
 30
0.0
 10
54.0004936930971
 20
24.16596679083351
 30
0.0
 10
52.61969942260897
 20
24.16596679083351
 30
0.0
 10
51.50004338990277
 20
25.28596733308823
 30
0.0
 10
51.50004338990277
 20
26.66641709402784
 30
0.0
 10
51.50004338990277
 20
28.04721136451598
 30
0.0
 10
52.61969942260897
 20
29.16686739722217
 30
0.0
 10
54.0004936930971
 20
29.16686739722217
 30
0.0
 10
55.38128796358524
 20
29.16686739722217
 30
0.0
 10
56.50025497719438
 20
28.04721136451598
 30
0.0
 10
56.50025497719438
 20
26.66641709402784
 30
0.0
  0
SPLINE
  5
4A
330
1F
100
AcDbEntity
  8
LAYER_1
 62
   250
100
AcDbSpline
210
0.0
220
0.0
230
1.0
 70
    11
 71
     3
 72
    17
 73
    13
 74
     0
 42
0.0000000001
 43
0.0000000001
 40
0.0
 40
0.0
 40
0.0
 40
0.0
 40
1.0
 40
1.0
 40
1.0
 40
2.0
 40
2.0
 40
2.0
 40
3.0
 40
3.0
 40
3.0
 40
4.0
 40
4.0
 40
4.0
 40
4.0
 10
59.00001626129166
 20
26.66641709402784
 30
0.0
 10
59.00001626129166
 20
23.90551757214862
 30
0.0
 10
56.76208223407337
 20
21.66551648763918
 30
0.0
 10
54.0004936930971
 20
21.66551648763918
 30
0.0
 10
51.23924966166935
 20
21.66551648763918
 30
0.0
 10
49.00028210580549
 20
23.90551757214862
 30
0.0
 10
49.00028210580549
 20
26.66641709402784
 30
0.0
 10
49.00028210580549
 20
29.42800563500411
 30
0.0
 10
51.23924966166935
 20
31.6673177004165
 30
0.0
 10
54.0004936930971
 20
31.6673177004165
 30
0.0
 10
56.76208223407337
 20
31.6673177004165
 30
0.0
 10
59.00001626129166
 20
29.42800563500411
 30
0.0
 10
59.00001626129166
 20
26.66641709402784
 30
0.0
  0
SPLINE
  5
4B
330
1F
100
AcDbEntity
  8
LAYER_1
 62
   250
100
AcDbSpline
210
0.0
220
0.0
230
1.0
 70
    11
 71
     3
 72
    17
 73
    13
 74
     0
 42
0.0000000001
 43
0.0000000001
 40
0.0
 40
0.0
 40
0.0
 40
0.0
 40
1.0
 40
1.0
 40
1.0
 40
2.0
 40
2.0
 40
2.0
 40
3.0
 40
3.0
 40
3.0
 40
4.0
 40
4.0
 40
4.0
 40
4.0
 10
56.50025497719438
 20
9.999734155486179
 30
0.0
 10
56.50025497719438
 20
8.619284394546568
 30
0.0
 10
55.38128796358524
 20
7.499283852291846
 30
0.0
 10
54.0004936930971
 20
7.499283852291846
 30
0.0
 10
52.61969942260897
 20
7.499283852291846
 30
0.0
 10
51.50004338990277
 20
8.619284394546568
 30
0.0
 10
51.50004338990277
 20
9.999734155486179
 30
0.0
 10
51.50004338990277
 20
11.38052842597431
 30
0.0
 10
52.61969942260897
 20
12.50018445868051
 30
0.0
 10
54.0004936930971
 20
12.50018445868051
 30
0.0
 10
55.38128796358524
 20
12.50018445868051
 30
0.0
 10
56.50025497719438
 20
11.38052842597431
 30
0.0
 10
56.50025497719438
 20
9.999734155486179
 30
0.0
  0
SPLINE
  5
4C
330
1F
100
AcDbEntity
  8
LAYER_1
 62
   250
100
AcDbSpline
210
0.0
220
0.0
230
1.0
 70
    11
 71
     3
 72
    17
 73
    13
 74
     0
 42
0.0000000001
 43
0.0000000001
 40
0.0
 40
0.0
 40
0.0
 40
0.0
 40
1.0
 40
1.0
 40
1.0
 40
2.0
 40
2.0
 40
2.0
 40
3.0
 40
3.0
 40
3.0
 40
4.0
 40
4.0
 40
4.0
 40
4.0
 10
59.00001626129166
 20
9.999734155486179
 30
0.0
 10
59.00001626129166
 20
7.238834633606959
 30
0.0
 10
56.76208223407337
 20
4.998833549097514
 30
0.0
 10
54.0004936930971
 20
4.998833549097514
 30
0.0
 10
51.23924966166935
 20
4.998833549097514
 30
0.0
 10
49.00028210580549
 20
7.238834633606959
 30
0.0
 10
49.00028210580549
 20
9.999734155486179
 30
0.0
 10
49.00028210580549
 20
12.76132269646245
 30
0.0
 10
51.23924966166935
 20
15.00063476187484
 30
0.0
 10
54.0004936930971
 20
15.00063476187484
 30
0.0
 10
56.76208223407337
 20
15.00063476187484
 30
0.0
 10
59.00001626129166
 20
12.76132269646245
 30
0.0
 10
59.00001626129166
 20
9.999734155486179
 30
0.0
  0
SPLINE
  5
4D
330
1F
100
AcDbEntity
  8
LAYER_1
 62
   250
100
AcDbSpline
210
0.0
220
0.0
230
1.0
 70
    11
 71
     3
 72
    53
 73
    49
 74
     0
 42
0.0000000001
 43
0.0000000001
 40
0.0
 40
0.0
 40
0.0
 40
0.0
 40
1.0
 40
1.0
 40
1.0
 40
2.0
 40
2.0
 40
2.0
 40
3.0
 40
3.0
 40
3.0
 40
4.0
 40
4.0
 40
4.0
 40
5.0
 40
5.0
 40
5.0
 40
6.0
 40
6.0
 40
6.0
 40
7.0
 40
7.0
 40
7.0
 40
8.0
 40
8.0
 40
8.0
 40
9.0
 40
9.0
 40
9.0
 40
10.0
 40
10.0
 40
10.0
 40
11.0
 40
11.0
 40
11.0
 40
12.0
 40
12.0
 40
12.0
 40
13.0
 40
13.0
 40
13.0
 40
14.0
 40
14.0
 40
14.0
 40
15.0
 40
15.0
 40
15.0
 40
16.0
 40
16.0
 40
16.0
 40
16.0
 10
0.0
 20
53.99928790967726
 30
0.0
 10
0.0
 20
55.09930689811754
 30
0.0
 10
0.90003119552152
 20
55.99933809363905
 30
0.0
 10
2.000050183961793
 20
55.99933809363905
 30
0.0
 10
2.000050183961793
 20
55.99933809363905
 30
0.0
 10
34.49987520838892
 20
55.99933809363905
 30
0.0
 10
34.49987520838892
 20
55.99933809363905
 30
0.0
 10
35.60023870637772
 20
55.99933809363905
 30
0.0
 10
36.92522243000481
 20
56.7927435838921
 30
0.0
 10
37.44474282918048
 20
57.76236570821566
 30
0.0
 10
37.44474282918048
 20
57.76236570821566
 30
0.0
 10
43.05542533645837
 20
68.23683402156927
 30
0.0
 10
43.05542533645837
 20
68.23683402156927
 30
0.0
 10
43.57494573563405
 20
69.20645614589283
 30
0.0
 10
44.89992945926113
 20
69.99986163614587
 30
0.0
 10
46.00029295724993
 20
69.99986163614587
 30
0.0
 10
46.00029295724993
 20
69.99986163614587
 30
0.0
 10
62.00000540984723
 20
69.99986163614587
 30
0.0
 10
62.00000540984723
 20
69.99986163614587
 30
0.0
 10
63.10036890783602
 20
69.99986163614587
 30
0.0
 10
64.00022784858328
 20
69.09983044062434
 30
0.0
 10
64.00022784858328
 20
67.99981145218408
 30
0.0
 10
64.00022784858328
 20
67.99981145218408
 30
0.0
 10
64.00022784858328
 20
1.999877929187531
 30
0.0
 10
64.00022784858328
 20
1.999877929187531
 30
0.0
 10
64.00022784858328
 20
0.8998589407472575
 30
0.0
 10
63.10036890783602
 20
0.0
 30
0.0
 10
62.00000540984723
 20
0.0
 30
0.0
 10
62.00000540984723
 20
0.0
 30
0.0
 10
46.00029295724993
 20
0.0
 30
0.0
 10
46.00029295724993
 20
0.0
 30
0.0
 10
44.89992945926113
 20
0.0
 30
0.0
 10
43.57494573563405
 20
0.7934054902530375
 30
0.0
 10
43.05542533645837
 20
1.762855359802342
 30
0.0
 10
43.05542533645837
 20
1.762855359802342
 30
0.0
 10
37.44474282918048
 20
12.23697916360742
 30
0.0
 10
37.44474282918048
 20
12.23697916360742
 30
0.0
 10
36.92522243000481
 20
13.20642903315673
 30
0.0
 10
35.60023870637772
 20
13.99983452340976
 30
0.0
 10
34.49987520838892
 20
13.99983452340976
 30
0.0
 10
34.49987520838892
 20
13.99983452340976
 30
0.0
 10
2.000050183961793
 20
13.99983452340976
 30
0.0
 10
2.000050183961793
 20
13.99983452340976
 30
0.0
 10
0.90003119552152
 20
13.99983452340976
 30
0.0
 10
0.0
 20
14.89969346415702
 30
0.0
 10
0.0
 20
15.9997124525973
 30
0.0
 10
0.0
 20
15.9997124525973
 30
0.0
 10
0.0
 20
53.99928790967726
 30
0.0
 10
0.0
 20
53.99928790967726
 30
0.0
  0
ENDSEC
  0
SECTION
  2
OBJECTS
  0
DICTIONARY
  5
C
330
0
100
AcDbDictionary
  3
ACAD_GROUP
350
D
  3
ACAD_LAYOUT
350
1A
  3
ACAD_MLINESTYLE
350
17
  3
ACAD_PLOTSETTINGS
350
19
  3
ACAD_TABLESTYLE
350
4E
  3
ACAD_VISUALSTYLE
350
2A
1001
ACAD
1000
TREAT_AS_HARD
1070
     0
  0
DICTIONARY
  5
D
102
{ACAD_REACTORS
330
C
102
}
330
C
100
AcDbDictionary
1001
ACAD
1000
TREAT_AS_HARD
1070
     0
  0
DICTIONARY
  5
1A
102
{ACAD_REACTORS
330
C
102
}
330
C
100
AcDbDictionary
1001
ACAD
1000
TREAT_AS_HARD
1070
     0
  0
DICTIONARY
  5
17
102
{ACAD_REACTORS
330
C
102
}
330
C
100
AcDbDictionary
  3
STANDARD
350
18
1001
ACAD
1000
TREAT_AS_HARD
1070
     0
  0
DICTIONARY
  5
19
102
{ACAD_REACTORS
330
C
102
}
330
C
100
AcDbDictionary
1001
ACAD
1000
TREAT_AS_HARD
1070
     0
  0
DICTIONARY
  5
4E
102
{ACAD_REACTORS
330
C
102
}
330
C
100
AcDbDictionary
1001
ACAD
1000
TREAT_AS_HARD
1070
     0
  0
DICTIONARY
  5
2A
102
{ACAD_REACTORS
330
C
102
}
330
C
100
AcDbDictionary
  3
2DWIREFRAME
350
2F
  3
3D_HIDDEN
350
31
  3
3DWIREFRAME
350
30
  3
BASIC
350
32
  3
BRIGHTEN
350
36
  3
COLORCHANGE
350
3A
  3
CONCEPTUAL
350
34
  3
DIM
350
35
  3
FACEPATTERN
350
39
  3
FLAT
350
2B
  3
FLATWITHEDGES
350
2C
  3
GOURAUD
350
2D
  3
GOURAUDWITHEDGES
350
2E
  3
LINEPATTERN
350
38
  3
REALISTIC
350
33
  3
THICKEN
350
37
1001
ACAD
1000
TREAT_AS_HARD
1070
     0
  0
MLINESTYLE
  5
18
102
{ACAD_REACTORS
330
17
102
}
330
17
100
AcDbMlineStyle
  2
Standard
 70
     0
  3

 62
   256
 51
90.0
 52
90.0
 71
     2
 49
0.5
 62
   256
  6
BYLAYER
 49
-0.5
 62
   256
  6
BYLAYER
  0
VISUALSTYLE
  5
2F
102
{ACAD_REACTORS
330
2A
102
}
330
2A
100
AcDbVisualStyle
  2
2dWireframe
 70
     4
 71
     0
 72
     2
 73
     0
 90
        0
 40
-0.6
 41
-30.0
 62
     5
 63
     7
 74
     1
 91
        4
 64
     7
 65
   257
 75
     1
175
     1
 42
1.0
 92
        0
 66
   257
 43
1.0
 76
     1
 77
     6
 78
     2
 67
     7
 79
     5
170
     0
171
     0
290
     0
174
     0
 93
        1
 44
0.0
173
     0
291
     0
 45
0.0
1001
ACAD
1000
AcDbSavedByObjectVersion
1070
     0
  0
VISUALSTYLE
  5
31
102
{ACAD_REACTORS
330
2A
102
}
330
2A
100
AcDbVisualStyle
  2
3D Hidden
 70
     6
 71
     1
 72
     2
 73
     2
 90
        0
 40
-0.6
 41
-30.0
 62
     5
 63
     7
 74
     2
 91
        2
 64
     7
 65
   257
 75
     2
175
     1
 42
40.0
 92
        0
 66
   257
 43
1.0
 76
     1
 77
     6
 78
     2
 67
     7
 79
     3
170
     0
171
     0
290
     0
174
     0
 93
        1
 44
0.0
173
     0
291
     0
 45
0.0
1001
ACAD
1000
AcDbSavedByObjectVersion
1070
     0
  0
VISUALSTYLE
  5
30
102
{ACAD_REACTORS
330
2A
102
}
330
2A
100
AcDbVisualStyle
  2
3dWireframe
 70
     5
 71
     0
 72
     2
 73
     0
 90
        0
 40
-0.6
 41
-30.0
 62
     5
 63
     7
 74
     1
 91
        4
 64
     7
 65
   257
 75
     1
175
     1
 42
1.0
 92
        0
 66
   257
 43
1.0
 76
     1
 77
     6
 78
     2
 67
     7
 79
     5
170
     0
171
     0
290
     0
174
     0
 93
        1
 44
0.0
173
     0
291
     0
 45
0.0
1001
ACAD
1000
AcDbSavedByObjectVersion
1070
     0
  0
VISUALSTYLE
  5
32
102
{ACAD_REACTORS
330
2A
102
}
330
2A
100
AcDbVisualStyle
  2
Basic
 70
     7
 71
     1
 72
     0
 73
     1
 90
        0
 40
-0.6
 41
-30.0
 62
     5
 63
     7
 74
     0
 91
        4
 64
     7
 65
   257
 75
     1
175
     1
 42
1.0
 92
        8
 66
     7
 43
1.0
 76
     1
 77
     6
 78
     2
 67
     7
 79
     5
170
     0
171
     0
290
     0
174
     0
 93
        1
 44
0.0
173
     0
291
     1
 45
0.0
1001
ACAD
1000
AcDbSavedByObjectVersion
1070
     0
  0
VISUALSTYLE
  5
36
102
{ACAD_REACTORS
330
2A
102
}
330
2A
100
AcDbVisualStyle
  2
Brighten
 70
    12
 71
     2
 72
     2
 73
     0
 90
        0
 40
-0.6
 41
-30.0
 62
     5
 63
     7
 74
     1
 91
        4
 64
     7
 65
   257
 75
     1
175
     1
 42
1.0
 92
        8
 66
     7
 43
1.0
 76
     1
 77
     6
 78
     2
 67
     7
 79
     5
170
     0
171
     0
290
     0
174
     0
 93
        1
 44
50.0
173
     0
291
     1
 45
0.0
1001
ACAD
1000
AcDbSavedByObjectVersion
1070
     0
  0
VISUALSTYLE
  5
3A
102
{ACAD_REACTORS
330
2A
102
}
330
2A
100
AcDbVisualStyle
  2
ColorChange
 70
    16
 71
     2
 72
     2
 73
     3
 90
        0
 40
-0.6
 41
-30.0
 62
     5
 63
     8
 74
     1
 91
        4
 64
     7
 65
   257
 75
     1
175
     1
 42
1.0
 92
        8
 66
     8
 43
1.0
 76
     1
 77
     6
 78
     2
 67
     7
 79
     5
170
     0
171
     0
290
     0
174
     0
 93
        1
 44
0.0
173
     0
291
     1
 45
0.0
1001
ACAD
1000
AcDbSavedByObjectVersion
1070
     0
  0
VISUALSTYLE
  5
34
102
{ACAD_REACTORS
330
2A
102
}
330
2A
100
AcDbVisualStyle
  2
Conceptual
 70
     9
 71
     3
 72
     2
 73
     0
 90
        0
 40
-0.6
 41
-30.0
 62
     5
 63
     7
 74
     2
 91
        2
 64
     7
 65
   257
 75
     1
175
     1
 42
40.0
 92
        8
 66
     7
 43
1.0
 76
     1
 77
     6
 78
     2
 67
     7
 79
     3
170
     0
171
     0
290
     0
174
     0
 93
        1
 44
0.0
173
     0
291
     0
 45
0.0
1001
ACAD
1000
AcDbSavedByObjectVersion
1070
     0
  0
VISUALSTYLE
  5
35
102
{ACAD_REACTORS
330
2A
102
}
330
2A
100
AcDbVisualStyle
  2
Dim
 70
    11
 71
     2
 72
     2
 73
     0
 90
        0
 40
-0.6
 41
-30.0
 62
     5
 63
     7
 74
     1
 91
        4
 64
     7
 65
   257
 75
     1
175
     1
 42
1.0
 92
        8
 66
     7
 43
1.0
 76
     1
 77
     6
 78
     2
 67
     7
 79
     5
170
     0
171
     0
290
     0
174
     0
 93
        1
 44
-50.0
173
     0
291
     1
 45
0.0
1001
ACAD
1000
AcDbSavedByObjectVersion
1070
     0
  0
VISUALSTYLE
  5
39
102
{ACAD_REACTORS
330
2A
102
}
330
2A
100
AcDbVisualStyle
  2
Facepattern
 70
    15
 71
     2
 72
     2
 73
     0
 90
        0
 40
-0.6
 41
-30.0
 62
     5
 63
     7
 74
     1
 91
        4
 64
     7
 65
   257
 75
     1
175
     1
 42
1.0
 92
        8
 66
     7
 43
1.0
 76
     1
 77
     6
 78
     2
 67
     7
 79
     5
170
     0
171
     0
290
     0
174
     0
 93
        1
 44
0.0
173
     0
291
     1
 45
0.0
1001
ACAD
1000
AcDbSavedByObjectVersion
1070
     0
  0
VISUALSTYLE
  5
2B
102
{ACAD_REACTORS
330
2A
102
}
330
2A
100
AcDbVisualStyle
  2
Flat
 70
     0
 71
     2
 72
     1
 73
     1
 90
        2
 40
-0.6
 41
30.0
 62
     5
 63
     7
 74
     0
 91
        4
 64
     7
 65
   257
 75
     1
175
     1
 42
1.0
 92
        8
 66
     7
 43
1.0
 76
     1
 77
     6
 78
     2
 67
     7
 79
     5
170
     0
171
     0
290
     0
174
     0
 93
       13
 44
0.0
173
     0
291
     1
 45
0.0
1001
ACAD
1000
AcDbSavedByObjectVersion
1070
     0
  0
VISUALSTYLE
  5
2C
102
{ACAD_REACTORS
330
2A
102
}
330
2A
100
AcDbVisualStyle
  2
FlatWithEdges
 70
     1
 71
     2
 72
     1
 73
     1
 90
        2
 40
-0.6
 41
30.0
 62
     5
 63
     7
 74
     1
 91
        4
 64
     7
 65
   257
 75
     1
175
     1
 42
1.0
 92
        0
 66
   257
 43
1.0
 76
     1
 77
     6
 78
     2
 67
     7
 79
     5
170
     0
171
     0
290
     0
174
     0
 93
       13
 44
0.0
173
     0
291
     1
 45
0.0
1001
ACAD
1000
AcDbSavedByObjectVersion
1070
     0
  0
VISUALSTYLE
  5
2D
102
{ACAD_REACTORS
330
2A
102
}
330
2A
100
AcDbVisualStyle
  2
Gouraud
 70
     2
 71
     2
 72
     2
 73
     1
 90
        2
 40
-0.6
 41
30.0
 62
     5
 63
     7
 74
     0
 91
        4
 64
     7
 65
   257
 75
     1
175
     1
 42
1.0
 92
        0
 66
     7
 43
1.0
 76
     1
 77
     6
 78
     2
 67
     7
 79
     5
170
     0
171
     0
290
     0
174
     0
 93
       13
 44
0.0
173
     0
291
     1
 45
0.0
1001
ACAD
1000
AcDbSavedByObjectVersion
1070
     0
  0
VISUALSTYLE
  5
2E
102
{ACAD_REACTORS
330
2A
102
}
330
2A
100
AcDbVisualStyle
  2
GouraudWithEdges
 70
     3
 71
     2
 72
     2
 73
     1
 90
        2
 40
-0.6
 41
30.0
 62
     5
 63
     7
 74
     1
 91
        4
 64
     7
 65
   257
 75
     1
175
     1
 42
1.0
 92
        0
 66
   257
 43
1.0
 76
     1
 77
     6
 78
     2
 67
     7
 79
     5
170
     0
171
     0
290
     0
174
     0
 93
       13
 44
0.0
173
     0
291
     1
 45
0.0
1001
ACAD
1000
AcDbSavedByObjectVersion
1070
     0
  0
VISUALSTYLE
  5
38
102
{ACAD_REACTORS
330
2A
102
}
330
2A
100
AcDbVisualStyle
  2
Linepattern
 70
    14
 71
     2
 72
     2
 73
     0
 90
        0
 40
-0.6
 41
-30.0
 62
     5
 63
     7
 74
     1
 91
        4
 64
     7
 65
   257
 75
     7
175
     7
 42
1.0
 92
        8
 66
     7
 43
1.0
 76
     1
 77
     6
 78
     2
 67
     7
 79
     5
170
     0
171
     0
290
     0
174
     0
 93
        1
 44
0.0
173
     0
291
     1
 45
0.0
1001
ACAD
1000
AcDbSavedByObjectVersion
1070
     0
  0
VISUALSTYLE
  5
33
102
{ACAD_REACTORS
330
2A
102
}
330
2A
100
AcDbVisualStyle
  2
Realistic
 70
     8
 71
     2
 72
     2
 73
     0
 90
        0
 40
-0.6
 41
-30.0
 62
     5
 63
     7
 74
     1
 91
        0
 64
     7
 65
   257
 75
     1
175
     1
 42
1.0
 92
        8
 66
     8
 43
1.0
 76
     1
 77
     6
 78
     2
 67
     7
 79
     5
170
     0
171
     0
290
     0
174
     0
 93
       13
 44
0.0
173
     0
291
     0
 45
0.0
1001
ACAD
1000
AcDbSavedByObjectVersion
1070
     0
  0
VISUALSTYLE
  5
37
102
{ACAD_REACTORS
330
2A
102
}
330
2A
100
AcDbVisualStyle
  2
Thicken
 70
    13
 71
     2
 72
     2
 73
     0
 90
        0
 40
-0.6
 41
-30.0
 62
     5
 63
     7
 74
     1
 91
        4
 64
     7
 65
   257
 75
     1
175
     1
 42
1.0
 92
       12
 66
     7
 43
1.0
 76
     1
 77
     6
 78
     2
 67
     7
 79
     5
170
     0
171
     0
290
     0
174
     0
 93
        1
 44
0.0
173
     0
291
     1
 45
0.0
1001
ACAD
1000
AcDbSavedByObjectVersion
1070
     0
  0
ENDSEC
  0
EOF
