  0
SECTION
  2
HEADER
  9
$ACADVER
  1
AC1012
  9
$DWGCODEPAGE
  3
ansi_1252
  9
$INSBASE
 10
0.0
 20
0.0
 30
0.0
  9
$EXTMIN
 10
1.000000000000000E+20
 20
1.000000000000000E+20
 30
1.000000000000000E+20
  9
$EXTMAX
 10
-1.000000000000000E+20
 20
-1.000000000000000E+20
 30
-1.000000000000000E+20
  9
$LIMMIN
 10
0.0
 20
0.0
  9
$LIMMAX
 10
12.0
 20
9.0
  9
$ORTHOMODE
 70
     0
  9
$REGENMODE
 70
     1
  9
$FILLMODE
 70
     1
  9
$QTEXTMODE
 70
     0
  9
$MIRRTEXT
 70
     1
  9
$DRAGMODE
 70
     2
  9
$LTSCALE
 40
1.0
  9
$OSMODE
 70
    37
  9
$ATTMODE
 70
     1
  9
$TEXTSIZE
 40
0.2
  9
$TRACEWID
 40
0.05
  9
$TEXTSTYLE
  7
STANDARD
  9
$CLAYER
  8
0
  9
$CELTYPE
  6
BYLAYER
  9
$CECOLOR
 62
   256
  9
$CELTSCALE
 40
1.0
  9
$DELOBJ
 70
     1
  9
$DISPSILH
 70
     0
  9
$DIMSCALE
 40
1.0
  9
$DIMASZ
 40
0.18
  9
$DIMEXO
 40
0.0625
  9
$DIMDLI
 40
0.38
  9
$DIMRND
 40
0.0
  9
$DIMDLE
 40
0.0
  9
$DIMEXE
 40
0.18
  9
$DIMTP
 40
0.0
  9
$DIMTM
 40
0.0
  9
$DIMTXT
 40
0.18
  9
$DIMCEN
 40
0.09
  9
$DIMTSZ
 40
0.0
  9
$DIMTOL
 70
     0
  9
$DIMLIM
 70
     0
  9
$DIMTIH
 70
     1
  9
$DIMTOH
 70
     1
  9
$DIMSE1
 70
     0
  9
$DIMSE2
 70
     0
  9
$DIMTAD
 70
     0
  9
$DIMZIN
 70
     0
  9
$DIMBLK
  1

  9
$DIMASO
 70
     1
  9
$DIMSHO
 70
     1
  9
$DIMPOST
  1

  9
$DIMAPOST
  1

  9
$DIMALT
 70
     0
  9
$DIMALTD
 70
     2
  9
$DIMALTF
 40
25.4
  9
$DIMLFAC
 40
1.0
  9
$DIMTOFL
 70
     0
  9
$DIMTVP
 40
0.0
  9
$DIMTIX
 70
     0
  9
$DIMSOXD
 70
     0
  9
$DIMSAH
 70
     0
  9
$DIMBLK1
  1

  9
$DIMBLK2
  1

  9
$DIMSTYLE
  2
STANDARD
  9
$DIMCLRD
 70
     0
  9
$DIMCLRE
 70
     0
  9
$DIMCLRT
 70
     0
  9
$DIMTFAC
 40
1.0
  9
$DIMGAP
 40
0.09
  9
$DIMJUST
 70
     0
  9
$DIMSD1
 70
     0
  9
$DIMSD2
 70
     0
  9
$DIMTOLJ
 70
     1
  9
$DIMTZIN
 70
     0
  9
$DIMALTZ
 70
     0
  9
$DIMALTTZ
 70
     0
  9
$DIMFIT
 70
     3
  9
$DIMUPT
 70
     0
  9
$DIMUNIT
 70
     2
  9
$DIMDEC
 70
     4
  9
$DIMTDEC
 70
     4
  9
$DIMALTU
 70
     2
  9
$DIMALTTD
 70
     2
  9
$DIMTXSTY
  7
STANDARD
  9
$DIMAUNIT
 70
     0
  9
$LUNITS
 70
     2
  9
$LUPREC
 70
     4
  9
$SKETCHINC
 40
0.1
  9
$FILLETRAD
 40
0.5
  9
$AUNITS
 70
     0
  9
$AUPREC
 70
     0
  9
$MENU
  1
.
  9
$ELEVATION
 40
0.0
  9
$PELEVATION
 40
0.0
  9
$THICKNESS
 40
0.0
  9
$LIMCHECK
 70
     0
  9
$CHAMFERA
 40
0.5
  9
$CHAMFERB
 40
0.5
  9
$CHAMFERC
 40
1.0
  9
$CHAMFERD
 40
0.0
  9
$SKPOLY
 70
     0
  9
$TDCREATE
 40
2456400.479802234
  9
$TDUPDATE
 40
2456400.479802245
  9
$TDINDWG
 40
0.0000000116
  9
$TDUSRTIMER
 40
0.0000000116
  9
$USRTIMER
 70
     1
  9
$ANGBASE
 50
0.0
  9
$ANGDIR
 70
     0
  9
$PDMODE
 70
     0
  9
$PDSIZE
 40
0.0
  9
$PLINEWID
 40
0.0
  9
$COORDS
 70
     1
  9
$SPLFRAME
 70
     0
  9
$SPLINETYPE
 70
     6
  9
$SPLINESEGS
 70
     8
  9
$ATTDIA
 70
     0
  9
$ATTREQ
 70
     1
  9
$HANDLING
 70
     1
  9
$HANDSEED
  5
89
  9
$SURFTAB1
 70
     6
  9
$SURFTAB2
 70
     6
  9
$SURFTYPE
 70
     6
  9
$SURFU
 70
     6
  9
$SURFV
 70
     6
  9
$UCSNAME
  2

  9
$UCSORG
 10
0.0
 20
0.0
 30
0.0
  9
$UCSXDIR
 10
1.0
 20
0.0
 30
0.0
  9
$UCSYDIR
 10
0.0
 20
1.0
 30
0.0
  9
$PUCSNAME
  2

  9
$PUCSORG
 10
0.0
 20
0.0
 30
0.0
  9
$PUCSXDIR
 10
1.0
 20
0.0
 30
0.0
  9
$PUCSYDIR
 10
0.0
 20
1.0
 30
0.0
  9
$USERI1
 70
     0
  9
$USERI2
 70
     0
  9
$USERI3
 70
     0
  9
$USERI4
 70
     0
  9
$USERI5
 70
     0
  9
$USERR1
 40
0.0
  9
$USERR2
 40
0.0
  9
$USERR3
 40
0.0
  9
$USERR4
 40
0.0
  9
$USERR5
 40
0.0
  9
$WORLDVIEW
 70
     1
  9
$SHADEDGE
 70
     3
  9
$SHADEDIF
 70
    70
  9
$TILEMODE
 70
     1
  9
$MAXACTVP
 70
    64
  9
$PINSBASE
 10
0.0
 20
0.0
 30
0.0
  9
$PLIMCHECK
 70
     0
  9
$PEXTMIN
 10
1.000000000000000E+20
 20
1.000000000000000E+20
 30
1.000000000000000E+20
  9
$PEXTMAX
 10
-1.000000000000000E+20
 20
-1.000000000000000E+20
 30
-1.000000000000000E+20
  9
$PLIMMIN
 10
0.0
 20
0.0
  9
$PLIMMAX
 10
12.0
 20
9.0
  9
$UNITMODE
 70
     0
  9
$VISRETAIN
 70
     1
  9
$PLINEGEN
 70
     0
  9
$PSLTSCALE
 70
     1
  9
$TREEDEPTH
 70
  3020
  9
$PICKSTYLE
 70
     1
  9
$CMLSTYLE
  2
STANDARD
  9
$CMLJUST
 70
     0
  9
$CMLSCALE
 40
1.0
  9
$SAVEIMAGES
 70
     1
  0
ENDSEC
  0
SECTION
  2
CLASSES
  0
CLASS
  1
ACDBDICTIONARYWDFLT
  2
AcDbDictionaryWithDefault
  3
ObjectDBX Classes
 90
    32768
280
     0
281
     0
  0
CLASS
  1
VISUALSTYLE
  2
AcDbVisualStyle
  3
ObjectDBX Classes
 90
     4095
280
     0
281
     0
  0
CLASS
  1
XRECORD
  2
AcDbXrecord
  3
AutoCAD 2000
 90
    32768
280
     0
281
     0
  0
CLASS
  1
LWPOLYLINE
  2
AcDbPolyline
  3
AutoCAD 2000
 90
    32768
280
     0
281
     1
  0
CLASS
  1
HATCH
  2
AcDbHatch
  3
AutoCAD 2000
 90
    32768
280
     0
281
     1
  0
CLASS
  1
ACDBPLACEHOLDER
  2
AcDbPlaceHolder
  3
ObjectDBX Classes
 90
        0
280
     0
281
     0
  0
CLASS
  1
LAYOUT
  2
AcDbLayout
  3
ObjectDBX Classes
 90
        0
280
     0
281
     0
  0
ENDSEC
  0
SECTION
  2
TABLES
  0
TABLE
  2
VPORT
  5
8
330
0
100
AcDbSymbolTable
 70
     1
  0
VPORT
  5
29
330
8
100
AcDbSymbolTableRecord
100
AcDbViewportTableRecord
  2
*ACTIVE
 70
     0
 10
0.0
 20
0.0
 11
1.0
 21
1.0
 12
0.0
 22
0.0
 13
0.0
 23
0.0
 14
0.5
 24
0.5
 15
0.5
 25
0.5
 16
0.0
 26
0.0
 36
1.0
 17
148.4999796178229
 27
-105.0008259828644
 37
0.0
 40
210.0016519657288
 41
1.414274394775308
 42
50.0
 43
0.0
 44
0.0
 50
0.0
 51
0.0
 71
     0
 72
   100
 73
     1
 74
     3
 75
     0
 76
     0
 77
     0
 78
     0
  0
ENDTAB
  0
TABLE
  2
LTYPE
  5
5
330
0
100
AcDbSymbolTable
 70
     1
  0
LTYPE
  5
14
330
5
100
AcDbSymbolTableRecord
100
AcDbLinetypeTableRecord
  2
BYBLOCK
 70
     0
  3

 72
    65
 73
     0
 40
0.0
  0
LTYPE
  5
15
330
5
100
AcDbSymbolTableRecord
100
AcDbLinetypeTableRecord
  2
BYLAYER
 70
     0
  3

 72
    65
 73
     0
 40
0.0
  0
LTYPE
  5
16
330
5
100
AcDbSymbolTableRecord
100
AcDbLinetypeTableRecord
  2
CONTINUOUS
 70
     0
  3
Solid line
 72
    65
 73
     0
 40
0.0
  0
ENDTAB
  0
TABLE
  2
LAYER
  5
2
330
0
100
AcDbSymbolTable
 70
     2
  0
LAYER
  5
10
330
2
100
AcDbSymbolTableRecord
100
AcDbLayerTableRecord
  2
0
 70
     0
 62
     7
  6
CONTINUOUS
  0
LAYER
  5
3B
330
2
100
AcDbSymbolTableRecord
100
AcDbLayerTableRecord
  2
LAYER_1
 70
     0
 62
     7
  6
CONTINUOUS
  0
ENDTAB
  0
TABLE
  2
STYLE
  5
3
330
0
100
AcDbSymbolTable
 70
     1
  0
STYLE
  5
11
330
3
100
AcDbSymbolTableRecord
100
AcDbTextStyleTableRecord
  2
STANDARD
 70
     0
 40
0.0
 41
1.0
 50
0.0
 71
     0
 42
0.2
  3
txt
  4

  0
ENDTAB
  0
TABLE
  2
VIEW
  5
6
330
0
100
AcDbSymbolTable
 70
     0
  0
ENDTAB
  0
TABLE
  2
UCS
  5
7
330
0
100
AcDbSymbolTable
 70
     0
  0
ENDTAB
  0
TABLE
  2
APPID
  5
9
330
0
100
AcDbSymbolTable
 70
     1
  0
APPID
  5
12
330
9
100
AcDbSymbolTableRecord
100
AcDbRegAppTableRecord
  2
ACAD
 70
     0
  0
ENDTAB
  0
TABLE
  2
DIMSTYLE
  5
A
330
0
100
AcDbSymbolTable
 70
     1
  0
DIMSTYLE
105
27
330
A
100
AcDbSymbolTableRecord
100
AcDbDimStyleTableRecord
  2
STANDARD
 70
     0
  3

  4

  5

  6

  7

 40
1.0
 41
0.18
 42
0.0625
 43
0.38
 44
0.18
 45
0.0
 46
0.0
 47
0.0
 48
0.0
140
0.18
141
0.09
142
0.0
143
25.4
144
1.0
145
0.0
146
1.0
147
0.09
 71
     0
 72
     0
 73
     1
 74
     1
 75
     0
 76
     0
 77
     0
 78
     0
170
     0
171
     2
172
     0
173
     0
174
     0
175
     0
176
     0
177
     0
178
     0
270
     2
271
     4
272
     4
273
     2
274
     2
340
11
275
     0
280
     0
281
     0
282
     0
283
     1
284
     0
285
     0
286
     0
287
     3
288
     0
  0
ENDTAB
  0
TABLE
  2
BLOCK_RECORD
  5
1
330
0
100
AcDbSymbolTable
 70
     2
  0
BLOCK_RECORD
  5
1F
330
1
100
AcDbSymbolTableRecord
100
AcDbBlockTableRecord
  2
*MODEL_SPACE
  0
BLOCK_RECORD
  5
1B
330
1
100
AcDbSymbolTableRecord
100
AcDbBlockTableRecord
  2
*PAPER_SPACE
  0
BLOCK_RECORD
  5
3C
330
1
100
AcDbSymbolTableRecord
100
AcDbBlockTableRecord
  2
BLOCK_2
  0
ENDTAB
  0
ENDSEC
  0
SECTION
  2
BLOCKS
  0
BLOCK
  5
20
330
1F
100
AcDbEntity
  8
0
100
AcDbBlockBegin
  2
*MODEL_SPACE
 70
     0
 71
     0
 10
0.0
 20
0.0
 30
0.0
  3
*MODEL_SPACE
  1

  0
ENDBLK
  5
21
330
1F
100
AcDbEntity
  8
0
100
AcDbBlockEnd
  0
BLOCK
  5
1C
330
1B
100
AcDbEntity
 67
     1
  8
0
100
AcDbBlockBegin
  2
*PAPER_SPACE
 70
     0
 71
     0
 10
0.0
 20
0.0
 30
0.0
  3
*PAPER_SPACE
  1

  0
ENDBLK
  5
1D
330
1B
100
AcDbEntity
 67
     1
  8
0
100
AcDbBlockEnd
  0
BLOCK
  5
3E
330
3C
100
AcDbEntity
  8
0
100
AcDbBlockBegin
  2
BLOCK_2
 70
     0
 71
     0
 10
0.0
 20
0.0
 30
0.0
  3
BLOCK_2
  1

  0
SPLINE
  5
40
330
3C
100
AcDbEntity
  8
LAYER_1
 62
     7
100
AcDbSpline
210
0.0
220
0.0
230
1.0
 70
    11
 71
     3
 72
    17
 73
    13
 74
     0
 42
0.0000000001
 43
0.0000000001
 40
0.0
 40
0.0
 40
0.0
 40
0.0
 40
1.0
 40
1.0
 40
1.0
 40
2.0
 40
2.0
 40
2.0
 40
3.0
 40
3.0
 40
3.0
 40
4.0
 40
4.0
 40
4.0
 40
4.0
 10
-35.0001030728472
 20
12.66675482539234
 30
0.0
 10
-35.0001030728472
 20
11.01000840653569
 30
0.0
 10
-36.34317354777185
 20
9.666765676836782
 30
0.0
 10
-38.00009222140276
 20
9.666765676836782
 30
0.0
 10
-39.65701089503366
 20
9.666765676836782
 30
0.0
 10
-41.00008136995832
 20
11.01000840653569
 30
0.0
 10
-41.00008136995832
 20
12.66675482539234
 30
0.0
 10
-41.00008136995832
 20
14.32350124424899
 30
0.0
 10
-39.65701089503366
 20
15.6667439739479
 30
0.0
 10
-38.00009222140276
 20
15.6667439739479
 30
0.0
 10
-36.34317354777185
 20
15.6667439739479
 30
0.0
 10
-35.0001030728472
 20
14.32350124424899
 30
0.0
 10
-35.0001030728472
 20
12.66675482539234
 30
0.0
  0
SPLINE
  5
41
330
3C
100
AcDbEntity
  8
LAYER_1
 62
     7
100
AcDbSpline
210
0.0
220
0.0
230
1.0
 70
    11
 71
     3
 72
    17
 73
    13
 74
     0
 42
0.0000000001
 43
0.0000000001
 40
0.0
 40
0.0
 40
0.0
 40
0.0
 40
1.0
 40
1.0
 40
1.0
 40
2.0
 40
2.0
 40
2.0
 40
3.0
 40
3.0
 40
3.0
 40
4.0
 40
4.0
 40
4.0
 40
4.0
 10
-35.0001030728472
 20
4.222136771947938
 30
0.0
 10
-35.0001030728472
 20
2.565390353091292
 30
0.0
 10
-36.34317354777185
 20
1.22214762339238
 30
0.0
 10
-38.00009222140276
 20
1.22214762339238
 30
0.0
 10
-39.65701089503366
 20
1.22214762339238
 30
0.0
 10
-41.00008136995832
 20
2.565390353091292
 30
0.0
 10
-41.00008136995832
 20
4.222136771947938
 30
0.0
 10
-41.00008136995832
 20
5.878883190804585
 30
0.0
 10
-39.65701089503366
 20
7.222125920503497
 30
0.0
 10
-38.00009222140276
 20
7.222125920503497
 30
0.0
 10
-36.34317354777185
 20
7.222125920503497
 30
0.0
 10
-35.0001030728472
 20
5.878883190804585
 30
0.0
 10
-35.0001030728472
 20
4.222136771947938
 30
0.0
  0
SPLINE
  5
42
330
3C
100
AcDbEntity
  8
LAYER_1
 62
     7
100
AcDbSpline
210
0.0
220
0.0
230
1.0
 70
    11
 71
     3
 72
    17
 73
    13
 74
     0
 42
0.0000000001
 43
0.0000000001
 40
0.0
 40
0.0
 40
0.0
 40
0.0
 40
1.0
 40
1.0
 40
1.0
 40
2.0
 40
2.0
 40
2.0
 40
3.0
 40
3.0
 40
3.0
 40
4.0
 40
4.0
 40
4.0
 40
4.0
 10
-35.0001030728472
 20
-4.222136771947938
 30
0.0
 10
-35.0001030728472
 20
-5.878883190804585
 30
0.0
 10
-36.34317354777185
 20
-7.222125920503497
 30
0.0
 10
-38.00009222140276
 20
-7.222125920503497
 30
0.0
 10
-39.65701089503366
 20
-7.222125920503497
 30
0.0
 10
-41.00008136995832
 20
-5.878883190804585
 30
0.0
 10
-41.00008136995832
 20
-4.222136771947938
 30
0.0
 10
-41.00008136995832
 20
-2.565390353091292
 30
0.0
 10
-39.65701089503366
 20
-1.22214762339238
 30
0.0
 10
-38.00009222140276
 20
-1.22214762339238
 30
0.0
 10
-36.34317354777185
 20
-1.22214762339238
 30
0.0
 10
-35.0001030728472
 20
-2.565390353091292
 30
0.0
 10
-35.0001030728472
 20
-4.222136771947938
 30
0.0
  0
SPLINE
  5
43
330
3C
100
AcDbEntity
  8
LAYER_1
 62
     7
100
AcDbSpline
210
0.0
220
0.0
230
1.0
 70
    11
 71
     3
 72
    17
 73
    13
 74
     0
 42
0.0000000001
 43
0.0000000001
 40
0.0
 40
0.0
 40
0.0
 40
0.0
 40
1.0
 40
1.0
 40
1.0
 40
2.0
 40
2.0
 40
2.0
 40
3.0
 40
3.0
 40
3.0
 40
4.0
 40
4.0
 40
4.0
 40
4.0
 10
-35.0001030728472
 20
-12.66658257061808
 30
0.0
 10
-35.0001030728472
 20
-14.32332898947472
 30
0.0
 10
-36.34317354777185
 20
-15.66657171917364
 30
0.0
 10
-38.00009222140276
 20
-15.66657171917364
 30
0.0
 10
-39.65701089503366
 20
-15.66657171917364
 30
0.0
 10
-41.00008136995832
 20
-14.32332898947472
 30
0.0
 10
-41.00008136995832
 20
-12.66658257061808
 30
0.0
 10
-41.00008136995832
 20
-11.00983615176143
 30
0.0
 10
-39.65701089503366
 20
-9.666593422062519
 30
0.0
 10
-38.00009222140276
 20
-9.666593422062519
 30
0.0
 10
-36.34317354777185
 20
-9.666593422062519
 30
0.0
 10
-35.0001030728472
 20
-11.00983615176143
 30
0.0
 10
-35.0001030728472
 20
-12.66658257061808
 30
0.0
  0
SPLINE
  5
44
330
3C
100
AcDbEntity
  8
LAYER_1
 62
     7
100
AcDbSpline
210
0.0
220
0.0
230
1.0
 70
    11
 71
     3
 72
    17
 73
    13
 74
     0
 42
0.0000000001
 43
0.0000000001
 40
0.0
 40
0.0
 40
0.0
 40
0.0
 40
1.0
 40
1.0
 40
1.0
 40
2.0
 40
2.0
 40
2.0
 40
3.0
 40
3.0
 40
3.0
 40
4.0
 40
4.0
 40
4.0
 40
4.0
 10
-26.55565727417706
 20
21.11102836928822
 30
0.0
 10
-26.55565727417706
 20
19.45428195043157
 30
0.0
 10
-27.89872774910171
 20
18.11103922073266
 30
0.0
 10
-29.55564642273262
 20
18.11103922073266
 30
0.0
 10
-31.21256509636353
 20
18.11103922073266
 30
0.0
 10
-32.55563557128818
 20
19.45428195043157
 30
0.0
 10
-32.55563557128818
 20
21.11102836928822
 30
0.0
 10
-32.55563557128818
 20
22.76777478814486
 30
0.0
 10
-31.21256509636353
 20
24.11101751784377
 30
0.0
 10
-29.55564642273262
 20
24.11101751784377
 30
0.0
 10
-27.89872774910171
 20
24.11101751784377
 30
0.0
 10
-26.55565727417706
 20
22.76777478814486
 30
0.0
 10
-26.55565727417706
 20
21.11102836928822
 30
0.0
  0
SPLINE
  5
45
330
3C
100
AcDbEntity
  8
LAYER_1
 62
     7
100
AcDbSpline
210
0.0
220
0.0
230
1.0
 70
    11
 71
     3
 72
    17
 73
    13
 74
     0
 42
0.0000000001
 43
0.0000000001
 40
0.0
 40
0.0
 40
0.0
 40
0.0
 40
1.0
 40
1.0
 40
1.0
 40
2.0
 40
2.0
 40
2.0
 40
3.0
 40
3.0
 40
3.0
 40
4.0
 40
4.0
 40
4.0
 40
4.0
 10
-26.55565727417706
 20
12.66675482539234
 30
0.0
 10
-26.55565727417706
 20
11.01000840653569
 30
0.0
 10
-27.89872774910171
 20
9.666765676836782
 30
0.0
 10
-29.55564642273262
 20
9.666765676836782
 30
0.0
 10
-31.21256509636353
 20
9.666765676836782
 30
0.0
 10
-32.55563557128818
 20
11.01000840653569
 30
0.0
 10
-32.55563557128818
 20
12.66675482539234
 30
0.0
 10
-32.55563557128818
 20
14.32350124424899
 30
0.0
 10
-31.21256509636353
 20
15.6667439739479
 30
0.0
 10
-29.55564642273262
 20
15.6667439739479
 30
0.0
 10
-27.89872774910171
 20
15.6667439739479
 30
0.0
 10
-26.55565727417706
 20
14.32350124424899
 30
0.0
 10
-26.55565727417706
 20
12.66675482539234
 30
0.0
  0
SPLINE
  5
46
330
3C
100
AcDbEntity
  8
LAYER_1
 62
     7
100
AcDbSpline
210
0.0
220
0.0
230
1.0
 70
    11
 71
     3
 72
    17
 73
    13
 74
     0
 42
0.0000000001
 43
0.0000000001
 40
0.0
 40
0.0
 40
0.0
 40
0.0
 40
1.0
 40
1.0
 40
1.0
 40
2.0
 40
2.0
 40
2.0
 40
3.0
 40
3.0
 40
3.0
 40
4.0
 40
4.0
 40
4.0
 40
4.0
 10
-26.55565727417706
 20
4.222136771947938
 30
0.0
 10
-26.55565727417706
 20
2.565390353091292
 30
0.0
 10
-27.89872774910171
 20
1.22214762339238
 30
0.0
 10
-29.55564642273262
 20
1.22214762339238
 30
0.0
 10
-31.21256509636353
 20
1.22214762339238
 30
0.0
 10
-32.55563557128818
 20
2.565390353091292
 30
0.0
 10
-32.55563557128818
 20
4.222136771947938
 30
0.0
 10
-32.55563557128818
 20
5.878883190804585
 30
0.0
 10
-31.21256509636353
 20
7.222125920503497
 30
0.0
 10
-29.55564642273262
 20
7.222125920503497
 30
0.0
 10
-27.89872774910171
 20
7.222125920503497
 30
0.0
 10
-26.55565727417706
 20
5.878883190804585
 30
0.0
 10
-26.55565727417706
 20
4.222136771947938
 30
0.0
  0
SPLINE
  5
47
330
3C
100
AcDbEntity
  8
LAYER_1
 62
     7
100
AcDbSpline
210
0.0
220
0.0
230
1.0
 70
    11
 71
     3
 72
    17
 73
    13
 74
     0
 42
0.0000000001
 43
0.0000000001
 40
0.0
 40
0.0
 40
0.0
 40
0.0
 40
1.0
 40
1.0
 40
1.0
 40
2.0
 40
2.0
 40
2.0
 40
3.0
 40
3.0
 40
3.0
 40
4.0
 40
4.0
 40
4.0
 40
4.0
 10
-26.55565727417706
 20
-4.222136771947938
 30
0.0
 10
-26.55565727417706
 20
-5.878883190804585
 30
0.0
 10
-27.89872774910171
 20
-7.222125920503497
 30
0.0
 10
-29.55564642273262
 20
-7.222125920503497
 30
0.0
 10
-31.21256509636353
 20
-7.222125920503497
 30
0.0
 10
-32.55563557128818
 20
-5.878883190804585
 30
0.0
 10
-32.55563557128818
 20
-4.222136771947938
 30
0.0
 10
-32.55563557128818
 20
-2.565390353091292
 30
0.0
 10
-31.21256509636353
 20
-1.22214762339238
 30
0.0
 10
-29.55564642273262
 20
-1.22214762339238
 30
0.0
 10
-27.89872774910171
 20
-1.22214762339238
 30
0.0
 10
-26.55565727417706
 20
-2.565390353091292
 30
0.0
 10
-26.55565727417706
 20
-4.222136771947938
 30
0.0
  0
SPLINE
  5
48
330
3C
100
AcDbEntity
  8
LAYER_1
 62
     7
100
AcDbSpline
210
0.0
220
0.0
230
1.0
 70
    11
 71
     3
 72
    17
 73
    13
 74
     0
 42
0.0000000001
 43
0.0000000001
 40
0.0
 40
0.0
 40
0.0
 40
0.0
 40
1.0
 40
1.0
 40
1.0
 40
2.0
 40
2.0
 40
2.0
 40
3.0
 40
3.0
 40
3.0
 40
4.0
 40
4.0
 40
4.0
 40
4.0
 10
-26.55565727417706
 20
-12.66658257061808
 30
0.0
 10
-26.55565727417706
 20
-14.32332898947472
 30
0.0
 10
-27.89872774910171
 20
-15.66657171917364
 30
0.0
 10
-29.55564642273262
 20
-15.66657171917364
 30
0.0
 10
-31.21256509636353
 20
-15.66657171917364
 30
0.0
 10
-32.55563557128818
 20
-14.32332898947472
 30
0.0
 10
-32.55563557128818
 20
-12.66658257061808
 30
0.0
 10
-32.55563557128818
 20
-11.00983615176143
 30
0.0
 10
-31.21256509636353
 20
-9.666593422062519
 30
0.0
 10
-29.55564642273262
 20
-9.666593422062519
 30
0.0
 10
-27.89872774910171
 20
-9.666593422062519
 30
0.0
 10
-26.55565727417706
 20
-11.00983615176143
 30
0.0
 10
-26.55565727417706
 20
-12.66658257061808
 30
0.0
  0
SPLINE
  5
49
330
3C
100
AcDbEntity
  8
LAYER_1
 62
     7
100
AcDbSpline
210
0.0
220
0.0
230
1.0
 70
    11
 71
     3
 72
    17
 73
    13
 74
     0
 42
0.0000000001
 43
0.0000000001
 40
0.0
 40
0.0
 40
0.0
 40
0.0
 40
1.0
 40
1.0
 40
1.0
 40
2.0
 40
2.0
 40
2.0
 40
3.0
 40
3.0
 40
3.0
 40
4.0
 40
4.0
 40
4.0
 40
4.0
 10
-26.55565727417706
 20
-21.11102836928822
 30
0.0
 10
-26.55565727417706
 20
-22.76777478814486
 30
0.0
 10
-27.89872774910171
 20
-24.11101751784377
 30
0.0
 10
-29.55564642273262
 20
-24.11101751784377
 30
0.0
 10
-31.21256509636353
 20
-24.11101751784377
 30
0.0
 10
-32.55563557128818
 20
-22.76777478814486
 30
0.0
 10
-32.55563557128818
 20
-21.11102836928822
 30
0.0
 10
-32.55563557128818
 20
-19.45428195043157
 30
0.0
 10
-31.21256509636353
 20
-18.11103922073266
 30
0.0
 10
-29.55564642273262
 20
-18.11103922073266
 30
0.0
 10
-27.89872774910171
 20
-18.11103922073266
 30
0.0
 10
-26.55565727417706
 20
-19.45428195043157
 30
0.0
 10
-26.55565727417706
 20
-21.11102836928822
 30
0.0
  0
SPLINE
  5
4A
330
3C
100
AcDbEntity
  8
LAYER_1
 62
     7
100
AcDbSpline
210
0.0
220
0.0
230
1.0
 70
    11
 71
     3
 72
    17
 73
    13
 74
     0
 42
0.0000000001
 43
0.0000000001
 40
0.0
 40
0.0
 40
0.0
 40
0.0
 40
1.0
 40
1.0
 40
1.0
 40
2.0
 40
2.0
 40
2.0
 40
3.0
 40
3.0
 40
3.0
 40
4.0
 40
4.0
 40
4.0
 40
4.0
 10
-18.11121147550692
 20
29.55547416795836
 30
0.0
 10
-18.11121147550692
 20
27.89872774910171
 30
0.0
 10
-19.45428195043157
 20
26.55548501940279
 30
0.0
 10
-21.11120062406248
 20
26.55548501940279
 30
0.0
 10
-22.76811929769339
 20
26.55548501940279
 30
0.0
 10
-24.11118977261804
 20
27.89872774910171
 30
0.0
 10
-24.11118977261804
 20
29.55547416795836
 30
0.0
 10
-24.11118977261804
 20
31.212220586815
 30
0.0
 10
-22.76811929769339
 20
32.55546331651392
 30
0.0
 10
-21.11120062406248
 20
32.55546331651392
 30
0.0
 10
-19.45428195043157
 20
32.55546331651392
 30
0.0
 10
-18.11121147550692
 20
31.212220586815
 30
0.0
 10
-18.11121147550692
 20
29.55547416795836
 30
0.0
  0
SPLINE
  5
4B
330
3C
100
AcDbEntity
  8
LAYER_1
 62
     7
100
AcDbSpline
210
0.0
220
0.0
230
1.0
 70
    11
 71
     3
 72
    17
 73
    13
 74
     0
 42
0.0000000001
 43
0.0000000001
 40
0.0
 40
0.0
 40
0.0
 40
0.0
 40
1.0
 40
1.0
 40
1.0
 40
2.0
 40
2.0
 40
2.0
 40
3.0
 40
3.0
 40
3.0
 40
4.0
 40
4.0
 40
4.0
 40
4.0
 10
-18.11121147550692
 20
21.11102836928822
 30
0.0
 10
-18.11121147550692
 20
19.45428195043157
 30
0.0
 10
-19.45428195043157
 20
18.11103922073266
 30
0.0
 10
-21.11120062406248
 20
18.11103922073266
 30
0.0
 10
-22.76811929769339
 20
18.11103922073266
 30
0.0
 10
-24.11118977261804
 20
19.45428195043157
 30
0.0
 10
-24.11118977261804
 20
21.11102836928822
 30
0.0
 10
-24.11118977261804
 20
22.76777478814486
 30
0.0
 10
-22.76811929769339
 20
24.11101751784377
 30
0.0
 10
-21.11120062406248
 20
24.11101751784377
 30
0.0
 10
-19.45428195043157
 20
24.11101751784377
 30
0.0
 10
-18.11121147550692
 20
22.76777478814486
 30
0.0
 10
-18.11121147550692
 20
21.11102836928822
 30
0.0
  0
SPLINE
  5
4C
330
3C
100
AcDbEntity
  8
LAYER_1
 62
     7
100
AcDbSpline
210
0.0
220
0.0
230
1.0
 70
    11
 71
     3
 72
    17
 73
    13
 74
     0
 42
0.0000000001
 43
0.0000000001
 40
0.0
 40
0.0
 40
0.0
 40
0.0
 40
1.0
 40
1.0
 40
1.0
 40
2.0
 40
2.0
 40
2.0
 40
3.0
 40
3.0
 40
3.0
 40
4.0
 40
4.0
 40
4.0
 40
4.0
 10
-18.11121147550692
 20
12.66675482539234
 30
0.0
 10
-18.11121147550692
 20
11.01000840653569
 30
0.0
 10
-19.45428195043157
 20
9.666765676836782
 30
0.0
 10
-21.11120062406248
 20
9.666765676836782
 30
0.0
 10
-22.76811929769339
 20
9.666765676836782
 30
0.0
 10
-24.11118977261804
 20
11.01000840653569
 30
0.0
 10
-24.11118977261804
 20
12.66675482539234
 30
0.0
 10
-24.11118977261804
 20
14.32350124424899
 30
0.0
 10
-22.76811929769339
 20
15.6667439739479
 30
0.0
 10
-21.11120062406248
 20
15.6667439739479
 30
0.0
 10
-19.45428195043157
 20
15.6667439739479
 30
0.0
 10
-18.11121147550692
 20
14.32350124424899
 30
0.0
 10
-18.11121147550692
 20
12.66675482539234
 30
0.0
  0
SPLINE
  5
4D
330
3C
100
AcDbEntity
  8
LAYER_1
 62
     7
100
AcDbSpline
210
0.0
220
0.0
230
1.0
 70
    11
 71
     3
 72
    17
 73
    13
 74
     0
 42
0.0000000001
 43
0.0000000001
 40
0.0
 40
0.0
 40
0.0
 40
0.0
 40
1.0
 40
1.0
 40
1.0
 40
2.0
 40
2.0
 40
2.0
 40
3.0
 40
3.0
 40
3.0
 40
4.0
 40
4.0
 40
4.0
 40
4.0
 10
-18.11121147550692
 20
4.222136771947938
 30
0.0
 10
-18.11121147550692
 20
2.565390353091292
 30
0.0
 10
-19.45428195043157
 20
1.22214762339238
 30
0.0
 10
-21.11120062406248
 20
1.22214762339238
 30
0.0
 10
-22.76811929769339
 20
1.22214762339238
 30
0.0
 10
-24.11118977261804
 20
2.565390353091292
 30
0.0
 10
-24.11118977261804
 20
4.222136771947938
 30
0.0
 10
-24.11118977261804
 20
5.878883190804585
 30
0.0
 10
-22.76811929769339
 20
7.222125920503497
 30
0.0
 10
-21.11120062406248
 20
7.222125920503497
 30
0.0
 10
-19.45428195043157
 20
7.222125920503497
 30
0.0
 10
-18.11121147550692
 20
5.878883190804585
 30
0.0
 10
-18.11121147550692
 20
4.222136771947938
 30
0.0
  0
SPLINE
  5
4E
330
3C
100
AcDbEntity
  8
LAYER_1
 62
     7
100
AcDbSpline
210
0.0
220
0.0
230
1.0
 70
    11
 71
     3
 72
    17
 73
    13
 74
     0
 42
0.0000000001
 43
0.0000000001
 40
0.0
 40
0.0
 40
0.0
 40
0.0
 40
1.0
 40
1.0
 40
1.0
 40
2.0
 40
2.0
 40
2.0
 40
3.0
 40
3.0
 40
3.0
 40
4.0
 40
4.0
 40
4.0
 40
4.0
 10
-18.11121147550692
 20
-4.222136771947938
 30
0.0
 10
-18.11121147550692
 20
-5.878883190804585
 30
0.0
 10
-19.45428195043157
 20
-7.222125920503497
 30
0.0
 10
-21.11120062406248
 20
-7.222125920503497
 30
0.0
 10
-22.76811929769339
 20
-7.222125920503497
 30
0.0
 10
-24.11118977261804
 20
-5.878883190804585
 30
0.0
 10
-24.11118977261804
 20
-4.222136771947938
 30
0.0
 10
-24.11118977261804
 20
-2.565390353091292
 30
0.0
 10
-22.76811929769339
 20
-1.22214762339238
 30
0.0
 10
-21.11120062406248
 20
-1.22214762339238
 30
0.0
 10
-19.45428195043157
 20
-1.22214762339238
 30
0.0
 10
-18.11121147550692
 20
-2.565390353091292
 30
0.0
 10
-18.11121147550692
 20
-4.222136771947938
 30
0.0
  0
SPLINE
  5
4F
330
3C
100
AcDbEntity
  8
LAYER_1
 62
     7
100
AcDbSpline
210
0.0
220
0.0
230
1.0
 70
    11
 71
     3
 72
    17
 73
    13
 74
     0
 42
0.0000000001
 43
0.0000000001
 40
0.0
 40
0.0
 40
0.0
 40
0.0
 40
1.0
 40
1.0
 40
1.0
 40
2.0
 40
2.0
 40
2.0
 40
3.0
 40
3.0
 40
3.0
 40
4.0
 40
4.0
 40
4.0
 40
4.0
 10
-18.11121147550692
 20
-12.66658257061808
 30
0.0
 10
-18.11121147550692
 20
-14.32332898947472
 30
0.0
 10
-19.45428195043157
 20
-15.66657171917364
 30
0.0
 10
-21.11120062406248
 20
-15.66657171917364
 30
0.0
 10
-22.76811929769339
 20
-15.66657171917364
 30
0.0
 10
-24.11118977261804
 20
-14.32332898947472
 30
0.0
 10
-24.11118977261804
 20
-12.66658257061808
 30
0.0
 10
-24.11118977261804
 20
-11.00983615176143
 30
0.0
 10
-22.76811929769339
 20
-9.666593422062519
 30
0.0
 10
-21.11120062406248
 20
-9.666593422062519
 30
0.0
 10
-19.45428195043157
 20
-9.666593422062519
 30
0.0
 10
-18.11121147550692
 20
-11.00983615176143
 30
0.0
 10
-18.11121147550692
 20
-12.66658257061808
 30
0.0
  0
SPLINE
  5
50
330
3C
100
AcDbEntity
  8
LAYER_1
 62
     7
100
AcDbSpline
210
0.0
220
0.0
230
1.0
 70
    11
 71
     3
 72
    17
 73
    13
 74
     0
 42
0.0000000001
 43
0.0000000001
 40
0.0
 40
0.0
 40
0.0
 40
0.0
 40
1.0
 40
1.0
 40
1.0
 40
2.0
 40
2.0
 40
2.0
 40
3.0
 40
3.0
 40
3.0
 40
4.0
 40
4.0
 40
4.0
 40
4.0
 10
-18.11121147550692
 20
-21.11102836928822
 30
0.0
 10
-18.11121147550692
 20
-22.76777478814486
 30
0.0
 10
-19.45428195043157
 20
-24.11101751784377
 30
0.0
 10
-21.11120062406248
 20
-24.11101751784377
 30
0.0
 10
-22.76811929769339
 20
-24.11101751784377
 30
0.0
 10
-24.11118977261804
 20
-22.76777478814486
 30
0.0
 10
-24.11118977261804
 20
-21.11102836928822
 30
0.0
 10
-24.11118977261804
 20
-19.45428195043157
 30
0.0
 10
-22.76811929769339
 20
-18.11103922073266
 30
0.0
 10
-21.11120062406248
 20
-18.11103922073266
 30
0.0
 10
-19.45428195043157
 20
-18.11103922073266
 30
0.0
 10
-18.11121147550692
 20
-19.45428195043157
 30
0.0
 10
-18.11121147550692
 20
-21.11102836928822
 30
0.0
  0
SPLINE
  5
51
330
3C
100
AcDbEntity
  8
LAYER_1
 62
     7
100
AcDbSpline
210
0.0
220
0.0
230
1.0
 70
    11
 71
     3
 72
    17
 73
    13
 74
     0
 42
0.0000000001
 43
0.0000000001
 40
0.0
 40
0.0
 40
0.0
 40
0.0
 40
1.0
 40
1.0
 40
1.0
 40
2.0
 40
2.0
 40
2.0
 40
3.0
 40
3.0
 40
3.0
 40
4.0
 40
4.0
 40
4.0
 40
4.0
 10
-18.11121147550692
 20
-29.55547416795836
 30
0.0
 10
-18.11121147550692
 20
-31.212220586815
 30
0.0
 10
-19.45428195043157
 20
-32.55546331651392
 30
0.0
 10
-21.11120062406248
 20
-32.55546331651392
 30
0.0
 10
-22.76811929769339
 20
-32.55546331651392
 30
0.0
 10
-24.11118977261804
 20
-31.212220586815
 30
0.0
 10
-24.11118977261804
 20
-29.55547416795836
 30
0.0
 10
-24.11118977261804
 20
-27.89872774910171
 30
0.0
 10
-22.76811929769339
 20
-26.55548501940279
 30
0.0
 10
-21.11120062406248
 20
-26.55548501940279
 30
0.0
 10
-19.45428195043157
 20
-26.55548501940279
 30
0.0
 10
-18.11121147550692
 20
-27.89872774910171
 30
0.0
 10
-18.11121147550692
 20
-29.55547416795836
 30
0.0
  0
SPLINE
  5
52
330
3C
100
AcDbEntity
  8
LAYER_1
 62
     7
100
AcDbSpline
210
0.0
220
0.0
230
1.0
 70
    11
 71
     3
 72
    17
 73
    13
 74
     0
 42
0.0000000001
 43
0.0000000001
 40
0.0
 40
0.0
 40
0.0
 40
0.0
 40
1.0
 40
1.0
 40
1.0
 40
2.0
 40
2.0
 40
2.0
 40
3.0
 40
3.0
 40
3.0
 40
4.0
 40
4.0
 40
4.0
 40
4.0
 10
-9.666765676836782
 20
38.00009222140276
 30
0.0
 10
-9.666765676836782
 20
36.34334580254611
 30
0.0
 10
-11.00983615176143
 20
35.0001030728472
 30
0.0
 10
-12.66675482539234
 20
35.0001030728472
 30
0.0
 10
-14.32367349902325
 20
35.0001030728472
 30
0.0
 10
-15.6667439739479
 20
36.34334580254611
 30
0.0
 10
-15.6667439739479
 20
38.00009222140276
 30
0.0
 10
-15.6667439739479
 20
39.6568386402594
 30
0.0
 10
-14.32367349902325
 20
41.00008136995832
 30
0.0
 10
-12.66675482539234
 20
41.00008136995832
 30
0.0
 10
-11.00983615176143
 20
41.00008136995832
 30
0.0
 10
-9.666765676836782
 20
39.6568386402594
 30
0.0
 10
-9.666765676836782
 20
38.00009222140276
 30
0.0
  0
SPLINE
  5
53
330
3C
100
AcDbEntity
  8
LAYER_1
 62
     7
100
AcDbSpline
210
0.0
220
0.0
230
1.0
 70
    11
 71
     3
 72
    17
 73
    13
 74
     0
 42
0.0000000001
 43
0.0000000001
 40
0.0
 40
0.0
 40
0.0
 40
0.0
 40
1.0
 40
1.0
 40
1.0
 40
2.0
 40
2.0
 40
2.0
 40
3.0
 40
3.0
 40
3.0
 40
4.0
 40
4.0
 40
4.0
 40
4.0
 10
-9.666765676836782
 20
29.55547416795836
 30
0.0
 10
-9.666765676836782
 20
27.89872774910171
 30
0.0
 10
-11.00983615176143
 20
26.55548501940279
 30
0.0
 10
-12.66675482539234
 20
26.55548501940279
 30
0.0
 10
-14.32367349902325
 20
26.55548501940279
 30
0.0
 10
-15.6667439739479
 20
27.89872774910171
 30
0.0
 10
-15.6667439739479
 20
29.55547416795836
 30
0.0
 10
-15.6667439739479
 20
31.212220586815
 30
0.0
 10
-14.32367349902325
 20
32.55546331651392
 30
0.0
 10
-12.66675482539234
 20
32.55546331651392
 30
0.0
 10
-11.00983615176143
 20
32.55546331651392
 30
0.0
 10
-9.666765676836782
 20
31.212220586815
 30
0.0
 10
-9.666765676836782
 20
29.55547416795836
 30
0.0
  0
SPLINE
  5
54
330
3C
100
AcDbEntity
  8
LAYER_1
 62
     7
100
AcDbSpline
210
0.0
220
0.0
230
1.0
 70
    11
 71
     3
 72
    17
 73
    13
 74
     0
 42
0.0000000001
 43
0.0000000001
 40
0.0
 40
0.0
 40
0.0
 40
0.0
 40
1.0
 40
1.0
 40
1.0
 40
2.0
 40
2.0
 40
2.0
 40
3.0
 40
3.0
 40
3.0
 40
4.0
 40
4.0
 40
4.0
 40
4.0
 10
-9.666765676836782
 20
21.11102836928822
 30
0.0
 10
-9.666765676836782
 20
19.45428195043157
 30
0.0
 10
-11.00983615176143
 20
18.11103922073266
 30
0.0
 10
-12.66675482539234
 20
18.11103922073266
 30
0.0
 10
-14.32367349902325
 20
18.11103922073266
 30
0.0
 10
-15.6667439739479
 20
19.45428195043157
 30
0.0
 10
-15.6667439739479
 20
21.11102836928822
 30
0.0
 10
-15.6667439739479
 20
22.76777478814486
 30
0.0
 10
-14.32367349902325
 20
24.11101751784377
 30
0.0
 10
-12.66675482539234
 20
24.11101751784377
 30
0.0
 10
-11.00983615176143
 20
24.11101751784377
 30
0.0
 10
-9.666765676836782
 20
22.76777478814486
 30
0.0
 10
-9.666765676836782
 20
21.11102836928822
 30
0.0
  0
SPLINE
  5
55
330
3C
100
AcDbEntity
  8
LAYER_1
 62
     7
100
AcDbSpline
210
0.0
220
0.0
230
1.0
 70
    11
 71
     3
 72
    17
 73
    13
 74
     0
 42
0.0000000001
 43
0.0000000001
 40
0.0
 40
0.0
 40
0.0
 40
0.0
 40
1.0
 40
1.0
 40
1.0
 40
2.0
 40
2.0
 40
2.0
 40
3.0
 40
3.0
 40
3.0
 40
4.0
 40
4.0
 40
4.0
 40
4.0
 10
-9.666765676836782
 20
12.66675482539234
 30
0.0
 10
-9.666765676836782
 20
11.01000840653569
 30
0.0
 10
-11.00983615176143
 20
9.666765676836782
 30
0.0
 10
-12.66675482539234
 20
9.666765676836782
 30
0.0
 10
-14.32367349902325
 20
9.666765676836782
 30
0.0
 10
-15.6667439739479
 20
11.01000840653569
 30
0.0
 10
-15.6667439739479
 20
12.66675482539234
 30
0.0
 10
-15.6667439739479
 20
14.32350124424899
 30
0.0
 10
-14.32367349902325
 20
15.6667439739479
 30
0.0
 10
-12.66675482539234
 20
15.6667439739479
 30
0.0
 10
-11.00983615176143
 20
15.6667439739479
 30
0.0
 10
-9.666765676836782
 20
14.32350124424899
 30
0.0
 10
-9.666765676836782
 20
12.66675482539234
 30
0.0
  0
SPLINE
  5
56
330
3C
100
AcDbEntity
  8
LAYER_1
 62
     7
100
AcDbSpline
210
0.0
220
0.0
230
1.0
 70
    11
 71
     3
 72
    17
 73
    13
 74
     0
 42
0.0000000001
 43
0.0000000001
 40
0.0
 40
0.0
 40
0.0
 40
0.0
 40
1.0
 40
1.0
 40
1.0
 40
2.0
 40
2.0
 40
2.0
 40
3.0
 40
3.0
 40
3.0
 40
4.0
 40
4.0
 40
4.0
 40
4.0
 10
-9.666765676836782
 20
4.222136771947938
 30
0.0
 10
-9.666765676836782
 20
2.565390353091292
 30
0.0
 10
-11.00983615176143
 20
1.22214762339238
 30
0.0
 10
-12.66675482539234
 20
1.22214762339238
 30
0.0
 10
-14.32367349902325
 20
1.22214762339238
 30
0.0
 10
-15.6667439739479
 20
2.565390353091292
 30
0.0
 10
-15.6667439739479
 20
4.222136771947938
 30
0.0
 10
-15.6667439739479
 20
5.878883190804585
 30
0.0
 10
-14.32367349902325
 20
7.222125920503497
 30
0.0
 10
-12.66675482539234
 20
7.222125920503497
 30
0.0
 10
-11.00983615176143
 20
7.222125920503497
 30
0.0
 10
-9.666765676836782
 20
5.878883190804585
 30
0.0
 10
-9.666765676836782
 20
4.222136771947938
 30
0.0
  0
SPLINE
  5
57
330
3C
100
AcDbEntity
  8
LAYER_1
 62
     7
100
AcDbSpline
210
0.0
220
0.0
230
1.0
 70
    11
 71
     3
 72
    17
 73
    13
 74
     0
 42
0.0000000001
 43
0.0000000001
 40
0.0
 40
0.0
 40
0.0
 40
0.0
 40
1.0
 40
1.0
 40
1.0
 40
2.0
 40
2.0
 40
2.0
 40
3.0
 40
3.0
 40
3.0
 40
4.0
 40
4.0
 40
4.0
 40
4.0
 10
-9.666765676836782
 20
-4.222136771947938
 30
0.0
 10
-9.666765676836782
 20
-5.878883190804585
 30
0.0
 10
-11.00983615176143
 20
-7.222125920503497
 30
0.0
 10
-12.66675482539234
 20
-7.222125920503497
 30
0.0
 10
-14.32367349902325
 20
-7.222125920503497
 30
0.0
 10
-15.6667439739479
 20
-5.878883190804585
 30
0.0
 10
-15.6667439739479
 20
-4.222136771947938
 30
0.0
 10
-15.6667439739479
 20
-2.565390353091292
 30
0.0
 10
-14.32367349902325
 20
-1.22214762339238
 30
0.0
 10
-12.66675482539234
 20
-1.22214762339238
 30
0.0
 10
-11.00983615176143
 20
-1.22214762339238
 30
0.0
 10
-9.666765676836782
 20
-2.565390353091292
 30
0.0
 10
-9.666765676836782
 20
-4.222136771947938
 30
0.0
  0
SPLINE
  5
58
330
3C
100
AcDbEntity
  8
LAYER_1
 62
     7
100
AcDbSpline
210
0.0
220
0.0
230
1.0
 70
    11
 71
     3
 72
    17
 73
    13
 74
     0
 42
0.0000000001
 43
0.0000000001
 40
0.0
 40
0.0
 40
0.0
 40
0.0
 40
1.0
 40
1.0
 40
1.0
 40
2.0
 40
2.0
 40
2.0
 40
3.0
 40
3.0
 40
3.0
 40
4.0
 40
4.0
 40
4.0
 40
4.0
 10
-9.666765676836782
 20
-12.66658257061808
 30
0.0
 10
-9.666765676836782
 20
-14.32332898947472
 30
0.0
 10
-11.00983615176143
 20
-15.66657171917364
 30
0.0
 10
-12.66675482539234
 20
-15.66657171917364
 30
0.0
 10
-14.32367349902325
 20
-15.66657171917364
 30
0.0
 10
-15.6667439739479
 20
-14.32332898947472
 30
0.0
 10
-15.6667439739479
 20
-12.66658257061808
 30
0.0
 10
-15.6667439739479
 20
-11.00983615176143
 30
0.0
 10
-14.32367349902325
 20
-9.666593422062519
 30
0.0
 10
-12.66675482539234
 20
-9.666593422062519
 30
0.0
 10
-11.00983615176143
 20
-9.666593422062519
 30
0.0
 10
-9.666765676836782
 20
-11.00983615176143
 30
0.0
 10
-9.666765676836782
 20
-12.66658257061808
 30
0.0
  0
SPLINE
  5
59
330
3C
100
AcDbEntity
  8
LAYER_1
 62
     7
100
AcDbSpline
210
0.0
220
0.0
230
1.0
 70
    11
 71
     3
 72
    17
 73
    13
 74
     0
 42
0.0000000001
 43
0.0000000001
 40
0.0
 40
0.0
 40
0.0
 40
0.0
 40
1.0
 40
1.0
 40
1.0
 40
2.0
 40
2.0
 40
2.0
 40
3.0
 40
3.0
 40
3.0
 40
4.0
 40
4.0
 40
4.0
 40
4.0
 10
-9.666765676836782
 20
-21.11102836928822
 30
0.0
 10
-9.666765676836782
 20
-22.76777478814486
 30
0.0
 10
-11.00983615176143
 20
-24.11101751784377
 30
0.0
 10
-12.66675482539234
 20
-24.11101751784377
 30
0.0
 10
-14.32367349902325
 20
-24.11101751784377
 30
0.0
 10
-15.6667439739479
 20
-22.76777478814486
 30
0.0
 10
-15.6667439739479
 20
-21.11102836928822
 30
0.0
 10
-15.6667439739479
 20
-19.45428195043157
 30
0.0
 10
-14.32367349902325
 20
-18.11103922073266
 30
0.0
 10
-12.66675482539234
 20
-18.11103922073266
 30
0.0
 10
-11.00983615176143
 20
-18.11103922073266
 30
0.0
 10
-9.666765676836782
 20
-19.45428195043157
 30
0.0
 10
-9.666765676836782
 20
-21.11102836928822
 30
0.0
  0
SPLINE
  5
5A
330
3C
100
AcDbEntity
  8
LAYER_1
 62
     7
100
AcDbSpline
210
0.0
220
0.0
230
1.0
 70
    11
 71
     3
 72
    17
 73
    13
 74
     0
 42
0.0000000001
 43
0.0000000001
 40
0.0
 40
0.0
 40
0.0
 40
0.0
 40
1.0
 40
1.0
 40
1.0
 40
2.0
 40
2.0
 40
2.0
 40
3.0
 40
3.0
 40
3.0
 40
4.0
 40
4.0
 40
4.0
 40
4.0
 10
-9.666765676836782
 20
-29.55547416795836
 30
0.0
 10
-9.666765676836782
 20
-31.212220586815
 30
0.0
 10
-11.00983615176143
 20
-32.55546331651392
 30
0.0
 10
-12.66675482539234
 20
-32.55546331651392
 30
0.0
 10
-14.32367349902325
 20
-32.55546331651392
 30
0.0
 10
-15.6667439739479
 20
-31.212220586815
 30
0.0
 10
-15.6667439739479
 20
-29.55547416795836
 30
0.0
 10
-15.6667439739479
 20
-27.89872774910171
 30
0.0
 10
-14.32367349902325
 20
-26.55548501940279
 30
0.0
 10
-12.66675482539234
 20
-26.55548501940279
 30
0.0
 10
-11.00983615176143
 20
-26.55548501940279
 30
0.0
 10
-9.666765676836782
 20
-27.89872774910171
 30
0.0
 10
-9.666765676836782
 20
-29.55547416795836
 30
0.0
  0
SPLINE
  5
5B
330
3C
100
AcDbEntity
  8
LAYER_1
 62
     7
100
AcDbSpline
210
0.0
220
0.0
230
1.0
 70
    11
 71
     3
 72
    17
 73
    13
 74
     0
 42
0.0000000001
 43
0.0000000001
 40
0.0
 40
0.0
 40
0.0
 40
0.0
 40
1.0
 40
1.0
 40
1.0
 40
2.0
 40
2.0
 40
2.0
 40
3.0
 40
3.0
 40
3.0
 40
4.0
 40
4.0
 40
4.0
 40
4.0
 10
-9.666765676836782
 20
-38.00009222140276
 30
0.0
 10
-9.666765676836782
 20
-39.6568386402594
 30
0.0
 10
-11.00983615176143
 20
-41.00008136995832
 30
0.0
 10
-12.66675482539234
 20
-41.00008136995832
 30
0.0
 10
-14.32367349902325
 20
-41.00008136995832
 30
0.0
 10
-15.6667439739479
 20
-39.6568386402594
 30
0.0
 10
-15.6667439739479
 20
-38.00009222140276
 30
0.0
 10
-15.6667439739479
 20
-36.34334580254611
 30
0.0
 10
-14.32367349902325
 20
-35.0001030728472
 30
0.0
 10
-12.66675482539234
 20
-35.0001030728472
 30
0.0
 10
-11.00983615176143
 20
-35.0001030728472
 30
0.0
 10
-9.666765676836782
 20
-36.34334580254611
 30
0.0
 10
-9.666765676836782
 20
-38.00009222140276
 30
0.0
  0
SPLINE
  5
5C
330
3C
100
AcDbEntity
  8
LAYER_1
 62
     7
100
AcDbSpline
210
0.0
220
0.0
230
1.0
 70
    11
 71
     3
 72
    17
 73
    13
 74
     0
 42
0.0000000001
 43
0.0000000001
 40
0.0
 40
0.0
 40
0.0
 40
0.0
 40
1.0
 40
1.0
 40
1.0
 40
2.0
 40
2.0
 40
2.0
 40
3.0
 40
3.0
 40
3.0
 40
4.0
 40
4.0
 40
4.0
 40
4.0
 10
-1.222319878166642
 20
38.00009222140276
 30
0.0
 10
-1.222319878166642
 20
36.34334580254611
 30
0.0
 10
-2.565390353091292
 20
35.0001030728472
 30
0.0
 10
-4.222309026722201
 20
35.0001030728472
 30
0.0
 10
-5.87922770035311
 20
35.0001030728472
 30
0.0
 10
-7.222298175277759
 20
36.34334580254611
 30
0.0
 10
-7.222298175277759
 20
38.00009222140276
 30
0.0
 10
-7.222298175277759
 20
39.6568386402594
 30
0.0
 10
-5.87922770035311
 20
41.00008136995832
 30
0.0
 10
-4.222309026722201
 20
41.00008136995832
 30
0.0
 10
-2.565390353091292
 20
41.00008136995832
 30
0.0
 10
-1.222319878166642
 20
39.6568386402594
 30
0.0
 10
-1.222319878166642
 20
38.00009222140276
 30
0.0
  0
SPLINE
  5
5D
330
3C
100
AcDbEntity
  8
LAYER_1
 62
     7
100
AcDbSpline
210
0.0
220
0.0
230
1.0
 70
    11
 71
     3
 72
    17
 73
    13
 74
     0
 42
0.0000000001
 43
0.0000000001
 40
0.0
 40
0.0
 40
0.0
 40
0.0
 40
1.0
 40
1.0
 40
1.0
 40
2.0
 40
2.0
 40
2.0
 40
3.0
 40
3.0
 40
3.0
 40
4.0
 40
4.0
 40
4.0
 40
4.0
 10
-1.222319878166642
 20
29.55547416795836
 30
0.0
 10
-1.222319878166642
 20
27.89872774910171
 30
0.0
 10
-2.565390353091292
 20
26.55548501940279
 30
0.0
 10
-4.222309026722201
 20
26.55548501940279
 30
0.0
 10
-5.87922770035311
 20
26.55548501940279
 30
0.0
 10
-7.222298175277759
 20
27.89872774910171
 30
0.0
 10
-7.222298175277759
 20
29.55547416795836
 30
0.0
 10
-7.222298175277759
 20
31.212220586815
 30
0.0
 10
-5.87922770035311
 20
32.55546331651392
 30
0.0
 10
-4.222309026722201
 20
32.55546331651392
 30
0.0
 10
-2.565390353091292
 20
32.55546331651392
 30
0.0
 10
-1.222319878166642
 20
31.212220586815
 30
0.0
 10
-1.222319878166642
 20
29.55547416795836
 30
0.0
  0
SPLINE
  5
5E
330
3C
100
AcDbEntity
  8
LAYER_1
 62
     7
100
AcDbSpline
210
0.0
220
0.0
230
1.0
 70
    11
 71
     3
 72
    17
 73
    13
 74
     0
 42
0.0000000001
 43
0.0000000001
 40
0.0
 40
0.0
 40
0.0
 40
0.0
 40
1.0
 40
1.0
 40
1.0
 40
2.0
 40
2.0
 40
2.0
 40
3.0
 40
3.0
 40
3.0
 40
4.0
 40
4.0
 40
4.0
 40
4.0
 10
-1.222319878166642
 20
21.11102836928822
 30
0.0
 10
-1.222319878166642
 20
19.45428195043157
 30
0.0
 10
-2.565390353091292
 20
18.11103922073266
 30
0.0
 10
-4.222309026722201
 20
18.11103922073266
 30
0.0
 10
-5.87922770035311
 20
18.11103922073266
 30
0.0
 10
-7.222298175277759
 20
19.45428195043157
 30
0.0
 10
-7.222298175277759
 20
21.11102836928822
 30
0.0
 10
-7.222298175277759
 20
22.76777478814486
 30
0.0
 10
-5.87922770035311
 20
24.11101751784377
 30
0.0
 10
-4.222309026722201
 20
24.11101751784377
 30
0.0
 10
-2.565390353091292
 20
24.11101751784377
 30
0.0
 10
-1.222319878166642
 20
22.76777478814486
 30
0.0
 10
-1.222319878166642
 20
21.11102836928822
 30
0.0
  0
SPLINE
  5
5F
330
3C
100
AcDbEntity
  8
LAYER_1
 62
     7
100
AcDbSpline
210
0.0
220
0.0
230
1.0
 70
    11
 71
     3
 72
    17
 73
    13
 74
     0
 42
0.0000000001
 43
0.0000000001
 40
0.0
 40
0.0
 40
0.0
 40
0.0
 40
1.0
 40
1.0
 40
1.0
 40
2.0
 40
2.0
 40
2.0
 40
3.0
 40
3.0
 40
3.0
 40
4.0
 40
4.0
 40
4.0
 40
4.0
 10
-1.222319878166642
 20
12.66675482539234
 30
0.0
 10
-1.222319878166642
 20
11.01000840653569
 30
0.0
 10
-2.565390353091292
 20
9.666765676836782
 30
0.0
 10
-4.222309026722201
 20
9.666765676836782
 30
0.0
 10
-5.87922770035311
 20
9.666765676836782
 30
0.0
 10
-7.222298175277759
 20
11.01000840653569
 30
0.0
 10
-7.222298175277759
 20
12.66675482539234
 30
0.0
 10
-7.222298175277759
 20
14.32350124424899
 30
0.0
 10
-5.87922770035311
 20
15.6667439739479
 30
0.0
 10
-4.222309026722201
 20
15.6667439739479
 30
0.0
 10
-2.565390353091292
 20
15.6667439739479
 30
0.0
 10
-1.222319878166642
 20
14.32350124424899
 30
0.0
 10
-1.222319878166642
 20
12.66675482539234
 30
0.0
  0
SPLINE
  5
60
330
3C
100
AcDbEntity
  8
LAYER_1
 62
     7
100
AcDbSpline
210
0.0
220
0.0
230
1.0
 70
    11
 71
     3
 72
    17
 73
    13
 74
     0
 42
0.0000000001
 43
0.0000000001
 40
0.0
 40
0.0
 40
0.0
 40
0.0
 40
1.0
 40
1.0
 40
1.0
 40
2.0
 40
2.0
 40
2.0
 40
3.0
 40
3.0
 40
3.0
 40
4.0
 40
4.0
 40
4.0
 40
4.0
 10
-1.222319878166642
 20
-12.66658257061808
 30
0.0
 10
-1.222319878166642
 20
-14.32332898947472
 30
0.0
 10
-2.565390353091292
 20
-15.66657171917364
 30
0.0
 10
-4.222309026722201
 20
-15.66657171917364
 30
0.0
 10
-5.87922770035311
 20
-15.66657171917364
 30
0.0
 10
-7.222298175277759
 20
-14.32332898947472
 30
0.0
 10
-7.222298175277759
 20
-12.66658257061808
 30
0.0
 10
-7.222298175277759
 20
-11.00983615176143
 30
0.0
 10
-5.87922770035311
 20
-9.666593422062519
 30
0.0
 10
-4.222309026722201
 20
-9.666593422062519
 30
0.0
 10
-2.565390353091292
 20
-9.666593422062519
 30
0.0
 10
-1.222319878166642
 20
-11.00983615176143
 30
0.0
 10
-1.222319878166642
 20
-12.66658257061808
 30
0.0
  0
SPLINE
  5
61
330
3C
100
AcDbEntity
  8
LAYER_1
 62
     7
100
AcDbSpline
210
0.0
220
0.0
230
1.0
 70
    11
 71
     3
 72
    17
 73
    13
 74
     0
 42
0.0000000001
 43
0.0000000001
 40
0.0
 40
0.0
 40
0.0
 40
0.0
 40
1.0
 40
1.0
 40
1.0
 40
2.0
 40
2.0
 40
2.0
 40
3.0
 40
3.0
 40
3.0
 40
4.0
 40
4.0
 40
4.0
 40
4.0
 10
-1.222319878166642
 20
-21.11102836928822
 30
0.0
 10
-1.222319878166642
 20
-22.76777478814486
 30
0.0
 10
-2.565390353091292
 20
-24.11101751784377
 30
0.0
 10
-4.222309026722201
 20
-24.11101751784377
 30
0.0
 10
-5.87922770035311
 20
-24.11101751784377
 30
0.0
 10
-7.222298175277759
 20
-22.76777478814486
 30
0.0
 10
-7.222298175277759
 20
-21.11102836928822
 30
0.0
 10
-7.222298175277759
 20
-19.45428195043157
 30
0.0
 10
-5.87922770035311
 20
-18.11103922073266
 30
0.0
 10
-4.222309026722201
 20
-18.11103922073266
 30
0.0
 10
-2.565390353091292
 20
-18.11103922073266
 30
0.0
 10
-1.222319878166642
 20
-19.45428195043157
 30
0.0
 10
-1.222319878166642
 20
-21.11102836928822
 30
0.0
  0
SPLINE
  5
62
330
3C
100
AcDbEntity
  8
LAYER_1
 62
     7
100
AcDbSpline
210
0.0
220
0.0
230
1.0
 70
    11
 71
     3
 72
    17
 73
    13
 74
     0
 42
0.0000000001
 43
0.0000000001
 40
0.0
 40
0.0
 40
0.0
 40
0.0
 40
1.0
 40
1.0
 40
1.0
 40
2.0
 40
2.0
 40
2.0
 40
3.0
 40
3.0
 40
3.0
 40
4.0
 40
4.0
 40
4.0
 40
4.0
 10
-1.222319878166642
 20
-29.55547416795836
 30
0.0
 10
-1.222319878166642
 20
-31.212220586815
 30
0.0
 10
-2.565390353091292
 20
-32.55546331651392
 30
0.0
 10
-4.222309026722201
 20
-32.55546331651392
 30
0.0
 10
-5.87922770035311
 20
-32.55546331651392
 30
0.0
 10
-7.222298175277759
 20
-31.212220586815
 30
0.0
 10
-7.222298175277759
 20
-29.55547416795836
 30
0.0
 10
-7.222298175277759
 20
-27.89872774910171
 30
0.0
 10
-5.87922770035311
 20
-26.55548501940279
 30
0.0
 10
-4.222309026722201
 20
-26.55548501940279
 30
0.0
 10
-2.565390353091292
 20
-26.55548501940279
 30
0.0
 10
-1.222319878166642
 20
-27.89872774910171
 30
0.0
 10
-1.222319878166642
 20
-29.55547416795836
 30
0.0
  0
SPLINE
  5
63
330
3C
100
AcDbEntity
  8
LAYER_1
 62
     7
100
AcDbSpline
210
0.0
220
0.0
230
1.0
 70
    11
 71
     3
 72
    17
 73
    13
 74
     0
 42
0.0000000001
 43
0.0000000001
 40
0.0
 40
0.0
 40
0.0
 40
0.0
 40
1.0
 40
1.0
 40
1.0
 40
2.0
 40
2.0
 40
2.0
 40
3.0
 40
3.0
 40
3.0
 40
4.0
 40
4.0
 40
4.0
 40
4.0
 10
-1.222319878166642
 20
-38.00009222140276
 30
0.0
 10
-1.222319878166642
 20
-39.6568386402594
 30
0.0
 10
-2.565390353091292
 20
-41.00008136995832
 30
0.0
 10
-4.222309026722201
 20
-41.00008136995832
 30
0.0
 10
-5.87922770035311
 20
-41.00008136995832
 30
0.0
 10
-7.222298175277759
 20
-39.6568386402594
 30
0.0
 10
-7.222298175277759
 20
-38.00009222140276
 30
0.0
 10
-7.222298175277759
 20
-36.34334580254611
 30
0.0
 10
-5.87922770035311
 20
-35.0001030728472
 30
0.0
 10
-4.222309026722201
 20
-35.0001030728472
 30
0.0
 10
-2.565390353091292
 20
-35.0001030728472
 30
0.0
 10
-1.222319878166642
 20
-36.34334580254611
 30
0.0
 10
-1.222319878166642
 20
-38.00009222140276
 30
0.0
  0
SPLINE
  5
64
330
3C
100
AcDbEntity
  8
LAYER_1
 62
     7
100
AcDbSpline
210
0.0
220
0.0
230
1.0
 70
    11
 71
     3
 72
    17
 73
    13
 74
     0
 42
0.0000000001
 43
0.0000000001
 40
0.0
 40
0.0
 40
0.0
 40
0.0
 40
1.0
 40
1.0
 40
1.0
 40
2.0
 40
2.0
 40
2.0
 40
3.0
 40
3.0
 40
3.0
 40
4.0
 40
4.0
 40
4.0
 40
4.0
 10
7.222125920503497
 20
38.00009222140276
 30
0.0
 10
7.222125920503497
 20
36.34334580254611
 30
0.0
 10
5.879055445578848
 20
35.0001030728472
 30
0.0
 10
4.222136771947938
 20
35.0001030728472
 30
0.0
 10
2.565218098317029
 20
35.0001030728472
 30
0.0
 10
1.22214762339238
 20
36.34334580254611
 30
0.0
 10
1.22214762339238
 20
38.00009222140276
 30
0.0
 10
1.22214762339238
 20
39.6568386402594
 30
0.0
 10
2.565218098317029
 20
41.00008136995832
 30
0.0
 10
4.222136771947938
 20
41.00008136995832
 30
0.0
 10
5.879055445578848
 20
41.00008136995832
 30
0.0
 10
7.222125920503497
 20
39.6568386402594
 30
0.0
 10
7.222125920503497
 20
38.00009222140276
 30
0.0
  0
SPLINE
  5
65
330
3C
100
AcDbEntity
  8
LAYER_1
 62
     7
100
AcDbSpline
210
0.0
220
0.0
230
1.0
 70
    11
 71
     3
 72
    17
 73
    13
 74
     0
 42
0.0000000001
 43
0.0000000001
 40
0.0
 40
0.0
 40
0.0
 40
0.0
 40
1.0
 40
1.0
 40
1.0
 40
2.0
 40
2.0
 40
2.0
 40
3.0
 40
3.0
 40
3.0
 40
4.0
 40
4.0
 40
4.0
 40
4.0
 10
7.222125920503497
 20
29.55547416795836
 30
0.0
 10
7.222125920503497
 20
27.89872774910171
 30
0.0
 10
5.879055445578848
 20
26.55548501940279
 30
0.0
 10
4.222136771947938
 20
26.55548501940279
 30
0.0
 10
2.565218098317029
 20
26.55548501940279
 30
0.0
 10
1.22214762339238
 20
27.89872774910171
 30
0.0
 10
1.22214762339238
 20
29.55547416795836
 30
0.0
 10
1.22214762339238
 20
31.212220586815
 30
0.0
 10
2.565218098317029
 20
32.55546331651392
 30
0.0
 10
4.222136771947938
 20
32.55546331651392
 30
0.0
 10
5.879055445578848
 20
32.55546331651392
 30
0.0
 10
7.222125920503497
 20
31.212220586815
 30
0.0
 10
7.222125920503497
 20
29.55547416795836
 30
0.0
  0
SPLINE
  5
66
330
3C
100
AcDbEntity
  8
LAYER_1
 62
     7
100
AcDbSpline
210
0.0
220
0.0
230
1.0
 70
    11
 71
     3
 72
    17
 73
    13
 74
     0
 42
0.0000000001
 43
0.0000000001
 40
0.0
 40
0.0
 40
0.0
 40
0.0
 40
1.0
 40
1.0
 40
1.0
 40
2.0
 40
2.0
 40
2.0
 40
3.0
 40
3.0
 40
3.0
 40
4.0
 40
4.0
 40
4.0
 40
4.0
 10
7.222125920503497
 20
21.11102836928822
 30
0.0
 10
7.222125920503497
 20
19.45428195043157
 30
0.0
 10
5.879055445578848
 20
18.11103922073266
 30
0.0
 10
4.222136771947938
 20
18.11103922073266
 30
0.0
 10
2.565218098317029
 20
18.11103922073266
 30
0.0
 10
1.22214762339238
 20
19.45428195043157
 30
0.0
 10
1.22214762339238
 20
21.11102836928822
 30
0.0
 10
1.22214762339238
 20
22.76777478814486
 30
0.0
 10
2.565218098317029
 20
24.11101751784377
 30
0.0
 10
4.222136771947938
 20
24.11101751784377
 30
0.0
 10
5.879055445578848
 20
24.11101751784377
 30
0.0
 10
7.222125920503497
 20
22.76777478814486
 30
0.0
 10
7.222125920503497
 20
21.11102836928822
 30
0.0
  0
SPLINE
  5
67
330
3C
100
AcDbEntity
  8
LAYER_1
 62
     7
100
AcDbSpline
210
0.0
220
0.0
230
1.0
 70
    11
 71
     3
 72
    17
 73
    13
 74
     0
 42
0.0000000001
 43
0.0000000001
 40
0.0
 40
0.0
 40
0.0
 40
0.0
 40
1.0
 40
1.0
 40
1.0
 40
2.0
 40
2.0
 40
2.0
 40
3.0
 40
3.0
 40
3.0
 40
4.0
 40
4.0
 40
4.0
 40
4.0
 10
7.222125920503497
 20
12.66675482539234
 30
0.0
 10
7.222125920503497
 20
11.01000840653569
 30
0.0
 10
5.879055445578848
 20
9.666765676836782
 30
0.0
 10
4.222136771947938
 20
9.666765676836782
 30
0.0
 10
2.565218098317029
 20
9.666765676836782
 30
0.0
 10
1.22214762339238
 20
11.01000840653569
 30
0.0
 10
1.22214762339238
 20
12.66675482539234
 30
0.0
 10
1.22214762339238
 20
14.32350124424899
 30
0.0
 10
2.565218098317029
 20
15.6667439739479
 30
0.0
 10
4.222136771947938
 20
15.6667439739479
 30
0.0
 10
5.879055445578848
 20
15.6667439739479
 30
0.0
 10
7.222125920503497
 20
14.32350124424899
 30
0.0
 10
7.222125920503497
 20
12.66675482539234
 30
0.0
  0
SPLINE
  5
68
330
3C
100
AcDbEntity
  8
LAYER_1
 62
     7
100
AcDbSpline
210
0.0
220
0.0
230
1.0
 70
    11
 71
     3
 72
    17
 73
    13
 74
     0
 42
0.0000000001
 43
0.0000000001
 40
0.0
 40
0.0
 40
0.0
 40
0.0
 40
1.0
 40
1.0
 40
1.0
 40
2.0
 40
2.0
 40
2.0
 40
3.0
 40
3.0
 40
3.0
 40
4.0
 40
4.0
 40
4.0
 40
4.0
 10
7.222125920503497
 20
-12.66658257061808
 30
0.0
 10
7.222125920503497
 20
-14.32332898947472
 30
0.0
 10
5.879055445578848
 20
-15.66657171917364
 30
0.0
 10
4.222136771947938
 20
-15.66657171917364
 30
0.0
 10
2.565218098317029
 20
-15.66657171917364
 30
0.0
 10
1.22214762339238
 20
-14.32332898947472
 30
0.0
 10
1.22214762339238
 20
-12.66658257061808
 30
0.0
 10
1.22214762339238
 20
-11.00983615176143
 30
0.0
 10
2.565218098317029
 20
-9.666593422062519
 30
0.0
 10
4.222136771947938
 20
-9.666593422062519
 30
0.0
 10
5.879055445578848
 20
-9.666593422062519
 30
0.0
 10
7.222125920503497
 20
-11.00983615176143
 30
0.0
 10
7.222125920503497
 20
-12.66658257061808
 30
0.0
  0
SPLINE
  5
69
330
3C
100
AcDbEntity
  8
LAYER_1
 62
     7
100
AcDbSpline
210
0.0
220
0.0
230
1.0
 70
    11
 71
     3
 72
    17
 73
    13
 74
     0
 42
0.0000000001
 43
0.0000000001
 40
0.0
 40
0.0
 40
0.0
 40
0.0
 40
1.0
 40
1.0
 40
1.0
 40
2.0
 40
2.0
 40
2.0
 40
3.0
 40
3.0
 40
3.0
 40
4.0
 40
4.0
 40
4.0
 40
4.0
 10
7.222125920503497
 20
-21.11102836928822
 30
0.0
 10
7.222125920503497
 20
-22.76777478814486
 30
0.0
 10
5.879055445578848
 20
-24.11101751784377
 30
0.0
 10
4.222136771947938
 20
-24.11101751784377
 30
0.0
 10
2.565218098317029
 20
-24.11101751784377
 30
0.0
 10
1.22214762339238
 20
-22.76777478814486
 30
0.0
 10
1.22214762339238
 20
-21.11102836928822
 30
0.0
 10
1.22214762339238
 20
-19.45428195043157
 30
0.0
 10
2.565218098317029
 20
-18.11103922073266
 30
0.0
 10
4.222136771947938
 20
-18.11103922073266
 30
0.0
 10
5.879055445578848
 20
-18.11103922073266
 30
0.0
 10
7.222125920503497
 20
-19.45428195043157
 30
0.0
 10
7.222125920503497
 20
-21.11102836928822
 30
0.0
  0
SPLINE
  5
6A
330
3C
100
AcDbEntity
  8
LAYER_1
 62
     7
100
AcDbSpline
210
0.0
220
0.0
230
1.0
 70
    11
 71
     3
 72
    17
 73
    13
 74
     0
 42
0.0000000001
 43
0.0000000001
 40
0.0
 40
0.0
 40
0.0
 40
0.0
 40
1.0
 40
1.0
 40
1.0
 40
2.0
 40
2.0
 40
2.0
 40
3.0
 40
3.0
 40
3.0
 40
4.0
 40
4.0
 40
4.0
 40
4.0
 10
7.222125920503497
 20
-29.55547416795836
 30
0.0
 10
7.222125920503497
 20
-31.212220586815
 30
0.0
 10
5.879055445578848
 20
-32.55546331651392
 30
0.0
 10
4.222136771947938
 20
-32.55546331651392
 30
0.0
 10
2.565218098317029
 20
-32.55546331651392
 30
0.0
 10
1.22214762339238
 20
-31.212220586815
 30
0.0
 10
1.22214762339238
 20
-29.55547416795836
 30
0.0
 10
1.22214762339238
 20
-27.89872774910171
 30
0.0
 10
2.565218098317029
 20
-26.55548501940279
 30
0.0
 10
4.222136771947938
 20
-26.55548501940279
 30
0.0
 10
5.879055445578848
 20
-26.55548501940279
 30
0.0
 10
7.222125920503497
 20
-27.89872774910171
 30
0.0
 10
7.222125920503497
 20
-29.55547416795836
 30
0.0
  0
SPLINE
  5
6B
330
3C
100
AcDbEntity
  8
LAYER_1
 62
     7
100
AcDbSpline
210
0.0
220
0.0
230
1.0
 70
    11
 71
     3
 72
    17
 73
    13
 74
     0
 42
0.0000000001
 43
0.0000000001
 40
0.0
 40
0.0
 40
0.0
 40
0.0
 40
1.0
 40
1.0
 40
1.0
 40
2.0
 40
2.0
 40
2.0
 40
3.0
 40
3.0
 40
3.0
 40
4.0
 40
4.0
 40
4.0
 40
4.0
 10
7.222125920503497
 20
-38.00009222140276
 30
0.0
 10
7.222125920503497
 20
-39.6568386402594
 30
0.0
 10
5.879055445578848
 20
-41.00008136995832
 30
0.0
 10
4.222136771947938
 20
-41.00008136995832
 30
0.0
 10
2.565218098317029
 20
-41.00008136995832
 30
0.0
 10
1.22214762339238
 20
-39.6568386402594
 30
0.0
 10
1.22214762339238
 20
-38.00009222140276
 30
0.0
 10
1.22214762339238
 20
-36.34334580254611
 30
0.0
 10
2.565218098317029
 20
-35.0001030728472
 30
0.0
 10
4.222136771947938
 20
-35.0001030728472
 30
0.0
 10
5.879055445578848
 20
-35.0001030728472
 30
0.0
 10
7.222125920503497
 20
-36.34334580254611
 30
0.0
 10
7.222125920503497
 20
-38.00009222140276
 30
0.0
  0
SPLINE
  5
6C
330
3C
100
AcDbEntity
  8
LAYER_1
 62
     7
100
AcDbSpline
210
0.0
220
0.0
230
1.0
 70
    11
 71
     3
 72
    17
 73
    13
 74
     0
 42
0.0000000001
 43
0.0000000001
 40
0.0
 40
0.0
 40
0.0
 40
0.0
 40
1.0
 40
1.0
 40
1.0
 40
2.0
 40
2.0
 40
2.0
 40
3.0
 40
3.0
 40
3.0
 40
4.0
 40
4.0
 40
4.0
 40
4.0
 10
15.66657171917364
 20
38.00009222140276
 30
0.0
 10
15.66657171917364
 20
36.34334580254611
 30
0.0
 10
14.32332898947472
 20
35.0001030728472
 30
0.0
 10
12.66658257061808
 20
35.0001030728472
 30
0.0
 10
11.00966389698717
 20
35.0001030728472
 30
0.0
 10
9.666593422062519
 20
36.34334580254611
 30
0.0
 10
9.666593422062519
 20
38.00009222140276
 30
0.0
 10
9.666593422062519
 20
39.6568386402594
 30
0.0
 10
11.00966389698717
 20
41.00008136995832
 30
0.0
 10
12.66658257061808
 20
41.00008136995832
 30
0.0
 10
14.32332898947472
 20
41.00008136995832
 30
0.0
 10
15.66657171917364
 20
39.6568386402594
 30
0.0
 10
15.66657171917364
 20
38.00009222140276
 30
0.0
  0
SPLINE
  5
6D
330
3C
100
AcDbEntity
  8
LAYER_1
 62
     7
100
AcDbSpline
210
0.0
220
0.0
230
1.0
 70
    11
 71
     3
 72
    17
 73
    13
 74
     0
 42
0.0000000001
 43
0.0000000001
 40
0.0
 40
0.0
 40
0.0
 40
0.0
 40
1.0
 40
1.0
 40
1.0
 40
2.0
 40
2.0
 40
2.0
 40
3.0
 40
3.0
 40
3.0
 40
4.0
 40
4.0
 40
4.0
 40
4.0
 10
15.66657171917364
 20
29.55547416795836
 30
0.0
 10
15.66657171917364
 20
27.89872774910171
 30
0.0
 10
14.32332898947472
 20
26.55548501940279
 30
0.0
 10
12.66658257061808
 20
26.55548501940279
 30
0.0
 10
11.00966389698717
 20
26.55548501940279
 30
0.0
 10
9.666593422062519
 20
27.89872774910171
 30
0.0
 10
9.666593422062519
 20
29.55547416795836
 30
0.0
 10
9.666593422062519
 20
31.212220586815
 30
0.0
 10
11.00966389698717
 20
32.55546331651392
 30
0.0
 10
12.66658257061808
 20
32.55546331651392
 30
0.0
 10
14.32332898947472
 20
32.55546331651392
 30
0.0
 10
15.66657171917364
 20
31.212220586815
 30
0.0
 10
15.66657171917364
 20
29.55547416795836
 30
0.0
  0
SPLINE
  5
6E
330
3C
100
AcDbEntity
  8
LAYER_1
 62
     7
100
AcDbSpline
210
0.0
220
0.0
230
1.0
 70
    11
 71
     3
 72
    17
 73
    13
 74
     0
 42
0.0000000001
 43
0.0000000001
 40
0.0
 40
0.0
 40
0.0
 40
0.0
 40
1.0
 40
1.0
 40
1.0
 40
2.0
 40
2.0
 40
2.0
 40
3.0
 40
3.0
 40
3.0
 40
4.0
 40
4.0
 40
4.0
 40
4.0
 10
15.66657171917364
 20
21.11102836928822
 30
0.0
 10
15.66657171917364
 20
19.45428195043157
 30
0.0
 10
14.32332898947472
 20
18.11103922073266
 30
0.0
 10
12.66658257061808
 20
18.11103922073266
 30
0.0
 10
11.00966389698717
 20
18.11103922073266
 30
0.0
 10
9.666593422062519
 20
19.45428195043157
 30
0.0
 10
9.666593422062519
 20
21.11102836928822
 30
0.0
 10
9.666593422062519
 20
22.76777478814486
 30
0.0
 10
11.00966389698717
 20
24.11101751784377
 30
0.0
 10
12.66658257061808
 20
24.11101751784377
 30
0.0
 10
14.32332898947472
 20
24.11101751784377
 30
0.0
 10
15.66657171917364
 20
22.76777478814486
 30
0.0
 10
15.66657171917364
 20
21.11102836928822
 30
0.0
  0
SPLINE
  5
6F
330
3C
100
AcDbEntity
  8
LAYER_1
 62
     7
100
AcDbSpline
210
0.0
220
0.0
230
1.0
 70
    11
 71
     3
 72
    17
 73
    13
 74
     0
 42
0.0000000001
 43
0.0000000001
 40
0.0
 40
0.0
 40
0.0
 40
0.0
 40
1.0
 40
1.0
 40
1.0
 40
2.0
 40
2.0
 40
2.0
 40
3.0
 40
3.0
 40
3.0
 40
4.0
 40
4.0
 40
4.0
 40
4.0
 10
15.66657171917364
 20
12.66675482539234
 30
0.0
 10
15.66657171917364
 20
11.01000840653569
 30
0.0
 10
14.32332898947472
 20
9.666765676836782
 30
0.0
 10
12.66658257061808
 20
9.666765676836782
 30
0.0
 10
11.00966389698717
 20
9.666765676836782
 30
0.0
 10
9.666593422062519
 20
11.01000840653569
 30
0.0
 10
9.666593422062519
 20
12.66675482539234
 30
0.0
 10
9.666593422062519
 20
14.32350124424899
 30
0.0
 10
11.00966389698717
 20
15.6667439739479
 30
0.0
 10
12.66658257061808
 20
15.6667439739479
 30
0.0
 10
14.32332898947472
 20
15.6667439739479
 30
0.0
 10
15.66657171917364
 20
14.32350124424899
 30
0.0
 10
15.66657171917364
 20
12.66675482539234
 30
0.0
  0
SPLINE
  5
70
330
3C
100
AcDbEntity
  8
LAYER_1
 62
     7
100
AcDbSpline
210
0.0
220
0.0
230
1.0
 70
    11
 71
     3
 72
    17
 73
    13
 74
     0
 42
0.0000000001
 43
0.0000000001
 40
0.0
 40
0.0
 40
0.0
 40
0.0
 40
1.0
 40
1.0
 40
1.0
 40
2.0
 40
2.0
 40
2.0
 40
3.0
 40
3.0
 40
3.0
 40
4.0
 40
4.0
 40
4.0
 40
4.0
 10
15.66657171917364
 20
4.222136771947938
 30
0.0
 10
15.66657171917364
 20
2.565390353091292
 30
0.0
 10
14.32332898947472
 20
1.22214762339238
 30
0.0
 10
12.66658257061808
 20
1.22214762339238
 30
0.0
 10
11.00966389698717
 20
1.22214762339238
 30
0.0
 10
9.666593422062519
 20
2.565390353091292
 30
0.0
 10
9.666593422062519
 20
4.222136771947938
 30
0.0
 10
9.666593422062519
 20
5.878883190804585
 30
0.0
 10
11.00966389698717
 20
7.222125920503497
 30
0.0
 10
12.66658257061808
 20
7.222125920503497
 30
0.0
 10
14.32332898947472
 20
7.222125920503497
 30
0.0
 10
15.66657171917364
 20
5.878883190804585
 30
0.0
 10
15.66657171917364
 20
4.222136771947938
 30
0.0
  0
SPLINE
  5
71
330
3C
100
AcDbEntity
  8
LAYER_1
 62
     7
100
AcDbSpline
210
0.0
220
0.0
230
1.0
 70
    11
 71
     3
 72
    17
 73
    13
 74
     0
 42
0.0000000001
 43
0.0000000001
 40
0.0
 40
0.0
 40
0.0
 40
0.0
 40
1.0
 40
1.0
 40
1.0
 40
2.0
 40
2.0
 40
2.0
 40
3.0
 40
3.0
 40
3.0
 40
4.0
 40
4.0
 40
4.0
 40
4.0
 10
15.66657171917364
 20
-4.222136771947938
 30
0.0
 10
15.66657171917364
 20
-5.878883190804585
 30
0.0
 10
14.32332898947472
 20
-7.222125920503497
 30
0.0
 10
12.66658257061808
 20
-7.222125920503497
 30
0.0
 10
11.00966389698717
 20
-7.222125920503497
 30
0.0
 10
9.666593422062519
 20
-5.878883190804585
 30
0.0
 10
9.666593422062519
 20
-4.222136771947938
 30
0.0
 10
9.666593422062519
 20
-2.565390353091292
 30
0.0
 10
11.00966389698717
 20
-1.22214762339238
 30
0.0
 10
12.66658257061808
 20
-1.22214762339238
 30
0.0
 10
14.32332898947472
 20
-1.22214762339238
 30
0.0
 10
15.66657171917364
 20
-2.565390353091292
 30
0.0
 10
15.66657171917364
 20
-4.222136771947938
 30
0.0
  0
SPLINE
  5
72
330
3C
100
AcDbEntity
  8
LAYER_1
 62
     7
100
AcDbSpline
210
0.0
220
0.0
230
1.0
 70
    11
 71
     3
 72
    17
 73
    13
 74
     0
 42
0.0000000001
 43
0.0000000001
 40
0.0
 40
0.0
 40
0.0
 40
0.0
 40
1.0
 40
1.0
 40
1.0
 40
2.0
 40
2.0
 40
2.0
 40
3.0
 40
3.0
 40
3.0
 40
4.0
 40
4.0
 40
4.0
 40
4.0
 10
15.66657171917364
 20
-12.66658257061808
 30
0.0
 10
15.66657171917364
 20
-14.32332898947472
 30
0.0
 10
14.32332898947472
 20
-15.66657171917364
 30
0.0
 10
12.66658257061808
 20
-15.66657171917364
 30
0.0
 10
11.00966389698717
 20
-15.66657171917364
 30
0.0
 10
9.666593422062519
 20
-14.32332898947472
 30
0.0
 10
9.666593422062519
 20
-12.66658257061808
 30
0.0
 10
9.666593422062519
 20
-11.00983615176143
 30
0.0
 10
11.00966389698717
 20
-9.666593422062519
 30
0.0
 10
12.66658257061808
 20
-9.666593422062519
 30
0.0
 10
14.32332898947472
 20
-9.666593422062519
 30
0.0
 10
15.66657171917364
 20
-11.00983615176143
 30
0.0
 10
15.66657171917364
 20
-12.66658257061808
 30
0.0
  0
SPLINE
  5
73
330
3C
100
AcDbEntity
  8
LAYER_1
 62
     7
100
AcDbSpline
210
0.0
220
0.0
230
1.0
 70
    11
 71
     3
 72
    17
 73
    13
 74
     0
 42
0.0000000001
 43
0.0000000001
 40
0.0
 40
0.0
 40
0.0
 40
0.0
 40
1.0
 40
1.0
 40
1.0
 40
2.0
 40
2.0
 40
2.0
 40
3.0
 40
3.0
 40
3.0
 40
4.0
 40
4.0
 40
4.0
 40
4.0
 10
15.66657171917364
 20
-21.11102836928822
 30
0.0
 10
15.66657171917364
 20
-22.76777478814486
 30
0.0
 10
14.32332898947472
 20
-24.11101751784377
 30
0.0
 10
12.66658257061808
 20
-24.11101751784377
 30
0.0
 10
11.00966389698717
 20
-24.11101751784377
 30
0.0
 10
9.666593422062519
 20
-22.76777478814486
 30
0.0
 10
9.666593422062519
 20
-21.11102836928822
 30
0.0
 10
9.666593422062519
 20
-19.45428195043157
 30
0.0
 10
11.00966389698717
 20
-18.11103922073266
 30
0.0
 10
12.66658257061808
 20
-18.11103922073266
 30
0.0
 10
14.32332898947472
 20
-18.11103922073266
 30
0.0
 10
15.66657171917364
 20
-19.45428195043157
 30
0.0
 10
15.66657171917364
 20
-21.11102836928822
 30
0.0
  0
SPLINE
  5
74
330
3C
100
AcDbEntity
  8
LAYER_1
 62
     7
100
AcDbSpline
210
0.0
220
0.0
230
1.0
 70
    11
 71
     3
 72
    17
 73
    13
 74
     0
 42
0.0000000001
 43
0.0000000001
 40
0.0
 40
0.0
 40
0.0
 40
0.0
 40
1.0
 40
1.0
 40
1.0
 40
2.0
 40
2.0
 40
2.0
 40
3.0
 40
3.0
 40
3.0
 40
4.0
 40
4.0
 40
4.0
 40
4.0
 10
15.66657171917364
 20
-29.55547416795836
 30
0.0
 10
15.66657171917364
 20
-31.212220586815
 30
0.0
 10
14.32332898947472
 20
-32.55546331651392
 30
0.0
 10
12.66658257061808
 20
-32.55546331651392
 30
0.0
 10
11.00966389698717
 20
-32.55546331651392
 30
0.0
 10
9.666593422062519
 20
-31.212220586815
 30
0.0
 10
9.666593422062519
 20
-29.55547416795836
 30
0.0
 10
9.666593422062519
 20
-27.89872774910171
 30
0.0
 10
11.00966389698717
 20
-26.55548501940279
 30
0.0
 10
12.66658257061808
 20
-26.55548501940279
 30
0.0
 10
14.32332898947472
 20
-26.55548501940279
 30
0.0
 10
15.66657171917364
 20
-27.89872774910171
 30
0.0
 10
15.66657171917364
 20
-29.55547416795836
 30
0.0
  0
SPLINE
  5
75
330
3C
100
AcDbEntity
  8
LAYER_1
 62
     7
100
AcDbSpline
210
0.0
220
0.0
230
1.0
 70
    11
 71
     3
 72
    17
 73
    13
 74
     0
 42
0.0000000001
 43
0.0000000001
 40
0.0
 40
0.0
 40
0.0
 40
0.0
 40
1.0
 40
1.0
 40
1.0
 40
2.0
 40
2.0
 40
2.0
 40
3.0
 40
3.0
 40
3.0
 40
4.0
 40
4.0
 40
4.0
 40
4.0
 10
15.66657171917364
 20
-38.00009222140276
 30
0.0
 10
15.66657171917364
 20
-39.6568386402594
 30
0.0
 10
14.32332898947472
 20
-41.00008136995832
 30
0.0
 10
12.66658257061808
 20
-41.00008136995832
 30
0.0
 10
11.00966389698717
 20
-41.00008136995832
 30
0.0
 10
9.666593422062519
 20
-39.6568386402594
 30
0.0
 10
9.666593422062519
 20
-38.00009222140276
 30
0.0
 10
9.666593422062519
 20
-36.34334580254611
 30
0.0
 10
11.00966389698717
 20
-35.0001030728472
 30
0.0
 10
12.66658257061808
 20
-35.0001030728472
 30
0.0
 10
14.32332898947472
 20
-35.0001030728472
 30
0.0
 10
15.66657171917364
 20
-36.34334580254611
 30
0.0
 10
15.66657171917364
 20
-38.00009222140276
 30
0.0
  0
SPLINE
  5
76
330
3C
100
AcDbEntity
  8
LAYER_1
 62
     7
100
AcDbSpline
210
0.0
220
0.0
230
1.0
 70
    11
 71
     3
 72
    17
 73
    13
 74
     0
 42
0.0000000001
 43
0.0000000001
 40
0.0
 40
0.0
 40
0.0
 40
0.0
 40
1.0
 40
1.0
 40
1.0
 40
2.0
 40
2.0
 40
2.0
 40
3.0
 40
3.0
 40
3.0
 40
4.0
 40
4.0
 40
4.0
 40
4.0
 10
24.11118977261804
 20
29.55547416795836
 30
0.0
 10
24.11118977261804
 20
27.89872774910171
 30
0.0
 10
22.76794704291913
 20
26.55548501940279
 30
0.0
 10
21.11120062406248
 20
26.55548501940279
 30
0.0
 10
19.45410969565731
 20
26.55548501940279
 30
0.0
 10
18.11086696595839
 20
27.89872774910171
 30
0.0
 10
18.11086696595839
 20
29.55547416795836
 30
0.0
 10
18.11086696595839
 20
31.212220586815
 30
0.0
 10
19.45410969565731
 20
32.55546331651392
 30
0.0
 10
21.11120062406248
 20
32.55546331651392
 30
0.0
 10
22.76794704291913
 20
32.55546331651392
 30
0.0
 10
24.11118977261804
 20
31.212220586815
 30
0.0
 10
24.11118977261804
 20
29.55547416795836
 30
0.0
  0
SPLINE
  5
77
330
3C
100
AcDbEntity
  8
LAYER_1
 62
     7
100
AcDbSpline
210
0.0
220
0.0
230
1.0
 70
    11
 71
     3
 72
    17
 73
    13
 74
     0
 42
0.0000000001
 43
0.0000000001
 40
0.0
 40
0.0
 40
0.0
 40
0.0
 40
1.0
 40
1.0
 40
1.0
 40
2.0
 40
2.0
 40
2.0
 40
3.0
 40
3.0
 40
3.0
 40
4.0
 40
4.0
 40
4.0
 40
4.0
 10
24.11118977261804
 20
21.11102836928822
 30
0.0
 10
24.11118977261804
 20
19.45428195043157
 30
0.0
 10
22.76794704291913
 20
18.11103922073266
 30
0.0
 10
21.11120062406248
 20
18.11103922073266
 30
0.0
 10
19.45410969565731
 20
18.11103922073266
 30
0.0
 10
18.11086696595839
 20
19.45428195043157
 30
0.0
 10
18.11086696595839
 20
21.11102836928822
 30
0.0
 10
18.11086696595839
 20
22.76777478814486
 30
0.0
 10
19.45410969565731
 20
24.11101751784377
 30
0.0
 10
21.11120062406248
 20
24.11101751784377
 30
0.0
 10
22.76794704291913
 20
24.11101751784377
 30
0.0
 10
24.11118977261804
 20
22.76777478814486
 30
0.0
 10
24.11118977261804
 20
21.11102836928822
 30
0.0
  0
SPLINE
  5
78
330
3C
100
AcDbEntity
  8
LAYER_1
 62
     7
100
AcDbSpline
210
0.0
220
0.0
230
1.0
 70
    11
 71
     3
 72
    17
 73
    13
 74
     0
 42
0.0000000001
 43
0.0000000001
 40
0.0
 40
0.0
 40
0.0
 40
0.0
 40
1.0
 40
1.0
 40
1.0
 40
2.0
 40
2.0
 40
2.0
 40
3.0
 40
3.0
 40
3.0
 40
4.0
 40
4.0
 40
4.0
 40
4.0
 10
24.11118977261804
 20
12.66675482539234
 30
0.0
 10
24.11118977261804
 20
11.01000840653569
 30
0.0
 10
22.76794704291913
 20
9.666765676836782
 30
0.0
 10
21.11120062406248
 20
9.666765676836782
 30
0.0
 10
19.45410969565731
 20
9.666765676836782
 30
0.0
 10
18.11086696595839
 20
11.01000840653569
 30
0.0
 10
18.11086696595839
 20
12.66675482539234
 30
0.0
 10
18.11086696595839
 20
14.32350124424899
 30
0.0
 10
19.45410969565731
 20
15.6667439739479
 30
0.0
 10
21.11120062406248
 20
15.6667439739479
 30
0.0
 10
22.76794704291913
 20
15.6667439739479
 30
0.0
 10
24.11118977261804
 20
14.32350124424899
 30
0.0
 10
24.11118977261804
 20
12.66675482539234
 30
0.0
  0
SPLINE
  5
79
330
3C
100
AcDbEntity
  8
LAYER_1
 62
     7
100
AcDbSpline
210
0.0
220
0.0
230
1.0
 70
    11
 71
     3
 72
    17
 73
    13
 74
     0
 42
0.0000000001
 43
0.0000000001
 40
0.0
 40
0.0
 40
0.0
 40
0.0
 40
1.0
 40
1.0
 40
1.0
 40
2.0
 40
2.0
 40
2.0
 40
3.0
 40
3.0
 40
3.0
 40
4.0
 40
4.0
 40
4.0
 40
4.0
 10
24.11118977261804
 20
4.222136771947938
 30
0.0
 10
24.11118977261804
 20
2.565390353091292
 30
0.0
 10
22.76794704291913
 20
1.22214762339238
 30
0.0
 10
21.11120062406248
 20
1.22214762339238
 30
0.0
 10
19.45410969565731
 20
1.22214762339238
 30
0.0
 10
18.11086696595839
 20
2.565390353091292
 30
0.0
 10
18.11086696595839
 20
4.222136771947938
 30
0.0
 10
18.11086696595839
 20
5.878883190804585
 30
0.0
 10
19.45410969565731
 20
7.222125920503497
 30
0.0
 10
21.11120062406248
 20
7.222125920503497
 30
0.0
 10
22.76794704291913
 20
7.222125920503497
 30
0.0
 10
24.11118977261804
 20
5.878883190804585
 30
0.0
 10
24.11118977261804
 20
4.222136771947938
 30
0.0
  0
SPLINE
  5
7A
330
3C
100
AcDbEntity
  8
LAYER_1
 62
     7
100
AcDbSpline
210
0.0
220
0.0
230
1.0
 70
    11
 71
     3
 72
    17
 73
    13
 74
     0
 42
0.0000000001
 43
0.0000000001
 40
0.0
 40
0.0
 40
0.0
 40
0.0
 40
1.0
 40
1.0
 40
1.0
 40
2.0
 40
2.0
 40
2.0
 40
3.0
 40
3.0
 40
3.0
 40
4.0
 40
4.0
 40
4.0
 40
4.0
 10
24.11118977261804
 20
-4.222136771947938
 30
0.0
 10
24.11118977261804
 20
-5.878883190804585
 30
0.0
 10
22.76794704291913
 20
-7.222125920503497
 30
0.0
 10
21.11120062406248
 20
-7.222125920503497
 30
0.0
 10
19.45410969565731
 20
-7.222125920503497
 30
0.0
 10
18.11086696595839
 20
-5.878883190804585
 30
0.0
 10
18.11086696595839
 20
-4.222136771947938
 30
0.0
 10
18.11086696595839
 20
-2.565390353091292
 30
0.0
 10
19.45410969565731
 20
-1.22214762339238
 30
0.0
 10
21.11120062406248
 20
-1.22214762339238
 30
0.0
 10
22.76794704291913
 20
-1.22214762339238
 30
0.0
 10
24.11118977261804
 20
-2.565390353091292
 30
0.0
 10
24.11118977261804
 20
-4.222136771947938
 30
0.0
  0
SPLINE
  5
7B
330
3C
100
AcDbEntity
  8
LAYER_1
 62
     7
100
AcDbSpline
210
0.0
220
0.0
230
1.0
 70
    11
 71
     3
 72
    17
 73
    13
 74
     0
 42
0.0000000001
 43
0.0000000001
 40
0.0
 40
0.0
 40
0.0
 40
0.0
 40
1.0
 40
1.0
 40
1.0
 40
2.0
 40
2.0
 40
2.0
 40
3.0
 40
3.0
 40
3.0
 40
4.0
 40
4.0
 40
4.0
 40
4.0
 10
24.11118977261804
 20
-12.66658257061808
 30
0.0
 10
24.11118977261804
 20
-14.32332898947472
 30
0.0
 10
22.76794704291913
 20
-15.66657171917364
 30
0.0
 10
21.11120062406248
 20
-15.66657171917364
 30
0.0
 10
19.45410969565731
 20
-15.66657171917364
 30
0.0
 10
18.11086696595839
 20
-14.32332898947472
 30
0.0
 10
18.11086696595839
 20
-12.66658257061808
 30
0.0
 10
18.11086696595839
 20
-11.00983615176143
 30
0.0
 10
19.45410969565731
 20
-9.666593422062519
 30
0.0
 10
21.11120062406248
 20
-9.666593422062519
 30
0.0
 10
22.76794704291913
 20
-9.666593422062519
 30
0.0
 10
24.11118977261804
 20
-11.00983615176143
 30
0.0
 10
24.11118977261804
 20
-12.66658257061808
 30
0.0
  0
SPLINE
  5
7C
330
3C
100
AcDbEntity
  8
LAYER_1
 62
     7
100
AcDbSpline
210
0.0
220
0.0
230
1.0
 70
    11
 71
     3
 72
    17
 73
    13
 74
     0
 42
0.0000000001
 43
0.0000000001
 40
0.0
 40
0.0
 40
0.0
 40
0.0
 40
1.0
 40
1.0
 40
1.0
 40
2.0
 40
2.0
 40
2.0
 40
3.0
 40
3.0
 40
3.0
 40
4.0
 40
4.0
 40
4.0
 40
4.0
 10
24.11118977261804
 20
-21.11102836928822
 30
0.0
 10
24.11118977261804
 20
-22.76777478814486
 30
0.0
 10
22.76794704291913
 20
-24.11101751784377
 30
0.0
 10
21.11120062406248
 20
-24.11101751784377
 30
0.0
 10
19.45410969565731
 20
-24.11101751784377
 30
0.0
 10
18.11086696595839
 20
-22.76777478814486
 30
0.0
 10
18.11086696595839
 20
-21.11102836928822
 30
0.0
 10
18.11086696595839
 20
-19.45428195043157
 30
0.0
 10
19.45410969565731
 20
-18.11103922073266
 30
0.0
 10
21.11120062406248
 20
-18.11103922073266
 30
0.0
 10
22.76794704291913
 20
-18.11103922073266
 30
0.0
 10
24.11118977261804
 20
-19.45428195043157
 30
0.0
 10
24.11118977261804
 20
-21.11102836928822
 30
0.0
  0
SPLINE
  5
7D
330
3C
100
AcDbEntity
  8
LAYER_1
 62
     7
100
AcDbSpline
210
0.0
220
0.0
230
1.0
 70
    11
 71
     3
 72
    17
 73
    13
 74
     0
 42
0.0000000001
 43
0.0000000001
 40
0.0
 40
0.0
 40
0.0
 40
0.0
 40
1.0
 40
1.0
 40
1.0
 40
2.0
 40
2.0
 40
2.0
 40
3.0
 40
3.0
 40
3.0
 40
4.0
 40
4.0
 40
4.0
 40
4.0
 10
24.11118977261804
 20
-29.55547416795836
 30
0.0
 10
24.11118977261804
 20
-31.212220586815
 30
0.0
 10
22.76794704291913
 20
-32.55546331651392
 30
0.0
 10
21.11120062406248
 20
-32.55546331651392
 30
0.0
 10
19.45410969565731
 20
-32.55546331651392
 30
0.0
 10
18.11086696595839
 20
-31.212220586815
 30
0.0
 10
18.11086696595839
 20
-29.55547416795836
 30
0.0
 10
18.11086696595839
 20
-27.89872774910171
 30
0.0
 10
19.45410969565731
 20
-26.55548501940279
 30
0.0
 10
21.11120062406248
 20
-26.55548501940279
 30
0.0
 10
22.76794704291913
 20
-26.55548501940279
 30
0.0
 10
24.11118977261804
 20
-27.89872774910171
 30
0.0
 10
24.11118977261804
 20
-29.55547416795836
 30
0.0
  0
SPLINE
  5
7E
330
3C
100
AcDbEntity
  8
LAYER_1
 62
     7
100
AcDbSpline
210
0.0
220
0.0
230
1.0
 70
    11
 71
     3
 72
    17
 73
    13
 74
     0
 42
0.0000000001
 43
0.0000000001
 40
0.0
 40
0.0
 40
0.0
 40
0.0
 40
1.0
 40
1.0
 40
1.0
 40
2.0
 40
2.0
 40
2.0
 40
3.0
 40
3.0
 40
3.0
 40
4.0
 40
4.0
 40
4.0
 40
4.0
 10
32.55546331651392
 20
21.11102836928822
 30
0.0
 10
32.55546331651392
 20
19.45428195043157
 30
0.0
 10
31.212220586815
 20
18.11103922073266
 30
0.0
 10
29.55512965840983
 20
18.11103922073266
 30
0.0
 10
27.89838323955318
 20
18.11103922073266
 30
0.0
 10
26.55514050985427
 20
19.45428195043157
 30
0.0
 10
26.55514050985427
 20
21.11102836928822
 30
0.0
 10
26.55514050985427
 20
22.76777478814486
 30
0.0
 10
27.89838323955318
 20
24.11101751784377
 30
0.0
 10
29.55512965840983
 20
24.11101751784377
 30
0.0
 10
31.212220586815
 20
24.11101751784377
 30
0.0
 10
32.55546331651392
 20
22.76777478814486
 30
0.0
 10
32.55546331651392
 20
21.11102836928822
 30
0.0
  0
SPLINE
  5
7F
330
3C
100
AcDbEntity
  8
LAYER_1
 62
     7
100
AcDbSpline
210
0.0
220
0.0
230
1.0
 70
    11
 71
     3
 72
    17
 73
    13
 74
     0
 42
0.0000000001
 43
0.0000000001
 40
0.0
 40
0.0
 40
0.0
 40
0.0
 40
1.0
 40
1.0
 40
1.0
 40
2.0
 40
2.0
 40
2.0
 40
3.0
 40
3.0
 40
3.0
 40
4.0
 40
4.0
 40
4.0
 40
4.0
 10
32.55546331651392
 20
12.66675482539234
 30
0.0
 10
32.55546331651392
 20
11.01000840653569
 30
0.0
 10
31.212220586815
 20
9.666765676836782
 30
0.0
 10
29.55512965840983
 20
9.666765676836782
 30
0.0
 10
27.89838323955318
 20
9.666765676836782
 30
0.0
 10
26.55514050985427
 20
11.01000840653569
 30
0.0
 10
26.55514050985427
 20
12.66675482539234
 30
0.0
 10
26.55514050985427
 20
14.32350124424899
 30
0.0
 10
27.89838323955318
 20
15.6667439739479
 30
0.0
 10
29.55512965840983
 20
15.6667439739479
 30
0.0
 10
31.212220586815
 20
15.6667439739479
 30
0.0
 10
32.55546331651392
 20
14.32350124424899
 30
0.0
 10
32.55546331651392
 20
12.66675482539234
 30
0.0
  0
SPLINE
  5
80
330
3C
100
AcDbEntity
  8
LAYER_1
 62
     7
100
AcDbSpline
210
0.0
220
0.0
230
1.0
 70
    11
 71
     3
 72
    17
 73
    13
 74
     0
 42
0.0000000001
 43
0.0000000001
 40
0.0
 40
0.0
 40
0.0
 40
0.0
 40
1.0
 40
1.0
 40
1.0
 40
2.0
 40
2.0
 40
2.0
 40
3.0
 40
3.0
 40
3.0
 40
4.0
 40
4.0
 40
4.0
 40
4.0
 10
32.55546331651392
 20
4.222136771947938
 30
0.0
 10
32.55546331651392
 20
2.565390353091292
 30
0.0
 10
31.212220586815
 20
1.22214762339238
 30
0.0
 10
29.55512965840983
 20
1.22214762339238
 30
0.0
 10
27.89838323955318
 20
1.22214762339238
 30
0.0
 10
26.55514050985427
 20
2.565390353091292
 30
0.0
 10
26.55514050985427
 20
4.222136771947938
 30
0.0
 10
26.55514050985427
 20
5.878883190804585
 30
0.0
 10
27.89838323955318
 20
7.222125920503497
 30
0.0
 10
29.55512965840983
 20
7.222125920503497
 30
0.0
 10
31.212220586815
 20
7.222125920503497
 30
0.0
 10
32.55546331651392
 20
5.878883190804585
 30
0.0
 10
32.55546331651392
 20
4.222136771947938
 30
0.0
  0
SPLINE
  5
81
330
3C
100
AcDbEntity
  8
LAYER_1
 62
     7
100
AcDbSpline
210
0.0
220
0.0
230
1.0
 70
    11
 71
     3
 72
    17
 73
    13
 74
     0
 42
0.0000000001
 43
0.0000000001
 40
0.0
 40
0.0
 40
0.0
 40
0.0
 40
1.0
 40
1.0
 40
1.0
 40
2.0
 40
2.0
 40
2.0
 40
3.0
 40
3.0
 40
3.0
 40
4.0
 40
4.0
 40
4.0
 40
4.0
 10
32.55546331651392
 20
-4.222136771947938
 30
0.0
 10
32.55546331651392
 20
-5.878883190804585
 30
0.0
 10
31.212220586815
 20
-7.222125920503497
 30
0.0
 10
29.55512965840983
 20
-7.222125920503497
 30
0.0
 10
27.89838323955318
 20
-7.222125920503497
 30
0.0
 10
26.55514050985427
 20
-5.878883190804585
 30
0.0
 10
26.55514050985427
 20
-4.222136771947938
 30
0.0
 10
26.55514050985427
 20
-2.565390353091292
 30
0.0
 10
27.89838323955318
 20
-1.22214762339238
 30
0.0
 10
29.55512965840983
 20
-1.22214762339238
 30
0.0
 10
31.212220586815
 20
-1.22214762339238
 30
0.0
 10
32.55546331651392
 20
-2.565390353091292
 30
0.0
 10
32.55546331651392
 20
-4.222136771947938
 30
0.0
  0
SPLINE
  5
82
330
3C
100
AcDbEntity
  8
LAYER_1
 62
     7
100
AcDbSpline
210
0.0
220
0.0
230
1.0
 70
    11
 71
     3
 72
    17
 73
    13
 74
     0
 42
0.0000000001
 43
0.0000000001
 40
0.0
 40
0.0
 40
0.0
 40
0.0
 40
1.0
 40
1.0
 40
1.0
 40
2.0
 40
2.0
 40
2.0
 40
3.0
 40
3.0
 40
3.0
 40
4.0
 40
4.0
 40
4.0
 40
4.0
 10
32.55546331651392
 20
-12.66658257061808
 30
0.0
 10
32.55546331651392
 20
-14.32332898947472
 30
0.0
 10
31.212220586815
 20
-15.66657171917364
 30
0.0
 10
29.55512965840983
 20
-15.66657171917364
 30
0.0
 10
27.89838323955318
 20
-15.66657171917364
 30
0.0
 10
26.55514050985427
 20
-14.32332898947472
 30
0.0
 10
26.55514050985427
 20
-12.66658257061808
 30
0.0
 10
26.55514050985427
 20
-11.00983615176143
 30
0.0
 10
27.89838323955318
 20
-9.666593422062519
 30
0.0
 10
29.55512965840983
 20
-9.666593422062519
 30
0.0
 10
31.212220586815
 20
-9.666593422062519
 30
0.0
 10
32.55546331651392
 20
-11.00983615176143
 30
0.0
 10
32.55546331651392
 20
-12.66658257061808
 30
0.0
  0
SPLINE
  5
83
330
3C
100
AcDbEntity
  8
LAYER_1
 62
     7
100
AcDbSpline
210
0.0
220
0.0
230
1.0
 70
    11
 71
     3
 72
    17
 73
    13
 74
     0
 42
0.0000000001
 43
0.0000000001
 40
0.0
 40
0.0
 40
0.0
 40
0.0
 40
1.0
 40
1.0
 40
1.0
 40
2.0
 40
2.0
 40
2.0
 40
3.0
 40
3.0
 40
3.0
 40
4.0
 40
4.0
 40
4.0
 40
4.0
 10
32.55546331651392
 20
-21.11102836928822
 30
0.0
 10
32.55546331651392
 20
-22.76777478814486
 30
0.0
 10
31.212220586815
 20
-24.11101751784377
 30
0.0
 10
29.55512965840983
 20
-24.11101751784377
 30
0.0
 10
27.89838323955318
 20
-24.11101751784377
 30
0.0
 10
26.55514050985427
 20
-22.76777478814486
 30
0.0
 10
26.55514050985427
 20
-21.11102836928822
 30
0.0
 10
26.55514050985427
 20
-19.45428195043157
 30
0.0
 10
27.89838323955318
 20
-18.11103922073266
 30
0.0
 10
29.55512965840983
 20
-18.11103922073266
 30
0.0
 10
31.212220586815
 20
-18.11103922073266
 30
0.0
 10
32.55546331651392
 20
-19.45428195043157
 30
0.0
 10
32.55546331651392
 20
-21.11102836928822
 30
0.0
  0
SPLINE
  5
84
330
3C
100
AcDbEntity
  8
LAYER_1
 62
     7
100
AcDbSpline
210
0.0
220
0.0
230
1.0
 70
    11
 71
     3
 72
    17
 73
    13
 74
     0
 42
0.0000000001
 43
0.0000000001
 40
0.0
 40
0.0
 40
0.0
 40
0.0
 40
1.0
 40
1.0
 40
1.0
 40
2.0
 40
2.0
 40
2.0
 40
3.0
 40
3.0
 40
3.0
 40
4.0
 40
4.0
 40
4.0
 40
4.0
 10
41.00008136995832
 20
12.66675482539234
 30
0.0
 10
41.00008136995832
 20
11.01000840653569
 30
0.0
 10
39.6568386402594
 20
9.666765676836782
 30
0.0
 10
38.00009222140276
 20
9.666765676836782
 30
0.0
 10
36.34300129299758
 20
9.666765676836782
 30
0.0
 10
34.99975856329867
 20
11.01000840653569
 30
0.0
 10
34.99975856329867
 20
12.66675482539234
 30
0.0
 10
34.99975856329867
 20
14.32350124424899
 30
0.0
 10
36.34300129299758
 20
15.6667439739479
 30
0.0
 10
38.00009222140276
 20
15.6667439739479
 30
0.0
 10
39.6568386402594
 20
15.6667439739479
 30
0.0
 10
41.00008136995832
 20
14.32350124424899
 30
0.0
 10
41.00008136995832
 20
12.66675482539234
 30
0.0
  0
SPLINE
  5
85
330
3C
100
AcDbEntity
  8
LAYER_1
 62
     7
100
AcDbSpline
210
0.0
220
0.0
230
1.0
 70
    11
 71
     3
 72
    17
 73
    13
 74
     0
 42
0.0000000001
 43
0.0000000001
 40
0.0
 40
0.0
 40
0.0
 40
0.0
 40
1.0
 40
1.0
 40
1.0
 40
2.0
 40
2.0
 40
2.0
 40
3.0
 40
3.0
 40
3.0
 40
4.0
 40
4.0
 40
4.0
 40
4.0
 10
41.00008136995832
 20
4.222136771947938
 30
0.0
 10
41.00008136995832
 20
2.565390353091292
 30
0.0
 10
39.6568386402594
 20
1.22214762339238
 30
0.0
 10
38.00009222140276
 20
1.22214762339238
 30
0.0
 10
36.34300129299758
 20
1.22214762339238
 30
0.0
 10
34.99975856329867
 20
2.565390353091292
 30
0.0
 10
34.99975856329867
 20
4.222136771947938
 30
0.0
 10
34.99975856329867
 20
5.878883190804585
 30
0.0
 10
36.34300129299758
 20
7.222125920503497
 30
0.0
 10
38.00009222140276
 20
7.222125920503497
 30
0.0
 10
39.6568386402594
 20
7.222125920503497
 30
0.0
 10
41.00008136995832
 20
5.878883190804585
 30
0.0
 10
41.00008136995832
 20
4.222136771947938
 30
0.0
  0
SPLINE
  5
86
330
3C
100
AcDbEntity
  8
LAYER_1
 62
     7
100
AcDbSpline
210
0.0
220
0.0
230
1.0
 70
    11
 71
     3
 72
    17
 73
    13
 74
     0
 42
0.0000000001
 43
0.0000000001
 40
0.0
 40
0.0
 40
0.0
 40
0.0
 40
1.0
 40
1.0
 40
1.0
 40
2.0
 40
2.0
 40
2.0
 40
3.0
 40
3.0
 40
3.0
 40
4.0
 40
4.0
 40
4.0
 40
4.0
 10
41.00008136995832
 20
-4.222136771947938
 30
0.0
 10
41.00008136995832
 20
-5.878883190804585
 30
0.0
 10
39.6568386402594
 20
-7.222125920503497
 30
0.0
 10
38.00009222140276
 20
-7.222125920503497
 30
0.0
 10
36.34300129299758
 20
-7.222125920503497
 30
0.0
 10
34.99975856329867
 20
-5.878883190804585
 30
0.0
 10
34.99975856329867
 20
-4.222136771947938
 30
0.0
 10
34.99975856329867
 20
-2.565390353091292
 30
0.0
 10
36.34300129299758
 20
-1.22214762339238
 30
0.0
 10
38.00009222140276
 20
-1.22214762339238
 30
0.0
 10
39.6568386402594
 20
-1.22214762339238
 30
0.0
 10
41.00008136995832
 20
-2.565390353091292
 30
0.0
 10
41.00008136995832
 20
-4.222136771947938
 30
0.0
  0
SPLINE
  5
87
330
3C
100
AcDbEntity
  8
LAYER_1
 62
     7
100
AcDbSpline
210
0.0
220
0.0
230
1.0
 70
    11
 71
     3
 72
    17
 73
    13
 74
     0
 42
0.0000000001
 43
0.0000000001
 40
0.0
 40
0.0
 40
0.0
 40
0.0
 40
1.0
 40
1.0
 40
1.0
 40
2.0
 40
2.0
 40
2.0
 40
3.0
 40
3.0
 40
3.0
 40
4.0
 40
4.0
 40
4.0
 40
4.0
 10
41.00008136995832
 20
-12.66658257061808
 30
0.0
 10
41.00008136995832
 20
-14.32332898947472
 30
0.0
 10
39.6568386402594
 20
-15.66657171917364
 30
0.0
 10
38.00009222140276
 20
-15.66657171917364
 30
0.0
 10
36.34300129299758
 20
-15.66657171917364
 30
0.0
 10
34.99975856329867
 20
-14.32332898947472
 30
0.0
 10
34.99975856329867
 20
-12.66658257061808
 30
0.0
 10
34.99975856329867
 20
-11.00983615176143
 30
0.0
 10
36.34300129299758
 20
-9.666593422062519
 30
0.0
 10
38.00009222140276
 20
-9.666593422062519
 30
0.0
 10
39.6568386402594
 20
-9.666593422062519
 30
0.0
 10
41.00008136995832
 20
-11.00983615176143
 30
0.0
 10
41.00008136995832
 20
-12.66658257061808
 30
0.0
  0
ENDBLK
  5
3F
330
3C
100
AcDbEntity
  8
0
100
AcDbBlockEnd
  0
ENDSEC
  0
SECTION
  2
ENTITIES
  0
INSERT
  5
3D
330
1F
100
AcDbEntity
  8
LAYER_1
100
AcDbBlockReference
  2
BLOCK_2
 10
0.0
 20
0.0
 30
0.0
  0
ENDSEC
  0
SECTION
  2
OBJECTS
  0
DICTIONARY
  5
C
330
0
100
AcDbDictionary
  3
ACAD_GROUP
350
D
  3
ACAD_LAYOUT
350
1A
  3
ACAD_MLINESTYLE
350
17
  3
ACAD_PLOTSETTINGS
350
19
  3
ACAD_TABLESTYLE
350
88
  3
ACAD_VISUALSTYLE
350
2A
1001
ACAD
1000
TREAT_AS_HARD
1070
     0
  0
DICTIONARY
  5
D
102
{ACAD_REACTORS
330
C
102
}
330
C
100
AcDbDictionary
1001
ACAD
1000
TREAT_AS_HARD
1070
     0
  0
DICTIONARY
  5
1A
102
{ACAD_REACTORS
330
C
102
}
330
C
100
AcDbDictionary
1001
ACAD
1000
TREAT_AS_HARD
1070
     0
  0
DICTIONARY
  5
17
102
{ACAD_REACTORS
330
C
102
}
330
C
100
AcDbDictionary
  3
STANDARD
350
18
1001
ACAD
1000
TREAT_AS_HARD
1070
     0
  0
DICTIONARY
  5
19
102
{ACAD_REACTORS
330
C
102
}
330
C
100
AcDbDictionary
1001
ACAD
1000
TREAT_AS_HARD
1070
     0
  0
DICTIONARY
  5
88
102
{ACAD_REACTORS
330
C
102
}
330
C
100
AcDbDictionary
1001
ACAD
1000
TREAT_AS_HARD
1070
     0
  0
DICTIONARY
  5
2A
102
{ACAD_REACTORS
330
C
102
}
330
C
100
AcDbDictionary
  3
2DWIREFRAME
350
2F
  3
3D_HIDDEN
350
31
  3
3DWIREFRAME
350
30
  3
BASIC
350
32
  3
BRIGHTEN
350
36
  3
COLORCHANGE
350
3A
  3
CONCEPTUAL
350
34
  3
DIM
350
35
  3
FACEPATTERN
350
39
  3
FLAT
350
2B
  3
FLATWITHEDGES
350
2C
  3
GOURAUD
350
2D
  3
GOURAUDWITHEDGES
350
2E
  3
LINEPATTERN
350
38
  3
REALISTIC
350
33
  3
THICKEN
350
37
1001
ACAD
1000
TREAT_AS_HARD
1070
     0
  0
MLINESTYLE
  5
18
102
{ACAD_REACTORS
330
17
102
}
330
17
100
AcDbMlineStyle
  2
Standard
 70
     0
  3

 62
   256
 51
90.0
 52
90.0
 71
     2
 49
0.5
 62
   256
  6
BYLAYER
 49
-0.5
 62
   256
  6
BYLAYER
  0
VISUALSTYLE
  5
2F
102
{ACAD_REACTORS
330
2A
102
}
330
2A
100
AcDbVisualStyle
  2
2dWireframe
 70
     4
 71
     0
 72
     2
 73
     0
 90
        0
 40
-0.6
 41
-30.0
 62
     5
 63
     7
 74
     1
 91
        4
 64
     7
 65
   257
 75
     1
175
     1
 42
1.0
 92
        0
 66
   257
 43
1.0
 76
     1
 77
     6
 78
     2
 67
     7
 79
     5
170
     0
171
     0
290
     0
174
     0
 93
        1
 44
0.0
173
     0
291
     0
 45
0.0
1001
ACAD
1000
AcDbSavedByObjectVersion
1070
     0
  0
VISUALSTYLE
  5
31
102
{ACAD_REACTORS
330
2A
102
}
330
2A
100
AcDbVisualStyle
  2
3D Hidden
 70
     6
 71
     1
 72
     2
 73
     2
 90
        0
 40
-0.6
 41
-30.0
 62
     5
 63
     7
 74
     2
 91
        2
 64
     7
 65
   257
 75
     2
175
     1
 42
40.0
 92
        0
 66
   257
 43
1.0
 76
     1
 77
     6
 78
     2
 67
     7
 79
     3
170
     0
171
     0
290
     0
174
     0
 93
        1
 44
0.0
173
     0
291
     0
 45
0.0
1001
ACAD
1000
AcDbSavedByObjectVersion
1070
     0
  0
VISUALSTYLE
  5
30
102
{ACAD_REACTORS
330
2A
102
}
330
2A
100
AcDbVisualStyle
  2
3dWireframe
 70
     5
 71
     0
 72
     2
 73
     0
 90
        0
 40
-0.6
 41
-30.0
 62
     5
 63
     7
 74
     1
 91
        4
 64
     7
 65
   257
 75
     1
175
     1
 42
1.0
 92
        0
 66
   257
 43
1.0
 76
     1
 77
     6
 78
     2
 67
     7
 79
     5
170
     0
171
     0
290
     0
174
     0
 93
        1
 44
0.0
173
     0
291
     0
 45
0.0
1001
ACAD
1000
AcDbSavedByObjectVersion
1070
     0
  0
VISUALSTYLE
  5
32
102
{ACAD_REACTORS
330
2A
102
}
330
2A
100
AcDbVisualStyle
  2
Basic
 70
     7
 71
     1
 72
     0
 73
     1
 90
        0
 40
-0.6
 41
-30.0
 62
     5
 63
     7
 74
     0
 91
        4
 64
     7
 65
   257
 75
     1
175
     1
 42
1.0
 92
        8
 66
     7
 43
1.0
 76
     1
 77
     6
 78
     2
 67
     7
 79
     5
170
     0
171
     0
290
     0
174
     0
 93
        1
 44
0.0
173
     0
291
     1
 45
0.0
1001
ACAD
1000
AcDbSavedByObjectVersion
1070
     0
  0
VISUALSTYLE
  5
36
102
{ACAD_REACTORS
330
2A
102
}
330
2A
100
AcDbVisualStyle
  2
Brighten
 70
    12
 71
     2
 72
     2
 73
     0
 90
        0
 40
-0.6
 41
-30.0
 62
     5
 63
     7
 74
     1
 91
        4
 64
     7
 65
   257
 75
     1
175
     1
 42
1.0
 92
        8
 66
     7
 43
1.0
 76
     1
 77
     6
 78
     2
 67
     7
 79
     5
170
     0
171
     0
290
     0
174
     0
 93
        1
 44
50.0
173
     0
291
     1
 45
0.0
1001
ACAD
1000
AcDbSavedByObjectVersion
1070
     0
  0
VISUALSTYLE
  5
3A
102
{ACAD_REACTORS
330
2A
102
}
330
2A
100
AcDbVisualStyle
  2
ColorChange
 70
    16
 71
     2
 72
     2
 73
     3
 90
        0
 40
-0.6
 41
-30.0
 62
     5
 63
     8
 74
     1
 91
        4
 64
     7
 65
   257
 75
     1
175
     1
 42
1.0
 92
        8
 66
     8
 43
1.0
 76
     1
 77
     6
 78
     2
 67
     7
 79
     5
170
     0
171
     0
290
     0
174
     0
 93
        1
 44
0.0
173
     0
291
     1
 45
0.0
1001
ACAD
1000
AcDbSavedByObjectVersion
1070
     0
  0
VISUALSTYLE
  5
34
102
{ACAD_REACTORS
330
2A
102
}
330
2A
100
AcDbVisualStyle
  2
Conceptual
 70
     9
 71
     3
 72
     2
 73
     0
 90
        0
 40
-0.6
 41
-30.0
 62
     5
 63
     7
 74
     2
 91
        2
 64
     7
 65
   257
 75
     1
175
     1
 42
40.0
 92
        8
 66
     7
 43
1.0
 76
     1
 77
     6
 78
     2
 67
     7
 79
     3
170
     0
171
     0
290
     0
174
     0
 93
        1
 44
0.0
173
     0
291
     0
 45
0.0
1001
ACAD
1000
AcDbSavedByObjectVersion
1070
     0
  0
VISUALSTYLE
  5
35
102
{ACAD_REACTORS
330
2A
102
}
330
2A
100
AcDbVisualStyle
  2
Dim
 70
    11
 71
     2
 72
     2
 73
     0
 90
        0
 40
-0.6
 41
-30.0
 62
     5
 63
     7
 74
     1
 91
        4
 64
     7
 65
   257
 75
     1
175
     1
 42
1.0
 92
        8
 66
     7
 43
1.0
 76
     1
 77
     6
 78
     2
 67
     7
 79
     5
170
     0
171
     0
290
     0
174
     0
 93
        1
 44
-50.0
173
     0
291
     1
 45
0.0
1001
ACAD
1000
AcDbSavedByObjectVersion
1070
     0
  0
VISUALSTYLE
  5
39
102
{ACAD_REACTORS
330
2A
102
}
330
2A
100
AcDbVisualStyle
  2
Facepattern
 70
    15
 71
     2
 72
     2
 73
     0
 90
        0
 40
-0.6
 41
-30.0
 62
     5
 63
     7
 74
     1
 91
        4
 64
     7
 65
   257
 75
     1
175
     1
 42
1.0
 92
        8
 66
     7
 43
1.0
 76
     1
 77
     6
 78
     2
 67
     7
 79
     5
170
     0
171
     0
290
     0
174
     0
 93
        1
 44
0.0
173
     0
291
     1
 45
0.0
1001
ACAD
1000
AcDbSavedByObjectVersion
1070
     0
  0
VISUALSTYLE
  5
2B
102
{ACAD_REACTORS
330
2A
102
}
330
2A
100
AcDbVisualStyle
  2
Flat
 70
     0
 71
     2
 72
     1
 73
     1
 90
        2
 40
-0.6
 41
30.0
 62
     5
 63
     7
 74
     0
 91
        4
 64
     7
 65
   257
 75
     1
175
     1
 42
1.0
 92
        8
 66
     7
 43
1.0
 76
     1
 77
     6
 78
     2
 67
     7
 79
     5
170
     0
171
     0
290
     0
174
     0
 93
       13
 44
0.0
173
     0
291
     1
 45
0.0
1001
ACAD
1000
AcDbSavedByObjectVersion
1070
     0
  0
VISUALSTYLE
  5
2C
102
{ACAD_REACTORS
330
2A
102
}
330
2A
100
AcDbVisualStyle
  2
FlatWithEdges
 70
     1
 71
     2
 72
     1
 73
     1
 90
        2
 40
-0.6
 41
30.0
 62
     5
 63
     7
 74
     1
 91
        4
 64
     7
 65
   257
 75
     1
175
     1
 42
1.0
 92
        0
 66
   257
 43
1.0
 76
     1
 77
     6
 78
     2
 67
     7
 79
     5
170
     0
171
     0
290
     0
174
     0
 93
       13
 44
0.0
173
     0
291
     1
 45
0.0
1001
ACAD
1000
AcDbSavedByObjectVersion
1070
     0
  0
VISUALSTYLE
  5
2D
102
{ACAD_REACTORS
330
2A
102
}
330
2A
100
AcDbVisualStyle
  2
Gouraud
 70
     2
 71
     2
 72
     2
 73
     1
 90
        2
 40
-0.6
 41
30.0
 62
     5
 63
     7
 74
     0
 91
        4
 64
     7
 65
   257
 75
     1
175
     1
 42
1.0
 92
        0
 66
     7
 43
1.0
 76
     1
 77
     6
 78
     2
 67
     7
 79
     5
170
     0
171
     0
290
     0
174
     0
 93
       13
 44
0.0
173
     0
291
     1
 45
0.0
1001
ACAD
1000
AcDbSavedByObjectVersion
1070
     0
  0
VISUALSTYLE
  5
2E
102
{ACAD_REACTORS
330
2A
102
}
330
2A
100
AcDbVisualStyle
  2
GouraudWithEdges
 70
     3
 71
     2
 72
     2
 73
     1
 90
        2
 40
-0.6
 41
30.0
 62
     5
 63
     7
 74
     1
 91
        4
 64
     7
 65
   257
 75
     1
175
     1
 42
1.0
 92
        0
 66
   257
 43
1.0
 76
     1
 77
     6
 78
     2
 67
     7
 79
     5
170
     0
171
     0
290
     0
174
     0
 93
       13
 44
0.0
173
     0
291
     1
 45
0.0
1001
ACAD
1000
AcDbSavedByObjectVersion
1070
     0
  0
VISUALSTYLE
  5
38
102
{ACAD_REACTORS
330
2A
102
}
330
2A
100
AcDbVisualStyle
  2
Linepattern
 70
    14
 71
     2
 72
     2
 73
     0
 90
        0
 40
-0.6
 41
-30.0
 62
     5
 63
     7
 74
     1
 91
        4
 64
     7
 65
   257
 75
     7
175
     7
 42
1.0
 92
        8
 66
     7
 43
1.0
 76
     1
 77
     6
 78
     2
 67
     7
 79
     5
170
     0
171
     0
290
     0
174
     0
 93
        1
 44
0.0
173
     0
291
     1
 45
0.0
1001
ACAD
1000
AcDbSavedByObjectVersion
1070
     0
  0
VISUALSTYLE
  5
33
102
{ACAD_REACTORS
330
2A
102
}
330
2A
100
AcDbVisualStyle
  2
Realistic
 70
     8
 71
     2
 72
     2
 73
     0
 90
        0
 40
-0.6
 41
-30.0
 62
     5
 63
     7
 74
     1
 91
        0
 64
     7
 65
   257
 75
     1
175
     1
 42
1.0
 92
        8
 66
     8
 43
1.0
 76
     1
 77
     6
 78
     2
 67
     7
 79
     5
170
     0
171
     0
290
     0
174
     0
 93
       13
 44
0.0
173
     0
291
     0
 45
0.0
1001
ACAD
1000
AcDbSavedByObjectVersion
1070
     0
  0
VISUALSTYLE
  5
37
102
{ACAD_REACTORS
330
2A
102
}
330
2A
100
AcDbVisualStyle
  2
Thicken
 70
    13
 71
     2
 72
     2
 73
     0
 90
        0
 40
-0.6
 41
-30.0
 62
     5
 63
     7
 74
     1
 91
        4
 64
     7
 65
   257
 75
     1
175
     1
 42
1.0
 92
       12
 66
     7
 43
1.0
 76
     1
 77
     6
 78
     2
 67
     7
 79
     5
170
     0
171
     0
290
     0
174
     0
 93
        1
 44
0.0
173
     0
291
     1
 45
0.0
1001
ACAD
1000
AcDbSavedByObjectVersion
1070
     0
  0
ENDSEC
  0
EOF
