  0
SECTION
  2
HEADER
  9
$ACADVER
  1
AC1012
  9
$DWGCODEPAGE
  3
ansi_1252
  9
$INSBASE
 10
0.0
 20
0.0
 30
0.0
  9
$EXTMIN
 10
1.000000000000000E+20
 20
1.000000000000000E+20
 30
1.000000000000000E+20
  9
$EXTMAX
 10
-1.000000000000000E+20
 20
-1.000000000000000E+20
 30
-1.000000000000000E+20
  9
$LIMMIN
 10
0.0
 20
0.0
  9
$LIMMAX
 10
12.0
 20
9.0
  9
$ORTHOMODE
 70
     0
  9
$REGENMODE
 70
     1
  9
$FILLMODE
 70
     1
  9
$QTEXTMODE
 70
     0
  9
$MIRRTEXT
 70
     1
  9
$DRAGMODE
 70
     2
  9
$LTSCALE
 40
1.0
  9
$OSMODE
 70
    37
  9
$ATTMODE
 70
     1
  9
$TEXTSIZE
 40
0.2
  9
$TRACEWID
 40
0.05
  9
$TEXTSTYLE
  7
STANDARD
  9
$CLAYER
  8
0
  9
$CELTYPE
  6
BYLAYER
  9
$CECOLOR
 62
   256
  9
$CELTSCALE
 40
1.0
  9
$DELOBJ
 70
     1
  9
$DISPSILH
 70
     0
  9
$DIMSCALE
 40
1.0
  9
$DIMASZ
 40
0.18
  9
$DIMEXO
 40
0.0625
  9
$DIMDLI
 40
0.38
  9
$DIMRND
 40
0.0
  9
$DIMDLE
 40
0.0
  9
$DIMEXE
 40
0.18
  9
$DIMTP
 40
0.0
  9
$DIMTM
 40
0.0
  9
$DIMTXT
 40
0.18
  9
$DIMCEN
 40
0.09
  9
$DIMTSZ
 40
0.0
  9
$DIMTOL
 70
     0
  9
$DIMLIM
 70
     0
  9
$DIMTIH
 70
     1
  9
$DIMTOH
 70
     1
  9
$DIMSE1
 70
     0
  9
$DIMSE2
 70
     0
  9
$DIMTAD
 70
     0
  9
$DIMZIN
 70
     0
  9
$DIMBLK
  1

  9
$DIMASO
 70
     1
  9
$DIMSHO
 70
     1
  9
$DIMPOST
  1

  9
$DIMAPOST
  1

  9
$DIMALT
 70
     0
  9
$DIMALTD
 70
     2
  9
$DIMALTF
 40
25.4
  9
$DIMLFAC
 40
1.0
  9
$DIMTOFL
 70
     0
  9
$DIMTVP
 40
0.0
  9
$DIMTIX
 70
     0
  9
$DIMSOXD
 70
     0
  9
$DIMSAH
 70
     0
  9
$DIMBLK1
  1

  9
$DIMBLK2
  1

  9
$DIMSTYLE
  2
STANDARD
  9
$DIMCLRD
 70
     0
  9
$DIMCLRE
 70
     0
  9
$DIMCLRT
 70
     0
  9
$DIMTFAC
 40
1.0
  9
$DIMGAP
 40
0.09
  9
$DIMJUST
 70
     0
  9
$DIMSD1
 70
     0
  9
$DIMSD2
 70
     0
  9
$DIMTOLJ
 70
     1
  9
$DIMTZIN
 70
     0
  9
$DIMALTZ
 70
     0
  9
$DIMALTTZ
 70
     0
  9
$DIMFIT
 70
     3
  9
$DIMUPT
 70
     0
  9
$DIMUNIT
 70
     2
  9
$DIMDEC
 70
     4
  9
$DIMTDEC
 70
     4
  9
$DIMALTU
 70
     2
  9
$DIMALTTD
 70
     2
  9
$DIMTXSTY
  7
STANDARD
  9
$DIMAUNIT
 70
     0
  9
$LUNITS
 70
     2
  9
$LUPREC
 70
     4
  9
$SKETCHINC
 40
0.1
  9
$FILLETRAD
 40
0.5
  9
$AUNITS
 70
     0
  9
$AUPREC
 70
     0
  9
$MENU
  1
.
  9
$ELEVATION
 40
0.0
  9
$PELEVATION
 40
0.0
  9
$THICKNESS
 40
0.0
  9
$LIMCHECK
 70
     0
  9
$CHAMFERA
 40
0.5
  9
$CHAMFERB
 40
0.5
  9
$CHAMFERC
 40
1.0
  9
$CHAMFERD
 40
0.0
  9
$SKPOLY
 70
     0
  9
$TDCREATE
 40
2456346.438569363
  9
$TDUPDATE
 40
2456346.438569375
  9
$TDINDWG
 40
0.0000000116
  9
$TDUSRTIMER
 40
0.0000000116
  9
$USRTIMER
 70
     1
  9
$ANGBASE
 50
0.0
  9
$ANGDIR
 70
     0
  9
$PDMODE
 70
     0
  9
$PDSIZE
 40
0.0
  9
$PLINEWID
 40
0.0
  9
$COORDS
 70
     1
  9
$SPLFRAME
 70
     0
  9
$SPLINETYPE
 70
     6
  9
$SPLINESEGS
 70
     8
  9
$ATTDIA
 70
     0
  9
$ATTREQ
 70
     1
  9
$HANDLING
 70
     1
  9
$HANDSEED
  5
A1
  9
$SURFTAB1
 70
     6
  9
$SURFTAB2
 70
     6
  9
$SURFTYPE
 70
     6
  9
$SURFU
 70
     6
  9
$SURFV
 70
     6
  9
$UCSNAME
  2

  9
$UCSORG
 10
0.0
 20
0.0
 30
0.0
  9
$UCSXDIR
 10
1.0
 20
0.0
 30
0.0
  9
$UCSYDIR
 10
0.0
 20
1.0
 30
0.0
  9
$PUCSNAME
  2

  9
$PUCSORG
 10
0.0
 20
0.0
 30
0.0
  9
$PUCSXDIR
 10
1.0
 20
0.0
 30
0.0
  9
$PUCSYDIR
 10
0.0
 20
1.0
 30
0.0
  9
$USERI1
 70
     0
  9
$USERI2
 70
     0
  9
$USERI3
 70
     0
  9
$USERI4
 70
     0
  9
$USERI5
 70
     0
  9
$USERR1
 40
0.0
  9
$USERR2
 40
0.0
  9
$USERR3
 40
0.0
  9
$USERR4
 40
0.0
  9
$USERR5
 40
0.0
  9
$WORLDVIEW
 70
     1
  9
$SHADEDGE
 70
     3
  9
$SHADEDIF
 70
    70
  9
$TILEMODE
 70
     1
  9
$MAXACTVP
 70
    64
  9
$PINSBASE
 10
0.0
 20
0.0
 30
0.0
  9
$PLIMCHECK
 70
     0
  9
$PEXTMIN
 10
1.000000000000000E+20
 20
1.000000000000000E+20
 30
1.000000000000000E+20
  9
$PEXTMAX
 10
-1.000000000000000E+20
 20
-1.000000000000000E+20
 30
-1.000000000000000E+20
  9
$PLIMMIN
 10
0.0
 20
0.0
  9
$PLIMMAX
 10
12.0
 20
9.0
  9
$UNITMODE
 70
     0
  9
$VISRETAIN
 70
     1
  9
$PLINEGEN
 70
     0
  9
$PSLTSCALE
 70
     1
  9
$TREEDEPTH
 70
  3020
  9
$PICKSTYLE
 70
     1
  9
$CMLSTYLE
  2
STANDARD
  9
$CMLJUST
 70
     0
  9
$CMLSCALE
 40
1.0
  9
$SAVEIMAGES
 70
     1
  0
ENDSEC
  0
SECTION
  2
CLASSES
  0
CLASS
  1
ACDBDICTIONARYWDFLT
  2
AcDbDictionaryWithDefault
  3
ObjectDBX Classes
 90
    32768
280
     0
281
     0
  0
CLASS
  1
VISUALSTYLE
  2
AcDbVisualStyle
  3
ObjectDBX Classes
 90
     4095
280
     0
281
     0
  0
CLASS
  1
XRECORD
  2
AcDbXrecord
  3
AutoCAD 2000
 90
    32768
280
     0
281
     0
  0
CLASS
  1
LWPOLYLINE
  2
AcDbPolyline
  3
AutoCAD 2000
 90
    32768
280
     0
281
     1
  0
CLASS
  1
HATCH
  2
AcDbHatch
  3
AutoCAD 2000
 90
    32768
280
     0
281
     1
  0
CLASS
  1
ACDBPLACEHOLDER
  2
AcDbPlaceHolder
  3
ObjectDBX Classes
 90
        0
280
     0
281
     0
  0
CLASS
  1
LAYOUT
  2
AcDbLayout
  3
ObjectDBX Classes
 90
        0
280
     0
281
     0
  0
ENDSEC
  0
SECTION
  2
TABLES
  0
TABLE
  2
VPORT
  5
8
330
0
100
AcDbSymbolTable
 70
     1
  0
VPORT
  5
29
330
8
100
AcDbSymbolTableRecord
100
AcDbViewportTableRecord
  2
*ACTIVE
 70
     0
 10
0.0
 20
0.0
 11
1.0
 21
1.0
 12
0.0
 22
0.0
 13
0.0
 23
0.0
 14
0.5
 24
0.5
 15
0.5
 25
0.5
 16
0.0
 26
0.0
 36
1.0
 17
105.0008259828644
 27
-148.4999796178229
 37
0.0
 40
296.9999592356459
 41
0.7070763662937379
 42
50.0
 43
0.0
 44
0.0
 50
0.0
 51
0.0
 71
     0
 72
   100
 73
     1
 74
     3
 75
     0
 76
     0
 77
     0
 78
     0
  0
ENDTAB
  0
TABLE
  2
LTYPE
  5
5
330
0
100
AcDbSymbolTable
 70
     1
  0
LTYPE
  5
14
330
5
100
AcDbSymbolTableRecord
100
AcDbLinetypeTableRecord
  2
BYBLOCK
 70
     0
  3

 72
    65
 73
     0
 40
0.0
  0
LTYPE
  5
15
330
5
100
AcDbSymbolTableRecord
100
AcDbLinetypeTableRecord
  2
BYLAYER
 70
     0
  3

 72
    65
 73
     0
 40
0.0
  0
LTYPE
  5
16
330
5
100
AcDbSymbolTableRecord
100
AcDbLinetypeTableRecord
  2
CONTINUOUS
 70
     0
  3
Solid line
 72
    65
 73
     0
 40
0.0
  0
ENDTAB
  0
TABLE
  2
LAYER
  5
2
330
0
100
AcDbSymbolTable
 70
     2
  0
LAYER
  5
10
330
2
100
AcDbSymbolTableRecord
100
AcDbLayerTableRecord
  2
0
 70
     0
 62
     7
  6
CONTINUOUS
  0
LAYER
  5
3B
330
2
100
AcDbSymbolTableRecord
100
AcDbLayerTableRecord
  2
LAYER_1
 70
     0
 62
     7
  6
CONTINUOUS
  0
ENDTAB
  0
TABLE
  2
STYLE
  5
3
330
0
100
AcDbSymbolTable
 70
     1
  0
STYLE
  5
11
330
3
100
AcDbSymbolTableRecord
100
AcDbTextStyleTableRecord
  2
STANDARD
 70
     0
 40
0.0
 41
1.0
 50
0.0
 71
     0
 42
0.2
  3
txt
  4

  0
ENDTAB
  0
TABLE
  2
VIEW
  5
6
330
0
100
AcDbSymbolTable
 70
     0
  0
ENDTAB
  0
TABLE
  2
UCS
  5
7
330
0
100
AcDbSymbolTable
 70
     0
  0
ENDTAB
  0
TABLE
  2
APPID
  5
9
330
0
100
AcDbSymbolTable
 70
     1
  0
APPID
  5
12
330
9
100
AcDbSymbolTableRecord
100
AcDbRegAppTableRecord
  2
ACAD
 70
     0
  0
ENDTAB
  0
TABLE
  2
DIMSTYLE
  5
A
330
0
100
AcDbSymbolTable
 70
     1
  0
DIMSTYLE
105
27
330
A
100
AcDbSymbolTableRecord
100
AcDbDimStyleTableRecord
  2
STANDARD
 70
     0
  3

  4

  5

  6

  7

 40
1.0
 41
0.18
 42
0.0625
 43
0.38
 44
0.18
 45
0.0
 46
0.0
 47
0.0
 48
0.0
140
0.18
141
0.09
142
0.0
143
25.4
144
1.0
145
0.0
146
1.0
147
0.09
 71
     0
 72
     0
 73
     1
 74
     1
 75
     0
 76
     0
 77
     0
 78
     0
170
     0
171
     2
172
     0
173
     0
174
     0
175
     0
176
     0
177
     0
178
     0
270
     2
271
     4
272
     4
273
     2
274
     2
340
11
275
     0
280
     0
281
     0
282
     0
283
     1
284
     0
285
     0
286
     0
287
     3
288
     0
  0
ENDTAB
  0
TABLE
  2
BLOCK_RECORD
  5
1
330
0
100
AcDbSymbolTable
 70
     2
  0
BLOCK_RECORD
  5
1F
330
1
100
AcDbSymbolTableRecord
100
AcDbBlockTableRecord
  2
*MODEL_SPACE
  0
BLOCK_RECORD
  5
1B
330
1
100
AcDbSymbolTableRecord
100
AcDbBlockTableRecord
  2
*PAPER_SPACE
  0
BLOCK_RECORD
  5
3C
330
1
100
AcDbSymbolTableRecord
100
AcDbBlockTableRecord
  2
BLOCK_2
  0
ENDTAB
  0
ENDSEC
  0
SECTION
  2
BLOCKS
  0
BLOCK
  5
20
330
1F
100
AcDbEntity
  8
0
100
AcDbBlockBegin
  2
*MODEL_SPACE
 70
     0
 71
     0
 10
0.0
 20
0.0
 30
0.0
  3
*MODEL_SPACE
  1

  0
ENDBLK
  5
21
330
1F
100
AcDbEntity
  8
0
100
AcDbBlockEnd
  0
BLOCK
  5
1C
330
1B
100
AcDbEntity
 67
     1
  8
0
100
AcDbBlockBegin
  2
*PAPER_SPACE
 70
     0
 71
     0
 10
0.0
 20
0.0
 30
0.0
  3
*PAPER_SPACE
  1

  0
ENDBLK
  5
1D
330
1B
100
AcDbEntity
 67
     1
  8
0
100
AcDbBlockEnd
  0
BLOCK
  5
3E
330
3C
100
AcDbEntity
  8
0
100
AcDbBlockBegin
  2
BLOCK_2
 70
     0
 71
     0
 10
0.0
 20
0.0
 30
0.0
  3
BLOCK_2
  1

  0
POLYLINE
  5
40
330
3C
100
AcDbEntity
  8
LAYER_1
 62
   250
100
AcDb2dPolyline
 66
     1
 10
0.0
 20
0.0
 30
0.0
  0
VERTEX
  5
41
330
40
100
AcDbEntity
  8
LAYER_1
 62
   250
100
AcDbVertex
100
AcDb2dVertex
 10
0.0
 20
0.0
 30
0.0
  0
VERTEX
  5
42
330
40
100
AcDbEntity
  8
LAYER_1
 62
   250
100
AcDbVertex
100
AcDb2dVertex
 10
0.0
 20
44.00007051851387
 30
0.0
  0
VERTEX
  5
43
330
40
100
AcDbEntity
  8
LAYER_1
 62
   250
100
AcDbVertex
100
AcDb2dVertex
 10
87.50025768211799
 20
44.00007051851387
 30
0.0
  0
VERTEX
  5
44
330
40
100
AcDbEntity
  8
LAYER_1
 62
   250
100
AcDbVertex
100
AcDb2dVertex
 10
87.50025768211799
 20
0.0
 30
0.0
  0
VERTEX
  5
45
330
40
100
AcDbEntity
  8
LAYER_1
 62
   250
100
AcDbVertex
100
AcDb2dVertex
 10
0.0
 20
0.0
 30
0.0
  0
SEQEND
  5
46
330
40
100
AcDbEntity
  8
LAYER_1
  0
SPLINE
  5
47
330
3C
100
AcDbEntity
  8
LAYER_1
 62
   250
100
AcDbSpline
210
0.0
220
0.0
230
1.0
 70
    11
 71
     3
 72
    17
 73
    13
 74
     0
 42
0.0000000001
 43
0.0000000001
 40
0.0
 40
0.0
 40
0.0
 40
0.0
 40
1.0
 40
1.0
 40
1.0
 40
2.0
 40
2.0
 40
2.0
 40
3.0
 40
3.0
 40
3.0
 40
4.0
 40
4.0
 40
4.0
 40
4.0
 10
76.25029837503465
 20
29.99989148555558
 30
0.0
 10
75.1456285076893
 20
29.99989148555558
 30
0.0
 10
74.25024819107286
 20
30.89561631172054
 30
0.0
 10
74.25024819107286
 20
32.00011392429164
 30
0.0
 10
74.25024819107286
 20
33.10461153686273
 30
0.0
 10
75.1456285076893
 20
33.99999185347917
 30
0.0
 10
76.25029837503465
 20
33.99999185347917
 30
0.0
 10
77.35479598760575
 20
33.99999185347917
 30
0.0
 10
78.25017630422218
 20
33.10461153686273
 30
0.0
 10
78.25017630422218
 20
32.00011392429164
 30
0.0
 10
78.25017630422218
 20
30.89561631172054
 30
0.0
 10
77.35479598760575
 20
29.99989148555558
 30
0.0
 10
76.25029837503465
 20
29.99989148555558
 30
0.0
  0
SPLINE
  5
48
330
3C
100
AcDbEntity
  8
LAYER_1
 62
   250
100
AcDbSpline
210
0.0
220
0.0
230
1.0
 70
    11
 71
     3
 72
    17
 73
    13
 74
     0
 42
0.0000000001
 43
0.0000000001
 40
0.0
 40
0.0
 40
0.0
 40
0.0
 40
1.0
 40
1.0
 40
1.0
 40
2.0
 40
2.0
 40
2.0
 40
3.0
 40
3.0
 40
3.0
 40
4.0
 40
4.0
 40
4.0
 40
4.0
 10
76.25029837503465
 20
28.99978026618756
 30
0.0
 10
74.59337970140375
 20
28.99978026618756
 30
0.0
 10
73.25013697170483
 20
30.34336750543499
 30
0.0
 10
73.25013697170483
 20
32.00011392429164
 30
0.0
 10
73.25013697170483
 20
33.65686034314829
 30
0.0
 10
74.59337970140375
 20
35.0001030728472
 30
0.0
 10
76.25029837503465
 20
35.0001030728472
 30
0.0
 10
77.9070447938913
 20
35.0001030728472
 30
0.0
 10
79.2502875235902
 20
33.65686034314829
 30
0.0
 10
79.2502875235902
 20
32.00011392429164
 30
0.0
 10
79.2502875235902
 20
30.34336750543499
 30
0.0
 10
77.9070447938913
 20
28.99978026618756
 30
0.0
 10
76.25029837503465
 20
28.99978026618756
 30
0.0
  0
SPLINE
  5
49
330
3C
100
AcDbEntity
  8
LAYER_1
 62
   250
100
AcDbSpline
210
0.0
220
0.0
230
1.0
 70
    11
 71
     3
 72
    17
 73
    13
 74
     0
 42
0.0000000001
 43
0.0000000001
 40
0.0
 40
0.0
 40
0.0
 40
0.0
 40
1.0
 40
1.0
 40
1.0
 40
2.0
 40
2.0
 40
2.0
 40
3.0
 40
3.0
 40
3.0
 40
4.0
 40
4.0
 40
4.0
 40
4.0
 10
76.25029837503465
 20
9.999734155486179
 30
0.0
 10
75.1456285076893
 20
9.999734155486179
 30
0.0
 10
74.25024819107286
 20
10.89545898165114
 30
0.0
 10
74.25024819107286
 20
11.99995659422223
 30
0.0
 10
74.25024819107286
 20
13.10445420679333
 30
0.0
 10
75.1456285076893
 20
13.99983452340976
 30
0.0
 10
76.25029837503465
 20
13.99983452340976
 30
0.0
 10
77.35479598760575
 20
13.99983452340976
 30
0.0
 10
78.25017630422218
 20
13.10445420679333
 30
0.0
 10
78.25017630422218
 20
11.99995659422223
 30
0.0
 10
78.25017630422218
 20
10.89545898165114
 30
0.0
 10
77.35479598760575
 20
9.999734155486179
 30
0.0
 10
76.25029837503465
 20
9.999734155486179
 30
0.0
  0
SPLINE
  5
4A
330
3C
100
AcDbEntity
  8
LAYER_1
 62
   250
100
AcDbSpline
210
0.0
220
0.0
230
1.0
 70
    11
 71
     3
 72
    17
 73
    13
 74
     0
 42
0.0000000001
 43
0.0000000001
 40
0.0
 40
0.0
 40
0.0
 40
0.0
 40
1.0
 40
1.0
 40
1.0
 40
2.0
 40
2.0
 40
2.0
 40
3.0
 40
3.0
 40
3.0
 40
4.0
 40
4.0
 40
4.0
 40
4.0
 10
76.25029837503465
 20
8.99962293611815
 30
0.0
 10
74.59337970140375
 20
8.99962293611815
 30
0.0
 10
73.25030922647909
 20
10.34321017536559
 30
0.0
 10
73.25030922647909
 20
11.99995659422223
 30
0.0
 10
73.25030922647909
 20
13.65670301307888
 30
0.0
 10
74.59337970140375
 20
14.99977348800353
 30
0.0
 10
76.25029837503465
 20
14.99977348800353
 30
0.0
 10
77.9070447938913
 20
14.99977348800353
 30
0.0
 10
79.24994301404169
 20
13.65670301307888
 30
0.0
 10
79.24994301404169
 20
11.99995659422223
 30
0.0
 10
79.24994301404169
 20
10.34321017536559
 30
0.0
 10
77.9070447938913
 20
8.99962293611815
 30
0.0
 10
76.25029837503465
 20
8.99962293611815
 30
0.0
  0
SPLINE
  5
4B
330
3C
100
AcDbEntity
  8
LAYER_1
 62
   250
100
AcDbSpline
210
0.0
220
0.0
230
1.0
 70
    11
 71
     3
 72
    17
 73
    13
 74
     0
 42
0.0000000001
 43
0.0000000001
 40
0.0
 40
0.0
 40
0.0
 40
0.0
 40
1.0
 40
1.0
 40
1.0
 40
2.0
 40
2.0
 40
2.0
 40
3.0
 40
3.0
 40
3.0
 40
4.0
 40
4.0
 40
4.0
 40
4.0
 10
11.24961479753482
 20
9.999734155486179
 30
0.0
 10
10.14511718496372
 20
9.999734155486179
 30
0.0
 10
9.250081377895814
 20
10.89545898165114
 30
0.0
 10
9.250081377895814
 20
11.99995659422223
 30
0.0
 10
9.250081377895814
 20
13.10445420679333
 30
0.0
 10
10.14511718496372
 20
13.99983452340976
 30
0.0
 10
11.24961479753482
 20
13.99983452340976
 30
0.0
 10
12.35411241010592
 20
13.99983452340976
 30
0.0
 10
13.24983723627087
 20
13.10445420679333
 30
0.0
 10
13.24983723627087
 20
11.99995659422223
 30
0.0
 10
13.24983723627087
 20
10.89545898165114
 30
0.0
 10
12.35411241010592
 20
9.999734155486179
 30
0.0
 10
11.24961479753482
 20
9.999734155486179
 30
0.0
  0
SPLINE
  5
4C
330
3C
100
AcDbEntity
  8
LAYER_1
 62
   250
100
AcDbSpline
210
0.0
220
0.0
230
1.0
 70
    11
 71
     3
 72
    17
 73
    13
 74
     0
 42
0.0000000001
 43
0.0000000001
 40
0.0
 40
0.0
 40
0.0
 40
0.0
 40
1.0
 40
1.0
 40
1.0
 40
2.0
 40
2.0
 40
2.0
 40
3.0
 40
3.0
 40
3.0
 40
4.0
 40
4.0
 40
4.0
 40
4.0
 10
11.24961479753482
 20
8.99962293611815
 30
0.0
 10
9.592523869129646
 20
8.99962293611815
 30
0.0
 10
8.249970158527786
 20
10.34321017536559
 30
0.0
 10
8.249970158527786
 20
11.99995659422223
 30
0.0
 10
8.249970158527786
 20
13.65670301307888
 30
0.0
 10
9.592523869129646
 20
14.99994574277779
 30
0.0
 10
11.24961479753482
 20
14.99994574277779
 30
0.0
 10
12.90636121639147
 20
14.99994574277779
 30
0.0
 10
14.2499484556389
 20
13.65670301307888
 30
0.0
 10
14.2499484556389
 20
11.99995659422223
 30
0.0
 10
14.2499484556389
 20
10.34321017536559
 30
0.0
 10
12.90636121639147
 20
8.99962293611815
 30
0.0
 10
11.24961479753482
 20
8.99962293611815
 30
0.0
  0
SPLINE
  5
4D
330
3C
100
AcDbEntity
  8
LAYER_1
 62
   250
100
AcDbSpline
210
0.0
220
0.0
230
1.0
 70
    11
 71
     3
 72
    17
 73
    13
 74
     0
 42
0.0000000001
 43
0.0000000001
 40
0.0
 40
0.0
 40
0.0
 40
0.0
 40
1.0
 40
1.0
 40
1.0
 40
2.0
 40
2.0
 40
2.0
 40
3.0
 40
3.0
 40
3.0
 40
4.0
 40
4.0
 40
4.0
 40
4.0
 10
11.25030381663187
 20
29.99989148555558
 30
0.0
 10
10.14511718496372
 20
29.99989148555558
 30
0.0
 10
9.250081377895814
 20
30.89561631172054
 30
0.0
 10
9.250081377895814
 20
32.00011392429164
 30
0.0
 10
9.250081377895814
 20
33.10461153686273
 30
0.0
 10
10.14511718496372
 20
33.99999185347917
 30
0.0
 10
11.25030381663187
 20
33.99999185347917
 30
0.0
 10
12.35480142920297
 20
33.99999185347917
 30
0.0
 10
13.24983723627087
 20
33.10461153686273
 30
0.0
 10
13.24983723627087
 20
32.00011392429164
 30
0.0
 10
13.24983723627087
 20
30.89561631172054
 30
0.0
 10
12.35480142920297
 20
29.99989148555558
 30
0.0
 10
11.25030381663187
 20
29.99989148555558
 30
0.0
  0
SPLINE
  5
4E
330
3C
100
AcDbEntity
  8
LAYER_1
 62
   250
100
AcDbSpline
210
0.0
220
0.0
230
1.0
 70
    11
 71
     3
 72
    17
 73
    13
 74
     0
 42
0.0000000001
 43
0.0000000001
 40
0.0
 40
0.0
 40
0.0
 40
0.0
 40
1.0
 40
1.0
 40
1.0
 40
2.0
 40
2.0
 40
2.0
 40
3.0
 40
3.0
 40
3.0
 40
4.0
 40
4.0
 40
4.0
 40
4.0
 10
11.25030381663187
 20
28.99978026618756
 30
0.0
 10
9.592523869129646
 20
28.99978026618756
 30
0.0
 10
8.249970158527786
 20
30.34336750543499
 30
0.0
 10
8.249970158527786
 20
32.00011392429164
 30
0.0
 10
8.249970158527786
 20
33.65686034314829
 30
0.0
 10
9.592523869129646
 20
35.0001030728472
 30
0.0
 10
11.25030381663187
 20
35.0001030728472
 30
0.0
 10
12.90705023548852
 20
35.0001030728472
 30
0.0
 10
14.24960394609038
 20
33.65686034314829
 30
0.0
 10
14.24960394609038
 20
32.00011392429164
 30
0.0
 10
14.24960394609038
 20
30.34336750543499
 30
0.0
 10
12.90705023548852
 20
28.99978026618756
 30
0.0
 10
11.25030381663187
 20
28.99978026618756
 30
0.0
  0
SPLINE
  5
4F
330
3C
100
AcDbEntity
  8
LAYER_1
 62
   250
100
AcDbSpline
210
0.0
220
0.0
230
1.0
 70
    11
 71
     3
 72
    17
 73
    13
 74
     0
 42
0.0000000001
 43
0.0000000001
 40
0.0
 40
0.0
 40
0.0
 40
0.0
 40
1.0
 40
1.0
 40
1.0
 40
2.0
 40
2.0
 40
2.0
 40
3.0
 40
3.0
 40
3.0
 40
4.0
 40
4.0
 40
4.0
 40
4.0
 10
81.20021156824161
 20
33.00022514365967
 30
0.0
 10
80.09536944612199
 20
33.00022514365967
 30
0.0
 10
79.2003336390541
 20
33.8956054602761
 30
0.0
 10
79.2003336390541
 20
35.0001030728472
 30
0.0
 10
79.2003336390541
 20
36.1046006854183
 30
0.0
 10
80.09536944612199
 20
36.99998100203473
 30
0.0
 10
81.20021156824161
 20
36.99998100203473
 30
0.0
 10
82.30505369036123
 20
36.99998100203473
 30
0.0
 10
83.20008949742915
 20
36.1046006854183
 30
0.0
 10
83.20008949742915
 20
35.0001030728472
 30
0.0
 10
83.20008949742915
 20
33.8956054602761
 30
0.0
 10
82.30505369036123
 20
33.00022514365967
 30
0.0
 10
81.20021156824161
 20
33.00022514365967
 30
0.0
  0
SPLINE
  5
50
330
3C
100
AcDbEntity
  8
LAYER_1
 62
   250
100
AcDbSpline
210
0.0
220
0.0
230
1.0
 70
    11
 71
     3
 72
    17
 73
    13
 74
     0
 42
0.0000000001
 43
0.0000000001
 40
0.0
 40
0.0
 40
0.0
 40
0.0
 40
1.0
 40
1.0
 40
1.0
 40
2.0
 40
2.0
 40
2.0
 40
3.0
 40
3.0
 40
3.0
 40
4.0
 40
4.0
 40
4.0
 40
4.0
 10
81.20021156824161
 20
7.000089516479145
 30
0.0
 10
80.09536944612199
 20
7.000089516479145
 30
0.0
 10
79.2003336390541
 20
7.895469833095578
 30
0.0
 10
79.2003336390541
 20
8.999967445666675
 30
0.0
 10
79.2003336390541
 20
10.10446505823777
 30
0.0
 10
80.09536944612199
 20
10.99984537485421
 30
0.0
 10
81.20021156824161
 20
10.99984537485421
 30
0.0
 10
82.30505369036123
 20
10.99984537485421
 30
0.0
 10
83.20008949742915
 20
10.10446505823777
 30
0.0
 10
83.20008949742915
 20
8.999967445666675
 30
0.0
 10
83.20008949742915
 20
7.895469833095578
 30
0.0
 10
82.30505369036123
 20
7.000089516479145
 30
0.0
 10
81.20021156824161
 20
7.000089516479145
 30
0.0
  0
SPLINE
  5
51
330
3C
100
AcDbEntity
  8
LAYER_1
 62
   250
100
AcDbSpline
210
0.0
220
0.0
230
1.0
 70
    11
 71
     3
 72
    17
 73
    13
 74
     0
 42
0.0000000001
 43
0.0000000001
 40
0.0
 40
0.0
 40
0.0
 40
0.0
 40
1.0
 40
1.0
 40
1.0
 40
2.0
 40
2.0
 40
2.0
 40
3.0
 40
3.0
 40
3.0
 40
4.0
 40
4.0
 40
4.0
 40
4.0
 10
51.20032008268603
 20
33.00022514365967
 30
0.0
 10
50.09565021534068
 20
33.00022514365967
 30
0.0
 10
49.20026989872424
 20
33.8956054602761
 30
0.0
 10
49.20026989872424
 20
35.0001030728472
 30
0.0
 10
49.20026989872424
 20
36.1046006854183
 30
0.0
 10
50.09565021534068
 20
36.99998100203473
 30
0.0
 10
51.20032008268603
 20
36.99998100203473
 30
0.0
 10
52.30498995003139
 20
36.99998100203473
 30
0.0
 10
53.20037026664782
 20
36.1046006854183
 30
0.0
 10
53.20037026664782
 20
35.0001030728472
 30
0.0
 10
53.20037026664782
 20
33.8956054602761
 30
0.0
 10
52.30498995003139
 20
33.00022514365967
 30
0.0
 10
51.20032008268603
 20
33.00022514365967
 30
0.0
  0
SPLINE
  5
52
330
3C
100
AcDbEntity
  8
LAYER_1
 62
   250
100
AcDbSpline
210
0.0
220
0.0
230
1.0
 70
    11
 71
     3
 72
    17
 73
    13
 74
     0
 42
0.0000000001
 43
0.0000000001
 40
0.0
 40
0.0
 40
0.0
 40
0.0
 40
1.0
 40
1.0
 40
1.0
 40
2.0
 40
2.0
 40
2.0
 40
3.0
 40
3.0
 40
3.0
 40
4.0
 40
4.0
 40
4.0
 40
4.0
 10
51.20032008268603
 20
7.000089516479145
 30
0.0
 10
50.09565021534068
 20
7.000089516479145
 30
0.0
 10
49.20026989872424
 20
7.895469833095578
 30
0.0
 10
49.20026989872424
 20
8.999967445666675
 30
0.0
 10
49.20026989872424
 20
10.10446505823777
 30
0.0
 10
50.09565021534068
 20
10.99984537485421
 30
0.0
 10
51.20032008268603
 20
10.99984537485421
 30
0.0
 10
52.30498995003139
 20
10.99984537485421
 30
0.0
 10
53.20037026664782
 20
10.10446505823777
 30
0.0
 10
53.20037026664782
 20
8.999967445666675
 30
0.0
 10
53.20037026664782
 20
7.895469833095578
 30
0.0
 10
52.30498995003139
 20
7.000089516479145
 30
0.0
 10
51.20032008268603
 20
7.000089516479145
 30
0.0
  0
SPLINE
  5
53
330
3C
100
AcDbEntity
  8
LAYER_1
 62
   250
100
AcDbSpline
210
0.0
220
0.0
230
1.0
 70
    11
 71
     3
 72
    17
 73
    13
 74
     0
 42
0.0000000001
 43
0.0000000001
 40
0.0
 40
0.0
 40
0.0
 40
0.0
 40
1.0
 40
1.0
 40
1.0
 40
2.0
 40
2.0
 40
2.0
 40
3.0
 40
3.0
 40
3.0
 40
4.0
 40
4.0
 40
4.0
 40
4.0
 10
36.29993759943196
 20
33.00022514365967
 30
0.0
 10
35.1952677320866
 20
33.00022514365967
 30
0.0
 10
34.29988741547017
 20
33.8956054602761
 30
0.0
 10
34.29988741547017
 20
35.0001030728472
 30
0.0
 10
34.29988741547017
 20
36.1046006854183
 30
0.0
 10
35.1952677320866
 20
36.99998100203473
 30
0.0
 10
36.29993759943196
 20
36.99998100203473
 30
0.0
 10
37.40460746677732
 20
36.99998100203473
 30
0.0
 10
38.29998778339375
 20
36.1046006854183
 30
0.0
 10
38.29998778339375
 20
35.0001030728472
 30
0.0
 10
38.29998778339375
 20
33.8956054602761
 30
0.0
 10
37.40460746677732
 20
33.00022514365967
 30
0.0
 10
36.29993759943196
 20
33.00022514365967
 30
0.0
  0
SPLINE
  5
54
330
3C
100
AcDbEntity
  8
LAYER_1
 62
   250
100
AcDbSpline
210
0.0
220
0.0
230
1.0
 70
    11
 71
     3
 72
    17
 73
    13
 74
     0
 42
0.0000000001
 43
0.0000000001
 40
0.0
 40
0.0
 40
0.0
 40
0.0
 40
1.0
 40
1.0
 40
1.0
 40
2.0
 40
2.0
 40
2.0
 40
3.0
 40
3.0
 40
3.0
 40
4.0
 40
4.0
 40
4.0
 40
4.0
 10
36.29993759943196
 20
7.000089516479145
 30
0.0
 10
35.1952677320866
 20
7.000089516479145
 30
0.0
 10
34.29988741547017
 20
7.895469833095578
 30
0.0
 10
34.29988741547017
 20
8.999967445666675
 30
0.0
 10
34.29988741547017
 20
10.10446505823777
 30
0.0
 10
35.1952677320866
 20
10.99984537485421
 30
0.0
 10
36.29993759943196
 20
10.99984537485421
 30
0.0
 10
37.40460746677732
 20
10.99984537485421
 30
0.0
 10
38.29998778339375
 20
10.10446505823777
 30
0.0
 10
38.29998778339375
 20
8.999967445666675
 30
0.0
 10
38.29998778339375
 20
7.895469833095578
 30
0.0
 10
37.40460746677732
 20
7.000089516479145
 30
0.0
 10
36.29993759943196
 20
7.000089516479145
 30
0.0
  0
SPLINE
  5
55
330
3C
100
AcDbEntity
  8
LAYER_1
 62
   250
100
AcDbSpline
210
0.0
220
0.0
230
1.0
 70
    11
 71
     3
 72
    17
 73
    13
 74
     0
 42
0.0000000001
 43
0.0000000001
 40
0.0
 40
0.0
 40
0.0
 40
0.0
 40
1.0
 40
1.0
 40
1.0
 40
2.0
 40
2.0
 40
2.0
 40
3.0
 40
3.0
 40
3.0
 40
4.0
 40
4.0
 40
4.0
 40
4.0
 10
6.300390623424903
 20
33.00022514365967
 30
0.0
 10
5.195203991756755
 20
33.00022514365967
 30
0.0
 10
4.300168184688847
 20
33.8956054602761
 30
0.0
 10
4.300168184688847
 20
35.0001030728472
 30
0.0
 10
4.300168184688847
 20
36.1046006854183
 30
0.0
 10
5.195203991756755
 20
36.99998100203473
 30
0.0
 10
6.300390623424903
 20
36.99998100203473
 30
0.0
 10
7.404888235996
 20
36.99998100203473
 30
0.0
 10
8.299924043063909
 20
36.1046006854183
 30
0.0
 10
8.299924043063909
 20
35.0001030728472
 30
0.0
 10
8.299924043063909
 20
33.8956054602761
 30
0.0
 10
7.404888235996
 20
33.00022514365967
 30
0.0
 10
6.300390623424903
 20
33.00022514365967
 30
0.0
  0
SPLINE
  5
56
330
3C
100
AcDbEntity
  8
LAYER_1
 62
   250
100
AcDbSpline
210
0.0
220
0.0
230
1.0
 70
    11
 71
     3
 72
    17
 73
    13
 74
     0
 42
0.0000000001
 43
0.0000000001
 40
0.0
 40
0.0
 40
0.0
 40
0.0
 40
1.0
 40
1.0
 40
1.0
 40
2.0
 40
2.0
 40
2.0
 40
3.0
 40
3.0
 40
3.0
 40
4.0
 40
4.0
 40
4.0
 40
4.0
 10
6.300390623424903
 20
7.000089516479145
 30
0.0
 10
5.195203991756755
 20
7.000089516479145
 30
0.0
 10
4.300168184688847
 20
7.895469833095578
 30
0.0
 10
4.300168184688847
 20
8.999967445666675
 30
0.0
 10
4.300168184688847
 20
10.10446505823777
 30
0.0
 10
5.195203991756755
 20
10.99984537485421
 30
0.0
 10
6.300390623424903
 20
10.99984537485421
 30
0.0
 10
7.404888235996
 20
10.99984537485421
 30
0.0
 10
8.299924043063909
 20
10.10446505823777
 30
0.0
 10
8.299924043063909
 20
8.999967445666675
 30
0.0
 10
8.299924043063909
 20
7.895469833095578
 30
0.0
 10
7.404888235996
 20
7.000089516479145
 30
0.0
 10
6.300390623424903
 20
7.000089516479145
 30
0.0
  0
POLYLINE
  5
57
330
3C
100
AcDbEntity
  8
LAYER_1
 62
   250
100
AcDb2dPolyline
 66
     1
 10
0.0
 20
0.0
 30
0.0
  0
VERTEX
  5
58
330
57
100
AcDbEntity
  8
LAYER_1
 62
   250
100
AcDbVertex
100
AcDb2dVertex
 10
4.279325357003086
 20
31.50005831460762
 30
0.0
  0
VERTEX
  5
59
330
57
100
AcDbEntity
  8
LAYER_1
 62
   250
100
AcDbVertex
100
AcDb2dVertex
 10
2.258432345355531
 20
35.0001030728472
 30
0.0
  0
VERTEX
  5
5A
330
57
100
AcDbEntity
  8
LAYER_1
 62
   250
100
AcDbVertex
100
AcDb2dVertex
 10
4.279325357003086
 20
38.50014783108677
 30
0.0
  0
VERTEX
  5
5B
330
57
100
AcDbEntity
  8
LAYER_1
 62
   250
100
AcDbVertex
100
AcDb2dVertex
 10
8.32076687074967
 20
38.50014783108677
 30
0.0
  0
VERTEX
  5
5C
330
57
100
AcDbEntity
  8
LAYER_1
 62
   250
100
AcDbVertex
100
AcDb2dVertex
 10
10.34165988239722
 20
35.0001030728472
 30
0.0
  0
VERTEX
  5
5D
330
57
100
AcDbEntity
  8
LAYER_1
 62
   250
100
AcDbVertex
100
AcDb2dVertex
 10
8.32076687074967
 20
31.50005831460762
 30
0.0
  0
VERTEX
  5
5E
330
57
100
AcDbEntity
  8
LAYER_1
 62
   250
100
AcDbVertex
100
AcDb2dVertex
 10
4.279325357003086
 20
31.50005831460762
 30
0.0
  0
SEQEND
  5
5F
330
57
100
AcDbEntity
  8
LAYER_1
  0
POLYLINE
  5
60
330
3C
100
AcDbEntity
  8
LAYER_1
 62
   250
100
AcDb2dPolyline
 66
     1
 10
0.0
 20
0.0
 30
0.0
  0
VERTEX
  5
61
330
60
100
AcDbEntity
  8
LAYER_1
 62
   250
100
AcDbVertex
100
AcDb2dVertex
 10
34.27921684255867
 20
31.50005831460762
 30
0.0
  0
VERTEX
  5
62
330
60
100
AcDbEntity
  8
LAYER_1
 62
   250
100
AcDbVertex
100
AcDb2dVertex
 10
32.25832383091112
 20
35.0001030728472
 30
0.0
  0
VERTEX
  5
63
330
60
100
AcDbEntity
  8
LAYER_1
 62
   250
100
AcDbVertex
100
AcDb2dVertex
 10
34.27921684255867
 20
38.50014783108677
 30
0.0
  0
VERTEX
  5
64
330
60
100
AcDbEntity
  8
LAYER_1
 62
   250
100
AcDbVertex
100
AcDb2dVertex
 10
38.32065835630525
 20
38.50014783108677
 30
0.0
  0
VERTEX
  5
65
330
60
100
AcDbEntity
  8
LAYER_1
 62
   250
100
AcDbVertex
100
AcDb2dVertex
 10
40.34155136795281
 20
35.0001030728472
 30
0.0
  0
VERTEX
  5
66
330
60
100
AcDbEntity
  8
LAYER_1
 62
   250
100
AcDbVertex
100
AcDb2dVertex
 10
38.32065835630525
 20
31.50005831460762
 30
0.0
  0
VERTEX
  5
67
330
60
100
AcDbEntity
  8
LAYER_1
 62
   250
100
AcDbVertex
100
AcDb2dVertex
 10
34.27921684255867
 20
31.50005831460762
 30
0.0
  0
SEQEND
  5
68
330
60
100
AcDbEntity
  8
LAYER_1
  0
POLYLINE
  5
69
330
3C
100
AcDbEntity
  8
LAYER_1
 62
   250
100
AcDb2dPolyline
 66
     1
 10
0.0
 20
0.0
 30
0.0
  0
VERTEX
  5
6A
330
69
100
AcDbEntity
  8
LAYER_1
 62
   250
100
AcDbVertex
100
AcDb2dVertex
 10
49.17959932581274
 20
31.50005831460762
 30
0.0
  0
VERTEX
  5
6B
330
69
100
AcDbEntity
  8
LAYER_1
 62
   250
100
AcDbVertex
100
AcDb2dVertex
 10
47.15870631416519
 20
35.0001030728472
 30
0.0
  0
VERTEX
  5
6C
330
69
100
AcDbEntity
  8
LAYER_1
 62
   250
100
AcDbVertex
100
AcDb2dVertex
 10
49.17959932581274
 20
38.50014783108677
 30
0.0
  0
VERTEX
  5
6D
330
69
100
AcDbEntity
  8
LAYER_1
 62
   250
100
AcDbVertex
100
AcDb2dVertex
 10
53.22104083955933
 20
38.50014783108677
 30
0.0
  0
VERTEX
  5
6E
330
69
100
AcDbEntity
  8
LAYER_1
 62
   250
100
AcDbVertex
100
AcDb2dVertex
 10
55.24193385120688
 20
35.0001030728472
 30
0.0
  0
VERTEX
  5
6F
330
69
100
AcDbEntity
  8
LAYER_1
 62
   250
100
AcDbVertex
100
AcDb2dVertex
 10
53.22104083955933
 20
31.50005831460762
 30
0.0
  0
VERTEX
  5
70
330
69
100
AcDbEntity
  8
LAYER_1
 62
   250
100
AcDbVertex
100
AcDb2dVertex
 10
49.17959932581274
 20
31.50005831460762
 30
0.0
  0
SEQEND
  5
71
330
69
100
AcDbEntity
  8
LAYER_1
  0
POLYLINE
  5
72
330
3C
100
AcDbEntity
  8
LAYER_1
 62
   250
100
AcDb2dPolyline
 66
     1
 10
0.0
 20
0.0
 30
0.0
  0
VERTEX
  5
73
330
72
100
AcDbEntity
  8
LAYER_1
 62
   250
100
AcDbVertex
100
AcDb2dVertex
 10
79.17949081136832
 20
31.50005831460762
 30
0.0
  0
VERTEX
  5
74
330
72
100
AcDbEntity
  8
LAYER_1
 62
   250
100
AcDbVertex
100
AcDb2dVertex
 10
77.15859779972077
 20
35.0001030728472
 30
0.0
  0
VERTEX
  5
75
330
72
100
AcDbEntity
  8
LAYER_1
 62
   250
100
AcDbVertex
100
AcDb2dVertex
 10
79.17949081136832
 20
38.50014783108677
 30
0.0
  0
VERTEX
  5
76
330
72
100
AcDbEntity
  8
LAYER_1
 62
   250
100
AcDbVertex
100
AcDb2dVertex
 10
83.22093232511492
 20
38.50014783108677
 30
0.0
  0
VERTEX
  5
77
330
72
100
AcDbEntity
  8
LAYER_1
 62
   250
100
AcDbVertex
100
AcDb2dVertex
 10
85.24182533676246
 20
35.0001030728472
 30
0.0
  0
VERTEX
  5
78
330
72
100
AcDbEntity
  8
LAYER_1
 62
   250
100
AcDbVertex
100
AcDb2dVertex
 10
83.22093232511492
 20
31.50005831460762
 30
0.0
  0
VERTEX
  5
79
330
72
100
AcDbEntity
  8
LAYER_1
 62
   250
100
AcDbVertex
100
AcDb2dVertex
 10
79.17949081136832
 20
31.50005831460762
 30
0.0
  0
SEQEND
  5
7A
330
72
100
AcDbEntity
  8
LAYER_1
  0
POLYLINE
  5
7B
330
3C
100
AcDbEntity
  8
LAYER_1
 62
   250
100
AcDb2dPolyline
 66
     1
 10
0.0
 20
0.0
 30
0.0
  0
VERTEX
  5
7C
330
7B
100
AcDbEntity
  8
LAYER_1
 62
   250
100
AcDbVertex
100
AcDb2dVertex
 10
79.17949081136832
 20
5.499922687427103
 30
0.0
  0
VERTEX
  5
7D
330
7B
100
AcDbEntity
  8
LAYER_1
 62
   250
100
AcDbVertex
100
AcDb2dVertex
 10
77.15859779972077
 20
8.999967445666675
 30
0.0
  0
VERTEX
  5
7E
330
7B
100
AcDbEntity
  8
LAYER_1
 62
   250
100
AcDbVertex
100
AcDb2dVertex
 10
79.17949081136832
 20
12.50001220390625
 30
0.0
  0
VERTEX
  5
7F
330
7B
100
AcDbEntity
  8
LAYER_1
 62
   250
100
AcDbVertex
100
AcDb2dVertex
 10
83.22093232511492
 20
12.50001220390625
 30
0.0
  0
VERTEX
  5
80
330
7B
100
AcDbEntity
  8
LAYER_1
 62
   250
100
AcDbVertex
100
AcDb2dVertex
 10
85.24182533676246
 20
8.999967445666675
 30
0.0
  0
VERTEX
  5
81
330
7B
100
AcDbEntity
  8
LAYER_1
 62
   250
100
AcDbVertex
100
AcDb2dVertex
 10
83.22093232511492
 20
5.499922687427103
 30
0.0
  0
VERTEX
  5
82
330
7B
100
AcDbEntity
  8
LAYER_1
 62
   250
100
AcDbVertex
100
AcDb2dVertex
 10
79.17949081136832
 20
5.499922687427103
 30
0.0
  0
SEQEND
  5
83
330
7B
100
AcDbEntity
  8
LAYER_1
  0
POLYLINE
  5
84
330
3C
100
AcDbEntity
  8
LAYER_1
 62
   250
100
AcDb2dPolyline
 66
     1
 10
0.0
 20
0.0
 30
0.0
  0
VERTEX
  5
85
330
84
100
AcDbEntity
  8
LAYER_1
 62
   250
100
AcDbVertex
100
AcDb2dVertex
 10
49.17959932581274
 20
5.499578177878578
 30
0.0
  0
VERTEX
  5
86
330
84
100
AcDbEntity
  8
LAYER_1
 62
   250
100
AcDbVertex
100
AcDb2dVertex
 10
47.15870631416519
 20
8.99962293611815
 30
0.0
  0
VERTEX
  5
87
330
84
100
AcDbEntity
  8
LAYER_1
 62
   250
100
AcDbVertex
100
AcDb2dVertex
 10
49.17959932581274
 20
12.49966769435772
 30
0.0
  0
VERTEX
  5
88
330
84
100
AcDbEntity
  8
LAYER_1
 62
   250
100
AcDbVertex
100
AcDb2dVertex
 10
53.22104083955933
 20
12.49966769435772
 30
0.0
  0
VERTEX
  5
89
330
84
100
AcDbEntity
  8
LAYER_1
 62
   250
100
AcDbVertex
100
AcDb2dVertex
 10
55.24193385120688
 20
8.99962293611815
 30
0.0
  0
VERTEX
  5
8A
330
84
100
AcDbEntity
  8
LAYER_1
 62
   250
100
AcDbVertex
100
AcDb2dVertex
 10
53.22104083955933
 20
5.499578177878578
 30
0.0
  0
VERTEX
  5
8B
330
84
100
AcDbEntity
  8
LAYER_1
 62
   250
100
AcDbVertex
100
AcDb2dVertex
 10
49.17959932581274
 20
5.499578177878578
 30
0.0
  0
SEQEND
  5
8C
330
84
100
AcDbEntity
  8
LAYER_1
  0
POLYLINE
  5
8D
330
3C
100
AcDbEntity
  8
LAYER_1
 62
   250
100
AcDb2dPolyline
 66
     1
 10
0.0
 20
0.0
 30
0.0
  0
VERTEX
  5
8E
330
8D
100
AcDbEntity
  8
LAYER_1
 62
   250
100
AcDbVertex
100
AcDb2dVertex
 10
34.27921684255867
 20
5.499922687427103
 30
0.0
  0
VERTEX
  5
8F
330
8D
100
AcDbEntity
  8
LAYER_1
 62
   250
100
AcDbVertex
100
AcDb2dVertex
 10
32.25832383091112
 20
8.999967445666675
 30
0.0
  0
VERTEX
  5
90
330
8D
100
AcDbEntity
  8
LAYER_1
 62
   250
100
AcDbVertex
100
AcDb2dVertex
 10
34.27921684255867
 20
12.50001220390625
 30
0.0
  0
VERTEX
  5
91
330
8D
100
AcDbEntity
  8
LAYER_1
 62
   250
100
AcDbVertex
100
AcDb2dVertex
 10
38.32065835630525
 20
12.50001220390625
 30
0.0
  0
VERTEX
  5
92
330
8D
100
AcDbEntity
  8
LAYER_1
 62
   250
100
AcDbVertex
100
AcDb2dVertex
 10
40.34155136795281
 20
8.999967445666675
 30
0.0
  0
VERTEX
  5
93
330
8D
100
AcDbEntity
  8
LAYER_1
 62
   250
100
AcDbVertex
100
AcDb2dVertex
 10
38.32065835630525
 20
5.499922687427103
 30
0.0
  0
VERTEX
  5
94
330
8D
100
AcDbEntity
  8
LAYER_1
 62
   250
100
AcDbVertex
100
AcDb2dVertex
 10
34.27921684255867
 20
5.499922687427103
 30
0.0
  0
SEQEND
  5
95
330
8D
100
AcDbEntity
  8
LAYER_1
  0
POLYLINE
  5
96
330
3C
100
AcDbEntity
  8
LAYER_1
 62
   250
100
AcDb2dPolyline
 66
     1
 10
0.0
 20
0.0
 30
0.0
  0
VERTEX
  5
97
330
96
100
AcDbEntity
  8
LAYER_1
 62
   250
100
AcDbVertex
100
AcDb2dVertex
 10
4.279325357003086
 20
5.499578177878578
 30
0.0
  0
VERTEX
  5
98
330
96
100
AcDbEntity
  8
LAYER_1
 62
   250
100
AcDbVertex
100
AcDb2dVertex
 10
2.258432345355531
 20
8.99962293611815
 30
0.0
  0
VERTEX
  5
99
330
96
100
AcDbEntity
  8
LAYER_1
 62
   250
100
AcDbVertex
100
AcDb2dVertex
 10
4.279325357003086
 20
12.49966769435772
 30
0.0
  0
VERTEX
  5
9A
330
96
100
AcDbEntity
  8
LAYER_1
 62
   250
100
AcDbVertex
100
AcDb2dVertex
 10
8.32076687074967
 20
12.49966769435772
 30
0.0
  0
VERTEX
  5
9B
330
96
100
AcDbEntity
  8
LAYER_1
 62
   250
100
AcDbVertex
100
AcDb2dVertex
 10
10.34165988239722
 20
8.99962293611815
 30
0.0
  0
VERTEX
  5
9C
330
96
100
AcDbEntity
  8
LAYER_1
 62
   250
100
AcDbVertex
100
AcDb2dVertex
 10
8.32076687074967
 20
5.499578177878578
 30
0.0
  0
VERTEX
  5
9D
330
96
100
AcDbEntity
  8
LAYER_1
 62
   250
100
AcDbVertex
100
AcDb2dVertex
 10
4.279325357003086
 20
5.499578177878578
 30
0.0
  0
SEQEND
  5
9E
330
96
100
AcDbEntity
  8
LAYER_1
  0
SPLINE
  5
9F
330
3C
100
AcDbEntity
  8
LAYER_1
 62
     7
100
AcDbSpline
210
0.0
220
0.0
230
1.0
 70
    11
 71
     3
 72
   119
 73
   115
 74
     0
 42
0.0000000001
 43
0.0000000001
 40
0.0
 40
0.0
 40
0.0
 40
0.0
 40
1.0
 40
1.0
 40
1.0
 40
2.0
 40
2.0
 40
2.0
 40
3.0
 40
3.0
 40
3.0
 40
4.0
 40
4.0
 40
4.0
 40
5.0
 40
5.0
 40
5.0
 40
6.0
 40
6.0
 40
6.0
 40
7.0
 40
7.0
 40
7.0
 40
8.0
 40
8.0
 40
8.0
 40
9.0
 40
9.0
 40
9.0
 40
10.0
 40
10.0
 40
10.0
 40
11.0
 40
11.0
 40
11.0
 40
12.0
 40
12.0
 40
12.0
 40
13.0
 40
13.0
 40
13.0
 40
14.0
 40
14.0
 40
14.0
 40
15.0
 40
15.0
 40
15.0
 40
16.0
 40
16.0
 40
16.0
 40
17.0
 40
17.0
 40
17.0
 40
18.0
 40
18.0
 40
18.0
 40
19.0
 40
19.0
 40
19.0
 40
20.0
 40
20.0
 40
20.0
 40
21.0
 40
21.0
 40
21.0
 40
22.0
 40
22.0
 40
22.0
 40
23.0
 40
23.0
 40
23.0
 40
24.0
 40
24.0
 40
24.0
 40
25.0
 40
25.0
 40
25.0
 40
26.0
 40
26.0
 40
26.0
 40
27.0
 40
27.0
 40
27.0
 40
28.0
 40
28.0
 40
28.0
 40
29.0
 40
29.0
 40
29.0
 40
30.0
 40
30.0
 40
30.0
 40
31.0
 40
31.0
 40
31.0
 40
32.0
 40
32.0
 40
32.0
 40
33.0
 40
33.0
 40
33.0
 40
34.0
 40
34.0
 40
34.0
 40
35.0
 40
35.0
 40
35.0
 40
36.0
 40
36.0
 40
36.0
 40
37.0
 40
37.0
 40
37.0
 40
38.0
 40
38.0
 40
38.0
 40
38.0
 10
73.76207816081296
 20
16.90060492199013
 30
0.0
 10
73.76207816081296
 20
16.90060492199013
 30
0.0
 10
75.20109454500181
 20
19.39278699601986
 30
0.0
 10
75.20109454500181
 20
19.39278699601986
 30
0.0
 10
75.20109454500181
 20
19.39278699601986
 30
0.0
 10
75.20109454500181
 20
24.71425373731102
 30
0.0
 10
75.20109454500181
 20
24.71425373731102
 30
0.0
 10
75.20109454500181
 20
24.71425373731102
 30
0.0
 10
73.84751652884715
 20
27.05829670547501
 30
0.0
 10
73.84751652884715
 20
27.05829670547501
 30
0.0
 10
72.01575925933982
 20
27.95109320047751
 30
0.0
 10
70.75020343283329
 20
29.82556965400194
 30
0.0
 10
70.75020343283329
 20
32.0002861790659
 30
0.0
 10
70.75020343283329
 20
32.13137206227966
 30
0.0
 10
70.76088322883756
 20
32.25970186910521
 30
0.0
 10
70.76984047709921
 20
32.38854844025356
 30
0.0
 10
70.76984047709921
 20
32.38854844025356
 30
0.0
 10
69.20025497401939
 20
35.10672877811568
 30
0.0
 10
69.20025497401939
 20
35.10672877811568
 30
0.0
 10
69.20025497401939
 20
35.10672877811568
 30
0.0
 10
58.70029295407493
 20
35.10638426856715
 30
0.0
 10
58.70029295407493
 20
35.10638426856715
 30
0.0
 10
58.70029295407493
 20
35.10638426856715
 30
0.0
 10
54.95013426360622
 20
28.61100124067711
 30
0.0
 10
54.95013426360622
 20
28.61100124067711
 30
0.0
 10
54.95013426360622
 20
28.61100124067711
 30
0.0
 10
47.7276638335542
 20
28.61100124067711
 30
0.0
 10
47.7276638335542
 20
28.61100124067711
 30
0.0
 10
47.7276638335542
 20
28.61100124067711
 30
0.0
 10
45.77084959793229
 20
31.99994166951738
 30
0.0
 10
45.77084959793229
 20
31.99994166951738
 30
0.0
 10
45.77084959793229
 20
31.99994166951738
 30
0.0
 10
41.72940808418571
 20
31.99994166951738
 30
0.0
 10
41.72940808418571
 20
31.99994166951738
 30
0.0
 10
41.72940808418571
 20
31.99994166951738
 30
0.0
 10
39.7725938485638
 20
28.61100124067711
 30
0.0
 10
39.7725938485638
 20
28.61100124067711
 30
0.0
 10
39.7725938485638
 20
28.61100124067711
 30
0.0
 10
32.55908066677343
 20
28.61100124067711
 30
0.0
 10
32.55908066677343
 20
28.61100124067711
 30
0.0
 10
32.55908066677343
 20
28.61100124067711
 30
0.0
 10
28.80892197630472
 20
35.10638426856715
 30
0.0
 10
28.80892197630472
 20
35.10638426856715
 30
0.0
 10
28.80892197630472
 20
35.10638426856715
 30
0.0
 10
18.30895995636026
 20
35.10672877811568
 30
0.0
 10
18.30895995636026
 20
35.10672877811568
 30
0.0
 10
18.30895995636026
 20
35.10672877811568
 30
0.0
 10
16.73007269547026
 20
32.39061549754471
 30
0.0
 10
16.73007269547026
 20
32.39061549754471
 30
0.0
 10
16.73902994373191
 20
32.26107990729931
 30
0.0
 10
16.74970973973618
 20
32.13188882660245
 30
0.0
 10
16.74970973973618
 20
32.00011392429164
 30
0.0
 10
16.74970973973618
 20
29.81265054593225
 30
0.0
 10
15.46985676696587
 20
27.92870007982338
 30
0.0
 10
13.62087402003228
 20
27.0422770114686
 30
0.0
 10
13.62087402003228
 20
27.0422770114686
 30
0.0
 10
12.26781276820041
 20
24.71477050163381
 30
0.0
 10
12.26781276820041
 20
24.71477050163381
 30
0.0
 10
12.26781276820041
 20
24.71477050163381
 30
0.0
 10
12.30812038537783
 20
19.39278699601986
 30
0.0
 10
12.30812038537783
 20
19.39278699601986
 30
0.0
 10
12.30812038537783
 20
19.39278699601986
 30
0.0
 10
13.75092637460046
 20
16.89405924056815
 30
0.0
 10
13.75092637460046
 20
16.89405924056815
 30
0.0
 10
15.52980142840922
 20
15.98283148471957
 30
0.0
 10
16.74988199451045
 20
14.13574354030287
 30
0.0
 10
16.74988199451045
 20
12.0001288489965
 30
0.0
 10
16.74988199451045
 20
11.90693901612049
 30
0.0
 10
16.74058023670027
 20
11.81633300485842
 30
0.0
 10
16.73592935779519
 20
11.72434895540225
 30
0.0
 10
16.73592935779519
 20
11.72434895540225
 30
0.0
 10
18.30895995636026
 20
8.999967445666675
 30
0.0
 10
18.30895995636026
 20
8.999967445666675
 30
0.0
 10
18.30895995636026
 20
8.999967445666675
 30
0.0
 10
28.80892197630472
 20
8.99962293611815
 30
0.0
 10
28.80892197630472
 20
8.99962293611815
 30
0.0
 10
28.80892197630472
 20
8.99962293611815
 30
0.0
 10
32.55908066677343
 20
15.49500596400819
 30
0.0
 10
32.55908066677343
 20
15.49500596400819
 30
0.0
 10
32.55908066677343
 20
15.49500596400819
 30
0.0
 10
39.73607583642015
 20
15.49500596400819
 30
0.0
 10
39.73607583642015
 20
15.49500596400819
 30
0.0
 10
39.73607583642015
 20
15.49500596400819
 30
0.0
 10
39.70851507253815
 20
15.44711913676322
 30
0.0
 10
39.70851507253815
 20
15.44711913676322
 30
0.0
 10
39.70851507253815
 20
15.44711913676322
 30
0.0
 10
41.72940808418571
 20
11.94707437852365
 30
0.0
 10
41.72940808418571
 20
11.94707437852365
 30
0.0
 10
41.72940808418571
 20
11.94707437852365
 30
0.0
 10
45.77084959793229
 20
11.94707437852365
 30
0.0
 10
45.77084959793229
 20
11.94707437852365
 30
0.0
 10
45.77084959793229
 20
11.94707437852365
 30
0.0
 10
47.79174260957984
 20
15.44711913676322
 30
0.0
 10
47.79174260957984
 20
15.44711913676322
 30
0.0
 10
47.79174260957984
 20
15.44711913676322
 30
0.0
 10
47.76418184569785
 20
15.49500596400819
 30
0.0
 10
47.76418184569785
 20
15.49500596400819
 30
0.0
 10
47.76418184569785
 20
15.49500596400819
 30
0.0
 10
54.95013426360622
 20
15.49500596400819
 30
0.0
 10
54.95013426360622
 20
15.49500596400819
 30
0.0
 10
54.95013426360622
 20
15.49500596400819
 30
0.0
 10
58.70029295407493
 20
8.99962293611815
 30
0.0
 10
58.70029295407493
 20
8.99962293611815
 30
0.0
 10
58.70029295407493
 20
8.99962293611815
 30
0.0
 10
69.20025497401939
 20
8.999967445666675
 30
0.0
 10
69.20025497401939
 20
8.999967445666675
 30
0.0
 10
69.20025497401939
 20
8.999967445666675
 30
0.0
 10
70.7648450886456
 20
11.70970729958993
 30
0.0
 10
70.7648450886456
 20
11.70970729958993
 30
0.0
 10
70.75984970019198
 20
11.80651448272546
 30
0.0
 10
70.75020343283329
 20
11.90211588244114
 30
0.0
 10
70.75020343283329
 20
12.0001288489965
 30
0.0
 10
70.75020343283329
 20
14.14108343830501
 30
0.0
 10
71.97614066125944
 20
15.99196098775548
 30
0.0
 10
73.76207816081296
 20
16.90060492199013
 30
0.0
  0
ENDBLK
  5
3F
330
3C
100
AcDbEntity
  8
0
100
AcDbBlockEnd
  0
ENDSEC
  0
SECTION
  2
ENTITIES
  0
INSERT
  5
3D
330
1F
100
AcDbEntity
  8
LAYER_1
100
AcDbBlockReference
  2
BLOCK_2
 10
0.0
 20
0.0
 30
0.0
  0
ENDSEC
  0
SECTION
  2
OBJECTS
  0
DICTIONARY
  5
C
330
0
100
AcDbDictionary
  3
ACAD_GROUP
350
D
  3
ACAD_LAYOUT
350
1A
  3
ACAD_MLINESTYLE
350
17
  3
ACAD_PLOTSETTINGS
350
19
  3
ACAD_TABLESTYLE
350
A0
  3
ACAD_VISUALSTYLE
350
2A
1001
ACAD
1000
TREAT_AS_HARD
1070
     0
  0
DICTIONARY
  5
D
102
{ACAD_REACTORS
330
C
102
}
330
C
100
AcDbDictionary
1001
ACAD
1000
TREAT_AS_HARD
1070
     0
  0
DICTIONARY
  5
1A
102
{ACAD_REACTORS
330
C
102
}
330
C
100
AcDbDictionary
1001
ACAD
1000
TREAT_AS_HARD
1070
     0
  0
DICTIONARY
  5
17
102
{ACAD_REACTORS
330
C
102
}
330
C
100
AcDbDictionary
  3
STANDARD
350
18
1001
ACAD
1000
TREAT_AS_HARD
1070
     0
  0
DICTIONARY
  5
19
102
{ACAD_REACTORS
330
C
102
}
330
C
100
AcDbDictionary
1001
ACAD
1000
TREAT_AS_HARD
1070
     0
  0
DICTIONARY
  5
A0
102
{ACAD_REACTORS
330
C
102
}
330
C
100
AcDbDictionary
1001
ACAD
1000
TREAT_AS_HARD
1070
     0
  0
DICTIONARY
  5
2A
102
{ACAD_REACTORS
330
C
102
}
330
C
100
AcDbDictionary
  3
2DWIREFRAME
350
2F
  3
3D_HIDDEN
350
31
  3
3DWIREFRAME
350
30
  3
BASIC
350
32
  3
BRIGHTEN
350
36
  3
COLORCHANGE
350
3A
  3
CONCEPTUAL
350
34
  3
DIM
350
35
  3
FACEPATTERN
350
39
  3
FLAT
350
2B
  3
FLATWITHEDGES
350
2C
  3
GOURAUD
350
2D
  3
GOURAUDWITHEDGES
350
2E
  3
LINEPATTERN
350
38
  3
REALISTIC
350
33
  3
THICKEN
350
37
1001
ACAD
1000
TREAT_AS_HARD
1070
     0
  0
MLINESTYLE
  5
18
102
{ACAD_REACTORS
330
17
102
}
330
17
100
AcDbMlineStyle
  2
Standard
 70
     0
  3

 62
   256
 51
90.0
 52
90.0
 71
     2
 49
0.5
 62
   256
  6
BYLAYER
 49
-0.5
 62
   256
  6
BYLAYER
  0
VISUALSTYLE
  5
2F
102
{ACAD_REACTORS
330
2A
102
}
330
2A
100
AcDbVisualStyle
  2
2dWireframe
 70
     4
 71
     0
 72
     2
 73
     0
 90
        0
 40
-0.6
 41
-30.0
 62
     5
 63
     7
 74
     1
 91
        4
 64
     7
 65
   257
 75
     1
175
     1
 42
1.0
 92
        0
 66
   257
 43
1.0
 76
     1
 77
     6
 78
     2
 67
     7
 79
     5
170
     0
171
     0
290
     0
174
     0
 93
        1
 44
0.0
173
     0
291
     0
 45
0.0
1001
ACAD
1000
AcDbSavedByObjectVersion
1070
     0
  0
VISUALSTYLE
  5
31
102
{ACAD_REACTORS
330
2A
102
}
330
2A
100
AcDbVisualStyle
  2
3D Hidden
 70
     6
 71
     1
 72
     2
 73
     2
 90
        0
 40
-0.6
 41
-30.0
 62
     5
 63
     7
 74
     2
 91
        2
 64
     7
 65
   257
 75
     2
175
     1
 42
40.0
 92
        0
 66
   257
 43
1.0
 76
     1
 77
     6
 78
     2
 67
     7
 79
     3
170
     0
171
     0
290
     0
174
     0
 93
        1
 44
0.0
173
     0
291
     0
 45
0.0
1001
ACAD
1000
AcDbSavedByObjectVersion
1070
     0
  0
VISUALSTYLE
  5
30
102
{ACAD_REACTORS
330
2A
102
}
330
2A
100
AcDbVisualStyle
  2
3dWireframe
 70
     5
 71
     0
 72
     2
 73
     0
 90
        0
 40
-0.6
 41
-30.0
 62
     5
 63
     7
 74
     1
 91
        4
 64
     7
 65
   257
 75
     1
175
     1
 42
1.0
 92
        0
 66
   257
 43
1.0
 76
     1
 77
     6
 78
     2
 67
     7
 79
     5
170
     0
171
     0
290
     0
174
     0
 93
        1
 44
0.0
173
     0
291
     0
 45
0.0
1001
ACAD
1000
AcDbSavedByObjectVersion
1070
     0
  0
VISUALSTYLE
  5
32
102
{ACAD_REACTORS
330
2A
102
}
330
2A
100
AcDbVisualStyle
  2
Basic
 70
     7
 71
     1
 72
     0
 73
     1
 90
        0
 40
-0.6
 41
-30.0
 62
     5
 63
     7
 74
     0
 91
        4
 64
     7
 65
   257
 75
     1
175
     1
 42
1.0
 92
        8
 66
     7
 43
1.0
 76
     1
 77
     6
 78
     2
 67
     7
 79
     5
170
     0
171
     0
290
     0
174
     0
 93
        1
 44
0.0
173
     0
291
     1
 45
0.0
1001
ACAD
1000
AcDbSavedByObjectVersion
1070
     0
  0
VISUALSTYLE
  5
36
102
{ACAD_REACTORS
330
2A
102
}
330
2A
100
AcDbVisualStyle
  2
Brighten
 70
    12
 71
     2
 72
     2
 73
     0
 90
        0
 40
-0.6
 41
-30.0
 62
     5
 63
     7
 74
     1
 91
        4
 64
     7
 65
   257
 75
     1
175
     1
 42
1.0
 92
        8
 66
     7
 43
1.0
 76
     1
 77
     6
 78
     2
 67
     7
 79
     5
170
     0
171
     0
290
     0
174
     0
 93
        1
 44
50.0
173
     0
291
     1
 45
0.0
1001
ACAD
1000
AcDbSavedByObjectVersion
1070
     0
  0
VISUALSTYLE
  5
3A
102
{ACAD_REACTORS
330
2A
102
}
330
2A
100
AcDbVisualStyle
  2
ColorChange
 70
    16
 71
     2
 72
     2
 73
     3
 90
        0
 40
-0.6
 41
-30.0
 62
     5
 63
     8
 74
     1
 91
        4
 64
     7
 65
   257
 75
     1
175
     1
 42
1.0
 92
        8
 66
     8
 43
1.0
 76
     1
 77
     6
 78
     2
 67
     7
 79
     5
170
     0
171
     0
290
     0
174
     0
 93
        1
 44
0.0
173
     0
291
     1
 45
0.0
1001
ACAD
1000
AcDbSavedByObjectVersion
1070
     0
  0
VISUALSTYLE
  5
34
102
{ACAD_REACTORS
330
2A
102
}
330
2A
100
AcDbVisualStyle
  2
Conceptual
 70
     9
 71
     3
 72
     2
 73
     0
 90
        0
 40
-0.6
 41
-30.0
 62
     5
 63
     7
 74
     2
 91
        2
 64
     7
 65
   257
 75
     1
175
     1
 42
40.0
 92
        8
 66
     7
 43
1.0
 76
     1
 77
     6
 78
     2
 67
     7
 79
     3
170
     0
171
     0
290
     0
174
     0
 93
        1
 44
0.0
173
     0
291
     0
 45
0.0
1001
ACAD
1000
AcDbSavedByObjectVersion
1070
     0
  0
VISUALSTYLE
  5
35
102
{ACAD_REACTORS
330
2A
102
}
330
2A
100
AcDbVisualStyle
  2
Dim
 70
    11
 71
     2
 72
     2
 73
     0
 90
        0
 40
-0.6
 41
-30.0
 62
     5
 63
     7
 74
     1
 91
        4
 64
     7
 65
   257
 75
     1
175
     1
 42
1.0
 92
        8
 66
     7
 43
1.0
 76
     1
 77
     6
 78
     2
 67
     7
 79
     5
170
     0
171
     0
290
     0
174
     0
 93
        1
 44
-50.0
173
     0
291
     1
 45
0.0
1001
ACAD
1000
AcDbSavedByObjectVersion
1070
     0
  0
VISUALSTYLE
  5
39
102
{ACAD_REACTORS
330
2A
102
}
330
2A
100
AcDbVisualStyle
  2
Facepattern
 70
    15
 71
     2
 72
     2
 73
     0
 90
        0
 40
-0.6
 41
-30.0
 62
     5
 63
     7
 74
     1
 91
        4
 64
     7
 65
   257
 75
     1
175
     1
 42
1.0
 92
        8
 66
     7
 43
1.0
 76
     1
 77
     6
 78
     2
 67
     7
 79
     5
170
     0
171
     0
290
     0
174
     0
 93
        1
 44
0.0
173
     0
291
     1
 45
0.0
1001
ACAD
1000
AcDbSavedByObjectVersion
1070
     0
  0
VISUALSTYLE
  5
2B
102
{ACAD_REACTORS
330
2A
102
}
330
2A
100
AcDbVisualStyle
  2
Flat
 70
     0
 71
     2
 72
     1
 73
     1
 90
        2
 40
-0.6
 41
30.0
 62
     5
 63
     7
 74
     0
 91
        4
 64
     7
 65
   257
 75
     1
175
     1
 42
1.0
 92
        8
 66
     7
 43
1.0
 76
     1
 77
     6
 78
     2
 67
     7
 79
     5
170
     0
171
     0
290
     0
174
     0
 93
       13
 44
0.0
173
     0
291
     1
 45
0.0
1001
ACAD
1000
AcDbSavedByObjectVersion
1070
     0
  0
VISUALSTYLE
  5
2C
102
{ACAD_REACTORS
330
2A
102
}
330
2A
100
AcDbVisualStyle
  2
FlatWithEdges
 70
     1
 71
     2
 72
     1
 73
     1
 90
        2
 40
-0.6
 41
30.0
 62
     5
 63
     7
 74
     1
 91
        4
 64
     7
 65
   257
 75
     1
175
     1
 42
1.0
 92
        0
 66
   257
 43
1.0
 76
     1
 77
     6
 78
     2
 67
     7
 79
     5
170
     0
171
     0
290
     0
174
     0
 93
       13
 44
0.0
173
     0
291
     1
 45
0.0
1001
ACAD
1000
AcDbSavedByObjectVersion
1070
     0
  0
VISUALSTYLE
  5
2D
102
{ACAD_REACTORS
330
2A
102
}
330
2A
100
AcDbVisualStyle
  2
Gouraud
 70
     2
 71
     2
 72
     2
 73
     1
 90
        2
 40
-0.6
 41
30.0
 62
     5
 63
     7
 74
     0
 91
        4
 64
     7
 65
   257
 75
     1
175
     1
 42
1.0
 92
        0
 66
     7
 43
1.0
 76
     1
 77
     6
 78
     2
 67
     7
 79
     5
170
     0
171
     0
290
     0
174
     0
 93
       13
 44
0.0
173
     0
291
     1
 45
0.0
1001
ACAD
1000
AcDbSavedByObjectVersion
1070
     0
  0
VISUALSTYLE
  5
2E
102
{ACAD_REACTORS
330
2A
102
}
330
2A
100
AcDbVisualStyle
  2
GouraudWithEdges
 70
     3
 71
     2
 72
     2
 73
     1
 90
        2
 40
-0.6
 41
30.0
 62
     5
 63
     7
 74
     1
 91
        4
 64
     7
 65
   257
 75
     1
175
     1
 42
1.0
 92
        0
 66
   257
 43
1.0
 76
     1
 77
     6
 78
     2
 67
     7
 79
     5
170
     0
171
     0
290
     0
174
     0
 93
       13
 44
0.0
173
     0
291
     1
 45
0.0
1001
ACAD
1000
AcDbSavedByObjectVersion
1070
     0
  0
VISUALSTYLE
  5
38
102
{ACAD_REACTORS
330
2A
102
}
330
2A
100
AcDbVisualStyle
  2
Linepattern
 70
    14
 71
     2
 72
     2
 73
     0
 90
        0
 40
-0.6
 41
-30.0
 62
     5
 63
     7
 74
     1
 91
        4
 64
     7
 65
   257
 75
     7
175
     7
 42
1.0
 92
        8
 66
     7
 43
1.0
 76
     1
 77
     6
 78
     2
 67
     7
 79
     5
170
     0
171
     0
290
     0
174
     0
 93
        1
 44
0.0
173
     0
291
     1
 45
0.0
1001
ACAD
1000
AcDbSavedByObjectVersion
1070
     0
  0
VISUALSTYLE
  5
33
102
{ACAD_REACTORS
330
2A
102
}
330
2A
100
AcDbVisualStyle
  2
Realistic
 70
     8
 71
     2
 72
     2
 73
     0
 90
        0
 40
-0.6
 41
-30.0
 62
     5
 63
     7
 74
     1
 91
        0
 64
     7
 65
   257
 75
     1
175
     1
 42
1.0
 92
        8
 66
     8
 43
1.0
 76
     1
 77
     6
 78
     2
 67
     7
 79
     5
170
     0
171
     0
290
     0
174
     0
 93
       13
 44
0.0
173
     0
291
     0
 45
0.0
1001
ACAD
1000
AcDbSavedByObjectVersion
1070
     0
  0
VISUALSTYLE
  5
37
102
{ACAD_REACTORS
330
2A
102
}
330
2A
100
AcDbVisualStyle
  2
Thicken
 70
    13
 71
     2
 72
     2
 73
     0
 90
        0
 40
-0.6
 41
-30.0
 62
     5
 63
     7
 74
     1
 91
        4
 64
     7
 65
   257
 75
     1
175
     1
 42
1.0
 92
       12
 66
     7
 43
1.0
 76
     1
 77
     6
 78
     2
 67
     7
 79
     5
170
     0
171
     0
290
     0
174
     0
 93
        1
 44
0.0
173
     0
291
     1
 45
0.0
1001
ACAD
1000
AcDbSavedByObjectVersion
1070
     0
  0
ENDSEC
  0
EOF
