  0
SECTION
  2
HEADER
  9
$ACADVER
  1
AC1012
  9
$DWGCODEPAGE
  3
ansi_1252
  9
$INSBASE
 10
0.0
 20
0.0
 30
0.0
  9
$EXTMIN
 10
1.000000000000000E+20
 20
1.000000000000000E+20
 30
1.000000000000000E+20
  9
$EXTMAX
 10
-1.000000000000000E+20
 20
-1.000000000000000E+20
 30
-1.000000000000000E+20
  9
$LIMMIN
 10
0.0
 20
0.0
  9
$LIMMAX
 10
12.0
 20
9.0
  9
$ORTHOMODE
 70
     0
  9
$REGENMODE
 70
     1
  9
$FILLMODE
 70
     1
  9
$QTEXTMODE
 70
     0
  9
$MIRRTEXT
 70
     1
  9
$DRAGMODE
 70
     2
  9
$LTSCALE
 40
1.0
  9
$OSMODE
 70
    37
  9
$ATTMODE
 70
     1
  9
$TEXTSIZE
 40
0.2
  9
$TRACEWID
 40
0.05
  9
$TEXTSTYLE
  7
STANDARD
  9
$CLAYER
  8
0
  9
$CELTYPE
  6
BYLAYER
  9
$CECOLOR
 62
   256
  9
$CELTSCALE
 40
1.0
  9
$DELOBJ
 70
     1
  9
$DISPSILH
 70
     0
  9
$DIMSCALE
 40
1.0
  9
$DIMASZ
 40
0.18
  9
$DIMEXO
 40
0.0625
  9
$DIMDLI
 40
0.38
  9
$DIMRND
 40
0.0
  9
$DIMDLE
 40
0.0
  9
$DIMEXE
 40
0.18
  9
$DIMTP
 40
0.0
  9
$DIMTM
 40
0.0
  9
$DIMTXT
 40
0.18
  9
$DIMCEN
 40
0.09
  9
$DIMTSZ
 40
0.0
  9
$DIMTOL
 70
     0
  9
$DIMLIM
 70
     0
  9
$DIMTIH
 70
     1
  9
$DIMTOH
 70
     1
  9
$DIMSE1
 70
     0
  9
$DIMSE2
 70
     0
  9
$DIMTAD
 70
     0
  9
$DIMZIN
 70
     0
  9
$DIMBLK
  1

  9
$DIMASO
 70
     1
  9
$DIMSHO
 70
     1
  9
$DIMPOST
  1

  9
$DIMAPOST
  1

  9
$DIMALT
 70
     0
  9
$DIMALTD
 70
     2
  9
$DIMALTF
 40
25.4
  9
$DIMLFAC
 40
1.0
  9
$DIMTOFL
 70
     0
  9
$DIMTVP
 40
0.0
  9
$DIMTIX
 70
     0
  9
$DIMSOXD
 70
     0
  9
$DIMSAH
 70
     0
  9
$DIMBLK1
  1

  9
$DIMBLK2
  1

  9
$DIMSTYLE
  2
STANDARD
  9
$DIMCLRD
 70
     0
  9
$DIMCLRE
 70
     0
  9
$DIMCLRT
 70
     0
  9
$DIMTFAC
 40
1.0
  9
$DIMGAP
 40
0.09
  9
$DIMJUST
 70
     0
  9
$DIMSD1
 70
     0
  9
$DIMSD2
 70
     0
  9
$DIMTOLJ
 70
     1
  9
$DIMTZIN
 70
     0
  9
$DIMALTZ
 70
     0
  9
$DIMALTTZ
 70
     0
  9
$DIMFIT
 70
     3
  9
$DIMUPT
 70
     0
  9
$DIMUNIT
 70
     2
  9
$DIMDEC
 70
     4
  9
$DIMTDEC
 70
     4
  9
$DIMALTU
 70
     2
  9
$DIMALTTD
 70
     2
  9
$DIMTXSTY
  7
STANDARD
  9
$DIMAUNIT
 70
     0
  9
$LUNITS
 70
     2
  9
$LUPREC
 70
     4
  9
$SKETCHINC
 40
0.1
  9
$FILLETRAD
 40
0.5
  9
$AUNITS
 70
     0
  9
$AUPREC
 70
     0
  9
$MENU
  1
.
  9
$ELEVATION
 40
0.0
  9
$PELEVATION
 40
0.0
  9
$THICKNESS
 40
0.0
  9
$LIMCHECK
 70
     0
  9
$CHAMFERA
 40
0.5
  9
$CHAMFERB
 40
0.5
  9
$CHAMFERC
 40
1.0
  9
$CHAMFERD
 40
0.0
  9
$SKPOLY
 70
     0
  9
$TDCREATE
 40
2456383.80800721
  9
$TDUPDATE
 40
2456383.808007222
  9
$TDINDWG
 40
0.0000000116
  9
$TDUSRTIMER
 40
0.0000000116
  9
$USRTIMER
 70
     1
  9
$ANGBASE
 50
0.0
  9
$ANGDIR
 70
     0
  9
$PDMODE
 70
     0
  9
$PDSIZE
 40
0.0
  9
$PLINEWID
 40
0.0
  9
$COORDS
 70
     1
  9
$SPLFRAME
 70
     0
  9
$SPLINETYPE
 70
     6
  9
$SPLINESEGS
 70
     8
  9
$ATTDIA
 70
     0
  9
$ATTREQ
 70
     1
  9
$HANDLING
 70
     1
  9
$HANDSEED
  5
7B
  9
$SURFTAB1
 70
     6
  9
$SURFTAB2
 70
     6
  9
$SURFTYPE
 70
     6
  9
$SURFU
 70
     6
  9
$SURFV
 70
     6
  9
$UCSNAME
  2

  9
$UCSORG
 10
0.0
 20
0.0
 30
0.0
  9
$UCSXDIR
 10
1.0
 20
0.0
 30
0.0
  9
$UCSYDIR
 10
0.0
 20
1.0
 30
0.0
  9
$PUCSNAME
  2

  9
$PUCSORG
 10
0.0
 20
0.0
 30
0.0
  9
$PUCSXDIR
 10
1.0
 20
0.0
 30
0.0
  9
$PUCSYDIR
 10
0.0
 20
1.0
 30
0.0
  9
$USERI1
 70
     0
  9
$USERI2
 70
     0
  9
$USERI3
 70
     0
  9
$USERI4
 70
     0
  9
$USERI5
 70
     0
  9
$USERR1
 40
0.0
  9
$USERR2
 40
0.0
  9
$USERR3
 40
0.0
  9
$USERR4
 40
0.0
  9
$USERR5
 40
0.0
  9
$WORLDVIEW
 70
     1
  9
$SHADEDGE
 70
     3
  9
$SHADEDIF
 70
    70
  9
$TILEMODE
 70
     1
  9
$MAXACTVP
 70
    64
  9
$PINSBASE
 10
0.0
 20
0.0
 30
0.0
  9
$PLIMCHECK
 70
     0
  9
$PEXTMIN
 10
1.000000000000000E+20
 20
1.000000000000000E+20
 30
1.000000000000000E+20
  9
$PEXTMAX
 10
-1.000000000000000E+20
 20
-1.000000000000000E+20
 30
-1.000000000000000E+20
  9
$PLIMMIN
 10
0.0
 20
0.0
  9
$PLIMMAX
 10
12.0
 20
9.0
  9
$UNITMODE
 70
     0
  9
$VISRETAIN
 70
     1
  9
$PLINEGEN
 70
     0
  9
$PSLTSCALE
 70
     1
  9
$TREEDEPTH
 70
  3020
  9
$PICKSTYLE
 70
     1
  9
$CMLSTYLE
  2
STANDARD
  9
$CMLJUST
 70
     0
  9
$CMLSCALE
 40
1.0
  9
$SAVEIMAGES
 70
     1
  0
ENDSEC
  0
SECTION
  2
CLASSES
  0
CLASS
  1
ACDBDICTIONARYWDFLT
  2
AcDbDictionaryWithDefault
  3
ObjectDBX Classes
 90
    32768
280
     0
281
     0
  0
CLASS
  1
VISUALSTYLE
  2
AcDbVisualStyle
  3
ObjectDBX Classes
 90
     4095
280
     0
281
     0
  0
CLASS
  1
XRECORD
  2
AcDbXrecord
  3
AutoCAD 2000
 90
    32768
280
     0
281
     0
  0
CLASS
  1
LWPOLYLINE
  2
AcDbPolyline
  3
AutoCAD 2000
 90
    32768
280
     0
281
     1
  0
CLASS
  1
HATCH
  2
AcDbHatch
  3
AutoCAD 2000
 90
    32768
280
     0
281
     1
  0
CLASS
  1
ACDBPLACEHOLDER
  2
AcDbPlaceHolder
  3
ObjectDBX Classes
 90
        0
280
     0
281
     0
  0
CLASS
  1
LAYOUT
  2
AcDbLayout
  3
ObjectDBX Classes
 90
        0
280
     0
281
     0
  0
ENDSEC
  0
SECTION
  2
TABLES
  0
TABLE
  2
VPORT
  5
8
330
0
100
AcDbSymbolTable
 70
     1
  0
VPORT
  5
29
330
8
100
AcDbSymbolTableRecord
100
AcDbViewportTableRecord
  2
*ACTIVE
 70
     0
 10
0.0
 20
0.0
 11
1.0
 21
1.0
 12
0.0
 22
0.0
 13
0.0
 23
0.0
 14
0.5
 24
0.5
 15
0.5
 25
0.5
 16
0.0
 26
0.0
 36
1.0
 17
104.951388862651
 27
148.5194444073146
 37
0.0
 40
297.0388888146292
 41
0.7066508313539193
 42
50.0
 43
0.0
 44
0.0
 50
0.0
 51
0.0
 71
     0
 72
   100
 73
     1
 74
     3
 75
     0
 76
     0
 77
     0
 78
     0
  0
ENDTAB
  0
TABLE
  2
LTYPE
  5
5
330
0
100
AcDbSymbolTable
 70
     1
  0
LTYPE
  5
14
330
5
100
AcDbSymbolTableRecord
100
AcDbLinetypeTableRecord
  2
BYBLOCK
 70
     0
  3

 72
    65
 73
     0
 40
0.0
  0
LTYPE
  5
15
330
5
100
AcDbSymbolTableRecord
100
AcDbLinetypeTableRecord
  2
BYLAYER
 70
     0
  3

 72
    65
 73
     0
 40
0.0
  0
LTYPE
  5
16
330
5
100
AcDbSymbolTableRecord
100
AcDbLinetypeTableRecord
  2
CONTINUOUS
 70
     0
  3
Solid line
 72
    65
 73
     0
 40
0.0
  0
ENDTAB
  0
TABLE
  2
LAYER
  5
2
330
0
100
AcDbSymbolTable
 70
     2
  0
LAYER
  5
10
330
2
100
AcDbSymbolTableRecord
100
AcDbLayerTableRecord
  2
0
 70
     0
 62
     7
  6
CONTINUOUS
  0
LAYER
  5
3B
330
2
100
AcDbSymbolTableRecord
100
AcDbLayerTableRecord
  2
LAYER_1
 70
     0
 62
     7
  6
CONTINUOUS
  0
ENDTAB
  0
TABLE
  2
STYLE
  5
3
330
0
100
AcDbSymbolTable
 70
     1
  0
STYLE
  5
11
330
3
100
AcDbSymbolTableRecord
100
AcDbTextStyleTableRecord
  2
STANDARD
 70
     0
 40
0.0
 41
1.0
 50
0.0
 71
     0
 42
0.2
  3
txt
  4

  0
ENDTAB
  0
TABLE
  2
VIEW
  5
6
330
0
100
AcDbSymbolTable
 70
     0
  0
ENDTAB
  0
TABLE
  2
UCS
  5
7
330
0
100
AcDbSymbolTable
 70
     0
  0
ENDTAB
  0
TABLE
  2
APPID
  5
9
330
0
100
AcDbSymbolTable
 70
     1
  0
APPID
  5
12
330
9
100
AcDbSymbolTableRecord
100
AcDbRegAppTableRecord
  2
ACAD
 70
     0
  0
ENDTAB
  0
TABLE
  2
DIMSTYLE
  5
A
330
0
100
AcDbSymbolTable
 70
     1
  0
DIMSTYLE
105
27
330
A
100
AcDbSymbolTableRecord
100
AcDbDimStyleTableRecord
  2
STANDARD
 70
     0
  3

  4

  5

  6

  7

 40
1.0
 41
0.18
 42
0.0625
 43
0.38
 44
0.18
 45
0.0
 46
0.0
 47
0.0
 48
0.0
140
0.18
141
0.09
142
0.0
143
25.4
144
1.0
145
0.0
146
1.0
147
0.09
 71
     0
 72
     0
 73
     1
 74
     1
 75
     0
 76
     0
 77
     0
 78
     0
170
     0
171
     2
172
     0
173
     0
174
     0
175
     0
176
     0
177
     0
178
     0
270
     2
271
     4
272
     4
273
     2
274
     2
340
11
275
     0
280
     0
281
     0
282
     0
283
     1
284
     0
285
     0
286
     0
287
     3
288
     0
  0
ENDTAB
  0
TABLE
  2
BLOCK_RECORD
  5
1
330
0
100
AcDbSymbolTable
 70
     1
  0
BLOCK_RECORD
  5
1F
330
1
100
AcDbSymbolTableRecord
100
AcDbBlockTableRecord
  2
*MODEL_SPACE
  0
BLOCK_RECORD
  5
1B
330
1
100
AcDbSymbolTableRecord
100
AcDbBlockTableRecord
  2
*PAPER_SPACE
  0
ENDTAB
  0
ENDSEC
  0
SECTION
  2
BLOCKS
  0
BLOCK
  5
20
330
1F
100
AcDbEntity
  8
0
100
AcDbBlockBegin
  2
*MODEL_SPACE
 70
     0
 71
     0
 10
0.0
 20
0.0
 30
0.0
  3
*MODEL_SPACE
  1

  0
ENDBLK
  5
21
330
1F
100
AcDbEntity
  8
0
100
AcDbBlockEnd
  0
BLOCK
  5
1C
330
1B
100
AcDbEntity
 67
     1
  8
0
100
AcDbBlockBegin
  2
*PAPER_SPACE
 70
     0
 71
     0
 10
0.0
 20
0.0
 30
0.0
  3
*PAPER_SPACE
  1

  0
ENDBLK
  5
1D
330
1B
100
AcDbEntity
 67
     1
  8
0
100
AcDbBlockEnd
  0
ENDSEC
  0
SECTION
  2
ENTITIES
  0
SPLINE
  5
3C
330
1F
100
AcDbEntity
  8
LAYER_1
 62
     7
100
AcDbSpline
210
0.0
220
0.0
230
1.0
 70
    11
 71
     3
 72
    59
 73
    55
 74
     0
 42
0.0000000001
 43
0.0000000001
 40
0.0
 40
0.0
 40
0.0
 40
0.0
 40
1.0
 40
1.0
 40
1.0
 40
2.0
 40
2.0
 40
2.0
 40
3.0
 40
3.0
 40
3.0
 40
4.0
 40
4.0
 40
4.0
 40
5.0
 40
5.0
 40
5.0
 40
6.0
 40
6.0
 40
6.0
 40
7.0
 40
7.0
 40
7.0
 40
8.0
 40
8.0
 40
8.0
 40
9.0
 40
9.0
 40
9.0
 40
10.0
 40
10.0
 40
10.0
 40
11.0
 40
11.0
 40
11.0
 40
12.0
 40
12.0
 40
12.0
 40
13.0
 40
13.0
 40
13.0
 40
14.0
 40
14.0
 40
14.0
 40
15.0
 40
15.0
 40
15.0
 40
16.0
 40
16.0
 40
16.0
 40
17.0
 40
17.0
 40
17.0
 40
18.0
 40
18.0
 40
18.0
 40
18.0
 10
62.67042099127684
 20
11.27614203277124
 30
0.0
 10
62.67042099127684
 20
11.27614203277124
 30
0.0
 10
59.05479327950714
 20
11.27614203277124
 30
0.0
 10
59.05479327950714
 20
11.27614203277124
 30
0.0
 10
59.05479327950714
 20
11.27614203277124
 30
0.0
 10
59.08373208158324
 20
11.41118977579304
 30
0.0
 10
59.08373208158324
 20
11.41118977579304
 30
0.0
 10
59.08373208158324
 20
12.96596136828629
 30
0.0
 10
57.82351615307885
 20
14.22583278724215
 30
0.0
 10
56.26840005103707
 20
14.22583278724215
 30
0.0
 10
56.26840005103707
 20
14.22583278724215
 30
0.0
 10
43.70103623039419
 20
14.22583278724215
 30
0.0
 10
43.70103623039419
 20
14.22583278724215
 30
0.0
 10
42.14626463790093
 20
14.22583278724215
 30
0.0
 10
40.88639321894507
 20
12.96596136828629
 30
0.0
 10
40.88639321894507
 20
11.41118977579304
 30
0.0
 10
40.88639321894507
 20
11.41118977579304
 30
0.0
 10
40.91498751147265
 20
11.27614203277124
 30
0.0
 10
40.91498751147265
 20
11.27614203277124
 30
0.0
 10
40.91498751147265
 20
11.27614203277124
 30
0.0
 10
37.33518879274954
 20
11.27614203277124
 30
0.0
 10
37.33518879274954
 20
11.27614203277124
 30
0.0
 10
36.46220159678723
 20
11.27614203277124
 30
0.0
 10
35.75526800321396
 20
10.56920843919798
 30
0.0
 10
35.75526800321396
 20
9.696565752784192
 30
0.0
 10
35.75526800321396
 20
8.823923066370408
 30
0.0
 10
36.46220159678723
 20
8.116644963248618
 30
0.0
 10
37.33518879274954
 20
8.116644963248618
 30
0.0
 10
37.33518879274954
 20
8.116644963248618
 30
0.0
 10
41.58884818838751
 20
8.116644963248618
 30
0.0
 10
41.58884818838751
 20
8.116644963248618
 30
0.0
 10
41.58884818838751
 20
8.116644963248618
 30
0.0
 10
41.69047850520239
 20
7.640877276735615
 30
0.0
 10
41.69047850520239
 20
7.640877276735615
 30
0.0
 10
42.14281954241569
 20
5.956914603545494
 30
0.0
 10
42.95034992415825
 20
4.826234265286497
 30
0.0
 10
44.50546602620003
 20
4.826234265286497
 30
0.0
 10
44.50546602620003
 20
4.826234265286497
 30
0.0
 10
55.46431476477976
 20
4.826234265286497
 30
0.0
 10
55.46431476477976
 20
4.826234265286497
 30
0.0
 10
57.01908635727301
 20
4.826234265286497
 30
0.0
 10
57.80663518520112
 20
6.078870983723338
 30
0.0
 10
58.27895777622887
 20
7.640877276735615
 30
0.0
 10
58.27895777622887
 20
7.640877276735615
 30
0.0
 10
58.38058809304374
 20
8.116644963248618
 30
0.0
 10
58.38058809304374
 20
8.116644963248618
 30
0.0
 10
58.38058809304374
 20
8.116644963248618
 30
0.0
 10
62.67042099127684
 20
8.116644963248618
 30
0.0
 10
62.67042099127684
 20
8.116644963248618
 30
0.0
 10
63.54306367769063
 20
8.116644963248618
 30
0.0
 10
64.25034178081242
 20
8.823923066370408
 30
0.0
 10
64.25034178081242
 20
9.696565752784192
 30
0.0
 10
64.25034178081242
 20
10.56920843919798
 30
0.0
 10
63.54306367769063
 20
11.27614203277124
 30
0.0
 10
62.67042099127684
 20
11.27614203277124
 30
0.0
  0
POLYLINE
  5
3D
330
1F
100
AcDbEntity
  8
LAYER_1
 62
     7
100
AcDb2dPolyline
 66
     1
 10
0.0
 20
0.0
 30
0.0
  0
VERTEX
  5
3E
330
3D
100
AcDbEntity
  8
LAYER_1
 62
     7
100
AcDbVertex
100
AcDb2dVertex
 10
66.00320636370753
 20
3.742407225626899
 30
0.0
  0
VERTEX
  5
3F
330
3D
100
AcDbEntity
  8
LAYER_1
 62
     7
100
AcDbVertex
100
AcDb2dVertex
 10
34.00240342031884
 20
3.742407225626899
 30
0.0
  0
VERTEX
  5
40
330
3D
100
AcDbEntity
  8
LAYER_1
 62
     7
100
AcDbVertex
100
AcDb2dVertex
 10
34.00240342031884
 20
15.2841661203109
 30
0.0
  0
VERTEX
  5
41
330
3D
100
AcDbEntity
  8
LAYER_1
 62
     7
100
AcDbVertex
100
AcDb2dVertex
 10
66.00320636370753
 20
15.2841661203109
 30
0.0
  0
VERTEX
  5
42
330
3D
100
AcDbEntity
  8
LAYER_1
 62
     7
100
AcDbVertex
100
AcDb2dVertex
 10
66.00320636370753
 20
3.742407225626899
 30
0.0
  0
SEQEND
  5
43
330
3D
100
AcDbEntity
  8
LAYER_1
  0
SPLINE
  5
44
330
1F
100
AcDbEntity
  8
LAYER_1
 62
     7
100
AcDbSpline
210
0.0
220
0.0
230
1.0
 70
    11
 71
     3
 72
    59
 73
    55
 74
     0
 42
0.0000000001
 43
0.0000000001
 40
0.0
 40
0.0
 40
0.0
 40
0.0
 40
1.0
 40
1.0
 40
1.0
 40
2.0
 40
2.0
 40
2.0
 40
3.0
 40
3.0
 40
3.0
 40
4.0
 40
4.0
 40
4.0
 40
5.0
 40
5.0
 40
5.0
 40
6.0
 40
6.0
 40
6.0
 40
7.0
 40
7.0
 40
7.0
 40
8.0
 40
8.0
 40
8.0
 40
9.0
 40
9.0
 40
9.0
 40
10.0
 40
10.0
 40
10.0
 40
11.0
 40
11.0
 40
11.0
 40
12.0
 40
12.0
 40
12.0
 40
13.0
 40
13.0
 40
13.0
 40
14.0
 40
14.0
 40
14.0
 40
15.0
 40
15.0
 40
15.0
 40
16.0
 40
16.0
 40
16.0
 40
17.0
 40
17.0
 40
17.0
 40
18.0
 40
18.0
 40
18.0
 40
18.0
 10
28.66681178753816
 20
11.27510850412567
 30
0.0
 10
28.66681178753816
 20
11.27510850412567
 30
0.0
 10
25.05101182099419
 20
11.27510850412567
 30
0.0
 10
25.05101182099419
 20
11.27510850412567
 30
0.0
 10
25.05101182099419
 20
11.27510850412567
 30
0.0
 10
25.07995062307029
 20
11.41015624714746
 30
0.0
 10
25.07995062307029
 20
11.41015624714746
 30
0.0
 10
25.07995062307029
 20
12.96492783964071
 30
0.0
 10
23.8197346945659
 20
14.22479925859658
 30
0.0
 10
22.26461859252412
 20
14.22479925859658
 30
0.0
 10
22.26461859252412
 20
14.22479925859658
 30
0.0
 10
9.697427026655506
 20
14.22479925859658
 30
0.0
 10
9.697427026655506
 20
14.22479925859658
 30
0.0
 10
8.142655434162252
 20
14.22479925859658
 30
0.0
 10
6.882784015206387
 20
12.96492783964071
 30
0.0
 10
6.882784015206387
 20
11.41015624714746
 30
0.0
 10
6.882784015206387
 20
11.41015624714746
 30
0.0
 10
6.911550562508224
 20
11.27510850412567
 30
0.0
 10
6.911550562508224
 20
11.27510850412567
 30
0.0
 10
6.911550562508224
 20
11.27510850412567
 30
0.0
 10
3.332096353333643
 20
11.27510850412567
 30
0.0
 10
3.332096353333643
 20
11.27510850412567
 30
0.0
 10
2.459453666919859
 20
11.27510850412567
 30
0.0
 10
1.75234781857233
 20
10.5681749105524
 30
0.0
 10
1.75234781857233
 20
9.695532224138617
 30
0.0
 10
1.75234781857233
 20
8.822889537724834
 30
0.0
 10
2.459453666919859
 20
8.115611434603043
 30
0.0
 10
3.332096353333643
 20
8.115611434603043
 30
0.0
 10
3.332096353333643
 20
8.115611434603043
 30
0.0
 10
7.585411239423092
 20
8.115611434603043
 30
0.0
 10
7.585411239423092
 20
8.115611434603043
 30
0.0
 10
7.585411239423092
 20
8.115611434603043
 30
0.0
 10
7.6868693014637
 20
7.63984374809004
 30
0.0
 10
7.6868693014637
 20
7.63984374809004
 30
0.0
 10
8.139210338677003
 20
5.955881074899919
 30
0.0
 10
8.946912975193827
 20
4.825200736640922
 30
0.0
 10
10.50168456768708
 20
4.825200736640922
 30
0.0
 10
10.50168456768708
 20
4.825200736640922
 30
0.0
 10
21.46053330626681
 20
4.825200736640922
 30
0.0
 10
21.46053330626681
 20
4.825200736640922
 30
0.0
 10
23.01530489876006
 20
4.825200736640922
 30
0.0
 10
23.80285372668818
 20
6.077837455077763
 30
0.0
 10
24.27517631771593
 20
7.63984374809004
 30
0.0
 10
24.27517631771593
 20
7.63984374809004
 30
0.0
 10
24.3768066345308
 20
8.115611434603043
 30
0.0
 10
24.3768066345308
 20
8.115611434603043
 30
0.0
 10
24.3768066345308
 20
8.115611434603043
 30
0.0
 10
28.66681178753816
 20
8.115611434603043
 30
0.0
 10
28.66681178753816
 20
8.115611434603043
 30
0.0
 10
29.53945447395194
 20
8.115611434603043
 30
0.0
 10
30.24673257707374
 20
8.822889537724834
 30
0.0
 10
30.24673257707374
 20
9.695532224138617
 30
0.0
 10
30.24673257707374
 20
10.5681749105524
 30
0.0
 10
29.53945447395194
 20
11.27510850412567
 30
0.0
 10
28.66681178753816
 20
11.27510850412567
 30
0.0
  0
POLYLINE
  5
45
330
1F
100
AcDbEntity
  8
LAYER_1
 62
     7
100
AcDb2dPolyline
 66
     1
 10
0.0
 20
0.0
 30
0.0
  0
VERTEX
  5
46
330
45
100
AcDbEntity
  8
LAYER_1
 62
     7
100
AcDbVertex
100
AcDb2dVertex
 10
31.99959715996885
 20
3.741373696981324
 30
0.0
  0
VERTEX
  5
47
330
45
100
AcDbEntity
  8
LAYER_1
 62
     7
100
AcDbVertex
100
AcDb2dVertex
 10
-0.00068901909705
 20
3.741373696981324
 30
0.0
  0
VERTEX
  5
48
330
45
100
AcDbEntity
  8
LAYER_1
 62
     7
100
AcDbVertex
100
AcDb2dVertex
 10
-0.00068901909705
 20
15.28313259166533
 30
0.0
  0
VERTEX
  5
49
330
45
100
AcDbEntity
  8
LAYER_1
 62
     7
100
AcDbVertex
100
AcDb2dVertex
 10
31.99959715996885
 20
15.28313259166533
 30
0.0
  0
VERTEX
  5
4A
330
45
100
AcDbEntity
  8
LAYER_1
 62
     7
100
AcDbVertex
100
AcDb2dVertex
 10
31.99959715996885
 20
3.741373696981324
 30
0.0
  0
SEQEND
  5
4B
330
45
100
AcDbEntity
  8
LAYER_1
  0
SPLINE
  5
4C
330
1F
100
AcDbEntity
  8
LAYER_1
 62
     7
100
AcDbSpline
210
0.0
220
0.0
230
1.0
 70
    11
 71
     3
 72
    59
 73
    55
 74
     0
 42
0.0000000001
 43
0.0000000001
 40
0.0
 40
0.0
 40
0.0
 40
0.0
 40
1.0
 40
1.0
 40
1.0
 40
2.0
 40
2.0
 40
2.0
 40
3.0
 40
3.0
 40
3.0
 40
4.0
 40
4.0
 40
4.0
 40
5.0
 40
5.0
 40
5.0
 40
6.0
 40
6.0
 40
6.0
 40
7.0
 40
7.0
 40
7.0
 40
8.0
 40
8.0
 40
8.0
 40
9.0
 40
9.0
 40
9.0
 40
10.0
 40
10.0
 40
10.0
 40
11.0
 40
11.0
 40
11.0
 40
12.0
 40
12.0
 40
12.0
 40
13.0
 40
13.0
 40
13.0
 40
14.0
 40
14.0
 40
14.0
 40
15.0
 40
15.0
 40
15.0
 40
16.0
 40
16.0
 40
16.0
 40
17.0
 40
17.0
 40
17.0
 40
18.0
 40
18.0
 40
18.0
 40
18.0
 10
62.67042099127684
 20
-7.635020614410689
 30
0.0
 10
62.67042099127684
 20
-7.635020614410689
 30
0.0
 10
59.05479327950714
 20
-7.635020614410689
 30
0.0
 10
59.05479327950714
 20
-7.635020614410689
 30
0.0
 10
59.05479327950714
 20
-7.635020614410689
 30
0.0
 10
59.08373208158324
 20
-7.499972871388896
 30
0.0
 10
59.08373208158324
 20
-7.499972871388896
 30
0.0
 10
59.08373208158324
 20
-5.945201278895644
 30
0.0
 10
57.82351615307885
 20
-4.685329859939779
 30
0.0
 10
56.26840005103707
 20
-4.685329859939779
 30
0.0
 10
56.26840005103707
 20
-4.685329859939779
 30
0.0
 10
43.70103623039419
 20
-4.685329859939779
 30
0.0
 10
43.70103623039419
 20
-4.685329859939779
 30
0.0
 10
42.14626463790093
 20
-4.685329859939779
 30
0.0
 10
40.88639321894507
 20
-5.945201278895644
 30
0.0
 10
40.88639321894507
 20
-7.499972871388896
 30
0.0
 10
40.88639321894507
 20
-7.499972871388896
 30
0.0
 10
40.91498751147265
 20
-7.635020614410689
 30
0.0
 10
40.91498751147265
 20
-7.635020614410689
 30
0.0
 10
40.91498751147265
 20
-7.635020614410689
 30
0.0
 10
37.33518879274954
 20
-7.635020614410689
 30
0.0
 10
37.33518879274954
 20
-7.635020614410689
 30
0.0
 10
36.46220159678723
 20
-7.635020614410689
 30
0.0
 10
35.75526800321396
 20
-8.341954207983957
 30
0.0
 10
35.75526800321396
 20
-9.21459689439774
 30
0.0
 10
35.75526800321396
 20
-10.08723958081152
 30
0.0
 10
36.46220159678723
 20
-10.79451768393332
 30
0.0
 10
37.33518879274954
 20
-10.79451768393332
 30
0.0
 10
37.33518879274954
 20
-10.79451768393332
 30
0.0
 10
41.58884818838751
 20
-10.79451768393332
 30
0.0
 10
41.58884818838751
 20
-10.79451768393332
 30
0.0
 10
41.58884818838751
 20
-10.79451768393332
 30
0.0
 10
41.69047850520239
 20
-11.27028537044632
 30
0.0
 10
41.69047850520239
 20
-11.27028537044632
 30
0.0
 10
42.14281954241569
 20
-12.95424804363644
 30
0.0
 10
42.95034992415825
 20
-14.08492838189544
 30
0.0
 10
44.50546602620003
 20
-14.08492838189544
 30
0.0
 10
44.50546602620003
 20
-14.08492838189544
 30
0.0
 10
55.46431476477976
 20
-14.08492838189544
 30
0.0
 10
55.46431476477976
 20
-14.08492838189544
 30
0.0
 10
57.01908635727301
 20
-14.08492838189544
 30
0.0
 10
57.80663518520112
 20
-12.83229166345859
 30
0.0
 10
58.27895777622887
 20
-11.27028537044632
 30
0.0
 10
58.27895777622887
 20
-11.27028537044632
 30
0.0
 10
58.38058809304374
 20
-10.79451768393332
 30
0.0
 10
58.38058809304374
 20
-10.79451768393332
 30
0.0
 10
58.38058809304374
 20
-10.79451768393332
 30
0.0
 10
62.67042099127684
 20
-10.79451768393332
 30
0.0
 10
62.67042099127684
 20
-10.79451768393332
 30
0.0
 10
63.54306367769063
 20
-10.79451768393332
 30
0.0
 10
64.25034178081242
 20
-10.08723958081152
 30
0.0
 10
64.25034178081242
 20
-9.21459689439774
 30
0.0
 10
64.25034178081242
 20
-8.341954207983957
 30
0.0
 10
63.54306367769063
 20
-7.635020614410689
 30
0.0
 10
62.67042099127684
 20
-7.635020614410689
 30
0.0
  0
POLYLINE
  5
4D
330
1F
100
AcDbEntity
  8
LAYER_1
 62
     7
100
AcDb2dPolyline
 66
     1
 10
0.0
 20
0.0
 30
0.0
  0
VERTEX
  5
4E
330
4D
100
AcDbEntity
  8
LAYER_1
 62
     7
100
AcDbVertex
100
AcDb2dVertex
 10
66.00320636370753
 20
-15.16875542155503
 30
0.0
  0
VERTEX
  5
4F
330
4D
100
AcDbEntity
  8
LAYER_1
 62
     7
100
AcDbVertex
100
AcDb2dVertex
 10
34.00240342031884
 20
-15.16875542155503
 30
0.0
  0
VERTEX
  5
50
330
4D
100
AcDbEntity
  8
LAYER_1
 62
     7
100
AcDbVertex
100
AcDb2dVertex
 10
34.00240342031884
 20
-3.626996526871029
 30
0.0
  0
VERTEX
  5
51
330
4D
100
AcDbEntity
  8
LAYER_1
 62
     7
100
AcDbVertex
100
AcDb2dVertex
 10
66.00320636370753
 20
-3.626996526871029
 30
0.0
  0
VERTEX
  5
52
330
4D
100
AcDbEntity
  8
LAYER_1
 62
     7
100
AcDbVertex
100
AcDb2dVertex
 10
66.00320636370753
 20
-15.16875542155503
 30
0.0
  0
SEQEND
  5
53
330
4D
100
AcDbEntity
  8
LAYER_1
  0
SPLINE
  5
54
330
1F
100
AcDbEntity
  8
LAYER_1
 62
     7
100
AcDbSpline
210
0.0
220
0.0
230
1.0
 70
    11
 71
     3
 72
    59
 73
    55
 74
     0
 42
0.0000000001
 43
0.0000000001
 40
0.0
 40
0.0
 40
0.0
 40
0.0
 40
1.0
 40
1.0
 40
1.0
 40
2.0
 40
2.0
 40
2.0
 40
3.0
 40
3.0
 40
3.0
 40
4.0
 40
4.0
 40
4.0
 40
5.0
 40
5.0
 40
5.0
 40
6.0
 40
6.0
 40
6.0
 40
7.0
 40
7.0
 40
7.0
 40
8.0
 40
8.0
 40
8.0
 40
9.0
 40
9.0
 40
9.0
 40
10.0
 40
10.0
 40
10.0
 40
11.0
 40
11.0
 40
11.0
 40
12.0
 40
12.0
 40
12.0
 40
13.0
 40
13.0
 40
13.0
 40
14.0
 40
14.0
 40
14.0
 40
15.0
 40
15.0
 40
15.0
 40
16.0
 40
16.0
 40
16.0
 40
17.0
 40
17.0
 40
17.0
 40
18.0
 40
18.0
 40
18.0
 40
18.0
 10
28.66681178753816
 20
-7.63570963350774
 30
0.0
 10
28.66681178753816
 20
-7.63570963350774
 30
0.0
 10
25.05101182099419
 20
-7.63570963350774
 30
0.0
 10
25.05101182099419
 20
-7.63570963350774
 30
0.0
 10
25.05101182099419
 20
-7.63570963350774
 30
0.0
 10
25.07995062307029
 20
-7.500661890485946
 30
0.0
 10
25.07995062307029
 20
-7.500661890485946
 30
0.0
 10
25.07995062307029
 20
-5.945890297992694
 30
0.0
 10
23.8197346945659
 20
-4.686018879036829
 30
0.0
 10
22.26461859252412
 20
-4.686018879036829
 30
0.0
 10
22.26461859252412
 20
-4.686018879036829
 30
0.0
 10
9.697427026655506
 20
-4.686018879036829
 30
0.0
 10
9.697427026655506
 20
-4.686018879036829
 30
0.0
 10
8.142655434162252
 20
-4.686018879036829
 30
0.0
 10
6.882784015206387
 20
-5.945890297992694
 30
0.0
 10
6.882784015206387
 20
-7.500661890485946
 30
0.0
 10
6.882784015206387
 20
-7.500661890485946
 30
0.0
 10
6.911550562508224
 20
-7.63570963350774
 30
0.0
 10
6.911550562508224
 20
-7.63570963350774
 30
0.0
 10
6.911550562508224
 20
-7.63570963350774
 30
0.0
 10
3.332096353333643
 20
-7.63570963350774
 30
0.0
 10
3.332096353333643
 20
-7.63570963350774
 30
0.0
 10
2.459453666919859
 20
-7.63570963350774
 30
0.0
 10
1.75234781857233
 20
-8.342643227081005
 30
0.0
 10
1.75234781857233
 20
-9.21528591349479
 30
0.0
 10
1.75234781857233
 20
-10.08792859990857
 30
0.0
 10
2.459453666919859
 20
-10.79520670303036
 30
0.0
 10
3.332096353333643
 20
-10.79520670303036
 30
0.0
 10
3.332096353333643
 20
-10.79520670303036
 30
0.0
 10
7.585411239423092
 20
-10.79520670303036
 30
0.0
 10
7.585411239423092
 20
-10.79520670303036
 30
0.0
 10
7.585411239423092
 20
-10.79520670303036
 30
0.0
 10
7.6868693014637
 20
-11.27097438954337
 30
0.0
 10
7.6868693014637
 20
-11.27097438954337
 30
0.0
 10
8.139210338677003
 20
-12.95493706273349
 30
0.0
 10
8.946912975193827
 20
-14.08561740099248
 30
0.0
 10
10.50168456768708
 20
-14.08561740099248
 30
0.0
 10
10.50168456768708
 20
-14.08561740099248
 30
0.0
 10
21.46053330626681
 20
-14.08561740099248
 30
0.0
 10
21.46053330626681
 20
-14.08561740099248
 30
0.0
 10
23.01530489876006
 20
-14.08561740099248
 30
0.0
 10
23.80285372668818
 20
-12.83298068255564
 30
0.0
 10
24.27517631771593
 20
-11.27097438954337
 30
0.0
 10
24.27517631771593
 20
-11.27097438954337
 30
0.0
 10
24.3768066345308
 20
-10.79520670303036
 30
0.0
 10
24.3768066345308
 20
-10.79520670303036
 30
0.0
 10
24.3768066345308
 20
-10.79520670303036
 30
0.0
 10
28.66681178753816
 20
-10.79520670303036
 30
0.0
 10
28.66681178753816
 20
-10.79520670303036
 30
0.0
 10
29.53945447395194
 20
-10.79520670303036
 30
0.0
 10
30.24673257707374
 20
-10.08792859990857
 30
0.0
 10
30.24673257707374
 20
-9.21528591349479
 30
0.0
 10
30.24673257707374
 20
-8.342643227081005
 30
0.0
 10
29.53945447395194
 20
-7.63570963350774
 30
0.0
 10
28.66681178753816
 20
-7.63570963350774
 30
0.0
  0
POLYLINE
  5
55
330
1F
100
AcDbEntity
  8
LAYER_1
 62
     7
100
AcDb2dPolyline
 66
     1
 10
0.0
 20
0.0
 30
0.0
  0
VERTEX
  5
56
330
55
100
AcDbEntity
  8
LAYER_1
 62
     7
100
AcDbVertex
100
AcDb2dVertex
 10
31.99959715996885
 20
-15.16944444065208
 30
0.0
  0
VERTEX
  5
57
330
55
100
AcDbEntity
  8
LAYER_1
 62
     7
100
AcDbVertex
100
AcDb2dVertex
 10
-0.00068901909705
 20
-15.16944444065208
 30
0.0
  0
VERTEX
  5
58
330
55
100
AcDbEntity
  8
LAYER_1
 62
     7
100
AcDbVertex
100
AcDb2dVertex
 10
-0.00068901909705
 20
-3.627685545968079
 30
0.0
  0
VERTEX
  5
59
330
55
100
AcDbEntity
  8
LAYER_1
 62
     7
100
AcDbVertex
100
AcDb2dVertex
 10
31.99959715996885
 20
-3.627685545968079
 30
0.0
  0
VERTEX
  5
5A
330
55
100
AcDbEntity
  8
LAYER_1
 62
     7
100
AcDbVertex
100
AcDb2dVertex
 10
31.99959715996885
 20
-15.16944444065208
 30
0.0
  0
SEQEND
  5
5B
330
55
100
AcDbEntity
  8
LAYER_1
  0
SPLINE
  5
5C
330
1F
100
AcDbEntity
  8
LAYER_1
 62
     7
100
AcDbSpline
210
0.0
220
0.0
230
1.0
 70
    11
 71
     3
 72
    59
 73
    55
 74
     0
 42
0.0000000001
 43
0.0000000001
 40
0.0
 40
0.0
 40
0.0
 40
0.0
 40
1.0
 40
1.0
 40
1.0
 40
2.0
 40
2.0
 40
2.0
 40
3.0
 40
3.0
 40
3.0
 40
4.0
 40
4.0
 40
4.0
 40
5.0
 40
5.0
 40
5.0
 40
6.0
 40
6.0
 40
6.0
 40
7.0
 40
7.0
 40
7.0
 40
8.0
 40
8.0
 40
8.0
 40
9.0
 40
9.0
 40
9.0
 40
10.0
 40
10.0
 40
10.0
 40
11.0
 40
11.0
 40
11.0
 40
12.0
 40
12.0
 40
12.0
 40
13.0
 40
13.0
 40
13.0
 40
14.0
 40
14.0
 40
14.0
 40
15.0
 40
15.0
 40
15.0
 40
16.0
 40
16.0
 40
16.0
 40
17.0
 40
17.0
 40
17.0
 40
18.0
 40
18.0
 40
18.0
 40
18.0
 10
162.9933240694947
 20
-7.805208331382032
 30
0.0
 10
162.9933240694947
 20
-7.805208331382032
 30
0.0
 10
159.577856405418
 20
-7.805208331382032
 30
0.0
 10
159.577856405418
 20
-7.805208331382032
 30
0.0
 10
159.577856405418
 20
-7.805208331382032
 30
0.0
 10
159.6433132196378
 20
-7.499972871388896
 30
0.0
 10
159.6433132196378
 20
-7.499972871388896
 30
0.0
 10
159.6433132196378
 20
-5.944856769347119
 30
0.0
 10
158.3755180810658
 20
-4.684985350391254
 30
0.0
 10
156.8121337498595
 20
-4.684985350391254
 30
0.0
 10
156.8121337498595
 20
-4.684985350391254
 30
0.0
 10
122.174110212512
 20
-4.684985350391254
 30
0.0
 10
122.174110212512
 20
-4.684985350391254
 30
0.0
 10
120.6107258813057
 20
-4.684985350391254
 30
0.0
 10
119.3436197618308
 20
-5.944856769347119
 30
0.0
 10
119.3436197618308
 20
-7.499972871388896
 30
0.0
 10
119.3436197618308
 20
-7.499972871388896
 30
0.0
 10
119.4090765760505
 20
-7.805208331382032
 30
0.0
 10
119.4090765760505
 20
-7.805208331382032
 30
0.0
 10
119.4090765760505
 20
-7.805208331382032
 30
0.0
 10
115.9936089119738
 20
-7.805208331382032
 30
0.0
 10
115.9936089119738
 20
-7.805208331382032
 30
0.0
 10
115.1206217160115
 20
-7.805208331382032
 30
0.0
 10
114.4136881224382
 20
-8.512486434503824
 30
0.0
 10
114.4136881224382
 20
-9.385129120917608
 30
0.0
 10
114.4136881224382
 20
-10.25742729778287
 30
0.0
 10
115.1206217160115
 20
-10.96504991045318
 30
0.0
 10
115.9936089119738
 20
-10.96504991045318
 30
0.0
 10
115.9936089119738
 20
-10.96504991045318
 30
0.0
 10
120.0867268579992
 20
-10.96504991045318
 30
0.0
 10
120.0867268579992
 20
-10.96504991045318
 30
0.0
 10
120.0867268579992
 20
-10.96504991045318
 30
0.0
 10
120.1521836722189
 20
-11.26994086089779
 30
0.0
 10
120.1521836722189
 20
-11.26994086089779
 30
0.0
 10
120.6072807858204
 20
-12.95390353408791
 30
0.0
 10
121.4196343012423
 20
-14.08492838189544
 30
0.0
 10
122.9830186324487
 20
-14.08492838189544
 30
0.0
 10
122.9830186324487
 20
-14.08492838189544
 30
0.0
 10
156.0032253299228
 20
-14.08492838189544
 30
0.0
 10
156.0032253299228
 20
-14.08492838189544
 30
0.0
 10
157.5666096611292
 20
-14.08492838189544
 30
0.0
 10
158.3589816227366
 20
-12.83194715391007
 30
0.0
 10
158.8337157806041
 20
-11.26994086089779
 30
0.0
 10
158.8337157806041
 20
-11.26994086089779
 30
0.0
 10
158.8991725948238
 20
-10.96504991045318
 30
0.0
 10
158.8991725948238
 20
-10.96504991045318
 30
0.0
 10
158.8991725948238
 20
-10.96504991045318
 30
0.0
 10
162.9933240694947
 20
-10.96504991045318
 30
0.0
 10
162.9933240694947
 20
-10.96504991045318
 30
0.0
 10
163.86562224636
 20
-10.96504991045318
 30
0.0
 10
164.5732448590303
 20
-10.25742729778287
 30
0.0
 10
164.5732448590303
 20
-9.385129120917608
 30
0.0
 10
164.5732448590303
 20
-8.512486434503824
 30
0.0
 10
163.86562224636
 20
-7.805208331382032
 30
0.0
 10
162.9933240694947
 20
-7.805208331382032
 30
0.0
  0
POLYLINE
  5
5D
330
1F
100
AcDbEntity
  8
LAYER_1
 62
     7
100
AcDb2dPolyline
 66
     1
 10
0.0
 20
0.0
 30
0.0
  0
VERTEX
  5
5E
330
5D
100
AcDbEntity
  8
LAYER_1
 62
     7
100
AcDbVertex
100
AcDb2dVertex
 10
166.4935410825086
 20
-15.15566405871108
 30
0.0
  0
VERTEX
  5
5F
330
5D
100
AcDbEntity
  8
LAYER_1
 62
     7
100
AcDbVertex
100
AcDb2dVertex
 10
112.49339189896
 20
-15.15566405871108
 30
0.0
  0
VERTEX
  5
60
330
5D
100
AcDbEntity
  8
LAYER_1
 62
     7
100
AcDbVertex
100
AcDb2dVertex
 10
112.49339189896
 20
-3.613905164027079
 30
0.0
  0
VERTEX
  5
61
330
5D
100
AcDbEntity
  8
LAYER_1
 62
     7
100
AcDbVertex
100
AcDb2dVertex
 10
166.4935410825086
 20
-3.613905164027079
 30
0.0
  0
VERTEX
  5
62
330
5D
100
AcDbEntity
  8
LAYER_1
 62
     7
100
AcDbVertex
100
AcDb2dVertex
 10
166.4935410825086
 20
-15.15566405871108
 30
0.0
  0
SEQEND
  5
63
330
5D
100
AcDbEntity
  8
LAYER_1
  0
SPLINE
  5
64
330
1F
100
AcDbEntity
  8
LAYER_1
 62
     7
100
AcDbSpline
210
0.0
220
0.0
230
1.0
 70
    11
 71
     3
 72
    59
 73
    55
 74
     0
 42
0.0000000001
 43
0.0000000001
 40
0.0
 40
0.0
 40
0.0
 40
0.0
 40
1.0
 40
1.0
 40
1.0
 40
2.0
 40
2.0
 40
2.0
 40
3.0
 40
3.0
 40
3.0
 40
4.0
 40
4.0
 40
4.0
 40
5.0
 40
5.0
 40
5.0
 40
6.0
 40
6.0
 40
6.0
 40
7.0
 40
7.0
 40
7.0
 40
8.0
 40
8.0
 40
8.0
 40
9.0
 40
9.0
 40
9.0
 40
10.0
 40
10.0
 40
10.0
 40
11.0
 40
11.0
 40
11.0
 40
12.0
 40
12.0
 40
12.0
 40
13.0
 40
13.0
 40
13.0
 40
14.0
 40
14.0
 40
14.0
 40
15.0
 40
15.0
 40
15.0
 40
16.0
 40
16.0
 40
16.0
 40
17.0
 40
17.0
 40
17.0
 40
18.0
 40
18.0
 40
18.0
 40
18.0
 10
96.67041284475602
 20
11.27648654231977
 30
0.0
 10
96.67041284475602
 20
11.27648654231977
 30
0.0
 10
93.05478513298631
 20
11.27648654231977
 30
0.0
 10
93.05478513298631
 20
11.27648654231977
 30
0.0
 10
93.05478513298631
 20
11.27648654231977
 30
0.0
 10
93.08372393506241
 20
11.41153428534156
 30
0.0
 10
93.08372393506241
 20
11.41153428534156
 30
0.0
 10
93.08372393506241
 20
12.96630587783481
 30
0.0
 10
91.82350800655801
 20
14.22617729679068
 30
0.0
 10
90.26839190451624
 20
14.22617729679068
 30
0.0
 10
90.26839190451624
 20
14.22617729679068
 30
0.0
 10
77.70102808387335
 20
14.22617729679068
 30
0.0
 10
77.70102808387335
 20
14.22617729679068
 30
0.0
 10
76.1462564913801
 20
14.22617729679068
 30
0.0
 10
74.88638507242425
 20
12.96630587783481
 30
0.0
 10
74.88638507242425
 20
11.41153428534156
 30
0.0
 10
74.88638507242425
 20
11.41153428534156
 30
0.0
 10
74.91497936495182
 20
11.27648654231977
 30
0.0
 10
74.91497936495182
 20
11.27648654231977
 30
0.0
 10
74.91497936495182
 20
11.27648654231977
 30
0.0
 10
71.33518064622871
 20
11.27648654231977
 30
0.0
 10
71.33518064622871
 20
11.27648654231977
 30
0.0
 10
70.4621934502664
 20
11.27648654231977
 30
0.0
 10
69.75525985669313
 20
10.5695529487465
 30
0.0
 10
69.75525985669313
 20
9.696910262332718
 30
0.0
 10
69.75525985669313
 20
8.824267575918933
 30
0.0
 10
70.4621934502664
 20
8.116989472797142
 30
0.0
 10
71.33518064622871
 20
8.116989472797142
 30
0.0
 10
71.33518064622871
 20
8.116989472797142
 30
0.0
 10
75.58884004186669
 20
8.116989472797142
 30
0.0
 10
75.58884004186669
 20
8.116989472797142
 30
0.0
 10
75.58884004186669
 20
8.116989472797142
 30
0.0
 10
75.69047035868155
 20
7.641221786284139
 30
0.0
 10
75.69047035868155
 20
7.641221786284139
 30
0.0
 10
76.14281139589485
 20
5.957259113094019
 30
0.0
 10
76.95034177763742
 20
4.826578774835022
 30
0.0
 10
78.5054578796792
 20
4.826578774835022
 30
0.0
 10
78.5054578796792
 20
4.826578774835022
 30
0.0
 10
89.46430661825893
 20
4.826578774835022
 30
0.0
 10
89.46430661825893
 20
4.826578774835022
 30
0.0
 10
91.01907821075218
 20
4.826578774835022
 30
0.0
 10
91.80662703868029
 20
6.079215493271863
 30
0.0
 10
92.27894962970804
 20
7.641221786284139
 30
0.0
 10
92.27894962970804
 20
7.641221786284139
 30
0.0
 10
92.38057994652291
 20
8.116989472797142
 30
0.0
 10
92.38057994652291
 20
8.116989472797142
 30
0.0
 10
92.38057994652291
 20
8.116989472797142
 30
0.0
 10
96.67041284475602
 20
8.116989472797142
 30
0.0
 10
96.67041284475602
 20
8.116989472797142
 30
0.0
 10
97.5430555311698
 20
8.116989472797142
 30
0.0
 10
98.2503336342916
 20
8.824267575918933
 30
0.0
 10
98.2503336342916
 20
9.696910262332718
 30
0.0
 10
98.2503336342916
 20
10.5695529487465
 30
0.0
 10
97.5430555311698
 20
11.27648654231977
 30
0.0
 10
96.67041284475602
 20
11.27648654231977
 30
0.0
  0
POLYLINE
  5
65
330
1F
100
AcDbEntity
  8
LAYER_1
 62
     7
100
AcDb2dPolyline
 66
     1
 10
0.0
 20
0.0
 30
0.0
  0
VERTEX
  5
66
330
65
100
AcDbEntity
  8
LAYER_1
 62
     7
100
AcDbVertex
100
AcDb2dVertex
 10
100.0031982171867
 20
3.742751735175423
 30
0.0
  0
VERTEX
  5
67
330
65
100
AcDbEntity
  8
LAYER_1
 62
     7
100
AcDbVertex
100
AcDb2dVertex
 10
68.00239527379802
 20
3.742751735175423
 30
0.0
  0
VERTEX
  5
68
330
65
100
AcDbEntity
  8
LAYER_1
 62
     7
100
AcDbVertex
100
AcDb2dVertex
 10
68.00239527379802
 20
15.28451062985943
 30
0.0
  0
VERTEX
  5
69
330
65
100
AcDbEntity
  8
LAYER_1
 62
     7
100
AcDbVertex
100
AcDb2dVertex
 10
100.0031982171867
 20
15.28451062985943
 30
0.0
  0
VERTEX
  5
6A
330
65
100
AcDbEntity
  8
LAYER_1
 62
     7
100
AcDbVertex
100
AcDb2dVertex
 10
100.0031982171867
 20
3.742751735175423
 30
0.0
  0
SEQEND
  5
6B
330
65
100
AcDbEntity
  8
LAYER_1
  0
SPLINE
  5
6C
330
1F
100
AcDbEntity
  8
LAYER_1
 62
     7
100
AcDbSpline
210
0.0
220
0.0
230
1.0
 70
    11
 71
     3
 72
    59
 73
    55
 74
     0
 42
0.0000000001
 43
0.0000000001
 40
0.0
 40
0.0
 40
0.0
 40
0.0
 40
1.0
 40
1.0
 40
1.0
 40
2.0
 40
2.0
 40
2.0
 40
3.0
 40
3.0
 40
3.0
 40
4.0
 40
4.0
 40
4.0
 40
5.0
 40
5.0
 40
5.0
 40
6.0
 40
6.0
 40
6.0
 40
7.0
 40
7.0
 40
7.0
 40
8.0
 40
8.0
 40
8.0
 40
9.0
 40
9.0
 40
9.0
 40
10.0
 40
10.0
 40
10.0
 40
11.0
 40
11.0
 40
11.0
 40
12.0
 40
12.0
 40
12.0
 40
13.0
 40
13.0
 40
13.0
 40
14.0
 40
14.0
 40
14.0
 40
15.0
 40
15.0
 40
15.0
 40
16.0
 40
16.0
 40
16.0
 40
17.0
 40
17.0
 40
17.0
 40
18.0
 40
18.0
 40
18.0
 40
18.0
 10
96.67041284475602
 20
-7.633987085765114
 30
0.0
 10
96.67041284475602
 20
-7.633987085765114
 30
0.0
 10
93.05478513298631
 20
-7.633987085765114
 30
0.0
 10
93.05478513298631
 20
-7.633987085765114
 30
0.0
 10
93.05478513298631
 20
-7.633987085765114
 30
0.0
 10
93.08372393506241
 20
-7.498939342743321
 30
0.0
 10
93.08372393506241
 20
-7.498939342743321
 30
0.0
 10
93.08372393506241
 20
-5.944167750250069
 30
0.0
 10
91.82350800655801
 20
-4.684296331294204
 30
0.0
 10
90.26839190451624
 20
-4.684296331294204
 30
0.0
 10
90.26839190451624
 20
-4.684296331294204
 30
0.0
 10
77.70102808387335
 20
-4.684296331294204
 30
0.0
 10
77.70102808387335
 20
-4.684296331294204
 30
0.0
 10
76.1462564913801
 20
-4.684296331294204
 30
0.0
 10
74.88638507242425
 20
-5.944167750250069
 30
0.0
 10
74.88638507242425
 20
-7.498939342743321
 30
0.0
 10
74.88638507242425
 20
-7.498939342743321
 30
0.0
 10
74.91497936495182
 20
-7.633987085765114
 30
0.0
 10
74.91497936495182
 20
-7.633987085765114
 30
0.0
 10
74.91497936495182
 20
-7.633987085765114
 30
0.0
 10
71.33518064622871
 20
-7.633987085765114
 30
0.0
 10
71.33518064622871
 20
-7.633987085765114
 30
0.0
 10
70.4621934502664
 20
-7.633987085765114
 30
0.0
 10
69.75525985669313
 20
-8.340920679338382
 30
0.0
 10
69.75525985669313
 20
-9.213563365752165
 30
0.0
 10
69.75525985669313
 20
-10.08620605216595
 30
0.0
 10
70.4621934502664
 20
-10.79348415528774
 30
0.0
 10
71.33518064622871
 20
-10.79348415528774
 30
0.0
 10
71.33518064622871
 20
-10.79348415528774
 30
0.0
 10
75.58884004186669
 20
-10.79348415528774
 30
0.0
 10
75.58884004186669
 20
-10.79348415528774
 30
0.0
 10
75.58884004186669
 20
-10.79348415528774
 30
0.0
 10
75.69047035868155
 20
-11.26925184180074
 30
0.0
 10
75.69047035868155
 20
-11.26925184180074
 30
0.0
 10
76.14281139589485
 20
-12.95321451499086
 30
0.0
 10
76.95034177763742
 20
-14.08389485324986
 30
0.0
 10
78.5054578796792
 20
-14.08389485324986
 30
0.0
 10
78.5054578796792
 20
-14.08389485324986
 30
0.0
 10
89.46430661825893
 20
-14.08389485324986
 30
0.0
 10
89.46430661825893
 20
-14.08389485324986
 30
0.0
 10
91.01907821075218
 20
-14.08389485324986
 30
0.0
 10
91.80662703868029
 20
-12.83125813481302
 30
0.0
 10
92.27894962970804
 20
-11.26925184180074
 30
0.0
 10
92.27894962970804
 20
-11.26925184180074
 30
0.0
 10
92.38057994652291
 20
-10.79348415528774
 30
0.0
 10
92.38057994652291
 20
-10.79348415528774
 30
0.0
 10
92.38057994652291
 20
-10.79348415528774
 30
0.0
 10
96.67041284475602
 20
-10.79348415528774
 30
0.0
 10
96.67041284475602
 20
-10.79348415528774
 30
0.0
 10
97.5430555311698
 20
-10.79348415528774
 30
0.0
 10
98.2503336342916
 20
-10.08620605216595
 30
0.0
 10
98.2503336342916
 20
-9.213563365752165
 30
0.0
 10
98.2503336342916
 20
-8.340920679338382
 30
0.0
 10
97.5430555311698
 20
-7.633987085765114
 30
0.0
 10
96.67041284475602
 20
-7.633987085765114
 30
0.0
  0
POLYLINE
  5
6D
330
1F
100
AcDbEntity
  8
LAYER_1
 62
     7
100
AcDb2dPolyline
 66
     1
 10
0.0
 20
0.0
 30
0.0
  0
VERTEX
  5
6E
330
6D
100
AcDbEntity
  8
LAYER_1
 62
     7
100
AcDbVertex
100
AcDb2dVertex
 10
100.0031982171867
 20
-15.16772189290946
 30
0.0
  0
VERTEX
  5
6F
330
6D
100
AcDbEntity
  8
LAYER_1
 62
     7
100
AcDbVertex
100
AcDb2dVertex
 10
68.00239527379802
 20
-15.16772189290946
 30
0.0
  0
VERTEX
  5
70
330
6D
100
AcDbEntity
  8
LAYER_1
 62
     7
100
AcDbVertex
100
AcDb2dVertex
 10
68.00239527379802
 20
-3.625962998225454
 30
0.0
  0
VERTEX
  5
71
330
6D
100
AcDbEntity
  8
LAYER_1
 62
     7
100
AcDbVertex
100
AcDb2dVertex
 10
100.0031982171867
 20
-3.625962998225454
 30
0.0
  0
VERTEX
  5
72
330
6D
100
AcDbEntity
  8
LAYER_1
 62
     7
100
AcDbVertex
100
AcDb2dVertex
 10
100.0031982171867
 20
-15.16772189290946
 30
0.0
  0
SEQEND
  5
73
330
6D
100
AcDbEntity
  8
LAYER_1
  0
SPLINE
  5
74
330
1F
100
AcDbEntity
  8
LAYER_1
 62
     7
100
AcDbSpline
210
0.0
220
0.0
230
1.0
 70
    11
 71
     3
 72
    17
 73
    13
 74
     0
 42
0.0000000001
 43
0.0000000001
 40
0.0
 40
0.0
 40
0.0
 40
0.0
 40
1.0
 40
1.0
 40
1.0
 40
2.0
 40
2.0
 40
2.0
 40
3.0
 40
3.0
 40
3.0
 40
4.0
 40
4.0
 40
4.0
 40
4.0
 10
125.0604112100543
 20
8.47562391281165
 30
0.0
 10
125.0604112100543
 20
2.953135849956161
 30
0.0
 10
120.5831651174237
 20
-1.523765733126003
 30
0.0
 10
115.0603325450196
 20
-1.523765733126003
 30
0.0
 10
109.5374999726156
 20
-1.523765733126003
 30
0.0
 10
105.0602538799849
 20
2.953135849956161
 30
0.0
 10
105.0602538799849
 20
8.47562391281165
 30
0.0
 10
105.0602538799849
 20
13.99845648521566
 30
0.0
 10
109.5374999726156
 20
18.47535806829783
 30
0.0
 10
115.0603325450196
 20
18.47535806829783
 30
0.0
 10
120.5831651174237
 20
18.47535806829783
 30
0.0
 10
125.0604112100543
 20
13.99845648521566
 30
0.0
 10
125.0604112100543
 20
8.47562391281165
 30
0.0
  0
SPLINE
  5
75
330
1F
100
AcDbEntity
  8
LAYER_1
 62
     7
100
AcDbSpline
210
0.0
220
0.0
230
1.0
 70
    11
 71
     3
 72
    20
 73
    16
 74
     0
 42
0.0000000001
 43
0.0000000001
 40
0.0
 40
0.0
 40
0.0
 40
0.0
 40
1.0
 40
1.0
 40
1.0
 40
2.0
 40
2.0
 40
2.0
 40
3.0
 40
3.0
 40
3.0
 40
4.0
 40
4.0
 40
4.0
 40
5.0
 40
5.0
 40
5.0
 40
5.0
 10
118.3100911162558
 20
15.67587347698381
 30
0.0
 10
118.3100911162558
 20
15.67587347698381
 30
0.0
 10
111.8105739737835
 20
15.67587347698381
 30
0.0
 10
111.8105739737835
 20
15.67587347698381
 30
0.0
 10
109.0689669866216
 20
14.43667263093944
 30
0.0
 10
107.1603840877932
 20
11.67990722364252
 30
0.0
 10
107.1603840877932
 20
8.47562391281165
 30
0.0
 10
107.1603840877932
 20
4.112754990291256
 30
0.0
 10
110.6971191129507
 20
0.5760199651337728
 30
0.0
 10
115.0603325450196
 20
0.5760199651337728
 30
0.0
 10
119.4235459770886
 20
0.5760199651337728
 30
0.0
 10
122.960281002246
 20
4.112754990291256
 30
0.0
 10
122.960281002246
 20
8.47562391281165
 30
0.0
 10
122.960281002246
 20
11.67990722364252
 30
0.0
 10
121.0516981034176
 20
14.43667263093944
 30
0.0
 10
118.3100911162558
 20
15.67587347698381
 30
0.0
  0
SPLINE
  5
76
330
1F
100
AcDbEntity
  8
LAYER_1
 62
     7
100
AcDbSpline
210
0.0
220
0.0
230
1.0
 70
    11
 71
     3
 72
    17
 73
    13
 74
     0
 42
0.0000000001
 43
0.0000000001
 40
0.0
 40
0.0
 40
0.0
 40
0.0
 40
1.0
 40
1.0
 40
1.0
 40
2.0
 40
2.0
 40
2.0
 40
3.0
 40
3.0
 40
3.0
 40
4.0
 40
4.0
 40
4.0
 40
4.0
 10
149.7572672151649
 20
8.47562391281165
 30
0.0
 10
149.7572672151649
 20
2.953135849956161
 30
0.0
 10
145.2800211225342
 20
-1.523765733126003
 30
0.0
 10
139.7571885501302
 20
-1.523765733126003
 30
0.0
 10
134.2343559777262
 20
-1.523765733126003
 30
0.0
 10
129.7571098850954
 20
2.953135849956161
 30
0.0
 10
129.7571098850954
 20
8.47562391281165
 30
0.0
 10
129.7571098850954
 20
13.99845648521566
 30
0.0
 10
134.2343559777262
 20
18.47535806829783
 30
0.0
 10
139.7571885501302
 20
18.47535806829783
 30
0.0
 10
145.2800211225342
 20
18.47535806829783
 30
0.0
 10
149.7572672151649
 20
13.99845648521566
 30
0.0
 10
149.7572672151649
 20
8.47562391281165
 30
0.0
  0
SPLINE
  5
77
330
1F
100
AcDbEntity
  8
LAYER_1
 62
     7
100
AcDbSpline
210
0.0
220
0.0
230
1.0
 70
    11
 71
     3
 72
    20
 73
    16
 74
     0
 42
0.0000000001
 43
0.0000000001
 40
0.0
 40
0.0
 40
0.0
 40
0.0
 40
1.0
 40
1.0
 40
1.0
 40
2.0
 40
2.0
 40
2.0
 40
3.0
 40
3.0
 40
3.0
 40
4.0
 40
4.0
 40
4.0
 40
5.0
 40
5.0
 40
5.0
 40
5.0
 10
143.0069471213663
 20
15.67587347698381
 30
0.0
 10
143.0069471213663
 20
15.67587347698381
 30
0.0
 10
136.507429978894
 20
15.67587347698381
 30
0.0
 10
136.507429978894
 20
15.67587347698381
 30
0.0
 10
133.7658229917322
 20
14.43667263093944
 30
0.0
 10
131.8572400929038
 20
11.67990722364252
 30
0.0
 10
131.8572400929038
 20
8.47562391281165
 30
0.0
 10
131.8572400929038
 20
4.112754990291256
 30
0.0
 10
135.3939751180612
 20
0.5760199651337728
 30
0.0
 10
139.7571885501302
 20
0.5760199651337728
 30
0.0
 10
144.1204019821991
 20
0.5760199651337728
 30
0.0
 10
147.6571370073566
 20
4.112754990291256
 30
0.0
 10
147.6571370073566
 20
8.47562391281165
 30
0.0
 10
147.6571370073566
 20
11.67990722364252
 30
0.0
 10
145.7485541085281
 20
14.43667263093944
 30
0.0
 10
143.0069471213663
 20
15.67587347698381
 30
0.0
  0
SPLINE
  5
78
330
1F
100
AcDbEntity
  8
LAYER_1
 62
     7
100
AcDbSpline
210
0.0
220
0.0
230
1.0
 70
    11
 71
     3
 72
    17
 73
    13
 74
     0
 42
0.0000000001
 43
0.0000000001
 40
0.0
 40
0.0
 40
0.0
 40
0.0
 40
1.0
 40
1.0
 40
1.0
 40
2.0
 40
2.0
 40
2.0
 40
3.0
 40
3.0
 40
3.0
 40
4.0
 40
4.0
 40
4.0
 40
4.0
 10
174.1010009330373
 20
8.47562391281165
 30
0.0
 10
174.1010009330373
 20
2.953135849956161
 30
0.0
 10
169.6237548404066
 20
-1.523765733126003
 30
0.0
 10
164.1009222680026
 20
-1.523765733126003
 30
0.0
 10
158.5780896955985
 20
-1.523765733126003
 30
0.0
 10
154.1008436029678
 20
2.953135849956161
 30
0.0
 10
154.1008436029678
 20
8.47562391281165
 30
0.0
 10
154.1008436029678
 20
13.99845648521566
 30
0.0
 10
158.5780896955985
 20
18.47535806829783
 30
0.0
 10
164.1009222680026
 20
18.47535806829783
 30
0.0
 10
169.6237548404066
 20
18.47535806829783
 30
0.0
 10
174.1010009330373
 20
13.99845648521566
 30
0.0
 10
174.1010009330373
 20
8.47562391281165
 30
0.0
  0
SPLINE
  5
79
330
1F
100
AcDbEntity
  8
LAYER_1
 62
     7
100
AcDbSpline
210
0.0
220
0.0
230
1.0
 70
    11
 71
     3
 72
    20
 73
    16
 74
     0
 42
0.0000000001
 43
0.0000000001
 40
0.0
 40
0.0
 40
0.0
 40
0.0
 40
1.0
 40
1.0
 40
1.0
 40
2.0
 40
2.0
 40
2.0
 40
3.0
 40
3.0
 40
3.0
 40
4.0
 40
4.0
 40
4.0
 40
5.0
 40
5.0
 40
5.0
 40
5.0
 10
167.3506808392387
 20
15.67587347698381
 30
0.0
 10
167.3506808392387
 20
15.67587347698381
 30
0.0
 10
160.8511636967664
 20
15.67587347698381
 30
0.0
 10
160.8511636967664
 20
15.67587347698381
 30
0.0
 10
158.1095567096046
 20
14.43667263093944
 30
0.0
 10
156.2009738107762
 20
11.67990722364252
 30
0.0
 10
156.2009738107762
 20
8.47562391281165
 30
0.0
 10
156.2009738107762
 20
4.112754990291256
 30
0.0
 10
159.7377088359336
 20
0.5760199651337728
 30
0.0
 10
164.1009222680026
 20
0.5760199651337728
 30
0.0
 10
168.4641357000715
 20
0.5760199651337728
 30
0.0
 10
172.000870725229
 20
4.112754990291256
 30
0.0
 10
172.000870725229
 20
8.47562391281165
 30
0.0
 10
172.000870725229
 20
11.67990722364252
 30
0.0
 10
170.0922878264005
 20
14.43667263093944
 30
0.0
 10
167.3506808392387
 20
15.67587347698381
 30
0.0
  0
ENDSEC
  0
SECTION
  2
OBJECTS
  0
DICTIONARY
  5
C
330
0
100
AcDbDictionary
  3
ACAD_GROUP
350
D
  3
ACAD_LAYOUT
350
1A
  3
ACAD_MLINESTYLE
350
17
  3
ACAD_PLOTSETTINGS
350
19
  3
ACAD_TABLESTYLE
350
7A
  3
ACAD_VISUALSTYLE
350
2A
1001
ACAD
1000
TREAT_AS_HARD
1070
     0
  0
DICTIONARY
  5
D
102
{ACAD_REACTORS
330
C
102
}
330
C
100
AcDbDictionary
1001
ACAD
1000
TREAT_AS_HARD
1070
     0
  0
DICTIONARY
  5
1A
102
{ACAD_REACTORS
330
C
102
}
330
C
100
AcDbDictionary
1001
ACAD
1000
TREAT_AS_HARD
1070
     0
  0
DICTIONARY
  5
17
102
{ACAD_REACTORS
330
C
102
}
330
C
100
AcDbDictionary
  3
STANDARD
350
18
1001
ACAD
1000
TREAT_AS_HARD
1070
     0
  0
DICTIONARY
  5
19
102
{ACAD_REACTORS
330
C
102
}
330
C
100
AcDbDictionary
1001
ACAD
1000
TREAT_AS_HARD
1070
     0
  0
DICTIONARY
  5
7A
102
{ACAD_REACTORS
330
C
102
}
330
C
100
AcDbDictionary
1001
ACAD
1000
TREAT_AS_HARD
1070
     0
  0
DICTIONARY
  5
2A
102
{ACAD_REACTORS
330
C
102
}
330
C
100
AcDbDictionary
  3
2DWIREFRAME
350
2F
  3
3D_HIDDEN
350
31
  3
3DWIREFRAME
350
30
  3
BASIC
350
32
  3
BRIGHTEN
350
36
  3
COLORCHANGE
350
3A
  3
CONCEPTUAL
350
34
  3
DIM
350
35
  3
FACEPATTERN
350
39
  3
FLAT
350
2B
  3
FLATWITHEDGES
350
2C
  3
GOURAUD
350
2D
  3
GOURAUDWITHEDGES
350
2E
  3
LINEPATTERN
350
38
  3
REALISTIC
350
33
  3
THICKEN
350
37
1001
ACAD
1000
TREAT_AS_HARD
1070
     0
  0
MLINESTYLE
  5
18
102
{ACAD_REACTORS
330
17
102
}
330
17
100
AcDbMlineStyle
  2
Standard
 70
     0
  3

 62
   256
 51
90.0
 52
90.0
 71
     2
 49
0.5
 62
   256
  6
BYLAYER
 49
-0.5
 62
   256
  6
BYLAYER
  0
VISUALSTYLE
  5
2F
102
{ACAD_REACTORS
330
2A
102
}
330
2A
100
AcDbVisualStyle
  2
2dWireframe
 70
     4
 71
     0
 72
     2
 73
     0
 90
        0
 40
-0.6
 41
-30.0
 62
     5
 63
     7
 74
     1
 91
        4
 64
     7
 65
   257
 75
     1
175
     1
 42
1.0
 92
        0
 66
   257
 43
1.0
 76
     1
 77
     6
 78
     2
 67
     7
 79
     5
170
     0
171
     0
290
     0
174
     0
 93
        1
 44
0.0
173
     0
291
     0
 45
0.0
1001
ACAD
1000
AcDbSavedByObjectVersion
1070
     0
  0
VISUALSTYLE
  5
31
102
{ACAD_REACTORS
330
2A
102
}
330
2A
100
AcDbVisualStyle
  2
3D Hidden
 70
     6
 71
     1
 72
     2
 73
     2
 90
        0
 40
-0.6
 41
-30.0
 62
     5
 63
     7
 74
     2
 91
        2
 64
     7
 65
   257
 75
     2
175
     1
 42
40.0
 92
        0
 66
   257
 43
1.0
 76
     1
 77
     6
 78
     2
 67
     7
 79
     3
170
     0
171
     0
290
     0
174
     0
 93
        1
 44
0.0
173
     0
291
     0
 45
0.0
1001
ACAD
1000
AcDbSavedByObjectVersion
1070
     0
  0
VISUALSTYLE
  5
30
102
{ACAD_REACTORS
330
2A
102
}
330
2A
100
AcDbVisualStyle
  2
3dWireframe
 70
     5
 71
     0
 72
     2
 73
     0
 90
        0
 40
-0.6
 41
-30.0
 62
     5
 63
     7
 74
     1
 91
        4
 64
     7
 65
   257
 75
     1
175
     1
 42
1.0
 92
        0
 66
   257
 43
1.0
 76
     1
 77
     6
 78
     2
 67
     7
 79
     5
170
     0
171
     0
290
     0
174
     0
 93
        1
 44
0.0
173
     0
291
     0
 45
0.0
1001
ACAD
1000
AcDbSavedByObjectVersion
1070
     0
  0
VISUALSTYLE
  5
32
102
{ACAD_REACTORS
330
2A
102
}
330
2A
100
AcDbVisualStyle
  2
Basic
 70
     7
 71
     1
 72
     0
 73
     1
 90
        0
 40
-0.6
 41
-30.0
 62
     5
 63
     7
 74
     0
 91
        4
 64
     7
 65
   257
 75
     1
175
     1
 42
1.0
 92
        8
 66
     7
 43
1.0
 76
     1
 77
     6
 78
     2
 67
     7
 79
     5
170
     0
171
     0
290
     0
174
     0
 93
        1
 44
0.0
173
     0
291
     1
 45
0.0
1001
ACAD
1000
AcDbSavedByObjectVersion
1070
     0
  0
VISUALSTYLE
  5
36
102
{ACAD_REACTORS
330
2A
102
}
330
2A
100
AcDbVisualStyle
  2
Brighten
 70
    12
 71
     2
 72
     2
 73
     0
 90
        0
 40
-0.6
 41
-30.0
 62
     5
 63
     7
 74
     1
 91
        4
 64
     7
 65
   257
 75
     1
175
     1
 42
1.0
 92
        8
 66
     7
 43
1.0
 76
     1
 77
     6
 78
     2
 67
     7
 79
     5
170
     0
171
     0
290
     0
174
     0
 93
        1
 44
50.0
173
     0
291
     1
 45
0.0
1001
ACAD
1000
AcDbSavedByObjectVersion
1070
     0
  0
VISUALSTYLE
  5
3A
102
{ACAD_REACTORS
330
2A
102
}
330
2A
100
AcDbVisualStyle
  2
ColorChange
 70
    16
 71
     2
 72
     2
 73
     3
 90
        0
 40
-0.6
 41
-30.0
 62
     5
 63
     8
 74
     1
 91
        4
 64
     7
 65
   257
 75
     1
175
     1
 42
1.0
 92
        8
 66
     8
 43
1.0
 76
     1
 77
     6
 78
     2
 67
     7
 79
     5
170
     0
171
     0
290
     0
174
     0
 93
        1
 44
0.0
173
     0
291
     1
 45
0.0
1001
ACAD
1000
AcDbSavedByObjectVersion
1070
     0
  0
VISUALSTYLE
  5
34
102
{ACAD_REACTORS
330
2A
102
}
330
2A
100
AcDbVisualStyle
  2
Conceptual
 70
     9
 71
     3
 72
     2
 73
     0
 90
        0
 40
-0.6
 41
-30.0
 62
     5
 63
     7
 74
     2
 91
        2
 64
     7
 65
   257
 75
     1
175
     1
 42
40.0
 92
        8
 66
     7
 43
1.0
 76
     1
 77
     6
 78
     2
 67
     7
 79
     3
170
     0
171
     0
290
     0
174
     0
 93
        1
 44
0.0
173
     0
291
     0
 45
0.0
1001
ACAD
1000
AcDbSavedByObjectVersion
1070
     0
  0
VISUALSTYLE
  5
35
102
{ACAD_REACTORS
330
2A
102
}
330
2A
100
AcDbVisualStyle
  2
Dim
 70
    11
 71
     2
 72
     2
 73
     0
 90
        0
 40
-0.6
 41
-30.0
 62
     5
 63
     7
 74
     1
 91
        4
 64
     7
 65
   257
 75
     1
175
     1
 42
1.0
 92
        8
 66
     7
 43
1.0
 76
     1
 77
     6
 78
     2
 67
     7
 79
     5
170
     0
171
     0
290
     0
174
     0
 93
        1
 44
-50.0
173
     0
291
     1
 45
0.0
1001
ACAD
1000
AcDbSavedByObjectVersion
1070
     0
  0
VISUALSTYLE
  5
39
102
{ACAD_REACTORS
330
2A
102
}
330
2A
100
AcDbVisualStyle
  2
Facepattern
 70
    15
 71
     2
 72
     2
 73
     0
 90
        0
 40
-0.6
 41
-30.0
 62
     5
 63
     7
 74
     1
 91
        4
 64
     7
 65
   257
 75
     1
175
     1
 42
1.0
 92
        8
 66
     7
 43
1.0
 76
     1
 77
     6
 78
     2
 67
     7
 79
     5
170
     0
171
     0
290
     0
174
     0
 93
        1
 44
0.0
173
     0
291
     1
 45
0.0
1001
ACAD
1000
AcDbSavedByObjectVersion
1070
     0
  0
VISUALSTYLE
  5
2B
102
{ACAD_REACTORS
330
2A
102
}
330
2A
100
AcDbVisualStyle
  2
Flat
 70
     0
 71
     2
 72
     1
 73
     1
 90
        2
 40
-0.6
 41
30.0
 62
     5
 63
     7
 74
     0
 91
        4
 64
     7
 65
   257
 75
     1
175
     1
 42
1.0
 92
        8
 66
     7
 43
1.0
 76
     1
 77
     6
 78
     2
 67
     7
 79
     5
170
     0
171
     0
290
     0
174
     0
 93
       13
 44
0.0
173
     0
291
     1
 45
0.0
1001
ACAD
1000
AcDbSavedByObjectVersion
1070
     0
  0
VISUALSTYLE
  5
2C
102
{ACAD_REACTORS
330
2A
102
}
330
2A
100
AcDbVisualStyle
  2
FlatWithEdges
 70
     1
 71
     2
 72
     1
 73
     1
 90
        2
 40
-0.6
 41
30.0
 62
     5
 63
     7
 74
     1
 91
        4
 64
     7
 65
   257
 75
     1
175
     1
 42
1.0
 92
        0
 66
   257
 43
1.0
 76
     1
 77
     6
 78
     2
 67
     7
 79
     5
170
     0
171
     0
290
     0
174
     0
 93
       13
 44
0.0
173
     0
291
     1
 45
0.0
1001
ACAD
1000
AcDbSavedByObjectVersion
1070
     0
  0
VISUALSTYLE
  5
2D
102
{ACAD_REACTORS
330
2A
102
}
330
2A
100
AcDbVisualStyle
  2
Gouraud
 70
     2
 71
     2
 72
     2
 73
     1
 90
        2
 40
-0.6
 41
30.0
 62
     5
 63
     7
 74
     0
 91
        4
 64
     7
 65
   257
 75
     1
175
     1
 42
1.0
 92
        0
 66
     7
 43
1.0
 76
     1
 77
     6
 78
     2
 67
     7
 79
     5
170
     0
171
     0
290
     0
174
     0
 93
       13
 44
0.0
173
     0
291
     1
 45
0.0
1001
ACAD
1000
AcDbSavedByObjectVersion
1070
     0
  0
VISUALSTYLE
  5
2E
102
{ACAD_REACTORS
330
2A
102
}
330
2A
100
AcDbVisualStyle
  2
GouraudWithEdges
 70
     3
 71
     2
 72
     2
 73
     1
 90
        2
 40
-0.6
 41
30.0
 62
     5
 63
     7
 74
     1
 91
        4
 64
     7
 65
   257
 75
     1
175
     1
 42
1.0
 92
        0
 66
   257
 43
1.0
 76
     1
 77
     6
 78
     2
 67
     7
 79
     5
170
     0
171
     0
290
     0
174
     0
 93
       13
 44
0.0
173
     0
291
     1
 45
0.0
1001
ACAD
1000
AcDbSavedByObjectVersion
1070
     0
  0
VISUALSTYLE
  5
38
102
{ACAD_REACTORS
330
2A
102
}
330
2A
100
AcDbVisualStyle
  2
Linepattern
 70
    14
 71
     2
 72
     2
 73
     0
 90
        0
 40
-0.6
 41
-30.0
 62
     5
 63
     7
 74
     1
 91
        4
 64
     7
 65
   257
 75
     7
175
     7
 42
1.0
 92
        8
 66
     7
 43
1.0
 76
     1
 77
     6
 78
     2
 67
     7
 79
     5
170
     0
171
     0
290
     0
174
     0
 93
        1
 44
0.0
173
     0
291
     1
 45
0.0
1001
ACAD
1000
AcDbSavedByObjectVersion
1070
     0
  0
VISUALSTYLE
  5
33
102
{ACAD_REACTORS
330
2A
102
}
330
2A
100
AcDbVisualStyle
  2
Realistic
 70
     8
 71
     2
 72
     2
 73
     0
 90
        0
 40
-0.6
 41
-30.0
 62
     5
 63
     7
 74
     1
 91
        0
 64
     7
 65
   257
 75
     1
175
     1
 42
1.0
 92
        8
 66
     8
 43
1.0
 76
     1
 77
     6
 78
     2
 67
     7
 79
     5
170
     0
171
     0
290
     0
174
     0
 93
       13
 44
0.0
173
     0
291
     0
 45
0.0
1001
ACAD
1000
AcDbSavedByObjectVersion
1070
     0
  0
VISUALSTYLE
  5
37
102
{ACAD_REACTORS
330
2A
102
}
330
2A
100
AcDbVisualStyle
  2
Thicken
 70
    13
 71
     2
 72
     2
 73
     0
 90
        0
 40
-0.6
 41
-30.0
 62
     5
 63
     7
 74
     1
 91
        4
 64
     7
 65
   257
 75
     1
175
     1
 42
1.0
 92
       12
 66
     7
 43
1.0
 76
     1
 77
     6
 78
     2
 67
     7
 79
     5
170
     0
171
     0
290
     0
174
     0
 93
        1
 44
0.0
173
     0
291
     1
 45
0.0
1001
ACAD
1000
AcDbSavedByObjectVersion
1070
     0
  0
ENDSEC
  0
EOF
